<?xml version="1.0" encoding="utf-8"?>
<!-- Generator: Adobe Illustrator 17.1.0, SVG Export Plug-In . SVG Version: 6.00 Build 0)  -->
<!DOCTYPE svg PUBLIC "-//W3C//DTD SVG 1.1//EN" "http://www.w3.org/Graphics/SVG/1.1/DTD/svg11.dtd">
<svg version="1.1" id="Layer_2" xmlns="http://www.w3.org/2000/svg" xmlns:xlink="http://www.w3.org/1999/xlink" x="0px" y="0px" width="56px" height="56px"
	 viewBox="0 0 56 56" enable-background="new 0 0 56 56" xml:space="preserve">
<path d="M45.5,35H37V21h8.5C51.3,21,56,16.3,56,10.5S51.3,0,45.5,0S35,4.7,35,10.5V19H21v-8.5C21,4.7,16.3,0,10.5,0S0,4.7,0,10.5
	S4.7,21,10.5,21H19v14h-8.5C4.7,35,0,39.7,0,45.5C0,51.2,4.6,56,10.3,56c0.1,0,0.1,0,0.2,0c5.6-0.1,9.7-5.1,10.5-10.5V37h14v8.5
	C35,51.3,39.7,56,45.5,56S56,51.3,56,45.5S51.3,35,45.5,35z M37,10.5C37,5.8,40.8,2,45.5,2S54,5.8,54,10.5S50.2,19,45.5,19H37V10.5z
	 M10.5,19C5.8,19,2,15.2,2,10.5S5.8,2,10.5,2S19,5.8,19,10.5V19H10.5z M19,45.3c-0.7,4.2-3.9,8.6-8.5,8.7h-0.2C5.7,54,2,50.2,2,45.5
	S5.8,37,10.5,37H19V45.3z M21,35V21h14v14H21z M45.5,54c-4.7,0-8.5-3.8-8.5-8.5V37h8.5c4.7,0,8.5,3.8,8.5,8.5S50.2,54,45.5,54z"/>
</svg>
