<?xml version="1.0" encoding="utf-8"?>
<!-- Generator: Adobe Illustrator 17.1.0, SVG Export Plug-In . SVG Version: 6.00 Build 0)  -->
<!DOCTYPE svg PUBLIC "-//W3C//DTD SVG 1.1//EN" "http://www.w3.org/Graphics/SVG/1.1/DTD/svg11.dtd">
<svg version="1.1" id="Layer_1" xmlns="http://www.w3.org/2000/svg" xmlns:xlink="http://www.w3.org/1999/xlink" x="0px" y="0px" width="56px" height="32px"
	 viewBox="0 2 56 32" enable-background="new 0 2 56 32" xml:space="preserve">
<g>
	<path d="M52,2H4C1.8,2,0,3.8,0,6v24c0,2.2,1.8,4,4,4h48c2.2,0,4-1.8,4-4V6C56,3.8,54.2,2,52,2z M54,30c0,1.1-0.9,2-2,2H4
		c-1.1,0-2-0.9-2-2V6c0-1.1,0.9-2,2-2h48c1.1,0,2,0.9,2,2V30z"/>
	<rect x="9" y="10" width="2" height="15"/>
	<path d="M22.2,15c-0.3-0.3-0.7-0.6-1.2-0.8c-0.5-0.2-1.1-0.3-1.8-0.3c-1.6,0-2.8,0.7-3.5,2h0v-1.7H14V25h1.8v-6.1
		c0-0.5,0.1-0.9,0.2-1.4c0.1-0.4,0.3-0.8,0.6-1.1c0.3-0.3,0.6-0.5,1-0.7c0.4-0.2,0.9-0.3,1.4-0.3c0.7,0,1.2,0.2,1.6,0.6
		c0.4,0.4,0.6,0.9,0.6,1.6V25H23v-7.1c0-0.6-0.1-1.1-0.2-1.6S22.5,15.3,22.2,15z"/>
</g>
</svg>
