<?xml version="1.0" encoding="utf-8"?>
<!-- Generator: Adobe Illustrator 17.1.0, SVG Export Plug-In . SVG Version: 6.00 Build 0)  -->
<!DOCTYPE svg PUBLIC "-//W3C//DTD SVG 1.1//EN" "http://www.w3.org/Graphics/SVG/1.1/DTD/svg11.dtd">
<svg version="1.1" id="Layer_2_1_" xmlns="http://www.w3.org/2000/svg" xmlns:xlink="http://www.w3.org/1999/xlink" x="0px" y="0px"
	 width="42px" height="56px" viewBox="0 0 42 56" enable-background="new 0 0 42 56" xml:space="preserve">
<g>
	<path d="M40,0h-8v6H10V0H2.1c-1.1,0-2,0.9-2,2v51.9c0,1.1,0.9,2,2,2H10v-6h22v6h8c1.1,0,2-0.9,2-2V2C42,0.9,41.1,0,40,0z M40,54h-6
		v-4.1V48h-2H10H8v1.9V54H2V2l6.1-0.1V6v2h2h22H34V6V2h6.1L40,54L40,54z"/>
	<path d="M8.1,42H34V14H8.1V42z M10,16h22v24H10V16z"/>
	<path d="M27,22h-3l0,0c0-1.1-0.9-2-2-2h-2c-1.1,0-2,0.9-2,2l0,0h-3c-0.6,0-1,0.4-1,1s0.4,1,1,1h3l0,0c0,1.1,0.9,2,2,2h2
		c1.1,0,2-0.9,2-2l0,0h3c0.6,0,1-0.4,1-1S27.6,22,27,22z M22,24h-2v-2h2V24z"/>
	<path d="M26,30h-2c-1.1,0-2,1-2,2l0,0h-7c-0.6,0-1,0.4-1,1s0.4,1,1,1h7l0,0c0,1.1,0.9,2,2,2h2c1.1,0,2-0.9,2-2l0,0v-2l0,0
		C28,30.9,27.1,30,26,30z M26,34h-2v-2h2V34z"/>
</g>
</svg>
