<?xml version="1.0" encoding="utf-8"?>
<!-- Generator: Adobe Illustrator 17.1.0, SVG Export Plug-In . SVG Version: 6.00 Build 0)  -->
<!DOCTYPE svg PUBLIC "-//W3C//DTD SVG 1.1//EN" "http://www.w3.org/Graphics/SVG/1.1/DTD/svg11.dtd">
<svg version="1.1" id="Layer_1" xmlns="http://www.w3.org/2000/svg" xmlns:xlink="http://www.w3.org/1999/xlink" x="0px" y="0px" width="12px" height="52px"
	 viewBox="0 2 12 52" enable-background="new 0 2 12 52" xml:space="preserve">
<g id="_x37_27-more_x40_2x.png">
	<g>
		<path d="M12,8c0-3.3-2.7-6-6-6S0,4.7,0,8s2.7,6,6,6S12,11.3,12,8z M12,28c0-3.3-2.7-6-6-6s-6,2.7-6,6s2.7,6,6,6S12,31.3,12,28z
			 M2,28c0-2.2,1.8-4,4-4s4,1.8,4,4s-1.8,4-4,4S2,30.2,2,28z M12,48c0-3.3-2.7-6-6-6s-6,2.7-6,6s2.7,6,6,6S12,51.3,12,48z M2,48
			c0-2.2,1.8-4,4-4s4,1.8,4,4s-1.8,4-4,4S2,50.2,2,48z"/>
	</g>
</g>
</svg>
