<?xml version="1.0" encoding="iso-8859-1"?>
<!-- Generator: Adobe Illustrator 16.0.4, SVG Export Plug-In . SVG Version: 6.00 Build 0)  -->
<!DOCTYPE svg PUBLIC "-//W3C//DTD SVG 1.1//EN" "http://www.w3.org/Graphics/SVG/1.1/DTD/svg11.dtd">
<svg version="1.1" id="Layer_1" xmlns="http://www.w3.org/2000/svg" xmlns:xlink="http://www.w3.org/1999/xlink" x="0px" y="0px"
	 width="28px" height="44px" viewBox="0 0 28 44" style="enable-background:new 0 0 28 44;" xml:space="preserve">
<g id="_x31_023-airplay-speaker-toolbar_x40_2x.png">
	<g>
		<path d="M14,17c1.657,0,3-1.343,3-3c0-1.656-1.343-3-3-3s-3,1.344-3,3C11,15.657,12.343,17,14,17z M0,0v44h28V0H0z M26,42H2V2h24
			V42z M8,38c1.104,0,2-0.896,2-2s-0.896-2-2-2s-2,0.896-2,2S6.896,38,8,38z M14,22c4.418,0,8-3.582,8-8s-3.582-8-8-8s-8,3.582-8,8
			S9.582,22,14,22z M14,8c3.313,0,6,2.687,6,6s-2.687,6-6,6s-6-2.687-6-6S10.687,8,14,8z"/>
	</g>
</g>
<g>
</g>
<g>
</g>
<g>
</g>
<g>
</g>
<g>
</g>
<g>
</g>
<g>
</g>
<g>
</g>
<g>
</g>
<g>
</g>
<g>
</g>
<g>
</g>
<g>
</g>
<g>
</g>
<g>
</g>
</svg>
