<?xml version="1.0" encoding="iso-8859-1"?>
<!-- Generator: Adobe Illustrator 16.0.4, SVG Export Plug-In . SVG Version: 6.00 Build 0)  -->
<!DOCTYPE svg PUBLIC "-//W3C//DTD SVG 1.1//EN" "http://www.w3.org/Graphics/SVG/1.1/DTD/svg11.dtd">
<svg version="1.1" id="Layer_1" xmlns="http://www.w3.org/2000/svg" xmlns:xlink="http://www.w3.org/1999/xlink" x="0px" y="0px"
	 width="40.01px" height="43.988px" viewBox="0 0 40.01 43.988" style="enable-background:new 0 0 40.01 43.988;"
	 xml:space="preserve">
<g id="_x38_93-airplane-toolbar_x40_2x.png">
	<g>
		<path d="M40.01,27c0-0.36-0.2-0.662-0.485-0.84l0.006-0.009L24,16.445V4h-0.009c0-0.002,0.001-0.003,0.001-0.004
			C23.992,1.789,22.205,0,20,0c-2.204,0-3.991,1.789-3.991,3.996c0,0.001,0,0.002,0,0.004H16v12.445L0.47,26.151l0.009,0.013
			C0.197,26.343,0,26.643,0,27v3.982h0.004C0.004,30.99,0,30.996,0,31.003c0,0.544,0.45,0.985,1.005,0.985
			c0.121,0,0.233-0.028,0.341-0.067l0.006,0.015l14.661-5.497v8.038l-5.536,3.691l0.006,0.008c-0.271,0.181-0.461,0.474-0.461,0.824
			v3.982h0.005c-0.001,0.008-0.005,0.014-0.005,0.021c0,0.544,0.45,0.985,1.005,0.985c0.146,0,0.281-0.032,0.406-0.087l0.005,0.012
			l8.578-3.812l8.578,3.812l0.006-0.012c0.124,0.055,0.261,0.087,0.405,0.087c0.555,0,1.005-0.441,1.005-0.985
			c0-0.007-0.004-0.013-0.004-0.021h0.004V39c0-0.351-0.189-0.644-0.461-0.824l0.006-0.008l-5.566-3.712v-8.018l14.661,5.497
			l0.006-0.016c0.109,0.04,0.226,0.068,0.35,0.068c0.555,0,1.005-0.441,1.005-0.985c0-0.007-0.004-0.013-0.004-0.021h0.004V27z
			 M38,29.557l-14.648-5.493l-0.007,0.018c-0.109-0.041-0.225-0.07-0.348-0.07c-0.544,0-0.984,0.441-0.984,0.986
			c0,0.011,0.006,0.02,0.006,0.03v9.984h0.003c0.006,0.335,0.187,0.615,0.444,0.789l-0.021,0.031L28,39.535v1.926l-7.594-3.375
			l-0.001,0.002c-0.124-0.058-0.26-0.094-0.405-0.094c-0.165,0-0.313,0.052-0.45,0.125l-7.519,3.342v-1.926l5.555-3.703l-0.03-0.046
			c0.246-0.176,0.418-0.449,0.423-0.774h0.003v-10h-0.003c0-0.005,0.003-0.01,0.003-0.015c0-0.545-0.44-0.986-0.984-0.986
			c-0.121,0-0.234,0.029-0.342,0.069l-0.006-0.017L2.01,29.553v-2.005l15.521-9.7l-0.02-0.03c0.276-0.175,0.47-0.468,0.471-0.817H18
			V4c0-1.104,0.896-2,2-2s2,0.896,2,2v13h0.013c0.001,0.352,0.196,0.646,0.475,0.82l-0.018,0.027L38,27.554V29.557z"/>
	</g>
</g>
<g>
</g>
<g>
</g>
<g>
</g>
<g>
</g>
<g>
</g>
<g>
</g>
<g>
</g>
<g>
</g>
<g>
</g>
<g>
</g>
<g>
</g>
<g>
</g>
<g>
</g>
<g>
</g>
<g>
</g>
</svg>
