<?xml version="1.0" encoding="iso-8859-1"?>
<!-- Generator: Adobe Illustrator 16.0.4, SVG Export Plug-In . SVG Version: 6.00 Build 0)  -->
<!DOCTYPE svg PUBLIC "-//W3C//DTD SVG 1.1//EN" "http://www.w3.org/Graphics/SVG/1.1/DTD/svg11.dtd">
<svg version="1.1" id="Layer_1" xmlns="http://www.w3.org/2000/svg" xmlns:xlink="http://www.w3.org/1999/xlink" x="0px" y="0px"
	 width="56px" height="40px" viewBox="0 0 56 40" style="enable-background:new 0 0 56 40;" xml:space="preserve">
<g id="_x37_25-airplay_x40_2x.png">
	<g>
		<path d="M46.759,38.35l-18-21l-0.009,0.008C28.567,17.143,28.304,17,28,17s-0.566,0.143-0.75,0.357l-0.01-0.008l-18,21l0.01,0.008
			C9.1,38.532,9,38.752,9,39c0,0.553,0.447,1,1,1h36c0.553,0,1-0.447,1-1c0-0.248-0.1-0.468-0.25-0.643L46.759,38.35z M54,0H2
			C0.896,0,0,0.896,0,2v30c0,1.104,0.896,2,2,2h7c0.553,0,1-0.447,1-1s-0.447-1-1-1H2V2h52v30h-7c-0.553,0-1,0.447-1,1s0.447,1,1,1
			h7c1.104,0,2-0.896,2-2V2C56,0.896,55.104,0,54,0z"/>
	</g>
</g>
<g>
</g>
<g>
</g>
<g>
</g>
<g>
</g>
<g>
</g>
<g>
</g>
<g>
</g>
<g>
</g>
<g>
</g>
<g>
</g>
<g>
</g>
<g>
</g>
<g>
</g>
<g>
</g>
<g>
</g>
</svg>
