<?xml version="1.0" encoding="iso-8859-1"?>
<!-- Generator: Adobe Illustrator 16.0.4, SVG Export Plug-In . SVG Version: 6.00 Build 0)  -->
<!DOCTYPE svg PUBLIC "-//W3C//DTD SVG 1.1//EN" "http://www.w3.org/Graphics/SVG/1.1/DTD/svg11.dtd">
<svg version="1.1" id="Layer_1" xmlns="http://www.w3.org/2000/svg" xmlns:xlink="http://www.w3.org/1999/xlink" x="0px" y="0px"
	 width="40px" height="56px" viewBox="0 0 40 56" style="enable-background:new 0 0 40 56;" xml:space="preserve">
<g id="_x31_023-airplay-speaker_x40_2x.png">
	<g>
		<path d="M20,24c2.209,0,4-1.791,4-4s-1.791-4-4-4s-4,1.791-4,4S17.791,24,20,24z M0,0v56h40V0H0z M38,54H2V2h36V54z M11,48
			c1.657,0,3-1.343,3-3c0-1.656-1.343-3-3-3s-3,1.344-3,3C8,46.657,9.343,48,11,48z M20,32c6.627,0,12-5.373,12-12S26.627,8,20,8
			S8,13.373,8,20S13.373,32,20,32z M20,10c5.522,0,10,4.478,10,10s-4.478,10-10,10s-10-4.478-10-10S14.478,10,20,10z"/>
	</g>
</g>
<g>
</g>
<g>
</g>
<g>
</g>
<g>
</g>
<g>
</g>
<g>
</g>
<g>
</g>
<g>
</g>
<g>
</g>
<g>
</g>
<g>
</g>
<g>
</g>
<g>
</g>
<g>
</g>
<g>
</g>
</svg>
