<?xml version="1.0" encoding="iso-8859-1"?>
<!-- Generator: Adobe Illustrator 16.0.4, SVG Export Plug-In . SVG Version: 6.00 Build 0)  -->
<!DOCTYPE svg PUBLIC "-//W3C//DTD SVG 1.1//EN" "http://www.w3.org/Graphics/SVG/1.1/DTD/svg11.dtd">
<svg version="1.1" id="Layer_1" xmlns="http://www.w3.org/2000/svg" xmlns:xlink="http://www.w3.org/1999/xlink" x="0px" y="0px"
	 width="52px" height="56px" viewBox="0 0 52 56" style="enable-background:new 0 0 52 56;" xml:space="preserve">
<g id="_x38_93-airplane_x40_2x.png">
	<g>
		<path d="M51.563,34.195l0.01-0.015L32,20.479V6c0-3.313-2.687-6-6-6s-6,2.687-6,6v14.479L0.427,34.181l0.011,0.015
			C0.18,34.377,0,34.661,0,35v4c0,0.553,0.447,1,1,1c0.131,0,0.255-0.028,0.37-0.074l0.001,0.003l0.018-0.007
			c0.001,0,0.001,0,0.001,0L20,32.477v12.109l-5.707,5.707C14.112,50.474,14,50.725,14,51v4c0,0.553,0.447,1,1,1
			c0.174,0,0.33-0.057,0.472-0.135l0.007,0.013L26,50.14l10.521,5.738l0.007-0.013C36.671,55.943,36.826,56,37,56
			c0.553,0,1-0.447,1-1v-4c0-0.275-0.112-0.525-0.293-0.707L32,44.586V32.477l18.61,7.445h0.001l0.018,0.007l0.001-0.003
			C50.745,39.972,50.869,40,51,40c0.553,0,1-0.447,1-1v-4C52,34.661,51.82,34.377,51.563,34.195z M50,37.523l-18.629-7.452
			l-0.001,0.004C31.255,30.029,31.131,30,31,30c-0.553,0-1,0.448-1,1v14c0,0.276,0.112,0.526,0.293,0.707L36,51.414v1.901
			l-9.521-5.193l-0.007,0.013C26.329,48.057,26.174,48,26,48s-0.329,0.057-0.472,0.135l-0.007-0.013L16,53.315v-1.901l5.707-5.707
			C21.888,45.526,22,45.276,22,45V31c0-0.552-0.447-1-1-1c-0.131,0-0.255,0.029-0.37,0.075l-0.001-0.004L2,37.523v-2.003
			l19.573-13.701l-0.01-0.015C21.82,21.624,22,21.339,22,21v-9v-1.557C22,9.143,22,7.3,22,6c0-2.209,1.791-4,4-4s4,1.791,4,4
			c0,0.574,0,2.864,0,4.443V12v9c0,0.339,0.18,0.624,0.438,0.805l-0.011,0.015L50,35.521V37.523z"/>
	</g>
</g>
<g>
</g>
<g>
</g>
<g>
</g>
<g>
</g>
<g>
</g>
<g>
</g>
<g>
</g>
<g>
</g>
<g>
</g>
<g>
</g>
<g>
</g>
<g>
</g>
<g>
</g>
<g>
</g>
<g>
</g>
</svg>
