<?xml version="1.0" encoding="iso-8859-1"?>
<!-- Generator: Adobe Illustrator 16.0.4, SVG Export Plug-In . SVG Version: 6.00 Build 0)  -->
<!DOCTYPE svg PUBLIC "-//W3C//DTD SVG 1.1//EN" "http://www.w3.org/Graphics/SVG/1.1/DTD/svg11.dtd">
<svg version="1.1" id="Layer_1" xmlns="http://www.w3.org/2000/svg" xmlns:xlink="http://www.w3.org/1999/xlink" x="0px" y="0px"
	 width="44px" height="36px" viewBox="0 0 44 36" style="enable-background:new 0 0 44 36;" xml:space="preserve">
<g id="_x37_25-airplay-toolbar_x40_2x.png">
	<g>
		<path d="M34.76,34.349l-12.001-13l-0.009,0.008C22.566,21.143,22.304,21,22,21s-0.566,0.143-0.75,0.356l-0.01-0.008l-11.999,13
			l0.009,0.008C9.1,34.531,9,34.752,9,35c0,0.552,0.447,1,1,1h24c0.553,0,1-0.448,1-1c0-0.248-0.1-0.469-0.25-0.644L34.76,34.349z
			 M42,0H2C0.896,0,0,0.896,0,2v26c0,1.104,0.896,2,2,2h7c0.553,0,1-0.447,1-1s-0.447-1-1-1H2V2h40v26h-7c-0.553,0-1,0.447-1,1
			s0.447,1,1,1h7c1.104,0,2-0.896,2-2V2C44,0.896,43.104,0,42,0z"/>
	</g>
</g>
<g>
</g>
<g>
</g>
<g>
</g>
<g>
</g>
<g>
</g>
<g>
</g>
<g>
</g>
<g>
</g>
<g>
</g>
<g>
</g>
<g>
</g>
<g>
</g>
<g>
</g>
<g>
</g>
<g>
</g>
</svg>
