<?xml version="1.0" encoding="iso-8859-1"?>
<!-- Generator: Adobe Illustrator 16.0.4, SVG Export Plug-In . SVG Version: 6.00 Build 0)  -->
<!DOCTYPE svg PUBLIC "-//W3C//DTD SVG 1.1//EN" "http://www.w3.org/Graphics/SVG/1.1/DTD/svg11.dtd">
<svg version="1.1" id="Layer_1" xmlns="http://www.w3.org/2000/svg" xmlns:xlink="http://www.w3.org/1999/xlink" x="0px" y="0px"
	 width="44px" height="44px" viewBox="0 0 44 44" style="enable-background:new 0 0 44 44;" xml:space="preserve">
<g id="_x37_19-alarm-clock-toolbar_x40_2x.png">
	<g>
		<path d="M22,4C10.954,4,2,12.954,2,24c0,5.435,2.175,10.355,5.692,13.961l-4.406,4.406c-0.372,0.372-0.372,0.976,0,1.347
			c0.372,0.372,0.975,0.372,1.347,0l4.454-4.454C12.572,42.212,17.075,44,22,44c4.924,0,9.426-1.787,12.911-4.738l4.451,4.451
			c0.373,0.374,0.978,0.374,1.351,0c0.373-0.373,0.373-0.978,0-1.351l-4.403-4.403C39.826,34.354,42,29.434,42,24
			C42,12.954,33.046,4,22,4z M22,42c-9.941,0-18-8.059-18-18c0-9.94,8.059-18,18-18s18,8.06,18,18C40,33.941,31.941,42,22,42z
			 M2.683,10.683l0.024,0.024l8-8l-0.024-0.024c0.261-0.181,0.442-0.467,0.442-0.808c0-0.276-0.112-0.526-0.293-0.707l0.011-0.011
			c-0.052-0.034-0.11-0.059-0.163-0.092c-0.068-0.048-0.137-0.093-0.217-0.122C9.439,0.355,8.266,0,7,0C3.134,0,0,3.134,0,7
			c0,1.266,0.355,2.439,0.943,3.463c0.029,0.08,0.074,0.148,0.122,0.217c0.032,0.053,0.058,0.111,0.092,0.163l0.011-0.011
			c0.181,0.181,0.431,0.293,0.707,0.293C2.216,11.125,2.502,10.943,2.683,10.683z M2,7c0-2.762,2.238-5,5-5
			c0.48,0,0.938,0.08,1.374,0.212L2.212,8.374C2.08,7.938,2,7.48,2,7z M22,11c-0.553,0-1,0.448-1,1v11h-5c-0.553,0-1,0.448-1,1
			c0,0.553,0.447,1,1,1h6c0.553,0,1-0.447,1-1V12C23,11.448,22.553,11,22,11z M37,0c-1.266,0-2.439,0.355-3.463,0.943
			c-0.08,0.029-0.148,0.074-0.217,0.122c-0.053,0.033-0.111,0.058-0.163,0.092l0.011,0.011c-0.181,0.181-0.293,0.431-0.293,0.707
			c0,0.341,0.182,0.627,0.442,0.808l-0.024,0.024l8,8l0.024-0.024c0.181,0.261,0.467,0.442,0.808,0.442
			c0.276,0,0.526-0.112,0.707-0.293l0.011,0.011c0.034-0.052,0.06-0.11,0.092-0.163c0.048-0.068,0.093-0.137,0.122-0.217
			C43.645,9.439,44,8.266,44,7C44,3.134,40.866,0,37,0z M41.788,8.374l-6.162-6.162C36.062,2.08,36.52,2,37,2c2.762,0,5,2.238,5,5
			C42,7.48,41.92,7.938,41.788,8.374z"/>
	</g>
</g>
<g>
</g>
<g>
</g>
<g>
</g>
<g>
</g>
<g>
</g>
<g>
</g>
<g>
</g>
<g>
</g>
<g>
</g>
<g>
</g>
<g>
</g>
<g>
</g>
<g>
</g>
<g>
</g>
<g>
</g>
</svg>
