<?xml version="1.0" encoding="iso-8859-1"?>
<!-- Generator: Adobe Illustrator 16.0.4, SVG Export Plug-In . SVG Version: 6.00 Build 0)  -->
<!DOCTYPE svg PUBLIC "-//W3C//DTD SVG 1.1//EN" "http://www.w3.org/Graphics/SVG/1.1/DTD/svg11.dtd">
<svg version="1.1" id="Layer_1" xmlns="http://www.w3.org/2000/svg" xmlns:xlink="http://www.w3.org/1999/xlink" x="0px" y="0px"
	 width="44px" height="44px" viewBox="0 0 44 44" style="enable-background:new 0 0 44 44;" xml:space="preserve">
<g id="_x31_042-album-toolbar_x40_2x.png">
	<g>
		<path d="M14.376,37.663c3.371-0.997,5.667-3.841,5.589-6.663H20V9.895l16-1.777V25.24c-1.598-1.201-3.962-1.616-6.376-0.902
			c-3.78,1.117-6.229,4.558-5.469,7.686c0.76,3.127,4.44,4.757,8.221,3.639c3.371-0.996,5.667-3.84,5.589-6.662H38V7
			c0-0.552-0.447-1-1-1c-0.031,0-0.059,0.016-0.089,0.019l-0.002-0.015l-18,2l0.002,0.015C18.402,8.065,18,8.479,18,9v18.24
			c-1.598-1.201-3.962-1.616-6.376-0.902c-3.78,1.117-6.229,4.558-5.469,7.686C6.915,37.15,10.596,38.78,14.376,37.663z
			 M31.92,33.734c-2.709,0.79-5.318-0.242-5.826-2.305s1.276-4.375,3.986-5.164c2.709-0.79,5.318,0.242,5.826,2.305
			C36.415,30.633,34.63,32.945,31.92,33.734z M12.08,28.266c2.709-0.79,5.318,0.242,5.826,2.305
			c0.509,2.062-1.276,4.375-3.986,5.164c-2.709,0.79-5.318-0.242-5.826-2.305S9.37,29.055,12.08,28.266z M42,0H2
			C0.896,0,0,0.896,0,2v40c0,1.104,0.896,2,2,2h40c1.104,0,2-0.896,2-2V2C44,0.896,43.104,0,42,0z M42,42H2V2h40V42z"/>
	</g>
</g>
<g>
</g>
<g>
</g>
<g>
</g>
<g>
</g>
<g>
</g>
<g>
</g>
<g>
</g>
<g>
</g>
<g>
</g>
<g>
</g>
<g>
</g>
<g>
</g>
<g>
</g>
<g>
</g>
<g>
</g>
</svg>
