<?xml version="1.0" encoding="iso-8859-1"?>
<!-- Generator: Adobe Illustrator 16.0.4, SVG Export Plug-In . SVG Version: 6.00 Build 0)  -->
<!DOCTYPE svg PUBLIC "-//W3C//DTD SVG 1.1//EN" "http://www.w3.org/Graphics/SVG/1.1/DTD/svg11.dtd">
<svg version="1.1" id="Layer_1" xmlns="http://www.w3.org/2000/svg" xmlns:xlink="http://www.w3.org/1999/xlink" x="0px" y="0px"
	 width="56px" height="56px" viewBox="0 0 56 56" style="enable-background:new 0 0 56 56;" xml:space="preserve">
<g id="_x31_042-album_x40_2x.png">
	<g>
		<path d="M16.774,49.549c4.455-1.271,7.466-4.953,7.209-8.549H24V9.913l20-1.818v26.909c-2.042-1.826-5.375-2.521-8.774-1.553
			c-4.878,1.391-8.037,5.675-7.057,9.567c0.979,3.893,5.729,5.921,10.605,4.53c4.455-1.271,7.466-4.954,7.209-8.549H46V7
			c0-0.552-0.447-1-1-1c-0.031,0-0.059,0.016-0.089,0.019l-0.002-0.015l-22,2l0.002,0.015C22.402,8.065,22,8.479,22,9v28.004
			c-2.042-1.826-5.375-2.521-8.774-1.553c-4.878,1.391-8.037,5.674-7.057,9.567C7.149,48.911,11.897,50.939,16.774,49.549z
			 M38.288,45.636c-3.793,1.085-7.445-0.334-8.157-3.17c-0.711-2.836,1.787-6.016,5.581-7.101c3.793-1.086,7.445,0.333,8.157,3.169
			C44.58,41.371,42.082,44.55,38.288,45.636z M13.712,37.365c3.793-1.086,7.445,0.333,8.157,3.169
			c0.711,2.837-1.787,6.016-5.581,7.102c-3.793,1.085-7.445-0.334-8.157-3.17C7.42,41.63,9.918,38.45,13.712,37.365z M54,0H2
			C0.896,0,0,0.896,0,2v52c0,1.104,0.896,2,2,2h52c1.104,0,2-0.896,2-2V2C56,0.896,55.104,0,54,0z M54,54H2V2h52V54z"/>
	</g>
</g>
<g>
</g>
<g>
</g>
<g>
</g>
<g>
</g>
<g>
</g>
<g>
</g>
<g>
</g>
<g>
</g>
<g>
</g>
<g>
</g>
<g>
</g>
<g>
</g>
<g>
</g>
<g>
</g>
<g>
</g>
</svg>
