<?xml version="1.0" encoding="iso-8859-1"?>
<!-- Generator: Adobe Illustrator 16.0.4, SVG Export Plug-In . SVG Version: 6.00 Build 0)  -->
<!DOCTYPE svg PUBLIC "-//W3C//DTD SVG 1.1//EN" "http://www.w3.org/Graphics/SVG/1.1/DTD/svg11.dtd">
<svg version="1.1" id="Layer_1" xmlns="http://www.w3.org/2000/svg" xmlns:xlink="http://www.w3.org/1999/xlink" x="0px" y="0px"
	 width="56px" height="40px" viewBox="0 0 56 40" style="enable-background:new 0 0 56 40;" xml:space="preserve">
<g id="_x31_043-album-disc_x40_2x.png">
	<g>
		<path d="M13.179,33.687c2.547-0.727,4.365-2.644,4.721-4.687H18V9.867l12-1.714v14.726c-1.358-0.846-3.247-1.116-5.179-0.564
			c-3.24,0.924-5.34,3.771-4.688,6.359c0.651,2.589,3.806,3.938,7.046,3.013c2.547-0.727,4.365-2.644,4.721-4.687H32V7
			c0-0.552-0.447-1-1-1c-0.049,0-0.092,0.021-0.139,0.028L30.858,6.01l-14,2l0.003,0.019C16.378,8.099,16,8.497,16,9v15.879
			c-1.358-0.846-3.247-1.116-5.179-0.564c-3.24,0.924-5.34,3.771-4.688,6.359C6.784,33.263,9.938,34.611,13.179,33.687z
			 M26.736,29.801c-2.168,0.593-4.255-0.182-4.661-1.729c-0.407-1.547,1.021-3.281,3.188-3.873s4.255,0.182,4.661,1.729
			C30.332,27.475,28.904,29.209,26.736,29.801z M11.264,26.199c2.168-0.592,4.255,0.182,4.661,1.729
			c0.407,1.547-1.021,3.281-3.188,3.873c-2.168,0.593-4.255-0.182-4.661-1.729C7.668,28.525,9.096,26.791,11.264,26.199z M40,2.154
			V2c0-1.104-0.896-2-2-2H2C0.896,0,0,0.896,0,2v36c0,1.104,0.896,2,2,2h36c1.104,0,2-0.896,2-2v-0.154
			C48.994,36.847,56,29.261,56,20S48.994,3.153,40,2.154z M38,38H2V2h36V38z M40,16.564c1.19,0.689,2,1.96,2,3.436
			s-0.81,2.746-2,3.436V16.564z M40,35.839V25.638c2.328-0.822,4-3.027,4-5.638s-1.672-4.815-4-5.638V4.161
			C47.888,5.148,54,11.845,54,20C54,28.156,47.888,34.852,40,35.839z"/>
	</g>
</g>
<g>
</g>
<g>
</g>
<g>
</g>
<g>
</g>
<g>
</g>
<g>
</g>
<g>
</g>
<g>
</g>
<g>
</g>
<g>
</g>
<g>
</g>
<g>
</g>
<g>
</g>
<g>
</g>
<g>
</g>
</svg>
