<?xml version="1.0" encoding="iso-8859-1"?>
<!-- Generator: Adobe Illustrator 16.0.4, SVG Export Plug-In . SVG Version: 6.00 Build 0)  -->
<!DOCTYPE svg PUBLIC "-//W3C//DTD SVG 1.1//EN" "http://www.w3.org/Graphics/SVG/1.1/DTD/svg11.dtd">
<svg version="1.1" id="Layer_1" xmlns="http://www.w3.org/2000/svg" xmlns:xlink="http://www.w3.org/1999/xlink" x="0px" y="0px"
	 width="44px" height="36px" viewBox="0 0 44 36" style="enable-background:new 0 0 44 36;" xml:space="preserve">
<g id="_x37_07-albums-toolbar_x40_2x.png">
	<g>
		<path d="M10,2h24c0.553,0,1-0.447,1-1c0-0.552-0.447-1-1-1H10C9.447,0,9,0.448,9,1C9,1.553,9.447,2,10,2z M42,8H2
			c-1.104,0-2,0.896-2,2v24c0,1.104,0.896,2,2,2h40c1.104,0,2-0.896,2-2V10C44,8.896,43.104,8,42,8z M42,34H2V10h40V34z M6,6h32
			c0.553,0,1-0.447,1-1c0-0.552-0.447-1-1-1H6C5.447,4,5,4.448,5,5C5,5.553,5.447,6,6,6z"/>
	</g>
</g>
<g>
</g>
<g>
</g>
<g>
</g>
<g>
</g>
<g>
</g>
<g>
</g>
<g>
</g>
<g>
</g>
<g>
</g>
<g>
</g>
<g>
</g>
<g>
</g>
<g>
</g>
<g>
</g>
<g>
</g>
</svg>
