<?xml version="1.0" encoding="iso-8859-1"?>
<!-- Generator: Adobe Illustrator 16.0.4, SVG Export Plug-In . SVG Version: 6.00 Build 0)  -->
<!DOCTYPE svg PUBLIC "-//W3C//DTD SVG 1.1//EN" "http://www.w3.org/Graphics/SVG/1.1/DTD/svg11.dtd">
<svg version="1.1" id="Layer_1" xmlns="http://www.w3.org/2000/svg" xmlns:xlink="http://www.w3.org/1999/xlink" x="0px" y="0px"
	 width="56px" height="46px" viewBox="0 0 56 46" style="enable-background:new 0 0 56 46;" xml:space="preserve">
<g id="_x37_07-albums_x40_2x.png">
	<g>
		<path d="M6,6h44c0.553,0,1-0.447,1-1c0-0.552-0.447-1-1-1H6C5.447,4,5,4.448,5,5C5,5.553,5.447,6,6,6z M10,2h36
			c0.553,0,1-0.447,1-1s-0.447-1-1-1H10C9.447,0,9,0.447,9,1S9.447,2,10,2z M54,8H2c-1.104,0-2,0.896-2,2v34c0,1.104,0.896,2,2,2h52
			c1.104,0,2-0.896,2-2V10C56,8.896,55.104,8,54,8z M54,44H2V10h52V44z"/>
	</g>
</g>
<g>
</g>
<g>
</g>
<g>
</g>
<g>
</g>
<g>
</g>
<g>
</g>
<g>
</g>
<g>
</g>
<g>
</g>
<g>
</g>
<g>
</g>
<g>
</g>
<g>
</g>
<g>
</g>
<g>
</g>
</svg>
