<?xml version="1.0" encoding="iso-8859-1"?>
<!-- Generator: Adobe Illustrator 16.0.4, SVG Export Plug-In . SVG Version: 6.00 Build 0)  -->
<!DOCTYPE svg PUBLIC "-//W3C//DTD SVG 1.1//EN" "http://www.w3.org/Graphics/SVG/1.1/DTD/svg11.dtd">
<svg version="1.1" id="Layer_1" xmlns="http://www.w3.org/2000/svg" xmlns:xlink="http://www.w3.org/1999/xlink" x="0px" y="0px"
	 width="44px" height="26px" viewBox="0 0 44 26" style="enable-background:new 0 0 44 26;" xml:space="preserve">
<g id="_x31_179-align-center_x40_2x.png">
	<g>
		<path d="M1,2h42c0.553,0,1-0.447,1-1c0-0.552-0.447-1-1-1H1C0.447,0,0,0.448,0,1C0,1.553,0.447,2,1,2z M9,8C8.447,8,8,8.447,8,9
			s0.447,1,1,1h26c0.553,0,1-0.447,1-1s-0.447-1-1-1H9z M35,24H9c-0.553,0-1,0.448-1,1c0,0.553,0.447,1,1,1h26c0.553,0,1-0.447,1-1
			C36,24.448,35.553,24,35,24z M43,16H1c-0.553,0-1,0.448-1,1c0,0.553,0.447,1,1,1h42c0.553,0,1-0.447,1-1
			C44,16.448,43.553,16,43,16z"/>
	</g>
</g>
<g>
</g>
<g>
</g>
<g>
</g>
<g>
</g>
<g>
</g>
<g>
</g>
<g>
</g>
<g>
</g>
<g>
</g>
<g>
</g>
<g>
</g>
<g>
</g>
<g>
</g>
<g>
</g>
<g>
</g>
</svg>
