<?xml version="1.0" encoding="UTF-8" standalone="no"?>
<svg width="57px" height="34px" viewBox="0 0 57 34" version="1.1" xmlns="http://www.w3.org/2000/svg" xmlns:xlink="http://www.w3.org/1999/xlink" xmlns:sketch="http://www.bohemiancoding.com/sketch/ns">
    <!-- Generator: Sketch 3.0.4 (8053) - http://www.bohemiancoding.com/sketch -->
    <title>1177-align-left</title>
    <desc>Created with Sketch.</desc>
    <defs></defs>
    <g id="Page-1" stroke="none" stroke-width="1" fill="none" fill-rule="evenodd" sketch:type="MSPage">
        <g id="Glyphish-8-Icons" sketch:type="MSArtboardGroup" transform="translate(-596.000000, -703.000000)" fill="#000000">
            <g id="1177-align-left" sketch:type="MSLayerGroup" transform="translate(596.036996, 703.860499)">
                <g id="_x31_177-align-left_x40_2x.png" sketch:type="MSShapeGroup">
                    <path d="M1,2 L55,2 C55.553,2 56,1.553 56,1 C56,0.447 55.553,0 55,0 L1,0 C0.447,0 0,0.447 0,1 C0,1.553 0.447,2 1,2 L1,2 Z M1,12 L35,12 C35.553,12 36,11.553 36,11 C36,10.447 35.553,10 35,10 L1,10 C0.447,10 0,10.447 0,11 C0,11.553 0.447,12 1,12 L1,12 Z M55,20 L1,20 C0.447,20 0,20.447 0,21 C0,21.553 0.447,22 1,22 L55,22 C55.553,22 56,21.553 56,21 C56,20.447 55.553,20 55,20 L55,20 Z M35,30 L1,30 C0.447,30 0,30.447 0,31 C0,31.553 0.447,32 1,32 L35,32 C35.553,32 36,31.553 36,31 C36,30.447 35.553,30 35,30 L35,30 Z" id="Shape"></path>
                </g>
            </g>
        </g>
    </g>
</svg>