<?xml version="1.0" encoding="iso-8859-1"?>
<!-- Generator: Adobe Illustrator 16.0.4, SVG Export Plug-In . SVG Version: 6.00 Build 0)  -->
<!DOCTYPE svg PUBLIC "-//W3C//DTD SVG 1.1//EN" "http://www.w3.org/Graphics/SVG/1.1/DTD/svg11.dtd">
<svg version="1.1" id="Layer_1" xmlns="http://www.w3.org/2000/svg" xmlns:xlink="http://www.w3.org/1999/xlink" x="0px" y="0px"
	 width="44px" height="26px" viewBox="0 0 44 26" style="enable-background:new 0 0 44 26;" xml:space="preserve">
<g id="_x31_180-align-justify_x40_2x.png">
	<g>
		<path d="M1,2h42c0.553,0,1-0.447,1-1c0-0.552-0.447-1-1-1H1C0.447,0,0,0.448,0,1C0,1.553,0.447,2,1,2z M43,24H1
			c-0.553,0-1,0.448-1,1c0,0.553,0.447,1,1,1h42c0.553,0,1-0.447,1-1C44,24.448,43.553,24,43,24z M43,16H1c-0.553,0-1,0.448-1,1
			c0,0.553,0.447,1,1,1h42c0.553,0,1-0.447,1-1C44,16.448,43.553,16,43,16z M43,8H1C0.447,8,0,8.447,0,9s0.447,1,1,1h42
			c0.553,0,1-0.447,1-1S43.553,8,43,8z"/>
	</g>
</g>
<g>
</g>
<g>
</g>
<g>
</g>
<g>
</g>
<g>
</g>
<g>
</g>
<g>
</g>
<g>
</g>
<g>
</g>
<g>
</g>
<g>
</g>
<g>
</g>
<g>
</g>
<g>
</g>
<g>
</g>
</svg>
