<?xml version="1.0" encoding="UTF-8" standalone="no"?>
<svg width="58px" height="58px" viewBox="0 0 58 58" version="1.1" xmlns="http://www.w3.org/2000/svg" xmlns:xlink="http://www.w3.org/1999/xlink" xmlns:sketch="http://www.bohemiancoding.com/sketch/ns">
    <!-- Generator: Sketch 3.0.4 (8053) - http://www.bohemiancoding.com/sketch -->
    <title>1251-amazon</title>
    <desc>Created with Sketch.</desc>
    <defs></defs>
    <g id="Page-1" stroke="none" stroke-width="1" fill="none" fill-rule="evenodd" sketch:type="MSPage">
        <g id="Glyphish-8-Icons" sketch:type="MSArtboardGroup" transform="translate(-20.000000, -1459.000000)" fill="#000000">
            <g id="1251-amazon" sketch:type="MSLayerGroup" transform="translate(20.036996, 1459.860499)">
                <g id="_x31_251-amazon_x40_2x.png" sketch:type="MSShapeGroup">
                    <path d="M43.18,34.533 C41.903,34.533 40.159,34.869 39.105,35.811 C38.925,35.973 38.502,36.351 38.665,36.75 C38.818,37.128 39.315,37.128 39.504,37.128 C39.597,37.128 39.7,37.124 39.813,37.114 L40.088,37.093 C40.858,37.034 41.583,36.978 42.235,36.978 C42.532,36.978 42.818,36.99 43.089,37.019 C43.425,37.053 43.496,37.147 43.521,37.178 C43.671,37.376 43.583,37.941 43.491,38.411 C43.211,39.822 43.042,40.621 42.586,41.951 C42.428,42.415 42.425,42.698 42.579,42.901 C42.678,43.032 42.832,43.107 43.006,43.107 C43.46,43.107 43.961,42.598 43.964,42.593 C45.372,41.033 46.552,36.168 45.743,35.262 C45.154,34.605 43.754,34.533 43.18,34.533 L43.18,34.533 Z M25.675,20.396 C21.596,20.694 17.8,23.236 17.72,28.108 C17.646,32.595 20.762,34.733 25.015,34.522 C27.548,34.398 29.757,33.362 31.431,31.577 L33.839,34.139 C33.975,34.284 34.173,34.372 34.377,34.382 C34.58,34.388 34.785,34.315 34.932,34.181 L38.066,31.316 C38.329,31.076 38.37,30.645 38.157,30.364 L37.045,28.917 C36.811,28.62 36.98,27.311 36.98,26.566 L36.98,16.647 C36.98,13.073 33.423,11.006 27.033,11.006 C23.205,11.133 19.563,12.494 18.624,16.918 C18.582,17.113 18.63,17.327 18.753,17.49 C18.877,17.653 19.074,17.764 19.283,17.787 L23.188,18.212 C23.562,18.254 23.945,17.988 24.02,17.634 C24.302,16.241 25.408,15.213 27.033,15.213 C29.452,15.213 30.5,16.401 30.5,17.979 L30.5,20.049 L25.675,20.396 L25.675,20.396 Z M30.551,23.183 L30.551,25.936 C30.551,28.074 29.068,29.894 27.842,30.246 C25.425,30.942 23.856,29.147 23.916,27.233 C23.991,24.815 26.216,23.342 28.095,23.272 L30.551,23.183 L30.551,23.183 Z M28,0 C12.536,0 0,12.536 0,28 C0,43.464 12.536,56 28,56 C43.464,56 56,43.464 56,28 C56,12.536 43.464,0 28,0 L28,0 Z M28,54 C13.641,54 2,42.359 2,28 C2,13.641 13.641,2 28,2 C42.359,2 54,13.641 54,28 C54,42.359 42.359,54 28,54 L28,54 Z M41.525,38.128 C41.261,38.128 40.956,38.208 40.663,38.355 C36.547,40.415 32.775,41.13 28.264,41.13 C28.264,41.13 28.264,41.13 28.263,41.13 C22.651,41.13 17.111,39.468 12.239,36.322 L12.082,36.218 C11.876,36.079 11.538,35.851 11.165,35.621 C10.916,35.47 10.741,35.405 10.574,35.405 C10.392,35.405 10.24,35.485 10.127,35.638 C9.931,35.896 9.974,36.289 10.232,36.576 C15.296,42.163 21.234,44.995 27.882,44.995 L27.882,44.995 C28.288,44.995 28.694,44.984 29.106,44.962 C34.901,44.652 39.283,42.248 41.788,40.004 C42.342,39.506 42.532,38.83 42.227,38.433 C42.079,38.236 41.831,38.128 41.525,38.128 L41.525,38.128 Z" id="Shape"></path>
                </g>
            </g>
        </g>
    </g>
</svg>