<?xml version="1.0" encoding="iso-8859-1"?>
<!-- Generator: Adobe Illustrator 16.0.4, SVG Export Plug-In . SVG Version: 6.00 Build 0)  -->
<!DOCTYPE svg PUBLIC "-//W3C//DTD SVG 1.1//EN" "http://www.w3.org/Graphics/SVG/1.1/DTD/svg11.dtd">
<svg version="1.1" id="Layer_1" xmlns="http://www.w3.org/2000/svg" xmlns:xlink="http://www.w3.org/1999/xlink" x="0px" y="0px"
	 width="44px" height="44px" viewBox="0 0 44 44" style="enable-background:new 0 0 44 44;" xml:space="preserve">
<g id="_x31_251-amazon_x40_2x.png">
	<g>
		<path d="M20.19,16.18c-3.177,0.228-6.134,2.174-6.196,5.903c-0.057,3.436,2.37,5.071,5.682,4.909
			c1.973-0.095,3.693-0.887,4.997-2.254l1.875,1.961c0.105,0.11,0.26,0.179,0.418,0.186c0.159,0.005,0.318-0.051,0.432-0.153
			l2.44-2.193c0.205-0.184,0.237-0.514,0.071-0.729l-0.866-1.107c-0.182-0.227-0.051-1.229-0.051-1.799V13.31
			c0-2.736-2.77-4.318-7.746-4.318c-2.981,0.098-5.817,1.14-6.548,4.526c-0.033,0.148,0.004,0.312,0.101,0.438
			s0.25,0.21,0.413,0.228l3.041,0.325c0.292,0.031,0.59-0.172,0.648-0.442c0.219-1.066,1.081-1.854,2.346-1.854
			c1.884,0,2.7,0.91,2.7,2.118v1.585L20.19,16.18z M23.987,18.312v2.107c0,1.636-1.155,3.029-2.11,3.299
			c-1.882,0.533-3.104-0.842-3.058-2.306c0.058-1.852,1.791-2.979,3.254-3.032L23.987,18.312z M22,0C9.85,0,0,9.85,0,22
			s9.85,22,22,22s22-9.85,22-22S34.15,0,22,0z M22,42C10.954,42,2,33.046,2,22S10.954,2,22,2s20,8.954,20,20S33.046,42,22,42z
			 M33.821,27.001c-0.995,0-2.353,0.258-3.173,0.979c-0.141,0.124-0.469,0.413-0.343,0.72c0.119,0.288,0.506,0.288,0.653,0.288
			c0.072,0,0.152-0.003,0.24-0.01l0.215-0.017c0.599-0.045,1.164-0.088,1.671-0.088c0.232,0,0.455,0.009,0.665,0.031
			c0.262,0.026,0.317,0.098,0.336,0.122c0.117,0.151,0.049,0.584-0.023,0.943c-0.219,1.081-0.35,1.692-0.705,2.71
			c-0.123,0.355-0.125,0.572-0.006,0.728c0.077,0.1,0.197,0.157,0.333,0.157c0.353,0,0.744-0.389,0.746-0.393
			c1.096-1.194,2.015-4.918,1.385-5.611C35.359,27.056,34.269,27.001,33.821,27.001z M32.533,29.753
			c-0.206,0-0.443,0.062-0.672,0.174c-3.205,1.575-6.143,2.124-9.656,2.124c0,0,0,0-0.001,0c-4.37,0-8.685-1.272-12.479-3.681
			l-0.123-0.079c-0.16-0.106-0.424-0.281-0.713-0.457c-0.194-0.116-0.331-0.166-0.46-0.166c-0.142,0-0.26,0.062-0.348,0.18
			c-0.152,0.196-0.119,0.498,0.082,0.718c3.943,4.276,8.568,6.443,13.745,6.443c0,0,0,0,0,0c0.316,0,0.633-0.008,0.953-0.024
			c4.513-0.237,7.925-2.078,9.876-3.796c0.432-0.381,0.58-0.897,0.342-1.202C32.964,29.836,32.771,29.753,32.533,29.753z"/>
	</g>
</g>
<g>
</g>
<g>
</g>
<g>
</g>
<g>
</g>
<g>
</g>
<g>
</g>
<g>
</g>
<g>
</g>
<g>
</g>
<g>
</g>
<g>
</g>
<g>
</g>
<g>
</g>
<g>
</g>
<g>
</g>
</svg>
