<?xml version="1.0" encoding="iso-8859-1"?>
<!-- Generator: Adobe Illustrator 16.0.4, SVG Export Plug-In . SVG Version: 6.00 Build 0)  -->
<!DOCTYPE svg PUBLIC "-//W3C//DTD SVG 1.1//EN" "http://www.w3.org/Graphics/SVG/1.1/DTD/svg11.dtd">
<svg version="1.1" id="Layer_1" xmlns="http://www.w3.org/2000/svg" xmlns:xlink="http://www.w3.org/1999/xlink" x="0px" y="0px"
	 width="56px" height="56px" viewBox="0 0 56 56" style="enable-background:new 0 0 56 56;" xml:space="preserve">
<g id="_x38_36-anchor_x40_2x.png">
	<g>
		<path d="M55,36H45c-0.553,0-1,0.447-1,1s0.447,1,1,1h8.079c-2.916,3.953-10.9,13.505-21.149,15.58L30.551,26h9.633
			c0.413,1.163,1.512,2,2.816,2c1.657,0,3-1.343,3-3s-1.343-3-3-3c-1.305,0-2.403,0.838-2.816,2h-9.732l-0.413-8.271
			C33.467,14.826,36,11.713,36,8c0-4.418-3.582-8-8-8s-8,3.582-8,8c0,3.713,2.533,6.826,5.962,7.729L25.549,24h-9.732
			c-0.413-1.162-1.512-2-2.816-2c-1.657,0-3,1.343-3,3s1.343,3,3,3c1.305,0,2.403-0.837,2.816-2h9.633L24.07,53.58
			C13.821,51.505,5.837,41.953,2.921,38H11c0.553,0,1-0.447,1-1s-0.447-1-1-1H1c-0.553,0-1,0.447-1,1v10c0,0.553,0.447,1,1,1
			s1-0.447,1-1v-6.892C5.809,45.061,15.62,56,28,56s22.191-10.939,26-15.892V47c0,0.553,0.447,1,1,1s1-0.447,1-1V37
			C56,36.447,55.553,36,55,36z M43,24c0.553,0,1,0.448,1,1c0,0.553-0.447,1-1,1s-1-0.447-1-1C42,24.448,42.447,24,43,24z M13,26
			c-0.553,0-1-0.447-1-1c0-0.552,0.447-1,1-1s1,0.448,1,1C14,25.553,13.553,26,13,26z M22,8c0-3.313,2.687-6,6-6s6,2.687,6,6
			c0,3.314-2.687,6-6,6S22,11.314,22,8z M28,54c-0.656,0-1.302-0.049-1.943-0.113l1.895-37.889C27.968,15.998,27.983,16,28,16
			s0.032-0.002,0.049-0.002l1.895,37.889C29.302,53.951,28.656,54,28,54z"/>
	</g>
</g>
<g>
</g>
<g>
</g>
<g>
</g>
<g>
</g>
<g>
</g>
<g>
</g>
<g>
</g>
<g>
</g>
<g>
</g>
<g>
</g>
<g>
</g>
<g>
</g>
<g>
</g>
<g>
</g>
<g>
</g>
</svg>
