<?xml version="1.0" encoding="iso-8859-1"?>
<!-- Generator: Adobe Illustrator 16.0.4, SVG Export Plug-In . SVG Version: 6.00 Build 0)  -->
<!DOCTYPE svg PUBLIC "-//W3C//DTD SVG 1.1//EN" "http://www.w3.org/Graphics/SVG/1.1/DTD/svg11.dtd">
<svg version="1.1" id="Layer_1" xmlns="http://www.w3.org/2000/svg" xmlns:xlink="http://www.w3.org/1999/xlink" x="0px" y="0px"
	 width="44px" height="44px" viewBox="0 0 44 44" style="enable-background:new 0 0 44 44;" xml:space="preserve">
<g id="_x38_36-anchor-toolbar_x40_2x.png">
	<g>
		<path d="M43,31H33c-0.553,0-1,0.447-1,1s0.447,1,1,1h7.895c-3.874,3.685-9.037,7.392-14.976,8.59L24.648,20h5.535
			c0.413,1.163,1.512,2,2.816,2c1.657,0,3-1.343,3-3s-1.343-3-3-3c-1.305,0-2.403,0.838-2.816,2h-5.652l-0.26-4.409
			C27.016,12.644,29,10.066,29,7c0-3.866-3.134-7-7-7s-7,3.134-7,7c0,3.066,1.984,5.644,4.729,6.591L19.469,18h-5.652
			c-0.413-1.162-1.512-2-2.816-2c-1.657,0-3,1.343-3,3s1.343,3,3,3c1.305,0,2.403-0.837,2.816-2h5.535l-1.271,21.59
			C12.143,40.392,6.979,36.685,3.106,33H11c0.553,0,1-0.447,1-1s-0.447-1-1-1H1c-0.553,0-1,0.447-1,1v10c0,0.553,0.447,1,1,1
			s1-0.447,1-1v-7.275C6.938,39.34,13.921,44,22,44c8.08,0,15.062-4.66,20-9.275V42c0,0.553,0.447,1,1,1s1-0.447,1-1V32
			C44,31.447,43.553,31,43,31z M33,18c0.553,0,1,0.448,1,1c0,0.553-0.447,1-1,1s-1-0.447-1-1C32,18.448,32.447,18,33,18z M11,20
			c-0.553,0-1-0.447-1-1c0-0.552,0.447-1,1-1s1,0.448,1,1C12,19.553,11.553,20,11,20z M17,7c0-2.762,2.238-5,5-5s5,2.238,5,5
			s-2.238,5-5,5S17,9.762,17,7z M22,42c-0.652,0-1.295-0.045-1.933-0.108l1.642-27.921C21.808,13.975,21.9,14,22,14
			s0.192-0.025,0.291-0.029l1.643,27.921C23.295,41.955,22.652,42,22,42z"/>
	</g>
</g>
<g>
</g>
<g>
</g>
<g>
</g>
<g>
</g>
<g>
</g>
<g>
</g>
<g>
</g>
<g>
</g>
<g>
</g>
<g>
</g>
<g>
</g>
<g>
</g>
<g>
</g>
<g>
</g>
<g>
</g>
</svg>
