<?xml version="1.0" encoding="iso-8859-1"?>
<!-- Generator: Adobe Illustrator 16.0.4, SVG Export Plug-In . SVG Version: 6.00 Build 0)  -->
<!DOCTYPE svg PUBLIC "-//W3C//DTD SVG 1.1//EN" "http://www.w3.org/Graphics/SVG/1.1/DTD/svg11.dtd">
<svg version="1.1" id="Layer_1" xmlns="http://www.w3.org/2000/svg" xmlns:xlink="http://www.w3.org/1999/xlink" x="0px" y="0px"
	 width="44px" height="44px" viewBox="0 0 44 44" style="enable-background:new 0 0 44 44;" xml:space="preserve">
<g id="_x31_297-android_x40_2x.png">
	<g>
		<path d="M11.496,16c-0.831,0-1.505,0.745-1.505,1.664v6.659c0,0.92,0.674,1.665,1.505,1.665s1.505-0.745,1.505-1.665v-6.659
			C13.001,16.745,12.327,16,11.496,16z M13.991,28.654c0,1.287,1.024,2.33,2.288,2.33H17v3.322c0,0.933,0.672,1.689,1.501,1.689
			c0.828,0,1.5-0.757,1.5-1.689v-3.322h3.998v3.322c0,0.933,0.672,1.689,1.5,1.689c0.829,0,1.501-0.757,1.501-1.689v-3.322h0.721
			c1.264,0,2.288-1.043,2.288-2.33v-11.65H13.991V28.654z M32.504,16c-0.831,0-1.505,0.745-1.505,1.664v6.659
			c0,0.92,0.674,1.665,1.505,1.665s1.505-0.745,1.505-1.665v-6.659C34.009,16.745,33.335,16,32.504,16z M26.585,10.365l1.285-1.428
			c0.228-0.253,0.172-0.615-0.125-0.811c-0.297-0.193-0.722-0.146-0.95,0.107l-1.359,1.512C24.386,9.275,23.221,8.997,22,8.997
			s-2.386,0.278-3.436,0.749l-1.359-1.512c-0.228-0.254-0.653-0.301-0.95-0.107c-0.296,0.195-0.353,0.558-0.125,0.811l1.285,1.428
			c-2.05,1.322-3.424,3.438-3.424,5.628h16.018C30.009,13.803,28.636,11.688,26.585,10.365z M20.006,13.002
			c-0.551,0-0.998-0.447-0.998-1c0-0.552,0.447-1,0.998-1s0.997,0.448,0.997,1C21.003,12.555,20.557,13.002,20.006,13.002z
			 M23.99,13.002c-0.553,0-1-0.447-1-1c0-0.552,0.447-1,1-1c0.552,0,1,0.448,1,1C24.99,12.555,24.542,13.002,23.99,13.002z M22,0
			C9.85,0,0,9.85,0,22s9.85,22,22,22s22-9.85,22-22S34.15,0,22,0z M22,42C10.954,42,2,33.046,2,22S10.954,2,22,2s20,8.954,20,20
			S33.046,42,22,42z"/>
	</g>
</g>
<g>
</g>
<g>
</g>
<g>
</g>
<g>
</g>
<g>
</g>
<g>
</g>
<g>
</g>
<g>
</g>
<g>
</g>
<g>
</g>
<g>
</g>
<g>
</g>
<g>
</g>
<g>
</g>
<g>
</g>
</svg>
