<?xml version="1.0" encoding="UTF-8" standalone="no"?>
<svg width="58px" height="58px" viewBox="0 0 58 58" version="1.1" xmlns="http://www.w3.org/2000/svg" xmlns:xlink="http://www.w3.org/1999/xlink" xmlns:sketch="http://www.bohemiancoding.com/sketch/ns">
    <!-- Generator: Sketch 3.0.4 (8053) - http://www.bohemiancoding.com/sketch -->
    <title>1297-android</title>
    <desc>Created with Sketch.</desc>
    <defs></defs>
    <g id="Page-1" stroke="none" stroke-width="1" fill="none" fill-rule="evenodd" sketch:type="MSPage">
        <g id="Glyphish-8-Icons" sketch:type="MSArtboardGroup" transform="translate(-596.000000, -1843.000000)" fill="#000000">
            <g id="1297-android" sketch:type="MSLayerGroup" transform="translate(596.036996, 1843.860499)">
                <g id="_x31_297-android_x40_2x.png" sketch:type="MSShapeGroup">
                    <path d="M18.006,36.165 C18.006,37.729 19.284,38.998 20.861,38.998 L21.995,38.998 L21.995,43.758 C21.995,45.002 22.894,46.012 24.004,46.012 C25.114,46.012 26.013,45.002 26.013,43.758 L26.013,38.998 L29.988,38.998 L29.988,43.758 C29.988,45.002 30.887,46.012 31.997,46.012 C33.107,46.012 34.006,45.002 34.006,43.758 L34.006,38.998 L35.14,38.998 C36.717,38.998 37.995,37.729 37.995,36.165 L37.995,21.999 L18.006,21.999 L18.006,36.165 L18.006,36.165 Z M13.995,20.999 C12.893,20.999 12,21.969 12,23.164 L12,31.825 C12,33.021 12.894,33.99 13.995,33.99 C15.096,33.99 15.989,33.021 15.989,31.825 L15.989,23.164 C15.989,21.969 15.097,20.999 13.995,20.999 L13.995,20.999 Z M42.005,20.999 C40.903,20.999 40.011,21.969 40.011,23.164 L40.011,31.825 C40.011,33.021 40.904,33.99 42.005,33.99 C43.108,33.99 44,33.021 44,31.825 L44,23.164 C44,21.969 43.107,20.999 42.005,20.999 L42.005,20.999 Z M28,0 C12.536,0 0,12.536 0,28 C0,43.464 12.536,56 28,56 C43.464,56 56,43.464 56,28 C56,12.536 43.464,0 28,0 L28,0 Z M28,54 C13.641,54 2,42.359 2,28 C2,13.641 13.641,2 28,2 C42.359,2 54,13.641 54,28 C54,42.359 42.359,54 28,54 L28,54 Z M33.801,12.826 L35.099,11.151 C35.344,10.836 35.284,10.383 34.965,10.141 C34.646,9.899 34.19,9.958 33.945,10.275 L32.538,12.089 C31.165,11.412 29.62,11.013 28,11.013 C26.38,11.013 24.835,11.412 23.462,12.089 L22.055,10.275 C21.811,9.959 21.355,9.899 21.035,10.141 C20.717,10.383 20.656,10.835 20.901,11.151 L22.199,12.826 C19.685,14.526 18.006,17.214 18.006,19.997 L37.994,19.997 C37.994,17.214 36.314,14.526 33.801,12.826 L33.801,12.826 Z M24.509,16.986 C23.676,16.986 23.001,16.318 23.001,15.495 C23.001,14.671 23.676,14.004 24.509,14.004 C25.341,14.004 26.016,14.671 26.016,15.495 C26.016,16.318 25.341,16.986 24.509,16.986 L24.509,16.986 Z M31.505,16.986 C30.681,16.986 30.014,16.318 30.014,15.495 C30.014,14.671 30.681,14.004 31.505,14.004 C32.328,14.004 32.996,14.671 32.996,15.495 C32.996,16.318 32.328,16.986 31.505,16.986 L31.505,16.986 Z" id="Shape"></path>
                </g>
            </g>
        </g>
    </g>
</svg>