<?xml version="1.0" encoding="iso-8859-1"?>
<!-- Generator: Adobe Illustrator 16.0.4, SVG Export Plug-In . SVG Version: 6.00 Build 0)  -->
<!DOCTYPE svg PUBLIC "-//W3C//DTD SVG 1.1//EN" "http://www.w3.org/Graphics/SVG/1.1/DTD/svg11.dtd">
<svg version="1.1" id="Layer_1" xmlns="http://www.w3.org/2000/svg" xmlns:xlink="http://www.w3.org/1999/xlink" x="0px" y="0px"
	 width="44px" height="44px" viewBox="0 0 44 44" style="enable-background:new 0 0 44 44;" xml:space="preserve">
<g id="_x31_252-apple_x40_2x.png">
	<g>
		<path d="M26.023,12.135c0.939-1.099,1.575-2.625,1.402-4.146c-1.355,0.053-2.996,0.868-3.967,1.967
			c-0.873,0.974-1.634,2.525-1.43,4.018C23.539,14.087,25.082,13.232,26.023,12.135z M22,0C9.85,0,0,9.85,0,22s9.85,22,22,22
			s22-9.85,22-22S34.15,0,22,0z M22,42C10.954,42,2,33.046,2,22S10.954,2,22,2s20,8.954,20,20S33.046,42,22,42z M28.702,21.235
			c-0.032-3.058,2.536-4.523,2.651-4.597c-1.443-2.073-3.69-2.358-4.49-2.391c-1.911-0.19-3.73,1.106-4.701,1.106
			c-0.967,0-2.464-1.078-4.049-1.051c-2.085,0.031-4.006,1.192-5.079,3.026c-2.166,3.693-0.554,9.64,1.555,12.637
			c1.032,1.464,2.165,3.087,3.778,3.026c1.556-0.061,2.24-0.907,4.119-0.907c1.88,0,2.414,0.938,4.059,0.907
			c1.672-0.029,2.728-1.497,3.751-2.968c1.184-1.702,1.672-3.825,1.701-3.908C31.958,26.101,28.734,24.886,28.702,21.235z"/>
	</g>
</g>
<g>
</g>
<g>
</g>
<g>
</g>
<g>
</g>
<g>
</g>
<g>
</g>
<g>
</g>
<g>
</g>
<g>
</g>
<g>
</g>
<g>
</g>
<g>
</g>
<g>
</g>
<g>
</g>
<g>
</g>
</svg>
