<?xml version="1.0" encoding="UTF-8" standalone="no"?>
<svg width="58px" height="58px" viewBox="0 0 58 58" version="1.1" xmlns="http://www.w3.org/2000/svg" xmlns:xlink="http://www.w3.org/1999/xlink" xmlns:sketch="http://www.bohemiancoding.com/sketch/ns">
    <!-- Generator: Sketch 3.0.4 (8053) - http://www.bohemiancoding.com/sketch -->
    <title>1252-apple</title>
    <desc>Created with Sketch.</desc>
    <defs></defs>
    <g id="Page-1" stroke="none" stroke-width="1" fill="none" fill-rule="evenodd" sketch:type="MSPage">
        <g id="Glyphish-8-Icons" sketch:type="MSArtboardGroup" transform="translate(-116.000000, -1459.000000)" fill="#000000">
            <g id="1252-apple" sketch:type="MSLayerGroup" transform="translate(116.036996, 1459.860499)">
                <g id="_x31_252-apple_x40_2x.png" sketch:type="MSShapeGroup">
                    <path d="M36.716,26.484 C36.674,22.452 40.014,20.518 40.163,20.422 C38.287,17.687 35.365,17.312 34.323,17.269 C31.839,17.018 29.472,18.729 28.21,18.729 C26.952,18.729 25.005,17.306 22.944,17.343 C20.232,17.383 17.733,18.914 16.338,21.333 C13.522,26.204 15.618,34.047 18.361,37.999 C19.703,39.931 21.176,42.07 23.274,41.991 C25.297,41.911 26.187,40.795 28.631,40.795 C31.076,40.795 31.77,42.031 33.91,41.991 C36.085,41.952 37.458,40.015 38.788,38.076 C40.328,35.832 40.963,33.032 41,32.922 C40.952,32.9 36.759,31.299 36.716,26.484 L36.716,26.484 Z M33.232,14.481 C34.454,13.033 35.281,11.019 35.055,9.013 C33.293,9.082 31.159,10.158 29.895,11.606 C28.76,12.89 27.77,14.937 28.035,16.906 C30.002,17.056 32.007,15.929 33.232,14.481 L33.232,14.481 Z M28,0 C12.536,0 0,12.536 0,28 C0,43.464 12.536,56 28,56 C43.464,56 56,43.464 56,28 C56,12.536 43.464,0 28,0 L28,0 Z M28,54 C13.641,54 2,42.359 2,28 C2,13.641 13.641,2 28,2 C42.359,2 54,13.641 54,28 C54,42.359 42.359,54 28,54 L28,54 Z" id="Shape"></path>
                </g>
            </g>
        </g>
    </g>
</svg>