<?xml version="1.0" encoding="UTF-8" standalone="no"?>
<svg width="58px" height="58px" viewBox="0 0 58 58" version="1.1" xmlns="http://www.w3.org/2000/svg" xmlns:xlink="http://www.w3.org/1999/xlink" xmlns:sketch="http://www.bohemiancoding.com/sketch/ns">
    <!-- Generator: Sketch 3.0.4 (8053) - http://www.bohemiancoding.com/sketch -->
    <title>1289-appstore</title>
    <desc>Created with Sketch.</desc>
    <defs></defs>
    <g id="Page-1" stroke="none" stroke-width="1" fill="none" fill-rule="evenodd" sketch:type="MSPage">
        <g id="Glyphish-8-Icons" sketch:type="MSArtboardGroup" transform="translate(-788.000000, -1747.000000)" fill="#000000">
            <g id="1289-appstore" sketch:type="MSLayerGroup" transform="translate(788.036996, 1747.860499)">
                <g id="_x31_289-appstore_x40_2x.png" sketch:type="MSShapeGroup">
                    <path d="M14.269,34.97 L13.042,40.842 L17.732,36.968 L17.838,36.782 L14.366,34.8 L14.269,34.97 L14.269,34.97 Z M23.48,26.959 L25.725,23.05 L22.262,21.073 L15.033,33.637 L18.501,35.616 L23.482,26.958 L23.48,26.958 L23.48,26.959 Z M17.432,26.99 L12,26.99 L12,30.446 L15.426,30.446 L17.432,26.99 L17.432,26.99 Z M27.232,20.428 C27.507,19.95 27.344,19.339 26.866,19.064 L25.134,18.064 C24.655,17.789 24.044,17.952 23.768,18.43 L22.921,19.906 L26.394,21.888 L27.232,20.428 L27.232,20.428 Z M24.906,26.99 L22.899,30.446 L33.284,30.446 L31.265,26.99 L24.906,26.99 L24.906,26.99 Z M28,0 C12.536,0 0,12.536 0,28 C0,43.464 12.536,56 28,56 C43.464,56 56,43.464 56,28 C56,12.536 43.464,0 28,0 L28,0 Z M28,54 C13.641,54 2,42.359 2,28 C2,13.641 13.641,2 28,2 C42.359,2 54,13.641 54,28 C54,42.359 42.359,54 28,54 L28,54 Z M40.687,30.446 L44,30.446 L44,26.99 L38.669,26.99 L40.687,30.446 L40.687,30.446 Z M29.482,13.5 C29.206,13.022 28.594,12.858 28.116,13.135 L26.384,14.134 C25.905,14.41 25.742,15.022 26.018,15.499 L34.385,30 L37.857,27.977 L29.482,13.5 L29.482,13.5 Z M40.54,32.639 L40.535,32.631 L40.527,32.635 C40.523,32.635 40.519,32.633 40.515,32.633 L37.093,34.631 L37.093,34.637 L37.079,34.645 L37.093,34.668 C37.041,35.671 37.429,37.327 39.437,38.284 C41.468,39.252 41.375,41.001 41.375,41.001 C41.375,41.001 42.5,40.438 42.5,37.16 C42.5,34.283 41.352,32.669 40.54,32.639 L40.54,32.639 Z M39.273,30.446 L39.285,30.446 L38.527,29.137 L35.064,31.156 L36.409,33.483 L39.864,31.468 L39.273,30.446 L39.273,30.446 Z" id="Shape"></path>
                </g>
            </g>
        </g>
    </g>
</svg>