<?xml version="1.0" encoding="iso-8859-1"?>
<!-- Generator: Adobe Illustrator 16.0.4, SVG Export Plug-In . SVG Version: 6.00 Build 0)  -->
<!DOCTYPE svg PUBLIC "-//W3C//DTD SVG 1.1//EN" "http://www.w3.org/Graphics/SVG/1.1/DTD/svg11.dtd">
<svg version="1.1" id="Layer_1" xmlns="http://www.w3.org/2000/svg" xmlns:xlink="http://www.w3.org/1999/xlink" x="0px" y="0px"
	 width="44px" height="44px" viewBox="0 0 44 44" style="enable-background:new 0 0 44 44;" xml:space="preserve">
<g id="_x31_289-appstore_x40_2x.png">
	<g>
		<path d="M11.211,27.476l-0.964,4.614l3.686-3.044l0.083-0.146l-2.729-1.558L11.211,27.476z M21.396,16.051
			c0.217-0.376,0.088-0.855-0.287-1.072l-1.361-0.785c-0.376-0.217-0.856-0.089-1.073,0.287l-0.666,1.159l2.729,1.558L21.396,16.051
			z M19.568,21.207l-1.576,2.716h8.159l-1.586-2.716H19.568z M13.696,21.207H9.429v2.716h2.691L13.696,21.207z M18.449,21.183
			l1.764-3.071l-2.721-1.554l-5.68,9.872l2.725,1.556l3.914-6.803H18.449z M22,0C9.85,0,0,9.85,0,22s9.85,22,22,22s22-9.85,22-22
			S34.15,0,22,0z M22,42C10.954,42,2,33.046,2,22S10.954,2,22,2s20,8.954,20,20S33.046,42,22,42z M31.968,23.923h2.604v-2.716
			h-4.188L31.968,23.923z M31.853,25.645l-0.003-0.006l-0.007,0.003c-0.003,0-0.006-0.002-0.009-0.002l-2.689,1.57
			c0,0.001,0.001,0.003,0,0.005l-0.01,0.006l0.01,0.019c-0.04,0.788,0.265,2.089,1.842,2.841c1.596,0.761,1.522,2.135,1.522,2.135
			s0.884-0.441,0.884-3.018C33.393,26.938,32.49,25.668,31.853,25.645z M23.164,10.607c-0.217-0.375-0.697-0.504-1.073-0.287
			l-1.36,0.785c-0.376,0.217-0.505,0.697-0.288,1.072l6.574,11.395l2.728-1.591L23.164,10.607z M30.857,23.923h0.01l-0.596-1.029
			l-2.721,1.586l1.057,1.829l2.715-1.583L30.857,23.923z"/>
	</g>
</g>
<g>
</g>
<g>
</g>
<g>
</g>
<g>
</g>
<g>
</g>
<g>
</g>
<g>
</g>
<g>
</g>
<g>
</g>
<g>
</g>
<g>
</g>
<g>
</g>
<g>
</g>
<g>
</g>
<g>
</g>
</svg>
