<?xml version="1.0" encoding="iso-8859-1"?>
<!-- Generator: Adobe Illustrator 16.0.4, SVG Export Plug-In . SVG Version: 6.00 Build 0)  -->
<!DOCTYPE svg PUBLIC "-//W3C//DTD SVG 1.1//EN" "http://www.w3.org/Graphics/SVG/1.1/DTD/svg11.dtd">
<svg version="1.1" id="Layer_1" xmlns="http://www.w3.org/2000/svg" xmlns:xlink="http://www.w3.org/1999/xlink" x="0px" y="0px"
	 width="56px" height="48px" viewBox="0 0 56 48" style="enable-background:new 0 0 56 48;" xml:space="preserve">
<g id="_x37_97-archive_x40_2x.png">
	<g>
		<path d="M27.293,39.707C27.474,39.889,27.724,40,28,40s0.526-0.111,0.707-0.293l8-8C36.888,31.526,37,31.276,37,31
			c0-0.552-0.447-1-1-1c-0.276,0-0.526,0.112-0.707,0.293L29,36.586V17c0-0.552-0.447-1-1-1s-1,0.448-1,1v19.586l-6.293-6.293
			C20.526,30.112,20.276,30,20,30c-0.553,0-1,0.448-1,1c0,0.276,0.112,0.526,0.293,0.707L27.293,39.707z M55.707,8.293l-8-8
			C47.526,0.112,47.276,0,47,0H9C8.724,0,8.474,0.112,8.293,0.293l-8,8C0.112,8.475,0,8.724,0,9v1v2v34c0,1.104,0.896,2,2,2h52
			c1.104,0,2-0.896,2-2V12v-2V9C56,8.724,55.888,8.475,55.707,8.293z M9.414,2h37.172l6,6H3.414L9.414,2z M54,12v34H2V12v-2h52V12z"
			/>
	</g>
</g>
<g>
</g>
<g>
</g>
<g>
</g>
<g>
</g>
<g>
</g>
<g>
</g>
<g>
</g>
<g>
</g>
<g>
</g>
<g>
</g>
<g>
</g>
<g>
</g>
<g>
</g>
<g>
</g>
<g>
</g>
</svg>
