<?xml version="1.0" encoding="iso-8859-1"?>
<!-- Generator: Adobe Illustrator 16.0.4, SVG Export Plug-In . SVG Version: 6.00 Build 0)  -->
<!DOCTYPE svg PUBLIC "-//W3C//DTD SVG 1.1//EN" "http://www.w3.org/Graphics/SVG/1.1/DTD/svg11.dtd">
<svg version="1.1" id="Layer_1" xmlns="http://www.w3.org/2000/svg" xmlns:xlink="http://www.w3.org/1999/xlink" x="0px" y="0px"
	 width="20px" height="40px" viewBox="0 0 20 40" style="enable-background:new 0 0 20 40;" xml:space="preserve">
<g id="_x37_66-arrow-right-toolbar_x40_2x.png">
	<g>
		<path d="M20,20c0-0.27-0.109-0.512-0.282-0.691l0.003-0.002l-18-19L1.718,0.309C1.536,0.12,1.283,0,1,0C0.447,0,0,0.447,0,1
			c0,0.27,0.109,0.512,0.282,0.691L0.279,1.693L17.623,20L0.279,38.306l0.003,0.003C0.109,38.488,0,38.73,0,39c0,0.552,0.447,1,1,1
			c0.283,0,0.536-0.12,0.718-0.309l0.003,0.002l18-19l-0.003-0.002C19.891,20.512,20,20.27,20,20z"/>
	</g>
</g>
<g>
</g>
<g>
</g>
<g>
</g>
<g>
</g>
<g>
</g>
<g>
</g>
<g>
</g>
<g>
</g>
<g>
</g>
<g>
</g>
<g>
</g>
<g>
</g>
<g>
</g>
<g>
</g>
<g>
</g>
</svg>
