<?xml version="1.0" encoding="iso-8859-1"?>
<!-- Generator: Adobe Illustrator 16.0.4, SVG Export Plug-In . SVG Version: 6.00 Build 0)  -->
<!DOCTYPE svg PUBLIC "-//W3C//DTD SVG 1.1//EN" "http://www.w3.org/Graphics/SVG/1.1/DTD/svg11.dtd">
<svg version="1.1" id="Layer_1" xmlns="http://www.w3.org/2000/svg" xmlns:xlink="http://www.w3.org/1999/xlink" x="0px" y="0px"
	 width="28px" height="56px" viewBox="0 0 28 56" style="enable-background:new 0 0 28 56;" xml:space="preserve">
<g id="_x37_66-arrow-right_x40_2x.png">
	<g>
		<path d="M28,28c0-0.27-0.109-0.512-0.282-0.691l0.003-0.002l-26-27L1.718,0.309C1.536,0.12,1.283,0,1,0C0.447,0,0,0.447,0,1
			c0,0.27,0.109,0.512,0.282,0.691L0.279,1.694L25.611,28L0.279,54.307l0.003,0.002C0.109,54.488,0,54.731,0,55c0,0.553,0.447,1,1,1
			c0.283,0,0.536-0.119,0.718-0.309l0.003,0.002l26-27l-0.003-0.002C27.891,28.512,28,28.27,28,28z"/>
	</g>
</g>
<g>
</g>
<g>
</g>
<g>
</g>
<g>
</g>
<g>
</g>
<g>
</g>
<g>
</g>
<g>
</g>
<g>
</g>
<g>
</g>
<g>
</g>
<g>
</g>
<g>
</g>
<g>
</g>
<g>
</g>
</svg>
