<?xml version="1.0" encoding="iso-8859-1"?>
<!-- Generator: Adobe Illustrator 16.0.4, SVG Export Plug-In . SVG Version: 6.00 Build 0)  -->
<!DOCTYPE svg PUBLIC "-//W3C//DTD SVG 1.1//EN" "http://www.w3.org/Graphics/SVG/1.1/DTD/svg11.dtd">
<svg version="1.1" id="Layer_1" xmlns="http://www.w3.org/2000/svg" xmlns:xlink="http://www.w3.org/1999/xlink" x="0px" y="0px"
	 width="56px" height="28px" viewBox="0 0 56 28" style="enable-background:new 0 0 56 28;" xml:space="preserve">
<g id="_x37_63-arrow-up_x40_2x.png">
	<g>
		<path d="M55.691,26.282l0.002-0.003l-27-25.999l-0.002,0.002C28.512,0.109,28.27,0,28,0s-0.512,0.109-0.691,0.282L27.307,0.28
			l-27,25.999l0.002,0.003C0.12,26.464,0,26.717,0,27c0,0.553,0.447,1,1,1c0.27,0,0.512-0.109,0.691-0.282l0.002,0.003L28,2.389
			l26.307,25.332l0.002-0.003C54.488,27.891,54.73,28,55,28c0.553,0,1-0.447,1-1C56,26.717,55.88,26.464,55.691,26.282z"/>
	</g>
</g>
<g>
</g>
<g>
</g>
<g>
</g>
<g>
</g>
<g>
</g>
<g>
</g>
<g>
</g>
<g>
</g>
<g>
</g>
<g>
</g>
<g>
</g>
<g>
</g>
<g>
</g>
<g>
</g>
<g>
</g>
</svg>
