<?xml version="1.0" encoding="iso-8859-1"?>
<!-- Generator: Adobe Illustrator 16.0.4, SVG Export Plug-In . SVG Version: 6.00 Build 0)  -->
<!DOCTYPE svg PUBLIC "-//W3C//DTD SVG 1.1//EN" "http://www.w3.org/Graphics/SVG/1.1/DTD/svg11.dtd">
<svg version="1.1" id="Layer_1" xmlns="http://www.w3.org/2000/svg" xmlns:xlink="http://www.w3.org/1999/xlink" x="0px" y="0px"
	 width="40px" height="20px" viewBox="0 0 40 20" style="enable-background:new 0 0 40 20;" xml:space="preserve">
<g id="_x37_64-arrow-down-toolbar_x40_2x.png">
	<g>
		<path d="M40,1c0-0.552-0.447-1-1-1c-0.27,0-0.512,0.109-0.691,0.282L38.307,0.28L20,17.623L1.693,0.28L1.691,0.282
			C1.512,0.109,1.27,0,1,0C0.448,0,0,0.448,0,1c0,0.283,0.12,0.536,0.309,0.718L0.307,1.721l19,18l0.002-0.003
			C19.488,19.891,19.73,20,20,20s0.512-0.109,0.691-0.282l0.002,0.003l19-18l-0.002-0.003C39.88,1.536,40,1.283,40,1z"/>
	</g>
</g>
<g>
</g>
<g>
</g>
<g>
</g>
<g>
</g>
<g>
</g>
<g>
</g>
<g>
</g>
<g>
</g>
<g>
</g>
<g>
</g>
<g>
</g>
<g>
</g>
<g>
</g>
<g>
</g>
<g>
</g>
</svg>
