<?xml version="1.0" encoding="iso-8859-1"?>
<!-- Generator: Adobe Illustrator 16.0.4, SVG Export Plug-In . SVG Version: 6.00 Build 0)  -->
<!DOCTYPE svg PUBLIC "-//W3C//DTD SVG 1.1//EN" "http://www.w3.org/Graphics/SVG/1.1/DTD/svg11.dtd">
<svg version="1.1" id="Layer_1" xmlns="http://www.w3.org/2000/svg" xmlns:xlink="http://www.w3.org/1999/xlink" x="0px" y="0px"
	 width="40px" height="20px" viewBox="0 0 40 20" style="enable-background:new 0 0 40 20;" xml:space="preserve">
<g id="_x37_63-arrow-up-toolbar_x40_2x.png">
	<g>
		<path d="M39.691,18.282l0.002-0.002l-19-18l-0.002,0.002C20.512,0.109,20.27,0,20,0s-0.512,0.109-0.691,0.282L19.307,0.28l-19,18
			l0.002,0.002C0.12,18.464,0,18.717,0,19c0,0.553,0.448,1,1,1c0.27,0,0.512-0.109,0.691-0.282l0.002,0.003L20,2.378l18.307,17.343
			l0.002-0.003C38.488,19.891,38.73,20,39,20c0.553,0,1-0.447,1-1C40,18.717,39.88,18.464,39.691,18.282z"/>
	</g>
</g>
<g>
</g>
<g>
</g>
<g>
</g>
<g>
</g>
<g>
</g>
<g>
</g>
<g>
</g>
<g>
</g>
<g>
</g>
<g>
</g>
<g>
</g>
<g>
</g>
<g>
</g>
<g>
</g>
<g>
</g>
</svg>
