<?xml version="1.0" encoding="iso-8859-1"?>
<!-- Generator: Adobe Illustrator 16.0.4, SVG Export Plug-In . SVG Version: 6.00 Build 0)  -->
<!DOCTYPE svg PUBLIC "-//W3C//DTD SVG 1.1//EN" "http://www.w3.org/Graphics/SVG/1.1/DTD/svg11.dtd">
<svg version="1.1" id="Layer_1" xmlns="http://www.w3.org/2000/svg" xmlns:xlink="http://www.w3.org/1999/xlink" x="0px" y="0px"
	 width="20px" height="40px" viewBox="0 0 20 40" style="enable-background:new 0 0 20 40;" xml:space="preserve">
<g id="_x37_65-arrow-left-toolbar_x40_2x.png">
	<g>
		<path d="M19.721,38.307L2.377,20L19.721,1.694l-0.003-0.003C19.891,1.512,20,1.27,20,1.001C20,0.448,19.553,0,19,0
			c-0.283,0-0.536,0.12-0.718,0.31l-0.003-0.003l-18,19l0.003,0.002C0.109,19.489,0,19.731,0,20c0,0.27,0.109,0.512,0.282,0.691
			l-0.003,0.002l18,19l0.003-0.002C18.464,39.88,18.717,40,19,40c0.553,0,1-0.447,1-1c0-0.269-0.109-0.512-0.282-0.691
			L19.721,38.307z"/>
	</g>
</g>
<g>
</g>
<g>
</g>
<g>
</g>
<g>
</g>
<g>
</g>
<g>
</g>
<g>
</g>
<g>
</g>
<g>
</g>
<g>
</g>
<g>
</g>
<g>
</g>
<g>
</g>
<g>
</g>
<g>
</g>
</svg>
