<?xml version="1.0" encoding="iso-8859-1"?>
<!-- Generator: Adobe Illustrator 16.0.4, SVG Export Plug-In . SVG Version: 6.00 Build 0)  -->
<!DOCTYPE svg PUBLIC "-//W3C//DTD SVG 1.1//EN" "http://www.w3.org/Graphics/SVG/1.1/DTD/svg11.dtd">
<svg version="1.1" id="Layer_1" xmlns="http://www.w3.org/2000/svg" xmlns:xlink="http://www.w3.org/1999/xlink" x="0px" y="0px"
	 width="56.019px" height="55.993px" viewBox="0 0 56.019 55.993" style="enable-background:new 0 0 56.019 55.993;"
	 xml:space="preserve">
<g id="_x31_049-at-sign_x40_2x.png">
	<g>
		<path d="M48.646,47.024c-1.688,1.498-3.553,2.676-5.594,3.785c-2.042,1.111-4.081,1.882-6.367,2.501
			c-2.286,0.62-4.62,0.711-7.124,0.711c-3.756,0-7.322-0.38-10.697-1.517c-3.376-1.135-6.03-2.826-8.589-5.072
			c-2.56-2.246-4.649-4.722-6.146-8.052c-1.498-3.33-2.121-7.189-2.121-11.578c0-3.665,0.52-6.899,1.936-10.074
			c1.415-3.175,3.406-5.919,5.911-8.294c2.503-2.374,5.207-4.121,8.61-5.49c3.401-1.367,7.121-1.927,11.096-1.927
			c3.538,0,6.645,0.249,9.693,1.306c3.049,1.06,5.676,2.544,7.881,4.453c2.205,1.911,3.901,4.084,5.154,6.768
			c1.251,2.686,1.753,5.566,1.753,8.767c0,2.84-0.394,5.393-1.427,7.845c-1.034,2.453-2.296,4.476-3.848,6.257
			s-3.16,3.126-5.01,4.158c-1.852,1.033-3.527,1.455-5.214,1.455c-1.09,0-2.151-0.009-2.575-0.564
			c-0.576-0.751-0.559-0.97-0.668-1.719c-0.109-0.748-0.027-1.626,0.245-2.634c0.272-1.006,0.716-1.89,1.206-3.026l9.158-22.304
			h-2.059l-1.96,5.111h-0.163c-0.708-2.064-2.097-3.679-4.165-4.841c-2.069-1.161-4.409-1.836-7.022-1.836
			c-2.887,0-5.526,0.804-7.921,2.224c-2.396,1.421-4.438,3.24-6.125,5.46c-1.688,2.221-2.995,4.635-3.92,7.241
			c-0.926,2.607-1.544,5.125-1.544,7.551c0,1.549,0.379,2.977,0.951,4.344c0.571,1.369,1.409,2.588,2.39,3.595
			c0.979,1.007,2.149,1.808,3.512,2.4c1.359,0.594,2.829,0.953,4.409,0.953c1.905,0,3.851-0.385,5.839-1.03
			c1.986-0.646,3.742-1.948,5.267-3.911h0.008c-0.273,1.446,0.13,2.746,1.083,3.648c0.952,0.904,2.312,1.293,3.891,1.293
			c1.96,0,3.987-0.63,6.084-1.767c2.095-1.135,4.001-2.684,5.716-4.646c1.715-1.961,3.116-4.246,4.206-6.854
			c1.088-2.606,1.633-5.408,1.633-8.403c0-3.562-0.693-6.788-2.082-9.681c-1.388-2.891-3.28-5.344-5.676-7.357
			S43.062,2.71,39.85,1.626S33.207,0,29.561,0c-4.029,0-7.839,0.696-11.433,2.091c-3.593,1.394-6.736,3.33-9.432,5.809
			c-2.694,2.478-4.817,5.408-6.369,8.789C0.775,20.071,0,23.775,0,27.803c0,4.905,0.857,9.139,2.572,12.701s3.96,6.493,6.736,8.79
			c2.777,2.298,5.934,3.988,9.473,5.072s7.132,1.627,10.779,1.627c2.504,0,4.994-0.323,7.473-0.969
			c2.477-0.645,4.83-1.561,7.063-2.749c2.231-1.188,4.3-2.634,6.206-4.337c1.905-1.704,3.512-3.588,4.818-5.653h-2.223
			C51.646,43.988,50.332,45.527,48.646,47.024z M32.354,38.496c-1.008,1.214-2.055,2.138-3.144,2.834
			c-1.09,0.697-1.969,1.112-3.139,1.37c-1.172,0.26-2.363,0.325-3.451,0.325c-1.417,0-2.724-0.15-3.92-0.642
			c-1.198-0.49-1.983-1.143-2.854-2.021c-0.871-0.877-1.458-1.741-1.947-2.902c-0.49-1.162-0.892-2.378-0.892-3.771
			c0-2.169,0.483-4.215,1.328-6.643c0.844-2.427,2.027-4.672,3.553-6.738c1.523-2.064,3.267-3.719,5.418-5.087
			c2.15-1.368,4.348-2.084,6.907-2.084c1.034,0,2.078,0.022,3.194,0.255c1.115,0.232,1.989,0.65,2.998,1.193
			c1.006,0.542,1.984,1.377,2.747,2.254c0.762,0.879,1.177,2.27,1.559,3.611l-5.548,13.594
			C34.151,35.997,33.36,37.284,32.354,38.496z"/>
	</g>
</g>
<g>
</g>
<g>
</g>
<g>
</g>
<g>
</g>
<g>
</g>
<g>
</g>
<g>
</g>
<g>
</g>
<g>
</g>
<g>
</g>
<g>
</g>
<g>
</g>
<g>
</g>
<g>
</g>
<g>
</g>
</svg>
