<?xml version="1.0" encoding="iso-8859-1"?>
<!-- Generator: Adobe Illustrator 16.0.4, SVG Export Plug-In . SVG Version: 6.00 Build 0)  -->
<!DOCTYPE svg PUBLIC "-//W3C//DTD SVG 1.1//EN" "http://www.w3.org/Graphics/SVG/1.1/DTD/svg11.dtd">
<svg version="1.1" id="Layer_1" xmlns="http://www.w3.org/2000/svg" xmlns:xlink="http://www.w3.org/1999/xlink" x="0px" y="0px"
	 width="43.969px" height="44.024px" viewBox="0 0 43.969 44.024" style="enable-background:new 0 0 43.969 44.024;"
	 xml:space="preserve">
<g id="_x31_049-at-sign-toolbar_x40_2x.png">
	<g>
		<path d="M41.068,32.814c-0.945,1.289-2.069,2.516-3.338,3.645c-1.271,1.131-2.693,2.127-4.229,2.964
			c-1.531,0.836-3.181,1.497-4.905,1.966c-1.716,0.467-3.539,0.702-5.418,0.702c-2.833,0-5.557-0.436-8.096-1.293
			c-2.532-0.854-4.789-2.143-6.709-3.833c-1.917-1.687-3.459-3.813-4.583-6.321c-1.125-2.507-1.695-5.461-1.695-8.781
			c0-2.766,0.539-5.379,1.603-7.767c1.062-2.393,2.555-4.512,4.437-6.301c1.88-1.788,4.13-3.218,6.688-4.25
			c2.556-1.029,5.367-1.553,8.355-1.553c2.659,0,5.17,0.404,7.463,1.202c2.283,0.795,4.278,1.925,5.93,3.357
			c1.645,1.43,2.954,3.176,3.892,5.188c0.936,2.012,1.41,4.251,1.41,6.654c0,2.13-0.392,4.141-1.164,5.98
			c-0.778,1.848-1.761,3.461-2.922,4.797c-1.157,1.332-2.441,2.399-3.818,3.169c-1.352,0.757-2.655,1.141-3.873,1.141
			c-0.734,0-1.277-0.139-1.616-0.415c-0.341-0.274-0.54-0.642-0.61-1.125c-0.076-0.524-0.016-1.155,0.179-1.879
			c0.205-0.756,0.495-1.573,0.866-2.437l7.198-17.761h-2.225l-1.292,3.379c-0.637-1.289-1.656-2.334-3.041-3.114
			c-1.651-0.93-3.543-1.4-5.621-1.4c-2.291,0-4.418,0.573-6.32,1.704c-1.883,1.119-3.51,2.572-4.834,4.32
			c-1.317,1.737-2.353,3.653-3.074,5.695c-0.725,2.044-1.091,4.047-1.091,5.957c0,1.241,0.231,2.428,0.688,3.525
			c0.458,1.098,1.088,2.064,1.874,2.873c0.791,0.814,1.746,1.47,2.837,1.945c2.397,1.049,5.319,0.896,8.2-0.045
			c1.313-0.427,2.512-1.216,3.571-2.352c0.071,0.76,0.394,1.416,0.964,1.957c0.811,0.771,1.894,1.164,3.221,1.164
			c1.575,0,3.222-0.461,4.891-1.367c1.653-0.898,3.173-2.137,4.517-3.681c1.341-1.538,2.453-3.354,3.305-5.398
			c0.854-2.051,1.287-4.282,1.287-6.634c0-2.793-0.552-5.363-1.641-7.638c-1.088-2.273-2.593-4.229-4.474-5.813
			c-1.876-1.581-4.101-2.814-6.612-3.664C28.734,0.43,26.021,0,23.179,0c-3.143,0-6.157,0.553-8.96,1.644
			c-2.804,1.091-5.292,2.627-7.396,4.567c-2.104,1.939-3.785,4.267-4.996,6.913C0.614,15.773,0,18.714,0,21.862
			c0,3.827,0.679,7.182,2.019,9.971c1.339,2.79,3.119,5.118,5.292,6.922c2.171,1.801,4.674,3.145,7.44,3.994
			c2.753,0.846,5.589,1.275,8.428,1.275c1.956,0,3.93-0.257,5.864-0.763c1.928-0.503,3.79-1.229,5.532-2.159
			c1.737-0.926,3.373-2.072,4.86-3.405c1.488-1.334,2.761-2.831,3.782-4.449l0.381-0.604h-2.405L41.068,32.814z M25.145,30.016
			c-0.747,0.901-1.529,1.618-2.325,2.129c-0.794,0.509-1.625,0.861-2.47,1.048c-1.969,0.436-3.828,0.386-5.366-0.246
			c-0.867-0.356-1.624-0.857-2.251-1.492c-0.63-0.636-1.131-1.389-1.487-2.236c-0.355-0.847-0.536-1.792-0.536-2.812
			c0-1.625,0.321-3.373,0.954-5.197c0.633-1.826,1.535-3.541,2.68-5.097c1.14-1.548,2.53-2.851,4.134-3.874
			c1.58-1.007,3.331-1.517,5.205-1.517c0.765,0,1.569,0.087,2.394,0.26c0.812,0.17,1.599,0.457,2.335,0.854
			c0.727,0.393,1.375,0.914,1.927,1.552c0.522,0.604,0.928,1.377,1.203,2.297l-4.413,10.877
			C26.557,27.954,25.89,29.116,25.145,30.016z"/>
	</g>
</g>
<g>
</g>
<g>
</g>
<g>
</g>
<g>
</g>
<g>
</g>
<g>
</g>
<g>
</g>
<g>
</g>
<g>
</g>
<g>
</g>
<g>
</g>
<g>
</g>
<g>
</g>
<g>
</g>
<g>
</g>
</svg>
