<?xml version="1.0" encoding="iso-8859-1"?>
<!-- Generator: Adobe Illustrator 16.0.4, SVG Export Plug-In . SVG Version: 6.00 Build 0)  -->
<!DOCTYPE svg PUBLIC "-//W3C//DTD SVG 1.1//EN" "http://www.w3.org/Graphics/SVG/1.1/DTD/svg11.dtd">
<svg version="1.1" id="Layer_1" xmlns="http://www.w3.org/2000/svg" xmlns:xlink="http://www.w3.org/1999/xlink" x="0px" y="0px"
	 width="49.967px" height="56px" viewBox="0 0 49.967 56" style="enable-background:new 0 0 49.967 56;" xml:space="preserve">
<g id="_x38_68-atom_x40_2x.png">
	<g>
		<path d="M24.983,26c-1.104,0-2,0.896-2,2s0.896,2,2,2s2-0.896,2-2S26.088,26,24.983,26z M44.23,28.004
			c4.852-5.327,6.976-10.585,5.002-14.004s-7.589-4.209-14.628-2.67C32.421,4.463,28.931,0,24.983,0s-7.438,4.467-9.625,11.329
			C8.321,9.792,2.708,10.582,0.734,14c-1.974,3.419,0.146,8.672,5.002,13.997C0.885,33.323-1.239,38.581,0.734,42
			c1.975,3.419,7.59,4.209,14.629,2.67C17.546,51.538,21.036,56,24.983,56s7.438-4.466,9.625-11.329
			c7.037,1.538,12.65,0.747,14.624-2.671S49.086,33.328,44.23,28.004z M34.466,19.783c-1.121-0.744-2.271-1.477-3.482-2.176
			c-1.206-0.695-2.412-1.339-3.611-1.933c2.047-0.855,4.036-1.557,5.92-2.083C33.78,15.497,34.182,17.568,34.466,19.783z M24.983,2
			c3.158,0,5.966,3.824,7.796,9.771c-2.489,0.664-5.121,1.601-7.815,2.8c-2.68-1.187-5.307-2.142-7.785-2.802
			C19.011,5.82,21.824,2,24.983,2z M16.662,13.588c1.887,0.526,3.887,1.24,5.937,2.097c-1.202,0.597-2.408,1.227-3.615,1.923
			c-1.207,0.697-2.355,1.428-3.473,2.17C15.794,17.573,16.175,15.484,16.662,13.588z M2.467,15c1.58-2.736,6.294-3.262,12.363-1.875
			c-0.668,2.477-1.154,5.23-1.467,8.144c-2.386,1.734-4.513,3.545-6.332,5.369C2.795,22.078,0.888,17.735,2.467,15z M13.127,32.104
			c-1.776-1.354-3.37-2.736-4.776-4.112c1.397-1.368,3-2.74,4.764-4.085c-0.085,1.336-0.131,2.701-0.131,4.094
			C12.983,29.397,13.042,30.761,13.127,32.104z M2.467,41c-1.58-2.737,0.323-7.085,4.562-11.648
			c1.818,1.822,3.937,3.635,6.317,5.367c0.31,2.929,0.821,5.67,1.489,8.154C8.764,44.263,4.047,43.737,2.467,41z M15.501,36.217
			c1.121,0.745,2.271,1.477,3.482,2.176c1.206,0.696,2.412,1.339,3.611,1.934c-2.047,0.855-4.036,1.557-5.92,2.083
			C16.187,40.504,15.785,38.432,15.501,36.217z M24.983,54c-3.158,0-5.966-3.823-7.796-9.771c2.489-0.663,5.121-1.6,7.815-2.799
			c2.68,1.186,5.307,2.142,7.785,2.801C30.956,50.181,28.144,54,24.983,54z M33.305,42.413c-1.887-0.527-3.887-1.241-5.937-2.098
			c1.202-0.597,2.408-1.226,3.615-1.923s2.355-1.427,3.473-2.17C34.173,38.427,33.792,40.516,33.305,42.413z M34.718,33.65
			c-1.488,1.036-3.066,2.047-4.734,3.01c-1.668,0.964-3.332,1.824-4.974,2.596c-1.66-0.777-3.338-1.62-5.026-2.596
			c-1.678-0.968-3.263-1.984-4.758-3.026c-0.154-1.815-0.242-3.697-0.242-5.634c0-1.95,0.108-3.824,0.266-5.65
			c1.488-1.036,3.066-2.047,4.734-3.01s3.332-1.824,4.974-2.596c1.66,0.778,3.338,1.621,5.026,2.596
			c1.678,0.969,3.263,1.984,4.758,3.026c0.154,1.816,0.242,3.697,0.242,5.634C34.983,29.95,34.875,31.824,34.718,33.65z M47.5,15
			c1.58,2.737-0.323,7.085-4.562,11.648c-1.818-1.822-3.937-3.635-6.317-5.367c-0.31-2.929-0.821-5.669-1.489-8.154
			C41.203,11.737,45.92,12.263,47.5,15z M36.84,23.896c1.776,1.354,3.37,2.736,4.776,4.113c-1.397,1.367-3,2.74-4.764,4.085
			c0.085-1.337,0.131-2.702,0.131-4.095C36.983,26.603,36.925,25.239,36.84,23.896z M47.5,41c-1.58,2.736-6.294,3.263-12.363,1.875
			c0.668-2.477,1.154-5.229,1.467-8.144c2.386-1.734,4.513-3.544,6.332-5.369C47.172,33.922,49.079,38.265,47.5,41z"/>
	</g>
</g>
<g>
</g>
<g>
</g>
<g>
</g>
<g>
</g>
<g>
</g>
<g>
</g>
<g>
</g>
<g>
</g>
<g>
</g>
<g>
</g>
<g>
</g>
<g>
</g>
<g>
</g>
<g>
</g>
<g>
</g>
</svg>
