<?xml version="1.0" encoding="iso-8859-1"?>
<!-- Generator: Adobe Illustrator 16.0.4, SVG Export Plug-In . SVG Version: 6.00 Build 0)  -->
<!DOCTYPE svg PUBLIC "-//W3C//DTD SVG 1.1//EN" "http://www.w3.org/Graphics/SVG/1.1/DTD/svg11.dtd">
<svg version="1.1" id="Layer_1" xmlns="http://www.w3.org/2000/svg" xmlns:xlink="http://www.w3.org/1999/xlink" x="0px" y="0px"
	 width="39.402px" height="44px" viewBox="0 0 39.402 44" style="enable-background:new 0 0 39.402 44;" xml:space="preserve">
<g id="_x38_68-atom-toolbar_x40_2x.png">
	<g>
		<path d="M19.701,20c-1.104,0-2,0.896-2,2c0,1.105,0.896,2,2,2s2-0.895,2-2C21.701,20.896,20.806,20,19.701,20z M38.754,11
			c-1.594-2.76-5.861-3.567-11.201-2.599C25.721,3.292,22.889,0,19.701,0s-6.021,3.287-7.85,8.402C6.51,7.433,2.242,8.239,0.648,11
			S0.49,17.86,4,22.001C0.484,26.142-0.945,30.239,0.648,33c1.594,2.76,5.861,3.567,11.202,2.599C13.682,40.708,16.514,44,19.701,44
			s6.021-3.287,7.85-8.402c5.342,0.97,9.609,0.163,11.203-2.598s0.158-6.86-3.352-11.001C38.918,17.858,40.348,13.761,38.754,11z
			 M37.021,12c1.196,2.072-0.017,5.244-2.892,8.594c-1.368-1.425-2.974-2.833-4.775-4.18c-0.268-2.222-0.674-4.319-1.222-6.21
			C32.47,9.394,35.825,9.928,37.021,12z M29.604,19.095c1.195,0.956,2.283,1.929,3.237,2.899c-0.958,0.974-2.038,1.951-3.238,2.912
			c0.058-0.953,0.098-1.919,0.098-2.906S29.663,20.047,29.604,19.095z M27.151,14.865c-0.791-0.522-1.602-1.035-2.45-1.525
			s-1.698-0.936-2.546-1.359c1.418-0.552,2.808-1.026,4.119-1.365C26.637,11.92,26.92,13.361,27.151,14.865z M19.701,2
			c2.393,0,4.533,2.639,5.999,6.801c-1.911,0.471-3.93,1.168-5.987,2.047c-2.067-0.888-4.09-1.573-6.009-2.047
			C15.168,4.637,17.309,2,19.701,2z M13.137,10.617c1.317,0.341,2.703,0.797,4.129,1.354c-0.854,0.426-1.709,0.875-2.564,1.369
			s-1.671,1.011-2.468,1.537C12.465,13.357,12.771,11.934,13.137,10.617z M2.381,32c-1.196-2.072,0.017-5.244,2.892-8.594
			c1.368,1.425,2.974,2.833,4.775,4.18c0.269,2.222,0.674,4.319,1.222,6.21C6.933,34.606,3.577,34.072,2.381,32z M9.798,24.906
			c-1.195-0.957-2.283-1.93-3.236-2.899c0.957-0.975,2.037-1.952,3.237-2.913C9.741,20.047,9.701,21.013,9.701,22
			S9.74,23.953,9.798,24.906z M10.038,16.421c-1.8,1.346-3.395,2.758-4.763,4.181C2.4,17.249,1.184,14.073,2.381,12
			c1.196-2.073,4.556-2.607,8.896-1.794C10.729,12.103,10.304,14.189,10.038,16.421z M12.251,29.135
			c0.791,0.522,1.602,1.035,2.45,1.525s1.698,0.936,2.546,1.359c-1.418,0.552-2.808,1.026-4.119,1.365
			C12.766,32.08,12.482,30.64,12.251,29.135z M19.701,42c-2.393,0-4.533-2.639-5.999-6.801c1.911-0.471,3.93-1.167,5.987-2.046
			c2.067,0.887,4.09,1.573,6.009,2.046C24.234,39.363,22.094,42,19.701,42z M26.266,33.383c-1.317-0.341-2.703-0.797-4.129-1.354
			c0.854-0.426,1.709-0.875,2.564-1.369s1.671-1.011,2.469-1.537C26.938,30.643,26.631,32.067,26.266,33.383z M27.49,26.497
			c-1.187,0.84-2.448,1.657-3.789,2.432c-1.351,0.779-2.692,1.446-4.021,2.057c-1.313-0.606-2.645-1.287-3.979-2.057
			c-1.334-0.771-2.589-1.583-3.771-2.418c-0.136-1.455-0.229-2.951-0.229-4.511c0-1.549,0.077-3.05,0.211-4.497
			c1.187-0.839,2.448-1.656,3.789-2.431c1.351-0.78,2.693-1.447,4.021-2.057c1.313,0.605,2.645,1.286,3.979,2.057
			c1.334,0.77,2.589,1.582,3.771,2.417c0.136,1.456,0.229,2.951,0.229,4.511C27.701,23.549,27.624,25.05,27.49,26.497z M37.021,32
			c-1.196,2.073-4.556,2.607-8.896,1.794c0.549-1.896,0.974-3.983,1.239-6.215c1.8-1.346,3.395-2.758,4.763-4.181
			C37.002,26.751,38.219,29.927,37.021,32z"/>
	</g>
</g>
<g>
</g>
<g>
</g>
<g>
</g>
<g>
</g>
<g>
</g>
<g>
</g>
<g>
</g>
<g>
</g>
<g>
</g>
<g>
</g>
<g>
</g>
<g>
</g>
<g>
</g>
<g>
</g>
<g>
</g>
</svg>
