<?xml version="1.0" encoding="iso-8859-1"?>
<!-- Generator: Adobe Illustrator 16.0.4, SVG Export Plug-In . SVG Version: 6.00 Build 0)  -->
<!DOCTYPE svg PUBLIC "-//W3C//DTD SVG 1.1//EN" "http://www.w3.org/Graphics/SVG/1.1/DTD/svg11.dtd">
<svg version="1.1" id="Layer_1" xmlns="http://www.w3.org/2000/svg" xmlns:xlink="http://www.w3.org/1999/xlink" x="0px" y="0px"
	 width="44px" height="44px" viewBox="0 0 44 44" style="enable-background:new 0 0 44 44;" xml:space="preserve">
<g id="_x31_253-audioscrobbler_x40_2x.png">
	<g>
		<path d="M33.785,21.416c-1.25-0.748-3.095-1.226-3.095-1.226s-1.729-0.224-1.729-2.136c0-1.317,0.433-2.104,1.698-2.104
			c0.928,0,1.317,0.796,1.677,1.622l2.628-1.322c-0.728-2.316-2.718-3.263-4.561-3.263c-2.531,0-4.427,2.224-4.427,5.005
			c0,4.277,4.682,5.068,4.682,5.068s2.364,0.343,2.364,2.65c0,3.141-3.041,2.349-3.033,2.3c-3.693-1.015-4.006-6.018-5.032-8.546
			c-0.972-3.476-4.369-6.478-8.305-6.478c-4.782,0-8.658,4.035-8.658,9.013s3.876,9.014,8.658,9.014c2.698,0,5.097-1.292,6.68-3.308
			l-1.549-2.257c-1.089,1.751-2.978,2.569-5.131,2.569c-3.375,0-5.66-2.505-5.66-6.019s2.284-6.018,5.66-6.018
			c6.092,0,6.396,7.605,7.595,9.798c2.04,5.64,6.411,5.233,6.411,5.233c2.954,0,5.348-2.374,5.348-5.303
			c0,0-0.129-1.424-0.615-2.463C35.004,22.521,34.452,21.895,33.785,21.416z M22,0C9.85,0,0,9.85,0,22s9.85,22,22,22s22-9.85,22-22
			S34.15,0,22,0z M22,42C10.954,42,2,33.046,2,22S10.954,2,22,2s20,8.954,20,20S33.046,42,22,42z"/>
	</g>
</g>
<g>
</g>
<g>
</g>
<g>
</g>
<g>
</g>
<g>
</g>
<g>
</g>
<g>
</g>
<g>
</g>
<g>
</g>
<g>
</g>
<g>
</g>
<g>
</g>
<g>
</g>
<g>
</g>
<g>
</g>
</svg>
