<?xml version="1.0" encoding="UTF-8" standalone="no"?>
<svg width="58px" height="58px" viewBox="0 0 58 58" version="1.1" xmlns="http://www.w3.org/2000/svg" xmlns:xlink="http://www.w3.org/1999/xlink" xmlns:sketch="http://www.bohemiancoding.com/sketch/ns">
    <!-- Generator: Sketch 3.0.4 (8053) - http://www.bohemiancoding.com/sketch -->
    <title>1253-audioscrobbler</title>
    <desc>Created with Sketch.</desc>
    <defs></defs>
    <g id="Page-1" stroke="none" stroke-width="1" fill="none" fill-rule="evenodd" sketch:type="MSPage">
        <g id="Glyphish-8-Icons" sketch:type="MSArtboardGroup" transform="translate(-212.000000, -1459.000000)" fill="#000000">
            <g id="1253-audioscrobbler" sketch:type="MSLayerGroup" transform="translate(212.036996, 1459.860499)">
                <g id="_x31_253-audioscrobbler_x40_2x.png" sketch:type="MSShapeGroup">
                    <path d="M46.184,29.66 C45.659,28.693 44.909,27.859 44.003,27.223 C42.305,26.228 39.8,25.593 39.8,25.593 C39.8,25.593 37.451,25.294 37.451,22.752 C37.451,20.999 38.038,19.952 39.757,19.952 C41.017,19.952 41.546,21.011 42.035,22.109 L45.604,20.35 C44.615,17.269 41.913,16.009 39.411,16.009 C35.973,16.009 33.398,18.967 33.398,22.667 C33.398,28.355 39.756,29.408 39.756,29.408 C39.756,29.408 42.966,29.864 42.966,32.934 C42.966,37.111 38.837,36.057 38.847,35.994 C33.832,34.643 33.408,27.988 32.014,24.626 C30.693,20.002 26.08,16.009 20.737,16.009 C14.243,16.009 8.98,21.377 8.98,27.998 C8.98,34.619 14.244,39.987 20.737,39.987 C24.401,39.987 27.658,38.269 29.808,35.588 L27.704,32.586 C26.225,34.916 23.66,36.004 20.736,36.004 C16.153,36.004 13.05,32.672 13.05,27.998 C13.05,23.324 16.153,19.993 20.736,19.993 C29.009,19.993 29.421,30.109 31.049,33.026 C33.82,40.528 39.755,39.987 39.755,39.987 C43.766,39.987 47.017,36.83 47.017,32.934 C47.02,32.937 46.844,31.042 46.184,29.66 L46.184,29.66 Z M28,0 C12.536,0 0,12.536 0,28 C0,43.464 12.536,56 28,56 C43.464,56 56,43.464 56,28 C56,12.536 43.464,0 28,0 L28,0 Z M28,54 C13.641,54 2,42.359 2,28 C2,13.641 13.641,2 28,2 C42.359,2 54,13.641 54,28 C54,42.359 42.359,54 28,54 L28,54 Z" id="Shape"></path>
                </g>
            </g>
        </g>
    </g>
</svg>