<?xml version="1.0" encoding="iso-8859-1"?>
<!-- Generator: Adobe Illustrator 16.0.4, SVG Export Plug-In . SVG Version: 6.00 Build 0)  -->
<!DOCTYPE svg PUBLIC "-//W3C//DTD SVG 1.1//EN" "http://www.w3.org/Graphics/SVG/1.1/DTD/svg11.dtd">
<svg version="1.1" id="Layer_1" xmlns="http://www.w3.org/2000/svg" xmlns:xlink="http://www.w3.org/1999/xlink" x="0px" y="0px"
	 width="37.656px" height="56px" viewBox="0 0 37.656 56" style="enable-background:new 0 0 37.656 56;" xml:space="preserve">
<g id="_x39_51-baby_x40_2x.png">
	<g>
		<path d="M36.535,24.293l-10-10C26.354,14.112,26.104,14,25.828,14h-1.721c1.665-1.466,2.721-3.607,2.721-6c0-4.418-3.582-8-8-8
			c-4.418,0-8,3.582-8,8c0,2.393,1.056,4.534,2.721,6h-1.721c-0.276,0-0.526,0.112-0.707,0.293l-10,10C0.429,24.986,0,25.943,0,27
			c0,2.114,1.714,3.828,3.828,3.828c1.057,0,2.014-0.429,2.707-1.121l2.293-2.293v5.283l-3.832,5.748l0.015,0.01
			C4.905,38.614,4.828,38.795,4.828,39v6c0,0.257,0.104,0.486,0.263,0.663l-0.006,0.006l8.517,9.325
			C14.151,55.607,14.94,56,15.828,56c1.657,0,3-1.343,3-3c0-0.769-0.298-1.463-0.773-1.993l0.001-0.001l-4.985-6.067L16.363,40h4.93
			l3.292,4.938l-4.984,6.067l0.001,0.001c-0.476,0.53-0.773,1.225-0.773,1.993c0,1.657,1.343,3,3,3c0.888,0,1.677-0.393,2.227-1.006
			l8.517-9.325l-0.007-0.006c0.16-0.177,0.264-0.406,0.264-0.663v-6c0-0.205-0.077-0.386-0.184-0.545l0.016-0.01l-3.832-5.748
			v-5.283l2.293,2.293c0.693,0.692,1.65,1.121,2.707,1.121c2.114,0,3.828-1.714,3.828-3.828
			C37.656,25.943,37.228,24.986,36.535,24.293z M12.828,8c0-3.313,2.687-6,6-6s6,2.687,6,6s-2.687,6-6,6S12.828,11.313,12.828,8z
			 M10.996,44.445l0.015,0.011c-0.106,0.158-0.183,0.339-0.183,0.544c0,0.248,0.1,0.469,0.25,0.644l-0.009,0.007l5.469,6.656
			l0.008-0.007l0.03,0.036l-0.007,0.006c0.157,0.177,0.26,0.403,0.26,0.658c0,0.553-0.448,1-1,1c-0.273,0-0.52-0.11-0.7-0.288
			l0.006-0.006l-0.044-0.049l-0.009,0.007l-6.034-6.623l-2.218-2.429v-5.31l3.155-4.733l4.558,4.559L10.996,44.445z M16.242,38l-4-4
			h13.172l-4,4H16.242z M30.828,39.303v5.31l-2.234,2.446l-6.019,6.605l-0.008-0.007l-0.045,0.049l0.006,0.006
			C22.348,53.89,22.102,54,21.828,54c-0.553,0-1-0.447-1-1c0-0.255,0.103-0.481,0.26-0.658l-0.007-0.006L21.11,52.3l0.009,0.007
			l5.469-6.656l-0.01-0.007c0.15-0.175,0.25-0.396,0.25-0.644c0-0.205-0.077-0.386-0.184-0.544l0.016-0.011l-3.545-5.317
			l4.558-4.559L30.828,39.303z M33.836,28.82c-0.505,0-0.962-0.204-1.293-0.535l-0.016,0.016l-4.041-4.041
			C28.31,24.103,28.083,24,27.828,24c-0.553,0-1,0.447-1,1v7h-16v-7c0-0.553-0.448-1-1-1c-0.255,0-0.481,0.103-0.658,0.26
			l-4.041,4.041l-0.016-0.016c-0.331,0.331-0.788,0.535-1.292,0.535c-1.01,0-1.828-0.818-1.828-1.828
			c0-0.504,0.205-0.962,0.535-1.292l0-0.001l7-7l0.008,0.008L12.242,16h13.172l2.707,2.707l0.008-0.008l7,7L35.128,25.7
			c0.331,0.33,0.536,0.788,0.536,1.292C35.664,28.002,34.846,28.82,33.836,28.82z"/>
	</g>
</g>
<g>
</g>
<g>
</g>
<g>
</g>
<g>
</g>
<g>
</g>
<g>
</g>
<g>
</g>
<g>
</g>
<g>
</g>
<g>
</g>
<g>
</g>
<g>
</g>
<g>
</g>
<g>
</g>
<g>
</g>
</svg>
