<?xml version="1.0" encoding="iso-8859-1"?>
<!-- Generator: Adobe Illustrator 16.0.4, SVG Export Plug-In . SVG Version: 6.00 Build 0)  -->
<!DOCTYPE svg PUBLIC "-//W3C//DTD SVG 1.1//EN" "http://www.w3.org/Graphics/SVG/1.1/DTD/svg11.dtd">
<svg version="1.1" id="Layer_1" xmlns="http://www.w3.org/2000/svg" xmlns:xlink="http://www.w3.org/1999/xlink" x="0px" y="0px"
	 width="28.025px" height="44px" viewBox="0 0 28.025 44" style="enable-background:new 0 0 28.025 44;" xml:space="preserve">
<g id="_x39_51-baby-toolbar_x40_2x.png">
	<g>
		<path d="M22.868,22.113l0.011-0.01c0.545,0.555,1.302,0.899,2.141,0.899c1.66,0,3.006-1.347,3.006-3.007
			c0-0.845-0.351-1.605-0.91-2.151l-7.39-7.514c-0.181-0.199-0.434-0.329-0.722-0.33V10H18.45c0.951-1.062,1.547-2.454,1.547-3.996
			C19.997,2.688,17.318,0,14.012,0c-3.305,0-5.984,2.688-5.984,6.004c0,1.542,0.596,2.934,1.547,3.996H9.021v0.001
			c-0.277,0.001-0.525,0.118-0.705,0.304l-0.012-0.012l-7.239,7.422C0.419,18.267,0,19.078,0,19.996c0,1.66,1.346,3.007,3.005,3.007
			c0.856,0,1.623-0.363,2.169-0.938l0.832-0.843v3.47l-2.701,3.602l0.002,0.003c-0.191,0.179-0.312,0.429-0.312,0.707
			c0,0.028,0.014,0.053,0.017,0.081v6.838c-0.002,0.028-0.017,0.053-0.017,0.081c0,0.279,0.121,0.528,0.312,0.708l5.389,6.172
			C9.247,43.559,10.075,44,11.015,44c1.603,0,2.9-1.261,2.982-2.842C14.079,42.739,15.376,44,16.979,44
			c0.929,0,1.749-0.432,2.299-1.096l5.438-6.193c0.191-0.18,0.312-0.429,0.312-0.708c0-0.028-0.014-0.053-0.017-0.081v-6.838
			c0.003-0.028,0.017-0.053,0.017-0.081c0-0.278-0.121-0.528-0.312-0.707l0.003-0.003l-2.718-3.586v-3.47L22.868,22.113z
			 M14.012,2.008c2.207,0,3.997,1.789,3.997,3.996S16.219,10,14.012,10c-2.208,0-3.997-1.789-3.997-3.996S11.805,2.008,14.012,2.008
			z M11.015,41.989c-0.276,0-0.525-0.109-0.708-0.283l-0.001,0.001l-4.181-4.805l-1.112-1.273v-6.312l2.019-2.691l2.838,3.548
			l-1.752,4.38l0.025,0.013c-0.065,0.132-0.11,0.274-0.11,0.432c0,0.232,0.093,0.437,0.228,0.604l-0.029,0.023l1.403,1.892
			l2.085,2.776l-0.003,0.003c0.191,0.18,0.312,0.429,0.312,0.707C12.028,41.548,11.574,41.989,11.015,41.989z M9.088,25.994h9.848
			L16.532,29h-5.039L9.088,25.994z M14.797,38.973c-0.461,0.499-0.763,1.149-0.801,1.875c-0.04-0.755-0.349-1.438-0.846-1.944
			l-3.005-4.053L11.686,31h4.622l1.541,3.851l-3.055,4.118L14.797,38.973z M23.012,29.32v6.307l-0.48,0.547l0.001,0.002
			l-4.845,5.531l-0.001-0.001c-0.184,0.174-0.433,0.283-0.709,0.283c-0.56,0-1.013-0.441-1.013-0.986
			c0-0.278,0.121-0.527,0.312-0.707l-0.003-0.003l2.085-2.776l1.403-1.892l-0.029-0.023c0.135-0.168,0.228-0.372,0.228-0.604
			c0-0.157-0.045-0.3-0.11-0.432l0.025-0.013l-1.741-4.354l2.847-3.559L23.012,29.32z M21.782,18.168l-0.004,0.004
			c-0.01-0.012-0.015-0.027-0.024-0.039l-0.068-0.07c-0.181-0.16-0.416-0.265-0.681-0.265c-0.553,0-0.969,0.433-0.979,0.969h-0.02
			v5.217H8.002v-5.217H7.999c-0.009-0.536-0.425-0.969-0.979-0.969c-0.326,0-0.601,0.16-0.786,0.393l-0.022-0.022l-0.51,0.517
			c0-0.001,0-0.001,0-0.001l-0.157,0.159l-1.833,1.856l0.004,0.005c-0.181,0.178-0.427,0.288-0.701,0.288c-0.553,0-1-0.447-1-0.999
			c0-0.274,0.111-0.521,0.29-0.702l0.001,0.002l3.976-4.061l3.141-3.221h9.149l5.165,5.273c-0.003,0.002-0.006,0.004-0.01,0.006
			l1.886,1.925c0.235,0.183,0.397,0.456,0.397,0.777c0,0.552-0.448,0.999-1.001,0.999c-0.281,0-0.533-0.118-0.716-0.305
			l-0.012,0.012l-1.833-1.856l-0.138-0.141c0,0.001,0,0.001,0,0.001L21.782,18.168z"/>
	</g>
</g>
<g>
</g>
<g>
</g>
<g>
</g>
<g>
</g>
<g>
</g>
<g>
</g>
<g>
</g>
<g>
</g>
<g>
</g>
<g>
</g>
<g>
</g>
<g>
</g>
<g>
</g>
<g>
</g>
<g>
</g>
</svg>
