<?xml version="1.0" encoding="UTF-8" standalone="no"?>
<svg width="54px" height="58px" viewBox="0 0 54 58" version="1.1" xmlns="http://www.w3.org/2000/svg" xmlns:xlink="http://www.w3.org/1999/xlink" xmlns:sketch="http://www.bohemiancoding.com/sketch/ns">
    <!-- Generator: Sketch 3.0.4 (8053) - http://www.bohemiancoding.com/sketch -->
    <title>1159-badminton-birdie</title>
    <desc>Created with Sketch.</desc>
    <defs></defs>
    <g id="Page-1" stroke="none" stroke-width="1" fill="none" fill-rule="evenodd" sketch:type="MSPage">
        <g id="Glyphish-8-Icons" sketch:type="MSArtboardGroup" transform="translate(-790.000000, -499.000000)" fill="#000000">
            <g id="1159-badminton-birdie" sketch:type="MSLayerGroup" transform="translate(790.036996, 499.860499)">
                <g id="_x31_159-badminton-birdie_x40_2x.png" sketch:type="MSShapeGroup">
                    <path d="M21.916,30.6 L16.925,14.626 C16.922,14.62 16.921,14.612 16.918,14.606 L16.916,14.6 L16.914,14.601 C16.76,14.248 16.409,14 16,14 C15.447,14 15,14.448 15,15 C15,15.143 15.032,15.277 15.086,15.4 L15.084,15.401 L20.075,31.375 C20.078,31.381 20.079,31.388 20.082,31.394 L20.084,31.401 L20.086,31.401 C20.24,31.753 20.591,32 21,32 C21.553,32 22,31.553 22,31 C22,30.857 21.968,30.723 21.914,30.601 L21.916,30.6 L21.916,30.6 Z M52,1 C52,0.447 51.553,0 51,0 C50.794,0 50.607,0.066 50.45,0.175 L50.445,0.168 L40.149,7.656 L33.708,0.294 C33.526,0.112 33.276,0 33,0 C32.699,0 32.438,0.139 32.256,0.349 L32.247,0.342 L26,7.481 L19.753,0.341 L19.744,0.348 C19.562,0.139 19.301,0 19,0 C18.699,0 18.438,0.139 18.256,0.349 L18.247,0.342 L12.77,7.646 L1.524,0.148 L1.514,0.163 C1.362,0.069 1.192,0 1,0 C0.447,0 0,0.447 0,1 C0,1.162 0.052,1.307 0.122,1.439 L0.105,1.447 L16,37.21 L16,46 C16,51.522 20.478,56 26,56 C31.522,56 36,51.522 36,46 L36,37.21 L51.895,1.447 L51.886,1.443 C51.953,1.308 52,1.161 52,1 L52,1 Z M34,46 C34,50.418 30.418,54 26,54 C21.582,54 18,50.418 18,46 L18,42 L34,42 L34,46 L34,46 Z M34,40 L18,40 L18,38 L34,38 L34,40 L34,40 Z M34.352,36 L26.002,36 L26,36 L25.998,36 L17.648,36 L3.312,3.743 L12.475,9.851 L12.485,9.836 C12.638,9.931 12.808,10 13,10 C13.301,10 13.562,9.861 13.744,9.651 L13.753,9.658 L19.058,2.585 L25.247,9.658 L25.256,9.651 C25.438,9.861 25.699,10 26,10 C26.301,10 26.562,9.861 26.744,9.651 L26.753,9.658 L33.002,2.517 L39.293,9.706 C39.474,9.888 39.724,10 40,10 C40.205,10 40.386,9.923 40.545,9.816 L40.555,9.832 L48.573,4 L34.352,36 L34.352,36 Z M26,14 C25.447,14 25,14.448 25,15 L25,31 C25,31.553 25.447,32 26,32 C26.553,32 27,31.553 27,31 L27,15 C27,14.448 26.553,14 26,14 L26,14 Z M36,14 C35.591,14 35.24,14.248 35.086,14.601 L35.084,14.6 L35.082,14.607 C35.079,14.613 35.078,14.62 35.075,14.627 L30.084,30.6 L30.086,30.601 C30.032,30.723 30,30.857 30,31 C30,31.553 30.447,32 31,32 C31.409,32 31.76,31.753 31.914,31.4 L31.916,31.4 L31.918,31.394 C31.921,31.387 31.922,31.38 31.925,31.373 L36.916,15.4 L36.914,15.4 C36.968,15.277 37,15.143 37,15 C37,14.448 36.553,14 36,14 L36,14 Z" id="Shape"></path>
                </g>
            </g>
        </g>
    </g>
</svg>