<?xml version="1.0" encoding="iso-8859-1"?>
<!-- Generator: Adobe Illustrator 16.0.4, SVG Export Plug-In . SVG Version: 6.00 Build 0)  -->
<!DOCTYPE svg PUBLIC "-//W3C//DTD SVG 1.1//EN" "http://www.w3.org/Graphics/SVG/1.1/DTD/svg11.dtd">
<svg version="1.1" id="Layer_1" xmlns="http://www.w3.org/2000/svg" xmlns:xlink="http://www.w3.org/1999/xlink" x="0px" y="0px"
	 width="40px" height="44px" viewBox="0 0 40 44" style="enable-background:new 0 0 40 44;" xml:space="preserve">
<g id="_x31_159-badminton-birdie_x40_2x.png">
	<g>
		<path d="M40,1c0-0.552-0.447-1-1-1c-0.226,0-0.429,0.079-0.596,0.205L38.4,0.2L31.094,5.68l-5.387-5.387
			C25.526,0.112,25.276,0,25,0c-0.309,0-0.574,0.148-0.758,0.368l-0.011-0.009L20,5.438l-4.231-5.079l-0.011,0.009
			C15.574,0.148,15.309,0,15,0s-0.574,0.148-0.758,0.368l-0.011-0.009L9.808,5.67L1.555,0.168v0.001C1.396,0.062,1.205,0,1,0
			C0.447,0,0,0.448,0,1c0,0.14,0.029,0.272,0.082,0.394H0.081L12,29.205V36c0,4.418,3.582,8,8,8s8-3.582,8-8v-6.795L39.919,1.394
			h-0.001C39.971,1.272,40,1.14,40,1z M26,36c0,3.313-2.687,6-6,6s-6-2.687-6-6v-2h12V36z M26,31.988H14V30h12V31.988z
			 M26.338,28.006h-6.245C20.062,28.006,20.031,28,20,28s-0.062,0.006-0.093,0.006h-6.245L3.244,3.698l6.201,4.134l0.01-0.016
			C9.614,7.923,9.795,8,10,8c0.309,0,0.574-0.148,0.758-0.368l0.011,0.009L15,2.562l4.231,5.078l0.011-0.009
			C19.426,7.852,19.691,8,20,8s0.574-0.148,0.758-0.368l0.011,0.009l4.299-5.159l5.226,5.226C30.474,7.888,30.724,8,31,8
			c0.226,0,0.423-0.088,0.59-0.214L31.6,7.8l5.008-3.755L26.338,28.006z M16.948,23.684l-4-12l-0.012,0.004
			C12.805,11.291,12.441,11,12,11c-0.553,0-1,0.447-1,1c0,0.111,0.029,0.213,0.063,0.312l-0.012,0.004l4,12l0.012-0.004
			C15.195,24.709,15.559,25,16,25c0.553,0,1-0.447,1-1c0-0.11-0.029-0.213-0.062-0.312L16.948,23.684z M20,11c-0.553,0-1,0.447-1,1
			v12c0,0.553,0.447,1,1,1s1-0.447,1-1V12C21,11.447,20.553,11,20,11z M28,11c-0.441,0-0.805,0.291-0.937,0.688l-0.012-0.004l-4,12
			l0.012,0.004C23.03,23.787,23,23.89,23,24c0,0.553,0.447,1,1,1c0.441,0,0.805-0.291,0.937-0.688l0.012,0.004l4-12l-0.012-0.004
			C28.971,12.213,29,12.111,29,12C29,11.447,28.553,11,28,11z"/>
	</g>
</g>
<g>
</g>
<g>
</g>
<g>
</g>
<g>
</g>
<g>
</g>
<g>
</g>
<g>
</g>
<g>
</g>
<g>
</g>
<g>
</g>
<g>
</g>
<g>
</g>
<g>
</g>
<g>
</g>
<g>
</g>
</svg>
