<?xml version="1.0" encoding="iso-8859-1"?>
<!-- Generator: Adobe Illustrator 16.0.4, SVG Export Plug-In . SVG Version: 6.00 Build 0)  -->
<!DOCTYPE svg PUBLIC "-//W3C//DTD SVG 1.1//EN" "http://www.w3.org/Graphics/SVG/1.1/DTD/svg11.dtd">
<svg version="1.1" id="Layer_1" xmlns="http://www.w3.org/2000/svg" xmlns:xlink="http://www.w3.org/1999/xlink" x="0px" y="0px"
	 width="44px" height="44px" viewBox="0 0 44 44" style="enable-background:new 0 0 44 44;" xml:space="preserve">
<g id="_x31_169-bah&#xE1;_x27_&#xED;-star_x40_2x.png">
	<g>
		<path d="M44,18.857c0-0.416-0.325-0.747-0.734-0.775l0.001-0.009l-10.731-0.716l4.344-11.581l-0.006-0.002
			c0.032-0.086,0.056-0.177,0.056-0.274c0-0.434-0.352-0.785-0.786-0.785c-0.171,0-0.327,0.056-0.454,0.148l-0.002-0.002
			l-10.062,7.186L22.763,0.595l-0.015,0.004C22.662,0.258,22.367,0,22,0s-0.662,0.258-0.748,0.599l-0.015-0.004l-2.862,11.452
			L8.313,4.861L8.306,4.872C8.177,4.78,8.027,4.715,7.857,4.715c-0.435,0-0.786,0.352-0.786,0.785c0,0.099,0.036,0.184,0.07,0.269
			L7.121,5.776l4.344,11.581L0.733,18.073l0.001,0.009C0.325,18.11,0,18.441,0,18.857c0,0.314,0.188,0.582,0.456,0.707l-0.003,0.005
			l10.815,5.047L3.35,33.255l0.011,0.011c-0.131,0.137-0.218,0.314-0.218,0.521c0,0.434,0.353,0.785,0.786,0.785
			c0.075,0,0.144-0.022,0.212-0.043l0.004,0.013l9.873-2.856v11.53c0,0.434,0.353,0.785,0.786,0.785
			c0.277,0,0.509-0.151,0.648-0.368l0.013,0.008L22,33.667l6.535,9.973l0.013-0.008C28.688,43.849,28.92,44,29.196,44
			c0.435,0,0.786-0.352,0.786-0.785v-11.53l9.873,2.856l0.004-0.013c0.068,0.021,0.137,0.043,0.212,0.043
			c0.435,0,0.786-0.352,0.786-0.785c0-0.206-0.087-0.384-0.218-0.521l0.011-0.011l-7.919-8.639l10.815-5.047l-0.002-0.005
			C43.812,19.439,44,19.172,44,18.857z M31.886,22.804c-0.577,0.27-0.991,0.798-1.115,1.423s0.057,1.271,0.487,1.741l4.995,5.449
			l-5.715-1.653c-0.183-0.053-0.37-0.079-0.556-0.079c-0.429,0-0.852,0.138-1.202,0.401c-0.503,0.378-0.798,0.97-0.798,1.599v7.462
			l-4.31-6.575c-0.37-0.564-0.999-0.904-1.673-0.904s-1.303,0.34-1.673,0.904l-4.31,6.575v-7.462c0-0.629-0.295-1.221-0.798-1.599
			c-0.351-0.264-0.773-0.401-1.202-0.401c-0.186,0-0.373,0.026-0.556,0.079l-5.715,1.653l4.995-5.449
			c0.431-0.47,0.611-1.116,0.487-1.741s-0.538-1.153-1.115-1.423L5.58,19.755l6.018-0.401c0.631-0.042,1.205-0.38,1.548-0.912
			c0.343-0.531,0.414-1.193,0.192-1.786l-2.945-7.852l6.819,4.871c0.345,0.245,0.752,0.372,1.163,0.372
			c0.232,0,0.467-0.04,0.69-0.123c0.621-0.229,1.089-0.75,1.25-1.392L22,5.792l1.685,6.74c0.161,0.642,0.629,1.163,1.25,1.392
			c0.224,0.083,0.458,0.123,0.69,0.123c0.411,0,0.818-0.127,1.163-0.372l6.819-4.871l-2.944,7.853
			c-0.223,0.592-0.151,1.254,0.191,1.785c0.343,0.532,0.917,0.87,1.548,0.912l6.018,0.401L31.886,22.804z"/>
	</g>
</g>
<g>
</g>
<g>
</g>
<g>
</g>
<g>
</g>
<g>
</g>
<g>
</g>
<g>
</g>
<g>
</g>
<g>
</g>
<g>
</g>
<g>
</g>
<g>
</g>
<g>
</g>
<g>
</g>
<g>
</g>
</svg>
