<?xml version="1.0" encoding="UTF-8" standalone="no"?>
<svg width="58px" height="58px" viewBox="0 0 58 58" version="1.1" xmlns="http://www.w3.org/2000/svg" xmlns:xlink="http://www.w3.org/1999/xlink" xmlns:sketch="http://www.bohemiancoding.com/sketch/ns">
    <!-- Generator: Sketch 3.0.4 (8053) - http://www.bohemiancoding.com/sketch -->
    <title>1169-bahá'í-star</title>
    <desc>Created with Sketch.</desc>
    <defs></defs>
    <g id="Page-1" stroke="none" stroke-width="1" fill="none" fill-rule="evenodd" sketch:type="MSPage">
        <g id="Glyphish-8-Icons" sketch:type="MSArtboardGroup" transform="translate(-788.000000, -595.000000)" fill="#000000">
            <g id="1169-bahá'í-star" sketch:type="MSLayerGroup" transform="translate(788.036996, 595.860499)">
                <g id="_x31_169-bahá_x27_í-star_x40_2x.png" sketch:type="MSShapeGroup">
                    <path d="M56,24 C56,23.471 55.586,23.049 55.065,23.014 L55.066,23.002 L41.408,22.092 L46.936,7.352 L46.93,7.349 C46.971,7.239 47,7.124 47,7 C47,6.448 46.553,6 46,6 C45.782,6 45.584,6.071 45.421,6.19 L45.419,6.186 L32.614,15.332 L28.97,0.758 L28.952,0.762 C28.843,0.328 28.468,0 28,0 C27.532,0 27.157,0.328 27.048,0.762 L27.03,0.758 L23.385,15.333 L10.581,6.187 L10.571,6.202 C10.407,6.084 10.217,6 10,6 C9.447,6 9,6.448 9,7 C9,7.125 9.046,7.233 9.09,7.342 L9.064,7.352 L14.592,22.092 L0.934,23.002 L0.935,23.014 C0.414,23.049 0,23.471 0,24 C0,24.4 0.239,24.741 0.58,24.9 L0.577,24.906 L14.342,31.33 L4.263,42.324 L4.278,42.338 C4.11,42.512 4,42.738 4,43 C4,43.553 4.447,44 5,44 C5.096,44 5.183,43.971 5.271,43.945 L5.275,43.962 L18,40.326 L18,55 C18,55.553 18.447,56 19,56 C19.353,56 19.647,55.807 19.826,55.531 L19.841,55.541 L28,42.85 L36.159,55.541 L36.174,55.531 C36.353,55.807 36.647,56 37,56 C37.553,56 38,55.553 38,55 L38,40.326 L50.726,43.962 L50.73,43.945 C50.817,43.971 50.904,44 51,44 C51.553,44 52,43.553 52,43 C52,42.738 51.89,42.512 51.723,42.338 L51.738,42.324 L41.658,31.33 L55.423,24.906 L55.42,24.9 C55.761,24.741 56,24.4 56,24 L56,24 Z M39.577,30.094 L39.58,30.1 C39.239,30.259 39,30.6 39,31 C39,31.261 39.105,31.493 39.269,31.671 L39.263,31.676 L47.87,41.067 L37.274,38.04 L37.27,38.056 C37.183,38.029 37.096,38 37,38 C36.447,38 36,38.448 36,39 L36,51.596 L28.841,40.459 L28.826,40.47 C28.648,40.193 28.353,40 28,40 C27.647,40 27.352,40.193 27.174,40.47 L27.159,40.459 L20,51.596 L20,39 C20,38.448 19.553,38 19,38 C18.904,38 18.817,38.029 18.729,38.055 L18.725,38.039 L8.13,41.066 L16.737,31.675 L16.731,31.67 C16.895,31.493 17,31.261 17,31 C17,30.6 16.761,30.259 16.42,30.1 L16.423,30.094 L4.948,24.739 L16.066,23.998 L16.065,23.986 C16.586,23.951 17,23.529 17,23 C17,22.876 16.971,22.761 16.93,22.651 L16.937,22.648 L12.088,9.721 L23.419,17.814 L23.43,17.799 C23.593,17.916 23.783,18 24,18 C24.468,18 24.843,17.672 24.952,17.238 L24.97,17.242 L28,5.123 L31.03,17.242 L31.048,17.238 C31.157,17.672 31.532,18 32,18 C32.217,18 32.407,17.916 32.57,17.799 L32.581,17.814 L43.912,9.721 L39.063,22.649 L39.07,22.652 C39.029,22.761 39,22.876 39,23 C39,23.529 39.414,23.951 39.935,23.986 L39.934,23.998 L51.052,24.739 L39.577,30.094 L39.577,30.094 Z" id="Shape"></path>
                </g>
            </g>
        </g>
    </g>
</svg>