<?xml version="1.0" encoding="iso-8859-1"?>
<!-- Generator: Adobe Illustrator 16.0.4, SVG Export Plug-In . SVG Version: 6.00 Build 0)  -->
<!DOCTYPE svg PUBLIC "-//W3C//DTD SVG 1.1//EN" "http://www.w3.org/Graphics/SVG/1.1/DTD/svg11.dtd">
<svg version="1.1" id="Layer_1" xmlns="http://www.w3.org/2000/svg" xmlns:xlink="http://www.w3.org/1999/xlink" x="0px" y="0px"
	 width="36.032px" height="43.999px" viewBox="0 0 36.032 43.999" style="enable-background:new 0 0 36.032 43.999;"
	 xml:space="preserve">
<g id="_x39_75-balloon-toolbar_x40_2x.png">
	<g>
		<path d="M15.299,6.477c-0.324,0.097-7.938,2.472-8.911,10.978c-0.062,0.549,0.331,1.044,0.88,1.107
			c0.549,0.062,1.044-0.332,1.107-0.88c0.818-7.157,7.203-9.199,7.499-9.289c0.528-0.159,0.828-0.716,0.67-1.245
			C16.386,6.619,15.829,6.318,15.299,6.477z M23.069,0.567C13.521-2.002,3.518,4.394,0.727,14.851
			c-2.72,10.188,2.423,20.452,11.52,23.35c-1.635,1.202-2.37,2.286-2.218,3.285c0.144,0.943,1.045,1.665,2.682,2.146
			c0.844,0.248,1.538,0.368,2.125,0.368c1.022,0,1.546-0.387,1.805-0.712c0.839-1.051,0.118-2.859-0.486-4.338
			c8.491,0.564,16.669-5.504,19.149-14.798C38.094,13.694,32.617,3.136,23.069,0.567z M14.835,41.999
			c-0.388,0-0.913-0.097-1.562-0.287c-0.751-0.221-1.092-0.441-1.226-0.553c0.117-0.226,0.554-0.844,2.096-1.844
			c0.039,0.099,0.082,0.203,0.127,0.313c0.248,0.604,0.735,1.797,0.756,2.359C14.977,41.995,14.915,41.999,14.835,41.999z
			 M33.359,23.64c-2.498,9.385-11.393,15.14-19.866,12.854S0.174,24.746,2.671,15.362C5.169,5.978,14.064,0.223,22.538,2.509
			S35.856,14.256,33.359,23.64z"/>
	</g>
</g>
<g>
</g>
<g>
</g>
<g>
</g>
<g>
</g>
<g>
</g>
<g>
</g>
<g>
</g>
<g>
</g>
<g>
</g>
<g>
</g>
<g>
</g>
<g>
</g>
<g>
</g>
<g>
</g>
<g>
</g>
</svg>
