<?xml version="1.0" encoding="iso-8859-1"?>
<!-- Generator: Adobe Illustrator 16.0.4, SVG Export Plug-In . SVG Version: 6.00 Build 0)  -->
<!DOCTYPE svg PUBLIC "-//W3C//DTD SVG 1.1//EN" "http://www.w3.org/Graphics/SVG/1.1/DTD/svg11.dtd">
<svg version="1.1" id="Layer_1" xmlns="http://www.w3.org/2000/svg" xmlns:xlink="http://www.w3.org/1999/xlink" x="0px" y="0px"
	 width="44.039px" height="55.999px" viewBox="0 0 44.039 55.999" style="enable-background:new 0 0 44.039 55.999;"
	 xml:space="preserve">
<g id="_x39_75-balloon_x40_2x.png">
	<g>
		<path d="M28.196,0.698C16.526-2.463,4.3,5.408,0.889,18.278c-3.267,12.323,2.746,24.737,13.506,28.548
			c-1.755,1.757-2.546,3.366-2.356,4.863c0.204,1.617,1.494,2.854,3.831,3.679c1.205,0.424,2.198,0.631,3.035,0.631c0,0,0,0,0.001,0
			c1.46,0,2.208-0.663,2.578-1.221c1.099-1.654,0.323-4.401-0.48-6.802c9.917,0.036,19.237-7.276,22.146-18.251
			C46.561,16.855,39.866,3.859,28.196,0.698z M19.876,53.586c-0.148,0.224-0.475,0.338-0.971,0.338h-0.001
			c-0.614,0-1.427-0.177-2.414-0.525c-0.882-0.311-2.379-0.981-2.506-1.984c-0.063-0.496,0.14-1.762,2.67-3.937
			c0.741,0.169,1.481,0.294,2.223,0.376c0.007,0.02,0.011,0.034,0.018,0.054C19.458,49.56,20.509,52.634,19.876,53.586z
			 M41.228,29.205c-3.127,11.798-14.262,19.032-24.871,16.158C5.749,42.49-0.317,30.597,2.81,18.799S17.072-0.233,27.681,2.641
			C38.29,5.514,44.355,17.408,41.228,29.205z M15.594,8.083c-0.312,0.133-7.606,3.358-7.606,11.919c0,0.552,0.448,1,1,1s1-0.448,1-1
			c0-7.204,6.112-9.958,6.395-10.081c0.508-0.218,0.742-0.806,0.524-1.312C16.69,8.101,16.102,7.866,15.594,8.083z"/>
	</g>
</g>
<g>
</g>
<g>
</g>
<g>
</g>
<g>
</g>
<g>
</g>
<g>
</g>
<g>
</g>
<g>
</g>
<g>
</g>
<g>
</g>
<g>
</g>
<g>
</g>
<g>
</g>
<g>
</g>
<g>
</g>
</svg>
