<?xml version="1.0" encoding="iso-8859-1"?>
<!-- Generator: Adobe Illustrator 16.0.4, SVG Export Plug-In . SVG Version: 6.00 Build 0)  -->
<!DOCTYPE svg PUBLIC "-//W3C//DTD SVG 1.1//EN" "http://www.w3.org/Graphics/SVG/1.1/DTD/svg11.dtd">
<svg version="1.1" id="Layer_1" xmlns="http://www.w3.org/2000/svg" xmlns:xlink="http://www.w3.org/1999/xlink" x="0px" y="0px"
	 width="43.985px" height="43.985px" viewBox="0 0 43.985 43.985" style="enable-background:new 0 0 43.985 43.985;"
	 xml:space="preserve">
<g id="_x38_92-bandaid-toolbar_x40_2x.png">
	<g>
		<path d="M18.994,18.082c-0.55,0-0.995,0.445-0.995,0.995s0.445,0.995,0.995,0.995s0.995-0.445,0.995-0.995
			S19.544,18.082,18.994,18.082z M18.994,24.082c-0.55,0-0.995,0.445-0.995,0.995s0.445,0.995,0.995,0.995s0.995-0.445,0.995-0.995
			S19.544,24.082,18.994,24.082z M21.994,27.082c-0.55,0-0.995,0.445-0.995,0.995s0.445,0.995,0.995,0.995s0.995-0.445,0.995-0.995
			S22.544,27.082,21.994,27.082z M15.994,21.082c-0.55,0-0.995,0.445-0.995,0.995s0.445,0.995,0.995,0.995s0.995-0.445,0.995-0.995
			S16.544,21.082,15.994,21.082z M24.994,20.072c0.55,0,0.995-0.445,0.995-0.995s-0.445-0.995-0.995-0.995s-0.995,0.445-0.995,0.995
			S24.444,20.072,24.994,20.072z M24.994,26.072c0.55,0,0.995-0.445,0.995-0.995s-0.445-0.995-0.995-0.995s-0.995,0.445-0.995,0.995
			S24.444,26.072,24.994,26.072z M42.178,6.172l-4.365-4.364C36.607,0.603,35.028,0,33.449,0c-1.58,0-3.159,0.603-4.365,1.808
			L1.808,29.084c-2.41,2.411-2.41,6.318,0,8.729l4.364,4.365c1.205,1.205,2.784,1.808,4.364,1.808s3.159-0.603,4.364-1.808
			l27.277-27.276C44.588,12.49,44.588,8.583,42.178,6.172z M13.486,40.764c-0.788,0.788-1.836,1.222-2.95,1.222
			s-2.162-0.434-2.95-1.222l-4.364-4.365c-1.626-1.626-1.626-4.272,0-5.899l5.39-5.391l10.265,10.265L13.486,40.764z M20.29,33.959
			L10.025,23.694l13.586-13.586l10.265,10.266L20.29,33.959z M40.763,13.487L35.29,18.96L25.025,8.694l5.474-5.473
			C31.287,2.434,32.334,2,33.449,2c1.113,0,2.162,0.434,2.95,1.222l4.363,4.364C42.39,9.213,42.39,11.859,40.763,13.487z
			 M21.994,21.082c-0.55,0-0.995,0.445-0.995,0.995s0.445,0.995,0.995,0.995s0.995-0.445,0.995-0.995S22.544,21.082,21.994,21.082z
			 M21.994,15.082c-0.55,0-0.995,0.445-0.995,0.995s0.445,0.995,0.995,0.995s0.995-0.445,0.995-0.995S22.544,15.082,21.994,15.082z
			 M27.994,23.072c0.55,0,0.995-0.445,0.995-0.995s-0.445-0.995-0.995-0.995s-0.995,0.445-0.995,0.995S27.444,23.072,27.994,23.072z
			"/>
	</g>
</g>
<g>
</g>
<g>
</g>
<g>
</g>
<g>
</g>
<g>
</g>
<g>
</g>
<g>
</g>
<g>
</g>
<g>
</g>
<g>
</g>
<g>
</g>
<g>
</g>
<g>
</g>
<g>
</g>
<g>
</g>
</svg>
