<?xml version="1.0" encoding="iso-8859-1"?>
<!-- Generator: Adobe Illustrator 16.0.4, SVG Export Plug-In . SVG Version: 6.00 Build 0)  -->
<!DOCTYPE svg PUBLIC "-//W3C//DTD SVG 1.1//EN" "http://www.w3.org/Graphics/SVG/1.1/DTD/svg11.dtd">
<svg version="1.1" id="Layer_1" xmlns="http://www.w3.org/2000/svg" xmlns:xlink="http://www.w3.org/1999/xlink" x="0px" y="0px"
	 width="56.012px" height="56.012px" viewBox="0 0 56.012 56.012" style="enable-background:new 0 0 56.012 56.012;"
	 xml:space="preserve">
<g id="_x38_92-bandaid_x40_2x.png">
	<g>
		<path d="M28.006,30.006c1.104,0,2-0.896,2-2s-0.896-2-2-2s-2,0.896-2,2S26.901,30.006,28.006,30.006z M20.006,26.006
			c-1.104,0-2,0.896-2,2s0.896,2,2,2s2-0.896,2-2S21.11,26.006,20.006,26.006z M24.006,30.006c-1.104,0-2,0.896-2,2s0.896,2,2,2
			s2-0.896,2-2S25.11,30.006,24.006,30.006z M24.006,26.006c1.104,0,2-0.896,2-2s-0.896-2-2-2s-2,0.896-2,2
			S22.901,26.006,24.006,26.006z M53.71,7.859l-5.558-5.558c-3.069-3.069-8.046-3.069-11.115,0L11.84,27.499l-0.27,0.27
			l-9.269,9.269c-3.069,3.069-3.069,8.046,0,11.115l5.558,5.558c3.069,3.069,8.046,3.069,11.115,0l9.244-9.244l0.294-0.294
			L53.71,18.975C56.779,15.905,56.779,10.929,53.71,7.859z M17.585,52.32c-2.302,2.303-6.034,2.303-8.336,0l-5.558-5.558
			c-2.302-2.302-2.302-6.034,0-8.336l8.148-8.149l13.895,13.895L17.585,52.32z M27.124,42.782L13.229,28.889l15.658-15.659
			l13.895,13.895L27.124,42.782z M52.32,17.586l-8.148,8.148L30.277,11.841l8.149-8.149c2.302-2.302,6.034-2.302,8.336,0
			l5.558,5.558C54.622,11.551,54.622,15.283,52.32,17.586z M28.006,34.006c-1.104,0-2,0.896-2,2s0.896,2,2,2s2-0.896,2-2
			S29.11,34.006,28.006,34.006z M26.006,20.006c0,1.104,0.896,2,2,2s2-0.896,2-2s-0.896-2-2-2S26.006,18.901,26.006,20.006z
			 M32.006,26.006c1.104,0,2-0.896,2-2s-0.896-2-2-2s-2,0.896-2,2S30.901,26.006,32.006,26.006z M32.006,30.006
			c-1.104,0-2,0.896-2,2s0.896,2,2,2s2-0.896,2-2S33.11,30.006,32.006,30.006z M36.006,30.006c1.104,0,2-0.896,2-2s-0.896-2-2-2
			s-2,0.896-2,2S34.901,30.006,36.006,30.006z"/>
	</g>
</g>
<g>
</g>
<g>
</g>
<g>
</g>
<g>
</g>
<g>
</g>
<g>
</g>
<g>
</g>
<g>
</g>
<g>
</g>
<g>
</g>
<g>
</g>
<g>
</g>
<g>
</g>
<g>
</g>
<g>
</g>
</svg>
