<?xml version="1.0" encoding="iso-8859-1"?>
<!-- Generator: Adobe Illustrator 16.0.4, SVG Export Plug-In . SVG Version: 6.00 Build 0)  -->
<!DOCTYPE svg PUBLIC "-//W3C//DTD SVG 1.1//EN" "http://www.w3.org/Graphics/SVG/1.1/DTD/svg11.dtd">
<svg version="1.1" id="Layer_1" xmlns="http://www.w3.org/2000/svg" xmlns:xlink="http://www.w3.org/1999/xlink" x="0px" y="0px"
	 width="56px" height="28px" viewBox="0 0 56 28" style="enable-background:new 0 0 56 28;" xml:space="preserve">
<g id="_x38_59-bar-chart_x40_2x.png">
	<g>
		<path d="M36,28h8V7h-8V28z M38,9h4v17h-4V9z M0,28h8V14H0V28z M2,16h4v10H2V16z M48,0v28h8V0H48z M54,26h-4V2h4V26z M12,28h8V3h-8
			V28z M14,5h4v21h-4V5z M24,28h8V17h-8V28z M26,19h4v7h-4V19z"/>
	</g>
</g>
<g>
</g>
<g>
</g>
<g>
</g>
<g>
</g>
<g>
</g>
<g>
</g>
<g>
</g>
<g>
</g>
<g>
</g>
<g>
</g>
<g>
</g>
<g>
</g>
<g>
</g>
<g>
</g>
<g>
</g>
</svg>
