<?xml version="1.0" encoding="iso-8859-1"?>
<!-- Generator: Adobe Illustrator 16.0.4, SVG Export Plug-In . SVG Version: 6.00 Build 0)  -->
<!DOCTYPE svg PUBLIC "-//W3C//DTD SVG 1.1//EN" "http://www.w3.org/Graphics/SVG/1.1/DTD/svg11.dtd">
<svg version="1.1" id="Layer_1" xmlns="http://www.w3.org/2000/svg" xmlns:xlink="http://www.w3.org/1999/xlink" x="0px" y="0px"
	 width="56px" height="44px" viewBox="0 0 56 44" style="enable-background:new 0 0 56 44;" xml:space="preserve">
<g id="_x31_020-barcode_x40_2x.png">
	<g>
		<path d="M14,44h2V0h-2V44z M18,44h6V0h-6V44z M0,44h2V0H0V44z M10,44h2V0h-2V44z M26,44h2V0h-2V44z M4,44h4V0H4V44z M48,44h4V0h-4
			V44z M30,44h4V0h-4V44z M44,44h2V0h-2V44z M54,0v44h2V0H54z M36,44h2V0h-2V44z M40,44h2V0h-2V44z"/>
	</g>
</g>
<g>
</g>
<g>
</g>
<g>
</g>
<g>
</g>
<g>
</g>
<g>
</g>
<g>
</g>
<g>
</g>
<g>
</g>
<g>
</g>
<g>
</g>
<g>
</g>
<g>
</g>
<g>
</g>
<g>
</g>
</svg>
