<?xml version="1.0" encoding="iso-8859-1"?>
<!-- Generator: Adobe Illustrator 16.0.4, SVG Export Plug-In . SVG Version: 6.00 Build 0)  -->
<!DOCTYPE svg PUBLIC "-//W3C//DTD SVG 1.1//EN" "http://www.w3.org/Graphics/SVG/1.1/DTD/svg11.dtd">
<svg version="1.1" id="Layer_1" xmlns="http://www.w3.org/2000/svg" xmlns:xlink="http://www.w3.org/1999/xlink" x="0px" y="0px"
	 width="56px" height="36px" viewBox="0 0 56 36" style="enable-background:new 0 0 56 36;" xml:space="preserve">
<g id="_x31_038-barrier_x40_2x.png">
	<g>
		<path d="M55,34h-5V9.899c2.282-0.464,4-2.48,4-4.899c0-2.762-2.238-5-5-5s-5,2.238-5,5c0,0.771,0.188,1.491,0.5,2.143
			C41.401,9.662,36.297,12,28,12S14.599,9.662,11.5,7.143C11.812,6.491,12,5.771,12,5c0-2.762-2.238-5-5-5S2,2.238,2,5
			c0,2.419,1.718,4.436,4,4.899V34H1c-0.553,0-1,0.447-1,1s0.447,1,1,1h12c0.553,0,1-0.447,1-1s-0.447-1-1-1H8V9.899
			c0.927-0.188,1.753-0.642,2.416-1.265C13.686,11.339,19.146,14,28,14s14.314-2.661,17.584-5.365
			C46.248,9.258,47.073,9.711,48,9.899V34h-5c-0.553,0-1,0.447-1,1s0.447,1,1,1h12c0.553,0,1-0.447,1-1S55.553,34,55,34z M7,8
			C5.343,8,4,6.657,4,5s1.343-3,3-3s3,1.343,3,3S8.657,8,7,8z M46,5c0-1.657,1.343-3,3-3s3,1.343,3,3s-1.343,3-3,3S46,6.657,46,5z"
			/>
	</g>
</g>
<g>
</g>
<g>
</g>
<g>
</g>
<g>
</g>
<g>
</g>
<g>
</g>
<g>
</g>
<g>
</g>
<g>
</g>
<g>
</g>
<g>
</g>
<g>
</g>
<g>
</g>
<g>
</g>
<g>
</g>
</svg>
