<?xml version="1.0" encoding="iso-8859-1"?>
<!-- Generator: Adobe Illustrator 16.0.4, SVG Export Plug-In . SVG Version: 6.00 Build 0)  -->
<!DOCTYPE svg PUBLIC "-//W3C//DTD SVG 1.1//EN" "http://www.w3.org/Graphics/SVG/1.1/DTD/svg11.dtd">
<svg version="1.1" id="Layer_1" xmlns="http://www.w3.org/2000/svg" xmlns:xlink="http://www.w3.org/1999/xlink" x="0px" y="0px"
	 width="44px" height="32px" viewBox="0 0 44 32" style="enable-background:new 0 0 44 32;" xml:space="preserve">
<g id="_x31_038-barrier-toolbar_x40_2x.png">
	<g>
		<path d="M43,30h-3V9.899c2.282-0.464,4-2.48,4-4.899c0-2.762-2.238-5-5-5s-5,2.238-5,5c0,0.982,0.294,1.893,0.783,2.665
			C32.028,9.858,27.853,12,22,12S11.972,9.858,9.217,7.665C9.706,6.893,10,5.982,10,5c0-2.762-2.238-5-5-5S0,2.238,0,5
			c0,2.419,1.718,4.436,4,4.899V30H1c-0.553,0-1,0.447-1,1s0.447,1,1,1h8c0.553,0,1-0.447,1-1s-0.447-1-1-1H6V9.899
			c0.546-0.11,1.048-0.327,1.514-0.601C10.238,11.614,14.791,14,22,14s11.762-2.386,14.486-4.701
			c0.466,0.273,0.968,0.49,1.514,0.601V30h-3c-0.553,0-1,0.447-1,1s0.447,1,1,1h8c0.553,0,1-0.447,1-1S43.553,30,43,30z M5,8
			C3.343,8,2,6.657,2,5c0-1.656,1.343-3,3-3s3,1.344,3,3C8,6.657,6.657,8,5,8z M36,5c0-1.656,1.343-3,3-3s3,1.344,3,3
			c0,1.657-1.343,3-3,3S36,6.657,36,5z"/>
	</g>
</g>
<g>
</g>
<g>
</g>
<g>
</g>
<g>
</g>
<g>
</g>
<g>
</g>
<g>
</g>
<g>
</g>
<g>
</g>
<g>
</g>
<g>
</g>
<g>
</g>
<g>
</g>
<g>
</g>
<g>
</g>
</svg>
