<?xml version="1.0" encoding="iso-8859-1"?>
<!-- Generator: Adobe Illustrator 16.0.4, SVG Export Plug-In . SVG Version: 6.00 Build 0)  -->
<!DOCTYPE svg PUBLIC "-//W3C//DTD SVG 1.1//EN" "http://www.w3.org/Graphics/SVG/1.1/DTD/svg11.dtd">
<svg version="1.1" id="Layer_1" xmlns="http://www.w3.org/2000/svg" xmlns:xlink="http://www.w3.org/1999/xlink" x="0px" y="0px"
	 width="43.968px" height="44.022px" viewBox="0 0 43.968 44.022" style="enable-background:new 0 0 43.968 44.022;"
	 xml:space="preserve">
<g id="_x31_143-baseball-and-bat_x40_2x.png">
	<g>
		<path d="M42.009,1.943C40.703,0.647,38.992,0,37.28,0c-2.935,0-4.786,1.995-4.786,1.995l-5.511,6.466
			c-1.737-3.792-5.532-6.443-9.978-6.443c-6.08,0-11.009,4.925-11.009,11c0,5.06,3.426,9.301,8.083,10.583L4.876,34.395
			l-4.248,1.699l0.001,0.004C0.262,36.245,0,36.602,0,37.022c0,0.276,0.112,0.526,0.293,0.707l6,6
			C6.474,43.91,6.724,44.022,7,44.022c0.421,0,0.778-0.262,0.925-0.63l0.003,0.001l1.993-4.981v-0.001l0.007-0.018l-0.003-0.001
			C9.971,38.277,10,38.154,10,38.022c0-0.006-0.003-0.011-0.003-0.017c5.935-4.945,31.999-26.663,32.013-26.682
			C44.621,8.733,44.621,4.533,42.009,1.943z M23.6,6.912c0.858,0.925,1.521,2.029,1.933,3.25l-4.889,5.735
			C20.239,15.021,20,14.053,20,13.022C20,10.393,21.454,8.107,23.6,6.912z M10.413,19.126c-1.491-1.604-2.41-3.747-2.41-6.109
			c0-2.357,0.916-4.497,2.403-6.102C12.549,8.111,14,10.395,14,13.022C14,15.647,12.552,17.93,10.413,19.126z M11.997,20.488
			C14.406,18.875,16,16.141,16,13.022c0-3.121-1.598-5.858-4.012-7.472c1.434-0.963,3.159-1.525,5.016-1.525
			c1.855,0,3.579,0.562,5.011,1.523C19.599,7.161,18,9.899,18,13.022c0,1.653,0.468,3.184,1.251,4.509l-3.709,4.352
			C14.247,21.671,13.043,21.189,11.997,20.488z M6.635,41.243l-3.855-3.855l2.98-1.191l2.067,2.067L6.635,41.243z M8.828,36.437
			l-0.714-0.715l-0.921-0.956l5.123-6.013l2.603,2.603C12.33,33.516,10.163,35.324,8.828,36.437z M40.644,9.868
			c-1.033,0.865-14.693,12.277-24.184,20.2l-2.843-2.843l20.366-23.9c0.152-0.147,1.442-1.339,3.296-1.339
			c1.251,0,2.427,0.483,3.312,1.361C42.401,5.142,42.418,8.052,40.644,9.868z"/>
	</g>
</g>
<g>
</g>
<g>
</g>
<g>
</g>
<g>
</g>
<g>
</g>
<g>
</g>
<g>
</g>
<g>
</g>
<g>
</g>
<g>
</g>
<g>
</g>
<g>
</g>
<g>
</g>
<g>
</g>
<g>
</g>
</svg>
