<?xml version="1.0" encoding="iso-8859-1"?>
<!-- Generator: Adobe Illustrator 16.0.4, SVG Export Plug-In . SVG Version: 6.00 Build 0)  -->
<!DOCTYPE svg PUBLIC "-//W3C//DTD SVG 1.1//EN" "http://www.w3.org/Graphics/SVG/1.1/DTD/svg11.dtd">
<svg version="1.1" id="Layer_1" xmlns="http://www.w3.org/2000/svg" xmlns:xlink="http://www.w3.org/1999/xlink" x="0px" y="0px"
	 width="56px" height="48px" viewBox="0 0 56 48" style="enable-background:new 0 0 56 48;" xml:space="preserve">
<g id="_x31_083-baseball-field_x40_2x.png">
	<g>
		<path d="M56,22c0-2-10.536-22-28-22S0,20,0,22c0,0.284,0.121,0.537,0.312,0.72l-0.003,0.003l9.043,8.914
			c0.016,0.016,0.031,0.031,0.047,0.047l15.066,14.852C25.369,47.44,26.619,48,28,48c0.006,0,0.011-0.002,0.016-0.002
			c0.006,0,0.011,0.002,0.016,0.002c1.459,0,2.761-0.636,3.675-1.633l14.792-14.582c0.021-0.021,0.043-0.041,0.063-0.062l9.13-9
			l-0.003-0.003C55.879,22.537,56,22.284,56,22z M9.906,28.125c0-1.656,1.343-3,3-3s3,1.344,3,3c0,1.657-1.343,3-3,3
			S9.906,29.782,9.906,28.125z M28.031,46c-1.657,0-3-1.343-3-3s1.343-3,3-3s3,1.343,3,3S29.688,46,28.031,46z M32.963,42.32
			C32.628,39.884,30.56,38,28.031,38c-2.547,0-4.626,1.912-4.937,4.375l-9.459-9.323c2.412-0.355,4.271-2.415,4.271-4.927
			c0-2.516-1.864-4.577-4.283-4.928l9.48-9.48C23.454,16.136,25.516,18,28.031,18c2.509,0,4.567-1.854,4.926-4.263l9.37,9.549
			C39.888,23.618,38,25.688,38,28.219c0,2.512,1.857,4.57,4.27,4.927L32.963,42.32z M25.031,13c0-1.657,1.343-3,3-3s3,1.343,3,3
			s-1.343,3-3,3S25.031,14.657,25.031,13z M43,31.219c-1.657,0-3-1.343-3-3s1.343-3,3-3s3,1.343,3,3S44.657,31.219,43,31.219z
			 M47.934,27.562c-0.163-1.229-0.768-2.317-1.649-3.099L31.582,9.48l-0.001,0.001C30.675,8.567,29.42,8,28.031,8
			c-1.466,0-2.771,0.643-3.686,1.646L9.623,24.369c-0.024,0.021-0.046,0.048-0.07,0.07L9.512,24.48l0.001,0.001
			c-0.819,0.772-1.385,1.812-1.54,2.988l-5.85-5.766C3.477,17.842,13.319,2,28,2s24.523,15.841,25.877,19.703L47.934,27.562z"/>
	</g>
</g>
<g>
</g>
<g>
</g>
<g>
</g>
<g>
</g>
<g>
</g>
<g>
</g>
<g>
</g>
<g>
</g>
<g>
</g>
<g>
</g>
<g>
</g>
<g>
</g>
<g>
</g>
<g>
</g>
<g>
</g>
</svg>
