<?xml version="1.0" encoding="iso-8859-1"?>
<!-- Generator: Adobe Illustrator 16.0.4, SVG Export Plug-In . SVG Version: 6.00 Build 0)  -->
<!DOCTYPE svg PUBLIC "-//W3C//DTD SVG 1.1//EN" "http://www.w3.org/Graphics/SVG/1.1/DTD/svg11.dtd">
<svg version="1.1" id="Layer_1" xmlns="http://www.w3.org/2000/svg" xmlns:xlink="http://www.w3.org/1999/xlink" x="0px" y="0px"
	 width="44.014px" height="44px" viewBox="0 0 44.014 44" style="enable-background:new 0 0 44.014 44;" xml:space="preserve">
<g id="_x31_146-baseball-glove_x40_2x.png">
	<g>
		<path d="M42.295,10.787C30.887,0.217,20.726,0,15.36,0S-1.706,5.822,0.21,15.766c4.422,19.138,13.269,28.213,24.409,28.213
			C24.831,43.993,25.042,44,25.252,44C38.355,44,48.109,16.031,42.295,10.787z M28.786,4.337c1.645,0.66,3.376,1.52,5.167,2.607
			l-3.676,8.821c-0.88-1.005-1.927-1.861-3.116-2.494L28.786,4.337z M28.603,16.895c1.482,1.606,2.396,3.747,2.396,6.106
			c0,2.358-0.909,4.501-2.39,6.106c-2.144-1.195-3.596-3.479-3.596-6.107C25.013,20.373,26.462,18.091,28.603,16.895z M22.013,2.449
			c1.493,0.24,3.127,0.616,4.867,1.19l-1.607,8.84c-1.029-0.319-2.125-0.492-3.26-0.493V2.449z M27.025,15.527
			c-2.414,1.613-4.013,4.351-4.013,7.473c0,3.075,1.554,5.774,3.908,7.396C25.62,30.162,24.012,30,22.011,30
			c-1.999,0-3.605,0.161-4.906,0.396c2.354-1.622,3.908-4.32,3.908-7.396c0-3.124-1.601-5.864-4.019-7.476
			c1.433-0.966,3.156-1.53,5.013-1.53C23.865,13.994,25.593,14.56,27.025,15.527z M20.001,9.859v2.317
			c-4.439,0.819-7.942,4.3-8.793,8.727c-1.086-1.236-2.043-2.538-2.882-3.906C9.302,15.565,12.912,11.011,20.001,9.859z
			 M7.269,15.118c-0.492-0.965-0.918-1.972-1.303-3.006c1.173-1.355,5.979-6.245,14.035-5.805v1.608
			C12.979,8.942,8.976,12.938,7.269,15.118z M15.415,16.891c2.145,1.195,3.598,3.479,3.598,6.109c0,2.627-1.449,4.909-3.59,6.105
			c-1.487-1.604-2.407-3.741-2.407-6.104C13.016,20.64,13.93,18.497,15.415,16.891z M15.36,2c1.224,0,2.797,0.005,4.641,0.185v2.225
			C12.188,4.005,7.241,7.836,5.217,9.821c-0.229-0.806-0.43-1.632-0.601-2.479C7.732,3.864,12.78,2,15.36,2z M39.748,26.824
			C36.841,34.378,31.231,42,25.252,42c-0.165,0-0.329-0.006-0.495-0.018c-0.046-0.003-0.092-0.004-0.138-0.004
			c-7.432,0-17.356-4.62-22.451-26.625c-0.385-2.036-0.095-3.971,0.852-5.777c1.409,5.489,4.043,10.109,8.025,14.122
			c0.188,2.906,1.499,5.499,3.513,7.355c-1.507,0.545-2.137,1.121-2.254,1.239c-0.384,0.385-0.383,0.997-0.008,1.39
			c0.376,0.395,1.005,0.405,1.405,0.04c0.02-0.017,1.964-1.723,8.31-1.723s8.29,1.706,8.293,1.707
			C30.499,33.902,30.755,34,31.011,34s0.512-0.098,0.707-0.293c0.391-0.391,0.391-1.023,0-1.414
			c-0.118-0.118-0.748-0.694-2.257-1.24c2.175-2.009,3.546-4.873,3.546-8.066c0-1.918-0.511-3.708-1.373-5.276l4.027-9.667
			c1.346,0.916,2.723,1.97,4.123,3.185l-5.69,11.38c-0.001,0.002-0.002,0.004-0.003,0.006l-0.001,0.002h0.001
			c-0.05,0.119-0.078,0.248-0.078,0.385c0,0.553,0.447,1,1,1c0.416,0,0.771-0.254,0.923-0.615l5.349-10.697
			C42.5,14.621,42.294,20.205,39.748,26.824z"/>
	</g>
</g>
<g>
</g>
<g>
</g>
<g>
</g>
<g>
</g>
<g>
</g>
<g>
</g>
<g>
</g>
<g>
</g>
<g>
</g>
<g>
</g>
<g>
</g>
<g>
</g>
<g>
</g>
<g>
</g>
<g>
</g>
</svg>
