<?xml version="1.0" encoding="iso-8859-1"?>
<!-- Generator: Adobe Illustrator 16.0.4, SVG Export Plug-In . SVG Version: 6.00 Build 0)  -->
<!DOCTYPE svg PUBLIC "-//W3C//DTD SVG 1.1//EN" "http://www.w3.org/Graphics/SVG/1.1/DTD/svg11.dtd">
<svg version="1.1" id="Layer_1" xmlns="http://www.w3.org/2000/svg" xmlns:xlink="http://www.w3.org/1999/xlink" x="0px" y="0px"
	 width="44.015px" height="36px" viewBox="0 0 44.015 36" style="enable-background:new 0 0 44.015 36;" xml:space="preserve">
<g id="_x31_144-baseball-helmet_x40_2x.png">
	<g>
		<path d="M42.886,21.859c-0.787-0.576-4.705-3.083-5.952-3.881C36.921,11.983,36.454,0,18.076,0c-5.75,0-9.982,1.5-12.938,4.586
			c-5.179,5.407-5.157,14.029-5.136,22.078l0.002,1.473c0,0.452,0.352,0.818,0.786,0.818c2.912,0,4.681,1.205,6.728,2.602
			C10.23,33.404,12.007,36,19.618,36c2.512,0,4.62-1.22,5.937-3.437c1.368-2.303,1.407-4.896,0.771-7.581h16.108
			c0.742,0,1.34-0.391,1.524-0.997C44.082,23.575,44.109,22.755,42.886,21.859z M26.326,22.983c-0.611,0-1.189,0.279-1.568,0.759
			s-0.519,1.106-0.377,1.701c0.598,2.528,0.425,4.467-0.544,6.099C22.88,33.15,21.422,34,19.618,34c-5.623,0-7.52-1.47-9.529-3.025
			c-0.457-0.354-0.929-0.72-1.444-1.07c-1.872-1.277-3.799-2.592-6.642-2.888l0-0.363c-0.02-7.797-0.04-15.86,4.581-20.685
			C9.141,3.299,12.9,2,18.076,2c7.218,0,12.142,1.96,14.635,5.825c2.208,3.425,2.218,7.805,2.222,10.158
			c0.001,0.681,0.35,1.314,0.923,1.681c2.344,1.497,4.15,2.666,5.13,3.319H26.326z M18.007,26c-1.104,0-2,0.896-2,2s0.896,2,2,2
			s2-0.896,2-2S19.112,26,18.007,26z"/>
	</g>
</g>
<g>
</g>
<g>
</g>
<g>
</g>
<g>
</g>
<g>
</g>
<g>
</g>
<g>
</g>
<g>
</g>
<g>
</g>
<g>
</g>
<g>
</g>
<g>
</g>
<g>
</g>
<g>
</g>
<g>
</g>
</svg>
