<?xml version="1.0" encoding="iso-8859-1"?>
<!-- Generator: Adobe Illustrator 16.0.4, SVG Export Plug-In . SVG Version: 6.00 Build 0)  -->
<!DOCTYPE svg PUBLIC "-//W3C//DTD SVG 1.1//EN" "http://www.w3.org/Graphics/SVG/1.1/DTD/svg11.dtd">
<svg version="1.1" id="Layer_1" xmlns="http://www.w3.org/2000/svg" xmlns:xlink="http://www.w3.org/1999/xlink" x="0px" y="0px"
	 width="44px" height="36px" viewBox="0 0 44 36" style="enable-background:new 0 0 44 36;" xml:space="preserve">
<g id="_x31_083-baseball-field-toolbar_x40_2x.png">
	<g>
		<path d="M44,16.5C44,15,35.722,0,22,0S0,15,0,16.5c0,0.213,0.096,0.402,0.244,0.54l-0.002,0.002l18.98,17.859
			c0.517,0.494,1.181,0.846,1.92,1.003c0.018,0.004,0.032,0.012,0.05,0.015c0.215,0.043,0.438,0.06,0.664,0.067
			C21.902,35.988,21.946,36,21.993,36c0.001,0,0.002,0,0.003,0c0.002,0,0.003,0,0.004,0c1.085,0,2.066-0.42,2.777-1.099
			l18.98-17.859l-0.002-0.002C43.904,16.902,44,16.713,44,16.5z M8.158,20.844c0-1.104,0.895-2,1.998-2s1.998,0.896,1.998,2
			s-0.895,2-1.998,2S8.158,21.948,8.158,20.844z M22.434,33.952c-0.009,0.002-0.018,0.006-0.026,0.008
			c-0.105,0.021-0.216,0.028-0.327,0.032C22.055,33.994,22.03,34,22.004,34c-1.102-0.002-1.994-0.896-1.994-2
			c0-1.104,0.895-2,1.998-2s1.998,0.896,1.998,2C24.006,32.958,23.332,33.757,22.434,33.952z M25.88,31.119
			C25.479,29.335,23.895,28,21.993,28c-1.897,0-3.479,1.33-3.884,3.108l-6.84-6.436c0.629-0.182,1.226-0.501,1.72-0.996
			c1.562-1.562,1.561-4.097-0.005-5.661c-0.472-0.473-1.036-0.784-1.632-0.972l6.747-6.16c0.159,0.715,0.507,1.396,1.062,1.951
			c1.559,1.559,4.089,1.556,5.65-0.007c0.561-0.56,0.911-1.246,1.07-1.965l6.775,6.187c-0.597,0.186-1.162,0.496-1.634,0.968
			c-1.559,1.559-1.556,4.089,0.007,5.65c0.492,0.493,1.085,0.812,1.709,0.995L25.88,31.119z M23.516,8.701
			c0.302,0.351,0.49,0.801,0.49,1.299c0,1.104-0.895,2-1.998,2s-1.998-0.896-1.998-2s0.895-2,1.998-2
			c0.55,0,1.048,0.223,1.409,0.583l-0.015,0.015L23.516,8.701z M33.834,22.851c-1.104,0-1.998-0.896-1.998-2s0.895-2,1.998-2
			s1.998,0.896,1.998,2S34.938,22.851,33.834,22.851z M40.882,17.002l-3.145,2.96c-0.162-0.705-0.508-1.376-1.054-1.927l0.008-0.008
			L24.845,7.209c-0.01-0.01-0.016-0.021-0.025-0.031c-1.559-1.559-4.089-1.556-5.65,0.007c-0.02,0.019-0.032,0.042-0.051,0.062
			L7.359,17.98c-0.012,0.012-0.025,0.019-0.036,0.03c-0.556,0.555-0.903,1.234-1.063,1.948l-2.964-2.79l0.021-0.017l-1.09-1.005
			C3.64,13.197,10.703,2,22,2c11.302,0,18.367,11.207,19.775,14.15l-0.904,0.842L40.882,17.002z"/>
	</g>
</g>
<g>
</g>
<g>
</g>
<g>
</g>
<g>
</g>
<g>
</g>
<g>
</g>
<g>
</g>
<g>
</g>
<g>
</g>
<g>
</g>
<g>
</g>
<g>
</g>
<g>
</g>
<g>
</g>
<g>
</g>
</svg>
