<?xml version="1.0" encoding="UTF-8" standalone="no"?>
<svg width="57px" height="58px" viewBox="0 0 57 58" version="1.1" xmlns="http://www.w3.org/2000/svg" xmlns:xlink="http://www.w3.org/1999/xlink" xmlns:sketch="http://www.bohemiancoding.com/sketch/ns">
    <!-- Generator: Sketch 3.0.4 (8053) - http://www.bohemiancoding.com/sketch -->
    <title>1146-baseball-glove</title>
    <desc>Created with Sketch.</desc>
    <defs></defs>
    <g id="Page-1" stroke="none" stroke-width="1" fill="none" fill-rule="evenodd" sketch:type="MSPage">
        <g id="Glyphish-8-Icons" sketch:type="MSArtboardGroup" transform="translate(-500.000000, -403.000000)" fill="#000000">
            <g id="1146-baseball-glove" sketch:type="MSLayerGroup" transform="translate(500.036996, 403.860499)">
                <g id="_x31_146-baseball-glove_x40_2x.png" sketch:type="MSShapeGroup">
                    <path d="M53.8,13.729 C39.288,0.276 26.363,0 19.538,0 C15.528,0 8.738,2.562 4.311,7.241 C4.262,7.282 4.22,7.326 4.179,7.377 C1.15,10.643 -0.723,14.921 0.267,20.065 C5.892,44.422 17.146,55.972 31.316,55.972 C31.586,55.991 31.854,56 32.121,56 C48.789,56 61.195,20.404 53.8,13.729 L53.8,13.729 Z M43.416,8.337 L39.186,19.618 C37.897,17.892 36.22,16.475 34.286,15.492 L36.289,4.814 C38.55,5.69 40.934,6.83 43.416,8.337 L43.416,8.337 Z M39.978,27.981 C39.978,31.061 38.808,33.861 36.9,35.986 C33.996,34.494 31.997,31.49 31.997,28 C31.997,24.5 34.008,21.491 36.926,20.004 C38.817,22.125 39.978,24.915 39.978,27.981 L39.978,27.981 Z M27.985,2.567 C29.946,2.88 32.086,3.363 34.381,4.126 L32.395,14.719 C31.007,14.254 29.53,13.984 27.985,13.983 L27.985,2.567 L27.985,2.567 Z M35.403,18.566 C32.175,20.482 29.996,23.974 29.996,28 C29.996,32.014 32.162,35.499 35.374,37.418 C35.055,37.669 34.72,37.901 34.375,38.117 C32.634,37.473 30.501,36.985 27.991,36.985 C25.473,36.985 23.335,37.476 21.591,38.124 C21.246,37.908 20.912,37.677 20.593,37.427 C23.813,35.509 25.986,32.02 25.986,28 C25.986,23.969 23.799,20.472 20.563,18.559 C22.605,16.95 25.176,15.982 27.978,15.982 C30.784,15.981 33.359,16.952 35.403,18.566 L35.403,18.566 Z M25.985,11.941 L25.985,14.148 C19.688,15.047 14.744,20.12 14.064,26.483 C12.629,24.719 11.381,23.035 10.31,21.374 C13.835,16.453 17.373,13.817 25.985,11.941 L25.985,11.941 Z M9.162,19.471 C8.24,17.828 7.497,16.19 6.967,14.502 C12.266,9.846 16.309,7.611 25.986,8.065 L25.986,9.837 C16.57,11.825 12.607,14.82 9.162,19.471 L9.162,19.471 Z M19.038,19.996 C21.966,21.479 23.985,24.493 23.985,28 C23.985,31.498 21.977,34.506 19.062,35.994 C17.151,33.868 15.977,31.065 15.977,27.981 C15.978,24.91 17.141,22.118 19.038,19.996 L19.038,19.996 Z M19.538,2 C21.217,2 23.405,2.009 25.985,2.295 L25.985,6.009 C15.814,5.559 11.318,8.068 6.399,12.289 C6.152,11.055 5.982,9.794 5.956,8.467 C10.194,4.083 16.4,2 19.538,2 L19.538,2 Z M42.895,48.15 C40.459,50.818 36.613,54 32.121,54 C31.898,54 31.677,53.992 31.453,53.977 C31.407,53.974 31.361,53.973 31.315,53.973 C17.476,53.973 7.417,42.105 2.224,19.653 C1.617,16.453 2.25,13.443 4.1,10.686 C4.865,17.493 8.533,23.098 14.076,29.624 C14.529,33.467 16.553,36.819 19.474,39.063 C17.471,40.123 16.369,41.207 16.28,41.295 C15.89,41.686 15.89,42.318 16.279,42.711 C16.668,43.104 17.3,43.105 17.693,42.716 C17.73,42.679 21.521,38.993 27.992,38.993 C34.463,38.993 38.254,42.679 38.289,42.714 C38.484,42.91 38.74,43.008 38.997,43.008 C39.253,43.008 39.509,42.91 39.704,42.714 C40.095,42.322 40.095,41.687 39.704,41.295 C39.616,41.206 38.507,40.116 36.494,39.055 C39.818,36.496 41.978,32.502 41.978,27.983 C41.978,25.751 41.443,23.648 40.513,21.776 L45.146,9.422 C46.708,10.46 48.302,11.639 49.923,12.987 L44.049,28.65 L44.056,28.652 C44.015,28.761 43.986,28.878 43.986,29.001 C43.986,29.554 44.433,30.001 44.986,30.001 C45.415,30.001 45.773,29.729 45.916,29.35 L45.923,29.353 L51.536,14.382 C51.844,14.656 52.151,14.929 52.46,15.215 C54.636,17.179 54.71,24.869 51.068,34.338 C48.985,39.751 46.083,44.656 42.895,48.15 L42.895,48.15 Z" id="Shape"></path>
                </g>
            </g>
        </g>
    </g>
</svg>