<?xml version="1.0" encoding="UTF-8" standalone="no"?>
<svg width="50px" height="58px" viewBox="0 0 50 58" version="1.1" xmlns="http://www.w3.org/2000/svg" xmlns:xlink="http://www.w3.org/1999/xlink" xmlns:sketch="http://www.bohemiancoding.com/sketch/ns">
    <!-- Generator: Sketch 3.0.4 (8053) - http://www.bohemiancoding.com/sketch -->
    <title>1145-baseball-jersey</title>
    <desc>Created with Sketch.</desc>
    <defs></defs>
    <g id="Page-1" stroke="none" stroke-width="1" fill="none" fill-rule="evenodd" sketch:type="MSPage">
        <g id="Glyphish-8-Icons" sketch:type="MSArtboardGroup" transform="translate(-408.000000, -403.000000)" fill="#000000">
            <g id="1145-baseball-jersey" sketch:type="MSLayerGroup" transform="translate(408.036996, 403.860499)">
                <g id="_x31_145-baseball-jersey_x40_2x.png" sketch:type="MSShapeGroup">
                    <path d="M35,0 L31.002,0 L31,0 L31,0 L17,0 L17,0 L16.998,0 L13,0 C1.267,0 0,9.092 0,13 L0,31 L0,32 C0,33.104 0.896,34 2,34 L3,34 L8,34 L8,53 L8,54 C8,55.104 8.896,56 10,56 L11,56 L37,56 L38,56 C39.104,56 40,55.104 40,54 L40,53 L40,34 L45,34 L46,34 C47.104,34 48,33.104 48,32 L48,31 L48,13 C48,9.092 46.733,0 35,0 L35,0 Z M28.298,2 L24,5.684 L19.702,2 L28.298,2 L28.298,2 Z M38.105,12.553 L38.114,12.558 C38.047,12.692 38,12.839 38,13 L38,53 L38,54 L37,54 L11,54 L10,54 L10,53 L10,13 C10,12.839 9.953,12.692 9.885,12.558 L9.894,12.553 L5.652,4.069 C7.314,2.807 9.672,2 13,2 L16.631,2 L23.376,7.781 L23.385,7.769 C23.556,7.906 23.764,8 24,8 C24.236,8 24.444,7.906 24.615,7.77 L24.624,7.782 L31.369,2 L35,2 C38.328,2 40.686,2.807 42.348,4.069 L38.105,12.553 L38.105,12.553 Z M24,46 C23.448,46 23,46.447 23,47 C23,47.553 23.448,48 24,48 C24.552,48 25,47.553 25,47 C25,46.447 24.552,46 24,46 L24,46 Z M26.519,17.032 L26.519,16.996 C27.163,16.794 27.646,16.46 27.969,15.995 C28.291,15.53 28.452,14.989 28.452,14.369 C28.452,14.059 28.376,13.711 28.224,13.323 C28.073,12.936 27.823,12.573 27.476,12.233 C27.128,11.894 26.671,11.605 26.102,11.367 C25.534,11.129 24.839,11.01 24.018,11.01 C23.475,11.01 22.938,11.081 22.408,11.224 C21.877,11.368 21.4,11.581 20.977,11.868 C20.554,12.154 20.209,12.512 19.944,12.94 C19.679,13.368 19.546,13.864 19.546,14.423 C19.546,15.042 19.71,15.585 20.039,16.049 C20.367,16.514 20.854,16.83 21.498,16.996 L21.498,17.032 C20.702,17.211 20.086,17.568 19.651,18.104 C19.215,18.64 18.997,19.307 18.997,20.105 C18.997,20.785 19.139,21.369 19.423,21.857 C19.707,22.345 20.086,22.751 20.56,23.072 C21.034,23.394 21.571,23.63 22.171,23.778 C22.771,23.927 23.393,24.002 24.037,24.002 C24.656,24.002 25.262,23.922 25.856,23.761 C26.45,23.6 26.98,23.359 27.447,23.037 C27.914,22.715 28.29,22.31 28.574,21.821 C28.858,21.333 29,20.756 29,20.088 C29,19.302 28.785,18.638 28.356,18.096 C27.927,17.554 27.315,17.199 26.519,17.032 L26.519,17.032 Z M22.152,13.904 C22.259,13.69 22.408,13.511 22.597,13.368 C22.786,13.225 23.004,13.115 23.25,13.038 C23.497,12.96 23.752,12.922 24.018,12.922 C24.435,12.922 24.772,12.982 25.032,13.101 C25.291,13.22 25.493,13.369 25.638,13.547 C25.783,13.726 25.881,13.913 25.931,14.11 C25.981,14.306 26.007,14.488 26.007,14.655 C26.007,15.191 25.818,15.599 25.439,15.879 C25.06,16.159 24.586,16.299 24.018,16.299 C23.475,16.299 23.001,16.159 22.597,15.879 C22.192,15.6 21.991,15.191 21.991,14.655 C21.991,14.369 22.044,14.119 22.152,13.904 L22.152,13.904 Z M26.14,20.856 C26.026,21.119 25.865,21.341 25.657,21.526 C25.449,21.711 25.208,21.854 24.937,21.955 C24.665,22.057 24.365,22.107 24.037,22.107 C23.721,22.107 23.418,22.056 23.127,21.955 C22.836,21.854 22.587,21.711 22.378,21.526 C22.17,21.341 22.002,21.119 21.876,20.856 C21.75,20.594 21.687,20.302 21.687,19.98 C21.687,19.337 21.915,18.845 22.369,18.506 C22.824,18.166 23.379,17.996 24.036,17.996 C24.351,17.996 24.645,18.044 24.917,18.139 C25.188,18.235 25.429,18.371 25.637,18.55 C25.845,18.729 26.01,18.941 26.13,19.185 C26.25,19.429 26.31,19.701 26.31,19.998 C26.311,20.309 26.254,20.595 26.14,20.856 L26.14,20.856 Z M24,30 C23.448,30 23,30.447 23,31 C23,31.553 23.448,32 24,32 C24.552,32 25,31.553 25,31 C25,30.447 24.552,30 24,30 L24,30 Z M24,38 C23.448,38 23,38.447 23,39 C23,39.553 23.448,40 24,40 C24.552,40 25,39.553 25,39 C25,38.447 24.552,38 24,38 L24,38 Z" id="Shape"></path>
                </g>
            </g>
        </g>
    </g>
</svg>