<?xml version="1.0" encoding="iso-8859-1"?>
<!-- Generator: Adobe Illustrator 16.0.4, SVG Export Plug-In . SVG Version: 6.00 Build 0)  -->
<!DOCTYPE svg PUBLIC "-//W3C//DTD SVG 1.1//EN" "http://www.w3.org/Graphics/SVG/1.1/DTD/svg11.dtd">
<svg version="1.1" id="Layer_1" xmlns="http://www.w3.org/2000/svg" xmlns:xlink="http://www.w3.org/1999/xlink" x="0px" y="0px"
	 width="36px" height="44px" viewBox="0 0 36 44" style="enable-background:new 0 0 36 44;" xml:space="preserve">
<g id="_x31_145-baseball-jersey_x40_2x.png">
	<g>
		<path d="M20.017,14.64v-0.027c0.516-0.155,0.902-0.412,1.16-0.77s0.387-0.774,0.387-1.251c0-0.238-0.061-0.507-0.182-0.805
			c-0.122-0.297-0.321-0.577-0.599-0.838c-0.278-0.262-0.645-0.483-1.1-0.667c-0.455-0.184-1.011-0.275-1.668-0.275
			c-0.435,0-0.865,0.056-1.29,0.165c-0.424,0.11-0.806,0.275-1.145,0.495s-0.614,0.495-0.827,0.825s-0.318,0.71-0.318,1.141
			c0,0.477,0.131,0.894,0.394,1.251c0.263,0.357,0.652,0.601,1.168,0.729v0.027c-0.637,0.138-1.13,0.413-1.479,0.825
			c-0.349,0.412-0.523,0.926-0.523,1.54c0,0.522,0.114,0.971,0.341,1.347s0.531,0.688,0.91,0.935
			c0.379,0.248,0.809,0.429,1.289,0.544c0.48,0.114,0.979,0.171,1.494,0.171c0.495,0,0.98-0.062,1.456-0.186
			c0.475-0.123,0.9-0.309,1.274-0.557c0.374-0.247,0.675-0.559,0.902-0.935s0.341-0.82,0.341-1.333c0-0.605-0.172-1.116-0.516-1.533
			S20.654,14.769,20.017,14.64z M16.521,12.234c0.086-0.165,0.205-0.303,0.356-0.412c0.152-0.11,0.326-0.195,0.523-0.255
			c0.197-0.06,0.402-0.089,0.614-0.089c0.333,0,0.604,0.046,0.811,0.137c0.208,0.092,0.369,0.207,0.485,0.344
			c0.116,0.138,0.195,0.282,0.235,0.434s0.061,0.291,0.061,0.419c0,0.412-0.151,0.727-0.455,0.941
			c-0.303,0.216-0.682,0.323-1.137,0.323c-0.435,0-0.814-0.107-1.138-0.323c-0.324-0.215-0.485-0.529-0.485-0.941
			C16.392,12.592,16.435,12.399,16.521,12.234z M19.713,17.582c-0.091,0.201-0.22,0.373-0.387,0.516
			c-0.167,0.142-0.359,0.252-0.577,0.33s-0.458,0.116-0.72,0.116c-0.253,0-0.496-0.038-0.728-0.116
			c-0.233-0.078-0.433-0.188-0.599-0.33c-0.167-0.143-0.301-0.314-0.402-0.516c-0.102-0.201-0.152-0.426-0.152-0.674
			c0-0.495,0.182-0.873,0.546-1.134c0.364-0.262,0.809-0.392,1.335-0.392c0.252,0,0.488,0.036,0.705,0.109
			c0.217,0.074,0.41,0.179,0.576,0.316c0.167,0.138,0.298,0.3,0.395,0.488c0.096,0.188,0.144,0.396,0.144,0.625
			C19.85,17.16,19.804,17.381,19.713,17.582z M18,36c-0.552,0-1,0.448-1,1c0,0.553,0.448,1,1,1s1-0.447,1-1
			C19,36.448,18.552,36,18,36z M18,30c-0.552,0-1,0.447-1,1s0.448,1,1,1s1-0.447,1-1S18.552,30,18,30z M18,24c-0.552,0-1,0.447-1,1
			s0.448,1,1,1s1-0.447,1-1S18.552,24,18,24z M25,0H11C0.126,0,0,9.9,0,10v13v1.5C0,25.328,0.671,26,1.5,26H3h3v15v1.5
			C6,43.328,6.671,44,7.5,44H9h18h1.5c0.829,0,1.5-0.672,1.5-1.5V41V26h3h1.5c0.829,0,1.5-0.672,1.5-1.5V23V10C36,9.9,35.874,0,25,0
			z M22.298,2L18,5.684L13.702,2H22.298z M28.152,11.47l0.015,0.01C28.07,11.634,28,11.805,28,12v29v1h-1H9H8v-1V12
			c0-0.225-0.088-0.423-0.214-0.59L7.8,11.4L4.298,4.396c1.274-1.291,3.265-2.307,6.35-2.381l6.728,5.767l0.009-0.012
			C17.556,7.906,17.764,8,18,8s0.444-0.094,0.615-0.23l0.009,0.012l6.73-5.77c2.586,0.063,4.407,0.784,5.677,1.779L28.152,11.47z"/>
	</g>
</g>
<g>
</g>
<g>
</g>
<g>
</g>
<g>
</g>
<g>
</g>
<g>
</g>
<g>
</g>
<g>
</g>
<g>
</g>
<g>
</g>
<g>
</g>
<g>
</g>
<g>
</g>
<g>
</g>
<g>
</g>
</svg>
