<?xml version="1.0" encoding="iso-8859-1"?>
<!-- Generator: Adobe Illustrator 16.0.4, SVG Export Plug-In . SVG Version: 6.00 Build 0)  -->
<!DOCTYPE svg PUBLIC "-//W3C//DTD SVG 1.1//EN" "http://www.w3.org/Graphics/SVG/1.1/DTD/svg11.dtd">
<svg version="1.1" id="Layer_1" xmlns="http://www.w3.org/2000/svg" xmlns:xlink="http://www.w3.org/1999/xlink" x="0px" y="0px"
	 width="56px" height="56px" viewBox="0 0 56 56" style="enable-background:new 0 0 56 56;" xml:space="preserve">
<g id="_x31_084-baseball_x40_2x.png">
	<g>
		<path d="M29.682,49.251l1.877,0.503c0.534,0.144,1.082-0.174,1.226-0.707c0.143-0.533-0.174-1.082-0.708-1.225l-1.866-0.5
			c0.476-1.541,1.106-3.011,1.846-4.414l1.66,0.958c0.478,0.276,1.09,0.112,1.365-0.366c0.276-0.479,0.112-1.09-0.365-1.366
			l-1.66-0.958c0.854-1.355,1.831-2.623,2.911-3.795l1.355,1.355c0.391,0.391,1.023,0.391,1.414,0s0.391-1.023,0-1.414l-1.354-1.354
			c1.168-1.086,2.44-2.057,3.792-2.914l0.959,1.661c0.276,0.478,0.888,0.642,1.366,0.365c0.479-0.275,0.643-0.888,0.366-1.365
			l-0.968-1.676c1.401-0.745,2.883-1.356,4.422-1.836l0.502,1.872c0.144,0.534,0.691,0.851,1.225,0.708
			c0.534-0.144,0.851-0.691,0.707-1.226l-0.503-1.876c1.519-0.346,3.086-0.564,4.696-0.629C53.961,28.701,54,28.355,54,28
			c0-0.319-0.036-0.63-0.048-0.947c-1.79,0.066-3.532,0.311-5.218,0.699l-0.533-1.988c-0.143-0.533-0.691-0.851-1.225-0.707
			c-0.533,0.143-0.85,0.691-0.707,1.225l0.534,1.992c-1.71,0.527-3.354,1.204-4.905,2.034l-1.032-1.788
			c-0.276-0.479-0.888-0.643-1.366-0.366s-0.643,0.888-0.366,1.366l1.044,1.808c-1.502,0.948-2.915,2.022-4.207,3.229l-1.477-1.477
			c-0.391-0.391-1.023-0.391-1.414,0s-0.391,1.023,0,1.414l1.477,1.477c-1.202,1.296-2.288,2.701-3.23,4.207l-1.807-1.044
			c-0.479-0.276-1.09-0.112-1.366,0.366s-0.112,1.09,0.366,1.366l1.808,1.044c-0.824,1.554-1.523,3.184-2.048,4.895l-1.998-0.535
			c-0.533-0.143-1.082,0.174-1.225,0.707c-0.144,0.533,0.174,1.082,0.707,1.225l1.98,0.531c-0.386,1.687-0.625,3.431-0.691,5.22
			C27.37,53.964,27.681,54,28,54c0.355,0,0.701-0.039,1.053-0.053C29.118,52.338,29.338,50.771,29.682,49.251z M28,0
			C12.536,0,0,12.536,0,28c0,14.217,10.604,25.931,24.33,27.732C24.508,55.895,24.74,56,25,56h6c0.26,0,0.492-0.105,0.67-0.268
			C45.396,53.931,56,42.217,56,28C56,12.536,43.464,0,28,0z M26.947,2.053c-0.065,1.609-0.285,3.177-0.629,4.696l-1.877-0.503
			c-0.534-0.144-1.082,0.174-1.225,0.707c-0.144,0.533,0.173,1.082,0.707,1.225l1.867,0.5c-0.477,1.541-1.107,3.011-1.847,4.414
			l-1.66-0.958c-0.478-0.275-1.09-0.112-1.365,0.366c-0.276,0.479-0.112,1.09,0.365,1.366l1.66,0.958
			c-0.854,1.355-1.831,2.624-2.911,3.795l-1.355-1.355c-0.391-0.391-1.023-0.391-1.414,0s-0.391,1.023,0,1.414l1.354,1.354
			c-1.168,1.086-2.44,2.057-3.792,2.915l-0.959-1.661c-0.276-0.479-0.888-0.643-1.366-0.366s-0.643,0.888-0.366,1.366l0.968,1.675
			c-1.401,0.745-2.883,1.356-4.422,1.836l-0.502-1.872c-0.143-0.534-0.691-0.851-1.225-0.707c-0.534,0.143-0.851,0.691-0.707,1.225
			l0.503,1.876c-1.519,0.346-3.086,0.564-4.696,0.63C2.596,13.432,13.432,2.596,26.947,2.053z M28,54C13.641,54,2,42.359,2,28
			c0,0.32,0.036,0.63,0.048,0.947c1.79-0.066,3.532-0.311,5.218-0.699l0.533,1.988c0.143,0.533,0.691,0.851,1.225,0.707
			c0.533-0.143,0.85-0.69,0.707-1.225l-0.534-1.992c1.71-0.526,3.354-1.204,4.905-2.034l1.032,1.788
			c0.276,0.479,0.888,0.643,1.366,0.366s0.643-0.888,0.366-1.366l-1.044-1.808c1.502-0.948,2.915-2.021,4.207-3.229l1.477,1.477
			c0.391,0.391,1.024,0.391,1.414,0c0.391-0.39,0.391-1.023,0-1.414l-1.477-1.477c1.202-1.296,2.288-2.701,3.23-4.207l1.807,1.044
			c0.479,0.276,1.09,0.112,1.366-0.366s0.112-1.09-0.366-1.366l-1.808-1.044c0.824-1.554,1.523-3.184,2.048-4.895l1.998,0.535
			c0.533,0.143,1.082-0.174,1.225-0.707c0.144-0.533-0.173-1.082-0.707-1.225l-1.98-0.531c0.386-1.687,0.625-3.431,0.691-5.22
			C42.864,2.551,54,13.961,54,28C54,42.359,42.359,54,28,54z"/>
	</g>
</g>
<g>
</g>
<g>
</g>
<g>
</g>
<g>
</g>
<g>
</g>
<g>
</g>
<g>
</g>
<g>
</g>
<g>
</g>
<g>
</g>
<g>
</g>
<g>
</g>
<g>
</g>
<g>
</g>
<g>
</g>
</svg>
