<?xml version="1.0" encoding="UTF-8" standalone="no"?>
<svg width="58px" height="58px" viewBox="0 0 58 58" version="1.1" xmlns="http://www.w3.org/2000/svg" xmlns:xlink="http://www.w3.org/1999/xlink" xmlns:sketch="http://www.bohemiancoding.com/sketch/ns">
    <!-- Generator: Sketch 3.0.4 (8053) - http://www.bohemiancoding.com/sketch -->
    <title>1143-baseball-and-bat</title>
    <desc>Created with Sketch.</desc>
    <defs></defs>
    <g id="Page-1" stroke="none" stroke-width="1" fill="none" fill-rule="evenodd" sketch:type="MSPage">
        <g id="Glyphish-8-Icons" sketch:type="MSArtboardGroup" transform="translate(-212.000000, -403.000000)" fill="#000000">
            <g id="1143-baseball-and-bat" sketch:type="MSLayerGroup" transform="translate(212.036996, 403.860499)">
                <g id="_x31_143-baseball-and-bat_x40_2x.png" sketch:type="MSShapeGroup">
                    <path d="M53.51,2.489 C51.85,0.83 49.675,0 47.499,0 C43.77,0 41.417,2.556 41.417,2.556 L34.808,10.373 C32.647,5.434 27.729,1.977 21.993,1.977 C14.261,1.977 7.993,8.245 7.993,15.977 C7.993,22.538 12.514,28.023 18.606,29.539 L6.207,44.205 L0.684,46.046 L0.688,46.058 C0.291,46.189 0,46.553 0,46.994 C0,47.27 0.112,47.52 0.293,47.701 L8.293,55.701 C8.474,55.883 8.724,55.994 9,55.994 C9.441,55.994 9.804,55.703 9.937,55.306 L9.949,55.31 L11.891,49.483 C16.969,45.216 53.492,14.535 53.51,14.51 C56.829,11.191 56.829,5.809 53.51,2.489 L53.51,2.489 Z M33.333,12.119 L26.865,19.769 C26.323,18.623 26.011,17.349 26.011,15.994 C26.011,12.494 28.022,9.485 30.94,7.998 C31.997,9.184 32.81,10.584 33.333,12.119 L33.333,12.119 Z M9.992,15.976 C9.992,12.905 11.156,10.113 13.053,7.991 C15.981,9.474 18,12.487 18,15.994 C18,19.492 15.993,22.5 13.078,23.988 C11.166,21.862 9.992,19.06 9.992,15.976 L9.992,15.976 Z M14.607,25.421 C17.827,23.503 20,20.014 20,15.994 C20,11.963 17.813,8.466 14.578,6.553 C16.62,4.944 19.191,3.976 21.993,3.976 C24.8,3.976 27.375,4.947 29.419,6.561 C26.191,8.477 24.011,11.969 24.011,15.995 C24.011,17.975 24.56,19.811 25.481,21.408 L20.071,27.806 C18.032,27.477 16.165,26.641 14.607,25.421 L14.607,25.421 Z M8.563,53.144 L2.851,47.432 L6.73,46.139 L9.856,49.265 L8.563,53.144 L8.563,53.144 Z M11.108,47.688 L8.282,44.862 C8.593,44.494 11.64,40.89 15.805,35.964 L20.015,40.174 L11.108,47.688 L11.108,47.688 Z M51.947,13.232 L21.549,38.879 L17.101,34.431 C27.385,22.268 42.964,3.842 42.966,3.841 C44.187,2.653 45.792,2 47.499,2 C49.235,2 50.868,2.676 52.095,3.904 C53.323,5.132 53.999,6.763 53.999,8.5 C53.999,11.799 51.93,13.235 51.947,13.232 L51.947,13.232 Z" id="Shape"></path>
                </g>
            </g>
        </g>
    </g>
</svg>