<?xml version="1.0" encoding="iso-8859-1"?>
<!-- Generator: Adobe Illustrator 16.0.4, SVG Export Plug-In . SVG Version: 6.00 Build 0)  -->
<!DOCTYPE svg PUBLIC "-//W3C//DTD SVG 1.1//EN" "http://www.w3.org/Graphics/SVG/1.1/DTD/svg11.dtd">
<svg version="1.1" id="Layer_1" xmlns="http://www.w3.org/2000/svg" xmlns:xlink="http://www.w3.org/1999/xlink" x="0px" y="0px"
	 width="44px" height="44px" viewBox="0 0 44 44" style="enable-background:new 0 0 44 44;" xml:space="preserve">
<g id="_x31_084-baseball-toolbar_x40_2x.png">
	<g>
		<path d="M22,0C9.85,0,0,9.85,0,22s9.85,22,22,22s22-9.85,22-22S34.15,0,22,0z M20.852,2.059c-0.082,0.812-0.194,1.614-0.364,2.396
			l-0.91-0.243c-0.533-0.144-1.082,0.173-1.225,0.707c-0.143,0.533,0.174,1.081,0.707,1.225l0.915,0.245
			c-0.359,1.116-0.834,2.176-1.366,3.201L17.82,9.134c-0.479-0.276-1.09-0.112-1.366,0.366c-0.275,0.479-0.112,1.09,0.366,1.366
			l0.785,0.453c-0.632,0.978-1.318,1.916-2.098,2.774l-0.658-0.658c-0.391-0.391-1.024-0.391-1.415,0
			c-0.39,0.391-0.39,1.023,0,1.414l0.659,0.658c-0.858,0.78-1.797,1.467-2.774,2.098l-0.453-0.785
			c-0.276-0.479-0.888-0.642-1.366-0.365c-0.479,0.275-0.643,0.887-0.366,1.365l0.456,0.789c-1.026,0.531-2.086,1.007-3.202,1.366
			L6.143,19.06c-0.144-0.533-0.691-0.85-1.225-0.707c-0.534,0.144-0.851,0.691-0.707,1.225l0.243,0.911
			c-0.781,0.17-1.584,0.282-2.396,0.364C2.634,10.727,10.726,2.635,20.852,2.059z M21.076,36.822
			c-0.533-0.143-1.081,0.174-1.225,0.707c-0.143,0.534,0.174,1.082,0.707,1.225l1.019,0.273c-0.212,0.953-0.344,1.935-0.434,2.93
			c-10.358-0.439-18.66-8.74-19.101-19.1c0.995-0.089,1.977-0.222,2.931-0.434l0.272,1.018c0.143,0.533,0.691,0.85,1.225,0.707
			c0.533-0.144,0.85-0.691,0.707-1.225l-0.273-1.02c1.286-0.407,2.505-0.953,3.682-1.568l0.548,0.949
			c0.276,0.478,0.888,0.642,1.366,0.365c0.479-0.275,0.643-0.888,0.366-1.365l-0.55-0.952c1.128-0.721,2.207-1.512,3.189-2.413
			l0.758,0.758c0.391,0.391,1.023,0.391,1.414,0s0.391-1.023,0-1.414l-0.758-0.758c0.901-0.982,1.691-2.062,2.413-3.189l0.951,0.55
			c0.479,0.276,1.09,0.112,1.366-0.366s0.112-1.09-0.366-1.366l-0.949-0.548c0.615-1.177,1.161-2.396,1.568-3.682l1.021,0.273
			c0.533,0.143,1.081-0.174,1.225-0.707c0.143-0.533-0.174-1.082-0.707-1.225l-1.019-0.273c0.212-0.953,0.344-1.935,0.434-2.93
			c10.358,0.439,18.66,8.741,19.101,19.1c-0.995,0.089-1.977,0.222-2.931,0.434l-0.272-1.018c-0.143-0.533-0.69-0.85-1.225-0.707
			c-0.533,0.144-0.85,0.691-0.707,1.225l0.273,1.02c-1.285,0.407-2.505,0.953-3.682,1.568l-0.548-0.948
			c-0.276-0.479-0.888-0.643-1.366-0.366s-0.643,0.888-0.366,1.366l0.55,0.951c-1.128,0.721-2.207,1.512-3.189,2.413l-0.758-0.758
			c-0.391-0.391-1.023-0.391-1.414,0s-0.391,1.023,0,1.414l0.758,0.758c-0.901,0.982-1.691,2.062-2.413,3.189l-0.951-0.55
			c-0.479-0.276-1.091-0.112-1.366,0.366c-0.276,0.479-0.112,1.09,0.366,1.366l0.949,0.548c-0.615,1.177-1.161,2.396-1.568,3.682
			L21.076,36.822z M23.149,41.942c0.081-0.812,0.193-1.614,0.363-2.396l0.91,0.243c0.533,0.144,1.082-0.173,1.225-0.707
			c0.143-0.533-0.174-1.081-0.707-1.225l-0.915-0.245c0.359-1.116,0.834-2.176,1.366-3.201l0.788,0.455
			c0.479,0.276,1.09,0.112,1.366-0.366c0.275-0.479,0.112-1.09-0.366-1.366l-0.785-0.453c0.632-0.978,1.318-1.916,2.098-2.774
			l0.658,0.659c0.391,0.39,1.024,0.39,1.415,0c0.39-0.391,0.39-1.024,0-1.415l-0.659-0.658c0.858-0.779,1.797-1.467,2.774-2.098
			l0.453,0.785c0.276,0.479,0.888,0.642,1.366,0.366c0.479-0.276,0.643-0.888,0.366-1.366l-0.455-0.789
			c1.025-0.531,2.085-1.007,3.201-1.366l0.245,0.916c0.144,0.533,0.691,0.851,1.225,0.707c0.534-0.143,0.851-0.691,0.708-1.225
			l-0.244-0.911c0.781-0.17,1.584-0.282,2.396-0.364C41.366,33.273,33.275,41.365,23.149,41.942z"/>
	</g>
</g>
<g>
</g>
<g>
</g>
<g>
</g>
<g>
</g>
<g>
</g>
<g>
</g>
<g>
</g>
<g>
</g>
<g>
</g>
<g>
</g>
<g>
</g>
<g>
</g>
<g>
</g>
<g>
</g>
<g>
</g>
</svg>
