<?xml version="1.0" encoding="UTF-8" standalone="no"?>
<svg width="58px" height="46px" viewBox="0 0 58 46" version="1.1" xmlns="http://www.w3.org/2000/svg" xmlns:xlink="http://www.w3.org/1999/xlink" xmlns:sketch="http://www.bohemiancoding.com/sketch/ns">
    <!-- Generator: Sketch 3.0.4 (8053) - http://www.bohemiancoding.com/sketch -->
    <title>1144-baseball-helmet</title>
    <desc>Created with Sketch.</desc>
    <defs></defs>
    <g id="Page-1" stroke="none" stroke-width="1" fill="none" fill-rule="evenodd" sketch:type="MSPage">
        <g id="Glyphish-8-Icons" sketch:type="MSArtboardGroup" transform="translate(-308.000000, -409.000000)" fill="#000000">
            <g id="1144-baseball-helmet" sketch:type="MSLayerGroup" transform="translate(308.036996, 409.860499)">
                <g id="_x31_144-baseball-helmet_x40_2x.png" sketch:type="MSShapeGroup">
                    <path d="M24.009,32 C22.905,32 22.009,32.896 22.009,34 C22.009,35.104 22.905,36 24.009,36 C25.113,36 26.009,35.104 26.009,34 C26.009,32.896 25.114,32 24.009,32 L24.009,32 Z M54.582,26.182 C53.58,25.478 48.595,22.414 47.007,21.44 C46.991,14.112 46.396,0 23.006,0 C15.688,0 10.301,1.834 6.54,5.604 C-0.052,12.214 -0.022,23.363 0.003,33.2 L0.006,35 C0.006,35.553 0.454,36 1.006,36 C4.713,36 6.963,37.474 9.568,39.18 C13.02,41.438 16.9,44 24.969,44 C28.166,44 30.849,42.509 32.525,39.8 C34.266,36.986 34.315,33.281 33.506,30 L54.007,30 C54.951,30 55.712,29.521 55.946,28.78 C56.104,28.279 56.139,27.276 54.582,26.182 L54.582,26.182 Z M32.007,28 C31.66,28 31.339,28.18 31.156,28.474 C30.974,28.769 30.99,29.122 31.112,29.447 C32.227,32.435 32.47,36.087 30.823,38.748 C29.526,40.845 27.447,42 24.969,42 C17.497,42 14.039,39.716 10.665,37.506 C8.131,35.847 5.726,34.273 2.005,34.031 L2.004,33.194 C1.979,23.747 1.95,13.039 7.956,7.018 C11.323,3.642 16.246,2 23.006,2 C43.306,2 45.006,12.324 45.006,22 C45.006,22.349 45.187,22.672 45.485,22.854 C47.142,23.875 49.868,25.567 53.672,28 L32.007,28 L32.007,28 Z" id="Shape"></path>
                </g>
            </g>
        </g>
    </g>
</svg>