<?xml version="1.0" encoding="UTF-8" standalone="no"?>
<svg width="58px" height="58px" viewBox="0 0 58 58" version="1.1" xmlns="http://www.w3.org/2000/svg" xmlns:xlink="http://www.w3.org/1999/xlink" xmlns:sketch="http://www.bohemiancoding.com/sketch/ns">
    <!-- Generator: Sketch 3.0.4 (8053) - http://www.bohemiancoding.com/sketch -->
    <title>1254-basecamp</title>
    <desc>Created with Sketch.</desc>
    <defs></defs>
    <g id="Page-1" stroke="none" stroke-width="1" fill="none" fill-rule="evenodd" sketch:type="MSPage">
        <g id="Glyphish-8-Icons" sketch:type="MSArtboardGroup" transform="translate(-308.000000, -1459.000000)" fill="#000000">
            <g id="1254-basecamp" sketch:type="MSLayerGroup" transform="translate(308.036996, 1459.860499)">
                <g id="_x31_254-basecamp_x40_2x.png" sketch:type="MSShapeGroup">
                    <path d="M28,0 C12.536,0 0,12.536 0,28 C0,43.464 12.536,56 28,56 C43.464,56 56,43.464 56,28 C56,12.536 43.464,0 28,0 L28,0 Z M28,54 C13.641,54 2,42.359 2,28 C2,13.641 13.641,2 28,2 C42.359,2 54,13.641 54,28 C54,42.359 42.359,54 28,54 L28,54 Z M46.773,34.425 C45.791,29.958 41.192,13 28,13 C14.808,13 10.209,29.958 9.227,34.425 C9.099,34.778 9.01,35.134 9.01,35.5 C9.01,39.643 17.512,43 28.001,43 C38.49,43 46.992,39.643 46.992,35.5 C46.991,35.134 46.902,34.777 46.773,34.425 L46.773,34.425 Z M28,40.286 C19.004,40.286 11.711,38.143 11.711,35.5 C11.711,30.5 19.138,24.25 19.138,24.25 C20.404,24.25 22.936,28 24.202,28 C25.468,28 30.533,20.5 33.064,20.5 C41.764,25.869 43.795,33.066 44.196,34.994 C44.213,35.042 44.215,35.092 44.227,35.14 C44.271,35.366 44.288,35.494 44.289,35.498 L44.289,35.5 C44.289,38.144 36.996,40.286 28,40.286 L28,40.286 Z" id="Shape"></path>
                </g>
            </g>
        </g>
    </g>
</svg>