<?xml version="1.0" encoding="iso-8859-1"?>
<!-- Generator: Adobe Illustrator 16.0.4, SVG Export Plug-In . SVG Version: 6.00 Build 0)  -->
<!DOCTYPE svg PUBLIC "-//W3C//DTD SVG 1.1//EN" "http://www.w3.org/Graphics/SVG/1.1/DTD/svg11.dtd">
<svg version="1.1" id="Layer_1" xmlns="http://www.w3.org/2000/svg" xmlns:xlink="http://www.w3.org/1999/xlink" x="0px" y="0px"
	 width="44px" height="30px" viewBox="0 0 44 30" style="enable-background:new 0 0 44 30;" xml:space="preserve">
<g id="_x31_141-basketball-court_x40_2x.png">
	<g>
		<path d="M42,0H2C0.896,0,0,0.896,0,2v26c0,1.104,0.896,2,2,2h40c1.104,0,2-0.896,2-2V2C44,0.896,43.104,0,42,0z M2,5.204
			C4.845,5.782,7.25,7.566,8.66,10H2V5.204z M2,12h7.532C9.831,12.948,10,13.953,10,15s-0.169,2.052-0.468,3H2V12z M2,20h6.66
			C7.25,22.434,4.845,24.218,2,24.796V20z M21,28H2v-1.182C7.674,25.865,12,20.944,12,15S7.674,4.135,2,3.182V2h19v7.101
			c-2.835,0.479-5,2.929-5,5.899c0,2.972,2.165,5.421,5,5.899V28z M18,15c0-2.209,1.791-4,4-4s4,1.791,4,4s-1.791,4-4,4
			S18,17.209,18,15z M42,24.848c-2.843-0.581-5.247-2.373-6.657-4.816H42V24.848z M42,18.031h-7.527C34.171,17.074,34,16.058,34,15
			s0.171-2.074,0.473-3.031H42V18.031z M42,9.969h-6.657c1.41-2.443,3.814-4.235,6.657-4.815V9.969z M42,3.119
			C36.327,4.078,32,9.024,32,15s4.327,10.923,10,11.881V28H23v-7.101c2.835-0.479,5-2.928,5-5.899c0-2.971-2.165-5.421-5-5.899V2h19
			V3.119z"/>
	</g>
</g>
<g>
</g>
<g>
</g>
<g>
</g>
<g>
</g>
<g>
</g>
<g>
</g>
<g>
</g>
<g>
</g>
<g>
</g>
<g>
</g>
<g>
</g>
<g>
</g>
<g>
</g>
<g>
</g>
<g>
</g>
</svg>
