<?xml version="1.0" encoding="UTF-8" standalone="no"?>
<svg width="58px" height="58px" viewBox="0 0 58 58" version="1.1" xmlns="http://www.w3.org/2000/svg" xmlns:xlink="http://www.w3.org/1999/xlink" xmlns:sketch="http://www.bohemiancoding.com/sketch/ns">
    <!-- Generator: Sketch 3.0.4 (8053) - http://www.bohemiancoding.com/sketch -->
    <title>1142-basketball-net</title>
    <desc>Created with Sketch.</desc>
    <defs></defs>
    <g id="Page-1" stroke="none" stroke-width="1" fill="none" fill-rule="evenodd" sketch:type="MSPage">
        <g id="Glyphish-8-Icons" sketch:type="MSArtboardGroup" transform="translate(-116.000000, -403.000000)" fill="#000000">
            <g id="1142-basketball-net" sketch:type="MSLayerGroup" transform="translate(116.036996, 403.860499)">
                <g id="_x31_142-basketball-net_x40_2x.png" sketch:type="MSShapeGroup">
                    <path d="M28.01,0 C12.546,0 0.01,7.611 0.01,17 L0.01,36.855 C-0.048,37.27 0.147,37.692 0.541,37.889 C0.882,38.06 7.667,41.366 19.456,42.565 C19.854,44.126 20.029,45.128 20.033,45.152 C20.035,45.167 20.044,45.178 20.047,45.192 L20.029,45.196 L22.029,55.196 L22.049,55.192 C22.141,55.649 22.526,56 23.01,56 L33.01,56 C33.494,56 33.879,55.649 33.971,55.192 L33.99,55.196 L35.99,45.196 L35.972,45.192 C35.975,45.178 35.984,45.167 35.987,45.152 C35.991,45.129 36.166,44.126 36.564,42.565 C48.35,41.365 55.134,38.06 55.476,37.889 C55.868,37.693 56.064,37.275 56.01,36.863 L56.01,17 C56.01,7.611 43.474,0 28.01,0 L28.01,0 Z M19.667,36.571 L21.596,38.5 L20.66,39.437 C20.38,38.543 20.051,37.58 19.667,36.571 L19.667,36.571 Z M31.596,38.5 L28.01,42.086 L24.424,38.5 L28.01,34.914 L31.596,38.5 L31.596,38.5 Z M29.924,34 L36.096,34 L33.01,37.086 L29.924,34 L29.924,34 Z M23.01,37.086 L19.924,34 L26.096,34 L23.01,37.086 L23.01,37.086 Z M22.306,46.382 L22.012,44.91 C22.01,44.881 22.02,44.853 22.015,44.823 C21.996,44.713 21.786,43.485 21.295,41.63 L23.01,39.914 L26.596,43.5 L23.01,47.086 L22.306,46.382 L22.306,46.382 Z M26.096,54 L23.83,54 L23.014,49.918 L26.597,53.5 L26.096,54 L26.096,54 Z M24.424,48.5 L28.01,44.914 L31.596,48.5 L28.01,52.086 L24.424,48.5 L24.424,48.5 Z M32.19,54 L29.924,54 L29.424,53.5 L33.007,49.918 L32.19,54 L32.19,54 Z M34.008,44.91 L33.714,46.382 L33.01,47.086 L29.424,43.5 L33.01,39.914 L34.725,41.63 C34.234,43.485 34.023,44.713 34.005,44.823 C34,44.854 34.01,44.881 34.008,44.91 L34.008,44.91 Z M35.36,39.437 L34.424,38.5 L36.353,36.571 C35.968,37.58 35.639,38.543 35.36,39.437 L35.36,39.437 Z M17.031,32 C16.986,31.999 16.943,31.995 16.897,32 L16.01,32 L16.01,16 L40.01,16 L40.01,32 L39.123,32 C39.078,31.995 39.034,31.999 38.989,32 L17.031,32 L17.031,32 Z M54.01,36.356 C52.239,37.129 46.3,39.444 37.145,40.481 C37.718,38.585 38.534,36.301 39.641,34 L40.01,34 L43.01,34 C43.562,34 44.01,33.553 44.01,33 C44.01,32.448 43.562,32 43.01,32 L42.01,32 L42.01,16 C42.01,14.896 41.114,14 40.01,14 L16.01,14 C14.906,14 14.01,14.896 14.01,16 L14.01,32 L13.01,32 C12.458,32 12.01,32.448 12.01,33 C12.01,33.553 12.458,34 13.01,34 L16.01,34 L16.379,34 C17.486,36.301 18.302,38.583 18.875,40.479 C9.738,39.441 3.788,37.13 2.01,36.356 L2.01,17 C2.01,8.716 13.651,2 28.01,2 C42.369,2 54.01,8.716 54.01,17 L54.01,36.356 L54.01,36.356 Z" id="Shape"></path>
                </g>
            </g>
        </g>
    </g>
</svg>