<?xml version="1.0" encoding="iso-8859-1"?>
<!-- Generator: Adobe Illustrator 16.0.4, SVG Export Plug-In . SVG Version: 6.00 Build 0)  -->
<!DOCTYPE svg PUBLIC "-//W3C//DTD SVG 1.1//EN" "http://www.w3.org/Graphics/SVG/1.1/DTD/svg11.dtd">
<svg version="1.1" id="Layer_1" xmlns="http://www.w3.org/2000/svg" xmlns:xlink="http://www.w3.org/1999/xlink" x="0px" y="0px"
	 width="43.993px" height="44px" viewBox="0 0 43.993 44" style="enable-background:new 0 0 43.993 44;" xml:space="preserve">
<g id="_x31_142-basketball-net_x40_2x.png">
	<g>
		<path d="M21.997,0C9.853,0,0.008,6.017,0.008,13.439v15.697c-0.045,0.328,0.107,0.661,0.417,0.817
			c0.267,0.135,5.56,2.729,14.756,3.687c0.976,3.121,1.808,6.582,1.808,9.351c0,0.552,0.447,1,0.998,1
			c0.007,0,0.012-0.004,0.019-0.004V44h7.981v-0.013c0.007,0,0.012,0.004,0.019,0.004c0.551,0,0.998-0.448,0.998-1
			c0-2.77,0.832-6.229,1.808-9.351c9.196-0.957,14.488-3.552,14.755-3.687c0.308-0.155,0.462-0.485,0.419-0.812V13.439
			C43.986,6.017,34.141,0,21.997,0z M17.996,28.586L15.41,26h5.172L17.996,28.586z M21.996,27.414L24.582,30l-2.586,2.586L19.41,30
			L21.996,27.414z M16.205,30.377c-0.145-0.41-0.288-0.803-0.428-1.182L16.582,30L16.205,30.377z M16.918,32.492l1.078-1.078
			l2.372,2.372h-3.047C17.189,33.348,17.055,32.916,16.918,32.492z M17.333,33.824c1.031,0.073,2.111,0.119,3.22,0.146L20.582,34
			l-2.528,2.528C17.834,35.618,17.597,34.711,17.333,33.824z M18.945,41.988c-0.033-0.585-0.1-1.193-0.183-1.809l1.809,1.809H18.945
			z M19.41,38l2.586-2.586L24.582,38l-2.586,2.586L19.41,38z M25.047,41.988h-1.625l1.809-1.809
			C25.147,40.795,25.081,41.403,25.047,41.988z M25.938,36.528L23.41,34l0.029-0.029c1.109-0.027,2.189-0.073,3.22-0.146
			C26.396,34.711,26.158,35.618,25.938,36.528z M26.672,33.786h-3.047l2.372-2.372l1.078,1.078
			C26.938,32.916,26.803,33.348,26.672,33.786z M27.787,30.377L27.41,30l0.806-0.805C28.075,29.574,27.932,29.967,27.787,30.377z
			 M25.996,28.586L23.41,26h5.172L25.996,28.586z M13.996,24V14h16v10H13.996z M41.987,28.48c-1.587,0.685-5.91,2.288-12.488,3.068
			c0.872-2.514,1.731-4.583,2.146-5.549h1.351c0.552,0,1-0.447,1-1s-0.448-1-1-1h-1V14c0-1.104-0.896-2-2-2h-16
			c-1.104,0-2,0.896-2,2v10h-1c-0.552,0-1,0.447-1,1s0.448,1,1,1h1.351c0.416,0.966,1.275,3.035,2.146,5.549
			C7.917,30.77,3.595,29.167,2.007,28.481V13.439c0-6.201,9.154-11.44,19.99-11.44c10.835,0,19.99,5.239,19.99,11.44V28.48z"/>
	</g>
</g>
<g>
</g>
<g>
</g>
<g>
</g>
<g>
</g>
<g>
</g>
<g>
</g>
<g>
</g>
<g>
</g>
<g>
</g>
<g>
</g>
<g>
</g>
<g>
</g>
<g>
</g>
<g>
</g>
<g>
</g>
</svg>
