<?xml version="1.0" encoding="iso-8859-1"?>
<!-- Generator: Adobe Illustrator 16.0.4, SVG Export Plug-In . SVG Version: 6.00 Build 0)  -->
<!DOCTYPE svg PUBLIC "-//W3C//DTD SVG 1.1//EN" "http://www.w3.org/Graphics/SVG/1.1/DTD/svg11.dtd">
<svg version="1.1" id="Layer_1" xmlns="http://www.w3.org/2000/svg" xmlns:xlink="http://www.w3.org/1999/xlink" x="0px" y="0px"
	 width="56px" height="56px" viewBox="0 0 56 56" style="enable-background:new 0 0 56 56;" xml:space="preserve">
<g id="_x31_086-basketball_x40_2x.png">
	<g>
		<path d="M28,0C12.536,0,0,12.536,0,28s12.536,28,28,28s28-12.536,28-28S43.464,0,28,0z M53.947,26.947
			c-6.401-0.258-12.183-2.842-16.572-6.907l9.665-9.665C51.105,14.765,53.689,20.547,53.947,26.947z M45.625,8.961l-9.665,9.664
			c-4.065-4.39-6.649-10.171-6.907-16.572C35.454,2.311,41.235,4.896,45.625,8.961z M27.053,2.048
			c0.258,6.955,3.067,13.236,7.494,17.991L28,26.586L10.366,8.952C14.787,4.868,20.613,2.28,27.053,2.048z M2,28
			c0-6.822,2.645-13.011,6.944-17.641L26.586,28l-6.547,6.547c-4.755-4.427-11.036-7.236-17.991-7.494C2.036,27.37,2,27.681,2,28
			c0,0.355,0.039,0.701,0.053,1.054c6.401,0.257,12.183,2.841,16.572,6.906l-9.684,9.684C4.646,41.007,2,34.819,2,28z M28,54
			c-6.819,0-13.007-2.646-17.644-6.941l9.684-9.684c4.065,4.39,6.649,10.172,6.907,16.572C27.299,53.961,27.645,54,28,54
			c0.319,0,0.63-0.036,0.947-0.048c-0.258-6.954-3.067-13.236-7.494-17.991L28,29.414l17.644,17.645C41.007,51.354,34.819,54,28,54z
			 M47.059,45.644L29.414,28l6.547-6.547c4.755,4.427,11.037,7.236,17.991,7.494C53.964,28.63,54,28.32,54,28
			C54,34.819,51.354,41.007,47.059,45.644z"/>
	</g>
</g>
<g>
</g>
<g>
</g>
<g>
</g>
<g>
</g>
<g>
</g>
<g>
</g>
<g>
</g>
<g>
</g>
<g>
</g>
<g>
</g>
<g>
</g>
<g>
</g>
<g>
</g>
<g>
</g>
<g>
</g>
</svg>
