<?xml version="1.0" encoding="iso-8859-1"?>
<!-- Generator: Adobe Illustrator 16.0.4, SVG Export Plug-In . SVG Version: 6.00 Build 0)  -->
<!DOCTYPE svg PUBLIC "-//W3C//DTD SVG 1.1//EN" "http://www.w3.org/Graphics/SVG/1.1/DTD/svg11.dtd">
<svg version="1.1" id="Layer_1" xmlns="http://www.w3.org/2000/svg" xmlns:xlink="http://www.w3.org/1999/xlink" x="0px" y="0px"
	 width="44px" height="44px" viewBox="0 0 44 44" style="enable-background:new 0 0 44 44;" xml:space="preserve">
<g id="_x31_086-basketball-toolbar_x40_2x.png">
	<g>
		<path d="M22,0C9.85,0,0,9.85,0,22s9.85,22,22,22s22-9.85,22-22S34.15,0,22,0z M41.937,20.849
			c-4.618-0.453-8.785-2.391-12.03-5.341l6.903-6.902C39.777,11.885,41.666,16.146,41.937,20.849z M35.396,7.19l-6.903,6.903
			c-2.95-3.245-4.888-7.412-5.341-12.03C27.854,2.334,32.115,4.223,35.396,7.19z M21.146,2.05c0.46,5.175,2.622,9.844,5.935,13.456
			L22,20.586L8.605,7.19C11.953,4.16,16.325,2.255,21.146,2.05z M7.19,8.605L20.586,22l-5.08,5.08
			c-3.612-3.312-8.282-5.475-13.456-5.934C2.255,16.325,4.16,11.953,7.19,8.605z M2.063,23.151c4.618,0.453,8.785,2.391,12.03,5.341
			L7.19,35.396C4.223,32.115,2.334,27.854,2.063,23.151z M8.605,36.81l6.902-6.903c2.95,3.245,4.888,7.413,5.341,12.03
			C16.146,41.666,11.885,39.777,8.605,36.81z M22.854,41.951c-0.46-5.175-2.622-9.845-5.935-13.457l5.08-5.08L35.396,36.81
			C32.047,39.84,27.675,41.745,22.854,41.951z M36.81,35.396L23.414,22l5.08-5.08c3.612,3.312,8.282,5.475,13.457,5.935
			C41.745,27.675,39.84,32.047,36.81,35.396z"/>
	</g>
</g>
<g>
</g>
<g>
</g>
<g>
</g>
<g>
</g>
<g>
</g>
<g>
</g>
<g>
</g>
<g>
</g>
<g>
</g>
<g>
</g>
<g>
</g>
<g>
</g>
<g>
</g>
<g>
</g>
<g>
</g>
</svg>
