<?xml version="1.0" encoding="iso-8859-1"?>
<!-- Generator: Adobe Illustrator 16.0.4, SVG Export Plug-In . SVG Version: 6.00 Build 0)  -->
<!DOCTYPE svg PUBLIC "-//W3C//DTD SVG 1.1//EN" "http://www.w3.org/Graphics/SVG/1.1/DTD/svg11.dtd">
<svg version="1.1" id="Layer_1" xmlns="http://www.w3.org/2000/svg" xmlns:xlink="http://www.w3.org/1999/xlink" x="0px" y="0px"
	 width="40px" height="56px" viewBox="0 0 40 56" style="enable-background:new 0 0 40 56;" xml:space="preserve">
<g id="_x31_069-basketball-shirt_x40_2x.png">
	<g>
		<path d="M20,9.007c5.473,0,7.738-3.305,7.832-3.445c0.307-0.46,0.182-1.08-0.277-1.387c-0.46-0.307-1.08-0.182-1.387,0.277
			C26.15,4.478,24.414,7.007,20,7.007c-4.346,0-6.094-2.448-6.172-2.561c-0.308-0.454-0.924-0.574-1.383-0.271
			c-0.459,0.307-0.584,0.927-0.277,1.387C12.262,5.702,14.527,9.007,20,9.007z M40,26.734c0-1.632-1.497-3.132-4-4.344V1
			c0-0.553-0.447-1-1-1h-4c-0.553,0-1,0.447-1,1h-0.024C29.983,1.167,30,1.331,30,1.5C30,7.299,25.522,12,20,12S10,7.299,10,1.5
			c0-0.169,0.017-0.333,0.024-0.5H10c0-0.553-0.447-1-1-1H5C4.447,0,4,0.447,4,1v21.39c-2.504,1.212-4,2.713-4,4.345
			c0,0.09,0.028,0.177,0.037,0.266H0v22c0,3.866,8.954,7,20,7s20-3.134,20-7V27h-0.037C39.972,26.911,40,26.824,40,26.734z M38,27
			v22c0,2.762-8.059,5-18,5S2,51.762,2,49V27h0.017C2.015,26.969,2,26.938,2,26.906c0-1.1,1.243-2.114,3.336-2.947l-0.002-0.026
			C5.721,23.794,6,23.434,6,23V2h2.024C8.278,8.67,13.534,14,20,14c6.465,0,11.722-5.33,11.976-12H34v21
			c0,0.406,0.244,0.751,0.591,0.908l-0.002,0.022C36.727,24.769,38,25.794,38,26.906c0,0.031-0.015,0.062-0.017,0.094H38z
			 M25.882,32.047c-0.688-0.728-1.522-1.297-2.503-1.706s-2.08-0.614-3.298-0.614c-0.947,0-1.872,0.193-2.773,0.58
			c-0.902,0.387-1.646,0.934-2.232,1.639l-0.067-0.068l1.521-7.919H26.88v-1.979H15.041l-2.3,12.39h1.826
			c0.586-0.909,1.342-1.609,2.267-2.099c0.924-0.489,1.928-0.734,3.01-0.734c0.88,0,1.691,0.16,2.436,0.479s1.381,0.757,1.911,1.313
			c0.53,0.558,0.947,1.212,1.252,1.963c0.304,0.751,0.456,1.57,0.456,2.457c0,0.865-0.135,1.69-0.405,2.475
			c-0.271,0.785-0.666,1.479-1.185,2.082c-0.519,0.604-1.139,1.081-1.86,1.434c-0.722,0.354-1.544,0.529-2.469,0.529
			c-0.812,0-1.567-0.131-2.267-0.393c-0.699-0.261-1.308-0.637-1.826-1.126s-0.93-1.075-1.234-1.758s-0.469-1.434-0.49-2.253h-2.131
			c0.021,1.138,0.236,2.162,0.643,3.072c0.405,0.91,0.952,1.678,1.64,2.304c0.688,0.626,1.5,1.104,2.436,1.434
			c0.936,0.329,1.956,0.494,3.062,0.494c1.127,0,2.192-0.199,3.196-0.597c1.003-0.397,1.877-0.956,2.621-1.673s1.33-1.57,1.759-2.56
			c0.429-0.99,0.643-2.065,0.643-3.226c0-1.206-0.186-2.315-0.558-3.328C27.1,33.646,26.569,32.776,25.882,32.047z"/>
	</g>
</g>
<g>
</g>
<g>
</g>
<g>
</g>
<g>
</g>
<g>
</g>
<g>
</g>
<g>
</g>
<g>
</g>
<g>
</g>
<g>
</g>
<g>
</g>
<g>
</g>
<g>
</g>
<g>
</g>
<g>
</g>
</svg>
