<?xml version="1.0" encoding="UTF-8" standalone="no"?>
<svg width="58px" height="54px" viewBox="0 0 58 54" version="1.1" xmlns="http://www.w3.org/2000/svg" xmlns:xlink="http://www.w3.org/1999/xlink" xmlns:sketch="http://www.bohemiancoding.com/sketch/ns">
    <!-- Generator: Sketch 3.0.4 (8053) - http://www.bohemiancoding.com/sketch -->
    <title>1225-basket-delete</title>
    <desc>Created with Sketch.</desc>
    <defs></defs>
    <g id="Page-1" stroke="none" stroke-width="1" fill="none" fill-rule="evenodd" sketch:type="MSPage">
        <g id="Glyphish-8-Icons" sketch:type="MSArtboardGroup" transform="translate(-404.000000, -1173.000000)" fill="#000000">
            <g id="1225-basket-delete" sketch:type="MSLayerGroup" transform="translate(404.036996, 1173.860499)">
                <g id="_x31_225-basket-delete_x40_2x.png" sketch:type="MSShapeGroup">
                    <path d="M12.214,16.41 C12.088,16.577 12,16.775 12,17 C12,17.553 12.448,18 13,18 C13.327,18 13.604,17.833 13.786,17.59 L13.8,17.6 L25.8,1.6 L25.786,1.59 C25.912,1.423 26,1.226 26,1 C26,0.447 25.552,0 25,0 C24.673,0 24.396,0.168 24.214,0.41 L24.2,0.4 L12.2,16.4 L12.214,16.41 L12.214,16.41 Z M12.016,42 C10.58,42 9.517,41.457 9,38.809 C8.573,36.614 7.646,26.277 7.229,22 L48.772,22 C48.62,23.559 48.4,25.923 48.162,28.403 C48.84,28.573 49.501,28.784 50.132,29.055 C50.414,26.184 50.671,23.406 50.825,21.723 C51.358,21.355 51.749,20.673 52,20 L54,14 L55,14 C55.552,14 56,13.553 56,13 C56,12.447 55.552,12 55,12 L52,12 L43,12 L44.5,14 L51.892,14 L50.116,19.33 C49.984,19.676 49.853,19.889 49.768,20 L6.231,20 C6.155,19.896 6.03,19.691 5.879,19.315 L4.108,14 L11.5,14 L13,12 L4,12 L1,12 C0.448,12 0,12.447 0,13 C0,13.553 0.448,14 1,14 L2,14 L4,20 C4.263,20.672 4.639,21.362 5.177,21.729 C5.56,25.905 6.568,36.771 7.04,39.191 C7.67,42.427 9.298,44 12.016,44 L32.362,44 C32.208,43.351 32.103,42.684 32.051,42 L12.016,42 L12.016,42 Z M27,27 L27,37 C27,37.553 27.448,38 28,38 C28.552,38 29,37.553 29,37 L29,27 C29,26.447 28.552,26 28,26 C27.448,26 27,26.447 27,27 L27,27 Z M39,27 L39,29.475 C39.638,29.142 40.305,28.859 41,28.634 L41,27 C41,26.447 40.552,26 40,26 C39.448,26 39,26.447 39,27 L39,27 Z M30.2,1.6 L42.2,17.6 L42.214,17.59 C42.396,17.833 42.673,18 43,18 C43.552,18 44,17.553 44,17 C44,16.775 43.912,16.577 43.786,16.41 L43.8,16.4 L31.8,0.4 L31,1 L31.786,0.41 C31.604,0.168 31.327,0 31,0 C30.448,0 30,0.447 30,1 C30,1.226 30.088,1.423 30.214,1.59 L30.2,1.6 L30.2,1.6 Z M19,14 L37,14 L35.5,12 L20.5,12 L19,14 L19,14 Z M21,27 L21,37 C21,37.553 21.448,38 22,38 C22.552,38 23,37.553 23,37 L23,27 C23,26.447 22.552,26 22,26 C21.448,26 21,26.447 21,27 L21,27 Z M44,46 L46,46 L46,44 L44,44 L44,46 L44,46 Z M44,42 L46,42 L46,36 L44,36 L44,42 L44,42 Z M45,30 C38.925,30 34,34.925 34,41 C34,47.075 38.925,52 45,52 C51.075,52 56,47.075 56,41 C56,34.925 51.075,30 45,30 L45,30 Z M45,50 C40.029,50 36,45.971 36,41 C36,36.029 40.029,32 45,32 C49.971,32 54,36.029 54,41 C54,45.971 49.971,50 45,50 L45,50 Z M35,27 C35,26.447 34.552,26 34,26 C33.448,26 33,26.447 33,27 L33,35.999 C33.502,34.796 34.179,33.685 35,32.696 L35,27 L35,27 Z M15,27 L15,37 C15,37.553 15.448,38 16,38 C16.552,38 17,37.553 17,37 L17,27 C17,26.447 16.552,26 16,26 C15.448,26 15,26.447 15,27 L15,27 Z" id="Shape"></path>
                </g>
            </g>
        </g>
    </g>
</svg>