<?xml version="1.0" encoding="iso-8859-1"?>
<!-- Generator: Adobe Illustrator 16.0.4, SVG Export Plug-In . SVG Version: 6.00 Build 0)  -->
<!DOCTYPE svg PUBLIC "-//W3C//DTD SVG 1.1//EN" "http://www.w3.org/Graphics/SVG/1.1/DTD/svg11.dtd">
<svg version="1.1" id="Layer_1" xmlns="http://www.w3.org/2000/svg" xmlns:xlink="http://www.w3.org/1999/xlink" x="0px" y="0px"
	 width="44px" height="44px" viewBox="0 0 44 44" style="enable-background:new 0 0 44 44;" xml:space="preserve">
<g id="_x31_225-basket-delete_x40_2x.png">
	<g>
		<path d="M12.016,32C10.58,32,9.517,31.457,9,28.809C8.576,26.63,7.66,19.748,7.238,16h29.525c-0.138,1.229-0.33,2.794-0.54,4.42
			c0.653,0.166,1.291,0.371,1.9,0.632c0.26-2.032,0.498-3.981,0.656-5.298C39.337,15.396,39.741,14.691,40,14l2-4h1h0
			c0.552,0,1-0.447,1-1s-0.448-1-1-1h-3h-6.543l1.604,2h4.831l-1.776,3.33c-0.132,0.346-0.263,0.559-0.348,0.67H6.231
			c-0.076-0.104-0.201-0.309-0.352-0.685L4.108,10h4.831l1.604-2H4H1C0.448,8,0,8.447,0,9s0.448,1,1,1h0h1l2,4
			c0.271,0.69,0.659,1.402,1.223,1.761c0.411,3.421,1.362,11.098,1.817,13.431C7.67,32.427,9.298,34,12.016,34h8.035
			C20.025,33.669,20,33.338,20,33s0.025-0.669,0.051-1H12.016z M12,12c0.316,0,0.586-0.156,0.769-0.385l0.012,0.01l8-10l-0.012-0.01
			C20.906,1.444,21,1.236,21,1c0-0.553-0.448-1-1-1c-0.316,0-0.586,0.156-0.769,0.385l-0.012-0.01l-8,10l0.012,0.01
			C11.094,10.556,11,10.764,11,11C11,11.553,11.448,12,12,12z M24,21v2.633c0.612-0.588,1.282-1.115,2-1.575V21c0-0.553-0.448-1-1-1
			S24,20.447,24,21z M23.219,1.625l8,10l0.012-0.01C31.414,11.844,31.684,12,32,12c0.552,0,1-0.447,1-1
			c0-0.236-0.094-0.444-0.231-0.615l0.012-0.01l-8-10l-0.012,0.01C24.586,0.156,24.316,0,24,0c-0.552,0-1,0.447-1,1
			c0,0.236,0.094,0.444,0.231,0.615L23.219,1.625z M16.623,10h10.755l-1.604-2h-7.547L16.623,10z M22,21c0-0.553-0.448-1-1-1
			s-1,0.447-1,1v6c0,0.553,0.448,1,1,1c0.279-0.667,0.62-1.3,1-1.906V21z M32,38h2v-2h-2V38z M32,34h2v-6h-2V34z M16,21v6
			c0,0.553,0.448,1,1,1s1-0.447,1-1v-6c0-0.553-0.448-1-1-1S16,20.447,16,21z M33,22c-6.075,0-11,4.925-11,11s4.925,11,11,11
			s11-4.925,11-11S39.075,22,33,22z M33,42c-4.971,0-9-4.029-9-9s4.029-9,9-9s9,4.029,9,9S37.971,42,33,42z M12,21v6
			c0,0.553,0.448,1,1,1s1-0.447,1-1v-6c0-0.553-0.448-1-1-1S12,20.447,12,21z"/>
	</g>
</g>
<g>
</g>
<g>
</g>
<g>
</g>
<g>
</g>
<g>
</g>
<g>
</g>
<g>
</g>
<g>
</g>
<g>
</g>
<g>
</g>
<g>
</g>
<g>
</g>
<g>
</g>
<g>
</g>
<g>
</g>
</svg>
