<?xml version="1.0" encoding="iso-8859-1"?>
<!-- Generator: Adobe Illustrator 16.0.4, SVG Export Plug-In . SVG Version: 6.00 Build 0)  -->
<!DOCTYPE svg PUBLIC "-//W3C//DTD SVG 1.1//EN" "http://www.w3.org/Graphics/SVG/1.1/DTD/svg11.dtd">
<svg version="1.1" id="Layer_1" xmlns="http://www.w3.org/2000/svg" xmlns:xlink="http://www.w3.org/1999/xlink" x="0px" y="0px"
	 width="32px" height="43.991px" viewBox="0 0 32 43.991" style="enable-background:new 0 0 32 43.991;" xml:space="preserve">
<g id="_x31_069-basketball-shirt-toolbar_x40_2x.png">
	<g>
		<path d="M16.002,4.991c2.347,0,3.574-1.16,3.707-1.293c0.385-0.386,0.385-1.004,0.006-1.396c-0.383-0.393-1.01-0.403-1.408-0.029
			c-0.031,0.029-0.786,0.718-2.305,0.718c-1.498,0-2.252-0.669-2.303-0.717c-0.392-0.381-1.018-0.377-1.404,0.01
			c-0.391,0.391-0.391,1.023,0,1.414C12.427,3.831,13.654,4.991,16.002,4.991z M27.984,17.03V0.995C27.983,0.445,27.544,0,27,0
			h-3.99v0.001C23.008,0.001,23.006,0,23.004,0C22.45,0,22.001,0.445,22,0.995c-0.001,3.311-2.688,5.993-6,5.993
			s-5.999-2.683-6-5.993c-0.001-0.543-0.439-0.98-0.984-0.991V0H5C4.457,0,4.017,0.445,4.016,0.995V17.03
			C1.528,18.089,0,19.472,0,20.995c0,0.001,0,0.002,0,0.003v16.986c0.001,3.317,7.164,6.007,16,6.007s15.999-2.689,16-6.007V20.998
			c0-0.001,0-0.002,0-0.003C32,19.472,30.472,18.089,27.984,17.03z M29.994,20.998v16.986h-0.003c0,0.005,0.003,0.011,0.003,0.016
			c0,2.208-6.266,3.998-13.994,3.998S2.006,40.208,2.006,38c0-0.005,0.003-0.011,0.003-0.016H2.006V20.998h0.002
			c0-0.003-0.002-0.007-0.002-0.011c0-0.986,1.26-1.887,3.336-2.584c0.37-0.14,0.635-0.491,0.641-0.912H6v-1.185
			c-0.006,0.002-0.01,0.004-0.016,0.005V1.991h2.08C8.558,5.932,11.918,8.982,16,8.982s7.442-3.051,7.936-6.991h2.08v14.32
			c-0.006-0.001-0.01-0.003-0.016-0.005v1.185h0.019c0.005,0.419,0.267,0.77,0.633,0.911c2.08,0.697,3.343,1.599,3.343,2.585
			c0,0.004-0.002,0.008-0.002,0.011H29.994z M20.108,25.985c-0.496-0.488-1.08-0.852-1.752-1.092c-0.673-0.24-1.385-0.36-2.137-0.36
			c-0.576,0-1.156,0.101-1.739,0.3c-0.585,0.2-1.061,0.508-1.429,0.924l-0.048-0.048l0.912-4.896h6.864v-1.8h-8.4l-1.584,8.831
			l1.752,0.097c0.399-0.48,0.86-0.868,1.38-1.164s1.116-0.444,1.788-0.444c0.576,0,1.1,0.097,1.572,0.288
			c0.472,0.192,0.876,0.46,1.212,0.804c0.336,0.345,0.596,0.753,0.78,1.225c0.184,0.472,0.275,0.988,0.275,1.548
			c0,0.672-0.096,1.26-0.288,1.764c-0.191,0.505-0.452,0.925-0.779,1.261c-0.328,0.336-0.712,0.588-1.152,0.756
			s-0.9,0.252-1.38,0.252c-0.513,0-0.98-0.076-1.404-0.229c-0.424-0.151-0.792-0.367-1.104-0.647
			c-0.312-0.28-0.561-0.608-0.744-0.984c-0.185-0.376-0.292-0.78-0.324-1.212h-2.04c0.016,0.768,0.168,1.456,0.456,2.064
			c0.288,0.607,0.68,1.115,1.176,1.523s1.068,0.721,1.717,0.937c0.647,0.216,1.34,0.323,2.075,0.323c0.992,0,1.86-0.155,2.604-0.468
			c0.744-0.312,1.363-0.731,1.86-1.26c0.495-0.528,0.867-1.132,1.115-1.812c0.248-0.681,0.372-1.381,0.372-2.101
			c0-0.976-0.144-1.828-0.432-2.556C20.996,27.081,20.604,26.474,20.108,25.985z"/>
	</g>
</g>
<g>
</g>
<g>
</g>
<g>
</g>
<g>
</g>
<g>
</g>
<g>
</g>
<g>
</g>
<g>
</g>
<g>
</g>
<g>
</g>
<g>
</g>
<g>
</g>
<g>
</g>
<g>
</g>
<g>
</g>
</svg>
