<?xml version="1.0" encoding="iso-8859-1"?>
<!-- Generator: Adobe Illustrator 16.0.4, SVG Export Plug-In . SVG Version: 6.00 Build 0)  -->
<!DOCTYPE svg PUBLIC "-//W3C//DTD SVG 1.1//EN" "http://www.w3.org/Graphics/SVG/1.1/DTD/svg11.dtd">
<svg version="1.1" id="Layer_1" xmlns="http://www.w3.org/2000/svg" xmlns:xlink="http://www.w3.org/1999/xlink" x="0px" y="0px"
	 width="56px" height="52px" viewBox="0 0 56 52" style="enable-background:new 0 0 56 52;" xml:space="preserve">
<g id="_x38_20-bathtub_x40_2x.png">
	<g>
		<path d="M55,26H6V13.279V8c0-3.313,2.687-6,6-6s6,2.687,6,6h-4c-0.553,0-1,0.448-1,1c0,0.553,0.447,1,1,1h10c0.553,0,1-0.447,1-1
			c0-0.552-0.447-1-1-1h-4c0-4.418-3.582-8-8-8S4,3.582,4,8v18H1c-0.553,0-1,0.448-1,1c0,0.553,0.447,1,1,1h3v8
			c0,5.481,3.679,10.094,8.698,11.529C12.289,48.659,11.317,50,9,50c-0.553,0-1,0.447-1,1s0.447,1,1,1
			c3.732,0,5.143-2.321,5.675-4.077C15.11,47.971,15.552,48,16,48h24c0.448,0,0.89-0.029,1.325-0.077C41.857,49.679,43.268,52,47,52
			c0.553,0,1-0.447,1-1s-0.447-1-1-1c-2.317,0-3.289-1.341-3.698-2.471C48.321,46.094,52,41.481,52,36v-8h3c0.553,0,1-0.447,1-1
			C56,26.448,55.553,26,55,26z M50,36c0,5.522-4.478,10-10,10H16c-5.522,0-10-4.478-10-10v-8h44V36z"/>
	</g>
</g>
<g>
</g>
<g>
</g>
<g>
</g>
<g>
</g>
<g>
</g>
<g>
</g>
<g>
</g>
<g>
</g>
<g>
</g>
<g>
</g>
<g>
</g>
<g>
</g>
<g>
</g>
<g>
</g>
<g>
</g>
</svg>
