<?xml version="1.0" encoding="iso-8859-1"?>
<!-- Generator: Adobe Illustrator 16.0.4, SVG Export Plug-In . SVG Version: 6.00 Build 0)  -->
<!DOCTYPE svg PUBLIC "-//W3C//DTD SVG 1.1//EN" "http://www.w3.org/Graphics/SVG/1.1/DTD/svg11.dtd">
<svg version="1.1" id="Layer_1" xmlns="http://www.w3.org/2000/svg" xmlns:xlink="http://www.w3.org/1999/xlink" x="0px" y="0px"
	 width="44px" height="44px" viewBox="0 0 44 44" style="enable-background:new 0 0 44 44;" xml:space="preserve">
<g id="_x38_20-bathtub-toolbar_x40_2x.png">
	<g>
		<path d="M43,24H6V11.889V7c0-2.761,2.238-5,5-5c2.419,0,4.436,1.719,4.899,4H14c-0.553,0-1,0.448-1,1c0,0.553,0.447,1,1,1h6
			c0.553,0,1-0.447,1-1c0-0.552-0.447-1-1-1h-2.101C17.41,2.612,14.523,0,11,0S4.59,2.612,4.101,6H4v18H1c-0.553,0-1,0.448-1,1
			c0,0.553,0.447,1,1,1h3v2c0,5.481,3.679,10.094,8.698,11.529C12.289,40.659,11.317,42,9,42c-0.553,0-1,0.448-1,1
			c0,0.553,0.447,1,1,1c3.732,0,5.143-2.321,5.675-4.076C15.11,39.972,15.552,40,16,40h12c0.448,0,0.89-0.028,1.325-0.076
			C29.858,41.679,31.268,44,35,44c0.553,0,1-0.447,1-1c0-0.552-0.447-1-1-1c-2.317,0-3.289-1.341-3.698-2.471
			C36.321,38.094,40,33.481,40,28v-2h3c0.553,0,1-0.447,1-1C44,24.448,43.553,24,43,24z M38,28c0,5.523-4.478,10-10,10H16
			c-5.522,0-10-4.477-10-10v-2h32V28z"/>
	</g>
</g>
<g>
</g>
<g>
</g>
<g>
</g>
<g>
</g>
<g>
</g>
<g>
</g>
<g>
</g>
<g>
</g>
<g>
</g>
<g>
</g>
<g>
</g>
<g>
</g>
<g>
</g>
<g>
</g>
<g>
</g>
</svg>
