<?xml version="1.0" encoding="iso-8859-1"?>
<!-- Generator: Adobe Illustrator 16.0.4, SVG Export Plug-In . SVG Version: 6.00 Build 0)  -->
<!DOCTYPE svg PUBLIC "-//W3C//DTD SVG 1.1//EN" "http://www.w3.org/Graphics/SVG/1.1/DTD/svg11.dtd">
<svg version="1.1" id="Layer_1" xmlns="http://www.w3.org/2000/svg" xmlns:xlink="http://www.w3.org/1999/xlink" x="0px" y="0px"
	 width="56px" height="32px" viewBox="0 0 56 32" style="enable-background:new 0 0 56 32;" xml:space="preserve">
<g id="_x39_33-battery_x40_2x.png">
	<g>
		<path d="M4,28h32V4H4V28z M54,9h-2V4c0-2.209-1.791-4-4-4H4C1.791,0,0,1.791,0,4v24c0,2.209,1.791,4,4,4h44c2.209,0,4-1.791,4-4
			v-5h2c1.104,0,2-0.896,2-2V11C56,9.896,55.104,9,54,9z M50,28c0,1.104-0.896,2-2,2H4c-1.104,0-2-0.896-2-2V4c0-1.104,0.896-2,2-2
			h44c1.104,0,2,0.896,2,2V28z M54,19c0,1.104-0.896,2-2,2V11c1.104,0,2,0.896,2,2V19z"/>
	</g>
</g>
<g>
</g>
<g>
</g>
<g>
</g>
<g>
</g>
<g>
</g>
<g>
</g>
<g>
</g>
<g>
</g>
<g>
</g>
<g>
</g>
<g>
</g>
<g>
</g>
<g>
</g>
<g>
</g>
<g>
</g>
</svg>
