<?xml version="1.0" encoding="iso-8859-1"?>
<!-- Generator: Adobe Illustrator 16.0.4, SVG Export Plug-In . SVG Version: 6.00 Build 0)  -->
<!DOCTYPE svg PUBLIC "-//W3C//DTD SVG 1.1//EN" "http://www.w3.org/Graphics/SVG/1.1/DTD/svg11.dtd">
<svg version="1.1" id="Layer_1" xmlns="http://www.w3.org/2000/svg" xmlns:xlink="http://www.w3.org/1999/xlink" x="0px" y="0px"
	 width="44px" height="22px" viewBox="0 0 44 22" style="enable-background:new 0 0 44 22;" xml:space="preserve">
<g id="_x39_33-battery-toolbar_x40_2x.png">
	<g>
		<path d="M4,18h24V4H4V18z M42,6h-2V4c0-2.209-1.791-4-4-4H4C1.791,0,0,1.791,0,4v14c0,2.209,1.791,4,4,4h32c2.209,0,4-1.791,4-4
			v-2h2c1.104,0,2-0.896,2-2V8C44,6.896,43.104,6,42,6z M38,18c0,1.104-0.896,2-2,2H4c-1.104,0-2-0.896-2-2V4c0-1.104,0.896-2,2-2
			h32c1.104,0,2,0.896,2,2V18z M42,14h-2V8h2V14z"/>
	</g>
</g>
<g>
</g>
<g>
</g>
<g>
</g>
<g>
</g>
<g>
</g>
<g>
</g>
<g>
</g>
<g>
</g>
<g>
</g>
<g>
</g>
<g>
</g>
<g>
</g>
<g>
</g>
<g>
</g>
<g>
</g>
</svg>
