<?xml version="1.0" encoding="iso-8859-1"?>
<!-- Generator: Adobe Illustrator 16.0.4, SVG Export Plug-In . SVG Version: 6.00 Build 0)  -->
<!DOCTYPE svg PUBLIC "-//W3C//DTD SVG 1.1//EN" "http://www.w3.org/Graphics/SVG/1.1/DTD/svg11.dtd">
<svg version="1.1" id="Layer_1" xmlns="http://www.w3.org/2000/svg" xmlns:xlink="http://www.w3.org/1999/xlink" x="0px" y="0px"
	 width="40px" height="44px" viewBox="0 0 40 44" style="enable-background:new 0 0 40 44;" xml:space="preserve">
<g id="_x38_83-beaker-toolbar_x40_2x.png">
	<g>
		<path d="M0,38h2c0-6.923,11.719-19.281,11.719-19.281l-0.003-0.003c0.182-0.182,0.294-0.432,0.294-0.708
			c0-0.006-0.003-0.011-0.003-0.018h0.003v-5.934c3.671-0.377,5.202,0.917,5.213,0.926l0.082,0.073
			c0.037,0.028,2.541,1.958,6.146,1.958c0.173,0,0.361-0.033,0.54-0.043v3.02h0.003c0,0.007-0.003,0.012-0.003,0.018
			c0,0.276,0.112,0.526,0.294,0.708l-0.003,0.003C26.281,18.719,38,31.077,38,38h2c0-7.019-10.196-18.446-11.987-20.399V6H31
			c0.553,0,1-0.447,1-1V1c0-0.552-0.447-1-1-1H9C8.447,0,8,0.448,8,1v4c0,0.553,0.447,1,1,1h2.987v11.601
			C10.196,19.554,0,30.981,0,38z M25.99,13.006c-3.01,0.223-5.156-1.282-5.415-1.478c-0.374-0.331-2.391-1.822-6.565-1.449V6h11.98
			V13.006z M10,4V2h20v2H10z M34,41.994c-0.005,0-0.009-0.002-0.014-0.002v0.001H6.014v-0.001c-0.005,0-0.009,0.002-0.014,0.002
			c-2.212,0-4.005-1.787-4.005-3.991H0.009C0.009,41.314,2.69,44,5.999,44c0.006,0,0.011-0.001,0.016-0.001V44h27.971v-0.001
			c0.005,0,0.009,0.001,0.014,0.001c3.31,0,5.991-2.686,5.991-5.997h-1.986C38.004,40.207,36.211,41.994,34,41.994z M20.992,17.995
			c-2.765,0-5.005,2.241-5.005,5.006c0,2.766,2.24,5.007,5.005,5.007s5.006-2.241,5.006-5.007
			C25.998,20.236,23.757,17.995,20.992,17.995z M21.009,26c-1.659,0-3.004-1.342-3.004-2.999c0-1.656,1.345-2.999,3.004-2.999
			c1.658,0,3.003,1.343,3.003,2.999C24.012,24.658,22.667,26,21.009,26z M14.988,29.014c-1.658,0-3.003,1.343-3.003,2.999
			s1.345,2.999,3.003,2.999s3.003-1.343,3.003-2.999S16.646,29.014,14.988,29.014z M15.003,33.003c-0.554,0-1.002-0.449-1.002-1.005
			c0-0.555,0.448-1.004,1.002-1.004c0.553,0,1.001,0.449,1.001,1.004C16.004,32.554,15.556,33.003,15.003,33.003z M23.003,34.011
			c-1.102,0-1.995,0.894-1.995,1.995c0,1.103,0.894,1.996,1.995,1.996s1.995-0.894,1.995-1.996
			C24.998,34.904,24.104,34.011,23.003,34.011z"/>
	</g>
</g>
<g>
</g>
<g>
</g>
<g>
</g>
<g>
</g>
<g>
</g>
<g>
</g>
<g>
</g>
<g>
</g>
<g>
</g>
<g>
</g>
<g>
</g>
<g>
</g>
<g>
</g>
<g>
</g>
<g>
</g>
</svg>
