<?xml version="1.0" encoding="iso-8859-1"?>
<!-- Generator: Adobe Illustrator 16.0.4, SVG Export Plug-In . SVG Version: 6.00 Build 0)  -->
<!DOCTYPE svg PUBLIC "-//W3C//DTD SVG 1.1//EN" "http://www.w3.org/Graphics/SVG/1.1/DTD/svg11.dtd">
<svg version="1.1" id="Layer_1" xmlns="http://www.w3.org/2000/svg" xmlns:xlink="http://www.w3.org/1999/xlink" x="0px" y="0px"
	 width="56px" height="56px" viewBox="0 0 56 56" style="enable-background:new 0 0 56 56;" xml:space="preserve">
<g id="_x38_83-beaker_x40_2x.png">
	<g>
		<path d="M23,34c-2.209,0-4,1.791-4,4s1.791,4,4,4s4-1.791,4-4S25.209,34,23,34z M23,40c-1.104,0-2-0.896-2-2s0.896-2,2-2
			s2,0.896,2,2S24.104,40,23,40z M40,22.588V6h3c0.553,0,1-0.447,1-1V1c0-0.553-0.447-1-1-1H13c-0.553,0-1,0.447-1,1v4
			c0,0.553,0.447,1,1,1h3v16.588C13.669,24.9,0,38.853,0,48c0,4.418,3.582,8,8,8h40c4.418,0,8-3.582,8-8
			C56,38.853,42.331,24.9,40,22.588z M14,4V2h28v2H14z M38,6v7.683c-4.99,3.015-9.062,0.12-9.425-0.154
			c-0.479-0.424-3.59-2.808-10.575-0.652V6H38z M48,54h-5.279H13.279H8c-3.313,0-6-2.687-6-6c0-8.758,14.881-23.489,15.68-24.274
			C17.875,23.543,18,23.288,18,23v-8.036c6.635-2.235,9.209,0.007,9.223,0.019l0.082,0.073c0.037,0.028,2.541,1.958,6.146,1.958
			c1.381,0,2.923-0.288,4.55-1.069V23c0,0.288,0.125,0.543,0.32,0.726C39.118,24.51,54,39.241,54,48C54,51.313,51.313,54,48,54z
			 M32,42c-1.657,0-3,1.344-3,3c0,1.657,1.343,3,3,3s3-1.343,3-3C35,43.344,33.657,42,32,42z M32,46c-0.553,0-1-0.447-1-1
			c0-0.552,0.447-1,1-1s1,0.448,1,1C33,45.553,32.553,46,32,46z M29,20c-3.313,0-6,2.687-6,6s2.687,6,6,6s6-2.687,6-6
			S32.313,20,29,20z M29,30c-2.209,0-4-1.791-4-4s1.791-4,4-4s4,1.791,4,4S31.209,30,29,30z"/>
	</g>
</g>
<g>
</g>
<g>
</g>
<g>
</g>
<g>
</g>
<g>
</g>
<g>
</g>
<g>
</g>
<g>
</g>
<g>
</g>
<g>
</g>
<g>
</g>
<g>
</g>
<g>
</g>
<g>
</g>
<g>
</g>
</svg>
