<?xml version="1.0" encoding="iso-8859-1"?>
<!-- Generator: Adobe Illustrator 16.0.4, SVG Export Plug-In . SVG Version: 6.00 Build 0)  -->
<!DOCTYPE svg PUBLIC "-//W3C//DTD SVG 1.1//EN" "http://www.w3.org/Graphics/SVG/1.1/DTD/svg11.dtd">
<svg version="1.1" id="Layer_1" xmlns="http://www.w3.org/2000/svg" xmlns:xlink="http://www.w3.org/1999/xlink" x="0px" y="0px"
	 width="36px" height="44px" viewBox="0 0 36 44" style="enable-background:new 0 0 36 44;" xml:space="preserve">
<g id="_x39_57-beer-mug-toolbar_x40_2x.png">
	<g>
		<path d="M14,20c-0.553,0-1,0.448-1,1v15c0,0.553,0.447,1,1,1s1-0.447,1-1V21C15,20.448,14.553,20,14,20z M31,3
			c-0.4,0-0.784,0.06-1.158,0.148C28.59,1.252,26.442,0,24,0c-2.13,0-4.033,0.954-5.317,2.455C18.013,2.165,17.276,2,16.5,2
			c-0.718,0-1.401,0.139-2.027,0.389C13.371,1.531,12.004,1,10.5,1C6.91,1,4,3.91,4,7.5c0,1.84,0.771,3.493,2,4.676V16H2
			c-1.104,0-2,0.896-2,2v16c0,1.104,0.896,2,2,2h4v6c0,1.104,0.896,2,2,2h24c1.104,0,2-0.896,2-2V11.978
			c1.208-0.913,2-2.347,2-3.978C36,5.238,33.762,3,31,3z M6,34H2V18h4V34z M32,42H8v-8V18v-4.501C8.77,13.82,9.613,14,10.5,14
			c1.51,0,2.882-0.536,3.985-1.399C15.109,12.85,15.784,13,16.5,13c1.043,0,2.007-0.307,2.838-0.811C20.576,13.306,22.201,14,24,14
			c1.729,0,3.299-0.643,4.52-1.683C29.253,12.74,30.093,13,31,13c0.343,0,0.677-0.035,1-0.101V42z M31,11
			c-1.148,0-2.135-0.652-2.639-1.601C27.51,10.942,25.887,12,24,12c-1.964,0-3.646-1.143-4.464-2.79
			C18.936,10.273,17.809,11,16.5,11c-0.899,0-1.712-0.349-2.332-0.907C13.353,11.244,12.018,12,10.5,12C8.015,12,6,9.985,6,7.5
			S8.015,3,10.5,3c1.518,0,2.853,0.757,3.668,1.907C14.788,4.35,15.601,4,16.5,4c1.142,0,2.146,0.555,2.785,1.401
			C19.955,3.429,21.801,2,24,2c2.38,0,4.362,1.666,4.867,3.893C29.411,5.342,30.165,5,31,5c1.657,0,3,1.343,3,3S32.657,11,31,11z
			 M20,20c-0.553,0-1,0.448-1,1v15c0,0.553,0.447,1,1,1s1-0.447,1-1V21C21,20.448,20.553,20,20,20z M26,20c-0.553,0-1,0.448-1,1v15
			c0,0.553,0.447,1,1,1s1-0.447,1-1V21C27,20.448,26.553,20,26,20z"/>
	</g>
</g>
<g>
</g>
<g>
</g>
<g>
</g>
<g>
</g>
<g>
</g>
<g>
</g>
<g>
</g>
<g>
</g>
<g>
</g>
<g>
</g>
<g>
</g>
<g>
</g>
<g>
</g>
<g>
</g>
<g>
</g>
</svg>
