<?xml version="1.0" encoding="iso-8859-1"?>
<!-- Generator: Adobe Illustrator 16.0.4, SVG Export Plug-In . SVG Version: 6.00 Build 0)  -->
<!DOCTYPE svg PUBLIC "-//W3C//DTD SVG 1.1//EN" "http://www.w3.org/Graphics/SVG/1.1/DTD/svg11.dtd">
<svg version="1.1" id="Layer_1" xmlns="http://www.w3.org/2000/svg" xmlns:xlink="http://www.w3.org/1999/xlink" x="0px" y="0px"
	 width="44px" height="56px" viewBox="0 0 44 56" style="enable-background:new 0 0 44 56;" xml:space="preserve">
<g id="_x39_57-beer-mug_x40_2x.png">
	<g>
		<path d="M17,19c-0.553,0-1,0.447-1,1v28c0,0.553,0.447,1,1,1s1-0.447,1-1V20C18,19.447,17.553,19,17,19z M33,19
			c-0.553,0-1,0.447-1,1v28c0,0.553,0.447,1,1,1s1-0.447,1-1V20C34,19.447,33.553,19,33,19z M25,19c-0.553,0-1,0.447-1,1v28
			c0,0.553,0.447,1,1,1s1-0.447,1-1V20C26,19.447,25.553,19,25,19z M38,2c-1.078,0-2.074,0.307-2.948,0.805
			C33.587,1.095,31.429,0,29,0c-2.257,0-4.282,0.945-5.734,2.45C22.566,2.164,21.803,2,21,2c-1.458,0-2.775,0.536-3.809,1.402
			C16.021,2.525,14.574,2,13,2C9.134,2,6,5.134,6,9c0,1.906,0.764,3.632,2,4.895V16H2c-1.104,0-2,0.896-2,2v24c0,1.104,0.896,2,2,2
			h6v10c0,1.104,0.896,2,2,2h30c1.104,0,2-0.896,2-2V12.443c1.219-1.099,2-2.673,2-4.443C44,4.687,41.313,2,38,2z M8,42H2V18h6V42z
			 M40,54H10V42V18v-2.683C10.91,15.75,11.925,16,13,16c2.196,0,4.153-1.013,5.438-2.595C19.217,13.775,20.079,14,21,14
			c0.797,0,1.555-0.163,2.251-0.445C24.705,15.061,26.741,16,29,16c2.429,0,4.601-1.086,6.068-2.795C35.938,13.696,36.929,14,38,14
			c0.705,0,1.371-0.144,2-0.367V54z M38,12c-1.439,0-2.691-0.768-3.396-1.908C33.753,12.369,31.575,14,29,14
			c-2.265,0-4.212-1.269-5.233-3.12C23.048,11.57,22.076,12,21,12c-1.321,0-2.483-0.648-3.212-1.637C17.191,12.457,15.285,14,13,14
			c-2.762,0-5-2.238-5-5s2.238-5,5-5c1.842,0,3.433,1.007,4.301,2.488C17.896,5.029,19.326,4,21,4c1.076,0,2.048,0.43,2.767,1.121
			C24.788,3.27,26.735,2,29,2c2.575,0,4.753,1.631,5.604,3.909C35.309,4.768,36.561,4,38,4c2.209,0,4,1.791,4,4S40.209,12,38,12z"/>
	</g>
</g>
<g>
</g>
<g>
</g>
<g>
</g>
<g>
</g>
<g>
</g>
<g>
</g>
<g>
</g>
<g>
</g>
<g>
</g>
<g>
</g>
<g>
</g>
<g>
</g>
<g>
</g>
<g>
</g>
<g>
</g>
</svg>
