<?xml version="1.0" encoding="UTF-8" standalone="no"?>
<svg width="58px" height="58px" viewBox="0 0 58 58" version="1.1" xmlns="http://www.w3.org/2000/svg" xmlns:xlink="http://www.w3.org/1999/xlink" xmlns:sketch="http://www.bohemiancoding.com/sketch/ns">
    <!-- Generator: Sketch 3.0.4 (8053) - http://www.bohemiancoding.com/sketch -->
    <title>1293-behance</title>
    <desc>Created with Sketch.</desc>
    <defs></defs>
    <g id="Page-1" stroke="none" stroke-width="1" fill="none" fill-rule="evenodd" sketch:type="MSPage">
        <g id="Glyphish-8-Icons" sketch:type="MSArtboardGroup" transform="translate(-212.000000, -1843.000000)" fill="#000000">
            <g id="1293-behance" sketch:type="MSLayerGroup" transform="translate(212.036996, 1843.860499)">
                <g id="_x31_293-behance_x40_2x.png" sketch:type="MSShapeGroup">
                    <path d="M37.323,22.677 C31.653,22.677 30.25,27.184 30.25,30.039 C30.25,32.894 31.042,37.908 37.688,37.908 C44.334,37.908 43.968,33.194 43.968,33.194 L40.371,33.194 C39.579,35.162 37.505,34.798 37.505,34.798 C34.274,34.798 34.091,30.843 34.091,30.843 L43.968,30.843 C44.213,26.781 42.75,22.677 37.323,22.677 L37.323,22.677 Z M34.274,28.579 C34.274,28.579 34.701,25.724 37.353,25.724 C40.005,25.724 40.432,28.579 40.432,28.579 L34.274,28.579 L34.274,28.579 Z M28,0 C12.536,0 0,12.536 0,28 C0,43.464 12.536,56 28,56 C43.464,56 56,43.464 56,28 C56,12.536 43.464,0 28,0 L28,0 Z M28,54 C13.641,54 2,42.359 2,28 C2,13.641 13.641,2 28,2 C42.359,2 54,13.641 54,28 C54,42.359 42.359,54 28,54 L28,54 Z M40.496,19.001 L33.49,19.001 L33.49,21.002 L40.496,21.002 L40.496,19.001 L40.496,19.001 Z M25.204,27.213 C28.013,25.907 27.885,22.838 27.885,22.838 C27.821,17.942 23.417,18.007 23.417,18.007 L11.991,18.007 L11.991,37.986 L23.417,37.986 C23.417,37.986 28.906,37.724 28.778,32.371 C28.65,27.017 25.204,27.213 25.204,27.213 L25.204,27.213 Z M16.558,21.511 L21.502,21.504 C21.502,21.504 23.409,21.365 23.409,23.847 C23.409,26.327 21.518,26.182 21.518,26.182 L16.559,26.182 L16.559,21.511 L16.558,21.511 Z M21.629,34.343 L16.558,34.358 L16.558,29.686 L21.624,29.686 C21.624,29.686 24.55,29.54 24.55,32.022 C24.55,34.504 21.629,34.343 21.629,34.343 L21.629,34.343 Z" id="Shape"></path>
                </g>
            </g>
        </g>
    </g>
</svg>