<?xml version="1.0" encoding="iso-8859-1"?>
<!-- Generator: Adobe Illustrator 16.0.4, SVG Export Plug-In . SVG Version: 6.00 Build 0)  -->
<!DOCTYPE svg PUBLIC "-//W3C//DTD SVG 1.1//EN" "http://www.w3.org/Graphics/SVG/1.1/DTD/svg11.dtd">
<svg version="1.1" id="Layer_1" xmlns="http://www.w3.org/2000/svg" xmlns:xlink="http://www.w3.org/1999/xlink" x="0px" y="0px"
	 width="44px" height="44px" viewBox="0 0 44 44" style="enable-background:new 0 0 44 44;" xml:space="preserve">
<g id="_x31_293-behance_x40_2x.png">
	<g>
		<path d="M30.6,15.689h-4.814v1.404H30.6V15.689z M28.42,18.268c-3.896,0-4.86,3.159-4.86,5.162s0.544,5.518,5.111,5.518
			c4.566,0,4.315-3.305,4.315-3.305h-2.472c-0.544,1.38-1.969,1.125-1.969,1.125c-2.22,0-2.346-2.773-2.346-2.773h6.787
			C33.154,21.146,32.148,18.268,28.42,18.268z M26.325,22.406c0,0,0.293-2.003,2.116-2.003c1.822,0,2.116,2.003,2.116,2.003H26.325z
			 M20.092,21.448c1.93-0.916,1.842-3.067,1.842-3.067c-0.044-3.434-3.07-3.388-3.07-3.388h-7.851v14.009h7.851
			c0,0,3.771-0.183,3.684-3.938C22.46,21.311,20.092,21.448,20.092,21.448z M14.151,17.449l3.397-0.004c0,0,1.31-0.098,1.31,1.643
			c0,1.739-1.299,1.638-1.299,1.638h-3.408V17.449z M17.636,26.447l-3.485,0.011v-3.276h3.481c0,0,2.01-0.102,2.01,1.639
			S17.636,26.447,17.636,26.447z M22,0C9.85,0,0,9.85,0,22s9.85,22,22,22s22-9.85,22-22S34.15,0,22,0z M22,42
			C10.954,42,2,33.046,2,22S10.954,2,22,2s20,8.954,20,20S33.046,42,22,42z"/>
	</g>
</g>
<g>
</g>
<g>
</g>
<g>
</g>
<g>
</g>
<g>
</g>
<g>
</g>
<g>
</g>
<g>
</g>
<g>
</g>
<g>
</g>
<g>
</g>
<g>
</g>
<g>
</g>
<g>
</g>
<g>
</g>
</svg>
