<?xml version="1.0" encoding="iso-8859-1"?>
<!-- Generator: Adobe Illustrator 16.0.4, SVG Export Plug-In . SVG Version: 6.00 Build 0)  -->
<!DOCTYPE svg PUBLIC "-//W3C//DTD SVG 1.1//EN" "http://www.w3.org/Graphics/SVG/1.1/DTD/svg11.dtd">
<svg version="1.1" id="Layer_1" xmlns="http://www.w3.org/2000/svg" xmlns:xlink="http://www.w3.org/1999/xlink" x="0px" y="0px"
	 width="36px" height="44px" viewBox="0 0 36 44" style="enable-background:new 0 0 36 44;" xml:space="preserve">
<g id="_x37_56-bell-toolbar_x40_2x.png">
	<g>
		<path d="M36,31.995C36,26.329,29,32,29,15v-0.004c0-4.691-2.939-8.686-7.072-10.27C21.971,4.492,22,4.254,22,4.007
			C22,1.794,20.209,0,18,0s-4,1.794-4,4.007c0,0.247,0.03,0.485,0.072,0.72C9.939,6.311,7,10.305,7,14.996V15
			c0,17-6.999,11.329-7,16.995c0.001,2.616,5.03,4.835,12.035,5.655C12.028,37.769,12,37.881,12,38c0,3.313,2.687,6,6,6s6-2.687,6-6
			c0-0.119-0.028-0.231-0.035-0.35C30.97,36.83,36,34.611,36,31.995z M18,2.008c1.104,0,2,0.895,2,1.998
			c0,0.06-0.013,0.115-0.018,0.174C19.339,4.062,18.678,3.992,18,3.992s-1.339,0.07-1.982,0.188C16.013,4.121,16,4.065,16,4.006
			C16,2.902,16.896,2.008,18,2.008z M18,41.991c-2.209,0-4-1.787-4-3.991c0-0.054,0.014-0.104,0.016-0.157
			c1.283,0.097,2.613,0.152,3.984,0.152s2.701-0.056,3.984-0.152C21.986,37.896,22,37.946,22,38C22,40.204,20.209,41.991,18,41.991z
			 M34,31.996c0,2.203-7.164,3.99-16,3.99s-15.999-1.787-16-3.99v-0.001C2,28.187,9,31.999,9,15v-0.004C9,10.027,13.029,6,18,6
			s9,4.027,9,8.996V15C27,31.999,34,28.187,34,31.996L34,31.996z"/>
	</g>
</g>
<g>
</g>
<g>
</g>
<g>
</g>
<g>
</g>
<g>
</g>
<g>
</g>
<g>
</g>
<g>
</g>
<g>
</g>
<g>
</g>
<g>
</g>
<g>
</g>
<g>
</g>
<g>
</g>
<g>
</g>
</svg>
