<?xml version="1.0" encoding="iso-8859-1"?>
<!-- Generator: Adobe Illustrator 16.0.4, SVG Export Plug-In . SVG Version: 6.00 Build 0)  -->
<!DOCTYPE svg PUBLIC "-//W3C//DTD SVG 1.1//EN" "http://www.w3.org/Graphics/SVG/1.1/DTD/svg11.dtd">
<svg version="1.1" id="Layer_1" xmlns="http://www.w3.org/2000/svg" xmlns:xlink="http://www.w3.org/1999/xlink" x="0px" y="0px"
	 width="48px" height="56px" viewBox="0 0 48 56" style="enable-background:new 0 0 48 56;" xml:space="preserve">
<g id="_x37_56-bell_x40_2x.png">
	<g>
		<path d="M48,41c0-7-9,0-9-21c0-6.56-4.218-12.122-10.085-14.159C28.962,5.566,29,5.288,29,5c0-2.762-2.238-5-5-5s-5,2.238-5,5
			c0,0.288,0.038,0.566,0.085,0.841C13.218,7.878,9,13.44,9,20c0,21-9,14-9,21c0,3.17,7.226,5.844,17.131,6.706
			C17.052,48.126,17,48.557,17,49c0,3.866,3.134,7,7,7s7-3.134,7-7c0-0.443-0.052-0.874-0.131-1.294C40.774,46.844,48,44.17,48,41z
			 M24,2c1.657,0,3,1.343,3,3c0,0.102-0.02,0.198-0.03,0.297C26.01,5.104,25.018,5,24,5s-2.01,0.104-2.97,0.297
			C21.02,5.198,21,5.102,21,5C21,3.343,22.343,2,24,2z M24,54c-2.762,0-5-2.238-5-5c0-0.395,0.057-0.774,0.144-1.144
			C20.712,47.951,22.336,48,24,48s3.288-0.049,4.856-0.144C28.943,48.226,29,48.605,29,49C29,51.762,26.762,54,24,54z M24,46
			c-12.15,0-22-2.238-22-5c0-5,9,0,9-21c0-7.18,5.82-13,13-13s13,5.82,13,13c0,21,9,16,9,21C46,43.762,36.15,46,24,46z"/>
	</g>
</g>
<g>
</g>
<g>
</g>
<g>
</g>
<g>
</g>
<g>
</g>
<g>
</g>
<g>
</g>
<g>
</g>
<g>
</g>
<g>
</g>
<g>
</g>
<g>
</g>
<g>
</g>
<g>
</g>
<g>
</g>
</svg>
