<?xml version="1.0" encoding="iso-8859-1"?>
<!-- Generator: Adobe Illustrator 16.0.4, SVG Export Plug-In . SVG Version: 6.00 Build 0)  -->
<!DOCTYPE svg PUBLIC "-//W3C//DTD SVG 1.1//EN" "http://www.w3.org/Graphics/SVG/1.1/DTD/svg11.dtd">
<svg version="1.1" id="Layer_1" xmlns="http://www.w3.org/2000/svg" xmlns:xlink="http://www.w3.org/1999/xlink" x="0px" y="0px"
	 width="44px" height="56px" viewBox="0 0 44 56" style="enable-background:new 0 0 44 56;" xml:space="preserve">
<g id="_x37_99-beverage_x40_2x.png">
	<g>
		<path d="M18,34h-4c-1.104,0-2,0.896-2,2v4c0,1.104,0.896,2,2,2h4c1.104,0,2-0.896,2-2v-4C20,34.896,19.104,34,18,34z M18,40h-4v-4
			h4V40z M27.464,32.732l2-3.464c0.553-0.957,0.225-2.18-0.731-2.732l-3.465-2c-0.956-0.553-2.18-0.225-2.731,0.731l-2,3.465
			c-0.553,0.956-0.225,2.18,0.731,2.731l3.465,2.001C25.688,34.017,26.912,33.688,27.464,32.732z M24.268,26.268l3.465,2l-2,3.465
			l-3.465-2L24.268,26.268z M44,1c0-0.552-0.447-1-1-1H1C0.447,0,0,0.448,0,1c0,0.039,0.018,0.071,0.021,0.108L0.006,1.11
			l1.607,14.462L1.6,15.581c0.003,0.004,0.014,0.018,0.017,0.022l4.39,39.507l0.017-0.001C6.078,55.607,6.486,56,7,56h30
			c0.514,0,0.922-0.393,0.979-0.891l0.016,0.001l6-54l-0.016-0.002C43.982,1.071,44,1.039,44,1z M36.104,54H7.896l-3.98-35.822
			C6.148,20.319,9.852,23,14.414,23c3.658,0,5.63-1.739,7.537-3.421C24.037,17.738,26.01,16,30.414,16
			c7.716,0,9.221,4.629,9.345,5.116L36.104,54z M40.121,17.851C38.594,16.01,35.72,14,30.414,14c-5.16,0-7.617,2.167-9.785,4.079
			C18.852,19.646,17.316,21,14.414,21c-5.469,0-9.727-4.763-10.872-6.18L2.117,2h39.766L40.121,17.851z M30,36h-4
			c-1.104,0-2,0.896-2,2v4c0,1.104,0.896,2,2,2h4c1.104,0,2-0.896,2-2v-4C32,36.896,31.104,36,30,36z M30,42h-4v-4h4V42z"/>
	</g>
</g>
<g>
</g>
<g>
</g>
<g>
</g>
<g>
</g>
<g>
</g>
<g>
</g>
<g>
</g>
<g>
</g>
<g>
</g>
<g>
</g>
<g>
</g>
<g>
</g>
<g>
</g>
<g>
</g>
<g>
</g>
</svg>
