<?xml version="1.0" encoding="iso-8859-1"?>
<!-- Generator: Adobe Illustrator 16.0.4, SVG Export Plug-In . SVG Version: 6.00 Build 0)  -->
<!DOCTYPE svg PUBLIC "-//W3C//DTD SVG 1.1//EN" "http://www.w3.org/Graphics/SVG/1.1/DTD/svg11.dtd">
<svg version="1.1" id="Layer_1" xmlns="http://www.w3.org/2000/svg" xmlns:xlink="http://www.w3.org/1999/xlink" x="0px" y="0px"
	 width="36px" height="44px" viewBox="0 0 36 44" style="enable-background:new 0 0 36 44;" xml:space="preserve">
<g id="_x37_99-beverage-toolbar_x40_2x.png">
	<g>
		<path d="M14,26h-4c-1.104,0-2,0.896-2,2v4c0,1.105,0.896,2,2,2h4c1.104,0,2-0.895,2-2v-4C16,26.896,15.104,26,14,26z M14,32h-4v-4
			h4V32z M36,1c0-0.552-0.447-1-1-1H1C0.447,0,0,0.448,0,1c0,0.039,0.018,0.071,0.021,0.108L0.006,1.11l5,42l0.017-0.001
			C5.078,43.607,5.486,44,6,44h24c0.514,0,0.922-0.393,0.979-0.891l0.016,0.001l5-42l-0.016-0.002C35.982,1.071,36,1.039,36,1z
			 M29.112,42H6.888L3.801,16.069C5.207,16.63,6.748,17,8.414,17c3.658,0,5.63-1.739,7.537-3.421C18.037,11.738,20.01,10,24.414,10
			c3.678,0,6.354,1.27,8.191,2.655L29.112,42z M32.867,10.453C30.814,9.091,28.052,8,24.414,8c-5.16,0-7.617,2.167-9.785,4.079
			C12.852,13.646,11.316,15,8.414,15c-1.783,0-3.43-0.514-4.889-1.248L2.126,2h31.748L32.867,10.453z M18.536,17.269l-2,3.464
			c-0.553,0.956-0.225,2.18,0.731,2.731l3.465,2.001c0.956,0.552,2.18,0.225,2.731-0.732l2-3.464
			c0.553-0.957,0.225-2.18-0.731-2.732l-3.465-2C20.312,15.984,19.088,16.312,18.536,17.269z M21.732,23.732l-3.465-2l2-3.464
			l3.465,1.999L21.732,23.732z M20,30v4c0,1.105,0.896,2,2,2h4c1.104,0,2-0.895,2-2v-4c0-1.104-0.896-2-2-2h-4
			C20.896,28,20,28.896,20,30z M26,34h-4v-4h4V34z"/>
	</g>
</g>
<g>
</g>
<g>
</g>
<g>
</g>
<g>
</g>
<g>
</g>
<g>
</g>
<g>
</g>
<g>
</g>
<g>
</g>
<g>
</g>
<g>
</g>
<g>
</g>
<g>
</g>
<g>
</g>
<g>
</g>
</svg>
