<?xml version="1.0" encoding="UTF-8" standalone="no"?>
<svg width="58px" height="58px" viewBox="0 0 58 58" version="1.1" xmlns="http://www.w3.org/2000/svg" xmlns:xlink="http://www.w3.org/1999/xlink" xmlns:sketch="http://www.bohemiancoding.com/sketch/ns">
    <!-- Generator: Sketch 3.0.4 (8053) - http://www.bohemiancoding.com/sketch -->
    <title>1291-bing</title>
    <desc>Created with Sketch.</desc>
    <defs></defs>
    <g id="Page-1" stroke="none" stroke-width="1" fill="none" fill-rule="evenodd" sketch:type="MSPage">
        <g id="Glyphish-8-Icons" sketch:type="MSArtboardGroup" transform="translate(-20.000000, -1843.000000)" fill="#000000">
            <g id="1291-bing" sketch:type="MSLayerGroup" transform="translate(20.036996, 1843.860499)">
                <g id="_x31_291-bing_x40_2x.png" sketch:type="MSShapeGroup">
                    <path d="M28,21 C23.729,21 19.858,22.106 16.99,23.897 L16.99,14 L12.007,14 L12.007,31.5 L12.008,31.5 C12.008,37.299 19.168,42 28.001,42 C36.834,42 43.994,37.299 43.994,31.5 C43.994,25.701 36.833,21 28,21 L28,21 Z M27.997,37.987 C21.918,37.987 16.991,35.083 16.991,31.5 C16.991,27.917 21.919,25.013 27.997,25.013 C34.075,25.013 39.003,27.917 39.003,31.5 C39.003,35.083 34.075,37.987 27.997,37.987 L27.997,37.987 Z M28,0 C12.536,0 0,12.536 0,28 C0,43.464 12.536,56 28,56 C43.464,56 56,43.464 56,28 C56,12.536 43.464,0 28,0 L28,0 Z M28,54 C13.641,54 2,42.359 2,28 C2,13.641 13.641,2 28,2 C42.359,2 54,13.641 54,28 C54,42.359 42.359,54 28,54 L28,54 Z" id="Shape"></path>
                </g>
            </g>
        </g>
    </g>
</svg>