<?xml version="1.0" encoding="iso-8859-1"?>
<!-- Generator: Adobe Illustrator 16.0.4, SVG Export Plug-In . SVG Version: 6.00 Build 0)  -->
<!DOCTYPE svg PUBLIC "-//W3C//DTD SVG 1.1//EN" "http://www.w3.org/Graphics/SVG/1.1/DTD/svg11.dtd">
<svg version="1.1" id="Layer_1" xmlns="http://www.w3.org/2000/svg" xmlns:xlink="http://www.w3.org/1999/xlink" x="0px" y="0px"
	 width="44px" height="44px" viewBox="0 0 44 44" style="enable-background:new 0 0 44 44;" xml:space="preserve">
<g id="_x31_291-bing_x40_2x.png">
	<g>
		<path d="M22,16.5c-3.206,0-6.111,0.869-8.264,2.277V11h-3.74v13.75h0.001C9.997,29.307,15.371,33,22,33
			c6.629,0,12.003-3.693,12.003-8.25S28.629,16.5,22,16.5z M21.997,29.848c-4.562,0-8.26-2.282-8.26-5.098
			c0-2.814,3.698-5.097,8.26-5.097c4.562,0,8.26,2.282,8.26,5.097C30.257,27.565,26.56,29.848,21.997,29.848z M22,0
			C9.85,0,0,9.85,0,22s9.85,22,22,22s22-9.85,22-22S34.15,0,22,0z M22,42C10.954,42,2,33.046,2,22S10.954,2,22,2s20,8.954,20,20
			S33.046,42,22,42z"/>
	</g>
</g>
<g>
</g>
<g>
</g>
<g>
</g>
<g>
</g>
<g>
</g>
<g>
</g>
<g>
</g>
<g>
</g>
<g>
</g>
<g>
</g>
<g>
</g>
<g>
</g>
<g>
</g>
<g>
</g>
<g>
</g>
</svg>
