<?xml version="1.0" encoding="iso-8859-1"?>
<!-- Generator: Adobe Illustrator 16.0.4, SVG Export Plug-In . SVG Version: 6.00 Build 0)  -->
<!DOCTYPE svg PUBLIC "-//W3C//DTD SVG 1.1//EN" "http://www.w3.org/Graphics/SVG/1.1/DTD/svg11.dtd">
<svg version="1.1" id="Layer_1" xmlns="http://www.w3.org/2000/svg" xmlns:xlink="http://www.w3.org/1999/xlink" x="0px" y="0px"
	 width="56px" height="40px" viewBox="0 0 56 40" style="enable-background:new 0 0 56 40;" xml:space="preserve">
<g id="_x38_78-binoculars_x40_2x.png">
	<g>
		<path d="M26,11h4c0.553,0,1-0.447,1-1s-0.447-1-1-1h-4c-0.553,0-1,0.447-1,1S25.447,11,26,11z M54.662,22.509l0.016-0.01
			L43.365,2.562l-0.02,0.012C42.49,1.045,40.876,0,39,0c-2.419,0-4.436,1.718-4.899,4H21.899C21.436,1.718,19.419,0,17,0
			c-1.876,0-3.49,1.045-4.346,2.573l-0.02-0.012L1.322,22.499l0.016,0.01C0.488,24.155,0,26.02,0,28c0,6.628,5.373,12,12,12
			c5.944,0,10.866-4.326,11.82-10h8.359c0.954,5.674,5.876,10,11.82,10c6.627,0,12-5.372,12-12
			C56,26.02,55.512,24.155,54.662,22.509z M35.681,8.713c0.002,0.002,0.003,0.003,0.004,0.005L36,5.094h0.01
			C36.009,5.062,36,5.032,36,5c0-1.656,1.343-3,3-3c1.137,0,2.114,0.64,2.623,1.572l0.013-0.007l7.799,13.746
			C47.802,16.479,45.959,16,44,16c-3.785,0-7.148,1.762-9.344,4.501L35.681,8.713z M14.364,3.565l0.013,0.007
			C14.886,2.64,15.863,2,17,2c1.657,0,3,1.344,3,3c0,0.032-0.009,0.062-0.01,0.094H20l0.315,3.624
			c0.001-0.001,0.002-0.003,0.004-0.005l1.024,11.788C19.148,17.762,15.785,16,12,16c-1.959,0-3.802,0.479-5.435,1.312L14.364,3.565
			z M12,38C6.478,38,2,33.523,2,28c0-5.522,4.478-10,10-10c4.96,0,9.065,3.615,9.853,8.353l0.146,1.676
			C21.983,33.538,17.514,38,12,38z M32.151,26.215c-0.085,0.552-0.141,1.113-0.146,1.688l-0.001,0.011
			C32.004,27.943,32,27.971,32,28h-8c0-0.029-0.004-0.057-0.004-0.086l-0.001-0.011c-0.006-0.575-0.062-1.137-0.146-1.688L23.83,26
			h8.34L32.151,26.215z M32.344,24h-8.688L22.091,6h11.818L32.344,24z M44,38c-5.514,0-9.983-4.463-9.999-9.973l0.146-1.674
			C34.934,21.616,39.04,18,44,18c5.522,0,10,4.478,10,10C54,33.523,49.522,38,44,38z"/>
	</g>
</g>
<g>
</g>
<g>
</g>
<g>
</g>
<g>
</g>
<g>
</g>
<g>
</g>
<g>
</g>
<g>
</g>
<g>
</g>
<g>
</g>
<g>
</g>
<g>
</g>
<g>
</g>
<g>
</g>
<g>
</g>
</svg>
