<?xml version="1.0" encoding="iso-8859-1"?>
<!-- Generator: Adobe Illustrator 16.0.4, SVG Export Plug-In . SVG Version: 6.00 Build 0)  -->
<!DOCTYPE svg PUBLIC "-//W3C//DTD SVG 1.1//EN" "http://www.w3.org/Graphics/SVG/1.1/DTD/svg11.dtd">
<svg version="1.1" id="Layer_1" xmlns="http://www.w3.org/2000/svg" xmlns:xlink="http://www.w3.org/1999/xlink" x="0px" y="0px"
	 width="44.013px" height="32px" viewBox="0 0 44.013 32" style="enable-background:new 0 0 44.013 32;" xml:space="preserve">
<g id="_x38_78-binoculars-toolbar_x40_2x.png">
	<g>
		<path d="M42.701,18.34L34.722,2.56c-0.1-0.257-0.221-0.501-0.368-0.729L34.312,1.75l-0.006,0.002C33.587,0.695,32.375,0,31,0
			c-1.477,0-2.752,0.81-3.445,2H16.445C15.752,0.81,14.477,0,13,0c-1.375,0-2.587,0.695-3.307,1.752L9.688,1.75L9.646,1.83
			C9.499,2.059,9.378,2.303,9.278,2.56L1.25,18.438l0.003,0.001C0.462,19.777,0,21.333,0,23c0,4.971,4.032,9,9.007,9
			c3.919,0,7.245-2.507,8.482-6h9.034c1.238,3.493,4.563,6,8.483,6c4.974,0,9.006-4.029,9.006-9
			C44.013,21.292,43.528,19.701,42.701,18.34z M11.25,3.031l0.009,0.003C11.601,2.42,12.248,2,13,2c1.104,0,2,0.896,2,2
			l0.683,12.975C14.035,15.152,11.658,14,9.007,14c-1.313,0-2.557,0.287-3.682,0.792L11.25,3.031z M9.006,30
			c-3.865,0-6.998-3.134-6.998-7s3.133-7,6.998-7s6.998,3.134,6.998,7S12.871,30,9.006,30z M17.954,24
			c0.036-0.328,0.059-0.661,0.059-1c0-0.338-0.022-0.671-0.059-1h8.099l-0.003,0.062c-0.031,0.298-0.047,0.6-0.048,0.906L26,23
			c0,0.339,0.022,0.672,0.059,1H17.954z M26.158,20h-8.316L17,4h10L26.158,20z M29,4c0-1.104,0.896-2,2-2
			c0.752,0,1.399,0.42,1.741,1.034l0.009-0.003l5.921,11.753c-1.12-0.5-2.358-0.784-3.664-0.784c-2.659,0-5.042,1.158-6.69,2.99
			L29,4z M35.006,30c-3.865,0-6.998-3.134-6.998-7s3.133-7,6.998-7s6.998,3.134,6.998,7S38.871,30,35.006,30z M20,10h4
			c0.553,0,1-0.447,1-1c0-0.552-0.447-1-1-1h-4c-0.553,0-1,0.448-1,1C19,9.553,19.447,10,20,10z"/>
	</g>
</g>
<g>
</g>
<g>
</g>
<g>
</g>
<g>
</g>
<g>
</g>
<g>
</g>
<g>
</g>
<g>
</g>
<g>
</g>
<g>
</g>
<g>
</g>
<g>
</g>
<g>
</g>
<g>
</g>
<g>
</g>
</svg>
