<?xml version="1.0" encoding="iso-8859-1"?>
<!-- Generator: Adobe Illustrator 16.0.4, SVG Export Plug-In . SVG Version: 6.00 Build 0)  -->
<!DOCTYPE svg PUBLIC "-//W3C//DTD SVG 1.1//EN" "http://www.w3.org/Graphics/SVG/1.1/DTD/svg11.dtd">
<svg version="1.1" id="Layer_1" xmlns="http://www.w3.org/2000/svg" xmlns:xlink="http://www.w3.org/1999/xlink" x="0px" y="0px"
	 width="44px" height="44px" viewBox="0 0 44 44" style="enable-background:new 0 0 44 44;" xml:space="preserve">
<g id="_x38_01-bird-house-toolbar_x40_2x.png">
	<g>
		<path d="M22,34c-1.104,0-2,0.896-2,2s0.896,2,2,2s2-0.896,2-2S23.104,34,22,34z M15,23c0,3.866,3.134,7,7,7s7-3.134,7-7
			s-3.134-7-7-7S15,19.134,15,23z M27,23c0,2.762-2.238,5-5,5c-2.761,0-5-2.238-5-5c0-2.761,2.239-5,5-5C24.762,18,27,20.239,27,23z
			 M43.718,22.309l0.002-0.002l-21-22l-0.002,0.002C22.535,0.12,22.283,0,22,0c-0.283,0-0.536,0.12-0.717,0.309L21.28,0.307l-21,22
			l0.002,0.002C0.109,22.488,0,22.73,0,23c0,0.553,0.448,1,1,1c0.283,0,0.536-0.119,0.717-0.308l0.002,0.002L4,21.306V42
			c0,1.104,0.896,2,2,2h32c1.104,0,2-0.896,2-2V21.306l2.28,2.389l0.002-0.002C42.465,23.881,42.718,24,43,24c0.553,0,1-0.447,1-1
			C44,22.73,43.891,22.488,43.718,22.309z M38,42H6V19.211L22,2.448l16,16.763V42z"/>
	</g>
</g>
<g>
</g>
<g>
</g>
<g>
</g>
<g>
</g>
<g>
</g>
<g>
</g>
<g>
</g>
<g>
</g>
<g>
</g>
<g>
</g>
<g>
</g>
<g>
</g>
<g>
</g>
<g>
</g>
<g>
</g>
</svg>
