<?xml version="1.0" encoding="iso-8859-1"?>
<!-- Generator: Adobe Illustrator 16.0.4, SVG Export Plug-In . SVG Version: 6.00 Build 0)  -->
<!DOCTYPE svg PUBLIC "-//W3C//DTD SVG 1.1//EN" "http://www.w3.org/Graphics/SVG/1.1/DTD/svg11.dtd">
<svg version="1.1" id="Layer_1" xmlns="http://www.w3.org/2000/svg" xmlns:xlink="http://www.w3.org/1999/xlink" x="0px" y="0px"
	 width="43.994px" height="44px" viewBox="0 0 43.994 44" style="enable-background:new 0 0 43.994 44;" xml:space="preserve">
<g id="_x39_15-bird-toolbar_x40_2x.png">
	<g>
		<path d="M43.379,7.538C43.242,7.23,39.76,0,33.811,0C29.753,0,27,1.947,27,6c0,5.035-4.841,20-25,20H0l2.937,2.855l-2.874,1.436
			C0.062,30.291,1,33,5.051,33c3.83,0,6.113,0.477,9.124,0.896c2.344,0.327,4.333,0.324,6.535,0.732
			c0.632,0.161,2.271,0.821,2.287,3.336V42h-2c-0.553,0-1,0.447-1,1s0.447,1,1,1h10c0.553,0,1-0.447,1-1s-0.447-1-1-1h-6v-4H25
			c0-3.609,1.965-4.116,1.965-4.116h-0.018c5.544-1.399,10.01-4.978,10.01-11.098c0-4.119-0.923-6.479-1.508-8.231
			c-0.717-2.151-0.83-3.097,1.417-5.299c0.8-0.742,1.939-0.813,2.896-0.813c0.225,0,0.439,0.004,0.637,0.004
			c1.177,0,2.1,0.18,2.107,0.182l1.488,0.294L43.379,7.538z M40.398,6.446l-0.279-0.002l-0.357-0.002c-0.84,0-2.805,0-4.256,1.347
			l-0.021,0.02l-0.02,0.019c-2.816,2.761-2.866,4.501-1.914,7.36l0.149,0.443c0.56,1.646,1.256,3.695,1.256,7.155
			c0,6.102-5.325,8.357-8.499,9.158c0,0-1.658,0.435-2.502,2.091c-0.844-1.062-2.816-1.36-2.816-1.36s-1.246-0.247-3.906-0.472
			c-1.332-0.111-3.277-0.386-4.412-0.526C10.498,31.329,8.304,31,5.051,31c-0.617,0-1.117-0.081-1.521-0.205l0.301-0.15l2.521-1.259
			l-1.526-1.484C23.015,26.604,29,12.836,29,6c0-0.989,0-4,4.811-4c2.997,0,5.316,2.576,6.606,4.446
			C40.41,6.446,40.404,6.446,40.398,6.446z M33.498,3.987c-0.826,0-1.495,0.676-1.495,1.509s0.669,1.508,1.495,1.508
			c0.825,0,1.495-0.675,1.495-1.508S34.323,3.987,33.498,3.987z"/>
	</g>
</g>
<g>
</g>
<g>
</g>
<g>
</g>
<g>
</g>
<g>
</g>
<g>
</g>
<g>
</g>
<g>
</g>
<g>
</g>
<g>
</g>
<g>
</g>
<g>
</g>
<g>
</g>
<g>
</g>
<g>
</g>
</svg>
