<?xml version="1.0" encoding="iso-8859-1"?>
<!-- Generator: Adobe Illustrator 16.0.4, SVG Export Plug-In . SVG Version: 6.00 Build 0)  -->
<!DOCTYPE svg PUBLIC "-//W3C//DTD SVG 1.1//EN" "http://www.w3.org/Graphics/SVG/1.1/DTD/svg11.dtd">
<svg version="1.1" id="Layer_1" xmlns="http://www.w3.org/2000/svg" xmlns:xlink="http://www.w3.org/1999/xlink" x="0px" y="0px"
	 width="52px" height="56px" viewBox="0 0 52 56" style="enable-background:new 0 0 52 56;" xml:space="preserve">
<g id="_x38_23-birthday-cake_x40_2x.png">
	<g>
		<path d="M26,11c2.209,0,4-1.791,4-4s-1-7-5-7c0,5-3,3-3,7C22,9.209,23.791,11,26,11z M24.646,5.522
			c0.785-0.647,1.559-1.404,1.993-2.792C27.926,4.109,28,6.962,28,7c0,1.103-0.896,2-2,2s-2-0.897-2-2
			C24,6.055,24.099,5.974,24.646,5.522z M51,54h-3V34c0-2.209-1.791-4-4-4H30V14.433l2.055-0.551
			c0.533-0.144,0.85-0.691,0.707-1.225c-0.144-0.533-0.691-0.851-1.225-0.707l-11.592,3.105c-0.533,0.144-0.85,0.691-0.707,1.225
			c0.144,0.534,0.691,0.851,1.225,0.708L22,16.576V30H8c-2.209,0-4,1.791-4,4v20H1c-0.553,0-1,0.448-1,1c0,0.553,0.447,1,1,1h50
			c0.553,0,1-0.447,1-1C52,54.448,51.553,54,51,54z M24,16.04l4-1.071V30h-4V16.04z M46,54H6V42c0,0,10,2,20,2s20-2,20-2V54z M46,40
			c0,0-10,2-20,2S6,40,6,40v-6c0-1.104,0.896-2,2-2h14h8h14c1.104,0,2,0.896,2,2V40z"/>
	</g>
</g>
<g>
</g>
<g>
</g>
<g>
</g>
<g>
</g>
<g>
</g>
<g>
</g>
<g>
</g>
<g>
</g>
<g>
</g>
<g>
</g>
<g>
</g>
<g>
</g>
<g>
</g>
<g>
</g>
<g>
</g>
</svg>
