<?xml version="1.0" encoding="iso-8859-1"?>
<!-- Generator: Adobe Illustrator 16.0.4, SVG Export Plug-In . SVG Version: 6.00 Build 0)  -->
<!DOCTYPE svg PUBLIC "-//W3C//DTD SVG 1.1//EN" "http://www.w3.org/Graphics/SVG/1.1/DTD/svg11.dtd">
<svg version="1.1" id="Layer_1" xmlns="http://www.w3.org/2000/svg" xmlns:xlink="http://www.w3.org/1999/xlink" x="0px" y="0px"
	 width="40px" height="44px" viewBox="0 0 40 44" style="enable-background:new 0 0 40 44;" xml:space="preserve">
<g id="_x38_23-birthday-cake-toolbar_x40_2x.png">
	<g>
		<path d="M20,11c2.209,0,4-1.791,4-4s-1-7-5-7c0,5-3,3-3,7C16,9.209,17.791,11,20,11z M18.646,5.522
			c0.785-0.647,1.559-1.404,1.993-2.792C21.926,4.109,22,6.962,22,7c0,1.103-0.896,2-2,2s-2-0.897-2-2
			C18,6.055,18.099,5.974,18.646,5.522z M39,42h-3V28c0-2.209-1.791-4-4-4h-8v-9.567l2.055-0.551
			c0.533-0.143,0.85-0.691,0.707-1.225c-0.144-0.533-0.691-0.851-1.225-0.707l-11.592,3.105c-0.533,0.144-0.85,0.691-0.707,1.226
			c0.144,0.533,0.691,0.85,1.225,0.707L16,16.576V24H8c-2.209,0-4,1.791-4,4v14H1c-0.552,0-1,0.448-1,1c0,0.553,0.448,1,1,1h38
			c0.553,0,1-0.447,1-1C40,42.448,39.553,42,39,42z M18,16.04l4-1.071V24h-4V16.04z M34,42H6v-9.036C9.777,33.477,14.879,34,20,34
			s10.223-0.523,14-1.036V42z M34,30.964C30.223,31.477,25.121,32,20,32S9.777,31.477,6,30.964V28c0-1.104,0.896-2,2-2h8h8h8
			c1.104,0,2,0.896,2,2V30.964z"/>
	</g>
</g>
<g>
</g>
<g>
</g>
<g>
</g>
<g>
</g>
<g>
</g>
<g>
</g>
<g>
</g>
<g>
</g>
<g>
</g>
<g>
</g>
<g>
</g>
<g>
</g>
<g>
</g>
<g>
</g>
<g>
</g>
</svg>
