<?xml version="1.0" encoding="UTF-8" standalone="no"?>
<svg width="58px" height="58px" viewBox="0 0 58 58" version="1.1" xmlns="http://www.w3.org/2000/svg" xmlns:xlink="http://www.w3.org/1999/xlink" xmlns:sketch="http://www.bohemiancoding.com/sketch/ns">
    <!-- Generator: Sketch 3.0.4 (8053) - http://www.bohemiancoding.com/sketch -->
    <title>1255-blogger</title>
    <desc>Created with Sketch.</desc>
    <defs></defs>
    <g id="Page-1" stroke="none" stroke-width="1" fill="none" fill-rule="evenodd" sketch:type="MSPage">
        <g id="Glyphish-8-Icons" sketch:type="MSArtboardGroup" transform="translate(-404.000000, -1459.000000)" fill="#000000">
            <g id="1255-blogger" sketch:type="MSLayerGroup" transform="translate(404.036996, 1459.860499)">
                <g id="_x31_255-blogger_x40_2x.png" sketch:type="MSShapeGroup">
                    <path d="M28,0 C12.536,0 0,12.536 0,28 C0,43.464 12.536,56 28,56 C43.464,56 56,43.464 56,28 C56,12.536 43.464,0 28,0 L28,0 Z M28,54 C13.641,54 2,42.359 2,28 C2,13.641 13.641,2 28,2 C42.359,2 54,13.641 54,28 C54,42.359 42.359,54 28,54 L28,54 Z M43.637,24.736 L43.188,24.382 C42.6,23.923 39.628,24.412 38.829,23.686 C38.26,23.164 38.173,22.222 38.001,20.951 C37.682,18.479 37.479,18.351 37.095,17.517 C35.695,14.545 31.897,12.31 29.289,11.999 L22.223,11.999 C16.663,12 12,16.554 12,22.113 L12,33.908 C12,39.456 16.663,44 22.221,44 L33.83,44 C39.39,44 43.906,39.456 43.935,33.908 L44,25.738 L43.906,25.292 L43.637,24.736 L43.637,24.736 Z M22.35,20 L27.953,20 C29.021,20 29.887,20.938 29.887,21.995 C29.887,23.052 29.021,24 27.953,24 L22.35,24 C21.281,24 20.415,23.053 20.415,21.995 C20.415,20.937 21.281,20 22.35,20 L22.35,20 Z M33.734,36 L22.35,36 C21.281,36 20.415,35.045 20.415,34 C20.415,32.94 21.281,32 22.35,32 L33.734,32 C34.796,32 35.66,32.94 35.66,34 C35.66,35.045 34.797,36 33.734,36 L33.734,36 Z" id="Shape"></path>
                </g>
            </g>
        </g>
    </g>
</svg>