<?xml version="1.0" encoding="iso-8859-1"?>
<!-- Generator: Adobe Illustrator 16.0.4, SVG Export Plug-In . SVG Version: 6.00 Build 0)  -->
<!DOCTYPE svg PUBLIC "-//W3C//DTD SVG 1.1//EN" "http://www.w3.org/Graphics/SVG/1.1/DTD/svg11.dtd">
<svg version="1.1" id="Layer_1" xmlns="http://www.w3.org/2000/svg" xmlns:xlink="http://www.w3.org/1999/xlink" x="0px" y="0px"
	 width="44px" height="44px" viewBox="0 0 44 44" style="enable-background:new 0 0 44 44;" xml:space="preserve">
<g id="_x31_255-blogger_x40_2x.png">
	<g>
		<path d="M33.736,19.55l-0.337-0.265c-0.442-0.345-2.672,0.022-3.272-0.522c-0.427-0.393-0.493-1.099-0.622-2.054
			c-0.239-1.854-0.392-1.95-0.68-2.576c-1.051-2.23-3.901-3.908-5.859-4.141h-5.303c-4.172,0-7.671,3.417-7.671,7.59v8.852
			c0,4.164,3.5,7.575,7.671,7.575h8.713c4.173,0,7.562-3.411,7.584-7.575l0.048-6.131l-0.071-0.335L33.736,19.55z M17.76,15.996
			h4.205c0.801,0,1.451,0.703,1.451,1.497s-0.65,1.505-1.451,1.505H17.76c-0.802,0-1.452-0.711-1.452-1.505
			S16.958,15.996,17.76,15.996z M26.304,28.005H17.76c-0.802,0-1.452-0.718-1.452-1.501c0-0.796,0.65-1.502,1.452-1.502h8.544
			c0.798,0,1.445,0.706,1.445,1.502C27.749,27.287,27.102,28.005,26.304,28.005z M22,0C9.85,0,0,9.85,0,22s9.85,22,22,22
			s22-9.85,22-22S34.15,0,22,0z M22,42C10.954,42,2,33.046,2,22S10.954,2,22,2s20,8.954,20,20S33.046,42,22,42z"/>
	</g>
</g>
<g>
</g>
<g>
</g>
<g>
</g>
<g>
</g>
<g>
</g>
<g>
</g>
<g>
</g>
<g>
</g>
<g>
</g>
<g>
</g>
<g>
</g>
<g>
</g>
<g>
</g>
<g>
</g>
<g>
</g>
</svg>
