<?xml version="1.0" encoding="iso-8859-1"?>
<!-- Generator: Adobe Illustrator 16.0.4, SVG Export Plug-In . SVG Version: 6.00 Build 0)  -->
<!DOCTYPE svg PUBLIC "-//W3C//DTD SVG 1.1//EN" "http://www.w3.org/Graphics/SVG/1.1/DTD/svg11.dtd">
<svg version="1.1" id="Layer_1" xmlns="http://www.w3.org/2000/svg" xmlns:xlink="http://www.w3.org/1999/xlink" x="0px" y="0px"
	 width="44px" height="44px" viewBox="0 0 44 44" style="enable-background:new 0 0 44 44;" xml:space="preserve">
<g id="_x31_256-blogger_x40_2x.png">
	<g>
		<path d="M13,18h-3l-0.012,8.007h6.025v-11.02L13,15V18z M13.515,24.015h-1.009v-4.018h1.009V24.015z M17.014,26.006h2.975v-7.994
			h-2.975V26.006z M27.995,25.574h3.491v0.859h-3.491v2.578h6.017v-11h-6.017V25.574z M30.505,20.014H31.5v4h-0.995V20.014z M22,0
			C9.85,0,0,9.85,0,22s9.85,22,22,22s22-9.85,22-22S34.15,0,22,0z M22,42C10.954,42,2,33.046,2,22S10.954,2,22,2s20,8.954,20,20
			S33.046,42,22,42z M17.014,16.99h2.975v-2.004h-2.975V16.99z M21.014,25.574h3.433v0.859h-3.433v2.578H27v-11h-5.986V25.574z
			 M23.505,20.014h0.985v4h-0.985V20.014z"/>
	</g>
</g>
<g>
</g>
<g>
</g>
<g>
</g>
<g>
</g>
<g>
</g>
<g>
</g>
<g>
</g>
<g>
</g>
<g>
</g>
<g>
</g>
<g>
</g>
<g>
</g>
<g>
</g>
<g>
</g>
<g>
</g>
</svg>
