<?xml version="1.0" encoding="UTF-8" standalone="no"?>
<svg width="58px" height="58px" viewBox="0 0 58 58" version="1.1" xmlns="http://www.w3.org/2000/svg" xmlns:xlink="http://www.w3.org/1999/xlink" xmlns:sketch="http://www.bohemiancoding.com/sketch/ns">
    <!-- Generator: Sketch 3.0.4 (8053) - http://www.bohemiancoding.com/sketch -->
    <title>1256-blogger</title>
    <desc>Created with Sketch.</desc>
    <defs></defs>
    <g id="Page-1" stroke="none" stroke-width="1" fill="none" fill-rule="evenodd" sketch:type="MSPage">
        <g id="Glyphish-8-Icons" sketch:type="MSArtboardGroup" transform="translate(-500.000000, -1459.000000)" fill="#000000">
            <g id="1256-blogger" sketch:type="MSLayerGroup" transform="translate(500.036996, 1459.860499)">
                <g id="_x31_256-blogger_x40_2x.png" sketch:type="MSShapeGroup">
                    <path d="M16.006,22 L11,22 L11,33 L19.971,33 L19.971,18 L16.006,18 L16.006,22 L16.006,22 Z M16.037,30.5 L14.777,30.5 L14.777,25.5 L16.037,25.5 L16.037,30.5 L16.037,30.5 Z M21.074,20.5 L24.976,20.5 L24.976,18 L21.074,18 L21.074,20.5 L21.074,20.5 Z M21.074,33 L24.976,33 L24.976,22 L21.074,22 L21.074,33 L21.074,33 Z M25.986,33 L31.148,33 L31.148,34.25 L25.986,34.25 L25.986,38 L31.148,38 L33.667,38 L34.988,38 L34.988,33 L34.988,22 L25.986,22 L25.986,33 L25.986,33 Z M29.889,25.5 L31.149,25.5 L31.149,30.5 L29.889,30.5 L29.889,25.5 L29.889,25.5 Z M28,0 C12.536,0 0,12.536 0,28 C0,43.464 12.536,56 28,56 C43.464,56 56,43.464 56,28 C56,12.536 43.464,0 28,0 L28,0 Z M28,54 C13.641,54 2,42.359 2,28 C2,13.641 13.641,2 28,2 C42.359,2 54,13.641 54,28 C54,42.359 42.359,54 28,54 L28,54 Z M35.998,33 L41.223,33 L41.223,34.25 L35.998,34.25 L35.998,38 L41.223,38 L43.742,38 L45,38 L45,33 L45,22 L35.998,22 L35.998,33 L35.998,33 Z M39.963,25.5 L41.223,25.5 L41.223,30.5 L39.963,30.5 L39.963,25.5 L39.963,25.5 Z" id="Shape"></path>
                </g>
            </g>
        </g>
    </g>
</svg>