<?xml version="1.0" encoding="iso-8859-1"?>
<!-- Generator: Adobe Illustrator 16.0.4, SVG Export Plug-In . SVG Version: 6.00 Build 0)  -->
<!DOCTYPE svg PUBLIC "-//W3C//DTD SVG 1.1//EN" "http://www.w3.org/Graphics/SVG/1.1/DTD/svg11.dtd">
<svg version="1.1" id="Layer_1" xmlns="http://www.w3.org/2000/svg" xmlns:xlink="http://www.w3.org/1999/xlink" x="0px" y="0px"
	 width="28px" height="36px" viewBox="0 0 28 36" style="enable-background:new 0 0 28 36;" xml:space="preserve">
<g id="_x31_171-bold_x40_2x.png">
	<g>
		<path d="M22.859,17.264C24.789,15.44,26,12.864,26,10c0-5.522-4.477-10-10-10H0v16v4v16h18c5.523,0,10-4.478,10-10
			C28,22.242,25.924,18.972,22.859,17.264z M4,4h12c3.314,0,6,2.687,6,6s-2.686,6-6,6H4V4z M18,32H4V20h14c3.313,0,6,2.687,6,6
			S21.313,32,18,32z"/>
	</g>
</g>
<g>
</g>
<g>
</g>
<g>
</g>
<g>
</g>
<g>
</g>
<g>
</g>
<g>
</g>
<g>
</g>
<g>
</g>
<g>
</g>
<g>
</g>
<g>
</g>
<g>
</g>
<g>
</g>
<g>
</g>
</svg>
