<?xml version="1.0" encoding="UTF-8" standalone="no"?>
<svg width="30px" height="38px" viewBox="0 0 30 38" version="1.1" xmlns="http://www.w3.org/2000/svg" xmlns:xlink="http://www.w3.org/1999/xlink" xmlns:sketch="http://www.bohemiancoding.com/sketch/ns">
    <!-- Generator: Sketch 3.0.4 (8053) - http://www.bohemiancoding.com/sketch -->
    <title>1171-bold</title>
    <desc>Created with Sketch.</desc>
    <defs></defs>
    <g id="Page-1" stroke="none" stroke-width="1" fill="none" fill-rule="evenodd" sketch:type="MSPage">
        <g id="Glyphish-8-Icons" sketch:type="MSArtboardGroup" transform="translate(-34.000000, -701.000000)" fill="#000000">
            <g id="1171-bold" sketch:type="MSLayerGroup" transform="translate(34.036996, 701.860499)">
                <g id="_x31_171-bold_x40_2x.png" sketch:type="MSShapeGroup">
                    <path d="M22.859,17.264 C24.789,15.44 26,12.864 26,10 C26,4.478 21.523,0 16,0 L0,0 L0,16 L0,20 L0,36 L18,36 C23.523,36 28,31.522 28,26 C28,22.242 25.924,18.972 22.859,17.264 L22.859,17.264 Z M4,4 L16,4 C19.314,4 22,6.687 22,10 C22,13.313 19.314,16 16,16 L4,16 L4,4 L4,4 Z M18,32 L4,32 L4,20 L18,20 C21.313,20 24,22.687 24,26 C24,29.313 21.313,32 18,32 L18,32 Z" id="Shape"></path>
                </g>
            </g>
        </g>
    </g>
</svg>