<?xml version="1.0" encoding="iso-8859-1"?>
<!-- Generator: Adobe Illustrator 16.0.4, SVG Export Plug-In . SVG Version: 6.00 Build 0)  -->
<!DOCTYPE svg PUBLIC "-//W3C//DTD SVG 1.1//EN" "http://www.w3.org/Graphics/SVG/1.1/DTD/svg11.dtd">
<svg version="1.1" id="Layer_1" xmlns="http://www.w3.org/2000/svg" xmlns:xlink="http://www.w3.org/1999/xlink" x="0px" y="0px"
	 width="52px" height="56px" viewBox="0 0 52 56" style="enable-background:new 0 0 52 56;" xml:space="preserve">
<g id="_x38_34-bolt_x40_2x.png">
	<g>
		<path d="M14,28c0,6.628,5.373,12,12,12s12-5.372,12-12c0-6.627-5.373-12-12-12S14,21.373,14,28z M36,28c0,5.523-4.478,10-10,10
			s-10-4.477-10-10c0-5.522,4.478-10,10-10S36,22.478,36,28z M51.481,14.141l0.007-0.013l-25-14l-0.007,0.013
			C26.337,0.06,26.178,0,26,0s-0.336,0.06-0.481,0.141l-0.007-0.013l-25,14l0.007,0.013C0.215,14.312,0,14.626,0,15v26
			c0,0.374,0.215,0.688,0.519,0.859l-0.007,0.014l25,14l0.007-0.014C25.664,55.941,25.822,56,26,56s0.337-0.059,0.481-0.141
			l0.007,0.014l25-14l-0.007-0.014C51.786,41.688,52,41.374,52,41V15C52,14.626,51.786,14.312,51.481,14.141z M50,40.414l-24,13.44
			L2,40.414V15.586L26,2.146l24,13.439V40.414z"/>
	</g>
</g>
<g>
</g>
<g>
</g>
<g>
</g>
<g>
</g>
<g>
</g>
<g>
</g>
<g>
</g>
<g>
</g>
<g>
</g>
<g>
</g>
<g>
</g>
<g>
</g>
<g>
</g>
<g>
</g>
<g>
</g>
</svg>
