<?xml version="1.0" encoding="iso-8859-1"?>
<!-- Generator: Adobe Illustrator 16.0.4, SVG Export Plug-In . SVG Version: 6.00 Build 0)  -->
<!DOCTYPE svg PUBLIC "-//W3C//DTD SVG 1.1//EN" "http://www.w3.org/Graphics/SVG/1.1/DTD/svg11.dtd">
<svg version="1.1" id="Layer_1" xmlns="http://www.w3.org/2000/svg" xmlns:xlink="http://www.w3.org/1999/xlink" x="0px" y="0px"
	 width="32px" height="44px" viewBox="0 0 32 44" style="enable-background:new 0 0 32 44;" xml:space="preserve">
<g id="_x31_048-bomb-toolbar_x40_2x.png">
	<g>
		<path d="M21.981,13.184C21.984,13.122,22,13.063,22,13c0-2.134-1.676-3.862-3.781-3.978C19.748,5.724,23.2,2,31,2
			c0.553,0,1-0.447,1-1s-0.447-1-1-1c0,0-11.899,0.009-15.167,9H14c-2.209,0-4,1.791-4,4c0,0.066,0.017,0.128,0.02,0.193
			C4.15,15.561,0,21.283,0,28c0,8.837,7.163,16,16,16s16-7.163,16-16C32,21.282,27.852,15.552,21.981,13.184z M16,42
			C8.268,42,2,35.732,2,28c0-6.341,4.219-11.69,10-13.412V13c0-1.104,0.896-2,2-2h4c1.104,0,2,0.896,2,2v1.588
			C25.781,16.31,30,21.659,30,28C30,35.732,23.732,42,16,42z"/>
	</g>
</g>
<g>
</g>
<g>
</g>
<g>
</g>
<g>
</g>
<g>
</g>
<g>
</g>
<g>
</g>
<g>
</g>
<g>
</g>
<g>
</g>
<g>
</g>
<g>
</g>
<g>
</g>
<g>
</g>
<g>
</g>
</svg>
