<?xml version="1.0" encoding="iso-8859-1"?>
<!-- Generator: Adobe Illustrator 16.0.4, SVG Export Plug-In . SVG Version: 6.00 Build 0)  -->
<!DOCTYPE svg PUBLIC "-//W3C//DTD SVG 1.1//EN" "http://www.w3.org/Graphics/SVG/1.1/DTD/svg11.dtd">
<svg version="1.1" id="Layer_1" xmlns="http://www.w3.org/2000/svg" xmlns:xlink="http://www.w3.org/1999/xlink" x="0px" y="0px"
	 width="40px" height="56px" viewBox="0 0 40 56" style="enable-background:new 0 0 40 56;" xml:space="preserve">
<g id="_x31_048-bomb_x40_2x.png">
	<g>
		<path d="M28,17.676V17c0-2.209-1.791-4-4-4h-2.921C21.44,10.123,23.479,2,35,2c0.553,0,1-0.447,1-1s-0.447-1-1-1
			c0,0-15.216,0.007-15.964,13H16c-2.209,0-4,1.791-4,4v0.676C4.939,20.763,0,27.801,0,36c0,11.046,8.954,20,20,20s20-8.954,20-20
			C40,27.801,35.061,20.763,28,17.676z M20,54c-9.941,0-18-8.059-18-18c0-7.834,5.014-14.48,12-16.954V17c0-1.104,0.896-2,2-2h8
			c1.104,0,2,0.896,2,2v2.046C32.986,21.52,38,28.166,38,36C38,45.941,29.941,54,20,54z"/>
	</g>
</g>
<g>
</g>
<g>
</g>
<g>
</g>
<g>
</g>
<g>
</g>
<g>
</g>
<g>
</g>
<g>
</g>
<g>
</g>
<g>
</g>
<g>
</g>
<g>
</g>
<g>
</g>
<g>
</g>
<g>
</g>
</svg>
