<?xml version="1.0" encoding="iso-8859-1"?>
<!-- Generator: Adobe Illustrator 16.0.4, SVG Export Plug-In . SVG Version: 6.00 Build 0)  -->
<!DOCTYPE svg PUBLIC "-//W3C//DTD SVG 1.1//EN" "http://www.w3.org/Graphics/SVG/1.1/DTD/svg11.dtd">
<svg version="1.1" id="Layer_1" xmlns="http://www.w3.org/2000/svg" xmlns:xlink="http://www.w3.org/1999/xlink" x="0px" y="0px"
	 width="56px" height="20px" viewBox="0 0 56 20" style="enable-background:new 0 0 56 20;" xml:space="preserve">
<g id="_x39_84-bone_x40_2x.png">
	<g>
		<path d="M53.443,10C54.988,9.005,56,7.362,56,5.5C56,2.463,53.313,0,50,0s-5,2.463-5,5.5c0,0.17,0.011,0.335,0.021,0.5H37H19
			h-8.021C10.989,5.835,11,5.67,11,5.5C11,2.463,9.313,0,6,0S0,2.463,0,5.5C0,7.362,1.012,9.005,2.557,10
			C1.012,10.995,0,12.638,0,14.5C0,17.538,2.687,20,6,20s5-2.462,5-5.5c0-0.169-0.011-0.334-0.021-0.5H19h18h8.021
			C45.011,14.166,45,14.331,45,14.5c0,3.038,1.687,5.5,5,5.5s6-2.462,6-5.5C56,12.638,54.988,10.995,53.443,10z M50,18
			c-2.209,0-3-1.566-3-3.5c0-0.98,0.207-1.864,0.695-2.5H19H8.305C8.794,12.636,9,13.52,9,14.5C9,16.434,8.209,18,6,18
			s-4-1.566-4-3.5C2,12.567,3.791,11,6,11c0.553,0,1-0.447,1-1S6.553,9,6,9C3.791,9,2,7.434,2,5.5C2,3.567,3.791,2,6,2
			s3,1.567,3,3.5C9,6.48,8.794,7.364,8.305,8H19h28.695C47.207,7.364,47,6.48,47,5.5C47,3.567,47.791,2,50,2s4,1.567,4,3.5
			C54,7.434,52.209,9,50,9c-0.553,0-1,0.447-1,1s0.447,1,1,1c2.209,0,4,1.567,4,3.5C54,16.434,52.209,18,50,18z"/>
	</g>
</g>
<g>
</g>
<g>
</g>
<g>
</g>
<g>
</g>
<g>
</g>
<g>
</g>
<g>
</g>
<g>
</g>
<g>
</g>
<g>
</g>
<g>
</g>
<g>
</g>
<g>
</g>
<g>
</g>
<g>
</g>
</svg>
