<?xml version="1.0" encoding="iso-8859-1"?>
<!-- Generator: Adobe Illustrator 16.0.4, SVG Export Plug-In . SVG Version: 6.00 Build 0)  -->
<!DOCTYPE svg PUBLIC "-//W3C//DTD SVG 1.1//EN" "http://www.w3.org/Graphics/SVG/1.1/DTD/svg11.dtd">
<svg version="1.1" id="Layer_1" xmlns="http://www.w3.org/2000/svg" xmlns:xlink="http://www.w3.org/1999/xlink" x="0px" y="0px"
	 width="44px" height="16px" viewBox="0 0 44 16" style="enable-background:new 0 0 44 16;" xml:space="preserve">
<g id="_x39_84-bone-toolbar_x40_2x.png">
	<g>
		<path d="M42.173,8C43.287,7.175,44,5.914,44,4.5C44,2.015,41.802,0,39.091,0S35,2.015,35,4.5c0,0.169,0.008,0.336,0.021,0.5H8.959
			C8.973,4.833,9,4.672,9,4.5C9,2.015,7.62,0,4.909,0S0,2.015,0,4.5C0,5.914,0.713,7.175,1.827,8C0.713,8.825,0,10.086,0,11.5
			C0,13.985,2.198,16,4.909,16S9,13.985,9,11.5c0-0.172-0.027-0.333-0.041-0.5h26.062C35.008,11.164,35,11.331,35,11.5
			c0,2.485,1.38,4.5,4.091,4.5S44,13.985,44,11.5C44,10.086,43.287,8.825,42.173,8z M39,9v0.014C39.05,9.011,39.091,9,39.143,9
			C40.721,9,42,10.119,42,11.5S40.721,14,39.143,14S37,12.881,37,11.5C37,9.029,35.05,9,35.004,9H8.996C8.95,9,7,9.029,7,11.5
			C7,12.881,6.436,14,4.857,14S2,12.881,2,11.5S3.279,9,4.857,9C4.909,9,4.95,9.011,5,9.014V9c0.553,0,1-0.447,1-1S5.553,7,5,7
			V6.986C4.95,6.989,4.909,7,4.857,7C3.279,7,2,5.881,2,4.5S3.279,2,4.857,2S7,3.119,7,4.5C7,7,9,7,9,7h26c0,0,2,0,2-2.5
			C37,3.119,37.564,2,39.143,2S42,3.119,42,4.5S40.721,7,39.143,7C39.091,7,39.05,6.989,39,6.986V7c-0.553,0-1,0.447-1,1
			S38.447,9,39,9z"/>
	</g>
</g>
<g>
</g>
<g>
</g>
<g>
</g>
<g>
</g>
<g>
</g>
<g>
</g>
<g>
</g>
<g>
</g>
<g>
</g>
<g>
</g>
<g>
</g>
<g>
</g>
<g>
</g>
<g>
</g>
<g>
</g>
</svg>
