<?xml version="1.0" encoding="iso-8859-1"?>
<!-- Generator: Adobe Illustrator 16.0.4, SVG Export Plug-In . SVG Version: 6.00 Build 0)  -->
<!DOCTYPE svg PUBLIC "-//W3C//DTD SVG 1.1//EN" "http://www.w3.org/Graphics/SVG/1.1/DTD/svg11.dtd">
<svg version="1.1" id="Layer_1" xmlns="http://www.w3.org/2000/svg" xmlns:xlink="http://www.w3.org/1999/xlink" x="0px" y="0px"
	 width="32px" height="44px" viewBox="0 0 32 44" style="enable-background:new 0 0 32 44;" xml:space="preserve">
<g id="_x39_61-book-32-toolbar_x40_2x.png">
	<g>
		<path d="M27.288,11.141l0.003-0.013L9.479,4.597L9.473,4.62C9.38,4.592,9.289,4.562,9.188,4.562c-0.552,0-1,0.448-1,1
			c0,0.473,0.334,0.85,0.774,0.954L8.959,6.528L26,12.776V40c0,0.553,0.447,1,1,1s1-0.447,1-1V12.062h-0.004
			C27.986,11.622,27.689,11.265,27.288,11.141z M31.253,8.051l0.005-0.017L9.399,0.085C9.39,0.081,9.38,0.079,9.371,0.075
			L9.258,0.034L9.253,0.051C9.17,0.029,9.09,0,9,0C8.775,0,8.578,0.088,8.41,0.214L8.4,0.2l-8,6l0.01,0.014C0.167,6.396,0,6.673,0,7
			v28c0,0.463,0.32,0.835,0.747,0.949l-0.005,0.018l21.858,7.948c0.01,0.004,0.02,0.006,0.029,0.01l0.112,0.042l0.005-0.018
			C22.83,43.971,22.91,44,23,44c0.553,0,1-0.447,1-1V15c0-0.463-0.32-0.834-0.747-0.949l0.005-0.017L3.074,6.694L9.17,2.122
			L30,9.696V37c0,0.553,0.447,1,1,1s1-0.447,1-1V9C32,8.537,31.68,8.165,31.253,8.051z M22,15.696v25.88L2,34.304V8.424L22,15.696z"
			/>
	</g>
</g>
<g>
</g>
<g>
</g>
<g>
</g>
<g>
</g>
<g>
</g>
<g>
</g>
<g>
</g>
<g>
</g>
<g>
</g>
<g>
</g>
<g>
</g>
<g>
</g>
<g>
</g>
<g>
</g>
<g>
</g>
</svg>
