<?xml version="1.0" encoding="iso-8859-1"?>
<!-- Generator: Adobe Illustrator 16.0.4, SVG Export Plug-In . SVG Version: 6.00 Build 0)  -->
<!DOCTYPE svg PUBLIC "-//W3C//DTD SVG 1.1//EN" "http://www.w3.org/Graphics/SVG/1.1/DTD/svg11.dtd">
<svg version="1.1" id="Layer_1" xmlns="http://www.w3.org/2000/svg" xmlns:xlink="http://www.w3.org/1999/xlink" x="0px" y="0px"
	 width="56px" height="48px" viewBox="0 0 56 48" style="enable-background:new 0 0 56 48;" xml:space="preserve">
<g id="_x37_21-bookmarks_x40_2x.png">
	<g>
		<path d="M52,0H31c-1.196,0-2.267,0.528-3,1.36C27.267,0.528,26.196,0,25,0H4C1.791,0,0,1.791,0,4v2v34c0,0,0,4,4,4s19,0,19,0
			s4,0,4,4h2c0,0,0-4,4-4h19c0,0,4,0,4-4c0-3.395,0-26.945,0-34V4C56,1.791,54.209,0,52,0z M27,6v37.5C26,42,24,42,24,42S6,42,4,42
			s-2-2-2-2S2,13.686,2,6V4c0-1.104,0.896-2,2-2h21c1.104,0,2,0.896,2,2V6z M54,6c0,7.686,0,34,0,34s0,2-2,2s-20,0-20,0s-2,0-3,1.5
			V6V4c0-1.104,0.896-2,2-2h21c1.104,0,2,0.896,2,2V6z"/>
	</g>
</g>
<g>
</g>
<g>
</g>
<g>
</g>
<g>
</g>
<g>
</g>
<g>
</g>
<g>
</g>
<g>
</g>
<g>
</g>
<g>
</g>
<g>
</g>
<g>
</g>
<g>
</g>
<g>
</g>
<g>
</g>
</svg>
