<?xml version="1.0" encoding="iso-8859-1"?>
<!-- Generator: Adobe Illustrator 16.0.4, SVG Export Plug-In . SVG Version: 6.00 Build 0)  -->
<!DOCTYPE svg PUBLIC "-//W3C//DTD SVG 1.1//EN" "http://www.w3.org/Graphics/SVG/1.1/DTD/svg11.dtd">
<svg version="1.1" id="Layer_1" xmlns="http://www.w3.org/2000/svg" xmlns:xlink="http://www.w3.org/1999/xlink" x="0px" y="0px"
	 width="40px" height="56px" viewBox="0 0 40 56" style="enable-background:new 0 0 40 56;" xml:space="preserve">
<g id="_x39_61-book-32_x40_2x.png">
	<g>
		<path d="M35.288,11.391l0.003-0.013l-25.5-7.031L9.785,4.37C9.693,4.342,9.601,4.312,9.5,4.312c-0.552,0-1,0.447-1,1
			c0,0.473,0.334,0.85,0.774,0.954L9.271,6.278L34,13.097V52c0,0.553,0.447,1,1,1s1-0.447,1-1V12.312h-0.004
			C35.986,11.872,35.689,11.515,35.288,11.391z M39.253,8.051l0.005-0.017l-30-8L9.253,0.051C9.17,0.029,9.09,0,9,0
			C8.775,0,8.578,0.088,8.41,0.214L8.4,0.2l-8,6l0.01,0.014C0.167,6.396,0,6.673,0,7v40c0,0.463,0.32,0.835,0.747,0.949
			l-0.005,0.018l30,7.999l0.005-0.017C30.83,55.971,30.91,56,31,56c0.553,0,1-0.447,1-1V15c0-0.463-0.32-0.835-0.747-0.949
			l0.005-0.017l-28.01-7.47l5.964-4.473L38,9.769V49c0,0.553,0.447,1,1,1s1-0.447,1-1V9C40,8.537,39.68,8.165,39.253,8.051z
			 M30,15.769v37.93L2,46.231V8.302L30,15.769z"/>
	</g>
</g>
<g>
</g>
<g>
</g>
<g>
</g>
<g>
</g>
<g>
</g>
<g>
</g>
<g>
</g>
<g>
</g>
<g>
</g>
<g>
</g>
<g>
</g>
<g>
</g>
<g>
</g>
<g>
</g>
<g>
</g>
</svg>
