<?xml version="1.0" encoding="iso-8859-1"?>
<!-- Generator: Adobe Illustrator 16.0.4, SVG Export Plug-In . SVG Version: 6.00 Build 0)  -->
<!DOCTYPE svg PUBLIC "-//W3C//DTD SVG 1.1//EN" "http://www.w3.org/Graphics/SVG/1.1/DTD/svg11.dtd">
<svg version="1.1" id="Layer_1" xmlns="http://www.w3.org/2000/svg" xmlns:xlink="http://www.w3.org/1999/xlink" x="0px" y="0px"
	 width="28px" height="56px" viewBox="0 0 28 56" style="enable-background:new 0 0 28 56;" xml:space="preserve">
<g id="_x39_11-bottle_x40_2x.png">
	<g>
		<path d="M11,6h6c1.104,0,2-0.896,2-2V2c0-1.104-0.896-2-2-2h-6C9.896,0,9,0.896,9,2v2C9,5.104,9.896,6,11,6z M26.535,15.535L19,8
			H9l-7.536,7.535C0.527,16.474,0,17.745,0,19.071V52c0,2.209,1.791,4,4,4h20c2.209,0,4-1.791,4-4V19.071
			C28,17.745,27.473,16.474,26.535,15.535z M26,52c0,1.103-0.897,2-2,2H4c-1.103,0-2-0.897-2-2v-9h24V52z M26,41H2v-4h24V41z M26,35
			H2v-4h24V35z M26,29H2v-4h24V29z M26,23H2v-3.929c0-0.801,0.312-1.555,0.878-2.122L9.829,10h8.342l6.95,6.948
			C25.688,17.517,26,18.271,26,19.071V23z"/>
	</g>
</g>
<g>
</g>
<g>
</g>
<g>
</g>
<g>
</g>
<g>
</g>
<g>
</g>
<g>
</g>
<g>
</g>
<g>
</g>
<g>
</g>
<g>
</g>
<g>
</g>
<g>
</g>
<g>
</g>
<g>
</g>
</svg>
