<?xml version="1.0" encoding="iso-8859-1"?>
<!-- Generator: Adobe Illustrator 16.0.4, SVG Export Plug-In . SVG Version: 6.00 Build 0)  -->
<!DOCTYPE svg PUBLIC "-//W3C//DTD SVG 1.1//EN" "http://www.w3.org/Graphics/SVG/1.1/DTD/svg11.dtd">
<svg version="1.1" id="Layer_1" xmlns="http://www.w3.org/2000/svg" xmlns:xlink="http://www.w3.org/1999/xlink" x="0px" y="0px"
	 width="20px" height="44px" viewBox="0 0 20 44" style="enable-background:new 0 0 20 44;" xml:space="preserve">
<g id="_x39_11-bottle-toolbar_x40_2x.png">
	<g>
		<path d="M8,4h4c1.104,0,2-0.896,2-2s-0.896-2-2-2H8C6.896,0,6,0.896,6,2S6.896,4,8,4z M18.535,10.535L14,6H6l-4.536,4.535
			C0.527,11.474,0,12.745,0,14.071V40c0,2.209,1.791,4,4,4h12c2.209,0,4-1.791,4-4V14.071C20,12.745,19.473,11.474,18.535,10.535z
			 M18,40c0,1.103-0.897,2-2,2H4c-1.103,0-2-0.897-2-2v-7h16V40z M18,31H2v-2h16V31z M18,27H2v-4h16V27z M18,21H2v-2h16V21z M18,17
			H2v-2.929c0-0.801,0.312-1.555,0.878-2.122L6.829,8h6.343l3.949,3.948C17.688,12.517,18,13.271,18,14.071V17z"/>
	</g>
</g>
<g>
</g>
<g>
</g>
<g>
</g>
<g>
</g>
<g>
</g>
<g>
</g>
<g>
</g>
<g>
</g>
<g>
</g>
<g>
</g>
<g>
</g>
<g>
</g>
<g>
</g>
<g>
</g>
<g>
</g>
</svg>
