<?xml version="1.0" encoding="iso-8859-1"?>
<!-- Generator: Adobe Illustrator 16.0.4, SVG Export Plug-In . SVG Version: 6.00 Build 0)  -->
<!DOCTYPE svg PUBLIC "-//W3C//DTD SVG 1.1//EN" "http://www.w3.org/Graphics/SVG/1.1/DTD/svg11.dtd">
<svg version="1.1" id="Layer_1" xmlns="http://www.w3.org/2000/svg" xmlns:xlink="http://www.w3.org/1999/xlink" x="0px" y="0px"
	 width="40px" height="44px" viewBox="0 0 40 44" style="enable-background:new 0 0 40 44;" xml:space="preserve">
<g id="_x39_76-bow-and-arrow-toolbar_x40_2x.png">
	<g>
		<path d="M40,10c0-0.441-0.291-0.805-0.688-0.937l0.004-0.012l-4.969-1.625l-0.004,0.012c-0.1-0.033-0.201-0.063-0.312-0.063
			c-0.553,0-1,0.448-1,1c0,0.441,0.291,0.805,0.688,0.938l-0.004,0.012l2.731,0.893l-7.527,3.973C23.709,4,12.941,0,5,0
			C4.447,0,4,0.448,4,1c0,0.553,0.447,1,1,1c0.132,0,0.271,0.011,0.404,0.013L15.57,21.235L8.304,25.07l-3.821-2.954
			c-0.479-0.276-1.09-0.112-1.366,0.366s-0.112,1.09,0.366,1.366l2.896,2.237L4.987,26.82L1.5,24.121
			c-0.479-0.276-1.09-0.113-1.366,0.365c-0.275,0.479-0.112,1.09,0.366,1.366l2.562,1.983l-0.528,0.279l0.006,0.011
			C2.224,28.294,2,28.616,2,29c0,0.553,0.447,1,1,1c0.169,0,0.32-0.053,0.46-0.126l0.006,0.011L4,29.604V33c0,0.553,0.447,1,1,1
			s1-0.447,1-1v-4.452l1-0.528V31c0,0.553,0.447,1,1,1s1-0.447,1-1v-4.036l7.506-3.961L26.52,41.938
			c-0.179,0.276-0.295,0.431-0.301,0.438c-0.345,0.431-0.274,1.061,0.156,1.405C26.56,43.929,26.78,44,26.999,44
			c0.294,0,0.584-0.129,0.782-0.375C27.953,43.409,32,38.233,32,28c0-4.648-0.833-8.62-2.237-11.994l7.595-4.008l-0.806,2.686
			l0.012,0.004C36.53,14.787,36.5,14.89,36.5,15c0,0.553,0.447,1,1,1c0.441,0,0.805-0.291,0.937-0.688l0.013,0.004l1.5-5
			l-0.012-0.004C39.971,10.213,40,10.111,40,10z M7.749,2.167c6.913,0.81,15.126,4.671,19.378,12.969l-9.788,5.166L7.749,2.167z
			 M30,28c0,5.527-1.271,9.469-2.341,11.814l-9.385-17.745l9.693-5.115C29.245,20.066,30,23.726,30,28z"/>
	</g>
</g>
<g>
</g>
<g>
</g>
<g>
</g>
<g>
</g>
<g>
</g>
<g>
</g>
<g>
</g>
<g>
</g>
<g>
</g>
<g>
</g>
<g>
</g>
<g>
</g>
<g>
</g>
<g>
</g>
<g>
</g>
</svg>
