<?xml version="1.0" encoding="iso-8859-1"?>
<!-- Generator: Adobe Illustrator 16.0.4, SVG Export Plug-In . SVG Version: 6.00 Build 0)  -->
<!DOCTYPE svg PUBLIC "-//W3C//DTD SVG 1.1//EN" "http://www.w3.org/Graphics/SVG/1.1/DTD/svg11.dtd">
<svg version="1.1" id="Layer_1" xmlns="http://www.w3.org/2000/svg" xmlns:xlink="http://www.w3.org/1999/xlink" x="0px" y="0px"
	 width="56px" height="28px" viewBox="0 0 56 28" style="enable-background:new 0 0 56 28;" xml:space="preserve">
<g id="_x31_002-bow-tie_x40_2x.png">
	<g>
		<path d="M53.052,0c-0.144,0-0.278,0.035-0.401,0.092l-0.002-0.004L33.601,8.812C33.235,8.321,32.657,8,32,8h-8
			c-0.597,0-1.127,0.267-1.493,0.682L3.41,0.088L3.409,0.092C3.283,0.035,3.146,0,3,0C2,0,0,0,0,14s2,14,3,14
			c0.146,0,0.283-0.035,0.409-0.092l0.001,0.004l19.097-8.594C22.873,19.733,23.403,20,24,20h8c0.657,0,1.235-0.321,1.601-0.812
			l19.048,8.724l0.002-0.004C52.773,27.965,52.908,28,53.052,28C54.035,28,56,28,56,14S54.035,0,53.052,0z M22,17.354L2.967,25.919
			C2.797,25.478,2,22.937,2,14S2.797,2.522,2.967,2.082L22,10.646V17.354z M32,18h-8v-8h8V18z M53.085,25.919L34,17.179v-6.357
			l19.085-8.739c0.167,0.44,0.95,2.981,0.95,11.918S53.252,25.478,53.085,25.919z"/>
	</g>
</g>
<g>
</g>
<g>
</g>
<g>
</g>
<g>
</g>
<g>
</g>
<g>
</g>
<g>
</g>
<g>
</g>
<g>
</g>
<g>
</g>
<g>
</g>
<g>
</g>
<g>
</g>
<g>
</g>
<g>
</g>
</svg>
