<?xml version="1.0" encoding="iso-8859-1"?>
<!-- Generator: Adobe Illustrator 16.0.4, SVG Export Plug-In . SVG Version: 6.00 Build 0)  -->
<!DOCTYPE svg PUBLIC "-//W3C//DTD SVG 1.1//EN" "http://www.w3.org/Graphics/SVG/1.1/DTD/svg11.dtd">
<svg version="1.1" id="Layer_1" xmlns="http://www.w3.org/2000/svg" xmlns:xlink="http://www.w3.org/1999/xlink" x="0px" y="0px"
	 width="44px" height="20px" viewBox="0 0 44 20" style="enable-background:new 0 0 44 20;" xml:space="preserve">
<g id="_x31_002-bow-tie-toolbar_x40_2x.png">
	<g>
		<path d="M41.052,0c-0.144,0-0.278,0.035-0.401,0.092l-0.002-0.004L27.636,4.854C27.273,4.339,26.678,4,26,4h-8
			c-0.678,0-1.273,0.339-1.636,0.854L3.352,0.088L3.35,0.092C3.227,0.035,3.092,0,2.948,0C1.965,0,0,0,0,10s1.965,10,2.948,10
			c0.144,0,0.278-0.035,0.401-0.092l0.002,0.004l13.013-4.766C16.727,15.661,17.322,16,18,16h8c0.678,0,1.273-0.339,1.636-0.854
			l13.013,4.766l0.002-0.004C40.773,19.965,40.908,20,41.052,20C42.035,20,44,20,44,10S42.035,0,41.052,0z M16,13.16L2.926,17.948
			C2.79,17.621,1.997,15.484,1.965,10C1.997,4.516,2.79,2.379,2.926,2.052L16,6.84V13.16z M26,14h-8V6h8V14z M41.074,17.948
			L28,13.16V6.84l13.074-4.788C41.21,2.379,42.003,4.516,42.035,10C42.003,15.484,41.21,17.621,41.074,17.948z"/>
	</g>
</g>
<g>
</g>
<g>
</g>
<g>
</g>
<g>
</g>
<g>
</g>
<g>
</g>
<g>
</g>
<g>
</g>
<g>
</g>
<g>
</g>
<g>
</g>
<g>
</g>
<g>
</g>
<g>
</g>
<g>
</g>
</svg>
