<?xml version="1.0" encoding="iso-8859-1"?>
<!-- Generator: Adobe Illustrator 16.0.4, SVG Export Plug-In . SVG Version: 6.00 Build 0)  -->
<!DOCTYPE svg PUBLIC "-//W3C//DTD SVG 1.1//EN" "http://www.w3.org/Graphics/SVG/1.1/DTD/svg11.dtd">
<svg version="1.1" id="Layer_1" xmlns="http://www.w3.org/2000/svg" xmlns:xlink="http://www.w3.org/1999/xlink" x="0px" y="0px"
	 width="44.009px" height="56px" viewBox="0 0 44.009 56" style="enable-background:new 0 0 44.009 56;" xml:space="preserve">
<g id="_x39_76-bow-and-arrow_x40_2x.png">
	<g>
		<path d="M44.009,13c0-0.441-0.291-0.805-0.688-0.937l0.004-0.012l-6-2l-0.004,0.012C37.222,10.03,37.119,10,37.009,10
			c-0.553,0-1,0.448-1,1c0,0.441,0.291,0.805,0.688,0.938l-0.004,0.012l3.775,1.258l-9.59,5.048C24.991,6.653,14.106,0,1,0
			C0.447,0,0,0.448,0,1c0,0.553,0.447,1,1,1c0.133,0,0.262,0.011,0.394,0.013l12.759,25.045l-3.893,2.049l-4.8-2.771
			c-0.479-0.276-1.09-0.112-1.366,0.366s-0.112,1.09,0.366,1.366l3.707,2.141l-1.046,0.55l-4.894-2.824
			c-0.479-0.276-1.09-0.112-1.366,0.365c-0.275,0.479-0.112,1.09,0.366,1.366l3.801,2.194l-0.485,0.256l0.006,0.011
			c-0.316,0.168-0.54,0.49-0.54,0.874c0,0.553,0.447,1,1,1c0.169,0,0.32-0.053,0.46-0.126l0.006,0.011l0.534-0.281V38
			c0,0.553,0.447,1,1,1s1-0.447,1-1v-5.449l1-0.526V36c0,0.553,0.447,1,1,1s1-0.447,1-1v-5.028l4.052-2.132l12.643,24.816
			c-0.171,0.249-0.329,0.508-0.508,0.751c-0.328,0.444-0.233,1.07,0.212,1.398C27.585,55.937,27.793,56,27.999,56
			c0.307,0,0.61-0.141,0.806-0.406c7.079-9.607,8.167-23.654,2.919-35.524l9.55-5.026l-1.213,3.641l0.012,0.004
			c-0.033,0.1-0.063,0.202-0.063,0.312c0,0.553,0.447,1,1,1c0.441,0,0.805-0.291,0.937-0.688l0.013,0.004l1.999-6l-0.012-0.004
			C43.979,13.213,44.009,13.111,44.009,13z M3.688,2.112c11.127,0.847,20.298,6.956,25.421,17.073l-13.188,6.94L3.688,2.112z
			 M28.939,51.68L16.83,27.908l13.129-6.909C34.389,31.12,33.96,42.861,28.939,51.68z"/>
	</g>
</g>
<g>
</g>
<g>
</g>
<g>
</g>
<g>
</g>
<g>
</g>
<g>
</g>
<g>
</g>
<g>
</g>
<g>
</g>
<g>
</g>
<g>
</g>
<g>
</g>
<g>
</g>
<g>
</g>
<g>
</g>
</svg>
