<?xml version="1.0" encoding="iso-8859-1"?>
<!-- Generator: Adobe Illustrator 16.0.4, SVG Export Plug-In . SVG Version: 6.00 Build 0)  -->
<!DOCTYPE svg PUBLIC "-//W3C//DTD SVG 1.1//EN" "http://www.w3.org/Graphics/SVG/1.1/DTD/svg11.dtd">
<svg version="1.1" id="Layer_1" xmlns="http://www.w3.org/2000/svg" xmlns:xlink="http://www.w3.org/1999/xlink" x="0px" y="0px"
	 width="43.943px" height="44px" viewBox="0 0 43.943 44" style="enable-background:new 0 0 43.943 44;" xml:space="preserve">
<g id="_x31_153-bowling-pins_x40_2x.png">
	<g>
		<path d="M40.375,19.571c0-3.857,1.19-4.544,1.19-7.714c0,0,0-3.857-3.568-3.857c-1.528,0-2.398,0.709-2.897,1.519
			c0.04-0.374,0.063-0.78,0.063-1.232c0,0,0-4.286-4.164-4.286c-4.161,0-4.161,4.286-4.161,4.286c0,2.533,0.715,3.645,1.118,5.661
			V15h0.165c0.063,0.544,0.104,1.149,0.104,1.857c0,2.101-0.38,3.591-0.908,4.84c-1.133-1.904-2.218-3.888-2.218-7.555
			c0-4.714,1.582-5.554,1.582-9.428c0,0,0-4.715-4.747-4.715c-4.75,0-4.75,4.715-4.75,4.715c0,3.874,1.584,4.714,1.584,9.428
			c0,3.632-1.064,5.612-2.186,7.5c-0.516-1.238-0.885-2.715-0.885-4.785c0-0.708,0.04-1.313,0.103-1.857h0.157v-1.017
			c0.4-2.039,1.124-3.148,1.124-5.697c0,0,0-4.286-4.155-4.286C8.768,4,8.768,8.286,8.768,8.286c0,0.452,0.023,0.858,0.063,1.232
			C8.333,8.709,7.463,8,5.938,8c-3.562,0-3.562,3.857-3.562,3.857c0,3.17,1.188,3.856,1.188,7.714c0,6.341-3.634,6.534-3.562,12.945
			C0.062,37.87,3.476,44,3.476,44h2.461h2.462c0,0,0.339-0.615,0.803-1.61c0.496,1,0.851,1.61,0.851,1.61h2.872h2.873
			c0,0,0.63-1.084,1.392-2.751C18.001,42.931,18.651,44,18.651,44h3.281h3.281c0,0,0.664-1.096,1.489-2.81
			c0.775,1.7,1.42,2.81,1.42,2.81h2.876h2.876c0,0,0.355-0.61,0.852-1.61c0.464,0.995,0.804,1.61,0.804,1.61h2.465h2.465
			c0,0,3.42-6.13,3.48-11.483C44.015,26.105,40.375,25.912,40.375,19.571z M37.997,10c1.274,0,1.564,1.021,1.584,1.879
			c0,1.205-0.21,1.941-0.475,2.873c-0.11,0.388-0.224,0.797-0.329,1.248h-1.559c-0.104-0.45-0.218-0.859-0.329-1.247
			c-0.265-0.933-0.474-1.669-0.474-2.896C36.435,11.021,36.725,10,37.997,10z M38.406,20h-0.819
			c0.004-0.146,0.016-0.277,0.016-0.429c0-0.581-0.024-1.101-0.066-1.571h0.918c-0.042,0.471-0.066,0.99-0.066,1.571
			C38.39,19.723,38.402,19.854,38.406,20z M33.877,15h0.11v-0.772c0.127-0.717,0.296-1.316,0.466-1.891
			c0.118,2.752,1.166,3.591,1.166,7.234c0,1.309-0.164,2.339-0.41,3.232c-0.785-1.487-1.435-3.194-1.435-5.946
			C33.774,16.149,33.814,15.544,33.877,15z M30.999,6c1.855,0,2.165,1.445,2.184,2.307c0,1.359-0.247,2.185-0.559,3.23
			C32.488,11.99,32.348,12.468,32.22,13h-2.441c-0.127-0.532-0.268-1.01-0.402-1.462c-0.312-1.046-0.558-1.872-0.558-3.252
			C28.837,7.445,29.146,6,30.999,6z M31.839,18H30.16c0.024-0.367,0.045-0.739,0.045-1.143c0-0.694-0.035-1.304-0.091-1.857h1.771
			c-0.056,0.554-0.091,1.163-0.091,1.857C31.794,17.261,31.815,17.633,31.839,18z M21.932,2c2.445,0,2.75,1.912,2.768,2.715
			c0,1.537-0.284,2.454-0.643,3.615c-0.16,0.516-0.326,1.058-0.475,1.67h-3.301c-0.149-0.612-0.316-1.155-0.476-1.672
			c-0.36-1.16-0.644-2.077-0.644-3.594C19.18,3.912,19.484,2,21.932,2z M23.22,16h-2.575c0.06-0.581,0.102-1.188,0.102-1.857
			c0-0.808-0.045-1.508-0.116-2.143h2.604c-0.071,0.635-0.116,1.335-0.116,2.143C23.118,14.812,23.16,15.419,23.22,16z M12.925,6
			c1.851,0,2.159,1.445,2.178,2.286c0,1.38-0.246,2.206-0.557,3.252c-0.135,0.452-0.275,0.93-0.402,1.462h-2.438
			c-0.127-0.532-0.268-1.01-0.403-1.463c-0.312-1.046-0.558-1.871-0.558-3.23C10.764,7.445,11.072,6,12.925,6z M13.763,18h-1.676
			c0.023-0.367,0.044-0.739,0.044-1.143c0-0.694-0.035-1.304-0.09-1.857h1.768c-0.055,0.554-0.09,1.163-0.09,1.857
			C13.718,17.261,13.74,17.633,13.763,18z M9.476,12.337c0.177,0.599,0.352,1.227,0.48,1.985V15h0.095
			c0.063,0.544,0.104,1.149,0.104,1.857c0,2.752-0.649,4.459-1.433,5.946c-0.245-0.894-0.409-1.924-0.409-3.232
			C8.312,15.928,9.359,15.089,9.476,12.337z M5.938,10c1.271,0,1.56,1.021,1.579,1.857c0,1.227-0.208,1.963-0.473,2.896
			C6.934,15.141,6.82,15.55,6.715,16H5.159c-0.104-0.451-0.219-0.86-0.329-1.248c-0.265-0.932-0.474-1.668-0.474-2.873
			C4.376,11.021,4.666,10,5.938,10z M6.347,20H5.529c0.004-0.146,0.016-0.277,0.016-0.429c0-0.581-0.024-1.101-0.066-1.571h0.917
			c-0.042,0.471-0.066,0.99-0.066,1.571C6.331,19.723,6.343,19.854,6.347,20z M7.191,42H5.938H4.685
			c-0.901-1.862-2.662-5.946-2.702-9.506c-0.03-2.703,0.657-3.958,1.528-5.548c0.717-1.31,1.506-2.753,1.853-4.946h1.148
			c0.197,1.246,0.541,2.235,0.929,3.107c-0.808,1.524-1.476,3.268-1.442,6.133c0.036,3.019,1.079,6.255,2.098,8.714
			C7.765,40.77,7.444,41.478,7.191,42z M14.624,42h-1.699h-1.7c-1.029-1.995-3.201-6.682-3.25-10.783
			c-0.036-3.037,0.816-4.519,1.803-6.234c0.773-1.345,1.611-2.831,2.047-4.982h2.199c0.309,1.521,0.82,2.7,1.365,3.741
			c-0.793,1.56-1.406,3.394-1.371,6.224c0.037,3.009,1.02,6.21,2.07,8.799C15.554,40.103,15.01,41.25,14.624,42z M24.063,42h-2.131
			H19.8c-1.149-2.125-3.745-7.428-3.802-12.061c-0.042-3.378,0.942-5.024,2.082-6.932c0.823-1.377,1.71-2.889,2.226-5.008h3.255
			c0.516,2.119,1.402,3.631,2.226,5.008c1.139,1.907,2.123,3.554,2.082,6.932C27.81,34.556,25.212,39.871,24.063,42z M32.702,42
			h-1.703h-1.702c-0.393-0.763-0.95-1.938-1.494-3.305c1.04-2.577,2.005-5.749,2.042-8.73c0.035-2.796-0.563-4.618-1.343-6.166
			c0.557-1.055,1.081-2.251,1.395-3.799h2.203c0.437,2.151,1.275,3.638,2.05,4.982c0.988,1.716,1.841,3.197,1.805,6.234
			C35.908,35.318,33.733,40.005,32.702,42z M39.252,42h-1.255h-1.255c-0.253-0.522-0.575-1.23-0.906-2.046
			c1.021-2.459,2.065-5.695,2.101-8.714c0.034-2.865-0.635-4.608-1.445-6.133c0.389-0.872,0.733-1.861,0.931-3.107h1.149
			c0.348,2.193,1.138,3.637,1.856,4.946c0.872,1.59,1.561,2.845,1.53,5.548C41.917,36.054,40.154,40.138,39.252,42z"/>
	</g>
</g>
<g>
</g>
<g>
</g>
<g>
</g>
<g>
</g>
<g>
</g>
<g>
</g>
<g>
</g>
<g>
</g>
<g>
</g>
<g>
</g>
<g>
</g>
<g>
</g>
<g>
</g>
<g>
</g>
<g>
</g>
</svg>
