<?xml version="1.0" encoding="iso-8859-1"?>
<!-- Generator: Adobe Illustrator 16.0.4, SVG Export Plug-In . SVG Version: 6.00 Build 0)  -->
<!DOCTYPE svg PUBLIC "-//W3C//DTD SVG 1.1//EN" "http://www.w3.org/Graphics/SVG/1.1/DTD/svg11.dtd">
<svg version="1.1" id="Layer_1" xmlns="http://www.w3.org/2000/svg" xmlns:xlink="http://www.w3.org/1999/xlink" x="0px" y="0px"
	 width="39.939px" height="44px" viewBox="0 0 39.939 44" style="enable-background:new 0 0 39.939 44;" xml:space="preserve">
<g id="_x31_152-bowling-pin-and-ball_x40_2x.png">
	<g>
		<path d="M31.939,28c-1.104,0-2,0.896-2,2s0.896,2,2,2s2-0.896,2-2S33.043,28,31.939,28z M25.939,16
			c-5.099,0-9.53,2.747-11.978,6.821c-1.33-2.312-2.881-4.293-2.881-8.679c0-4.714,1.581-5.554,1.581-9.428c0,0,0-4.715-4.747-4.715
			c-4.75,0-4.75,4.715-4.75,4.715c0,3.874,1.584,4.714,1.584,9.428c0,7.75-4.845,7.986-4.748,15.822C0.082,36.509,4.634,44,4.634,44
			h3.281h3.281c0,0,1.679-2.772,3.016-6.412C16.707,41.436,21.012,44,25.939,44c7.732,0,14-6.268,14-14
			C39.939,22.269,33.671,16,25.939,16z M7.915,2c2.445,0,2.75,1.912,2.768,2.715c0,1.537-0.284,2.454-0.643,3.615
			C9.973,8.547,9.905,8.771,9.837,9H5.992C5.924,8.771,5.856,8.546,5.789,8.328c-0.36-1.16-0.644-2.077-0.644-3.594
			C5.163,3.912,5.468,2,7.915,2z M9.359,11c-0.147,0.837-0.248,1.809-0.255,3H6.726c-0.008-1.191-0.108-2.163-0.256-3H9.359z
			 M10.046,42H7.915H5.783c-1.149-2.125-3.745-7.428-3.802-12.061c-0.042-3.378,0.942-5.024,2.082-6.932
			C5.123,21.233,6.293,19.244,6.627,16h2.575c0.334,3.244,1.505,5.233,2.565,7.008c1.139,1.907,2.123,3.554,2.082,6.932
			C13.792,34.556,11.195,39.871,10.046,42z M25.939,42c-4.852,0-8.989-2.9-10.879-7.044c0.443-1.634,0.749-3.343,0.769-4.991
			c0.026-2.096-0.307-3.641-0.801-4.938C16.918,20.884,21.088,18,25.939,18c6.627,0,12,5.373,12,12S32.566,42,25.939,42z M23.939,28
			c-1.104,0-2,0.896-2,2s0.896,2,2,2s2-0.896,2-2S25.043,28,23.939,28z M27.939,22c-1.104,0-2,0.896-2,2s0.896,2,2,2s2-0.896,2-2
			S29.043,22,27.939,22z"/>
	</g>
</g>
<g>
</g>
<g>
</g>
<g>
</g>
<g>
</g>
<g>
</g>
<g>
</g>
<g>
</g>
<g>
</g>
<g>
</g>
<g>
</g>
<g>
</g>
<g>
</g>
<g>
</g>
<g>
</g>
<g>
</g>
</svg>
