<?xml version="1.0" encoding="UTF-8" standalone="no"?>
<svg width="57px" height="58px" viewBox="0 0 57 58" version="1.1" xmlns="http://www.w3.org/2000/svg" xmlns:xlink="http://www.w3.org/1999/xlink" xmlns:sketch="http://www.bohemiancoding.com/sketch/ns">
    <!-- Generator: Sketch 3.0.4 (8053) - http://www.bohemiancoding.com/sketch -->
    <title>1153-bowling-pins</title>
    <desc>Created with Sketch.</desc>
    <defs></defs>
    <g id="Page-1" stroke="none" stroke-width="1" fill="none" fill-rule="evenodd" sketch:type="MSPage">
        <g id="Glyphish-8-Icons" sketch:type="MSArtboardGroup" transform="translate(-212.000000, -499.000000)" fill="#000000">
            <g id="1153-bowling-pins" sketch:type="MSLayerGroup" transform="translate(212.036996, 499.860499)">
                <g id="_x31_153-bowling-pins_x40_2x.png" sketch:type="MSShapeGroup">
                    <path d="M51.083,24.786 C51.083,19.857 52.665,18.979 52.665,14.929 C52.665,14.929 52.665,10 47.917,10 C45.903,10 44.754,10.887 44.088,11.906 C44.197,11.223 44.267,10.468 44.267,9.571 C44.267,9.571 44.267,4 38.928,4 C33.585,4 33.585,9.571 33.585,9.571 C33.585,14.15 35.367,15.142 35.367,20.715 C35.367,23.381 34.901,25.288 34.248,26.89 C32.995,24.67 31.893,22.205 31.893,18 C31.893,12 33.869,10.932 33.869,6 C33.869,6 33.869,-3.55271368e-15 27.936,-3.55271368e-15 C22,-3.55271368e-15 22,6 22,6 C22,10.932 23.979,12 23.979,18 C23.979,22.216 22.871,24.683 21.614,26.906 C20.957,25.302 20.489,23.39 20.489,20.715 C20.489,15.143 22.267,14.151 22.267,9.571 C22.267,9.571 22.267,4 16.928,4 C11.585,4 11.585,9.571 11.585,9.571 C11.585,10.478 11.657,11.242 11.769,11.931 C11.102,10.901 9.945,10 7.917,10 C3.167,10 3.167,14.929 3.167,14.929 C3.167,18.98 4.751,19.858 4.751,24.786 C4.751,32.888 -0.095,33.135 0.002,41.327 C0.082,48.168 4.634,56 4.634,56 L7.916,56 L11.198,56 C11.198,56 11.624,55.262 12.215,54.055 C12.813,55.264 13.235,56 13.235,56 L16.926,56 L20.617,56 C20.617,56 21.313,54.79 22.195,52.887 C23.119,54.794 23.834,56 23.834,56 L27.935,56 L32.036,56 C32.036,56 32.747,54.801 33.666,52.904 C34.544,54.797 35.236,56 35.236,56 L38.927,56 L42.618,56 C42.618,56 43.036,55.271 43.627,54.076 C44.213,55.271 44.634,56 44.634,56 L47.916,56 L51.198,56 C51.198,56 55.75,48.168 55.831,41.327 C55.928,33.135 51.083,32.888 51.083,24.786 L51.083,24.786 Z M47.917,12 C50.37,12 50.672,14.061 50.688,14.929 C50.688,16.562 50.401,17.532 50.039,18.758 C49.923,19.152 49.803,19.561 49.689,20 L46.145,20 C46.03,19.56 45.91,19.15 45.794,18.757 C45.43,17.53 45.143,16.562 45.143,14.929 C45.142,14.439 45.276,12 47.917,12 L47.917,12 Z M49.154,26 L46.673,26 C46.697,25.604 46.727,25.218 46.727,24.786 C46.727,23.705 46.657,22.795 46.546,22 L49.287,22 C49.177,22.795 49.107,23.705 49.107,24.786 C49.106,25.215 49.13,25.607 49.154,26 L49.154,26 Z M43.179,15.467 C43.313,19.064 44.75,20.086 44.75,24.786 C44.75,26.233 44.585,27.414 44.33,28.447 C43.322,26.513 42.487,24.294 42.487,20.715 C42.488,18.346 42.81,16.808 43.179,15.467 L43.179,15.467 Z M38.927,6 C41.993,6 42.275,8.745 42.288,9.571 C42.288,11.458 41.944,12.626 41.546,13.978 C41.362,14.6 41.17,15.254 41.002,15.999 L36.851,15.999 C36.682,15.254 36.489,14.6 36.306,13.977 C35.907,12.624 35.563,11.456 35.563,9.586 C35.615,6.259 38.151,6 38.927,6 L38.927,6 Z M40.559,22 L37.307,22 C37.33,21.588 37.345,21.162 37.345,20.715 C37.345,19.679 37.283,18.794 37.19,18 L40.665,18 C40.571,18.794 40.51,19.679 40.51,20.715 C40.509,21.168 40.536,21.582 40.559,22 L40.559,22 Z M23.977,6.016 C23.991,5.073 24.32,2 27.935,2 C31.547,2 31.875,5.073 31.89,6 C31.89,8.045 31.506,9.31 31.061,10.773 C30.942,11.165 30.82,11.572 30.702,12 L25.168,12 C25.049,11.572 24.927,11.164 24.808,10.772 C24.361,9.309 23.977,8.045 23.977,6.016 L23.977,6.016 Z M30.245,14 C30.049,15.104 29.913,16.392 29.913,18 L25.957,18 C25.957,16.392 25.821,15.104 25.624,14 L30.245,14 L30.245,14 Z M16.927,6 C19.993,6 20.275,8.745 20.288,9.571 C20.288,11.458 19.944,12.626 19.546,13.978 C19.362,14.6 19.17,15.254 19.002,15.999 L14.851,15.999 C14.682,15.254 14.489,14.6 14.306,13.977 C13.907,12.624 13.563,11.456 13.563,9.586 C13.615,6.259 16.151,6 16.927,6 L16.927,6 Z M18.546,22 L15.294,22 C15.318,21.582 15.344,21.168 15.344,20.715 C15.344,19.679 15.282,18.794 15.189,18 L18.664,18 C18.57,18.794 18.509,19.679 18.509,20.715 C18.509,21.162 18.523,21.588 18.546,22 L18.546,22 Z M12.653,15.393 C13.032,16.75 13.366,18.303 13.366,20.715 C13.366,24.312 12.523,26.535 11.509,28.475 C11.25,27.436 11.083,26.246 11.083,24.787 C11.083,20.055 12.536,19.049 12.653,15.393 L12.653,15.393 Z M7.917,12 C10.37,12 10.672,14.061 10.688,14.929 C10.688,16.562 10.401,17.532 10.039,18.758 C9.922,19.151 9.802,19.561 9.688,20 L6.144,20 C6.029,19.56 5.91,19.15 5.793,18.757 C5.429,17.53 5.142,16.562 5.142,14.929 C5.142,14.439 5.276,12 7.917,12 L7.917,12 Z M9.161,26 L6.679,26 C6.703,25.607 6.726,25.215 6.726,24.786 C6.726,23.705 6.656,22.795 6.545,22 L9.286,22 C9.176,22.795 9.106,23.705 9.106,24.786 C9.106,25.218 9.137,25.604 9.161,26 L9.161,26 Z M10.026,54 L7.917,54 L5.807,54 C4.656,51.773 2.035,46.176 1.977,41.303 C1.935,37.725 2.928,35.987 4.078,33.975 C4.99,32.38 5.986,30.621 6.453,28 L9.385,28 C9.579,29.078 9.858,30.02 10.189,30.854 C9.016,32.981 7.977,35.32 8.024,39.414 C8.075,43.742 9.701,48.42 11.123,51.701 C10.708,52.639 10.318,53.435 10.026,54 L10.026,54 Z M19.443,54 L16.926,54 L14.41,54 C13.146,51.561 10.069,45.055 10.003,39.39 C9.955,35.27 11.089,33.276 12.402,30.967 C13.449,29.125 14.598,27.091 15.093,24 L18.766,24 C19.097,26.05 19.71,27.641 20.397,29.012 C19.114,31.278 17.992,33.787 18.044,38.137 C18.096,42.416 19.622,47.004 21.094,50.463 C20.463,51.958 19.856,53.204 19.443,54 L19.443,54 Z M30.881,54 L27.935,54 L24.989,54 C23.616,51.45 20.097,44.318 20.023,38.112 C19.969,33.648 21.236,31.489 22.704,28.988 C24.03,26.726 25.508,24.199 25.871,20 L29.999,20 C30.362,24.199 31.84,26.727 33.166,28.988 C34.633,31.489 35.901,33.648 35.847,38.112 C35.772,44.318 32.253,51.451 30.881,54 L30.881,54 Z M41.443,54 L38.926,54 L36.41,54 C35.999,53.207 35.396,51.968 34.767,50.481 C36.242,47.02 37.773,42.423 37.825,38.136 C37.878,33.777 36.75,31.265 35.464,28.994 C36.148,27.627 36.758,26.041 37.088,23.999 L40.761,23.999 C41.256,27.091 42.405,29.124 43.452,30.966 C44.765,33.275 45.899,35.269 45.85,39.389 C45.784,45.056 42.708,51.562 41.443,54 L41.443,54 Z M50.026,54 L47.917,54 L45.808,54 C45.518,53.439 45.133,52.651 44.721,51.724 C46.145,48.441 47.779,43.751 47.829,39.413 C47.877,35.307 46.832,32.967 45.654,30.835 C45.982,30.006 46.257,29.07 46.449,28 L49.38,28 C49.847,30.621 50.843,32.38 51.755,33.975 C52.905,35.987 53.899,37.725 53.857,41.303 C53.798,46.176 51.176,51.774 50.026,54 L50.026,54 Z" id="Shape"></path>
                </g>
            </g>
        </g>
    </g>
</svg>