<?xml version="1.0" encoding="iso-8859-1"?>
<!-- Generator: Adobe Illustrator 16.0.4, SVG Export Plug-In . SVG Version: 6.00 Build 0)  -->
<!DOCTYPE svg PUBLIC "-//W3C//DTD SVG 1.1//EN" "http://www.w3.org/Graphics/SVG/1.1/DTD/svg11.dtd">
<svg version="1.1" id="Layer_1" xmlns="http://www.w3.org/2000/svg" xmlns:xlink="http://www.w3.org/1999/xlink" x="0px" y="0px"
	 width="44px" height="44px" viewBox="0 0 44 44" style="enable-background:new 0 0 44 44;" xml:space="preserve">
<g id="_x31_089-bowling-ball-toolbar_x40_2x.png">
	<g>
		<path d="M12.989,14.009c-1.658,0-3.002,1.344-3.002,3.002s1.344,3.002,3.002,3.002s3.002-1.344,3.002-3.002
			S14.647,14.009,12.989,14.009z M13.003,18.003c-0.556,0-1.006-0.45-1.006-1.006s0.45-1.006,1.006-1.006s1.006,0.45,1.006,1.006
			S13.559,18.003,13.003,18.003z M21.991,11.011c0-1.658-1.344-3.002-3.002-3.002s-3.002,1.344-3.002,3.002s1.344,3.002,3.002,3.002
			S21.991,12.669,21.991,11.011z M19.003,12.003c-0.556,0-1.006-0.45-1.006-1.006s0.45-1.006,1.006-1.006s1.006,0.45,1.006,1.006
			S19.559,12.003,19.003,12.003z M22.989,18.009c-1.658,0-3.002,1.344-3.002,3.002s1.344,3.002,3.002,3.002s3.002-1.344,3.002-3.002
			S24.647,18.009,22.989,18.009z M23.003,22.003c-0.556,0-1.006-0.45-1.006-1.006s0.45-1.006,1.006-1.006s1.006,0.45,1.006,1.006
			S23.559,22.003,23.003,22.003z M22,0C9.85,0,0,9.85,0,22s9.85,22,22,22s22-9.85,22-22S34.15,0,22,0z M22,42.429
			C10.718,42.429,1.571,33.282,1.571,22S10.718,1.571,22,1.571S42.429,10.718,42.429,22S33.282,42.429,22,42.429z"/>
	</g>
</g>
<g>
</g>
<g>
</g>
<g>
</g>
<g>
</g>
<g>
</g>
<g>
</g>
<g>
</g>
<g>
</g>
<g>
</g>
<g>
</g>
<g>
</g>
<g>
</g>
<g>
</g>
<g>
</g>
<g>
</g>
</svg>
