<?xml version="1.0" encoding="UTF-8" standalone="no"?>
<svg width="51px" height="58px" viewBox="0 0 51 58" version="1.1" xmlns="http://www.w3.org/2000/svg" xmlns:xlink="http://www.w3.org/1999/xlink" xmlns:sketch="http://www.bohemiancoding.com/sketch/ns">
    <!-- Generator: Sketch 3.0.4 (8053) - http://www.bohemiancoding.com/sketch -->
    <title>1152-bowling-pin-and-ball</title>
    <desc>Created with Sketch.</desc>
    <defs></defs>
    <g id="Page-1" stroke="none" stroke-width="1" fill="none" fill-rule="evenodd" sketch:type="MSPage">
        <g id="Glyphish-8-Icons" sketch:type="MSArtboardGroup" transform="translate(-119.000000, -499.000000)" fill="#000000">
            <g id="1152-bowling-pin-and-ball" sketch:type="MSLayerGroup" transform="translate(119.536996, 499.860499)">
                <g id="_x31_152-bowling-pin-and-ball_x40_2x.png" sketch:type="MSShapeGroup">
                    <path d="M30.896,20 C24.96,20 19.734,22.902 16.457,27.335 C15.103,24.994 13.848,22.488 13.848,18 C13.848,12 15.824,10.932 15.824,6 C15.824,6 15.824,0 9.892,0 C3.957,0 3.957,6 3.957,6 C3.957,10.932 5.936,12 5.936,18 C5.936,27.863 -0.119,28.164 0.002,38.137 C0.103,46.466 5.792,56 5.792,56 L9.893,56 L13.994,56 C13.994,56 15.602,53.292 17.124,49.514 C20.423,53.461 25.349,56 30.896,56 C40.837,56 48.896,47.941 48.896,38 C48.896,28.059 40.837,20 30.896,20 L30.896,20 Z M5.935,6.016 C5.949,5.073 6.278,2 9.893,2 C13.504,2 13.832,5.073 13.847,6 C13.847,8.045 13.463,9.31 13.018,10.773 C12.899,11.165 12.777,11.572 12.659,12 L7.125,12 C7.006,11.572 6.884,11.164 6.765,10.772 C6.319,9.309 5.935,8.045 5.935,6.016 L5.935,6.016 Z M12.202,14 C12.006,15.104 11.87,16.392 11.87,18 L7.914,18 C7.914,16.392 7.778,15.104 7.581,14 L12.202,14 L12.202,14 Z M12.838,54 L9.893,54 L6.946,54 C5.573,51.45 2.055,44.318 1.98,38.112 C1.926,33.648 3.193,31.489 4.661,28.988 C5.987,26.727 7.465,24.199 7.828,20 L11.956,20 C12.319,24.199 13.797,26.727 15.123,28.988 C16.59,31.489 17.858,33.648 17.804,38.112 C17.729,44.318 14.21,51.451 12.838,54 L12.838,54 Z M30.896,54 C25.551,54 20.851,51.354 17.946,47.327 C18.942,44.461 19.745,41.218 19.782,38.137 C19.833,33.931 18.782,31.449 17.554,29.241 C20.414,24.893 25.304,22 30.896,22 C39.732,22 46.896,29.164 46.896,38 C46.896,46.837 39.733,54 30.896,54 L30.896,54 Z M31.896,32 C30.792,32 29.896,32.896 29.896,34 C29.896,35.104 30.792,36 31.896,36 C33,36 33.896,35.104 33.896,34 C33.896,32.896 33.001,32 31.896,32 L31.896,32 Z M35.896,26 C34.792,26 33.896,26.896 33.896,28 C33.896,29.104 34.792,30 35.896,30 C37,30 37.896,29.104 37.896,28 C37.896,26.896 37.001,26 35.896,26 L35.896,26 Z M39.896,32 C38.792,32 37.896,32.896 37.896,34 C37.896,35.104 38.792,36 39.896,36 C41,36 41.896,35.104 41.896,34 C41.896,32.896 41.001,32 39.896,32 L39.896,32 Z" id="Shape"></path>
                </g>
            </g>
        </g>
    </g>
</svg>