<?xml version="1.0" encoding="iso-8859-1"?>
<!-- Generator: Adobe Illustrator 16.0.4, SVG Export Plug-In . SVG Version: 6.00 Build 0)  -->
<!DOCTYPE svg PUBLIC "-//W3C//DTD SVG 1.1//EN" "http://www.w3.org/Graphics/SVG/1.1/DTD/svg11.dtd">
<svg version="1.1" id="Layer_1" xmlns="http://www.w3.org/2000/svg" xmlns:xlink="http://www.w3.org/1999/xlink" x="0px" y="0px"
	 width="56px" height="56px" viewBox="0 0 56 56" style="enable-background:new 0 0 56 56;" xml:space="preserve">
<g id="_x31_089-bowling-ball_x40_2x.png">
	<g>
		<path d="M15,16c-2.209,0-4,1.791-4,4s1.791,4,4,4s4-1.791,4-4S17.209,16,15,16z M15,22c-1.104,0-2-0.896-2-2s0.896-2,2-2
			s2,0.896,2,2S16.104,22,15,22z M27,12c0-2.209-1.791-4-4-4s-4,1.791-4,4s1.791,4,4,4S27,14.209,27,12z M23,14
			c-1.104,0-2-0.896-2-2s0.896-2,2-2s2,0.896,2,2S24.104,14,23,14z M28,0C12.536,0,0,12.536,0,28s12.536,28,28,28s28-12.536,28-28
			S43.464,0,28,0z M28,54C13.641,54,2,42.359,2,28S13.641,2,28,2s26,11.641,26,26S42.359,54,28,54z M29,22c-2.209,0-4,1.791-4,4
			s1.791,4,4,4s4-1.791,4-4S31.209,22,29,22z M29,28c-1.104,0-2-0.896-2-2s0.896-2,2-2s2,0.896,2,2S30.104,28,29,28z"/>
	</g>
</g>
<g>
</g>
<g>
</g>
<g>
</g>
<g>
</g>
<g>
</g>
<g>
</g>
<g>
</g>
<g>
</g>
<g>
</g>
<g>
</g>
<g>
</g>
<g>
</g>
<g>
</g>
<g>
</g>
<g>
</g>
</svg>
