<?xml version="1.0" encoding="iso-8859-1"?>
<!-- Generator: Adobe Illustrator 16.0.4, SVG Export Plug-In . SVG Version: 6.00 Build 0)  -->
<!DOCTYPE svg PUBLIC "-//W3C//DTD SVG 1.1//EN" "http://www.w3.org/Graphics/SVG/1.1/DTD/svg11.dtd">
<svg version="1.1" id="Layer_1" xmlns="http://www.w3.org/2000/svg" xmlns:xlink="http://www.w3.org/1999/xlink" x="0px" y="0px"
	 width="43.971px" height="21.998px" viewBox="0 0 43.971 21.998" style="enable-background:new 0 0 43.971 21.998;"
	 xml:space="preserve">
<g id="_x31_126-bowtie_x40_2x.png">
	<g>
		<path d="M12.416,7.083C9.32,5.59,6.271,5.009,6.142,4.985C5.593,4.88,5.072,5.244,4.971,5.791s0.258,1.073,0.803,1.176
			C5.803,6.972,8.699,7.527,11.547,8.9C11.687,8.968,11.835,9,11.98,9c0.374,0,0.733-0.211,0.906-0.572
			C13.126,7.927,12.916,7.324,12.416,7.083z M11.98,12.999c-0.146,0-0.294,0.031-0.434,0.099c-2.848,1.373-5.744,1.929-5.773,1.934
			c-0.545,0.103-0.904,0.629-0.803,1.176s0.622,0.911,1.171,0.806c0.129-0.023,3.179-0.604,6.274-2.098
			c0.5-0.241,0.71-0.843,0.471-1.345C12.714,13.209,12.354,12.999,11.98,12.999z M38.197,15.031
			c-0.029-0.005-2.926-0.561-5.773-1.934c-0.14-0.067-0.288-0.099-0.434-0.099c-0.374,0-0.733,0.21-0.905,0.571
			c-0.24,0.502-0.03,1.104,0.47,1.345c3.096,1.493,6.146,2.074,6.274,2.098c0.549,0.105,1.069-0.259,1.171-0.806
			S38.742,15.134,38.197,15.031z M40.674,0.351C40.528,0.134,40.288,0,40.026,0c-0.025,0-0.051,0.001-0.076,0.004
			c-0.371,0.03-8.512,0.755-13.597,4.736c-1.198-1.096-2.715-1.755-4.368-1.755s-3.17,0.659-4.368,1.755
			C12.532,0.759,4.392,0.034,4.021,0.004C3.995,0.001,3.97,0,3.944,0C3.683,0,3.442,0.134,3.297,0.351C3.162,0.552,0,5.327,0,10.999
			s3.162,10.449,3.297,10.649c0.142,0.21,0.376,0.34,0.63,0.349c0.01,0.001,0.056,0.001,0.065,0.001
			c0.389,0,8.899-0.065,13.745-4.638c1.179,1.032,2.648,1.652,4.248,1.652s3.069-0.62,4.249-1.652
			c4.845,4.572,13.355,4.638,13.744,4.638c0.01,0,0.056,0,0.065-0.001c0.254-0.009,0.488-0.139,0.63-0.349
			c0.135-0.2,3.297-4.978,3.297-10.649S40.809,0.552,40.674,0.351z M4.631,19.974c-0.779-1.347-2.614-4.948-2.614-8.975
			c0-3.963,1.783-7.521,2.582-8.916c2.065,0.268,7.954,1.266,11.731,4.201c-0.845,1.324-1.35,2.95-1.35,4.715
			c0,1.825,0.539,3.502,1.438,4.85C12.872,19.263,6.654,19.868,4.631,19.974z M21.985,16.999c-2.762,0-5-2.687-5-6s2.238-6,5-6
			s5,2.687,5,6S24.747,16.999,21.985,16.999z M39.34,19.974c-2.023-0.105-8.241-0.711-11.787-4.125
			c0.898-1.348,1.438-3.024,1.438-4.85c0-1.765-0.505-3.391-1.35-4.715c3.777-2.936,9.666-3.934,11.731-4.201
			c0.799,1.395,2.582,4.953,2.582,8.916C41.954,15.025,40.119,18.627,39.34,19.974z M37.829,4.985
			C37.7,5.009,34.65,5.59,31.555,7.083c-0.5,0.241-0.71,0.844-0.47,1.345C31.257,8.789,31.616,9,31.99,9
			c0.146,0,0.294-0.032,0.434-0.1c2.848-1.373,5.744-1.929,5.773-1.934C38.742,6.864,39.102,6.338,39,5.791
			S38.378,4.88,37.829,4.985z"/>
	</g>
</g>
<g>
</g>
<g>
</g>
<g>
</g>
<g>
</g>
<g>
</g>
<g>
</g>
<g>
</g>
<g>
</g>
<g>
</g>
<g>
</g>
<g>
</g>
<g>
</g>
<g>
</g>
<g>
</g>
<g>
</g>
</svg>
