<?xml version="1.0" encoding="iso-8859-1"?>
<!-- Generator: Adobe Illustrator 16.0.4, SVG Export Plug-In . SVG Version: 6.00 Build 0)  -->
<!DOCTYPE svg PUBLIC "-//W3C//DTD SVG 1.1//EN" "http://www.w3.org/Graphics/SVG/1.1/DTD/svg11.dtd">
<svg version="1.1" id="Layer_1" xmlns="http://www.w3.org/2000/svg" xmlns:xlink="http://www.w3.org/1999/xlink" x="0px" y="0px"
	 width="40px" height="36px" viewBox="0 0 40 36" style="enable-background:new 0 0 40 36;" xml:space="preserve">
<g id="_x37_41-box-toolbar_x40_2x.png">
	<g>
		<path d="M16,24h8c2.209,0,4-1.791,4-4s-1.791-4-4-4h-8c-2.209,0-4,1.791-4,4S13.791,24,16,24z M16,18h8c1.104,0,2,0.896,2,2
			s-0.896,2-2,2h-8c-1.104,0-2-0.896-2-2S14.896,18,16,18z M38,0H2C0.896,0,0,0.896,0,2v8c0,1.104,0.896,2,2,2v24h36V12
			c1.104,0,2-0.896,2-2V2C40,0.896,39.104,0,38,0z M36,34H4V12h32V34z M38,10H2V2h36V10z"/>
	</g>
</g>
<g>
</g>
<g>
</g>
<g>
</g>
<g>
</g>
<g>
</g>
<g>
</g>
<g>
</g>
<g>
</g>
<g>
</g>
<g>
</g>
<g>
</g>
<g>
</g>
<g>
</g>
<g>
</g>
<g>
</g>
</svg>
