<?xml version="1.0" encoding="iso-8859-1"?>
<!-- Generator: Adobe Illustrator 16.0.4, SVG Export Plug-In . SVG Version: 6.00 Build 0)  -->
<!DOCTYPE svg PUBLIC "-//W3C//DTD SVG 1.1//EN" "http://www.w3.org/Graphics/SVG/1.1/DTD/svg11.dtd">
<svg version="1.1" id="Layer_1" xmlns="http://www.w3.org/2000/svg" xmlns:xlink="http://www.w3.org/1999/xlink" x="0px" y="0px"
	 width="44px" height="36px" viewBox="0 0 44 36" style="enable-background:new 0 0 44 36;" xml:space="preserve">
<g id="_x31_018-box-toolbar_x40_2x.png">
	<g>
		<path d="M26,16h-8c-1.104,0-2,0.896-2,2v2c0,1.104,0.896,2,2,2h8c1.104,0,2-0.896,2-2v-2C28,16.896,27.104,16,26,16z M26,20h-8v-2
			h8V20z M42,0H2C0.896,0,0,0.896,0,2v32c0,1.104,0.896,2,2,2h40c1.104,0,2-0.896,2-2V2C44,0.896,43.104,0,42,0z M42,34H2V10h30v19
			c0,0.553,0.447,1,1,1c0.276,0,0.526-0.111,0.707-0.293L35,28.414l1.293,1.293C36.474,29.888,36.724,30,37,30c0.553,0,1-0.447,1-1
			V10h4V34z M34,26.586V10h2v16.586l-0.293-0.293C35.526,26.112,35.276,26,35,26s-0.526,0.112-0.707,0.293L34,26.586z M42,8H2V2h40
			V8z"/>
	</g>
</g>
<g>
</g>
<g>
</g>
<g>
</g>
<g>
</g>
<g>
</g>
<g>
</g>
<g>
</g>
<g>
</g>
<g>
</g>
<g>
</g>
<g>
</g>
<g>
</g>
<g>
</g>
<g>
</g>
<g>
</g>
</svg>
