<?xml version="1.0" encoding="iso-8859-1"?>
<!-- Generator: Adobe Illustrator 16.0.4, SVG Export Plug-In . SVG Version: 6.00 Build 0)  -->
<!DOCTYPE svg PUBLIC "-//W3C//DTD SVG 1.1//EN" "http://www.w3.org/Graphics/SVG/1.1/DTD/svg11.dtd">
<svg version="1.1" id="Layer_1" xmlns="http://www.w3.org/2000/svg" xmlns:xlink="http://www.w3.org/1999/xlink" x="0px" y="0px"
	 width="56px" height="44px" viewBox="0 0 56 44" style="enable-background:new 0 0 56 44;" xml:space="preserve">
<g id="_x31_018-box_x40_2x.png">
	<g>
		<path d="M54,0H2C0.896,0,0,0.896,0,2v40c0,1.104,0.896,2,2,2h52c1.104,0,2-0.896,2-2V2C56,0.896,55.104,0,54,0z M54,42H2V12h38v21
			c0,0.553,0.447,1,1,1c0.276,0,0.526-0.111,0.707-0.293L45,30.414l3.293,3.293C48.474,33.888,48.724,34,49,34c0.553,0,1-0.447,1-1
			V12h4V42z M42,30.586V12h6v18.586l-2.293-2.293C45.526,28.112,45.276,28,45,28s-0.526,0.112-0.707,0.293L42,30.586z M54,10H2V2h52
			V10z M34,18H22c-1.104,0-2,0.896-2,2v2c0,1.104,0.896,2,2,2h12c1.104,0,2-0.896,2-2v-2C36,18.896,35.104,18,34,18z M34,22H22v-2
			h12V22z"/>
	</g>
</g>
<g>
</g>
<g>
</g>
<g>
</g>
<g>
</g>
<g>
</g>
<g>
</g>
<g>
</g>
<g>
</g>
<g>
</g>
<g>
</g>
<g>
</g>
<g>
</g>
<g>
</g>
<g>
</g>
<g>
</g>
</svg>
