<?xml version="1.0" encoding="iso-8859-1"?>
<!-- Generator: Adobe Illustrator 16.0.4, SVG Export Plug-In . SVG Version: 6.00 Build 0)  -->
<!DOCTYPE svg PUBLIC "-//W3C//DTD SVG 1.1//EN" "http://www.w3.org/Graphics/SVG/1.1/DTD/svg11.dtd">
<svg version="1.1" id="Layer_1" xmlns="http://www.w3.org/2000/svg" xmlns:xlink="http://www.w3.org/1999/xlink" x="0px" y="0px"
	 width="56px" height="52px" viewBox="0 0 56 52" style="enable-background:new 0 0 56 52;" xml:space="preserve">
<g id="_x37_41-box_x40_2x.png">
	<g>
		<path d="M20,26h16c2.209,0,4-1.791,4-4s-1.791-4-4-4H20c-2.209,0-4,1.791-4,4S17.791,26,20,26z M20,20h16c1.104,0,2,0.896,2,2
			s-0.896,2-2,2H20c-1.104,0-2-0.896-2-2S18.896,20,20,20z M54,0H2C0.896,0,0,0.896,0,2v10c0,1.104,0.896,2,2,2v36v2h2h48h2v-2V14
			c1.104,0,2-0.896,2-2V2C56,0.896,55.104,0,54,0z M52,50H4V14h48V50z M54,12H2V2h52V12z"/>
	</g>
</g>
<g>
</g>
<g>
</g>
<g>
</g>
<g>
</g>
<g>
</g>
<g>
</g>
<g>
</g>
<g>
</g>
<g>
</g>
<g>
</g>
<g>
</g>
<g>
</g>
<g>
</g>
<g>
</g>
<g>
</g>
</svg>
