<?xml version="1.0" encoding="iso-8859-1"?>
<!-- Generator: Adobe Illustrator 16.0.4, SVG Export Plug-In . SVG Version: 6.00 Build 0)  -->
<!DOCTYPE svg PUBLIC "-//W3C//DTD SVG 1.1//EN" "http://www.w3.org/Graphics/SVG/1.1/DTD/svg11.dtd">
<svg version="1.1" id="Layer_1" xmlns="http://www.w3.org/2000/svg" xmlns:xlink="http://www.w3.org/1999/xlink" x="0px" y="0px"
	 width="42.96px" height="56px" viewBox="0 0 42.96 56" style="enable-background:new 0 0 42.96 56;" xml:space="preserve">
<g id="_x31_092-boxing-glove_x40_2x.png">
	<g>
		<path d="M24.96,0c-8.765,0-19,3.929-19,15c0,4.144-2.236,5.021-2.372,5.071c-0.103,0.042-2.542,1.041-3.339,3.408
			c-0.518,1.535-0.229,3.229,0.854,5.035c1.004,1.673,2.02,2.635,3.001,3.564c0.942,0.893,1.917,1.815,3.024,3.476
			C9.241,38.724,11.425,42,14.96,42h23c2.77,0,4-3.623,4-5c0-0.181,0.055-0.81,0.124-1.605C42.346,32.391,42.96,25.355,42.96,16
			C42.96,4.344,31.92,0,24.96,0z M40.092,35.221C40.001,36.27,39.96,36.743,39.96,37c0,0.726-0.83,3-2,3h-23
			c-2.465,0-4.264-2.698-6.168-5.555c-1.232-1.848-2.338-2.895-3.313-3.818c-0.964-0.914-1.798-1.703-2.661-3.142
			c-0.765-1.275-0.993-2.404-0.677-3.355c0.488-1.473,2.144-2.182,2.136-2.182c0.104-0.035,1.684-0.603,2.74-2.618
			c1.68,1.525,6.038,4.664,13.507,4.664c0.812,0,1.661-0.037,2.546-0.117c11.347-1.031,15.568-7.18,15.742-7.441
			c0.307-0.46,0.183-1.08-0.277-1.387c-0.461-0.307-1.081-0.183-1.387,0.277c-0.037,0.056-3.854,5.613-14.258,6.559
			c-10.287,0.933-14.945-4.413-15.145-4.646c-0.001-0.002-0.003-0.002-0.005-0.004C7.875,16.577,7.96,15.843,7.96,15
			c0-9.585,8.781-13,17-13c4.151,0,16,2.572,16,14C40.96,25.269,40.352,32.243,40.092,35.221z M37.98,44h-24c-1.104,0-2,0.896-2,2v8
			c0,1.104,0.896,2,2,2h24c1.104,0,2-0.896,2-2v-8C39.98,44.896,39.084,44,37.98,44z M37.98,54h-24v-3h9c0.553,0,1-0.447,1-1
			c0-0.552-0.447-1-1-1h-9v-3h24V54z"/>
	</g>
</g>
<g>
</g>
<g>
</g>
<g>
</g>
<g>
</g>
<g>
</g>
<g>
</g>
<g>
</g>
<g>
</g>
<g>
</g>
<g>
</g>
<g>
</g>
<g>
</g>
<g>
</g>
<g>
</g>
<g>
</g>
</svg>
