<?xml version="1.0" encoding="iso-8859-1"?>
<!-- Generator: Adobe Illustrator 16.0.4, SVG Export Plug-In . SVG Version: 6.00 Build 0)  -->
<!DOCTYPE svg PUBLIC "-//W3C//DTD SVG 1.1//EN" "http://www.w3.org/Graphics/SVG/1.1/DTD/svg11.dtd">
<svg version="1.1" id="Layer_1" xmlns="http://www.w3.org/2000/svg" xmlns:xlink="http://www.w3.org/1999/xlink" x="0px" y="0px"
	 width="36.024px" height="44px" viewBox="0 0 36.024 44" style="enable-background:new 0 0 36.024 44;" xml:space="preserve">
<g id="_x31_092-boxing-glove-toolbar_x40_2x.png">
	<g>
		<path d="M32.012,34h-20c-1.104,0-2,0.896-2,2v6c0,1.104,0.896,2,2,2h20c1.104,0,2-0.896,2-2v-6C34.012,34.896,33.116,34,32.012,34
			z M32.012,42h-20v-2h9c0.553,0,1-0.447,1-1s-0.447-1-1-1h-9v-2h20V42z M20.931,0C13.581,0,4.998,3.087,4.998,11.786
			c0,3.255-1.875,3.945-1.988,3.984c-0.086,0.033-2.133,0.817-2.801,2.678c-0.434,1.206-0.192,2.537,0.717,3.956
			c0.842,1.314,1.693,2.07,2.517,2.801c0.789,0.701,1.606,1.427,2.535,2.73C7.749,30.426,9.581,32,12.545,32h19.286
			c2.324,0,3.042-1.69,3.354-2.929c0-0.142,0.046-0.636,0.104-1.262c0.221-2.36,0.735-7.888,0.735-15.238
			C36.024,3.413,26.767,0,20.931,0z M33.298,27.623c-0.055,0.585-0.084,0.92-0.099,1.138C32.872,29.91,32.439,30,31.831,30H12.545
			c-1.928,0-3.266-0.874-4.938-3.225c-1.061-1.489-2.005-2.327-2.838-3.066c-0.787-0.698-1.467-1.302-2.16-2.383
			c-0.839-1.311-0.598-1.98-0.518-2.201c0.292-0.813,1.303-1.359,1.635-1.487c0.237-0.091,0.877-0.399,1.527-1.044
			c1.947,0.976,4.374,1.822,7.424,2.193c0.807,0.099,1.653,0.164,2.542,0.191c11.388,0.347,16.32-5.091,16.525-5.33
			c0.359-0.419,0.312-1.05-0.108-1.409c-0.42-0.36-1.05-0.312-1.409,0.107c-0.045,0.051-4.505,4.95-14.946,4.632
			c-3.787-0.115-6.708-0.981-8.911-2.041c0.364-0.812,0.628-1.824,0.628-3.151C6.998,4.563,14.504,2,20.931,2
			c5.062,0,13.093,2.87,13.093,10.571C34.023,19.862,33.515,25.301,33.298,27.623z"/>
	</g>
</g>
<g>
</g>
<g>
</g>
<g>
</g>
<g>
</g>
<g>
</g>
<g>
</g>
<g>
</g>
<g>
</g>
<g>
</g>
<g>
</g>
<g>
</g>
<g>
</g>
<g>
</g>
<g>
</g>
<g>
</g>
</svg>
