<?xml version="1.0" encoding="iso-8859-1"?>
<!-- Generator: Adobe Illustrator 16.0.4, SVG Export Plug-In . SVG Version: 6.00 Build 0)  -->
<!DOCTYPE svg PUBLIC "-//W3C//DTD SVG 1.1//EN" "http://www.w3.org/Graphics/SVG/1.1/DTD/svg11.dtd">
<svg version="1.1" id="Layer_1" xmlns="http://www.w3.org/2000/svg" xmlns:xlink="http://www.w3.org/1999/xlink" x="0px" y="0px"
	 width="40px" height="56px" viewBox="0 0 40 56" style="enable-background:new 0 0 40 56;" xml:space="preserve">
<g id="_x31_081-branch_x40_2x.png">
	<g>
		<path d="M33,0c-3.866,0-7,3.134-7,7c0,3.525,2.609,6.435,6,6.92V20c0,4.418-3.582,8-8,8H8V13.92c3.391-0.485,6-3.395,6-6.92
			c0-3.866-3.134-7-7-7S0,3.134,0,7c0,3.525,2.609,6.435,6,6.92V28v2v12.08C2.609,42.566,0,45.475,0,49c0,3.866,3.134,7,7,7
			s7-3.134,7-7c0-3.525-2.609-6.434-6-6.92V30h16c5.522,0,10-4.477,10-10v-6.08c3.391-0.485,6-3.395,6-6.92C40,3.134,36.866,0,33,0z
			 M12,49c0,2.762-2.239,5-5,5s-5-2.238-5-5s2.239-5,5-5S12,46.238,12,49z M7,12c-2.761,0-5-2.238-5-5s2.239-5,5-5s5,2.238,5,5
			S9.761,12,7,12z M33,12c-2.762,0-5-2.238-5-5s2.238-5,5-5s5,2.238,5,5S35.762,12,33,12z"/>
	</g>
</g>
<g>
</g>
<g>
</g>
<g>
</g>
<g>
</g>
<g>
</g>
<g>
</g>
<g>
</g>
<g>
</g>
<g>
</g>
<g>
</g>
<g>
</g>
<g>
</g>
<g>
</g>
<g>
</g>
<g>
</g>
</svg>
