<?xml version="1.0" encoding="iso-8859-1"?>
<!-- Generator: Adobe Illustrator 16.0.4, SVG Export Plug-In . SVG Version: 6.00 Build 0)  -->
<!DOCTYPE svg PUBLIC "-//W3C//DTD SVG 1.1//EN" "http://www.w3.org/Graphics/SVG/1.1/DTD/svg11.dtd">
<svg version="1.1" id="Layer_1" xmlns="http://www.w3.org/2000/svg" xmlns:xlink="http://www.w3.org/1999/xlink" x="0px" y="0px"
	 width="28px" height="44px" viewBox="0 0 28 44" style="enable-background:new 0 0 28 44;" xml:space="preserve">
<g id="_x31_081-branch-toolbar_x40_2x.png">
	<g>
		<path d="M23,0c-2.762,0-5,2.238-5,5c0,2.419,1.718,4.436,4,4.899V16c0,3.313-2.687,6-6,6H6V9.899C8.282,9.436,10,7.419,10,5
			c0-2.762-2.239-5-5-5S0,2.238,0,5c0,2.419,1.718,4.436,4,4.899V22v2v10.101C1.718,34.564,0,36.581,0,39c0,2.762,2.239,5,5,5
			s5-2.238,5-5c0-2.419-1.718-4.436-4-4.899V24h10c4.418,0,8-3.582,8-8V9.899c2.282-0.464,4-2.48,4-4.899C28,2.238,25.762,0,23,0z
			 M8,39c0,1.657-1.343,3-3,3s-3-1.343-3-3c0-1.656,1.343-3,3-3S8,37.344,8,39z M5,8C3.343,8,2,6.657,2,5c0-1.656,1.343-3,3-3
			s3,1.344,3,3C8,6.657,6.657,8,5,8z M23,8c-1.657,0-3-1.343-3-3c0-1.656,1.343-3,3-3s3,1.344,3,3C26,6.657,24.657,8,23,8z"/>
	</g>
</g>
<g>
</g>
<g>
</g>
<g>
</g>
<g>
</g>
<g>
</g>
<g>
</g>
<g>
</g>
<g>
</g>
<g>
</g>
<g>
</g>
<g>
</g>
<g>
</g>
<g>
</g>
<g>
</g>
<g>
</g>
</svg>
