<?xml version="1.0" encoding="iso-8859-1"?>
<!-- Generator: Adobe Illustrator 16.0.4, SVG Export Plug-In . SVG Version: 6.00 Build 0)  -->
<!DOCTYPE svg PUBLIC "-//W3C//DTD SVG 1.1//EN" "http://www.w3.org/Graphics/SVG/1.1/DTD/svg11.dtd">
<svg version="1.1" id="Layer_1" xmlns="http://www.w3.org/2000/svg" xmlns:xlink="http://www.w3.org/1999/xlink" x="0px" y="0px"
	 width="44px" height="44px" viewBox="0 0 44 44" style="enable-background:new 0 0 44 44;" xml:space="preserve">
<g id="_x39_41-brightness-toolbar_x40_2x.png">
	<g>
		<path d="M8,22c0-0.553-0.448-1-1-1H1c-0.552,0-1,0.447-1,1s0.448,1,1,1h6C7.552,23,8,22.553,8,22z M10.687,12.101
			c0.39,0.391,1.023,0.391,1.414,0s0.391-1.023,0-1.414L7.858,6.443c-0.391-0.391-1.024-0.391-1.414,0
			c-0.391,0.391-0.391,1.024,0,1.414L10.687,12.101z M22,8c0.553,0,1-0.447,1-1V1c0-0.553-0.447-1-1-1c-0.552,0-1,0.447-1,1v6
			C21,7.553,21.448,8,22,8z M33.313,12.101l4.243-4.243c0.391-0.391,0.391-1.023,0-1.414s-1.024-0.391-1.414,0l-4.243,4.243
			c-0.391,0.391-0.391,1.023,0,1.414S32.923,12.491,33.313,12.101z M22,36c-0.552,0-1,0.448-1,1v6c0,0.553,0.448,1,1,1
			c0.553,0,1-0.447,1-1v-6C23,36.448,22.553,36,22,36z M43,21h-6c-0.552,0-1,0.447-1,1s0.448,1,1,1h6c0.553,0,1-0.447,1-1
			S43.553,21,43,21z M33.313,31.899c-0.391-0.391-1.023-0.391-1.414,0s-0.391,1.023,0,1.414l4.243,4.243
			c0.39,0.391,1.023,0.391,1.414,0s0.391-1.023,0-1.414L33.313,31.899z M22,12c-5.523,0-10,4.478-10,10s4.477,10,10,10
			c5.522,0,10-4.478,10-10S27.522,12,22,12z M22,30c-4.418,0-8-3.582-8-8s3.582-8,8-8c4.418,0,8,3.582,8,8S26.418,30,22,30z
			 M10.687,31.899l-4.243,4.243c-0.391,0.39-0.391,1.023,0,1.414c0.391,0.391,1.024,0.391,1.415,0l4.243-4.243
			c0.391-0.391,0.391-1.023,0-1.414S11.077,31.509,10.687,31.899z"/>
	</g>
</g>
<g>
</g>
<g>
</g>
<g>
</g>
<g>
</g>
<g>
</g>
<g>
</g>
<g>
</g>
<g>
</g>
<g>
</g>
<g>
</g>
<g>
</g>
<g>
</g>
<g>
</g>
<g>
</g>
<g>
</g>
</svg>
