<?xml version="1.0" encoding="iso-8859-1"?>
<!-- Generator: Adobe Illustrator 16.0.4, SVG Export Plug-In . SVG Version: 6.00 Build 0)  -->
<!DOCTYPE svg PUBLIC "-//W3C//DTD SVG 1.1//EN" "http://www.w3.org/Graphics/SVG/1.1/DTD/svg11.dtd">
<svg version="1.1" id="Layer_1" xmlns="http://www.w3.org/2000/svg" xmlns:xlink="http://www.w3.org/1999/xlink" x="0px" y="0px"
	 width="56px" height="56px" viewBox="0 0 56 56" style="enable-background:new 0 0 56 56;" xml:space="preserve">
<g id="_x39_41-brightness_x40_2x.png">
	<g>
		<path d="M12,28c0-0.553-0.448-1-1-1H1c-0.552,0-1,0.447-1,1s0.448,1,1,1h10C11.552,29,12,28.553,12,28z M15.272,16.687
			c0.391,0.391,1.024,0.391,1.415,0c0.39-0.391,0.39-1.023,0-1.414L9.615,8.201c-0.391-0.391-1.023-0.391-1.414,0
			s-0.391,1.023,0,1.414L15.272,16.687z M28,12c0.553,0,1-0.447,1-1V1c0-0.553-0.447-1-1-1c-0.552,0-1,0.447-1,1v10
			C27,11.553,27.448,12,28,12z M40.728,16.687l7.071-7.071c0.391-0.391,0.391-1.023,0-1.414s-1.023-0.391-1.414,0l-7.071,7.071
			c-0.391,0.391-0.391,1.023,0,1.414S40.338,17.077,40.728,16.687z M28,16c-6.627,0-12,5.373-12,12c0,6.628,5.373,12,12,12
			c6.628,0,12-5.372,12-12C40,21.373,34.628,16,28,16z M28,38c-5.523,0-10-4.478-10-10s4.477-10,10-10c5.522,0,10,4.478,10,10
			S33.522,38,28,38z M55,27H45c-0.553,0-1,0.447-1,1s0.447,1,1,1h10c0.553,0,1-0.447,1-1S55.553,27,55,27z M40.728,39.313
			c-0.39-0.391-1.023-0.391-1.414,0s-0.391,1.024,0,1.414l7.071,7.071c0.391,0.391,1.023,0.391,1.414,0s0.391-1.023,0-1.414
			L40.728,39.313z M15.272,39.313l-7.071,7.071c-0.391,0.391-0.391,1.023,0,1.414s1.023,0.391,1.414,0l7.071-7.071
			c0.39-0.39,0.39-1.023,0-1.414C16.296,38.923,15.663,38.923,15.272,39.313z M28,44c-0.552,0-1,0.447-1,1v10c0,0.553,0.448,1,1,1
			c0.553,0,1-0.447,1-1V45C29,44.447,28.553,44,28,44z"/>
	</g>
</g>
<g>
</g>
<g>
</g>
<g>
</g>
<g>
</g>
<g>
</g>
<g>
</g>
<g>
</g>
<g>
</g>
<g>
</g>
<g>
</g>
<g>
</g>
<g>
</g>
<g>
</g>
<g>
</g>
<g>
</g>
</svg>
