<?xml version="1.0" encoding="iso-8859-1"?>
<!-- Generator: Adobe Illustrator 16.0.4, SVG Export Plug-In . SVG Version: 6.00 Build 0)  -->
<!DOCTYPE svg PUBLIC "-//W3C//DTD SVG 1.1//EN" "http://www.w3.org/Graphics/SVG/1.1/DTD/svg11.dtd">
<svg version="1.1" id="Layer_1" xmlns="http://www.w3.org/2000/svg" xmlns:xlink="http://www.w3.org/1999/xlink" x="0px" y="0px"
	 width="56px" height="48px" viewBox="0 0 56 48" style="enable-background:new 0 0 56 48;" xml:space="preserve">
<g id="_x37_87-browser-windows_x40_2x.png">
	<g>
		<path d="M6,4C4.896,4,4,4.896,4,6s0.896,2,2,2s2-0.896,2-2S7.104,4,6,4z M12,4c-1.104,0-2,0.896-2,2s0.896,2,2,2s2-0.896,2-2
			S13.104,4,12,4z M52,10h-3c-0.553,0-1,0.448-1,1c0,0.553,0.447,1,1,1h3c1.104,0,2,0.896,2,2v6h-5c-0.553,0-1,0.447-1,1
			s0.447,1,1,1h5v22c0,1.104-0.896,2-2,2H14c-1.104,0-2-0.896-2-2v-3c0-0.552-0.447-1-1-1s-1,0.448-1,1v3c0,2.209,1.791,4,4,4h38
			c2.209,0,4-1.791,4-4V14C56,11.791,54.209,10,52,10z M46,34V4c0-2.209-1.791-4-4-4H4C1.791,0,0,1.791,0,4v30c0,2.209,1.791,4,4,4
			h38C44.209,38,46,36.209,46,34z M2,4c0-1.104,0.896-2,2-2h38c1.104,0,2,0.896,2,2v6H2V4z M2,34V12h42v22c0,1.104-0.896,2-2,2H4
			C2.896,36,2,35.104,2,34z M18,4c-1.104,0-2,0.896-2,2s0.896,2,2,2s2-0.896,2-2S19.104,4,18,4z"/>
	</g>
</g>
<g>
</g>
<g>
</g>
<g>
</g>
<g>
</g>
<g>
</g>
<g>
</g>
<g>
</g>
<g>
</g>
<g>
</g>
<g>
</g>
<g>
</g>
<g>
</g>
<g>
</g>
<g>
</g>
<g>
</g>
</svg>
