<?xml version="1.0" encoding="iso-8859-1"?>
<!-- Generator: Adobe Illustrator 16.0.4, SVG Export Plug-In . SVG Version: 6.00 Build 0)  -->
<!DOCTYPE svg PUBLIC "-//W3C//DTD SVG 1.1//EN" "http://www.w3.org/Graphics/SVG/1.1/DTD/svg11.dtd">
<svg version="1.1" id="Layer_1" xmlns="http://www.w3.org/2000/svg" xmlns:xlink="http://www.w3.org/1999/xlink" x="0px" y="0px"
	 width="44px" height="40px" viewBox="0 0 44 40" style="enable-background:new 0 0 44 40;" xml:space="preserve">
<g id="_x37_87-browser-windows-toolbar_x40_2x.png">
	<g>
		<path d="M34,26V4c0-2.209-1.791-4-4-4H4C1.791,0,0,1.791,0,4v22c0,2.209,1.791,4,4,4h26C32.209,30,34,28.209,34,26z M2,4
			c0-1.104,0.896-2,2-2h26c1.104,0,2,0.896,2,2v6H2V4z M2,26V12h30v14c0,1.105-0.896,2-2,2H4C2.896,28,2,27.105,2,26z M6,4
			C4.896,4,4,4.896,4,6c0,1.105,0.896,2,2,2s2-0.895,2-2C8,4.896,7.104,4,6,4z M12,4c-1.104,0-2,0.896-2,2c0,1.105,0.896,2,2,2
			s2-0.895,2-2C14,4.896,13.104,4,12,4z M40,10h-3c-0.553,0-1,0.448-1,1c0,0.553,0.447,1,1,1h3c1.104,0,2,0.896,2,2v6h-5
			c-0.553,0-1,0.448-1,1c0,0.553,0.447,1,1,1h5v14c0,1.105-0.896,2-2,2H14c-1.104,0-2-0.895-2-2v-3c0-0.552-0.447-1-1-1
			s-1,0.448-1,1v3c0,2.209,1.791,4,4,4h26c2.209,0,4-1.791,4-4V14C44,11.791,42.209,10,40,10z M18,4c-1.104,0-2,0.896-2,2
			c0,1.105,0.896,2,2,2s2-0.895,2-2C20,4.896,19.104,4,18,4z"/>
	</g>
</g>
<g>
</g>
<g>
</g>
<g>
</g>
<g>
</g>
<g>
</g>
<g>
</g>
<g>
</g>
<g>
</g>
<g>
</g>
<g>
</g>
<g>
</g>
<g>
</g>
<g>
</g>
<g>
</g>
<g>
</g>
</svg>
