<?xml version="1.0" encoding="iso-8859-1"?>
<!-- Generator: Adobe Illustrator 16.0.4, SVG Export Plug-In . SVG Version: 6.00 Build 0)  -->
<!DOCTYPE svg PUBLIC "-//W3C//DTD SVG 1.1//EN" "http://www.w3.org/Graphics/SVG/1.1/DTD/svg11.dtd">
<svg version="1.1" id="Layer_1" xmlns="http://www.w3.org/2000/svg" xmlns:xlink="http://www.w3.org/1999/xlink" x="0px" y="0px"
	 width="44px" height="40px" viewBox="0 0 44 40" style="enable-background:new 0 0 44 40;" xml:space="preserve">
<g id="_x37_86-browser-toolbar_x40_2x.png">
	<g>
		<path d="M7,18h12c0.553,0,1-0.447,1-1s-0.447-1-1-1H7c-0.553,0-1,0.447-1,1S6.447,18,7,18z M7,26h12c0.553,0,1-0.447,1-1
			c0-0.552-0.447-1-1-1H7c-0.553,0-1,0.448-1,1C6,25.553,6.447,26,7,26z M25,34h12c0.553,0,1-0.447,1-1V17c0-0.553-0.447-1-1-1H25
			c-0.553,0-1,0.447-1,1v16C24,33.553,24.447,34,25,34z M26,18h10v14H26V18z M40,0H4C1.791,0,0,1.791,0,4v32c0,2.209,1.791,4,4,4h36
			c2.209,0,4-1.791,4-4V4C44,1.791,42.209,0,40,0z M42,36c0,1.105-0.896,2-2,2H4c-1.104,0-2-0.895-2-2V12h40V36z M42,10H2V4
			c0-1.104,0.896-2,2-2h36c1.104,0,2,0.896,2,2V10z M12,4c-1.104,0-2,0.896-2,2c0,1.105,0.896,2,2,2s2-0.895,2-2
			C14,4.896,13.104,4,12,4z M18,4c-1.104,0-2,0.896-2,2c0,1.105,0.896,2,2,2s2-0.895,2-2C20,4.896,19.104,4,18,4z M7,34h12
			c0.553,0,1-0.447,1-1c0-0.552-0.447-1-1-1H7c-0.553,0-1,0.448-1,1C6,33.553,6.447,34,7,34z M6,4C4.896,4,4,4.896,4,6
			c0,1.105,0.896,2,2,2s2-0.895,2-2C8,4.896,7.104,4,6,4z"/>
	</g>
</g>
<g>
</g>
<g>
</g>
<g>
</g>
<g>
</g>
<g>
</g>
<g>
</g>
<g>
</g>
<g>
</g>
<g>
</g>
<g>
</g>
<g>
</g>
<g>
</g>
<g>
</g>
<g>
</g>
<g>
</g>
</svg>
