<?xml version="1.0" encoding="iso-8859-1"?>
<!-- Generator: Adobe Illustrator 16.0.4, SVG Export Plug-In . SVG Version: 6.00 Build 0)  -->
<!DOCTYPE svg PUBLIC "-//W3C//DTD SVG 1.1//EN" "http://www.w3.org/Graphics/SVG/1.1/DTD/svg11.dtd">
<svg version="1.1" id="Layer_1" xmlns="http://www.w3.org/2000/svg" xmlns:xlink="http://www.w3.org/1999/xlink" x="0px" y="0px"
	 width="44px" height="44px" viewBox="0 0 44 44" style="enable-background:new 0 0 44 44;" xml:space="preserve">
<g id="_x31_167-buddhist-wheel_x40_2x.png">
	<g>
		<path d="M22,10c-6.627,0-12,5.373-12,12c0,6.628,5.373,12,12,12s12-5.372,12-12C34,15.373,28.627,10,22,10z M23,13.692
			c0.529-0.317,0.916-0.848,0.98-1.494c1.293,0.26,2.481,0.789,3.541,1.496c-0.448,0.506-0.57,1.175-0.422,1.792l-3.083,3.083
			c-0.314-0.186-0.654-0.333-1.017-0.428V13.692z M20.02,12.198c0.064,0.646,0.451,1.177,0.98,1.494v4.449
			c-0.362,0.095-0.702,0.242-1.017,0.428L16.9,15.486c0.148-0.617,0.027-1.286-0.422-1.792
			C17.538,12.987,18.727,12.458,20.02,12.198z M13.696,16.48c0.506,0.447,1.174,0.568,1.79,0.42l3.082,3.082
			c-0.186,0.314-0.333,0.654-0.427,1.018h-4.449c-0.316-0.527-0.845-0.913-1.489-0.979C12.463,18.729,12.991,17.54,13.696,16.48z
			 M13.697,27.521c-0.706-1.061-1.234-2.248-1.494-3.541c0.645-0.065,1.173-0.452,1.489-0.979h4.445
			c0.098,0.361,0.242,0.704,0.428,1.021L15.486,27.1C14.87,26.951,14.202,27.073,13.697,27.521z M21,30.308
			c-0.529,0.317-0.916,0.848-0.98,1.495c-1.293-0.261-2.481-0.79-3.541-1.497c0.449-0.505,0.57-1.175,0.422-1.792l3.08-3.079
			c0.315,0.187,0.658,0.33,1.02,0.428V30.308z M20,22c0-1.104,0.896-2,2-2s2,0.896,2,2s-0.896,2-2,2S20,23.104,20,22z M23.98,31.803
			c-0.064-0.647-0.451-1.178-0.98-1.495v-4.445c0.361-0.098,0.704-0.241,1.021-0.428l3.079,3.079
			c-0.148,0.617-0.026,1.287,0.422,1.792C26.462,31.013,25.273,31.542,23.98,31.803z M30.304,27.521
			c-0.506-0.447-1.174-0.569-1.79-0.421l-3.079-3.079c0.187-0.316,0.33-0.659,0.428-1.021h4.445
			c0.316,0.527,0.845,0.914,1.489,0.979C31.537,25.272,31.009,26.46,30.304,27.521z M30.308,21h-4.449
			c-0.094-0.363-0.241-0.703-0.427-1.018l3.082-3.082c0.616,0.148,1.284,0.027,1.79-0.42c0.705,1.06,1.233,2.248,1.493,3.54
			C31.152,20.087,30.624,20.473,30.308,21z M42,20c-0.736,0-1.372,0.402-1.72,0.994h-1.563c-0.196-0.33-0.479-0.602-0.825-0.775
			c-0.342-3.084-1.569-5.895-3.408-8.194c0.123-0.366,0.135-0.758,0.044-1.13l1.131-1.131c0.66,0.166,1.382,0.024,1.898-0.491
			c0.781-0.781,0.781-2.048,0-2.829c-0.781-0.78-2.048-0.78-2.829,0c-0.516,0.517-0.657,1.238-0.491,1.898l-1.131,1.131
			c-0.371-0.09-0.763-0.078-1.129,0.043c-2.3-1.841-5.111-3.069-8.197-3.411c-0.174-0.344-0.445-0.625-0.773-0.821V3.72
			C23.598,3.372,24,2.736,24,2c0-1.104-0.896-2-2-2s-2,0.896-2,2c0,0.736,0.402,1.372,0.994,1.72v1.563
			c-0.328,0.196-0.6,0.478-0.773,0.821c-3.086,0.342-5.897,1.57-8.197,3.411c-0.366-0.121-0.758-0.133-1.129-0.043L9.764,8.342
			C9.93,7.682,9.788,6.96,9.272,6.443c-0.781-0.78-2.048-0.78-2.829,0c-0.781,0.781-0.781,2.048,0,2.829
			C6.96,9.788,7.682,9.93,8.342,9.764l1.131,1.131c-0.091,0.372-0.079,0.764,0.044,1.13c-1.839,2.3-3.066,5.111-3.408,8.194
			c-0.346,0.174-0.629,0.445-0.825,0.775H3.72C3.372,20.402,2.736,20,2,20c-1.104,0-2,0.896-2,2s0.896,2,2,2
			c0.736,0,1.372-0.402,1.72-0.994h1.563c0.196,0.33,0.479,0.603,0.825,0.775c0.342,3.084,1.569,5.895,3.408,8.194
			c-0.123,0.366-0.135,0.758-0.044,1.13l-1.131,1.131c-0.66-0.166-1.382-0.024-1.898,0.492c-0.781,0.78-0.781,2.047,0,2.828
			s2.048,0.781,2.829,0c0.516-0.517,0.657-1.238,0.491-1.898l1.131-1.131c0.371,0.091,0.763,0.079,1.129-0.043
			c2.3,1.841,5.111,3.069,8.197,3.411c0.174,0.344,0.445,0.626,0.773,0.821v1.563C20.402,40.628,20,41.264,20,42
			c0,1.104,0.896,2,2,2s2-0.896,2-2c0-0.736-0.402-1.372-0.994-1.72v-1.563c0.328-0.195,0.6-0.478,0.773-0.821
			c3.086-0.342,5.897-1.57,8.197-3.411c0.366,0.122,0.758,0.134,1.129,0.043l1.131,1.131c-0.166,0.66-0.024,1.382,0.491,1.898
			c0.781,0.781,2.048,0.781,2.829,0s0.781-2.048,0-2.828c-0.517-0.517-1.238-0.658-1.898-0.492l-1.131-1.131
			c0.091-0.372,0.079-0.764-0.044-1.13c1.839-2.3,3.066-5.11,3.408-8.194c0.346-0.173,0.629-0.445,0.825-0.775h1.563
			C40.628,23.598,41.264,24,42,24c1.104,0,2-0.896,2-2S43.104,20,42,20z M35.891,23.663c-0.312,2.635-1.364,5.036-2.93,7.013
			c-0.624-0.113-1.286,0.034-1.769,0.517s-0.631,1.145-0.517,1.769c-1.976,1.566-4.377,2.619-7.012,2.932
			C23.306,35.354,22.694,35,22,35s-1.306,0.354-1.664,0.893c-2.635-0.312-5.036-1.365-7.012-2.932
			c0.114-0.624-0.034-1.286-0.517-1.769s-1.145-0.63-1.769-0.517c-1.565-1.977-2.616-4.378-2.93-7.013C8.646,23.305,9,22.693,9,22
			s-0.354-1.305-0.891-1.663c0.312-2.634,1.364-5.036,2.93-7.013c0.624,0.114,1.286-0.034,1.769-0.517s0.631-1.145,0.517-1.769
			c1.976-1.566,4.377-2.618,7.012-2.932C20.694,8.646,21.306,9,22,9s1.306-0.354,1.664-0.893c2.635,0.313,5.036,1.365,7.012,2.932
			c-0.114,0.624,0.034,1.286,0.517,1.769s1.145,0.631,1.769,0.517c1.565,1.977,2.617,4.379,2.93,7.013
			C35.354,20.695,35,21.307,35,22S35.354,23.305,35.891,23.663z"/>
	</g>
</g>
<g>
</g>
<g>
</g>
<g>
</g>
<g>
</g>
<g>
</g>
<g>
</g>
<g>
</g>
<g>
</g>
<g>
</g>
<g>
</g>
<g>
</g>
<g>
</g>
<g>
</g>
<g>
</g>
<g>
</g>
</svg>
