<?xml version="1.0" encoding="UTF-8" standalone="no"?>
<svg width="58px" height="58px" viewBox="0 0 58 58" version="1.1" xmlns="http://www.w3.org/2000/svg" xmlns:xlink="http://www.w3.org/1999/xlink" xmlns:sketch="http://www.bohemiancoding.com/sketch/ns">
    <!-- Generator: Sketch 3.0.4 (8053) - http://www.bohemiancoding.com/sketch -->
    <title>1167-buddhist-wheel</title>
    <desc>Created with Sketch.</desc>
    <defs></defs>
    <g id="Page-1" stroke="none" stroke-width="1" fill="none" fill-rule="evenodd" sketch:type="MSPage">
        <g id="Glyphish-8-Icons" sketch:type="MSArtboardGroup" transform="translate(-596.000000, -595.000000)" fill="#000000">
            <g id="1167-buddhist-wheel" sketch:type="MSLayerGroup" transform="translate(596.036996, 595.860499)">
                <g id="_x31_167-buddhist-wheel_x40_2x.png" sketch:type="MSShapeGroup">
                    <path d="M28,12 C19.163,12 12,19.163 12,28 C12,36.837 19.163,44 28,44 C36.837,44 44,36.837 44,28 C44,19.163 36.837,12 28,12 L28,12 Z M29,17.723 C29.596,17.376 30,16.739 30,16 C30,15.261 29.596,14.624 29,14.277 L29,14.05 C32.111,14.271 34.935,15.511 37.152,17.433 L36.975,17.61 C36.314,17.441 35.588,17.583 35.071,18.1 C34.554,18.617 34.412,19.343 34.581,20.004 L31.461,23.124 C30.741,22.614 29.907,22.253 29,22.1 L29,17.723 L29,17.723 Z M27,14.051 L27,14.278 C26.404,14.625 26,15.262 26,16.001 C26,16.74 26.404,17.377 27,17.724 L27,22.102 C26.093,22.255 25.259,22.617 24.539,23.126 L21.419,20.006 C21.588,19.345 21.447,18.619 20.929,18.102 C20.411,17.584 19.686,17.443 19.025,17.612 L18.848,17.435 C21.065,15.512 23.889,14.271 27,14.051 L27,14.051 Z M17.434,18.848 L17.611,19.025 C17.442,19.686 17.584,20.412 18.101,20.929 C18.618,21.446 19.344,21.588 20.005,21.42 L23.121,24.535 C22.607,25.256 22.244,26.091 22.091,27 L17.723,27 C17.376,26.404 16.739,26 16,26 C15.261,26 14.624,26.404 14.277,27 L14.048,27 C14.269,23.889 15.511,21.064 17.434,18.848 L17.434,18.848 Z M17.61,36.976 L17.433,37.153 C15.51,34.936 14.269,32.113 14.048,29.001 L14.277,29.001 C14.624,29.597 15.261,30.001 16,30.001 C16.739,30.001 17.376,29.597 17.723,29.001 L22.091,29.001 C22.244,29.911 22.608,30.746 23.121,31.466 L20.005,34.582 C19.344,34.413 18.618,34.555 18.101,35.072 C17.584,35.589 17.441,36.314 17.61,36.976 L17.61,36.976 Z M27,38.277 C26.404,38.624 26,39.261 26,40 C26,40.739 26.404,41.376 27,41.723 L27,41.95 C23.889,41.729 21.065,40.489 18.848,38.567 L19.025,38.391 C19.686,38.559 20.412,38.418 20.929,37.9 C21.448,37.382 21.588,36.657 21.419,35.996 L24.539,32.877 C25.259,33.387 26.093,33.747 27,33.9 L27,38.277 L27,38.277 Z M24,28 C24,25.791 25.791,24 28,24 C30.209,24 32,25.791 32,28 C32,30.209 30.209,32 28,32 C25.791,32 24,30.209 24,28 L24,28 Z M29,41.949 L29,41.722 C29.596,41.375 30,40.738 30,39.999 C30,39.26 29.596,38.623 29,38.276 L29,33.898 C29.907,33.745 30.741,33.384 31.461,32.875 L34.581,35.994 C34.412,36.655 34.554,37.381 35.071,37.898 C35.589,38.417 36.314,38.557 36.975,38.389 L37.152,38.565 C34.935,40.488 32.111,41.729 29,41.949 L29,41.949 Z M38.566,37.152 L38.389,36.975 C38.558,36.314 38.416,35.588 37.899,35.071 C37.382,34.554 36.656,34.412 35.995,34.581 L32.879,31.465 C33.393,30.745 33.756,29.91 33.909,29 L38.277,29 C38.624,29.596 39.261,30 40,30 C40.739,30 41.376,29.596 41.723,29 L41.952,29 C41.731,32.112 40.489,34.936 38.566,37.152 L38.566,37.152 Z M41.723,27 C41.376,26.404 40.739,26 40,26 C39.261,26 38.624,26.404 38.277,27 L33.909,27 C33.756,26.091 33.392,25.256 32.879,24.535 L35.995,21.42 C36.656,21.588 37.382,21.446 37.899,20.929 C38.416,20.412 38.558,19.686 38.389,19.025 L38.566,18.848 C40.489,21.065 41.731,23.889 41.952,27 L41.723,27 L41.723,27 Z M54,26 C53.262,26 52.624,26.404 52.277,27 L49.722,27 C49.375,26.404 48.738,26 47.999,26 C47.965,26 47.933,26.009 47.898,26.01 C47.5,21.977 45.895,18.303 43.461,15.335 C43.489,15.309 43.526,15.3 43.555,15.273 C44.073,14.754 44.214,14.03 44.045,13.368 L45.893,11.52 C46.554,11.689 47.28,11.547 47.797,11.03 C48.578,10.249 48.578,8.983 47.797,8.202 C47.016,7.421 45.75,7.421 44.969,8.202 C44.451,8.72 44.31,9.445 44.479,10.106 L42.631,11.954 C41.969,11.786 41.244,11.927 40.726,12.444 C40.699,12.472 40.69,12.509 40.664,12.539 C37.696,10.104 34.021,8.5 29.988,8.101 C29.991,8.066 30,8.034 30,8 C30,7.262 29.596,6.624 29,6.277 L29,3.723 C29.596,3.376 30,2.738 30,2 C30,0.896 29.104,0 28,0 C26.896,0 26,0.896 26,2 C26,2.738 26.404,3.376 27,3.723 L27,6.278 C26.404,6.624 26,7.262 26,8 C26,8.034 26.009,8.066 26.01,8.101 C21.977,8.499 18.302,10.104 15.334,12.539 C15.309,12.51 15.3,12.473 15.272,12.444 C14.753,11.926 14.029,11.786 13.367,11.954 L11.519,10.106 C11.688,9.445 11.546,8.719 11.029,8.202 C10.248,7.421 8.982,7.421 8.201,8.202 C7.42,8.983 7.42,10.249 8.201,11.03 C8.719,11.548 9.444,11.689 10.105,11.52 L11.953,13.368 C11.785,14.03 11.926,14.756 12.443,15.273 C12.471,15.3 12.508,15.309 12.538,15.335 C10.104,18.303 8.5,21.977 8.101,26.01 C8.066,26.009 8.034,26 8,26 C7.262,26 6.624,26.404 6.277,27 L3.723,27 C3.376,26.404 2.738,26 2,26 C0.896,26 0,26.896 0,28 C0,29.104 0.896,30 2,30 C2.738,30 3.376,29.596 3.723,29 L6.278,29 C6.624,29.596 7.262,30 8,30 C8.034,30 8.066,29.992 8.101,29.99 C8.5,34.023 10.104,37.697 12.539,40.666 C12.51,40.691 12.473,40.7 12.444,40.728 C11.926,41.246 11.785,41.97 11.954,42.632 L10.106,44.48 C9.445,44.311 8.719,44.453 8.202,44.97 C7.421,45.751 7.421,47.017 8.202,47.798 C8.983,48.579 10.249,48.579 11.03,47.798 C11.548,47.28 11.689,46.555 11.52,45.894 L13.368,44.046 C14.03,44.215 14.755,44.073 15.273,43.556 C15.3,43.529 15.309,43.491 15.335,43.462 C18.304,45.896 21.978,47.5 26.011,47.899 C26.009,47.934 26,47.966 26,48 C26,48.738 26.404,49.376 27,49.723 L27,52.278 C26.404,52.625 26,53.262 26,54.001 C26,55.105 26.896,56.001 28,56.001 C29.104,56.001 30,55.105 30,54.001 C30,53.263 29.596,52.625 29,52.278 L29,49.723 C29.596,49.376 30,48.739 30,48 C30,47.966 29.991,47.934 29.99,47.899 C34.023,47.501 37.698,45.896 40.666,43.462 C40.691,43.49 40.7,43.528 40.728,43.556 C41.247,44.074 41.971,44.215 42.633,44.046 L44.481,45.894 C44.312,46.555 44.454,47.281 44.971,47.798 C45.752,48.579 47.018,48.579 47.799,47.798 C48.58,47.017 48.58,45.751 47.799,44.97 C47.281,44.452 46.556,44.311 45.895,44.48 L44.047,42.632 C44.216,41.97 44.074,41.245 43.557,40.728 C43.529,40.7 43.492,40.691 43.463,40.666 C45.897,37.697 47.5,34.023 47.9,29.99 C47.934,29.992 47.966,30 48,30 C48.738,30 49.376,29.596 49.723,29 L52.278,29 C52.625,29.596 53.262,30 54.001,30 C55.105,30 56.001,29.104 56.001,28 C56.001,26.896 55.104,26 54,26 L54,26 Z M28,46 C18.059,46 10,37.941 10,28 C10,18.059 18.059,10 28,10 C37.941,10 46,18.059 46,28 C46,37.941 37.941,46 28,46 L28,46 Z" id="Shape"></path>
                </g>
            </g>
        </g>
    </g>
</svg>