<?xml version="1.0" encoding="iso-8859-1"?>
<!-- Generator: Adobe Illustrator 16.0.4, SVG Export Plug-In . SVG Version: 6.00 Build 0)  -->
<!DOCTYPE svg PUBLIC "-//W3C//DTD SVG 1.1//EN" "http://www.w3.org/Graphics/SVG/1.1/DTD/svg11.dtd">
<svg version="1.1" id="Layer_1" xmlns="http://www.w3.org/2000/svg" xmlns:xlink="http://www.w3.org/1999/xlink" x="0px" y="0px"
	 width="40px" height="44px" viewBox="0 0 40 44" style="enable-background:new 0 0 40 44;" xml:space="preserve">
<g id="_x39_72-bug-toolbar_x40_2x.png">
	<g>
		<path d="M22,28c-2.209,0-4,1.791-4,4s1.791,4,4,4s4-1.791,4-4S24.209,28,22,28z M22,34c-1.104,0-2-0.896-2-2s0.896-2,2-2
			s2,0.896,2,2S23.104,34,22,34z M39,25h-5.035C33.977,24.667,34,24.338,34,24c0-1.62-0.149-3.187-0.404-4.694l4.225-2.439
			c0.479-0.276,0.643-0.888,0.366-1.366s-0.888-0.643-1.366-0.366l-3.656,2.111c-1.139-4.524-3.377-8.291-6.265-10.635
			C28.638,4.084,31.468,2,35,2c0.553,0,1-0.447,1-1c0-0.552-0.447-1-1-1c-3.717,0-7.43,2.305-9.721,5.483
			C23.649,4.533,21.869,4,20,4s-3.649,0.533-5.279,1.483C12.43,2.305,8.717,0,5,0C4.447,0,4,0.448,4,1c0,0.553,0.447,1,1,1
			c3.532,0,6.362,2.084,8.101,4.61c-2.888,2.344-5.126,6.11-6.265,10.635L3.18,15.134c-0.479-0.275-1.09-0.112-1.366,0.366
			s-0.112,1.09,0.366,1.366l4.225,2.438C6.149,20.813,6,22.38,6,24c0,0.338,0.023,0.667,0.035,1H1c-0.553,0-1,0.448-1,1
			c0,0.553,0.447,1,1,1h5.175c0.192,1.83,0.554,3.578,1.069,5.21L2.18,35.134C1.701,35.41,1.537,36.021,1.813,36.5
			s0.888,0.643,1.366,0.366l4.759-2.748C10.372,40.024,14.855,44,20,44s9.628-3.976,12.062-9.882l4.759,2.748
			c0.479,0.276,1.09,0.112,1.366-0.366s0.112-1.09-0.366-1.366l-5.063-2.924c0.516-1.632,0.876-3.38,1.069-5.21H39
			c0.553,0,1-0.447,1-1C40,25.448,39.553,25,39,25z M20,6c4.134,0,7.779,3.137,9.938,7.909C27.404,15.196,23.898,16,20,16
			s-7.404-0.804-9.937-2.091C12.221,9.137,15.866,6,20,6z M20,42c-6.627,0-12-8.059-12-18c0-2.996,0.495-5.815,1.358-8.3
			C12.186,17.125,15.904,18,20,18s7.814-0.875,10.642-2.3C31.505,18.185,32,21.004,32,24C32,33.941,26.628,42,20,42z M15,21
			c-1.657,0-3,1.343-3,3s1.343,3,3,3s3-1.343,3-3S16.657,21,15,21z M15,25c-0.553,0-1-0.447-1-1c0-0.552,0.447-1,1-1s1,0.448,1,1
			C16,24.553,15.553,25,15,25z"/>
	</g>
</g>
<g>
</g>
<g>
</g>
<g>
</g>
<g>
</g>
<g>
</g>
<g>
</g>
<g>
</g>
<g>
</g>
<g>
</g>
<g>
</g>
<g>
</g>
<g>
</g>
<g>
</g>
<g>
</g>
<g>
</g>
</svg>
