<?xml version="1.0" encoding="iso-8859-1"?>
<!-- Generator: Adobe Illustrator 16.0.4, SVG Export Plug-In . SVG Version: 6.00 Build 0)  -->
<!DOCTYPE svg PUBLIC "-//W3C//DTD SVG 1.1//EN" "http://www.w3.org/Graphics/SVG/1.1/DTD/svg11.dtd">
<svg version="1.1" id="Layer_1" xmlns="http://www.w3.org/2000/svg" xmlns:xlink="http://www.w3.org/1999/xlink" x="0px" y="0px"
	 width="56px" height="56px" viewBox="0 0 56 56" style="enable-background:new 0 0 56 56;" xml:space="preserve">
<g id="_x39_72-bug_x40_2x.png">
	<g>
		<path d="M55,31h-9.038c-0.069-2.241-0.381-4.397-0.88-6.439l8.419-4.694c0.495-0.276,0.664-0.888,0.379-1.366
			c-0.286-0.479-0.919-0.643-1.415-0.366l-7.947,4.433c-1.524-4.751-4.161-8.711-7.474-11.299C37.483,7.309,41.356,2,47,2
			c0.553,0,1-0.447,1-1c0-0.552-0.447-1-1-1c-5.342,0-10.672,4.757-11.779,10.035C33.011,8.735,30.573,8,28,8
			s-5.011,0.735-7.221,2.035C19.672,4.757,14.342,0,9,0C8.447,0,8,0.448,8,1c0,0.553,0.447,1,1,1c5.645,0,9.517,5.309,9.956,9.268
			c-3.312,2.588-5.949,6.548-7.474,11.299l-7.947-4.433C3.039,17.857,2.406,18.021,2.12,18.5c-0.285,0.479-0.116,1.09,0.379,1.366
			l8.419,4.694c-0.499,2.042-0.811,4.198-0.88,6.439H1c-0.553,0-1,0.448-1,1c0,0.553,0.447,1,1,1h9.038
			c0.069,2.242,0.381,4.397,0.88,6.439l-8.419,4.694C2.004,44.41,1.835,45.021,2.12,45.5c0.286,0.479,0.919,0.643,1.415,0.366
			l7.947-4.433C14.228,49.992,20.575,56,28,56s13.772-6.008,16.518-14.566l7.947,4.433c0.496,0.276,1.129,0.112,1.415-0.366
			c0.285-0.479,0.116-1.09-0.379-1.366l-8.419-4.694c0.499-2.042,0.811-4.197,0.88-6.439H55c0.553,0,1-0.447,1-1
			C56,31.448,55.553,31,55,31z M28,10c5.024,0,9.503,3.19,12.437,8.171C38.122,20.438,33.441,22,28,22
			c-5.44,0-10.122-1.562-12.437-3.829C18.497,13.19,22.976,10,28,10z M28,54c-8.837,0-16-9.85-16-22
			c0-4.467,0.975-8.616,2.638-12.086C17.495,22.368,22.396,24,28,24s10.505-1.632,13.362-4.086C43.025,23.384,44,27.533,44,32
			C44,44.15,36.837,54,28,54z M22,29c-2.209,0-4,1.791-4,4s1.791,4,4,4s4-1.791,4-4S24.209,29,22,29z M22,35c-1.104,0-2-0.896-2-2
			s0.896-2,2-2s2,0.896,2,2S23.104,35,22,35z M31,36c-3.313,0-6,2.687-6,6s2.687,6,6,6s6-2.687,6-6S34.313,36,31,36z M31,46
			c-2.209,0-4-1.791-4-4s1.791-4,4-4s4,1.791,4,4S33.209,46,31,46z"/>
	</g>
</g>
<g>
</g>
<g>
</g>
<g>
</g>
<g>
</g>
<g>
</g>
<g>
</g>
<g>
</g>
<g>
</g>
<g>
</g>
<g>
</g>
<g>
</g>
<g>
</g>
<g>
</g>
<g>
</g>
<g>
</g>
</svg>
