<?xml version="1.0" encoding="iso-8859-1"?>
<!-- Generator: Adobe Illustrator 16.0.4, SVG Export Plug-In . SVG Version: 6.00 Build 0)  -->
<!DOCTYPE svg PUBLIC "-//W3C//DTD SVG 1.1//EN" "http://www.w3.org/Graphics/SVG/1.1/DTD/svg11.dtd">
<svg version="1.1" id="Layer_1" xmlns="http://www.w3.org/2000/svg" xmlns:xlink="http://www.w3.org/1999/xlink" x="0px" y="0px"
	 width="40px" height="44px" viewBox="0 0 40 44" style="enable-background:new 0 0 40 44;" xml:space="preserve">
<g id="_x37_80-building-toolbar_x40_2x.png">
	<g>
		<path d="M34,6h-8v8h8V6z M32,12h-4V8h4V12z M34,16h-8v8h8V16z M32,22h-4v-4h4V22z M14,6H6v8h8V6z M12,12H8V8h4V12z M14,16H6v8h8
			V16z M12,22H8v-4h4V22z M14,26H6v8h8V26z M12,32H8v-4h4V32z M38,0H2C0.896,0,0,0.896,0,2v40c0,1.104,0.896,2,2,2h36
			c1.104,0,2-0.896,2-2V2C40,0.896,39.104,0,38,0z M22,42h-4V28h4V42z M38,42H24V26h-8v16H2V2h36V42z M24,6h-8v8h8V6z M22,12h-4V8h4
			V12z M34,26h-8v8h8V26z M32,32h-4v-4h4V32z M24,16h-8v8h8V16z M22,22h-4v-4h4V22z"/>
	</g>
</g>
<g>
</g>
<g>
</g>
<g>
</g>
<g>
</g>
<g>
</g>
<g>
</g>
<g>
</g>
<g>
</g>
<g>
</g>
<g>
</g>
<g>
</g>
<g>
</g>
<g>
</g>
<g>
</g>
<g>
</g>
</svg>
