<?xml version="1.0" encoding="iso-8859-1"?>
<!-- Generator: Adobe Illustrator 16.0.4, SVG Export Plug-In . SVG Version: 6.00 Build 0)  -->
<!DOCTYPE svg PUBLIC "-//W3C//DTD SVG 1.1//EN" "http://www.w3.org/Graphics/SVG/1.1/DTD/svg11.dtd">
<svg version="1.1" id="Layer_1" xmlns="http://www.w3.org/2000/svg" xmlns:xlink="http://www.w3.org/1999/xlink" x="0px" y="0px"
	 width="44px" height="30px" viewBox="0 0 44 30" style="enable-background:new 0 0 44 30;" xml:space="preserve">
<g id="_x31_176-bulleted-list_x40_2x.png">
	<g>
		<path d="M3,12c-1.657,0-3,1.343-3,3s1.343,3,3,3s3-1.343,3-3S4.657,12,3,12z M3,24c-1.657,0-3,1.343-3,3s1.343,3,3,3s3-1.343,3-3
			S4.657,24,3,24z M11,4h32c0.553,0,1-0.447,1-1c0-0.552-0.447-1-1-1H11c-0.553,0-1,0.448-1,1C10,3.553,10.447,4,11,4z M3,0
			C1.343,0,0,1.344,0,3c0,1.657,1.343,3,3,3s3-1.343,3-3C6,1.344,4.657,0,3,0z M43,26H11c-0.553,0-1,0.448-1,1c0,0.553,0.447,1,1,1
			h32c0.553,0,1-0.447,1-1C44,26.448,43.553,26,43,26z M43,14H11c-0.553,0-1,0.447-1,1s0.447,1,1,1h32c0.553,0,1-0.447,1-1
			S43.553,14,43,14z"/>
	</g>
</g>
<g>
</g>
<g>
</g>
<g>
</g>
<g>
</g>
<g>
</g>
<g>
</g>
<g>
</g>
<g>
</g>
<g>
</g>
<g>
</g>
<g>
</g>
<g>
</g>
<g>
</g>
<g>
</g>
<g>
</g>
</svg>
