<?xml version="1.0" encoding="UTF-8" standalone="no"?>
<svg width="57px" height="40px" viewBox="0 0 57 40" version="1.1" xmlns="http://www.w3.org/2000/svg" xmlns:xlink="http://www.w3.org/1999/xlink" xmlns:sketch="http://www.bohemiancoding.com/sketch/ns">
    <!-- Generator: Sketch 3.0.4 (8053) - http://www.bohemiancoding.com/sketch -->
    <title>1176-bulleted-list</title>
    <desc>Created with Sketch.</desc>
    <defs></defs>
    <g id="Page-1" stroke="none" stroke-width="1" fill="none" fill-rule="evenodd" sketch:type="MSPage">
        <g id="Glyphish-8-Icons" sketch:type="MSArtboardGroup" transform="translate(-500.000000, -700.000000)" fill="#000000">
            <g id="1176-bulleted-list" sketch:type="MSLayerGroup" transform="translate(500.036996, 700.860499)">
                <g id="_x31_176-bulleted-list_x40_2x.png" sketch:type="MSShapeGroup">
                    <path d="M3,32 C1.343,32 0,33.344 0,35 C0,36.657 1.343,38 3,38 C4.657,38 6,36.657 6,35 C6,33.344 4.657,32 3,32 L3,32 Z M3,16 C1.343,16 0,17.343 0,19 C0,20.657 1.343,22 3,22 C4.657,22 6,20.657 6,19 C6,17.343 4.657,16 3,16 L3,16 Z M11,4 L55,4 C55.553,4 56,3.553 56,3 C56,2.448 55.553,2 55,2 L11,2 C10.447,2 10,2.448 10,3 C10,3.553 10.447,4 11,4 L11,4 Z M3,0 C1.343,0 0,1.343 0,3 C0,4.657 1.343,6 3,6 C4.657,6 6,4.657 6,3 C6,1.343 4.657,0 3,0 L3,0 Z M55,34 L11,34 C10.447,34 10,34.447 10,35 C10,35.553 10.447,36 11,36 L55,36 C55.553,36 56,35.553 56,35 C56,34.447 55.553,34 55,34 L55,34 Z M55,18 L11,18 C10.447,18 10,18.447 10,19 C10,19.553 10.447,20 11,20 L55,20 C55.553,20 56,19.553 56,19 C56,18.447 55.553,18 55,18 L55,18 Z" id="Shape"></path>
                </g>
            </g>
        </g>
    </g>
</svg>