<?xml version="1.0" encoding="iso-8859-1"?>
<!-- Generator: Adobe Illustrator 16.0.4, SVG Export Plug-In . SVG Version: 6.00 Build 0)  -->
<!DOCTYPE svg PUBLIC "-//W3C//DTD SVG 1.1//EN" "http://www.w3.org/Graphics/SVG/1.1/DTD/svg11.dtd">
<svg version="1.1" id="Layer_1" xmlns="http://www.w3.org/2000/svg" xmlns:xlink="http://www.w3.org/1999/xlink" x="0px" y="0px"
	 width="48px" height="56px" viewBox="0 0 48 56" style="enable-background:new 0 0 48 56;" xml:space="preserve">
<g id="_x38_14-bus_x40_2x.png">
	<g>
		<path d="M35,2.014V2c0-1.104-0.896-2-2-2H15c-1.104,0-2,0.896-2,2v0.014C5.283,5.007,0,11.035,0,18v1v2v7v5v17
			c0,1.104,0.896,2,2,2h4c0,2.209,1.791,4,4,4s4-1.791,4-4h20c0,2.209,1.791,4,4,4s4-1.791,4-4h4c1.104,0,2-0.896,2-2V33v-5v-7v-2
			v-1C48,11.035,42.717,5.007,35,2.014z M15,2h18v4H15V2z M10,54c-1.104,0-2-0.896-2-2h4C12,53.104,11.104,54,10,54z M38,54
			c-1.104,0-2-0.896-2-2h4C40,53.104,39.104,54,38,54z M46,19v1.958V33v17H2V33V20.958V19v-0.958C2,12.107,6.431,6.938,13,4.164V6
			c0,1.104,0.896,2,2,2h18c1.104,0,2-0.896,2-2V4.164c6.569,2.774,11,7.943,11,13.878V19z M12,38c-2.209,0-4,1.791-4,4s1.791,4,4,4
			s4-1.791,4-4S14.209,38,12,38z M12,44c-1.104,0-2-0.896-2-2s0.896-2,2-2s2,0.896,2,2S13.104,44,12,44z M24,12C6,12,6,18,6,20v8
			c0,0,0,2,2,2s16,0,16,0s14,0,16,0s2-2,2-2v-8C42,18,42,12,24,12z M40,28H24H8v-8c0-1,0-6,16-6s16,5,16,6V28z M36,38
			c-2.209,0-4,1.791-4,4s1.791,4,4,4s4-1.791,4-4S38.209,38,36,38z M36,44c-1.104,0-2-0.896-2-2s0.896-2,2-2s2,0.896,2,2
			S37.104,44,36,44z"/>
	</g>
</g>
<g>
</g>
<g>
</g>
<g>
</g>
<g>
</g>
<g>
</g>
<g>
</g>
<g>
</g>
<g>
</g>
<g>
</g>
<g>
</g>
<g>
</g>
<g>
</g>
<g>
</g>
<g>
</g>
<g>
</g>
</svg>
