<?xml version="1.0" encoding="iso-8859-1"?>
<!-- Generator: Adobe Illustrator 16.0.4, SVG Export Plug-In . SVG Version: 6.00 Build 0)  -->
<!DOCTYPE svg PUBLIC "-//W3C//DTD SVG 1.1//EN" "http://www.w3.org/Graphics/SVG/1.1/DTD/svg11.dtd">
<svg version="1.1" id="Layer_1" xmlns="http://www.w3.org/2000/svg" xmlns:xlink="http://www.w3.org/1999/xlink" x="0px" y="0px"
	 width="30px" height="44px" viewBox="0 0 30 44" style="enable-background:new 0 0 30 44;" xml:space="preserve">
<g id="_x38_50-calculator-toolbar_x40_2x.png">
	<g>
		<path d="M8,26H6c-1.104,0-2,0.896-2,2v2c0,1.104,0.896,2,2,2h2c1.104,0,2-0.896,2-2v-2C10,26.896,9.104,26,8,26z M8,30H6v-2h2V30z
			 M26,0H4C1.791,0,0,1.791,0,4v36c0,2.209,1.791,4,4,4h22c2.209,0,4-1.791,4-4V4C30,1.791,28.209,0,26,0z M28,40
			c0,1.105-0.896,2-2,2H4c-1.104,0-2-0.895-2-2V4c0-1.104,0.896-2,2-2h22c1.104,0,2,0.896,2,2V40z M8,18H6c-1.104,0-2,0.896-2,2v2
			c0,1.104,0.896,2,2,2h2c1.104,0,2-0.896,2-2v-2C10,18.896,9.104,18,8,18z M8,22H6v-2h2V22z M8,34H6c-1.104,0-2,0.896-2,2v2
			c0,1.104,0.896,2,2,2h2c1.104,0,2-0.896,2-2v-2C10,34.896,9.104,34,8,34z M8,38H6v-2h2V38z M16,34h-2c-1.104,0-2,0.896-2,2v2
			c0,1.104,0.896,2,2,2h2c1.104,0,2-0.896,2-2v-2C18,34.896,17.104,34,16,34z M16,38h-2v-2h2V38z M24,18h-2c-1.104,0-2,0.896-2,2v2
			c0,1.104,0.896,2,2,2h2c1.104,0,2-0.896,2-2v-2C26,18.896,25.104,18,24,18z M24,22h-2v-2h2V22z M16,18h-2c-1.104,0-2,0.896-2,2v2
			c0,1.104,0.896,2,2,2h2c1.104,0,2-0.896,2-2v-2C18,18.896,17.104,18,16,18z M16,22h-2v-2h2V22z M16,26h-2c-1.104,0-2,0.896-2,2v2
			c0,1.104,0.896,2,2,2h2c1.104,0,2-0.896,2-2v-2C18,26.896,17.104,26,16,26z M16,30h-2v-2h2V30z M24,26h-2c-1.104,0-2,0.896-2,2v1
			v1v6v1v1c0,1.104,0.896,2,2,2h2c1.104,0,2-0.896,2-2v-1v-1v-6v-1v-1C26,26.896,25.104,26,24,26z M24,29v8v1h-2v-1v-8v-1h2V29z
			 M24,4H6C4.896,4,4,4.896,4,6v8c0,1.104,0.896,2,2,2h18c1.104,0,2-0.896,2-2V6C26,4.896,25.104,4,24,4z M24,14H6V6h18V14z"/>
	</g>
</g>
<g>
</g>
<g>
</g>
<g>
</g>
<g>
</g>
<g>
</g>
<g>
</g>
<g>
</g>
<g>
</g>
<g>
</g>
<g>
</g>
<g>
</g>
<g>
</g>
<g>
</g>
<g>
</g>
<g>
</g>
</svg>
