<?xml version="1.0" encoding="iso-8859-1"?>
<!-- Generator: Adobe Illustrator 16.0.4, SVG Export Plug-In . SVG Version: 6.00 Build 0)  -->
<!DOCTYPE svg PUBLIC "-//W3C//DTD SVG 1.1//EN" "http://www.w3.org/Graphics/SVG/1.1/DTD/svg11.dtd">
<svg version="1.1" id="Layer_1" xmlns="http://www.w3.org/2000/svg" xmlns:xlink="http://www.w3.org/1999/xlink" x="0px" y="0px"
	 width="48px" height="56px" viewBox="0 0 48 56" style="enable-background:new 0 0 48 56;" xml:space="preserve">
<g id="_x38_50-calculator_x40_2x.png">
	<g>
		<path d="M10,24H8c-1.104,0-2,0.896-2,2v2c0,1.104,0.896,2,2,2h2c1.104,0,2-0.896,2-2v-2C12,24.896,11.104,24,10,24z M10,28H8v-2h2
			V28z M44,0H4C1.791,0,0,1.791,0,4v48c0,2.209,1.791,4,4,4h40c2.209,0,4-1.791,4-4V4C48,1.791,46.209,0,44,0z M46,52
			c0,1.104-0.896,2-2,2H4c-1.104,0-2-0.896-2-2V4c0-1.104,0.896-2,2-2h40c1.104,0,2,0.896,2,2V52z M10,44H8c-1.104,0-2,0.896-2,2v2
			c0,1.104,0.896,2,2,2h2c1.104,0,2-0.896,2-2v-2C12,44.896,11.104,44,10,44z M10,48H8v-2h2V48z M40,6H8C6.896,6,6,6.896,6,8v10
			c0,1.104,0.896,2,2,2h32c1.104,0,2-0.896,2-2V8C42,6.896,41.104,6,40,6z M40,18H8V8h32V18z M30,24h-2c-1.104,0-2,0.896-2,2v2
			c0,1.104,0.896,2,2,2h2c1.104,0,2-0.896,2-2v-2C32,24.896,31.104,24,30,24z M30,28h-2v-2h2V28z M10,34H8c-1.104,0-2,0.896-2,2v2
			c0,1.104,0.896,2,2,2h2c1.104,0,2-0.896,2-2v-2C12,34.896,11.104,34,10,34z M10,38H8v-2h2V38z M20,44h-2c-1.104,0-2,0.896-2,2v2
			c0,1.104,0.896,2,2,2h2c1.104,0,2-0.896,2-2v-2C22,44.896,21.104,44,20,44z M20,48h-2v-2h2V48z M30,44h-2c-1.104,0-2,0.896-2,2v2
			c0,1.104,0.896,2,2,2h2c1.104,0,2-0.896,2-2v-2C32,44.896,31.104,44,30,44z M30,48h-2v-2h2V48z M30,34h-2c-1.104,0-2,0.896-2,2v2
			c0,1.104,0.896,2,2,2h2c1.104,0,2-0.896,2-2v-2C32,34.896,31.104,34,30,34z M30,38h-2v-2h2V38z M40,34h-2c-1.104,0-2,0.896-2,2v1
			v1v8v1v1c0,1.104,0.896,2,2,2h2c1.104,0,2-0.896,2-2v-1v-1v-8v-1v-1C42,34.896,41.104,34,40,34z M40,37v10v1h-2v-1V37v-1h2V37z
			 M20,24h-2c-1.104,0-2,0.896-2,2v2c0,1.104,0.896,2,2,2h2c1.104,0,2-0.896,2-2v-2C22,24.896,21.104,24,20,24z M20,28h-2v-2h2V28z
			 M20,34h-2c-1.104,0-2,0.896-2,2v2c0,1.104,0.896,2,2,2h2c1.104,0,2-0.896,2-2v-2C22,34.896,21.104,34,20,34z M20,38h-2v-2h2V38z
			 M40,24h-2c-1.104,0-2,0.896-2,2v2c0,1.104,0.896,2,2,2h2c1.104,0,2-0.896,2-2v-2C42,24.896,41.104,24,40,24z M40,28h-2v-2h2V28z"
			/>
	</g>
</g>
<g>
</g>
<g>
</g>
<g>
</g>
<g>
</g>
<g>
</g>
<g>
</g>
<g>
</g>
<g>
</g>
<g>
</g>
<g>
</g>
<g>
</g>
<g>
</g>
<g>
</g>
<g>
</g>
<g>
</g>
</svg>
