<?xml version="1.0" encoding="iso-8859-1"?>
<!-- Generator: Adobe Illustrator 16.0.4, SVG Export Plug-In . SVG Version: 6.00 Build 0)  -->
<!DOCTYPE svg PUBLIC "-//W3C//DTD SVG 1.1//EN" "http://www.w3.org/Graphics/SVG/1.1/DTD/svg11.dtd">
<svg version="1.1" id="Layer_1" xmlns="http://www.w3.org/2000/svg" xmlns:xlink="http://www.w3.org/1999/xlink" x="0px" y="0px"
	 width="44px" height="44px" viewBox="0 0 44 44" style="enable-background:new 0 0 44 44;" xml:space="preserve">
<g id="_x38_51-calendar-toolbar_x40_2x.png">
	<g>
		<path d="M27,15h-4v4h4V15z M27,22h-4v4h4V22z M27,36h-4v4h4V36z M27,29h-4v4h4V29z M33,29h-4v4h4V29z M33,15h-4v4h4V15z M39,22h-4
			v4h4V22z M33,22h-4v4h4V22z M39,15h-4v4h4V15z M39,29h-4v4h4V29z M21,15h-4v4h4V15z M9,29H5v4h4V29z M9,22H5v4h4V22z M36,4V1
			c0-0.553-0.447-1-1-1s-1,0.447-1,1v3H10V1c0-0.553-0.448-1-1-1S8,0.447,8,1v3H0v40h44V4H36z M42,42H2V12h40V42z M42,10H2V6h6v1
			c0,0.553,0.448,1,1,1s1-0.447,1-1V6h24v1c0,0.553,0.447,1,1,1s1-0.447,1-1V6h6V10z M9,36H5v4h4V36z M21,22h-4v4h4V22z M15,36h-4v4
			h4V36z M21,29h-4v4h4V29z M21,36h-4v4h4V36z M15,15h-4v4h4V15z M15,29h-4v4h4V29z M15,22h-4v4h4V22z"/>
	</g>
</g>
<g>
</g>
<g>
</g>
<g>
</g>
<g>
</g>
<g>
</g>
<g>
</g>
<g>
</g>
<g>
</g>
<g>
</g>
<g>
</g>
<g>
</g>
<g>
</g>
<g>
</g>
<g>
</g>
<g>
</g>
</svg>
