<?xml version="1.0" encoding="iso-8859-1"?>
<!-- Generator: Adobe Illustrator 16.0.4, SVG Export Plug-In . SVG Version: 6.00 Build 0)  -->
<!DOCTYPE svg PUBLIC "-//W3C//DTD SVG 1.1//EN" "http://www.w3.org/Graphics/SVG/1.1/DTD/svg11.dtd">
<svg version="1.1" id="Layer_1" xmlns="http://www.w3.org/2000/svg" xmlns:xlink="http://www.w3.org/1999/xlink" x="0px" y="0px"
	 width="56px" height="56px" viewBox="0 0 56 56" style="enable-background:new 0 0 56 56;" xml:space="preserve">
<g id="_x38_51-calendar_x40_2x.png">
	<g>
		<path d="M50,30h-8v8h8V30z M48,36h-4v-4h4V36z M47,6V0h-2v6H11V0H9v6H0v6v2v42h56V14v-2V6H47z M54,54H2V14h52V54z M54,12H2V8h7v2
			h2V8h34v2h2V8h7V12z M50,18h-8v8h8V18z M48,24h-4v-4h4V24z M38,18h-8v8h8V18z M36,24h-4v-4h4V24z M26,18h-8v8h8V18z M24,24h-4v-4
			h4V24z M26,42h-8v8h8V42z M24,48h-4v-4h4V48z M14,30H6v8h8V30z M12,36H8v-4h4V36z M14,42H6v8h8V42z M12,48H8v-4h4V48z M26,30h-8v8
			h8V30z M24,36h-4v-4h4V36z M38,30h-8v8h8V30z M36,36h-4v-4h4V36z M38,42h-8v8h8V42z M36,48h-4v-4h4V48z"/>
	</g>
</g>
<g>
</g>
<g>
</g>
<g>
</g>
<g>
</g>
<g>
</g>
<g>
</g>
<g>
</g>
<g>
</g>
<g>
</g>
<g>
</g>
<g>
</g>
<g>
</g>
<g>
</g>
<g>
</g>
<g>
</g>
</svg>
