<?xml version="1.0" encoding="iso-8859-1"?>
<!-- Generator: Adobe Illustrator 16.0.4, SVG Export Plug-In . SVG Version: 6.00 Build 0)  -->
<!DOCTYPE svg PUBLIC "-//W3C//DTD SVG 1.1//EN" "http://www.w3.org/Graphics/SVG/1.1/DTD/svg11.dtd">
<svg version="1.1" id="Layer_1" xmlns="http://www.w3.org/2000/svg" xmlns:xlink="http://www.w3.org/1999/xlink" x="0px" y="0px"
	 width="56px" height="42px" viewBox="0 0 56 42" style="enable-background:new 0 0 56 42;" xml:space="preserve">
<g id="_x37_14-camera_x40_2x.png">
	<g>
		<path d="M28,14c-4.418,0-8,3.582-8,8s3.582,8,8,8s8-3.582,8-8S32.418,14,28,14z M28,28c-3.313,0-6-2.687-6-6s2.687-6,6-6
			s6,2.687,6,6S31.313,28,28,28z M52,6h-8c-4,0-6-6-10-6s-6,0-6,0s-2,0-6,0s-6,6-10,6H4c-2.209,0-4,1.791-4,4v28
			c0,2.209,1.791,4,4,4h48c2.209,0,4-1.791,4-4V10C56,7.791,54.209,6,52,6z M54,38c0,1.104-0.896,2-2,2H4c-1.104,0-2-0.896-2-2V10
			c0-1.104,0.896-2,2-2h7.472H12c5,0,7-6,10-6s6,0,6,0s3.085,0,6.17,0s5.142,6,10.284,6h0.543H52c1.104,0,2,0.896,2,2V38z M28,10
			c-6.627,0-12,5.373-12,12c0,6.628,5.373,12,12,12s12-5.372,12-12C40,15.373,34.627,10,28,10z M28,32c-5.522,0-10-4.477-10-10
			c0-5.522,4.478-10,10-10s10,4.478,10,10C38,27.523,33.522,32,28,32z M44,11c-1.104,0-2,0.896-2,2s0.896,2,2,2s2-0.896,2-2
			S45.104,11,44,11z"/>
	</g>
</g>
<g>
</g>
<g>
</g>
<g>
</g>
<g>
</g>
<g>
</g>
<g>
</g>
<g>
</g>
<g>
</g>
<g>
</g>
<g>
</g>
<g>
</g>
<g>
</g>
<g>
</g>
<g>
</g>
<g>
</g>
</svg>
