<?xml version="1.0" encoding="iso-8859-1"?>
<!-- Generator: Adobe Illustrator 16.0.4, SVG Export Plug-In . SVG Version: 6.00 Build 0)  -->
<!DOCTYPE svg PUBLIC "-//W3C//DTD SVG 1.1//EN" "http://www.w3.org/Graphics/SVG/1.1/DTD/svg11.dtd">
<svg version="1.1" id="Layer_1" xmlns="http://www.w3.org/2000/svg" xmlns:xlink="http://www.w3.org/1999/xlink" x="0px" y="0px"
	 width="44px" height="40px" viewBox="0 0 44 40" style="enable-background:new 0 0 44 40;" xml:space="preserve">
<g id="_x38_15-car-toolbar_x40_2x.png">
	<g>
		<path d="M42,16C42,0,34,0,28,0c-2,0-6,0-6,0s-4,0-6,0C10,0,2,0,2,16c-1.104,0-2,0.896-2,2v12v5c0,2.762,2.238,5,5,5s5-2.238,5-5
			v-3h24v3c0,2.762,2.238,5,5,5s5-2.238,5-5v-5V18C44,16.896,43.104,16,42,16z M16,2c1,0,6,0,6,0s5,0,6,0c5,0,12,0,12,14H22H4
			C4,2,11,2,16,2z M8,35c0,1.657-1.343,3-3,3s-3-1.343-3-3v-3h6V35z M42,35c0,1.657-1.343,3-3,3s-3-1.343-3-3v-3h6V35z M42,30h-8H10
			H2V18h40V30z M34,26c1.104,0,2-0.896,2-2s-0.896-2-2-2s-2,0.896-2,2S32.896,26,34,26z M10,26c1.104,0,2-0.896,2-2s-0.896-2-2-2
			s-2,0.896-2,2S8.896,26,10,26z M19,26h6c0.553,0,1-0.447,1-1s-0.447-1-1-1h-6c-0.553,0-1,0.447-1,1S18.447,26,19,26z"/>
	</g>
</g>
<g>
</g>
<g>
</g>
<g>
</g>
<g>
</g>
<g>
</g>
<g>
</g>
<g>
</g>
<g>
</g>
<g>
</g>
<g>
</g>
<g>
</g>
<g>
</g>
<g>
</g>
<g>
</g>
<g>
</g>
</svg>
