<?xml version="1.0" encoding="iso-8859-1"?>
<!-- Generator: Adobe Illustrator 16.0.4, SVG Export Plug-In . SVG Version: 6.00 Build 0)  -->
<!DOCTYPE svg PUBLIC "-//W3C//DTD SVG 1.1//EN" "http://www.w3.org/Graphics/SVG/1.1/DTD/svg11.dtd">
<svg version="1.1" id="Layer_1" xmlns="http://www.w3.org/2000/svg" xmlns:xlink="http://www.w3.org/1999/xlink" x="0px" y="0px"
	 width="56px" height="50px" viewBox="0 0 56 50" style="enable-background:new 0 0 56 50;" xml:space="preserve">
<g id="_x38_15-car_x40_2x.png">
	<g>
		<path d="M54,22C52,2,42,0,40,0S28,0,28,0S18,0,16,0S4,2,2,22c-1.104,0-2,0.896-2,2v16v5c0,2.762,2.238,5,5,5s5-2.238,5-5v-3h36v3
			c0,2.762,2.238,5,5,5s5-2.238,5-5v-5V24C56,22.896,55.104,22,54,22z M16,2c1,0,12,0,12,0s11,0,12,0s10,2,12,20H28H4C6,4,15,2,16,2
			z M8,45c0,1.657-1.343,3-3,3s-3-1.343-3-3v-3h6V45z M54,45c0,1.657-1.343,3-3,3s-3-1.343-3-3v-3h6V45z M54,40h-8H10H2V24h52V40z
			 M10,36c2.209,0,4-1.791,4-4s-1.791-4-4-4s-4,1.791-4,4S7.791,36,10,36z M10,30c1.104,0,2,0.896,2,2s-0.896,2-2,2s-2-0.896-2-2
			S8.896,30,10,30z M46,36c2.209,0,4-1.791,4-4s-1.791-4-4-4s-4,1.791-4,4S43.791,36,46,36z M46,30c1.104,0,2,0.896,2,2
			s-0.896,2-2,2s-2-0.896-2-2S44.896,30,46,30z M19,34h18c0.553,0,1-0.447,1-1s-0.447-1-1-1H19c-0.553,0-1,0.447-1,1
			S18.447,34,19,34z"/>
	</g>
</g>
<g>
</g>
<g>
</g>
<g>
</g>
<g>
</g>
<g>
</g>
<g>
</g>
<g>
</g>
<g>
</g>
<g>
</g>
<g>
</g>
<g>
</g>
<g>
</g>
<g>
</g>
<g>
</g>
<g>
</g>
</svg>
