<?xml version="1.0" encoding="iso-8859-1"?>
<!-- Generator: Adobe Illustrator 16.0.4, SVG Export Plug-In . SVG Version: 6.00 Build 0)  -->
<!DOCTYPE svg PUBLIC "-//W3C//DTD SVG 1.1//EN" "http://www.w3.org/Graphics/SVG/1.1/DTD/svg11.dtd">
<svg version="1.1" id="Layer_1" xmlns="http://www.w3.org/2000/svg" xmlns:xlink="http://www.w3.org/1999/xlink" x="0px" y="0px"
	 width="32px" height="44px" viewBox="0 0 32 44" style="enable-background:new 0 0 32 44;" xml:space="preserve">
<g id="_x39_85-castle-toolbar_x40_2x.png">
	<g>
		<path d="M32,11V1c0-0.552-0.447-1-1-1h-6c-0.553,0-1,0.448-1,1v3h-4V1c0-0.552-0.447-1-1-1h-6c-0.553,0-1,0.448-1,1v3H8V1
			c0-0.552-0.447-1-1-1H1C0.447,0,0,0.448,0,1v10c0,0.553,0.447,1,1,1h2.868L0.004,42.909l0.015,0.002C0.016,42.941,0,42.969,0,43
			c0,0.553,0.447,1,1,1h10c0.553,0,1-0.447,1-1V33h0.142c0.446-1.723,1.997-3,3.858-3s3.412,1.277,3.858,3H20v10
			c0,0.553,0.447,1,1,1h10c0.553,0,1-0.447,1-1c0-0.031-0.015-0.059-0.018-0.089l0.014-0.002L28.132,12H31
			C31.553,12,32,11.553,32,11z M29.868,42H22v-9h-0.101c-0.479-2.835-2.928-5-5.899-5c-2.971,0-5.421,2.165-5.899,5H10v9H2.132
			l3.75-30h20.236L29.868,42z M30,10H2V2h4v3c0,0.553,0.447,1,1,1h6c0.553,0,1-0.447,1-1V2h4v3c0,0.553,0.447,1,1,1h6
			c0.553,0,1-0.447,1-1V2h4V10z"/>
	</g>
</g>
<g>
</g>
<g>
</g>
<g>
</g>
<g>
</g>
<g>
</g>
<g>
</g>
<g>
</g>
<g>
</g>
<g>
</g>
<g>
</g>
<g>
</g>
<g>
</g>
<g>
</g>
<g>
</g>
<g>
</g>
</svg>
