<?xml version="1.0" encoding="iso-8859-1"?>
<!-- Generator: Adobe Illustrator 16.0.4, SVG Export Plug-In . SVG Version: 6.00 Build 0)  -->
<!DOCTYPE svg PUBLIC "-//W3C//DTD SVG 1.1//EN" "http://www.w3.org/Graphics/SVG/1.1/DTD/svg11.dtd">
<svg version="1.1" id="Layer_1" xmlns="http://www.w3.org/2000/svg" xmlns:xlink="http://www.w3.org/1999/xlink" x="0px" y="0px"
	 width="36px" height="56px" viewBox="0 0 36 56" style="enable-background:new 0 0 36 56;" xml:space="preserve">
<g id="_x39_85-castle_x40_2x.png">
	<g>
		<path d="M36,11V1c0-0.552-0.447-1-1-1h-8c-0.553,0-1,0.448-1,1v3h-4V1c0-0.552-0.447-1-1-1h-6c-0.553,0-1,0.448-1,1v3h-4V1
			c0-0.552-0.447-1-1-1H1C0.447,0,0,0.448,0,1v10c0,0.553,0.447,1,1,1h2.905L0.004,54.909l0.014,0.002C0.016,54.941,0,54.969,0,55
			c0,0.553,0.447,1,1,1h12c0.553,0,1-0.447,1-1V45h0.142c0.446-1.722,1.997-3,3.858-3s3.412,1.278,3.858,3H22v10
			c0,0.553,0.447,1,1,1h12c0.553,0,1-0.447,1-1c0-0.031-0.015-0.059-0.018-0.089l0.014-0.002L32.095,12H35
			C35.553,12,36,11.553,36,11z M33.905,54H24v-9h-0.101c-0.479-2.835-2.928-5-5.899-5c-2.971,0-5.421,2.165-5.899,5H12v9H2.095
			l3.818-42h24.174L33.905,54z M34,10H2V2h6v3c0,0.553,0.447,1,1,1h6c0.553,0,1-0.447,1-1V2h4v3c0,0.553,0.447,1,1,1h6
			c0.553,0,1-0.447,1-1V2h6V10z"/>
	</g>
</g>
<g>
</g>
<g>
</g>
<g>
</g>
<g>
</g>
<g>
</g>
<g>
</g>
<g>
</g>
<g>
</g>
<g>
</g>
<g>
</g>
<g>
</g>
<g>
</g>
<g>
</g>
<g>
</g>
<g>
</g>
</svg>
