<?xml version="1.0" encoding="iso-8859-1"?>
<!-- Generator: Adobe Illustrator 16.0.4, SVG Export Plug-In . SVG Version: 6.00 Build 0)  -->
<!DOCTYPE svg PUBLIC "-//W3C//DTD SVG 1.1//EN" "http://www.w3.org/Graphics/SVG/1.1/DTD/svg11.dtd">
<svg version="1.1" id="Layer_1" xmlns="http://www.w3.org/2000/svg" xmlns:xlink="http://www.w3.org/1999/xlink" x="0px" y="0px"
	 width="44px" height="40.004px" viewBox="0 0 44 40.004" style="enable-background:new 0 0 44 40.004;" xml:space="preserve">
<g id="_x31_182-cat_x40_2x.png">
	<g>
		<path d="M18,16.004c1.104,0,2-0.896,2-2s-0.896-2-2-2s-2,0.896-2,2S16.896,16.004,18,16.004z M26,12.004c-1.104,0-2,0.896-2,2
			s0.896,2,2,2s2-0.896,2-2S27.104,12.004,26,12.004z M44,19.004c0-0.553-0.448-1-1-1c-0.049,0-0.091,0.021-0.139,0.028
			l-0.003-0.019l-3.1,0.443c-0.146-0.895-0.351-1.769-0.616-2.614c0.141-0.104,0.246-0.25,0.289-0.426
			c1.007-4.115,3.15-12.331,2.454-13.894c-0.168-0.378-0.603-0.896-1.719-1.221C39.485,0.104,38.733,0,37.9,0
			c-2.729,0-6.338,1.126-11.174,3.684C25.218,3.263,23.638,3.019,22,3.019s-3.218,0.244-4.726,0.665C12.438,1.126,8.83,0,6.1,0
			C5.267,0,4.515,0.104,3.833,0.303c-1.116,0.324-1.55,0.843-1.719,1.221c-0.696,1.562,1.447,9.778,2.454,13.894
			c0.043,0.176,0.148,0.322,0.289,0.426c-0.265,0.846-0.47,1.72-0.616,2.614l-3.1-0.443l-0.003,0.019
			C1.092,18.025,1.049,18.004,1,18.004c-0.552,0-1,0.447-1,1c0,0.503,0.377,0.902,0.861,0.972l-0.003,0.019l3.17,0.453
			c-0.02,0.353-0.042,0.706-0.042,1.064c0,0.219,0.024,0.432,0.032,0.648l-0.877-0.146l-0.003,0.019
			C3.091,22.025,3.049,22.004,3,22.004c-0.552,0-1,0.448-1,1c0,0.503,0.377,0.901,0.861,0.972l-0.003,0.019l1.343,0.224
			C5.48,33.145,12.95,40.004,22,40.004s16.52-6.859,17.798-15.786l1.343-0.224l-0.003-0.019C41.623,23.905,42,23.507,42,23.004
			c0-0.552-0.448-1-1-1c-0.049,0-0.091,0.021-0.139,0.028l-0.003-0.019l-0.877,0.146c0.007-0.217,0.032-0.43,0.032-0.648
			c0-0.358-0.021-0.712-0.042-1.064l3.17-0.453l-0.003-0.019C43.623,19.905,44,19.507,44,19.004z M37.899,1.996
			c0.627,0.001,1.202,0.075,1.709,0.224c0.21,0.061,0.344,0.121,0.424,0.166c0.104,1.683-1.318,7.602-2.058,10.602
			c-1.879-3.704-4.94-6.669-8.674-8.372C32.858,2.884,35.75,1.996,37.899,1.996z M3.967,2.386C4.048,2.341,4.182,2.28,4.392,2.22
			c0.507-0.148,1.083-0.223,1.709-0.224c2.149,0,5.042,0.888,8.599,2.619c-3.734,1.703-6.795,4.668-8.674,8.372
			C5.286,9.987,3.864,4.068,3.967,2.386z M37.955,22.498l-9.097,1.516l0.003,0.019C28.377,24.103,28,24.501,28,25.004
			c0,0.553,0.448,1,1,1c0.049,0,0.091-0.021,0.139-0.028l0.003,0.019l8.576-1.43C36.321,32.21,29.821,37.997,22,37.997
			S7.679,32.21,6.283,24.564l8.575,1.43l0.003-0.019c0.047,0.007,0.089,0.028,0.139,0.028c0.552,0,1-0.447,1-1
			c0-0.503-0.377-0.901-0.861-0.972l0.003-0.019l-9.097-1.516c-0.02-0.333-0.049-0.664-0.049-1.002c0-0.258,0.026-0.508,0.037-0.763
			l8.825,1.261l0.003-0.019c0.047,0.007,0.089,0.028,0.139,0.028c0.552,0,1-0.447,1-1c0-0.503-0.377-0.901-0.861-0.972l0.003-0.019
			l-8.905-1.271C7.51,10.942,14.073,4.995,22,4.995s14.49,5.947,15.764,13.747l-8.905,1.271l0.003,0.019
			C28.377,20.103,28,20.501,28,21.004c0,0.553,0.448,1,1,1c0.049,0,0.091-0.021,0.139-0.028l0.003,0.019l8.825-1.261
			c0.011,0.255,0.038,0.505,0.038,0.763C38.004,21.834,37.975,22.165,37.955,22.498z M23.044,27.312
			c0.862-0.673,1.943-1.793,1.943-3.202c0-1.56,0-3.118-2.987-3.118s-2.987,1.559-2.987,3.118c0,1.409,1.082,2.527,1.943,3.2
			c-0.219,1.384-1.897,2.693-4.951,2.693c-3.185,0-4.017-2.23-4.048-2.316c-0.175-0.523-0.735-0.808-1.264-0.633
			c-0.523,0.176-0.806,0.742-0.631,1.266c0.05,0.15,1.28,3.684,5.943,3.684c2.972,0,4.915-0.997,5.979-2.323
			c1.071,1.328,3.038,2.323,6.012,2.323c4.663,0,5.893-3.533,5.943-3.684c0.174-0.523-0.108-1.09-0.631-1.266
			c-0.529-0.175-1.089,0.109-1.264,0.633c-0.031,0.086-0.863,2.316-4.048,2.316C24.943,30.004,23.265,28.695,23.044,27.312z"/>
	</g>
</g>
<g>
</g>
<g>
</g>
<g>
</g>
<g>
</g>
<g>
</g>
<g>
</g>
<g>
</g>
<g>
</g>
<g>
</g>
<g>
</g>
<g>
</g>
<g>
</g>
<g>
</g>
<g>
</g>
<g>
</g>
</svg>
