<?xml version="1.0" encoding="UTF-8" standalone="no"?>
<svg width="57px" height="54px" viewBox="0 0 57 54" version="1.1" xmlns="http://www.w3.org/2000/svg" xmlns:xlink="http://www.w3.org/1999/xlink" xmlns:sketch="http://www.bohemiancoding.com/sketch/ns">
    <!-- Generator: Sketch 3.0.4 (8053) - http://www.bohemiancoding.com/sketch -->
    <title>1182-cat</title>
    <desc>Created with Sketch.</desc>
    <defs></defs>
    <g id="Page-1" stroke="none" stroke-width="1" fill="none" fill-rule="evenodd" sketch:type="MSPage">
        <g id="Glyphish-8-Icons" sketch:type="MSArtboardGroup" transform="translate(-116.000000, -789.000000)" fill="#000000">
            <g id="1182-cat" sketch:type="MSLayerGroup" transform="translate(116.036996, 789.860499)">
                <g id="_x31_182-cat_x40_2x.png" sketch:type="MSShapeGroup">
                    <path d="M56,25.003 C56,24.451 55.552,24.003 55,24.003 C54.961,24.003 54.929,24.021 54.892,24.025 L54.89,24.01 L51.706,24.364 C51.489,22.975 51.162,21.623 50.722,20.322 C50.733,20.291 50.752,20.266 50.76,20.234 C52.017,14.833 54.691,4.05 53.822,2 C53.612,1.504 53.07,0.823 51.677,0.397 C48.003,-0.729 42.68,0.468 34.666,4.961 C32.547,4.35 30.315,4.003 28,4.003 C25.685,4.003 23.453,4.35 21.334,4.961 C13.321,0.468 7.998,-0.729 4.324,0.396 C2.931,0.822 2.389,1.503 2.179,1.999 C1.311,4.05 3.984,14.832 5.241,20.233 C5.249,20.265 5.268,20.29 5.279,20.321 C4.839,21.622 4.512,22.974 4.295,24.363 L1.11,24.01 L1.109,24.026 C1.071,24.021 1.039,24.003 1,24.003 C0.448,24.003 0,24.451 0,25.003 C0,25.517 0.393,25.925 0.892,25.982 L0.89,25.997 L4.071,26.351 C4.032,26.897 4,27.446 4,28.003 C4,28.203 4.025,28.398 4.03,28.596 L3.124,28.511 L3.122,28.528 C3.08,28.522 3.043,28.503 3,28.503 C2.448,28.503 2,28.951 2,29.503 C2,30.012 2.386,30.416 2.878,30.479 L2.876,30.496 L4.148,30.616 C5.451,42.64 15.628,52.003 28,52.003 C40.372,52.003 50.55,42.64 51.852,30.615 L53.124,30.495 L53.122,30.478 C53.614,30.416 54,30.012 54,29.503 C54,28.951 53.552,28.503 53,28.503 C52.957,28.503 52.92,28.523 52.878,28.527 L52.876,28.51 L51.97,28.595 C51.975,28.397 52,28.202 52,28.002 C52,27.445 51.968,26.897 51.93,26.35 L55.111,25.996 L55.11,25.98 C55.607,25.925 56,25.517 56,25.003 L56,25.003 Z M50.943,2.248 C51.667,2.446 51.93,2.69 51.965,2.762 C52.316,3.896 51.06,9.943 49.401,17.181 C46.825,12.099 42.511,8.05 37.222,5.846 C43.624,2.474 47.998,1.443 50.943,2.248 L50.943,2.248 Z M4.036,2.762 C4.07,2.69 4.333,2.446 5.057,2.248 C8.002,1.443 12.376,2.474 18.778,5.846 C13.489,8.05 9.175,12.098 6.599,17.181 C4.94,9.942 3.684,3.896 4.036,2.762 L4.036,2.762 Z M49.96,28.784 L36.876,30.011 L36.878,30.028 C36.386,30.091 36,30.494 36,31.003 C36,31.556 36.448,32.003 37,32.003 C37.043,32.003 37.08,31.983 37.122,31.979 L37.124,31.996 L49.802,30.808 C48.422,41.63 39.198,50.003 28,50.003 C16.802,50.003 7.578,41.63 6.198,30.807 L18.876,31.995 L18.878,31.978 C18.92,31.983 18.957,32.002 19,32.002 C19.552,32.002 20,31.555 20,31.002 C20,30.493 19.614,30.09 19.122,30.026 L19.124,30.009 L6.04,28.784 C6.03,28.522 6,28.267 6,28.003 C6,27.521 6.042,27.048 6.072,26.573 L18.889,27.997 L18.89,27.981 C18.928,27.985 18.96,28.002 18.999,28.002 C19.551,28.002 19.999,27.555 19.999,27.002 C19.999,26.488 19.606,26.081 19.108,26.024 L19.109,26.007 L6.292,24.585 C7.938,14.062 17.016,6.003 28,6.003 C38.984,6.003 48.062,14.063 49.708,24.585 L36.89,26.009 L36.892,26.026 C36.393,26.082 36,26.489 36,27.003 C36,27.556 36.448,28.003 37,28.003 C37.039,28.003 37.071,27.985 37.109,27.982 L37.11,27.998 L49.927,26.574 C49.958,27.048 50,27.521 50,28.003 C50,28.267 49.97,28.522 49.96,28.784 L49.96,28.784 Z M24,19.003 C24,17.347 22.657,16.003 21,16.003 C19.343,16.003 18,17.347 18,19.003 C18,20.66 19.343,22.003 21,22.003 C22.657,22.003 24,20.66 24,19.003 L24,19.003 Z M38,19.003 C38,17.347 36.657,16.003 35,16.003 C33.343,16.003 32,17.347 32,19.003 C32,20.66 33.343,22.003 35,22.003 C36.657,22.003 38,20.66 38,19.003 L38,19.003 Z M29.033,35.374 C30.218,34.561 32,33.009 32,31.003 C32,29.003 32,27.003 28,27.003 C24,27.003 24,29.003 24,31.003 C24,33.006 25.779,34.558 26.964,35.372 C26.813,36.589 25.865,40.002 19.986,40.002 C15.884,40.002 14.997,35.973 14.962,35.805 C14.854,35.263 14.328,34.91 13.784,35.02 C13.242,35.128 12.891,35.656 12.999,36.198 C13.4,38.206 15.378,42.004 19.986,42.004 C24.687,42.004 26.93,40.076 28.004,38.245 C29.078,40.078 31.31,42.004 35.996,42.004 C40.595,42.004 42.569,38.206 42.97,36.198 C43.078,35.656 42.728,35.129 42.187,35.02 C41.644,34.911 41.119,35.263 41.011,35.805 C40.976,35.973 40.091,40.002 35.996,40.002 C30.131,40.002 29.184,36.591 29.033,35.374 L29.033,35.374 Z" id="Shape"></path>
                </g>
            </g>
        </g>
    </g>
</svg>