<?xml version="1.0" encoding="iso-8859-1"?>
<!-- Generator: Adobe Illustrator 16.0.4, SVG Export Plug-In . SVG Version: 6.00 Build 0)  -->
<!DOCTYPE svg PUBLIC "-//W3C//DTD SVG 1.1//EN" "http://www.w3.org/Graphics/SVG/1.1/DTD/svg11.dtd">
<svg version="1.1" id="Layer_1" xmlns="http://www.w3.org/2000/svg" xmlns:xlink="http://www.w3.org/1999/xlink" x="0px" y="0px"
	 width="44px" height="44px" viewBox="0 0 44 44" style="enable-background:new 0 0 44 44;" xml:space="preserve">
<g id="_x37_94-chart-toolbar_x40_2x.png">
	<g>
		<path d="M23,1c0-0.552-0.447-1-1-1c-0.552,0-1,0.448-1,1v3h2V1z M42,6H2C0.896,6,0,6.896,0,8v26c0,1.104,0.896,2,2,2h14.196
			l-4.044,6.47l0.015,0.01C12.07,42.634,12,42.805,12,43c0,0.553,0.447,1,1,1c0.357,0,0.656-0.197,0.833-0.479l0.015,0.01L18.555,36
			h6.891l4.707,7.53l0.015-0.01C30.344,43.803,30.643,44,31,44c0.553,0,1-0.447,1-1c0-0.195-0.07-0.366-0.167-0.521l0.015-0.01
			L27.805,36H42c1.104,0,2-0.896,2-2V8C44,6.896,43.104,6,42,6z M42,34H2V8h40V34z M7,30c0.276,0,0.526-0.111,0.707-0.293L19,18.414
			l7.293,7.293C26.474,25.888,26.724,26,27,26s0.526-0.112,0.707-0.293L36,17.414V21c0,0.553,0.447,1,1,1s1-0.447,1-1v-6
			c0-0.552-0.447-1-1-1h-6c-0.553,0-1,0.448-1,1c0,0.553,0.447,1,1,1h3.586L27,23.586l-7.293-7.293C19.526,16.112,19.276,16,19,16
			s-0.526,0.112-0.707,0.293l-12,12C6.112,28.474,6,28.724,6,29C6,29.553,6.447,30,7,30z"/>
	</g>
</g>
<g>
</g>
<g>
</g>
<g>
</g>
<g>
</g>
<g>
</g>
<g>
</g>
<g>
</g>
<g>
</g>
<g>
</g>
<g>
</g>
<g>
</g>
<g>
</g>
<g>
</g>
<g>
</g>
<g>
</g>
</svg>
