<?xml version="1.0" encoding="iso-8859-1"?>
<!-- Generator: Adobe Illustrator 16.0.4, SVG Export Plug-In . SVG Version: 6.00 Build 0)  -->
<!DOCTYPE svg PUBLIC "-//W3C//DTD SVG 1.1//EN" "http://www.w3.org/Graphics/SVG/1.1/DTD/svg11.dtd">
<svg version="1.1" id="Layer_1" xmlns="http://www.w3.org/2000/svg" xmlns:xlink="http://www.w3.org/1999/xlink" x="0px" y="0px"
	 width="56px" height="56px" viewBox="0 0 56 56" style="enable-background:new 0 0 56 56;" xml:space="preserve">
<g id="_x37_94-chart_x40_2x.png">
	<g>
		<path d="M29,1c0-0.552-0.447-1-1-1s-1,0.448-1,1v3h2V1z M54,6H2C0.896,6,0,6.896,0,8v32c0,1.104,0.896,2,2,2h17.946l-7.794,12.47
			l0.015,0.01C12.07,54.634,12,54.805,12,55c0,0.553,0.447,1,1,1c0.357,0,0.656-0.197,0.833-0.479l0.015,0.01L22.305,42h11.391
			l8.457,13.53l0.015-0.01C42.344,55.803,42.643,56,43,56c0.553,0,1-0.447,1-1c0-0.195-0.07-0.366-0.167-0.521l0.015-0.01L36.055,42
			H54c1.104,0,2-0.896,2-2V8C56,6.896,55.104,6,54,6z M54,40H2V8h52V40z M9,34c0.276,0,0.526-0.111,0.707-0.293L23,20.414
			l9.293,9.293C32.474,29.888,32.724,30,33,30s0.526-0.112,0.707-0.293L46,17.415V23c0,0.553,0.447,1,1,1s1-0.447,1-1v-8
			c0-0.552-0.447-1-1-1h-8c-0.553,0-1,0.448-1,1c0,0.553,0.447,1,1,1h5.586L33,27.586l-9.293-9.293C23.526,18.112,23.276,18,23,18
			s-0.526,0.112-0.707,0.293l-14,14C8.112,32.474,8,32.724,8,33C8,33.553,8.447,34,9,34z"/>
	</g>
</g>
<g>
</g>
<g>
</g>
<g>
</g>
<g>
</g>
<g>
</g>
<g>
</g>
<g>
</g>
<g>
</g>
<g>
</g>
<g>
</g>
<g>
</g>
<g>
</g>
<g>
</g>
<g>
</g>
<g>
</g>
</svg>
