<?xml version="1.0" encoding="iso-8859-1"?>
<!-- Generator: Adobe Illustrator 16.0.4, SVG Export Plug-In . SVG Version: 6.00 Build 0)  -->
<!DOCTYPE svg PUBLIC "-//W3C//DTD SVG 1.1//EN" "http://www.w3.org/Graphics/SVG/1.1/DTD/svg11.dtd">
<svg version="1.1" id="Layer_1" xmlns="http://www.w3.org/2000/svg" xmlns:xlink="http://www.w3.org/1999/xlink" x="0px" y="0px"
	 width="44px" height="40px" viewBox="0 0 44 40" style="enable-background:new 0 0 44 40;" xml:space="preserve">
<g id="_x37_34-chat-toolbar_x40_2x.png">
	<g>
		<path d="M22,0C9.85,0,0,8.062,0,18.007c0,5.871,3.448,11.069,8.761,14.356C8.283,34.597,6.972,37.241,3.995,40
			c0,0,7.623-0.002,12.344-4.611c1.81,0.394,3.7,0.624,5.661,0.624c12.15,0,22-8.062,22-18.006C44,8.062,34.15,0,22,0z M22,34.007
			c-2.291,0-4.482-0.324-6.531-0.892c-2.702,3.563-6.894,4.397-6.894,4.397c1.644-1.983,2.2-4.232,2.289-6.219
			c-5.34-2.872-8.855-7.751-8.855-13.288C2.009,9.17,10.959,2.007,22,2.007S41.991,9.17,41.991,18.006
			C41.991,26.843,33.041,34.007,22,34.007z"/>
	</g>
</g>
<g>
</g>
<g>
</g>
<g>
</g>
<g>
</g>
<g>
</g>
<g>
</g>
<g>
</g>
<g>
</g>
<g>
</g>
<g>
</g>
<g>
</g>
<g>
</g>
<g>
</g>
<g>
</g>
<g>
</g>
</svg>
