<?xml version="1.0" encoding="UTF-8" standalone="no"?>
<svg width="58px" height="54px" viewBox="0 0 58 54" version="1.1" xmlns="http://www.w3.org/2000/svg" xmlns:xlink="http://www.w3.org/1999/xlink" xmlns:sketch="http://www.bohemiancoding.com/sketch/ns">
    <!-- Generator: Sketch 3.0.4 (8053) - http://www.bohemiancoding.com/sketch -->
    <title>1226-chat-plus</title>
    <desc>Created with Sketch.</desc>
    <defs></defs>
    <g id="Page-1" stroke="none" stroke-width="1" fill="none" fill-rule="evenodd" sketch:type="MSPage">
        <g id="Glyphish-8-Icons" sketch:type="MSArtboardGroup" transform="translate(-500.000000, -1173.000000)" fill="#000000">
            <g id="1226-chat-plus" sketch:type="MSLayerGroup" transform="translate(500.036996, 1173.860499)">
                <g id="_x31_226-chat-plus_x40_2x.png" sketch:type="MSShapeGroup">
                    <path d="M28,42 C25.742,42 23.563,41.756 21.475,41.34 C17.556,46.806 10.438,47.75 10.438,47.75 C13.071,44.679 13.885,41.464 13.972,38.822 C6.777,35.265 2,29.067 2,22 C2,10.954 13.641,2 28,2 C42.359,2 54,10.954 54,22 C54,24.832 53.225,27.521 51.846,29.963 C52.41,30.315 52.948,30.702 53.45,31.133 C55.072,28.349 56,25.263 56,22 C56,9.85 43.464,0 28,0 C12.536,0 0,9.85 0,22 C0,29.502 4.787,36.119 12.084,40.09 C11.612,42.93 10.019,46.383 6,50 C6,50 16.487,49.995 22.273,43.536 C24.122,43.838 26.037,44 28,44 C29.462,44 30.887,43.886 32.289,43.716 C32.152,43.072 32.075,42.409 32.037,41.736 C30.719,41.894 29.377,42 28,42 L28,42 Z M46,36 L44,36 L44,40 L40,40 L40,42 L44,42 L44,46 L46,46 L46,42 L50,42 L50,40 L46,40 L46,36 L46,36 Z M45,30 C38.925,30 34,34.925 34,41 C34,47.075 38.925,52 45,52 C51.075,52 56,47.075 56,41 C56,34.925 51.075,30 45,30 L45,30 Z M45,50 C40.029,50 36,45.971 36,41 C36,36.029 40.029,32 45,32 C49.971,32 54,36.029 54,41 C54,45.971 49.971,50 45,50 L45,50 Z" id="Shape"></path>
                </g>
            </g>
        </g>
    </g>
</svg>