<?xml version="1.0" encoding="iso-8859-1"?>
<!-- Generator: Adobe Illustrator 16.0.4, SVG Export Plug-In . SVG Version: 6.00 Build 0)  -->
<!DOCTYPE svg PUBLIC "-//W3C//DTD SVG 1.1//EN" "http://www.w3.org/Graphics/SVG/1.1/DTD/svg11.dtd">
<svg version="1.1" id="Layer_1" xmlns="http://www.w3.org/2000/svg" xmlns:xlink="http://www.w3.org/1999/xlink" x="0px" y="0px"
	 width="44px" height="40px" viewBox="0 0 44 40" style="enable-background:new 0 0 44 40;" xml:space="preserve">
<g id="_x39_06-chat-3-toolbar_x40_2x.png">
	<g>
		<path d="M32,13c-1.657,0-3,1.343-3,3s1.343,3,3,3s3-1.343,3-3S33.657,13,32,13z M32,17c-0.553,0-1-0.447-1-1c0-0.552,0.447-1,1-1
			s1,0.448,1,1C33,16.553,32.553,17,32,17z M12,13c-1.657,0-3,1.343-3,3s1.343,3,3,3s3-1.343,3-3S13.657,13,12,13z M12,17
			c-0.553,0-1-0.447-1-1c0-0.552,0.447-1,1-1s1,0.448,1,1C13,16.553,12.553,17,12,17z M22,13c-1.657,0-3,1.343-3,3s1.343,3,3,3
			s3-1.343,3-3S23.657,13,22,13z M22,17c-0.553,0-1-0.447-1-1c0-0.552,0.447-1,1-1s1,0.448,1,1C23,16.553,22.553,17,22,17z M36,0H8
			C3.582,0,0,3.582,0,8v16c0,4.418,3.582,8,8,8h2v8l11.2-8H36c4.418,0,8-3.582,8-8V8C44,3.582,40.418,0,36,0z M42,24
			c0,3.313-2.687,6-6,6H20.491L12,36.062V30H8c-3.313,0-6-2.687-6-6V8c0-3.313,2.687-6,6-6h28c3.313,0,6,2.687,6,6V24z"/>
	</g>
</g>
<g>
</g>
<g>
</g>
<g>
</g>
<g>
</g>
<g>
</g>
<g>
</g>
<g>
</g>
<g>
</g>
<g>
</g>
<g>
</g>
<g>
</g>
<g>
</g>
<g>
</g>
<g>
</g>
<g>
</g>
</svg>
