<?xml version="1.0" encoding="iso-8859-1"?>
<!-- Generator: Adobe Illustrator 16.0.4, SVG Export Plug-In . SVG Version: 6.00 Build 0)  -->
<!DOCTYPE svg PUBLIC "-//W3C//DTD SVG 1.1//EN" "http://www.w3.org/Graphics/SVG/1.1/DTD/svg11.dtd">
<svg version="1.1" id="Layer_1" xmlns="http://www.w3.org/2000/svg" xmlns:xlink="http://www.w3.org/1999/xlink" x="0px" y="0px"
	 width="56px" height="48.005px" viewBox="0 0 56 48.005" style="enable-background:new 0 0 56 48.005;" xml:space="preserve">
<g id="_x38_42-chat-bubbles_x40_2x.png">
	<g>
		<path d="M56,25.998C56,18.267,48.837,12,40,12c-0.948,0-1.871,0.086-2.773,0.225C34.918,5.162,27.639,0,19,0C8.507,0,0,7.611,0,17
			c0,4.186,1.697,8.012,4.501,10.974c-1.278,7.035,0.261,14,0.261,14c2.662-5.228,5.879-7.65,8.66-8.722
			C15.187,33.736,17.059,34,19,34c2.48,0,4.842-0.438,7.014-1.211c2.732,4.296,7.969,7.206,13.986,7.206
			c1.188,0,2.341-0.121,3.454-0.336c2.565,1.226,5.397,3.654,7.784,8.346c0,0,1.33-6.015,0.495-12.513
			C54.373,32.996,56,29.667,56,25.998z M19,32c-1.919,0-3.756-0.293-5.477-0.811c-2.426,0.701-5.188,2.242-7.425,5.51
			c0,0-0.557-4.519,0.595-9.37C3.792,24.639,2,21.007,2,17C2,8.716,9.611,2,19,2c7.663,0,14.138,4.476,16.261,10.625
			C28.738,14.393,24,19.711,24,25.998c0,1.764,0.389,3.445,1.07,5C23.183,31.636,21.142,32,19,32z M49.594,34.719
			c0.766,4.304,0.308,8.008,0.308,8.008c-1.906-2.786-4.192-4.313-6.328-5.142c-1.143,0.259-2.336,0.409-3.573,0.409
			c-7.732,0-14-5.371-14-11.996c0-6.626,6.268-11.997,14-11.997s14,5.371,14,11.997C54,29.438,52.301,32.531,49.594,34.719z"/>
	</g>
</g>
<g>
</g>
<g>
</g>
<g>
</g>
<g>
</g>
<g>
</g>
<g>
</g>
<g>
</g>
<g>
</g>
<g>
</g>
<g>
</g>
<g>
</g>
<g>
</g>
<g>
</g>
<g>
</g>
<g>
</g>
</svg>
