<?xml version="1.0" encoding="iso-8859-1"?>
<!-- Generator: Adobe Illustrator 16.0.4, SVG Export Plug-In . SVG Version: 6.00 Build 0)  -->
<!DOCTYPE svg PUBLIC "-//W3C//DTD SVG 1.1//EN" "http://www.w3.org/Graphics/SVG/1.1/DTD/svg11.dtd">
<svg version="1.1" id="Layer_1" xmlns="http://www.w3.org/2000/svg" xmlns:xlink="http://www.w3.org/1999/xlink" x="0px" y="0px"
	 width="44px" height="44px" viewBox="0 0 44 44" style="enable-background:new 0 0 44 44;" xml:space="preserve">
<g id="_x31_226-chat-plus_x40_2x.png">
	<g>
		<path d="M33,22c-6.075,0-11,4.925-11,11s4.925,11,11,11s11-4.925,11-11S39.075,22,33,22z M33,42c-4.971,0-9-4.029-9-9s4.029-9,9-9
			s9,4.029,9,9S37.971,42,33,42z M17.026,33.484l-1.037-0.213l-0.759,0.736c-1.75,1.697-4.081,2.673-6.166,3.233
			c0.902-1.446,1.49-2.946,1.756-4.489l0.23-1.336l-1.157-0.709C4.877,27.636,2,23.006,2,18.004C2,9.18,10.972,2,22,2
			s20,7.18,20,16.004c0,1.678-0.328,3.295-0.93,4.816c0.552,0.438,1.062,0.922,1.536,1.442C43.492,22.311,44,20.208,44,18.004
			C44,8.061,34.15,0,22,0S0,8.061,0,18.004c0,5.902,3.486,11.125,8.85,14.409C8.475,34.588,7.215,37.228,3.995,40
			c0,0,7.936-0.007,12.627-4.557c1.202,0.248,2.45,0.39,3.719,0.475c-0.15-0.654-0.248-1.327-0.295-2.015
			C19.049,33.819,18.042,33.693,17.026,33.484z M34,28h-2v4h-4v2h4v4h2v-4h4v-2h-4V28z"/>
	</g>
</g>
<g>
</g>
<g>
</g>
<g>
</g>
<g>
</g>
<g>
</g>
<g>
</g>
<g>
</g>
<g>
</g>
<g>
</g>
<g>
</g>
<g>
</g>
<g>
</g>
<g>
</g>
<g>
</g>
<g>
</g>
</svg>
