<?xml version="1.0" encoding="iso-8859-1"?>
<!-- Generator: Adobe Illustrator 16.0.4, SVG Export Plug-In . SVG Version: 6.00 Build 0)  -->
<!DOCTYPE svg PUBLIC "-//W3C//DTD SVG 1.1//EN" "http://www.w3.org/Graphics/SVG/1.1/DTD/svg11.dtd">
<svg version="1.1" id="Layer_1" xmlns="http://www.w3.org/2000/svg" xmlns:xlink="http://www.w3.org/1999/xlink" x="0px" y="0px"
	 width="56px" height="50px" viewBox="0 0 56 50" style="enable-background:new 0 0 56 50;" xml:space="preserve">
<g id="_x37_34-chat_x40_2x.png">
	<g>
		<path d="M28,0C12.536,0,0,9.85,0,22c0,7.502,4.787,14.119,12.084,18.09C11.612,42.93,10.019,46.384,6,50
			c0,0,10.487-0.005,16.273-6.464C24.122,43.838,26.037,44,28,44c15.464,0,28-9.85,28-22S43.464,0,28,0z M28,42
			c-2.258,0-4.437-0.244-6.524-0.66c-3.92,5.466-11.038,6.41-11.038,6.41c2.633-3.071,3.447-6.286,3.534-8.928
			C6.777,35.265,2,29.067,2,22C2,10.954,13.641,2,28,2s26,8.954,26,20S42.359,42,28,42z"/>
	</g>
</g>
<g>
</g>
<g>
</g>
<g>
</g>
<g>
</g>
<g>
</g>
<g>
</g>
<g>
</g>
<g>
</g>
<g>
</g>
<g>
</g>
<g>
</g>
<g>
</g>
<g>
</g>
<g>
</g>
<g>
</g>
</svg>
