<?xml version="1.0" encoding="iso-8859-1"?>
<!-- Generator: Adobe Illustrator 16.0.4, SVG Export Plug-In . SVG Version: 6.00 Build 0)  -->
<!DOCTYPE svg PUBLIC "-//W3C//DTD SVG 1.1//EN" "http://www.w3.org/Graphics/SVG/1.1/DTD/svg11.dtd">
<svg version="1.1" id="Layer_1" xmlns="http://www.w3.org/2000/svg" xmlns:xlink="http://www.w3.org/1999/xlink" x="0px" y="0px"
	 width="44px" height="40px" viewBox="0 0 44 40" style="enable-background:new 0 0 44 40;" xml:space="preserve">
<g id="_x39_05-chat-2-toolbar_x40_2x.png">
	<g>
		<path d="M36,0H8C3.582,0,0,3.582,0,8v16c0,4.418,3.582,8,8,8h2v8l11.2-8H36c4.418,0,8-3.582,8-8V8C44,3.582,40.418,0,36,0z M42,24
			c0,3.313-2.687,6-6,6H20.491L12,36.062V30H8c-3.313,0-6-2.687-6-6V8c0-3.313,2.687-6,6-6h28c3.313,0,6,2.687,6,6V24z"/>
	</g>
</g>
<g>
</g>
<g>
</g>
<g>
</g>
<g>
</g>
<g>
</g>
<g>
</g>
<g>
</g>
<g>
</g>
<g>
</g>
<g>
</g>
<g>
</g>
<g>
</g>
<g>
</g>
<g>
</g>
<g>
</g>
</svg>
