<?xml version="1.0" encoding="iso-8859-1"?>
<!-- Generator: Adobe Illustrator 16.0.4, SVG Export Plug-In . SVG Version: 6.00 Build 0)  -->
<!DOCTYPE svg PUBLIC "-//W3C//DTD SVG 1.1//EN" "http://www.w3.org/Graphics/SVG/1.1/DTD/svg11.dtd">
<svg version="1.1" id="Layer_1" xmlns="http://www.w3.org/2000/svg" xmlns:xlink="http://www.w3.org/1999/xlink" x="0px" y="0px"
	 width="44px" height="36.008px" viewBox="0 0 44 36.008" style="enable-background:new 0 0 44 36.008;" xml:space="preserve">
<g id="_x38_42-chat-bubbles-toolbar_x40_2x.png">
	<g>
		<path d="M44,19.502c0-5.798-5.369-10.498-11.994-10.498c-0.912,0-1.797,0.097-2.651,0.266C27.503,3.912,21.794,0,15.007,0
			C6.719,0,0,5.82,0,13c0,3.506,1.609,6.682,4.215,9.021c-0.62,4.674,0.378,8.99,0.378,8.99c1.652-3.105,3.586-4.826,5.39-5.773
			C11.555,25.723,13.242,26,15.007,26c2.36,0,4.592-0.474,6.578-1.315C23.648,27.856,27.538,30,32.006,30
			c0.465,0,0.922-0.028,1.373-0.073c1.984,0.856,4.198,2.598,6.059,6.081c0,0,0.943-4.073,0.428-8.588
			C42.395,25.496,44,22.666,44,19.502z M20.663,22.889C18.951,23.595,17.036,24,15.007,24c-1.494,0-2.986-0.227-4.435-0.674
			l-0.789-0.243l-0.73,0.384c-1.091,0.573-2.105,1.319-3.038,2.235c-0.019-1.064,0.025-2.23,0.183-3.419l0.139-1.046l-0.785-0.705
			C3.261,18.477,2,15.802,2,13C2,6.935,7.835,2,15.007,2c5.854,0,10.81,3.289,12.435,7.796c-4.358,1.572-7.429,5.323-7.429,9.706
			C20.013,20.688,20.248,21.825,20.663,22.889z M38.654,25.828l-0.905,0.688l0.129,1.13c0.121,1.061,0.154,2.1,0.136,3.059
			c-1.158-1.136-2.441-2.01-3.842-2.614l-0.476-0.205l-0.516,0.051C32.752,27.979,32.368,28,32.006,28
			c-3.672,0-6.88-1.699-8.616-4.216c-0.19-0.275-0.364-0.561-0.52-0.854c-0.002-0.004-0.005-0.009-0.008-0.014
			c-0.155-0.296-0.292-0.6-0.406-0.913c-0.287-0.792-0.443-1.632-0.443-2.502c0-3.448,2.433-6.418,5.911-7.749
			c0.306-0.116,0.618-0.221,0.938-0.312c0.002-0.001,0.004-0.002,0.007-0.002c0.321-0.092,0.649-0.169,0.985-0.232
			c0.693-0.13,1.412-0.203,2.151-0.203c5.511,0,9.994,3.812,9.994,8.498C42,21.905,40.78,24.211,38.654,25.828z"/>
	</g>
</g>
<g>
</g>
<g>
</g>
<g>
</g>
<g>
</g>
<g>
</g>
<g>
</g>
<g>
</g>
<g>
</g>
<g>
</g>
<g>
</g>
<g>
</g>
<g>
</g>
<g>
</g>
<g>
</g>
<g>
</g>
</svg>
