<?xml version="1.0" encoding="iso-8859-1"?>
<!-- Generator: Adobe Illustrator 16.0.4, SVG Export Plug-In . SVG Version: 6.00 Build 0)  -->
<!DOCTYPE svg PUBLIC "-//W3C//DTD SVG 1.1//EN" "http://www.w3.org/Graphics/SVG/1.1/DTD/svg11.dtd">
<svg version="1.1" id="Layer_1" xmlns="http://www.w3.org/2000/svg" xmlns:xlink="http://www.w3.org/1999/xlink" x="0px" y="0px"
	 width="56px" height="52px" viewBox="0 0 56 52" style="enable-background:new 0 0 56 52;" xml:space="preserve">
<g id="_x31_040-checkmark_x40_2x.png">
	<g>
		<path d="M56,5c0-2.762-2.238-5-5-5c-1.459,0-2.738,0.655-3.65,1.654l-0.035-0.033L18.321,33.25l-9.786-9.785l-0.011,0.011
			C7.621,22.569,6.381,22,5,22c-2.762,0-5,2.238-5,5c0,1.067,0.34,2.052,0.91,2.863l-0.007,0.004l14,20l0.007-0.004
			C15.814,51.152,17.306,52,19,52c1.622,0,3.049-0.784,3.962-1.981l0.016,0.012l32-42l-0.016-0.012C55.604,7.178,56,6.14,56,5z
			 M53.372,6.806L52.164,8.42l0.001,0.001L22.59,47.239l-0.015-0.011l-1.203,1.577C20.793,49.564,19.929,50,19,50
			c-0.971,0-1.888-0.48-2.452-1.285l-0.852-1.202L3.799,30.516L3.81,30.51l-1.263-1.797C2.189,28.205,2,27.612,2,27
			c0-1.654,1.346-3,3-3c0.789,0,1.537,0.315,2.107,0.888l1.426,1.408l0.002-0.003l8.372,8.371l1.477,1.478l1.412-1.54L47.417,4.469
			l0.038,0.036l1.371-1.502C49.417,2.356,50.188,2,51,2c1.654,0,3,1.346,3,3C54,5.812,53.658,6.43,53.372,6.806z"/>
	</g>
</g>
<g>
</g>
<g>
</g>
<g>
</g>
<g>
</g>
<g>
</g>
<g>
</g>
<g>
</g>
<g>
</g>
<g>
</g>
<g>
</g>
<g>
</g>
<g>
</g>
<g>
</g>
<g>
</g>
<g>
</g>
</svg>
