<?xml version="1.0" encoding="iso-8859-1"?>
<!-- Generator: Adobe Illustrator 16.0.4, SVG Export Plug-In . SVG Version: 6.00 Build 0)  -->
<!DOCTYPE svg PUBLIC "-//W3C//DTD SVG 1.1//EN" "http://www.w3.org/Graphics/SVG/1.1/DTD/svg11.dtd">
<svg version="1.1" id="Layer_1" xmlns="http://www.w3.org/2000/svg" xmlns:xlink="http://www.w3.org/1999/xlink" x="0px" y="0px"
	 width="56px" height="56px" viewBox="0 0 56 56" style="enable-background:new 0 0 56 56;" xml:space="preserve">
<g id="_x39_77-checkbox_x40_2x.png">
	<g>
		<path d="M47,19c-0.553,0-1,0.447-1,1v30c0,2.209-1.791,4-4,4H6c-2.209,0-4-1.791-4-4V14c0-2.209,1.791-4,4-4h34
			c0.553,0,1-0.447,1-1c0-0.552-0.447-1-1-1H6c-3.313,0-6,2.687-6,6v36c0,3.313,2.687,6,6,6h36c3.313,0,6-2.687,6-6V20
			C48,19.447,47.553,19,47,19z M56,1c0-0.552-0.447-1-1-1c-0.312,0-0.58,0.152-0.764,0.377l-0.011-0.009L23.925,37.511
			L10.707,24.293C10.526,24.112,10.276,24,10,24c-0.553,0-1,0.447-1,1c0,0.276,0.112,0.526,0.293,0.707l14,14
			C23.474,39.889,23.724,40,24,40c0.312,0,0.58-0.152,0.764-0.377l0.011,0.009l31.001-38l-0.012-0.009C55.904,1.451,56,1.24,56,1z"
			/>
	</g>
</g>
<g>
</g>
<g>
</g>
<g>
</g>
<g>
</g>
<g>
</g>
<g>
</g>
<g>
</g>
<g>
</g>
<g>
</g>
<g>
</g>
<g>
</g>
<g>
</g>
<g>
</g>
<g>
</g>
<g>
</g>
</svg>
