<?xml version="1.0" encoding="iso-8859-1"?>
<!-- Generator: Adobe Illustrator 16.0.4, SVG Export Plug-In . SVG Version: 6.00 Build 0)  -->
<!DOCTYPE svg PUBLIC "-//W3C//DTD SVG 1.1//EN" "http://www.w3.org/Graphics/SVG/1.1/DTD/svg11.dtd">
<svg version="1.1" id="Layer_1" xmlns="http://www.w3.org/2000/svg" xmlns:xlink="http://www.w3.org/1999/xlink" x="0px" y="0px"
	 width="44px" height="44px" viewBox="0 0 44 44" style="enable-background:new 0 0 44 44;" xml:space="preserve">
<g id="_x39_77-checkbox-toolbar_x40_2x.png">
	<g>
		<path d="M37,17c-0.553,0-1,0.447-1,1v20c0,2.209-1.791,4-4,4H6c-2.209,0-4-1.791-4-4V12c0-2.209,1.791-4,4-4h24
			c0.553,0,1-0.447,1-1c0-0.552-0.447-1-1-1H6c-3.313,0-6,2.687-6,6v26c0,3.313,2.687,6,6,6h26c3.313,0,6-2.687,6-6V18
			C38,17.447,37.553,17,37,17z M44,1c0-0.552-0.447-1-1-1c-0.312,0-0.58,0.152-0.764,0.377l-0.011-0.009L19.9,29.486l-7.193-7.193
			C12.526,22.112,12.276,22,12,22c-0.553,0-1,0.448-1,1c0,0.276,0.112,0.526,0.293,0.707l8,8C19.474,31.889,19.724,32,20,32
			c0.312,0,0.58-0.152,0.764-0.377l0.012,0.009l23-30l-0.012-0.009C43.904,1.451,44,1.239,44,1z"/>
	</g>
</g>
<g>
</g>
<g>
</g>
<g>
</g>
<g>
</g>
<g>
</g>
<g>
</g>
<g>
</g>
<g>
</g>
<g>
</g>
<g>
</g>
<g>
</g>
<g>
</g>
<g>
</g>
<g>
</g>
<g>
</g>
</svg>
