<?xml version="1.0" encoding="iso-8859-1"?>
<!-- Generator: Adobe Illustrator 16.0.4, SVG Export Plug-In . SVG Version: 6.00 Build 0)  -->
<!DOCTYPE svg PUBLIC "-//W3C//DTD SVG 1.1//EN" "http://www.w3.org/Graphics/SVG/1.1/DTD/svg11.dtd">
<svg version="1.1" id="Layer_1" xmlns="http://www.w3.org/2000/svg" xmlns:xlink="http://www.w3.org/1999/xlink" x="0px" y="0px"
	 width="44px" height="44px" viewBox="0 0 44 44" style="enable-background:new 0 0 44 44;" xml:space="preserve">
<g id="_x38_88-checkmark-toolbar_x40_2x.png">
	<g>
		<path d="M31,15c-0.276,0-0.526,0.112-0.707,0.294L19,26.586l-5.293-5.293C13.526,21.112,13.276,21,13,21c-0.552,0-1,0.448-1,1
			c0,0.276,0.112,0.526,0.293,0.707l6,6C18.474,28.889,18.724,29,19,29s0.526-0.111,0.707-0.293l12-11.999
			C31.888,16.527,32,16.277,32,16C32,15.448,31.553,15,31,15z M25.143,0h-6.285C4.714,0,0,4.715,0,18.857v6.286
			C0,39.286,4.714,44,18.857,44h6.285C39.286,44,44,39.286,44,25.144v-6.286C44,4.715,39.286,0,25.143,0z M42,25.144
			C42,38.219,38.219,42,25.143,42h-6.285C5.781,42,2,38.219,2,25.144v-6.286C2,5.781,5.781,2,18.857,2h6.285
			C38.219,2,42,5.781,42,18.857V25.144z"/>
	</g>
</g>
<g>
</g>
<g>
</g>
<g>
</g>
<g>
</g>
<g>
</g>
<g>
</g>
<g>
</g>
<g>
</g>
<g>
</g>
<g>
</g>
<g>
</g>
<g>
</g>
<g>
</g>
<g>
</g>
<g>
</g>
</svg>
