<?xml version="1.0" encoding="iso-8859-1"?>
<!-- Generator: Adobe Illustrator 16.0.4, SVG Export Plug-In . SVG Version: 6.00 Build 0)  -->
<!DOCTYPE svg PUBLIC "-//W3C//DTD SVG 1.1//EN" "http://www.w3.org/Graphics/SVG/1.1/DTD/svg11.dtd">
<svg version="1.1" id="Layer_1" xmlns="http://www.w3.org/2000/svg" xmlns:xlink="http://www.w3.org/1999/xlink" x="0px" y="0px"
	 width="44px" height="40px" viewBox="0 0 44 40" style="enable-background:new 0 0 44 40;" xml:space="preserve">
<g id="_x31_040-checkmark-toolbar_x40_2x.png">
	<g>
		<path d="M40.071,0c-1.983,0-2.896,1.247-2.896,1.247l-22.78,24.33l-7.689-7.496L6.697,18.09c-0.709-0.697-1.684-1.136-2.769-1.136
			C1.759,16.954,0,18.676,0,20.801c0,0.821,0.267,1.578,0.715,2.202L0.71,23.006l11,15.354c0,0,0.804,1.641,3.219,1.641
			c2.219,0,3.125-1.515,3.125-1.515L43.196,6.177c0,0,0.804-0.796,0.804-2.331C44,1.722,42.241,0,40.071,0z M41.618,4.948
			L16.476,37.257c-0.073,0.095-0.079,0.087-0.123,0.173C16.238,37.573,15.824,38,14.929,38c-0.946,0-1.329-0.41-1.438-0.559
			c-0.049-0.121-0.063-0.119-0.155-0.247L2.424,21.964c-0.026-0.043-0.055-0.086-0.084-0.128C2.185,21.621,2,21.267,2,20.801
			c0-1.018,0.865-1.847,1.929-1.847c0.513,0,0.998,0.199,1.366,0.562c0.056,0.056,0.114,0.106,0.174,0.153L13,27.009
			c0.373,0.365,0.875,0.568,1.396,0.568c0.015,0,0.03,0,0.046-0.001c0.537-0.012,1.047-0.24,1.414-0.632l22.78-24.33
			C38.26,3.017,38.895,2,40.071,2C41.135,2,42,2.828,42,3.846C42,4.69,41.471,5.137,41.618,4.948z"/>
	</g>
</g>
<g>
</g>
<g>
</g>
<g>
</g>
<g>
</g>
<g>
</g>
<g>
</g>
<g>
</g>
<g>
</g>
<g>
</g>
<g>
</g>
<g>
</g>
<g>
</g>
<g>
</g>
<g>
</g>
<g>
</g>
</svg>
