<?xml version="1.0" encoding="iso-8859-1"?>
<!-- Generator: Adobe Illustrator 16.0.4, SVG Export Plug-In . SVG Version: 6.00 Build 0)  -->
<!DOCTYPE svg PUBLIC "-//W3C//DTD SVG 1.1//EN" "http://www.w3.org/Graphics/SVG/1.1/DTD/svg11.dtd">
<svg version="1.1" id="Layer_1" xmlns="http://www.w3.org/2000/svg" xmlns:xlink="http://www.w3.org/1999/xlink" x="0px" y="0px"
	 width="56px" height="56px" viewBox="0 0 56 56" style="enable-background:new 0 0 56 56;" xml:space="preserve">
<g id="_x38_88-checkmark_x40_2x.png">
	<g>
		<path d="M41,19c-0.276,0-0.526,0.112-0.707,0.294L25,34.586l-9.293-9.293C15.526,25.112,15.276,25,15,25c-0.552,0-1,0.448-1,1
			c0,0.276,0.112,0.526,0.293,0.707l10,10C24.474,36.889,24.724,37,25,37s0.526-0.111,0.707-0.293l16-15.999
			C41.888,20.526,42,20.276,42,20C42,19.447,41.553,19,41,19z M32,0h-8C6,0,0,6,0,24v8c0,18,6,24,24,24h8c18,0,24-6,24-24v-8
			C56,6,50,0,32,0z M54,31.715C54,48.429,48.429,54,31.715,54h-7.429C7.571,54,2,48.429,2,31.715v-7.429C2,7.571,7.571,2,24.286,2
			h7.429C48.429,2,54,7.571,54,24.286V31.715z"/>
	</g>
</g>
<g>
</g>
<g>
</g>
<g>
</g>
<g>
</g>
<g>
</g>
<g>
</g>
<g>
</g>
<g>
</g>
<g>
</g>
<g>
</g>
<g>
</g>
<g>
</g>
<g>
</g>
<g>
</g>
<g>
</g>
</svg>
