<?xml version="1.0" encoding="iso-8859-1"?>
<!-- Generator: Adobe Illustrator 16.0.4, SVG Export Plug-In . SVG Version: 6.00 Build 0)  -->
<!DOCTYPE svg PUBLIC "-//W3C//DTD SVG 1.1//EN" "http://www.w3.org/Graphics/SVG/1.1/DTD/svg11.dtd">
<svg version="1.1" id="Layer_1" xmlns="http://www.w3.org/2000/svg" xmlns:xlink="http://www.w3.org/1999/xlink" x="0px" y="0px"
	 width="32px" height="44px" viewBox="0 0 32 44" style="enable-background:new 0 0 32 44;" xml:space="preserve">
<g id="_x31_186-chicken_x40_2x.png">
	<g>
		<path d="M12,14c-1.104,0-2,0.896-2,2s0.896,2,2,2s2-0.896,2-2S13.104,14,12,14z M23.226,7.365c0.199-0.24,0.33-0.409,0.33-0.409
			c0.907-1.598,0.391-3.629-1.153-4.536c-0.502-0.294-1.049-0.435-1.592-0.435c-0.492,0-0.973,0.13-1.414,0.354
			C18.693,0.94,17.44,0,15.999,0c-1.442,0-2.694,0.94-3.397,2.337c-0.441-0.222-0.921-0.352-1.412-0.352
			c-0.543,0-1.09,0.141-1.592,0.435C8.054,3.327,7.537,5.358,8.444,6.956c0,0,0.109,0.14,0.265,0.33C2.011,9.944,0,16.228,0,20.782
			c0,9.458,5.824,16.739,12.501,18.682c1.021,1.311,2.193,2.803,3.507,4.536c1.315-1.736,2.489-3.23,3.512-4.541
			C26.188,37.507,32,30.23,32,20.782C32,16.274,29.649,10.069,23.226,7.365z M23,7.632V8h-0.322C22.797,7.867,22.899,7.749,23,7.632
			z M19.956,4.385c0.236-0.239,0.529-0.407,0.854-0.407c0.2,0,0.392,0.053,0.568,0.156c0.568,0.334,0.773,1.111,0.479,1.744
			c-0.694,0.879-1.583,1.784-2.048,2.094c-0.121-0.023-0.221-0.069-0.319-0.116c0.337-1.534,0.506-2.974,0.506-2.974
			C19.997,4.711,19.97,4.551,19.956,4.385z M15.999,1.999c1.056,0,1.951,1.26,1.992,2.775c-0.255,2.072-0.802,4.349-1.194,4.999
			c-0.287,0.153-0.55,0.228-0.798,0.228c-0.249,0-0.512-0.074-0.798-0.228c-0.394-0.65-0.94-2.927-1.194-4.999
			C14.047,3.259,14.943,1.999,15.999,1.999z M10.622,4.134c0.176-0.104,0.367-0.156,0.567-0.156c0.324,0,0.616,0.168,0.853,0.405
			c-0.014,0.166-0.041,0.328-0.041,0.499c0,0,0.169,1.439,0.506,2.975c-0.099,0.046-0.197,0.093-0.317,0.115
			c-0.465-0.31-1.354-1.215-2.048-2.094C9.848,5.245,10.054,4.468,10.622,4.134z M9,7.632C9.101,7.749,9.203,7.867,9.322,8H9V7.632z
			 M17.404,38.917c-0.438,0.561-0.904,1.159-1.396,1.795c-0.492-0.636-0.959-1.234-1.396-1.795c-5.514-7.065-5.24-7.302-3.459-8.846
			c2.791-2.418,4.418-2.948,4.855-3.054c0.438,0.105,2.064,0.636,4.855,3.054C22.645,31.615,22.918,31.852,17.404,38.917z
			 M25.496,33.23c-1.062,1.212-2.258,2.202-3.521,2.97c2.498-3.531,2.848-5.344,0.2-7.638c-4.112-3.563-6.168-3.563-6.168-3.563
			s-2.056,0-6.167,3.563c-2.652,2.297-2.298,4.111,0.208,7.65c-1.271-0.77-2.475-1.763-3.545-2.982C3.6,29.922,2,25.5,2,20.782
			c0-1.479,0.272-5.254,2.799-8.344c1.357-1.661,3.162-2.842,5.365-3.572c0.64,0.607,1.327,1.127,1.828,1.127
			c0.013,0,0.025,0,0.038-0.001c0.364-0.02,0.695-0.098,1.009-0.206c0.269,0.761,0.588,1.377,0.961,1.604
			c0.666,0.406,1.332,0.61,1.999,0.61c0.666,0,1.332-0.204,1.999-0.61c0.373-0.228,0.691-0.844,0.96-1.605
			c0.315,0.108,0.646,0.188,1.012,0.207c0.013,0.001,0.025,0.001,0.038,0.001c0.484,0,1.145-0.485,1.766-1.065
			c2.075,0.738,3.822,1.908,5.199,3.536C28.868,14.706,30,17.815,30,20.782C30,25.5,28.4,29.922,25.496,33.23z M20,14
			c-1.104,0-2,0.896-2,2s0.896,2,2,2s2-0.896,2-2S21.104,14,20,14z"/>
	</g>
</g>
<g>
</g>
<g>
</g>
<g>
</g>
<g>
</g>
<g>
</g>
<g>
</g>
<g>
</g>
<g>
</g>
<g>
</g>
<g>
</g>
<g>
</g>
<g>
</g>
<g>
</g>
<g>
</g>
<g>
</g>
</svg>
