<?xml version="1.0" encoding="iso-8859-1"?>
<!-- Generator: Adobe Illustrator 16.0.4, SVG Export Plug-In . SVG Version: 6.00 Build 0)  -->
<!DOCTYPE svg PUBLIC "-//W3C//DTD SVG 1.1//EN" "http://www.w3.org/Graphics/SVG/1.1/DTD/svg11.dtd">
<svg version="1.1" id="Layer_1" xmlns="http://www.w3.org/2000/svg" xmlns:xlink="http://www.w3.org/1999/xlink" x="0px" y="0px"
	 width="44px" height="19.879px" viewBox="0 0 44 19.879" style="enable-background:new 0 0 44 19.879;" xml:space="preserve">
<g id="_x39_71-chicken-leg-toolbar_x40_2x.png">
	<g>
		<path d="M42.299,5.315c0.008-0.006,0.017-0.012,0.024-0.019c-0.394-0.508-0.854-0.986-1.366-1.438
			c-1.466,1.235-3.592,2.021-5.972,2.021c-4.37,0-7.908-2.623-7.996-5.879c-0.341,0.031-0.667,0.088-1,0.132
			c0-0.015-0.005-0.028-0.005-0.042c-0.279,0.038-0.543,0.102-0.816,0.15c-0.056,0.009-0.115,0.013-0.171,0.022
			c0,0.003,0,0.006,0.001,0.009c-4.892,0.904-8.794,3.392-10.309,6.607H8.958C8.972,6.712,9,6.552,9,6.379
			c0-2.485-1.38-4.5-4.091-4.5C2.198,1.879,0,3.894,0,6.379c0,1.423,0.734,2.676,1.858,3.5C0.734,10.703,0,11.957,0,13.379
			c0,2.485,2.198,4.5,4.909,4.5c2.711,0,4.091-2.015,4.091-4.5c0-0.172-0.028-0.333-0.042-0.5h5.731c1.912,4.057,7.595,7,14.311,7
			c8.284,0,15-4.478,15-10C44,8.229,43.363,6.687,42.299,5.315z M14.076,10.879H8.998c-0.012,0-1.998,0.008-1.998,2.5
			c0,1.381-0.565,2.5-2.143,2.5C3.279,15.879,2,14.76,2,13.379s1.279-2.5,2.857-2.5c0.052,0,0.094,0.011,0.143,0.014v-0.014
			c0.552,0,1-0.447,1-1s-0.448-1-1-1V8.865C4.951,8.868,4.909,8.879,4.857,8.879C3.279,8.879,2,7.76,2,6.379s1.279-2.5,2.857-2.5
			C6.435,3.879,7,4.998,7,6.379c0,2.5,2,2.5,2,2.5h5.076C14.027,9.208,14,9.541,14,9.879S14.027,10.55,14.076,10.879z M29,17.879
			c-7.18,0-13-3.582-13-8c0-3.654,3.983-6.732,9.421-7.689c1.241,3.289,5.041,5.689,9.564,5.689c2.13,0,4.094-0.54,5.711-1.45
			C41.518,7.475,42,8.64,42,9.879C42,14.297,36.18,17.879,29,17.879z"/>
	</g>
</g>
<g>
</g>
<g>
</g>
<g>
</g>
<g>
</g>
<g>
</g>
<g>
</g>
<g>
</g>
<g>
</g>
<g>
</g>
<g>
</g>
<g>
</g>
<g>
</g>
<g>
</g>
<g>
</g>
<g>
</g>
</svg>
