<?xml version="1.0" encoding="iso-8859-1"?>
<!-- Generator: Adobe Illustrator 16.0.4, SVG Export Plug-In . SVG Version: 6.00 Build 0)  -->
<!DOCTYPE svg PUBLIC "-//W3C//DTD SVG 1.1//EN" "http://www.w3.org/Graphics/SVG/1.1/DTD/svg11.dtd">
<svg version="1.1" id="Layer_1" xmlns="http://www.w3.org/2000/svg" xmlns:xlink="http://www.w3.org/1999/xlink" x="0px" y="0px"
	 width="56px" height="23.923px" viewBox="0 0 56 23.923" style="enable-background:new 0 0 56 23.923;" xml:space="preserve">
<g id="_x39_71-chicken-leg_x40_2x.png">
	<g>
		<path d="M52.153,4.543c0.003-0.003,0.007-0.006,0.01-0.009c-0.085-0.073-0.188-0.135-0.275-0.207
			c-0.168-0.136-0.327-0.277-0.504-0.408c-0.006,0.006-0.013,0.012-0.019,0.019c-0.266-0.2-0.513-0.411-0.8-0.599
			C49.121,4.898,46.723,5.923,44,5.923c-4.383,0-7.934-2.646-7.989-5.923c-0.339,0.024-0.665,0.075-0.997,0.114
			c0-0.008-0.003-0.016-0.003-0.023c-0.176,0.02-0.34,0.059-0.514,0.082c-0.158,0.021-0.321,0.031-0.478,0.055
			c0,0.007,0.002,0.014,0.002,0.021C27.98,1.163,23.086,4.082,21.046,7.923H10.978C10.989,7.758,11,7.593,11,7.423
			c0-3.037-1.687-5.5-5-5.5s-6,2.463-6,5.5c0,1.864,1.018,3.505,2.565,4.5C1.018,12.918,0,14.559,0,16.423c0,3.038,2.687,5.5,6,5.5
			s5-2.462,5-5.5c0-0.169-0.011-0.335-0.022-0.5h10.068c2.474,4.658,9.12,8,16.954,8c9.941,0,18-5.373,18-12
			C56,9.134,54.551,6.58,52.153,4.543z M20.27,13.923H8.305C8.793,14.559,9,15.442,9,16.423c0,1.933-0.791,3.5-3,3.5s-4-1.567-4-3.5
			s1.791-3.5,4-3.5c0.552,0,1-0.447,1-1s-0.448-1-1-1c-2.209,0-4-1.567-4-3.5s1.791-3.5,4-3.5s3,1.567,3,3.5
			c0,0.98-0.207,1.864-0.695,2.5H20.27c-0.165,0.652-0.27,1.317-0.27,2S20.105,13.271,20.27,13.923z M38,21.923
			c-8.837,0-16-4.477-16-10c0-4.754,5.318-8.715,12.433-9.729c1.223,3.31,5.033,5.729,9.567,5.729c2.577,0,4.918-0.786,6.689-2.068
			C52.758,7.538,54,9.637,54,11.923C54,17.446,46.837,21.923,38,21.923z"/>
	</g>
</g>
<g>
</g>
<g>
</g>
<g>
</g>
<g>
</g>
<g>
</g>
<g>
</g>
<g>
</g>
<g>
</g>
<g>
</g>
<g>
</g>
<g>
</g>
<g>
</g>
<g>
</g>
<g>
</g>
<g>
</g>
</svg>
