<?xml version="1.0" encoding="UTF-8" standalone="no"?>
<svg width="46px" height="58px" viewBox="0 0 46 58" version="1.1" xmlns="http://www.w3.org/2000/svg" xmlns:xlink="http://www.w3.org/1999/xlink" xmlns:sketch="http://www.bohemiancoding.com/sketch/ns">
    <!-- Generator: Sketch 3.0.4 (8053) - http://www.bohemiancoding.com/sketch -->
    <title>1186-chicken</title>
    <desc>Created with Sketch.</desc>
    <defs></defs>
    <g id="Page-1" stroke="none" stroke-width="1" fill="none" fill-rule="evenodd" sketch:type="MSPage">
        <g id="Glyphish-8-Icons" sketch:type="MSArtboardGroup" transform="translate(-506.000000, -787.000000)" fill="#000000">
            <g id="1186-chicken" sketch:type="MSLayerGroup" transform="translate(506.036996, 787.860499)">
                <g id="_x31_186-chicken_x40_2x.png" sketch:type="MSShapeGroup">
                    <path d="M33.261,8.439 C33.372,8.305 33.44,8.221 33.44,8.221 C34.607,6.225 33.942,3.689 31.953,2.556 C30.388,1.663 28.478,1.921 27.163,3.039 C26.121,1.229 24.211,0 22,0 C19.799,0 17.895,1.219 16.851,3.017 C15.54,1.891 13.635,1.631 12.073,2.527 C10.09,3.663 9.427,6.208 10.59,8.209 C10.59,8.209 10.612,8.237 10.646,8.278 C2.478,12.141 0,20.137 0,25.998 C0,39.095 8.391,49.098 17.84,51.434 C19.105,52.801 20.49,54.301 22.014,55.998 C23.541,54.298 24.929,52.795 26.195,51.427 C35.63,49.073 44,39.079 44,25.998 C44,20.212 41.098,12.355 33.261,8.439 L33.261,8.439 Z M27.938,5.476 C27.993,5.329 28.047,5.181 28.104,5.038 C28.722,4.106 29.956,3.787 30.914,4.333 C31.871,4.878 32.208,6.091 31.7,7.086 C30.667,8.361 29.332,9.648 28.734,9.949 C28.372,9.91 28.063,9.815 27.795,9.663 C27.642,9.575 27.5,9.461 27.365,9.33 C27.786,7.606 28,6.102 28,6.102 C28,5.888 27.959,5.685 27.938,5.476 L27.938,5.476 Z M22,2.034 C24.162,2.034 25.929,3.787 25.998,5.969 C25.581,8.816 24.669,11.844 24.045,12.449 C23.342,12.798 22.672,12.967 22,12.967 C21.328,12.967 20.658,12.798 19.955,12.449 C19.334,11.845 18.422,8.816 18.002,5.969 C18.072,3.787 19.838,2.034 22,2.034 L22,2.034 Z M13.107,4.309 C14.061,3.762 15.291,4.082 15.907,5.017 C15.962,5.155 16.013,5.296 16.065,5.439 C16.042,5.659 16,5.875 16,6.102 C16,6.102 16.214,7.608 16.636,9.331 C16.504,9.459 16.365,9.571 16.216,9.656 C15.948,9.809 15.641,9.904 15.279,9.944 C14.684,9.642 13.353,8.35 12.324,7.071 C11.818,6.073 12.154,4.855 13.107,4.309 L13.107,4.309 Z M25.001,49.771 C24.085,50.761 23.085,51.841 22.014,53.017 C20.944,51.841 19.943,50.76 19.027,49.771 C14.871,45.279 11.867,42.033 12.027,40.384 C12.087,39.77 12.736,39.006 13.959,38.113 C18.891,34.509 21.595,34.053 22.015,34.003 C22.435,34.054 25.139,34.509 30.071,38.113 C31.294,39.007 31.944,39.77 32.004,40.384 C32.161,42.033 29.158,45.279 25.001,49.771 L25.001,49.771 Z M35.633,43.292 C33.702,45.457 31.465,47.125 29.099,48.265 C34.453,42.34 35.8,39.824 31.25,36.498 C25.093,31.998 22.014,31.998 22.014,31.998 C22.014,31.998 18.936,31.998 12.779,36.498 C8.224,39.827 9.578,42.345 14.946,48.283 C12.563,47.142 10.31,45.47 8.368,43.292 C4.262,38.688 2,32.547 2,25.998 C2,23.644 2.595,13.935 12,9.838 L12,9.821 C13.009,10.879 14.334,12.059 15.194,12.013 C15.967,11.972 16.653,11.781 17.251,11.438 C17.709,12.745 18.29,13.877 19,14.238 C20,14.747 21,15.001 22,15.001 C23,15.001 24,14.747 25,14.238 C25.71,13.877 26.291,12.743 26.749,11.435 C26.751,11.436 26.753,11.438 26.754,11.439 C27.355,11.781 28.043,11.972 28.819,12.013 C29.676,12.059 30.991,10.9 32,9.853 L32,9.999 L31.917,9.999 C39.667,13.627 42,21.354 42,25.998 C42,32.547 39.738,38.688 35.633,43.292 L35.633,43.292 Z M29,17.998 C27.343,17.998 26,19.341 26,20.998 C26,22.655 27.343,23.998 29,23.998 C30.657,23.998 32,22.655 32,20.998 C32,19.341 30.657,17.998 29,17.998 L29,17.998 Z M15,17.998 C13.343,17.998 12,19.341 12,20.998 C12,22.655 13.343,23.998 15,23.998 C16.657,23.998 18,22.655 18,20.998 C18,19.341 16.657,17.998 15,17.998 L15,17.998 Z" id="Shape"></path>
                </g>
            </g>
        </g>
    </g>
</svg>