<?xml version="1.0" encoding="iso-8859-1"?>
<!-- Generator: Adobe Illustrator 16.0.4, SVG Export Plug-In . SVG Version: 6.00 Build 0)  -->
<!DOCTYPE svg PUBLIC "-//W3C//DTD SVG 1.1//EN" "http://www.w3.org/Graphics/SVG/1.1/DTD/svg11.dtd">
<svg version="1.1" id="Layer_1" xmlns="http://www.w3.org/2000/svg" xmlns:xlink="http://www.w3.org/1999/xlink" x="0px" y="0px"
	 width="44.022px" height="27.985px" viewBox="0 0 44.022 27.985" style="enable-background:new 0 0 44.022 27.985;"
	 xml:space="preserve">
<g id="_x31_174-choose-font_x40_2x.png">
	<g>
		<path d="M13.931,0h-2.384L0.149,27.119L0,27.794h2.271l3.583-9.166h13.581l3.543,9.166h2.306L13.999,0.479L13.931,0z
			 M6.685,16.798l6.071-14.287l5.854,14.287H6.685z M43.716,25.436c-0.985,0.164-1.33,0.159-1.574-0.028
			c-0.112-0.087-0.186-0.204-0.253-0.403c-0.066-0.196-0.135-0.433-0.147-0.687c-0.005-0.105-0.013-0.211-0.02-0.314
			c-0.013-0.177-0.026-0.352-0.026-0.526V11.833c0-1.65-0.591-2.989-1.755-3.979c-1.175-0.997-3.04-1.503-5.542-1.503
			c-2.509,0-4.48,0.583-5.863,1.735c-1.438,1.197-2.158,2.793-2.262,4.999l-0.061,0.195h2.037l0.196,0.146l0.016-0.28
			c0.097-1.64,0.653-2.84,1.703-3.671c1.021-0.809,2.387-1.201,4.174-1.201c0.918,0,1.782,0.11,2.5,0.32
			c0.646,0.189,1.188,0.46,1.612,0.804c0.399,0.327,0.698,0.706,0.888,1.128c0.189,0.419,0.285,0.884,0.285,1.382
			c0,0.681-0.038,1.251-0.111,1.696c-0.067,0.393-0.231,0.715-0.491,0.96c-0.271,0.258-0.692,0.467-1.251,0.619
			c-0.589,0.161-1.422,0.281-2.477,0.358l-2.328,0.194c-0.825,0.08-1.691,0.214-2.577,0.396c-0.912,0.188-1.756,0.512-2.509,0.957
			c-0.765,0.453-1.407,1.08-1.907,1.863c-0.505,0.792-0.762,1.816-0.762,3.044c0,2.021,0.641,3.547,1.904,4.533
			c1.24,0.966,2.994,1.456,5.215,1.456c0.997,0,1.93-0.123,2.775-0.364c0.842-0.243,1.608-0.585,2.276-1.017
			c0.598-0.386,1.348-0.903,1.841-1.488c0.117-0.141,0.169-0.278,0.218-0.411c0.07-0.189,0.133-0.359,0.4-0.538v0.088
			c0,0.157-0.013,0.31-0.026,0.459c-0.022,0.262-0.043,0.509,0.002,0.752c0.074,0.396,0.152,0.748,0.366,1.049
			c0.231,0.327,0.532,0.569,0.919,0.739c0.403,0.178,0.913,0.265,1.561,0.265c0.474,0,0.812-0.064,1.205-0.169l0.039-0.01
			l0.114-0.109v-1.886L43.716,25.436z M39.843,19.543c0,0.106-0.053,0.296-0.119,0.535c-0.066,0.241-0.149,0.542-0.22,0.899
			c-0.12,0.618-0.444,1.309-1.017,2.174c-0.482,0.727-1.227,1.399-2.209,2c-0.938,0.574-2.247,0.864-3.891,0.864
			c-1.574,0-2.817-0.337-3.696-1c-0.854-0.646-1.286-1.661-1.286-3.02c0-0.869,0.167-1.574,0.497-2.098
			c0.335-0.532,0.777-0.958,1.314-1.267c0.558-0.317,1.19-0.547,1.882-0.68c0.742-0.144,1.474-0.253,2.17-0.326l2.518-0.234
			c1.038-0.087,1.987-0.214,2.67-0.357c0.365-0.074,0.588-0.182,0.872-0.318c0.146-0.069,0.308-0.147,0.513-0.232V19.543z"/>
	</g>
</g>
<g>
</g>
<g>
</g>
<g>
</g>
<g>
</g>
<g>
</g>
<g>
</g>
<g>
</g>
<g>
</g>
<g>
</g>
<g>
</g>
<g>
</g>
<g>
</g>
<g>
</g>
<g>
</g>
<g>
</g>
</svg>
