<?xml version="1.0" encoding="UTF-8" standalone="no"?>
<svg width="58px" height="38px" viewBox="0 0 58 38" version="1.1" xmlns="http://www.w3.org/2000/svg" xmlns:xlink="http://www.w3.org/1999/xlink" xmlns:sketch="http://www.bohemiancoding.com/sketch/ns">
    <!-- Generator: Sketch 3.0.4 (8053) - http://www.bohemiancoding.com/sketch -->
    <title>1174-choose-font</title>
    <desc>Created with Sketch.</desc>
    <defs></defs>
    <g id="Page-1" stroke="none" stroke-width="1" fill="none" fill-rule="evenodd" sketch:type="MSPage">
        <g id="Glyphish-8-Icons" sketch:type="MSArtboardGroup" transform="translate(-308.000000, -701.000000)" fill="#000000">
            <g id="1174-choose-font" sketch:type="MSLayerGroup" transform="translate(308.036996, 701.860499)">
                <g id="_x31_174-choose-font_x40_2x.png" sketch:type="MSShapeGroup">
                    <path d="M55.816,33.088 C54.541,33.301 54.003,33.289 53.649,33.011 C53.451,32.856 53.344,32.654 53.258,32.394 C53.164,32.111 53.076,31.792 53.06,31.448 C53.043,31.08 53.001,30.712 53.001,30.344 L53.001,15.197 C53.001,13.139 52.3,11.448 50.819,10.172 C49.35,8.905 47.02,8.263 43.844,8.263 C40.668,8.263 38.19,9.007 36.454,10.475 C34.707,11.951 33.758,13.94 33.621,16.869 L33.616,16.886 L36.028,16.886 L36.041,16.896 C36.171,14.649 36.93,13.076 38.295,11.979 C39.673,10.873 41.514,10.372 43.767,10.372 C45.047,10.372 46.144,10.535 47.027,10.798 C47.898,11.058 48.615,11.432 49.16,11.881 C49.699,12.327 50.1,12.85 50.352,13.419 C50.606,13.991 50.735,14.626 50.735,15.297 C50.735,16.191 50.686,16.946 50.588,17.537 C50.495,18.09 50.265,18.547 49.902,18.894 C49.53,19.252 48.964,19.539 48.216,19.746 C47.446,19.961 46.367,20.12 45.007,20.22 L42.027,20.474 C40.979,20.577 39.875,20.748 38.744,20.984 C37.596,21.226 36.534,21.637 35.589,22.206 C34.635,22.78 33.836,23.573 33.211,24.566 C32.584,25.563 32.265,26.861 32.265,28.42 C32.265,30.988 33.061,32.92 34.63,34.163 C36.183,35.392 38.39,36.015 41.193,36.015 C42.455,36.015 43.632,35.858 44.694,35.549 C45.756,35.239 46.72,34.803 47.561,34.251 C48.399,33.703 49.287,33.064 49.875,32.354 C50.256,31.893 50.02,31.408 51.013,30.906 L51.013,31.359 C51.013,31.913 50.892,32.431 50.979,32.898 C51.069,33.388 51.162,33.822 51.417,34.186 C51.676,34.559 52.018,34.86 52.514,35.082 C52.998,35.298 53.631,35.408 54.436,35.408 C54.993,35.408 55.406,35.337 55.93,35.196 L55.98,35.147 L55.98,33.041 L55.816,33.088 L55.816,33.088 Z M51.016,25.229 C51.016,25.546 50.76,26.186 50.578,27.131 C50.4,28.058 49.897,29.033 49.246,30.03 C48.594,31.025 47.595,31.92 46.354,32.69 C45.122,33.455 43.396,33.843 41.266,33.843 C39.211,33.843 37.571,33.392 36.411,32.502 C35.269,31.626 34.685,30.252 34.685,28.417 C34.685,27.254 34.908,26.301 35.352,25.585 C35.797,24.866 36.387,24.288 37.105,23.871 C37.836,23.448 38.667,23.142 39.577,22.962 C40.522,22.777 41.466,22.634 42.378,22.536 L45.606,22.231 C46.782,22.13 48.035,21.976 49.005,21.771 C49.756,21.613 50.022,21.339 51.015,20.955 L51.015,25.229 L51.016,25.229 Z M17.443,0 L14.685,0 L0.139,35.125 L0,35.764 L2.535,35.764 L7.127,23.841 L24.798,23.841 L29.34,35.764 L31.872,35.764 L17.506,0.453 L17.443,0 L17.443,0 Z M8.032,21.854 L16.111,2.558 L23.899,21.854 L8.032,21.854 L8.032,21.854 Z" id="Shape"></path>
                </g>
            </g>
        </g>
    </g>
</svg>