<?xml version="1.0" encoding="UTF-8" standalone="no"?>
<svg width="42px" height="58px" viewBox="0 0 42 58" version="1.1" xmlns="http://www.w3.org/2000/svg" xmlns:xlink="http://www.w3.org/1999/xlink" xmlns:sketch="http://www.bohemiancoding.com/sketch/ns">
    <!-- Generator: Sketch 3.0.4 (8053) - http://www.bohemiancoding.com/sketch -->
    <title>1161-christian-cross</title>
    <desc>Created with Sketch.</desc>
    <defs></defs>
    <g id="Page-1" stroke="none" stroke-width="1" fill="none" fill-rule="evenodd" sketch:type="MSPage">
        <g id="Glyphish-8-Icons" sketch:type="MSArtboardGroup" transform="translate(-28.000000, -595.000000)" fill="#000000">
            <g id="1161-christian-cross" sketch:type="MSLayerGroup" transform="translate(28.036996, 595.860499)">
                <g id="_x31_161-christian-cross_x40_2x.png" sketch:type="MSShapeGroup">
                    <path d="M39,14 L24,14 L24,1 C24,0.447 23.552,0 23,0 L23,0 L17,0 C16.448,0 16,0.447 16,1 L16,14 L1,14 C0.448,14 0,14.448 0,15 L0,21 C0,21.553 0.448,22 1,22 L16,22 L16,55 C16,55.553 16.448,56 17,56 L23,56 C23.552,56 24,55.553 24,55 L24,22 L39,22 C39.552,22 40,21.553 40,21 L40,15 C40,14.448 39.552,14 39,14 L39,14 Z M38,20 L23,20 L23,20 C22.448,20 22,20.447 22,21 L22,54 L18,54 L18,21 C18,20.447 17.552,20 17,20 L17,20 L2,20 L2,16 L17,16 C17.552,16 18,15.553 18,15 L18,2 L22,2 L22,15 C22,15.553 22.448,16 23,16 L38,16 L38,20 L38,20 Z" id="Shape"></path>
                </g>
            </g>
        </g>
    </g>
</svg>