<?xml version="1.0" encoding="iso-8859-1"?>
<!-- Generator: Adobe Illustrator 16.0.4, SVG Export Plug-In . SVG Version: 6.00 Build 0)  -->
<!DOCTYPE svg PUBLIC "-//W3C//DTD SVG 1.1//EN" "http://www.w3.org/Graphics/SVG/1.1/DTD/svg11.dtd">
<svg version="1.1" id="Layer_1" xmlns="http://www.w3.org/2000/svg" xmlns:xlink="http://www.w3.org/1999/xlink" x="0px" y="0px"
	 width="28px" height="44px" viewBox="0 0 28 44" style="enable-background:new 0 0 28 44;" xml:space="preserve">
<g id="_x31_161-christian-cross_x40_2x.png">
	<g>
		<path d="M27,12L27,12h-9V1c0-0.552-0.448-1-1-1h0H11h0c-0.552,0-1,0.448-1,1v11H1c0,0,0,0,0,0c-0.552,0-1,0.447-1,1v6
			c0,0.553,0.448,1,1,1h9v23c0,0.553,0.448,1,1,1h6c0.552,0,1-0.447,1-1V20h9c0.552,0,1-0.447,1-1v-6C28,12.447,27.552,12,27,12z
			 M26,18h-9c0,0,0,0,0,0c-0.552,0-1,0.447-1,1v23h-4V19c0-0.553-0.448-1-1-1h0H2v-4h9c0.552,0,1-0.447,1-1V2h4v11
			c0,0.553,0.448,1,1,1h9V18z"/>
	</g>
</g>
<g>
</g>
<g>
</g>
<g>
</g>
<g>
</g>
<g>
</g>
<g>
</g>
<g>
</g>
<g>
</g>
<g>
</g>
<g>
</g>
<g>
</g>
<g>
</g>
<g>
</g>
<g>
</g>
<g>
</g>
</svg>
