<?xml version="1.0" encoding="iso-8859-1"?>
<!-- Generator: Adobe Illustrator 16.0.4, SVG Export Plug-In . SVG Version: 6.00 Build 0)  -->
<!DOCTYPE svg PUBLIC "-//W3C//DTD SVG 1.1//EN" "http://www.w3.org/Graphics/SVG/1.1/DTD/svg11.dtd">
<svg version="1.1" id="Layer_1" xmlns="http://www.w3.org/2000/svg" xmlns:xlink="http://www.w3.org/1999/xlink" x="0px" y="0px"
	 width="44px" height="43.988px" viewBox="0 0 44 43.988" style="enable-background:new 0 0 44 43.988;" xml:space="preserve">
<g id="_x31_045-clapboard-toolbar_x40_2x.png">
	<g>
		<path d="M44,0.985C44,0.441,43.551,0,42.996,0h-0.001h-0.001c-0.001,0-0.002,0-0.003,0L1.005,6C0.449,6.001,0,6.441,0,6.985
			C0,6.994,0.005,7.001,0.005,7.01H0v7.957h0.004C0.004,14.974,0,14.979,0,14.985c0,0.001,0,0.002,0.001,0.003
			C0.001,14.989,0,14.99,0,14.991c0,0.007,0.004,0.012,0.004,0.019H0v6.965v0.992v20.018c0.001,0.554,0.45,1.003,1.005,1.004h41.991
			c0.554-0.001,1.003-0.45,1.004-1.004V22.967v-0.992V15.01h-0.005c0-0.009,0.005-0.016,0.005-0.024C44,14.441,43.551,14,42.996,14
			H14.845l28.151-4.022V9.977C43.551,9.977,44,9.535,44,8.991c0-0.009-0.005-0.016-0.005-0.024H44V1.01h-0.005
			C43.995,1.001,44,0.994,44,0.985z M2.012,23.978h10v10.011h-10V23.978z M41.988,41.977H2.012V36h39.977V41.977z M13.983,33.988
			V23.978h16.033v10.011H13.983z M41.988,33.988h-9.999V23.978h9.999V33.988z M29.431,15.972h7.172l-6.033,6.033h-7.172
			L29.431,15.972z M18.603,15.972l-6.033,6.033H5.397l6.033-6.033H18.603z M12.667,12.339l-7.024-5.03l7.087-1.013l7.025,5.03
			L12.667,12.339z M30.456,9.797l-7.025-5.029l7.088-1.013l7.024,5.029L30.456,9.797z M35.986,37.982H8.014v2.012h27.973V37.982z"/>
	</g>
</g>
<g>
</g>
<g>
</g>
<g>
</g>
<g>
</g>
<g>
</g>
<g>
</g>
<g>
</g>
<g>
</g>
<g>
</g>
<g>
</g>
<g>
</g>
<g>
</g>
<g>
</g>
<g>
</g>
<g>
</g>
</svg>
