<?xml version="1.0" encoding="iso-8859-1"?>
<!-- Generator: Adobe Illustrator 16.0.4, SVG Export Plug-In . SVG Version: 6.00 Build 0)  -->
<!DOCTYPE svg PUBLIC "-//W3C//DTD SVG 1.1//EN" "http://www.w3.org/Graphics/SVG/1.1/DTD/svg11.dtd">
<svg version="1.1" id="Layer_1" xmlns="http://www.w3.org/2000/svg" xmlns:xlink="http://www.w3.org/1999/xlink" x="0px" y="0px"
	 width="56px" height="56px" viewBox="0 0 56 56" style="enable-background:new 0 0 56 56;" xml:space="preserve">
<g id="_x31_045-clapboard_x40_2x.png">
	<g>
		<path d="M56,9V1c0-0.553-0.447-1-1-1c-0.051,0-0.095,0.021-0.144,0.029l-0.003-0.019l-54,8l0.003,0.019C0.375,8.102,0,8.499,0,9v8
			v8v30c0,0.553,0.447,1,1,1h54c0.553,0,1-0.447,1-1V25v-8c0-0.553-0.447-1-1-1H14.574l40.572-6.011l-0.003-0.019
			C55.625,9.898,56,9.501,56,9z M2,26h14v16H2V26z M54,54H2V44h52V54z M18,42V26h20v16H18z M54,42H40V26h14V42z M38.414,18h9.172
			l-6,6h-9.172L38.414,18z M23.586,18l-6,6H8.414l6-6H23.586z M14.647,13.967L7.94,8.982l9.065-1.343l6.707,4.984L14.647,13.967z
			 M38.37,10.453l-6.707-4.984l9.065-1.344l6.707,4.984L38.37,10.453z M54,2.257l-0.014-0.096L54,2.159V2.257z M46,48H10v2h36V48z"
			/>
	</g>
</g>
<g>
</g>
<g>
</g>
<g>
</g>
<g>
</g>
<g>
</g>
<g>
</g>
<g>
</g>
<g>
</g>
<g>
</g>
<g>
</g>
<g>
</g>
<g>
</g>
<g>
</g>
<g>
</g>
<g>
</g>
</svg>
