<?xml version="1.0" encoding="iso-8859-1"?>
<!-- Generator: Adobe Illustrator 16.0.4, SVG Export Plug-In . SVG Version: 6.00 Build 0)  -->
<!DOCTYPE svg PUBLIC "-//W3C//DTD SVG 1.1//EN" "http://www.w3.org/Graphics/SVG/1.1/DTD/svg11.dtd">
<svg version="1.1" id="Layer_1" xmlns="http://www.w3.org/2000/svg" xmlns:xlink="http://www.w3.org/1999/xlink" x="0px" y="0px"
	 width="32px" height="44px" viewBox="0 0 32 44" style="enable-background:new 0 0 32 44;" xml:space="preserve">
<g id="_x38_09-clipboard-toolbar_x40_2x.png">
	<g>
		<path d="M30,6h-6V4c0-1.104-0.896-2-2-2h-5V1c0-0.553-0.447-1-1-1s-1,0.447-1,1v1h-5C8.896,2,8,2.896,8,4v2H2C0.896,6,0,6.896,0,8
			v34c0,1.104,0.896,2,2,2h28c1.104,0,2-0.896,2-2V8C32,6.896,31.104,6,30,6z M10,4h12v6H10V4z M30,42h-4.586L30,37.414V42z
			 M30,34.586L22.586,42H2V8h6v2c0,1.104,0.896,2,2,2h12c1.104,0,2-0.896,2-2V8h6V34.586z M6,19c0,0.553,0.447,1,1,1h18
			c0.553,0,1-0.447,1-1c0-0.552-0.447-1-1-1H7C6.447,18,6,18.448,6,19z M7,26h12c0.553,0,1-0.447,1-1s-0.447-1-1-1H7
			c-0.553,0-1,0.447-1,1S6.447,26,7,26z M25,30H7c-0.553,0-1,0.448-1,1c0,0.553,0.447,1,1,1h18c0.553,0,1-0.447,1-1
			C26,30.448,25.553,30,25,30z"/>
	</g>
</g>
<g>
</g>
<g>
</g>
<g>
</g>
<g>
</g>
<g>
</g>
<g>
</g>
<g>
</g>
<g>
</g>
<g>
</g>
<g>
</g>
<g>
</g>
<g>
</g>
<g>
</g>
<g>
</g>
<g>
</g>
</svg>
