<?xml version="1.0" encoding="iso-8859-1"?>
<!-- Generator: Adobe Illustrator 16.0.4, SVG Export Plug-In . SVG Version: 6.00 Build 0)  -->
<!DOCTYPE svg PUBLIC "-//W3C//DTD SVG 1.1//EN" "http://www.w3.org/Graphics/SVG/1.1/DTD/svg11.dtd">
<svg version="1.1" id="Layer_1" xmlns="http://www.w3.org/2000/svg" xmlns:xlink="http://www.w3.org/1999/xlink" x="0px" y="0px"
	 width="40px" height="56px" viewBox="0 0 40 56" style="enable-background:new 0 0 40 56;" xml:space="preserve">
<g id="_x38_09-clipboard_x40_2x.png">
	<g>
		<path d="M38,6h-8V4c0-1.104-0.896-2-2-2h-7V1c0-0.553-0.447-1-1-1s-1,0.447-1,1v1h-7c-1.104,0-2,0.896-2,2v2H2
			C0.896,6,0,6.896,0,8v46c0,1.104,0.896,2,2,2h36c1.104,0,2-0.896,2-2V8C40,6.896,39.104,6,38,6z M12,4h16v6H12V4z M38,54h-4.586
			L38,49.414V54z M38,46.586L30.586,54H2V8h8v2c0,1.104,0.896,2,2,2h16c1.104,0,2-0.896,2-2V8h8V46.586z M6,25c0,0.553,0.447,1,1,1
			h26c0.553,0,1-0.447,1-1c0-0.552-0.447-1-1-1H7C6.447,24,6,24.448,6,25z M7,32h20c0.553,0,1-0.447,1-1s-0.447-1-1-1H7
			c-0.553,0-1,0.447-1,1S6.447,32,7,32z M33,36H7c-0.553,0-1,0.448-1,1c0,0.553,0.447,1,1,1h26c0.553,0,1-0.447,1-1
			C34,36.448,33.553,36,33,36z"/>
	</g>
</g>
<g>
</g>
<g>
</g>
<g>
</g>
<g>
</g>
<g>
</g>
<g>
</g>
<g>
</g>
<g>
</g>
<g>
</g>
<g>
</g>
<g>
</g>
<g>
</g>
<g>
</g>
<g>
</g>
<g>
</g>
</svg>
