<?xml version="1.0" encoding="iso-8859-1"?>
<!-- Generator: Adobe Illustrator 16.0.4, SVG Export Plug-In . SVG Version: 6.00 Build 0)  -->
<!DOCTYPE svg PUBLIC "-//W3C//DTD SVG 1.1//EN" "http://www.w3.org/Graphics/SVG/1.1/DTD/svg11.dtd">
<svg version="1.1" id="Layer_1" xmlns="http://www.w3.org/2000/svg" xmlns:xlink="http://www.w3.org/1999/xlink" x="0px" y="0px"
	 width="56px" height="56px" viewBox="0 0 56 56" style="enable-background:new 0 0 56 56;" xml:space="preserve">
<g id="_x37_96-clock-2_x40_2x.png">
	<g>
		<path d="M31.4,30.082C31.773,29.475,32,28.766,32,28c0-1.861-1.277-3.412-3-3.858V9c0-0.552-0.447-1-1-1s-1,0.448-1,1v15.142
			c-1.723,0.446-3,1.997-3,3.858c0,2.209,1.791,4,4,4c0.715,0,1.377-0.203,1.958-0.531l5.771,5.771c0.39,0.39,1.023,0.39,1.414,0
			c0.391-0.391,0.391-1.024,0-1.415L31.4,30.082z M28,30c-1.104,0-2-0.896-2-2s0.896-2,2-2s2,0.896,2,2S29.104,30,28,30z
			 M51.949,54.684l-2.796-8.387C53.409,41.393,56,35.007,56,28C56,12.536,43.464,0,28,0S0,12.536,0,28
			c0,7.007,2.591,13.393,6.847,18.297l-2.795,8.387l0.012,0.004C4.03,54.787,4,54.89,4,55c0,0.553,0.447,1,1,1h46
			c0.553,0,1-0.447,1-1c0-0.11-0.029-0.213-0.063-0.312L51.949,54.684z M6.388,54l2.016-6.048c2.633,2.581,5.762,4.659,9.246,6.048
			H6.388z M2,28C2,13.641,13.641,2,28,2s26,11.641,26,26S42.359,54,28,54S2,42.359,2,28z M38.351,54
			c3.484-1.389,6.613-3.467,9.246-6.048L49.612,54H38.351z"/>
	</g>
</g>
<g>
</g>
<g>
</g>
<g>
</g>
<g>
</g>
<g>
</g>
<g>
</g>
<g>
</g>
<g>
</g>
<g>
</g>
<g>
</g>
<g>
</g>
<g>
</g>
<g>
</g>
<g>
</g>
<g>
</g>
</svg>
