<?xml version="1.0" encoding="iso-8859-1"?>
<!-- Generator: Adobe Illustrator 16.0.4, SVG Export Plug-In . SVG Version: 6.00 Build 0)  -->
<!DOCTYPE svg PUBLIC "-//W3C//DTD SVG 1.1//EN" "http://www.w3.org/Graphics/SVG/1.1/DTD/svg11.dtd">
<svg version="1.1" id="Layer_1" xmlns="http://www.w3.org/2000/svg" xmlns:xlink="http://www.w3.org/1999/xlink" x="0px" y="0px"
	 width="44px" height="44px" viewBox="0 0 44 44" style="enable-background:new 0 0 44 44;" xml:space="preserve">
<g id="_x37_96-clock-2-toolbar_x40_2x.png">
	<g>
		<path d="M25.4,24.082C25.773,23.475,26,22.766,26,22c0-1.861-1.277-3.412-3-3.858V9c0-0.552-0.447-1-1-1s-1,0.448-1,1v9.142
			c-1.723,0.446-3,1.997-3,3.858c0,2.209,1.791,4,4,4c0.715,0,1.377-0.203,1.957-0.531l3.772,3.771c0.391,0.391,1.023,0.391,1.414,0
			s0.391-1.023,0-1.415L25.4,24.082z M22,24c-1.104,0-2-0.896-2-2s0.896-2,2-2s2,0.896,2,2S23.104,24,22,24z M41.949,42.684
			l-2.455-7.363C42.319,31.627,44,27.013,44,22C44,9.85,34.15,0,22,0S0,9.85,0,22c0,5.013,1.681,9.627,4.506,13.32l-2.454,7.363
			l0.012,0.004C2.03,42.787,2,42.89,2,43c0,0.553,0.447,1,1,1h38c0.553,0,1-0.447,1-1c0-0.11-0.029-0.213-0.063-0.312L41.949,42.684
			z M4.388,42l1.638-4.914c1.938,2.045,4.253,3.729,6.849,4.914H4.388z M6.747,34.921l0.201-0.604l-0.912-0.305
			C3.514,30.665,2,26.515,2,22C2,10.955,10.954,2,22,2s20,8.955,20,20c0,4.515-1.514,8.665-4.036,12.012l-0.912,0.305l0.201,0.604
			C33.584,39.247,28.117,42,22,42S10.416,39.247,6.747,34.921z M31.126,42c2.596-1.186,4.911-2.869,6.849-4.914L39.612,42H31.126z"
			/>
	</g>
</g>
<g>
</g>
<g>
</g>
<g>
</g>
<g>
</g>
<g>
</g>
<g>
</g>
<g>
</g>
<g>
</g>
<g>
</g>
<g>
</g>
<g>
</g>
<g>
</g>
<g>
</g>
<g>
</g>
<g>
</g>
</svg>
