<?xml version="1.0" encoding="iso-8859-1"?>
<!-- Generator: Adobe Illustrator 16.0.4, SVG Export Plug-In . SVG Version: 6.00 Build 0)  -->
<!DOCTYPE svg PUBLIC "-//W3C//DTD SVG 1.1//EN" "http://www.w3.org/Graphics/SVG/1.1/DTD/svg11.dtd">
<svg version="1.1" id="Layer_1" xmlns="http://www.w3.org/2000/svg" xmlns:xlink="http://www.w3.org/1999/xlink" x="0px" y="0px"
	 width="56px" height="36px" viewBox="0 0 56 36" style="enable-background:new 0 0 56 36;" xml:space="preserve">
<g id="_x37_06-cloud_x40_2x.png">
	<g>
		<path d="M46.835,16.043C46.933,15.374,47,14.696,47,14c0-7.731-6.268-14-14-14c-6.104,0-11.281,3.914-13.197,9.363
			C18.584,8.507,17.103,8,15.5,8c-3.769,0-6.878,2.782-7.411,6.402C3.429,15.68,0,19.935,0,25c0,6.075,4.925,11,11,11h35
			c5.522,0,10-4.477,10-10C56,20.759,51.966,16.468,46.835,16.043z M46,34H11c-4.971,0-9-4.029-9-9c0-4.651,3.529-8.478,8.056-8.949
			C10.037,15.867,10,15.688,10,15.5c0-3.037,2.463-5.5,5.5-5.5c2.131,0,4.159,1.337,5.183,3.183C21.259,7.03,26.732,2,33,2
			c6.627,0,12,5.373,12,12c0,1.481-0.281,2.894-0.771,4.204C44.799,18.074,45.391,18,46,18c4.418,0,8,3.582,8,8S50.418,34,46,34z"/>
	</g>
</g>
<g>
</g>
<g>
</g>
<g>
</g>
<g>
</g>
<g>
</g>
<g>
</g>
<g>
</g>
<g>
</g>
<g>
</g>
<g>
</g>
<g>
</g>
<g>
</g>
<g>
</g>
<g>
</g>
<g>
</g>
</svg>
