<?xml version="1.0" encoding="iso-8859-1"?>
<!-- Generator: Adobe Illustrator 16.0.4, SVG Export Plug-In . SVG Version: 6.00 Build 0)  -->
<!DOCTYPE svg PUBLIC "-//W3C//DTD SVG 1.1//EN" "http://www.w3.org/Graphics/SVG/1.1/DTD/svg11.dtd">
<svg version="1.1" id="Layer_1" xmlns="http://www.w3.org/2000/svg" xmlns:xlink="http://www.w3.org/1999/xlink" x="0px" y="0px"
	 width="44px" height="36px" viewBox="0 0 44 36" style="enable-background:new 0 0 44 36;" xml:space="preserve">
<g id="_x38_63-cloud-2-toolbar_x40_2x.png">
	<g>
		<path d="M28.998,6.015c-0.071,0-0.14,0.007-0.211,0.008C26.971,2.452,23.271,0,18.99,0C12.918,0,7.995,4.924,7.995,10.996
			c0,1.148,0.178,2.257,0.505,3.298C3.631,15.428,0,19.784,0,24.999C0,31.074,4.925,36,11,36h18.013v-0.001
			C37.291,35.991,44,29.282,44,21.008C44,12.727,37.283,6.015,28.998,6.015z M29.013,33.988H11v0.002
			c-4.966,0-8.991-4.025-8.991-8.991S6.034,16.008,11,16.008c0.19,0,0.376,0.018,0.563,0.028c-0.975-1.436-1.559-3.157-1.559-5.024
			c0-4.971,4.03-9,9.002-9c3.946,0,7.291,2.542,8.507,6.074c0.487-0.056,0.981-0.091,1.484-0.091
			c7.176,0,12.993,5.818,12.993,12.997C41.991,28.165,36.182,33.979,29.013,33.988z"/>
	</g>
</g>
<g>
</g>
<g>
</g>
<g>
</g>
<g>
</g>
<g>
</g>
<g>
</g>
<g>
</g>
<g>
</g>
<g>
</g>
<g>
</g>
<g>
</g>
<g>
</g>
<g>
</g>
<g>
</g>
<g>
</g>
</svg>
