<?xml version="1.0" encoding="iso-8859-1"?>
<!-- Generator: Adobe Illustrator 16.0.4, SVG Export Plug-In . SVG Version: 6.00 Build 0)  -->
<!DOCTYPE svg PUBLIC "-//W3C//DTD SVG 1.1//EN" "http://www.w3.org/Graphics/SVG/1.1/DTD/svg11.dtd">
<svg version="1.1" id="Layer_1" xmlns="http://www.w3.org/2000/svg" xmlns:xlink="http://www.w3.org/1999/xlink" x="0px" y="0px"
	 width="56px" height="54px" viewBox="0 0 56 54" style="enable-background:new 0 0 56 54;" xml:space="preserve">
<g id="_x37_32-cloud-upload_x40_2x.png">
	<g>
		<path d="M36,28c0.553,0,1-0.447,1-1c0-0.275-0.112-0.526-0.293-0.707l-8-8C28.526,18.112,28.276,18,28,18
			s-0.526,0.112-0.707,0.293l-8,8C19.112,26.474,19,26.725,19,27c0,0.553,0.447,1,1,1c0.276,0,0.526-0.111,0.707-0.293L27,21.414V53
			c0,0.553,0.447,1,1,1s1-0.447,1-1V21.414l6.293,6.293C35.474,27.889,35.724,28,36,28z M46.835,16.042
			C46.933,15.374,47,14.695,47,14c0-7.731-6.268-14-14-14c-6.104,0-11.281,3.914-13.197,9.363C18.584,8.507,17.103,8,15.5,8
			c-3.768,0-6.878,2.782-7.41,6.402C3.429,15.68,0,19.935,0,25c0,6.075,4.925,11,11,11h11c0.553,0,1-0.447,1-1c0-0.552-0.447-1-1-1
			H11c-4.971,0-9-4.029-9-9c0-4.651,3.529-8.478,8.056-8.949C10.037,15.867,10,15.688,10,15.5c0-3.037,2.463-5.5,5.5-5.5
			c2.142,0,4.162,1.36,5.181,3.221C21.238,7.052,26.72,2,33,2c6.628,0,12,5.373,12,12c0,1.481-0.281,2.894-0.771,4.204
			C44.799,18.074,45.391,18,46,18c4.418,0,8,3.582,8,8c0,4.419-3.582,8-8,8H34c-0.553,0-1,0.448-1,1c0,0.553,0.447,1,1,1h12
			c5.522,0,10-4.478,10-10C56,20.759,51.966,16.467,46.835,16.042z"/>
	</g>
</g>
<g>
</g>
<g>
</g>
<g>
</g>
<g>
</g>
<g>
</g>
<g>
</g>
<g>
</g>
<g>
</g>
<g>
</g>
<g>
</g>
<g>
</g>
<g>
</g>
<g>
</g>
<g>
</g>
<g>
</g>
</svg>
