<?xml version="1.0" encoding="iso-8859-1"?>
<!-- Generator: Adobe Illustrator 16.0.4, SVG Export Plug-In . SVG Version: 6.00 Build 0)  -->
<!DOCTYPE svg PUBLIC "-//W3C//DTD SVG 1.1//EN" "http://www.w3.org/Graphics/SVG/1.1/DTD/svg11.dtd">
<svg version="1.1" id="Layer_1" xmlns="http://www.w3.org/2000/svg" xmlns:xlink="http://www.w3.org/1999/xlink" x="0px" y="0px"
	 width="56px" height="44px" viewBox="0 0 56 44" style="enable-background:new 0 0 56 44;" xml:space="preserve">
<g id="_x38_63-cloud-2_x40_2x.png">
	<g>
		<path d="M38,8c-1.959-4.697-6.593-8-12-8c-7.18,0-13,5.82-13,13c0,1.046,0.137,2.058,0.37,3.032C5.933,16.364,0,22.48,0,30
			c0,7.732,6.268,14,14,14h24c9.941,0,18-8.059,18-18S47.941,8,38,8z M38,42h-8.197h-8.644H14C7.373,42,2,36.628,2,30
			c0-6.627,5.373-12,12-12c0.805,0,1.59,0.082,2.35,0.233C15.5,16.676,15,14.9,15,13c0-6.075,4.925-11,11-11
			c5.06,0,9.31,3.42,10.594,8.071C37.058,10.031,37.525,10,38,10c8.837,0,16,7.164,16,16C54,34.837,46.837,42,38,42z"/>
	</g>
</g>
<g>
</g>
<g>
</g>
<g>
</g>
<g>
</g>
<g>
</g>
<g>
</g>
<g>
</g>
<g>
</g>
<g>
</g>
<g>
</g>
<g>
</g>
<g>
</g>
<g>
</g>
<g>
</g>
<g>
</g>
</svg>
