<?xml version="1.0" encoding="iso-8859-1"?>
<!-- Generator: Adobe Illustrator 16.0.4, SVG Export Plug-In . SVG Version: 6.00 Build 0)  -->
<!DOCTYPE svg PUBLIC "-//W3C//DTD SVG 1.1//EN" "http://www.w3.org/Graphics/SVG/1.1/DTD/svg11.dtd">
<svg version="1.1" id="Layer_1" xmlns="http://www.w3.org/2000/svg" xmlns:xlink="http://www.w3.org/1999/xlink" x="0px" y="0px"
	 width="44px" height="28px" viewBox="0 0 44 28" style="enable-background:new 0 0 44 28;" xml:space="preserve">
<g id="_x37_06-cloud-toolbar_x40_2x.png">
	<g>
		<path d="M36.938,12.066c0.033-0.352,0.054-0.708,0.054-1.068c0-6.074-4.925-10.998-11-10.998c-4.255,0-7.938,2.42-9.768,5.953
			c-0.932-0.594-2.03-0.949-3.217-0.949c-3.046,0-5.535,2.278-5.923,5.22C3.034,11.104,0,14.699,0,19.008
			c0,4.961,4.022,8.983,8.986,8.991V28h27v-0.001c0.006,0,0.011,0.001,0.016,0.001C40.419,28,44,24.42,44,20.004
			C44,15.904,40.913,12.53,36.938,12.066z M36.002,26.007c-0.005,0-0.01-0.002-0.016-0.002v0.002H9.007c-0.002,0-0.003,0-0.005,0
			c-0.001,0-0.003,0-0.004,0H8.986v-0.001c-3.854-0.009-6.978-3.139-6.978-6.999c0-3.866,3.131-7,6.993-7
			c0.052,0,0.102,0.007,0.153,0.008c-0.084-0.328-0.144-0.666-0.144-1.021c0-2.207,1.732-3.996,3.868-3.996
			c2.064,0,3.978,1.844,4.105,3.96h0.016c0.129-4.872,4.312-8.964,9.138-8.964c4.901,0,8.874,4.032,8.874,9.005
			c0,1.146-0.219,2.236-0.603,3.244C34.92,14.101,35.447,14,36.002,14c3.308,0,5.989,2.688,5.989,6.003
			C41.991,23.319,39.31,26.007,36.002,26.007z"/>
	</g>
</g>
<g>
</g>
<g>
</g>
<g>
</g>
<g>
</g>
<g>
</g>
<g>
</g>
<g>
</g>
<g>
</g>
<g>
</g>
<g>
</g>
<g>
</g>
<g>
</g>
<g>
</g>
<g>
</g>
<g>
</g>
</svg>
