<?xml version="1.0" encoding="iso-8859-1"?>
<!-- Generator: Adobe Illustrator 16.0.4, SVG Export Plug-In . SVG Version: 6.00 Build 0)  -->
<!DOCTYPE svg PUBLIC "-//W3C//DTD SVG 1.1//EN" "http://www.w3.org/Graphics/SVG/1.1/DTD/svg11.dtd">
<svg version="1.1" id="Layer_1" xmlns="http://www.w3.org/2000/svg" xmlns:xlink="http://www.w3.org/1999/xlink" x="0px" y="0px"
	 width="56px" height="36.031px" viewBox="0 0 56 36.031" style="enable-background:new 0 0 56 36.031;" xml:space="preserve">
<g id="_x39_78-coat-hanger_x40_2x.png">
	<g>
		<path d="M54.168,28.678L29.041,13.497c0.153-0.947,0.77-1.425,1.82-2.155C32.26,10.371,34,9.163,34,6c0-2.075-1.254-6-6-6
			s-6,3.925-6,6c0,0.553,0.447,1,1,1s1-0.447,1-1c0-0.163,0.046-4,4-4c3.853,0,3.996,3.595,4,4c0,2.116-1.006,2.815-2.279,3.699
			c-1.112,0.772-2.46,1.731-2.677,3.746L1.831,28.678C0.731,29.391,0,30.623,0,32.031c0,2.209,1.791,4,4,4h48c2.209,0,4-1.791,4-4
			C56,30.623,55.269,29.391,54.168,28.678z M52,34.031h-3.445H47H9H7.445H4c-1.104,0-2-0.896-2-2c0-0.721,0.385-1.347,0.956-1.698
			L9,26.656v0.017l19-11.479l19,11.479v-0.017l6.044,3.676C53.615,30.685,54,31.311,54,32.031C54,33.136,53.104,34.031,52,34.031z"
			/>
	</g>
</g>
<g>
</g>
<g>
</g>
<g>
</g>
<g>
</g>
<g>
</g>
<g>
</g>
<g>
</g>
<g>
</g>
<g>
</g>
<g>
</g>
<g>
</g>
<g>
</g>
<g>
</g>
<g>
</g>
<g>
</g>
</svg>
