<?xml version="1.0" encoding="iso-8859-1"?>
<!-- Generator: Adobe Illustrator 16.0.4, SVG Export Plug-In . SVG Version: 6.00 Build 0)  -->
<!DOCTYPE svg PUBLIC "-//W3C//DTD SVG 1.1//EN" "http://www.w3.org/Graphics/SVG/1.1/DTD/svg11.dtd">
<svg version="1.1" id="Layer_1" xmlns="http://www.w3.org/2000/svg" xmlns:xlink="http://www.w3.org/1999/xlink" x="0px" y="0px"
	 width="44px" height="28px" viewBox="0 0 44 28" style="enable-background:new 0 0 44 28;" xml:space="preserve">
<g id="_x39_78-coat-hanger-toolbar_x40_2x.png">
	<g>
		<path d="M42.632,22.49l0.003-0.006L23.254,10.598c0.328-0.807,0.937-1.347,1.616-1.936C25.862,7.803,26.984,6.828,26.998,5H27
			c0-0.005-0.001-0.009-0.001-0.014C26.999,4.98,27,4.975,27,4.969h-0.003C26.979,2.222,24.751,0,22,0c-2.762,0-5,2.238-5,5
			c0,0.553,0.447,1,1,1s1-0.447,1-1c0-1.657,1.343-3,3-3c1.65,0,2.988,1.333,2.998,2.981c-0.005,0.885-0.496,1.354-1.438,2.169
			c-0.863,0.748-1.884,1.637-2.33,3.15L1.365,22.484l0.003,0.006C0.546,23.024,0,23.947,0,25.001c0,1.651,1.336,2.989,2.986,2.998
			V28h38.027v-0.001C42.664,27.99,44,26.652,44,25.001C44,23.947,43.454,23.024,42.632,22.49z M40.998,26.006
			c-0.01,0-0.02-0.006-0.029-0.006H38.18c0.001,0.004,0.002,0.007,0.003,0.011H5.817C5.818,26.007,5.819,26.004,5.82,26H3.031
			c-0.01,0-0.02,0.006-0.029,0.006c-0.551,0-0.996-0.45-0.996-1.005c0-0.351,0.188-0.644,0.457-0.823l-0.004-0.006l0.125-0.077
			c0.013-0.006,0.021-0.016,0.034-0.021l2.265-1.394l0.234-0.144l16.186-9.959l0.006,0.01L22,12.164l17.117,10.517
			c0,0.001-0.001,0.001-0.002,0.002l2.266,1.392c0.014,0.005,0.023,0.016,0.036,0.021l0.124,0.076l-0.004,0.006
			c0.27,0.18,0.457,0.473,0.457,0.823C41.994,25.556,41.549,26.006,40.998,26.006z"/>
	</g>
</g>
<g>
</g>
<g>
</g>
<g>
</g>
<g>
</g>
<g>
</g>
<g>
</g>
<g>
</g>
<g>
</g>
<g>
</g>
<g>
</g>
<g>
</g>
<g>
</g>
<g>
</g>
<g>
</g>
<g>
</g>
</svg>
