<?xml version="1.0" encoding="iso-8859-1"?>
<!-- Generator: Adobe Illustrator 16.0.4, SVG Export Plug-In . SVG Version: 6.00 Build 0)  -->
<!DOCTYPE svg PUBLIC "-//W3C//DTD SVG 1.1//EN" "http://www.w3.org/Graphics/SVG/1.1/DTD/svg11.dtd">
<svg version="1.1" id="Layer_1" xmlns="http://www.w3.org/2000/svg" xmlns:xlink="http://www.w3.org/1999/xlink" x="0px" y="0px"
	 width="36px" height="44px" viewBox="0 0 36 44" style="enable-background:new 0 0 36 44;" xml:space="preserve">
<g id="_x39_63-coffee-cup-toolbar_x40_2x.png">
	<g>
		<path d="M34,6h-0.382l-2.724-5.447l-0.009,0.005C30.721,0.23,30.391,0,30,0H6C5.609,0,5.279,0.23,5.114,0.558L5.105,0.553L2.382,6
			H2C0.896,6,0,6.896,0,8v2c0,1.104,0.896,2,2,2h2.09l2.914,31.091l0.015-0.001C7.065,43.598,7.479,44,8,44h20
			c0.521,0,0.935-0.402,0.982-0.91l0.014,0.001L31.911,12H34c1.104,0,2-0.896,2-2V8C36,6.896,35.104,6,34,6z M6.618,2h22.764l2,4H22
			c0-0.552-0.447-1-1-1h-6c-0.553,0-1,0.448-1,1H4.618L6.618,2z M27.09,42H8.911l-0.75-8H27.84L27.09,42z M28.027,32H7.974L6.849,20
			h22.304L28.027,32z M29.34,18H6.661l-0.562-6h23.804L29.34,18z M34,10H2V8h32V10z"/>
	</g>
</g>
<g>
</g>
<g>
</g>
<g>
</g>
<g>
</g>
<g>
</g>
<g>
</g>
<g>
</g>
<g>
</g>
<g>
</g>
<g>
</g>
<g>
</g>
<g>
</g>
<g>
</g>
<g>
</g>
<g>
</g>
</svg>
