<?xml version="1.0" encoding="iso-8859-1"?>
<!-- Generator: Adobe Illustrator 16.0.4, SVG Export Plug-In . SVG Version: 6.00 Build 0)  -->
<!DOCTYPE svg PUBLIC "-//W3C//DTD SVG 1.1//EN" "http://www.w3.org/Graphics/SVG/1.1/DTD/svg11.dtd">
<svg version="1.1" id="Layer_1" xmlns="http://www.w3.org/2000/svg" xmlns:xlink="http://www.w3.org/1999/xlink" x="0px" y="0px"
	 width="32px" height="44px" viewBox="0 0 32 44" style="enable-background:new 0 0 32 44;" xml:space="preserve">
<g id="_x37_83-combination-lock-toolbar_x40_2x.png">
	<g>
		<path d="M16,26c-1.104,0-2,0.896-2,2s0.896,2,2,2s2-0.896,2-2S17.104,26,16,26z M16,22c-3.313,0-6,2.687-6,6s2.687,6,6,6
			s6-2.687,6-6S19.313,22,16,22z M16,32c-2.209,0-4-1.791-4-4s1.791-4,4-4s4,1.791,4,4S18.209,32,16,32z M24,14.158V8
			c0-4.418-3.582-8-8-8S8,3.582,8,8v6.158C3.223,16.926,0,22.081,0,28c0,8.837,7.163,16,16,16s16-7.163,16-16
			C32,22.081,28.778,16.926,24,14.158z M10,12.403V8c0-3.313,2.687-6,6-6s6,2.687,6,6v4.403v0.771C20.146,12.423,18.123,12,16,12
			s-4.146,0.423-6,1.174V12.403z M26.566,37.152l-2.081-2.081c-0.391-0.391-1.023-0.391-1.414,0s-0.391,1.023,0,1.414l2.081,2.081
			c-2.217,1.922-5.041,3.163-8.152,3.384V39c0-0.552-0.447-1-1-1s-1,0.448-1,1v2.95c-3.111-0.221-5.935-1.462-8.152-3.384
			l2.081-2.081c0.391-0.391,0.391-1.023,0-1.414s-1.023-0.391-1.414,0l-2.081,2.081C3.511,34.936,2.269,32.111,2.049,29H5
			c0.553,0,1-0.447,1-1c0-0.552-0.447-1-1-1H2.049c0.22-3.111,1.462-5.935,3.385-8.152l2.081,2.081c0.391,0.391,1.023,0.391,1.414,0
			c0.391-0.39,0.391-1.023,0-1.414l-2.081-2.081c2.217-1.921,5.041-3.162,8.152-3.383V17c0,0.553,0.447,1,1,1s1-0.447,1-1v-2.949
			c3.111,0.221,5.935,1.461,8.152,3.383l-2.081,2.081c-0.391,0.391-0.391,1.024,0,1.415c0.39,0.39,1.023,0.39,1.414,0l2.081-2.082
			c1.923,2.218,3.165,5.041,3.386,8.152H27c-0.552,0-1,0.448-1,1c0,0.553,0.448,1,1,1h2.952
			C29.731,32.111,28.489,34.936,26.566,37.152z"/>
	</g>
</g>
<g>
</g>
<g>
</g>
<g>
</g>
<g>
</g>
<g>
</g>
<g>
</g>
<g>
</g>
<g>
</g>
<g>
</g>
<g>
</g>
<g>
</g>
<g>
</g>
<g>
</g>
<g>
</g>
<g>
</g>
</svg>
