<?xml version="1.0" encoding="iso-8859-1"?>
<!-- Generator: Adobe Illustrator 16.0.4, SVG Export Plug-In . SVG Version: 6.00 Build 0)  -->
<!DOCTYPE svg PUBLIC "-//W3C//DTD SVG 1.1//EN" "http://www.w3.org/Graphics/SVG/1.1/DTD/svg11.dtd">
<svg version="1.1" id="Layer_1" xmlns="http://www.w3.org/2000/svg" xmlns:xlink="http://www.w3.org/1999/xlink" x="0px" y="0px"
	 width="40px" height="56px" viewBox="0 0 40 56" style="enable-background:new 0 0 40 56;" xml:space="preserve">
<g id="_x37_83-combination-lock_x40_2x.png">
	<g>
		<path d="M20,34c-1.104,0-2,0.896-2,2s0.896,2,2,2s2-0.896,2-2S21.104,34,20,34z M20,28c-4.418,0-8,3.582-8,8s3.582,8,8,8
			s8-3.582,8-8S24.418,28,20,28z M20,42c-3.313,0-6-2.686-6-6c0-3.313,2.687-6,6-6s6,2.687,6,6C26,39.314,23.313,42,20,42z
			 M34.224,21.981c-0.029-0.04-0.045-0.087-0.081-0.123c-0.037-0.037-0.083-0.053-0.124-0.082c-0.635-0.625-1.306-1.212-2.019-1.749
			V12c0-6.627-5.373-12-12-12S8,5.373,8,12v8.027c-0.713,0.537-1.384,1.124-2.019,1.749c-0.04,0.029-0.087,0.045-0.124,0.082
			c-0.036,0.036-0.052,0.083-0.081,0.123C2.213,25.588,0,30.528,0,36c0,5.522,2.238,10.522,5.857,14.143c0.001,0,0.001,0,0.001,0
			C9.478,53.762,14.478,56,20,56s10.522-2.238,14.142-5.857h0.001C37.762,46.522,40,41.522,40,36
			C40,30.528,37.787,25.588,34.224,21.981z M10,12c0-5.522,4.478-10,10-10s10,4.478,10,10v6.697C27.056,16.992,23.647,16,20,16
			s-7.056,0.992-10,2.697V12z M33.39,47.976l-3.49-3.49c-0.391-0.391-1.023-0.391-1.414,0s-0.391,1.024,0,1.414l3.489,3.49
			C29.027,52.027,25.214,53.718,21,53.95V49c0-0.553-0.447-1-1-1s-1,0.447-1,1v4.95c-4.214-0.232-8.027-1.923-10.975-4.561
			l3.489-3.49c0.391-0.39,0.391-1.023,0-1.414s-1.023-0.391-1.414,0l-3.49,3.49C3.973,45.027,2.281,41.214,2.049,37H7
			c0.553,0,1-0.447,1-1s-0.447-1-1-1H2.049c0.232-4.214,1.924-8.027,4.562-10.975l3.49,3.489c0.391,0.391,1.023,0.391,1.414,0
			s0.391-1.023,0-1.414l-3.489-3.489c2.947-2.638,6.761-4.328,10.975-4.561V23c0,0.553,0.447,1,1,1s1-0.447,1-1v-4.949
			c4.214,0.232,8.027,1.923,10.975,4.561l-3.489,3.489c-0.391,0.391-0.391,1.023,0,1.414s1.023,0.391,1.414,0l3.49-3.489
			c2.638,2.947,4.329,6.761,4.562,10.975H33c-0.553,0-1,0.447-1,1s0.447,1,1,1h4.951C37.719,41.214,36.027,45.027,33.39,47.976z"/>
	</g>
</g>
<g>
</g>
<g>
</g>
<g>
</g>
<g>
</g>
<g>
</g>
<g>
</g>
<g>
</g>
<g>
</g>
<g>
</g>
<g>
</g>
<g>
</g>
<g>
</g>
<g>
</g>
<g>
</g>
<g>
</g>
</svg>
