<?xml version="1.0" encoding="iso-8859-1"?>
<!-- Generator: Adobe Illustrator 16.0.4, SVG Export Plug-In . SVG Version: 6.00 Build 0)  -->
<!DOCTYPE svg PUBLIC "-//W3C//DTD SVG 1.1//EN" "http://www.w3.org/Graphics/SVG/1.1/DTD/svg11.dtd">
<svg version="1.1" id="Layer_1" xmlns="http://www.w3.org/2000/svg" xmlns:xlink="http://www.w3.org/1999/xlink" x="0px" y="0px"
	 width="44.021px" height="44.021px" viewBox="0 0 44.021 44.021" style="enable-background:new 0 0 44.021 44.021;"
	 xml:space="preserve">
<g id="_x37_82-compass-toolbar_x40_2x.png">
	<g>
		<path d="M35.476,25.804l8.545-3.794l-8.545-3.793c-1.315-4.679-4.994-8.356-9.673-9.673L22.01,0l-3.793,8.544
			c-1.487,0.419-2.856,1.098-4.099,1.95L0.01,0.01l10.481,14.112c-0.851,1.24-1.529,2.608-1.947,4.095L0,22.01l8.544,3.794
			c1.316,4.678,4.994,8.356,9.673,9.672l3.793,8.545l3.793-8.545c1.491-0.419,2.864-1.101,4.107-1.956l14.079,10.449L33.524,29.903
			C34.377,28.661,35.057,27.291,35.476,25.804z M35.906,20.375l4.019,1.635l-4.019,1.636c0.062-0.538,0.104-1.081,0.104-1.636
			C36.01,21.456,35.969,20.912,35.906,20.375z M8.113,23.646L4.095,22.01l4.019-1.635C8.051,20.912,8.01,21.456,8.01,22.01
			C8.01,22.564,8.051,23.107,8.113,23.646z M22.01,4.096l1.635,4.018C23.107,8.051,22.563,8.01,22.01,8.01s-1.098,0.041-1.635,0.104
			L22.01,4.096z M22.01,39.925l-1.635-4.019c0.537,0.062,1.081,0.104,1.635,0.104s1.098-0.041,1.635-0.104L22.01,39.925z
			 M22.01,34.01c-6.627,0-12-5.372-12-12c0-2.271,0.643-4.386,1.738-6.196l6.975,9.39l-0.008,0.008l9.504,7.054
			C26.406,33.365,24.286,34.01,22.01,34.01z M20.01,22.01c0-1.104,0.896-2,2-2s2,0.896,2,2s-0.896,2-2,2S20.01,23.114,20.01,22.01z
			 M25.245,18.774l0.007-0.007L15.81,11.75c1.811-1.097,3.928-1.74,6.2-1.74c6.628,0,12,5.373,12,12
			c0,2.273-0.644,4.392-1.742,6.204L25.245,18.774z"/>
	</g>
</g>
<g>
</g>
<g>
</g>
<g>
</g>
<g>
</g>
<g>
</g>
<g>
</g>
<g>
</g>
<g>
</g>
<g>
</g>
<g>
</g>
<g>
</g>
<g>
</g>
<g>
</g>
<g>
</g>
<g>
</g>
</svg>
