<?xml version="1.0" encoding="iso-8859-1"?>
<!-- Generator: Adobe Illustrator 16.0.4, SVG Export Plug-In . SVG Version: 6.00 Build 0)  -->
<!DOCTYPE svg PUBLIC "-//W3C//DTD SVG 1.1//EN" "http://www.w3.org/Graphics/SVG/1.1/DTD/svg11.dtd">
<svg version="1.1" id="Layer_1" xmlns="http://www.w3.org/2000/svg" xmlns:xlink="http://www.w3.org/1999/xlink" x="0px" y="0px"
	 width="56.006px" height="56.037px" viewBox="0 0 56.006 56.037" style="enable-background:new 0 0 56.006 56.037;"
	 xml:space="preserve">
<g id="_x37_04-compose_x40_2x.png">
	<g>
		<path d="M45,22.037c-0.553,0-1,0.448-1,1v31H2v-42h31c0.553,0,1-0.447,1-1c0-0.552-0.447-1-1-1H2c-1.104,0-2,0.896-2,2v42
			c0,1.104,0.896,2,2,2h42c1.104,0,2-0.896,2-2v-31C46,22.485,45.553,22.037,45,22.037z M55.414,3.451l-2.856-2.859
			c-0.789-0.789-2.067-0.789-2.856,0L20.423,29.895l-1.429,7.148l7.141-1.43L52.558,9.169L51.13,7.74L25.184,33.707l-2.619-0.238
			l-0.237-2.621L48.273,4.881l-1.429-1.43l1.429-1.43l5.712,5.719l1.429-1.43C56.203,5.521,56.203,4.241,55.414,3.451z"/>
	</g>
</g>
<g>
</g>
<g>
</g>
<g>
</g>
<g>
</g>
<g>
</g>
<g>
</g>
<g>
</g>
<g>
</g>
<g>
</g>
<g>
</g>
<g>
</g>
<g>
</g>
<g>
</g>
<g>
</g>
<g>
</g>
</svg>
