<?xml version="1.0" encoding="iso-8859-1"?>
<!-- Generator: Adobe Illustrator 16.0.4, SVG Export Plug-In . SVG Version: 6.00 Build 0)  -->
<!DOCTYPE svg PUBLIC "-//W3C//DTD SVG 1.1//EN" "http://www.w3.org/Graphics/SVG/1.1/DTD/svg11.dtd">
<svg version="1.1" id="Layer_1" xmlns="http://www.w3.org/2000/svg" xmlns:xlink="http://www.w3.org/1999/xlink" x="0px" y="0px"
	 width="55.979px" height="55.959px" viewBox="0 0 55.979 55.959" style="enable-background:new 0 0 55.979 55.959;"
	 xml:space="preserve">
<g id="_x37_82-compass_x40_2x.png">
	<g>
		<path d="M42.835,38.137c1.48-2.163,2.511-4.659,2.93-7.364L52.01,28l-6.245-2.772c-1.196-7.715-7.276-13.796-14.992-14.992
			L28,3.99l-2.772,6.245c-2.704,0.419-5.2,1.449-7.362,2.929L0,0l13.161,17.868c-1.478,2.162-2.507,4.657-2.926,7.359L3.99,28
			l6.245,2.772c1.196,7.716,7.277,13.797,14.992,14.992L28,52.011l2.772-6.246c2.708-0.42,5.207-1.451,7.372-2.935l17.835,13.129
			L42.835,38.137z M45.96,27.205L47.915,28l-1.955,0.796C45.972,28.53,46,28.269,46,28S45.972,27.471,45.96,27.205z M10.04,28.796
			L8.085,28l1.955-0.795C10.028,27.471,10,27.731,10,28S10.028,28.53,10.04,28.796z M28,8.086l0.796,1.954
			C28.53,10.028,28.269,10,28,10s-0.529,0.028-0.796,0.04L28,8.086z M28,47.915l-0.796-1.955C27.47,45.972,27.731,46,28,46
			s0.53-0.028,0.796-0.04L28,47.915z M28,44c-8.837,0-16-7.163-16-16c0-3.097,0.895-5.978,2.417-8.427l9.296,12.62l-0.008,0.008
			l12.734,9.374C33.987,43.104,31.102,44,28,44z M26,28c0-1.104,0.896-2,2-2s2,0.896,2,2s-0.896,2-2,2S26,29.104,26,28z
			 M32.235,23.765l0.007-0.007L19.569,14.42C22.02,12.896,24.902,12,28,12c8.837,0,16,7.163,16,16c0,3.1-0.896,5.982-2.421,8.434
			L32.235,23.765z"/>
	</g>
</g>
<g>
</g>
<g>
</g>
<g>
</g>
<g>
</g>
<g>
</g>
<g>
</g>
<g>
</g>
<g>
</g>
<g>
</g>
<g>
</g>
<g>
</g>
<g>
</g>
<g>
</g>
<g>
</g>
<g>
</g>
</svg>
