<?xml version="1.0" encoding="iso-8859-1"?>
<!-- Generator: Adobe Illustrator 16.0.4, SVG Export Plug-In . SVG Version: 6.00 Build 0)  -->
<!DOCTYPE svg PUBLIC "-//W3C//DTD SVG 1.1//EN" "http://www.w3.org/Graphics/SVG/1.1/DTD/svg11.dtd">
<svg version="1.1" id="Layer_1" xmlns="http://www.w3.org/2000/svg" xmlns:xlink="http://www.w3.org/1999/xlink" x="0px" y="0px"
	 width="44.006px" height="44.037px" viewBox="0 0 44.006 44.037" style="enable-background:new 0 0 44.006 44.037;"
	 xml:space="preserve">
<g id="_x37_04-compose-toolbar_x40_2x.png">
	<g>
		<path d="M39.13,7.74L19.184,27.707l-2.619-0.238l-0.237-2.621L36.273,4.881l-1.429-1.43L14.423,23.895l-1.429,7.148l7.142-1.43
			L40.739,8.989L40.558,9.17L39.13,7.74z M35,20.037c-0.553,0-1,0.448-1,1v21H2v-32h21c0.553,0,1-0.447,1-1c0-0.552-0.447-1-1-1H2
			c-1.104,0-2,0.896-2,2v32c0,1.104,0.896,2,2,2h32c1.104,0,2-0.896,2-2v-21C36,20.485,35.553,20.037,35,20.037z M43.414,3.451
			l-2.856-2.859c-0.789-0.789-2.067-0.789-2.856,0l-1.428,1.43l5.713,5.719l1.428-1.43C44.203,5.521,44.203,4.241,43.414,3.451z"/>
	</g>
</g>
<g>
</g>
<g>
</g>
<g>
</g>
<g>
</g>
<g>
</g>
<g>
</g>
<g>
</g>
<g>
</g>
<g>
</g>
<g>
</g>
<g>
</g>
<g>
</g>
<g>
</g>
<g>
</g>
<g>
</g>
</svg>
