<?xml version="1.0" encoding="iso-8859-1"?>
<!-- Generator: Adobe Illustrator 16.0.4, SVG Export Plug-In . SVG Version: 6.00 Build 0)  -->
<!DOCTYPE svg PUBLIC "-//W3C//DTD SVG 1.1//EN" "http://www.w3.org/Graphics/SVG/1.1/DTD/svg11.dtd">
<svg version="1.1" id="Layer_1" xmlns="http://www.w3.org/2000/svg" xmlns:xlink="http://www.w3.org/1999/xlink" x="0px" y="0px"
	 width="43.986px" height="43.986px" viewBox="0 0 43.986 43.986" style="enable-background:new 0 0 43.986 43.986;"
	 xml:space="preserve">
<g id="_x39_38-connections-toolbar_x40_2x.png">
	<g>
		<path d="M36.993,0C33.131,0,30,3.131,30,6.993c0,3.522,2.612,6.407,6,6.894v7.1h-7.114C28.394,17.605,25.511,15,21.993,15
			s-6.399,2.605-6.892,5.986H7c-0.553,0-1,0.447-1,1V30.1c-3.388,0.486-6,3.371-6,6.894c0,3.862,3.131,6.993,6.993,6.993
			s6.993-3.131,6.993-6.993c0-3.518-2.605-6.4-5.986-6.892v-7.115h7.101c0.485,3.388,3.371,6,6.893,6c3.522,0,6.407-2.612,6.894-6
			H37c0.553,0,1-0.447,1-1v-8.102c3.381-0.491,5.986-3.374,5.986-6.892C43.986,3.131,40.855,0,36.993,0z M12.008,36.979
			c0,2.761-2.238,5-5,5c-2.761,0-5-2.239-5-5c0-2.762,2.239-5,5-5C9.77,31.979,12.008,34.217,12.008,36.979z M22.008,26.979
			c-2.761,0-5-2.239-5-5c0-2.762,2.239-5,5-5c2.762,0,5,2.238,5,5C27.008,24.739,24.77,26.979,22.008,26.979z M37.008,11.979
			c-2.761,0-5-2.239-5-5c0-2.762,2.239-5,5-5c2.762,0,5,2.238,5,5C42.008,9.739,39.77,11.979,37.008,11.979z"/>
	</g>
</g>
<g>
</g>
<g>
</g>
<g>
</g>
<g>
</g>
<g>
</g>
<g>
</g>
<g>
</g>
<g>
</g>
<g>
</g>
<g>
</g>
<g>
</g>
<g>
</g>
<g>
</g>
<g>
</g>
<g>
</g>
</svg>
