<?xml version="1.0" encoding="iso-8859-1"?>
<!-- Generator: Adobe Illustrator 16.0.4, SVG Export Plug-In . SVG Version: 6.00 Build 0)  -->
<!DOCTYPE svg PUBLIC "-//W3C//DTD SVG 1.1//EN" "http://www.w3.org/Graphics/SVG/1.1/DTD/svg11.dtd">
<svg version="1.1" id="Layer_1" xmlns="http://www.w3.org/2000/svg" xmlns:xlink="http://www.w3.org/1999/xlink" x="0px" y="0px"
	 width="56px" height="56px" viewBox="0 0 56 56" style="enable-background:new 0 0 56 56;" xml:space="preserve">
<g id="_x39_38-connections_x40_2x.png">
	<g>
		<path d="M47,0c-4.971,0-9,4.029-9,9c0,4.632,3.501,8.443,8,8.941V27h-9.059c-0.498-4.499-4.31-8-8.941-8s-8.443,3.501-8.941,8H9
			c-0.553,0-1,0.447-1,1v10.059C3.501,38.557,0,42.368,0,47c0,4.971,4.029,9,9,9s9-4.029,9-9c0-4.632-3.501-8.443-8-8.941V29h9.059
			c0.498,4.499,4.31,8,8.941,8s8.443-3.501,8.941-8H47c0.553,0,1-0.447,1-1V17.941c4.499-0.498,8-4.31,8-8.941
			C56,4.029,51.971,0,47,0z M16,47c0,3.866-3.134,7-7,7s-7-3.134-7-7s3.134-7,7-7S16,43.134,16,47z M28,35c-3.866,0-7-3.134-7-7
			s3.134-7,7-7s7,3.134,7,7S31.866,35,28,35z M47,16c-3.866,0-7-3.134-7-7s3.134-7,7-7s7,3.134,7,7S50.866,16,47,16z"/>
	</g>
</g>
<g>
</g>
<g>
</g>
<g>
</g>
<g>
</g>
<g>
</g>
<g>
</g>
<g>
</g>
<g>
</g>
<g>
</g>
<g>
</g>
<g>
</g>
<g>
</g>
<g>
</g>
<g>
</g>
<g>
</g>
</svg>
