<?xml version="1.0" encoding="iso-8859-1"?>
<!-- Generator: Adobe Illustrator 16.0.4, SVG Export Plug-In . SVG Version: 6.00 Build 0)  -->
<!DOCTYPE svg PUBLIC "-//W3C//DTD SVG 1.1//EN" "http://www.w3.org/Graphics/SVG/1.1/DTD/svg11.dtd">
<svg version="1.1" id="Layer_1" xmlns="http://www.w3.org/2000/svg" xmlns:xlink="http://www.w3.org/1999/xlink" x="0px" y="0px"
	 width="44px" height="32px" viewBox="0 0 44 32" style="enable-background:new 0 0 44 32;" xml:space="preserve">
<g id="_x39_81-contact-card-toolbar_x40_2x.png">
	<g>
		<path d="M38,10H24v2h14V10z M38,14H24v2h14V14z M38,6H24v2h14V6z M42,0H2C0.896,0,0,0.896,0,2v28c0,1.104,0.896,2,2,2h40
			c1.104,0,2-0.896,2-2V2C44,0.896,43.104,0,42,0z M42,30H2V2h40V30z M38,18H24v2h14V18z M6,25c0,0.553,0.448,1,1,1h12
			c0.552,0,1-0.447,1-1c0,0-0.01-7.454-3.926-10.084C17.238,14.001,18,12.596,18,11c0-2.762-2.239-5-5-5s-5,2.238-5,5
			c0,1.596,0.762,3.001,1.926,3.916C6.01,17.546,6,25,6,25z M13,8c1.657,0,3,1.343,3,3s-1.343,3-3,3s-3-1.343-3-3S11.343,8,13,8z
			 M13,16c3.971,0,4.786,5.663,4.954,8H8.046C8.215,21.663,9.03,16,13,16z M38,22H24v2h14V22z"/>
	</g>
</g>
<g>
</g>
<g>
</g>
<g>
</g>
<g>
</g>
<g>
</g>
<g>
</g>
<g>
</g>
<g>
</g>
<g>
</g>
<g>
</g>
<g>
</g>
<g>
</g>
<g>
</g>
<g>
</g>
<g>
</g>
</svg>
