<?xml version="1.0" encoding="iso-8859-1"?>
<!-- Generator: Adobe Illustrator 16.0.4, SVG Export Plug-In . SVG Version: 6.00 Build 0)  -->
<!DOCTYPE svg PUBLIC "-//W3C//DTD SVG 1.1//EN" "http://www.w3.org/Graphics/SVG/1.1/DTD/svg11.dtd">
<svg version="1.1" id="Layer_1" xmlns="http://www.w3.org/2000/svg" xmlns:xlink="http://www.w3.org/1999/xlink" x="0px" y="0px"
	 width="44px" height="36px" viewBox="0 0 44 36" style="enable-background:new 0 0 44 36;" xml:space="preserve">
<g id="_x39_66-contact-cards-toolbar_x40_2x.png">
	<g>
		<path d="M38,14H28v2h10V14z M42,6c0-1.104-0.896-2-2-2H6C4.896,4,4,4.896,4,6v24c0,1.104,0.896,2,2,2v-2V6h34H42z M34,22h-6v2h6
			V22z M38,2c0-1.104,0.104-2-1-2H2C0.896,0,0,0.896,0,2v24c0,1.104,0.896,2,2,2v-2V2h35H38z M38,18H28v2h10V18z M20,22h-6v2h6V22z
			 M42,8H10c-1.104,0-2,0.896-2,2v24c0,1.104,0.896,2,2,2h32c1.104,0,2-0.896,2-2V10C44,8.896,43.104,8,42,8z M42,34h-8v-2h1
			c0.553,0,1-0.447,1-1c0-0.552-0.447-1-1-1h-4c-0.553,0-1,0.448-1,1c0,0.553,0.447,1,1,1h1v2H20v-2h1c0.553,0,1-0.447,1-1
			c0-0.552-0.447-1-1-1h-4c-0.553,0-1,0.448-1,1c0,0.553,0.447,1,1,1h1v2h-8V10h32V34z M24,14H14v2h10V14z M24,18H14v2h10V18z"/>
	</g>
</g>
<g>
</g>
<g>
</g>
<g>
</g>
<g>
</g>
<g>
</g>
<g>
</g>
<g>
</g>
<g>
</g>
<g>
</g>
<g>
</g>
<g>
</g>
<g>
</g>
<g>
</g>
<g>
</g>
<g>
</g>
</svg>
