<?xml version="1.0" encoding="iso-8859-1"?>
<!-- Generator: Adobe Illustrator 16.0.4, SVG Export Plug-In . SVG Version: 6.00 Build 0)  -->
<!DOCTYPE svg PUBLIC "-//W3C//DTD SVG 1.1//EN" "http://www.w3.org/Graphics/SVG/1.1/DTD/svg11.dtd">
<svg version="1.1" id="Layer_1" xmlns="http://www.w3.org/2000/svg" xmlns:xlink="http://www.w3.org/1999/xlink" x="0px" y="0px"
	 width="56px" height="40px" viewBox="0 0 56 40" style="enable-background:new 0 0 56 40;" xml:space="preserve">
<g id="_x39_81-contact-card_x40_2x.png">
	<g>
		<path d="M50,10H30v2h20V10z M50,14H30v2h20V14z M50,6H30v2h20V6z M50,18H30v2h20V18z M6,31c0,0.553,0.448,1,1,1h16
			c0.552,0,1-0.447,1-1c0,0-0.003-9.108-5.285-12.074C20.686,17.688,22,15.5,22,13c0-3.866-3.134-7-7-7s-7,3.134-7,7
			c0,2.5,1.314,4.688,3.285,5.926C6.004,21.892,6,31,6,31z M10,13c0-2.762,2.239-5,5-5s5,2.238,5,5s-2.239,5-5,5S10,15.762,10,13z
			 M15,20c5.7,0,6.758,7.291,6.955,10H8.045C8.242,27.291,9.3,20,15,20z M54,0H2C0.896,0,0,0.896,0,2v36c0,1.104,0.896,2,2,2h52
			c1.104,0,2-0.896,2-2V2C56,0.896,55.104,0,54,0z M54,38H2V2h52V38z M50,30H30v2h20V30z M50,26H30v2h20V26z M50,22H30v2h20V22z"/>
	</g>
</g>
<g>
</g>
<g>
</g>
<g>
</g>
<g>
</g>
<g>
</g>
<g>
</g>
<g>
</g>
<g>
</g>
<g>
</g>
<g>
</g>
<g>
</g>
<g>
</g>
<g>
</g>
<g>
</g>
<g>
</g>
</svg>
