<?xml version="1.0" encoding="iso-8859-1"?>
<!-- Generator: Adobe Illustrator 16.0.4, SVG Export Plug-In . SVG Version: 6.00 Build 0)  -->
<!DOCTYPE svg PUBLIC "-//W3C//DTD SVG 1.1//EN" "http://www.w3.org/Graphics/SVG/1.1/DTD/svg11.dtd">
<svg version="1.1" id="Layer_1" xmlns="http://www.w3.org/2000/svg" xmlns:xlink="http://www.w3.org/1999/xlink" x="0px" y="0px"
	 width="56px" height="40px" viewBox="0 0 56 40" style="enable-background:new 0 0 56 40;" xml:space="preserve">
<g id="_x39_66-contact-cards_x40_2x.png">
	<g>
		<path d="M50,18H34v2h16V18z M50,14H34v2h16V14z M54,6c0-1.104-0.896-2-2-2H6C4.896,4,4,4.896,4,6v28c0,1.104,0.896,2,2,2v-2V6h46
			H54z M50,2c0-1.104-0.896-2-2-2H2C0.896,0,0,0.896,0,2v28c0,1.104,0.896,2,2,2v-2V2h46H50z M26,22H14v2h12V22z M30,18H14v2h16V18z
			 M54,8H10c-1.104,0-2,0.896-2,2v28c0,1.104,0.896,2,2,2h44c1.104,0,2-0.896,2-2V10C56,8.896,55.104,8,54,8z M54,38H43v-2h2
			c0.553,0,1-0.447,1-1c0-0.552-0.447-1-1-1h-6c-0.553,0-1,0.448-1,1c0,0.553,0.447,1,1,1h2v2H23v-2h2c0.553,0,1-0.447,1-1
			c0-0.552-0.447-1-1-1h-6c-0.553,0-1,0.448-1,1c0,0.553,0.447,1,1,1h2v2H10V10h44V38z M46,22H34v2h12V22z M30,14H14v2h16V14z"/>
	</g>
</g>
<g>
</g>
<g>
</g>
<g>
</g>
<g>
</g>
<g>
</g>
<g>
</g>
<g>
</g>
<g>
</g>
<g>
</g>
<g>
</g>
<g>
</g>
<g>
</g>
<g>
</g>
<g>
</g>
<g>
</g>
</svg>
