<?xml version="1.0" encoding="iso-8859-1"?>
<!-- Generator: Adobe Illustrator 16.0.4, SVG Export Plug-In . SVG Version: 6.00 Build 0)  -->
<!DOCTYPE svg PUBLIC "-//W3C//DTD SVG 1.1//EN" "http://www.w3.org/Graphics/SVG/1.1/DTD/svg11.dtd">
<svg version="1.1" id="Layer_1" xmlns="http://www.w3.org/2000/svg" xmlns:xlink="http://www.w3.org/1999/xlink" x="0px" y="0px"
	 width="44px" height="36px" viewBox="0 0 44 36" style="enable-background:new 0 0 44 36;" xml:space="preserve">
<g id="_x39_99-contact-card-2-toolbar_x40_2x.png">
	<g>
		<path d="M8,16h28v-2H8V16z M8,22h15v-2H8V22z M40,0H4C1.791,0,0,1.791,0,4v28c0,2.209,1.791,4,4,4h5c0.553,0,1-0.447,1-1
			c0-1.657,2.015-3,4.5-3s4.5,1.343,4.5,3c0,0.553,0.447,1,1,1h4c0.553,0,1-0.447,1-1c0-1.657,2.015-3,4.5-3s4.5,1.343,4.5,3
			c0,0.553,0.447,1,1,1h5c2.209,0,4-1.791,4-4V4C44,1.791,42.209,0,40,0z M42,32c0,1.104-0.896,2-2,2h-4.131
			c-0.603-2.282-3.225-4-6.369-4s-5.767,1.718-6.369,4h-2.262c-0.603-2.282-3.225-4-6.369-4s-5.767,1.718-6.369,4H4
			c-1.104,0-2-0.896-2-2V4c0-1.104,0.896-2,2-2h36c1.104,0,2,0.896,2,2V32z M8,10h28V8H8V10z"/>
	</g>
</g>
<g>
</g>
<g>
</g>
<g>
</g>
<g>
</g>
<g>
</g>
<g>
</g>
<g>
</g>
<g>
</g>
<g>
</g>
<g>
</g>
<g>
</g>
<g>
</g>
<g>
</g>
<g>
</g>
<g>
</g>
</svg>
