<?xml version="1.0" encoding="iso-8859-1"?>
<!-- Generator: Adobe Illustrator 16.0.4, SVG Export Plug-In . SVG Version: 6.00 Build 0)  -->
<!DOCTYPE svg PUBLIC "-//W3C//DTD SVG 1.1//EN" "http://www.w3.org/Graphics/SVG/1.1/DTD/svg11.dtd">
<svg version="1.1" id="Layer_1" xmlns="http://www.w3.org/2000/svg" xmlns:xlink="http://www.w3.org/1999/xlink" x="0px" y="0px"
	 width="44px" height="32px" viewBox="0 0 44 32" style="enable-background:new 0 0 44 32;" xml:space="preserve">
<g id="_x38_17-costume-toolbar_x40_2x.png">
	<g>
		<path d="M36.929,22.118c-4.715,0-3.143-4.118-8.643-4.118c-3.144,0-3.144,1.647-6.286,1.647S18.857,18,15.714,18
			c-5.5,0-3.928,4.118-8.643,4.118C2.357,22.118,0,18,0,18c0,7.412,6.286,14,11.786,14c7.856,0,7.856-3.294,10.214-3.294
			S24.357,32,32.214,32C37.714,32,44,25.412,44,18C44,18,41.643,22.118,36.929,22.118z M32.214,30c-4.398,0-5.801-1.074-6.929-1.937
			c-0.79-0.604-1.773-1.357-3.285-1.357s-2.495,0.753-3.285,1.357C17.588,28.926,16.185,30,11.786,30
			c-3.03,0-6.631-2.786-8.507-6.646c1.085,0.46,2.348,0.764,3.792,0.764c3.188,0,4.493-1.526,5.445-2.641
			C13.331,20.525,13.779,20,15.714,20c1.079,0,1.531,0.236,2.216,0.596c0.894,0.469,2.007,1.052,4.07,1.052s3.177-0.583,4.071-1.052
			C26.755,20.236,27.207,20,28.286,20c1.935,0,2.383,0.525,3.197,1.478c0.952,1.114,2.257,2.641,5.445,2.641
			c1.444,0,2.707-0.304,3.791-0.764C38.845,27.214,35.243,30,32.214,30z M0.558,3.886L0.553,3.895l1.795,0.897
			C2.125,5.487,2,6.228,2,7c0,3.866,3.022,7,6.75,7c5.169,0,11.052-1.516,11.233-6.759C20.427,7.104,21.051,7,22,7
			s1.573,0.104,2.017,0.241C24.198,12.484,30.081,14,35.25,14C38.978,14,42,10.866,42,7c0-0.772-0.125-1.513-0.348-2.208
			l1.795-0.897l-0.005-0.009C43.77,3.722,44,3.392,44,3c0-0.552-0.447-1-1-1c-0.161,0-0.308,0.047-0.442,0.115l-0.005-0.01
			l-1.773,0.887C39.559,1.185,37.539,0,35.25,0c-7.126,0-10.33,2.341-11.071,5.469C23.68,5.23,22.958,5,22,5
			c-0.957,0-1.68,0.23-2.179,0.469C19.08,2.341,15.876,0,8.75,0C6.461,0,4.441,1.185,3.221,2.992L1.447,2.105l-0.005,0.01
			C1.308,2.047,1.161,2,1,2C0.447,2,0,2.448,0,3C0,3.392,0.23,3.722,0.558,3.886z M34.75,2C37.649,2,40,4.238,40,7s-2.351,5-5.25,5
			C30.667,12,26,10.889,26,7C26,4.238,28.333,2,34.75,2z M9.25,2C15.667,2,18,4.238,18,7c0,3.889-4.667,5-8.75,5
			C6.351,12,4,9.762,4,7S6.351,2,9.25,2z"/>
	</g>
</g>
<g>
</g>
<g>
</g>
<g>
</g>
<g>
</g>
<g>
</g>
<g>
</g>
<g>
</g>
<g>
</g>
<g>
</g>
<g>
</g>
<g>
</g>
<g>
</g>
<g>
</g>
<g>
</g>
<g>
</g>
</svg>
