<?xml version="1.0" encoding="iso-8859-1"?>
<!-- Generator: Adobe Illustrator 16.0.4, SVG Export Plug-In . SVG Version: 6.00 Build 0)  -->
<!DOCTYPE svg PUBLIC "-//W3C//DTD SVG 1.1//EN" "http://www.w3.org/Graphics/SVG/1.1/DTD/svg11.dtd">
<svg version="1.1" id="Layer_1" xmlns="http://www.w3.org/2000/svg" xmlns:xlink="http://www.w3.org/1999/xlink" x="0px" y="0px"
	 width="56px" height="38px" viewBox="0 0 56 38" style="enable-background:new 0 0 56 38;" xml:space="preserve">
<g id="_x38_17-costume_x40_2x.png">
	<g>
		<path d="M0.558,4.886L0.553,4.895l2.008,1.004C2.204,6.866,2,7.908,2,9c0,4.971,4.029,9,9,9c7,0,15-2,15-9
			c0-0.254-0.018-0.504-0.039-0.752C26.405,8.107,27.036,8,28,8s1.595,0.107,2.039,0.248C30.018,8.496,30,8.746,30,9c0,7,8,9,15,9
			c4.971,0,9-4.029,9-9c0-1.092-0.204-2.134-0.561-3.102l2.008-1.004l-0.005-0.009C55.77,4.721,56,4.392,56,4c0-0.553-0.447-1-1-1
			c-0.161,0-0.308,0.047-0.442,0.115l-0.005-0.01l-2.005,1.003C50.943,1.638,48.165,0,45,0c-9.132,0-13.429,2.781-14.629,6.568
			C29.876,6.297,29.093,6,28,6s-1.876,0.297-2.371,0.568C24.429,2.781,20.132,0,11,0C7.835,0,5.057,1.638,3.452,4.108L1.447,3.105
			l-0.005,0.01C1.308,3.047,1.161,3,1,3C0.447,3,0,3.447,0,4C0,4.392,0.23,4.721,0.558,4.886z M44.5,2C48.643,2,52,5.135,52,9
			c0,3.866-3.357,7-7.5,7C38.667,16,32,14.444,32,9C32,5.135,35.333,2,44.5,2z M11.5,2C20.667,2,24,5.135,24,9
			c0,5.444-6.667,7-12.5,7C7.357,16,4,12.866,4,9C4,5.135,7.357,2,11.5,2z M47,26c-6,0-4-5-11-5c-4,0-4,2-8,2s-4-2-8-2
			c-7,0-5,5-11,5s-9-5-9-5c0,9,8,17,15,17c10,0,10-4,13-4s3,4,13,4c7,0,15-8,15-17C56,21,53,26,47,26z M49.653,31.521
			C47.073,34.325,43.838,36,41,36c-5.809,0-7.682-1.368-9.187-2.467C30.829,32.814,29.714,32,28,32s-2.829,0.814-3.813,1.533
			C22.682,34.632,20.809,36,15,36c-2.838,0-6.073-1.675-8.653-4.479c-1.381-1.501-2.468-3.211-3.209-5.005
			C4.706,27.368,6.658,28,9,28c3.777,0,5.343-1.746,6.484-3.021C16.515,23.83,17.259,23,20,23c1.528,0,2.189,0.331,3.105,0.789
			C24.185,24.328,25.528,25,28,25s3.815-0.672,4.895-1.211C33.811,23.331,34.472,23,36,23c2.741,0,3.485,0.83,4.516,1.979
			C41.657,26.254,43.223,28,47,28c2.342,0,4.294-0.632,5.862-1.484C52.121,28.31,51.034,30.02,49.653,31.521z"/>
	</g>
</g>
<g>
</g>
<g>
</g>
<g>
</g>
<g>
</g>
<g>
</g>
<g>
</g>
<g>
</g>
<g>
</g>
<g>
</g>
<g>
</g>
<g>
</g>
<g>
</g>
<g>
</g>
<g>
</g>
<g>
</g>
</svg>
