<?xml version="1.0" encoding="iso-8859-1"?>
<!-- Generator: Adobe Illustrator 16.0.4, SVG Export Plug-In . SVG Version: 6.00 Build 0)  -->
<!DOCTYPE svg PUBLIC "-//W3C//DTD SVG 1.1//EN" "http://www.w3.org/Graphics/SVG/1.1/DTD/svg11.dtd">
<svg version="1.1" id="Layer_1" xmlns="http://www.w3.org/2000/svg" xmlns:xlink="http://www.w3.org/1999/xlink" x="0px" y="0px"
	 width="44px" height="32px" viewBox="0 0 44 32" style="enable-background:new 0 0 44 32;" xml:space="preserve">
<g id="_x31_041-count-toolbar_x40_2x.png">
	<g>
		<path d="M43.179,21.036l0.003-0.02l-8.465-2.016l1.281-17.938l-0.011-0.001C35.989,1.04,36,1.022,36,1c0-0.552-0.447-1-1-1
			c-0.53,0-0.954,0.416-0.987,0.938l-0.011-0.001l-1.257,17.595l-5.919-1.409l1.171-14.052L27.986,3.07C27.987,3.046,28,3.025,28,3
			c0-0.552-0.447-1-1-1c-0.527,0-0.947,0.412-0.985,0.93l-0.012-0.001l-1.145,13.726l-5.733-1.365l0.873-12.227l-0.01-0.001
			C19.989,3.04,20,3.021,20,3c0-0.552-0.448-1-1-1c-0.53,0-0.954,0.416-0.987,0.938l-0.011-0.001l-0.849,11.882l-5.799-1.381
			l0.644-8.372h-0.011C11.988,5.043,12,5.023,12,5c0-0.552-0.448-1-1-1c-0.529,0-0.951,0.414-0.987,0.935l-0.011-0.001L9.384,12.97
			l-8.202-1.953l-0.003,0.02C1.119,11.025,1.063,11,1,11c-0.552,0-1,0.447-1,1c0,0.489,0.358,0.877,0.822,0.964l-0.004,0.02
			l8.411,2.003L8.002,30.934l0.011,0.001C8.012,30.957,8,30.977,8,31c0,0.553,0.448,1,1,1c0.529,0,0.951-0.414,0.987-0.934h0.011
			l1.201-15.611l5.811,1.383l-1.007,14.1l0.011,0.001C16.011,30.96,16,30.979,16,31c0,0.553,0.448,1,1,1
			c0.53,0,0.954-0.416,0.988-0.938l0.01,0.001l0.982-13.755l5.711,1.359l-0.688,8.262l0.012,0.001C24.013,26.954,24,26.976,24,27
			c0,0.553,0.447,1,1,1c0.527,0,0.948-0.412,0.985-0.93l0.012,0.001l0.662-7.936l5.942,1.415l-0.6,8.387l0.011,0.001
			C32.011,28.96,32,28.979,32,29c0,0.553,0.448,1,1,1c0.53,0,0.954-0.416,0.987-0.938l0.011,0.001l0.574-8.042l8.246,1.963
			l0.003-0.02C42.882,22.976,42.937,23,43,23c0.553,0,1-0.447,1-1C44,21.511,43.643,21.123,43.179,21.036z"/>
	</g>
</g>
<g>
</g>
<g>
</g>
<g>
</g>
<g>
</g>
<g>
</g>
<g>
</g>
<g>
</g>
<g>
</g>
<g>
</g>
<g>
</g>
<g>
</g>
<g>
</g>
<g>
</g>
<g>
</g>
<g>
</g>
</svg>
