<?xml version="1.0" encoding="iso-8859-1"?>
<!-- Generator: Adobe Illustrator 16.0.4, SVG Export Plug-In . SVG Version: 6.00 Build 0)  -->
<!DOCTYPE svg PUBLIC "-//W3C//DTD SVG 1.1//EN" "http://www.w3.org/Graphics/SVG/1.1/DTD/svg11.dtd">
<svg version="1.1" id="Layer_1" xmlns="http://www.w3.org/2000/svg" xmlns:xlink="http://www.w3.org/1999/xlink" x="0px" y="0px"
	 width="56px" height="36px" viewBox="0 0 56 36" style="enable-background:new 0 0 56 36;" xml:space="preserve">
<g id="_x31_041-count_x40_2x.png">
	<g>
		<path d="M55.179,22.036l0.003-0.02l-12.351-2.287l1.167-18.667l-0.011-0.001C43.989,1.04,44,1.021,44,1c0-0.553-0.447-1-1-1
			c-0.53,0-0.954,0.416-0.987,0.938l-0.011-0.001l-1.151,18.426l-7.912-1.466l1.059-14.826L33.986,3.07C33.987,3.046,34,3.025,34,3
			c0-0.553-0.447-1-1-1c-0.527,0-0.947,0.412-0.985,0.93l-0.012-0.001L30.96,17.531l-7.776-1.44l0.814-13.028l-0.01-0.001
			C23.989,3.04,24,3.021,24,3c0-0.553-0.448-1-1-1c-0.53,0-0.954,0.416-0.987,0.938l-0.011-0.001l-0.799,12.787l-7.819-1.448
			l0.614-9.21l-0.011-0.001C13.988,5.043,14,5.023,14,5c0-0.553-0.448-1-1-1c-0.529,0-0.951,0.414-0.987,0.935l-0.011-0.001
			l-0.599,8.977L1.182,12.017l-0.003,0.02C1.119,12.025,1.063,12,1,12c-0.552,0-1,0.447-1,1c0,0.489,0.358,0.877,0.822,0.964
			l-0.004,0.02l10.452,1.936l-1.268,19.015l0.011,0.001C10.012,34.957,10,34.977,10,35c0,0.553,0.448,1,1,1
			c0.529,0,0.951-0.414,0.987-0.935l0.011,0.001l1.252-18.781l7.827,1.45l-1.075,17.202l0.011,0.001C20.011,34.96,20,34.979,20,35
			c0,0.553,0.448,1,1,1c0.53,0,0.954-0.416,0.988-0.938l0.01,0.001l1.06-16.961l7.758,1.438l-0.813,11.39l0.012,0.001
			C30.013,30.954,30,30.976,30,31c0,0.553,0.447,1,1,1c0.527,0,0.948-0.412,0.985-0.93l0.012,0.001l0.798-11.166l7.93,1.468
			l-0.723,11.564l0.011,0.001C40.011,32.96,40,32.979,40,33c0,0.553,0.447,1,1,1c0.53,0,0.954-0.416,0.987-0.938l0.011,0.001
			l0.708-11.322l12.112,2.243l0.003-0.02C54.882,23.976,54.937,24,55,24c0.553,0,1-0.447,1-1C56,22.511,55.643,22.123,55.179,22.036
			z"/>
	</g>
</g>
<g>
</g>
<g>
</g>
<g>
</g>
<g>
</g>
<g>
</g>
<g>
</g>
<g>
</g>
<g>
</g>
<g>
</g>
<g>
</g>
<g>
</g>
<g>
</g>
<g>
</g>
<g>
</g>
<g>
</g>
</svg>
