<?xml version="1.0" encoding="iso-8859-1"?>
<!-- Generator: Adobe Illustrator 16.0.4, SVG Export Plug-In . SVG Version: 6.00 Build 0)  -->
<!DOCTYPE svg PUBLIC "-//W3C//DTD SVG 1.1//EN" "http://www.w3.org/Graphics/SVG/1.1/DTD/svg11.dtd">
<svg version="1.1" id="Layer_1" xmlns="http://www.w3.org/2000/svg" xmlns:xlink="http://www.w3.org/1999/xlink" x="0px" y="0px"
	 width="44.021px" height="44.006px" viewBox="0 0 44.021 44.006" style="enable-background:new 0 0 44.021 44.006;"
	 xml:space="preserve">
<g id="_x31_184-cow_x40_2x.png">
	<g>
		<path d="M18.01,32.006c-1.104,0-2,0.896-2,2v4c0,1.104,0.896,2,2,2s2-0.896,2-2v-4C20.01,32.901,19.115,32.006,18.01,32.006z
			 M26.01,14.006c-1.104,0-2,0.896-2,2s0.896,2,2,2s2-0.896,2-2S27.115,14.006,26.01,14.006z M44.021,0.8V0h-0.794
			c-5.67,0-9.707,1.828-11.557,5.056c-0.264-1.388-0.588-2.874-0.923-3.873c-0.264-0.784-0.708-1.177-1.389-1.177
			c-1.131,0-2.914,0.895-5.596,3.058c-0.594-0.067-1.186-0.104-1.77-0.104c-0.583,0-1.175,0.036-1.769,0.104
			c-2.682-2.162-4.465-3.058-5.596-3.058c-0.681,0-1.125,0.393-1.389,1.177c-0.333,0.989-0.653,2.456-0.917,3.832
			C10.46,1.814,6.438,0,0.793,0H0v0.8c0,7.28,1.703,11.742,5.151,13.618c-1.346,2.835-2.152,6.009-2.152,9.158
			c0,11.283,3.166,20.43,18.993,20.43c15.828,0,18.993-9.146,18.993-20.43c0-3.144-0.803-6.312-2.145-9.144
			C42.307,12.566,44.021,8.1,44.021,0.8z M2.039,2.066c3.076,0.172,7.274,1.069,8.826,4.517l-0.228,0.658
			c-1.749,1.42-3.314,3.293-4.567,5.439C4.442,11.792,2.264,9.389,2.039,2.066z M5.014,23.576c0-2.346,0.506-4.76,1.394-7.016
			c1.003,1.394,1.603,3.097,1.603,4.945c0,2.5-1.086,4.74-2.805,6.294C5.081,26.459,5.014,25.06,5.014,23.576z M21.992,42.006
			c-8.516,0-12.924-2.704-15.091-7.275c2.158-2.748,8.097-4.725,15.11-4.725c6.99,0,12.911,1.965,15.086,4.698
			C34.934,39.291,30.525,42.006,21.992,42.006z M37.865,32.769c-3.031-2.831-8.982-4.763-15.854-4.763
			c-6.893,0-12.859,1.943-15.882,4.788c-0.267-0.848-0.46-1.761-0.623-2.703c2.713-1.897,4.504-5.022,4.504-8.585
			c0-2.686-1.023-5.12-2.683-6.976c1.451-2.788,3.493-5.183,5.858-6.67c0.479-0.301,0.809-0.789,0.907-1.345
			c0.338-1.917,0.667-3.42,0.956-4.382c0.556,0.233,1.691,0.697,3.905,2.482c0.361,0.29,0.81,0.447,1.27,0.447
			c0.076,0,0.151-0.005,0.227-0.013c0.535-0.061,1.054-0.091,1.542-0.091c0.489,0,1.008,0.03,1.542,0.091
			c0.076,0.008,0.151,0.013,0.227,0.013c0.46,0,0.909-0.157,1.27-0.448c2.214-1.785,3.35-2.248,3.905-2.482
			c0.289,0.963,0.617,2.466,0.955,4.383c0.098,0.556,0.427,1.044,0.907,1.345c1.3,0.817,2.496,1.915,3.556,3.194
			c-0.842,1.462-1.344,3.143-1.344,4.951c0,4.066,2.441,7.54,5.925,9.103C38.858,27.952,38.562,30.54,37.865,32.769z M38.946,22.878
			c-2.351-1.393-3.936-3.941-3.936-6.872c0-1.122,0.244-2.184,0.663-3.151C37.583,15.804,38.801,19.39,38.946,22.878z
			 M37.922,12.696C36.68,10.564,35.13,8.7,33.397,7.282l-0.242-0.699c1.552-3.447,5.75-4.345,8.826-4.517
			C41.756,9.429,39.554,11.819,37.922,12.696z M26.01,32.006c-1.104,0-2,0.896-2,2v4c0,1.104,0.896,2,2,2s2-0.896,2-2v-4
			C28.01,32.901,27.115,32.006,26.01,32.006z M18.01,14.006c-1.104,0-2,0.896-2,2s0.896,2,2,2s2-0.896,2-2
			S19.115,14.006,18.01,14.006z"/>
	</g>
</g>
<g>
</g>
<g>
</g>
<g>
</g>
<g>
</g>
<g>
</g>
<g>
</g>
<g>
</g>
<g>
</g>
<g>
</g>
<g>
</g>
<g>
</g>
<g>
</g>
<g>
</g>
<g>
</g>
<g>
</g>
</svg>
