<?xml version="1.0" encoding="UTF-8" standalone="no"?>
<svg width="58px" height="58px" viewBox="0 0 58 58" version="1.1" xmlns="http://www.w3.org/2000/svg" xmlns:xlink="http://www.w3.org/1999/xlink" xmlns:sketch="http://www.bohemiancoding.com/sketch/ns">
    <!-- Generator: Sketch 3.0.4 (8053) - http://www.bohemiancoding.com/sketch -->
    <title>1184-cow</title>
    <desc>Created with Sketch.</desc>
    <defs></defs>
    <g id="Page-1" stroke="none" stroke-width="1" fill="none" fill-rule="evenodd" sketch:type="MSPage">
        <g id="Glyphish-8-Icons" sketch:type="MSArtboardGroup" transform="translate(-308.000000, -787.000000)" fill="#000000">
            <g id="1184-cow" sketch:type="MSLayerGroup" transform="translate(308.036996, 787.860499)">
                <g id="_x31_184-cow_x40_2x.png" sketch:type="MSShapeGroup">
                    <path d="M56,1.002 L56,0 L55,0 C47.673,0 42.519,2.411 40.271,6.646 C39.93,4.82 39.503,2.822 39.062,1.499 C38.729,0.5 38.166,0.002 37.307,0.002 C35.877,0.002 33.625,1.379 30.236,4.131 C29.484,4.045 28.738,3.998 28,3.998 C27.262,3.998 26.516,4.045 25.764,4.13 C22.375,1.379 20.122,0.001 18.693,0.001 C17.833,0 17.271,0.499 16.938,1.498 C16.497,2.821 16.07,4.819 15.729,6.645 C13.481,2.411 8.327,0 1,0 L0,0 L0,1.002 C0,10.327 2.218,16.001 6.76,18.259 C5.036,21.89 4,25.959 4,29.999 C4,44.359 8,56 28,56 C48,56 52,44.359 52,29.999 C52,25.957 50.962,21.885 49.237,18.252 C53.778,15.995 56,10.326 56,1.002 L56,1.002 Z M2.009,2.02 C8.599,2.234 12.885,4.597 14.374,8.632 C11.779,10.562 9.47,13.301 7.688,16.473 C4.022,14.635 2.154,9.882 2.009,2.02 L2.009,2.02 Z M6.381,36.66 C6.127,34.661 6,32.451 6,29.999 C6,26.707 6.762,23.178 8.175,19.889 C9.327,21.164 10.176,22.624 10.612,24.249 C11.703,28.323 10.179,32.913 6.535,36.526 C6.486,36.574 6.432,36.615 6.381,36.66 L6.381,36.66 Z M28,54 C19.367,54 13.513,51.772 10.104,47.19 C9.45,46.31 8.884,45.328 8.391,44.252 C13.156,40.44 20.146,38 28,38 C35.861,38 42.858,40.445 47.624,44.264 C44.921,50.044 39.319,54 28,54 L28,54 Z M48.398,42.342 C43.29,38.451 36.057,36 28,36 C19.955,36 12.731,38.443 7.625,42.325 C7.28,41.304 6.998,40.195 6.764,39.011 C7.177,38.664 7.59,38.318 7.965,37.946 C11.994,33.951 13.906,28.708 12.572,23.725 C11.971,21.48 10.743,19.544 9.106,17.936 C10.897,14.545 13.414,11.541 16.58,9.537 C17.056,9.236 17.383,8.748 17.48,8.193 C17.963,5.437 18.431,3.34 18.834,2.131 C18.848,2.089 18.861,2.052 18.874,2.021 C19.435,2.129 20.9,2.758 24.502,5.683 C24.86,5.974 25.306,6.13 25.763,6.13 C25.838,6.13 25.913,6.126 25.989,6.117 C26.686,6.038 27.363,5.998 27.999,5.998 C28.635,5.998 29.312,6.038 30.01,6.117 C30.085,6.126 30.16,6.13 30.235,6.13 C30.692,6.13 31.137,5.974 31.496,5.683 C35.099,2.758 36.564,2.129 37.124,2.021 C37.137,2.052 37.15,2.088 37.164,2.131 C37.567,3.341 38.036,5.437 38.519,8.193 C38.616,8.748 38.943,9.236 39.419,9.538 C41.09,10.596 42.584,11.932 43.886,13.455 C41.559,18.041 41.284,23.094 43.683,27.226 C45.117,29.696 47.314,31.514 49.948,32.643 C49.822,36.085 49.409,39.397 48.398,42.342 L48.398,42.342 Z M50,29.999 C50,30.131 49.997,30.261 49.996,30.392 C48.058,29.405 46.454,28.016 45.416,26.229 C43.667,23.215 43.524,19.486 45.014,15.728 C45.082,15.556 45.165,15.39 45.241,15.221 C48.313,19.599 50,25.068 50,29.999 L50,29.999 Z M48.312,16.473 C46.53,13.301 44.222,10.562 41.626,8.632 C43.115,4.597 47.401,2.234 53.991,2.02 C53.846,9.882 51.978,14.635 48.312,16.473 L48.312,16.473 Z M22,42 C20.896,42 20,42.896 20,44 L20,48 C20,49.104 20.896,50 22,50 C23.104,50 24,49.104 24,48 L24,44 C24,42.896 23.104,42 22,42 L22,42 Z M21,18 C19.343,18 18,19.343 18,21 C18,22.657 19.343,24 21,24 C22.657,24 24,22.657 24,21 C24,19.343 22.657,18 21,18 L21,18 Z M34,50 C35.104,50 36,49.104 36,48 L36,44 C36,42.896 35.104,42 34,42 C32.896,42 32,42.896 32,44 L32,48 C32,49.104 32.896,50 34,50 L34,50 Z M35,18 C33.343,18 32,19.343 32,21 C32,22.657 33.343,24 35,24 C36.657,24 38,22.657 38,21 C38,19.343 36.657,18 35,18 L35,18 Z" id="Shape"></path>
                </g>
            </g>
        </g>
    </g>
</svg>