<?xml version="1.0" encoding="iso-8859-1"?>
<!-- Generator: Adobe Illustrator 16.0.4, SVG Export Plug-In . SVG Version: 6.00 Build 0)  -->
<!DOCTYPE svg PUBLIC "-//W3C//DTD SVG 1.1//EN" "http://www.w3.org/Graphics/SVG/1.1/DTD/svg11.dtd">
<svg version="1.1" id="Layer_1" xmlns="http://www.w3.org/2000/svg" xmlns:xlink="http://www.w3.org/1999/xlink" x="0px" y="0px"
	 width="44.015px" height="40.029px" viewBox="0 0 44.015 40.029" style="enable-background:new 0 0 44.015 40.029;"
	 xml:space="preserve">
<g id="_x31_047-credit-cards-toolbar_x40_2x.png">
	<g>
		<path d="M9.713,20.145l3.452-1.994l2.657-4.626l-1.736-0.992L9.713,20.145z M18.766,8.402l-1.74-0.985l-1.943,3.382l1.736,0.992
			L18.766,8.402z M22.449,10.533l-1.74-0.985L17.06,15.9l3.452-1.994L22.449,10.533z M2.568,25.827
			c-0.542-0.312-0.729-1.008-0.416-1.549L14.681,2.566c0.101-0.175,0.239-0.313,0.412-0.413c0.355-0.206,0.78-0.205,1.136,0
			L28.44,9.208c0.032,0.019,0.051,0.05,0.081,0.071L30.32,8.24c-0.238-0.299-0.529-0.562-0.88-0.765L17.229,0.422
			C16.224-0.16,15.03-0.12,14.093,0.421c-0.461,0.267-0.86,0.653-1.145,1.147L0.42,23.278c-0.864,1.499-0.351,3.416,1.147,4.281
			l9.441,5.454L9.01,29.549L2.568,25.827z M26.351,25.234l1.008,1.728l8.652-5.02l-1.014-1.725L26.351,25.234z M18.622,29.718
			l1.014,1.725l5.993-3.477l-1.008-1.728L18.622,29.718z M43.595,22.789l-7.049-12.215c-0.58-1.006-1.633-1.568-2.716-1.568
			c-0.532,0-1.071,0.136-1.564,0.421L10.561,21.965c-1.498,0.865-2.012,2.782-1.146,4.281l7.049,12.216
			c0.58,1.006,1.634,1.567,2.717,1.567c0.531,0,1.07-0.135,1.563-0.42l21.705-12.538C43.946,26.206,44.46,24.288,43.595,22.789z
			 M41.448,25.34L19.743,37.877c-0.175,0.102-0.365,0.152-0.563,0.152c-0.412,0-0.779-0.212-0.984-0.567l-7.049-12.216
			c-0.313-0.541-0.127-1.236,0.414-1.549l21.706-12.539c0.175-0.102,0.364-0.152,0.563-0.152c0.411,0,0.778,0.213,0.983,0.568
			l7.049,12.215C42.176,24.331,41.989,25.026,41.448,25.34z M33.886,18.255l-1.014-1.724l-3.374,1.957l1.008,1.728L33.886,18.255z
			 M27.769,19.491l-11.271,6.54l1.014,1.724l11.266-6.536L27.769,19.491z"/>
	</g>
</g>
<g>
</g>
<g>
</g>
<g>
</g>
<g>
</g>
<g>
</g>
<g>
</g>
<g>
</g>
<g>
</g>
<g>
</g>
<g>
</g>
<g>
</g>
<g>
</g>
<g>
</g>
<g>
</g>
<g>
</g>
</svg>
