<?xml version="1.0" encoding="iso-8859-1"?>
<!-- Generator: Adobe Illustrator 16.0.4, SVG Export Plug-In . SVG Version: 6.00 Build 0)  -->
<!DOCTYPE svg PUBLIC "-//W3C//DTD SVG 1.1//EN" "http://www.w3.org/Graphics/SVG/1.1/DTD/svg11.dtd">
<svg version="1.1" id="Layer_1" xmlns="http://www.w3.org/2000/svg" xmlns:xlink="http://www.w3.org/1999/xlink" x="0px" y="0px"
	 width="56px" height="38px" viewBox="0 0 56 38" style="enable-background:new 0 0 56 38;" xml:space="preserve">
<g id="_x37_52-credit-card_x40_2x.png">
	<g>
		<path d="M50,26h-6v6h6V26z M52,0H4C1.791,0,0,1.791,0,4v30c0,2.209,1.791,4,4,4h48c2.209,0,4-1.791,4-4V4C56,1.791,54.209,0,52,0z
			 M54,34c0,1.104-0.896,2-2,2H4c-1.104,0-2-0.896-2-2V14h52V34z M54,6H2V4c0-1.104,0.896-2,2-2h48c1.104,0,2,0.896,2,2V6z M7,28h18
			c0.553,0,1-0.447,1-1c0-0.552-0.447-1-1-1H7c-0.553,0-1,0.448-1,1C6,27.553,6.447,28,7,28z M7,32h10c0.553,0,1-0.447,1-1
			s-0.447-1-1-1H7c-0.553,0-1,0.447-1,1S6.447,32,7,32z"/>
	</g>
</g>
<g>
</g>
<g>
</g>
<g>
</g>
<g>
</g>
<g>
</g>
<g>
</g>
<g>
</g>
<g>
</g>
<g>
</g>
<g>
</g>
<g>
</g>
<g>
</g>
<g>
</g>
<g>
</g>
<g>
</g>
</svg>
