<?xml version="1.0" encoding="iso-8859-1"?>
<!-- Generator: Adobe Illustrator 16.0.4, SVG Export Plug-In . SVG Version: 6.00 Build 0)  -->
<!DOCTYPE svg PUBLIC "-//W3C//DTD SVG 1.1//EN" "http://www.w3.org/Graphics/SVG/1.1/DTD/svg11.dtd">
<svg version="1.1" id="Layer_1" xmlns="http://www.w3.org/2000/svg" xmlns:xlink="http://www.w3.org/1999/xlink" x="0px" y="0px"
	 width="56.015px" height="51.973px" viewBox="0 0 56.015 51.973" style="enable-background:new 0 0 56.015 51.973;"
	 xml:space="preserve">
<g id="_x31_047-credit-cards_x40_2x.png">
	<g>
		<path d="M26.929,12.547l-1.753-1.009l-6.749,11.653l3.513-2.031L26.929,12.547z M11.318,27.391
			c0.204-0.156,0.399-0.321,0.628-0.453l2.964-1.713l4.983-8.602l-1.753-1.008L11.318,27.391z M23.424,10.53l-1.753-1.009
			l-2.017,3.482l1.752,1.008L23.424,10.53z M3.036,33.618c-0.968-0.557-1.301-1.788-0.743-2.749L18.431,3.016
			c0.558-0.962,1.793-1.29,2.762-0.732l15.772,9.074c0.307,0.176,0.541,0.424,0.712,0.706l1.739-1.006
			c-0.344-0.575-0.819-1.083-1.442-1.441L22.2,0.542c-1.936-1.113-4.408-0.458-5.522,1.465L0.54,29.861
			c-1.114,1.922-0.448,4.384,1.487,5.498l11.625,6.688l-2.002-3.473L3.036,33.618z M55.475,29.764l-9.057-15.736
			c-1.111-1.931-3.573-2.593-5.498-1.478L13.032,28.701c-1.925,1.115-2.585,3.584-1.473,5.516l9.057,15.736
			c1.111,1.931,3.573,2.593,5.498,1.478l27.887-16.151C55.927,34.164,56.586,31.695,55.475,29.764z M52.995,33.531L25.108,49.683
			c-0.963,0.558-2.194,0.227-2.75-0.739l-9.057-15.736c-0.556-0.965-0.226-2.2,0.737-2.758l27.887-16.151
			c0.963-0.558,2.193-0.227,2.749,0.739l9.057,15.736C54.287,31.738,53.958,32.974,52.995,33.531z M42.465,23.311l-1.006-1.748
			l-3.486,2.019l1.007,1.749L42.465,23.311z M22.557,37.173l1.006,1.748l8.715-5.047l-1.007-1.749L22.557,37.173z M33.014,31.116
			l1.007,1.748l10.457-6.057l-1.006-1.748L33.014,31.116z M35.358,25.096l-14.814,8.58l1.006,1.748l14.815-8.58L35.358,25.096z"/>
	</g>
</g>
<g>
</g>
<g>
</g>
<g>
</g>
<g>
</g>
<g>
</g>
<g>
</g>
<g>
</g>
<g>
</g>
<g>
</g>
<g>
</g>
<g>
</g>
<g>
</g>
<g>
</g>
<g>
</g>
<g>
</g>
</svg>
