<?xml version="1.0" encoding="iso-8859-1"?>
<!-- Generator: Adobe Illustrator 16.0.4, SVG Export Plug-In . SVG Version: 6.00 Build 0)  -->
<!DOCTYPE svg PUBLIC "-//W3C//DTD SVG 1.1//EN" "http://www.w3.org/Graphics/SVG/1.1/DTD/svg11.dtd">
<svg version="1.1" id="Layer_1" xmlns="http://www.w3.org/2000/svg" xmlns:xlink="http://www.w3.org/1999/xlink" x="0px" y="0px"
	 width="44px" height="32px" viewBox="0 0 44 32" style="enable-background:new 0 0 44 32;" xml:space="preserve">
<g id="_x37_52-credit-card-toolbar_x40_2x.png">
	<g>
		<path d="M7,22h14c0.553,0,1-0.447,1-1c0-0.552-0.447-1-1-1H7c-0.553,0-1,0.448-1,1C6,21.553,6.447,22,7,22z M38,20h-6v6h6V20z
			 M40,0H4C1.791,0,0,1.791,0,4v24c0,2.21,1.791,4,4,4h36c2.209,0,4-1.79,4-4V4C44,1.791,42.209,0,40,0z M42,28c0,1.104-0.896,2-2,2
			H4c-1.104,0-2-0.896-2-2V12h40V28z M42,6H2V4c0-1.104,0.896-2,2-2h36c1.104,0,2,0.896,2,2V6z M7,26h6c0.553,0,1-0.447,1-1
			s-0.447-1-1-1H7c-0.553,0-1,0.447-1,1S6.447,26,7,26z"/>
	</g>
</g>
<g>
</g>
<g>
</g>
<g>
</g>
<g>
</g>
<g>
</g>
<g>
</g>
<g>
</g>
<g>
</g>
<g>
</g>
<g>
</g>
<g>
</g>
<g>
</g>
<g>
</g>
<g>
</g>
<g>
</g>
</svg>
