<?xml version="1.0" encoding="iso-8859-1"?>
<!-- Generator: Adobe Illustrator 16.0.4, SVG Export Plug-In . SVG Version: 6.00 Build 0)  -->
<!DOCTYPE svg PUBLIC "-//W3C//DTD SVG 1.1//EN" "http://www.w3.org/Graphics/SVG/1.1/DTD/svg11.dtd">
<svg version="1.1" id="Layer_1" xmlns="http://www.w3.org/2000/svg" xmlns:xlink="http://www.w3.org/1999/xlink" x="0px" y="0px"
	 width="44.014px" height="28px" viewBox="0 0 44.014 28" style="enable-background:new 0 0 44.014 28;" xml:space="preserve">
<g id="_x31_046-crown-toolbar_x40_2x.png">
	<g>
		<path d="M12.494,16.986c-0.825,0-1.494,0.676-1.494,1.509s0.669,1.509,1.494,1.509c0.824,0,1.493-0.676,1.493-1.509
			S13.318,16.986,12.494,16.986z M18.498,16.986c-0.825,0-1.494,0.676-1.494,1.509s0.669,1.509,1.494,1.509s1.493-0.676,1.493-1.509
			S19.323,16.986,18.498,16.986z M31.507,16.986c-0.825,0-1.494,0.676-1.494,1.509s0.669,1.509,1.494,1.509
			c0.824,0,1.493-0.676,1.493-1.509S32.331,16.986,31.507,16.986z M40.007,0C37.794,0,36,1.79,36,3.998
			c0,0.342,0.056,0.667,0.137,0.983l-6.952,8.215l-3.66-7.321c0.302-0.562,0.489-1.194,0.489-1.877C26.014,1.79,24.22,0,22.007,0
			S18,1.79,18,3.998c0,0.665,0.178,1.282,0.466,1.834l-3.682,7.364L7.865,5.02c0.087-0.328,0.148-0.666,0.148-1.021
			C8.014,1.79,6.22,0,4.007,0S0,1.79,0,3.998C0,5.51,0.851,6.811,2.092,7.489l3.693,14.772C4.734,22.729,4,23.776,4,25
			c0,1.657,1.343,3,3,3h30c1.657,0,3-1.343,3-3c0-1.234-0.746-2.293-1.812-2.753L41.87,7.518c1.27-0.671,2.144-1.986,2.144-3.52
			C44.014,1.79,42.22,0,40.007,0z M22.006,1.994c1.104,0,1.998,0.897,1.998,2.004c0,1.107-0.895,2.005-1.998,2.005
			s-1.998-0.897-1.998-2.005C20.008,2.892,20.902,1.994,22.006,1.994z M2.008,3.998c0-1.106,0.895-2.004,1.998-2.004
			s1.998,0.897,1.998,2.004c0,1.107-0.895,2.005-1.998,2.005S2.008,5.105,2.008,3.998z M37,26H7c-0.553,0-1-0.447-1-1s0.447-1,1-1
			h30c0.553,0,1,0.447,1,1S37.553,26,37,26z M36.189,21.996H7.779L4.273,7.97c0.979-0.065,1.865-0.468,2.527-1.112l7.436,8.789
			l0.003-0.003c0.185,0.209,0.447,0.348,0.749,0.348c0.393,0,0.724-0.229,0.889-0.553l0.018,0.009l4.025-8.051
			c0.609,0.374,1.319,0.6,2.087,0.6c0.753,0,1.45-0.22,2.052-0.58l4.016,8.031l0.041-0.021c0.163,0.331,0.499,0.564,0.896,0.564
			c0.373,0,0.686-0.21,0.858-0.509l7.316-8.646c0.654,0.647,1.535,1.054,2.51,1.129L36.189,21.996z M40.006,6.003
			c-1.104,0-1.998-0.897-1.998-2.005c0-1.106,0.895-2.004,1.998-2.004s1.998,0.897,1.998,2.004
			C42.004,5.105,41.109,6.003,40.006,6.003z M25.502,16.986c-0.824,0-1.493,0.676-1.493,1.509s0.669,1.509,1.493,1.509
			c0.825,0,1.494-0.676,1.494-1.509S26.327,16.986,25.502,16.986z"/>
	</g>
</g>
<g>
</g>
<g>
</g>
<g>
</g>
<g>
</g>
<g>
</g>
<g>
</g>
<g>
</g>
<g>
</g>
<g>
</g>
<g>
</g>
<g>
</g>
<g>
</g>
<g>
</g>
<g>
</g>
<g>
</g>
</svg>
