<?xml version="1.0" encoding="iso-8859-1"?>
<!-- Generator: Adobe Illustrator 16.0.4, SVG Export Plug-In . SVG Version: 6.00 Build 0)  -->
<!DOCTYPE svg PUBLIC "-//W3C//DTD SVG 1.1//EN" "http://www.w3.org/Graphics/SVG/1.1/DTD/svg11.dtd">
<svg version="1.1" id="Layer_1" xmlns="http://www.w3.org/2000/svg" xmlns:xlink="http://www.w3.org/1999/xlink" x="0px" y="0px"
	 width="56px" height="36px" viewBox="0 0 56 36" style="enable-background:new 0 0 56 36;" xml:space="preserve">
<g id="_x31_046-crown_x40_2x.png">
	<g>
		<path d="M51,0c-2.762,0-5,2.238-5,5c0,0.571,0.116,1.111,0.292,1.622l-9.071,10.584l-4.882-9.765C32.747,6.717,33,5.892,33,5
			c0-2.762-2.238-5-5-5s-5,2.238-5,5c0,0.892,0.253,1.717,0.661,2.441l-4.882,9.765L9.708,6.622C9.884,6.111,10,5.571,10,5
			c0-2.762-2.238-5-5-5S0,2.238,0,5c0,2.098,1.295,3.888,3.127,4.63l4.748,18.993C6.752,29.331,6,30.574,6,32c0,2.209,1.791,4,4,4
			h36c2.209,0,4-1.791,4-4c0-1.426-0.752-2.669-1.875-3.377L52.873,9.63C54.705,8.888,56,7.098,56,5C56,2.238,53.762,0,51,0z M28,2
			c1.657,0,3,1.344,3,3c0,1.657-1.343,3-3,3s-3-1.343-3-3C25,3.344,26.343,2,28,2z M2,5c0-1.656,1.343-3,3-3s3,1.344,3,3
			c0,1.657-1.343,3-3,3S2,6.657,2,5z M46,34H10c-1.104,0-2-0.896-2-2s0.896-2,2-2h36c1.104,0,2,0.896,2,2S47.104,34,46,34z
			 M46.22,28H9.781L5.273,9.973c1.318-0.073,2.498-0.644,3.35-1.543l9.618,11.221l0.009-0.007C18.434,19.857,18.696,20,19,20
			c0.391,0,0.721-0.23,0.886-0.558l0.009,0.005l5.197-10.395C25.912,9.644,26.912,10,28,10s2.088-0.356,2.908-0.947l5.197,10.395
			l0.009-0.005C36.279,19.77,36.609,20,37,20c0.304,0,0.566-0.143,0.75-0.356l0.01,0.007L47.377,8.43
			c0.852,0.899,2.031,1.47,3.35,1.543L46.22,28z M51,8c-1.657,0-3-1.343-3-3c0-1.656,1.343-3,3-3s3,1.344,3,3
			C54,6.657,52.657,8,51,8z M32,22c-1.104,0-2,0.896-2,2s0.896,2,2,2s2-0.896,2-2S33.104,22,32,22z M16,22c-1.104,0-2,0.896-2,2
			s0.896,2,2,2s2-0.896,2-2S17.104,22,16,22z M40,22c-1.104,0-2,0.896-2,2s0.896,2,2,2s2-0.896,2-2S41.104,22,40,22z M24,22
			c-1.104,0-2,0.896-2,2s0.896,2,2,2s2-0.896,2-2S25.104,22,24,22z"/>
	</g>
</g>
<g>
</g>
<g>
</g>
<g>
</g>
<g>
</g>
<g>
</g>
<g>
</g>
<g>
</g>
<g>
</g>
<g>
</g>
<g>
</g>
<g>
</g>
<g>
</g>
<g>
</g>
<g>
</g>
<g>
</g>
</svg>
