<?xml version="1.0" encoding="iso-8859-1"?>
<!-- Generator: Adobe Illustrator 16.0.4, SVG Export Plug-In . SVG Version: 6.00 Build 0)  -->
<!DOCTYPE svg PUBLIC "-//W3C//DTD SVG 1.1//EN" "http://www.w3.org/Graphics/SVG/1.1/DTD/svg11.dtd">
<svg version="1.1" id="Layer_1" xmlns="http://www.w3.org/2000/svg" xmlns:xlink="http://www.w3.org/1999/xlink" x="0px" y="0px"
	 width="43.999px" height="40.045px" viewBox="0 0 43.999 40.045" style="enable-background:new 0 0 43.999 40.045;"
	 xml:space="preserve">
<g id="_x31_033-dance-steps-toolbar_x40_2x.png">
	<g>
		<path d="M6.975,4.97c0.19,0,0.383-0.055,0.553-0.167L7.939,4.53c0.462-0.304,0.59-0.924,0.287-1.386
			c-0.303-0.46-0.923-0.588-1.386-0.286l-0.42,0.278c-0.46,0.306-0.586,0.926-0.28,1.386C6.334,4.812,6.651,4.97,6.975,4.97z
			 M23.012,9.846c-0.108,0.555,0.246,1.095,0.791,1.206c0.002,0,0.004-0.001,0.007,0l6.801,2.914l0.002-0.006
			c0.062,0.027,0.121,0.062,0.191,0.075c0.546,0.109,1.076-0.246,1.185-0.793c0.013-0.062-0.001-0.123-0.001-0.186h0.021
			l-0.009-8.001h-0.01c0.005-0.476-0.31-0.905-0.794-1.002c-0.311-0.062-0.605,0.036-0.832,0.222l-6.826,4.876
			C23.278,9.29,23.074,9.529,23.012,9.846z M29.987,7.002l0.005,4.523l-3.961-1.697L29.987,7.002z M24.173,5.568
			c0.196,0.262,0.495,0.399,0.799,0.399c0.208,0,0.418-0.064,0.598-0.198c0.442-0.328,0.533-0.955,0.205-1.398
			c0,0-0.127-0.172-0.375-0.449c-0.369-0.411-1.001-0.446-1.412-0.076c-0.411,0.369-0.445,1.002-0.076,1.412
			C24.072,5.438,24.162,5.555,24.173,5.568z M21.056,3.021c0.276,0.147,0.536,0.304,0.779,0.463
			c0.169,0.109,0.358,0.162,0.546,0.162c0.326,0,0.646-0.16,0.838-0.453c0.302-0.463,0.172-1.082-0.29-1.385
			c-0.29-0.188-0.601-0.375-0.93-0.551c-0.489-0.261-1.094-0.077-1.354,0.41C20.385,2.155,20.568,2.761,21.056,3.021z
			 M42.152,15.381c-1.413-1.412-2.718-2.006-3.991-2.006c-2.308,0-4.513,1.949-7.072,4.509c-5.233,5.234-8.047,10.906-8.047,10.906
			l5.717,5.717c0,0,4.957-3.528,10.651-8.142C45.941,21.074,44.174,17.402,42.152,15.381z M38.151,24.811
			c-3.819,3.095-7.334,5.718-9.186,7.075l-3.448-3.448c1.097-1.891,3.485-5.639,6.985-9.14c1.985-1.985,4.058-3.923,5.658-3.923
			c0.778,0,1.621,0.465,2.577,1.42c0.894,0.894,1.305,1.77,1.257,2.679C41.916,20.992,40.587,22.838,38.151,24.811z M18.542,2.119
			c0.064,0.013,0.129,0.019,0.191,0.019c0.47,0,0.888-0.332,0.98-0.81c0.105-0.542-0.248-1.067-0.791-1.172
			c-0.351-0.068-0.715-0.12-1.09-0.151c-0.557-0.053-1.034,0.363-1.08,0.913c-0.046,0.551,0.362,1.034,0.913,1.08
			C17.968,2.023,18.26,2.064,18.542,2.119z M21.072,30.774c-3.408,3.408-5.094,5.095-2.239,7.95
			c0.925,0.924,1.793,1.307,2.639,1.307c1.764,0,3.43-1.665,5.311-3.547l0.566-0.566l-5.71-5.71L21.072,30.774z M24.517,35.914
			c-1.143,1.113-2.298,2.117-3.045,2.117c-0.333,0-0.745-0.242-1.225-0.721c-1.024-1.025-0.89-1.357-0.791-1.599
			c0.271-0.663,1.119-1.591,2.185-2.673L24.517,35.914z M14.694,0.05c-0.362,0.028-0.708,0.064-1.039,0.107
			c-0.548,0.071-0.934,0.573-0.862,1.121c0.065,0.504,0.495,0.87,0.99,0.87c0.043,0,0.087-0.002,0.131-0.008
			c0.298-0.039,0.609-0.071,0.936-0.097c0.551-0.043,0.963-0.523,0.92-1.074C15.726,0.419,15.237,0.005,14.694,0.05z M5.989,7.05
			C0.43,7.05,0,11.026,0,16.643c0.001,7.402,2,13.402,2,13.402h8.001c0,0,1-6,1.756-13.289C12.625,8.396,8.819,7.05,5.989,7.05z
			 M9.768,16.549c-0.507,4.887-1.131,9.226-1.477,11.496H3.504C2.948,25.936,2,21.612,2,16.643C2,10.046,2.898,9.05,5.989,9.05
			c1.233,0,2.124,0.322,2.722,0.985C9.728,11.162,10.093,13.415,9.768,16.549z M2.011,32.84c0,4.82,0,7.205,3.995,7.205
			c3.996,0,3.996-3.27,3.996-7.205v-0.801H2.011V32.84z M7.99,34.039c-0.075,3.821-0.57,4.006-1.984,4.006
			c-1.689,0-1.958,0-1.991-4.006H7.99z M10.547,0.896c-0.339,0.125-0.668,0.262-0.991,0.411C9.054,1.539,8.835,2.134,9.066,2.635
			C9.235,3,9.597,3.216,9.975,3.216c0.141,0,0.283-0.029,0.419-0.093c0.275-0.127,0.555-0.243,0.843-0.349
			c0.519-0.19,0.784-0.765,0.595-1.283C11.64,0.973,11.065,0.71,10.547,0.896z"/>
	</g>
</g>
<g>
</g>
<g>
</g>
<g>
</g>
<g>
</g>
<g>
</g>
<g>
</g>
<g>
</g>
<g>
</g>
<g>
</g>
<g>
</g>
<g>
</g>
<g>
</g>
<g>
</g>
<g>
</g>
<g>
</g>
</svg>
