<?xml version="1.0" encoding="iso-8859-1"?>
<!-- Generator: Adobe Illustrator 16.0.4, SVG Export Plug-In . SVG Version: 6.00 Build 0)  -->
<!DOCTYPE svg PUBLIC "-//W3C//DTD SVG 1.1//EN" "http://www.w3.org/Graphics/SVG/1.1/DTD/svg11.dtd">
<svg version="1.1" id="Layer_1" xmlns="http://www.w3.org/2000/svg" xmlns:xlink="http://www.w3.org/1999/xlink" x="0px" y="0px"
	 width="55.956px" height="51.992px" viewBox="0 0 55.956 51.992" style="enable-background:new 0 0 55.956 51.992;"
	 xml:space="preserve">
<g id="_x31_033-dance-steps_x40_2x.png">
	<g>
		<path d="M2,42.992c0,6.021,0,9,5,9c4.999,0,4.999-4.084,4.999-9v-1H2V42.992z M9.996,43.992c-0.038,4.958-0.434,6-2.996,6
			c-2.616,0-2.969-0.179-2.998-6H9.996z M28.612,12.877c-0.095,0.475,0.175,0.921,0.604,1.101l-0.008,0.018l9.417,3.915l0.006-0.015
			c0.061,0.025,0.115,0.059,0.183,0.072c0.542,0.108,1.068-0.244,1.176-0.785c0.014-0.067,0-0.131,0-0.196h0.02L40.002,6.788h-0.02
			c-0.002-0.466-0.311-0.886-0.785-0.979c-0.271-0.055-0.538,0.007-0.751,0.148l-9.408,6.283
			C28.825,12.383,28.667,12.605,28.612,12.877z M38.003,8.658l0.006,6.83l-6.307-2.622L38.003,8.658z M6.991,7.984
			c0.256,0,0.512-0.098,0.707-0.293C8.15,7.239,8.624,6.806,9.107,6.402c0.424-0.354,0.48-0.984,0.126-1.408
			C8.88,4.569,8.249,4.513,7.825,4.867c-0.528,0.441-1.047,0.916-1.541,1.41c-0.391,0.391-0.391,1.023,0,1.414
			C6.479,7.887,6.735,7.984,6.991,7.984z M28.258,4.629c0.537,0.328,1.077,0.687,1.604,1.065c0.177,0.127,0.381,0.188,0.583,0.188
			c0.312,0,0.618-0.145,0.813-0.416c0.322-0.448,0.22-1.073-0.229-1.396c-0.568-0.409-1.15-0.796-1.73-1.149
			c-0.471-0.288-1.087-0.14-1.374,0.333C27.638,3.726,27.787,4.342,28.258,4.629z M53.733,21.053
			c-2.333-2.333-7.04-4.566-13.341,3.83c-4.186,5.578-10.147,12.535-10.204,12.605l-0.56,0.699l6.854,6.854l0.682-0.455
			c0.35-0.232,8.759-5.846,13.021-10.109C55.155,29.508,58.317,25.637,53.733,21.053z M48.775,33.065
			c-3.434,3.435-9.955,7.974-12.039,9.4l-4.432-4.431c1.536-1.93,6.255-7.386,9.685-11.956c5.57-7.421,8.854-5.088,10.33-3.612
			C54.966,25.113,54.824,27.017,48.775,33.065z M24.842,2.939c0.116,0.044,0.236,0.064,0.354,0.064c0.404,0,0.784-0.246,0.936-0.646
			c0.195-0.517-0.064-1.094-0.581-1.289c-0.678-0.256-1.357-0.47-2.021-0.635c-0.535-0.13-1.079,0.192-1.212,0.729
			c-0.133,0.536,0.193,1.078,0.729,1.212C23.634,2.521,24.238,2.711,24.842,2.939z M27.434,40.234
			c-3.477,3.477-6.364,6.364-2.836,9.892c3.527,3.528,5.634,1.422,9.892-2.836l0.707-0.707l-7.056-7.056L27.434,40.234z
			 M26.012,48.712c-1.809-1.809-1.351-2.823,2.128-6.356l4.229,4.229C28.232,50.68,27.857,50.558,26.012,48.712z M7,9.992
			c-6.498,0-7,4.974-7,12c0,6.029,1.937,16.784,2.019,17.196l0.161,0.804h9.715l0.099-0.89c0.01-0.09,0.76-10.064,1.746-16.969
			C15.225,11.742,10.307,9.992,7,9.992z M11.76,21.851c-0.809,5.657-1.375,13.691-1.654,16.142H3.826C3.36,35.51,2,26.849,2,21.992
			c0-8.555,1.248-10,5-10C9.091,11.992,13.071,12.664,11.76,21.851z M13.133,1.549c-0.631,0.278-1.261,0.595-1.874,0.94
			c-0.481,0.271-0.651,0.881-0.38,1.362c0.184,0.325,0.522,0.509,0.872,0.509c0.166,0,0.335-0.041,0.489-0.129
			c0.557-0.313,1.129-0.601,1.7-0.853c0.506-0.224,0.734-0.813,0.512-1.319C14.228,1.556,13.637,1.327,13.133,1.549z M19.269,0.004
			c-0.69,0.037-1.403,0.127-2.119,0.267c-0.542,0.105-0.896,0.63-0.79,1.173c0.093,0.478,0.511,0.809,0.98,0.809
			c0.062,0,0.127-0.006,0.191-0.019c0.627-0.122,1.248-0.2,1.847-0.233c0.552-0.03,0.974-0.501,0.943-1.053
			C20.291,0.395,19.805-0.05,19.269,0.004z"/>
	</g>
</g>
<g>
</g>
<g>
</g>
<g>
</g>
<g>
</g>
<g>
</g>
<g>
</g>
<g>
</g>
<g>
</g>
<g>
</g>
<g>
</g>
<g>
</g>
<g>
</g>
<g>
</g>
<g>
</g>
<g>
</g>
</svg>
