<?xml version="1.0" encoding="iso-8859-1"?>
<!-- Generator: Adobe Illustrator 16.0.4, SVG Export Plug-In . SVG Version: 6.00 Build 0)  -->
<!DOCTYPE svg PUBLIC "-//W3C//DTD SVG 1.1//EN" "http://www.w3.org/Graphics/SVG/1.1/DTD/svg11.dtd">
<svg version="1.1" id="Layer_1" xmlns="http://www.w3.org/2000/svg" xmlns:xlink="http://www.w3.org/1999/xlink" x="0px" y="0px"
	 width="44px" height="56px" viewBox="0 0 44 56" style="enable-background:new 0 0 44 56;" xml:space="preserve">
<g id="_x31_052-database_x40_2x.png">
	<g>
		<path d="M22,14c12.15,0,22-3.134,22-7s-9.85-7-22-7S0,3.134,0,7S9.85,14,22,14z M22,2c10.839,0,19.625,2.238,19.625,5
			S32.839,12,22,12S2.375,9.762,2.375,7S11.161,2,22,2z M41.685,12.141C41.879,12.421,42,12.706,42,13c0,2.762-8.954,5-20,5
			S2,15.762,2,13c0-0.294,0.122-0.579,0.315-0.859c-0.565-0.304-1.083-0.62-1.546-0.95C0.283,11.769,0,12.373,0,13v8
			c0,3.866,9.85,7,22,7s22-3.134,22-7v-8c0-0.627-0.283-1.231-0.77-1.81C42.768,11.521,42.25,11.837,41.685,12.141z M42,21
			c0,2.762-8.954,5-20,5S2,23.762,2,21v-5.096C5.47,18.318,13.109,20,22,20s16.53-1.682,20-4.096V21z M41.685,26.141
			C41.879,26.421,42,26.707,42,27c0,2.762-8.954,5-20,5S2,29.762,2,27c0-0.293,0.122-0.579,0.315-0.859
			c-0.565-0.304-1.083-0.62-1.546-0.95C0.283,25.769,0,26.373,0,27v8c0,3.866,9.85,7,22,7s22-3.134,22-7v-8
			c0-0.627-0.283-1.231-0.77-1.81C42.768,25.521,42.25,25.837,41.685,26.141z M42,35c0,2.762-8.954,5-20,5S2,37.762,2,35v-5.096
			C5.47,32.318,13.109,34,22,34s16.53-1.682,20-4.096V35z M41.685,40.141C41.879,40.421,42,40.706,42,41c0,2.762-8.954,5-20,5
			S2,43.762,2,41c0-0.294,0.121-0.579,0.315-0.859c-0.565-0.304-1.083-0.62-1.546-0.95C0.283,39.769,0,40.373,0,41v8
			c0,3.866,9.85,7,22,7s22-3.134,22-7v-8c0-0.627-0.283-1.231-0.77-1.81C42.768,39.521,42.25,39.837,41.685,40.141z M42,49
			c0,2.762-8.954,5-20,5S2,51.762,2,49v-5.096C5.47,46.318,13.109,48,22,48s16.53-1.682,20-4.096V49z"/>
	</g>
</g>
<g>
</g>
<g>
</g>
<g>
</g>
<g>
</g>
<g>
</g>
<g>
</g>
<g>
</g>
<g>
</g>
<g>
</g>
<g>
</g>
<g>
</g>
<g>
</g>
<g>
</g>
<g>
</g>
<g>
</g>
</svg>
