<?xml version="1.0" encoding="iso-8859-1"?>
<!-- Generator: Adobe Illustrator 16.0.4, SVG Export Plug-In . SVG Version: 6.00 Build 0)  -->
<!DOCTYPE svg PUBLIC "-//W3C//DTD SVG 1.1//EN" "http://www.w3.org/Graphics/SVG/1.1/DTD/svg11.dtd">
<svg version="1.1" id="Layer_1" xmlns="http://www.w3.org/2000/svg" xmlns:xlink="http://www.w3.org/1999/xlink" x="0px" y="0px"
	 width="36.021px" height="44px" viewBox="0 0 36.021 44" style="enable-background:new 0 0 36.021 44;" xml:space="preserve">
<g id="_x31_052-database-toolbar_x40_2x.png">
	<g>
		<path d="M18.011,11c9.947,0,18.011-2.463,18.011-5.5S27.958,0,18.011,0S0,2.463,0,5.5S8.063,11,18.011,11z M18.011,2.008
			c8.84,0,16.006,1.563,16.006,3.492s-7.166,3.492-16.006,3.492S2.006,7.429,2.006,5.5S9.171,2.008,18.011,2.008z M36.021,10
			c0-0.351-0.109-0.692-0.282-1.027c-0.501,0.358-1.083,0.696-1.726,1.017c0,0.004,0.002,0.007,0.002,0.011h-0.005v0.026
			c-0.058,2.192-7.196,3.965-16,3.965s-15.942-1.772-16-3.965V10H2.006c0-0.004,0.002-0.007,0.002-0.011
			c-0.643-0.32-1.225-0.658-1.726-1.017C0.109,9.308,0,9.649,0,10c0,0.024,0.01,0.047,0.011,0.071v5.87C0.01,15.961,0,15.98,0,16
			c0,3.313,8.063,6,18.011,6s18.011-2.687,18.011-6c0-0.02-0.01-0.039-0.011-0.059v-5.87C36.012,10.048,36.021,10.024,36.021,10z
			 M18.011,19.991c-8.84,0-16.005-1.787-16.005-3.991h0.005v-0.026v-2.721v-0.506c0.728,0.47,1.639,0.9,2.696,1.287
			c0.056,0.021,0.109,0.041,0.165,0.061c1.04,0.37,2.215,0.696,3.506,0.969c0.116,0.025,0.235,0.048,0.354,0.072
			c0.556,0.111,1.128,0.214,1.72,0.305c0.107,0.017,0.212,0.035,0.321,0.052c0.68,0.1,1.381,0.186,2.102,0.257
			c0.14,0.014,0.283,0.023,0.424,0.036c0.589,0.054,1.188,0.097,1.8,0.13c0.204,0.011,0.407,0.022,0.613,0.03
			c0.755,0.033,1.519,0.055,2.3,0.055s1.545-0.021,2.3-0.055c0.207-0.008,0.409-0.02,0.613-0.03c0.611-0.033,1.211-0.076,1.8-0.13
			c0.141-0.013,0.284-0.022,0.424-0.036c0.721-0.071,1.422-0.157,2.102-0.257c0.109-0.017,0.214-0.035,0.321-0.052
			c0.592-0.091,1.164-0.193,1.72-0.305c0.118-0.024,0.237-0.047,0.354-0.072c1.291-0.272,2.466-0.599,3.506-0.969
			c0.056-0.02,0.109-0.04,0.165-0.061c1.058-0.387,1.969-0.817,2.696-1.287v0.506v2.721V16h0.005h0.001
			C34.017,18.204,26.851,19.991,18.011,19.991z M36.021,21c0-0.351-0.109-0.692-0.282-1.027c-0.501,0.358-1.083,0.696-1.726,1.017
			c0,0.004,0.002,0.007,0.002,0.011h-0.005v0.026c-0.058,2.192-7.196,3.965-16,3.965s-15.942-1.772-16-3.965V21H2.006
			c0-0.004,0.002-0.007,0.002-0.011c-0.643-0.32-1.225-0.658-1.726-1.017C0.109,20.308,0,20.649,0,21
			c0,0.024,0.01,0.047,0.011,0.071v5.87C0.01,26.962,0,26.98,0,27c0,3.313,8.063,6,18.011,6s18.011-2.687,18.011-6
			c0-0.02-0.01-0.039-0.011-0.059v-5.87C36.012,21.048,36.021,21.024,36.021,21z M18.011,30.991c-8.84,0-16.005-1.787-16.005-3.991
			h0.005v-0.026v-2.721v-0.506c0.728,0.47,1.639,0.9,2.696,1.287c0.056,0.021,0.109,0.041,0.165,0.061
			c1.04,0.37,2.215,0.696,3.506,0.969c0.116,0.025,0.235,0.048,0.354,0.072c0.556,0.111,1.128,0.213,1.72,0.305
			c0.107,0.017,0.212,0.036,0.321,0.052c0.68,0.1,1.381,0.186,2.102,0.257c0.14,0.014,0.283,0.023,0.424,0.036
			c0.589,0.054,1.188,0.097,1.8,0.13c0.204,0.011,0.407,0.022,0.613,0.03c0.755,0.032,1.519,0.055,2.3,0.055s1.545-0.022,2.3-0.055
			c0.207-0.008,0.409-0.02,0.613-0.03c0.611-0.033,1.211-0.076,1.8-0.13c0.141-0.013,0.284-0.022,0.424-0.036
			c0.721-0.071,1.422-0.157,2.102-0.257c0.109-0.016,0.214-0.035,0.321-0.052c0.592-0.092,1.164-0.193,1.72-0.305
			c0.118-0.024,0.237-0.047,0.354-0.072c1.291-0.272,2.466-0.599,3.506-0.969c0.056-0.02,0.109-0.04,0.165-0.061
			c1.058-0.387,1.969-0.817,2.696-1.287v0.506v2.721V27h0.005h0.001C34.017,29.204,26.851,30.991,18.011,30.991z M36.021,32
			c0-0.351-0.109-0.693-0.282-1.027c-0.501,0.358-1.083,0.696-1.726,1.017c0,0.004,0.002,0.007,0.002,0.011h-0.005v0.026
			c-0.058,2.192-7.196,3.965-16,3.965s-15.942-1.772-16-3.965V32H2.006c0-0.004,0.002-0.007,0.002-0.011
			c-0.643-0.32-1.225-0.658-1.726-1.017C0.109,31.307,0,31.649,0,32c0,0.024,0.01,0.047,0.011,0.071v5.87C0.01,37.961,0,37.98,0,38
			c0,3.313,8.063,6,18.011,6s18.011-2.687,18.011-6c0-0.02-0.01-0.039-0.011-0.059v-5.87C36.012,32.047,36.021,32.024,36.021,32z
			 M18.011,41.991c-8.84,0-16.005-1.787-16.005-3.991h0.005v-0.026v-2.721v-0.506c0.728,0.47,1.639,0.9,2.696,1.287
			c0.056,0.021,0.109,0.041,0.165,0.061c1.04,0.37,2.215,0.696,3.506,0.969c0.116,0.025,0.235,0.048,0.354,0.072
			c0.556,0.111,1.128,0.213,1.72,0.305c0.107,0.017,0.212,0.035,0.321,0.052c0.68,0.1,1.381,0.186,2.102,0.257
			c0.14,0.014,0.283,0.023,0.424,0.036c0.589,0.054,1.188,0.097,1.8,0.13c0.204,0.011,0.407,0.022,0.613,0.03
			c0.755,0.033,1.519,0.055,2.3,0.055s1.545-0.021,2.3-0.055c0.207-0.008,0.409-0.02,0.613-0.03c0.611-0.033,1.211-0.076,1.8-0.13
			c0.141-0.013,0.284-0.022,0.424-0.036c0.721-0.071,1.422-0.157,2.102-0.257c0.109-0.017,0.214-0.035,0.321-0.052
			c0.592-0.092,1.164-0.193,1.72-0.305c0.118-0.024,0.237-0.047,0.354-0.072c1.291-0.272,2.466-0.599,3.506-0.969
			c0.056-0.02,0.109-0.04,0.165-0.061c1.058-0.387,1.969-0.817,2.696-1.287v0.506v2.721V38h0.005h0.001
			C34.017,40.204,26.851,41.991,18.011,41.991z"/>
	</g>
</g>
<g>
</g>
<g>
</g>
<g>
</g>
<g>
</g>
<g>
</g>
<g>
</g>
<g>
</g>
<g>
</g>
<g>
</g>
<g>
</g>
<g>
</g>
<g>
</g>
<g>
</g>
<g>
</g>
<g>
</g>
</svg>
