<?xml version="1.0" encoding="iso-8859-1"?>
<!-- Generator: Adobe Illustrator 16.0.4, SVG Export Plug-In . SVG Version: 6.00 Build 0)  -->
<!DOCTYPE svg PUBLIC "-//W3C//DTD SVG 1.1//EN" "http://www.w3.org/Graphics/SVG/1.1/DTD/svg11.dtd">
<svg version="1.1" id="Layer_1" xmlns="http://www.w3.org/2000/svg" xmlns:xlink="http://www.w3.org/1999/xlink" x="0px" y="0px"
	 width="44px" height="40px" viewBox="0 0 44 40" style="enable-background:new 0 0 44 40;" xml:space="preserve">
<g id="_x31_008-desktop-toolbar_x40_2x.png">
	<g>
		<path d="M40,0H4C1.791,0,0,1.791,0,4v26c0,2.209,1.791,4,4,4h14v4h-2c-0.553,0-1,0.447-1,1s0.447,1,1,1h12c0.553,0,1-0.447,1-1
			s-0.447-1-1-1h-2v-4h14c2.209,0,4-1.791,4-4V4C44,1.791,42.209,0,40,0z M24,38h-4v-4h4V38z M42,30c0,1.104-0.896,2-2,2H4
			c-1.104,0-2-0.896-2-2v-2h40V30z M42,26H2V4c0-1.104,0.896-2,2-2h36c1.104,0,2,0.896,2,2V26z"/>
	</g>
</g>
<g>
</g>
<g>
</g>
<g>
</g>
<g>
</g>
<g>
</g>
<g>
</g>
<g>
</g>
<g>
</g>
<g>
</g>
<g>
</g>
<g>
</g>
<g>
</g>
<g>
</g>
<g>
</g>
<g>
</g>
</svg>
