<?xml version="1.0" encoding="iso-8859-1"?>
<!-- Generator: Adobe Illustrator 16.0.4, SVG Export Plug-In . SVG Version: 6.00 Build 0)  -->
<!DOCTYPE svg PUBLIC "-//W3C//DTD SVG 1.1//EN" "http://www.w3.org/Graphics/SVG/1.1/DTD/svg11.dtd">
<svg version="1.1" id="Layer_1" xmlns="http://www.w3.org/2000/svg" xmlns:xlink="http://www.w3.org/1999/xlink" x="0px" y="0px"
	 width="56px" height="52px" viewBox="0 0 56 52" style="enable-background:new 0 0 56 52;" xml:space="preserve">
<g id="_x31_008-desktop_x40_2x.png">
	<g>
		<path d="M52,0H4C1.791,0,0,1.791,0,4v36c0,2.209,1.791,4,4,4h20v6h-4c-0.553,0-1,0.447-1,1s0.447,1,1,1h16c0.553,0,1-0.447,1-1
			s-0.447-1-1-1h-4v-6h20c2.209,0,4-1.791,4-4V4C56,1.791,54.209,0,52,0z M30,50h-4v-6h4V50z M54,40c0,1.104-0.896,2-2,2H4
			c-1.104,0-2-0.896-2-2v-4h52V40z M54,34H2V4c0-1.104,0.896-2,2-2h48c1.104,0,2,0.896,2,2V34z"/>
	</g>
</g>
<g>
</g>
<g>
</g>
<g>
</g>
<g>
</g>
<g>
</g>
<g>
</g>
<g>
</g>
<g>
</g>
<g>
</g>
<g>
</g>
<g>
</g>
<g>
</g>
<g>
</g>
<g>
</g>
<g>
</g>
</svg>
