<?xml version="1.0" encoding="iso-8859-1"?>
<!-- Generator: Adobe Illustrator 16.0.4, SVG Export Plug-In . SVG Version: 6.00 Build 0)  -->
<!DOCTYPE svg PUBLIC "-//W3C//DTD SVG 1.1//EN" "http://www.w3.org/Graphics/SVG/1.1/DTD/svg11.dtd">
<svg version="1.1" id="Layer_1" xmlns="http://www.w3.org/2000/svg" xmlns:xlink="http://www.w3.org/1999/xlink" x="0px" y="0px"
	 width="44px" height="44px" viewBox="0 0 44 44" style="enable-background:new 0 0 44 44;" xml:space="preserve">
<g id="_x31_294-deviantart_x40_2x.png">
	<g>
		<path d="M22,0C9.85,0,0,9.85,0,22s9.85,22,22,22s22-9.85,22-22S34.15,0,22,0z M22,42C10.954,42,2,33.046,2,22S10.954,2,22,2
			s20,8.954,20,20S33.046,42,22,42z M21.991,15.57c-0.35,0-0.654,0.042-0.987,0.059v-3.617c-1.5,0-3,0.65-3,0.65v3.353
			c-9.551,2.178-10,11.987-10,11.987h13.001v-2.413h-0.001v-7.938c0.325-0.022,0.639-0.055,0.987-0.055
			c8.896,0,9.991,8.029,9.991,8.029l-6.001-0.037v-5.23c-1.656-0.916-3-0.764-3-0.764v8.407h13.032
			C36.012,28.002,35.622,15.57,21.991,15.57z M18.004,25.602l-6.003,0.024c0,0,0.579-5.51,6.003-7.396V25.602z"/>
	</g>
</g>
<g>
</g>
<g>
</g>
<g>
</g>
<g>
</g>
<g>
</g>
<g>
</g>
<g>
</g>
<g>
</g>
<g>
</g>
<g>
</g>
<g>
</g>
<g>
</g>
<g>
</g>
<g>
</g>
<g>
</g>
</svg>
