<?xml version="1.0" encoding="UTF-8" standalone="no"?>
<svg width="58px" height="58px" viewBox="0 0 58 58" version="1.1" xmlns="http://www.w3.org/2000/svg" xmlns:xlink="http://www.w3.org/1999/xlink" xmlns:sketch="http://www.bohemiancoding.com/sketch/ns">
    <!-- Generator: Sketch 3.0.4 (8053) - http://www.bohemiancoding.com/sketch -->
    <title>1294-deviantart</title>
    <desc>Created with Sketch.</desc>
    <defs></defs>
    <g id="Page-1" stroke="none" stroke-width="1" fill="none" fill-rule="evenodd" sketch:type="MSPage">
        <g id="Glyphish-8-Icons" sketch:type="MSArtboardGroup" transform="translate(-308.000000, -1843.000000)" fill="#000000">
            <g id="1294-deviantart" sketch:type="MSLayerGroup" transform="translate(308.036996, 1843.860499)">
                <g id="_x31_294-deviantart_x40_2x.png" sketch:type="MSShapeGroup">
                    <path d="M28,0 C12.536,0 0,12.536 0,28 C0,43.464 12.536,56 28,56 C43.464,56 56,43.464 56,28 C56,12.536 43.464,0 28,0 L28,0 Z M28,54 C13.641,54 2,42.359 2,28 C2,13.641 13.641,2 28,2 C42.359,2 54,13.641 54,28 C54,42.359 42.359,54 28,54 L28,54 Z M27.969,20.453 C27.533,20.453 27.115,20.47 26.7,20.489 L26.7,16.004 C24.772,16.004 22.844,16.816 22.844,16.816 L22.844,20.987 C10.547,23.701 9.989,35.997 9.989,35.997 L26.702,35.997 L26.702,32.979 L26.7,32.979 L26.7,23.054 C27.117,23.027 27.521,22.986 27.969,22.986 C39.404,22.986 40.812,33.026 40.812,33.026 L33.097,32.979 L33.097,26.439 C30.968,25.293 29.24,25.485 29.24,25.485 L29.24,35.997 L45.993,35.997 C45.993,35.997 45.491,20.453 27.969,20.453 L27.969,20.453 Z M22.844,32.995 L15.126,33.026 C15.126,33.026 15.871,26.136 22.844,23.779 L22.844,32.995 L22.844,32.995 Z" id="Shape"></path>
                </g>
            </g>
        </g>
    </g>
</svg>