<?xml version="1.0" encoding="iso-8859-1"?>
<!-- Generator: Adobe Illustrator 16.0.4, SVG Export Plug-In . SVG Version: 6.00 Build 0)  -->
<!DOCTYPE svg PUBLIC "-//W3C//DTD SVG 1.1//EN" "http://www.w3.org/Graphics/SVG/1.1/DTD/svg11.dtd">
<svg version="1.1" id="Layer_1" xmlns="http://www.w3.org/2000/svg" xmlns:xlink="http://www.w3.org/1999/xlink" x="0px" y="0px"
	 width="56px" height="56px" viewBox="0 0 56 56" style="enable-background:new 0 0 56 56;" xml:space="preserve">
<g id="_x38_33-diamond_x40_2x.png">
	<g>
		<path d="M56,17c0-0.195-0.07-0.366-0.167-0.521l0.015-0.01l-10-15.999l-0.015,0.009C45.656,0.198,45.357,0,45,0H11
			c-0.357,0-0.656,0.198-0.833,0.479l-0.015-0.009l-10,15.999l0.015,0.01C0.07,16.634,0,16.805,0,17
			c0,0.217,0.083,0.405,0.199,0.569l-0.015,0.01l27,38.001l0.015-0.011C27.381,55.823,27.664,56,28,56s0.619-0.177,0.801-0.431
			l0.015,0.011l27-38.001l-0.015-0.01C55.917,17.405,56,17.217,56,17z M29.415,2l7.875,14H18.71l7.875-14H29.415z M11.555,2H24.29
			l-7.875,14H2.804L11.555,2z M2.938,18h13.311L25.4,49.614L2.938,18z M28,51.404L18.33,18h19.34L28,51.404z M30.6,49.614L39.752,18
			h13.311L30.6,49.614z M39.585,16L31.71,2h12.735l8.751,14H39.585z"/>
	</g>
</g>
<g>
</g>
<g>
</g>
<g>
</g>
<g>
</g>
<g>
</g>
<g>
</g>
<g>
</g>
<g>
</g>
<g>
</g>
<g>
</g>
<g>
</g>
<g>
</g>
<g>
</g>
<g>
</g>
<g>
</g>
</svg>
