<?xml version="1.0" encoding="iso-8859-1"?>
<!-- Generator: Adobe Illustrator 16.0.4, SVG Export Plug-In . SVG Version: 6.00 Build 0)  -->
<!DOCTYPE svg PUBLIC "-//W3C//DTD SVG 1.1//EN" "http://www.w3.org/Graphics/SVG/1.1/DTD/svg11.dtd">
<svg version="1.1" id="Layer_1" xmlns="http://www.w3.org/2000/svg" xmlns:xlink="http://www.w3.org/1999/xlink" x="0px" y="0px"
	 width="44px" height="44px" viewBox="0 0 44 44" style="enable-background:new 0 0 44 44;" xml:space="preserve">
<g id="_x38_33-diamond-toolbar_x40_2x.png">
	<g>
		<path d="M44,13c0-0.195-0.07-0.366-0.167-0.521l0.015-0.009l-0.112-0.136c-0.016-0.017-0.027-0.036-0.043-0.052L33.848,0.471
			l-0.015,0.009C33.656,0.198,33.357,0,33,0H11c-0.357,0-0.656,0.198-0.833,0.479l-0.015-0.009L0.308,12.283
			c-0.016,0.016-0.027,0.034-0.042,0.051l-0.113,0.137l0.015,0.009C0.07,12.634,0,12.805,0,13c0,0.217,0.083,0.405,0.199,0.569
			L0.185,13.58l21,30l0.015-0.011C21.381,43.823,21.664,44,22,44s0.619-0.177,0.801-0.431l0.015,0.011l21-30l-0.015-0.011
			C43.917,13.405,44,13.217,44,13z M32.543,2l8.334,10h-7.388l-7.5-10H32.543z M23.511,2l7.5,10H12.989l7.5-10H23.511z M11.457,2
			h6.554l-7.5,10H3.123L11.457,2z M2.921,14h7.383l8.122,22.15L2.921,14z M22,40.103L12.43,14H31.57L22,40.103z M25.574,36.151
			L33.696,14h7.383L25.574,36.151z"/>
	</g>
</g>
<g>
</g>
<g>
</g>
<g>
</g>
<g>
</g>
<g>
</g>
<g>
</g>
<g>
</g>
<g>
</g>
<g>
</g>
<g>
</g>
<g>
</g>
<g>
</g>
<g>
</g>
<g>
</g>
<g>
</g>
</svg>
