<?xml version="1.0" encoding="iso-8859-1"?>
<!-- Generator: Adobe Illustrator 16.0.4, SVG Export Plug-In . SVG Version: 6.00 Build 0)  -->
<!DOCTYPE svg PUBLIC "-//W3C//DTD SVG 1.1//EN" "http://www.w3.org/Graphics/SVG/1.1/DTD/svg11.dtd">
<svg version="1.1" id="Layer_1" xmlns="http://www.w3.org/2000/svg" xmlns:xlink="http://www.w3.org/1999/xlink" x="0px" y="0px"
	 width="44.006px" height="43.988px" viewBox="0 0 44.006 43.988" style="enable-background:new 0 0 44.006 43.988;"
	 xml:space="preserve">
<g id="_x38_38-dice-toolbar_x40_2x.png">
	<g>
		<path d="M30.697,29.721c-0.806,0.245-1.26,1.097-1.015,1.901c0.244,0.806,1.096,1.26,1.9,1.015
			c0.806-0.244,1.26-1.096,1.015-1.901C32.354,29.931,31.502,29.477,30.697,29.721z M26.582,35.472
			c-0.806,0.245-1.26,1.096-1.015,1.901c0.245,0.805,1.096,1.259,1.901,1.015c0.805-0.245,1.26-1.097,1.015-1.901
			S27.387,35.227,26.582,35.472z M25.833,28.522c0.806-0.245,1.26-1.097,1.015-1.901s-1.096-1.26-1.901-1.015
			c-0.805,0.245-1.26,1.096-1.015,1.901C24.177,28.312,25.027,28.767,25.833,28.522z M36.447,33.836
			c-0.805,0.245-1.26,1.096-1.015,1.901s1.096,1.259,1.901,1.015c0.805-0.245,1.26-1.096,1.015-1.901
			C38.104,34.046,37.252,33.591,36.447,33.836z M12.573,27.117c-0.137,0.831,0.427,1.614,1.257,1.751
			c0.83,0.136,1.614-0.427,1.75-1.257c0.137-0.83-0.426-1.614-1.256-1.751C13.493,25.725,12.71,26.287,12.573,27.117z
			 M43.979,38.111l-2.283-17.334c-0.21-1.601-1.577-2.766-3.15-2.766c-0.138,0-0.277,0.01-0.418,0.028l-7.355,0.968L26.955,5.269
			C27.597,4.718,28.012,3.912,28.012,3c0-1.656-1.343-3-3-3s-3,1.344-3,3c0,0.551,0.159,1.061,0.418,1.504l-6.094,10.663
			l-7.731-2.073c-0.277-0.074-0.557-0.109-0.832-0.109c-1.416,0-2.712,0.945-3.096,2.379L0.11,32.409
			c-0.458,1.712,0.557,3.472,2.269,3.931l15.848,4.246l-0.283-2.146L2.896,34.408c-0.644-0.173-1.026-0.838-0.854-1.481L6.609,15.88
			c0.141-0.527,0.619-0.896,1.163-0.896c0.104,0,0.21,0.014,0.314,0.042l12.396,3.322c0.014-0.002,0.025-0.008,0.039-0.01
			l5.13-0.675c-0.003-0.001-0.004-0.002-0.007-0.002l-7.311-1.96l5.653-9.894C24.309,5.926,24.65,6,25.012,6
			c0.025,0,0.049-0.007,0.073-0.007l3.688,13.277l-7.99,1.052c-1.741,0.229-2.967,1.826-2.738,3.567l2.283,17.333
			c0.211,1.602,1.577,2.766,3.149,2.766c0.139,0,0.278-0.01,0.42-0.027l17.343-2.283C42.982,41.449,44.208,39.852,43.979,38.111z
			 M25.012,4c-0.553,0-1-0.447-1-1c0-0.552,0.447-1,1-1s1,0.448,1,1C26.012,3.553,25.564,4,25.012,4z M41.762,39.244
			c-0.191,0.25-0.47,0.41-0.782,0.451l-17.343,2.281c-0.054,0.009-0.106,0.012-0.159,0.012c-0.588,0-1.089-0.44-1.166-1.026
			l-2.283-17.333c-0.085-0.645,0.371-1.239,1.016-1.324l17.343-2.282c0.054-0.007,0.106-0.011,0.158-0.011
			c0.589,0,1.091,0.441,1.168,1.026l2.282,17.334C42.037,38.685,41.954,38.994,41.762,39.244z M35.698,26.887
			c0.806-0.245,1.26-1.097,1.015-1.901s-1.096-1.26-1.901-1.015c-0.805,0.245-1.259,1.096-1.015,1.901
			C34.042,26.678,34.894,27.131,35.698,26.887z"/>
	</g>
</g>
<g>
</g>
<g>
</g>
<g>
</g>
<g>
</g>
<g>
</g>
<g>
</g>
<g>
</g>
<g>
</g>
<g>
</g>
<g>
</g>
<g>
</g>
<g>
</g>
<g>
</g>
<g>
</g>
<g>
</g>
</svg>
