<?xml version="1.0" encoding="iso-8859-1"?>
<!-- Generator: Adobe Illustrator 16.0.4, SVG Export Plug-In . SVG Version: 6.00 Build 0)  -->
<!DOCTYPE svg PUBLIC "-//W3C//DTD SVG 1.1//EN" "http://www.w3.org/Graphics/SVG/1.1/DTD/svg11.dtd">
<svg version="1.1" id="Layer_1" xmlns="http://www.w3.org/2000/svg" xmlns:xlink="http://www.w3.org/1999/xlink" x="0px" y="0px"
	 width="55.815px" height="55.842px" viewBox="0 0 55.815 55.842" style="enable-background:new 0 0 55.815 55.842;"
	 xml:space="preserve">
<g id="_x38_38-dice_x40_2x.png">
	<g>
		<path d="M45.03,35.743c1.644-0.217,2.8-1.724,2.583-3.366c-0.216-1.643-1.723-2.799-3.366-2.583
			c-1.643,0.216-2.799,1.724-2.582,3.366C41.881,34.803,43.388,35.959,45.03,35.743z M44.509,31.776
			c0.547-0.071,1.05,0.313,1.122,0.861s-0.313,1.05-0.861,1.122s-1.05-0.313-1.122-0.861C43.575,32.352,43.961,31.849,44.509,31.776
			z M33.134,37.309c1.643-0.216,2.799-1.723,2.582-3.365c-0.216-1.643-1.723-2.8-3.365-2.583c-1.643,0.216-2.8,1.723-2.583,3.366
			C29.983,36.369,31.491,37.525,33.134,37.309z M31.75,34.465c-0.071-0.547,0.313-1.05,0.861-1.122s1.05,0.313,1.122,0.861
			s-0.313,1.05-0.861,1.122C32.325,35.398,31.822,35.013,31.75,34.465z M14.576,33.724c-0.429,1.601,0.521,3.245,2.121,3.675
			c1.601,0.429,3.245-0.521,3.674-2.122s-0.521-3.245-2.121-3.674S15.005,32.123,14.576,33.724z M18.439,34.759
			c-0.143,0.533-0.691,0.851-1.225,0.707c-0.533-0.143-0.85-0.69-0.707-1.225c0.143-0.533,0.691-0.85,1.225-0.707
			S18.583,34.226,18.439,34.759z M33.917,43.258c-1.644,0.216-2.8,1.723-2.583,3.365c0.216,1.644,1.723,2.8,3.366,2.583
			c1.643-0.216,2.799-1.723,2.582-3.366C37.066,44.198,35.56,43.041,33.917,43.258z M34.438,47.224
			c-0.547,0.072-1.05-0.313-1.122-0.861c-0.071-0.548,0.313-1.05,0.861-1.122s1.05,0.313,1.122,0.861S34.986,47.151,34.438,47.224z
			 M55.781,48.448l-2.872-21.812c-0.288-2.19-2.297-3.732-4.487-3.444l-10.718,1.411L33.711,5.438
			C34.473,4.894,34.974,4.008,34.974,3c0-1.656-1.343-3-3-3s-3,1.344-3,3c0,0.543,0.153,1.046,0.406,1.483l-8.859,15.304
			l-9.79-2.623c-2.134-0.572-4.327,0.694-4.898,2.828L0.138,41.243c-0.571,2.134,0.694,4.327,2.828,4.899l20.976,5.62l-0.282-2.146
			L3.483,44.21c-1.066-0.286-1.699-1.382-1.414-2.449l5.694-21.25c0.286-1.067,1.383-1.7,2.449-1.415l17.792,4.768l4.858-0.64
			c-0.275-0.15-0.565-0.28-0.882-0.365l-9.46-2.535l8.414-14.534c0.269,0.099,0.548,0.173,0.846,0.191l3.935,18.885l-9.105,1.199
			c-2.19,0.288-3.732,2.298-3.444,4.488l2.872,21.812c0.288,2.189,2.297,3.731,4.487,3.443l21.812-2.871
			C54.527,52.647,56.069,50.639,55.781,48.448z M31.974,4c-0.553,0-1-0.447-1-1c0-0.552,0.447-1,1-1s1,0.448,1,1
			C32.974,3.553,32.526,4,31.974,4z M52.076,50.953l-21.812,2.872c-1.095,0.144-2.1-0.627-2.244-1.723l-2.871-21.812
			c-0.145-1.096,0.626-2.1,1.722-2.244l21.812-2.871c1.096-0.145,2.1,0.627,2.244,1.722l2.871,21.812
			C53.942,49.805,53.172,50.809,52.076,50.953z M45.813,41.691c-1.643,0.216-2.799,1.723-2.582,3.365
			c0.216,1.644,1.723,2.8,3.365,2.583c1.643-0.216,2.8-1.723,2.583-3.365C48.964,42.631,47.456,41.476,45.813,41.691z
			 M46.336,45.657c-0.548,0.072-1.05-0.313-1.122-0.86c-0.072-0.548,0.313-1.051,0.861-1.123c0.547-0.071,1.05,0.313,1.122,0.861
			C47.269,45.083,46.884,45.585,46.336,45.657z M39.082,36.525c-1.643,0.217-2.799,1.724-2.583,3.366
			c0.217,1.643,1.724,2.8,3.366,2.583c1.643-0.216,2.799-1.724,2.583-3.366C42.231,37.466,40.725,36.31,39.082,36.525z
			 M39.604,40.492c-0.548,0.071-1.05-0.314-1.122-0.861c-0.072-0.548,0.313-1.05,0.86-1.122c0.548-0.072,1.05,0.313,1.122,0.86
			C40.537,39.917,40.151,40.42,39.604,40.492z"/>
	</g>
</g>
<g>
</g>
<g>
</g>
<g>
</g>
<g>
</g>
<g>
</g>
<g>
</g>
<g>
</g>
<g>
</g>
<g>
</g>
<g>
</g>
<g>
</g>
<g>
</g>
<g>
</g>
<g>
</g>
<g>
</g>
</svg>
