<?xml version="1.0" encoding="iso-8859-1"?>
<!-- Generator: Adobe Illustrator 16.0.4, SVG Export Plug-In . SVG Version: 6.00 Build 0)  -->
<!DOCTYPE svg PUBLIC "-//W3C//DTD SVG 1.1//EN" "http://www.w3.org/Graphics/SVG/1.1/DTD/svg11.dtd">
<svg version="1.1" id="Layer_1" xmlns="http://www.w3.org/2000/svg" xmlns:xlink="http://www.w3.org/1999/xlink" x="0px" y="0px"
	 width="40px" height="56px" viewBox="0 0 40 56" style="enable-background:new 0 0 40 56;" xml:space="preserve">
<g id="_x31_070-directors-chair_x40_2x.png">
	<g>
		<path d="M39,19h-1V1c0-0.553-0.447-1-1-1s-1,0.447-1,1v1H4V1c0-0.553-0.447-1-1-1S2,0.447,2,1v18H1c-0.553,0-1,0.447-1,1
			s0.447,1,1,1h1v6c0,0.553,0.447,1,1,1h7v3c0,0.276,0.112,0.526,0.293,0.707L18.586,40L4.293,54.293C4.112,54.474,4,54.724,4,55
			c0,0.553,0.447,1,1,1c0.276,0,0.526-0.112,0.707-0.293L9.414,52h21.172l3.707,3.707C34.474,55.888,34.724,56,35,56
			c0.553,0,1-0.447,1-1c0-0.276-0.112-0.526-0.293-0.707L21.414,40l8.293-8.293C29.888,31.526,30,31.276,30,31v-3h7
			c0.553,0,1-0.447,1-1v-6h1c0.553,0,1-0.447,1-1S39.553,19,39,19z M28.586,50H11.414L20,41.414L28.586,50z M28,30.586l-8,8l-8-8V28
			h16V30.586z M36,19h-1c-0.553,0-1,0.447-1,1s0.447,1,1,1h1v5H4v-5h1c0.553,0,1-0.447,1-1s-0.447-1-1-1H4v-3h32V19z M36,14H4V4h32
			V14z"/>
	</g>
</g>
<g>
</g>
<g>
</g>
<g>
</g>
<g>
</g>
<g>
</g>
<g>
</g>
<g>
</g>
<g>
</g>
<g>
</g>
<g>
</g>
<g>
</g>
<g>
</g>
<g>
</g>
<g>
</g>
<g>
</g>
</svg>
