<?xml version="1.0" encoding="iso-8859-1"?>
<!-- Generator: Adobe Illustrator 16.0.4, SVG Export Plug-In . SVG Version: 6.00 Build 0)  -->
<!DOCTYPE svg PUBLIC "-//W3C//DTD SVG 1.1//EN" "http://www.w3.org/Graphics/SVG/1.1/DTD/svg11.dtd">
<svg version="1.1" id="Layer_1" xmlns="http://www.w3.org/2000/svg" xmlns:xlink="http://www.w3.org/1999/xlink" x="0px" y="0px"
	 width="44px" height="40px" viewBox="0 0 44 40" style="enable-background:new 0 0 44 40;" xml:space="preserve">
<g id="_x31_096-direction-arrow-toolbar_x40_2x.png">
	<g>
		<path d="M43.707,12.293l-13-12C30.526,0.112,30.276,0,30,0c-0.553,0-1,0.447-1,1c0,0.276,0.112,0.526,0.293,0.707L40.443,12H14H6
			c-3.313,0-6,2.687-6,6v8v13c0,0.553,0.448,1,1,1c0.553,0,1-0.447,1-1V26v-8c0-2.209,1.791-4,4-4h8h26.586L29.293,25.293
			C29.112,25.474,29,25.724,29,26c0,0.553,0.447,1,1,1c0.276,0,0.526-0.111,0.707-0.293l13-13C43.888,13.526,44,13.276,44,13
			S43.888,12.474,43.707,12.293z"/>
	</g>
</g>
<g>
</g>
<g>
</g>
<g>
</g>
<g>
</g>
<g>
</g>
<g>
</g>
<g>
</g>
<g>
</g>
<g>
</g>
<g>
</g>
<g>
</g>
<g>
</g>
<g>
</g>
<g>
</g>
<g>
</g>
</svg>
