<?xml version="1.0" encoding="iso-8859-1"?>
<!-- Generator: Adobe Illustrator 16.0.4, SVG Export Plug-In . SVG Version: 6.00 Build 0)  -->
<!DOCTYPE svg PUBLIC "-//W3C//DTD SVG 1.1//EN" "http://www.w3.org/Graphics/SVG/1.1/DTD/svg11.dtd">
<svg version="1.1" id="Layer_1" xmlns="http://www.w3.org/2000/svg" xmlns:xlink="http://www.w3.org/1999/xlink" x="0px" y="0px"
	 width="56px" height="52px" viewBox="0 0 56 52" style="enable-background:new 0 0 56 52;" xml:space="preserve">
<g id="_x31_096-direction-arrow_x40_2x.png">
	<g>
		<path d="M55.707,16.293l-17-16C38.526,0.112,38.276,0,38,0c-0.553,0-1,0.447-1,1c0,0.276,0.112,0.526,0.293,0.707L52.479,16H10
			C4.478,16,0,20.478,0,26v25c0,0.553,0.447,1,1,1s1-0.447,1-1V26c0-4.418,3.582-8,8-8h42.586L37.293,33.293
			C37.112,33.474,37,33.724,37,34c0,0.553,0.447,1,1,1c0.276,0,0.526-0.112,0.707-0.293l17-17C55.888,17.526,56,17.276,56,17
			S55.888,16.474,55.707,16.293z"/>
	</g>
</g>
<g>
</g>
<g>
</g>
<g>
</g>
<g>
</g>
<g>
</g>
<g>
</g>
<g>
</g>
<g>
</g>
<g>
</g>
<g>
</g>
<g>
</g>
<g>
</g>
<g>
</g>
<g>
</g>
<g>
</g>
</svg>
