<?xml version="1.0" encoding="iso-8859-1"?>
<!-- Generator: Adobe Illustrator 16.0.4, SVG Export Plug-In . SVG Version: 6.00 Build 0)  -->
<!DOCTYPE svg PUBLIC "-//W3C//DTD SVG 1.1//EN" "http://www.w3.org/Graphics/SVG/1.1/DTD/svg11.dtd">
<svg version="1.1" id="Layer_1" xmlns="http://www.w3.org/2000/svg" xmlns:xlink="http://www.w3.org/1999/xlink" x="0px" y="0px"
	 width="32px" height="44px" viewBox="0 0 32 44" style="enable-background:new 0 0 32 44;" xml:space="preserve">
<g id="_x31_070-directors-chair-toolbar_x40_2x.png">
	<g>
		<path d="M31,16h-1V1c0-0.553-0.447-1-1-1s-1,0.447-1,1v1H4V1c0-0.553-0.447-1-1-1S2,0.447,2,1v15H1c-0.553,0-1,0.448-1,1
			c0,0.553,0.447,1,1,1h1v3c0,0.553,0.447,1,1,1h5v3c0,0.276,0.112,0.526,0.293,0.707l6.371,7.168l-8.371,9.418
			C6.112,42.474,6,42.724,6,43c0,0.553,0.447,1,1,1c0.276,0,0.526-0.111,0.707-0.293L11.002,40h9.996l3.295,3.707
			C24.474,43.889,24.724,44,25,44c0.553,0,1-0.447,1-1c0-0.276-0.112-0.526-0.293-0.707l-8.371-9.418l6.371-7.168
			C23.888,25.526,24,25.276,24,25v-3h5c0.553,0,1-0.447,1-1v-3h1c0.553,0,1-0.447,1-1C32,16.448,31.553,16,31,16z M19.22,38H12.78
			L16,34.378L19.22,38z M22,24.622l-6,6.75l-6-6.75V22h12V24.622z M28,16h-1c-0.553,0-1,0.448-1,1c0,0.553,0.447,1,1,1h1v2H4v-2h1
			c0.553,0,1-0.447,1-1c0-0.552-0.447-1-1-1H4v-2h24V16z M28,12H4V4h24V12z"/>
	</g>
</g>
<g>
</g>
<g>
</g>
<g>
</g>
<g>
</g>
<g>
</g>
<g>
</g>
<g>
</g>
<g>
</g>
<g>
</g>
<g>
</g>
<g>
</g>
<g>
</g>
<g>
</g>
<g>
</g>
<g>
</g>
</svg>
