<?xml version="1.0" encoding="UTF-8" standalone="no"?>
<svg width="50px" height="58px" viewBox="0 0 50 58" version="1.1" xmlns="http://www.w3.org/2000/svg" xmlns:xlink="http://www.w3.org/1999/xlink" xmlns:sketch="http://www.bohemiancoding.com/sketch/ns">
    <!-- Generator: Sketch 3.0.4 (8053) - http://www.bohemiancoding.com/sketch -->
    <title>1214-document-delete</title>
    <desc>Created with Sketch.</desc>
    <defs></defs>
    <g id="Page-1" stroke="none" stroke-width="1" fill="none" fill-rule="evenodd" sketch:type="MSPage">
        <g id="Glyphish-8-Icons" sketch:type="MSArtboardGroup" transform="translate(-312.000000, -1075.000000)" fill="#000000">
            <g id="1214-document-delete" sketch:type="MSLayerGroup" transform="translate(312.036996, 1075.860499)">
                <g id="_x31_214-document-delete_x40_2x.png" sketch:type="MSShapeGroup">
                    <path d="M2,46 L2,2 L22,2 L22,15 C22,15.553 22.448,16 23,16 L36,16 L36,32.051 C36.331,32.025 36.663,32 37,32 C37.338,32 37.669,32.025 38,32.051 L38,15 C38,14.724 37.888,14.474 37.707,14.293 L23.707,0.293 C23.526,0.112 23.277,0.001 23.001,0 L23.001,0 L2,0 C0.896,0 0,0.896 0,2 L0,46 C0,47.104 0.896,48 2,48 L24.362,48 C24.208,47.351 24.103,46.684 24.051,46 L2,46 L2,46 Z M24,3.415 L34.586,14 L24,14 L24,3.415 L24,3.415 Z M40.372,40.215 L37,43.586 L33.629,40.215 L32.214,41.629 L35.586,45 L32.214,48.371 L33.629,49.786 L37,46.414 L40.372,49.786 L41.786,48.371 L38.414,45 L41.786,41.629 L40.372,40.215 L40.372,40.215 Z M37,34 C30.925,34 26,38.925 26,45 C26,51.075 30.925,56 37,56 C43.075,56 48,51.075 48,45 C48,38.925 43.075,34 37,34 L37,34 Z M37,54 C32.029,54 28,49.971 28,45 C28,40.029 32.029,36 37,36 C41.971,36 46,40.029 46,45 C46,49.971 41.971,54 37,54 L37,54 Z" id="Shape"></path>
                </g>
            </g>
        </g>
    </g>
</svg>