<?xml version="1.0" encoding="iso-8859-1"?>
<!-- Generator: Adobe Illustrator 16.0.4, SVG Export Plug-In . SVG Version: 6.00 Build 0)  -->
<!DOCTYPE svg PUBLIC "-//W3C//DTD SVG 1.1//EN" "http://www.w3.org/Graphics/SVG/1.1/DTD/svg11.dtd">
<svg version="1.1" id="Layer_1" xmlns="http://www.w3.org/2000/svg" xmlns:xlink="http://www.w3.org/1999/xlink" x="0px" y="0px"
	 width="40px" height="44px" viewBox="0 0 40 44" style="enable-background:new 0 0 40 44;" xml:space="preserve">
<g id="_x31_212-document-minus_x40_2x.png">
	<g>
		<path d="M2,34V2h16v9c0,0.553,0.448,1,1,1h9v8.051C28.331,20.025,28.663,20,29,20s0.669,0.025,1,0.051V11
			c0-0.276-0.112-0.526-0.293-0.707l-10-10C19.526,0.112,19.277,0.001,19.001,0h0h0h0H2C0.896,0,0,0.896,0,2v32c0,1.104,0.896,2,2,2
			h14.362c-0.154-0.649-0.259-1.316-0.312-2H2z M20,3.415L26.586,10H20V3.415z M29,22c-6.075,0-11,4.925-11,11s4.925,11,11,11
			s11-4.925,11-11S35.075,22,29,22z M29,42c-4.971,0-9-4.029-9-9s4.029-9,9-9s9,4.029,9,9S33.971,42,29,42z M24,34h10v-2H24V34z"/>
	</g>
</g>
<g>
</g>
<g>
</g>
<g>
</g>
<g>
</g>
<g>
</g>
<g>
</g>
<g>
</g>
<g>
</g>
<g>
</g>
<g>
</g>
<g>
</g>
<g>
</g>
<g>
</g>
<g>
</g>
<g>
</g>
</svg>
