<?xml version="1.0" encoding="iso-8859-1"?>
<!-- Generator: Adobe Illustrator 16.0.4, SVG Export Plug-In . SVG Version: 6.00 Build 0)  -->
<!DOCTYPE svg PUBLIC "-//W3C//DTD SVG 1.1//EN" "http://www.w3.org/Graphics/SVG/1.1/DTD/svg11.dtd">
<svg version="1.1" id="Layer_1" xmlns="http://www.w3.org/2000/svg" xmlns:xlink="http://www.w3.org/1999/xlink" x="0px" y="0px"
	 width="32px" height="44px" viewBox="0 0 32 44" style="enable-background:new 0 0 32 44;" xml:space="preserve">
<g id="_x38_10-document-2-toolbar_x40_2x.png">
	<g>
		<path d="M7,14h6c0.553,0,1-0.447,1-1c0-0.552-0.447-1-1-1H7c-0.553,0-1,0.448-1,1C6,13.553,6.447,14,7,14z M7,8h6
			c0.553,0,1-0.447,1-1c0-0.552-0.447-1-1-1H7C6.447,6,6,6.448,6,7C6,7.553,6.447,8,7,8z M19,14h6c0.553,0,1-0.447,1-1V7
			c0-0.552-0.447-1-1-1h-6c-0.553,0-1,0.448-1,1v6C18,13.553,18.447,14,19,14z M20,8h4v4h-4V8z M7,38h12c0.553,0,1-0.447,1-1
			c0-0.552-0.447-1-1-1H7c-0.553,0-1,0.448-1,1C6,37.553,6.447,38,7,38z M7,20h18c0.553,0,1-0.447,1-1c0-0.552-0.447-1-1-1H7
			c-0.553,0-1,0.448-1,1C6,19.553,6.447,20,7,20z M30,0H2C0.896,0,0,0.896,0,2v40c0,1.104,0.896,2,2,2h28c1.104,0,2-0.896,2-2V2
			C32,0.896,31.104,0,30,0z M30,42H2V2h28V42z M7,32h18c0.553,0,1-0.447,1-1s-0.447-1-1-1H7c-0.553,0-1,0.447-1,1S6.447,32,7,32z
			 M7,26h18c0.553,0,1-0.447,1-1c0-0.552-0.447-1-1-1H7c-0.553,0-1,0.448-1,1C6,25.553,6.447,26,7,26z"/>
	</g>
</g>
<g>
</g>
<g>
</g>
<g>
</g>
<g>
</g>
<g>
</g>
<g>
</g>
<g>
</g>
<g>
</g>
<g>
</g>
<g>
</g>
<g>
</g>
<g>
</g>
<g>
</g>
<g>
</g>
<g>
</g>
</svg>
