<?xml version="1.0" encoding="iso-8859-1"?>
<!-- Generator: Adobe Illustrator 16.0.4, SVG Export Plug-In . SVG Version: 6.00 Build 0)  -->
<!DOCTYPE svg PUBLIC "-//W3C//DTD SVG 1.1//EN" "http://www.w3.org/Graphics/SVG/1.1/DTD/svg11.dtd">
<svg version="1.1" id="Layer_1" xmlns="http://www.w3.org/2000/svg" xmlns:xlink="http://www.w3.org/1999/xlink" x="0px" y="0px"
	 width="36px" height="44px" viewBox="0 0 36 44" style="enable-background:new 0 0 36 44;" xml:space="preserve">
<g id="_x38_08-documents-toolbar_x40_2x.png">
	<g>
		<path d="M19,30H7c-0.553,0-1,0.447-1,1s0.447,1,1,1h12c0.553,0,1-0.447,1-1S19.553,30,19,30z M7,28h8c0.553,0,1-0.447,1-1
			c0-0.552-0.447-1-1-1H7c-0.553,0-1,0.448-1,1C6,27.553,6.447,28,7,28z M6,23c0,0.553,0.447,1,1,1h12c0.553,0,1-0.447,1-1
			c0-0.552-0.447-1-1-1H7C6.447,22,6,22.448,6,23z M29,20h-1v2h1c0.553,0,1-0.447,1-1C30,20.448,29.553,20,29,20z M28,0H12
			c-1.104,0-2,0.896-2,2v5c0,0.553,0.447,1,1,1s1-0.447,1-1V2h13.986v7.009c0,0.001,0,0.002,0,0.003c0,0.556,0.45,1.006,1.007,1.006
			c0.001,0,0.001,0,0.001,0H34V32h-5c-0.553,0-1,0.447-1,1s0.447,1,1,1h5c1.104,0,2-0.896,2-2V8L28,0z M28,8.006V3l5.006,5.006H28z
			 M30,13c0-0.552-0.447-1-1-1h-6l2,2h4C29.553,14,30,13.553,30,13z M2,10c-1.104,0-2,0.896-2,2v30c0,1.104,0.896,2,2,2h22
			c1.104,0,2-0.896,2-2V18l-8-8H2z M24,42H2V12h13.986v7.009c0,0.001,0,0.002,0,0.003c0,0.556,0.45,1.006,1.007,1.006h0.001H24V42z
			 M18,18.006V13l5.006,5.006H18z M28,18h1c0.553,0,1-0.447,1-1s-0.447-1-1-1h-2l1,1V18z"/>
	</g>
</g>
<g>
</g>
<g>
</g>
<g>
</g>
<g>
</g>
<g>
</g>
<g>
</g>
<g>
</g>
<g>
</g>
<g>
</g>
<g>
</g>
<g>
</g>
<g>
</g>
<g>
</g>
<g>
</g>
<g>
</g>
</svg>
