<?xml version="1.0" encoding="iso-8859-1"?>
<!-- Generator: Adobe Illustrator 16.0.4, SVG Export Plug-In . SVG Version: 6.00 Build 0)  -->
<!DOCTYPE svg PUBLIC "-//W3C//DTD SVG 1.1//EN" "http://www.w3.org/Graphics/SVG/1.1/DTD/svg11.dtd">
<svg version="1.1" id="Layer_1" xmlns="http://www.w3.org/2000/svg" xmlns:xlink="http://www.w3.org/1999/xlink" x="0px" y="0px"
	 width="44px" height="56px" viewBox="0 0 44 56" style="enable-background:new 0 0 44 56;" xml:space="preserve">
<g id="_x38_08-documents_x40_2x.png">
	<g>
		<path d="M6,29c0,0.553,0.447,1,1,1h18c0.553,0,1-0.447,1-1c0-0.552-0.447-1-1-1H7C6.447,28,6,28.448,6,29z M7,36h12
			c0.553,0,1-0.447,1-1c0-0.552-0.447-1-1-1H7c-0.553,0-1,0.448-1,1C6,35.553,6.447,36,7,36z M25,40H7c-0.553,0-1,0.447-1,1
			s0.447,1,1,1h18c0.553,0,1-0.447,1-1S25.553,40,25,40z M34,0H14c-1.104,0-2,0.896-2,2v7c0,0.553,0.447,1,1,1s1-0.447,1-1V2h18v9
			c0,0.553,0.447,1,1,1h9v30h-7c-0.553,0-1,0.447-1,1s0.447,1,1,1h7c1.104,0,2-0.896,2-2V10L34,0z M34,10V3l7,7H34z M14,12h-2H2
			c-1.104,0-2,0.896-2,2v40c0,1.104,0.896,2,2,2h28c1.104,0,2-0.896,2-2V44v-2V22L22,12H14z M30,54H2V14h18v9c0,0.553,0.447,1,1,1h9
			V54z M22,22v-7l7,7H22z M37,28h-3v2h3c0.553,0,1-0.447,1-1C38,28.448,37.553,28,37,28z M37,16h-8l2,2h6c0.553,0,1-0.447,1-1
			C38,16.448,37.553,16,37,16z M37,22h-3v2h3c0.553,0,1-0.447,1-1S37.553,22,37,22z"/>
	</g>
</g>
<g>
</g>
<g>
</g>
<g>
</g>
<g>
</g>
<g>
</g>
<g>
</g>
<g>
</g>
<g>
</g>
<g>
</g>
<g>
</g>
<g>
</g>
<g>
</g>
<g>
</g>
<g>
</g>
<g>
</g>
</svg>
