<?xml version="1.0" encoding="iso-8859-1"?>
<!-- Generator: Adobe Illustrator 16.0.4, SVG Export Plug-In . SVG Version: 6.00 Build 0)  -->
<!DOCTYPE svg PUBLIC "-//W3C//DTD SVG 1.1//EN" "http://www.w3.org/Graphics/SVG/1.1/DTD/svg11.dtd">
<svg version="1.1" id="Layer_1" xmlns="http://www.w3.org/2000/svg" xmlns:xlink="http://www.w3.org/1999/xlink" x="0px" y="0px"
	 width="44.001px" height="44px" viewBox="0 0 44.001 44" style="enable-background:new 0 0 44.001 44;" xml:space="preserve">
<g id="_x31_181-dog_x40_2x.png">
	<g>
		<path d="M18,14c-1.104,0-2,0.896-2,2s0.896,2,2,2s2-0.896,2-2S19.105,14,18,14z M26,14c-1.104,0-2,0.896-2,2s0.896,2,2,2
			s2-0.896,2-2S27.105,14,26,14z M39.762,0.976C38.887,0.286,37.831,0,36.714,0c-2.3,0-4.849,1.215-6.628,2.619
			C30.056,2.613,30.031,2.604,30,2.598c-2-0.398-5-0.598-8-0.598s-6,0.199-8,0.598c-0.03,0.006-0.056,0.016-0.086,0.021
			C12.135,1.214,9.587,0,7.287,0C6.17,0,5.114,0.286,4.239,0.976C0.554,3.875-0.318,7.645,0.094,10.35
			c0.259,1.698,1.02,2.962,1.987,3.298C2.769,13.887,3.393,14,3.964,14c1.345,0,2.457-0.646,3.416-1.727L6.001,32.839
			c0,3.122,2.262,6.341,5.244,7.023C12.095,42.239,15.356,44,22.001,44c6.653,0,9.914-1.765,10.759-4.146
			c2.98-0.72,5.24-4.094,5.24-7.215l-1.401-20.392C37.562,13.345,38.681,14,40.037,14c0.571,0,1.196-0.113,1.883-0.353
			c0.967-0.336,1.729-1.6,1.988-3.298C44.319,7.645,43.447,3.875,39.762,0.976z M6.903,9.498c-1.267,2.242-2.284,2.501-2.938,2.501
			c-0.353,0-0.766-0.081-1.187-0.224c-0.153-0.096-0.543-0.664-0.705-1.727C1.918,9.038,1.709,5.512,5.477,2.547
			C5.944,2.18,6.536,2.001,7.288,2.001c1.385,0,2.916,0.599,4.196,1.368C9.076,4.414,7.677,6.194,7.617,8.794
			C7.327,8.972,7.071,9.2,6.903,9.498z M22.001,42c-4.137,0-7.075-0.752-8.316-2.023c3.509-0.235,3.722-2.966,8.292-2.976
			c0.002,0.001,0.017,0.007,0.017,0.007s0.016-0.006,0.018-0.007c4.583,0.005,4.792,2.741,8.306,2.976
			C29.077,41.248,26.138,42,22.001,42z M31.601,37.999h-0.8c-1.258,0-1.829-0.414-2.773-1.101c-0.729-0.529-1.628-1.106-2.914-1.484
			c2.247-1.343,4.883-3.409,4.883-5.729c0-3.145-3.583-5.692-8.002-5.692c-4.419,0-8.001,2.548-8.001,5.692
			c0,2.322,2.639,4.39,4.887,5.731c-1.28,0.378-2.177,0.954-2.905,1.482c-0.945,0.687-1.515,1.101-2.773,1.101h-0.8
			c-2.416,0-4.365-2.774-4.398-5.101L9.598,9.097c0.003-0.045,0.005-0.089,0.005-0.134c0-0.943,0-3.451,4.789-4.403
			c1.757-0.35,4.602-0.559,7.609-0.559S27.853,4.21,29.61,4.56c1.789,0.355,4.789,1.452,4.789,4.802
			c0,0.045,0.001,0.091,0.005,0.137l1.595,23.204C35.964,35.103,33.949,37.999,31.601,37.999z M41.929,10.049
			c-0.162,1.062-0.552,1.631-0.706,1.727c-0.421,0.143-0.833,0.224-1.187,0.224c-0.655,0-1.671-0.259-2.938-2.501
			c-0.175-0.311-0.443-0.549-0.75-0.728c-0.198-2.421-1.58-4.283-3.886-5.368c1.291-0.785,2.846-1.401,4.251-1.401
			c0.751,0,1.344,0.179,1.811,0.546C42.292,5.512,42.083,9.038,41.929,10.049z"/>
	</g>
</g>
<g>
</g>
<g>
</g>
<g>
</g>
<g>
</g>
<g>
</g>
<g>
</g>
<g>
</g>
<g>
</g>
<g>
</g>
<g>
</g>
<g>
</g>
<g>
</g>
<g>
</g>
<g>
</g>
<g>
</g>
</svg>
