<?xml version="1.0" encoding="iso-8859-1"?>
<!-- Generator: Adobe Illustrator 16.0.4, SVG Export Plug-In . SVG Version: 6.00 Build 0)  -->
<!DOCTYPE svg PUBLIC "-//W3C//DTD SVG 1.1//EN" "http://www.w3.org/Graphics/SVG/1.1/DTD/svg11.dtd">
<svg version="1.1" id="Layer_1" xmlns="http://www.w3.org/2000/svg" xmlns:xlink="http://www.w3.org/1999/xlink" x="0px" y="0px"
	 width="56px" height="56px" viewBox="0 0 56 56" style="enable-background:new 0 0 56 56;" xml:space="preserve">
<g id="_x38_02-dog-house_x40_2x.png">
	<g>
		<path d="M55.718,28.309l0.002-0.002l-27-28.001l-0.002,0.003C28.535,0.12,28.283,0,28,0s-0.535,0.12-0.718,0.309L27.28,0.306
			l-27,28.001l0.002,0.002C0.109,28.488,0,28.73,0,29c0,0.553,0.447,1,1,1c0.283,0,0.535-0.119,0.718-0.308l0.002,0.002L6,25.256V54
			c0,1.104,0.896,2,2,2h40c1.104,0,2-0.896,2-2V25.256l4.28,4.438l0.002-0.002C54.465,29.881,54.717,30,55,30c0.553,0,1-0.447,1-1
			C56,28.73,55.891,28.488,55.718,28.309z M36,54H20V39c0-4.418,3.582-8,8-8s8,3.582,8,8V54z M48,54H38V39c0-5.522-4.478-10-10-10
			s-10,4.478-10,10v15H8V23.182l20-20.74l20,20.74V54z"/>
	</g>
</g>
<g>
</g>
<g>
</g>
<g>
</g>
<g>
</g>
<g>
</g>
<g>
</g>
<g>
</g>
<g>
</g>
<g>
</g>
<g>
</g>
<g>
</g>
<g>
</g>
<g>
</g>
<g>
</g>
<g>
</g>
</svg>
