<?xml version="1.0" encoding="iso-8859-1"?>
<!-- Generator: Adobe Illustrator 16.0.4, SVG Export Plug-In . SVG Version: 6.00 Build 0)  -->
<!DOCTYPE svg PUBLIC "-//W3C//DTD SVG 1.1//EN" "http://www.w3.org/Graphics/SVG/1.1/DTD/svg11.dtd">
<svg version="1.1" id="Layer_1" xmlns="http://www.w3.org/2000/svg" xmlns:xlink="http://www.w3.org/1999/xlink" x="0px" y="0px"
	 width="44px" height="44px" viewBox="0 0 44 44" style="enable-background:new 0 0 44 44;" xml:space="preserve">
<g id="_x38_02-dog-house-toolbar_x40_2x.png">
	<g>
		<path d="M43.718,22.309l0.002-0.002l-21-22l-0.002,0.002C22.535,0.12,22.283,0,22,0c-0.282,0-0.535,0.12-0.718,0.309L21.28,0.307
			l-21,22l0.002,0.002C0.109,22.488,0,22.73,0,23c0,0.553,0.447,1,1,1c0.283,0,0.535-0.119,0.718-0.308l0.002,0.002L4,21.306V42
			c0,1.104,0.896,2,2,2h32c1.104,0,2-0.896,2-2V21.306l2.28,2.389l0.002-0.002C42.465,23.881,42.717,24,43,24c0.553,0,1-0.447,1-1
			C44,22.73,43.891,22.488,43.718,22.309z M28,33v9H16v-9h0.101C16.046,32.674,16,32.343,16,32c0-3.313,2.687-6,6-6s6,2.687,6,6
			c0,0.343-0.046,0.674-0.101,1H28z M38,42h-8V32c0-4.418-3.582-8-8-8s-8,3.582-8,8v10H6V19.211L22,2.448l16,16.763V42z"/>
	</g>
</g>
<g>
</g>
<g>
</g>
<g>
</g>
<g>
</g>
<g>
</g>
<g>
</g>
<g>
</g>
<g>
</g>
<g>
</g>
<g>
</g>
<g>
</g>
<g>
</g>
<g>
</g>
<g>
</g>
<g>
</g>
</svg>
