<?xml version="1.0" encoding="UTF-8" standalone="no"?>
<svg width="57px" height="58px" viewBox="0 0 57 58" version="1.1" xmlns="http://www.w3.org/2000/svg" xmlns:xlink="http://www.w3.org/1999/xlink" xmlns:sketch="http://www.bohemiancoding.com/sketch/ns">
    <!-- Generator: Sketch 3.0.4 (8053) - http://www.bohemiancoding.com/sketch -->
    <title>1181-dog</title>
    <desc>Created with Sketch.</desc>
    <defs></defs>
    <g id="Page-1" stroke="none" stroke-width="1" fill="none" fill-rule="evenodd" sketch:type="MSPage">
        <g id="Glyphish-8-Icons" sketch:type="MSArtboardGroup" transform="translate(-20.000000, -787.000000)" fill="#000000">
            <g id="1181-dog" sketch:type="MSLayerGroup" transform="translate(20.036996, 787.860499)">
                <g id="_x31_181-dog_x40_2x.png" sketch:type="MSShapeGroup">
                    <path d="M34.97,18 C33.32,18 31.982,19.341 31.982,20.994 C31.982,22.646 33.32,23.987 34.97,23.987 C36.62,23.987 37.958,22.646 37.958,20.994 C37.958,19.34 36.62,18 34.97,18 L34.97,18 Z M20.987,18 C19.337,18 18,19.34 18,20.994 C18,22.646 19.337,23.987 20.988,23.987 C22.639,23.987 23.976,22.646 23.976,20.994 C23.975,19.34 22.638,18 20.987,18 L20.987,18 Z M50.59,1.185 C47.303,-1.289 42.017,0.511 38.631,2.924 C38.414,2.87 38.214,2.798 37.989,2.753 C35.489,2.25 31.739,2 27.989,2 C24.239,2 20.489,2.251 17.989,2.754 C17.76,2.8 17.557,2.866 17.337,2.919 C13.95,0.509 8.672,-1.287 5.388,1.185 C0.704,4.709 -0.405,9.292 0.118,12.581 C0.447,14.644 1.415,16.181 2.645,16.59 C3.519,16.881 4.312,17.018 5.039,17.018 C6.917,17.018 8.445,16.091 9.741,14.536 L7.989,40.946 C7.989,44.74 10.608,48.644 14.127,49.703 C14.578,53.242 18.656,56.01 28.025,56.01 C37.429,56.01 41.501,53.221 41.926,49.662 C45.406,48.516 47.988,44.462 47.988,40.694 L46.208,14.5 C47.511,16.077 49.047,17.018 50.94,17.018 C51.667,17.018 52.46,16.881 53.334,16.59 C54.564,16.181 55.532,14.645 55.861,12.581 C56.383,9.292 55.274,4.709 50.59,1.185 L50.59,1.185 Z M3.264,14.667 C2.914,14.551 2.316,13.727 2.083,12.257 C1.652,9.556 2.606,5.794 6.572,2.81 C8.468,1.384 11.968,2.076 14.872,3.716 C11.928,5 10.194,7.172 10.031,10.321 C7.983,14.606 6.154,15.629 3.264,14.667 L3.264,14.667 Z M28.025,54.014 C20.511,54.014 16.969,52.283 16.227,49.99 L16.989,49.99 C21.956,49.99 21.995,46.027 27.879,45.975 C27.968,46.012 28.025,46.036 28.025,46.036 C28.025,46.036 28.079,46.015 28.165,45.978 C33.98,46.059 34.041,49.99 38.989,49.99 L39.823,49.99 C39.082,52.283 35.539,54.014 28.025,54.014 L28.025,54.014 Z M39.989,47.98 L38.989,47.98 C37.256,47.98 36.45,47.389 35.231,46.494 C34.231,45.761 33.062,44.917 31.333,44.411 C34.232,42.786 37.985,40.097 37.985,37.052 C37.985,33.195 33.526,30.068 28.026,30.068 C22.526,30.068 18.067,33.195 18.067,37.052 C18.067,40.09 21.801,42.772 24.697,44.399 C22.941,44.903 21.758,45.754 20.749,46.495 C19.53,47.391 18.724,47.981 16.991,47.981 L15.991,47.981 C13.231,47.981 10.024,44.939 9.991,41.007 L11.987,10.923 C11.99,10.88 11.991,10.836 11.991,10.793 C11.991,9.61 11.991,6.01 18.383,4.725 C20.61,4.278 24.201,4.01 27.991,4.01 C31.781,4.01 35.372,4.278 37.599,4.725 C39.986,5.204 43.991,6.697 43.991,11.296 C43.991,11.34 43.992,11.384 43.995,11.429 L45.99,40.757 C45.956,44.043 43.292,47.98 39.989,47.98 L39.989,47.98 Z M53.896,12.257 C53.663,13.727 53.064,14.551 52.715,14.667 C49.801,15.638 47.965,14.587 45.896,10.208 C45.55,7.307 43.83,5.074 41.038,3.757 C43.955,2.088 47.496,1.373 49.408,2.81 C53.373,5.794 54.326,9.556 53.896,12.257 L53.896,12.257 Z" id="Shape"></path>
                </g>
            </g>
        </g>
    </g>
</svg>