<?xml version="1.0" encoding="iso-8859-1"?>
<!-- Generator: Adobe Illustrator 16.0.4, SVG Export Plug-In . SVG Version: 6.00 Build 0)  -->
<!DOCTYPE svg PUBLIC "-//W3C//DTD SVG 1.1//EN" "http://www.w3.org/Graphics/SVG/1.1/DTD/svg11.dtd">
<svg version="1.1" id="Layer_1" xmlns="http://www.w3.org/2000/svg" xmlns:xlink="http://www.w3.org/1999/xlink" x="0px" y="0px"
	 width="42px" height="56px" viewBox="0 0 42 56" style="enable-background:new 0 0 42 56;" xml:space="preserve">
<g id="_x37_03-download_x40_2x.png">
	<g>
		<path d="M13,26c-0.553,0-1,0.448-1,1c0,0.276,0.112,0.526,0.293,0.707l8,8C20.474,35.889,20.724,36,21,36s0.526-0.111,0.707-0.293
			l8-8C29.888,27.526,30,27.276,30,27c0-0.552-0.447-1-1-1c-0.276,0-0.526,0.112-0.707,0.293L22,32.586V1c0-0.552-0.447-1-1-1
			c-0.552,0-1,0.448-1,1v31.586l-6.293-6.293C13.526,26.112,13.276,26,13,26z M40,16H27c-0.553,0-1,0.448-1,1c0,0.553,0.447,1,1,1
			h13v36H2V18h13c0.553,0,1-0.447,1-1c0-0.552-0.447-1-1-1H2c-1.104,0-2,0.896-2,2v36c0,1.104,0.896,2,2,2h38c1.104,0,2-0.896,2-2
			V18C42,16.896,41.104,16,40,16z"/>
	</g>
</g>
<g>
</g>
<g>
</g>
<g>
</g>
<g>
</g>
<g>
</g>
<g>
</g>
<g>
</g>
<g>
</g>
<g>
</g>
<g>
</g>
<g>
</g>
<g>
</g>
<g>
</g>
<g>
</g>
<g>
</g>
</svg>
