<?xml version="1.0" encoding="iso-8859-1"?>
<!-- Generator: Adobe Illustrator 16.0.4, SVG Export Plug-In . SVG Version: 6.00 Build 0)  -->
<!DOCTYPE svg PUBLIC "-//W3C//DTD SVG 1.1//EN" "http://www.w3.org/Graphics/SVG/1.1/DTD/svg11.dtd">
<svg version="1.1" id="Layer_1" xmlns="http://www.w3.org/2000/svg" xmlns:xlink="http://www.w3.org/1999/xlink" x="0px" y="0px"
	 width="32px" height="44px" viewBox="0 0 32 44" style="enable-background:new 0 0 32 44;" xml:space="preserve">
<g id="_x39_39-download-rectangle-toolbar_x40_2x.png">
	<g>
		<path d="M15.293,32.707C15.474,32.889,15.724,33,16,33s0.526-0.111,0.707-0.293l6-6C22.888,26.526,23,26.276,23,26
			c0-0.552-0.447-1-1-1c-0.276,0-0.526,0.112-0.707,0.293L17,29.586V10c0-0.552-0.447-1-1-1c-0.552,0-1,0.448-1,1v19.586
			l-4.293-4.293C10.526,25.112,10.276,25,10,25c-0.553,0-1,0.448-1,1c0,0.276,0.112,0.526,0.293,0.707L15.293,32.707z M30,0H2
			C0.896,0,0,0.896,0,2v40c0,1.104,0.896,2,2,2h28c1.104,0,2-0.896,2-2V2C32,0.896,31.104,0,30,0z M30,42H2V2h28V42z"/>
	</g>
</g>
<g>
</g>
<g>
</g>
<g>
</g>
<g>
</g>
<g>
</g>
<g>
</g>
<g>
</g>
<g>
</g>
<g>
</g>
<g>
</g>
<g>
</g>
<g>
</g>
<g>
</g>
<g>
</g>
<g>
</g>
</svg>
