<?xml version="1.0" encoding="iso-8859-1"?>
<!-- Generator: Adobe Illustrator 16.0.4, SVG Export Plug-In . SVG Version: 6.00 Build 0)  -->
<!DOCTYPE svg PUBLIC "-//W3C//DTD SVG 1.1//EN" "http://www.w3.org/Graphics/SVG/1.1/DTD/svg11.dtd">
<svg version="1.1" id="Layer_1" xmlns="http://www.w3.org/2000/svg" xmlns:xlink="http://www.w3.org/1999/xlink" x="0px" y="0px"
	 width="56.016px" height="35.986px" viewBox="0 0 56.016 35.986" style="enable-background:new 0 0 56.016 35.986;"
	 xml:space="preserve">
<g id="_x31_044-drama-masks_x40_2x.png">
	<g>
		<path d="M15.314,15.74c0.392,0.391,1.024,0.389,1.413-0.003c0.39-0.391,0.39-1.022-0.001-1.412
			c-0.234-0.234-2.36-2.293-4.707-2.293c-2.645,0-3.823,3.307-3.948,3.684C7.896,16.24,8.18,16.807,8.703,16.98
			c0.105,0.035,0.212,0.052,0.316,0.052c0.419,0,0.81-0.265,0.949-0.684c0.163-0.489,0.989-2.316,2.051-2.316
			C13.31,14.032,14.835,15.266,15.314,15.74z M42.788,18.831c2.478,0.921,4.728-1.775,4.976-2.086
			c0.345-0.431,0.275-1.06-0.154-1.405c-0.43-0.344-1.059-0.276-1.404,0.154c-0.399,0.494-1.753,1.813-2.725,1.462
			c-1.213-0.449-2.232-2.175-2.495-2.743c-0.168-0.366-0.53-0.582-0.907-0.582c-0.14,0-0.282,0.029-0.418,0.092
			c-0.501,0.23-0.72,0.825-0.489,1.326C39.31,15.351,40.59,18.019,42.788,18.831z M37.399,12.312
			c-0.389-0.392-1.021-0.394-1.413-0.003c-0.274,0.272-0.898,0.792-1.621,1.188c-0.015,0.751-0.039,1.495-0.079,2.224
			c1.645-0.575,2.933-1.816,3.112-1.996C37.788,13.334,37.788,12.702,37.399,12.312z M36.84,23.99
			c4.144,0.829,4.191,3.987,4.191,4.019c0,0.553,0.447,1,0.999,1s0.999-0.447,0.999-1c0-1.666-1.211-5.062-5.798-5.98
			c-0.607-0.121-1.182-0.176-1.725-0.176c-0.731,0-1.389,0.117-2.001,0.288c-0.16,0.807-0.343,1.593-0.554,2.351
			C33.882,23.981,35.154,23.655,36.84,23.99z M54.747,9.001c-10.749,0-15.729-0.17-20.532-2.082
			c0.046,0.746,0.081,1.484,0.108,2.217c4.689,1.666,9.654,1.791,19.121,1.86c-1.386,4.88-6.587,22.99-16.728,22.99
			c-1.008,0-2.051-0.178-3.102-0.527c-1.469-0.49-2.662-1.322-3.639-2.392c-0.391,0.558-0.807,1.087-1.259,1.576
			c1.146,1.198,2.547,2.139,4.266,2.712c1.255,0.419,2.511,0.631,3.733,0.631c13.269,0,18.752-24.716,19.002-25.751l0.297-1.234
			H54.747z M24.992,19.853c-0.552,0-1,0.447-1,1c0,0.032-0.048,3.189-4.196,4.02c-4.149,0.822-5.837-2.328-5.911-2.472
			c-0.249-0.491-0.848-0.688-1.34-0.442c-0.494,0.246-0.694,0.848-0.447,1.342c0.702,1.402,2.847,3.709,6.365,3.709
			c0.543,0,1.118-0.055,1.726-0.176c4.591-0.918,5.804-4.313,5.804-5.98C25.992,20.3,25.545,19.853,24.992,19.853z M30.719,1.458
			L30.422,0l-1.238,0.825C20.454,6.645,17.158,7.001,1.27,7.001H0l0.298,1.234c0.25,1.035,5.738,25.751,19.02,25.751
			c1.225,0,2.481-0.212,3.737-0.631C36.399,28.908,30.957,2.628,30.719,1.458z M22.422,31.459c-1.051,0.35-2.096,0.527-3.104,0.527
			c-10.15,0-15.356-18.11-16.744-22.99C16.756,8.893,20.848,8.684,29.02,3.332C29.945,9.018,32.502,28.099,22.422,31.459z
			 M22.122,9.218c-2.2,0.812-3.481,3.48-3.62,3.782c-0.231,0.501-0.012,1.096,0.489,1.326c0.136,0.062,0.278,0.092,0.418,0.092
			c0.378,0,0.74-0.216,0.909-0.582c0.262-0.568,1.283-2.294,2.497-2.743c0.972-0.352,2.327,0.968,2.728,1.462
			c0.346,0.431,0.976,0.498,1.405,0.154c0.431-0.346,0.5-0.975,0.154-1.405C26.854,10.993,24.603,8.297,22.122,9.218z"/>
	</g>
</g>
<g>
</g>
<g>
</g>
<g>
</g>
<g>
</g>
<g>
</g>
<g>
</g>
<g>
</g>
<g>
</g>
<g>
</g>
<g>
</g>
<g>
</g>
<g>
</g>
<g>
</g>
<g>
</g>
<g>
</g>
</svg>
