<?xml version="1.0" encoding="iso-8859-1"?>
<!-- Generator: Adobe Illustrator 16.0.4, SVG Export Plug-In . SVG Version: 6.00 Build 0)  -->
<!DOCTYPE svg PUBLIC "-//W3C//DTD SVG 1.1//EN" "http://www.w3.org/Graphics/SVG/1.1/DTD/svg11.dtd">
<svg version="1.1" id="Layer_1" xmlns="http://www.w3.org/2000/svg" xmlns:xlink="http://www.w3.org/1999/xlink" x="0px" y="0px"
	 width="43.988px" height="27.966px" viewBox="0 0 43.988 27.966" style="enable-background:new 0 0 43.988 27.966;"
	 xml:space="preserve">
<g id="_x31_044-drama-masks-toolbar_x40_2x.png">
	<g>
		<path d="M29.707,11.402c0.35-0.428,0.286-1.058-0.143-1.406c-0.428-0.351-1.059-0.286-1.406,0.143
			c-0.017,0.019-0.428,0.475-1.149,0.611c0.002,0.584-0.006,1.175-0.03,1.772c-0.004,0.083-0.013,0.156-0.017,0.238
			C28.67,12.616,29.657,11.465,29.707,11.402z M37.47,14.756c0.388-0.383,0.39-0.998,0.015-1.393
			c-0.066-0.07-0.141-0.129-0.221-0.175c-0.37-0.214-0.854-0.171-1.186,0.131c-0.081,0.074-0.823,0.703-2.123,0.238
			c-1.252-0.45-1.433-1.579-1.438-1.613c-0.064-0.548-0.562-0.94-1.111-0.874c-0.549,0.065-0.939,0.563-0.874,1.111
			c0.012,0.098,0.31,2.386,2.749,3.259C35.306,16.166,36.867,15.351,37.47,14.756z M11.708,11.71
			c0.329,0.442,0.957,0.533,1.399,0.201c0.441-0.33,0.531-0.957,0.2-1.399c-0.059-0.079-1.46-1.911-4.01-1.447
			c-2.116,0.385-3.061,1.871-3.286,2.688c-0.144,0.524,0.162,1.059,0.684,1.213c0.094,0.027,0.188,0.041,0.279,0.041
			c0.428,0,0.825-0.28,0.961-0.707c0.033-0.104,0.361-1.021,1.72-1.268C10.965,10.796,11.686,11.684,11.708,11.71z M27.866,19.054
			c3.048,0.453,3.711,2.765,3.742,2.879c0.14,0.531,0.679,0.852,1.212,0.72c0.536-0.135,0.861-0.679,0.727-1.214
			c-0.035-0.14-0.847-3.202-4.469-4.173c-0.288-0.077-0.593-0.143-0.917-0.189c-0.617-0.092-1.177-0.074-1.707-0.015
			c-0.149,0.754-0.321,1.463-0.521,2.116C26.471,19.011,27.111,18.941,27.866,19.054z M23.973,1.115L23.74,0l-0.965,0.632
			C15.962,5.083,13.39,4.98,0.99,4.98H0l0.231,0.943C0.427,6.717,4.71,25.997,15.076,25.997c0.955,0,1.936-0.162,2.916-0.482
			C28.406,22.112,24.158,2.011,23.973,1.115z M17.371,23.613c-0.78,0.254-1.552,0.384-2.295,0.384
			c-7.202,0-11.26-12.561-12.504-17.019C12.716,6.956,16.229,7.008,22.33,3.281C23.095,8.106,24.492,21.287,17.371,23.613z
			 M42.997,7.012c-8.582,0-12.457,0.017-16.288-1.446c0.075,0.693,0.143,1.43,0.194,2.205c3.7,1.214,7.54,1.224,14.512,1.239
			c-1.244,4.459-5.304,16.956-12.507,16.956c-0.744,0-1.517-0.13-2.297-0.386c-1.167-0.381-2.095-1.063-2.84-1.949
			c-0.427,0.58-0.878,1.084-1.345,1.521c0.937,1.037,2.102,1.853,3.564,2.331c0.98,0.321,1.962,0.483,2.917,0.483
			c10.367,0,14.652-19.218,14.848-20.011l0.232-0.943H42.997z M17.294,7.634c-2.475,0.771-2.867,3.044-2.883,3.142
			c-0.088,0.545,0.282,1.059,0.827,1.146c0.545,0.09,1.06-0.282,1.146-0.827c0.007-0.034,0.234-1.154,1.505-1.552
			c1.317-0.41,2.033,0.25,2.111,0.326c0.317,0.315,0.8,0.379,1.179,0.181c0.082-0.043,0.159-0.098,0.229-0.165
			c0.391-0.379,0.414-0.994,0.043-1.393C20.873,7.873,19.348,6.994,17.294,7.634z M20.037,15.056
			c-0.534-0.101-1.062,0.254-1.168,0.794c-0.021,0.11-0.569,2.723-3.568,3.066c-3.061,0.352-4.3-1.709-4.36-1.812
			c-0.271-0.476-0.876-0.646-1.356-0.381c-0.482,0.27-0.656,0.879-0.387,1.361c0.069,0.125,1.646,2.874,5.396,2.874
			c0.298,0,0.609-0.017,0.935-0.055c3.599-0.413,5.045-3.249,5.308-4.69C20.934,15.673,20.577,15.158,20.037,15.056z"/>
	</g>
</g>
<g>
</g>
<g>
</g>
<g>
</g>
<g>
</g>
<g>
</g>
<g>
</g>
<g>
</g>
<g>
</g>
<g>
</g>
<g>
</g>
<g>
</g>
<g>
</g>
<g>
</g>
<g>
</g>
<g>
</g>
</svg>
