<?xml version="1.0" encoding="iso-8859-1"?>
<!-- Generator: Adobe Illustrator 16.0.4, SVG Export Plug-In . SVG Version: 6.00 Build 0)  -->
<!DOCTYPE svg PUBLIC "-//W3C//DTD SVG 1.1//EN" "http://www.w3.org/Graphics/SVG/1.1/DTD/svg11.dtd">
<svg version="1.1" id="Layer_1" xmlns="http://www.w3.org/2000/svg" xmlns:xlink="http://www.w3.org/1999/xlink" x="0px" y="0px"
	 width="36px" height="44px" viewBox="0 0 36 44" style="enable-background:new 0 0 36 44;" xml:space="preserve">
<g id="_x31_121-dress-shirt_x40_2x.png">
	<g>
		<path d="M18,36c-0.552,0-1,0.447-1,1s0.448,1,1,1s1-0.447,1-1S18.552,36,18,36z M18,12c-0.552,0-1,0.448-1,1c0,0.553,0.448,1,1,1
			s1-0.447,1-1C19,12.448,18.552,12,18,12z M25.549,2.015C24.461,0.843,21.497,0,18,0s-6.461,0.843-7.549,2.015
			C6.545,2.167,0,3.961,0,10v27v1.5C0,39.328,0.671,40,1.5,40H3h3v1v1.5C6,43.328,6.671,44,7.5,44H9h18h1.5
			c0.829,0,1.5-0.672,1.5-1.5V41v-1h3h1.5c0.829,0,1.5-0.672,1.5-1.5V37V10C36,3.961,29.455,2.167,25.549,2.015z M18,2
			c3.319,0,6.009,0.448,6.009,1c0,0.553-2.69,1-6.009,1s-6.009-0.447-6.009-1C11.991,2.448,14.681,2,18,2z M23.683,5.09
			l-1.982,2.643l-3.253-1.627l-0.004,0.01C18.308,6.047,18.161,6,18,6s-0.308,0.047-0.443,0.115l-0.004-0.01l-3.253,1.627
			L12.317,5.09C13.769,5.646,15.763,6,18,6S22.231,5.646,23.683,5.09z M34,10v27v1h-1h-3V15c0-0.552-0.448-1-1-1s-1,0.448-1,1v26v1
			h-1H9H8v-1V15c0-0.552-0.448-1-1-1s-1,0.448-1,1v23H3H2v-1V10c0-4.784,5.647-5.753,8-5.949V5c0,0.226,0.088,0.423,0.214,0.59
			L10.2,5.6l3,4l0.014-0.01C13.396,9.833,13.673,10,14,10c0.161,0,0.308-0.047,0.443-0.114l0.004,0.009L18,8.118l3.553,1.776
			l0.004-0.009C21.692,9.953,21.839,10,22,10c0.327,0,0.604-0.167,0.786-0.41L22.8,9.6l3-4l-0.014-0.01C25.912,5.423,26,5.226,26,5
			V4.051C28.353,4.247,34,5.216,34,10L34,10z M18,30c-0.552,0-1,0.448-1,1c0,0.553,0.448,1,1,1s1-0.447,1-1
			C19,30.448,18.552,30,18,30z M18,18c-0.552,0-1,0.448-1,1c0,0.553,0.448,1,1,1s1-0.447,1-1C19,18.448,18.552,18,18,18z M18,24
			c-0.552,0-1,0.447-1,1s0.448,1,1,1s1-0.447,1-1S18.552,24,18,24z"/>
	</g>
</g>
<g>
</g>
<g>
</g>
<g>
</g>
<g>
</g>
<g>
</g>
<g>
</g>
<g>
</g>
<g>
</g>
<g>
</g>
<g>
</g>
<g>
</g>
<g>
</g>
<g>
</g>
<g>
</g>
<g>
</g>
</svg>
