<?xml version="1.0" encoding="iso-8859-1"?>
<!-- Generator: Adobe Illustrator 16.0.4, SVG Export Plug-In . SVG Version: 6.00 Build 0)  -->
<!DOCTYPE svg PUBLIC "-//W3C//DTD SVG 1.1//EN" "http://www.w3.org/Graphics/SVG/1.1/DTD/svg11.dtd">
<svg version="1.1" id="Layer_1" xmlns="http://www.w3.org/2000/svg" xmlns:xlink="http://www.w3.org/1999/xlink" x="0px" y="0px"
	 width="27.994px" height="44.003px" viewBox="0 0 27.994 44.003" style="enable-background:new 0 0 27.994 44.003;"
	 xml:space="preserve">
<g id="_x31_130-dress_x40_2x.png">
	<g>
		<path d="M21.209,15.916c-0.25-0.264-2.458-2.888-1.263-5.35c1.594-3.283,1.982-9.541,1.975-9.806
			c-0.009-0.289-0.171-0.55-0.423-0.679C21.391,0.026,21.273,0,21.157,0c-0.154,0-0.309,0.048-0.439,0.144l-6.721,4.859L7.222,0.144
			C7.091,0.048,6.938,0,6.784,0C6.669,0,6.553,0.026,6.446,0.082c-0.25,0.129-0.411,0.39-0.42,0.679
			c-0.008,0.265,0.382,6.522,1.965,9.806c1.188,2.462-1.005,5.086-1.253,5.35c-0.582,0.502-4.568,4.541-6.732,22.489
			c-0.017,0.134,0.001,0.269,0.05,0.393c0.081,0.208,2.869,4.994,13.941,5.205c11.069-0.234,13.859-4.997,13.941-5.205
			c0.049-0.124,0.066-0.259,0.05-0.393C25.81,20.457,21.795,16.418,21.209,15.916z M8.045,17.431
			c0.052-0.046,0.102-0.093,0.148-0.144c1.203-1.277,3.086-4.507,1.6-7.59C9.006,8.065,8.53,5.378,8.274,3.359l4.557,3.269
			c0.349,0.25,0.758,0.375,1.166,0.375c0.411,0,0.822-0.127,1.172-0.38l4.509-3.26c-0.253,2.008-0.728,4.676-1.531,6.329
			c-1.498,3.087,0.399,6.321,1.611,7.6c0.047,0.05,0.099,0.099,0.15,0.143c0.035,0.031,3.24,2.974,5.437,16.585
			c-1.888,1.465-5.917,3.981-11.348,3.981v0.022c-5.447,0-9.474-2.536-11.353-4.005C4.825,20.407,8.01,17.461,8.045,17.431z
			 M13.995,42.002C5.875,41.839,2.84,39.084,2.05,38.164c0.081-0.647,0.168-1.237,0.253-1.847c2.342,1.615,6.374,3.699,11.703,3.699
			v-0.032c5.312-0.004,9.341-2.072,11.683-3.678c0.085,0.611,0.174,1.204,0.255,1.854C25.148,39.08,22.107,41.821,13.995,42.002z"/>
	</g>
</g>
<g>
</g>
<g>
</g>
<g>
</g>
<g>
</g>
<g>
</g>
<g>
</g>
<g>
</g>
<g>
</g>
<g>
</g>
<g>
</g>
<g>
</g>
<g>
</g>
<g>
</g>
<g>
</g>
<g>
</g>
</svg>
