<?xml version="1.0" encoding="UTF-8" standalone="no"?>
<svg width="58px" height="58px" viewBox="0 0 58 58" version="1.1" xmlns="http://www.w3.org/2000/svg" xmlns:xlink="http://www.w3.org/1999/xlink" xmlns:sketch="http://www.bohemiancoding.com/sketch/ns">
    <!-- Generator: Sketch 3.0.4 (8053) - http://www.bohemiancoding.com/sketch -->
    <title>1257-dribbble</title>
    <desc>Created with Sketch.</desc>
    <defs></defs>
    <g id="Page-1" stroke="none" stroke-width="1" fill="none" fill-rule="evenodd" sketch:type="MSPage">
        <g id="Glyphish-8-Icons" sketch:type="MSArtboardGroup" transform="translate(-596.000000, -1459.000000)" fill="#000000">
            <g id="1257-dribbble" sketch:type="MSLayerGroup" transform="translate(596.036996, 1459.860499)">
                <g id="_x31_257-dribbble_x40_2x.png" sketch:type="MSShapeGroup">
                    <path d="M28,0 C12.536,0 0,12.536 0,28 C0,43.464 12.536,56 28,56 C43.464,56 56,43.464 56,28 C56,12.536 43.464,0 28,0 L28,0 Z M28,54 C13.641,54 2,42.359 2,28 C2,13.641 13.641,2 28,2 C42.359,2 54,13.641 54,28 C54,42.359 42.359,54 28,54 L28,54 Z M27.91,6.015 C15.777,6.062 5.946,15.966 5.996,28.088 C6.045,40.211 15.956,50.035 28.09,49.986 C40.223,49.937 50.054,40.035 50.004,27.912 C49.955,15.789 40.044,5.966 27.91,6.015 L27.91,6.015 Z M42.5,16.096 C45.131,19.281 46.732,23.344 46.792,27.777 C46.172,27.648 39.953,26.414 33.702,27.225 C33.569,26.904 33.433,26.581 33.294,26.257 C32.899,25.343 32.477,24.435 32.035,23.541 C38.974,20.679 42.106,16.632 42.5,16.096 L42.5,16.096 Z M27.924,9.25 C32.699,9.23 37.071,11.003 40.403,13.932 C40.067,14.414 37.253,18.225 30.58,20.755 C27.477,15.113 24.045,10.483 23.522,9.789 C24.934,9.443 26.407,9.256 27.924,9.25 L27.924,9.25 Z M19.94,11.065 C20.438,11.743 23.816,16.379 26.953,21.898 C18.171,24.266 10.427,24.263 9.586,24.255 C10.781,18.424 14.692,13.565 19.94,11.065 L19.94,11.065 Z M9.205,28.104 C9.204,27.912 9.207,27.72 9.212,27.53 C10.035,27.544 19.143,27.625 28.518,24.78 C29.061,25.83 29.579,26.896 30.055,27.961 C29.807,28.032 29.56,28.107 29.315,28.188 C19.635,31.358 14.511,39.912 14.088,40.642 C11.072,37.324 9.225,32.928 9.205,28.104 L9.205,28.104 Z M28.076,46.808 C23.731,46.827 19.721,45.361 16.523,42.89 C16.859,42.199 20.634,34.837 31.22,31.104 C31.261,31.089 31.303,31.077 31.344,31.062 C34.011,37.903 35.125,43.64 35.411,45.287 C33.159,46.256 30.681,46.798 28.076,46.808 L28.076,46.808 Z M38.565,43.555 C38.368,42.413 37.344,36.919 34.859,30.18 C40.745,29.214 45.925,30.736 46.569,30.936 C45.753,36.164 42.77,40.688 38.565,43.555 L38.565,43.555 Z" id="Shape"></path>
                </g>
            </g>
        </g>
    </g>
</svg>