<?xml version="1.0" encoding="iso-8859-1"?>
<!-- Generator: Adobe Illustrator 16.0.4, SVG Export Plug-In . SVG Version: 6.00 Build 0)  -->
<!DOCTYPE svg PUBLIC "-//W3C//DTD SVG 1.1//EN" "http://www.w3.org/Graphics/SVG/1.1/DTD/svg11.dtd">
<svg version="1.1" id="Layer_1" xmlns="http://www.w3.org/2000/svg" xmlns:xlink="http://www.w3.org/1999/xlink" x="0px" y="0px"
	 width="44px" height="44px" viewBox="0 0 44 44" style="enable-background:new 0 0 44 44;" xml:space="preserve">
<g id="_x31_257-dribbble_x40_2x.png">
	<g>
		<path d="M22,0C9.85,0,0,9.85,0,22s9.85,22,22,22s22-9.85,22-22S34.15,0,22,0z M22,42C10.954,42,2,33.046,2,22S10.954,2,22,2
			s20,8.954,20,20S33.046,42,22,42z M21.931,5.007C12.553,5.044,4.954,12.698,4.992,22.068s7.699,16.963,17.077,16.926
			c9.378-0.038,16.977-7.692,16.938-17.062S31.309,4.969,21.931,5.007z M33.208,12.799c2.033,2.461,3.271,5.603,3.317,9.028
			c-0.479-0.1-5.286-1.054-10.118-0.427c-0.103-0.248-0.208-0.497-0.315-0.748c-0.305-0.706-0.632-1.408-0.973-2.099
			C30.481,16.342,32.903,13.214,33.208,12.799z M21.941,7.508c3.69-0.016,7.07,1.354,9.645,3.618
			c-0.26,0.373-2.435,3.319-7.593,5.274c-2.398-4.36-5.051-7.94-5.455-8.476C19.63,7.657,20.769,7.512,21.941,7.508z M15.771,8.911
			c0.385,0.523,2.995,4.107,5.42,8.373c-6.788,1.83-12.773,1.828-13.423,1.822C8.691,14.599,11.714,10.843,15.771,8.911z
			 M7.473,22.08c0-0.148,0.002-0.296,0.006-0.443c0.636,0.011,7.676,0.073,14.922-2.125c0.419,0.812,0.819,1.635,1.188,2.458
			c-0.191,0.056-0.383,0.113-0.571,0.175c-7.482,2.45-11.442,9.062-11.77,9.626C8.916,29.207,7.488,25.809,7.473,22.08z
			 M22.06,36.537c-3.358,0.014-6.459-1.119-8.93-3.028c0.259-0.535,3.178-6.224,11.359-9.11c0.032-0.011,0.064-0.021,0.096-0.032
			c2.062,5.287,2.923,9.723,3.145,10.995C25.988,36.11,24.072,36.529,22.06,36.537z M30.166,34.022
			c-0.152-0.883-0.943-5.128-2.864-10.338c4.55-0.746,8.554,0.43,9.052,0.585C35.722,28.311,33.416,31.808,30.166,34.022z"/>
	</g>
</g>
<g>
</g>
<g>
</g>
<g>
</g>
<g>
</g>
<g>
</g>
<g>
</g>
<g>
</g>
<g>
</g>
<g>
</g>
<g>
</g>
<g>
</g>
<g>
</g>
<g>
</g>
<g>
</g>
<g>
</g>
</svg>
