<?xml version="1.0" encoding="UTF-8" standalone="no"?>
<svg width="58px" height="58px" viewBox="0 0 58 58" version="1.1" xmlns="http://www.w3.org/2000/svg" xmlns:xlink="http://www.w3.org/1999/xlink" xmlns:sketch="http://www.bohemiancoding.com/sketch/ns">
    <!-- Generator: Sketch 3.0.4 (8053) - http://www.bohemiancoding.com/sketch -->
    <title>1258-dropbox</title>
    <desc>Created with Sketch.</desc>
    <defs></defs>
    <g id="Page-1" stroke="none" stroke-width="1" fill="none" fill-rule="evenodd" sketch:type="MSPage">
        <g id="Glyphish-8-Icons" sketch:type="MSArtboardGroup" transform="translate(-692.000000, -1459.000000)" fill="#000000">
            <g id="1258-dropbox" sketch:type="MSLayerGroup" transform="translate(692.036996, 1459.860499)">
                <g id="_x31_258-dropbox_x40_2x.png" sketch:type="MSShapeGroup">
                    <path d="M38.415,24.648 L38.418,24.646 L38.415,24.644 L38.413,24.646 L38.415,24.648 L38.415,24.648 Z M17.473,24.781 L10.013,30.752 L20.77,37.149 L27.953,31.751 L35.356,37.144 L45.996,30.746 L38.416,24.649 L27.959,31.209 L17.473,24.781 L17.473,24.781 Z M27.952,33.781 L20.794,39.151 L17.236,37.164 L17.236,39.193 L27.995,46.004 L38.669,39.193 L38.669,37.164 L35.32,39.151 L27.952,33.781 L27.952,33.781 Z M10.001,19.045 L17.491,24.77 L27.952,18.219 L20.766,12.001 L10.001,19.045 L10.001,19.045 Z M35.541,11.997 L27.952,18.219 L38.415,24.645 L45.999,18.712 L35.541,11.997 L35.541,11.997 Z M28,0 C12.536,0 0,12.536 0,28 C0,43.464 12.536,56 28,56 C43.464,56 56,43.464 56,28 C56,12.536 43.464,0 28,0 L28,0 Z M28,54 C13.641,54 2,42.359 2,28 C2,13.641 13.641,2 28,2 C42.359,2 54,13.641 54,28 C54,42.359 42.359,54 28,54 L28,54 Z" id="Shape"></path>
                </g>
            </g>
        </g>
    </g>
</svg>