<?xml version="1.0" encoding="iso-8859-1"?>
<!-- Generator: Adobe Illustrator 16.0.4, SVG Export Plug-In . SVG Version: 6.00 Build 0)  -->
<!DOCTYPE svg PUBLIC "-//W3C//DTD SVG 1.1//EN" "http://www.w3.org/Graphics/SVG/1.1/DTD/svg11.dtd">
<svg version="1.1" id="Layer_1" xmlns="http://www.w3.org/2000/svg" xmlns:xlink="http://www.w3.org/1999/xlink" x="0px" y="0px"
	 width="44px" height="44px" viewBox="0 0 44 44" style="enable-background:new 0 0 44 44;" xml:space="preserve">
<g id="_x31_258-dropbox_x40_2x.png">
	<g>
		<path d="M30.184,19.366l0.002-0.001l-0.002-0.002l-0.002,0.002L30.184,19.366z M13.729,19.472l-5.861,4.69l8.451,5.026
			l5.645-4.241l5.816,4.237l8.359-5.028l-5.955-4.79l-8.217,5.154L13.729,19.472z M21.963,26.542l-5.625,4.22L13.543,29.2v1.595
			l8.453,5.351l8.387-5.351V29.2l-2.632,1.562L21.963,26.542z M22,0C9.85,0,0,9.85,0,22s9.85,22,22,22s22-9.85,22-22S34.15,0,22,0z
			 M22,42C10.954,42,2,33.046,2,22S10.954,2,22,2s20,8.954,20,20S33.046,42,22,42z M7.858,14.964l5.885,4.498l8.22-5.147
			l-5.646-4.886L7.858,14.964z M27.925,9.426l-5.962,4.889l8.221,5.049l5.958-4.661L27.925,9.426z"/>
	</g>
</g>
<g>
</g>
<g>
</g>
<g>
</g>
<g>
</g>
<g>
</g>
<g>
</g>
<g>
</g>
<g>
</g>
<g>
</g>
<g>
</g>
<g>
</g>
<g>
</g>
<g>
</g>
<g>
</g>
<g>
</g>
</svg>
