<?xml version="1.0" encoding="iso-8859-1"?>
<!-- Generator: Adobe Illustrator 16.0.4, SVG Export Plug-In . SVG Version: 6.00 Build 0)  -->
<!DOCTYPE svg PUBLIC "-//W3C//DTD SVG 1.1//EN" "http://www.w3.org/Graphics/SVG/1.1/DTD/svg11.dtd">
<svg version="1.1" id="Layer_1" xmlns="http://www.w3.org/2000/svg" xmlns:xlink="http://www.w3.org/1999/xlink" x="0px" y="0px"
	 width="56px" height="56px" viewBox="0 0 56 56" style="enable-background:new 0 0 56 56;" xml:space="preserve">
<g id="_x31_006-eight-ball_x40_2x.png">
	<g>
		<path d="M32,10c-7.732,0-14,6.268-14,14s6.268,14,14,14s14-6.268,14-14S39.732,10,32,10z M32,36c-6.627,0-12-5.373-12-12
			s5.373-12,12-12s12,5.373,12,12S38.627,36,32,36z M28,0C12.536,0,0,12.536,0,28s12.536,28,28,28s28-12.536,28-28S43.464,0,28,0z
			 M28,54C13.641,54,2,42.359,2,28S13.641,2,28,2s26,11.641,26,26S42.359,54,28,54z M35.071,22.82l-0.019-0.069
			c1.362-1.228,1.657-2.71,1.321-3.973c-0.489-1.837-2.423-3.384-5.53-2.548c-2.73,0.734-4.377,2.949-3.729,5.383
			c0.348,1.31,1.366,2.364,3.077,2.716l0.019,0.069c-1.463,1.205-2.17,2.749-1.675,4.609c0.557,2.09,2.842,3.615,6.216,2.708
			c3.085-0.83,4.783-3.206,4.074-5.87C38.331,23.985,36.812,23.017,35.071,22.82z M29.682,20.801
			c-0.288-1.08,0.172-2.212,1.548-2.582c1.466-0.395,2.352,0.523,2.627,1.557c0.3,1.125-0.302,2.173-1.198,2.734
			C31.178,22.489,30.005,22.018,29.682,20.801z M34.309,29.694c-1.531,0.412-2.77-0.485-3.062-1.761
			c-0.33-1.24,0.19-2.413,1.435-3.191c1.72,0.03,3.027,0.564,3.432,2.079C36.455,28.107,35.752,29.306,34.309,29.694z"/>
	</g>
</g>
<g>
</g>
<g>
</g>
<g>
</g>
<g>
</g>
<g>
</g>
<g>
</g>
<g>
</g>
<g>
</g>
<g>
</g>
<g>
</g>
<g>
</g>
<g>
</g>
<g>
</g>
<g>
</g>
<g>
</g>
</svg>
