<?xml version="1.0" encoding="iso-8859-1"?>
<!-- Generator: Adobe Illustrator 16.0.4, SVG Export Plug-In . SVG Version: 6.00 Build 0)  -->
<!DOCTYPE svg PUBLIC "-//W3C//DTD SVG 1.1//EN" "http://www.w3.org/Graphics/SVG/1.1/DTD/svg11.dtd">
<svg version="1.1" id="Layer_1" xmlns="http://www.w3.org/2000/svg" xmlns:xlink="http://www.w3.org/1999/xlink" x="0px" y="0px"
	 width="44px" height="44px" viewBox="0 0 44 44" style="enable-background:new 0 0 44 44;" xml:space="preserve">
<g id="_x31_006-eight-ball-toolbar_x40_2x.png">
	<g>
		<path d="M22,0C9.85,0,0,9.85,0,22s9.85,22,22,22s22-9.85,22-22S34.15,0,22,0z M22,41.991c-11.041,0-19.991-8.95-19.991-19.991
			S10.959,2.009,22,2.009S41.991,10.959,41.991,22S33.041,41.991,22,41.991z M24.986,8.014c-6.075,0-11,4.925-11,11s4.925,11,11,11
			s11-4.925,11-11S31.062,8.014,24.986,8.014z M25.002,28.004c-4.974,0-9.006-4.032-9.006-9.006c0-4.975,4.032-9.007,9.006-9.007
			c4.975,0,9.007,4.032,9.007,9.007C34.009,23.972,29.977,28.004,25.002,28.004z M27.063,18.127l-0.014-0.052
			c1.024-0.921,1.246-2.033,0.993-2.981c-0.367-1.379-1.821-2.539-4.158-1.912c-2.052,0.551-3.29,2.214-2.803,4.04
			c0.262,0.982,1.027,1.774,2.313,2.038l0.015,0.052c-1.101,0.905-1.632,2.063-1.26,3.46c0.418,1.568,2.137,2.714,4.673,2.032
			c2.319-0.623,3.597-2.406,3.063-4.405C29.515,19.002,28.373,18.274,27.063,18.127z M23.012,16.611
			c-0.216-0.81,0.129-1.66,1.164-1.938c1.102-0.296,1.768,0.393,1.975,1.169c0.226,0.844-0.227,1.63-0.901,2.052
			C24.137,17.879,23.255,17.525,23.012,16.611z M26.49,23.286c-1.151,0.31-2.082-0.364-2.302-1.321
			c-0.248-0.931,0.144-1.811,1.078-2.395c1.294,0.021,2.276,0.423,2.58,1.561C28.104,22.096,27.575,22.995,26.49,23.286z"/>
	</g>
</g>
<g>
</g>
<g>
</g>
<g>
</g>
<g>
</g>
<g>
</g>
<g>
</g>
<g>
</g>
<g>
</g>
<g>
</g>
<g>
</g>
<g>
</g>
<g>
</g>
<g>
</g>
<g>
</g>
<g>
</g>
</svg>
