<?xml version="1.0" encoding="iso-8859-1"?>
<!-- Generator: Adobe Illustrator 16.0.4, SVG Export Plug-In . SVG Version: 6.00 Build 0)  -->
<!DOCTYPE svg PUBLIC "-//W3C//DTD SVG 1.1//EN" "http://www.w3.org/Graphics/SVG/1.1/DTD/svg11.dtd">
<svg version="1.1" id="Layer_1" xmlns="http://www.w3.org/2000/svg" xmlns:xlink="http://www.w3.org/1999/xlink" x="0px" y="0px"
	 width="44px" height="44px" viewBox="0 0 44 44" style="enable-background:new 0 0 44 44;" xml:space="preserve">
<g id="_x31_250-eject_x40_2x.png">
	<g>
		<path d="M31,24H13c-0.553,0-1,0.447-1,1v4c0,0.553,0.447,1,1,1h18c0.553,0,1-0.447,1-1v-4C32,24.447,31.553,24,31,24z M22,0
			C9.85,0,0,9.85,0,22s9.85,22,22,22s22-9.85,22-22S34.15,0,22,0z M22,42C10.954,42,2,33.046,2,22S10.954,2,22,2s20,8.954,20,20
			S33.046,42,22,42z M31.669,20.257l-8.958-8.958c-0.003-0.003-0.006-0.007-0.01-0.01l-0.032-0.032l-0.006,0.007
			C22.486,11.104,22.257,11,22,11s-0.486,0.104-0.663,0.264l-0.006-0.007l-0.032,0.032c-0.003,0.003-0.007,0.007-0.01,0.01
			l-8.958,8.958l0.006,0.007C12.134,20.446,12,20.705,12,21c0,0.553,0.447,1,1,1h18c0.553,0,1-0.447,1-1
			c0-0.295-0.134-0.554-0.337-0.736L31.669,20.257z"/>
	</g>
</g>
<g>
</g>
<g>
</g>
<g>
</g>
<g>
</g>
<g>
</g>
<g>
</g>
<g>
</g>
<g>
</g>
<g>
</g>
<g>
</g>
<g>
</g>
<g>
</g>
<g>
</g>
<g>
</g>
<g>
</g>
</svg>
