<?xml version="1.0" encoding="UTF-8" standalone="no"?>
<svg width="58px" height="58px" viewBox="0 0 58 58" version="1.1" xmlns="http://www.w3.org/2000/svg" xmlns:xlink="http://www.w3.org/1999/xlink" xmlns:sketch="http://www.bohemiancoding.com/sketch/ns">
    <!-- Generator: Sketch 3.0.4 (8053) - http://www.bohemiancoding.com/sketch -->
    <title>1250-eject</title>
    <desc>Created with Sketch.</desc>
    <defs></defs>
    <g id="Page-1" stroke="none" stroke-width="1" fill="none" fill-rule="evenodd" sketch:type="MSPage">
        <g id="Glyphish-8-Icons" sketch:type="MSArtboardGroup" transform="translate(-884.000000, -1363.000000)" fill="#000000">
            <g id="1250-eject" sketch:type="MSLayerGroup" transform="translate(884.036996, 1363.860499)">
                <g id="_x31_250-eject_x40_2x.png" sketch:type="MSShapeGroup">
                    <path d="M39,30 L17,30 C16.447,30 16,30.447 16,31 L16,31.001 L16,36.999 L16,37 C16,37.553 16.447,38 17,38 L39,38 C39.553,38 40,37.553 40,37 L40,31 C40,30.447 39.553,30 39,30 L39,30 Z M39.776,26.369 L39.71,26.297 C39.708,26.295 39.707,26.293 39.705,26.292 L28.776,14.369 L28.764,14.379 C28.582,14.153 28.313,14 28,14 C27.687,14 27.419,14.153 27.235,14.379 L27.223,14.369 L16.296,26.291 C16.294,26.293 16.292,26.296 16.289,26.298 L16.224,26.369 L16.236,26.379 C16.096,26.551 16,26.762 16,27 C16,27.553 16.447,28 17,28 L39,28 C39.553,28 40,27.553 40,27 C40,26.762 39.904,26.551 39.765,26.379 L39.776,26.369 L39.776,26.369 Z M28,0 C12.536,0 0,12.536 0,28 C0,43.464 12.536,56 28,56 C43.464,56 56,43.464 56,28 C56,12.536 43.464,0 28,0 L28,0 Z M28,54 C13.641,54 2,42.359 2,28 C2,13.641 13.641,2 28,2 C42.359,2 54,13.641 54,28 C54,42.359 42.359,54 28,54 L28,54 Z" id="Shape"></path>
                </g>
            </g>
        </g>
    </g>
</svg>