<?xml version="1.0" encoding="iso-8859-1"?>
<!-- Generator: Adobe Illustrator 16.0.4, SVG Export Plug-In . SVG Version: 6.00 Build 0)  -->
<!DOCTYPE svg PUBLIC "-//W3C//DTD SVG 1.1//EN" "http://www.w3.org/Graphics/SVG/1.1/DTD/svg11.dtd">
<svg version="1.1" id="Layer_1" xmlns="http://www.w3.org/2000/svg" xmlns:xlink="http://www.w3.org/1999/xlink" x="0px" y="0px"
	 width="44px" height="36px" viewBox="0 0 44 36" style="enable-background:new 0 0 44 36;" xml:space="preserve">
<g id="_x39_50-ekg-toolbar_x40_2x.png">
	<g>
		<path d="M40,23c-1.861,0-3.412,1.277-3.858,3H30.7l-3.771-10.371l-0.003,0.001C26.777,15.262,26.421,15,26,15
			c-0.481,0-0.865,0.348-0.96,0.802l-0.02-0.004l-4.57,14.474L16.996,0.913l-0.014,0.002C16.938,0.404,16.521,0,16,0
			c-0.448,0-0.813,0.3-0.94,0.706l-0.014-0.004L9.207,26H6l-6,1l6,1h4c0.448,0,0.813-0.3,0.94-0.706l0.014,0.004l4.725-20.473
			l3.325,28.262l0.014-0.001C19.062,35.596,19.479,36,20,36c0.481,0,0.865-0.348,0.96-0.802l0.02,0.004l5.085-16.102l3.007,8.271
			l0.003-0.001C29.223,27.738,29.579,28,30,28h6.142c0.446,1.723,1.997,3,3.858,3c2.209,0,4-1.791,4-4S42.209,23,40,23z M40,29
			c-1.104,0-2-0.896-2-2s0.896-2,2-2s2,0.896,2,2S41.104,29,40,29z"/>
	</g>
</g>
<g>
</g>
<g>
</g>
<g>
</g>
<g>
</g>
<g>
</g>
<g>
</g>
<g>
</g>
<g>
</g>
<g>
</g>
<g>
</g>
<g>
</g>
<g>
</g>
<g>
</g>
<g>
</g>
<g>
</g>
</svg>
