<?xml version="1.0" encoding="iso-8859-1"?>
<!-- Generator: Adobe Illustrator 16.0.4, SVG Export Plug-In . SVG Version: 6.00 Build 0)  -->
<!DOCTYPE svg PUBLIC "-//W3C//DTD SVG 1.1//EN" "http://www.w3.org/Graphics/SVG/1.1/DTD/svg11.dtd">
<svg version="1.1" id="Layer_1" xmlns="http://www.w3.org/2000/svg" xmlns:xlink="http://www.w3.org/1999/xlink" x="0px" y="0px"
	 width="56px" height="48px" viewBox="0 0 56 48" style="enable-background:new 0 0 56 48;" xml:space="preserve">
<g id="_x39_50-ekg_x40_2x.png">
	<g>
		<path d="M52,29c-1.861,0-3.412,1.277-3.858,3h-7.465l-5.748-14.371l-0.003,0.001C34.777,17.262,34.421,17,34,17
			c-0.481,0-0.865,0.348-0.96,0.802l-0.02-0.004l-4.616,22.312L24.996,0.913l-0.014,0.002C24.938,0.404,24.521,0,24,0
			c-0.448,0-0.813,0.3-0.94,0.706l-0.014-0.004L13.265,32H8l-8,1l8,1h6c0.448,0,0.813-0.3,0.94-0.706l0.014,0.004l8.488-27.162
			l3.562,40.951l0.014-0.001C27.062,47.596,27.479,48,28,48c0.481,0,0.865-0.348,0.96-0.802l0.02,0.005l5.326-25.746l4.766,11.914
			l0.003-0.001C39.223,33.738,39.579,34,40,34h8.142c0.446,1.723,1.997,3,3.858,3c2.209,0,4-1.791,4-4S54.209,29,52,29z M52,35
			c-1.104,0-2-0.896-2-2s0.896-2,2-2s2,0.896,2,2S53.104,35,52,35z"/>
	</g>
</g>
<g>
</g>
<g>
</g>
<g>
</g>
<g>
</g>
<g>
</g>
<g>
</g>
<g>
</g>
<g>
</g>
<g>
</g>
<g>
</g>
<g>
</g>
<g>
</g>
<g>
</g>
<g>
</g>
<g>
</g>
</svg>
