<?xml version="1.0" encoding="UTF-8" standalone="no"?>
<svg width="58px" height="58px" viewBox="0 0 58 58" version="1.1" xmlns="http://www.w3.org/2000/svg" xmlns:xlink="http://www.w3.org/1999/xlink" xmlns:sketch="http://www.bohemiancoding.com/sketch/ns">
    <!-- Generator: Sketch 3.0.4 (8053) - http://www.bohemiancoding.com/sketch -->
    <title>1187-elephant</title>
    <desc>Created with Sketch.</desc>
    <defs></defs>
    <g id="Page-1" stroke="none" stroke-width="1" fill="none" fill-rule="evenodd" sketch:type="MSPage">
        <g id="Glyphish-8-Icons" sketch:type="MSArtboardGroup" transform="translate(-596.000000, -787.000000)" fill="#000000">
            <g id="1187-elephant" sketch:type="MSLayerGroup" transform="translate(596.036996, 787.860499)">
                <g id="_x31_187-elephant_x40_2x.png" sketch:type="MSShapeGroup">
                    <path d="M35.008,18 C33.351,18 32.008,19.343 32.008,21 C32.008,22.657 33.351,24 35.008,24 C36.665,24 38.008,22.657 38.008,21 C38.008,19.343 36.665,18 35.008,18 L35.008,18 Z M21.008,18 C19.351,18 18.008,19.343 18.008,21 C18.008,22.657 19.351,24 21.008,24 C22.665,24 24.008,22.657 24.008,21 C24.008,19.343 22.665,18 21.008,18 L21.008,18 Z M55.323,18.318 C55.664,15.949 56.015,13.935 56.015,11.124 C56.015,7.128 54.876,4.391 52.631,2.986 C50.057,1.381 46.225,1.779 41.547,4.143 C41.497,4.168 41.465,4.21 41.421,4.242 C38.308,1.725 33.954,0 28.008,0 C21.841,0 17.462,1.663 14.392,4.108 C9.749,1.779 5.943,1.39 3.384,2.986 C1.139,4.391 4.96686026e-14,7.128 4.96686026e-14,11.124 C4.96686026e-14,13.936 0.352,15.949 0.692,18.318 C1.347,22.883 1.966,27.195 0.042,33.682 C-0.049,33.989 0.009,34.321 0.198,34.578 C0.386,34.835 0.684,34.986 1.001,34.986 C1.23,34.986 6.014,34.933 10.715,31.381 C11.394,32.916 12.191,34.356 13.102,35.677 C12.881,36.125 12.681,36.641 12.51,37.246 L10.106,45.796 C9.675,47.325 11.012,47.894 11.398,47.991 C11.544,48.029 11.553,47.998 11.27,47.926 C11.837,48.071 12.464,47.903 12.915,47.455 C13.057,47.314 16.4,44.238 18.977,41.376 C19.843,41.914 20.751,42.376 21.698,42.763 C21.622,44.784 21.251,46.892 20.654,48.684 C19.783,51.296 19.781,52.996 20.647,54.199 C21.788,55.782 23.59,56 26.008,56 L26.009,56 L30.007,56 L30.008,56 C32.426,56 34.228,55.782 35.369,54.198 C36.235,52.996 36.233,51.296 35.362,48.683 C34.767,46.898 34.397,44.798 34.319,42.786 C35.275,42.399 36.173,41.901 37.043,41.352 C39.616,44.221 42.968,47.314 43.109,47.455 C43.558,47.902 44.183,48.07 44.75,47.926 C44.468,47.998 44.476,48.03 44.623,47.991 C45.007,47.893 46.34,47.325 45.911,45.796 L43.513,37.246 C43.338,36.623 43.132,36.092 42.906,35.635 C43.813,34.323 44.632,32.913 45.306,31.385 C50.005,34.934 54.785,34.987 55.015,34.987 C55.331,34.987 55.629,34.836 55.818,34.579 C56.007,34.322 56.065,33.99 55.974,33.683 C54.049,27.195 54.668,22.884 55.323,18.318 L55.323,18.318 Z M2.358,32.819 C3.916,26.674 3.285,22.283 2.673,18.027 C2.343,15.728 2.002,13.789 2.002,11.124 C2.002,8.892 2.425,5.967 4.437,4.71 C6.258,3.573 9.14,3.89 12.785,5.587 C9.23,9.328 8.008,14.256 8.008,18.149 C8.008,22.115 8.686,25.952 9.926,29.413 C7.048,31.728 4.044,32.547 2.358,32.819 L2.358,32.819 Z M17.903,39.5 C16.96,40.584 15.274,42.4 12.474,45.066 L14.529,37.761 C15.201,35.536 16.207,35.017 16.99,34.996 C16.996,34.996 17.002,34.999 17.008,34.999 C17.17,34.999 17.308,35.027 17.46,35.038 C17.639,35.076 17.793,35.131 17.91,35.181 C18.957,35.612 18.963,37.066 18.943,36.905 C19.024,37.466 18.885,38.371 17.903,39.5 L17.903,39.5 Z M20.213,39.814 C20.73,38.98 20.929,38.229 20.988,37.585 C21.347,38.445 21.563,39.475 21.661,40.588 C21.166,40.351 20.682,40.096 20.213,39.814 L20.213,39.814 Z M34.354,40.584 C34.453,39.465 34.681,38.442 35.043,37.579 C35.098,38.221 35.315,38.979 35.827,39.808 C35.357,40.085 34.866,40.345 34.354,40.584 L34.354,40.584 Z M43.548,45.066 C40.756,42.4 39.075,40.584 38.135,39.5 C37.156,38.371 37.017,37.466 37.098,36.905 C37.078,37.066 37.084,35.612 38.127,35.181 C38.247,35.13 38.405,35.074 38.588,35.035 C38.73,35.027 38.857,35 39.008,35 C39.016,35 39.023,34.996 39.03,34.996 C39.813,35.01 40.824,35.522 41.499,37.762 L43.548,45.066 L43.548,45.066 Z M41.663,33.96 C40.773,33.182 39.814,33.005 39.082,33.016 C39.057,33.014 39.034,33 39.008,33 C36.799,33 35.112,33.787 33.993,35.339 C31.079,39.382 32.713,47.06 33.466,49.317 C34.086,51.178 34.181,52.427 33.747,53.029 C33.269,53.691 32.486,54 30.008,54 L26.008,54 C23.529,54 22.747,53.691 22.269,53.028 C22.1,52.794 22.035,52.431 22.026,52 L27.007,52 C27.56,52 28.007,51.553 28.007,51 C28.007,50.448 27.56,50 27.007,50 L22.354,50 C22.417,49.773 22.466,49.565 22.549,49.316 C22.66,48.984 22.79,48.522 22.922,47.983 C22.952,47.985 22.978,48 23.008,48 L25.008,48 C25.561,48 26.008,47.553 26.008,47 C26.008,46.447 25.561,46 25.008,46 L23.328,46 C23.875,42.719 24.05,38.151 22.022,35.339 C20.904,33.787 19.217,33 17.008,33 C16.973,33 16.943,33.017 16.908,33.021 C16.182,33.019 15.248,33.196 14.377,33.952 C11.519,29.492 10.008,23.752 10.008,18.15 C10.008,15.454 10.876,2.001 28.008,2.001 C42.246,2.001 46.008,12.565 46.008,18.15 C46.008,24.086 44.462,29.636 41.663,33.96 L41.663,33.96 Z M53.657,32.819 C51.972,32.547 48.969,31.727 46.092,29.416 C47.33,25.952 48.008,22.115 48.008,18.149 C48.008,14.293 46.574,9.422 43.001,5.693 C46.755,3.901 49.719,3.548 51.578,4.71 C53.591,5.967 54.013,8.892 54.013,11.124 C54.013,13.789 53.672,15.728 53.342,18.027 C52.73,22.283 52.1,26.675 53.657,32.819 L53.657,32.819 Z" id="Shape"></path>
                </g>
            </g>
        </g>
    </g>
</svg>