<?xml version="1.0" encoding="iso-8859-1"?>
<!-- Generator: Adobe Illustrator 16.0.4, SVG Export Plug-In . SVG Version: 6.00 Build 0)  -->
<!DOCTYPE svg PUBLIC "-//W3C//DTD SVG 1.1//EN" "http://www.w3.org/Graphics/SVG/1.1/DTD/svg11.dtd">
<svg version="1.1" id="Layer_1" xmlns="http://www.w3.org/2000/svg" xmlns:xlink="http://www.w3.org/1999/xlink" x="0px" y="0px"
	 width="43.969px" height="44px" viewBox="0 0 43.969 44" style="enable-background:new 0 0 43.969 44;" xml:space="preserve">
<g id="_x31_187-elephant_x40_2x.png">
	<g>
		<path d="M43.415,14.855c0.272-1.869,0.554-3.457,0.554-5.675c0-3.151-0.91-5.311-2.706-6.417C40.435,2.254,39.444,2,38.312,2
			c-1.463,0-3.173,0.449-5.062,1.293c0.337,0.472,0.649,0.969,0.947,1.479C31.684,2.03,27.768,0,21.969,0
			c-5.451,0-9.165,1.608-11.637,3.896c0.131-0.198,0.248-0.411,0.386-0.604C8.829,2.449,7.119,2,5.656,2
			c-1.132,0-2.122,0.254-2.95,0.764C0.91,3.87,0,6.029,0,9.181c0,2.218,0.281,3.806,0.554,5.675c0.524,3.6,1.02,7-0.521,12.117
			c-0.072,0.241-0.026,0.503,0.125,0.706C0.309,27.881,0.548,28,0.801,28c0.179,0,3.826-0.047,7.497-2.654
			c0.601,1.289,1.346,2.451,2.159,3.535c-0.066,0.163-0.139,0.309-0.197,0.489l-2.184,6.856c-0.346,1.398,0.256,1.77,0.965,1.77
			c0.67,0,1.435-0.332,1.585-0.439c0.748-0.454,2.793-2.229,4.84-4.219c0.528,0.277,1.073,0.522,1.634,0.737
			c-0.007,0.173-0.025,0.341-0.036,0.512c-0.058,0.127-0.095,0.265-0.095,0.413c0,0.084,0.028,0.159,0.048,0.237
			c-0.13,1.358-0.375,2.614-0.652,3.446c-0.376,1.127-0.775,2.764,0.091,3.965C17.318,43.847,18.626,44,19.969,44h4
			c1.343,0,2.65-0.153,3.514-1.352c0.866-1.201,0.467-2.838,0.091-3.965c-0.354-1.064-0.663-2.818-0.735-4.601
			c0.562-0.214,1.1-0.473,1.625-0.754c2.05,1.994,4.1,3.773,4.849,4.228c0.15,0.107,0.915,0.439,1.585,0.439
			c0.709,0,1.311-0.371,0.965-1.77l-2.184-6.856c-0.055-0.17-0.123-0.304-0.185-0.458c0.817-1.093,1.529-2.303,2.137-3.598
			C39.314,27.951,42.988,28,43.168,28c0.253,0,0.492-0.119,0.643-0.321c0.151-0.203,0.197-0.465,0.125-0.706
			C42.396,21.855,42.891,18.455,43.415,14.855z M7.502,23.46c-1.871,1.428-3.787,2.054-5.088,2.327
			C3.489,21.178,3,17.822,2.525,14.566l-0.099-0.673c-0.232-1.562-0.434-2.911-0.434-4.713c0-2.409,0.591-3.994,1.756-4.712
			c0.504-0.311,1.146-0.468,1.907-0.468c1.044,0,2.317,0.317,3.717,0.888c-2.527,2.915-3.404,6.604-3.404,9.549
			c0,3.163,0.546,6.225,1.541,8.986C7.508,23.437,7.505,23.448,7.502,23.46z M15.193,30.789c-1.745,1.772-3.556,3.413-4.667,4.336
			l1.637-5.139c0.569-1.768,1.521-1.979,2.191-1.982c0.345,0.005,0.646,0.07,0.917,0.191c0.099,0.052,0.208,0.098,0.28,0.164
			c0.006,0.004,0.013,0.009,0.019,0.013c0.357,0.342,0.406,0.812,0.408,0.832C16.05,29.639,15.771,30.202,15.193,30.789z
			 M28.744,30.789c-0.577-0.587-0.856-1.15-0.785-1.585c0.002-0.021,0.051-0.49,0.408-0.832c0.006-0.004,0.013-0.009,0.019-0.013
			c0.072-0.066,0.182-0.112,0.28-0.164c0.271-0.121,0.572-0.187,0.917-0.191c0.671,0.003,1.622,0.215,2.191,1.982l1.637,5.139
			C32.3,34.202,30.489,32.562,28.744,30.789z M32.349,27.102c-0.904-0.878-1.954-1.09-2.723-1.099L29.625,26
			c-0.006,0-0.01,0.002-0.017,0.002c-0.012,0-0.025-0.002-0.036-0.002c-0.446,0-0.789,0.065-0.938,0.099c0,0,0,0-0.001,0
			c0-0.001-0.004-0.002-0.011-0.002c-0.008,0-0.039,0.007-0.054,0.009c-0.029,0.006-0.064,0.009-0.094,0.016
			c-0.179,0.038-0.493,0.134-0.848,0.309c-0.03,0.016-0.06,0.033-0.089,0.05c-0.429,0.225-0.883,0.563-1.19,1.073
			c-0.055,0.069-0.115,0.121-0.169,0.195c-2.106,2.922-1.366,8.977-0.502,11.568c0.479,1.438,0.32,1.973,0.184,2.162
			C25.689,41.717,25.506,42,23.969,42h-4c-1.537,0-1.721-0.283-1.892-0.521c-0.112-0.155-0.233-0.552-0.011-1.479h3.902
			c0.553,0,1-0.447,1-1s-0.447-1-1-1h-3.354c0.136-0.604,0.256-1.277,0.346-2h1.009c0.553,0,1-0.447,1-1c0-0.552-0.447-1-1-1h-0.856
			c0.071-2.312-0.245-4.715-1.354-6.252c-0.054-0.074-0.114-0.126-0.169-0.195c-0.308-0.51-0.762-0.849-1.19-1.073
			c-0.029-0.017-0.059-0.034-0.089-0.05c-0.354-0.175-0.669-0.271-0.848-0.309c-0.029-0.007-0.063-0.01-0.094-0.016
			c-0.015-0.002-0.046-0.009-0.054-0.009c-0.007,0-0.011,0.001-0.011,0.002c-0.001,0-0.001,0-0.001,0
			C15.154,26.065,14.812,26,14.365,26c-0.01,0-0.022,0.002-0.032,0.002c-0.008,0-0.013-0.002-0.021-0.002l-0.001,0.004
			c-0.766,0.009-1.812,0.217-2.713,1.087C9.225,23.573,7.97,18.946,7.97,14.438c0-1.436,0.271-5.1,2.783-8.102
			C13.161,3.459,16.935,2,21.969,2c4.784,0,8.481,1.467,10.987,4.361c1.886,2.179,3.012,5.197,3.012,8.076
			C35.968,19.226,34.678,23.688,32.349,27.102z M41.556,25.787c-1.302-0.273-3.218-0.899-5.089-2.327
			c-0.009-0.038-0.016-0.074-0.023-0.111c0.985-2.739,1.525-5.772,1.525-8.911c0-2.917-1.025-6.566-3.581-9.468
			c1.483-0.627,2.828-0.969,3.925-0.969c0.762,0,1.403,0.157,1.907,0.468c1.165,0.718,1.756,2.303,1.756,4.712
			c0,1.802-0.201,3.15-0.434,4.713l-0.099,0.673C40.969,17.822,40.479,21.178,41.556,25.787z M17.969,14c-1.104,0-2,0.896-2,2
			s0.896,2,2,2s2-0.896,2-2S19.073,14,17.969,14z M25.969,14c-1.104,0-2,0.896-2,2s0.896,2,2,2s2-0.896,2-2S27.073,14,25.969,14z"/>
	</g>
</g>
<g>
</g>
<g>
</g>
<g>
</g>
<g>
</g>
<g>
</g>
<g>
</g>
<g>
</g>
<g>
</g>
<g>
</g>
<g>
</g>
<g>
</g>
<g>
</g>
<g>
</g>
<g>
</g>
<g>
</g>
</svg>
