<?xml version="1.0" encoding="iso-8859-1"?>
<!-- Generator: Adobe Illustrator 16.0.4, SVG Export Plug-In . SVG Version: 6.00 Build 0)  -->
<!DOCTYPE svg PUBLIC "-//W3C//DTD SVG 1.1//EN" "http://www.w3.org/Graphics/SVG/1.1/DTD/svg11.dtd">
<svg version="1.1" id="Layer_1" xmlns="http://www.w3.org/2000/svg" xmlns:xlink="http://www.w3.org/1999/xlink" x="0px" y="0px"
	 width="56px" height="56px" viewBox="0 0 56 56" style="enable-background:new 0 0 56 56;" xml:space="preserve">
<g id="_x31_067-enter-fullscreen_x40_2x.png">
	<g>
		<path d="M23,32c-0.276,0-0.526,0.112-0.707,0.293L2,52.586V35c0-0.553-0.447-1-1-1s-1,0.447-1,1v20c0,0.553,0.447,1,1,1h20
			c0.553,0,1-0.447,1-1s-0.447-1-1-1H3.414l20.293-20.293C23.888,33.526,24,33.276,24,33C24,32.447,23.553,32,23,32z M55,0H35
			c-0.553,0-1,0.447-1,1s0.447,1,1,1h17.586L32.293,22.293C32.112,22.474,32,22.724,32,23c0,0.553,0.447,1,1,1
			c0.276,0,0.526-0.112,0.707-0.293L54,3.414V21c0,0.553,0.447,1,1,1s1-0.447,1-1V1C56,0.447,55.553,0,55,0z"/>
	</g>
</g>
<g>
</g>
<g>
</g>
<g>
</g>
<g>
</g>
<g>
</g>
<g>
</g>
<g>
</g>
<g>
</g>
<g>
</g>
<g>
</g>
<g>
</g>
<g>
</g>
<g>
</g>
<g>
</g>
<g>
</g>
</svg>
