<?xml version="1.0" encoding="iso-8859-1"?>
<!-- Generator: Adobe Illustrator 16.0.4, SVG Export Plug-In . SVG Version: 6.00 Build 0)  -->
<!DOCTYPE svg PUBLIC "-//W3C//DTD SVG 1.1//EN" "http://www.w3.org/Graphics/SVG/1.1/DTD/svg11.dtd">
<svg version="1.1" id="Layer_1" xmlns="http://www.w3.org/2000/svg" xmlns:xlink="http://www.w3.org/1999/xlink" x="0px" y="0px"
	 width="44px" height="32px" viewBox="0 0 44 32" style="enable-background:new 0 0 44 32;" xml:space="preserve">
<g id="_x37_30-envelope-toolbar_x40_2x.png">
	<g>
		<path d="M42,0H2C0.896,0,0,0.896,0,2v28c0,1.105,0.896,2,2,2h40c1.104,0,2-0.895,2-2V2C44,0.896,43.104,0,42,0z M39.928,2
			L23.417,20.408c-0.791,0.791-2.074,0.791-2.865,0L4.041,2H39.928z M2,2.732L14.179,16.25L2,29.305V2.732z M4.073,30l11.422-12.289
			l3.7,4.107c1.541,1.54,4.038,1.54,5.578,0l3.701-4.107L39.896,30H4.073z M42,29.336L29.792,16.25L42,2.701V29.336z"/>
	</g>
</g>
<g>
</g>
<g>
</g>
<g>
</g>
<g>
</g>
<g>
</g>
<g>
</g>
<g>
</g>
<g>
</g>
<g>
</g>
<g>
</g>
<g>
</g>
<g>
</g>
<g>
</g>
<g>
</g>
<g>
</g>
</svg>
