<?xml version="1.0" encoding="iso-8859-1"?>
<!-- Generator: Adobe Illustrator 16.0.4, SVG Export Plug-In . SVG Version: 6.00 Build 0)  -->
<!DOCTYPE svg PUBLIC "-//W3C//DTD SVG 1.1//EN" "http://www.w3.org/Graphics/SVG/1.1/DTD/svg11.dtd">
<svg version="1.1" id="Layer_1" xmlns="http://www.w3.org/2000/svg" xmlns:xlink="http://www.w3.org/1999/xlink" x="0px" y="0px"
	 width="56px" height="36px" viewBox="0 0 56 36" style="enable-background:new 0 0 56 36;" xml:space="preserve">
<g id="_x37_30-envelope_x40_2x.png">
	<g>
		<path d="M54,0H2C0.896,0,0,0.896,0,2v32c0,1.104,0.896,2,2,2h52c1.104,0,2-0.896,2-2V2C56,0.896,55.104,0,54,0z M51.824,2
			L29.417,24.408c-0.791,0.791-2.074,0.791-2.865,0L4.144,2H51.824z M2,2.623L17.367,17.99L2,33.376V2.623z M4.143,34l14.608-14.626
			l6.444,6.444c1.541,1.54,4.038,1.54,5.578,0l6.444-6.444L51.825,34H4.143z M54,33.406L38.602,17.99L54,2.592V33.406z"/>
	</g>
</g>
<g>
</g>
<g>
</g>
<g>
</g>
<g>
</g>
<g>
</g>
<g>
</g>
<g>
</g>
<g>
</g>
<g>
</g>
<g>
</g>
<g>
</g>
<g>
</g>
<g>
</g>
<g>
</g>
<g>
</g>
</svg>
