<?xml version="1.0" encoding="iso-8859-1"?>
<!-- Generator: Adobe Illustrator 16.0.4, SVG Export Plug-In . SVG Version: 6.00 Build 0)  -->
<!DOCTYPE svg PUBLIC "-//W3C//DTD SVG 1.1//EN" "http://www.w3.org/Graphics/SVG/1.1/DTD/svg11.dtd">
<svg version="1.1" id="Layer_1" xmlns="http://www.w3.org/2000/svg" xmlns:xlink="http://www.w3.org/1999/xlink" x="0px" y="0px"
	 width="44px" height="44px" viewBox="0 0 44 44" style="enable-background:new 0 0 44 44;" xml:space="preserve">
<g id="_x31_259-evernote_x40_2x.png">
	<g>
		<path d="M11.385,13.434C11.385,13.434,11.385,13.434,11.385,13.434h2.692c0.153,0,0.277-0.122,0.278-0.271
			c0-0.001-0.033-2.252-0.033-2.878v-0.007c0-0.515,0.111-0.963,0.304-1.338l0.092-0.169c-0.011,0.001-0.021,0.007-0.031,0.017
			l-5.228,5.061c-0.01,0.008-0.017,0.019-0.02,0.029c0.108-0.052,0.256-0.123,0.277-0.133
			C10.172,13.544,10.724,13.434,11.385,13.434z M30.812,11c-0.663-0.234-2.009-0.477-3.699-0.672
			c-1.36-0.156-2.959-0.144-3.924-0.114c-0.116-0.774-0.673-1.482-1.296-1.728c-1.66-0.652-4.224-0.495-4.883-0.314
			c-0.522,0.143-1.102,0.436-1.424,0.886c-0.217,0.301-0.356,0.687-0.357,1.226c0,0.306,0.009,1.023,0.017,1.662
			c0.008,0.641,0.017,1.213,0.017,1.217c0,0.57-0.474,1.034-1.061,1.035h-2.69c-0.574,0-1.013,0.094-1.348,0.242
			c-0.336,0.149-0.573,0.35-0.754,0.587c-0.359,0.471-0.422,1.052-0.42,1.646c0,0,0.005,0.484,0.124,1.422
			c0.1,0.727,0.906,5.797,1.672,7.339c0.297,0.601,0.495,0.851,1.079,1.114c1.3,0.544,4.269,1.148,5.66,1.321
			c1.39,0.173,2.262,0.538,2.781-0.525c0.002-0.003,0.104-0.265,0.245-0.649c0.451-1.334,0.514-2.518,0.514-3.375
			c0-0.086,0.131-0.091,0.131,0c0,0.605-0.118,2.746,1.538,3.32c0.654,0.227,2.011,0.428,3.389,0.586
			c1.246,0.14,2.151,0.618,2.151,3.739c0,1.899-0.409,2.159-2.545,2.159c-1.731,0-2.392,0.044-2.392-1.299
			c0-1.085,1.1-0.971,1.915-0.971c0.363,0,0.1-0.265,0.1-0.935c0-0.666,0.427-1.051,0.022-1.061
			c-2.817-0.075-4.476-0.003-4.476,3.437c0,3.123,1.225,3.703,5.224,3.703c3.136,0,4.241-0.1,5.536-4.021
			c0.257-0.774,0.876-3.137,1.251-7.104c0.237-2.509-0.224-10.079-0.589-11.99C32.106,11.767,31.427,11.216,30.812,11z
			 M26.854,21.251c-0.387-0.014-0.76,0.011-1.107,0.065c0.098-0.771,0.424-1.717,1.579-1.678c1.278,0.043,1.457,1.223,1.462,2.021
			C28.248,21.425,27.581,21.275,26.854,21.251z M22,0C9.85,0,0,9.85,0,22s9.85,22,22,22s22-9.85,22-22S34.15,0,22,0z M22,42
			C10.954,42,2,33.046,2,22S10.954,2,22,2s20,8.954,20,20S33.046,42,22,42z"/>
	</g>
</g>
<g>
</g>
<g>
</g>
<g>
</g>
<g>
</g>
<g>
</g>
<g>
</g>
<g>
</g>
<g>
</g>
<g>
</g>
<g>
</g>
<g>
</g>
<g>
</g>
<g>
</g>
<g>
</g>
<g>
</g>
</svg>
