<?xml version="1.0" encoding="UTF-8" standalone="no"?>
<svg width="58px" height="58px" viewBox="0 0 58 58" version="1.1" xmlns="http://www.w3.org/2000/svg" xmlns:xlink="http://www.w3.org/1999/xlink" xmlns:sketch="http://www.bohemiancoding.com/sketch/ns">
    <!-- Generator: Sketch 3.0.4 (8053) - http://www.bohemiancoding.com/sketch -->
    <title>1259-evernote</title>
    <desc>Created with Sketch.</desc>
    <defs></defs>
    <g id="Page-1" stroke="none" stroke-width="1" fill="none" fill-rule="evenodd" sketch:type="MSPage">
        <g id="Glyphish-8-Icons" sketch:type="MSArtboardGroup" transform="translate(-788.000000, -1459.000000)" fill="#000000">
            <g id="1259-evernote" sketch:type="MSLayerGroup" transform="translate(788.036996, 1459.860499)">
                <g id="_x31_259-evernote_x40_2x.png" sketch:type="MSShapeGroup">
                    <path d="M14.198,16.367 L14.2,16.367 L17.79,16.367 C17.995,16.367 18.161,16.201 18.161,15.998 C18.161,15.997 18.117,12.94 18.117,12.091 L18.117,12.08 C18.117,11.383 18.264,10.773 18.521,10.264 L18.644,10.035 C18.63,10.037 18.617,10.044 18.603,10.056 L11.628,16.928 C11.614,16.94 11.607,16.953 11.603,16.969 C11.747,16.898 11.944,16.801 11.972,16.788 C12.58,16.517 13.316,16.367 14.198,16.367 L14.198,16.367 Z M40.114,13.062 C39.229,12.745 37.434,12.416 35.179,12.151 C33.365,11.939 31.232,11.956 29.944,11.995 C29.79,10.943 29.048,9.982 28.216,9.649 C26.001,8.764 22.58,8.977 21.702,9.222 C21.004,9.415 20.231,9.813 19.802,10.425 C19.514,10.834 19.327,11.358 19.325,12.09 C19.325,12.504 19.337,13.48 19.347,14.346 C19.358,15.216 19.368,15.993 19.368,15.998 C19.368,16.772 18.736,17.402 17.954,17.404 L14.364,17.404 C13.598,17.404 13.013,17.531 12.566,17.733 C12.119,17.935 11.801,18.208 11.56,18.529 C11.081,19.169 10.998,19.958 10.999,20.763 C10.999,20.763 11.006,21.421 11.166,22.696 C11.299,23.681 12.374,30.567 13.396,32.662 C13.792,33.476 14.055,33.815 14.834,34.175 C16.567,34.913 20.529,35.734 22.386,35.969 C24.24,36.204 25.403,36.699 26.096,35.255 C26.098,35.252 26.235,34.897 26.422,34.374 C27.024,32.562 27.108,30.955 27.108,29.791 C27.108,29.673 27.283,29.667 27.283,29.791 C27.283,30.612 27.125,33.52 29.335,34.299 C30.207,34.607 32.018,34.88 33.856,35.095 C35.518,35.284 36.725,35.935 36.725,40.173 C36.725,42.752 36.179,43.106 33.33,43.106 C31.019,43.106 30.14,43.165 30.14,41.341 C30.14,39.867 31.607,40.022 32.694,40.022 C33.179,40.022 32.827,39.664 32.827,38.754 C32.827,37.85 33.396,37.326 32.858,37.314 C29.098,37.211 26.886,37.309 26.886,41.981 C26.886,46.222 28.52,47.01 33.856,47.01 C38.039,47.01 39.514,46.873 41.241,41.548 C41.583,40.496 42.41,37.288 42.91,31.901 C43.226,28.495 42.612,18.214 42.125,15.621 C41.843,14.104 40.935,13.355 40.114,13.062 L40.114,13.062 Z M34.835,26.982 C34.318,26.964 33.821,26.997 33.357,27.071 C33.488,26.024 33.922,24.74 35.462,24.793 C37.168,24.852 37.407,26.453 37.413,27.538 C36.694,27.22 35.805,27.017 34.835,26.982 L34.835,26.982 Z M28,0 C12.536,0 0,12.536 0,28 C0,43.464 12.536,56 28,56 C43.464,56 56,43.464 56,28 C56,12.536 43.464,0 28,0 L28,0 Z M28,54 C13.641,54 2,42.359 2,28 C2,13.641 13.641,2 28,2 C42.359,2 54,13.641 54,28 C54,42.359 42.359,54 28,54 L28,54 Z" id="Shape"></path>
                </g>
            </g>
        </g>
    </g>
</svg>