<?xml version="1.0" encoding="iso-8859-1"?>
<!-- Generator: Adobe Illustrator 16.0.4, SVG Export Plug-In . SVG Version: 6.00 Build 0)  -->
<!DOCTYPE svg PUBLIC "-//W3C//DTD SVG 1.1//EN" "http://www.w3.org/Graphics/SVG/1.1/DTD/svg11.dtd">
<svg version="1.1" id="Layer_1" xmlns="http://www.w3.org/2000/svg" xmlns:xlink="http://www.w3.org/1999/xlink" x="0px" y="0px"
	 width="44px" height="44px" viewBox="0 0 44 44" style="enable-background:new 0 0 44 44;" xml:space="preserve">
<g id="_x31_068-exit-fullscreen-toolbar_x40_2x.png">
	<g>
		<path d="M19,24H3c-0.553,0-1,0.447-1,1s0.447,1,1,1h13.586L0.293,42.293C0.112,42.474,0,42.724,0,43c0,0.553,0.447,1,1,1
			c0.276,0,0.526-0.111,0.707-0.293L18,27.414V41c0,0.553,0.447,1,1,1s1-0.447,1-1V25C20,24.447,19.553,24,19,24z M44,1
			c0-0.553-0.447-1-1-1c-0.276,0-0.526,0.112-0.707,0.293L26,16.586V3c0-0.553-0.447-1-1-1s-1,0.447-1,1v16c0,0.553,0.447,1,1,1h16
			c0.553,0,1-0.447,1-1s-0.447-1-1-1H27.414L43.707,1.707C43.888,1.526,44,1.276,44,1z"/>
	</g>
</g>
<g>
</g>
<g>
</g>
<g>
</g>
<g>
</g>
<g>
</g>
<g>
</g>
<g>
</g>
<g>
</g>
<g>
</g>
<g>
</g>
<g>
</g>
<g>
</g>
<g>
</g>
<g>
</g>
<g>
</g>
</svg>
