<?xml version="1.0" encoding="iso-8859-1"?>
<!-- Generator: Adobe Illustrator 16.0.4, SVG Export Plug-In . SVG Version: 6.00 Build 0)  -->
<!DOCTYPE svg PUBLIC "-//W3C//DTD SVG 1.1//EN" "http://www.w3.org/Graphics/SVG/1.1/DTD/svg11.dtd">
<svg version="1.1" id="Layer_1" xmlns="http://www.w3.org/2000/svg" xmlns:xlink="http://www.w3.org/1999/xlink" x="0px" y="0px"
	 width="44px" height="24px" viewBox="0 0 44 24" style="enable-background:new 0 0 44 24;" xml:space="preserve">
<g id="_x37_51-eye-toolbar_x40_2x.png">
	<g>
		<path d="M22,12c2.204,0,3.991-1.791,3.991-4S24.204,4,22,4s-3.991,1.791-3.991,4S19.796,12,22,12z M22,0C11.786,0,0,8.8,0,12
			s11.786,12,22,12c10.214,0,22-8.8,22-12S32.214,0,22,0z M14.162,3.596c2.563-0.949,5.27-1.588,7.838-1.59
			c2.567-0.002,5.273,0.635,7.835,1.583C30.572,4.894,31,6.396,31,8c0,4.971-4.029,9-9,9s-9-4.029-9-9
			C13,6.397,13.427,4.898,14.162,3.596z M22,21.994C13,22,2.25,14.307,2.25,12c0-1.415,4.054-4.851,9.263-7.299
			C11.183,5.743,11,6.85,11,8c0,6.075,4.925,11,11,11s11-4.925,11-11c0-1.153-0.184-2.262-0.515-3.305
			c5.21,2.448,9.265,5.89,9.265,7.305C41.75,14.307,31,21.988,22,21.994z"/>
	</g>
</g>
<g>
</g>
<g>
</g>
<g>
</g>
<g>
</g>
<g>
</g>
<g>
</g>
<g>
</g>
<g>
</g>
<g>
</g>
<g>
</g>
<g>
</g>
<g>
</g>
<g>
</g>
<g>
</g>
<g>
</g>
</svg>
