<?xml version="1.0" encoding="iso-8859-1"?>
<!-- Generator: Adobe Illustrator 16.0.4, SVG Export Plug-In . SVG Version: 6.00 Build 0)  -->
<!DOCTYPE svg PUBLIC "-//W3C//DTD SVG 1.1//EN" "http://www.w3.org/Graphics/SVG/1.1/DTD/svg11.dtd">
<svg version="1.1" id="Layer_1" xmlns="http://www.w3.org/2000/svg" xmlns:xlink="http://www.w3.org/1999/xlink" x="0px" y="0px"
	 width="56px" height="30px" viewBox="0 0 56 30" style="enable-background:new 0 0 56 30;" xml:space="preserve">
<g id="_x37_51-eye_x40_2x.png">
	<g>
		<path d="M28,15c2.762,0,5-2.238,5-5s-2.238-5-5-5c-2.761,0-5,2.238-5,5S25.239,15,28,15z M39.807,2.499
			c-0.002-0.003-0.003-0.007-0.005-0.009c-0.086-0.034-0.175-0.062-0.262-0.095C35.808,0.953,31.818,0,28,0
			s-7.807,0.953-11.54,2.395c-0.086,0.033-0.175,0.062-0.262,0.096c-0.002,0.003-0.003,0.006-0.005,0.009C7.337,5.987,0,12.203,0,15
			c0,4,15,15,28,15s28-11,28-15C56,12.203,48.663,5.987,39.807,2.499z M17.58,4.064C20.949,2.822,24.542,2,28,2
			c3.458,0,7.051,0.822,10.42,2.064C39.423,5.813,40,7.838,40,10c0,6.627-5.372,12-12,12c-6.627,0-12-5.373-12-12
			C16,7.838,16.577,5.813,17.58,4.064z M28,28C16,28,2.188,18,2.188,15c0-1.908,5.564-6.647,12.719-9.845
			C14.342,6.668,14,8.289,14,10c0,7.732,6.268,14,14,14c7.732,0,14-6.268,14-14c0-1.711-0.342-3.332-0.906-4.845
			C48.248,8.353,53.812,13.092,53.812,15C53.812,18,40,28,28,28z"/>
	</g>
</g>
<g>
</g>
<g>
</g>
<g>
</g>
<g>
</g>
<g>
</g>
<g>
</g>
<g>
</g>
<g>
</g>
<g>
</g>
<g>
</g>
<g>
</g>
<g>
</g>
<g>
</g>
<g>
</g>
<g>
</g>
</svg>
