<?xml version="1.0" encoding="UTF-8" standalone="no"?>
<svg width="58px" height="58px" viewBox="0 0 58 58" version="1.1" xmlns="http://www.w3.org/2000/svg" xmlns:xlink="http://www.w3.org/1999/xlink" xmlns:sketch="http://www.bohemiancoding.com/sketch/ns">
    <!-- Generator: Sketch 3.0.4 (8053) - http://www.bohemiancoding.com/sketch -->
    <title>1260-facebook</title>
    <desc>Created with Sketch.</desc>
    <defs></defs>
    <g id="Page-1" stroke="none" stroke-width="1" fill="none" fill-rule="evenodd" sketch:type="MSPage">
        <g id="Glyphish-8-Icons" sketch:type="MSArtboardGroup" transform="translate(-884.000000, -1459.000000)" fill="#000000">
            <g id="1260-facebook" sketch:type="MSLayerGroup" transform="translate(884.036996, 1459.860499)">
                <g id="_x31_260-facebook_x40_2x.png" sketch:type="MSShapeGroup">
                    <path d="M24.04,20.508 L24.04,24.707 L19.002,24.707 L19.002,30.38 L24.038,30.38 L24.038,45 L30.053,45 L30.053,30.38 L35.039,30.38 L35.788,24.707 L30.053,24.707 L30.053,21.071 C30.053,19.424 30.503,18.3 32.915,18.3 L35.991,18.301 L35.991,13.208 C35.459,13.139 33.633,12.998 31.509,12.998 C27.073,12.998 24.04,15.637 24.04,20.508 L24.04,20.508 Z M28,0 C12.536,0 0,12.536 0,28 C0,43.464 12.536,56 28,56 C43.464,56 56,43.464 56,28 C56,12.536 43.464,0 28,0 L28,0 Z M28,54 C13.641,54 2,42.359 2,28 C2,13.641 13.641,2 28,2 C42.359,2 54,13.641 54,28 C54,42.359 42.359,54 28,54 L28,54 Z" id="Shape"></path>
                </g>
            </g>
        </g>
    </g>
</svg>