<?xml version="1.0" encoding="iso-8859-1"?>
<!-- Generator: Adobe Illustrator 16.0.4, SVG Export Plug-In . SVG Version: 6.00 Build 0)  -->
<!DOCTYPE svg PUBLIC "-//W3C//DTD SVG 1.1//EN" "http://www.w3.org/Graphics/SVG/1.1/DTD/svg11.dtd">
<svg version="1.1" id="Layer_1" xmlns="http://www.w3.org/2000/svg" xmlns:xlink="http://www.w3.org/1999/xlink" x="0px" y="0px"
	 width="52px" height="56px" viewBox="0 0 52 56" style="enable-background:new 0 0 52 56;" xml:space="preserve">
<g id="_x31_022-factory_x40_2x.png">
	<g>
		<path d="M7.835,7.986c0.549,0.097,1.062-0.277,1.151-0.822C9.021,6.953,9.906,2,15,2c2.107,0,3.11,1.51,4.57,3.973
			C21.161,8.658,23.144,12,28,12c4.726,0,6.479-3.199,7.89-5.77C37.327,3.607,38.344,2,41,2c5.913,0,5.999,8.634,6,9.001
			c0.001,0.552,0.449,0.998,1,0.998c0.001,0,0.001,0,0.001,0C48.553,11.999,49,11.552,49,11c0-3.805-1.672-11-8-11
			c-3.975,0-5.511,2.799-6.864,5.269C32.744,7.808,31.541,10,28,10c-3.717,0-5.171-2.452-6.71-5.048C19.847,2.518,18.354,0,15,0
			C9.584,0,7.408,4.472,7.014,6.836C6.923,7.38,7.291,7.896,7.835,7.986z M39,42c-1.657,0-3,1.344-3,3c0,1.657,1.343,3,3,3
			s3-1.343,3-3C42,43.344,40.657,42,39,42z M39,46c-0.553,0-1-0.447-1-1s0.447-1,1-1s1,0.447,1,1S39.553,46,39,46z M51,14h-6
			c-0.553,0-1,0.447-1,1v19h-6.586L25.707,22.293C25.526,22.112,25.276,22,25,22c-0.553,0-1,0.448-1,1v9.586L13.707,22.293
			C13.526,22.112,13.276,22,13,22c-0.553,0-1,0.448-1,1v9.586L1.707,22.293C1.526,22.112,1.276,22,1,22c-0.553,0-1,0.448-1,1v32
			c0,0.553,0.447,1,1,1h50c0.553,0,1-0.447,1-1V15C52,14.447,51.553,14,51,14z M50,54H2V25.414l10.293,10.293
			C12.474,35.888,12.724,36,13,36c0.553,0,1-0.447,1-1v-9.586l10.293,10.293C24.474,35.888,24.724,36,25,36c0.553,0,1-0.447,1-1
			v-9.586l10.293,10.293C36.474,35.888,36.724,36,37,36h8c0.553,0,1-0.447,1-1V16h4V54z M26,42c-1.657,0-3,1.344-3,3
			c0,1.657,1.343,3,3,3s3-1.343,3-3C29,43.344,27.657,42,26,42z M26,46c-0.553,0-1-0.447-1-1s0.447-1,1-1s1,0.447,1,1
			S26.553,46,26,46z M13,42c-1.657,0-3,1.344-3,3c0,1.657,1.343,3,3,3s3-1.343,3-3C16,43.344,14.657,42,13,42z M13,46
			c-0.553,0-1-0.447-1-1s0.447-1,1-1s1,0.447,1,1S13.553,46,13,46z"/>
	</g>
</g>
<g>
</g>
<g>
</g>
<g>
</g>
<g>
</g>
<g>
</g>
<g>
</g>
<g>
</g>
<g>
</g>
<g>
</g>
<g>
</g>
<g>
</g>
<g>
</g>
<g>
</g>
<g>
</g>
<g>
</g>
</svg>
