<?xml version="1.0" encoding="UTF-8" standalone="no"?>
<svg width="58px" height="58px" viewBox="0 0 58 58" version="1.1" xmlns="http://www.w3.org/2000/svg" xmlns:xlink="http://www.w3.org/1999/xlink" xmlns:sketch="http://www.bohemiancoding.com/sketch/ns">
    <!-- Generator: Sketch 3.0.4 (8053) - http://www.bohemiancoding.com/sketch -->
    <title>1262-fancy</title>
    <desc>Created with Sketch.</desc>
    <defs></defs>
    <g id="Page-1" stroke="none" stroke-width="1" fill="none" fill-rule="evenodd" sketch:type="MSPage">
        <g id="Glyphish-8-Icons" sketch:type="MSArtboardGroup" transform="translate(-116.000000, -1555.000000)" fill="#000000">
            <g id="1262-fancy" sketch:type="MSLayerGroup" transform="translate(116.036996, 1555.860499)">
                <g id="_x31_262-fancy_x40_2x.png" sketch:type="MSShapeGroup">
                    <path d="M17.997,20 C13.581,20 10,23.582 10,28 C10,32.419 13.581,36 17.997,36 C22.413,36 25.994,32.419 25.994,28 C25.994,23.582 22.414,20 17.997,20 L17.997,20 Z M28,0 C12.536,0 0,12.536 0,28 C0,43.464 12.536,56 28,56 C43.464,56 56,43.464 56,28 C56,12.536 43.464,0 28,0 L28,0 Z M28,54 C13.641,54 2,42.359 2,28 C2,13.641 13.641,2 28,2 C42.359,2 54,13.641 54,28 C54,42.359 42.359,54 28,54 L28,54 Z M38.003,20 C33.586,20 30.006,23.582 30.006,28 C30.006,32.419 33.586,36 38.003,36 C42.42,36 46,32.419 46,28 C46,23.582 42.42,20 38.003,20 L38.003,20 Z M38.002,34 C34.69,34 32.004,31.314 32.004,28 C32.004,24.687 34.689,22 38.002,22 C41.315,22 44,24.687 44,28 C44,31.314 41.315,34 38.002,34 L38.002,34 Z" id="Shape"></path>
                </g>
            </g>
        </g>
    </g>
</svg>