<?xml version="1.0" encoding="iso-8859-1"?>
<!-- Generator: Adobe Illustrator 16.0.4, SVG Export Plug-In . SVG Version: 6.00 Build 0)  -->
<!DOCTYPE svg PUBLIC "-//W3C//DTD SVG 1.1//EN" "http://www.w3.org/Graphics/SVG/1.1/DTD/svg11.dtd">
<svg version="1.1" id="Layer_1" xmlns="http://www.w3.org/2000/svg" xmlns:xlink="http://www.w3.org/1999/xlink" x="0px" y="0px"
	 width="44px" height="44px" viewBox="0 0 44 44" style="enable-background:new 0 0 44 44;" xml:space="preserve">
<g id="_x31_262-fancy_x40_2x.png">
	<g>
		<path d="M14.008,15.996c-3.311,0-5.996,2.688-5.996,6.004c0,3.316,2.685,6.005,5.996,6.005s5.995-2.688,5.995-6.005
			C20.003,18.685,17.319,15.996,14.008,15.996z M22,0C9.85,0,0,9.85,0,22s9.85,22,22,22s22-9.85,22-22S34.15,0,22,0z M22,42
			C10.954,42,2,33.046,2,22S10.954,2,22,2s20,8.954,20,20S33.046,42,22,42z M29.992,15.996c-3.311,0-5.995,2.688-5.995,6.004
			c0,3.316,2.684,6.005,5.995,6.005c3.312,0,5.996-2.688,5.996-6.005C35.987,18.685,33.303,15.996,29.992,15.996z M29.992,26.003
			c-2.211,0-4.003-1.792-4.003-4.003s1.792-4.003,4.003-4.003c2.211,0,4.004,1.792,4.004,4.003S32.204,26.003,29.992,26.003z"/>
	</g>
</g>
<g>
</g>
<g>
</g>
<g>
</g>
<g>
</g>
<g>
</g>
<g>
</g>
<g>
</g>
<g>
</g>
<g>
</g>
<g>
</g>
<g>
</g>
<g>
</g>
<g>
</g>
<g>
</g>
<g>
</g>
</svg>
