<?xml version="1.0" encoding="UTF-8" standalone="no"?>
<svg width="58px" height="58px" viewBox="0 0 58 58" version="1.1" xmlns="http://www.w3.org/2000/svg" xmlns:xlink="http://www.w3.org/1999/xlink" xmlns:sketch="http://www.bohemiancoding.com/sketch/ns">
    <!-- Generator: Sketch 3.0.4 (8053) - http://www.bohemiancoding.com/sketch -->
    <title>1261-fancy</title>
    <desc>Created with Sketch.</desc>
    <defs></defs>
    <g id="Page-1" stroke="none" stroke-width="1" fill="none" fill-rule="evenodd" sketch:type="MSPage">
        <g id="Glyphish-8-Icons" sketch:type="MSArtboardGroup" transform="translate(-20.000000, -1555.000000)" fill="#000000">
            <g id="1261-fancy" sketch:type="MSLayerGroup" transform="translate(20.036996, 1555.860499)">
                <g id="_x31_261-fancy_x40_2x.png" sketch:type="MSShapeGroup">
                    <path d="M28,0 C12.536,0 0,12.536 0,28 C0,43.464 12.536,56 28,56 C43.464,56 56,43.464 56,28 C56,12.536 43.464,0 28,0 L28,0 Z M28,54 C13.641,54 2,42.359 2,28 C2,13.641 13.641,2 28,2 C42.359,2 54,13.641 54,28 C54,42.359 42.359,54 28,54 L28,54 Z M28,8 C28,8 18,8 18,17 L18,36 C18,36 18,38 20,38 L26,38 L26,46 C26,46 26,48 28,48 C30,48 30,46 30,46 L30,38 L36,38 C36,38 38,38 38,36 L38,17 C38,8 28,8 28,8 L28,8 Z" id="Shape"></path>
                </g>
            </g>
        </g>
    </g>
</svg>