<?xml version="1.0" encoding="iso-8859-1"?>
<!-- Generator: Adobe Illustrator 16.0.4, SVG Export Plug-In . SVG Version: 6.00 Build 0)  -->
<!DOCTYPE svg PUBLIC "-//W3C//DTD SVG 1.1//EN" "http://www.w3.org/Graphics/SVG/1.1/DTD/svg11.dtd">
<svg version="1.1" id="Layer_1" xmlns="http://www.w3.org/2000/svg" xmlns:xlink="http://www.w3.org/1999/xlink" x="0px" y="0px"
	 width="44px" height="44px" viewBox="0 0 44 44" style="enable-background:new 0 0 44 44;" xml:space="preserve">
<g id="_x31_246-fast-forward_x40_2x.png">
	<g>
		<path d="M35.621,21.235l0.01-0.011l-12-9l-0.01,0.011C23.449,12.096,23.239,12,23,12c-0.553,0-1,0.448-1,1v5.501l-8.369-6.276
			l-0.01,0.011C13.449,12.096,13.239,12,13,12c-0.553,0-1,0.448-1,1v18c0,0.553,0.447,1,1,1c0.239,0,0.449-0.096,0.621-0.235
			l0.01,0.012L22,25.499V31c0,0.553,0.447,1,1,1c0.239,0,0.449-0.096,0.621-0.235l0.01,0.012l12-9l-0.01-0.012
			C35.847,22.582,36,22.313,36,22S35.847,21.419,35.621,21.235z M22,0C9.85,0,0,9.85,0,22s9.85,22,22,22s22-9.85,22-22S34.15,0,22,0
			z M22,42C10.954,42,2,33.046,2,22S10.954,2,22,2s20,8.954,20,20S33.046,42,22,42z"/>
	</g>
</g>
<g>
</g>
<g>
</g>
<g>
</g>
<g>
</g>
<g>
</g>
<g>
</g>
<g>
</g>
<g>
</g>
<g>
</g>
<g>
</g>
<g>
</g>
<g>
</g>
<g>
</g>
<g>
</g>
<g>
</g>
</svg>
