<?xml version="1.0" encoding="UTF-8" standalone="no"?>
<svg width="58px" height="58px" viewBox="0 0 58 58" version="1.1" xmlns="http://www.w3.org/2000/svg" xmlns:xlink="http://www.w3.org/1999/xlink" xmlns:sketch="http://www.bohemiancoding.com/sketch/ns">
    <!-- Generator: Sketch 3.0.4 (8053) - http://www.bohemiancoding.com/sketch -->
    <title>1246-fast-forward</title>
    <desc>Created with Sketch.</desc>
    <defs></defs>
    <g id="Page-1" stroke="none" stroke-width="1" fill="none" fill-rule="evenodd" sketch:type="MSPage">
        <g id="Glyphish-8-Icons" sketch:type="MSArtboardGroup" transform="translate(-500.000000, -1363.000000)" fill="#000000">
            <g id="1246-fast-forward" sketch:type="MSLayerGroup" transform="translate(500.036996, 1363.860499)">
                <g id="_x31_246-fast-forward_x40_2x.png" sketch:type="MSShapeGroup">
                    <path d="M45.621,27.235 L45.631,27.224 L29.631,16.224 L29.621,16.235 C29.449,16.096 29.239,16 29,16 C28.447,16 28,16.447 28,17 L28,24.729 L15.631,16.225 L15.621,16.236 C15.449,16.096 15.239,16 15,16 C14.447,16 14,16.447 14,17 L14,39 C14,39.553 14.448,40 15,40 C15.239,40 15.449,39.904 15.621,39.765 L15.631,39.777 L28,31.272 L28,39 C28,39.553 28.448,40 29,40 C29.239,40 29.449,39.904 29.621,39.765 L29.631,39.777 L45.631,28.777 L45.621,28.765 C45.847,28.582 46,28.313 46,28 C46,27.687 45.847,27.419 45.621,27.235 L45.621,27.235 Z M29.334,0.067 C29.229,0.029 29.118,0 29,0 C28.929,0 28.867,0.026 28.8,0.04 C28.531,0.033 28.271,0 28,0 C12.536,0 0,12.536 0,28 C0,43.464 12.536,56 28,56 C43.464,56 56,43.464 56,28 C56,12.986 44.174,0.769 29.334,0.067 L29.334,0.067 Z M28,54 C13.641,54 2,42.359 2,28 C2,13.641 13.641,2 28,2 C42.359,2 54,13.641 54,28 C54,42.359 42.359,54 28,54 L28,54 Z" id="Shape"></path>
                </g>
            </g>
        </g>
    </g>
</svg>