<?xml version="1.0" encoding="iso-8859-1"?>
<!-- Generator: Adobe Illustrator 16.0.4, SVG Export Plug-In . SVG Version: 6.00 Build 0)  -->
<!DOCTYPE svg PUBLIC "-//W3C//DTD SVG 1.1//EN" "http://www.w3.org/Graphics/SVG/1.1/DTD/svg11.dtd">
<svg version="1.1" id="Layer_1" xmlns="http://www.w3.org/2000/svg" xmlns:xlink="http://www.w3.org/1999/xlink" x="0px" y="0px"
	 width="44px" height="44px" viewBox="0 0 44 44" style="enable-background:new 0 0 44 44;" xml:space="preserve">
<g id="_x37_68-female-toolbar_x40_2x.png">
	<g>
		<path d="M22,0C9.85,0,0,9.85,0,22s9.85,22,22,22s22-9.85,22-22S34.15,0,22,0z M34.5,37.585c0.063-0.105,0.125-0.207,0.174-0.295
			c0.029,0.03,0.062,0.061,0.092,0.092C34.68,37.453,34.587,37.515,34.5,37.585z M35.869,36.379c-2.99-3.183-7.865-5.433-8.11-5.544
			c-0.008-0.003-0.462-0.243-0.783-0.684c2.972,0.1,5.95-1.669,6.095-1.756l1.174-0.704L33.02,27.08
			c-1.089-0.543-1.089-5.07-1.089-11.337c0-8.806-6.838-9.757-9.777-9.757c-6.031,0-9.778,3.739-9.778,9.757
			c0,5.472,0,10.197-1.284,11.478l-0.613,0.612l0.694,0.519c2.38,1.782,4.758,1.848,5.923,1.741c-0.012,0.39-0.314,0.62-0.513,0.726
			L16.1,31.032c-4.928,2.185-5.355,2.429-8.1,5.228C4.306,32.632,2.009,27.587,2.009,22c0-11.041,8.95-19.991,19.991-19.991
			S41.991,10.959,41.991,22C41.991,27.65,39.638,32.743,35.869,36.379z"/>
	</g>
</g>
<g>
</g>
<g>
</g>
<g>
</g>
<g>
</g>
<g>
</g>
<g>
</g>
<g>
</g>
<g>
</g>
<g>
</g>
<g>
</g>
<g>
</g>
<g>
</g>
<g>
</g>
<g>
</g>
<g>
</g>
</svg>
