<?xml version="1.0" encoding="iso-8859-1"?>
<!-- Generator: Adobe Illustrator 16.0.4, SVG Export Plug-In . SVG Version: 6.00 Build 0)  -->
<!DOCTYPE svg PUBLIC "-//W3C//DTD SVG 1.1//EN" "http://www.w3.org/Graphics/SVG/1.1/DTD/svg11.dtd">
<svg version="1.1" id="Layer_1" xmlns="http://www.w3.org/2000/svg" xmlns:xlink="http://www.w3.org/1999/xlink" x="0px" y="0px"
	 width="56px" height="56px" viewBox="0 0 56 56" style="enable-background:new 0 0 56 56;" xml:space="preserve">
<g id="_x37_68-female_x40_2x.png">
	<g>
		<path d="M28,0C12.536,0,0,12.536,0,28s12.536,28,28,28s28-12.536,28-28S43.464,0,28,0z M45.727,46.983
			c-3.997-3.957-9.957-6.712-10.27-6.854c-0.009-0.005-0.613-0.324-1.041-0.911c3.951,0.133,7.911-2.225,8.103-2.34l1.562-0.938
			l-1.629-0.814c-1.447-0.724-1.447-6.756-1.447-15.105c0-11.733-9.091-13-13.001-13c-8.018,0-12.999,4.981-12.999,13
			c0,7.29,0,13.586-1.707,15.293l-0.815,0.815l0.923,0.691c3.164,2.374,6.326,2.461,7.874,2.319
			c-0.016,0.52-0.418,0.826-0.681,0.967l-0.642,0.285c-6.16,2.736-6.958,3.113-10.062,6.246C5.031,41.914,2,35.315,2,28
			C2,13.641,13.641,2,28,2s26,11.641,26,26C54,35.5,50.806,42.238,45.727,46.983z"/>
	</g>
</g>
<g>
</g>
<g>
</g>
<g>
</g>
<g>
</g>
<g>
</g>
<g>
</g>
<g>
</g>
<g>
</g>
<g>
</g>
<g>
</g>
<g>
</g>
<g>
</g>
<g>
</g>
<g>
</g>
<g>
</g>
</svg>
