<?xml version="1.0" encoding="iso-8859-1"?>
<!-- Generator: Adobe Illustrator 16.0.4, SVG Export Plug-In . SVG Version: 6.00 Build 0)  -->
<!DOCTYPE svg PUBLIC "-//W3C//DTD SVG 1.1//EN" "http://www.w3.org/Graphics/SVG/1.1/DTD/svg11.dtd">
<svg version="1.1" id="Layer_1" xmlns="http://www.w3.org/2000/svg" xmlns:xlink="http://www.w3.org/1999/xlink" x="0px" y="0px"
	 width="44px" height="36px" viewBox="0 0 44 36" style="enable-background:new 0 0 44 36;" xml:space="preserve">
<g id="_x38_53-fence-toolbar_x40_2x.png">
	<g>
		<path d="M38,0l-6,6v4h-4V6l-6-6l-6,6v4h-4V6L6,0L0,6v30h12v-4h4v4h12v-4h4v4h12V6L38,0z M10,10v2v4v2v6v2v4v2v2H2V6.828l4-4l4,4
			V10z M16,30h-4v-4h4V30z M16,24h-4v-6h4V24z M16,16h-4v-4h4V16z M26,10v2v4v2v6v2v4v2v2h-8v-2v-2v-4v-2v-6v-2v-4v-2V6.828l4-4l4,4
			V10z M32,30h-4v-4h4V30z M32,24h-4v-6h4V24z M32,16h-4v-4h4V16z M42,34h-8v-2v-2v-4v-2v-6v-2v-4v-2V6.828l4-4l4,4V34z"/>
	</g>
</g>
<g>
</g>
<g>
</g>
<g>
</g>
<g>
</g>
<g>
</g>
<g>
</g>
<g>
</g>
<g>
</g>
<g>
</g>
<g>
</g>
<g>
</g>
<g>
</g>
<g>
</g>
<g>
</g>
<g>
</g>
</svg>
