<?xml version="1.0" encoding="iso-8859-1"?>
<!-- Generator: Adobe Illustrator 16.0.4, SVG Export Plug-In . SVG Version: 6.00 Build 0)  -->
<!DOCTYPE svg PUBLIC "-//W3C//DTD SVG 1.1//EN" "http://www.w3.org/Graphics/SVG/1.1/DTD/svg11.dtd">
<svg version="1.1" id="Layer_1" xmlns="http://www.w3.org/2000/svg" xmlns:xlink="http://www.w3.org/1999/xlink" x="0px" y="0px"
	 width="56px" height="48px" viewBox="0 0 56 48" style="enable-background:new 0 0 56 48;" xml:space="preserve">
<g id="_x38_53-fence_x40_2x.png">
	<g>
		<path d="M48,0l-8,8v4h-4V8l-8-8l-8,8v4h-4V8L8,0L0,8v40h16v-4h4v4h16v-4h4v4h16V8L48,0z M14,12v2v6v2v12v2v6v2v2H2V8.828l6-6l6,6
			V12z M20,42h-4v-6h4V42z M20,34h-4V22h4V34z M20,20h-4v-6h4V20z M34,12v2v6v2v12v2v6v2v2H22v-2v-2v-6v-2V22v-2v-6v-2V8.828l6-6
			l6,6V12z M40,42h-4v-6h4V42z M40,34h-4V22h4V34z M40,20h-4v-6h4V20z M54,46H42v-2v-2v-6v-2V22v-2v-6v-2V8.828l6-6l6,6V46z"/>
	</g>
</g>
<g>
</g>
<g>
</g>
<g>
</g>
<g>
</g>
<g>
</g>
<g>
</g>
<g>
</g>
<g>
</g>
<g>
</g>
<g>
</g>
<g>
</g>
<g>
</g>
<g>
</g>
<g>
</g>
<g>
</g>
</svg>
