<?xml version="1.0" encoding="UTF-8" standalone="no"?>
<svg width="42px" height="58px" viewBox="0 0 42 58" version="1.1" xmlns="http://www.w3.org/2000/svg" xmlns:xlink="http://www.w3.org/1999/xlink" xmlns:sketch="http://www.bohemiancoding.com/sketch/ns">
    <!-- Generator: Sketch 3.0.4 (8053) - http://www.bohemiancoding.com/sketch -->
    <title>1198-file-type-table</title>
    <desc>Created with Sketch.</desc>
    <defs></defs>
    <g id="Page-1" stroke="none" stroke-width="1" fill="none" fill-rule="evenodd" sketch:type="MSPage">
        <g id="Glyphish-8-Icons" sketch:type="MSArtboardGroup" transform="translate(-700.000000, -883.000000)" fill="#000000">
            <g id="1198-file-type-table" sketch:type="MSLayerGroup" transform="translate(700.036996, 883.860499)">
                <g id="_x31_198-file-type-table_x40_2x.png" sketch:type="MSShapeGroup">
                    <path d="M10,44 L30,44 L30,24 L10,24 L10,44 L10,44 Z M12,26 L28,26 L28,30 L12,30 L12,26 L12,26 Z M12,32 L28,32 L28,36 L12,36 L12,32 L12,32 Z M12,38 L28,38 L28,42 L12,42 L12,38 L12,38 Z M26,0 L2,0 C0.896,0 0,0.896 0,2 L0,54 C0,55.104 0.896,56 2,56 L38,56 C39.104,56 40,55.104 40,54 L40,14 L26,0 L26,0 Z M26,3 L37,14 L26,14 L26,3 L26,3 Z M38,54 L2,54 L2,2 L24,2 L24,15 C24,15.553 24.447,16 25,16 L38,16 L38,54 L38,54 Z" id="Shape"></path>
                </g>
            </g>
        </g>
    </g>
</svg>