<?xml version="1.0" encoding="iso-8859-1"?>
<!-- Generator: Adobe Illustrator 16.0.4, SVG Export Plug-In . SVG Version: 6.00 Build 0)  -->
<!DOCTYPE svg PUBLIC "-//W3C//DTD SVG 1.1//EN" "http://www.w3.org/Graphics/SVG/1.1/DTD/svg11.dtd">
<svg version="1.1" id="Layer_1" xmlns="http://www.w3.org/2000/svg" xmlns:xlink="http://www.w3.org/1999/xlink" x="0px" y="0px"
	 width="32px" height="44px" viewBox="0 0 32 44" style="enable-background:new 0 0 32 44;" xml:space="preserve">
<g id="_x31_200-file-type-settings_x40_2x.png">
	<g>
		<path d="M22,0H2C0.896,0,0,0.896,0,2v40c0,1.105,0.896,2,2,2h28c1.104,0,2-0.895,2-2V10L22,0z M22,3l7,7h-7V3z M30,42H2V2h18v9
			c0,0.553,0.448,1,1,1h9V42z M18,17.2v-1.249c0-1.104-0.896-2-2-2s-2,0.896-2,2v1.255c-1.006,0.237-1.953,0.625-2.801,1.164
			l-0.891-0.89c-0.781-0.781-2.048-0.781-2.828,0c-0.781,0.78-0.781,2.047,0,2.828l0.885,0.885C7.835,22.045,7.441,22.99,7.218,24
			H5.951c-1.104,0-2,0.896-2,2s0.896,2,2,2H7.26c0.234,0.993,0.614,1.93,1.146,2.766L7.48,31.691c-0.781,0.781-0.781,2.048,0,2.828
			c0.78,0.781,2.047,0.781,2.828,0l0.936-0.936c0.837,0.522,1.766,0.911,2.756,1.137v1.328c0,1.104,0.896,2,2,2s2-0.896,2-2v-1.352
			c0.982-0.231,1.909-0.606,2.741-1.127l0.95,0.949c0.781,0.781,2.048,0.781,2.828,0c0.781-0.78,0.781-2.047,0-2.828l-0.924-0.924
			c0.531-0.839,0.929-1.771,1.161-2.768h1.292c1.104,0,2-0.896,2-2s-0.896-2-2-2h-1.287c-0.226-1.005-0.601-1.954-1.13-2.803
			l0.888-0.889c0.781-0.781,0.781-2.048,0-2.828c-0.78-0.781-2.047-0.781-2.828,0l-0.876,0.876C19.965,17.816,19.011,17.434,18,17.2
			z M16,30.951c-2.762,0-5-2.238-5-5s2.238-5,5-5s5,2.238,5,5S18.762,30.951,16,30.951z"/>
	</g>
</g>
<g>
</g>
<g>
</g>
<g>
</g>
<g>
</g>
<g>
</g>
<g>
</g>
<g>
</g>
<g>
</g>
<g>
</g>
<g>
</g>
<g>
</g>
<g>
</g>
<g>
</g>
<g>
</g>
<g>
</g>
</svg>
