<?xml version="1.0" encoding="iso-8859-1"?>
<!-- Generator: Adobe Illustrator 16.0.4, SVG Export Plug-In . SVG Version: 6.00 Build 0)  -->
<!DOCTYPE svg PUBLIC "-//W3C//DTD SVG 1.1//EN" "http://www.w3.org/Graphics/SVG/1.1/DTD/svg11.dtd">
<svg version="1.1" id="Layer_1" xmlns="http://www.w3.org/2000/svg" xmlns:xlink="http://www.w3.org/1999/xlink" x="0px" y="0px"
	 width="32px" height="44px" viewBox="0 0 32 44" style="enable-background:new 0 0 32 44;" xml:space="preserve">
<g id="_x31_194-file-type-sound-recording_x40_2x.png">
	<g>
		<path d="M20,18c0-2.209-1.791-4-4-4s-4,1.791-4,4v4h8V18z M16,32c-3.313,0-6-2.687-6-6v-2H8v2c0,4.079,3.055,7.438,7,7.931V36h-2
			c-0.552,0-1,0.448-1,1c0,0.553,0.448,1,1,1h6c0.552,0,1-0.447,1-1c0-0.552-0.448-1-1-1h-2v-2.069c3.945-0.493,7-3.852,7-7.931v-2
			h-2v2C22,29.313,19.313,32,16,32z M22,0H2C0.896,0,0,0.896,0,2v40c0,1.105,0.896,2,2,2h28c1.104,0,2-0.895,2-2V10L22,0z M22,3l7,7
			h-7V3z M30,42H2V2h18v9c0,0.553,0.448,1,1,1h9V42z M16,30c2.209,0,4-1.791,4-4v-2h-8v2C12,28.209,13.791,30,16,30z"/>
	</g>
</g>
<g>
</g>
<g>
</g>
<g>
</g>
<g>
</g>
<g>
</g>
<g>
</g>
<g>
</g>
<g>
</g>
<g>
</g>
<g>
</g>
<g>
</g>
<g>
</g>
<g>
</g>
<g>
</g>
<g>
</g>
</svg>
