<?xml version="1.0" encoding="UTF-8" standalone="no"?>
<svg width="42px" height="58px" viewBox="0 0 42 58" version="1.1" xmlns="http://www.w3.org/2000/svg" xmlns:xlink="http://www.w3.org/1999/xlink" xmlns:sketch="http://www.bohemiancoding.com/sketch/ns">
    <!-- Generator: Sketch 3.0.4 (8053) - http://www.bohemiancoding.com/sketch -->
    <title>1209-file-type-vector</title>
    <desc>Created with Sketch.</desc>
    <defs></defs>
    <g id="Page-1" stroke="none" stroke-width="1" fill="none" fill-rule="evenodd" sketch:type="MSPage">
        <g id="Glyphish-8-Icons" sketch:type="MSArtboardGroup" transform="translate(-796.000000, -979.000000)" fill="#000000">
            <g id="1209-file-type-vector" sketch:type="MSLayerGroup" transform="translate(796.036996, 979.860499)">
                <g id="_x31_209-file-type-vector_x40_2x.png" sketch:type="MSShapeGroup">
                    <path d="M26,0 L2,0 C0.896,0 0,0.896 0,2 L0,54 C0,55.104 0.896,56 2,56 L38,56 C39.104,56 40,55.104 40,54 L40,14 L26,0 L26,0 Z M26,3 L37,14 L26,14 L26,3 L26,3 Z M38,54 L2,54 L2,2 L24,2 L24,15 C24,15.553 24.447,16 25,16 L38,16 L38,54 L38,54 Z M20.857,24.485 L20.842,24.494 C20.668,24.204 20.363,24 20,24 C19.637,24 19.332,24.204 19.157,24.494 L19.142,24.485 L13.142,34.485 L13.157,34.494 C13.066,34.645 13,34.812 13,35 C13,35.161 13.047,35.308 13.114,35.442 L13.105,35.447 L15,39.236 L15,40 L14,40 C13.447,40 13,40.447 13,41 C13,41.553 13.447,42 14,42 L15,42 L15,43 C15,43.553 15.447,44 16,44 C16.553,44 17,43.553 17,43 L17,42 L23,42 L23,43 C23,43.553 23.447,44 24,44 C24.553,44 25,43.553 25,43 L25,42 L26,42 C26.553,42 27,41.553 27,41 C27,40.447 26.553,40 26,40 L25,40 L25,39.236 L26.895,35.447 L26.886,35.442 C26.953,35.308 27,35.161 27,35 C27,34.812 26.934,34.645 26.843,34.494 L26.858,34.485 L20.857,24.485 L20.857,24.485 Z M23.105,38.553 L23.114,38.558 C23.047,38.692 23,38.839 23,39 L23,40 L17,40 L17,39 C17,38.839 16.953,38.692 16.886,38.558 L16.895,38.553 L15.14,35.044 L19,28.61 L19,35 C19,35.553 19.447,36 20,36 C20.553,36 21,35.553 21,35 L21,28.61 L24.86,35.044 L23.105,38.553 L23.105,38.553 Z" id="Shape"></path>
                </g>
            </g>
        </g>
    </g>
</svg>