<?xml version="1.0" encoding="iso-8859-1"?>
<!-- Generator: Adobe Illustrator 16.0.4, SVG Export Plug-In . SVG Version: 6.00 Build 0)  -->
<!DOCTYPE svg PUBLIC "-//W3C//DTD SVG 1.1//EN" "http://www.w3.org/Graphics/SVG/1.1/DTD/svg11.dtd">
<svg version="1.1" id="Layer_1" xmlns="http://www.w3.org/2000/svg" xmlns:xlink="http://www.w3.org/1999/xlink" x="0px" y="0px"
	 width="32px" height="44px" viewBox="0 0 32 44" style="enable-background:new 0 0 32 44;" xml:space="preserve">
<g id="_x31_196-file-type-code_x40_2x.png">
	<g>
		<path d="M10,20c0,0,0,1,0,3s-2,2-2,2v2c0,0,2,0,2,2s0,1,0,3s2,2,2,2h2v-2c0,0,0,0-1,0s-1-1-1-1s0-1,0-3s-1.5-2-1.5-2s1.5,0,1.5-2
			s0-2,0-3s1-1,1-1h1v-2c0,0,0,0-2,0S10,20,10,20z M18,18v2h1c0,0,1,0,1,1s0,1,0,3s1.5,2,1.5,2S20,26,20,28s0,3,0,3s0,1-1,1
			s-1,0-1,0v2h2c0,0,2,0,2-2s0-1,0-3s2-2,2-2v-2c0,0-2,0-2-2s0-3,0-3s0-2-2-2S18,18,18,18z M22,0H2C0.896,0,0,0.896,0,2v40
			c0,1.105,0.896,2,2,2h28c1.104,0,2-0.895,2-2V10L22,0z M22,3l7,7h-7V3z M30,42H2V2h18v9c0,0.553,0.448,1,1,1h9V42z"/>
	</g>
</g>
<g>
</g>
<g>
</g>
<g>
</g>
<g>
</g>
<g>
</g>
<g>
</g>
<g>
</g>
<g>
</g>
<g>
</g>
<g>
</g>
<g>
</g>
<g>
</g>
<g>
</g>
<g>
</g>
<g>
</g>
</svg>
