<?xml version="1.0" encoding="iso-8859-1"?>
<!-- Generator: Adobe Illustrator 16.0.4, SVG Export Plug-In . SVG Version: 6.00 Build 0)  -->
<!DOCTYPE svg PUBLIC "-//W3C//DTD SVG 1.1//EN" "http://www.w3.org/Graphics/SVG/1.1/DTD/svg11.dtd">
<svg version="1.1" id="Layer_1" xmlns="http://www.w3.org/2000/svg" xmlns:xlink="http://www.w3.org/1999/xlink" x="0px" y="0px"
	 width="32px" height="44px" viewBox="0 0 32 44" style="enable-background:new 0 0 32 44;" xml:space="preserve">
<g id="_x31_210-file-type-secure_x40_2x.png">
	<g>
		<path d="M22,0H2C0.896,0,0,0.896,0,2v40c0,1.105,0.896,2,2,2h28c1.104,0,2-0.895,2-2V10L22,0z M22,3l7,7h-7V3z M30,42H2V2h18v9
			c0,0.553,0.448,1,1,1h9V42z M16,16c-3.313,0-6,2.687-6,6v2c-1.104,0-2,0.896-2,2v8c0,1.104,0.896,2,2,2h12c1.104,0,2-0.896,2-2v-8
			c0-1.104-0.896-2-2-2v-2C22,18.687,19.313,16,16,16z M16,32c-1.104,0-2-0.896-2-2s0.896-2,2-2s2,0.896,2,2S17.104,32,16,32z
			 M20,24h-8v-2c0-2.209,1.791-4,4-4s4,1.791,4,4V24z"/>
	</g>
</g>
<g>
</g>
<g>
</g>
<g>
</g>
<g>
</g>
<g>
</g>
<g>
</g>
<g>
</g>
<g>
</g>
<g>
</g>
<g>
</g>
<g>
</g>
<g>
</g>
<g>
</g>
<g>
</g>
<g>
</g>
</svg>
