<?xml version="1.0" encoding="UTF-8" standalone="no"?>
<svg width="42px" height="58px" viewBox="0 0 42 58" version="1.1" xmlns="http://www.w3.org/2000/svg" xmlns:xlink="http://www.w3.org/1999/xlink" xmlns:sketch="http://www.bohemiancoding.com/sketch/ns">
    <!-- Generator: Sketch 3.0.4 (8053) - http://www.bohemiancoding.com/sketch -->
    <title>1206-file-type-bar-chart</title>
    <desc>Created with Sketch.</desc>
    <defs></defs>
    <g id="Page-1" stroke="none" stroke-width="1" fill="none" fill-rule="evenodd" sketch:type="MSPage">
        <g id="Glyphish-8-Icons" sketch:type="MSArtboardGroup" transform="translate(-508.000000, -979.000000)" fill="#000000">
            <g id="1206-file-type-bar-chart" sketch:type="MSLayerGroup" transform="translate(508.036996, 979.860499)">
                <g id="_x31_206-file-type-bar-chart_x40_2x.png" sketch:type="MSShapeGroup">
                    <path d="M26,0 L2,0 C0.896,0 0,0.896 0,2 L0,54 C0,55.104 0.896,56 2,56 L38,56 C39.104,56 40,55.104 40,54 L40,14 L26,0 L26,0 Z M26,3 L37,14 L26,14 L26,3 L26,3 Z M38,54 L2,54 L2,2 L24,2 L24,15 C24,15.553 24.447,16 25,16 L38,16 L38,54 L38,54 Z M12,44 L16,44 L16,34 L12,34 L12,44 L12,44 Z M24,44 L28,44 L28,24 L24,24 L24,44 L24,44 Z M18,44 L22,44 L22,30 L18,30 L18,44 L18,44 Z" id="Shape"></path>
                </g>
            </g>
        </g>
    </g>
</svg>