<?xml version="1.0" encoding="iso-8859-1"?>
<!-- Generator: Adobe Illustrator 16.0.4, SVG Export Plug-In . SVG Version: 6.00 Build 0)  -->
<!DOCTYPE svg PUBLIC "-//W3C//DTD SVG 1.1//EN" "http://www.w3.org/Graphics/SVG/1.1/DTD/svg11.dtd">
<svg version="1.1" id="Layer_1" xmlns="http://www.w3.org/2000/svg" xmlns:xlink="http://www.w3.org/1999/xlink" x="0px" y="0px"
	 width="32px" height="44px" viewBox="0 0 32 44" style="enable-background:new 0 0 32 44;" xml:space="preserve">
<g id="_x31_197-file-type-zip_x40_2x.png">
	<g>
		<path d="M18,22v-2h-2v2H18z M18,10V8h-2v2H18z M18,18v-2h-2v2H18z M18,6V4h-2v2H18z M18,14v-2h-2v2H18z M14,8h2V6h-2V8z M14,12h2
			v-2h-2V12z M22,0h-4h-4H2C0.896,0,0,0.896,0,2v40c0,1.105,0.896,2,2,2h28c1.104,0,2-0.895,2-2V10L22,0z M22,3l7,7h-7V3z M30,42H2
			V2h12v2h2V2h2h2v9c0,0.553,0.447,1,1,1h9V42z M14,20h2v-2h-2V20z M14,24h2v-2h-2V24z M14,16h2v-2h-2V16z M14,28c0,0-2,6-2,8
			c0,1,1,2,2,2h4c1,0,2-1,2-2c0-2-2-8-2-8c-0.54-2-1.985-2-1.998-2H18v-2h-2v2C16,26,14.52,26,14,28z M17.988,34.892
			C17.956,35.455,17.483,36,17,36h-2c-0.483,0-0.956-0.545-0.988-1.108C14.073,33.864,15.032,32,16,32S17.927,33.864,17.988,34.892z
			"/>
	</g>
</g>
<g>
</g>
<g>
</g>
<g>
</g>
<g>
</g>
<g>
</g>
<g>
</g>
<g>
</g>
<g>
</g>
<g>
</g>
<g>
</g>
<g>
</g>
<g>
</g>
<g>
</g>
<g>
</g>
<g>
</g>
</svg>
