<?xml version="1.0" encoding="iso-8859-1"?>
<!-- Generator: Adobe Illustrator 16.0.4, SVG Export Plug-In . SVG Version: 6.00 Build 0)  -->
<!DOCTYPE svg PUBLIC "-//W3C//DTD SVG 1.1//EN" "http://www.w3.org/Graphics/SVG/1.1/DTD/svg11.dtd">
<svg version="1.1" id="Layer_1" xmlns="http://www.w3.org/2000/svg" xmlns:xlink="http://www.w3.org/1999/xlink" x="0px" y="0px"
	 width="32px" height="44px" viewBox="0 0 32 44" style="enable-background:new 0 0 32 44;" xml:space="preserve">
<g id="_x31_195-file-type-html_x40_2x.png">
	<g>
		<path d="M22,0H2C0.896,0,0,0.896,0,2v40c0,1.105,0.896,2,2,2h28c1.104,0,2-0.895,2-2V10L22,0z M22,3l7,7h-7V3z M30,42H2V2h18v9
			c0,0.553,0.448,1,1,1h9V42z M13,23c0-0.553-0.448-1-1-1c-0.188,0-0.355,0.066-0.506,0.157l-0.009-0.015l-5,3l0.009,0.015
			C6.204,25.332,6,25.637,6,26s0.204,0.668,0.494,0.843l-0.009,0.015l5,3l0.009-0.015C11.645,29.934,11.812,30,12,30
			c0.552,0,1-0.447,1-1c0-0.363-0.204-0.668-0.494-0.843l0.009-0.015L8.944,26l3.571-2.143l-0.009-0.015
			C12.796,23.668,13,23.363,13,23z M20.515,22.143l-0.009,0.015C20.355,22.066,20.188,22,20,22c-0.552,0-1,0.447-1,1
			c0,0.363,0.204,0.668,0.494,0.843l-0.009,0.015L23.056,26l-3.571,2.143l0.009,0.015C19.204,28.332,19,28.637,19,29
			c0,0.553,0.448,1,1,1c0.188,0,0.355-0.066,0.506-0.157l0.009,0.015l5-3l-0.009-0.015C25.796,26.668,26,26.363,26,26
			s-0.204-0.668-0.494-0.843l0.009-0.015L20.515,22.143z M17,20c-0.421,0-0.778,0.262-0.925,0.63l-0.003-0.001l-2,10l0.003,0.001
			C14.029,30.745,14,30.869,14,31c0,0.553,0.448,1,1,1c0.421,0,0.778-0.262,0.925-0.63l0.003,0.001l2-10l-0.003-0.001
			C17.971,21.256,18,21.132,18,21C18,20.448,17.552,20,17,20z"/>
	</g>
</g>
<g>
</g>
<g>
</g>
<g>
</g>
<g>
</g>
<g>
</g>
<g>
</g>
<g>
</g>
<g>
</g>
<g>
</g>
<g>
</g>
<g>
</g>
<g>
</g>
<g>
</g>
<g>
</g>
<g>
</g>
</svg>
