<?xml version="1.0" encoding="iso-8859-1"?>
<!-- Generator: Adobe Illustrator 16.0.4, SVG Export Plug-In . SVG Version: 6.00 Build 0)  -->
<!DOCTYPE svg PUBLIC "-//W3C//DTD SVG 1.1//EN" "http://www.w3.org/Graphics/SVG/1.1/DTD/svg11.dtd">
<svg version="1.1" id="Layer_1" xmlns="http://www.w3.org/2000/svg" xmlns:xlink="http://www.w3.org/1999/xlink" x="0px" y="0px"
	 width="32px" height="44px" viewBox="0 0 32 44" style="enable-background:new 0 0 32 44;" xml:space="preserve">
<g id="_x31_201-file-type-film_x40_2x.png">
	<g>
		<path d="M6,17v18c0,0.553,0.448,1,1,1h18c0.552,0,1-0.447,1-1V17c0-0.553-0.448-1-1-1H7C6.448,16,6,16.447,6,17z M22,18h2v2h-2V18
			z M22,22h2v3h-2V22z M22,27h2v3h-2V27z M22,32h2v2h-2V32z M12,18h8v7h-8V18z M12,27h8v7h-8V27z M8,18h2v2H8V18z M8,22h2v3H8V22z
			 M8,27h2v3H8V27z M8,32h2v2H8V32z M22,0H2C0.896,0,0,0.896,0,2v40c0,1.105,0.896,2,2,2h28c1.104,0,2-0.895,2-2V10L22,0z M22,3l7,7
			h-7V3z M30,42H2V2h18v9c0,0.553,0.448,1,1,1h9V42z"/>
	</g>
</g>
<g>
</g>
<g>
</g>
<g>
</g>
<g>
</g>
<g>
</g>
<g>
</g>
<g>
</g>
<g>
</g>
<g>
</g>
<g>
</g>
<g>
</g>
<g>
</g>
<g>
</g>
<g>
</g>
<g>
</g>
</svg>
