<?xml version="1.0" encoding="iso-8859-1"?>
<!-- Generator: Adobe Illustrator 16.0.4, SVG Export Plug-In . SVG Version: 6.00 Build 0)  -->
<!DOCTYPE svg PUBLIC "-//W3C//DTD SVG 1.1//EN" "http://www.w3.org/Graphics/SVG/1.1/DTD/svg11.dtd">
<svg version="1.1" id="Layer_1" xmlns="http://www.w3.org/2000/svg" xmlns:xlink="http://www.w3.org/1999/xlink" x="0px" y="0px"
	 width="56px" height="52px" viewBox="0 0 56 52" style="enable-background:new 0 0 56 52;" xml:space="preserve">
<g id="_x31_039-files-box_x40_2x.png">
	<g>
		<path d="M17,8h22c0.553,0,1-0.447,1-1s-0.447-1-1-1H17c-0.553,0-1,0.447-1,1S16.447,8,17,8z M15,12h26c0.553,0,1-0.447,1-1
			s-0.447-1-1-1H15c-0.553,0-1,0.447-1,1S14.447,12,15,12z M44,14H12c-0.553,0-1,0.448-1,1c0,0.553,0.447,1,1,1h32
			c0.553,0,1-0.447,1-1C45,14.448,44.553,14,44,14z M55.843,20.494l0.015-0.009l-12-20l-0.015,0.009C43.668,0.204,43.363,0,43,0H13
			c-0.363,0-0.668,0.204-0.843,0.494l-0.015-0.009l-12,20l0.015,0.009C0.066,20.645,0,20.812,0,21v10c0,0.553,0.447,1,1,1h1v19
			c0,0.553,0.447,1,1,1h50c0.553,0,1-0.447,1-1V32h1c0.553,0,1-0.447,1-1V21C56,20.812,55.934,20.645,55.843,20.494z M13.566,2
			h28.867l10.8,18H2.767L13.566,2z M52,50H4V32h48V50z M54,30H2v-8h52V30z"/>
	</g>
</g>
<g>
</g>
<g>
</g>
<g>
</g>
<g>
</g>
<g>
</g>
<g>
</g>
<g>
</g>
<g>
</g>
<g>
</g>
<g>
</g>
<g>
</g>
<g>
</g>
<g>
</g>
<g>
</g>
<g>
</g>
</svg>
