<?xml version="1.0" encoding="UTF-8" standalone="no"?>
<svg width="42px" height="58px" viewBox="0 0 42 58" version="1.1" xmlns="http://www.w3.org/2000/svg" xmlns:xlink="http://www.w3.org/1999/xlink" xmlns:sketch="http://www.bohemiancoding.com/sketch/ns">
    <!-- Generator: Sketch 3.0.4 (8053) - http://www.bohemiancoding.com/sketch -->
    <title>1195-file-type-html</title>
    <desc>Created with Sketch.</desc>
    <defs></defs>
    <g id="Page-1" stroke="none" stroke-width="1" fill="none" fill-rule="evenodd" sketch:type="MSPage">
        <g id="Glyphish-8-Icons" sketch:type="MSArtboardGroup" transform="translate(-412.000000, -883.000000)" fill="#000000">
            <g id="1195-file-type-html" sketch:type="MSLayerGroup" transform="translate(412.036996, 883.860499)">
                <g id="_x31_195-file-type-html_x40_2x.png" sketch:type="MSShapeGroup">
                    <path d="M21,28 C20.579,28 20.222,28.262 20.075,28.63 L20.072,28.629 L18.072,38.629 L18.075,38.63 C18.029,38.745 18,38.869 18,39 C18,39.553 18.448,40 19,40 C19.421,40 19.778,39.738 19.925,39.37 L19.928,39.371 L21.928,29.371 L21.925,29.37 C21.971,29.256 22,29.132 22,29 C22,28.447 21.552,28 21,28 L21,28 Z M17,31 C17,30.447 16.552,30 16,30 C15.812,30 15.645,30.066 15.494,30.157 L15.485,30.142 L10.485,33.142 L10.494,33.157 C10.204,33.332 10,33.637 10,34 C10,34.363 10.204,34.668 10.494,34.843 L10.485,34.858 L15.485,37.858 L15.494,37.843 C15.645,37.934 15.812,38 16,38 C16.552,38 17,37.553 17,37 C17,36.637 16.796,36.332 16.506,36.157 L16.515,36.142 L12.944,34 L16.515,31.857 L16.506,31.842 C16.796,31.668 17,31.363 17,31 L17,31 Z M26,0 L2,0 C0.896,0 0,0.896 0,2 L0,54 C0,55.104 0.896,56 2,56 L38,56 C39.104,56 40,55.104 40,54 L40,14 L26,0 L26,0 Z M26,3 L37,14 L26,14 L26,3 L26,3 Z M38,54 L2,54 L2,2 L24,2 L24,15 C24,15.553 24.448,16 25,16 L38,16 L38,54 L38,54 Z M24.515,30.143 L24.506,30.158 C24.355,30.066 24.189,30 24,30 C23.448,30 23,30.447 23,31 C23,31.363 23.204,31.668 23.494,31.843 L23.485,31.858 L27.056,34 L23.485,36.143 L23.494,36.158 C23.204,36.332 23,36.637 23,37 C23,37.553 23.448,38 24,38 C24.188,38 24.355,37.934 24.506,37.843 L24.515,37.858 L29.515,34.858 L29.506,34.843 C29.796,34.668 30,34.363 30,34 C30,33.637 29.796,33.332 29.506,33.157 L29.515,33.142 L24.515,30.143 L24.515,30.143 Z" id="Shape"></path>
                </g>
            </g>
        </g>
    </g>
</svg>