<?xml version="1.0" encoding="UTF-8" standalone="no"?>
<svg width="42px" height="58px" viewBox="0 0 42 58" version="1.1" xmlns="http://www.w3.org/2000/svg" xmlns:xlink="http://www.w3.org/1999/xlink" xmlns:sketch="http://www.bohemiancoding.com/sketch/ns">
    <!-- Generator: Sketch 3.0.4 (8053) - http://www.bohemiancoding.com/sketch -->
    <title>1196-file-type-code</title>
    <desc>Created with Sketch.</desc>
    <defs></defs>
    <g id="Page-1" stroke="none" stroke-width="1" fill="none" fill-rule="evenodd" sketch:type="MSPage">
        <g id="Glyphish-8-Icons" sketch:type="MSArtboardGroup" transform="translate(-508.000000, -883.000000)" fill="#000000">
            <g id="1196-file-type-code" sketch:type="MSLayerGroup" transform="translate(508.036996, 883.860499)">
                <g id="_x31_196-file-type-code_x40_2x.png" sketch:type="MSShapeGroup">
                    <path d="M26,0 L2,0 C0.896,0 0,0.896 0,2 L0,54 C0,55.104 0.896,56 2,56 L38,56 C39.104,56 40,55.104 40,54 L40,14 L26,0 L26,0 Z M26,3 L37,14 L26,14 L26,3 L26,3 Z M38,54 L2,54 L2,2 L24,2 L24,15 C24,15.553 24.447,16 25,16 L38,16 L38,54 L38,54 Z M22,26 L22,28 L23,28 C23,28 24,28 24,29 L24,32 C24,34 25.5,34 25.5,34 C25.5,34 24,34 24,36 L24,39 C24,39 24,40 23,40 L22,40 L22,42 L24,42 C24,42 26,42 26,40 L26,37 C26,35 28,35 28,35 L28,33 C28,33 26,33 26,31 L26,28 C26,28 26,26 24,26 L22,26 L22,26 Z M14,28 L14,31 C14,33 12,33 12,33 L12,35 C12,35 14,35 14,37 L14,40 C14,42 16,42 16,42 L18,42 L18,40 C18,40 18,40 17,40 C16,40 16,39 16,39 L16,36 C16,34 14.5,34 14.5,34 C14.5,34 16,34 16,32 L16,29 C16,28 17,28 17,28 L18,28 L18,26 C18,26 18,26 16,26 C14,26 14,28 14,28 L14,28 Z" id="Shape"></path>
                </g>
            </g>
        </g>
    </g>
</svg>