<?xml version="1.0" encoding="UTF-8" standalone="no"?>
<svg width="42px" height="58px" viewBox="0 0 42 58" version="1.1" xmlns="http://www.w3.org/2000/svg" xmlns:xlink="http://www.w3.org/1999/xlink" xmlns:sketch="http://www.bohemiancoding.com/sketch/ns">
    <!-- Generator: Sketch 3.0.4 (8053) - http://www.bohemiancoding.com/sketch -->
    <title>1192-file-type-music</title>
    <desc>Created with Sketch.</desc>
    <defs></defs>
    <g id="Page-1" stroke="none" stroke-width="1" fill="none" fill-rule="evenodd" sketch:type="MSPage">
        <g id="Glyphish-8-Icons" sketch:type="MSArtboardGroup" transform="translate(-124.000000, -883.000000)" fill="#000000">
            <g id="1192-file-type-music" sketch:type="MSLayerGroup" transform="translate(124.036996, 883.860499)">
                <g id="_x31_192-file-type-music_x40_2x.png" sketch:type="MSShapeGroup">
                    <path d="M16.808,26.039 C16.351,26.131 16,26.516 16,27 L16,38.416 C15.41,38.158 14.732,38 14,38 C11.791,38 10,39.344 10,41 C10,42.657 11.791,44 14,44 C15.739,44 17.204,43.163 17.755,42 L18,42 L18,27.82 L26,26.219 L26,36.415 C25.41,36.158 24.732,36 24,36 C21.791,36 20,37.344 20,39 C20,40.657 21.791,42 24,42 C25.739,42 27.204,41.163 27.755,40 L28,40 L28,25 C28,24.448 27.552,24 27,24 C26.932,24 26.872,24.025 26.808,24.039 L26.804,24.019 L16.804,26.019 L16.808,26.039 L16.808,26.039 Z M26,0 L2,0 C0.896,0 0,0.896 0,2 L0,54 C0,55.104 0.896,56 2,56 L38,56 C39.104,56 40,55.104 40,54 L40,14 L26,0 L26,0 Z M26,3 L37,14 L26,14 L26,3 L26,3 Z M38,54 L2,54 L2,2 L24,2 L24,15 C24,15.553 24.448,16 25,16 L38,16 L38,54 L38,54 Z" id="Shape"></path>
                </g>
            </g>
        </g>
    </g>
</svg>