<?xml version="1.0" encoding="UTF-8" standalone="no"?>
<svg width="42px" height="58px" viewBox="0 0 42 58" version="1.1" xmlns="http://www.w3.org/2000/svg" xmlns:xlink="http://www.w3.org/1999/xlink" xmlns:sketch="http://www.bohemiancoding.com/sketch/ns">
    <!-- Generator: Sketch 3.0.4 (8053) - http://www.bohemiancoding.com/sketch -->
    <title>1201-file-type-film</title>
    <desc>Created with Sketch.</desc>
    <defs></defs>
    <g id="Page-1" stroke="none" stroke-width="1" fill="none" fill-rule="evenodd" sketch:type="MSPage">
        <g id="Glyphish-8-Icons" sketch:type="MSArtboardGroup" transform="translate(-28.000000, -979.000000)" fill="#000000">
            <g id="1201-file-type-film" sketch:type="MSLayerGroup" transform="translate(28.036996, 979.860499)">
                <g id="_x31_201-file-type-film_x40_2x.png" sketch:type="MSShapeGroup">
                    <path d="M10,25 L10,43 C10,43.553 10.448,44 11,44 L29,44 C29.552,44 30,43.553 30,43 L30,25 C30,24.447 29.552,24 29,24 L11,24 C10.448,24 10,24.447 10,25 L10,25 Z M26,26 L28,26 L28,28 L26,28 L26,26 L26,26 Z M26,30 L28,30 L28,33 L26,33 L26,30 L26,30 Z M26,35 L28,35 L28,38 L26,38 L26,35 L26,35 Z M26,40 L28,40 L28,42 L26,42 L26,40 L26,40 Z M16,26 L24,26 L24,33 L16,33 L16,26 L16,26 Z M16,35 L24,35 L24,42 L16,42 L16,35 L16,35 Z M12,26 L14,26 L14,28 L12,28 L12,26 L12,26 Z M12,30 L14,30 L14,33 L12,33 L12,30 L12,30 Z M12,35 L14,35 L14,38 L12,38 L12,35 L12,35 Z M12,40 L14,40 L14,42 L12,42 L12,40 L12,40 Z M26,0 L2,0 C0.896,0 0,0.896 0,2 L0,54 C0,55.104 0.896,56 2,56 L38,56 C39.104,56 40,55.104 40,54 L40,14 L26,0 L26,0 Z M26,3 L37,14 L26,14 L26,3 L26,3 Z M38,54 L2,54 L2,2 L24,2 L24,15 C24,15.553 24.448,16 25,16 L38,16 L38,54 L38,54 Z" id="Shape"></path>
                </g>
            </g>
        </g>
    </g>
</svg>