<?xml version="1.0" encoding="UTF-8" standalone="no"?>
<svg width="42px" height="58px" viewBox="0 0 42 58" version="1.1" xmlns="http://www.w3.org/2000/svg" xmlns:xlink="http://www.w3.org/1999/xlink" xmlns:sketch="http://www.bohemiancoding.com/sketch/ns">
    <!-- Generator: Sketch 3.0.4 (8053) - http://www.bohemiancoding.com/sketch -->
    <title>1194-file-type-sound-recording</title>
    <desc>Created with Sketch.</desc>
    <defs></defs>
    <g id="Page-1" stroke="none" stroke-width="1" fill="none" fill-rule="evenodd" sketch:type="MSPage">
        <g id="Glyphish-8-Icons" sketch:type="MSArtboardGroup" transform="translate(-316.000000, -883.000000)" fill="#000000">
            <g id="1194-file-type-sound-recording" sketch:type="MSLayerGroup" transform="translate(316.036996, 883.860499)">
                <g id="_x31_194-file-type-sound-recording_x40_2x.png" sketch:type="MSShapeGroup">
                    <path d="M24,26 C24,23.791 22.209,22 20,22 C17.791,22 16,23.791 16,26 L16,30 L24,30 L24,26 L24,26 Z M26,0 L2,0 C0.896,0 0,0.896 0,2 L0,54 C0,55.104 0.896,56 2,56 L38,56 C39.104,56 40,55.104 40,54 L40,14 L26,0 L26,0 Z M26,3 L37,14 L26,14 L26,3 L26,3 Z M38,54 L2,54 L2,2 L24,2 L24,15 C24,15.553 24.448,16 25,16 L38,16 L38,54 L38,54 Z M20,40 C16.687,40 14,37.313 14,34 L14,32 L12,32 L12,34 C12,38.079 15.055,41.438 19,41.931 L19,44 L17,44 C16.448,44 16,44.447 16,45 C16,45.553 16.448,46 17,46 L23,46 C23.552,46 24,45.553 24,45 C24,44.447 23.552,44 23,44 L21,44 L21,41.931 C24.945,41.438 28,38.079 28,34 L28,32 L26,32 L26,34 C26,37.313 23.313,40 20,40 L20,40 Z M20,38 C22.209,38 24,36.209 24,34 L24,32 L16,32 L16,34 C16,36.209 17.791,38 20,38 L20,38 Z" id="Shape"></path>
                </g>
            </g>
        </g>
    </g>
</svg>