<?xml version="1.0" encoding="UTF-8" standalone="no"?>
<svg width="42px" height="58px" viewBox="0 0 42 58" version="1.1" xmlns="http://www.w3.org/2000/svg" xmlns:xlink="http://www.w3.org/1999/xlink" xmlns:sketch="http://www.bohemiancoding.com/sketch/ns">
    <!-- Generator: Sketch 3.0.4 (8053) - http://www.bohemiancoding.com/sketch -->
    <title>1204-file-type-text-file</title>
    <desc>Created with Sketch.</desc>
    <defs></defs>
    <g id="Page-1" stroke="none" stroke-width="1" fill="none" fill-rule="evenodd" sketch:type="MSPage">
        <g id="Glyphish-8-Icons" sketch:type="MSArtboardGroup" transform="translate(-316.000000, -979.000000)" fill="#000000">
            <g id="1204-file-type-text-file" sketch:type="MSLayerGroup" transform="translate(316.036996, 979.860499)">
                <g id="_x31_204-file-type-text-file_x40_2x.png" sketch:type="MSShapeGroup">
                    <path d="M26,0 L2,0 C0.896,0 0,0.896 0,2 L0,54 C0,55.104 0.896,56 2,56 L38,56 C39.104,56 40,55.104 40,54 L40,14 L26,0 L26,0 Z M26,3 L37,14 L26,14 L26,3 L26,3 Z M38,54 L2,54 L2,2 L24,2 L24,15 C24,15.553 24.448,16 25,16 L38,16 L38,54 L38,54 Z M12,25 L12,27 C12,27.553 12.448,28 13,28 C13.552,28 14,27.553 14,27 L14,26 L19,26 L19,42 L18,42 C17.448,42 17,42.447 17,43 C17,43.553 17.448,44 18,44 L22,44 C22.552,44 23,43.553 23,43 C23,42.447 22.552,42 22,42 L21,42 L21,26 L26,26 L26,27 C26,27.553 26.448,28 27,28 C27.552,28 28,27.553 28,27 L28,25 C28,24.447 27.552,24 27,24 L13,24 C12.448,24 12,24.447 12,25 L12,25 Z" id="Shape"></path>
                </g>
            </g>
        </g>
    </g>
</svg>