<?xml version="1.0" encoding="iso-8859-1"?>
<!-- Generator: Adobe Illustrator 16.0.4, SVG Export Plug-In . SVG Version: 6.00 Build 0)  -->
<!DOCTYPE svg PUBLIC "-//W3C//DTD SVG 1.1//EN" "http://www.w3.org/Graphics/SVG/1.1/DTD/svg11.dtd">
<svg version="1.1" id="Layer_1" xmlns="http://www.w3.org/2000/svg" xmlns:xlink="http://www.w3.org/1999/xlink" x="0px" y="0px"
	 width="44px" height="44px" viewBox="0 0 44 44" style="enable-background:new 0 0 44 44;" xml:space="preserve">
<g id="_x31_039-files-box-toolbar_x40_2x.png">
	<g>
		<path d="M12,6h20c0.553,0,1-0.447,1-1c0-0.552-0.447-1-1-1H12c-0.553,0-1,0.448-1,1C11,5.553,11.447,6,12,6z M10,10h24
			c0.553,0,1-0.447,1-1c0-0.552-0.447-1-1-1H10C9.448,8,9,8.448,9,9C9,9.553,9.448,10,10,10z M36,12H8c-0.553,0-1,0.448-1,1
			c0,0.553,0.447,1,1,1h28c0.553,0,1-0.447,1-1C37,12.448,36.553,12,36,12z M43.843,16.494l0.015-0.009l-7.936-15.87
			c-0.001-0.004-0.004-0.008-0.005-0.012l-0.06-0.118l-0.015,0.009C35.668,0.204,35.363,0,35,0H9C8.637,0,8.332,0.204,8.157,0.494
			L8.143,0.485L8.084,0.604C8.082,0.607,8.079,0.611,8.078,0.615l-7.936,15.87l0.015,0.009C0.066,16.645,0,16.812,0,17v8
			c0,0.553,0.447,1,1,1h1v17c0,0.553,0.447,1,1,1h38c0.553,0,1-0.447,1-1V26h1c0.553,0,1-0.447,1-1v-8
			C44,16.812,43.934,16.645,43.843,16.494z M9.615,2h24.771l6.999,14H2.615L9.615,2z M40,42H4V26h36V42z M42,24H2v-6h40V24z"/>
	</g>
</g>
<g>
</g>
<g>
</g>
<g>
</g>
<g>
</g>
<g>
</g>
<g>
</g>
<g>
</g>
<g>
</g>
<g>
</g>
<g>
</g>
<g>
</g>
<g>
</g>
<g>
</g>
<g>
</g>
<g>
</g>
</svg>
