<?xml version="1.0" encoding="UTF-8" standalone="no"?>
<svg width="42px" height="58px" viewBox="0 0 42 58" version="1.1" xmlns="http://www.w3.org/2000/svg" xmlns:xlink="http://www.w3.org/1999/xlink" xmlns:sketch="http://www.bohemiancoding.com/sketch/ns">
    <!-- Generator: Sketch 3.0.4 (8053) - http://www.bohemiancoding.com/sketch -->
    <title>1208-file-type-pencil</title>
    <desc>Created with Sketch.</desc>
    <defs></defs>
    <g id="Page-1" stroke="none" stroke-width="1" fill="none" fill-rule="evenodd" sketch:type="MSPage">
        <g id="Glyphish-8-Icons" sketch:type="MSArtboardGroup" transform="translate(-700.000000, -979.000000)" fill="#000000">
            <g id="1208-file-type-pencil" sketch:type="MSLayerGroup" transform="translate(700.036996, 979.860499)">
                <g id="_x31_208-file-type-pencil_x40_2x.png" sketch:type="MSShapeGroup">
                    <path d="M12.586,37.172 L16.828,41.414 L27.414,30.828 L23.172,26.586 L12.586,37.172 L12.586,37.172 Z M10.879,38.879 C9.707,40.051 10,44 10,44 C10,44 13.949,44.293 15.121,43.121 L15.414,42.828 L11.172,38.586 L10.879,38.879 L10.879,38.879 Z M26,0 L2,0 C0.896,0 0,0.896 0,2 L0,54 C0,55.104 0.896,56 2,56 L38,56 C39.104,56 40,55.104 40,54 L40,14 L26,0 L26,0 Z M26,3 L37,14 L26,14 L26,3 L26,3 Z M38,54 L2,54 L2,2 L24,2 L24,15 C24,15.553 24.447,16 25,16 L38,16 L38,54 L38,54 Z M24.586,25.172 L28.828,29.414 L29.121,29.121 C29.664,28.578 30,27.828 30,27 C30,25.343 28.657,24 27,24 C26.171,24 25.421,24.336 24.878,24.88 L24.586,25.172 L24.586,25.172 Z" id="Shape"></path>
                </g>
            </g>
        </g>
    </g>
</svg>