<?xml version="1.0" encoding="UTF-8" standalone="no"?>
<svg width="42px" height="58px" viewBox="0 0 42 58" version="1.1" xmlns="http://www.w3.org/2000/svg" xmlns:xlink="http://www.w3.org/1999/xlink" xmlns:sketch="http://www.bohemiancoding.com/sketch/ns">
    <!-- Generator: Sketch 3.0.4 (8053) - http://www.bohemiancoding.com/sketch -->
    <title>1191-file-type-image</title>
    <desc>Created with Sketch.</desc>
    <defs></defs>
    <g id="Page-1" stroke="none" stroke-width="1" fill="none" fill-rule="evenodd" sketch:type="MSPage">
        <g id="Glyphish-8-Icons" sketch:type="MSArtboardGroup" transform="translate(-28.000000, -883.000000)" fill="#000000">
            <g id="1191-file-type-image" sketch:type="MSLayerGroup" transform="translate(28.036996, 883.860499)">
                <g id="_x31_191-file-type-image_x40_2x.png" sketch:type="MSShapeGroup">
                    <path d="M18,32 C18,30.896 17.104,30 16,30 C14.896,30 14,30.896 14,32 C14,33.104 14.896,34 16,34 C17.104,34 18,33.104 18,32 L18,32 Z M26,0 L2,0 C0.896,0 0,0.896 0,2 L0,54 C0,55.104 0.896,56 2,56 L38,56 C39.104,56 40,55.104 40,54 L40,14 L26,0 L26,0 Z M26,3 L37,14 L26,14 L26,3 L26,3 Z M38,54 L2,54 L2,2 L24,2 L24,15 C24,15.553 24.448,16 25,16 L38,16 L38,54 L38,54 Z M10,42 L30,42 L30,26 L10,26 L10,42 L10,42 Z M12,28 L28,28 L28,40 L22,34 L18,38 L16,36 L12,40 L12,28 L12,28 Z" id="Shape"></path>
                </g>
            </g>
        </g>
    </g>
</svg>