<?xml version="1.0" encoding="UTF-8" standalone="no"?>
<svg width="42px" height="58px" viewBox="0 0 42 58" version="1.1" xmlns="http://www.w3.org/2000/svg" xmlns:xlink="http://www.w3.org/1999/xlink" xmlns:sketch="http://www.bohemiancoding.com/sketch/ns">
    <!-- Generator: Sketch 3.0.4 (8053) - http://www.bohemiancoding.com/sketch -->
    <title>1210-file-type-secure</title>
    <desc>Created with Sketch.</desc>
    <defs></defs>
    <g id="Page-1" stroke="none" stroke-width="1" fill="none" fill-rule="evenodd" sketch:type="MSPage">
        <g id="Glyphish-8-Icons" sketch:type="MSArtboardGroup" transform="translate(-892.000000, -979.000000)" fill="#000000">
            <g id="1210-file-type-secure" sketch:type="MSLayerGroup" transform="translate(892.036996, 979.860499)">
                <g id="_x31_210-file-type-secure_x40_2x.png" sketch:type="MSShapeGroup">
                    <path d="M26,0 L2,0 C0.896,0 0,0.896 0,2 L0,54 C0,55.104 0.896,56 2,56 L38,56 C39.104,56 40,55.104 40,54 L40,14 L26,0 L26,0 Z M26,3 L37,14 L26,14 L26,3 L26,3 Z M38,54 L2,54 L2,2 L24,2 L24,15 C24,15.553 24.448,16 25,16 L38,16 L38,54 L38,54 Z M20,24 C16.687,24 14,26.687 14,30 L14,32 C12.896,32 12,32.896 12,34 L12,42 C12,43.104 12.896,44 14,44 L26,44 C27.104,44 28,43.104 28,42 L28,34 C28,32.896 27.104,32 26,32 L26,30 C26,26.687 23.313,24 20,24 L20,24 Z M20,40 C18.896,40 18,39.104 18,38 C18,36.896 18.896,36 20,36 C21.104,36 22,36.896 22,38 C22,39.104 21.104,40 20,40 L20,40 Z M24,32 L16,32 L16,30 C16,27.791 17.791,26 20,26 C22.209,26 24,27.791 24,30 L24,32 L24,32 Z" id="Shape"></path>
                </g>
            </g>
        </g>
    </g>
</svg>