<?xml version="1.0" encoding="UTF-8" standalone="no"?>
<svg width="42px" height="58px" viewBox="0 0 42 58" version="1.1" xmlns="http://www.w3.org/2000/svg" xmlns:xlink="http://www.w3.org/1999/xlink" xmlns:sketch="http://www.bohemiancoding.com/sketch/ns">
    <!-- Generator: Sketch 3.0.4 (8053) - http://www.bohemiancoding.com/sketch -->
    <title>1205-file-type-pie-chart</title>
    <desc>Created with Sketch.</desc>
    <defs></defs>
    <g id="Page-1" stroke="none" stroke-width="1" fill="none" fill-rule="evenodd" sketch:type="MSPage">
        <g id="Glyphish-8-Icons" sketch:type="MSArtboardGroup" transform="translate(-412.000000, -979.000000)" fill="#000000">
            <g id="1205-file-type-pie-chart" sketch:type="MSLayerGroup" transform="translate(412.036996, 979.860499)">
                <g id="_x31_205-file-type-pie-chart_x40_2x.png" sketch:type="MSShapeGroup">
                    <path d="M20,24.059 C19.671,24.022 19.338,24 19,24 C14.029,24 10,28.029 10,33 C10,33.339 10.022,33.672 10.059,34 L20,34 L20,24.059 L20,24.059 Z M26,0 L2,0 C0.896,0 0,0.896 0,2 L0,54 C0,55.104 0.896,56 2,56 L38,56 C39.104,56 40,55.104 40,54 L40,14 L26,0 L26,0 Z M26,3 L37,14 L26,14 L26,3 L26,3 Z M38,54 L2,54 L2,2 L24,2 L24,15 C24,15.553 24.448,16 25,16 L38,16 L38,54 L38,54 Z M22,36 L12.059,36 C12.557,40.5 16.368,44 21,44 C25.971,44 30,39.971 30,35 C30,30.368 26.5,26.557 22,26.059 L22,36 L22,36 Z" id="Shape"></path>
                </g>
            </g>
        </g>
    </g>
</svg>