<?xml version="1.0" encoding="UTF-8" standalone="no"?>
<svg width="42px" height="58px" viewBox="0 0 42 58" version="1.1" xmlns="http://www.w3.org/2000/svg" xmlns:xlink="http://www.w3.org/1999/xlink" xmlns:sketch="http://www.bohemiancoding.com/sketch/ns">
    <!-- Generator: Sketch 3.0.4 (8053) - http://www.bohemiancoding.com/sketch -->
    <title>1200-file-type-settings</title>
    <desc>Created with Sketch.</desc>
    <defs></defs>
    <g id="Page-1" stroke="none" stroke-width="1" fill="none" fill-rule="evenodd" sketch:type="MSPage">
        <g id="Glyphish-8-Icons" sketch:type="MSArtboardGroup" transform="translate(-892.000000, -883.000000)" fill="#000000">
            <g id="1200-file-type-settings" sketch:type="MSLayerGroup" transform="translate(892.036996, 883.860499)">
                <g id="_x31_200-file-type-settings_x40_2x.png" sketch:type="MSShapeGroup">
                    <path d="M22,25.2 L22,23.951 C22,22.847 21.104,21.951 20,21.951 C18.896,21.951 18,22.847 18,23.951 L18,25.206 C16.994,25.443 16.047,25.831 15.199,26.37 L14.308,25.48 C13.527,24.699 12.26,24.699 11.48,25.48 C10.699,26.26 10.699,27.527 11.48,28.308 L12.365,29.193 C11.835,30.045 11.441,30.99 11.218,32 L9.951,32 C8.847,32 7.951,32.896 7.951,34 C7.951,35.104 8.847,36 9.951,36 L11.26,36 C11.494,36.993 11.874,37.93 12.406,38.766 L11.48,39.692 C10.699,40.473 10.699,41.74 11.48,42.52 C12.26,43.301 13.527,43.301 14.308,42.52 L15.244,41.584 C16.081,42.105 17.01,42.495 18,42.721 L18,44.049 C18,45.153 18.896,46.049 20,46.049 C21.104,46.049 22,45.153 22,44.049 L22,42.697 C22.982,42.466 23.909,42.091 24.741,41.57 L25.691,42.519 C26.472,43.3 27.739,43.3 28.519,42.519 C29.3,41.739 29.3,40.472 28.519,39.691 L27.595,38.767 C28.126,37.928 28.524,36.996 28.756,35.999 L30.048,35.999 C31.152,35.999 32.048,35.103 32.048,33.999 C32.048,32.895 31.152,31.999 30.048,31.999 L28.761,31.999 C28.535,30.994 28.16,30.045 27.631,29.196 L28.519,28.307 C29.3,27.526 29.3,26.259 28.519,25.479 C27.739,24.698 26.472,24.698 25.691,25.479 L24.815,26.355 C23.965,25.816 23.011,25.434 22,25.2 L22,25.2 Z M20,38.951 C17.238,38.951 15,36.713 15,33.951 C15,31.189 17.238,28.951 20,28.951 C22.762,28.951 25,31.189 25,33.951 C25,36.713 22.762,38.951 20,38.951 L20,38.951 Z M26,0 L2,0 C0.896,0 0,0.896 0,2 L0,54 C0,55.104 0.896,56 2,56 L38,56 C39.104,56 40,55.104 40,54 L40,14 L26,0 L26,0 Z M26,3 L37,14 L26,14 L26,3 L26,3 Z M38,54 L2,54 L2,2 L24,2 L24,15 C24,15.553 24.448,16 25,16 L38,16 L38,54 L38,54 Z" id="Shape"></path>
                </g>
            </g>
        </g>
    </g>
</svg>