<?xml version="1.0" encoding="UTF-8" standalone="no"?>
<svg width="42px" height="58px" viewBox="0 0 42 58" version="1.1" xmlns="http://www.w3.org/2000/svg" xmlns:xlink="http://www.w3.org/1999/xlink" xmlns:sketch="http://www.bohemiancoding.com/sketch/ns">
    <!-- Generator: Sketch 3.0.4 (8053) - http://www.bohemiancoding.com/sketch -->
    <title>1202-file-type-video</title>
    <desc>Created with Sketch.</desc>
    <defs></defs>
    <g id="Page-1" stroke="none" stroke-width="1" fill="none" fill-rule="evenodd" sketch:type="MSPage">
        <g id="Glyphish-8-Icons" sketch:type="MSArtboardGroup" transform="translate(-124.000000, -979.000000)" fill="#000000">
            <g id="1202-file-type-video" sketch:type="MSLayerGroup" transform="translate(124.036996, 979.860499)">
                <g id="_x31_202-file-type-video_x40_2x.png" sketch:type="MSShapeGroup">
                    <path d="M15.447,26.105 L15.443,26.115 C15.308,26.047 15.161,26 15,26 C14.448,26 14,26.448 14,27 L14,41 C14,41.553 14.448,42 15,42 C15.161,42 15.308,41.953 15.443,41.886 L15.447,41.895 L27.447,34.895 L27.443,34.886 C27.77,34.721 28,34.391 28,34 C28,33.609 27.77,33.279 27.443,33.114 L27.447,33.105 L15.447,26.105 L15.447,26.105 Z M26,0 L2,0 C0.896,0 0,0.896 0,2 L0,54 C0,55.104 0.896,56 2,56 L38,56 C39.104,56 40,55.104 40,54 L40,14 L26,0 L26,0 Z M26,3 L37,14 L26,14 L26,3 L26,3 Z M38,54 L2,54 L2,2 L24,2 L24,15 C24,15.553 24.448,16 25,16 L38,16 L38,54 L38,54 Z" id="Shape"></path>
                </g>
            </g>
        </g>
    </g>
</svg>