<?xml version="1.0" encoding="UTF-8" standalone="no"?>
<svg width="42px" height="58px" viewBox="0 0 42 58" version="1.1" xmlns="http://www.w3.org/2000/svg" xmlns:xlink="http://www.w3.org/1999/xlink" xmlns:sketch="http://www.bohemiancoding.com/sketch/ns">
    <!-- Generator: Sketch 3.0.4 (8053) - http://www.bohemiancoding.com/sketch -->
    <title>1193-file-type-audio</title>
    <desc>Created with Sketch.</desc>
    <defs></defs>
    <g id="Page-1" stroke="none" stroke-width="1" fill="none" fill-rule="evenodd" sketch:type="MSPage">
        <g id="Glyphish-8-Icons" sketch:type="MSArtboardGroup" transform="translate(-220.000000, -883.000000)" fill="#000000">
            <g id="1193-file-type-audio" sketch:type="MSLayerGroup" transform="translate(220.036996, 883.860499)">
                <g id="_x31_193-file-type-audio_x40_2x.png" sketch:type="MSShapeGroup">
                    <path d="M26,0 L2,0 C0.896,0 0,0.896 0,2 L0,54 C0,55.104 0.896,56 2,56 L38,56 C39.104,56 40,55.104 40,54 L40,14 L26,0 L26,0 Z M26,3 L37,14 L26,14 L26,3 L26,3 Z M38,54 L2,54 L2,2 L24,2 L24,15 C24,15.553 24.448,16 25,16 L38,16 L38,54 L38,54 Z M24,30 L24,33 L22,33 L22,27 L20,27 L20,31 L18,31 L18,34 L16,34 L16,33 L14,33 L14,30 L12,30 L12,25 L10,25 L10,34 L8,34 L8,36 L10,36 L10,45 L12,45 L12,40 L14,40 L14,37 L16,37 L16,36 L18,36 L18,39 L20,39 L20,43 L22,43 L22,37 L24,37 L24,40 L26,40 L26,37 L28,37 L28,36 L32,36 L32,34 L28,34 L28,33 L26,33 L26,30 L24,30 L24,30 Z" id="Shape"></path>
                </g>
            </g>
        </g>
    </g>
</svg>