<?xml version="1.0" encoding="iso-8859-1"?>
<!-- Generator: Adobe Illustrator 16.0.4, SVG Export Plug-In . SVG Version: 6.00 Build 0)  -->
<!DOCTYPE svg PUBLIC "-//W3C//DTD SVG 1.1//EN" "http://www.w3.org/Graphics/SVG/1.1/DTD/svg11.dtd">
<svg version="1.1" id="Layer_1" xmlns="http://www.w3.org/2000/svg" xmlns:xlink="http://www.w3.org/1999/xlink" x="0px" y="0px"
	 width="32px" height="44px" viewBox="0 0 32 44" style="enable-background:new 0 0 32 44;" xml:space="preserve">
<g id="_x31_209-file-type-vector_x40_2x.png">
	<g>
		<path d="M22,0H2C0.896,0,0,0.896,0,2v40c0,1.105,0.896,2,2,2h28c1.104,0,2-0.895,2-2V10L22,0z M22,3l7,7h-7V3z M30,42H2V2h18v9
			c0,0.553,0.448,1,1,1h9V42z M16.857,16.485l-0.015,0.009C16.668,16.204,16.363,16,16,16s-0.668,0.204-0.843,0.494l-0.015-0.009
			l-6,10l0.015,0.009C9.066,26.645,9,26.812,9,27c0,0.161,0.047,0.308,0.114,0.442l-0.009,0.005L11,31.236V32h-1
			c-0.553,0-1,0.447-1,1s0.447,1,1,1h1v1c0,0.553,0.447,1,1,1s1-0.447,1-1v-1h6v1c0,0.553,0.447,1,1,1s1-0.447,1-1v-1h1
			c0.553,0,1-0.447,1-1s-0.447-1-1-1h-1v-0.764l1.895-3.789l-0.009-0.005C22.953,27.308,23,27.161,23,27
			c0-0.188-0.066-0.355-0.157-0.506l0.015-0.009L16.857,16.485z M19.105,30.553l0.009,0.005C19.047,30.692,19,30.839,19,31v1h-6v-1
			c0-0.161-0.047-0.308-0.114-0.442l0.009-0.005l-1.755-3.509L15,20.61V27c0,0.553,0.447,1,1,1s1-0.447,1-1v-6.39l3.86,6.434
			L19.105,30.553z"/>
	</g>
</g>
<g>
</g>
<g>
</g>
<g>
</g>
<g>
</g>
<g>
</g>
<g>
</g>
<g>
</g>
<g>
</g>
<g>
</g>
<g>
</g>
<g>
</g>
<g>
</g>
<g>
</g>
<g>
</g>
<g>
</g>
</svg>
