<?xml version="1.0" encoding="iso-8859-1"?>
<!-- Generator: Adobe Illustrator 16.0.4, SVG Export Plug-In . SVG Version: 6.00 Build 0)  -->
<!DOCTYPE svg PUBLIC "-//W3C//DTD SVG 1.1//EN" "http://www.w3.org/Graphics/SVG/1.1/DTD/svg11.dtd">
<svg version="1.1" id="Layer_1" xmlns="http://www.w3.org/2000/svg" xmlns:xlink="http://www.w3.org/1999/xlink" x="0px" y="0px"
	 width="32px" height="44px" viewBox="0 0 32 44" style="enable-background:new 0 0 32 44;" xml:space="preserve">
<g id="_x31_192-file-type-music_x40_2x.png">
	<g>
		<path d="M22,0H2C0.896,0,0,0.896,0,2v40c0,1.105,0.896,2,2,2h28c1.104,0,2-0.895,2-2V10L22,0z M22,3l7,7h-7V3z M30,42H2V2h18v9
			c0,0.553,0.448,1,1,1h9V42z M12.808,18.039C12.351,18.131,12,18.516,12,19v11.416C11.41,30.158,10.732,30,10,30
			c-2.209,0-4,1.344-4,3c0,1.657,1.791,3,4,3c1.739,0,3.204-0.837,3.755-2H14V19.82l8-1.601v10.196C21.41,28.158,20.732,28,20,28
			c-2.209,0-4,1.344-4,3c0,1.657,1.791,3,4,3c1.739,0,3.204-0.837,3.755-2H24V17c0-0.552-0.448-1-1-1
			c-0.068,0-0.128,0.025-0.192,0.039l-0.004-0.02l-10,2L12.808,18.039z"/>
	</g>
</g>
<g>
</g>
<g>
</g>
<g>
</g>
<g>
</g>
<g>
</g>
<g>
</g>
<g>
</g>
<g>
</g>
<g>
</g>
<g>
</g>
<g>
</g>
<g>
</g>
<g>
</g>
<g>
</g>
<g>
</g>
</svg>
