<?xml version="1.0" encoding="iso-8859-1"?>
<!-- Generator: Adobe Illustrator 16.0.4, SVG Export Plug-In . SVG Version: 6.00 Build 0)  -->
<!DOCTYPE svg PUBLIC "-//W3C//DTD SVG 1.1//EN" "http://www.w3.org/Graphics/SVG/1.1/DTD/svg11.dtd">
<svg version="1.1" id="Layer_1" xmlns="http://www.w3.org/2000/svg" xmlns:xlink="http://www.w3.org/1999/xlink" x="0px" y="0px"
	 width="32px" height="44px" viewBox="0 0 32 44" style="enable-background:new 0 0 32 44;" xml:space="preserve">
<g id="_x31_204-file-type-text-file_x40_2x.png">
	<g>
		<path d="M22,0H2C0.896,0,0,0.896,0,2v40c0,1.105,0.896,2,2,2h28c1.104,0,2-0.895,2-2V10L22,0z M22,3l7,7h-7V3z M30,42H2V2h18v9
			c0,0.553,0.448,1,1,1h9V42z M8,17v2c0,0.553,0.448,1,1,1s1-0.447,1-1v-1h5v16h-1c-0.552,0-1,0.447-1,1s0.448,1,1,1h4
			c0.552,0,1-0.447,1-1s-0.448-1-1-1h-1V18h5v1c0,0.553,0.448,1,1,1s1-0.447,1-1v-2c0-0.553-0.448-1-1-1H9C8.448,16,8,16.447,8,17z"
			/>
	</g>
</g>
<g>
</g>
<g>
</g>
<g>
</g>
<g>
</g>
<g>
</g>
<g>
</g>
<g>
</g>
<g>
</g>
<g>
</g>
<g>
</g>
<g>
</g>
<g>
</g>
<g>
</g>
<g>
</g>
<g>
</g>
</svg>
