<?xml version="1.0" encoding="UTF-8" standalone="no"?>
<svg width="42px" height="58px" viewBox="0 0 42 58" version="1.1" xmlns="http://www.w3.org/2000/svg" xmlns:xlink="http://www.w3.org/1999/xlink" xmlns:sketch="http://www.bohemiancoding.com/sketch/ns">
    <!-- Generator: Sketch 3.0.4 (8053) - http://www.bohemiancoding.com/sketch -->
    <title>1197-file-type-zip</title>
    <desc>Created with Sketch.</desc>
    <defs></defs>
    <g id="Page-1" stroke="none" stroke-width="1" fill="none" fill-rule="evenodd" sketch:type="MSPage">
        <g id="Glyphish-8-Icons" sketch:type="MSArtboardGroup" transform="translate(-604.000000, -883.000000)" fill="#000000">
            <g id="1197-file-type-zip" sketch:type="MSLayerGroup" transform="translate(604.036996, 883.860499)">
                <g id="_x31_197-file-type-zip_x40_2x.png" sketch:type="MSShapeGroup">
                    <path d="M22,30 L22,28 L20,28 L20,30 L22,30 L22,30 Z M22,18 L22,16 L20,16 L20,18 L22,18 L22,18 Z M22,26 L22,24 L20,24 L20,26 L22,26 L22,26 Z M22,6 L22,4 L20,4 L20,6 L22,6 L22,6 Z M22,10 L22,8 L20,8 L20,10 L22,10 L22,10 Z M22,14 L22,12 L20,12 L20,14 L22,14 L22,14 Z M22,22 L22,20 L20,20 L20,22 L22,22 L22,22 Z M18,16 L20,16 L20,14 L18,14 L18,16 L18,16 Z M18,8 L20,8 L20,6 L18,6 L18,8 L18,8 Z M18,12 L20,12 L20,10 L18,10 L18,12 L18,12 Z M26,0 L2,0 C0.896,0 0,0.896 0,2 L0,54 C0,55.104 0.896,56 2,56 L38,56 C39.104,56 40,55.104 40,54 L40,14 L26,0 L26,0 Z M26,3 L37,14 L26,14 L26,3 L26,3 Z M38,54 L2,54 L2,2 L18,2 L18,4 L20,4 L20,2 L22,2 L24,2 L24,15 C24,15.553 24.447,16 25,16 L38,16 L38,54 L38,54 Z M18,24 L20,24 L20,22 L18,22 L18,24 L18,24 Z M18,20 L20,20 L20,18 L18,18 L18,20 L18,20 Z M18,28 L20,28 L20,26 L18,26 L18,28 L18,28 Z M18,32 L20,32 L20,30 L18,30 L18,32 L18,32 Z M18,36 C18,36 16,42 16,44 C16,45 17,46 18,46 L22,46 C23,46 24,45 24,44 C24,42 22,36 22,36 C21.46,34 20.015,34 20.002,34 L22,34 L22,32 L20,32 L20,34 C20,34 18.52,34 18,36 L18,36 Z M21.988,42.892 C21.956,43.455 21.483,44 21,44 L19,44 C18.517,44 18.044,43.455 18.012,42.892 C18.074,41.864 19.032,40 20,40 C20.968,40 21.927,41.864 21.988,42.892 L21.988,42.892 Z" id="Shape"></path>
                </g>
            </g>
        </g>
    </g>
</svg>