<?xml version="1.0" encoding="iso-8859-1"?>
<!-- Generator: Adobe Illustrator 16.0.4, SVG Export Plug-In . SVG Version: 6.00 Build 0)  -->
<!DOCTYPE svg PUBLIC "-//W3C//DTD SVG 1.1//EN" "http://www.w3.org/Graphics/SVG/1.1/DTD/svg11.dtd">
<svg version="1.1" id="Layer_1" xmlns="http://www.w3.org/2000/svg" xmlns:xlink="http://www.w3.org/1999/xlink" x="0px" y="0px"
	 width="40px" height="44px" viewBox="0 0 40 44" style="enable-background:new 0 0 40 44;" xml:space="preserve">
<g id="_x37_55-filing-cabinet-toolbar_x40_2x.png">
	<g>
		<path d="M16,38h8c1.104,0,2-0.896,2-2v-1c0-0.552-0.447-1-1-1s-1,0.448-1,1v1h-8v-1c0-0.552-0.447-1-1-1c-0.552,0-1,0.448-1,1v1
			C14,37.104,14.896,38,16,38z M38,0H2C0.896,0,0,0.896,0,2v40c0,1.104,0.896,2,2,2h36c1.104,0,2-0.896,2-2V2
			C40,0.896,39.104,0,38,0z M38,42H2V30h36V42z M38,28H2V16h36V28z M38,14H2V2h36V14z M16,10h8c1.104,0,2-0.895,2-2V7
			c0-0.552-0.447-1-1-1s-1,0.448-1,1v1h-8V7c0-0.552-0.447-1-1-1c-0.552,0-1,0.448-1,1v1C14,9.105,14.896,10,16,10z M16,24h8
			c1.104,0,2-0.896,2-2v-1c0-0.552-0.447-1-1-1s-1,0.448-1,1v1h-8v-1c0-0.552-0.447-1-1-1c-0.552,0-1,0.448-1,1v1
			C14,23.104,14.896,24,16,24z"/>
	</g>
</g>
<g>
</g>
<g>
</g>
<g>
</g>
<g>
</g>
<g>
</g>
<g>
</g>
<g>
</g>
<g>
</g>
<g>
</g>
<g>
</g>
<g>
</g>
<g>
</g>
<g>
</g>
<g>
</g>
<g>
</g>
</svg>
