<?xml version="1.0" encoding="iso-8859-1"?>
<!-- Generator: Adobe Illustrator 16.0.4, SVG Export Plug-In . SVG Version: 6.00 Build 0)  -->
<!DOCTYPE svg PUBLIC "-//W3C//DTD SVG 1.1//EN" "http://www.w3.org/Graphics/SVG/1.1/DTD/svg11.dtd">
<svg version="1.1" id="Layer_1" xmlns="http://www.w3.org/2000/svg" xmlns:xlink="http://www.w3.org/1999/xlink" x="0px" y="0px"
	 width="44px" height="56px" viewBox="0 0 44 56" style="enable-background:new 0 0 44 56;" xml:space="preserve">
<g id="_x39_30-film-2_x40_2x.png">
	<g>
		<path d="M43,0H1C0.447,0,0,0.447,0,1v54c0,0.553,0.447,1,1,1h42c0.553,0,1-0.447,1-1V1C44,0.447,43.553,0,43,0z M6,54H2v-4h4V54z
			 M6,48H2v-5h4V48z M6,41H2v-5h4V41z M6,34H2v-5h4V34z M6,27H2v-5h4V27z M6,20H2v-5h4V20z M6,13H2V8h4V13z M6,6H2V2h4V6z M36,54H8
			V29h28V54z M36,27H8V2h28V27z M42,54h-4v-4h4V54z M42,48h-4v-5h4V48z M42,41h-4v-5h4V41z M42,34h-4v-5h4V34z M42,27h-4v-5h4V27z
			 M42,20h-4v-5h4V20z M42,13h-4V8h4V13z M42,6h-4V2h4V6z"/>
	</g>
</g>
<g>
</g>
<g>
</g>
<g>
</g>
<g>
</g>
<g>
</g>
<g>
</g>
<g>
</g>
<g>
</g>
<g>
</g>
<g>
</g>
<g>
</g>
<g>
</g>
<g>
</g>
<g>
</g>
<g>
</g>
</svg>
