<?xml version="1.0" encoding="iso-8859-1"?>
<!-- Generator: Adobe Illustrator 16.0.4, SVG Export Plug-In . SVG Version: 6.00 Build 0)  -->
<!DOCTYPE svg PUBLIC "-//W3C//DTD SVG 1.1//EN" "http://www.w3.org/Graphics/SVG/1.1/DTD/svg11.dtd">
<svg version="1.1" id="Layer_1" xmlns="http://www.w3.org/2000/svg" xmlns:xlink="http://www.w3.org/1999/xlink" x="0px" y="0px"
	 width="56px" height="48px" viewBox="0 0 56 48" style="enable-background:new 0 0 56 48;" xml:space="preserve">
<g id="_x39_27-film-roll_x40_2x.png">
	<g>
		<path d="M15,4c-2.209,0-4,0.448-4,1c0,0.553,1.791,1,4,1s4-0.447,4-1C19,4.448,17.209,4,15,4z M30,13V4.5h-0.076
			C29.172,1.974,22.778,0,15,0C7.223,0,0.828,1.974,0.076,4.5H0V43c0,2.762,6.716,5,15,5s15-2.238,15-5v-2h26V13H30z M28,43
			c0,1.657-5.82,3-13,3S2,44.657,2,43V7.487C4.589,8.987,9.436,10,15,10s10.411-1.013,13-2.513V43z M15,8C7.82,8,2,6.657,2,5
			s5.82-3,13-3s13,1.343,13,3S22.18,8,15,8z M46,15h4v4h-4V15z M40,15h4v4h-4V15z M34,15h4v4h-4V15z M32,39h-2v-4h2V39z M32,33h-2
			V21h2V33z M32,19h-2v-4h2V19z M38,39h-4v-4h4V39z M44,39h-4v-4h4V39z M50,39h-4v-4h4V39z M54,39h-2v-4h2V39z M54,33H34V21h20V33z
			 M54,19h-2v-4h2V19z"/>
	</g>
</g>
<g>
</g>
<g>
</g>
<g>
</g>
<g>
</g>
<g>
</g>
<g>
</g>
<g>
</g>
<g>
</g>
<g>
</g>
<g>
</g>
<g>
</g>
<g>
</g>
<g>
</g>
<g>
</g>
<g>
</g>
</svg>
