<?xml version="1.0" encoding="iso-8859-1"?>
<!-- Generator: Adobe Illustrator 16.0.4, SVG Export Plug-In . SVG Version: 6.00 Build 0)  -->
<!DOCTYPE svg PUBLIC "-//W3C//DTD SVG 1.1//EN" "http://www.w3.org/Graphics/SVG/1.1/DTD/svg11.dtd">
<svg version="1.1" id="Layer_1" xmlns="http://www.w3.org/2000/svg" xmlns:xlink="http://www.w3.org/1999/xlink" x="0px" y="0px"
	 width="36px" height="44px" viewBox="0 0 36 44" style="enable-background:new 0 0 36 44;" xml:space="preserve">
<g id="_x39_30-film-2-toolbar_x40_2x.png">
	<g>
		<path d="M35,0H1C0.447,0,0,0.448,0,1v42c0,0.553,0.447,1,1,1h34c0.553,0,1-0.447,1-1V1C36,0.448,35.553,0,35,0z M6,42H2v-4h4V42z
			 M6,36H2v-3h4V36z M6,31H2v-3h4V31z M6,26H2v-3h4V26z M6,21H2v-3h4V21z M6,16H2v-3h4V16z M6,11H2V8h4V11z M6,6H2V2h4V6z M28,42H8
			V23h20V42z M28,21H8V2h20V21z M34,42h-4v-4h4V42z M34,36h-4v-3h4V36z M34,31h-4v-3h4V31z M34,26h-4v-3h4V26z M34,21h-4v-3h4V21z
			 M34,16h-4v-3h4V16z M34,11h-4V8h4V11z M34,6h-4V2h4V6z"/>
	</g>
</g>
<g>
</g>
<g>
</g>
<g>
</g>
<g>
</g>
<g>
</g>
<g>
</g>
<g>
</g>
<g>
</g>
<g>
</g>
<g>
</g>
<g>
</g>
<g>
</g>
<g>
</g>
<g>
</g>
<g>
</g>
</svg>
