<?xml version="1.0" encoding="iso-8859-1"?>
<!-- Generator: Adobe Illustrator 16.0.4, SVG Export Plug-In . SVG Version: 6.00 Build 0)  -->
<!DOCTYPE svg PUBLIC "-//W3C//DTD SVG 1.1//EN" "http://www.w3.org/Graphics/SVG/1.1/DTD/svg11.dtd">
<svg version="1.1" id="Layer_1" xmlns="http://www.w3.org/2000/svg" xmlns:xlink="http://www.w3.org/1999/xlink" x="0px" y="0px"
	 width="44px" height="36px" viewBox="0 0 44 36" style="enable-background:new 0 0 44 36;" xml:space="preserve">
<g id="_x31_080-film-strip-toolbar_x40_2x.png">
	<g>
		<path d="M38,6h-4v4h4V6z M19,6h-4v4h4V6z M29,6h-4v4h4V6z M10,6H6v4h4V6z M42,0H2C0.896,0,0,0.896,0,2v32c0,1.104,0.896,2,2,2h25
			c0.553,0,1-0.447,1-1c0-8.284,6.716-15,15-15c0.553,0,1-0.447,1-1V2C44,0.896,43.104,0,42,0z M42,18.051
			C33.412,18.552,26.552,25.412,26.051,34H2V2h40V18.051z M10,26H6v4h4V26z M19,26h-4v4h4V26z"/>
	</g>
</g>
<g>
</g>
<g>
</g>
<g>
</g>
<g>
</g>
<g>
</g>
<g>
</g>
<g>
</g>
<g>
</g>
<g>
</g>
<g>
</g>
<g>
</g>
<g>
</g>
<g>
</g>
<g>
</g>
<g>
</g>
</svg>
