<?xml version="1.0" encoding="iso-8859-1"?>
<!-- Generator: Adobe Illustrator 16.0.4, SVG Export Plug-In . SVG Version: 6.00 Build 0)  -->
<!DOCTYPE svg PUBLIC "-//W3C//DTD SVG 1.1//EN" "http://www.w3.org/Graphics/SVG/1.1/DTD/svg11.dtd">
<svg version="1.1" id="Layer_1" xmlns="http://www.w3.org/2000/svg" xmlns:xlink="http://www.w3.org/1999/xlink" x="0px" y="0px"
	 width="44px" height="36px" viewBox="0 0 44 36" style="enable-background:new 0 0 44 36;" xml:space="preserve">
<g id="_x39_27-film-roll-toolbar_x40_2x.png">
	<g>
		<path d="M24.009,8V4H24c0-2.209-5.373-4-12-4S0,1.791,0,4v28c0,2.209,5.373,4,12,4s12-1.791,12-4h0.009v-2H44V8H24.009z M22,32
			c0,1.104-4.478,2-10,2S2,33.104,2,32c0-0.012,0.008-0.023,0.009-0.034V6.214C4.159,7.29,7.83,8,12,8c4.176,0,7.851-0.712,10-1.791
			V32z M12,6C6.478,6,2,5.104,2,4s4.478-2,10-2s10,0.896,10,2S17.522,6,12,6z M36.018,10h1.988v3h-1.988V10z M32.018,10h1.988v3
			h-1.988V10z M27.986,10h2.02v3h-2.02V10z M26.006,28h-1.997v-3h1.997V28z M26.006,23h-1.997v-8h1.997V23z M26.006,13h-1.997v-3
			h1.997V13z M30.006,28h-2.02v-3h2.02V28z M34.006,28h-1.988v-3h1.988V28z M38.006,28h-1.988v-3h1.988V28z M41.991,28h-1.974v-3
			h1.974V28z M41.991,23H27.986v-8h14.005V23z M41.991,13h-1.974v-3h1.974V13z M11.989,3c-1.658,0-3.002,0.448-3.002,1
			c0,0.553,1.344,1,3.002,1s3.002-0.447,3.002-1C14.991,3.448,13.647,3,11.989,3z"/>
	</g>
</g>
<g>
</g>
<g>
</g>
<g>
</g>
<g>
</g>
<g>
</g>
<g>
</g>
<g>
</g>
<g>
</g>
<g>
</g>
<g>
</g>
<g>
</g>
<g>
</g>
<g>
</g>
<g>
</g>
<g>
</g>
</svg>
