<?xml version="1.0" encoding="iso-8859-1"?>
<!-- Generator: Adobe Illustrator 16.0.4, SVG Export Plug-In . SVG Version: 6.00 Build 0)  -->
<!DOCTYPE svg PUBLIC "-//W3C//DTD SVG 1.1//EN" "http://www.w3.org/Graphics/SVG/1.1/DTD/svg11.dtd">
<svg version="1.1" id="Layer_1" xmlns="http://www.w3.org/2000/svg" xmlns:xlink="http://www.w3.org/1999/xlink" x="0px" y="0px"
	 width="44px" height="56px" viewBox="0 0 44 56" style="enable-background:new 0 0 44 56;" xml:space="preserve">
<g id="_x39_29-film-1_x40_2x.png">
	<g>
		<path d="M43,0H1C0.447,0,0,0.447,0,1v54c0,0.553,0.447,1,1,1h42c0.553,0,1-0.447,1-1V1C44,0.447,43.553,0,43,0z M6,54H2v-7h4V54z
			 M6,45H2v-7h4V45z M6,36H2v-7h4V36z M6,27H2v-7h4V27z M6,18H2v-7h4V18z M6,9H2V2h4V9z M36,54H8V38h28V54z M36,36H8V20h28V36z
			 M36,18H8V2h28V18z M42,54h-4v-7h4V54z M42,45h-4v-7h4V45z M42,36h-4v-7h4V36z M42,27h-4v-7h4V27z M42,18h-4v-7h4V18z M42,9h-4V2
			h4V9z"/>
	</g>
</g>
<g>
</g>
<g>
</g>
<g>
</g>
<g>
</g>
<g>
</g>
<g>
</g>
<g>
</g>
<g>
</g>
<g>
</g>
<g>
</g>
<g>
</g>
<g>
</g>
<g>
</g>
<g>
</g>
<g>
</g>
</svg>
