<?xml version="1.0" encoding="iso-8859-1"?>
<!-- Generator: Adobe Illustrator 16.0.4, SVG Export Plug-In . SVG Version: 6.00 Build 0)  -->
<!DOCTYPE svg PUBLIC "-//W3C//DTD SVG 1.1//EN" "http://www.w3.org/Graphics/SVG/1.1/DTD/svg11.dtd">
<svg version="1.1" id="Layer_1" xmlns="http://www.w3.org/2000/svg" xmlns:xlink="http://www.w3.org/1999/xlink" x="0px" y="0px"
	 width="36px" height="44px" viewBox="0 0 36 44" style="enable-background:new 0 0 36 44;" xml:space="preserve">
<g id="_x39_29-film-1-toolbar_x40_2x.png">
	<g>
		<path d="M35,0H1C0.447,0,0,0.448,0,1v42c0,0.553,0.447,1,1,1h34c0.553,0,1-0.447,1-1V1C36,0.448,35.553,0,35,0z M6,42H2v-5h4V42z
			 M6,35H2v-5h4V35z M6,28H2v-5h4V28z M6,21H2v-5h4V21z M6,14H2V9h4V14z M6,7H2V2h4V7z M28,42H8V30h20V42z M28,28H8V16h20V28z
			 M28,14H8V2h20V14z M34,42h-4v-5h4V42z M34,35h-4v-5h4V35z M34,28h-4v-5h4V28z M34,21h-4v-5h4V21z M34,14h-4V9h4V14z M34,7h-4V2h4
			V7z"/>
	</g>
</g>
<g>
</g>
<g>
</g>
<g>
</g>
<g>
</g>
<g>
</g>
<g>
</g>
<g>
</g>
<g>
</g>
<g>
</g>
<g>
</g>
<g>
</g>
<g>
</g>
<g>
</g>
<g>
</g>
<g>
</g>
</svg>
