<?xml version="1.0" encoding="iso-8859-1"?>
<!-- Generator: Adobe Illustrator 16.0.4, SVG Export Plug-In . SVG Version: 6.00 Build 0)  -->
<!DOCTYPE svg PUBLIC "-//W3C//DTD SVG 1.1//EN" "http://www.w3.org/Graphics/SVG/1.1/DTD/svg11.dtd">
<svg version="1.1" id="Layer_1" xmlns="http://www.w3.org/2000/svg" xmlns:xlink="http://www.w3.org/1999/xlink" x="0px" y="0px"
	 width="44px" height="45px" viewBox="0 0 44 45" style="enable-background:new 0 0 44 45;" xml:space="preserve">
<g id="_x37_98-filter-toolbar_x40_2x.png">
	<g>
		<path d="M22,0C9.85,0,0,3.582,0,8c0,0,0,0,0,0.001c0.001,8.25,18,19.968,18,19.968V32v9v2c0,1.104,0.896,2,2,2h4
			c1.104,0,2-0.896,2-2v-2v-9v-4.031c0,0,18-11.719,18-19.969C44,3.582,34.15,0,22,0z M24,27v16h-4V27
			c0,0-12.029-7.762-16.418-14.632C7.51,14.554,14.285,16,22,16s14.491-1.446,18.418-3.632C36.029,19.238,24,27,24,27z M22,14
			C10.954,14,2,11.313,2,8s8.954-6,20-6s20,2.687,20,6S33.046,14,22,14z"/>
	</g>
</g>
<g>
</g>
<g>
</g>
<g>
</g>
<g>
</g>
<g>
</g>
<g>
</g>
<g>
</g>
<g>
</g>
<g>
</g>
<g>
</g>
<g>
</g>
<g>
</g>
<g>
</g>
<g>
</g>
<g>
</g>
</svg>
