<?xml version="1.0" encoding="iso-8859-1"?>
<!-- Generator: Adobe Illustrator 16.0.4, SVG Export Plug-In . SVG Version: 6.00 Build 0)  -->
<!DOCTYPE svg PUBLIC "-//W3C//DTD SVG 1.1//EN" "http://www.w3.org/Graphics/SVG/1.1/DTD/svg11.dtd">
<svg version="1.1" id="Layer_1" xmlns="http://www.w3.org/2000/svg" xmlns:xlink="http://www.w3.org/1999/xlink" x="0px" y="0px"
	 width="56px" height="56px" viewBox="0 0 56 56" style="enable-background:new 0 0 56 56;" xml:space="preserve">
<g id="_x37_98-filter_x40_2x.png">
	<g>
		<path d="M28,0C12.536,0,0,3.582,0,8c0,8,24,28,24,28v4v12v2c0,1.104,0.896,2,2,2h4c1.104,0,2-0.896,2-2v-2V40v-4c0,0,24-20,24-28
			C56,3.582,43.464,0,28,0z M30,35v19h-4V35c0,0-17.453-14.548-22.587-23.171C8.164,14.314,17.392,16,28,16
			s19.836-1.686,24.587-4.171C47.453,20.452,30,35,30,35z M28,14C13.641,14,2,11.313,2,8s11.641-6,26-6s26,2.687,26,6
			S42.359,14,28,14z"/>
	</g>
</g>
<g>
</g>
<g>
</g>
<g>
</g>
<g>
</g>
<g>
</g>
<g>
</g>
<g>
</g>
<g>
</g>
<g>
</g>
<g>
</g>
<g>
</g>
<g>
</g>
<g>
</g>
<g>
</g>
<g>
</g>
</svg>
