<?xml version="1.0" encoding="iso-8859-1"?>
<!-- Generator: Adobe Illustrator 16.0.4, SVG Export Plug-In . SVG Version: 6.00 Build 0)  -->
<!DOCTYPE svg PUBLIC "-//W3C//DTD SVG 1.1//EN" "http://www.w3.org/Graphics/SVG/1.1/DTD/svg11.dtd">
<svg version="1.1" id="Layer_1" xmlns="http://www.w3.org/2000/svg" xmlns:xlink="http://www.w3.org/1999/xlink" x="0px" y="0px"
	 width="44px" height="44px" viewBox="0 0 44 44" style="enable-background:new 0 0 44 44;" xml:space="preserve">
<g id="_x31_105-finger-drag_x40_2x.png">
	<g>
		<path d="M3.414,12H7c0.552,0,1-0.447,1-1s-0.448-1-1-1H3.414l1.293-1.293C4.888,8.526,5,8.276,5,8c0-0.552-0.448-1-1-1
			C3.724,7,3.474,7.112,3.293,7.293l-3,3C0.112,10.474,0,10.724,0,11s0.112,0.526,0.293,0.707l3,3C3.474,14.889,3.724,15,4,15
			c0.552,0,1-0.447,1-1c0-0.276-0.112-0.526-0.293-0.707L3.414,12z M14,17c-0.276,0-0.526,0.112-0.707,0.293L12,18.586V15
			c0-0.552-0.448-1-1-1s-1,0.448-1,1v3.586l-1.293-1.293C8.526,17.112,8.276,17,8,17c-0.552,0-1,0.448-1,1
			c0,0.276,0.112,0.526,0.293,0.707l3,3C10.474,21.889,10.724,22,11,22c0.276,0,0.526-0.111,0.707-0.293l3-3
			C14.888,18.526,15,18.276,15,18C15,17.448,14.552,17,14,17z M8,5c0.276,0,0.526-0.112,0.707-0.293L10,3.414V7c0,0.553,0.448,1,1,1
			s1-0.447,1-1V3.414l1.293,1.293C13.474,4.888,13.724,5,14,5c0.552,0,1-0.447,1-1c0-0.276-0.112-0.526-0.293-0.707l-3-3
			C11.526,0.112,11.276,0,11,0s-0.526,0.112-0.707,0.293l-3,3C7.112,3.474,7,3.724,7,4C7,4.553,7.448,5,8,5z M18.707,14.707l3-3
			C21.888,11.526,22,11.276,22,11s-0.112-0.526-0.293-0.707l-3-3C18.526,7.112,18.276,7,18,7c-0.552,0-1,0.448-1,1
			c0,0.276,0.112,0.526,0.293,0.707L18.586,10H15c-0.552,0-1,0.447-1,1s0.448,1,1,1h3.586l-1.293,1.293
			C17.112,13.474,17,13.724,17,14c0,0.553,0.448,1,1,1C18.276,15,18.526,14.889,18.707,14.707z M41,20
			c-0.395,0-0.77,0.081-1.116,0.22C39.539,18.943,38.385,18,37,18c-0.395,0-0.77,0.081-1.116,0.22C35.539,16.943,34.385,16,33,16
			c-0.353,0-0.686,0.072-1,0.184V11c0-1.657-1.343-3-3-3s-3,1.343-3,3v15.861l-2.616-3.699l-0.044,0.032
			C22.797,22.48,21.968,22,21,22c-1.657,0-3,1.343-3,3c0,0.389,0.08,0.757,0.214,1.098l-0.012,0.006l3.241,9.546
			C22.815,40.468,27.24,44,32.498,44c6.351,0,11.5-5.148,11.502-11.5V23C44,21.343,42.657,20,41,20z M42,25.806v0.249V32.5
			c-0.002,5.247-4.255,9.5-9.502,9.5c-4.236,0-7.821-2.773-9.047-6.602l0.003-0.002l-0.05-0.146
			c-0.02-0.066-0.027-0.138-0.046-0.204l-1.923-5.621c-0.002,0.008-0.005,0.015-0.008,0.021l-0.495-1.453
			c0.004,0,0.008,0.001,0.013,0.001l-0.917-2.682l0.031-0.018C20.03,25.2,20,25.104,20,25c0-0.552,0.448-1,1-1
			c0.304,0,0.567,0.143,0.75,0.357l0.002-0.002l4.488,6.295l0.009-0.007C26.433,30.857,26.696,31,27,31c0.552,0,1-0.447,1-1v-5.854
			v-2.224v-8.105V11c0-0.553,0.448-1,1-1s1,0.447,1,1v2.816V23c0,0.553,0.448,1,1,1s1-0.447,1-1v-2v-2c0-0.552,0.448-1,1-1
			s1,0.448,1,1v4.126V25c0,0.553,0.448,1,1,1s1-0.447,1-1v-1.322V21c0-0.552,0.448-1,1-1s1,0.448,1,1v3.766V27c0,0.553,0.448,1,1,1
			s1-0.447,1-1v-0.288V23c0-0.552,0.448-1,1-1s1,0.448,1,1V25.806z"/>
	</g>
</g>
<g>
</g>
<g>
</g>
<g>
</g>
<g>
</g>
<g>
</g>
<g>
</g>
<g>
</g>
<g>
</g>
<g>
</g>
<g>
</g>
<g>
</g>
<g>
</g>
<g>
</g>
<g>
</g>
<g>
</g>
</svg>
