<?xml version="1.0" encoding="UTF-8" standalone="no"?>
<svg width="47px" height="58px" viewBox="0 0 47 58" version="1.1" xmlns="http://www.w3.org/2000/svg" xmlns:xlink="http://www.w3.org/1999/xlink" xmlns:sketch="http://www.bohemiancoding.com/sketch/ns">
    <!-- Generator: Sketch 3.0.4 (8053) - http://www.bohemiancoding.com/sketch -->
    <title>1119-fingers-spread-left</title>
    <desc>Created with Sketch.</desc>
    <defs></defs>
    <g id="Page-1" stroke="none" stroke-width="1" fill="none" fill-rule="evenodd" sketch:type="MSPage">
        <g id="Glyphish-8-Icons" sketch:type="MSArtboardGroup" transform="translate(-793.000000, -115.000000)" fill="#000000">
            <g id="1119-fingers-spread-left" sketch:type="MSLayerGroup" transform="translate(793.036996, 115.860499)">
                <g id="_x31_119-fingers-spread-left_x40_2x.png" sketch:type="MSShapeGroup">
                    <path d="M43.604,22.291 C41.565,21.445 39.227,22.415 38.382,24.456 L34.332,31.603 L35.978,9.258 L35.952,9.256 C35.957,9.17 35.978,9.088 35.978,9 C35.978,6.791 34.189,5 31.981,5 C29.967,5 28.319,6.496 28.042,8.435 L28.04,8.435 L26.907,18.556 L24.915,3.209 L24.89,3.212 C24.524,1.381 22.916,0 20.984,0 C18.784,0 17,1.791 17,4 L17.785,18.927 L14.935,7.161 L14.918,7.164 C14.555,5.454 13.106,4.117 11.276,4.001 C9.071,3.86 7.17,5.533 7.029,7.738 C7.006,8.112 7.046,8.472 7.119,8.822 L7.109,8.824 L10.013,23.066 L7.781,17.696 L7.765,17.702 C7.225,16.134 5.752,15 4,15 C1.791,15 0,16.791 0,19 C0,19.458 0.081,19.895 0.221,20.304 L0.219,20.304 L0.227,20.328 C0.239,20.361 0.249,20.395 0.262,20.428 L8.707,44.712 C10.717,51.249 16.796,56 23.986,56 C30.757,56 36.532,51.78 38.862,45.829 L38.865,45.831 L45.765,27.518 C46.408,25.298 45.643,23.137 43.604,22.291 L43.604,22.291 Z M43.92,26.752 L37.023,45.058 L37.019,45.058 C34.99,50.287 29.928,54 23.986,54 C17.717,54 12.424,49.869 10.645,44.182 L10.649,44.181 L9.001,39.449 L8.248,37.28 L8.248,37.284 L2.11,19.654 L2.118,19.651 C2.047,19.446 2,19.229 2,19 C2,17.896 2.896,16.979 4,17 C4.743,17.014 5.604,17.497 5.944,18.33 C5.95,18.344 5.958,18.361 5.964,18.376 L5.953,18.38 L6.727,20.253 C6.996,20.938 7.21,21.5 7.21,21.5 C7.218,21.49 7.223,21.479 7.231,21.469 L12.075,33.183 L12.094,33.179 C12.18,33.643 12.568,34 13.057,34 C13.609,34 14.056,33.553 14.056,33 C14.056,32.924 14.029,32.856 14.012,32.785 L14.048,32.777 L14.046,32.772 L9.065,8.408 C9.065,8.408 9.001,8.252 9.025,7.865 C9.095,6.762 10.046,5.927 11.148,5.996 C12.064,6.055 12.788,6.692 12.969,7.547 L12.978,7.577 L18.229,29.199 L18.248,29.197 C18.342,29.651 18.726,30 19.207,30 C19.76,30 20.207,29.553 20.207,29 C20.207,28.972 20.193,28.948 20.19,28.921 L20.207,28.918 L20.184,28.823 L19,4 C19,2.896 19.896,2 21,2 C22.104,2 23,2.896 23,4 L25.975,27 L25.985,27 C25.985,27.553 26.432,28 26.984,28 C27.536,28 27.983,27.553 27.983,27 L28.005,27 L29.983,9 L29.993,9 C29.993,8.938 29.986,8.879 29.992,8.816 C30.095,7.716 31.068,6.908 32.167,7.009 C33.203,7.106 33.97,7.979 33.97,8.999 L33.981,8.999 L33.971,9.125 C33.97,9.146 33.974,9.165 33.972,9.186 C33.971,9.2 33.966,9.212 33.964,9.226 L32.047,35.64 L32.044,35.644 L32.046,35.645 L32.046,35.656 L32.068,35.666 C32.029,35.771 32,35.882 32,36 C32,36.553 32.447,37 33,37 C33.409,37 33.759,36.753 33.914,36.4 L33.924,36.405 L40.228,25.221 C40.651,24.2 41.819,23.715 42.839,24.138 C43.858,24.562 44.218,25.646 43.92,26.752 L43.92,26.752 Z" id="Shape"></path>
                </g>
            </g>
        </g>
    </g>
</svg>