<?xml version="1.0" encoding="iso-8859-1"?>
<!-- Generator: Adobe Illustrator 16.0.4, SVG Export Plug-In . SVG Version: 6.00 Build 0)  -->
<!DOCTYPE svg PUBLIC "-//W3C//DTD SVG 1.1//EN" "http://www.w3.org/Graphics/SVG/1.1/DTD/svg11.dtd">
<svg version="1.1" id="Layer_1" xmlns="http://www.w3.org/2000/svg" xmlns:xlink="http://www.w3.org/1999/xlink" x="0px" y="0px"
	 width="36.017px" height="44px" viewBox="0 0 36.017 44" style="enable-background:new 0 0 36.017 44;" xml:space="preserve">
<g id="_x31_120-fingers-spread-right_x40_2x.png">
	<g>
		<path d="M33.008,12c-1.145,0-2.129,0.646-2.637,1.586l-0.004-0.002l-0.021,0.046c-0.062,0.12-0.117,0.242-0.163,0.371
			l-2.072,4.721l1.793-11.949c0.065-0.247,0.112-0.502,0.112-0.771C30.017,4.345,28.67,3,27.008,3c-1.614,0-2.92,1.271-2.994,2.864
			l-2.005,8.52V3.079c0.001-0.026,0.008-0.05,0.008-0.077C22.017,1.345,20.67,0,19.008,0C17.347,0,16,1.345,16,3.002
			c0,0.005,0.001,0.009,0.001,0.014l-1.109,9.987l-0.893-6.332l-0.018,0.003c-0.162-1.506-1.422-2.682-2.97-2.682
			c-1.658,0-3.003,1.344-3.003,3.002C8.009,6.996,8.01,6.998,8.01,7H8.009l0.808,16.986l-3.188-5.445
			c-0.028-0.05-0.056-0.1-0.087-0.147L5.539,18.39C5.005,17.556,4.073,17,3.008,17C1.347,17,0,18.345,0,20.002
			c0,0.295,0.056,0.573,0.134,0.842l-0.011,0.004l4.469,14.031l0.002-0.001C6.241,40.163,11.174,44,17.003,44
			c5.66,0,10.463-3.625,12.244-8.676l0.019,0.006l6.475-19.086c0.174-0.379,0.276-0.798,0.276-1.242
			C36.017,13.344,34.67,12,33.008,12z M33.946,15.328l-0.006-0.002l-0.006,0.017l0.004,0.003l-2.329,6.849L29.62,28.06
			c-0.001-0.002-0.002-0.005-0.002-0.007l-2.248,6.609l-0.012-0.006c-1.511,4.271-5.57,7.335-10.355,7.335
			c-4.948,0-9.132-3.271-10.511-7.771l-0.02,0.02L2.014,20.204l0.033-0.015c-0.013-0.063-0.038-0.121-0.038-0.188
			c0-0.551,0.448-0.996,1.002-0.996c0.312,0,0.581,0.151,0.765,0.375L3.8,19.369l1.497,2.565l0.001-0.001l1.02,1.741
			c-0.001,0.002-0.002,0.003-0.003,0.005l1.136,1.944c0.001-0.003,0.002-0.006,0.004-0.009l1.606,2.744
			c0.144,0.38,0.503,0.652,0.931,0.652c0.554,0,1.002-0.45,1.002-1.006c0-0.019-0.01-0.034-0.011-0.052l0.024-0.001L10.009,7h0.016
			c0.005-0.51,0.378-0.946,0.894-0.995c0.55-0.051,1.038,0.355,1.089,0.908c0.002,0.014-0.005,0.026-0.004,0.04l0.005-0.001
			l0.38,2.693c0.004-0.001,0.007-0.002,0.01-0.004l1.244,8.827c-0.002,0.001-0.005,0.002-0.007,0.003l0.28,1.986
			c0.003-0.001,0.005-0.002,0.007-0.002l0.097,0.686l0.027-0.004C14.118,21.622,14.517,22,15.019,22
			c0.512,0,0.918-0.392,0.978-0.891L16,21.11l2.01-18.096h0.002c0-0.005-0.003-0.008-0.003-0.013c0-0.551,0.448-0.996,1.002-0.996
			c0.553,0,1,0.445,1.001,0.994h-0.003v0.019v2.803v12.557v2.043v2.576V23h-0.001c0,0.002-0.001,0.004-0.001,0.006
			c0,0.556,0.448,1.006,1.001,1.006c0.476,0,0.854-0.34,0.957-0.787l0.018,0.005l0.288-1.245l3.73-16.133l0.038,0.003
			c0.074-0.478,0.471-0.849,0.972-0.849c0.538,0,0.97,0.424,0.993,0.953l-0.008,0.053l0.022,0.001l-1.798,11.833l-0.526,3.513
			c-0.002-0.002-0.005-0.003-0.007-0.005l-0.376,2.473c0.004,0.004,0.008,0.007,0.011,0.01l-0.303,2.016l0.017,0.003
			c-0.007,0.046-0.027,0.087-0.027,0.135c0,0.556,0.448,1.005,1.001,1.005c0.413,0,0.752-0.258,0.903-0.617l0.019,0.008l0.021-0.047
			c0.002,0.003,0.002,0.006,0.004,0.009l0.997-2.277c-0.001-0.002-0.001-0.004-0.003-0.005l2.496-5.686l1.7-3.882l0.024,0.012
			c0.174-0.292,0.474-0.503,0.84-0.503c0.553,0,1.002,0.445,1.002,0.996C34.013,15.117,33.982,15.225,33.946,15.328z"/>
	</g>
</g>
<g>
</g>
<g>
</g>
<g>
</g>
<g>
</g>
<g>
</g>
<g>
</g>
<g>
</g>
<g>
</g>
<g>
</g>
<g>
</g>
<g>
</g>
<g>
</g>
<g>
</g>
<g>
</g>
<g>
</g>
</svg>
