<?xml version="1.0" encoding="iso-8859-1"?>
<!-- Generator: Adobe Illustrator 16.0.4, SVG Export Plug-In . SVG Version: 6.00 Build 0)  -->
<!DOCTYPE svg PUBLIC "-//W3C//DTD SVG 1.1//EN" "http://www.w3.org/Graphics/SVG/1.1/DTD/svg11.dtd">
<svg version="1.1" id="Layer_1" xmlns="http://www.w3.org/2000/svg" xmlns:xlink="http://www.w3.org/1999/xlink" x="0px" y="0px"
	 width="36.018px" height="44px" viewBox="0 0 36.018 44" style="enable-background:new 0 0 36.018 44;" xml:space="preserve">
<g id="_x31_119-fingers-spread-left_x40_2x.png">
	<g>
		<path d="M36.018,20.002c0-1.657-1.348-3.002-3.009-3.002c-1.065,0-1.997,0.556-2.531,1.39l-0.002,0.003
			c-0.031,0.049-0.06,0.099-0.087,0.149L27.2,23.986L28.008,7h-0.001c0-0.002,0.001-0.004,0.001-0.006
			c0-1.658-1.345-3.002-3.003-3.002c-1.548,0-2.808,1.176-2.97,2.682l-0.018-0.003l-0.893,6.332l-1.109-9.987
			c0-0.005,0.001-0.009,0.001-0.014C20.017,1.345,18.67,0,17.009,0C15.347,0,14,1.345,14,3.002c0,0.027,0.007,0.052,0.008,0.078
			v11.304l-2.005-8.521C11.929,4.271,10.622,3,9.009,3C7.347,3,6,4.345,6,6.002c0,0.269,0.047,0.523,0.112,0.771l1.793,11.949
			l-2.072-4.721C5.787,13.872,5.732,13.75,5.67,13.63l-0.021-0.046l-0.004,0.002C5.138,12.646,4.153,12,3.009,12
			C1.347,12,0,13.344,0,15.002c0,0.444,0.103,0.863,0.276,1.242L6.752,35.33l0.018-0.006C8.551,40.375,13.354,44,19.014,44
			c5.829,0,10.762-3.837,12.409-9.122l0.002,0.001l4.47-14.031l-0.012-0.004C35.961,20.575,36.018,20.297,36.018,20.002z
			 M34.003,20.204L29.544,34.24l-0.02-0.02c-1.379,4.499-5.562,7.771-10.511,7.771c-4.785,0-8.845-3.064-10.355-7.335l-0.012,0.006
			l-2.248-6.609c0,0.002-0.001,0.005-0.002,0.007l-1.989-5.865l-2.329-6.849l0.004-0.003l-0.006-0.017L2.07,15.328
			c-0.036-0.104-0.066-0.211-0.066-0.326c0-0.551,0.449-0.996,1.002-0.996c0.366,0,0.666,0.211,0.84,0.503l0.024-0.012l1.719,3.923
			l2.478,5.645c-0.001,0.001-0.002,0.003-0.003,0.005l0.997,2.277c0.002-0.003,0.002-0.006,0.004-0.009l0.021,0.047l0.019-0.008
			c0.151,0.359,0.49,0.617,0.903,0.617c0.553,0,1.001-0.449,1.001-1.005c0-0.048-0.021-0.089-0.027-0.135l0.017-0.003l-0.303-2.016
			c0.003-0.003,0.007-0.006,0.011-0.01l-0.376-2.473c-0.002,0.002-0.005,0.003-0.007,0.005l-0.523-3.495L7.998,6.013l0.022-0.001
			L8.013,5.96c0.023-0.53,0.455-0.954,0.993-0.954c0.501,0,0.897,0.371,0.972,0.849l0.038-0.003l3.775,16.328l0.243,1.05
			l0.018-0.005c0.103,0.447,0.481,0.787,0.957,0.787c0.553,0,1.001-0.45,1.001-1.006c0-0.002-0.001-0.004-0.001-0.006h-0.001v-0.003
			v-2.576v-2.043V5.821V3.019V3h-0.003c0.001-0.549,0.448-0.994,1.001-0.994c0.554,0,1.002,0.445,1.002,0.996
			c0,0.005-0.003,0.008-0.003,0.013h0.002l2.01,18.096l0.004-0.001C20.08,21.608,20.486,22,20.998,22c0.503,0,0.9-0.378,0.973-0.862
			l0.027,0.004l0.097-0.686c0.002,0,0.005,0.001,0.007,0.002l0.28-1.986c-0.002-0.001-0.005-0.002-0.007-0.003l1.244-8.827
			c0.003,0.002,0.006,0.003,0.01,0.004l0.38-2.693l0.005,0.001c0.001-0.014-0.006-0.026-0.004-0.04
			c0.051-0.553,0.539-0.959,1.089-0.908C25.614,6.054,25.987,6.49,25.992,7h0.016L25.01,27.953l0.024,0.001
			c-0.001,0.018-0.011,0.033-0.011,0.052c0,0.556,0.448,1.006,1.002,1.006c0.428,0,0.787-0.272,0.931-0.652l1.606-2.744
			c0.002,0.003,0.003,0.006,0.004,0.009l1.136-1.945c-0.001-0.001-0.002-0.002-0.003-0.004l1.02-1.741l0.001,0.001l1.497-2.565
			l0.024,0.012c0.184-0.224,0.452-0.375,0.765-0.375c0.554,0,1.002,0.445,1.002,0.996c0,0.066-0.025,0.124-0.038,0.188
			L34.003,20.204z"/>
	</g>
</g>
<g>
</g>
<g>
</g>
<g>
</g>
<g>
</g>
<g>
</g>
<g>
</g>
<g>
</g>
<g>
</g>
<g>
</g>
<g>
</g>
<g>
</g>
<g>
</g>
<g>
</g>
<g>
</g>
<g>
</g>
</svg>
