<?xml version="1.0" encoding="UTF-8" standalone="no"?>
<svg width="58px" height="58px" viewBox="0 0 58 58" version="1.1" xmlns="http://www.w3.org/2000/svg" xmlns:xlink="http://www.w3.org/1999/xlink" xmlns:sketch="http://www.bohemiancoding.com/sketch/ns">
    <!-- Generator: Sketch 3.0.4 (8053) - http://www.bohemiancoding.com/sketch -->
    <title>1105-finger-drag</title>
    <desc>Created with Sketch.</desc>
    <defs></defs>
    <g id="Page-1" stroke="none" stroke-width="1" fill="none" fill-rule="evenodd" sketch:type="MSPage">
        <g id="Glyphish-8-Icons" sketch:type="MSArtboardGroup" transform="translate(-404.000000, -19.000000)" fill="#000000">
            <g id="1105-finger-drag" sketch:type="MSLayerGroup" transform="translate(404.036996, 19.860499)">
                <g id="_x31_105-finger-drag_x40_2x.png" sketch:type="MSShapeGroup">
                    <path d="M8,6 C8.276,6 8.526,5.888 8.707,5.707 L11,3.414 L11,8 C11,8.553 11.448,9 12,9 C12.552,9 13,8.553 13,8 L13,3.414 L15.293,5.707 C15.474,5.888 15.724,6 16,6 C16.552,6 17,5.553 17,5 C17,4.724 16.888,4.474 16.707,4.293 L12.707,0.293 C12.526,0.112 12.276,0 12,0 C11.724,0 11.474,0.112 11.293,0.293 L7.293,4.293 C7.112,4.474 7,4.724 7,5 C7,5.553 7.448,6 8,6 L8,6 Z M3.414,13 L8,13 C8.552,13 9,12.553 9,12 C9,11.448 8.552,11 8,11 L3.414,11 L5.707,8.707 C5.888,8.526 6,8.276 6,8 C6,7.447 5.552,7 5,7 C4.724,7 4.474,7.112 4.293,7.293 L0.293,11.293 C0.112,11.474 0,11.724 0,12 C0,12.276 0.112,12.526 0.293,12.707 L4.293,16.707 C4.474,16.888 4.724,17 5,17 C5.552,17 6,16.553 6,16 C6,15.724 5.888,15.474 5.707,15.293 L3.414,13 L3.414,13 Z M16,18 C15.724,18 15.474,18.112 15.292,18.293 L13,20.586 L13,16 C13,15.447 12.552,15 12,15 C11.448,15 11,15.447 11,16 L11,20.586 L8.708,18.293 C8.526,18.112 8.276,18 8,18 C7.448,18 7,18.448 7,19 C7,19.276 7.112,19.526 7.293,19.707 L11.293,23.707 C11.474,23.889 11.724,24 12,24 C12.276,24 12.526,23.889 12.707,23.707 L16.707,19.707 C16.888,19.526 17,19.276 17,19 C17,18.448 16.552,18 16,18 L16,18 Z M24,12 C24,11.724 23.888,11.474 23.707,11.293 L19.707,7.293 C19.526,7.112 19.276,7 19,7 C18.448,7 18,7.447 18,8 C18,8.276 18.112,8.526 18.293,8.707 L20.586,11 L16,11 C15.448,11 15,11.448 15,12 C15,12.553 15.448,13 16,13 L20.586,13 L18.293,15.293 C18.112,15.474 18,15.724 18,16 C18,16.553 18.448,17 19,17 C19.276,17 19.526,16.888 19.707,16.707 L23.707,12.707 C23.888,12.526 24,12.276 24,12 L24,12 Z M52,22 C51.17,22 50.4,22.253 49.761,22.686 C49.215,21.126 47.746,20 46,20 C45.17,20 44.4,20.253 43.761,20.686 C43.215,19.126 41.746,18 40,18 C39.268,18 38.59,18.212 38,18.555 L38,10 C38,7.791 36.209,6 34,6 C31.791,6 30,7.791 30,10 L30,32.913 L27.688,28.456 C26.655,26.384 24.502,25.446 22.461,26.291 C20.42,27.137 19.451,29.477 20.296,31.518 L24.6,44.297 C26.48,51.044 32.654,56 40,56 C48.836,56 56,48.837 56,40 L56,39.999 L56,26 C56,23.791 54.209,22 52,22 L52,22 Z M54,40 C54,47.732 47.732,54 40,54 C34.084,54 29.036,50.325 26.986,45.138 L26.967,45.14 L26.966,45.137 L26.987,45.128 L22.145,30.752 C21.722,29.731 22.207,28.562 23.228,28.139 C24.249,27.716 25.261,28.116 25.841,29.222 L30.089,37.41 L30.092,37.408 C30.248,37.756 30.594,38 31,38 C31.552,38 32,37.553 32,37 L32,10 C32,8.896 32.896,8 34,8 C35.104,8 36,8.896 36,10 L36,27 C36,27.553 36.448,28 37,28 C37.552,28 38,27.553 38,27 L38,22 C38,20.896 38.896,20 40,20 C41.104,20 42,20.896 42,22 L42,29 C42,29.553 42.448,30 43,30 C43.552,30 44,29.553 44,29 L44,24 C44,22.896 44.896,22 46,22 C47.104,22 48,22.896 48,24 L48,31 C48,31.553 48.448,32 49,32 C49.552,32 50,31.553 50,31 L50,26.001 C50,26.001 50,26.001 50,26 C50,24.896 50.896,24 52,24 C53.104,24 54,24.896 54,26 L54,40 L54,40 Z" id="Shape"></path>
                </g>
            </g>
        </g>
    </g>
</svg>