<?xml version="1.0" encoding="UTF-8" standalone="no"?>
<svg width="47px" height="58px" viewBox="0 0 47 58" version="1.1" xmlns="http://www.w3.org/2000/svg" xmlns:xlink="http://www.w3.org/1999/xlink" xmlns:sketch="http://www.bohemiancoding.com/sketch/ns">
    <!-- Generator: Sketch 3.0.4 (8053) - http://www.bohemiancoding.com/sketch -->
    <title>1120-fingers-spread-right</title>
    <desc>Created with Sketch.</desc>
    <defs></defs>
    <g id="Page-1" stroke="none" stroke-width="1" fill="none" fill-rule="evenodd" sketch:type="MSPage">
        <g id="Glyphish-8-Icons" sketch:type="MSArtboardGroup" transform="translate(-889.000000, -115.000000)" fill="#000000">
            <g id="1120-fingers-spread-right" sketch:type="MSLayerGroup" transform="translate(889.036996, 115.860499)">
                <g id="_x31_120-fingers-spread-right_x40_2x.png" sketch:type="MSShapeGroup">
                    <path d="M45.987,19 C45.987,16.791 44.196,15 41.987,15 C40.235,15 38.762,16.134 38.221,17.702 L38.205,17.696 L35.974,23.066 L38.877,8.824 L38.867,8.822 C38.94,8.472 38.98,8.112 38.957,7.738 C38.816,5.533 36.915,3.86 34.71,4.001 C32.88,4.117 31.432,5.454 31.068,7.164 L31.051,7.161 L28.2,18.927 L28.987,4 C28.987,1.791 27.203,0 25.003,0 C23.071,0 21.463,1.381 21.098,3.212 L21.073,3.209 L19.082,18.556 L17.948,8.435 L17.946,8.435 C17.669,6.496 16.021,5 14.007,5 C11.799,5 10.01,6.791 10.01,9 C10.01,9.088 10.031,9.17 10.036,9.257 L10.01,9.259 L11.656,31.604 L7.606,24.457 C6.761,22.416 4.424,21.446 2.384,22.292 C0.345,23.138 -0.421,25.299 0.222,27.519 L7.122,45.832 L7.125,45.83 C9.455,51.78 15.229,56 22.001,56 C29.191,56 35.271,51.249 37.28,44.712 L45.725,20.428 C45.738,20.396 45.748,20.362 45.76,20.328 L45.768,20.304 L45.766,20.304 C45.906,19.895 45.987,19.458 45.987,19 L45.987,19 Z M43.877,19.654 L37.74,37.283 C37.739,37.282 37.739,37.28 37.739,37.279 L36.986,39.448 L35.338,44.18 L35.342,44.181 C33.564,49.869 28.27,54 22.001,54 C16.06,54 10.997,50.287 8.969,45.058 L8.965,45.058 L2.067,26.752 C1.769,25.646 2.129,24.562 3.148,24.139 C4.169,23.716 5.336,24.201 5.759,25.222 L12.063,36.406 L12.073,36.401 C12.228,36.754 12.578,37.001 12.987,37.001 C13.54,37.001 13.987,36.554 13.987,36.001 C13.987,35.883 13.958,35.772 13.92,35.667 L13.943,35.657 L13.942,35.646 L13.944,35.645 L13.941,35.641 L12.024,9.227 C12.023,9.213 12.018,9.201 12.016,9.187 C12.014,9.166 12.018,9.147 12.017,9.126 L12.008,9 L12.019,9 C12.019,7.979 12.786,7.106 13.822,7.01 C14.921,6.908 15.894,7.717 15.997,8.817 C16.002,8.879 15.995,8.938 15.995,9 L16.005,9 L17.983,27 L18.005,27 C18.005,27.553 18.452,28 19.004,28 C19.556,28 20.003,27.553 20.003,27 L20.013,27 L22.988,4 C22.988,2.896 23.884,2 24.988,2 C26.092,2 26.988,2.896 26.988,4 L25.804,28.823 L25.781,28.918 L25.798,28.921 C25.794,28.948 25.78,28.972 25.78,29 C25.78,29.553 26.227,30 26.78,30 C27.261,30 27.645,29.651 27.739,29.197 L27.758,29.199 L33.009,7.577 L33.018,7.547 C33.2,6.693 33.923,6.055 34.839,5.996 C35.941,5.927 36.892,6.763 36.962,7.865 C36.986,8.252 36.922,8.408 36.922,8.408 L31.942,32.772 L31.94,32.777 L31.976,32.785 C31.959,32.856 31.932,32.924 31.932,33 C31.932,33.553 32.379,34 32.931,34 C33.419,34 33.808,33.643 33.894,33.179 L33.913,33.183 L38.757,21.469 C38.766,21.48 38.771,21.49 38.778,21.5 C38.778,21.5 38.992,20.938 39.26,20.253 L40.034,18.38 L40.023,18.376 C40.029,18.361 40.037,18.344 40.043,18.33 C40.383,17.497 41.244,17.014 41.987,17 C43.091,16.979 43.987,17.896 43.987,19 C43.987,19.229 43.94,19.446 43.869,19.651 L43.877,19.654 L43.877,19.654 Z" id="Shape"></path>
                </g>
            </g>
        </g>
    </g>
</svg>