<?xml version="1.0" encoding="iso-8859-1"?>
<!-- Generator: Adobe Illustrator 16.0.4, SVG Export Plug-In . SVG Version: 6.00 Build 0)  -->
<!DOCTYPE svg PUBLIC "-//W3C//DTD SVG 1.1//EN" "http://www.w3.org/Graphics/SVG/1.1/DTD/svg11.dtd">
<svg version="1.1" id="Layer_1" xmlns="http://www.w3.org/2000/svg" xmlns:xlink="http://www.w3.org/1999/xlink" x="0px" y="0px"
	 width="36px" height="44px" viewBox="0 0 36 44" style="enable-background:new 0 0 36 44;" xml:space="preserve">
<g id="_x31_058-fire-hydrant-toolbar_x40_2x.png">
	<g>
		<path d="M18,16c-3.313,0-6,2.687-6,6s2.687,6,6,6s6-2.687,6-6S21.313,16,18,16z M18,26c-2.209,0-4-1.791-4-4s1.791-4,4-4
			s4,1.791,4,4S20.209,26,18,26z M18,21c-0.553,0-1,0.448-1,1c0,0.553,0.447,1,1,1s1-0.447,1-1C19,21.448,18.553,21,18,21z M35,21
			h-1v-3c0-1.104-0.896-2-2-2h-4v-2v-1v-1c0-0.026-0.013-0.049-0.015-0.074c-0.081-4.148-2.615-7.685-6.203-9.171
			C21.257,1.159,19.771,0,18,0s-3.257,1.159-3.782,2.755c-3.588,1.486-6.122,5.022-6.202,9.171C8.013,11.951,8,11.974,8,12v1v1v2H4
			c-1.104,0-2,0.896-2,2v3H1c-0.553,0-1,0.448-1,1c0,0.553,0.447,1,1,1h1v3c0,1.104,0.896,2,2,2h4v14H7c-0.553,0-1,0.447-1,1
			s0.447,1,1,1h22c0.553,0,1-0.447,1-1s-0.447-1-1-1h-1V28h4c1.104,0,2-0.896,2-2v-3h1c0.553,0,1-0.447,1-1
			C36,21.448,35.553,21,35,21z M6,26H4v-8h2V26z M16,4.268V4c0-1.104,0.896-2,2-2s2,0.896,2,2v0.268
			c2.766,0.729,4.93,2.93,5.686,5.732H10.314C11.07,7.197,13.235,4.996,16,4.268z M28,26h-2v2v1v13H10V29v-1v-2H8v-8h2v-2v-1v-2v-1
			h16v2v1v1v2h2V26z M32,26h-2v-8h2V26z"/>
	</g>
</g>
<g>
</g>
<g>
</g>
<g>
</g>
<g>
</g>
<g>
</g>
<g>
</g>
<g>
</g>
<g>
</g>
<g>
</g>
<g>
</g>
<g>
</g>
<g>
</g>
<g>
</g>
<g>
</g>
<g>
</g>
</svg>
