<?xml version="1.0" encoding="iso-8859-1"?>
<!-- Generator: Adobe Illustrator 16.0.4, SVG Export Plug-In . SVG Version: 6.00 Build 0)  -->
<!DOCTYPE svg PUBLIC "-//W3C//DTD SVG 1.1//EN" "http://www.w3.org/Graphics/SVG/1.1/DTD/svg11.dtd">
<svg version="1.1" id="Layer_1" xmlns="http://www.w3.org/2000/svg" xmlns:xlink="http://www.w3.org/1999/xlink" x="0px" y="0px"
	 width="44px" height="56px" viewBox="0 0 44 56" style="enable-background:new 0 0 44 56;" xml:space="preserve">
<g id="_x31_058-fire-hydrant_x40_2x.png">
	<g>
		<path d="M43,27h-1v-5c0-1.104-0.896-2-2-2h-6v-5v-2h-0.068c-0.335-4.029-2.641-7.494-5.973-9.406C27.753,1.578,26.07,0,24,0h-4
			c-2.07,0-3.753,1.578-3.959,3.594C12.709,5.506,10.404,8.971,10.068,13H10v2v5H4c-1.104,0-2,0.896-2,2v5H1c-0.553,0-1,0.448-1,1
			c0,0.553,0.447,1,1,1h1v5c0,1.104,0.896,2,2,2h6v18H9c-0.553,0-1,0.447-1,1s0.447,1,1,1h26c0.553,0,1-0.447,1-1s-0.447-1-1-1h-1
			V36h6c1.104,0,2-0.896,2-2v-5h1c0.553,0,1-0.447,1-1C44,27.448,43.553,27,43,27z M12,13h0.075C12.441,9.338,14.763,6.253,18,4.838
			V4c0-1.104,0.896-2,2-2h4c1.104,0,2,0.896,2,2v0.838c3.237,1.415,5.559,4.5,5.925,8.162H32v1H12V13z M6,34H4V22h2V34z M36,34h-4v2
			v1v17H12V37v-1v-2H8V22h4v-2v-1v-3h20v3v1v2h4V34z M40,34h-2V22h2V34z M22,20c-4.418,0-8,3.582-8,8s3.582,8,8,8s8-3.582,8-8
			S26.418,20,22,20z M22,34c-3.313,0-6-2.687-6-6s2.687-6,6-6s6,2.687,6,6S25.313,34,22,34z M22,25c-1.657,0-3,1.344-3,3
			c0,1.657,1.343,3,3,3s3-1.343,3-3C25,26.344,23.657,25,22,25z M22,29c-0.553,0-1-0.447-1-1c0-0.552,0.447-1,1-1s1,0.448,1,1
			C23,28.553,22.553,29,22,29z"/>
	</g>
</g>
<g>
</g>
<g>
</g>
<g>
</g>
<g>
</g>
<g>
</g>
<g>
</g>
<g>
</g>
<g>
</g>
<g>
</g>
<g>
</g>
<g>
</g>
<g>
</g>
<g>
</g>
<g>
</g>
<g>
</g>
</svg>
