<?xml version="1.0" encoding="iso-8859-1"?>
<!-- Generator: Adobe Illustrator 16.0.4, SVG Export Plug-In . SVG Version: 6.00 Build 0)  -->
<!DOCTYPE svg PUBLIC "-//W3C//DTD SVG 1.1//EN" "http://www.w3.org/Graphics/SVG/1.1/DTD/svg11.dtd">
<svg version="1.1" id="Layer_1" xmlns="http://www.w3.org/2000/svg" xmlns:xlink="http://www.w3.org/1999/xlink" x="0px" y="0px"
	 width="44px" height="20px" viewBox="0 0 44 20" style="enable-background:new 0 0 44 20;" xml:space="preserve">
<g id="_x31_029-fish-toolbar_x40_2x.png">
	<g>
		<path d="M43.707,12.293L41.414,10l2.293-2.293l-0.008-0.008C43.884,7.52,44,7.272,44,6.997c0-0.517-0.409-0.927-0.924-0.97
			C41.372,2.483,37.472,0,32.918,0C25.898,0,14.572,3.511,9.13,6.785L1.658,0.247L1.65,0.256C1.475,0.109,1.255,0.012,1.006,0.012
			C0.45,0.012,0,0.453,0,0.997c0,0.006,0.004,0.011,0.004,0.017H0v17.973h0.004C0.004,18.992,0,18.997,0,19.003
			c0,0.545,0.45,0.986,1.006,0.986c0.249,0,0.47-0.099,0.645-0.245l0.008,0.009l7.472-6.538C14.572,16.489,25.898,20,32.918,20
			c4.554,0,8.454-2.483,10.158-6.027C43.591,13.93,44,13.52,44,13.003c0-0.275-0.116-0.522-0.301-0.701L43.707,12.293z M7.437,12.04
			l-5.425,4.746V3.214l5.425,4.747C6.544,8.691,6.005,9.39,6.005,10S6.544,11.309,7.437,12.04z M26.001,10.031
			c0.004,3.625,0.672,6.053,1.235,7.459C18.731,15.978,8.014,11.422,8.014,10c0-1.421,10.718-5.978,19.223-7.49
			c-0.563,1.406-1.231,3.834-1.235,7.459C26,9.979,25.994,9.989,25.994,10S26,10.021,26.001,10.031z M39.296,9.296
			c-0.179,0.182-0.29,0.43-0.29,0.704s0.111,0.522,0.29,0.704l-0.003,0.003l2.07,2.07c-1.4,3.043-5.021,5.215-9.282,5.215
			c-0.813,0-1.705-0.072-2.628-0.178c-0.591-1.459-1.448-4.19-1.452-7.789c0-0.009,0.005-0.017,0.005-0.025
			s-0.005-0.017-0.005-0.025c0.004-3.599,0.861-6.33,1.452-7.788c0.923-0.106,1.814-0.179,2.628-0.179
			c4.261,0,7.882,2.172,9.282,5.215l-2.07,2.07L39.296,9.296z M33.998,5.996C32.895,5.996,32,6.891,32,7.994
			s0.895,1.998,1.998,1.998s1.998-0.895,1.998-1.998S35.102,5.996,33.998,5.996z"/>
	</g>
</g>
<g>
</g>
<g>
</g>
<g>
</g>
<g>
</g>
<g>
</g>
<g>
</g>
<g>
</g>
<g>
</g>
<g>
</g>
<g>
</g>
<g>
</g>
<g>
</g>
<g>
</g>
<g>
</g>
<g>
</g>
</svg>
