<?xml version="1.0" encoding="iso-8859-1"?>
<!-- Generator: Adobe Illustrator 16.0.4, SVG Export Plug-In . SVG Version: 6.00 Build 0)  -->
<!DOCTYPE svg PUBLIC "-//W3C//DTD SVG 1.1//EN" "http://www.w3.org/Graphics/SVG/1.1/DTD/svg11.dtd">
<svg version="1.1" id="Layer_1" xmlns="http://www.w3.org/2000/svg" xmlns:xlink="http://www.w3.org/1999/xlink" x="0px" y="0px"
	 width="56px" height="56.001px" viewBox="0 0 56 56.001" style="enable-background:new 0 0 56 56.001;" xml:space="preserve">
<g id="_x31_037-fish-hook_x40_2x.png">
	<g>
		<path d="M56,13c0-0.553-0.447-1-1-1c-0.046,0-0.085,0.021-0.13,0.026l-0.002-0.018l-13.593,1.812l2.702-12.612l-0.019-0.004
			C43.974,1.137,44,1.073,44,1c0-0.553-0.447-1-1-1c-0.479,0-0.861,0.345-0.959,0.795l-0.019-0.004l-0.131,0.608
			c-5.259,0.982-11.281,3.594-16.09,8.402c-9.102,9.102-12.344,20.724-7.658,26.641l-7.645,7.645
			c-3.134,0.831-4.854-0.029-6.534-1.296C2.68,41.82,2,40.271,2,38.309c0-4.347,2.449-6.407,2.56-6.484
			c0.455-0.308,0.577-0.926,0.272-1.383c-0.306-0.46-0.926-0.584-1.388-0.277C3.305,30.258,0,32.836,0,38.309
			c0,2.577,0.98,4.735,2.762,6.079c2.468,1.862,5.018,2.126,7.006,1.87c-0.244,1.985,0.02,4.523,1.831,6.981
			c1.313,1.78,3.422,2.762,5.94,2.762c5.347,0,7.866-3.305,7.958-3.445c0.299-0.462,0.178-1.081-0.271-1.388
			c-0.446-0.304-1.051-0.183-1.351,0.272c-0.076,0.11-2.089,2.561-6.336,2.561c-1.917,0-3.432-0.68-4.38-1.966
			c-1.234-1.675-2.072-3.392-1.272-6.508l7.671-7.671c5.917,4.686,17.539,1.443,26.641-7.658c4.823-4.823,7.437-10.867,8.412-16.138
			l0.521-0.069l-0.002-0.018C55.618,13.907,56,13.506,56,13z M44.82,28.974c-8.81,8.816-20.056,11.476-24.649,6.882
			s-1.933-15.854,6.877-24.67c4.37-4.374,9.747-6.869,14.446-7.93L39.022,14.79l0.019,0.005C39.026,14.863,39,14.928,39,15
			c0,0.553,0.447,1,1,1c0.046,0,0.086-0.018,0.13-0.023l0.002,0.015l12.66-1.688C51.76,19.056,49.257,24.533,44.82,28.974z M33,12
			c-1.657,0-3,1.344-3,3c0,1.657,1.343,3,3,3s3-1.343,3-3C36,13.344,34.657,12,33,12z M33,16c-0.553,0-1-0.447-1-1s0.447-1,1-1
			s1,0.447,1,1S33.553,16,33,16z"/>
	</g>
</g>
<g>
</g>
<g>
</g>
<g>
</g>
<g>
</g>
<g>
</g>
<g>
</g>
<g>
</g>
<g>
</g>
<g>
</g>
<g>
</g>
<g>
</g>
<g>
</g>
<g>
</g>
<g>
</g>
<g>
</g>
</svg>
