<?xml version="1.0" encoding="UTF-8" standalone="no"?>
<svg width="58px" height="46px" viewBox="0 0 58 46" version="1.1" xmlns="http://www.w3.org/2000/svg" xmlns:xlink="http://www.w3.org/1999/xlink" xmlns:sketch="http://www.bohemiancoding.com/sketch/ns">
    <!-- Generator: Sketch 3.0.4 (8053) - http://www.bohemiancoding.com/sketch -->
    <title>1188-fish</title>
    <desc>Created with Sketch.</desc>
    <defs></defs>
    <g id="Page-1" stroke="none" stroke-width="1" fill="none" fill-rule="evenodd" sketch:type="MSPage">
        <g id="Glyphish-8-Icons" sketch:type="MSArtboardGroup" transform="translate(-692.000000, -793.000000)" fill="#000000">
            <g id="1188-fish" sketch:type="MSLayerGroup" transform="translate(692.036996, 793.860499)">
                <g id="_x31_188-fish_x40_2x.png" sketch:type="MSShapeGroup">
                    <path d="M49,6 C50.657,6 52,4.657 52,3 C52,1.344 50.657,0 49,0 C47.343,0 46,1.344 46,3 C46,4.657 47.343,6 49,6 L49,6 Z M50,10 C50,11.104 50.896,12 52,12 C53.104,12 54,11.104 54,10 C54,8.896 53.104,8 52,8 C50.896,8 50,8.896 50,10 L50,10 Z M41.384,13.443 C37.119,8.408 32.206,6.004 18.986,6.004 C18.585,6.004 18.222,6.245 18.069,6.615 C17.916,6.985 18,7.411 18.284,7.694 C18.323,7.733 21.556,11.03 21.417,14.672 C17.042,16.723 13.589,19.632 11.674,22.206 C8.969,19.418 6.595,18 4.607,18 C3.222,18 0,18.779 0,26 C0,33.221 3.222,34 4.607,34 C6.594,34 8.968,32.583 11.672,29.795 C13.635,32.434 17.231,35.406 21.763,37.464 C19.454,41.271 19.979,42.401 20.217,42.904 C20.412,43.315 20.929,44.006 22.2,44.006 C26.287,44.006 29.639,42.703 32.425,39.98 C32.617,39.986 32.807,40 33,40 C45.702,40 56,30 56,26 C56,22.933 49.936,16.353 41.384,13.443 L41.384,13.443 Z M10.582,28.041 C7.375,31.457 5.477,32 4.607,32 C2.254,32 2,27.805 2,26 C2,24.196 2.254,20 4.607,20 C5.476,20 7.375,20.543 10.582,23.96 C10.213,24.715 10,25.412 10,26 C10,26.588 10.213,27.285 10.582,28.041 L10.582,28.041 Z M21.097,8.007 C29.856,8.194 34.274,9.601 37.609,12.434 C36.119,12.156 34.578,12 33,12 C29.563,12 26.312,12.721 23.386,13.844 C23.217,11.486 22.077,9.389 21.097,8.007 L21.097,8.007 Z M34.208,37.935 C35.179,36.649 36.074,35.158 36.899,33.441 C37.137,32.945 36.934,32.346 36.444,32.104 C35.953,31.86 35.364,32.068 35.125,32.565 C31.987,39.094 28.002,42.006 22.201,42.006 C22.084,42.006 22.013,41.995 21.986,41.999 C21.883,41.486 22.566,39.142 26.917,33.627 C27.258,33.196 27.188,32.566 26.763,32.222 C26.339,31.877 25.717,31.947 25.377,32.378 C24.331,33.703 23.498,34.844 22.809,35.854 C16.37,33.132 12,28.49 12,26 C12,22.342 21.402,14 33,14 C36.316,14 39.441,14.715 42.229,15.796 C40.211,18.639 39,22.164 39,26 C39,29.828 40.206,33.348 42.217,36.188 C39.773,37.13 37.07,37.788 34.208,37.935 L34.208,37.935 Z M44.105,35.377 C42.173,32.808 41,29.557 41,26 C41,22.436 42.179,19.178 44.119,16.605 C50.046,19.415 54,23.78 54,26 C54,28.221 50.04,32.577 44.105,35.377 L44.105,35.377 Z M48,24 C46.896,24 46,24.896 46,26 C46,27.104 46.896,28 48,28 C49.104,28 50,27.104 50,26 C50,24.896 49.104,24 48,24 L48,24 Z" id="Shape"></path>
                </g>
            </g>
        </g>
    </g>
</svg>