<?xml version="1.0" encoding="iso-8859-1"?>
<!-- Generator: Adobe Illustrator 16.0.4, SVG Export Plug-In . SVG Version: 6.00 Build 0)  -->
<!DOCTYPE svg PUBLIC "-//W3C//DTD SVG 1.1//EN" "http://www.w3.org/Graphics/SVG/1.1/DTD/svg11.dtd">
<svg version="1.1" id="Layer_1" xmlns="http://www.w3.org/2000/svg" xmlns:xlink="http://www.w3.org/1999/xlink" x="0px" y="0px"
	 width="56px" height="28px" viewBox="0 0 56 28" style="enable-background:new 0 0 56 28;" xml:space="preserve">
<g id="_x31_029-fish_x40_2x.png">
	<g>
		<path d="M52.414,14l3.293-3.293C55.888,10.526,56,10.276,56,10c0-0.528-0.413-0.949-0.933-0.986C53.057,3.747,47.973,0,42,0
			c-9.159,0-24.133,5.242-30.715,9.948l-9.66-7.729L1.615,2.23C1.444,2.094,1.236,2,1,2C0.447,2,0,2.447,0,3v22c0,0.553,0.447,1,1,1
			c0.236,0,0.444-0.094,0.615-0.23l0.01,0.012l9.66-7.729C17.867,22.758,32.841,28,42,28c5.973,0,11.057-3.747,13.067-9.014
			C55.587,18.949,56,18.528,56,18c0-0.276-0.112-0.526-0.293-0.707L52.414,14z M9.689,16.769L2,22.919V5.081l7.689,6.151
			C8.619,12.225,8,13.168,8,14S8.619,15.775,9.689,16.769z M10,14c0-2.279,15.847-9.943,27.107-11.654C35.929,4.337,34,8.441,34,14
			s1.929,9.664,3.107,11.654C25.847,23.943,10,16.279,10,14z M41.167,26c-0.578,0-1.187-0.031-1.811-0.081
			C38.226,23.887,36,19.223,36,14s2.226-9.887,3.356-11.919C39.98,2.031,40.589,2,41.167,2c5.682,0,10.489,3.458,12.176,8.243
			l-3.05,3.05C50.112,13.474,50,13.724,50,14s0.112,0.526,0.293,0.707l3.05,3.05C51.656,22.542,46.849,26,41.167,26z M45,6
			c-1.657,0-3,1.343-3,3s1.343,3,3,3s3-1.343,3-3S46.657,6,45,6z M45,10c-0.553,0-1-0.447-1-1c0-0.552,0.447-1,1-1s1,0.448,1,1
			C46,9.553,45.553,10,45,10z"/>
	</g>
</g>
<g>
</g>
<g>
</g>
<g>
</g>
<g>
</g>
<g>
</g>
<g>
</g>
<g>
</g>
<g>
</g>
<g>
</g>
<g>
</g>
<g>
</g>
<g>
</g>
<g>
</g>
<g>
</g>
<g>
</g>
</svg>
