<?xml version="1.0" encoding="iso-8859-1"?>
<!-- Generator: Adobe Illustrator 16.0.4, SVG Export Plug-In . SVG Version: 6.00 Build 0)  -->
<!DOCTYPE svg PUBLIC "-//W3C//DTD SVG 1.1//EN" "http://www.w3.org/Graphics/SVG/1.1/DTD/svg11.dtd">
<svg version="1.1" id="Layer_1" xmlns="http://www.w3.org/2000/svg" xmlns:xlink="http://www.w3.org/1999/xlink" x="0px" y="0px"
	 width="44px" height="35.994px" viewBox="0 0 44 35.994" style="enable-background:new 0 0 44 35.994;" xml:space="preserve">
<g id="_x31_188-fish_x40_2x.png">
	<g>
		<path d="M36,21c0,1.104,0.896,2,2,2s2-0.896,2-2s-0.896-2-2-2S36,19.896,36,21z M39,6c1.657,0,3-1.343,3-3s-1.343-3-3-3
			s-3,1.343-3,3S37.343,6,39,6z M40,10c0,1.104,0.896,2,2,2s2-0.896,2-2s-0.896-2-2-2S40,8.896,40,10z M32.689,10.287
			C32.096,9.609,26.827,4,15.008,4c-0.404,0-0.77,0.244-0.923,0.617c-0.155,0.374-0.069,0.804,0.216,1.09
			c0.025,0.025,2.328,2.404,2.642,5.599c-3.659,1.883-6.496,4.6-7.914,6.911c-2.102-2.125-3.945-3.209-5.486-3.209
			C2.478,15.008,0,15.593,0,21.007s2.478,5.998,3.542,5.998c1.541,0,3.385-1.083,5.485-3.208c1.405,2.293,4.215,4.976,7.83,6.856
			c-0.724,1.703-1.165,3.423-0.613,4.414c0.192,0.347,0.669,0.927,1.698,0.927c2.886,0.003,5.048-1.391,6.616-3.056
			c0.479,0.042,0.959,0.07,1.448,0.07C35.944,33.009,44,24.437,44,21.008C44,18.395,39.314,12.804,32.689,10.287z M8.212,22.066
			C6.681,23.781,5.089,25.004,4,25.004c-0.687,0-2-0.39-2-3.999c0-3.61,1.313-3.999,2-3.999c1.089,0,2.682,1.223,4.214,2.938
			c-0.118,0.382-0.2,0.746-0.2,1.064C8.014,21.325,8.095,21.688,8.212,22.066z M27.895,9.111c-0.621-0.067-1.25-0.105-1.888-0.105
			c-2.551,0-4.972,0.555-7.167,1.434c-0.304-1.775-1.038-3.298-1.738-4.373C22.063,6.383,25.6,7.789,27.895,9.111z M26.098,30.992
			c1.203-1.832,1.768-3.501,1.826-3.654c0.194-0.518-0.068-1.094-0.586-1.288c-0.519-0.195-1.098,0.066-1.294,0.583
			C26.016,26.707,24,34,17.977,33.986c-0.108-0.872,1.177-3.838,2.826-6.47c0.293-0.469,0.15-1.086-0.32-1.38
			c-0.471-0.292-1.09-0.149-1.383,0.319c-0.381,0.606-0.908,1.486-1.42,2.467c-4.596-2.296-7.688-5.936-7.688-7.932
			c0-3.05,7.163-10.005,16-10.005c2.316,0,4.511,0.498,6.498,1.273C30.949,14.568,30,17.627,30,21c0,3.366,0.944,6.42,2.48,8.728
			C30.526,30.489,28.37,30.977,26.098,30.992z M34.3,28.908c-1.415-2-2.3-4.799-2.3-7.908c0-3.116,0.889-5.92,2.31-7.92
			c4.601,2.339,7.682,6.04,7.682,7.911C41.991,22.864,38.905,26.569,34.3,28.908z"/>
	</g>
</g>
<g>
</g>
<g>
</g>
<g>
</g>
<g>
</g>
<g>
</g>
<g>
</g>
<g>
</g>
<g>
</g>
<g>
</g>
<g>
</g>
<g>
</g>
<g>
</g>
<g>
</g>
<g>
</g>
<g>
</g>
</svg>
