<?xml version="1.0" encoding="iso-8859-1"?>
<!-- Generator: Adobe Illustrator 16.0.4, SVG Export Plug-In . SVG Version: 6.00 Build 0)  -->
<!DOCTYPE svg PUBLIC "-//W3C//DTD SVG 1.1//EN" "http://www.w3.org/Graphics/SVG/1.1/DTD/svg11.dtd">
<svg version="1.1" id="Layer_1" xmlns="http://www.w3.org/2000/svg" xmlns:xlink="http://www.w3.org/1999/xlink" x="0px" y="0px"
	 width="44.014px" height="44.005px" viewBox="0 0 44.014 44.005" style="enable-background:new 0 0 44.014 44.005;"
	 xml:space="preserve">
<g id="_x31_037-fish-hook-toolbar_x40_2x.png">
	<g>
		<path d="M25,10.012c-1.102,0-1.995,0.895-1.995,1.996c0,1.103,0.894,1.996,1.995,1.996c1.103,0,1.995-0.894,1.995-1.996
			C26.995,10.906,26.103,10.012,25,10.012z M44.014,11.014c0-0.552-0.453-0.998-1.012-0.998c-0.058,0-0.107,0.023-0.163,0.032
			l-0.004-0.028l-10.619,1.77l1.77-10.619l-0.019-0.003c0.011-0.057,0.035-0.109,0.035-0.169C34.002,0.446,33.549,0,32.99,0
			s-1.011,0.446-1.011,0.998c0,0.008,0.003,0.015,0.004,0.022l-0.087,0.52c-4.014,0.867-8.498,2.912-12.116,6.529
			c-7.129,7.127-9.729,16.21-6.207,20.948l-5.996,5.996c-0.721,0.046-2.754,0.062-4.137-1.146C2.484,33.033,2,31.726,2,29.981
			c0-2.526,1.692-4.278,1.707-4.293c0.391-0.391,0.391-1.023,0-1.414s-1.023-0.391-1.414,0C2.199,24.368,0,26.606,0,29.981
			c0,2.355,0.72,4.173,2.139,5.404c1.579,1.37,3.62,1.628,4.871,1.642c0.018,1.254,0.281,3.272,1.637,4.839
			c1.229,1.419,3.041,2.139,5.392,2.139c3.366,0,5.6-2.199,5.693-2.293c0.39-0.391,0.39-1.023,0-1.414s-1.021-0.391-1.411,0
			c-0.015,0.015-1.763,1.707-4.282,1.707c-1.74,0-3.045-0.484-3.877-1.44c-1.22-1.4-1.189-3.47-1.142-4.165l5.967-5.967
			c4.737,3.53,13.827,0.931,20.959-6.2c3.622-3.621,5.668-8.11,6.533-12.126l0.685-0.114l-0.002-0.013
			C43.641,11.901,44.014,11.509,44.014,11.014z M34.484,23.087c-6.719,6.726-15.297,8.754-18.801,5.25
			c-3.504-3.505-1.474-12.095,5.245-18.82c3.214-3.217,7.142-5.103,10.632-5.96l-1.548,9.285l0.027,0.004
			c-0.01,0.056-0.033,0.105-0.033,0.164c0,0.551,0.443,0.998,0.991,0.998c0.058,0,0.108-0.021,0.163-0.031l0.002,0.016l9.275-1.546
			C39.58,15.939,37.697,19.87,34.484,23.087z"/>
	</g>
</g>
<g>
</g>
<g>
</g>
<g>
</g>
<g>
</g>
<g>
</g>
<g>
</g>
<g>
</g>
<g>
</g>
<g>
</g>
<g>
</g>
<g>
</g>
<g>
</g>
<g>
</g>
<g>
</g>
<g>
</g>
</svg>
