<?xml version="1.0" encoding="UTF-8" standalone="no"?>
<svg width="34px" height="40px" viewBox="0 0 34 40" version="1.1" xmlns="http://www.w3.org/2000/svg" xmlns:xlink="http://www.w3.org/1999/xlink" xmlns:sketch="http://www.bohemiancoding.com/sketch/ns">
    <!-- Generator: Sketch 3.0.4 (8053) - http://www.bohemiancoding.com/sketch -->
    <title>1114-fist</title>
    <desc>Created with Sketch.</desc>
    <defs></defs>
    <g id="Page-1" stroke="none" stroke-width="1" fill="none" fill-rule="evenodd" sketch:type="MSPage">
        <g id="Glyphish-8-Icons" sketch:type="MSArtboardGroup" transform="translate(-320.000000, -124.000000)" fill="#000000">
            <g id="1114-fist" sketch:type="MSLayerGroup" transform="translate(320.036996, 124.860499)">
                <g id="_x31_114-fist_x40_2x.png" sketch:type="MSShapeGroup">
                    <path d="M27,12 L26,12 L26,6 C26,3.791 24.209,2 22,2 C21.17,2 20.4,2.253 19.761,2.686 C19.215,1.126 17.746,0 16,0 C14.254,0 12.785,1.126 12.239,2.686 C11.6,2.253 10.83,2 10,2 C8.254,2 6.785,3.126 6.239,4.686 C5.6,4.253 4.83,4 4,4 C1.791,4 0,5.791 0,8 L0,22 C0,30.837 7.164,38 16,38 C24.836,38 32,30.837 32,22 L32,17 C32,14.239 29.761,12 27,12 L27,12 Z M20,6 C20,4.896 20.896,4 22,4 C23.104,4 24,4.896 24,6 L24,12 L21,12 C20.657,12 20.323,12.035 20,12.102 L20,6 L20,6 Z M14,4 C14,2.896 14.896,2 16,2 C17.104,2 18,2.896 18,4 L18,13.022 C17.049,13.742 16.351,14.779 16.103,15.99 C16.068,15.992 16.035,16 16,16 C14.896,16 14,15.104 14,14 L14,4 L14,4 Z M8,6 C8,4.896 8.896,4 10,4 C11.104,4 12,4.896 12,6 L12,14 C12,15.104 11.104,16 10,16 C8.896,16 8,15.104 8,14 L8,6 L8,6 Z M2,8 C2,6.896 2.896,6 4,6 C5.104,6 6,6.896 6,8 L6,8.001 L6,14 C6,15.104 5.104,16 4,16 C2.896,16 2,15.104 2,14 L2,8 L2,8 Z M30,17.001 L30,22 C30,29.732 23.732,36 16,36 C8.268,36 2,29.732 2,22 L2,17.445 C2.59,17.789 3.268,18 4,18 C5.202,18 6.267,17.46 7,16.621 C7.733,17.46 8.798,18 10,18 C11.202,18 12.267,17.46 13,16.621 C13.733,17.46 14.798,18 16,18 C16.034,18 16.065,17.99 16.1,17.989 C16.559,20.276 18.577,22 21,22 L23,22 C23.552,22 24,22.448 24,23 C24,23.553 24.448,24 25,24 C25.552,24 26,23.553 26,23 L26,22.999 C25.999,21.343 24.656,20 23,20 L21,20 C19.343,20 18,18.657 18,17 C18,15.344 19.343,14 21,14 L27,14 C28.657,14 30,15.344 30,17.001 L30,17.001 L30,17.001 Z" id="Shape"></path>
                </g>
            </g>
        </g>
    </g>
</svg>