<?xml version="1.0" encoding="iso-8859-1"?>
<!-- Generator: Adobe Illustrator 16.0.4, SVG Export Plug-In . SVG Version: 6.00 Build 0)  -->
<!DOCTYPE svg PUBLIC "-//W3C//DTD SVG 1.1//EN" "http://www.w3.org/Graphics/SVG/1.1/DTD/svg11.dtd">
<svg version="1.1" id="Layer_1" xmlns="http://www.w3.org/2000/svg" xmlns:xlink="http://www.w3.org/1999/xlink" x="0px" y="0px"
	 width="50px" height="56.016px" viewBox="0 0 50 56.016" style="enable-background:new 0 0 50 56.016;" xml:space="preserve">
<g id="_x37_17-flag_x40_2x.png">
	<g>
		<path d="M25,2.859C11.982-3.664,0,3.016,0,3.016v30v23h2v-23.91c3.934-1.569,13.167-4.173,23,0.754c13.969,7,25,0.156,25,0.156
			v-30C50,3.016,38.969,9.859,25,2.859z M48,31.641c0,0-3,2.375-10,2.375c-11,0-13-6-25-6c-6,0-11,1.875-11,1.875V4.516
			c0,0,5-2.5,11-2.5c11,0,12,6,25,6c5,0,10-1.625,10-1.625V31.641z"/>
	</g>
</g>
<g>
</g>
<g>
</g>
<g>
</g>
<g>
</g>
<g>
</g>
<g>
</g>
<g>
</g>
<g>
</g>
<g>
</g>
<g>
</g>
<g>
</g>
<g>
</g>
<g>
</g>
<g>
</g>
<g>
</g>
</svg>
