<?xml version="1.0" encoding="iso-8859-1"?>
<!-- Generator: Adobe Illustrator 16.0.4, SVG Export Plug-In . SVG Version: 6.00 Build 0)  -->
<!DOCTYPE svg PUBLIC "-//W3C//DTD SVG 1.1//EN" "http://www.w3.org/Graphics/SVG/1.1/DTD/svg11.dtd">
<svg version="1.1" id="Layer_1" xmlns="http://www.w3.org/2000/svg" xmlns:xlink="http://www.w3.org/1999/xlink" x="0px" y="0px"
	 width="36px" height="40px" viewBox="0 0 36 40" style="enable-background:new 0 0 36 40;" xml:space="preserve">
<g id="_x31_112-flick-right_x40_2x.png">
	<g>
		<path d="M23,16c-0.395,0-0.77,0.081-1.116,0.22C21.54,14.943,20.385,14,19,14c-0.395,0-0.77,0.081-1.116,0.22
			C17.539,12.943,16.385,12,15,12c-0.353,0-0.686,0.072-1,0.184V7c0-1.657-1.343-3-3-3S8,5.343,8,7v15.861l-2.616-3.699L5.34,19.193
			C4.797,18.48,3.968,18,3,18c-1.657,0-3,1.343-3,3c0,0.389,0.08,0.757,0.214,1.098l-0.012,0.006l3.241,9.545
			C4.815,36.468,9.239,40,14.498,40c6.351,0,11.5-5.148,11.502-11.5V19C26,17.343,24.657,16,23,16z M24,21.806v0.249V28.5
			c-0.002,5.247-4.255,9.5-9.502,9.5c-4.235,0-7.821-2.773-9.047-6.602l0.003-0.002l-0.05-0.146
			c-0.02-0.066-0.027-0.138-0.046-0.204l-1.923-5.622c-0.002,0.008-0.005,0.015-0.007,0.022l-0.495-1.453
			c0.004,0,0.008,0.001,0.013,0.001l-0.917-2.682l0.031-0.018C2.03,21.2,2,21.104,2,21c0-0.552,0.448-1,1-1
			c0.304,0,0.567,0.143,0.75,0.357l0.002-0.002l4.488,6.295l0.009-0.007C8.433,26.857,8.696,27,9,27c0.552,0,1-0.447,1-1v-5.854
			v-2.224V9.816V7c0-0.552,0.448-1,1-1s1,0.448,1,1v2.816V19c0,0.553,0.448,1,1,1s1-0.447,1-1v-2v-2c0-0.552,0.448-1,1-1
			s1,0.448,1,1v4.126V21c0,0.553,0.448,1,1,1s1-0.447,1-1v-1.322V17c0-0.552,0.448-1,1-1s1,0.448,1,1v3.766V23c0,0.553,0.448,1,1,1
			s1-0.447,1-1v-0.316V19c0-0.552,0.448-1,1-1s1,0.448,1,1V21.806z M35.707,4.293l-4-4C31.526,0.112,31.276,0,31,0
			c-0.552,0-1,0.447-1,1c0,0.276,0.112,0.526,0.293,0.707l2.437,2.438c-5.238-0.117-7.557,0.093-14.115,1.973
			c-0.527,0.15-0.727,0.803-0.503,1.296c0.223,0.494,0.781,0.625,1.31,0.491c6.667-1.675,8.247-1.876,13.057-1.797l-2.185,2.186
			C30.112,8.474,30,8.724,30,9c0,0.553,0.448,1,1,1c0.276,0,0.526-0.111,0.707-0.293l4-4C35.888,5.526,36,5.276,36,5
			S35.888,4.474,35.707,4.293z"/>
	</g>
</g>
<g>
</g>
<g>
</g>
<g>
</g>
<g>
</g>
<g>
</g>
<g>
</g>
<g>
</g>
<g>
</g>
<g>
</g>
<g>
</g>
<g>
</g>
<g>
</g>
<g>
</g>
<g>
</g>
<g>
</g>
</svg>
