<?xml version="1.0" encoding="UTF-8" standalone="no"?>
<svg width="58px" height="54px" viewBox="0 0 58 54" version="1.1" xmlns="http://www.w3.org/2000/svg" xmlns:xlink="http://www.w3.org/1999/xlink" xmlns:sketch="http://www.bohemiancoding.com/sketch/ns">
    <!-- Generator: Sketch 3.0.4 (8053) - http://www.bohemiancoding.com/sketch -->
    <title>1111-flick-left</title>
    <desc>Created with Sketch.</desc>
    <defs></defs>
    <g id="Page-1" stroke="none" stroke-width="1" fill="none" fill-rule="evenodd" sketch:type="MSPage">
        <g id="Glyphish-8-Icons" sketch:type="MSArtboardGroup" transform="translate(-20.000000, -117.000000)" fill="#000000">
            <g id="1111-flick-left" sketch:type="MSLayerGroup" transform="translate(20.036996, 117.860499)">
                <g id="_x31_111-flick-left_x40_2x.png" sketch:type="MSShapeGroup">
                    <path d="M3.429,6.015 C9.757,5.719 15.937,6.955 22.578,9.905 C23.077,10.127 23.665,9.908 23.888,9.414 C24.112,8.921 23.886,8.34 23.385,8.118 C16.506,5.06 9.968,3.758 3.359,4.056 L5.707,1.707 C5.888,1.526 6,1.276 6,1 C6,0.447 5.552,0 5,0 C4.724,0 4.474,0.112 4.293,0.293 L0.293,4.293 C0.112,4.474 0,4.724 0,5 C0,5.276 0.112,5.526 0.293,5.707 L4.293,9.707 C4.474,9.888 4.724,10 5,10 C5.552,10 6,9.553 6,9 C6,8.724 5.888,8.474 5.707,8.293 L3.429,6.015 L3.429,6.015 Z M52,18 C51.17,18 50.4,18.253 49.761,18.686 C49.215,17.126 47.746,16 46,16 C45.17,16 44.4,16.253 43.761,16.686 C43.215,15.126 41.746,14 40,14 C39.268,14 38.59,14.212 38,14.555 L38,6 C38,3.791 36.209,2 34,2 C31.791,2 30,3.791 30,6 L30,28.913 L27.688,24.456 C26.655,22.384 24.502,21.446 22.461,22.291 C20.42,23.137 19.451,25.477 20.296,27.518 L24.6,40.297 C26.48,47.043 32.654,52 40,52 C48.837,52 56,44.837 56,36 L56,35.999 L56,22 C56,19.791 54.209,18 52,18 L52,18 Z M54,36 C54,43.732 47.732,50 40,50 C34.084,50 29.036,46.325 26.986,41.138 L26.967,41.14 L26.966,41.137 L26.987,41.128 L22.145,26.752 C21.722,25.731 22.207,24.562 23.228,24.139 C24.249,23.716 25.261,24.116 25.841,25.222 L30.089,33.41 L30.092,33.409 C30.248,33.756 30.594,34 31,34 C31.552,34 32,33.553 32,33 L32,6 C32,4.896 32.896,4 34,4 C35.104,4 36,4.896 36,6 L36,23 C36,23.553 36.448,24 37,24 C37.552,24 38,23.553 38,23 L38,18 C38,16.896 38.896,16 40,16 C41.104,16 42,16.896 42,18 L42,25 C42,25.553 42.448,26 43,26 C43.552,26 44,25.553 44,25 L44,20 C44,18.896 44.896,18 46,18 C47.104,18 48,18.896 48,20 L48,27 C48,27.553 48.448,28 49,28 C49.552,28 50,27.553 50,27 L50,22.001 L50,22 C50,20.896 50.896,20 52,20 C53.104,20 54,20.896 54,22 L54,36 L54,36 Z" id="Shape"></path>
                </g>
            </g>
        </g>
    </g>
</svg>