<?xml version="1.0" encoding="UTF-8" standalone="no"?>
<svg width="49px" height="54px" viewBox="0 0 49 54" version="1.1" xmlns="http://www.w3.org/2000/svg" xmlns:xlink="http://www.w3.org/1999/xlink" xmlns:sketch="http://www.bohemiancoding.com/sketch/ns">
    <!-- Generator: Sketch 3.0.4 (8053) - http://www.bohemiancoding.com/sketch -->
    <title>1112-flick-right</title>
    <desc>Created with Sketch.</desc>
    <defs></defs>
    <g id="Page-1" stroke="none" stroke-width="1" fill="none" fill-rule="evenodd" sketch:type="MSPage">
        <g id="Glyphish-8-Icons" sketch:type="MSArtboardGroup" transform="translate(-120.000000, -117.000000)" fill="#000000">
            <g id="1112-flick-right" sketch:type="MSLayerGroup" transform="translate(120.036996, 117.860499)">
                <g id="_x31_112-flick-right_x40_2x.png" sketch:type="MSShapeGroup">
                    <path d="M47.684,4.293 L43.684,0.293 C43.503,0.112 43.253,0 42.977,0 C42.425,0 41.977,0.447 41.977,1 C41.977,1.276 42.089,1.526 42.27,1.707 L44.618,4.056 C38.009,3.758 31.471,5.06 24.592,8.117 C24.091,8.339 23.865,8.92 24.089,9.413 C24.312,9.907 24.9,10.126 25.399,9.904 C32.041,6.955 38.22,5.718 44.548,6.014 L42.27,8.293 C42.089,8.474 41.977,8.724 41.977,9 C41.977,9.553 42.425,10 42.977,10 C43.253,10 43.503,9.888 43.684,9.707 L47.684,5.707 C47.865,5.526 47.977,5.276 47.977,5 C47.977,4.724 47.865,4.474 47.684,4.293 L47.684,4.293 Z M32.008,18 C31.178,18 30.408,18.253 29.769,18.686 C29.224,17.126 27.754,16 26.008,16 C25.178,16 24.408,16.253 23.769,16.686 C23.224,15.126 21.754,14 20.008,14 C19.276,14 18.598,14.212 18.008,14.555 L18.008,6 C18.008,3.791 16.217,2 14.008,2 C11.799,2 10.008,3.791 10.008,6 L10.008,28.913 L7.696,24.456 C6.663,22.384 4.51,21.446 2.469,22.291 C0.428,23.137 -0.541,25.477 0.304,27.518 L4.608,40.297 C6.488,47.043 12.663,52 20.008,52 C28.844,52 36.008,44.837 36.008,36 L36.008,35.999 L36.008,22 C36.008,19.791 34.217,18 32.008,18 L32.008,18 Z M34.008,36 C34.008,43.732 27.74,50 20.008,50 C14.092,50 9.044,46.325 6.994,41.138 L6.975,41.14 L6.974,41.137 L6.995,41.128 L2.153,26.752 C1.73,25.731 2.215,24.562 3.236,24.139 C4.257,23.716 5.269,24.116 5.849,25.222 L10.097,33.41 L10.1,33.409 C10.256,33.756 10.603,34 11.008,34 C11.56,34 12.008,33.553 12.008,33 L12.008,6 C12.008,4.896 12.904,4 14.008,4 C15.112,4 16.008,4.896 16.008,6 L16.008,23 C16.008,23.553 16.456,24 17.008,24 C17.56,24 18.008,23.553 18.008,23 L18.008,18 C18.008,16.896 18.904,16 20.008,16 C21.112,16 22.008,16.896 22.008,18 L22.008,25 C22.008,25.553 22.456,26 23.008,26 C23.56,26 24.008,25.553 24.008,25 L24.008,20 C24.008,18.896 24.904,18 26.008,18 C27.112,18 28.008,18.896 28.008,20 L28.008,27 C28.008,27.553 28.456,28 29.008,28 C29.56,28 30.008,27.553 30.008,27 L30.008,22.001 L30.008,22 C30.008,20.896 30.904,20 32.008,20 C33.112,20 34.008,20.896 34.008,22 L34.008,36 L34.008,36 Z" id="Shape"></path>
                </g>
            </g>
        </g>
    </g>
</svg>