<?xml version="1.0" encoding="iso-8859-1"?>
<!-- Generator: Adobe Illustrator 16.0.4, SVG Export Plug-In . SVG Version: 6.00 Build 0)  -->
<!DOCTYPE svg PUBLIC "-//W3C//DTD SVG 1.1//EN" "http://www.w3.org/Graphics/SVG/1.1/DTD/svg11.dtd">
<svg version="1.1" id="Layer_1" xmlns="http://www.w3.org/2000/svg" xmlns:xlink="http://www.w3.org/1999/xlink" x="0px" y="0px"
	 width="40px" height="40px" viewBox="0 0 40 40" style="enable-background:new 0 0 40 40;" xml:space="preserve">
<g id="_x31_111-flick-left_x40_2x.png">
	<g>
		<path d="M3.522,6.107c4.811-0.079,6.39,0.122,13.057,1.797c0.529,0.134,1.087,0.003,1.31-0.491
			c0.224-0.493,0.024-1.146-0.503-1.296c-6.558-1.88-8.877-2.09-14.115-1.973l2.437-2.438C5.888,1.526,6,1.276,6,1
			c0-0.553-0.448-1-1-1C4.724,0,4.474,0.112,4.293,0.293l-4,4C0.112,4.474,0,4.724,0,5s0.112,0.526,0.293,0.707l4,4
			C4.474,9.889,4.724,10,5,10c0.552,0,1-0.447,1-1c0-0.276-0.112-0.526-0.293-0.707L3.522,6.107z M37,16
			c-0.395,0-0.77,0.081-1.116,0.22C35.54,14.943,34.385,14,33,14c-0.395,0-0.77,0.081-1.116,0.22C31.539,12.943,30.385,12,29,12
			c-0.353,0-0.686,0.072-1,0.184V7c0-1.657-1.343-3-3-3s-3,1.343-3,3v15.861l-2.616-3.699l-0.044,0.031
			C18.797,18.48,17.968,18,17,18c-1.657,0-3,1.343-3,3c0,0.389,0.08,0.757,0.214,1.098l-0.012,0.006l3.241,9.545
			C18.815,36.468,23.239,40,28.498,40c6.351,0,11.5-5.148,11.502-11.5V19C40,17.343,38.657,16,37,16z M38,21.806v0.249V28.5
			c-0.002,5.247-4.255,9.5-9.502,9.5c-4.236,0-7.82-2.773-9.047-6.602l0.004-0.002l-0.05-0.146c-0.02-0.066-0.027-0.137-0.046-0.204
			l-1.923-5.621c-0.002,0.008-0.005,0.015-0.008,0.021l-0.495-1.453c0.004,0,0.008,0.001,0.013,0.001l-0.917-2.682l0.031-0.018
			C16.03,21.2,16,21.104,16,21c0-0.552,0.448-1,1-1c0.304,0,0.567,0.143,0.75,0.357l0.002-0.002l4.488,6.295l0.009-0.007
			C22.433,26.857,22.696,27,23,27c0.552,0,1-0.447,1-1v-5.854v-2.224V9.816V7c0-0.552,0.448-1,1-1s1,0.448,1,1v2.816V19
			c0,0.553,0.448,1,1,1s1-0.447,1-1v-2v-2c0-0.552,0.448-1,1-1s1,0.448,1,1v4.126V21c0,0.553,0.448,1,1,1s1-0.447,1-1v-1.322V17
			c0-0.552,0.448-1,1-1s1,0.448,1,1v3.766V23c0,0.553,0.448,1,1,1s1-0.447,1-1v-0.288V19c0-0.552,0.448-1,1-1s1,0.448,1,1V21.806z"
			/>
	</g>
</g>
<g>
</g>
<g>
</g>
<g>
</g>
<g>
</g>
<g>
</g>
<g>
</g>
<g>
</g>
<g>
</g>
<g>
</g>
<g>
</g>
<g>
</g>
<g>
</g>
<g>
</g>
<g>
</g>
<g>
</g>
</svg>
