<?xml version="1.0" encoding="iso-8859-1"?>
<!-- Generator: Adobe Illustrator 16.0.4, SVG Export Plug-In . SVG Version: 6.00 Build 0)  -->
<!DOCTYPE svg PUBLIC "-//W3C//DTD SVG 1.1//EN" "http://www.w3.org/Graphics/SVG/1.1/DTD/svg11.dtd">
<svg version="1.1" id="Layer_1" xmlns="http://www.w3.org/2000/svg" xmlns:xlink="http://www.w3.org/1999/xlink" x="0px" y="0px"
	 width="40px" height="40px" viewBox="0 0 40 40" style="enable-background:new 0 0 40 40;" xml:space="preserve">
<g id="_x37_85-floppy-disk-toolbar_x40_2x.png">
	<g>
		<path d="M10,16c0,1.104,0.896,2,2,2h16c1.104,0,2-0.896,2-2V6.001H10V16z M12,8h16v8H12V8z M13,34h14c0.553,0,1-0.447,1-1
			c0-0.552-0.447-1-1-1H13c-0.553,0-1,0.448-1,1C12,33.553,12.447,34,13,34z M19,30c0.553,0,1-0.447,1-1c0-0.552-0.447-1-1-1
			s-1,0.448-1,1C18,29.553,18.447,30,19,30z M13,30h2c0.553,0,1-0.447,1-1c0-0.552-0.447-1-1-1h-2c-0.553,0-1,0.448-1,1
			C12,29.553,12.447,30,13,30z M22,14h4v-4h-4V14z M32,0H4C1.791,0,0,1.791,0,4v32c0,2.209,1.791,4,4,4h32c2.209,0,4-1.791,4-4V8
			L32,0z M32,38H8V24h24V38z M38,36c0,1.104-0.896,2-2,2h-2V24c0-1.104-0.896-2-2-2H8c-1.104,0-2,0.896-2,2v14H4
			c-1.104,0-2-0.896-2-2V4c0-1.104,0.896-2,2-2h27l7,7V36z"/>
	</g>
</g>
<g>
</g>
<g>
</g>
<g>
</g>
<g>
</g>
<g>
</g>
<g>
</g>
<g>
</g>
<g>
</g>
<g>
</g>
<g>
</g>
<g>
</g>
<g>
</g>
<g>
</g>
<g>
</g>
<g>
</g>
</svg>
