<?xml version="1.0" encoding="iso-8859-1"?>
<!-- Generator: Adobe Illustrator 16.0.4, SVG Export Plug-In . SVG Version: 6.00 Build 0)  -->
<!DOCTYPE svg PUBLIC "-//W3C//DTD SVG 1.1//EN" "http://www.w3.org/Graphics/SVG/1.1/DTD/svg11.dtd">
<svg version="1.1" id="Layer_1" xmlns="http://www.w3.org/2000/svg" xmlns:xlink="http://www.w3.org/1999/xlink" x="0px" y="0px"
	 width="28px" height="44px" viewBox="0 0 28 44" style="enable-background:new 0 0 28 44;" xml:space="preserve">
<g id="_x38_18-flower-pot-toolbar_x40_2x.png">
	<g>
		<path d="M28,25c0-0.552-0.447-1-1-1H15v-4.124c0.988-0.246,1.837-0.844,2.406-1.653c0.24,0.042,0.483,0.062,0.727,0.062
			c1.063,0,2.126-0.402,2.938-1.214c0.997-0.997,1.376-2.374,1.151-3.665C23.295,12.652,24,11.411,24,10
			c0-1.41-0.705-2.652-1.777-3.406c0.225-1.291-0.154-2.667-1.151-3.665c-0.812-0.812-1.876-1.214-2.939-1.214
			c-0.243,0-0.485,0.021-0.726,0.062C16.652,0.705,15.411,0,14,0s-2.653,0.705-3.406,1.777c-0.24-0.041-0.482-0.062-0.726-0.062
			c-1.063,0-2.127,0.402-2.939,1.214C5.932,3.927,5.553,5.303,5.777,6.594C4.705,7.348,4,8.59,4,10c0,1.411,0.705,2.652,1.777,3.406
			c-0.225,1.291,0.154,2.668,1.151,3.665c0.812,0.812,1.876,1.214,2.938,1.214c0.243,0,0.486-0.021,0.727-0.062
			c0.57,0.81,1.418,1.407,2.406,1.653V24H1c-0.553,0-1,0.448-1,1c0,0.103,0.029,0.196,0.059,0.29l-0.015,0.005l4,18l0.015-0.005
			C4.185,43.698,4.551,44,5,44h18c0.449,0,0.815-0.302,0.941-0.71l0.015,0.005l4-18l-0.015-0.005C27.971,25.196,28,25.103,28,25z
			 M12.229,17.071l-0.73-1.037l-1.249,0.219c-0.126,0.021-0.255,0.032-0.382,0.032c-0.578,0-1.12-0.223-1.524-0.628
			c-0.495-0.495-0.718-1.208-0.596-1.907l0.218-1.25l-1.038-0.73C6.338,11.355,6,10.711,6,10c0-0.699,0.347-1.361,0.928-1.77
			l1.038-0.729l-0.218-1.25c-0.123-0.71,0.094-1.405,0.594-1.907C8.748,3.938,9.29,3.715,9.868,3.715
			c0.128,0,0.256,0.012,0.382,0.033l1.251,0.219l0.729-1.04C12.638,2.347,13.3,2,14,2c0.711,0,1.355,0.339,1.77,0.928l0.73,1.039
			l1.25-0.219c0.126-0.021,0.254-0.033,0.382-0.033c0.578,0,1.12,0.224,1.524,0.628c0.502,0.502,0.72,1.198,0.596,1.909
			l-0.217,1.249l1.037,0.729C21.653,8.639,22,9.301,22,10c0,0.711-0.338,1.355-0.928,1.771L20.035,12.5l0.217,1.249
			c0.122,0.7-0.101,1.413-0.594,1.907c-0.406,0.406-0.948,0.629-1.526,0.629c-0.127,0-0.256-0.011-0.382-0.032l-1.25-0.219
			l-0.729,1.038C15.361,17.653,14.7,18,14,18C13.29,18,12.645,17.661,12.229,17.071z M22.201,42H5.799L3.576,32h20.848L22.201,42z
			 M24.868,30H3.132l-0.889-4h23.514L24.868,30z M16,10c0-1.104-0.896-2-2-2s-2,0.896-2,2s0.896,2,2,2S16,11.104,16,10z"/>
	</g>
</g>
<g>
</g>
<g>
</g>
<g>
</g>
<g>
</g>
<g>
</g>
<g>
</g>
<g>
</g>
<g>
</g>
<g>
</g>
<g>
</g>
<g>
</g>
<g>
</g>
<g>
</g>
<g>
</g>
<g>
</g>
</svg>
