<?xml version="1.0" encoding="iso-8859-1"?>
<!-- Generator: Adobe Illustrator 16.0.4, SVG Export Plug-In . SVG Version: 6.00 Build 0)  -->
<!DOCTYPE svg PUBLIC "-//W3C//DTD SVG 1.1//EN" "http://www.w3.org/Graphics/SVG/1.1/DTD/svg11.dtd">
<svg version="1.1" id="Layer_1" xmlns="http://www.w3.org/2000/svg" xmlns:xlink="http://www.w3.org/1999/xlink" x="0px" y="0px"
	 width="36px" height="56px" viewBox="0 0 36 56" style="enable-background:new 0 0 36 56;" xml:space="preserve">
<g id="_x38_18-flower-pot_x40_2x.png">
	<g>
		<path d="M22,12c0-2.209-1.791-4-4-4s-4,1.791-4,4s1.791,4,4,4S22,14.209,22,12z M36,29c0-0.552-0.447-1-1-1H19v-4.124
			c1.269-0.262,2.367-0.984,3.087-2.009c1.55,0.271,3.201-0.185,4.398-1.382c1.196-1.196,1.652-2.849,1.382-4.398
			C29.154,15.183,30,13.692,30,12s-0.846-3.183-2.133-4.087c0.271-1.55-0.186-3.201-1.382-4.398
			c-1.197-1.196-2.849-1.651-4.398-1.382C21.183,0.847,19.692,0,18,0s-3.183,0.847-4.087,2.133c-1.55-0.27-3.201,0.186-4.398,1.382
			C8.318,4.712,7.862,6.363,8.133,7.913C6.846,8.817,6,10.308,6,12s0.846,3.183,2.133,4.087c-0.271,1.55,0.186,3.202,1.382,4.398
			c1.197,1.197,2.849,1.652,4.398,1.382c0.72,1.024,1.818,1.747,3.087,2.009V28H1c-0.553,0-1,0.448-1,1
			c0,0.103,0.029,0.196,0.059,0.29l-0.015,0.005l8,25.999l0.015-0.004C8.185,55.698,8.551,56,9,56h18
			c0.449,0,0.815-0.302,0.941-0.71l0.015,0.004l8-25.999l-0.015-0.005C35.971,29.196,36,29.103,36,29z M15.02,19.195
			c-1.179,1.033-2.967,1-4.091-0.124s-1.157-2.912-0.124-4.091C9.241,14.878,8,13.59,8,12s1.24-2.878,2.805-2.98
			c-1.033-1.179-1-2.966,0.124-4.09c1.124-1.125,2.912-1.158,4.091-0.125C15.122,3.241,16.41,2,18,2s2.878,1.241,2.98,2.805
			c1.179-1.033,2.967-1,4.091,0.125c1.124,1.124,1.157,2.911,0.124,4.09C26.76,9.122,28,10.41,28,12s-1.241,2.878-2.805,2.98
			c1.033,1.179,1,2.967-0.124,4.091s-2.912,1.157-4.091,0.124C20.878,20.76,19.59,22,18,22S15.122,20.76,15.02,19.195z M26.262,54
			H9.738L4.815,38h26.369L26.262,54z M31.8,36H4.2l-1.846-6h31.292L31.8,36z"/>
	</g>
</g>
<g>
</g>
<g>
</g>
<g>
</g>
<g>
</g>
<g>
</g>
<g>
</g>
<g>
</g>
<g>
</g>
<g>
</g>
<g>
</g>
<g>
</g>
<g>
</g>
<g>
</g>
<g>
</g>
<g>
</g>
</svg>
