<?xml version="1.0" encoding="iso-8859-1"?>
<!-- Generator: Adobe Illustrator 16.0.4, SVG Export Plug-In . SVG Version: 6.00 Build 0)  -->
<!DOCTYPE svg PUBLIC "-//W3C//DTD SVG 1.1//EN" "http://www.w3.org/Graphics/SVG/1.1/DTD/svg11.dtd">
<svg version="1.1" id="Layer_1" xmlns="http://www.w3.org/2000/svg" xmlns:xlink="http://www.w3.org/1999/xlink" x="0px" y="0px"
	 width="44px" height="44px" viewBox="0 0 44 44" style="enable-background:new 0 0 44 44;" xml:space="preserve">
<g id="_x31_216-folder-plus_x40_2x.png">
	<g>
		<path d="M33,22c-6.075,0-11,4.925-11,11s4.925,11,11,11s11-4.925,11-11S39.075,22,33,22z M33,42c-4.971,0-9-4.029-9-9s4.029-9,9-9
			s9,4.029,9,9S37.971,42,33,42z M4,32c-1.104,0-2-0.895-2-2V12h36v9c0.701,0.292,1.367,0.651,2,1.057V11V8c0-2.209-1.791-4-4-4h-3
			c0,0-12.047,0-14,0c-4,0-5-4-10-4C8.508,0,4,0,4,0C1.791,0,0,1.791,0,4v26c0,2.21,1.791,4,4,4h16.051
			C20.025,33.669,20,33.338,20,33s0.025-0.669,0.051-1H4z M2,4c0-1.104,0.896-2,2-2c0,0,3.992,0,5,0c4,0,5,4,10,4c2.479,0,14,0,14,0
			h3c1.104,0,2,0.896,2,2v2H2V4z M34,28h-2v4h-4v2h4v4h2v-4h4v-2h-4V28z"/>
	</g>
</g>
<g>
</g>
<g>
</g>
<g>
</g>
<g>
</g>
<g>
</g>
<g>
</g>
<g>
</g>
<g>
</g>
<g>
</g>
<g>
</g>
<g>
</g>
<g>
</g>
<g>
</g>
<g>
</g>
<g>
</g>
</svg>
