<?xml version="1.0" encoding="iso-8859-1"?>
<!-- Generator: Adobe Illustrator 16.0.4, SVG Export Plug-In . SVG Version: 6.00 Build 0)  -->
<!DOCTYPE svg PUBLIC "-//W3C//DTD SVG 1.1//EN" "http://www.w3.org/Graphics/SVG/1.1/DTD/svg11.dtd">
<svg version="1.1" id="Layer_1" xmlns="http://www.w3.org/2000/svg" xmlns:xlink="http://www.w3.org/1999/xlink" x="0px" y="0px"
	 width="56px" height="48px" viewBox="0 0 56 48" style="enable-background:new 0 0 56 48;" xml:space="preserve">
<g id="_x37_10-folder_x40_2x.png">
	<g>
		<path d="M52,4H34h-6h-0.926H26c-0.273,0-0.592,0-1,0c-4,0-5-4-10-4c-2,0-2.75,0-3,0h-0.109H4C1.791,0,0,1.791,0,4v4v11v25
			c0,2.209,1.791,4,4,4h48c2.209,0,4-1.791,4-4V8C56,5.791,54.209,4,52,4z M54,44c0,1.104-0.896,2-2,2H4c-1.104,0-2-0.896-2-2V19v-7
			h52V44z M54,10H2V8V4c0-1.104,0.896-2,2-2h7.891H12h0.555C13.014,2,13.769,2,15,2c4,0,5,4,10,4c0.375,0,0.707,0,1,0h1.953H52
			c1.104,0,2,0.896,2,2V10z"/>
	</g>
</g>
<g>
</g>
<g>
</g>
<g>
</g>
<g>
</g>
<g>
</g>
<g>
</g>
<g>
</g>
<g>
</g>
<g>
</g>
<g>
</g>
<g>
</g>
<g>
</g>
<g>
</g>
<g>
</g>
<g>
</g>
</svg>
