<?xml version="1.0" encoding="UTF-8" standalone="no"?>
<svg width="58px" height="46px" viewBox="0 0 58 46" version="1.1" xmlns="http://www.w3.org/2000/svg" xmlns:xlink="http://www.w3.org/1999/xlink" xmlns:sketch="http://www.bohemiancoding.com/sketch/ns">
    <!-- Generator: Sketch 3.0.4 (8053) - http://www.bohemiancoding.com/sketch -->
    <title>1218-folder-checked</title>
    <desc>Created with Sketch.</desc>
    <defs></defs>
    <g id="Page-1" stroke="none" stroke-width="1" fill="none" fill-rule="evenodd" sketch:type="MSPage">
        <g id="Glyphish-8-Icons" sketch:type="MSArtboardGroup" transform="translate(-692.000000, -1081.000000)" fill="#000000">
            <g id="1218-folder-checked" sketch:type="MSLayerGroup" transform="translate(692.036996, 1081.860499)">
                <g id="_x31_218-folder-checked_x40_2x.png" sketch:type="MSShapeGroup">
                    <path d="M4,36 C2.896,36 2,35.105 2,34 L2,12 L44,12 L44,20.051 C44.331,20.025 44.662,20 45,20 C45.338,20 45.669,20.025 46,20.051 L46,11 L46,8 C46,5.791 44.209,4 42,4 L39,4 L21,4 C17,4 16,0 11,0 L4,0 C1.791,0 0,1.791 0,4 L0,34 C0,36.21 1.791,38 4,38 L33,38 C32.732,37.359 32.524,36.688 32.362,36 L4,36 L4,36 Z M2,4 C2,2.896 2.896,2 4,2 L11,2 C15,2 16,6 21,6 L39,6 L42,6 C43.104,6 44,6.896 44,8 L44,10 L2,10 L2,4 L2,4 Z M44,34.586 L40.629,31.215 L39.215,32.629 L43.371,36.786 L43.387,36.77 C43.558,36.906 43.765,37 44,37 C44.235,37 44.442,36.906 44.613,36.771 L44.629,36.787 L51.285,30.13 L49.871,28.716 L44,34.586 L44,34.586 Z M45,22 C38.925,22 34,26.925 34,33 C34,39.075 38.925,44 45,44 C51.075,44 56,39.075 56,33 C56,26.925 51.075,22 45,22 L45,22 Z M45,42 C40.029,42 36,37.971 36,33 C36,28.029 40.029,24 45,24 C49.971,24 54,28.029 54,33 C54,37.971 49.971,42 45,42 L45,42 Z" id="Shape"></path>
                </g>
            </g>
        </g>
    </g>
</svg>