<?xml version="1.0" encoding="iso-8859-1"?>
<!-- Generator: Adobe Illustrator 16.0.4, SVG Export Plug-In . SVG Version: 6.00 Build 0)  -->
<!DOCTYPE svg PUBLIC "-//W3C//DTD SVG 1.1//EN" "http://www.w3.org/Graphics/SVG/1.1/DTD/svg11.dtd">
<svg version="1.1" id="Layer_1" xmlns="http://www.w3.org/2000/svg" xmlns:xlink="http://www.w3.org/1999/xlink" x="0px" y="0px"
	 width="44px" height="36px" viewBox="0 0 44 36" style="enable-background:new 0 0 44 36;" xml:space="preserve">
<g id="_x37_10-folder-toolbar_x40_2x.png">
	<g>
		<path d="M40,4H25c-4,0-5-4-10-4H4C1.791,0,0,1.791,0,4v28c0,2.209,1.791,4,4,4h36c2.209,0,4-1.791,4-4V8C44,5.791,42.209,4,40,4z
			 M42,32c0,1.104-0.896,2-2,2H4c-1.104,0-2-0.896-2-2V12h40V32z M42,10H2V4c0-1.104,0.896-2,2-2h11c4,0,5,4,10,4h15
			c1.104,0,2,0.896,2,2V10z"/>
	</g>
</g>
<g>
</g>
<g>
</g>
<g>
</g>
<g>
</g>
<g>
</g>
<g>
</g>
<g>
</g>
<g>
</g>
<g>
</g>
<g>
</g>
<g>
</g>
<g>
</g>
<g>
</g>
<g>
</g>
<g>
</g>
</svg>
