<?xml version="1.0" encoding="iso-8859-1"?>
<!-- Generator: Adobe Illustrator 16.0.4, SVG Export Plug-In . SVG Version: 6.00 Build 0)  -->
<!DOCTYPE svg PUBLIC "-//W3C//DTD SVG 1.1//EN" "http://www.w3.org/Graphics/SVG/1.1/DTD/svg11.dtd">
<svg version="1.1" id="Layer_1" xmlns="http://www.w3.org/2000/svg" xmlns:xlink="http://www.w3.org/1999/xlink" x="0px" y="0px"
	 width="56px" height="44px" viewBox="0 0 56 44" style="enable-background:new 0 0 56 44;" xml:space="preserve">
<g id="_x39_82-food_x40_2x.png">
	<g>
		<path d="M56,33c0-5-5-5-5-5H31c-5,0-5,5-5,5c0,0.149,0.038,0.289,0.097,0.416C26.04,33.603,26,33.796,26,34v4
			c0,0.205,0.04,0.398,0.097,0.584C26.038,38.711,26,38.851,26,39c0,0,0,5,5,5h20c0,0,5,0,5-5c0-0.149-0.038-0.289-0.097-0.416
			C55.96,38.398,56,38.205,56,38v-4c0-0.204-0.04-0.397-0.097-0.584C55.962,33.289,56,33.149,56,33z M30.188,30
			c2,0,19.625,0,21.625,0s2,2,2,2H28.188C28.188,32,28.188,30,30.188,30z M51.812,42c-2,0-19.625,0-21.625,0s-2-2-2-2h25.625
			C53.812,40,53.812,42,51.812,42z M54,38H28v-4h26V38z M26,9c0-0.552-0.447-1-1-1h-8.452l1.264-6H29c0.553,0,1-0.447,1-1
			s-0.447-1-1-1H17c-0.48,0-0.863,0.346-0.959,0.798l-0.02-0.004L14.505,8H1C0.447,8,0,8.448,0,9c0,0.04,0.019,0.073,0.022,0.111
			L0.007,9.113l4,34l0.016-0.002C4.08,43.609,4.487,44,5,44h16c0.513,0,0.92-0.391,0.978-0.889l0.016,0.002l4-34l-0.016-0.002
			C25.982,9.073,26,9.04,26,9z M2.125,10h11.958l-1.942,9.23c-3.438-1.301-6.578-1.403-9.058-1.081L2.125,10z M20.11,42H5.89
			L3.317,20.138c2.305-0.305,5.235-0.202,8.406,1.07L8.021,38.794l0.02,0.004C8.026,38.865,8,38.929,8,39c0,0.553,0.447,1,1,1
			c0.48,0,0.863-0.346,0.959-0.798l0.02,0.004l3.633-17.254c2.424,0.824,5.503,1.194,8.751,0.913L20.11,42z M22.599,20.854
			c-2.479,0.282-5.57,0.224-8.57-0.884L16.127,10h7.749L22.599,20.854z"/>
	</g>
</g>
<g>
</g>
<g>
</g>
<g>
</g>
<g>
</g>
<g>
</g>
<g>
</g>
<g>
</g>
<g>
</g>
<g>
</g>
<g>
</g>
<g>
</g>
<g>
</g>
<g>
</g>
<g>
</g>
<g>
</g>
</svg>
