<?xml version="1.0" encoding="iso-8859-1"?>
<!-- Generator: Adobe Illustrator 16.0.4, SVG Export Plug-In . SVG Version: 6.00 Build 0)  -->
<!DOCTYPE svg PUBLIC "-//W3C//DTD SVG 1.1//EN" "http://www.w3.org/Graphics/SVG/1.1/DTD/svg11.dtd">
<svg version="1.1" id="Layer_1" xmlns="http://www.w3.org/2000/svg" xmlns:xlink="http://www.w3.org/1999/xlink" x="0px" y="0px"
	 width="44px" height="36px" viewBox="0 0 44 36" style="enable-background:new 0 0 44 36;" xml:space="preserve">
<g id="_x39_82-food-toolbar_x40_2x.png">
	<g>
		<path d="M20,7c0-0.553-0.447-1-1-1h-4.98l0.8-4H22c0.553,0,1-0.447,1-1c0-0.552-0.447-1-1-1h-8c-0.48,0-0.863,0.346-0.959,0.798
			l-0.02-0.004L11.98,6H1C0.448,6,0,6.447,0,7c0,0.04,0.019,0.073,0.022,0.112L0.007,7.113l4,28l0.016-0.002
			C4.081,35.609,4.487,36,5,36h10c0.513,0,0.92-0.391,0.978-0.889l0.016,0.002l4-28l-0.016-0.001C19.982,7.073,20,7.04,20,7z
			 M2.152,8h9.428l-1.52,7.598c-2.538-1.107-4.933-1.535-7.05-1.591L2.152,8z M14.133,34H5.867L3.298,16.018
			c1.929,0.086,4.086,0.512,6.351,1.575c0.004,0.002,0.009,0.003,0.013,0.005l-2.64,13.196l0.02,0.004C7.026,30.865,7,30.929,7,31
			c0,0.553,0.448,1,1,1c0.48,0,0.863-0.346,0.959-0.798l0.02,0.004l2.594-12.968c1.418,0.389,3.019,0.618,4.715,0.686L14.133,34z
			 M16.564,16.984c-1.476-0.033-3.04-0.229-4.603-0.692L13.62,8h4.228L16.564,16.984z M44,27c0-5-5-5-5-5H25c-5,0-5,5-5,5
			c0,0.15,0.038,0.289,0.097,0.416C20.04,27.603,20,27.796,20,28v2c0,0.205,0.04,0.398,0.097,0.584C20.038,30.711,20,30.851,20,31
			c0,0,0,5,5,5h14c0,0,5,0,5-5c0-0.149-0.038-0.289-0.097-0.416C43.96,30.398,44,30.205,44,30v-2c0-0.204-0.04-0.397-0.097-0.584
			C43.962,27.289,44,27.15,44,27z M24.188,24c2,0,13.625,0,15.625,0s2,2,2,2H22.188C22.188,26,22.188,24,24.188,24z M39.812,34
			c-2,0-13.625,0-15.625,0s-2-2-2-2h19.625C41.812,32,41.812,34,39.812,34z M42,30H22v-2h20V30z"/>
	</g>
</g>
<g>
</g>
<g>
</g>
<g>
</g>
<g>
</g>
<g>
</g>
<g>
</g>
<g>
</g>
<g>
</g>
<g>
</g>
<g>
</g>
<g>
</g>
<g>
</g>
<g>
</g>
<g>
</g>
<g>
</g>
</svg>
