<?xml version="1.0" encoding="UTF-8" standalone="no"?>
<svg width="54px" height="50px" viewBox="0 0 54 50" version="1.1" xmlns="http://www.w3.org/2000/svg" xmlns:xlink="http://www.w3.org/1999/xlink" xmlns:sketch="http://www.bohemiancoding.com/sketch/ns">
    <!-- Generator: Sketch 3.0.4 (8053) - http://www.bohemiancoding.com/sketch -->
    <title>1150-football-jersey</title>
    <desc>Created with Sketch.</desc>
    <defs></defs>
    <g id="Page-1" stroke="none" stroke-width="1" fill="none" fill-rule="evenodd" sketch:type="MSPage">
        <g id="Glyphish-8-Icons" sketch:type="MSArtboardGroup" transform="translate(-886.000000, -407.000000)" fill="#000000">
            <g id="1150-football-jersey" sketch:type="MSLayerGroup" transform="translate(886.036996, 407.860499)">
                <g id="_x31_150-football-jersey_x40_2x.png" sketch:type="MSShapeGroup">
                    <path d="M37.002,0 L37,0 L35,0 C34.633,0 34.325,0.208 34.151,0.504 L34.125,0.5 C33.232,2.223 29.724,4 26,4 C22.276,4 18.768,2.223 17.875,0.5 L17.849,0.504 C17.676,0.208 17.367,0 17,0 L15,0 L14.998,0 C3.267,0.001 0,9.092 0,13 L0,25 L0,26 C0,27.104 0.896,28 2,28 L3,28 L10,28 L10,45 L10,46 C10,47.104 10.896,48 12,48 L13,48 L39,48 L40,48 C41.104,48 42,47.104 42,46 L42,45 L42,28 L49,28 L50,28 C51.104,28 52,27.104 52,26 L52,25 L52,13 C52,9.092 48.733,0.001 37.002,0 L37.002,0 Z M10,26 L3,26 L2,26 L2,25 L2,20 L10,20 L10,26 L10,26 Z M10,18 L2,18 L2,16 L10,16 L10,18 L10,18 Z M50,25 L50,26 L49,26 L42,26 L42,20 L50,20 L50,25 L50,25 Z M50,18 L42,18 L42,16 L50,16 L50,18 L50,18 Z M50,14 L42,14 L42,13 C42,12.447 41.553,12 41,12 C40.447,12 40,12.447 40,13 C40,13 40,13 40,13.001 L40,45 L40,46 L39,46 L13,46 L12,46 L12,45 L12,13 C12,12.447 11.553,12 11,12 C10.447,12 10,12.447 10,13 C10,13 10,13 10,13.001 L10,14 L2,14 L2,13 C2,8.095 5.749,2.283 14.411,2.024 C15.758,5.46 20.425,8 26,8 C31.575,8 36.242,5.46 37.589,2.024 C46.251,2.283 50,8.095 50,13 L50,14 L50,14 Z M28.52,20.032 L28.52,19.996 C29.164,19.794 29.647,19.46 29.969,18.995 C30.291,18.531 30.452,17.988 30.452,17.369 C30.452,17.059 30.376,16.711 30.224,16.324 C30.073,15.936 29.823,15.573 29.475,15.233 C29.128,14.894 28.67,14.605 28.102,14.367 C27.534,14.129 26.838,14.01 26.017,14.01 C25.474,14.01 24.938,14.081 24.407,14.224 C23.877,14.368 23.4,14.581 22.976,14.868 C22.553,15.154 22.209,15.512 21.944,15.94 C21.679,16.368 21.547,16.864 21.547,17.423 C21.547,18.043 21.711,18.584 22.039,19.049 C22.367,19.514 22.853,19.829 23.498,19.996 L23.498,20.032 C22.702,20.211 22.087,20.568 21.65,21.104 C21.214,21.64 20.997,22.307 20.997,23.105 C20.997,23.785 21.139,24.369 21.424,24.857 C21.707,25.345 22.087,25.751 22.561,26.072 C23.035,26.394 23.571,26.63 24.171,26.778 C24.771,26.926 25.393,27.002 26.037,27.002 C26.656,27.002 27.262,26.921 27.855,26.761 C28.449,26.6 28.98,26.359 29.447,26.037 C29.915,25.715 30.291,25.31 30.575,24.821 C30.859,24.333 31.001,23.755 31.001,23.088 C31.001,22.302 30.786,21.638 30.357,21.096 C29.928,20.554 29.314,20.199 28.52,20.032 L28.52,20.032 Z M24.151,16.904 C24.258,16.69 24.407,16.511 24.596,16.368 C24.785,16.225 25.003,16.115 25.25,16.038 C25.496,15.96 25.752,15.922 26.017,15.922 C26.434,15.922 26.772,15.982 27.031,16.101 C27.29,16.22 27.492,16.369 27.637,16.547 C27.782,16.725 27.88,16.913 27.931,17.11 C27.982,17.306 28.007,17.488 28.007,17.655 C28.007,18.191 27.818,18.599 27.439,18.879 C27.06,19.159 26.586,19.299 26.017,19.299 C25.474,19.299 25,19.159 24.596,18.879 C24.192,18.6 23.99,18.191 23.99,17.655 C23.99,17.369 24.044,17.119 24.151,16.904 L24.151,16.904 Z M28.141,23.856 C28.027,24.119 27.866,24.341 27.658,24.526 C27.449,24.712 27.21,24.854 26.938,24.955 C26.666,25.057 26.366,25.107 26.038,25.107 C25.722,25.107 25.419,25.056 25.129,24.955 C24.838,24.854 24.589,24.712 24.38,24.526 C24.172,24.341 24.004,24.119 23.878,23.856 C23.752,23.594 23.689,23.302 23.689,22.98 C23.689,22.336 23.917,21.845 24.372,21.506 C24.826,21.166 25.382,20.996 26.039,20.996 C26.354,20.996 26.648,21.044 26.92,21.139 C27.191,21.235 27.432,21.371 27.64,21.55 C27.849,21.729 28.013,21.941 28.133,22.185 C28.253,22.429 28.313,22.701 28.313,22.998 C28.311,23.309 28.254,23.595 28.141,23.856 L28.141,23.856 Z" id="Shape"></path>
                </g>
            </g>
        </g>
    </g>
</svg>