<?xml version="1.0" encoding="iso-8859-1"?>
<!-- Generator: Adobe Illustrator 16.0.4, SVG Export Plug-In . SVG Version: 6.00 Build 0)  -->
<!DOCTYPE svg PUBLIC "-//W3C//DTD SVG 1.1//EN" "http://www.w3.org/Graphics/SVG/1.1/DTD/svg11.dtd">
<svg version="1.1" id="Layer_1" xmlns="http://www.w3.org/2000/svg" xmlns:xlink="http://www.w3.org/1999/xlink" x="0px" y="0px"
	 width="40.01px" height="36px" viewBox="0 0 40.01 36" style="enable-background:new 0 0 40.01 36;" xml:space="preserve">
<g id="_x31_150-football-jersey_x40_2x.png">
	<g>
		<path d="M22.026,16.64v-0.027c0.516-0.155,0.902-0.412,1.16-0.77s0.387-0.774,0.387-1.251c0-0.238-0.061-0.507-0.182-0.805
			c-0.121-0.297-0.321-0.577-0.6-0.838c-0.278-0.262-0.645-0.483-1.1-0.667s-1.011-0.275-1.668-0.275
			c-0.435,0-0.864,0.056-1.289,0.165c-0.425,0.11-0.807,0.275-1.146,0.495s-0.614,0.495-0.826,0.825
			c-0.213,0.33-0.319,0.71-0.319,1.141c0,0.477,0.132,0.894,0.395,1.251s0.652,0.601,1.168,0.729v0.027
			c-0.637,0.138-1.13,0.413-1.479,0.825s-0.523,0.926-0.523,1.54c0,0.522,0.114,0.971,0.341,1.347
			c0.228,0.376,0.531,0.688,0.91,0.936c0.38,0.247,0.81,0.428,1.289,0.542c0.48,0.115,0.979,0.172,1.494,0.172
			c0.496,0,0.981-0.062,1.456-0.186c0.476-0.123,0.9-0.309,1.274-0.557c0.374-0.247,0.675-0.559,0.902-0.935s0.342-0.82,0.342-1.333
			c0-0.605-0.173-1.116-0.516-1.533C23.153,17.041,22.663,16.769,22.026,16.64z M18.53,14.234c0.086-0.165,0.205-0.303,0.356-0.412
			c0.151-0.11,0.326-0.195,0.523-0.255s0.401-0.089,0.614-0.089c0.333,0,0.604,0.046,0.812,0.138
			c0.207,0.091,0.369,0.206,0.485,0.343c0.116,0.138,0.194,0.282,0.235,0.434c0.04,0.151,0.061,0.291,0.061,0.419
			c0,0.412-0.152,0.727-0.455,0.941c-0.304,0.216-0.683,0.323-1.138,0.323c-0.435,0-0.814-0.107-1.138-0.323
			c-0.324-0.215-0.485-0.529-0.485-0.941C18.401,14.592,18.444,14.399,18.53,14.234z M21.723,19.582
			c-0.091,0.201-0.22,0.373-0.387,0.516c-0.167,0.142-0.358,0.252-0.576,0.329c-0.218,0.079-0.458,0.117-0.721,0.117
			c-0.253,0-0.495-0.038-0.728-0.117c-0.232-0.077-0.433-0.188-0.6-0.329c-0.167-0.143-0.301-0.314-0.401-0.516
			c-0.102-0.201-0.152-0.426-0.152-0.674c0-0.495,0.183-0.873,0.547-1.134c0.363-0.262,0.809-0.393,1.334-0.393
			c0.253,0,0.488,0.037,0.706,0.11c0.217,0.073,0.409,0.179,0.576,0.316s0.298,0.3,0.395,0.488c0.096,0.188,0.144,0.396,0.144,0.625
			C21.859,19.16,21.814,19.381,21.723,19.582z M29.01,0h-2c-0.329,0-0.606,0.169-0.789,0.414C25.219,1.698,22.868,2,20.01,2
			c-2.857,0-5.264-0.332-6.211-1.586C13.616,0.169,13.339,0,13.01,0h-2c-10.874,0-11,9.9-11,10H0v9h0.01v1.5
			c0,0.828,0.672,1.5,1.5,1.5h1.5h5v-2h-5h-1v-1v-1h6.006v15H8.01v1.5c0,0.828,0.672,1.5,1.5,1.5h1.5h18h1.5
			c0.828,0,1.5-0.672,1.5-1.5V33h-0.006V18H38v1h0.01v1h-1h-5v2h5h1.5c0.828,0,1.5-0.672,1.5-1.5V19v-9C40.01,9.9,39.884,0,29.01,0z
			 M8.016,16H2.01v-2h6.006V16z M38,16h-5.996v-2H38V16z M38,10v2h-5.996v-0.97c0-0.011,0.006-0.02,0.006-0.03c0-0.552-0.447-1-1-1
			s-1,0.448-1,1h-0.016v22h0.016v1h-1h-18h-1v-1H9.994V11.075C9.997,11.049,10.01,11.026,10.01,11c0-0.552-0.447-1-1-1s-1,0.448-1,1
			c0,0.011,0.006,0.021,0.006,0.031V12H2.01v-2c0-0.319,0.121-7.636,8.431-7.969C11.777,4.416,15.88,6,20.01,6
			s8.232-1.584,9.569-3.969C37.889,2.364,38.01,9.681,38.01,10H38z"/>
	</g>
</g>
<g>
</g>
<g>
</g>
<g>
</g>
<g>
</g>
<g>
</g>
<g>
</g>
<g>
</g>
<g>
</g>
<g>
</g>
<g>
</g>
<g>
</g>
<g>
</g>
<g>
</g>
<g>
</g>
<g>
</g>
</svg>
