<?xml version="1.0" encoding="iso-8859-1"?>
<!-- Generator: Adobe Illustrator 16.0.4, SVG Export Plug-In . SVG Version: 6.00 Build 0)  -->
<!DOCTYPE svg PUBLIC "-//W3C//DTD SVG 1.1//EN" "http://www.w3.org/Graphics/SVG/1.1/DTD/svg11.dtd">
<svg version="1.1" id="Layer_1" xmlns="http://www.w3.org/2000/svg" xmlns:xlink="http://www.w3.org/1999/xlink" x="0px" y="0px"
	 width="55.979px" height="55.991px" viewBox="0 0 55.979 55.991" style="enable-background:new 0 0 55.979 55.991;"
	 xml:space="preserve">
<g id="_x31_085-football_x40_2x.png">
	<g>
		<path d="M53.931,2.12C52.741,0.874,49.103,0,44.256,0c-9.079,0.001-22.4,3.063-31.821,12.474
			C-2.016,26.91-1.6,49.593,2.402,53.591c1.43,1.428,5.248,2.4,10.225,2.4c8.95,0,21.65-3.145,30.938-12.422
			C58.015,29.134,57.349,5.701,53.931,2.12z M12.626,53.991c-5.133,0-8.08-1.086-8.812-1.814C3.085,51.446,2,48.503,2,43.378
			c0-3.141,0.426-6.782,1.395-10.563l19.788,19.788C19.404,53.566,15.764,53.991,12.626,53.991z M42.152,42.155
			c-4.906,4.899-10.917,8.027-16.759,9.829L4.015,30.606C5.82,24.778,8.95,18.783,13.848,13.89c4.85-4.845,10.894-7.959,16.84-9.781
			l21.261,21.26C50.207,31.143,47.166,37.146,42.152,42.155z M32.894,3.485C36.941,2.451,40.867,2,44.256,2
			c5.134,0,7.762,1.011,8.228,1.501c1.383,1.447,2.481,9.992,0.077,19.65L32.894,3.485z M27.541,17.546
			c-0.391,0.391-0.391,1.023,0,1.414l3.535,3.535l-3.586,3.586l-3.535-3.535c-0.391-0.391-1.024-0.391-1.415,0
			c-0.39,0.39-0.39,1.023,0,1.414l3.536,3.535l-3.586,3.586l-3.535-3.535c-0.391-0.391-1.024-0.391-1.415,0
			c-0.39,0.39-0.39,1.023,0,1.414l3.536,3.535l-3.793,3.793c-0.181,0.181-0.293,0.431-0.293,0.707c0,0.553,0.447,1,1,1
			c0.276,0,0.526-0.112,0.707-0.293l3.793-3.793l3.535,3.536c0.391,0.39,1.024,0.39,1.415,0c0.39-0.391,0.39-1.024,0-1.415
			l-3.536-3.535l3.586-3.586l3.535,3.536c0.391,0.39,1.024,0.39,1.415,0c0.39-0.391,0.39-1.024,0-1.415l-3.536-3.535l3.586-3.586
			l3.535,3.536c0.391,0.39,1.024,0.39,1.415,0c0.39-0.391,0.39-1.024,0-1.415l-3.536-3.535l3.793-3.793
			c0.181-0.181,0.293-0.431,0.293-0.707c0-0.552-0.447-1-1-1c-0.276,0-0.526,0.112-0.707,0.293l-3.793,3.793l-3.535-3.535
			C28.564,17.155,27.93,17.155,27.541,17.546z"/>
	</g>
</g>
<g>
</g>
<g>
</g>
<g>
</g>
<g>
</g>
<g>
</g>
<g>
</g>
<g>
</g>
<g>
</g>
<g>
</g>
<g>
</g>
<g>
</g>
<g>
</g>
<g>
</g>
<g>
</g>
<g>
</g>
</svg>
