<?xml version="1.0" encoding="iso-8859-1"?>
<!-- Generator: Adobe Illustrator 16.0.4, SVG Export Plug-In . SVG Version: 6.00 Build 0)  -->
<!DOCTYPE svg PUBLIC "-//W3C//DTD SVG 1.1//EN" "http://www.w3.org/Graphics/SVG/1.1/DTD/svg11.dtd">
<svg version="1.1" id="Layer_1" xmlns="http://www.w3.org/2000/svg" xmlns:xlink="http://www.w3.org/1999/xlink" x="0px" y="0px"
	 width="36px" height="44px" viewBox="0 0 36 44" style="enable-background:new 0 0 36 44;" xml:space="preserve">
<g id="_x31_148-football-goalposts_x40_2x.png">
	<g>
		<path d="M34,0h-2c-1.104,0-2,0.896-2,2v22H6V2c0-1.104-0.896-2-2-2H2C0.896,0,0,0.896,0,2v22c0,3.313,2.687,6,6,6h11v3h-1
			c-1.104,0-2,0.896-2,2v9h2v-9h4v9h2v-9c0-1.104-0.896-2-2-2h-1v-3h11c3.313,0,6-2.687,6-6V2C36,0.896,35.104,0,34,0z M34,24
			c0,2.209-1.791,4-4,4H6c-2.209,0-4-1.791-4-4V2h2v22c0,1.104,0.896,2,2,2h24c1.104,0,2-0.896,2-2V2h2V24z"/>
	</g>
</g>
<g>
</g>
<g>
</g>
<g>
</g>
<g>
</g>
<g>
</g>
<g>
</g>
<g>
</g>
<g>
</g>
<g>
</g>
<g>
</g>
<g>
</g>
<g>
</g>
<g>
</g>
<g>
</g>
<g>
</g>
</svg>
