<?xml version="1.0" encoding="UTF-8" standalone="no"?>
<svg width="50px" height="58px" viewBox="0 0 50 58" version="1.1" xmlns="http://www.w3.org/2000/svg" xmlns:xlink="http://www.w3.org/1999/xlink" xmlns:sketch="http://www.bohemiancoding.com/sketch/ns">
    <!-- Generator: Sketch 3.0.4 (8053) - http://www.bohemiancoding.com/sketch -->
    <title>1148-football-goalposts</title>
    <desc>Created with Sketch.</desc>
    <defs></defs>
    <g id="Page-1" stroke="none" stroke-width="1" fill="none" fill-rule="evenodd" sketch:type="MSPage">
        <g id="Glyphish-8-Icons" sketch:type="MSArtboardGroup" transform="translate(-696.000000, -403.000000)" fill="#000000">
            <g id="1148-football-goalposts" sketch:type="MSLayerGroup" transform="translate(696.036996, 403.860499)">
                <g id="_x31_148-football-goalposts_x40_2x.png" sketch:type="MSShapeGroup">
                    <path d="M46,0 L44,0 C42.896,0 42,0.896 42,2 L42,34 L6,34 L6,2 C6,0.896 5.104,0 4,0 L2,0 C0.896,0 0,0.896 0,2 L0,34 C0,37.313 2.687,40 6,40 L23,40 L23,43 L22,43 C20.896,43 20,43.896 20,45 L20,56 L22,56 L22,45 L26,45 L26,56 L28,56 L28,45 C28,43.896 27.104,43 26,43 L25,43 L25,40 L42,40 C45.313,40 48,37.313 48,34 L48,2 C48,0.896 47.104,0 46,0 L46,0 Z M46,34 C46,36.209 44.209,38 42,38 L6,38 C3.791,38 2,36.209 2,34 L2,2 L4,2 L4,34 C4,35.104 4.896,36 6,36 L42,36 C43.104,36 44,35.104 44,34 L44,2 L46,2 L46,34 L46,34 Z" id="Shape"></path>
                </g>
            </g>
        </g>
    </g>
</svg>