<?xml version="1.0" encoding="iso-8859-1"?>
<!-- Generator: Adobe Illustrator 16.0.4, SVG Export Plug-In . SVG Version: 6.00 Build 0)  -->
<!DOCTYPE svg PUBLIC "-//W3C//DTD SVG 1.1//EN" "http://www.w3.org/Graphics/SVG/1.1/DTD/svg11.dtd">
<svg version="1.1" id="Layer_1" xmlns="http://www.w3.org/2000/svg" xmlns:xlink="http://www.w3.org/1999/xlink" x="0px" y="0px"
	 width="43.681px" height="36px" viewBox="0 0 43.681 36" style="enable-background:new 0 0 43.681 36;" xml:space="preserve">
<g id="_x31_147-football-helmet_x40_2x.png">
	<g>
		<path d="M43.681,27c0-0.553-0.447-1-1-1c0,0,0,0-0.001,0H28.428c1.062-4.651,4.684-4.869,6.757-4.869
			c2.447,0,2.339-1.686,2.339-3.131c0-5.801-4.145-18-18.381-18C4.907,0,0.217,10.36,0.317,16.342
			c0.1,5.981,0.458,9.051-0.251,10.854c-0.454,0.852,1.456,0.979,4.612,0.979c8.751,0,8.577,7.826,15.594,7.826
			c0.59,0,4.77-0.452,6.775-3.377l13.391,3.347l0.004-0.018C40.521,35.972,40.597,36,40.681,36c0.441,0,0.805-0.291,0.937-0.688
			l0.013,0.004l2-8l-0.012-0.004C43.651,27.213,43.681,27.111,43.681,27z M26.138,28.956c0,4.69-5.816,5.043-5.865,5.044
			c-2.487,0-3.718-1.257-5.42-2.995c-2.107-2.152-4.729-4.831-10.174-4.831c-0.965,0-1.742-0.015-2.33-0.045
			c0.191-1.463,0.133-3.3,0.053-5.821c-0.036-1.164-0.078-2.488-0.104-3.999c-0.043-2.589,0.99-6.463,4.019-9.572
			C9.378,3.594,13.693,2,19.143,2c13.387,0,16.399,11.85,16.399,16l0.001,0.182c0.001,0.27,0.002,0.683-0.032,0.929
			c-0.075,0.011-0.181,0.02-0.326,0.02C29.182,19.13,26.138,22.437,26.138,28.956z M34.414,32.402l-6.535-1.634
			c0.146-0.549,0.239-1.144,0.239-1.812c0-0.338,0.02-0.646,0.038-0.956h7.246L34.414,32.402z M39.956,33.788l-3.6-0.899L37.474,28
			h3.93L39.956,33.788z M20.681,25c-1.657,0-3,1.343-3,3s1.343,3,3,3s3-1.343,3-3S22.338,25,20.681,25z M20.681,29
			c-0.553,0-1-0.447-1-1s0.447-1,1-1s1,0.447,1,1S21.233,29,20.681,29z"/>
	</g>
</g>
<g>
</g>
<g>
</g>
<g>
</g>
<g>
</g>
<g>
</g>
<g>
</g>
<g>
</g>
<g>
</g>
<g>
</g>
<g>
</g>
<g>
</g>
<g>
</g>
<g>
</g>
<g>
</g>
<g>
</g>
</svg>
