<?xml version="1.0" encoding="UTF-8" standalone="no"?>
<svg width="57px" height="50px" viewBox="0 0 57 50" version="1.1" xmlns="http://www.w3.org/2000/svg" xmlns:xlink="http://www.w3.org/1999/xlink" xmlns:sketch="http://www.bohemiancoding.com/sketch/ns">
    <!-- Generator: Sketch 3.0.4 (8053) - http://www.bohemiancoding.com/sketch -->
    <title>1147-football-helmet</title>
    <desc>Created with Sketch.</desc>
    <defs></defs>
    <g id="Page-1" stroke="none" stroke-width="1" fill="none" fill-rule="evenodd" sketch:type="MSPage">
        <g id="Glyphish-8-Icons" sketch:type="MSArtboardGroup" transform="translate(-596.000000, -407.000000)" fill="#000000">
            <g id="1147-football-helmet" sketch:type="MSLayerGroup" transform="translate(596.036996, 407.860499)">
                <g id="_x31_147-football-helmet_x40_2x.png" sketch:type="MSShapeGroup">
                    <path d="M55.993,35 C55.993,34.447 55.546,34 54.993,34 C54.993,34 54.993,34 54.992,34 L36.184,34 C37.297,27.29 42.22,27 44.983,27 C48.111,27 47.973,24.847 47.973,23 C47.973,15.588 42.674,0 24.474,0 C6.274,0 0.278,13.238 0.405,20.882 C0.533,28.525 0.992,32.447 0.085,34.749 C-0.495,35.838 1.947,36 5.982,36 C17.17,36 16.947,46 25.919,46 C26.587,46 30.862,45.539 33.611,42.83 L50.706,47.958 L50.71,47.943 C50.802,47.971 50.893,48 50.993,48 C51.434,48 51.798,47.709 51.93,47.312 L51.943,47.316 L55.943,35.316 L55.93,35.312 C55.964,35.213 55.993,35.111 55.993,35 L55.993,35 Z M25.919,44 C22.517,44 20.792,42.24 18.609,40.012 C15.985,37.333 12.721,34 5.982,34 C4.395,34 3.19,33.968 2.377,33.902 C2.723,31.994 2.645,29.522 2.532,25.966 C2.484,24.472 2.43,22.778 2.399,20.847 C2.341,17.41 3.712,12.277 7.733,8.175 C11.75,4.078 17.383,2 24.474,2 C31.812,2 37.501,4.662 41.386,9.912 C44.684,14.371 45.98,19.75 45.98,23 L45.98,23.23 C45.982,23.729 45.985,24.659 45.84,24.864 C45.838,24.866 45.644,25 44.982,25 C37.707,25 33.955,29.037 33.955,37 C33.955,43.596 25.995,43.999 25.919,44 L25.919,44 Z M34.911,41.132 C35.542,40.018 35.949,38.669 35.949,37 C35.949,36.646 35.972,36.33 35.988,36 L47.605,36 L44.896,44.127 L34.911,41.132 L34.911,41.132 Z M50.352,45.764 L46.814,44.702 L49.714,36 L53.606,36 L50.352,45.764 L50.352,45.764 Z M26.993,34 C25.336,34 23.993,35.343 23.993,37 C23.993,38.657 25.336,40 26.993,40 C28.65,40 29.993,38.657 29.993,37 C29.993,35.343 28.65,34 26.993,34 L26.993,34 Z M26.993,38 C26.44,38 25.993,37.553 25.993,37 C25.993,36.448 26.44,36 26.993,36 C27.546,36 27.993,36.448 27.993,37 C27.993,37.553 27.546,38 26.993,38 L26.993,38 Z" id="Shape"></path>
                </g>
            </g>
        </g>
    </g>
</svg>