<?xml version="1.0" encoding="iso-8859-1"?>
<!-- Generator: Adobe Illustrator 16.0.4, SVG Export Plug-In . SVG Version: 6.00 Build 0)  -->
<!DOCTYPE svg PUBLIC "-//W3C//DTD SVG 1.1//EN" "http://www.w3.org/Graphics/SVG/1.1/DTD/svg11.dtd">
<svg version="1.1" id="Layer_1" xmlns="http://www.w3.org/2000/svg" xmlns:xlink="http://www.w3.org/1999/xlink" x="0px" y="0px"
	 width="44.008px" height="43.992px" viewBox="0 0 44.008 43.992" style="enable-background:new 0 0 44.008 43.992;"
	 xml:space="preserve">
<g id="_x31_085-football-toolbar_x40_2x.png">
	<g>
		<path d="M42.398,1.665C41.462,0.687,38.603,0,34.791,0C27.654,0,17.181,2.406,9.776,9.801
			C-1.585,21.144-1.258,38.966,1.888,42.107c1.123,1.122,4.125,1.885,8.037,1.885c7.037,0,17.021-2.47,24.322-9.759
			C45.609,22.892,45.085,4.479,42.398,1.665z M9.925,41.992c-3.878,0-6.121-0.798-6.624-1.3C2.797,40.189,2,37.951,2,34.082
			c0-1.347,0.106-2.816,0.323-4.353l11.943,11.944C12.734,41.888,11.269,41.992,9.925,41.992z M32.834,32.818
			c-4.698,4.689-10.705,7.284-16.159,8.436L2.745,27.322c1.155-5.437,3.753-11.423,8.444-16.105
			c4.623-4.617,10.65-7.211,16.219-8.401l13.795,13.794C40.083,22.011,37.616,28.046,32.834,32.818z M41.623,14.2L29.807,2.386
			C31.566,2.127,33.251,2,34.791,2c3.798,0,5.796,0.71,6.159,1.045C41.781,3.973,42.425,8.531,41.623,14.2z M23.968,12.547
			c-0.391-0.391-1.024-0.391-1.414,0c-0.391,0.39-0.391,1.023,0,1.414l2.535,2.535l-3.586,3.586l-2.535-2.536
			c-0.391-0.39-1.024-0.39-1.414,0c-0.391,0.391-0.391,1.024,0,1.415l2.535,2.535l-3.586,3.586l-2.535-2.535
			c-0.391-0.391-1.024-0.391-1.414,0c-0.391,0.39-0.391,1.023,0,1.414l2.535,2.535l-2.793,2.793
			c-0.181,0.181-0.293,0.431-0.293,0.707c0,0.553,0.448,1,1,1c0.276,0,0.526-0.111,0.707-0.293l2.793-2.793l2.535,2.536
			c0.391,0.39,1.024,0.39,1.415,0c0.39-0.391,0.39-1.024,0-1.415l-2.536-2.535l3.586-3.586l2.535,2.536
			c0.391,0.39,1.024,0.39,1.415,0c0.39-0.391,0.39-1.024,0-1.415l-2.536-2.535l3.586-3.586l2.535,2.536
			c0.391,0.39,1.024,0.39,1.415,0c0.39-0.391,0.39-1.024,0-1.415l-2.536-2.535l2.793-2.793c0.181-0.181,0.293-0.431,0.293-0.707
			c0-0.552-0.447-1-1-1c-0.276,0-0.526,0.112-0.707,0.293l-2.793,2.793L23.968,12.547z"/>
	</g>
</g>
<g>
</g>
<g>
</g>
<g>
</g>
<g>
</g>
<g>
</g>
<g>
</g>
<g>
</g>
<g>
</g>
<g>
</g>
<g>
</g>
<g>
</g>
<g>
</g>
<g>
</g>
<g>
</g>
<g>
</g>
</svg>
