<?xml version="1.0" encoding="UTF-8" standalone="no"?>
<svg width="58px" height="42px" viewBox="0 0 58 42" version="1.1" xmlns="http://www.w3.org/2000/svg" xmlns:xlink="http://www.w3.org/1999/xlink" xmlns:sketch="http://www.bohemiancoding.com/sketch/ns">
    <!-- Generator: Sketch 3.0.4 (8053) - http://www.bohemiancoding.com/sketch -->
    <title>1149-football-field</title>
    <desc>Created with Sketch.</desc>
    <defs></defs>
    <g id="Page-1" stroke="none" stroke-width="1" fill="none" fill-rule="evenodd" sketch:type="MSPage">
        <g id="Glyphish-8-Icons" sketch:type="MSArtboardGroup" transform="translate(-788.000000, -411.000000)" fill="#000000">
            <g id="1149-football-field" sketch:type="MSLayerGroup" transform="translate(788.036996, 411.860499)">
                <g id="_x31_149-football-field_x40_2x.png" sketch:type="MSShapeGroup">
                    <path d="M54,0 L2,0 C0.896,0 0,0.896 0,2 L0,38 C0,39.104 0.896,40 2,40 L54,40 C55.104,40 56,39.104 56,38 L56,2 C56,0.896 55.104,0 54,0 L54,0 Z M9,38 L2,38 L2,2 L9,2 L9,38 L9,38 Z M18,38 L11,38 L11,2 L18,2 L18,38 L18,38 Z M27,38 L20,38 L20,2 L27,2 L27,38 L27,38 Z M36,38 L29,38 L29,2 L36,2 L36,38 L36,38 Z M45,38 L38,38 L38,2 L45,2 L45,38 L45,38 Z M54,38 L47,38 L47,2 L54,2 L54,38 L54,38 Z M26,12 L24,12 L24,14 L26,14 L26,12 L26,12 Z M23,12 L21,12 L21,14 L23,14 L23,12 L23,12 Z M26,26 L24,26 L24,28 L26,28 L26,26 L26,26 Z M17,12 L15,12 L15,14 L17,14 L17,12 L17,12 Z M17,26 L15,26 L15,28 L17,28 L17,26 L17,26 Z M14,26 L12,26 L12,28 L14,28 L14,26 L14,26 Z M14,12 L12,12 L12,14 L14,14 L14,12 L14,12 Z M32,26 L30,26 L30,28 L32,28 L32,26 L32,26 Z M41,12 L39,12 L39,14 L41,14 L41,12 L41,12 Z M41,26 L39,26 L39,28 L41,28 L41,26 L41,26 Z M44,12 L42,12 L42,14 L44,14 L44,12 L44,12 Z M44,26 L42,26 L42,28 L44,28 L44,26 L44,26 Z M23,26 L21,26 L21,28 L23,28 L23,26 L23,26 Z M35,12 L33,12 L33,14 L35,14 L35,12 L35,12 Z M32,12 L30,12 L30,14 L32,14 L32,12 L32,12 Z M35,26 L33,26 L33,28 L35,28 L35,26 L35,26 Z" id="Shape"></path>
                </g>
            </g>
        </g>
    </g>
</svg>