<?xml version="1.0" encoding="iso-8859-1"?>
<!-- Generator: Adobe Illustrator 16.0.4, SVG Export Plug-In . SVG Version: 6.00 Build 0)  -->
<!DOCTYPE svg PUBLIC "-//W3C//DTD SVG 1.1//EN" "http://www.w3.org/Graphics/SVG/1.1/DTD/svg11.dtd">
<svg version="1.1" id="Layer_1" xmlns="http://www.w3.org/2000/svg" xmlns:xlink="http://www.w3.org/1999/xlink" x="0px" y="0px"
	 width="44px" height="32px" viewBox="0 0 44 32" style="enable-background:new 0 0 44 32;" xml:space="preserve">
<g id="_x31_149-football-field_x40_2x.png">
	<g>
		<path d="M42,0H2C0.896,0,0,0.896,0,2v28c0,1.104,0.896,2,2,2h40c1.104,0,2-0.896,2-2V2C44,0.896,43.104,0,42,0z M7,8H5v2h2v12H5v2
			h2v6H2V2h5V8z M14,8h-2v2h2v12h-2v2h2v6H9v-6h2v-2H9V10h2V8H9V2h5V8z M21,8h-2v2h2v12h-2v2h2v6h-5v-6h2v-2h-2V10h2V8h-2V2h5V8z
			 M28,8h-2v2h2v12h-2v2h2v6h-5v-6h2v-2h-2V10h2V8h-2V2h5V8z M35,8h-2v2h2v12h-2v2h2v6h-5v-6h2v-2h-2V10h2V8h-2V2h5V8z M42,30h-5v-6
			h2v-2h-2V10h2V8h-2V2h5V30z"/>
	</g>
</g>
<g>
</g>
<g>
</g>
<g>
</g>
<g>
</g>
<g>
</g>
<g>
</g>
<g>
</g>
<g>
</g>
<g>
</g>
<g>
</g>
<g>
</g>
<g>
</g>
<g>
</g>
<g>
</g>
<g>
</g>
</svg>
