<?xml version="1.0" encoding="iso-8859-1"?>
<!-- Generator: Adobe Illustrator 16.0.4, SVG Export Plug-In . SVG Version: 6.00 Build 0)  -->
<!DOCTYPE svg PUBLIC "-//W3C//DTD SVG 1.1//EN" "http://www.w3.org/Graphics/SVG/1.1/DTD/svg11.dtd">
<svg version="1.1" id="Layer_1" xmlns="http://www.w3.org/2000/svg" xmlns:xlink="http://www.w3.org/1999/xlink" x="0px" y="0px"
	 width="48px" height="56px" viewBox="0 0 48 56" style="enable-background:new 0 0 48 56;" xml:space="preserve">
<g id="_x31_079-fork-path_x40_2x.png">
	<g>
		<path d="M47,16H37c-0.553,0-1,0.448-1,1c0,0.553,0.447,1,1,1h7.586L25,37.586V3.414l6.293,6.293C31.474,9.889,31.724,10,32,10
			c0.553,0,1-0.447,1-1c0-0.276-0.112-0.526-0.293-0.707l-8-8C24.526,0.112,24.276,0,24,0s-0.526,0.112-0.707,0.293l-8,8
			C15.112,8.474,15,8.724,15,9c0,0.553,0.447,1,1,1c0.276,0,0.526-0.111,0.707-0.293L23,3.414v34.172L3.414,18H11
			c0.553,0,1-0.447,1-1c0-0.552-0.447-1-1-1H1c-0.553,0-1,0.448-1,1v10c0,0.553,0.447,1,1,1s1-0.447,1-1v-7.586l21,21V54h-8
			c-0.553,0-1,0.448-1,1c0,0.553,0.447,1,1,1c0,0,0,0,0.001,0h17.998C33,56,33,56,33,56c0.552,0,1-0.447,1-1c0-0.552-0.448-1-1-1h-8
			V40.414l21-21V27c0,0.553,0.447,1,1,1s1-0.447,1-1V17C48,16.448,47.553,16,47,16z"/>
	</g>
</g>
<g>
</g>
<g>
</g>
<g>
</g>
<g>
</g>
<g>
</g>
<g>
</g>
<g>
</g>
<g>
</g>
<g>
</g>
<g>
</g>
<g>
</g>
<g>
</g>
<g>
</g>
<g>
</g>
<g>
</g>
</svg>
