<?xml version="1.0" encoding="iso-8859-1"?>
<!-- Generator: Adobe Illustrator 16.0.4, SVG Export Plug-In . SVG Version: 6.00 Build 0)  -->
<!DOCTYPE svg PUBLIC "-//W3C//DTD SVG 1.1//EN" "http://www.w3.org/Graphics/SVG/1.1/DTD/svg11.dtd">
<svg version="1.1" id="Layer_1" xmlns="http://www.w3.org/2000/svg" xmlns:xlink="http://www.w3.org/1999/xlink" x="0px" y="0px"
	 width="40px" height="44px" viewBox="0 0 40 44" style="enable-background:new 0 0 40 44;" xml:space="preserve">
<g id="_x31_079-fork-path-toolbar_x40_2x.png">
	<g>
		<path d="M39,12h-8c-0.553,0-1,0.448-1,1c0,0.553,0.447,1,1,1h5.586L21,29.586V3.414l4.293,4.293C25.474,7.889,25.724,8,26,8
			c0.553,0,1-0.447,1-1c0-0.276-0.112-0.526-0.293-0.707l-6-6C20.526,0.112,20.276,0,20,0s-0.526,0.112-0.707,0.293l-6,6
			C13.112,6.474,13,6.724,13,7c0,0.553,0.447,1,1,1c0.276,0,0.526-0.111,0.707-0.293L19,3.414v26.172L3.414,14H9
			c0.553,0,1-0.447,1-1c0-0.552-0.447-1-1-1H1c-0.553,0-1,0.448-1,1v8c0,0.553,0.447,1,1,1s1-0.447,1-1v-5.586l17,17V42h-4
			c-0.553,0-1,0.447-1,1s0.447,1,1,1c0,0,0,0,0.001,0h9.998C25,44,25,44,25,44c0.552,0,1-0.447,1-1s-0.448-1-1-1h-4v-9.586l17-17V21
			c0,0.553,0.447,1,1,1s1-0.447,1-1v-8C40,12.448,39.553,12,39,12z"/>
	</g>
</g>
<g>
</g>
<g>
</g>
<g>
</g>
<g>
</g>
<g>
</g>
<g>
</g>
<g>
</g>
<g>
</g>
<g>
</g>
<g>
</g>
<g>
</g>
<g>
</g>
<g>
</g>
<g>
</g>
<g>
</g>
</svg>
