<?xml version="1.0" encoding="UTF-8" standalone="no"?>
<svg width="58px" height="58px" viewBox="0 0 58 58" version="1.1" xmlns="http://www.w3.org/2000/svg" xmlns:xlink="http://www.w3.org/1999/xlink" xmlns:sketch="http://www.bohemiancoding.com/sketch/ns">
    <!-- Generator: Sketch 3.0.4 (8053) - http://www.bohemiancoding.com/sketch -->
    <title>1292-forrst</title>
    <desc>Created with Sketch.</desc>
    <defs></defs>
    <g id="Page-1" stroke="none" stroke-width="1" fill="none" fill-rule="evenodd" sketch:type="MSPage">
        <g id="Glyphish-8-Icons" sketch:type="MSArtboardGroup" transform="translate(-116.000000, -1843.000000)" fill="#000000">
            <g id="1292-forrst" sketch:type="MSLayerGroup" transform="translate(116.036996, 1843.860499)">
                <g id="_x31_292-forrst_x40_2x.png" sketch:type="MSShapeGroup">
                    <path d="M14,40 L26.727,40 L26.727,36.183 L22.909,32.364 C22.909,31.093 24.181,31.093 24.181,31.093 L26.726,33.638 L26.726,26 L29.272,26 L29.272,32.363 L31.817,29.818 C31.817,29.818 33.089,29.818 33.089,31.091 L29.271,34.908 L34.362,32.362 C34.362,32.362 35.634,32.362 35.634,33.635 L29.271,37.135 L29.271,40 L42,40 L28,12 L14,40 L14,40 Z M28,0 C12.536,0 0,12.536 0,28 C0,43.464 12.536,56 28,56 C43.464,56 56,43.464 56,28 C56,12.536 43.464,0 28,0 L28,0 Z M28,54 C13.641,54 2,42.359 2,28 C2,13.641 13.641,2 28,2 C42.359,2 54,13.641 54,28 C54,42.359 42.359,54 28,54 L28,54 Z" id="Shape"></path>
                </g>
            </g>
        </g>
    </g>
</svg>