<?xml version="1.0" encoding="UTF-8" standalone="no"?>
<svg width="58px" height="58px" viewBox="0 0 58 58" version="1.1" xmlns="http://www.w3.org/2000/svg" xmlns:xlink="http://www.w3.org/1999/xlink" xmlns:sketch="http://www.bohemiancoding.com/sketch/ns">
    <!-- Generator: Sketch 3.0.4 (8053) - http://www.bohemiancoding.com/sketch -->
    <title>1263-foursquare</title>
    <desc>Created with Sketch.</desc>
    <defs></defs>
    <g id="Page-1" stroke="none" stroke-width="1" fill="none" fill-rule="evenodd" sketch:type="MSPage">
        <g id="Glyphish-8-Icons" sketch:type="MSArtboardGroup" transform="translate(-212.000000, -1555.000000)" fill="#000000">
            <g id="1263-foursquare" sketch:type="MSLayerGroup" transform="translate(212.036996, 1555.860499)">
                <g id="_x31_263-foursquare_x40_2x.png" sketch:type="MSShapeGroup">
                    <path d="M21.182,23.412 C20.938,23.165 20.602,23.023 20.255,23.025 C19.91,23.025 19.572,23.164 19.327,23.41 L16.208,26.54 C15.694,27.055 15.693,27.888 16.207,28.402 L26.764,39.031 C26.975,39.244 27.249,39.376 27.542,39.408 C27.591,39.415 27.642,39.418 27.692,39.417 L27.701,39.417 L27.702,39.418 C28.055,39.419 28.389,39.279 28.639,39.03 L47.576,19.996 C48.089,19.482 48.089,18.649 47.577,18.134 L44.463,15 C44.213,14.751 43.886,14.612 43.535,14.614 C43.184,14.612 42.855,14.751 42.606,14.999 L27.705,29.978 L21.182,23.412 L21.182,23.412 Z M28,0 C12.536,0 0,12.536 0,28 C0,43.464 12.536,56 28,56 C43.464,56 56,43.464 56,28 C56,12.536 43.464,0 28,0 L28,0 Z M28,54 C13.641,54 2,42.359 2,28 C2,13.641 13.641,2 28,2 C42.359,2 54,13.641 54,28 C54,42.359 42.359,54 28,54 L28,54 Z M46.406,24.581 L30.366,40.703 C29.673,41.392 28.757,41.771 27.781,41.771 L27.069,41.77 L26.92,41.67 C26.266,41.514 25.662,41.175 25.184,40.693 L14.631,30.068 C13.94,29.375 13.558,28.453 13.559,27.472 C13.559,26.49 13.94,25.567 14.632,24.874 L17.755,21.739 C18.433,21.061 19.372,20.672 20.338,20.67 C21.301,20.67 22.243,21.065 22.92,21.748 L27.786,26.645 L38.122,16.255 L31.237,9.34 C29.415,7.51 26.433,7.51 24.611,9.34 L9.369,24.654 C7.547,26.484 7.547,29.481 9.369,31.311 L24.612,46.624 C26.434,48.455 29.416,48.455 31.238,46.624 L46.48,31.311 C48.302,29.481 48.302,26.485 46.48,24.654 L46.406,24.581 L46.406,24.581 Z" id="Shape"></path>
                </g>
            </g>
        </g>
    </g>
</svg>