<?xml version="1.0" encoding="iso-8859-1"?>
<!-- Generator: Adobe Illustrator 16.0.4, SVG Export Plug-In . SVG Version: 6.00 Build 0)  -->
<!DOCTYPE svg PUBLIC "-//W3C//DTD SVG 1.1//EN" "http://www.w3.org/Graphics/SVG/1.1/DTD/svg11.dtd">
<svg version="1.1" id="Layer_1" xmlns="http://www.w3.org/2000/svg" xmlns:xlink="http://www.w3.org/1999/xlink" x="0px" y="0px"
	 width="56px" height="40px" viewBox="0 0 56 40" style="enable-background:new 0 0 56 40;" xml:space="preserve">
<g id="_x31_066-fried-egg_x40_2x.png">
	<g>
		<path d="M19,10c-4.418,0-8,3.582-8,8s3.582,8,8,8s8-3.582,8-8S23.418,10,19,10z M19.006,0c-0.412,0-0.812,0.011-1.199,0.032
			c-7.396,0.41-12.304,3.545-15.06,8.454c-2.124,3.781-2.971,8.614-2.697,14.069c0.245,4.896,1.306,12.852,5.666,15.905
			C7.273,39.552,8.808,40,10.298,40c2.979,0,5.782-1.789,8.247-3.814c2.813-2.313,6.192-3.529,9.642-3.529
			c1.554,0,3.124,0.247,4.661,0.752c3.885,1.276,7.986,3.84,12.232,3.84c1.162,0,2.336-0.192,3.519-0.656
			C54.071,34.447,56,28.958,56,23.503C56,10.021,31.654,0,19.006,0z M47.869,34.729c-0.89,0.349-1.802,0.519-2.789,0.519
			c-2.511,0-5.171-1.131-7.744-2.224c-1.263-0.536-2.568-1.091-3.864-1.517c-1.721-0.564-3.499-0.852-5.285-0.852
			c-3.969,0-7.741,1.378-10.911,3.984C15.521,36.083,12.89,38,10.298,38c-1.18,0-2.304-0.386-3.435-1.178
			c-2.737-1.916-4.447-7.019-4.815-14.367C1.784,17.193,2.605,12.822,4.49,9.466c2.574-4.583,7.091-7.085,13.429-7.437
			C18.265,2.01,18.631,2,19.006,2c6.268,0,15.222,2.593,22.281,6.451C52.349,14.496,54,20.477,54,23.503
			C54,26.799,53.203,32.64,47.869,34.729z"/>
	</g>
</g>
<g>
</g>
<g>
</g>
<g>
</g>
<g>
</g>
<g>
</g>
<g>
</g>
<g>
</g>
<g>
</g>
<g>
</g>
<g>
</g>
<g>
</g>
<g>
</g>
<g>
</g>
<g>
</g>
<g>
</g>
</svg>
