<?xml version="1.0" encoding="iso-8859-1"?>
<!-- Generator: Adobe Illustrator 16.0.4, SVG Export Plug-In . SVG Version: 6.00 Build 0)  -->
<!DOCTYPE svg PUBLIC "-//W3C//DTD SVG 1.1//EN" "http://www.w3.org/Graphics/SVG/1.1/DTD/svg11.dtd">
<svg version="1.1" id="Layer_1" xmlns="http://www.w3.org/2000/svg" xmlns:xlink="http://www.w3.org/1999/xlink" x="0px" y="0px"
	 width="44px" height="32px" viewBox="0 0 44 32" style="enable-background:new 0 0 44 32;" xml:space="preserve">
<g id="_x31_066-fried-egg-toolbar_x40_2x.png">
	<g>
		<path d="M14,8c-3.313,0-6,2.687-6,6s2.687,6,6,6s6-2.687,6-6S17.313,8,14,8z M14.933,0c-0.323,0-0.638,0.009-0.941,0.025
			C8.181,0.354,4.324,2.861,2.158,6.789C0.49,9.814-0.176,13.681,0.039,18.045c0.193,3.917,1.026,10.281,4.452,12.724
			C5.715,31.642,6.92,32,8.092,32c2.34,0,4.543-1.557,6.479-3.177C16.781,26.973,19.437,26,22.146,26
			c1.221,0,2.454,0.197,3.662,0.602c3.053,1.021,6.275,3.322,9.611,3.322c0.913,0,1.836-0.154,2.765-0.525
			C42.484,27.683,44,23.166,44,18.803C44,8.017,24.871,0,14.933,0z M37.442,27.541c-0.645,0.258-1.306,0.383-2.022,0.383
			c-1.766,0-3.636-0.874-5.616-1.8c-1.092-0.51-2.222-1.038-3.36-1.419C25.046,24.237,23.6,24,22.146,24
			c-3.226,0-6.289,1.138-8.858,3.289C11.686,28.63,9.815,30,8.092,30c-0.83,0-1.629-0.281-2.439-0.86
			c-2.018-1.438-3.335-5.518-3.616-11.193C1.833,13.808,2.463,10.379,3.91,7.755c1.947-3.532,5.377-5.461,10.19-5.732
			C14.369,2.008,14.647,2,14.933,2C24.079,2,42,9.607,42,18.803C42,21.387,41.408,25.959,37.442,27.541z"/>
	</g>
</g>
<g>
</g>
<g>
</g>
<g>
</g>
<g>
</g>
<g>
</g>
<g>
</g>
<g>
</g>
<g>
</g>
<g>
</g>
<g>
</g>
<g>
</g>
<g>
</g>
<g>
</g>
<g>
</g>
<g>
</g>
</svg>
