<?xml version="1.0" encoding="iso-8859-1"?>
<!-- Generator: Adobe Illustrator 16.0.4, SVG Export Plug-In . SVG Version: 6.00 Build 0)  -->
<!DOCTYPE svg PUBLIC "-//W3C//DTD SVG 1.1//EN" "http://www.w3.org/Graphics/SVG/1.1/DTD/svg11.dtd">
<svg version="1.1" id="Layer_1" xmlns="http://www.w3.org/2000/svg" xmlns:xlink="http://www.w3.org/1999/xlink" x="0px" y="0px"
	 width="44px" height="44px" viewBox="0 0 44 44" style="enable-background:new 0 0 44 44;" xml:space="preserve">
<g id="_x39_64-game-plan-toolbar_x40_2x.png">
	<g>
		<path d="M6,9c0-0.552-0.447-1-1-1C4.724,8,4.474,8.112,4.293,8.293L3,9.586L1.707,8.293C1.526,8.112,1.276,8,1,8
			C0.447,8,0,8.448,0,9c0,0.276,0.112,0.526,0.293,0.707L1.586,11l-1.293,1.293C0.112,12.474,0,12.724,0,13c0,0.553,0.447,1,1,1
			c0.276,0,0.526-0.111,0.707-0.293L3,12.414l1.293,1.293C4.474,13.889,4.724,14,5,14c0.553,0,1-0.447,1-1
			c0-0.276-0.112-0.526-0.293-0.707L4.414,11l1.293-1.293C5.888,9.526,6,9.276,6,9z M32.293,21.707L33.586,23l-1.293,1.293
			C32.112,24.474,32,24.724,32,25c0,0.553,0.448,1,1,1c0.276,0,0.526-0.112,0.707-0.293L35,24.414l1.293,1.293
			C36.474,25.888,36.724,26,37,26c0.553,0,1-0.447,1-1c0-0.276-0.112-0.526-0.293-0.707L36.414,23l1.293-1.293
			C37.888,21.526,38,21.276,38,21c0-0.552-0.447-1-1-1c-0.276,0-0.526,0.112-0.707,0.293L35,21.586l-1.293-1.293
			C33.526,20.112,33.276,20,33,20c-0.552,0-1,0.448-1,1C32,21.276,32.112,21.526,32.293,21.707z M16,13
			c0-0.276-0.112-0.526-0.293-0.707L14.414,11l1.293-1.293C15.888,9.526,16,9.276,16,9c0-0.552-0.447-1-1-1
			c-0.276,0-0.526,0.112-0.707,0.293L13,9.586l-1.293-1.293C11.526,8.112,11.276,8,11,8c-0.553,0-1,0.448-1,1
			c0,0.276,0.112,0.526,0.293,0.707L11.586,11l-1.293,1.293C10.112,12.474,10,12.724,10,13c0,0.553,0.447,1,1,1
			c0.276,0,0.526-0.111,0.707-0.293L13,12.414l1.293,1.293C14.474,13.889,14.724,14,15,14C15.553,14,16,13.553,16,13z M37,34
			c-2.762,0-5,2.238-5,5s2.238,5,5,5s5-2.238,5-5S39.762,34,37,34z M37,42c-1.657,0-3-1.343-3-3c0-1.656,1.343-3,3-3s3,1.344,3,3
			C40,40.657,38.657,42,37,42z M32,1c0-0.552-0.447-1-1-1h-6c-0.553,0-1,0.448-1,1c0,0.553,0.447,1,1,1h3.611L15.168,21.445
			l0.016,0.01C15.077,21.614,15,21.795,15,22c0,0.276,0.112,0.526,0.293,0.707l14,12C29.474,34.888,29.724,35,30,35
			c0.553,0,1-0.447,1-1c0-0.276-0.112-0.526-0.293-0.707L17.333,21.83L30,3.508V7c0,0.553,0.447,1,1,1s1-0.447,1-1V1z M42.414,11
			l1.293-1.293C43.888,9.526,44,9.276,44,9c0-0.552-0.447-1-1-1c-0.276,0-0.526,0.112-0.707,0.293L41,9.586l-1.293-1.293
			C39.526,8.112,39.276,8,39,8c-0.553,0-1,0.448-1,1c0,0.276,0.112,0.526,0.293,0.707L39.586,11l-1.293,1.293
			C38.112,12.474,38,12.724,38,13c0,0.553,0.447,1,1,1c0.276,0,0.526-0.111,0.707-0.293L41,12.414l1.293,1.293
			C42.474,13.889,42.724,14,43,14c0.553,0,1-0.447,1-1c0-0.276-0.112-0.526-0.293-0.707L42.414,11z"/>
	</g>
</g>
<g>
</g>
<g>
</g>
<g>
</g>
<g>
</g>
<g>
</g>
<g>
</g>
<g>
</g>
<g>
</g>
<g>
</g>
<g>
</g>
<g>
</g>
<g>
</g>
<g>
</g>
<g>
</g>
<g>
</g>
</svg>
