<?xml version="1.0" encoding="iso-8859-1"?>
<!-- Generator: Adobe Illustrator 16.0.4, SVG Export Plug-In . SVG Version: 6.00 Build 0)  -->
<!DOCTYPE svg PUBLIC "-//W3C//DTD SVG 1.1//EN" "http://www.w3.org/Graphics/SVG/1.1/DTD/svg11.dtd">
<svg version="1.1" id="Layer_1" xmlns="http://www.w3.org/2000/svg" xmlns:xlink="http://www.w3.org/1999/xlink" x="0px" y="0px"
	 width="56px" height="56px" viewBox="0 0 56 56" style="enable-background:new 0 0 56 56;" xml:space="preserve">
<g id="_x39_64-game-plan_x40_2x.png">
	<g>
		<path d="M37.707,24.293C37.526,24.112,37.276,24,37,24c-0.553,0-1,0.447-1,1c0,0.276,0.112,0.526,0.293,0.707L38.586,28
			l-2.293,2.293C36.112,30.474,36,30.724,36,31c0,0.553,0.447,1,1,1c0.276,0,0.526-0.112,0.707-0.293L40,29.414l2.293,2.293
			C42.474,31.888,42.724,32,43,32c0.553,0,1-0.447,1-1c0-0.276-0.112-0.526-0.293-0.707L41.414,28l2.293-2.293
			C43.888,25.526,44,25.276,44,25c0-0.553-0.447-1-1-1c-0.276,0-0.526,0.112-0.707,0.293L40,26.586L37.707,24.293z M22.293,15.707
			C22.474,15.889,22.724,16,23,16c0.553,0,1-0.447,1-1c0-0.276-0.112-0.526-0.293-0.707L21.414,12l2.293-2.293
			C23.888,9.526,24,9.276,24,9c0-0.552-0.447-1-1-1c-0.276,0-0.526,0.112-0.707,0.293L20,10.586l-2.293-2.293
			C17.526,8.112,17.276,8,17,8c-0.553,0-1,0.448-1,1c0,0.276,0.112,0.526,0.293,0.707L18.586,12l-2.293,2.293
			C16.112,14.474,16,14.724,16,15c0,0.553,0.447,1,1,1c0.276,0,0.526-0.111,0.707-0.293L20,13.414L22.293,15.707z M8,9
			c0-0.552-0.447-1-1-1C6.724,8,6.474,8.112,6.293,8.293L4,10.586L1.707,8.293C1.526,8.112,1.276,8,1,8C0.447,8,0,8.448,0,9
			c0,0.276,0.112,0.526,0.293,0.707L2.586,12l-2.293,2.293C0.112,14.474,0,14.724,0,15c0,0.553,0.447,1,1,1
			c0.276,0,0.526-0.111,0.707-0.293L4,13.414l2.293,2.293C6.474,15.889,6.724,16,7,16c0.553,0,1-0.447,1-1
			c0-0.276-0.112-0.526-0.293-0.707L5.414,12l2.293-2.293C7.888,9.526,8,9.276,8,9z M53.414,12l2.293-2.293
			C55.888,9.526,56,9.276,56,9c0-0.552-0.447-1-1-1c-0.276,0-0.526,0.112-0.707,0.293L52,10.586l-2.293-2.293
			C49.526,8.112,49.276,8,49,8c-0.553,0-1,0.448-1,1c0,0.276,0.112,0.526,0.293,0.707L50.586,12l-2.293,2.293
			C48.112,14.474,48,14.724,48,15c0,0.553,0.447,1,1,1c0.276,0,0.526-0.111,0.707-0.293L52,13.414l2.293,2.293
			C54.474,15.889,54.724,16,55,16c0.553,0,1-0.447,1-1c0-0.276-0.112-0.526-0.293-0.707L53.414,12z M42,40c-4.418,0-8,3.582-8,8
			s3.582,8,8,8s8-3.582,8-8S46.418,40,42,40z M42,54c-3.313,0-6-2.687-6-6s2.687-6,6-6s6,2.687,6,6S45.313,54,42,54z M21.284,31.87
			L40,3.563V9c0,0.553,0.447,1,1,1s1-0.447,1-1V1c0-0.553-0.447-1-1-1h-8c-0.553,0-1,0.447-1,1s0.447,1,1,1h5.636L19.168,31.445
			l0.016,0.01C19.077,31.614,19,31.795,19,32c0,0.276,0.112,0.526,0.293,0.707l10,10C29.474,42.888,29.724,43,30,43
			c0.553,0,1-0.447,1-1c0-0.276-0.112-0.526-0.293-0.707L21.284,31.87z"/>
	</g>
</g>
<g>
</g>
<g>
</g>
<g>
</g>
<g>
</g>
<g>
</g>
<g>
</g>
<g>
</g>
<g>
</g>
<g>
</g>
<g>
</g>
<g>
</g>
<g>
</g>
<g>
</g>
<g>
</g>
<g>
</g>
</svg>
