<?xml version="1.0" encoding="iso-8859-1"?>
<!-- Generator: Adobe Illustrator 16.0.4, SVG Export Plug-In . SVG Version: 6.00 Build 0)  -->
<!DOCTYPE svg PUBLIC "-//W3C//DTD SVG 1.1//EN" "http://www.w3.org/Graphics/SVG/1.1/DTD/svg11.dtd">
<svg version="1.1" id="Layer_1" xmlns="http://www.w3.org/2000/svg" xmlns:xlink="http://www.w3.org/1999/xlink" x="0px" y="0px"
	 width="56px" height="44px" viewBox="0 0 56 44" style="enable-background:new 0 0 56 44;" xml:space="preserve">
<g id="_x31_003-game-controller_x40_2x.png">
	<g>
		<path d="M45,24c-1.657,0-3,1.344-3,3c0,1.657,1.343,3,3,3s3-1.343,3-3C48,25.344,46.657,24,45,24z M45,28c-0.553,0-1-0.447-1-1
			s0.447-1,1-1s1,0.447,1,1S45.553,28,45,28z M20,27h-3v-3c0-1.104-0.896-2-2-2h-2c-1.104,0-2,0.896-2,2v3H8c-1.104,0-2,0.896-2,2v2
			c0,1.104,0.896,2,2,2h3v3c0,1.104,0.896,2,2,2h2c1.104,0,2-0.896,2-2v-3h3c1.104,0,2-0.896,2-2v-2C22,27.896,21.104,27,20,27z
			 M20,31h-5v5h-2v-5H8v-2h5v-5h2v5h5V31z M39,30c-1.657,0-3,1.343-3,3s1.343,3,3,3s3-1.343,3-3S40.657,30,39,30z M39,34
			c-0.553,0-1-0.447-1-1s0.447-1,1-1s1,0.447,1,1S39.553,34,39,34z M42,16H29c0-14,8-14,8-14c0.553,0,1-0.447,1-1s-0.447-1-1-1
			c0,0-10,0-10,16H14C6.268,16,0,22.268,0,30s6.268,14,14,14c4.755,0,8.95-2.376,11.48-6h5.039c2.53,3.624,6.726,6,11.48,6
			c7.732,0,14-6.268,14-14S49.732,16,42,16z M42,42c-4.439,0-8.306-2.416-10.382-6h-7.236c-2.076,3.584-5.942,6-10.382,6
			C7.373,42,2,36.627,2,30s5.373-12,12-12h28c6.627,0,12,5.373,12,12S48.627,42,42,42z"/>
	</g>
</g>
<g>
</g>
<g>
</g>
<g>
</g>
<g>
</g>
<g>
</g>
<g>
</g>
<g>
</g>
<g>
</g>
<g>
</g>
<g>
</g>
<g>
</g>
<g>
</g>
<g>
</g>
<g>
</g>
<g>
</g>
</svg>
