<?xml version="1.0" encoding="iso-8859-1"?>
<!-- Generator: Adobe Illustrator 16.0.4, SVG Export Plug-In . SVG Version: 6.00 Build 0)  -->
<!DOCTYPE svg PUBLIC "-//W3C//DTD SVG 1.1//EN" "http://www.w3.org/Graphics/SVG/1.1/DTD/svg11.dtd">
<svg version="1.1" id="Layer_1" xmlns="http://www.w3.org/2000/svg" xmlns:xlink="http://www.w3.org/1999/xlink" x="0px" y="0px"
	 width="44px" height="36px" viewBox="0 0 44 36" style="enable-background:new 0 0 44 36;" xml:space="preserve">
<g id="_x31_003-game-controller-toolbar_x40_2x.png">
	<g>
		<path d="M31,25c-1.104,0-2,0.896-2,2s0.896,2,2,2s2-0.896,2-2S32.104,25,31,25z M12,20h-2v4H6v2h4v4h2v-4h4v-2h-4V20z M35,21
			c-1.104,0-2,0.896-2,2s0.896,2,2,2s2-0.896,2-2S36.104,21,35,21z M33,14h-9.937C23.79,2.01,31,2,31,2c0.553,0,1-0.447,1-1
			s-0.447-1-1-1c0,0-9.137,0.011-9.938,14H11C4.925,14,0,18.925,0,25s4.925,11,11,11c3.414,0,6.464-1.555,8.481-3.995h5.037
			C26.536,34.445,29.587,36,33,36c6.075,0,11-4.925,11-11S39.075,14,33,14z M33,33.991c-3.117,0-5.862-1.587-7.475-3.995h-7.051
			c-1.612,2.408-4.357,3.995-7.475,3.995c-4.966,0-8.991-4.025-8.991-8.991S6.034,16.009,11,16.009c0.002,0,0.005,0,0.007,0h21.986
			c0.002,0,0.005,0,0.007,0c4.966,0,8.991,4.025,8.991,8.991S37.966,33.991,33,33.991z"/>
	</g>
</g>
<g>
</g>
<g>
</g>
<g>
</g>
<g>
</g>
<g>
</g>
<g>
</g>
<g>
</g>
<g>
</g>
<g>
</g>
<g>
</g>
<g>
</g>
<g>
</g>
<g>
</g>
<g>
</g>
<g>
</g>
</svg>
