<?xml version="1.0" encoding="iso-8859-1"?>
<!-- Generator: Adobe Illustrator 16.0.4, SVG Export Plug-In . SVG Version: 6.00 Build 0)  -->
<!DOCTYPE svg PUBLIC "-//W3C//DTD SVG 1.1//EN" "http://www.w3.org/Graphics/SVG/1.1/DTD/svg11.dtd">
<svg version="1.1" id="Layer_1" xmlns="http://www.w3.org/2000/svg" xmlns:xlink="http://www.w3.org/1999/xlink" x="0px" y="0px"
	 width="44.005px" height="36px" viewBox="0 0 44.005 36" style="enable-background:new 0 0 44.005 36;" xml:space="preserve">
<g id="_x39_31-gas-pump-toolbar_x40_2x.png">
	<g>
		<path d="M42.613,24.537c-2.43-5.343-1.691-7.329-0.756-9.844c0.285-0.768,0.581-1.562,0.814-2.499
			c0.854-3.411-0.825-6.431-4.687-8.724c-0.04-1.985-3.697-2.979-3.697-2.979c-2.763-0.655-4.145-0.655-4.835,0
			s-0.69,1.311,0.69,1.311c1.278,0,4.561,6.268,7.017,3.47c2.411,1.464,4.292,3.559,3.572,6.438c-0.207,0.829-0.483,1.57-0.75,2.287
			c-1.008,2.713-1.961,5.274,0.81,11.369c1.393,3.063,1.593,5.333,0.594,6.745c-1.535,2.173-5.555,1.85-5.684,1.841
			c-1.812,0-3.05-0.43-3.783-1.314c-1.668-2.012-0.833-6.472-0.022-10.784c0.296-1.583,0.604-3.22,0.798-4.777
			c0.605-4.832-1.827-6.662-3.33-7.397C27.626,8.828,25.587,8.815,24,9.287V2c0-1.104-0.896-2-2-2H4C2.896,0,2,0.896,2,2v32H1
			c-0.552,0-1,0.447-1,1s0.448,1,1,1h3h18h3c0.553,0,1-0.447,1-1s-0.447-1-1-1h-1V11.404c1.049-0.499,2.918-0.696,4.485,0.07
			c1.794,0.877,2.563,2.647,2.225,5.354c-0.188,1.496-0.488,3.104-0.78,4.656c-0.935,4.986-1.819,9.697,0.45,12.432
			c1.118,1.348,2.901,2.035,5.211,2.035c0.007,0,0.014,0,0.021,0c0.048,0,0.335,0.026,0.774,0.026c1.53,0,4.915-0.291,6.628-2.704
			C44.459,31.239,44.322,28.3,42.613,24.537z M22,10.365c-0.001,0.002-0.003,0.003-0.004,0.004L22,10.374V34H4V2h18V10.365z M20,4H6
			v14h14V4z M18,16H8V6h10V16z"/>
	</g>
</g>
<g>
</g>
<g>
</g>
<g>
</g>
<g>
</g>
<g>
</g>
<g>
</g>
<g>
</g>
<g>
</g>
<g>
</g>
<g>
</g>
<g>
</g>
<g>
</g>
<g>
</g>
<g>
</g>
<g>
</g>
</svg>
