<?xml version="1.0" encoding="iso-8859-1"?>
<!-- Generator: Adobe Illustrator 16.0.4, SVG Export Plug-In . SVG Version: 6.00 Build 0)  -->
<!DOCTYPE svg PUBLIC "-//W3C//DTD SVG 1.1//EN" "http://www.w3.org/Graphics/SVG/1.1/DTD/svg11.dtd">
<svg version="1.1" id="Layer_1" xmlns="http://www.w3.org/2000/svg" xmlns:xlink="http://www.w3.org/1999/xlink" x="0px" y="0px"
	 width="56.015px" height="48px" viewBox="0 0 56.015 48" style="enable-background:new 0 0 56.015 48;" xml:space="preserve">
<g id="_x39_31-gas-pump_x40_2x.png">
	<g>
		<path d="M28,4H8v16h20V4z M26,18H10V6h16V18z M54.799,34.945c-0.836-1.739-1.784-3.711-1.784-6.998
			c0-2.648,0.286-3.472,0.539-4.198c0.227-0.65,0.461-1.323,0.461-2.802c0-2.727-1.513-4.641-4.316-6.501
			c1.675-3.803-5.061-5.709-5.061-5.709c-3.99-0.983-5.985-0.983-6.983,0c-0.997,0.983-0.997,1.966,0.998,1.966
			c1.815,0,6.434,9.118,9.961,5.424c2.761,1.841,3.401,3.223,3.401,4.82c0,1.141-0.146,1.562-0.35,2.146
			c-0.29,0.832-0.65,1.868-0.65,4.854c0,3.743,1.098,6.028,1.981,7.864c0.569,1.186,1.019,2.121,1.019,3.136c0,3.384-1.576,7-6,7
			c-2.521,0-4.313-0.602-5.478-1.84c-2.278-2.423-1.988-7.146-1.708-11.712c0.092-1.486,0.186-2.772,0.186-4.198
			c0-2.484-0.79-4.378-2.348-5.628c-2.104-1.688-5.039-1.689-6.667-1.526V2c0-1.104-0.896-2-2-2H6C4.896,0,4,0.896,4,2v44H1
			c-0.552,0-1,0.448-1,1c0,0.553,0.448,1,1,1h5h24h5c0.553,0,1-0.447,1-1c0-0.552-0.447-1-1-1h-3V23.055
			c1.429-0.168,3.877-0.159,5.416,1.074c1.061,0.853,1.599,2.221,1.599,4.068c0,1.365-0.089,2.553-0.182,4.075
			c-0.307,4.992-0.624,10.152,2.247,13.206c1.563,1.661,3.831,2.469,6.935,2.469c5.905,0,8-4.848,8-9
			C56.015,37.477,55.424,36.247,54.799,34.945z M30,46H6V2h24V46z"/>
	</g>
</g>
<g>
</g>
<g>
</g>
<g>
</g>
<g>
</g>
<g>
</g>
<g>
</g>
<g>
</g>
<g>
</g>
<g>
</g>
<g>
</g>
<g>
</g>
<g>
</g>
<g>
</g>
<g>
</g>
<g>
</g>
</svg>
