<?xml version="1.0" encoding="iso-8859-1"?>
<!-- Generator: Adobe Illustrator 16.0.4, SVG Export Plug-In . SVG Version: 6.00 Build 0)  -->
<!DOCTYPE svg PUBLIC "-//W3C//DTD SVG 1.1//EN" "http://www.w3.org/Graphics/SVG/1.1/DTD/svg11.dtd">
<svg version="1.1" id="Layer_1" xmlns="http://www.w3.org/2000/svg" xmlns:xlink="http://www.w3.org/1999/xlink" x="0px" y="0px"
	 width="44px" height="44px" viewBox="0 0 44 44" style="enable-background:new 0 0 44 44;" xml:space="preserve">
<g id="_x37_95-gauge-toolbar_x40_2x.png">
	<g>
		<path d="M10,22c0-0.553-0.447-1-1-1H7c-0.553,0-1,0.447-1,1s0.447,1,1,1h2C9.553,23,10,22.553,10,22z M28,11.607
			c0.479,0.276,1.09,0.112,1.366-0.365l1-1.732C30.643,9.031,30.479,8.42,30,8.144c-0.479-0.275-1.09-0.112-1.366,0.366l-1,1.732
			C27.357,10.72,27.521,11.332,28,11.607z M10.241,27.634l-1.731,1C8.031,28.91,7.867,29.521,8.144,30s0.888,0.643,1.366,0.366
			l1.731-1c0.479-0.276,0.643-0.888,0.366-1.366S10.72,27.358,10.241,27.634z M22,10c0.553,0,1-0.447,1-1V7c0-0.552-0.447-1-1-1
			s-1,0.448-1,1v2C21,9.553,21.447,10,22,10z M22,0C9.85,0,0,9.85,0,22s9.85,22,22,22s22-9.85,22-22S34.15,0,22,0z M22,42
			c-3.958,0-7.638-1.165-10.743-3.148C14.434,37.052,18.086,36,22,36s7.566,1.052,10.743,2.852C29.638,40.835,25.958,42,22,42z
			 M34.523,37.582C30.875,35.331,26.602,34,22,34s-8.875,1.331-12.523,3.582C4.921,33.916,2,28.303,2,22C2,10.955,10.954,2,22,2
			s20,8.955,20,20C42,28.303,39.079,33.916,34.523,37.582z M35.49,28.635l-1.732-1c-0.478-0.276-1.09-0.113-1.365,0.365
			c-0.276,0.479-0.112,1.09,0.365,1.366l1.732,1c0.479,0.276,1.09,0.112,1.366-0.366S35.969,28.91,35.49,28.635z M37,21h-2
			c-0.553,0-1,0.447-1,1s0.447,1,1,1h2c0.553,0,1-0.447,1-1S37.553,21,37,21z M15.365,8.51C15.09,8.031,14.479,7.867,14,8.144
			s-0.643,0.888-0.366,1.366l1,1.732c0.276,0.478,0.888,0.642,1.366,0.366c0.479-0.276,0.642-0.889,0.365-1.366L15.365,8.51z
			 M11.241,14.635l-1.731-1C9.031,13.358,8.42,13.521,8.144,14s-0.112,1.09,0.366,1.366l1.731,1c0.479,0.276,1.09,0.112,1.366-0.366
			S11.72,14.91,11.241,14.635z M35.459,15.42c0.479-0.276,0.643-0.888,0.366-1.365c-0.276-0.479-0.888-0.643-1.366-0.366
			l-10.496,6.06C23.436,19.288,22.755,19,22,19c-1.657,0-3,1.344-3,3c0,1.657,1.343,3,3,3s3-1.343,3-3
			c0-0.175-0.022-0.345-0.052-0.512L35.459,15.42z M21.469,21.188c-0.104,0.06-0.187,0.142-0.259,0.229
			c0.12-0.163,0.278-0.287,0.474-0.353L21.469,21.188z"/>
	</g>
</g>
<g>
</g>
<g>
</g>
<g>
</g>
<g>
</g>
<g>
</g>
<g>
</g>
<g>
</g>
<g>
</g>
<g>
</g>
<g>
</g>
<g>
</g>
<g>
</g>
<g>
</g>
<g>
</g>
<g>
</g>
</svg>
