<?xml version="1.0" encoding="iso-8859-1"?>
<!-- Generator: Adobe Illustrator 16.0.4, SVG Export Plug-In . SVG Version: 6.00 Build 0)  -->
<!DOCTYPE svg PUBLIC "-//W3C//DTD SVG 1.1//EN" "http://www.w3.org/Graphics/SVG/1.1/DTD/svg11.dtd">
<svg version="1.1" id="Layer_1" xmlns="http://www.w3.org/2000/svg" xmlns:xlink="http://www.w3.org/1999/xlink" x="0px" y="0px"
	 width="56px" height="56px" viewBox="0 0 56 56" style="enable-background:new 0 0 56 56;" xml:space="preserve">
<g id="_x37_95-gauge_x40_2x.png">
	<g>
		<path d="M13.777,18.635l-3.464-2.001C9.835,16.358,9.224,16.522,8.947,17c-0.276,0.479-0.112,1.09,0.366,1.366l3.464,2
			c0.479,0.276,1.09,0.112,1.366-0.366S14.256,18.91,13.777,18.635z M12,28c0-0.553-0.447-1-1-1H7c-0.553,0-1,0.447-1,1s0.447,1,1,1
			h4C11.553,29,12,28.553,12,28z M12.777,35.634l-3.464,2C8.835,37.91,8.671,38.521,8.947,39s0.888,0.643,1.366,0.366l3.464-2
			c0.479-0.276,0.643-0.888,0.366-1.366S13.256,35.358,12.777,35.634z M43.223,20.366l3.464-2c0.479-0.276,0.643-0.888,0.366-1.366
			c-0.276-0.478-0.888-0.642-1.366-0.366l-3.464,2.001C41.744,18.91,41.58,19.521,41.856,20S42.744,20.643,43.223,20.366z M28,12
			c0.553,0,1-0.447,1-1V7c0-0.552-0.447-1-1-1s-1,0.448-1,1v4C27,11.553,27.447,12,28,12z M46.687,37.634l-3.464-2
			c-0.479-0.275-1.09-0.112-1.366,0.366s-0.112,1.09,0.366,1.366l3.464,2c0.479,0.276,1.09,0.112,1.366-0.366
			S47.165,37.91,46.687,37.634z M49,27h-4c-0.553,0-1,0.447-1,1s0.447,1,1,1h4c0.553,0,1-0.447,1-1S49.553,27,49,27z M18.366,9.313
			C18.09,8.835,17.479,8.672,17,8.947c-0.479,0.276-0.643,0.888-0.366,1.366l2,3.465c0.276,0.478,0.888,0.642,1.366,0.365
			s0.643-0.888,0.366-1.365L18.366,9.313z M28,0C12.536,0,0,12.536,0,28s12.536,28,28,28s28-12.536,28-28S43.464,0,28,0z M28,54
			c-5.913,0-11.347-1.996-15.715-5.321C16.279,44.579,21.824,42,28,42s11.721,2.579,15.715,6.679C39.347,52.004,33.913,54,28,54z
			 M45.275,47.394C40.909,42.852,34.798,40,28,40s-12.909,2.852-17.275,7.394C5.383,42.632,2,35.719,2,28C2,13.641,13.641,2,28,2
			s26,11.641,26,26C54,35.719,50.617,42.632,45.275,47.394z M39,8.947c-0.479-0.275-1.09-0.112-1.366,0.366l-2,3.465
			c-0.276,0.478-0.112,1.089,0.366,1.365s1.09,0.112,1.366-0.365l2-3.465C39.643,9.835,39.479,9.224,39,8.947z M37.313,17.272
			l-7.294,7.294C29.425,24.215,28.74,24,28,24c-2.209,0-4,1.791-4,4s1.791,4,4,4s4-1.791,4-4c0-0.74-0.215-1.425-0.565-2.02
			l7.293-7.294c0.391-0.391,0.391-1.024,0-1.414C38.338,16.882,37.704,16.882,37.313,17.272z M28,30c-1.104,0-2-0.896-2-2
			s0.896-2,2-2s2,0.896,2,2S29.104,30,28,30z"/>
	</g>
</g>
<g>
</g>
<g>
</g>
<g>
</g>
<g>
</g>
<g>
</g>
<g>
</g>
<g>
</g>
<g>
</g>
<g>
</g>
<g>
</g>
<g>
</g>
<g>
</g>
<g>
</g>
<g>
</g>
<g>
</g>
</svg>
