<?xml version="1.0" encoding="iso-8859-1"?>
<!-- Generator: Adobe Illustrator 16.0.4, SVG Export Plug-In . SVG Version: 6.00 Build 0)  -->
<!DOCTYPE svg PUBLIC "-//W3C//DTD SVG 1.1//EN" "http://www.w3.org/Graphics/SVG/1.1/DTD/svg11.dtd">
<svg version="1.1" id="Layer_1" xmlns="http://www.w3.org/2000/svg" xmlns:xlink="http://www.w3.org/1999/xlink" x="0px" y="0px"
	 width="56px" height="56px" viewBox="0 0 56 56" style="enable-background:new 0 0 56 56;" xml:space="preserve">
<g id="_x39_96-gavel_x40_2x.png">
	<g>
		<path d="M55.442,24.114l0.005-0.009l-3.854-1.927L33.822,4.408l-1.928-3.855l-0.009,0.005C31.721,0.23,31.391,0,31,0
			c-0.276,0-0.526,0.112-0.707,0.293l-18,18C12.112,18.474,12,18.724,12,19c0,0.391,0.23,0.721,0.558,0.886l-0.005,0.009
			l3.855,1.928l5.35,5.35L1.465,47.465C0.56,48.369,0,49.619,0,51c0,2.762,2.238,5,5,5c1.381,0,2.631-0.56,3.535-1.465
			l20.293-20.293l5.35,5.351l1.928,3.854l0.009-0.005C36.279,43.77,36.609,44,37,44c0.276,0,0.526-0.111,0.707-0.293l18-18
			C55.888,25.526,56,25.276,56,25C56,24.609,55.77,24.279,55.442,24.114z M14.688,18.727L30.727,2.688l1.057,2.114l-14.98,14.98
			L14.688,18.727z M7.121,53.121C6.578,53.664,5.828,54,5,54c-1.657,0-3-1.343-3-3c0-0.828,0.336-1.578,0.879-2.121l20.293-20.293
			l4.242,4.242L7.121,53.121z M35,37.586L18.414,21L33,6.414L49.586,23L35,37.586z M37.274,41.312l-1.058-2.114l14.98-14.98
			l2.114,1.058L37.274,41.312z"/>
	</g>
</g>
<g>
</g>
<g>
</g>
<g>
</g>
<g>
</g>
<g>
</g>
<g>
</g>
<g>
</g>
<g>
</g>
<g>
</g>
<g>
</g>
<g>
</g>
<g>
</g>
<g>
</g>
<g>
</g>
<g>
</g>
</svg>
