<?xml version="1.0" encoding="iso-8859-1"?>
<!-- Generator: Adobe Illustrator 16.0.4, SVG Export Plug-In . SVG Version: 6.00 Build 0)  -->
<!DOCTYPE svg PUBLIC "-//W3C//DTD SVG 1.1//EN" "http://www.w3.org/Graphics/SVG/1.1/DTD/svg11.dtd">
<svg version="1.1" id="Layer_1" xmlns="http://www.w3.org/2000/svg" xmlns:xlink="http://www.w3.org/1999/xlink" x="0px" y="0px"
	 width="44px" height="44px" viewBox="0 0 44 44" style="enable-background:new 0 0 44 44;" xml:space="preserve">
<g id="_x39_96-gavel-toolbar_x40_2x.png">
	<g>
		<path d="M43.442,18.114l0.005-0.009l-3.854-1.927L27.822,4.408l-1.928-3.855l-0.009,0.005C25.721,0.23,25.391,0,25,0
			c-0.276,0-0.526,0.112-0.707,0.293l-14,14C10.112,14.474,10,14.724,10,15c0,0.392,0.23,0.721,0.558,0.886l-0.005,0.009
			l3.855,1.928l3.078,3.078L1.424,36.964C0.56,37.697,0,38.778,0,40c0,2.209,1.791,4,4,4c1.223,0,2.303-0.56,3.037-1.424
			L23.1,26.514l3.078,3.079l1.928,3.854l0.009-0.004C28.279,33.77,28.609,34,29,34c0.276,0,0.526-0.111,0.707-0.293l14-14
			C43.888,19.526,44,19.276,44,19C44,18.609,43.77,18.279,43.442,18.114z M12.688,14.727L24.727,2.688l1.057,2.114l-10.98,10.98
			L12.688,14.727z M5.622,41.162C5.259,41.668,4.67,42,4,42c-1.104,0-2-0.896-2-2c0-0.67,0.333-1.26,0.839-1.623L18.9,22.315
			l2.785,2.784L5.622,41.162z M27,27.586L16.414,17L27,6.414L37.586,17L27,27.586z M29.274,31.312l-1.058-2.114l10.98-10.98
			l2.114,1.058L29.274,31.312z"/>
	</g>
</g>
<g>
</g>
<g>
</g>
<g>
</g>
<g>
</g>
<g>
</g>
<g>
</g>
<g>
</g>
<g>
</g>
<g>
</g>
<g>
</g>
<g>
</g>
<g>
</g>
<g>
</g>
<g>
</g>
<g>
</g>
</svg>
