<?xml version="1.0" encoding="iso-8859-1"?>
<!-- Generator: Adobe Illustrator 16.0.4, SVG Export Plug-In . SVG Version: 6.00 Build 0)  -->
<!DOCTYPE svg PUBLIC "-//W3C//DTD SVG 1.1//EN" "http://www.w3.org/Graphics/SVG/1.1/DTD/svg11.dtd">
<svg version="1.1" id="Layer_1" xmlns="http://www.w3.org/2000/svg" xmlns:xlink="http://www.w3.org/1999/xlink" x="0px" y="0px"
	 width="56px" height="56px" viewBox="0 0 56 56" style="enable-background:new 0 0 56 56;" xml:space="preserve">
<g id="_x37_40-gear_x40_2x.png">
	<g>
		<path d="M28,18c-5.522,0-10,4.478-10,10c0,5.523,4.478,10,10,10s10-4.477,10-10C38,22.478,33.522,18,28,18z M28,36
			c-4.418,0-8-3.581-8-8c0-4.418,3.582-8,8-8s8,3.582,8,8C36,32.419,32.418,36,28,36z M55.271,24.055l0.004-0.016l-7.168-2.049
			c-0.415-1.38-0.976-2.695-1.649-3.941l3.631-6.533l-0.016-0.009c0.211-0.38,0.171-0.861-0.152-1.185L45.678,6.08
			c-0.323-0.323-0.805-0.363-1.185-0.152l-0.008-0.015L37.957,9.54c-1.248-0.676-2.565-1.238-3.949-1.653l-2.046-7.161L31.945,0.73
			C31.825,0.312,31.456,0,31,0h-6c-0.456,0-0.825,0.312-0.945,0.73l-0.017-0.005l-2.045,7.159c-1.312,0.393-2.563,0.921-3.753,1.55
			l-6.635-3.612l-0.009,0.015c-0.383-0.207-0.873-0.159-1.206,0.175l-4.379,4.379c-0.334,0.334-0.383,0.823-0.175,1.206
			l-0.015,0.009l3.614,6.639c-0.592,1.124-1.096,2.302-1.479,3.534l-7.231,2.133l0.004,0.017C0.312,24.051,0,24.433,0,24.903v6.193
			c0,0.472,0.312,0.853,0.729,0.977L0.726,32.09l7.231,2.133c0.384,1.232,0.888,2.41,1.479,3.534l-3.614,6.638l0.015,0.009
			c-0.208,0.383-0.159,0.873,0.175,1.206l4.379,4.38c0.333,0.333,0.823,0.382,1.206,0.174l0.009,0.015l6.626-3.607
			c1.129,0.598,2.312,1.105,3.552,1.491l2.127,7.213l0.018-0.004C24.051,55.688,24.432,56,24.903,56h6.193
			c0.472,0,0.853-0.312,0.976-0.729l0.017,0.004l2.128-7.212c1.312-0.408,2.561-0.952,3.748-1.598l6.521,3.623l0.008-0.015
			c0.38,0.211,0.861,0.17,1.185-0.152l4.242-4.243c0.323-0.322,0.363-0.805,0.152-1.185l0.016-0.008l-3.63-6.533
			c0.673-1.246,1.233-2.562,1.648-3.942l7.168-2.048l-0.004-0.017C55.688,31.826,56,31.457,56,31v-6
			C56,24.544,55.688,24.175,55.271,24.055z M54,30.246l-7.532,2.151c-0.473,1.991-1.257,3.855-2.301,5.549l3.806,6.851l-3.176,3.176
			l-6.852-3.806c-1.648,1.017-3.461,1.785-5.394,2.262L30.318,54h-4.637l-2.232-7.571c-1.881-0.464-3.647-1.204-5.261-2.181
			l-6.935,3.776l-3.277-3.278l3.775-6.935c-0.977-1.613-1.717-3.38-2.181-5.26L2,30.318v-4.637l7.571-2.232
			c0.464-1.881,1.204-3.646,2.181-5.26l-3.775-6.935l3.277-3.278l6.935,3.775c1.657-1.003,3.476-1.76,5.414-2.22L25.754,2h4.492
			l2.151,7.532c1.991,0.473,3.855,1.258,5.549,2.302l6.851-3.807l3.176,3.176l-3.806,6.852c1.044,1.692,1.828,3.558,2.301,5.548
			L54,25.755V30.246z"/>
	</g>
</g>
<g>
</g>
<g>
</g>
<g>
</g>
<g>
</g>
<g>
</g>
<g>
</g>
<g>
</g>
<g>
</g>
<g>
</g>
<g>
</g>
<g>
</g>
<g>
</g>
<g>
</g>
<g>
</g>
<g>
</g>
</svg>
