<?xml version="1.0" encoding="iso-8859-1"?>
<!-- Generator: Adobe Illustrator 16.0.4, SVG Export Plug-In . SVG Version: 6.00 Build 0)  -->
<!DOCTYPE svg PUBLIC "-//W3C//DTD SVG 1.1//EN" "http://www.w3.org/Graphics/SVG/1.1/DTD/svg11.dtd">
<svg version="1.1" id="Layer_1" xmlns="http://www.w3.org/2000/svg" xmlns:xlink="http://www.w3.org/1999/xlink" x="0px" y="0px"
	 width="44px" height="44px" viewBox="0 0 44 44" style="enable-background:new 0 0 44 44;" xml:space="preserve">
<g id="_x37_40-gear-toolbar_x40_2x.png">
	<g>
		<path d="M43,19l-4.591-1.377c-0.388-1.457-0.991-2.817-1.734-4.087l2.296-4.264c0.391-0.391,0.391-1.024,0-1.414l-2.828-2.829
			c-0.391-0.391-1.024-0.391-1.415,0l-4.259,2.294c-1.271-0.746-2.634-1.351-4.094-1.738L25,1c0-0.552-0.447-1-1-1h-4
			c-0.553,0-1,0.448-1,1l-1.375,4.584c-1.46,0.388-2.822,0.993-4.094,1.739L9.272,5.029c-0.391-0.391-1.024-0.391-1.415,0
			L5.029,7.858c-0.391,0.39-0.391,1.023,0,1.414l2.296,4.264c-0.743,1.27-1.347,2.63-1.734,4.087L1,19c-0.553,0-1,0.448-1,1v4
			c0,0.553,0.447,1,1,1l4.59,1.377c0.389,1.457,0.991,2.817,1.735,4.088l-2.296,4.263c-0.391,0.391-0.391,1.024,0,1.415l2.828,2.828
			c0.391,0.391,1.024,0.391,1.415,0l4.258-2.293c1.271,0.746,2.635,1.351,4.095,1.739L19,43c0,0.553,0.447,1,1,1h4
			c0.553,0,1-0.447,1-1l1.375-4.584c1.46-0.389,2.822-0.993,4.094-1.739l4.259,2.294c0.391,0.391,1.024,0.391,1.415,0l2.828-2.828
			c0.391-0.391,0.391-1.024,0-1.415l-2.296-4.263c0.744-1.271,1.347-2.631,1.735-4.088L43,25c0.553,0,1-0.447,1-1v-4
			C44,19.448,43.553,19,43,19z M42,23.344l-5.296,1.563c-0.389,1.975-1.161,3.811-2.243,5.425l2.653,4.838l-1.922,1.923
			l-4.849-2.639c-1.617,1.085-3.457,1.86-5.437,2.25L23.344,42h-2.719l-1.545-5.298c-1.975-0.391-3.811-1.165-5.424-2.248
			l-4.849,2.639L6.886,35.17l2.653-4.838c-1.082-1.614-1.854-3.45-2.243-5.425L2,23.344v-2.719l5.298-1.545
			c0.391-1.975,1.165-3.811,2.248-5.424L6.908,8.808L8.83,6.886l4.839,2.653c1.61-1.079,3.441-1.852,5.411-2.241L20.625,2h2.719
			l1.563,5.296c1.975,0.389,3.811,1.162,5.425,2.243l4.838-2.653l1.923,1.922l-2.639,4.849c1.083,1.613,1.857,3.449,2.248,5.424
			L42,20.625V23.344z M22,13.986c-4.426,0-8.014,3.588-8.014,8.014s3.588,8.014,8.014,8.014s8.014-3.588,8.014-8.014
			S26.426,13.986,22,13.986z M22,28.005c-3.316,0-6.004-2.688-6.004-6.005c0-3.315,2.688-6.004,6.004-6.004s6.004,2.688,6.004,6.004
			C28.004,25.316,25.316,28.005,22,28.005z"/>
	</g>
</g>
<g>
</g>
<g>
</g>
<g>
</g>
<g>
</g>
<g>
</g>
<g>
</g>
<g>
</g>
<g>
</g>
<g>
</g>
<g>
</g>
<g>
</g>
<g>
</g>
<g>
</g>
<g>
</g>
<g>
</g>
</svg>
