<?xml version="1.0" encoding="iso-8859-1"?>
<!-- Generator: Adobe Illustrator 16.0.4, SVG Export Plug-In . SVG Version: 6.00 Build 0)  -->
<!DOCTYPE svg PUBLIC "-//W3C//DTD SVG 1.1//EN" "http://www.w3.org/Graphics/SVG/1.1/DTD/svg11.dtd">
<svg version="1.1" id="Layer_1" xmlns="http://www.w3.org/2000/svg" xmlns:xlink="http://www.w3.org/1999/xlink" x="0px" y="0px"
	 width="44.002px" height="44.002px" viewBox="0 0 44.002 44.002" style="enable-background:new 0 0 44.002 44.002;"
	 xml:space="preserve">
<g id="_x39_12-gears-toolbar_x40_2x.png">
	<g>
		<path d="M34.998,31.996c-1.658,0-3.002,1.344-3.002,3.002S33.34,38,34.998,38S38,36.656,38,34.998S36.656,31.996,34.998,31.996z
			 M34.999,35.994c-0.551,0-0.996-0.445-0.996-0.995s0.445-0.996,0.996-0.996c0.55,0,0.995,0.446,0.995,0.996
			S35.549,35.994,34.999,35.994z M16,8.991c-3.871,0-7.009,3.138-7.009,7.009s3.138,7.009,7.009,7.009s7.009-3.138,7.009-7.009
			S19.871,8.991,16,8.991z M16,21c-2.762,0-5-2.238-5-5s2.238-5,5-5s5,2.238,5,5S18.762,21,16,21z M43.342,32.577l0.002-0.016
			l-1.545-0.31c-0.016-0.037-0.037-0.071-0.053-0.108l0.879-1.318l-0.014-0.009c0.211-0.318,0.191-0.744-0.088-1.024l-2.314-2.314
			c-0.156-0.155-0.357-0.231-0.56-0.231c-0.162,0-0.324,0.049-0.466,0.143l-0.008-0.014l-1.317,0.879
			c-0.038-0.016-0.072-0.037-0.109-0.053l-0.31-1.545l-0.016,0.002c-0.075-0.373-0.391-0.66-0.786-0.66h-3.274
			c-0.396,0-0.711,0.287-0.787,0.66l-0.016-0.002l-0.309,1.545c-0.038,0.016-0.072,0.037-0.109,0.053l-1.317-0.879l-0.01,0.014
			c-0.141-0.094-0.303-0.143-0.465-0.143c-0.202,0-0.402,0.076-0.559,0.231l-2.314,2.314c-0.28,0.28-0.3,0.706-0.09,1.024
			l-0.013,0.009l0.879,1.318c-0.017,0.037-0.038,0.071-0.054,0.108l-1.544,0.31l0.002,0.016c-0.373,0.075-0.66,0.391-0.66,0.786
			v3.274c0,0.396,0.287,0.711,0.66,0.787l-0.002,0.016l1.544,0.309c0.016,0.037,0.037,0.071,0.054,0.109l-0.879,1.317l0.013,0.008
			c-0.21,0.318-0.19,0.744,0.09,1.025l2.314,2.314c0.156,0.155,0.355,0.23,0.558,0.23c0.162,0,0.324-0.049,0.466-0.143l0.01,0.014
			l1.317-0.879c0.037,0.016,0.071,0.039,0.109,0.053l0.309,1.545l0.016-0.002c0.076,0.373,0.391,0.66,0.787,0.66h3.274
			c0.396,0,0.711-0.287,0.786-0.66l0.016,0.002l0.31-1.545c0.037-0.014,0.071-0.037,0.109-0.053l1.317,0.879l0.008-0.014
			c0.142,0.094,0.305,0.143,0.467,0.143c0.202,0,0.402-0.075,0.559-0.23l2.314-2.314c0.279-0.281,0.299-0.707,0.088-1.025
			l0.014-0.008l-0.879-1.317c0.016-0.038,0.037-0.072,0.053-0.109l1.545-0.309l-0.002-0.016c0.373-0.076,0.66-0.392,0.66-0.787
			v-3.274C44.002,32.968,43.715,32.652,43.342,32.577z M42.002,35.668l-0.595,0.119c-0.625,0.125-1.151,0.54-1.42,1.114
			c-0.033,0.064-0.063,0.129-0.092,0.197c-0.252,0.615-0.183,1.316,0.187,1.869l0.342,0.513l-0.944,0.943l-0.512-0.342
			c-0.334-0.223-0.721-0.336-1.109-0.336c-0.257,0-0.516,0.05-0.76,0.15c-0.062,0.025-0.124,0.054-0.186,0.085
			c-0.579,0.267-1,0.795-1.126,1.426l-0.119,0.595h-1.336l-0.119-0.596c-0.126-0.631-0.547-1.158-1.126-1.425
			c-0.055-0.028-0.111-0.055-0.167-0.078c-0.25-0.105-0.514-0.157-0.777-0.157c-0.389,0-0.775,0.113-1.109,0.336l-0.513,0.342
			l-0.944-0.944l0.342-0.512c0.373-0.56,0.44-1.27,0.178-1.889c-0.024-0.06-0.053-0.117-0.082-0.176
			c-0.269-0.575-0.795-0.991-1.422-1.116l-0.594-0.119v-1.336l0.595-0.119c0.626-0.125,1.152-0.54,1.42-1.114
			c0.028-0.055,0.055-0.11,0.079-0.167c0.267-0.621,0.201-1.335-0.174-1.897l-0.342-0.513l0.944-0.945l0.513,0.342
			c0.334,0.223,0.721,0.336,1.109,0.336c0.271,0,0.542-0.055,0.798-0.165c0.052-0.023,0.104-0.048,0.158-0.076
			c0.574-0.268,0.989-0.795,1.114-1.42l0.119-0.595h1.336l0.119,0.595c0.125,0.624,0.539,1.149,1.112,1.419
			c0.059,0.029,0.117,0.059,0.18,0.084c0.25,0.106,0.515,0.158,0.779,0.158c0.389,0,0.775-0.113,1.109-0.336l0.512-0.342
			l0.944,0.944l-0.342,0.514c-0.37,0.556-0.439,1.26-0.183,1.877c0.026,0.062,0.055,0.124,0.087,0.187
			c0.269,0.575,0.795,0.99,1.42,1.115l0.596,0.119V35.668z M28.391,26.236c0.238-0.238,0.277-0.59,0.135-0.875l0.008-0.004
			L26.705,21.7c0.375-0.694,0.709-1.412,0.946-2.178l3.827-1.275l-0.002-0.009C31.778,18.137,32,17.86,32,17.523v-3.047
			c0-0.337-0.222-0.613-0.523-0.714l0.002-0.009l-3.827-1.276c-0.237-0.766-0.571-1.483-0.946-2.178l1.828-3.656L28.525,6.64
			c0.143-0.285,0.104-0.638-0.135-0.876l-2.154-2.154C26.09,3.463,25.9,3.392,25.71,3.392c-0.119,0-0.238,0.028-0.349,0.083
			l-0.004-0.009l-3.654,1.827c-0.695-0.376-1.414-0.711-2.182-0.948l-1.275-3.823l-0.008,0.002C18.137,0.222,17.86,0,17.523,0
			h-3.047c-0.337,0-0.613,0.222-0.714,0.523l-0.009-0.002l-1.275,3.823c-0.768,0.237-1.486,0.572-2.182,0.948L6.644,3.466
			L6.64,3.475c-0.11-0.055-0.23-0.083-0.35-0.083c-0.191,0-0.38,0.071-0.526,0.218L3.609,5.764C3.371,6.002,3.332,6.354,3.475,6.64
			L3.467,6.644L5.294,10.3c-0.374,0.694-0.709,1.412-0.945,2.178l-3.827,1.276l0.003,0.009C0.222,13.863,0,14.14,0,14.477v3.047
			c0,0.337,0.222,0.613,0.524,0.715l-0.003,0.009l3.827,1.275c0.236,0.766,0.571,1.483,0.945,2.178l-1.827,3.657l0.008,0.004
			c-0.143,0.285-0.104,0.637,0.135,0.875l2.154,2.154C5.91,28.537,6.1,28.608,6.29,28.608c0.119,0,0.239-0.028,0.35-0.083
			l0.004,0.009l3.653-1.827c0.695,0.376,1.414,0.712,2.182,0.949l1.275,3.822l0.009-0.002C13.863,31.778,14.14,32,14.477,32h3.047
			c0.337,0,0.613-0.222,0.715-0.523l0.008,0.002l1.275-3.822c0.768-0.237,1.486-0.573,2.182-0.949l3.654,1.827l0.004-0.009
			c0.109,0.055,0.229,0.083,0.349,0.083c0.19,0,0.38-0.071,0.526-0.218L28.391,26.236z M25.453,26.346l-2.855-1.428
			c-0.282-0.141-0.588-0.211-0.895-0.211c-0.327,0-0.654,0.08-0.951,0.24c-0.691,0.374-1.271,0.628-1.821,0.798
			c-0.616,0.19-1.103,0.667-1.307,1.278L16.631,30h-1.262l-0.992-2.977c-0.204-0.611-0.691-1.088-1.308-1.278
			c-0.552-0.171-1.131-0.424-1.821-0.797c-0.296-0.161-0.624-0.241-0.951-0.241c-0.307,0-0.612,0.07-0.895,0.211l-2.854,1.428
			l-0.894-0.893l1.43-2.858c0.291-0.583,0.28-1.271-0.029-1.844c-0.372-0.69-0.625-1.269-0.795-1.819
			c-0.191-0.616-0.667-1.103-1.278-1.307L2,16.632v-1.263l2.981-0.994c0.611-0.204,1.087-0.69,1.278-1.307
			c0.17-0.551,0.423-1.129,0.795-1.819c0.31-0.573,0.32-1.261,0.029-1.844l-1.43-2.858l0.893-0.894l2.855,1.429
			c0.282,0.141,0.588,0.211,0.895,0.211c0.327,0,0.655-0.08,0.951-0.241c0.689-0.372,1.268-0.625,1.821-0.797
			c0.616-0.19,1.104-0.666,1.308-1.278L15.369,2h1.262l0.993,2.978c0.204,0.611,0.69,1.087,1.307,1.277
			c0.553,0.171,1.131,0.425,1.821,0.798c0.297,0.16,0.624,0.24,0.951,0.24c0.307,0,0.612-0.07,0.895-0.211l2.855-1.428l0.893,0.893
			l-1.43,2.858c-0.291,0.583-0.28,1.271,0.029,1.845c0.371,0.688,0.624,1.266,0.796,1.82c0.19,0.615,0.666,1.101,1.277,1.305
			L30,15.369v1.263l-2.98,0.993c-0.612,0.203-1.088,0.69-1.278,1.306c-0.172,0.554-0.425,1.132-0.796,1.819
			c-0.31,0.573-0.32,1.262-0.029,1.845l1.43,2.858L25.453,26.346z"/>
	</g>
</g>
<g>
</g>
<g>
</g>
<g>
</g>
<g>
</g>
<g>
</g>
<g>
</g>
<g>
</g>
<g>
</g>
<g>
</g>
<g>
</g>
<g>
</g>
<g>
</g>
<g>
</g>
<g>
</g>
<g>
</g>
</svg>
