<?xml version="1.0" encoding="iso-8859-1"?>
<!-- Generator: Adobe Illustrator 16.0.4, SVG Export Plug-In . SVG Version: 6.00 Build 0)  -->
<!DOCTYPE svg PUBLIC "-//W3C//DTD SVG 1.1//EN" "http://www.w3.org/Graphics/SVG/1.1/DTD/svg11.dtd">
<svg version="1.1" id="Layer_1" xmlns="http://www.w3.org/2000/svg" xmlns:xlink="http://www.w3.org/1999/xlink" x="0px" y="0px"
	 width="48px" height="56px" viewBox="0 0 48 56" style="enable-background:new 0 0 48 56;" xml:space="preserve">
<g id="_x39_86-ghost_x40_2x.png">
	<g>
		<path d="M14,14c-3.866,0-7,3.582-7,8s3.134,8,7,8s7-3.582,7-8S17.866,14,14,14z M14,28c-2.762,0-5-2.687-5-6s2.238-6,5-6
			s5,2.687,5,6S16.762,28,14,28z M34,14c-3.866,0-7,3.582-7,8s3.134,8,7,8s7-3.582,7-8S37.866,14,34,14z M34,28
			c-2.762,0-5-2.687-5-6s2.238-6,5-6s5,2.687,5,6S36.762,28,34,28z M24,0C10.745,0,0,10.745,0,24v31c0,0.553,0.447,1,1,1
			s1-0.447,1-1c0-1.104,1.119-2,2.5-2S7,53.896,7,55c0,0.553,0.447,1,1,1s1-0.447,1-1c0-1.104,1.343-2,3-2s3,0.896,3,2
			c0,0.553,0.447,1,1,1s1-0.447,1-1c0-1.104,1.343-2,3-2s3,0.896,3,2c0,0.553,0.447,1,1,1s1-0.447,1-1c0-1.104,1.343-2,3-2
			s3,0.896,3,2c0,0.553,0.447,1,1,1s1-0.447,1-1c0-1.104,1.343-2,3-2s3,0.896,3,2c0,0.553,0.447,1,1,1s1-0.447,1-1
			c0-1.104,1.119-2,2.5-2s2.5,0.896,2.5,2c0,0.553,0.447,1,1,1s1-0.447,1-1V24C48,10.745,37.255,0,24,0z M46,51.676
			C45.285,51.25,44.426,51,43.5,51c-1.452,0-2.729,0.622-3.553,1.571C39.033,51.622,37.613,51,36,51c-1.644,0-3.089,0.643-4,1.622
			C31.089,51.643,29.644,51,28,51s-3.089,0.643-4,1.622C23.089,51.643,21.644,51,20,51s-3.089,0.643-4,1.622
			C15.089,51.643,13.644,51,12,51c-1.613,0-3.033,0.622-3.947,1.571C7.229,51.622,5.952,51,4.5,51c-0.926,0-1.785,0.25-2.5,0.676V24
			C2,11.85,11.85,2,24,2s22,9.85,22,22V51.676z M24,34c-2.762,0-5,2.238-5,5s2.238,5,5,5s5-2.238,5-5S26.762,34,24,34z M24,42
			c-1.657,0-3-1.343-3-3c0-1.656,1.343-3,3-3s3,1.344,3,3C27,40.657,25.657,42,24,42z"/>
	</g>
</g>
<g>
</g>
<g>
</g>
<g>
</g>
<g>
</g>
<g>
</g>
<g>
</g>
<g>
</g>
<g>
</g>
<g>
</g>
<g>
</g>
<g>
</g>
<g>
</g>
<g>
</g>
<g>
</g>
<g>
</g>
</svg>
