<?xml version="1.0" encoding="iso-8859-1"?>
<!-- Generator: Adobe Illustrator 16.0.4, SVG Export Plug-In . SVG Version: 6.00 Build 0)  -->
<!DOCTYPE svg PUBLIC "-//W3C//DTD SVG 1.1//EN" "http://www.w3.org/Graphics/SVG/1.1/DTD/svg11.dtd">
<svg version="1.1" id="Layer_1" xmlns="http://www.w3.org/2000/svg" xmlns:xlink="http://www.w3.org/1999/xlink" x="0px" y="0px"
	 width="35.989px" height="44px" viewBox="0 0 35.989 44" style="enable-background:new 0 0 35.989 44;" xml:space="preserve">
<g id="_x39_86-ghost-toolbar_x40_2x.png">
	<g>
		<path d="M16,16c0-3.313-2.238-6-5-6s-5,2.687-5,6s2.238,6,5,6S16,19.313,16,16z M11,20c-1.657,0-3-1.791-3-4s1.343-4,3-4
			s3,1.791,3,4S12.657,20,11,20z M18.042,0C7.825,0,0,8.06,0,18v25c0,0.553,0.447,1,1,1s1-0.447,1-1c0-0.828,0.609-1.5,1.438-1.5
			s1.438,0.672,1.438,1.5c0,0.553,0.447,1,1,1s1-0.447,1-1c0-0.828,0.609-1.5,1.438-1.5S9.75,42.172,9.75,43c0,0.553,0.447,1,1,1
			s1-0.447,1-1c0-0.828,0.609-1.5,1.438-1.5s1.438,0.672,1.438,1.5c0,0.553,0.447,1,1,1s1-0.447,1-1c0-0.828,0.589-1.5,1.417-1.5
			s1.364,0.672,1.364,1.5c0,0.553,0.447,1,1,1s1-0.447,1-1c0-0.828,0.589-1.5,1.417-1.5s1.416,0.672,1.416,1.5c0,0.553,0.447,1,1,1
			s1-0.447,1-1c0-0.828,0.589-1.5,1.417-1.5s1.417,0.672,1.417,1.5c0,0.553,0.447,1,1,1s1-0.447,1-1c0-0.828,0.588-1.5,1.416-1.5
			s1.5,0.672,1.5,1.5c0,0.553,0.447,1,1,1s1-0.447,1-1V18C35.989,8.06,28.259,0,18.042,0z M33.989,39.838
			c-0.455-0.217-0.964-0.338-1.5-0.338c-0.979,0-1.78,0.403-2.416,1.053c-0.636-0.649-1.438-1.053-2.417-1.053
			s-1.781,0.403-2.417,1.053c-0.636-0.649-1.438-1.053-2.416-1.053s-1.781,0.403-2.417,1.053c-0.636-0.649-1.386-1.053-2.364-1.053
			s-1.781,0.403-2.417,1.053c-0.636-0.649-1.459-1.053-2.438-1.053s-1.802,0.403-2.438,1.053C10.114,39.903,9.291,39.5,8.312,39.5
			s-1.802,0.403-2.438,1.053C5.239,39.903,4.416,39.5,3.438,39.5C2.9,39.5,2.455,39.621,2,39.838V18C2,9.178,8.943,2,18.042,2
			c9.098,0,15.947,7.178,15.947,16V39.838z M25,10c-2.762,0-5,2.687-5,6s2.238,6,5,6s5-2.687,5-6S27.762,10,25,10z M25,20
			c-1.657,0-3-1.791-3-4s1.343-4,3-4s3,1.791,3,4S26.657,20,25,20z M18,26c-2.209,0-4,1.791-4,4s1.791,4,4,4s4-1.791,4-4
			S20.209,26,18,26z M18,32c-1.104,0-2-0.896-2-2s0.896-2,2-2s2,0.896,2,2S19.104,32,18,32z"/>
	</g>
</g>
<g>
</g>
<g>
</g>
<g>
</g>
<g>
</g>
<g>
</g>
<g>
</g>
<g>
</g>
<g>
</g>
<g>
</g>
<g>
</g>
<g>
</g>
<g>
</g>
<g>
</g>
<g>
</g>
<g>
</g>
</svg>
