<?xml version="1.0" encoding="iso-8859-1"?>
<!-- Generator: Adobe Illustrator 16.0.4, SVG Export Plug-In . SVG Version: 6.00 Build 0)  -->
<!DOCTYPE svg PUBLIC "-//W3C//DTD SVG 1.1//EN" "http://www.w3.org/Graphics/SVG/1.1/DTD/svg11.dtd">
<svg version="1.1" id="Layer_1" xmlns="http://www.w3.org/2000/svg" xmlns:xlink="http://www.w3.org/1999/xlink" x="0px" y="0px"
	 width="44px" height="44px" viewBox="0 0 44 44" style="enable-background:new 0 0 44 44;" xml:space="preserve">
<g id="_x37_61-gift-toolbar_x40_2x.png">
	<g>
		<path d="M42,8H31.636c0.027-0.021,0.061-0.043,0.087-0.064c1.449-1.163,2.281-2.737,2.281-4.318c0-2.13-1.502-3.617-3.651-3.617
			c-3.118,0-4.896,3.02-6.325,5.445C23.448,6.43,22.863,7.372,22.276,8h-0.583c-0.587-0.628-1.172-1.57-1.752-2.555
			C18.511,3.02,16.734,0,13.616,0c-2.15,0-3.651,1.487-3.651,3.617c0,1.581,0.831,3.155,2.281,4.318
			c0.026,0.021,0.06,0.043,0.087,0.064H2c-1.104,0-2,0.896-2,2v8c0,1.105,0.896,2,2,2v22c0,1.104,0.896,2,2,2h12h12h12
			c1.104,0,2-0.896,2-2V20c1.104,0,2-0.895,2-2v-8C44,8.896,43.104,8,42,8z M11.965,3.617C11.965,2.59,12.567,2,13.616,2
			c1.828,0,3.111,1.932,4.601,4.46c0.293,0.498,0.605,1.028,0.946,1.54h-0.003c-3.014-0.006-4.743-0.885-5.663-1.625
			C12.524,5.594,11.965,4.589,11.965,3.617z M16,42H4V20h12V42z M16,18H2v-8h14V18z M26,42h-8V20h8V42z M26,18h-8v-8h1.187h1.81
			h1.976h1.809H26V18z M24.809,8h-0.003c0.341-0.512,0.652-1.042,0.945-1.54C27.241,3.932,28.525,2,30.353,2
			c1.049,0,1.65,0.59,1.65,1.617c0,0.972-0.559,1.977-1.531,2.758C29.551,7.115,27.822,7.994,24.809,8z M40,42H28V20h12V42z M42,18
			H28v-8h14V18z"/>
	</g>
</g>
<g>
</g>
<g>
</g>
<g>
</g>
<g>
</g>
<g>
</g>
<g>
</g>
<g>
</g>
<g>
</g>
<g>
</g>
<g>
</g>
<g>
</g>
<g>
</g>
<g>
</g>
<g>
</g>
<g>
</g>
</svg>
