<?xml version="1.0" encoding="iso-8859-1"?>
<!-- Generator: Adobe Illustrator 16.0.4, SVG Export Plug-In . SVG Version: 6.00 Build 0)  -->
<!DOCTYPE svg PUBLIC "-//W3C//DTD SVG 1.1//EN" "http://www.w3.org/Graphics/SVG/1.1/DTD/svg11.dtd">
<svg version="1.1" id="Layer_1" xmlns="http://www.w3.org/2000/svg" xmlns:xlink="http://www.w3.org/1999/xlink" x="0px" y="0px"
	 width="56px" height="56px" viewBox="0 0 56 56" style="enable-background:new 0 0 56 56;" xml:space="preserve">
<g id="_x37_61-gift_x40_2x.png">
	<g>
		<path d="M54,14H42.293c0.812-0.427,1.496-0.875,2.034-1.304c2.342-1.86,3.685-4.379,3.685-6.909C48.012,2.38,45.587,0,42.114,0
			c-5.037,0-7.909,4.83-10.218,8.712c-1.287,2.166-2.591,4.214-3.896,4.967c-1.305-0.753-2.609-2.801-3.897-4.967
			C21.795,4.83,18.923,0,13.886,0c-3.473,0-5.897,2.38-5.897,5.787c0,2.53,1.343,5.049,3.684,6.909
			c0.539,0.429,1.222,0.877,2.034,1.304H2c-1.104,0-2,0.896-2,2v8c0,1.104,0.896,2,2,2v28c0,1.104,0.896,2,2,2h18h12h18
			c1.104,0,2-0.896,2-2V26c1.104,0,2-0.896,2-2v-8C56,14.896,55.104,14,54,14z M22,54H4V26h18V54z M22,24H2v-8h20V24z
			 M12.917,11.131c-1.861-1.479-2.929-3.427-2.929-5.344C9.989,3.486,11.519,2,13.886,2c3.899,0,6.237,3.932,8.498,7.733
			c0.939,1.579,1.881,3.11,2.923,4.267h-2.42C17.63,14,14.564,12.439,12.917,11.131z M32,54h-8V26h8V54z M32,24h-8v-8h8V24z
			 M33.113,14h-2.42c1.042-1.156,1.984-2.688,2.923-4.267C35.877,5.932,38.215,2,42.114,2c2.367,0,3.897,1.486,3.897,3.787
			c0,1.917-1.068,3.864-2.929,5.344C41.437,12.439,38.37,14,33.113,14z M52,54H34V26h18V54z M54,24H34v-8h20V24z"/>
	</g>
</g>
<g>
</g>
<g>
</g>
<g>
</g>
<g>
</g>
<g>
</g>
<g>
</g>
<g>
</g>
<g>
</g>
<g>
</g>
<g>
</g>
<g>
</g>
<g>
</g>
<g>
</g>
<g>
</g>
<g>
</g>
</svg>
