<?xml version="1.0" encoding="iso-8859-1"?>
<!-- Generator: Adobe Illustrator 16.0.4, SVG Export Plug-In . SVG Version: 6.00 Build 0)  -->
<!DOCTYPE svg PUBLIC "-//W3C//DTD SVG 1.1//EN" "http://www.w3.org/Graphics/SVG/1.1/DTD/svg11.dtd">
<svg version="1.1" id="Layer_1" xmlns="http://www.w3.org/2000/svg" xmlns:xlink="http://www.w3.org/1999/xlink" x="0px" y="0px"
	 width="44px" height="44px" viewBox="0 0 44 44" style="enable-background:new 0 0 44 44;" xml:space="preserve">
<g id="_x31_264-github_x40_2x.png">
	<g>
		<path d="M22,0C9.85,0,0,9.85,0,22s9.85,22,22,22s22-9.85,22-22S34.15,0,22,0z M27.298,41.259
			c-0.148-0.192-0.232-0.424-0.232-0.652c0-0.673,0.025-2.888,0.025-5.634c0-1.915-0.654-3.169-1.387-3.803
			c4.552-0.509,9.329-2.244,9.329-10.134c0-2.241-0.791-4.075-2.1-5.511c0.21-0.52,0.911-2.607-0.204-5.435
			c0,0-1.712-0.553-5.613,2.105c-1.632-0.456-3.38-0.684-5.115-0.691c-1.738,0.008-3.486,0.235-5.115,0.691
			c-3.903-2.658-5.619-2.105-5.619-2.105c-1.111,2.827-0.41,4.915-0.2,5.435c-1.307,1.436-2.103,3.27-2.103,5.511
			c0,7.87,4.77,9.632,9.307,10.149c-0.584,0.514-1.112,1.419-1.297,2.746c-1.165,0.525-4.124,1.432-5.947-1.707
			c0,0-1.079-1.971-3.129-2.116c0,0-1.996-0.025-0.141,1.249c0,0,1.34,0.631,2.269,3.004c0,0,1.199,3.994,6.883,2.752
			c0.01,1.715,0.027,3.006,0.027,3.493c0,0.228-0.085,0.46-0.235,0.652C8.236,38.934,2.009,31.203,2.009,22
			c0-11.041,8.95-19.991,19.991-19.991S41.991,10.959,41.991,22C41.991,31.204,35.764,38.935,27.298,41.259z"/>
	</g>
</g>
<g>
</g>
<g>
</g>
<g>
</g>
<g>
</g>
<g>
</g>
<g>
</g>
<g>
</g>
<g>
</g>
<g>
</g>
<g>
</g>
<g>
</g>
<g>
</g>
<g>
</g>
<g>
</g>
<g>
</g>
</svg>
