<?xml version="1.0" encoding="UTF-8" standalone="no"?>
<svg width="58px" height="58px" viewBox="0 0 58 58" version="1.1" xmlns="http://www.w3.org/2000/svg" xmlns:xlink="http://www.w3.org/1999/xlink" xmlns:sketch="http://www.bohemiancoding.com/sketch/ns">
    <!-- Generator: Sketch 3.0.4 (8053) - http://www.bohemiancoding.com/sketch -->
    <title>1264-github</title>
    <desc>Created with Sketch.</desc>
    <defs></defs>
    <g id="Page-1" stroke="none" stroke-width="1" fill="none" fill-rule="evenodd" sketch:type="MSPage">
        <g id="Glyphish-8-Icons" sketch:type="MSArtboardGroup" transform="translate(-308.000000, -1555.000000)" fill="#000000">
            <g id="1264-github" sketch:type="MSLayerGroup" transform="translate(308.036996, 1555.860499)">
                <g id="_x31_264-github_x40_2x.png" sketch:type="MSShapeGroup">
                    <path d="M28,0 C12.536,0 0,12.536 0,28 C0,43.465 12.536,56 28,56 C43.464,56 56,43.465 56,28 C56,12.536 43.464,0 28,0 L28,0 Z M35.35,52.93 C34.703,52.758 34.448,52.192 34.448,51.682 C34.448,50.825 34.48,48.005 34.48,44.511 C34.48,42.073 33.648,40.478 32.715,39.671 C38.508,39.024 44.589,36.815 44.589,26.774 C44.589,23.92 43.583,21.587 41.916,19.76 C42.184,19.099 43.076,16.442 41.657,12.843 C41.657,12.843 39.478,12.14 34.513,15.522 C32.436,14.943 30.211,14.653 28.002,14.643 C25.791,14.653 23.566,14.943 21.492,15.522 C16.524,12.14 14.341,12.843 14.341,12.843 C12.926,16.442 13.819,19.099 14.086,19.76 C12.422,21.587 11.409,23.92 11.409,26.774 C11.409,36.79 17.48,39.032 23.254,39.692 C22.511,40.345 21.839,41.497 21.603,43.186 C20.121,43.855 16.354,45.008 14.035,41.014 C14.035,41.014 12.661,38.505 10.052,38.321 C10.052,38.321 7.512,38.288 9.873,39.91 C9.873,39.91 11.578,40.714 12.76,43.733 C12.76,43.733 14.286,48.816 21.52,47.236 C21.533,49.418 21.555,51.061 21.555,51.682 C21.555,52.19 21.295,52.756 20.645,52.928 C9.875,49.755 2.006,39.81 2,28.013 C2.07,13.636 13.682,2.002 27.998,2.002 C42.32,2.002 53.933,13.64 53.999,28.02 C53.99,39.816 46.121,49.759 35.35,52.93 L35.35,52.93 Z" id="Shape"></path>
                </g>
            </g>
        </g>
    </g>
</svg>