<?xml version="1.0" encoding="iso-8859-1"?>
<!-- Generator: Adobe Illustrator 16.0.4, SVG Export Plug-In . SVG Version: 6.00 Build 0)  -->
<!DOCTYPE svg PUBLIC "-//W3C//DTD SVG 1.1//EN" "http://www.w3.org/Graphics/SVG/1.1/DTD/svg11.dtd">
<svg version="1.1" id="Layer_1" xmlns="http://www.w3.org/2000/svg" xmlns:xlink="http://www.w3.org/1999/xlink" x="0px" y="0px"
	 width="44px" height="32px" viewBox="0 0 44 32" style="enable-background:new 0 0 44 32;" xml:space="preserve">
<g id="_x31_005-glasses-toolbar_x40_2x.png">
	<g>
		<path d="M43,24h-1.206C41.995,22.302,42,21,42,21v-2h-0.009c-0.054-3.508-0.45-13.873-3.284-16.707C36.44,0.026,33.14,0,33,0
			c-0.552,0-1,0.447-1,1c0,0.552,0.446,0.999,0.998,1c0.054,0.001,2.633,0.046,4.295,1.707c1.773,1.773,2.545,8.664,2.682,14.419
			C39.691,18.047,39.369,18,39,18H29c-3.569,0-4.587,2.542-4.879,4h-4.242c-0.292-1.458-1.31-4-4.879-4H5
			c-0.369,0-0.691,0.047-0.975,0.126C4.162,12.371,4.934,5.48,6.707,3.707C8.369,2.046,10.948,2.001,11.002,2
			C11.554,1.999,12,1.552,12,1c0-0.553-0.448-1-1-1c-0.14,0-3.44,0.026-5.707,2.293C2.459,5.127,2.062,15.492,2.009,19H2v2
			c0,0,0.005,1.302,0.206,3H1c-0.553,0-1,0.448-1,1c0,0.553,0.447,1,1,1h1.524C3.109,28.907,4.348,32,7,32h8
			c3.569,0,4.587-2.542,4.879-4H20v-4h4v4h0.121c0.292,1.458,1.31,4,4.879,4h8c2.652,0,3.891-3.093,4.476-6H43c0.553,0,1-0.447,1-1
			C44,24.448,43.553,24,43,24z M18,27c0,3-3,3-3,3H7c-3,0-3-9-3-9c0-1,1-1,1-1h10c3,0,3,3,3,3V27z M37,30h-8c0,0-3,0-3-3v-4
			c0,0,0-3,3-3h10c0,0,1,0,1,1C40,21,40,30,37,30z"/>
	</g>
</g>
<g>
</g>
<g>
</g>
<g>
</g>
<g>
</g>
<g>
</g>
<g>
</g>
<g>
</g>
<g>
</g>
<g>
</g>
<g>
</g>
<g>
</g>
<g>
</g>
<g>
</g>
<g>
</g>
<g>
</g>
</svg>
