<?xml version="1.0" encoding="iso-8859-1"?>
<!-- Generator: Adobe Illustrator 16.0.4, SVG Export Plug-In . SVG Version: 6.00 Build 0)  -->
<!DOCTYPE svg PUBLIC "-//W3C//DTD SVG 1.1//EN" "http://www.w3.org/Graphics/SVG/1.1/DTD/svg11.dtd">
<svg version="1.1" id="Layer_1" xmlns="http://www.w3.org/2000/svg" xmlns:xlink="http://www.w3.org/1999/xlink" x="0px" y="0px"
	 width="44px" height="20px" viewBox="0 0 44 20" style="enable-background:new 0 0 44 20;" xml:space="preserve">
<g id="_x38_60-glasses-toolbar_x40_2x.png">
	<g>
		<path d="M43,8.938h-0.058C42.411,3.914,38.164,0,33,0c-4.549,0-8.381,3.039-9.594,7.196c-0.418-0.17-0.89-0.281-1.422-0.281
			c-0.521,0-0.982,0.105-1.394,0.27C19.374,3.033,15.544,0,11,0C5.836,0,1.589,3.914,1.058,8.938H1c-0.553,0-1,0.448-1,1
			c0,0.553,0.447,1,1,1h0.048C1.521,16.021,5.794,20,11,20c5.522,0,10-4.477,10-10c0-0.273-0.02-0.542-0.041-0.81
			c0.288-0.183,0.627-0.32,1.025-0.32c0.412,0,0.762,0.147,1.056,0.34C23.02,9.472,23,9.733,23,10c0,5.523,4.478,10,10,10
			c5.206,0,9.479-3.979,9.952-9.062H43c0.553,0,1-0.447,1-1C44,9.386,43.553,8.938,43,8.938z M11,17.994
			c-4.415,0-7.994-3.579-7.994-7.994S6.585,2.006,11,2.006S18.994,5.585,18.994,10S15.415,17.994,11,17.994z M41,10.001
			C40.999,14.419,37.418,18,33,18s-8-3.582-8-8s3.582-8,8-8s7.999,3.581,8,7.999V10.001z"/>
	</g>
</g>
<g>
</g>
<g>
</g>
<g>
</g>
<g>
</g>
<g>
</g>
<g>
</g>
<g>
</g>
<g>
</g>
<g>
</g>
<g>
</g>
<g>
</g>
<g>
</g>
<g>
</g>
<g>
</g>
<g>
</g>
</svg>
