<?xml version="1.0" encoding="iso-8859-1"?>
<!-- Generator: Adobe Illustrator 16.0.4, SVG Export Plug-In . SVG Version: 6.00 Build 0)  -->
<!DOCTYPE svg PUBLIC "-//W3C//DTD SVG 1.1//EN" "http://www.w3.org/Graphics/SVG/1.1/DTD/svg11.dtd">
<svg version="1.1" id="Layer_1" xmlns="http://www.w3.org/2000/svg" xmlns:xlink="http://www.w3.org/1999/xlink" x="0px" y="0px"
	 width="56px" height="40px" viewBox="0 0 56 40" style="enable-background:new 0 0 56 40;" xml:space="preserve">
<g id="_x31_005-glasses_x40_2x.png">
	<g>
		<path d="M55,26h-1.135C53.999,24.221,54,23,54,23v-2h-0.008c-0.05-3.795-0.435-15.857-3.285-18.707C48.44,0.026,45.14,0,45,0
			c-0.552,0-1,0.447-1,1c0,0.552,0.446,0.999,0.998,1c0.054,0.001,2.633,0.046,4.295,1.707c1.78,1.779,2.55,10.336,2.684,16.419
			C51.692,20.047,51.369,20,51,20H35c-3.569,0-4.587,2.542-4.879,4h-4.242c-0.292-1.458-1.31-4-4.879-4H5
			c-0.369,0-0.692,0.047-0.977,0.126c0.134-6.083,0.904-14.64,2.684-16.419C8.369,2.046,10.948,2.001,11.002,2
			C11.554,1.999,12,1.552,12,1c0-0.553-0.448-1-1-1c-0.14,0-3.44,0.026-5.707,2.293C2.443,5.143,2.058,17.205,2.008,21H2v2
			c0,0,0.001,1.221,0.135,3H1c-0.553,0-1,0.448-1,1c0,0.553,0.447,1,1,1h1.325C2.903,33.016,4.512,40,9,40h12
			c3.569,0,4.587-2.542,4.879-4H26V26h4v10h0.121c0.292,1.458,1.31,4,4.879,4h12c4.488,0,6.097-6.984,6.675-12H55
			c0.553,0,1-0.447,1-1C56,26.448,55.553,26,55,26z M24,35c0,3-3,3-3,3H9c-5,0-5-15-5-15c0-1,1-1,1-1h16c3,0,3,3,3,3V35z M47,38H35
			c0,0-3,0-3-3V25c0,0,0-3,3-3h16c0,0,1,0,1,1C52,23,52,38,47,38z"/>
	</g>
</g>
<g>
</g>
<g>
</g>
<g>
</g>
<g>
</g>
<g>
</g>
<g>
</g>
<g>
</g>
<g>
</g>
<g>
</g>
<g>
</g>
<g>
</g>
<g>
</g>
<g>
</g>
<g>
</g>
<g>
</g>
</svg>
