<?xml version="1.0" encoding="iso-8859-1"?>
<!-- Generator: Adobe Illustrator 16.0.4, SVG Export Plug-In . SVG Version: 6.00 Build 0)  -->
<!DOCTYPE svg PUBLIC "-//W3C//DTD SVG 1.1//EN" "http://www.w3.org/Graphics/SVG/1.1/DTD/svg11.dtd">
<svg version="1.1" id="Layer_1" xmlns="http://www.w3.org/2000/svg" xmlns:xlink="http://www.w3.org/1999/xlink" x="0px" y="0px"
	 width="56px" height="22px" viewBox="0 0 56 22" style="enable-background:new 0 0 56 22;" xml:space="preserve">
<g id="_x38_60-glasses_x40_2x.png">
	<g>
		<path d="M55,10h-3.051C51.443,4.395,46.737,0,41,0c-4.704,0-8.707,2.959-10.279,7.111c-0.625-0.583-1.53-1.134-2.736-1.134
			c-1.191,0-2.089,0.537-2.713,1.112C23.693,2.948,19.696,0,15,0C9.263,0,4.557,4.395,4.051,10H1c-0.553,0-1,0.448-1,1
			c0,0.553,0.447,1,1,1h3.051C4.557,17.605,9.263,22,15,22c6.075,0,11-4.925,11-11c0-0.535-0.051-1.058-0.125-1.572
			c0.018-0.027,0.044-0.045,0.059-0.074c0.007-0.014,0.745-1.421,2.051-1.421s2.043,1.407,2.048,1.415
			c0.023,0.047,0.057,0.084,0.086,0.126C30.049,9.974,30,10.48,30,11c0,6.075,4.925,11,11,11c5.737,0,10.443-4.395,10.949-10H55
			c0.553,0,1-0.447,1-1C56,10.448,55.553,10,55,10z M15,20c-4.971,0-9-4.029-9-9s4.029-9,9-9s9,4.029,9,9S19.971,20,15,20z M41,20
			c-4.971,0-9-4.029-9-9s4.029-9,9-9s9,4.029,9,9S45.971,20,41,20z"/>
	</g>
</g>
<g>
</g>
<g>
</g>
<g>
</g>
<g>
</g>
<g>
</g>
<g>
</g>
<g>
</g>
<g>
</g>
<g>
</g>
<g>
</g>
<g>
</g>
<g>
</g>
<g>
</g>
<g>
</g>
<g>
</g>
</svg>
