<?xml version="1.0" encoding="iso-8859-1"?>
<!-- Generator: Adobe Illustrator 16.0.4, SVG Export Plug-In . SVG Version: 6.00 Build 0)  -->
<!DOCTYPE svg PUBLIC "-//W3C//DTD SVG 1.1//EN" "http://www.w3.org/Graphics/SVG/1.1/DTD/svg11.dtd">
<svg version="1.1" id="Layer_1" xmlns="http://www.w3.org/2000/svg" xmlns:xlink="http://www.w3.org/1999/xlink" x="0px" y="0px"
	 width="44px" height="44px" viewBox="0 0 44 44" style="enable-background:new 0 0 44 44;" xml:space="preserve">
<g id="_x37_15-globe-toolbar_x40_2x.png">
	<g>
		<path d="M22,0C9.85,0,0,9.85,0,22s9.85,22,22,22s22-9.85,22-22S34.15,0,22,0z M16.078,2.893c-1.675,1.754-3.09,4.234-4.135,7.194
			C10.45,9.475,9.095,8.721,7.879,7.868C10.143,5.601,12.938,3.865,16.078,2.893z M6.536,9.352c1.431,1.03,3.044,1.922,4.817,2.638
			c-0.765,2.727-1.246,5.766-1.326,9.011H2.051C2.27,16.589,3.919,12.559,6.536,9.352z M2.051,23h7.977
			c0.08,3.245,0.562,6.284,1.326,9.011c-1.773,0.716-3.387,1.607-4.817,2.638C3.919,31.441,2.27,27.411,2.051,23z M7.879,36.132
			c1.216-0.853,2.57-1.606,4.064-2.219c1.045,2.96,2.46,5.441,4.135,7.194C12.938,40.136,10.143,38.4,7.879,36.132z M21,41.899
			c-3.018-0.6-5.633-3.889-7.253-8.645c2.226-0.711,4.677-1.127,7.253-1.217V41.899z M21,30.039c-2.772,0.091-5.414,0.54-7.827,1.31
			c-0.665-2.514-1.074-5.342-1.149-8.349H21V30.039z M21,21h-8.977c0.075-3.007,0.484-5.835,1.15-8.35
			c2.412,0.771,5.054,1.22,7.826,1.311V21z M21,11.962c-2.576-0.09-5.026-0.506-7.253-1.217C15.367,5.989,17.982,2.7,21,2.101
			V11.962z M41.949,21h-7.977c-0.08-3.245-0.562-6.284-1.326-9.011c1.773-0.716,3.387-1.607,4.817-2.638
			C40.081,12.559,41.73,16.589,41.949,21z M36.121,7.868c-1.216,0.853-2.57,1.606-4.064,2.219c-1.045-2.96-2.46-5.44-4.135-7.194
			C31.062,3.865,33.857,5.601,36.121,7.868z M23,2.101c3.018,0.6,5.633,3.889,7.253,8.645c-2.226,0.711-4.677,1.126-7.253,1.217
			V2.101z M23,13.961c2.772-0.091,5.414-0.54,7.827-1.311c0.665,2.515,1.074,5.343,1.149,8.35H23V13.961z M23,23h8.977
			c-0.075,3.007-0.484,5.835-1.149,8.349c-2.413-0.77-5.055-1.219-7.827-1.31V23z M23,41.899v-9.861
			c2.576,0.09,5.027,0.506,7.253,1.217C28.633,38.011,26.018,41.3,23,41.899z M27.922,41.107c1.675-1.753,3.09-4.234,4.135-7.194
			c1.494,0.612,2.85,1.366,4.064,2.219C33.858,38.4,31.062,40.136,27.922,41.107z M37.464,34.648
			c-1.431-1.03-3.044-1.922-4.817-2.638c0.765-2.727,1.246-5.766,1.326-9.011h7.977C41.73,27.411,40.081,31.441,37.464,34.648z"/>
	</g>
</g>
<g>
</g>
<g>
</g>
<g>
</g>
<g>
</g>
<g>
</g>
<g>
</g>
<g>
</g>
<g>
</g>
<g>
</g>
<g>
</g>
<g>
</g>
<g>
</g>
<g>
</g>
<g>
</g>
<g>
</g>
</svg>
