<?xml version="1.0" encoding="iso-8859-1"?>
<!-- Generator: Adobe Illustrator 16.0.4, SVG Export Plug-In . SVG Version: 6.00 Build 0)  -->
<!DOCTYPE svg PUBLIC "-//W3C//DTD SVG 1.1//EN" "http://www.w3.org/Graphics/SVG/1.1/DTD/svg11.dtd">
<svg version="1.1" id="Layer_1" xmlns="http://www.w3.org/2000/svg" xmlns:xlink="http://www.w3.org/1999/xlink" x="0px" y="0px"
	 width="44px" height="44px" viewBox="0 0 44 44" style="enable-background:new 0 0 44 44;" xml:space="preserve">
<g id="_x38_81-globe-toolbar_x40_2x.png">
	<g>
		<path d="M22,0C9.85,0,0,9.85,0,22s9.85,22,22,22s22-9.85,22-22S34.15,0,22,0z M22,42C10.954,42,2,33.046,2,22S10.954,2,22,2
			s20,8.954,20,20S33.046,42,22,42z M21.137,17.225c2.981-1.469,2.236-2.204,3.725-2.204c1.49,0,1.49-2.938-1.489-2.938
			c-2.981,0-1.491,3.674-3.726,1.469c-2.235-2.204,0.745-1.469,2.235-2.938c1.491-1.469-1.49-2.204-2.235-0.734
			c0,0-2.235-2.204-3.726,1.469c0,0-3.494-2.068-4.259-4.079c-1.543,1.086-2.899,2.41-4.033,3.916
			c0.706,0.325,1.518,0.83,2.332,1.633c2.235,2.204,0.745,4.408,0,5.878c-0.745,1.469,2.235,3.673,2.235,3.673
			s2.235,1.47,4.47,2.204c0,0,1.49-0.734-1.49-2.204c0,0-2.235-2.204,0.745-2.938c2.235-0.734,0.745,1.47,2.235,1.47
			S18.157,18.694,21.137,17.225z M26.516,26.437c-0.956-0.706-0.304-1.019-2.786-2.118c-3.437-1.521-5.573,0-5.573,2.118
			c0,4.236,2.786,4.942,2.786,4.942c-0.696,3.53,0,4.941,0.697,5.648c0.696,0.705,1.171,1.756,1.8,1.412
			c0.628-0.345,0.986-4.942,3.076-7.061C28.604,29.261,27.771,27.365,26.516,26.437z M28.157,5.085
			c0.041,0.396-0.009,0.818-0.314,1.119c-0.745,0.735-2.235,2.939,0.745,2.939c0,0-1.49,4.407,0.745,4.407s4.471-4.08,6.394-1.892
			c2.438,2.774-3.413,1.892-3.413,7.035c0,3.771,4.397,6.743,7.043,8.065c0.417-1.521,0.658-3.114,0.658-4.768
			C40.015,14.21,35.069,7.601,28.157,5.085z"/>
	</g>
</g>
<g>
</g>
<g>
</g>
<g>
</g>
<g>
</g>
<g>
</g>
<g>
</g>
<g>
</g>
<g>
</g>
<g>
</g>
<g>
</g>
<g>
</g>
<g>
</g>
<g>
</g>
<g>
</g>
<g>
</g>
</svg>
