<?xml version="1.0" encoding="iso-8859-1"?>
<!-- Generator: Adobe Illustrator 16.0.4, SVG Export Plug-In . SVG Version: 6.00 Build 0)  -->
<!DOCTYPE svg PUBLIC "-//W3C//DTD SVG 1.1//EN" "http://www.w3.org/Graphics/SVG/1.1/DTD/svg11.dtd">
<svg version="1.1" id="Layer_1" xmlns="http://www.w3.org/2000/svg" xmlns:xlink="http://www.w3.org/1999/xlink" x="0px" y="0px"
	 width="35.976px" height="45.588px" viewBox="0 0 35.976 45.588" style="enable-background:new 0 0 35.976 45.588;"
	 xml:space="preserve">
<g id="_x31_030-globe-toolbar_x40_2x.png">
	<g>
		<path d="M29.97,32.756c-0.188,0-0.355,0.063-0.507,0.151l-0.009-0.016c-2.75,1.702-5.981,2.702-9.453,2.702
			c-9.943,0-18.003-8.06-18.003-18.001c0-6.746,3.716-12.616,9.208-15.699l-0.009-0.017c0.312-0.171,0.531-0.49,0.531-0.872
			C11.729,0.45,11.28,0,10.728,0c-0.167,0-0.317,0.052-0.456,0.125L10.27,0.122C4.146,3.542,0,10.079,0,17.593
			c0,10.369,7.887,18.894,17.987,19.903c-0.003,0.032-0.019,0.059-0.019,0.091v6h-6c-0.553,0-1,0.448-1,1.001c0,0.552,0.447,1,1,1
			h14c0.552,0,1-0.448,1-1c0-0.553-0.448-1.001-1-1.001h-6v-5.99c0.011,0,0.021,0.001,0.032,0.001c3.792,0,7.322-1.077,10.344-2.911
			c0.039-0.016,0.07-0.041,0.107-0.062c0.001-0.001,0.004-0.002,0.006-0.003h-0.001c0.312-0.172,0.531-0.487,0.531-0.863
			C30.988,33.204,30.532,32.756,29.97,32.756z M19.984,1.601c-8.832,0-15.992,7.16-15.992,15.992s7.16,15.992,15.992,15.992
			c8.831,0,15.991-7.16,15.991-15.992S28.815,1.601,19.984,1.601z M19.983,31.581c-7.728,0-13.993-6.263-13.993-13.988
			c0-7.725,6.266-13.987,13.993-13.987c7.729,0,13.994,6.263,13.994,13.987C33.978,25.318,27.712,31.581,19.983,31.581z"/>
	</g>
</g>
<g>
</g>
<g>
</g>
<g>
</g>
<g>
</g>
<g>
</g>
<g>
</g>
<g>
</g>
<g>
</g>
<g>
</g>
<g>
</g>
<g>
</g>
<g>
</g>
<g>
</g>
<g>
</g>
<g>
</g>
</svg>
