<?xml version="1.0" encoding="iso-8859-1"?>
<!-- Generator: Adobe Illustrator 16.0.4, SVG Export Plug-In . SVG Version: 6.00 Build 0)  -->
<!DOCTYPE svg PUBLIC "-//W3C//DTD SVG 1.1//EN" "http://www.w3.org/Graphics/SVG/1.1/DTD/svg11.dtd">
<svg version="1.1" id="Layer_1" xmlns="http://www.w3.org/2000/svg" xmlns:xlink="http://www.w3.org/1999/xlink" x="0px" y="0px"
	 width="44px" height="56.004px" viewBox="0 0 44 56.004" style="enable-background:new 0 0 44 56.004;" xml:space="preserve">
<g id="_x31_030-globe_x40_2x.png">
	<g>
		<path d="M37,40.785c-0.163,0-0.312,0.049-0.447,0.118l-0.014-0.025c-3.395,1.976-7.328,3.126-11.539,3.126
			c-12.702,0-23-10.297-23-23C2,13.007,6.086,5.969,12.28,1.848l-0.009-0.012c0.281-0.178,0.479-0.477,0.479-0.834
			C12.75,0.448,12.302,0,11.748,0c-0.239,0-0.45,0.096-0.622,0.235l-0.013-0.017C4.414,4.703,0,12.336,0,21.004
			c0,13.132,10.131,23.877,23,24.899v8.101h-8c-0.553,0-1,0.447-1,1s0.447,1,1,1h18c0.553,0,1-0.447,1-1s-0.447-1-1-1h-8v-8
			c4.497,0,8.702-1.21,12.348-3.289c0.38-0.142,0.652-0.501,0.652-0.93C38,41.233,37.553,40.785,37,40.785z M25,2.004
			c-10.493,0-19,8.507-19,19s8.507,19,19,19s19-8.507,19-19S35.493,2.004,25,2.004z M25,38.004c-9.389,0-17-7.611-17-17
			s7.611-17,17-17s17,7.611,17,17S34.389,38.004,25,38.004z"/>
	</g>
</g>
<g>
</g>
<g>
</g>
<g>
</g>
<g>
</g>
<g>
</g>
<g>
</g>
<g>
</g>
<g>
</g>
<g>
</g>
<g>
</g>
<g>
</g>
<g>
</g>
<g>
</g>
<g>
</g>
<g>
</g>
</svg>
