<?xml version="1.0" encoding="iso-8859-1"?>
<!-- Generator: Adobe Illustrator 16.0.4, SVG Export Plug-In . SVG Version: 6.00 Build 0)  -->
<!DOCTYPE svg PUBLIC "-//W3C//DTD SVG 1.1//EN" "http://www.w3.org/Graphics/SVG/1.1/DTD/svg11.dtd">
<svg version="1.1" id="Layer_1" xmlns="http://www.w3.org/2000/svg" xmlns:xlink="http://www.w3.org/1999/xlink" x="0px" y="0px"
	 width="56px" height="56px" viewBox="0 0 56 56" style="enable-background:new 0 0 56 56;" xml:space="preserve">
<g id="_x37_15-globe_x40_2x.png">
	<g>
		<path d="M28,0C12.536,0,0,12.536,0,28s12.536,28,28,28s28-12.536,28-28S43.464,0,28,0z M21.411,2.875
			c-2.402,2.2-4.442,5.56-5.91,9.688c-2.095-0.891-3.939-1.998-5.488-3.272C13.16,6.268,17.055,4.016,21.411,2.875z M8.643,10.71
			c1.761,1.471,3.866,2.733,6.248,3.736C13.776,18.188,13.105,22.452,13.02,27H2.043C2.281,20.742,4.742,15.07,8.643,10.71z
			 M2.043,29H13.02c0.086,4.549,0.757,8.813,1.871,12.555c-2.382,1.002-4.487,2.265-6.249,3.735C4.742,40.931,2.281,35.258,2.043,29
			z M10.013,46.71c1.549-1.274,3.394-2.382,5.488-3.272c1.468,4.128,3.508,7.487,5.91,9.688
			C17.055,51.985,13.16,49.733,10.013,46.71z M27,53.899c-4.025-0.614-7.528-4.898-9.691-11.175
			c2.913-1.003,6.204-1.586,9.691-1.685V53.899z M27,39.041c-3.688,0.1-7.175,0.723-10.283,1.795
			C15.716,37.32,15.106,33.3,15.024,29H27V39.041z M27,27H15.024c0.082-4.299,0.691-8.319,1.692-11.836
			c3.108,1.072,6.596,1.695,10.283,1.795V27z M27,14.96c-3.487-0.099-6.778-0.682-9.691-1.685C19.472,6.999,22.975,2.716,27,2.102
			V14.96z M53.957,27H42.98c-0.086-4.548-0.757-8.812-1.871-12.554c2.382-1.003,4.487-2.266,6.248-3.736
			C51.258,15.07,53.719,20.742,53.957,27z M45.987,9.29c-1.549,1.274-3.394,2.382-5.488,3.272c-1.468-4.128-3.508-7.487-5.91-9.688
			C38.945,4.016,42.84,6.268,45.987,9.29z M29,2.102c4.025,0.614,7.528,4.897,9.691,11.174c-2.912,1.003-6.204,1.586-9.691,1.685
			V2.102z M29,16.959c3.688-0.1,7.175-0.723,10.283-1.795c1.001,3.517,1.61,7.537,1.692,11.836H29V16.959z M29,29h11.976
			c-0.082,4.3-0.691,8.32-1.692,11.836c-3.108-1.072-6.596-1.695-10.283-1.795V29z M29,53.899V41.04
			c3.487,0.099,6.779,0.682,9.691,1.685C36.528,49.001,33.025,53.285,29,53.899z M34.589,53.125c2.402-2.2,4.442-5.56,5.91-9.688
			c2.095,0.891,3.939,1.998,5.488,3.272C42.84,49.733,38.945,51.985,34.589,53.125z M47.358,45.29
			c-1.762-1.471-3.867-2.733-6.249-3.735c1.114-3.741,1.785-8.006,1.871-12.555h10.977C53.719,35.258,51.258,40.931,47.358,45.29z"
			/>
	</g>
</g>
<g>
</g>
<g>
</g>
<g>
</g>
<g>
</g>
<g>
</g>
<g>
</g>
<g>
</g>
<g>
</g>
<g>
</g>
<g>
</g>
<g>
</g>
<g>
</g>
<g>
</g>
<g>
</g>
<g>
</g>
</svg>
