<?xml version="1.0" encoding="iso-8859-1"?>
<!-- Generator: Adobe Illustrator 16.0.4, SVG Export Plug-In . SVG Version: 6.00 Build 0)  -->
<!DOCTYPE svg PUBLIC "-//W3C//DTD SVG 1.1//EN" "http://www.w3.org/Graphics/SVG/1.1/DTD/svg11.dtd">
<svg version="1.1" id="Layer_1" xmlns="http://www.w3.org/2000/svg" xmlns:xlink="http://www.w3.org/1999/xlink" x="0px" y="0px"
	 width="56px" height="56px" viewBox="0 0 56 56" style="enable-background:new 0 0 56 56;" xml:space="preserve">
<g id="_x38_81-globe_x40_2x.png">
	<g>
		<path d="M34.218,33.539c-1.869-0.961,0.935-0.961-3.739-2.883S23,30.656,23,33.539c0,5.766,3.739,6.727,3.739,6.727
			c-0.935,4.805,0,6.727,0.935,7.688s1.571,2.391,2.415,1.922s1.324-6.727,4.129-9.609S36.088,34.5,34.218,33.539z M45.817,11.961
			C43.239,9.1,39.99,6.869,36.309,5.508C36.238,5.686,36.146,5.855,36,6c-1,1-3,4,1,4c0,0-2,6,1,6
			C40.605,16,43.212,10.729,45.817,11.961z M27,21c4-2,3-3,5-3s2-4-2-4s-2,5-5,2s1-2,3-4s-2-3-3-1c0,0-3-3-5,2
			c0,0-3.979-2.39-5.41-4.906c-2.009,1.356-3.792,3.017-5.306,4.902C10.132,13.439,11.061,14.061,12,15c3,3,1,6,0,8s3,5,3,5s3,2,6,3
			c0,0,2-1-2-3c0,0-3-3,1-4c3-1,1,2,3,2S23,23,27,21z M47.613,14.197C48.25,16.87,42,16.806,42,23c0,5.035,5.679,9.023,9.246,10.872
			C51.721,31.99,52,30.03,52,28C52,22.857,50.368,18.104,47.613,14.197z M28,0C12.536,0,0,12.536,0,28s12.536,28,28,28
			s28-12.536,28-28S43.464,0,28,0z M28,54C13.641,54,2,42.359,2,28S13.641,2,28,2s26,11.641,26,26S42.359,54,28,54z"/>
	</g>
</g>
<g>
</g>
<g>
</g>
<g>
</g>
<g>
</g>
<g>
</g>
<g>
</g>
<g>
</g>
<g>
</g>
<g>
</g>
<g>
</g>
<g>
</g>
<g>
</g>
<g>
</g>
<g>
</g>
<g>
</g>
</svg>
