<?xml version="1.0" encoding="iso-8859-1"?>
<!-- Generator: Adobe Illustrator 16.0.4, SVG Export Plug-In . SVG Version: 6.00 Build 0)  -->
<!DOCTYPE svg PUBLIC "-//W3C//DTD SVG 1.1//EN" "http://www.w3.org/Graphics/SVG/1.1/DTD/svg11.dtd">
<svg version="1.1" id="Layer_1" xmlns="http://www.w3.org/2000/svg" xmlns:xlink="http://www.w3.org/1999/xlink" x="0px" y="0px"
	 width="43.98px" height="44.005px" viewBox="0 0 43.98 44.005" style="enable-background:new 0 0 43.98 44.005;"
	 xml:space="preserve">
<g id="_x31_136-gloves_x40_2x.png">
	<g>
		<path d="M43.518,20.448l-0.462-0.899c-0.177-0.345-0.518-0.541-0.868-0.541c-0.156,0-0.314,0.039-0.462,0.12l-1.259,0.628
			l-0.483-0.912V6.333c0.065-0.785-0.096-1.598-0.52-2.333c-1.105-1.918-3.554-2.575-5.469-1.468
			c-0.802,0.464-1.366,1.168-1.69,1.964c-2.887-4.385-8.714-5.818-13.314-3.157c-3.78,2.187-5.584,6.474-4.806,10.538
			c-0.968,0.694-1.817,1.577-2.508,2.623c-0.323-0.798-0.889-1.504-1.691-1.968C8.07,11.425,5.622,12.083,4.517,14
			c-0.424,0.735-0.584,1.547-0.52,2.333v12.51l-0.483,0.912l-1.259-0.628c-0.147-0.081-0.306-0.12-0.462-0.12
			c-0.351,0-0.691,0.196-0.868,0.541l-0.462,0.899c-1.021,1.989-0.296,4.461,1.62,5.521l15.877,7.677
			c0.442,0.245,0.917,0.36,1.385,0.36c1.054,0,2.074-0.588,2.604-1.621l0.925-1.801c0.255-0.497,0.074-1.115-0.405-1.38l-1.05-0.523
			l2.525-4.771c0.227,0.057,0.457,0.096,0.691,0.096c0.468,0,0.943-0.116,1.385-0.36l15.877-7.677
			C43.813,24.909,44.539,22.437,43.518,20.448z M19.985,3.066C23.81,0.854,28.7,2.167,30.908,5.998
			C30.959,6.087,31,6.18,31.047,6.27l-7.968,4.219l7.981-4.226l0.92,1.738v7.001h0.01c-0.002,0.177,0.024,0.354,0.119,0.519
			c0.279,0.485,0.899,0.652,1.384,0.372c0.328-0.19,0.495-0.537,0.491-0.891h0.004v-0.047c-0.002-0.027,0.004-0.054,0-0.082V6.041
			h0.011c-0.012-0.706,0.34-1.396,0.993-1.774c0.96-0.555,2.187-0.226,2.741,0.735c0.213,0.371,0.293,0.781,0.258,1.178
			l-0.012,14.815l-9.778,4.874l0.627-1.184l-0.016-0.009c2.504-4.732,0.847-10.637-3.822-13.337
			c-0.618-0.357-1.259-0.638-1.911-0.851c-2.349-0.766-4.849-0.604-7.038,0.342C15.723,7.785,17.166,4.696,19.985,3.066z
			 M13.072,15.998c2.209-3.831,7.099-5.144,10.923-2.933c3.739,2.163,5.066,6.892,3.061,10.682L12.934,16.27
			C12.981,16.18,13.021,16.086,13.072,15.998z M20.173,41.468c-0.203,0.395-0.561,0.535-0.828,0.535
			c-0.146,0-0.286-0.037-0.419-0.11c-0.032-0.018-0.064-0.035-0.098-0.051L3.01,34.193c-0.947-0.552-1.293-1.811-0.771-2.828
			l0.004-0.007l18.409,9.176L20.173,41.468z M19.629,37.788L6.001,30.995L5.989,16.179c-0.035-0.396,0.045-0.807,0.258-1.178
			c0.555-0.961,1.781-1.29,2.741-0.735c0.653,0.378,1.005,1.068,0.993,1.774h0.011v8.833c-0.004,0.028,0.002,0.055,0,0.082v0.047
			h0.004c-0.004,0.354,0.163,0.7,0.491,0.891c0.484,0.28,1.104,0.113,1.384-0.372c0.095-0.164,0.121-0.342,0.119-0.519H12v-7.001
			l0.92-1.738l14.141,7.486L19.629,37.788z M40.971,24.193l-15.818,7.649c-0.033,0.016-0.065,0.033-0.098,0.051
			c-0.016,0.008-0.033,0.005-0.049,0.013l1.588-2.999l15.144-7.549l0.004,0.007C42.264,22.382,41.918,23.641,40.971,24.193z"/>
	</g>
</g>
<g>
</g>
<g>
</g>
<g>
</g>
<g>
</g>
<g>
</g>
<g>
</g>
<g>
</g>
<g>
</g>
<g>
</g>
<g>
</g>
<g>
</g>
<g>
</g>
<g>
</g>
<g>
</g>
<g>
</g>
</svg>
