<?xml version="1.0" encoding="UTF-8" standalone="no"?>
<svg width="58px" height="58px" viewBox="0 0 58 58" version="1.1" xmlns="http://www.w3.org/2000/svg" xmlns:xlink="http://www.w3.org/1999/xlink" xmlns:sketch="http://www.bohemiancoding.com/sketch/ns">
    <!-- Generator: Sketch 3.0.4 (8053) - http://www.bohemiancoding.com/sketch -->
    <title>1290-gmail</title>
    <desc>Created with Sketch.</desc>
    <defs></defs>
    <g id="Page-1" stroke="none" stroke-width="1" fill="none" fill-rule="evenodd" sketch:type="MSPage">
        <g id="Glyphish-8-Icons" sketch:type="MSArtboardGroup" transform="translate(-884.000000, -1747.000000)" fill="#000000">
            <g id="1290-gmail" sketch:type="MSLayerGroup" transform="translate(884.036996, 1747.860499)">
                <g id="_x31_290-gmail_x40_2x.png" sketch:type="MSShapeGroup">
                    <path d="M11.986,39.982 L44.013,39.982 L44.013,16.019 L11.986,16.019 L11.986,39.982 L11.986,39.982 Z M16.394,38.011 L24.724,30.721 L28,34 L31.276,30.721 L39.607,38.011 L16.394,38.011 L16.394,38.011 Z M39.985,36.467 L32.275,29.721 L39.985,22.003 L39.985,36.467 L39.985,36.467 Z M38.435,17.99 L28,28 L17.565,17.99 L38.435,17.99 L38.435,17.99 Z M16.015,22.003 L23.725,29.721 L16.015,36.467 L16.015,22.003 L16.015,22.003 Z M28,0 C12.536,0 0,12.536 0,28 C0,43.464 12.536,56 28,56 C43.464,56 56,43.464 56,28 C56,12.536 43.464,0 28,0 L28,0 Z M28,54 C13.641,54 2,42.359 2,28 C2,13.641 13.641,2 28,2 C42.359,2 54,13.641 54,28 C54,42.359 42.359,54 28,54 L28,54 Z" id="Shape"></path>
                </g>
            </g>
        </g>
    </g>
</svg>