<?xml version="1.0" encoding="iso-8859-1"?>
<!-- Generator: Adobe Illustrator 16.0.4, SVG Export Plug-In . SVG Version: 6.00 Build 0)  -->
<!DOCTYPE svg PUBLIC "-//W3C//DTD SVG 1.1//EN" "http://www.w3.org/Graphics/SVG/1.1/DTD/svg11.dtd">
<svg version="1.1" id="Layer_1" xmlns="http://www.w3.org/2000/svg" xmlns:xlink="http://www.w3.org/1999/xlink" x="0px" y="0px"
	 width="44px" height="44px" viewBox="0 0 44 44" style="enable-background:new 0 0 44 44;" xml:space="preserve">
<g id="_x37_90-golf-toolbar_x40_2x.png">
	<g>
		<path d="M40,32c-2.209,0-4,1.791-4,4s1.791,4,4,4s4-1.791,4-4S42.209,32,40,32z M40,38c-1.104,0-2-0.896-2-2s0.896-2,2-2
			s2,0.896,2,2S41.104,38,40,38z M18,32.018v-8.851l13.428-6.263l-0.003-0.007C31.763,16.737,32,16.398,32,16
			s-0.237-0.736-0.575-0.896l0.003-0.007L18.111,8.886C19.254,7.97,20,6.579,20,5c0-2.761-2.238-5-5-5s-5,2.239-5,5
			c0,1.631,0.792,3.064,2,3.978v23.298C5.057,33.029,0,35.302,0,38c0,3.313,7.611,6,17,6s17-2.687,17-6
			C34,34.806,26.921,32.201,18,32.018z M12,41.768C6.178,41.218,2,39.741,2,38c0-1.74,4.178-3.217,10-3.766V41.768z M28.664,16
			L18,20.955v-9.91L28.664,16z M16,42.725c-0.685-0.064-1.35-0.142-2-0.227V9.899C14.323,9.965,14.657,10,15,10s0.677-0.035,1-0.101
			V42.725z M15,8c-1.657,0-3-1.343-3-3c0-1.656,1.343-3,3-3s3,1.344,3,3C18,6.657,16.657,8,15,8z M18,41.986v-7.973
			c7.815,0.138,14,1.867,14,3.986S25.815,41.849,18,41.986z"/>
	</g>
</g>
<g>
</g>
<g>
</g>
<g>
</g>
<g>
</g>
<g>
</g>
<g>
</g>
<g>
</g>
<g>
</g>
<g>
</g>
<g>
</g>
<g>
</g>
<g>
</g>
<g>
</g>
<g>
</g>
<g>
</g>
</svg>
