<?xml version="1.0" encoding="iso-8859-1"?>
<!-- Generator: Adobe Illustrator 16.0.4, SVG Export Plug-In . SVG Version: 6.00 Build 0)  -->
<!DOCTYPE svg PUBLIC "-//W3C//DTD SVG 1.1//EN" "http://www.w3.org/Graphics/SVG/1.1/DTD/svg11.dtd">
<svg version="1.1" id="Layer_1" xmlns="http://www.w3.org/2000/svg" xmlns:xlink="http://www.w3.org/1999/xlink" x="0px" y="0px"
	 width="56px" height="36px" viewBox="0 0 56 36" style="enable-background:new 0 0 56 36;" xml:space="preserve">
<g id="_x31_061-golf-shot_x40_2x.png">
	<g>
		<path d="M21.046,14.463c-0.609-0.371-1.291-0.674-2.026-0.9c-0.528-0.16-1.089,0.115-1.258,0.619
			c-0.169,0.503,0.121,1.043,0.646,1.204c0.573,0.176,1.099,0.409,1.563,0.693c0.167,0.101,0.353,0.149,0.536,0.149
			c0.331,0,0.654-0.156,0.844-0.443C21.649,15.339,21.512,14.747,21.046,14.463z M8.533,14.306
			c-0.672,0.321-1.304,0.708-1.878,1.148c-0.438,0.337-0.521,0.964-0.185,1.401c0.197,0.258,0.494,0.393,0.794,0.393
			c0.212,0,0.427-0.067,0.608-0.207c0.465-0.355,0.978-0.67,1.524-0.932c0.499-0.238,0.709-0.836,0.47-1.333
			C9.627,14.277,9.029,14.068,8.533,14.306z M14.787,13.001c-0.003,0-0.007,0-0.011,0c-0.729,0.008-1.437,0.055-2.105,0.138
			c-0.548,0.068-0.937,0.566-0.869,1.115c0.063,0.507,0.494,0.877,0.991,0.877c0.042,0,0.083-0.002,0.125-0.008
			c0.594-0.074,1.227-0.115,1.881-0.122c0.552-0.007,0.995-0.46,0.989-1.011C15.781,13.441,15.334,13.001,14.787,13.001z
			 M3.555,22.039c0.109,0.039,0.22,0.057,0.33,0.057c0.414,0,0.8-0.258,0.944-0.672c0.208-0.596,0.457-1.157,0.74-1.672
			c0.267-0.483,0.09-1.092-0.394-1.358s-1.092-0.091-1.358,0.394c-0.337,0.611-0.632,1.277-0.877,1.979
			C2.758,21.287,3.033,21.857,3.555,22.039z M24.86,19.523c-0.253-0.707-0.529-1.328-0.844-1.896
			c-0.259-0.468-0.864-0.646-1.352-0.398c-0.488,0.248-0.674,0.827-0.416,1.294c0.266,0.48,0.501,1.011,0.72,1.621
			c0.142,0.397,0.53,0.647,0.946,0.647c0.107,0,0.217-0.018,0.325-0.052C24.762,20.567,25.04,20.023,24.86,19.523z M3,30
			c-1.657,0-3,1.344-3,3c0,1.657,1.343,3,3,3s3-1.343,3-3C6,31.344,4.657,30,3,30z M3,34c-0.552,0-1-0.447-1-1s0.448-1,1-1
			s1,0.447,1,1S3.552,34,3,34z M2.99,28c0.552,0,1-0.447,1-1c0-0.658,0.028-1.299,0.083-1.908c0.05-0.549-0.356-1.035-0.906-1.086
			c-0.549-0.051-1.036,0.357-1.086,0.907C2.021,25.58,1.99,26.281,1.99,27C1.99,27.553,2.438,28,2.99,28z M46.553,27.205
			c-0.527-0.161-1.09,0.117-1.257,0.62c-0.194,0.581-0.428,1.131-0.693,1.635c-0.249,0.471-0.052,1.047,0.442,1.285
			c0.145,0.07,0.298,0.103,0.449,0.103c0.366,0,0.718-0.192,0.894-0.526c0.313-0.593,0.586-1.235,0.812-1.913
			C47.368,27.906,47.079,27.366,46.553,27.205z M42.41,32.148c-0.45,0.358-0.947,0.672-1.479,0.93
			c-0.492,0.239-0.688,0.816-0.438,1.287c0.178,0.332,0.528,0.523,0.893,0.523c0.153,0,0.308-0.033,0.453-0.104
			c0.663-0.323,1.286-0.715,1.851-1.165c0.425-0.338,0.483-0.941,0.13-1.349C43.466,31.866,42.834,31.811,42.41,32.148z
			 M46.913,22.004c-0.55,0.043-0.961,0.521-0.921,1.072c0.002,0.018,0.019,0.252,0.019,0.643c0,0.281-0.009,0.639-0.036,1.053
			c-0.036,0.551,0.382,1.027,0.933,1.063c0.022,0.001,0.044,0.002,0.066,0.002c0.522,0,0.963-0.406,0.997-0.935
			c0.03-0.465,0.04-0.867,0.04-1.184c0-0.504-0.023-0.796-0.023-0.796C47.942,22.373,47.467,21.951,46.913,22.004z M56,6
			c0-0.357-0.197-0.656-0.479-0.833l0.01-0.015l-8-5l-0.01,0.015C47.367,0.07,47.195,0,47,0c-0.553,0-1,0.447-1,1v13.184
			c-1.162,0.413-2,1.512-2,2.816c0,1.657,1.343,3,3,3s3-1.343,3-3c0-1.305-0.838-2.403-2-2.816v-2.629l7.53-4.707l-0.01-0.015
			C55.803,6.656,56,6.357,56,6z M47,18c-0.553,0-1-0.447-1-1s0.447-1,1-1s1,0.447,1,1S47.553,18,47,18z M48,9.195V2.805L53.113,6
			L48,9.195z M37.46,34.014c-0.47,0.048-0.965,0.071-1.47,0.071l-0.399-0.005c-0.515-0.01-1.009,0.408-1.021,0.937
			c-0.012,0.529,0.427,0.967,0.979,0.979L35.99,36c0.573,0,1.138-0.027,1.677-0.081c0.55-0.055,0.949-0.525,0.892-1.052
			C38.502,34.342,38.017,33.967,37.46,34.014z M26.291,25.225l-0.404-1.874c-0.112-0.519-0.646-0.85-1.182-0.743
			c-0.541,0.107-0.888,0.614-0.776,1.132l0.152,0.71c0.083,0.392,0.167,0.783,0.254,1.174c0.1,0.449,0.515,0.758,0.977,0.758
			c0.069,0,0.139-0.007,0.209-0.021C26.061,26.25,26.406,25.741,26.291,25.225z M27.297,28.79c-0.192-0.496-0.767-0.75-1.284-0.567
			c-0.519,0.184-0.784,0.734-0.593,1.229c0.269,0.697,0.562,1.312,0.896,1.878c0.184,0.312,0.522,0.486,0.872,0.486
			c0.167,0,0.335-0.04,0.491-0.123c0.48-0.261,0.65-0.845,0.379-1.305C27.776,29.912,27.528,29.39,27.297,28.79z M31.979,33.532
			c-0.575-0.188-1.104-0.429-1.577-0.716c-0.466-0.286-1.085-0.151-1.381,0.294c-0.295,0.446-0.158,1.038,0.309,1.321
			c0.604,0.368,1.277,0.675,2,0.912c0.107,0.035,0.217,0.052,0.324,0.052c0.416,0,0.804-0.249,0.946-0.646
			C32.779,34.248,32.502,33.704,31.979,33.532z"/>
	</g>
</g>
<g>
</g>
<g>
</g>
<g>
</g>
<g>
</g>
<g>
</g>
<g>
</g>
<g>
</g>
<g>
</g>
<g>
</g>
<g>
</g>
<g>
</g>
<g>
</g>
<g>
</g>
<g>
</g>
<g>
</g>
</svg>
