<?xml version="1.0" encoding="iso-8859-1"?>
<!-- Generator: Adobe Illustrator 16.0.4, SVG Export Plug-In . SVG Version: 6.00 Build 0)  -->
<!DOCTYPE svg PUBLIC "-//W3C//DTD SVG 1.1//EN" "http://www.w3.org/Graphics/SVG/1.1/DTD/svg11.dtd">
<svg version="1.1" id="Layer_1" xmlns="http://www.w3.org/2000/svg" xmlns:xlink="http://www.w3.org/1999/xlink" x="0px" y="0px"
	 width="56px" height="56px" viewBox="0 0 56 56" style="enable-background:new 0 0 56 56;" xml:space="preserve">
<g id="_x37_90-golf_x40_2x.png">
	<g>
		<path d="M22,40c-1.368,0-2.701,0.052-4,0.139V27.159l17.428-8.255l-0.003-0.007C35.763,18.737,36,18.398,36,18
			s-0.237-0.736-0.575-0.897l0.003-0.006l-17.332-8.21C19.245,7.972,20,6.583,20,5c0-2.761-2.238-5-5-5s-5,2.239-5,5
			c0,1.631,0.792,3.064,2,3.978v31.903C4.882,42.205,0,44.893,0,48c0,4.418,9.85,8,22,8s22-3.582,22-8S34.15,40,22,40z M12,53.191
			C6.027,52.153,2,50.22,2,48s4.027-4.152,10-5.19V53.191z M32.664,18L18,24.946V11.054L32.664,18z M16,53.725
			c-0.685-0.064-1.35-0.142-2-0.227V9.899C14.323,9.965,14.657,10,15,10s0.677-0.035,1-0.101V53.725z M15,8c-1.657,0-3-1.343-3-3
			s1.343-3,3-3s3,1.343,3,3S16.657,8,15,8z M22,54c-1.37,0-2.707-0.041-4-0.12V42.121C19.293,42.042,20.63,42,22,42
			c11.046,0,20,2.687,20,6S33.046,54,22,54z M52,44c-2.209,0-4,1.791-4,4s1.791,4,4,4s4-1.791,4-4S54.209,44,52,44z M52,50
			c-1.104,0-2-0.896-2-2s0.896-2,2-2s2,0.896,2,2S53.104,50,52,50z"/>
	</g>
</g>
<g>
</g>
<g>
</g>
<g>
</g>
<g>
</g>
<g>
</g>
<g>
</g>
<g>
</g>
<g>
</g>
<g>
</g>
<g>
</g>
<g>
</g>
<g>
</g>
<g>
</g>
<g>
</g>
<g>
</g>
</svg>
