<?xml version="1.0" encoding="iso-8859-1"?>
<!-- Generator: Adobe Illustrator 16.0.4, SVG Export Plug-In . SVG Version: 6.00 Build 0)  -->
<!DOCTYPE svg PUBLIC "-//W3C//DTD SVG 1.1//EN" "http://www.w3.org/Graphics/SVG/1.1/DTD/svg11.dtd">
<svg version="1.1" id="Layer_1" xmlns="http://www.w3.org/2000/svg" xmlns:xlink="http://www.w3.org/1999/xlink" x="0px" y="0px"
	 width="44px" height="36px" viewBox="0 0 44 36" style="enable-background:new 0 0 44 36;" xml:space="preserve">
<g id="_x31_061-golf-shot-toolbar_x40_2x.png">
	<g>
		<path d="M7.812,15.561c-0.366,0.131-0.72,0.289-1.052,0.469c-0.486,0.264-0.667,0.87-0.403,1.355
			c0.181,0.334,0.525,0.523,0.88,0.523c0.161,0,0.324-0.038,0.475-0.12c0.244-0.132,0.505-0.248,0.776-0.347
			c0.52-0.187,0.79-0.759,0.603-1.279C8.905,15.643,8.332,15.373,7.812,15.561z M12.204,15.1c-0.353-0.034-0.716-0.057-1.09-0.057
			c-0.003,0-0.005,0-0.008,0c-0.548,0-0.995,0.442-1,0.992c-0.005,0.552,0.439,1.004,0.992,1.008
			c0.312,0.003,0.616,0.019,0.911,0.048c0.033,0.003,0.066,0.005,0.099,0.005c0.509,0,0.944-0.387,0.994-0.902
			C13.155,15.643,12.753,15.153,12.204,15.1z M18.617,21.461c0.513-0.203,0.765-0.784,0.562-1.298
			c-0.141-0.356-0.302-0.7-0.478-1.02c-0.266-0.483-0.874-0.66-1.358-0.396c-0.484,0.267-0.661,0.875-0.395,1.358
			c0.137,0.25,0.261,0.515,0.371,0.793c0.155,0.393,0.532,0.632,0.93,0.632C18.371,21.531,18.496,21.509,18.617,21.461z M4.2,18.316
			c-0.212,0.298-0.411,0.618-0.593,0.953c-0.264,0.485-0.083,1.092,0.402,1.355c0.152,0.082,0.315,0.121,0.476,0.121
			c0.355,0,0.699-0.189,0.88-0.523c0.142-0.262,0.297-0.512,0.465-0.748c0.32-0.449,0.215-1.074-0.235-1.395
			C5.143,17.76,4.519,17.867,4.2,18.316z M16.428,16.576c-0.31-0.219-0.644-0.418-0.992-0.59c-0.495-0.246-1.094-0.044-1.34,0.45
			c-0.246,0.495-0.044,1.095,0.451,1.341c0.257,0.127,0.502,0.273,0.729,0.434c0.175,0.123,0.376,0.183,0.575,0.183
			c0.314,0,0.624-0.147,0.818-0.424C16.987,17.518,16.879,16.894,16.428,16.576z M3.101,24.533c0.055,0.01,0.11,0.014,0.164,0.014
			c0.481,0,0.905-0.348,0.986-0.838c0.052-0.313,0.112-0.621,0.181-0.923c0.124-0.538-0.213-1.075-0.751-1.198
			c-0.535-0.125-1.075,0.213-1.198,0.751c-0.078,0.341-0.147,0.689-0.206,1.046C2.187,23.93,2.556,24.443,3.101,24.533z M44,6
			c0-0.357-0.197-0.656-0.479-0.833l0.01-0.015l-8-5l-0.01,0.015C35.367,0.07,35.195,0,35,0c-0.553,0-1,0.447-1,1v10v3.184
			c-1.162,0.413-2,1.512-2,2.816c0,1.657,1.343,3,3,3s3-1.343,3-3c0-1.305-0.838-2.403-2-2.816v-2.629l7.53-4.707l-0.01-0.015
			C43.803,6.656,44,6.357,44,6z M35,18c-0.553,0-1-0.447-1-1s0.447-1,1-1s1,0.447,1,1S35.553,18,35,18z M36,9.195V2.805L41.113,6
			L36,9.195z M3,30c-1.657,0-3,1.344-3,3c0,1.657,1.343,3,3,3s3-1.343,3-3C6,31.344,4.657,30,3,30z M3,34c-0.552,0-1-0.447-1-1
			s0.448-1,1-1s1,0.447,1,1S3.552,34,3,34z M3,28.043c0.552,0,1-0.322,1-0.875l0.005-0.573c0.011-0.552-0.427-0.958-0.979-0.958
			c-0.007,0-0.014,0-0.021,0c-0.542,0-0.988,0.341-1,0.886C2.001,26.695,2,26.868,2,27.043C2,27.596,2.448,28.043,3,28.043z
			 M34.845,25.615c-0.534-0.129-1.077,0.199-1.207,0.735c-0.074,0.306-0.159,0.599-0.253,0.878
			c-0.178,0.523,0.104,1.091,0.627,1.268c0.106,0.036,0.214,0.053,0.319,0.053c0.418,0,0.808-0.263,0.948-0.68
			c0.112-0.334,0.214-0.684,0.302-1.046C35.711,26.286,35.381,25.745,34.845,25.615z M19.024,25.043c0.552,0,0.984-0.29,0.965-0.842
			c-0.013-0.366-0.037-0.529-0.071-0.874c-0.055-0.549-0.538-0.973-1.094-0.921c-0.55,0.055-0.951,0.493-0.896,1.043
			c0.03,0.302,0.051,0.512,0.062,0.832c0.019,0.541,0.462,0.762,0.999,0.762C19.001,25.043,19.013,25.043,19.024,25.043z
			 M32.149,29.583c-0.182,0.233-0.374,0.45-0.576,0.649c-0.394,0.387-0.399,1.021-0.013,1.414c0.196,0.199,0.455,0.299,0.713,0.299
			c0.254,0,0.507-0.096,0.702-0.287c0.264-0.261,0.519-0.546,0.753-0.849c0.339-0.436,0.261-1.063-0.176-1.403
			C33.116,29.068,32.488,29.146,32.149,29.583z M35,22.105c-0.552,0-1,0.509-1,1.062c0,0.161-0.007,0.444-0.006,0.601
			c0,0.553,0.412,1.088,0.973,1.088c0.004-0.008,0.018,0,0.027,0c0.54,0,0.984-0.477,0.999-1.02C35.998,23.662,36,23.253,36,23.074
			C36,22.521,35.552,22.105,35,22.105z M29.406,31.618c-0.265,0.1-0.544,0.184-0.831,0.25c-0.538,0.124-0.873,0.661-0.749,1.199
			c0.106,0.463,0.518,0.775,0.973,0.775c0.075,0,0.151-0.008,0.227-0.025c0.373-0.087,0.739-0.197,1.087-0.328
			c0.518-0.195,0.777-0.772,0.583-1.289C30.499,31.684,29.92,31.425,29.406,31.618z M20.578,27.979
			c-0.114-0.264-0.211-0.538-0.292-0.823c-0.152-0.53-0.708-0.84-1.236-0.688c-0.531,0.151-0.839,0.705-0.688,1.236
			c0.104,0.363,0.231,0.722,0.379,1.065c0.163,0.378,0.532,0.604,0.919,0.604c0.132,0,0.266-0.026,0.395-0.082
			C20.562,29.074,20.796,28.485,20.578,27.979z M22.055,30.105c-0.398-0.382-1.032-0.371-1.414,0.029
			c-0.382,0.398-0.369,1.031,0.029,1.414c0.271,0.26,0.563,0.506,0.869,0.729c0.178,0.131,0.385,0.193,0.59,0.193
			c0.308,0,0.611-0.142,0.808-0.409c0.326-0.445,0.23-1.07-0.215-1.397C22.488,30.494,22.265,30.308,22.055,30.105z M25.951,31.967
			c-0.293-0.041-0.58-0.1-0.864-0.175c-0.535-0.145-1.081,0.174-1.224,0.708c-0.143,0.533,0.175,1.081,0.709,1.224
			c0.358,0.096,0.729,0.171,1.1,0.224c0.047,0.007,0.094,0.01,0.142,0.01c0.489,0,0.918-0.361,0.988-0.86
			C26.879,32.55,26.498,32.044,25.951,31.967z"/>
	</g>
</g>
<g>
</g>
<g>
</g>
<g>
</g>
<g>
</g>
<g>
</g>
<g>
</g>
<g>
</g>
<g>
</g>
<g>
</g>
<g>
</g>
<g>
</g>
<g>
</g>
<g>
</g>
<g>
</g>
<g>
</g>
</svg>
