<?xml version="1.0" encoding="iso-8859-1"?>
<!-- Generator: Adobe Illustrator 16.0.4, SVG Export Plug-In . SVG Version: 6.00 Build 0)  -->
<!DOCTYPE svg PUBLIC "-//W3C//DTD SVG 1.1//EN" "http://www.w3.org/Graphics/SVG/1.1/DTD/svg11.dtd">
<svg version="1.1" id="Layer_1" xmlns="http://www.w3.org/2000/svg" xmlns:xlink="http://www.w3.org/1999/xlink" x="0px" y="0px"
	 width="44px" height="44px" viewBox="0 0 44 44" style="enable-background:new 0 0 44 44;" xml:space="preserve">
<g id="_x31_265-google_x40_2x.png">
	<g>
		<path d="M22,0C9.85,0,0,9.85,0,22s9.85,22,22,22s22-9.85,22-22S34.15,0,22,0z M22,42C10.954,42,2,33.046,2,22S10.954,2,22,2
			s20,8.954,20,20S33.046,42,22,42z M29.015,9.999h-7.203c-3.229,0-6.269,2.525-6.269,5.449c0,2.989,2.202,5.4,5.487,5.4
			c0.228,0,0.45-0.005,0.667-0.021c-0.213,0.421-0.366,0.896-0.366,1.389c0,0.83,0.433,1.504,0.98,2.053
			c-0.414,0-0.813,0.013-1.249,0.013c-4,0-7.079,2.629-7.079,5.354c0,2.685,3.204,4.364,7.204,4.364c4.56,0,7.079-2.67,7.079-5.354
			c0-2.153-0.488-3.484-2.391-4.873c-0.651-0.476-1.854-1.59-1.854-2.271c0-0.796,0.221-1.188,1.382-2.126
			c1.191-0.961,2.035-2.311,2.035-3.882c0-1.869-0.807-3.692-2.322-4.293h2.284L29.015,9.999z M26.328,28.183
			c0.058,0.249,0.088,0.505,0.088,0.767c0,2.17-1.354,3.865-5.241,3.865c-2.765,0-4.591-1.807-4.591-3.976
			c0-2.126,2.477-3.896,5.241-3.865c0.646,0.007,1.247,0.114,1.792,0.296C25.119,26.347,26.024,26.955,26.328,28.183z
			 M22.072,20.092c-1.856-0.058-3.62-2.143-3.939-4.657c-0.321-2.516,0.924-4.439,2.779-4.383c1.855,0.058,3.619,2.075,3.94,4.59
			C25.171,18.156,23.927,20.148,22.072,20.092z"/>
	</g>
</g>
<g>
</g>
<g>
</g>
<g>
</g>
<g>
</g>
<g>
</g>
<g>
</g>
<g>
</g>
<g>
</g>
<g>
</g>
<g>
</g>
<g>
</g>
<g>
</g>
<g>
</g>
<g>
</g>
<g>
</g>
</svg>
