<?xml version="1.0" encoding="iso-8859-1"?>
<!-- Generator: Adobe Illustrator 16.0.4, SVG Export Plug-In . SVG Version: 6.00 Build 0)  -->
<!DOCTYPE svg PUBLIC "-//W3C//DTD SVG 1.1//EN" "http://www.w3.org/Graphics/SVG/1.1/DTD/svg11.dtd">
<svg version="1.1" id="Layer_1" xmlns="http://www.w3.org/2000/svg" xmlns:xlink="http://www.w3.org/1999/xlink" x="0px" y="0px"
	 width="44px" height="44px" viewBox="0 0 44 44" style="enable-background:new 0 0 44 44;" xml:space="preserve">
<g id="_x31_266-googleplus_x40_2x.png">
	<g>
		<path d="M22,0C9.85,0,0,9.85,0,22s9.85,22,22,22s22-9.85,22-22S34.15,0,22,0z M22,42C10.954,42,2,33.046,2,22S10.954,2,22,2
			s20,8.954,20,20S33.046,42,22,42z M31.393,9.992h-1.523v4.501h-4.59v1.496h4.59v4.514h1.523v-4.514h4.594v-1.496h-4.594V9.992z
			 M22.092,23.773c-0.662-0.476-1.886-1.59-1.886-2.271c0-0.796,0.225-1.188,1.406-2.126c1.213-0.961,2.07-2.311,2.07-3.882
			c0-1.869-0.821-3.692-2.362-4.293h2.324l1.641-1.203h-7.331c-3.286,0-6.379,2.525-6.379,5.449c0,2.989,2.24,5.4,5.584,5.4
			c0.232,0,0.458-0.005,0.679-0.021c-0.217,0.421-0.371,0.896-0.371,1.389c0,0.83,0.44,1.504,0.997,2.053
			c-0.421,0-0.827,0.013-1.271,0.013c-4.07,0-7.204,2.629-7.204,5.354c0,2.685,3.261,4.364,7.332,4.364
			c4.641,0,7.203-2.67,7.203-5.354C24.524,26.493,24.028,25.162,22.092,23.773z M18.22,20.092c-1.889-0.058-3.684-2.143-4.01-4.657
			c-0.326-2.516,0.94-4.439,2.828-4.383c1.889,0.058,3.685,2.075,4.011,4.59C21.374,18.156,20.107,20.148,18.22,20.092z
			 M17.307,32.814c-2.814,0-4.672-1.807-4.672-3.976c0-2.126,2.521-3.896,5.333-3.865c0.657,0.007,1.269,0.114,1.824,0.296
			c1.527,1.077,2.449,1.686,2.759,2.913c0.058,0.249,0.09,0.505,0.09,0.767C22.641,31.119,21.262,32.814,17.307,32.814z"/>
	</g>
</g>
<g>
</g>
<g>
</g>
<g>
</g>
<g>
</g>
<g>
</g>
<g>
</g>
<g>
</g>
<g>
</g>
<g>
</g>
<g>
</g>
<g>
</g>
<g>
</g>
<g>
</g>
<g>
</g>
<g>
</g>
</svg>
