<?xml version="1.0" encoding="UTF-8" standalone="no"?>
<svg width="58px" height="58px" viewBox="0 0 58 58" version="1.1" xmlns="http://www.w3.org/2000/svg" xmlns:xlink="http://www.w3.org/1999/xlink" xmlns:sketch="http://www.bohemiancoding.com/sketch/ns">
    <!-- Generator: Sketch 3.0.4 (8053) - http://www.bohemiancoding.com/sketch -->
    <title>1266-googleplus</title>
    <desc>Created with Sketch.</desc>
    <defs></defs>
    <g id="Page-1" stroke="none" stroke-width="1" fill="none" fill-rule="evenodd" sketch:type="MSPage">
        <g id="Glyphish-8-Icons" sketch:type="MSArtboardGroup" transform="translate(-500.000000, -1555.000000)" fill="#000000">
            <g id="1266-googleplus" sketch:type="MSLayerGroup" transform="translate(500.036996, 1555.860499)">
                <g id="_x31_266-googleplus_x40_2x.png" sketch:type="MSShapeGroup">
                    <path d="M27.826,30.363 C26.96,29.729 25.359,28.244 25.359,27.338 C25.359,26.276 25.653,25.754 27.199,24.505 C28.785,23.225 29.907,21.426 29.907,19.334 C29.907,16.842 28.833,14.414 26.817,13.612 L29.856,13.612 L32.002,12.01 L22.415,12.01 C18.117,12.01 14.071,15.373 14.071,19.27 C14.071,23.252 17.002,26.466 21.375,26.466 C21.679,26.466 21.974,26.459 22.263,26.438 C21.98,27 21.777,27.631 21.777,28.288 C21.777,29.394 22.353,30.292 23.082,31.024 C22.531,31.024 22,31.041 21.421,31.041 C16.097,31.041 11.999,34.543 11.999,38.176 C11.999,41.752 16.264,43.99 21.587,43.99 C27.657,43.99 31.01,40.432 31.01,36.855 C31.009,33.986 30.359,32.214 27.826,30.363 L27.826,30.363 Z M22.762,25.457 C20.292,25.381 17.944,22.603 17.518,19.252 C17.091,15.901 18.748,13.337 21.217,13.413 C23.687,13.489 26.035,16.178 26.462,19.528 C26.887,22.879 25.23,25.533 22.762,25.457 L22.762,25.457 Z M21.567,42.408 C17.886,42.408 15.457,40.002 15.457,37.112 C15.457,34.279 18.754,31.921 22.433,31.962 C23.292,31.971 24.092,32.114 24.819,32.357 C26.817,33.793 28.023,34.603 28.426,36.239 C28.503,36.57 28.544,36.912 28.544,37.26 C28.544,40.149 26.74,42.408 21.567,42.408 L21.567,42.408 Z M39.991,12.001 L37.998,12.001 L37.998,17.998 L31.995,17.998 L31.995,19.991 L37.998,19.991 L37.998,26.005 L39.991,26.005 L39.991,19.991 L46,19.991 L46,17.998 L39.991,17.998 L39.991,12.001 L39.991,12.001 Z M28,0 C12.536,0 0,12.536 0,28 C0,43.464 12.536,56 28,56 C43.464,56 56,43.464 56,28 C56,12.536 43.464,0 28,0 L28,0 Z M28,54 C13.641,54 2,42.359 2,28 C2,13.641 13.641,2 28,2 C42.359,2 54,13.641 54,28 C54,42.359 42.359,54 28,54 L28,54 Z" id="Shape"></path>
                </g>
            </g>
        </g>
    </g>
</svg>