<?xml version="1.0" encoding="UTF-8" standalone="no"?>
<svg width="58px" height="58px" viewBox="0 0 58 58" version="1.1" xmlns="http://www.w3.org/2000/svg" xmlns:xlink="http://www.w3.org/1999/xlink" xmlns:sketch="http://www.bohemiancoding.com/sketch/ns">
    <!-- Generator: Sketch 3.0.4 (8053) - http://www.bohemiancoding.com/sketch -->
    <title>1265-google</title>
    <desc>Created with Sketch.</desc>
    <defs></defs>
    <g id="Page-1" stroke="none" stroke-width="1" fill="none" fill-rule="evenodd" sketch:type="MSPage">
        <g id="Glyphish-8-Icons" sketch:type="MSArtboardGroup" transform="translate(-404.000000, -1555.000000)" fill="#000000">
            <g id="1265-google" sketch:type="MSLayerGroup" transform="translate(404.036996, 1555.860499)">
                <g id="_x31_265-google_x40_2x.png" sketch:type="MSShapeGroup">
                    <path d="M28,0 C12.536,0 0,12.536 0,28 C0,43.464 12.536,56 28,56 C43.464,56 56,43.464 56,28 C56,12.536 43.464,0 28,0 L28,0 Z M28,54 C13.641,54 2,42.359 2,28 C2,13.641 13.641,2 28,2 C42.359,2 54,13.641 54,28 C54,42.359 42.359,54 28,54 L28,54 Z M38.002,12.011 L28.415,12.011 C24.117,12.011 20.072,15.374 20.072,19.271 C20.072,23.253 23.002,26.467 27.375,26.467 C27.679,26.467 27.975,26.46 28.264,26.439 C27.98,27.001 27.777,27.632 27.777,28.289 C27.777,29.395 28.353,30.293 29.082,31.025 C28.532,31.025 28,31.042 27.42,31.042 C22.096,31.042 17.998,34.544 17.998,38.177 C17.998,41.753 22.263,43.991 27.587,43.991 C33.657,43.991 37.009,40.433 37.009,36.856 C37.009,33.987 36.36,32.214 33.827,30.364 C32.96,29.73 31.36,28.245 31.36,27.339 C31.36,26.277 31.654,25.755 33.2,24.506 C34.786,23.226 35.908,21.427 35.908,19.335 C35.908,16.843 34.833,14.415 32.817,13.613 L35.857,13.613 L38.002,12.011 L38.002,12.011 Z M34.426,36.238 C34.502,36.569 34.543,36.911 34.543,37.259 C34.543,40.149 32.74,42.407 27.566,42.407 C23.886,42.407 21.456,40.001 21.456,37.111 C21.456,34.278 24.752,31.92 28.432,31.961 C29.291,31.97 30.091,32.113 30.817,32.356 C32.816,33.792 34.022,34.603 34.426,36.238 L34.426,36.238 Z M28.762,25.457 C26.292,25.381 23.944,22.603 23.518,19.252 C23.092,15.901 24.748,13.337 27.218,13.413 C29.687,13.489 32.036,16.178 32.462,19.528 C32.887,22.879 31.231,25.533 28.762,25.457 L28.762,25.457 Z" id="Shape"></path>
                </g>
            </g>
        </g>
    </g>
</svg>