<?xml version="1.0" encoding="UTF-8" standalone="no"?>
<svg width="36px" height="40px" viewBox="0 0 36 40" version="1.1" xmlns="http://www.w3.org/2000/svg" xmlns:xlink="http://www.w3.org/1999/xlink" xmlns:sketch="http://www.bohemiancoding.com/sketch/ns">
    <!-- Generator: Sketch 3.0.4 (8053) - http://www.bohemiancoding.com/sketch -->
    <title>1113-grab-hand-1</title>
    <desc>Created with Sketch.</desc>
    <defs></defs>
    <g id="Page-1" stroke="none" stroke-width="1" fill="none" fill-rule="evenodd" sketch:type="MSPage">
        <g id="Glyphish-8-Icons" sketch:type="MSArtboardGroup" transform="translate(-223.000000, -124.000000)" fill="#000000">
            <g id="1113-grab-hand-1" sketch:type="MSLayerGroup" transform="translate(223.036996, 124.860499)">
                <g id="_x31_113-grab-hand-1_x40_2x.png" sketch:type="MSShapeGroup">
                    <path d="M30,4 C29.17,4 28.4,4.253 27.761,4.686 C27.215,3.126 25.746,2 24,2 C23.17,2 22.4,2.253 21.761,2.686 C21.215,1.126 19.746,0 18,0 C16.254,0 14.785,1.126 14.239,2.686 C13.6,2.253 12.83,2 12,2 C9.791,2 8,3.791 8,6 L8,13.348 L7.771,12.717 C7.73,12.597 7.693,12.476 7.642,12.362 L7.582,12.197 L7.559,12.21 C6.9,10.904 5.562,10 4,10 C1.791,10 0,11.791 0,14 C0,14.489 0.069,14.959 0.198,15.396 L2.475,25.941 L2.512,25.93 C4.265,32.863 10.522,38 18,38 C26.836,38 34,30.837 34,22 L34,21.998 L34,8 C34,5.791 32.209,4 30,4 L30,4 Z M32,22 C32,29.732 25.732,36 18,36 C11.2,36 5.536,31.15 4.269,24.722 L4.267,24.722 L2.281,15.621 L2.077,14.55 C2.077,14.55 2,14.294 2,14 C2,12.896 2.896,12 4,12 C4.878,12 5.494,12.528 5.865,13.36 L5.898,13.451 L5.892,13.451 L6.066,13.912 L8.063,19.387 L8.077,19.381 C8.227,19.744 8.583,20 9,20 C9.552,20 10,19.553 10,19 L10,6 C10,4.896 10.896,4 12,4 C13.104,4 14,4.896 14,6 L14,11 C14,11.553 14.448,12 15,12 C15.552,12 16,11.553 16,11 L16,6 L16,4.001 L16,4 C16,2.896 16.896,2 18,2 C19.104,2 20,2.896 20,4 L20,11 C20,11.553 20.448,12 21,12 C21.552,12 22,11.553 22,11 L22,6 C22,4.896 22.896,4 24,4 C25.104,4 26,4.896 26,6 L26,13 C26,13.553 26.448,14 27,14 C27.552,14 28,13.553 28,13 L28,8.001 L28,8 C28,6.896 28.896,6 30,6 C31.104,6 32,6.896 32,8 L32,22 L32,22 Z" id="Shape"></path>
                </g>
            </g>
        </g>
    </g>
</svg>