<?xml version="1.0" encoding="iso-8859-1"?>
<!-- Generator: Adobe Illustrator 16.0.4, SVG Export Plug-In . SVG Version: 6.00 Build 0)  -->
<!DOCTYPE svg PUBLIC "-//W3C//DTD SVG 1.1//EN" "http://www.w3.org/Graphics/SVG/1.1/DTD/svg11.dtd">
<svg version="1.1" id="Layer_1" xmlns="http://www.w3.org/2000/svg" xmlns:xlink="http://www.w3.org/1999/xlink" x="0px" y="0px"
	 width="24px" height="28px" viewBox="0 0 24 28" style="enable-background:new 0 0 24 28;" xml:space="preserve">
<g id="_x31_113-grab-hand-1_x40_2x.png">
	<g>
		<path d="M21,4c-0.395,0-0.77,0.081-1.116,0.22C19.539,2.943,18.385,2,17,2c-0.395,0-0.77,0.081-1.116,0.22
			C15.539,0.943,14.385,0,13,0s-2.539,0.943-2.884,2.22C9.77,2.081,9.395,2,9,2C7.343,2,6,3.343,6,5v3.466L5.7,7.634L5.666,7.651
			C5.171,6.676,4.169,6,3,6C1.343,6,0,7.344,0,9c0,0.118,0.021,0.229,0.035,0.344H0.031l0.017,0.138
			c0.008,0.046,0.008,0.095,0.018,0.14l0.973,7.747C1.486,23.312,6.439,28,12.498,28c6.351,0,11.5-5.148,11.502-11.5V7
			C24,5.344,22.657,4,21,4z M22,9.806v0.249V16h-0.042C21.967,16.167,22,16.327,22,16.496C22,21.745,17.746,26,12.498,26
			c-4.854,0-8.849-3.642-9.424-8.34l-0.04,0.017L2.028,9.312L2.061,9.3C2.03,9.204,2,9.106,2,9c0-0.552,0.448-1,1-1
			c0.439,0,0.801,0.287,0.936,0.681l2.179,5.751C6.276,14.765,6.605,15,7,15c0.552,0,1-0.447,1-1V8.146V5c0-0.553,0.448-1,1-1
			s1,0.447,1,1v4c0,0.553,0.448,1,1,1s1-0.447,1-1V5V3c0-0.552,0.448-1,1-1s1,0.448,1,1v4.126V9c0,0.553,0.448,1,1,1s1-0.447,1-1
			V7.677V5c0-0.553,0.448-1,1-1s1,0.447,1,1v3.766V11c0,0.553,0.448,1,1,1s1-0.447,1-1v-0.316V7c0-0.552,0.448-1,1-1s1,0.448,1,1
			V9.806z"/>
	</g>
</g>
<g>
</g>
<g>
</g>
<g>
</g>
<g>
</g>
<g>
</g>
<g>
</g>
<g>
</g>
<g>
</g>
<g>
</g>
<g>
</g>
<g>
</g>
<g>
</g>
<g>
</g>
<g>
</g>
<g>
</g>
</svg>
