<?xml version="1.0" encoding="iso-8859-1"?>
<!-- Generator: Adobe Illustrator 16.0.4, SVG Export Plug-In . SVG Version: 6.00 Build 0)  -->
<!DOCTYPE svg PUBLIC "-//W3C//DTD SVG 1.1//EN" "http://www.w3.org/Graphics/SVG/1.1/DTD/svg11.dtd">
<svg version="1.1" id="Layer_1" xmlns="http://www.w3.org/2000/svg" xmlns:xlink="http://www.w3.org/1999/xlink" x="0px" y="0px"
	 width="44px" height="28.001px" viewBox="0 0 44 28.001" style="enable-background:new 0 0 44 28.001;" xml:space="preserve">
<g id="_x38_97-graduation-cap-toolbar_x40_2x.png">
	<g>
		<path d="M44,7c0-0.43-0.274-0.789-0.655-0.931l0.003-0.007l-21-6l-0.003,0.007C22.236,0.029,22.122,0,22,0
			s-0.236,0.029-0.345,0.069l-0.003-0.007l-21,6l0.003,0.007C0.274,6.211,0,6.57,0,7s0.274,0.789,0.655,0.931L0.652,7.938
			l3.602,1.028c-0.376,0.946-0.689,2.002-0.917,3.112C2,12.382,1,13.572,1,15c0,1.312,0.847,2.414,2.018,2.822
			c-0.214,2.769-0.891,6.174-2.794,8.553c-0.345,0.432-0.274,1.061,0.155,1.406C0.564,27.929,0.785,28,1.004,28
			c0.293,0,0.584-0.129,0.782-0.375c1.567-1.96,2.415-4.448,2.863-6.821l1.373,6.407c0.101,0.469,0.515,0.79,0.977,0.79
			c0.069,0,0.14-0.007,0.211-0.022c0.54-0.115,0.884-0.647,0.768-1.188l-2.04-9.518C6.583,16.723,7,15.914,7,15
			c0-1.158-0.663-2.151-1.625-2.651c0.212-0.963,0.479-1.92,0.828-2.824l4.672,1.334l-0.869,13.037l0.024,0.003
			C10.026,23.935,10,23.963,10,24c0,0.553,0.448,1,1,1c0.161,0,0.308-0.047,0.442-0.114l0.005,0.009l0.096-0.076
			c0.07-0.047,0.139-0.093,0.194-0.156l4.181-3.344l5.346,5.346c0.023,0.025,0.047,0.049,0.072,0.072l0.064,0.064l0.01-0.015
			C21.577,26.912,21.775,27,22,27c0.226,0,0.423-0.088,0.59-0.214l0.01,0.015l0.064-0.064c0.025-0.023,0.049-0.047,0.072-0.072
			l5.346-5.346l4.181,3.345c0.057,0.062,0.124,0.108,0.194,0.155l0.096,0.076l0.005-0.009C32.692,24.953,32.839,25,33,25
			c0.553,0,1-0.447,1-1c0-0.037-0.026-0.065-0.03-0.102l0.024-0.003l-0.869-13.037l10.223-2.92l-0.003-0.008
			C43.726,7.789,44,7.43,44,7z M4,16c-0.553,0-1-0.447-1-1c0-0.552,0.447-1,1-1s1,0.448,1,1C5,15.553,4.553,16,4,16z M28.737,19.338
			c-0.056-0.062-0.123-0.108-0.193-0.154l-0.097-0.078l-0.005,0.009C28.308,19.047,28.161,19,28,19c-0.225,0-0.423,0.088-0.59,0.214
			L27.4,19.2l-0.063,0.063c-0.026,0.023-0.05,0.047-0.073,0.073L22,24.6l-5.264-5.263c-0.023-0.026-0.047-0.05-0.073-0.073
			L16.6,19.2l-0.01,0.014C16.423,19.088,16.226,19,16,19c-0.161,0-0.308,0.047-0.442,0.115l-0.005-0.01l-0.097,0.078
			c-0.069,0.046-0.138,0.092-0.193,0.154l-3.116,2.493L12.84,11.42l8.812,2.519l0.003-0.008C21.764,13.971,21.878,14,22,14
			s0.236-0.029,0.345-0.069l0.003,0.008l8.812-2.519l0.693,10.411L28.737,19.338z M32.587,8.938l-1.581,0.166l0.019,0.28L22,11.963
			l-9.024-2.578l0.019-0.28l-1.581-0.166L4.63,7L22,2.037L39.37,7L32.587,8.938z"/>
	</g>
</g>
<g>
</g>
<g>
</g>
<g>
</g>
<g>
</g>
<g>
</g>
<g>
</g>
<g>
</g>
<g>
</g>
<g>
</g>
<g>
</g>
<g>
</g>
<g>
</g>
<g>
</g>
<g>
</g>
<g>
</g>
</svg>
