<?xml version="1.0" encoding="iso-8859-1"?>
<!-- Generator: Adobe Illustrator 16.0.4, SVG Export Plug-In . SVG Version: 6.00 Build 0)  -->
<!DOCTYPE svg PUBLIC "-//W3C//DTD SVG 1.1//EN" "http://www.w3.org/Graphics/SVG/1.1/DTD/svg11.dtd">
<svg version="1.1" id="Layer_1" xmlns="http://www.w3.org/2000/svg" xmlns:xlink="http://www.w3.org/1999/xlink" x="0px" y="0px"
	 width="56px" height="44px" viewBox="0 0 56 44" style="enable-background:new 0 0 56 44;" xml:space="preserve">
<g id="_x38_97-graduation-cap_x40_2x.png">
	<g>
		<path d="M56,11c0-0.43-0.274-0.789-0.655-0.931l0.003-0.007l-27-10l-0.003,0.007C28.236,0.029,28.122,0,28,0
			s-0.236,0.029-0.345,0.069l-0.003-0.007l-27,10l0.003,0.007C0.274,10.211,0,10.57,0,11s0.274,0.789,0.655,0.931l-0.003,0.007
			l5.121,1.897c-0.863,1.455-1.947,3.674-2.465,6.253C1.986,20.401,1,21.582,1,23c0,1.276,0.801,2.359,1.925,2.793
			c-0.43,8.146-2.448,15.455-2.841,16.811c-0.006,0.014-0.007,0.028-0.013,0.043c-0.035,0.121-0.061,0.205-0.061,0.205l0.019,0.003
			C0.021,42.904,0,42.948,0,43c0,0.553,0.447,1,1,1c0.501,0,0.897-0.374,0.971-0.854l0.019,0.003c0,0,1.42-5.28,2.304-11.457
			l1.718,11.457l0.019-0.003C6.103,43.626,6.499,44,7,44c0.553,0,1-0.447,1-1c0-0.052-0.021-0.096-0.029-0.146l0.019-0.003
			L5.401,25.599C6.34,25.094,7,24.142,7,23c0-1.178-0.685-2.187-1.672-2.678c0.484-2.155,1.423-4.268,2.232-5.826l5.383,1.994
			l-1.938,18.405l0.024,0.003C11.026,34.935,11,34.963,11,35c0,0.553,0.447,1,1,1c0.161,0,0.308-0.047,0.442-0.114l0.005,0.009
			l7.447-3.724L27.4,37.8l0.01-0.014C27.577,37.912,27.775,38,28,38c0.226,0,0.423-0.088,0.59-0.214L28.6,37.8l7.506-5.629
			l7.447,3.724l0.005-0.009C43.692,35.953,43.839,36,44,36c0.553,0,1-0.447,1-1c0-0.037-0.026-0.065-0.03-0.102l0.024-0.003
			L43.057,16.49l12.291-4.553l-0.003-0.007C55.726,11.789,56,11.43,56,11z M4,24c-0.553,0-1-0.447-1-1c0-0.552,0.447-1,1-1
			s1,0.448,1,1C5,23.553,4.553,24,4,24z M36.447,30.105l-0.005,0.009C36.308,30.047,36.161,30,36,30
			c-0.226,0-0.423,0.088-0.59,0.214L35.4,30.2L28,35.75l-7.4-5.55l-0.01,0.014C20.423,30.088,20.226,30,20,30
			c-0.161,0-0.308,0.047-0.442,0.114l-0.005-0.009l-6.367,3.184l1.693-16.082l12.773,4.73l0.003-0.007
			C27.764,21.971,27.878,22,28,22s0.236-0.029,0.345-0.069l0.003,0.007l12.773-4.73l1.693,16.082L36.447,30.105z M28,19.934L3.88,11
			L28,2.066L52.12,11L28,19.934z"/>
	</g>
</g>
<g>
</g>
<g>
</g>
<g>
</g>
<g>
</g>
<g>
</g>
<g>
</g>
<g>
</g>
<g>
</g>
<g>
</g>
<g>
</g>
<g>
</g>
<g>
</g>
<g>
</g>
<g>
</g>
<g>
</g>
</svg>
