<?xml version="1.0" encoding="iso-8859-1"?>
<!-- Generator: Adobe Illustrator 16.0.4, SVG Export Plug-In . SVG Version: 6.00 Build 0)  -->
<!DOCTYPE svg PUBLIC "-//W3C//DTD SVG 1.1//EN" "http://www.w3.org/Graphics/SVG/1.1/DTD/svg11.dtd">
<svg version="1.1" id="Layer_1" xmlns="http://www.w3.org/2000/svg" xmlns:xlink="http://www.w3.org/1999/xlink" x="0px" y="0px"
	 width="56px" height="44px" viewBox="0 0 56 44" style="enable-background:new 0 0 56 44;" xml:space="preserve">
<g id="_x39_10-graph_x40_2x.png">
	<g>
		<path d="M54,0H2C0.896,0,0,0.896,0,2v40c0,1.104,0.896,2,2,2h52c1.104,0,2-0.896,2-2V2C56,0.896,55.104,0,54,0z M54,42H2V2h52V42z
			 M7,28c0.327,0,0.604-0.168,0.786-0.41L7.8,27.6l4.879-6.505l5.378,15.238l0.01-0.003C18.204,36.718,18.564,37,19,37
			c0.391,0,0.721-0.23,0.886-0.558l0.009,0.005l9.928-19.854l4.959-4.96l7.351,12.863l0.014-0.008C42.318,24.789,42.629,25,43,25
			c0.436,0,0.796-0.282,0.934-0.671l0.01,0.004l6-17l-0.01-0.004C49.971,7.226,50,7.117,50,7c0-0.552-0.447-1-1-1
			c-0.436,0-0.796,0.282-0.934,0.671l-0.01-0.004l-5.272,14.939L35.868,9.504l-0.014,0.008C35.682,9.212,35.371,9,35,9
			c-0.276,0-0.526,0.112-0.707,0.293l-6,6l0.01,0.01c-0.074,0.075-0.14,0.159-0.188,0.255l-0.009-0.005l-8.946,17.894l-5.216-14.779
			l-0.01,0.004C13.796,18.282,13.436,18,13,18c-0.327,0-0.604,0.167-0.786,0.41L12.2,18.4l-6,8l0.014,0.01
			C6.088,26.577,6,26.774,6,27C6,27.553,6.447,28,7,28z"/>
	</g>
</g>
<g>
</g>
<g>
</g>
<g>
</g>
<g>
</g>
<g>
</g>
<g>
</g>
<g>
</g>
<g>
</g>
<g>
</g>
<g>
</g>
<g>
</g>
<g>
</g>
<g>
</g>
<g>
</g>
<g>
</g>
</svg>
