<?xml version="1.0" encoding="iso-8859-1"?>
<!-- Generator: Adobe Illustrator 16.0.4, SVG Export Plug-In . SVG Version: 6.00 Build 0)  -->
<!DOCTYPE svg PUBLIC "-//W3C//DTD SVG 1.1//EN" "http://www.w3.org/Graphics/SVG/1.1/DTD/svg11.dtd">
<svg version="1.1" id="Layer_1" xmlns="http://www.w3.org/2000/svg" xmlns:xlink="http://www.w3.org/1999/xlink" x="0px" y="0px"
	 width="44px" height="36px" viewBox="0 0 44 36" style="enable-background:new 0 0 44 36;" xml:space="preserve">
<g id="_x39_10-graph-toolbar_x40_2x.png">
	<g>
		<path d="M42,0H2C0.896,0,0,0.896,0,2v32c0,1.104,0.896,2,2,2h40c1.104,0,2-0.896,2-2V2C44,0.896,43.104,0,42,0z M42,34H2V2h40V34z
			 M7,22c0.327,0,0.604-0.167,0.786-0.41L7.8,21.6l0.06-0.118c0.027-0.048,0.054-0.094,0.073-0.146l2.135-4.271l5.989,10.268
			l0.01-0.003C16.204,27.718,16.564,28,17,28c0.391,0,0.721-0.23,0.886-0.558l0.009,0.005l7.81-10.737
			c0.001-0.001,0.001-0.003,0.002-0.004l0.001,0.001l2.981-2.236l3.443,6.025l0.014-0.008C32.318,20.789,32.629,21,33,21
			c0.436,0,0.796-0.282,0.934-0.671l0.01,0.004l4.966-10.925c0.005-0.012,0.011-0.022,0.016-0.035l0.019-0.04l-0.01-0.004
			C38.971,9.226,39,9.117,39,9c0-0.552-0.447-1-1-1c-0.436,0-0.796,0.282-0.934,0.671l-0.01-0.004L32.9,17.811l-3.032-5.307
			l-0.014,0.008C29.682,12.212,29.371,12,29,12c-0.276,0-0.526,0.112-0.707,0.293l-3.812,2.859c-0.01,0.007-0.019,0.015-0.028,0.021
			l-0.159,0.119l0.01,0.01c-0.074,0.075-0.14,0.159-0.188,0.255l-0.009-0.005l-7.018,9.649l-6.145-10.535l-0.01,0.004
			C10.796,14.282,10.436,14,10,14c-0.327,0-0.604,0.167-0.786,0.41L9.2,14.4l-0.06,0.118c-0.027,0.048-0.054,0.094-0.073,0.146
			L6.2,20.4l0.014,0.01C6.088,20.577,6,20.774,6,21C6,21.553,6.447,22,7,22z"/>
	</g>
</g>
<g>
</g>
<g>
</g>
<g>
</g>
<g>
</g>
<g>
</g>
<g>
</g>
<g>
</g>
<g>
</g>
<g>
</g>
<g>
</g>
<g>
</g>
<g>
</g>
<g>
</g>
<g>
</g>
<g>
</g>
</svg>
