<?xml version="1.0" encoding="iso-8859-1"?>
<!-- Generator: Adobe Illustrator 16.0.4, SVG Export Plug-In . SVG Version: 6.00 Build 0)  -->
<!DOCTYPE svg PUBLIC "-//W3C//DTD SVG 1.1//EN" "http://www.w3.org/Graphics/SVG/1.1/DTD/svg11.dtd">
<svg version="1.1" id="Layer_1" xmlns="http://www.w3.org/2000/svg" xmlns:xlink="http://www.w3.org/1999/xlink" x="0px" y="0px"
	 width="44px" height="36px" viewBox="0 0 44 36" style="enable-background:new 0 0 44 36;" xml:space="preserve">
<g id="_x31_076-grid-4-toolbar_x40_2x.png">
	<g>
		<path d="M4,32h17V19H4V32z M5.99,21h13.02v9H5.99V21z M40,0H4C1.791,0,0,1.791,0,4v28c0,2.209,1.791,4,4,4h36c2.209,0,4-1.791,4-4
			V4C44,1.791,42.209,0,40,0z M42,32c0,1.104-0.896,2-2,2H4c-1.104,0-2-0.896-2-2V4c0-1.104,0.896-2,2-2h36c1.104,0,2,0.896,2,2V32z
			 M23,32h17V19H23V32z M24.99,21h13.02v9H24.99V21z M23,17h17V4H23V17z M24.99,6h13.02v9H24.99V6z M4,17h17V4H4V17z M5.99,6h13.02
			v9H5.99V6z"/>
	</g>
</g>
<g>
</g>
<g>
</g>
<g>
</g>
<g>
</g>
<g>
</g>
<g>
</g>
<g>
</g>
<g>
</g>
<g>
</g>
<g>
</g>
<g>
</g>
<g>
</g>
<g>
</g>
<g>
</g>
<g>
</g>
</svg>
