<?xml version="1.0" encoding="iso-8859-1"?>
<!-- Generator: Adobe Illustrator 16.0.4, SVG Export Plug-In . SVG Version: 6.00 Build 0)  -->
<!DOCTYPE svg PUBLIC "-//W3C//DTD SVG 1.1//EN" "http://www.w3.org/Graphics/SVG/1.1/DTD/svg11.dtd">
<svg version="1.1" id="Layer_1" xmlns="http://www.w3.org/2000/svg" xmlns:xlink="http://www.w3.org/1999/xlink" x="0px" y="0px"
	 width="56px" height="48px" viewBox="0 0 56 48" style="enable-background:new 0 0 56 48;" xml:space="preserve">
<g id="_x31_076-grid-4_x40_2x.png">
	<g>
		<path d="M52,0H4C1.791,0,0,1.791,0,4v40c0,2.209,1.791,4,4,4h48c2.209,0,4-1.791,4-4V4C56,1.791,54.209,0,52,0z M54,44
			c0,1.104-0.896,2-2,2H4c-1.104,0-2-0.896-2-2V4c0-1.104,0.896-2,2-2h48c1.104,0,2,0.896,2,2V44z M4,44h23V25H4V44z M5.99,27h19.02
			v15H5.99V27z M29,44h23V25H29V44z M30.99,27h19.02v15H30.99V27z M29,23h23V4H29V23z M30.99,6h19.02v15H30.99V6z M4,23h23V4H4V23z
			 M5.99,6h19.02v15H5.99V6z"/>
	</g>
</g>
<g>
</g>
<g>
</g>
<g>
</g>
<g>
</g>
<g>
</g>
<g>
</g>
<g>
</g>
<g>
</g>
<g>
</g>
<g>
</g>
<g>
</g>
<g>
</g>
<g>
</g>
<g>
</g>
<g>
</g>
</svg>
