<?xml version="1.0" encoding="UTF-8" standalone="no"?>
<svg width="58px" height="58px" viewBox="0 0 58 58" version="1.1" xmlns="http://www.w3.org/2000/svg" xmlns:xlink="http://www.w3.org/1999/xlink" xmlns:sketch="http://www.bohemiancoding.com/sketch/ns">
    <!-- Generator: Sketch 3.0.4 (8053) - http://www.bohemiancoding.com/sketch -->
    <title>1240-group-error</title>
    <desc>Created with Sketch.</desc>
    <defs></defs>
    <g id="Page-1" stroke="none" stroke-width="1" fill="none" fill-rule="evenodd" sketch:type="MSPage">
        <g id="Glyphish-8-Icons" sketch:type="MSArtboardGroup" transform="translate(-884.000000, -1267.000000)" fill="#000000">
            <g id="1240-group-error" sketch:type="MSLayerGroup" transform="translate(884.036996, 1267.860499)">
                <g id="_x31_240-group-error_x40_2x.png" sketch:type="MSShapeGroup">
                    <path d="M45.009,34.036 C38.934,34.036 34.009,38.961 34.009,45.036 C34.009,51.111 38.934,56.036 45.009,56.036 C51.084,56.036 56.009,51.111 56.009,45.036 C56.009,38.961 51.084,34.036 45.009,34.036 L45.009,34.036 Z M45.009,54.036 C40.038,54.036 36.009,50.007 36.009,45.036 C36.009,40.065 40.038,36.036 45.009,36.036 C49.98,36.036 54.009,40.065 54.009,45.036 C54.009,50.007 49.979,54.036 45.009,54.036 L45.009,54.036 Z M34,5.162 C34.009,5.159 34.016,5.153 34.024,5.15 C34.045,5.138 36.211,4.063 38.565,4.063 C41.172,4.063 42.868,5.354 43.748,8.01 L43.805,8.181 L43.914,8.321 C44.037,8.477 46.894,12.214 44.658,16.718 L44.418,17.225 L44.7,17.701 C44.734,17.759 45.499,19.085 44.741,20.846 C43.94,21.536 41.127,24.256 41.127,28.376 C41.127,30.306 41.49,31.517 42.06,32.385 C42.858,32.199 43.684,32.091 44.532,32.061 C43.564,31.375 43.141,30.612 43.141,28.376 C43.141,24.693 46.143,22.308 46.17,22.286 L46.358,22.14 L46.462,21.927 C47.486,19.817 47.024,18.023 46.672,17.168 C48.869,12.184 46.213,8.058 45.602,7.21 C44.119,2.939 40.965,2.036 38.565,2.036 C35.741,2.036 33.229,3.283 33.201,3.302 C33.164,3.318 33.132,3.335 33.096,3.35 C33.302,3.766 33.502,4.188 33.672,4.646 C33.767,4.786 33.88,4.966 34,5.162 L34,5.162 Z M33.555,36.178 C32.972,35.789 32.426,35.474 31.923,35.183 C29.916,34.023 29,33.869 29,30.385 C29,26.022 32.574,23.205 32.607,23.179 L32.795,23.035 L32.899,22.824 C34.097,20.373 33.511,18.306 33.112,17.376 C35.717,11.601 32.564,6.823 31.895,5.91 C30.199,1.03 26.582,0 23.832,0 C20.571,0 17.675,1.43 17.629,1.456 C14.612,2.663 12.555,4.589 11.515,7.18 C9.835,11.364 11.359,15.959 11.911,17.37 C10.557,20.639 12.118,22.871 12.187,22.969 L12.397,23.184 C12.434,23.21 16,25.968 16,30.385 C16,34.665 13.654,35.072 10.684,36.062 L10.295,36.19 C6.953,37.289 0,39.576 0,47.011 L0,48.01 L32.364,48.01 C32.212,47.361 32.108,46.694 32.057,46.01 L2.057,46.01 C2.663,40.806 7.983,39.056 10.92,38.09 L11.316,37.958 C14.294,36.966 18,36.105 18,30.385 C18,25.474 14.558,22.365 13.759,21.71 C13.545,21.325 12.909,19.888 13.902,17.816 L14.104,17.395 L13.911,16.97 C13.89,16.921 11.715,12.049 13.371,7.924 C14.2,5.86 15.883,4.308 18.447,3.279 C18.472,3.267 21.056,2 23.832,2 C26.962,2 28.997,3.537 30.052,6.701 L30.108,6.87 L30.219,7.011 C30.255,7.055 33.788,11.573 31.106,16.938 L30.855,17.441 L31.154,17.918 C31.165,17.935 32.162,19.565 31.191,21.756 C30.319,22.494 27.001,25.62 27.001,30.386 C27.001,34.801 28.491,35.511 30.924,36.916 C31.393,37.187 31.903,37.48 32.446,37.843 C32.835,38.102 33.272,38.341 33.741,38.573 C34.079,37.986 34.457,37.426 34.879,36.9 C34.38,36.66 33.922,36.423 33.555,36.178 L33.555,36.178 Z M44.009,46.036 L46.009,46.036 L46.009,40.036 L44.009,40.036 L44.009,46.036 L44.009,46.036 Z M44.009,50.036 L46.009,50.036 L46.009,48.036 L44.009,48.036 L44.009,50.036 L44.009,50.036 Z" id="Shape"></path>
                </g>
            </g>
        </g>
    </g>
</svg>