<?xml version="1.0" encoding="iso-8859-1"?>
<!-- Generator: Adobe Illustrator 16.0.4, SVG Export Plug-In . SVG Version: 6.00 Build 0)  -->
<!DOCTYPE svg PUBLIC "-//W3C//DTD SVG 1.1//EN" "http://www.w3.org/Graphics/SVG/1.1/DTD/svg11.dtd">
<svg version="1.1" id="Layer_1" xmlns="http://www.w3.org/2000/svg" xmlns:xlink="http://www.w3.org/1999/xlink" x="0px" y="0px"
	 width="44.007px" height="44px" viewBox="0 0 44.007 44" style="enable-background:new 0 0 44.007 44;" xml:space="preserve">
<g id="_x31_236-group-plus_x40_2x.png">
	<g>
		<path d="M23.065,22.784c0-3.272,2.842-5.384,2.868-5.403l0.149-0.107l0.082-0.159c0.953-1.838,0.487-3.387,0.17-4.085
			c2.072-4.331-0.436-7.913-0.968-8.598C24.019,0.772,21.142,0,18.955,0c-2.594,0-4.897,1.072-4.934,1.092
			C11.622,1.997,9.985,3.44,9.158,5.384c-1.336,3.137-0.124,6.583,0.315,7.642c-1.076,2.45,0.165,4.124,0.22,4.197l0.167,0.161
			c0.029,0.021,2.865,2.088,2.865,5.4c0,3.209-1.865,3.514-4.229,4.257l-0.309,0.096C5.53,27.961,0,29.676,0,35.25V36h20.369
			c-0.154-0.649-0.26-1.316-0.312-1.999H2.166c0.684-2.865,3.741-4.061,6.628-4.956l0.317-0.099l0.514-0.158
			c2.163-0.66,5.125-1.563,5.125-6.004c0-3.736-2.655-6.179-3.483-6.85c-0.145-0.285-0.409-1.036,0.064-2.114
			c0.217-0.494,0.223-1.055,0.016-1.554c-0.339-0.815-1.362-3.665-0.322-6.108c0.613-1.439,1.83-2.485,3.719-3.198
			c0.057-0.021,0.111-0.045,0.166-0.071C15.026,2.836,16.902,2,18.955,2c2.262,0,3.737,1.019,4.51,3.115
			c0.07,0.192,0.171,0.372,0.296,0.533c0.399,0.515,2.313,3.246,0.744,6.526c-0.254,0.529-0.26,1.141-0.017,1.674
			c0.178,0.392,0.396,1.166-0.018,2.13c-0.859,0.714-3.431,3.155-3.431,6.806c0,1.678,0.318,2.735,0.856,3.492
			c0.396-0.652,0.845-1.268,1.346-1.839C23.127,24.028,23.065,23.508,23.065,22.784z M31.156,4c1.675,0,2.725,0.753,3.305,2.37
			c0.066,0.187,0.16,0.361,0.278,0.521c0.3,0.401,1.734,2.536,0.572,5.088c-0.231,0.51-0.239,1.094-0.021,1.609
			c0.143,0.338,0.247,0.859-0.003,1.5c-0.681,0.598-2.388,2.352-2.695,4.934C32.731,20.017,32.867,20,33.007,20
			c0.54,0,1.069,0.043,1.593,0.107c0.341-2.221,2.144-3.631,2.162-3.646l0.139-0.104l0.077-0.153
			c0.755-1.506,0.414-2.787,0.155-3.397c1.619-3.561-0.339-6.507-0.789-7.112C35.25,2.645,32.926,2,31.156,2
			c-1.802,0-3.426,0.665-3.846,0.854c0.279,0.434,0.619,1.036,0.928,1.777C28.76,4.408,29.963,4,31.156,4z M34.007,28h-2v4h-4v2h4v4
			h2v-4h4v-2h-4V28z M33.007,22c-6.075,0-11,4.925-11,11s4.925,11,11,11s11-4.925,11-11S39.082,22,33.007,22z M33.007,42
			c-4.971,0-9-4.029-9-9s4.029-9,9-9s9,4.029,9,9S37.978,42,33.007,42z"/>
	</g>
</g>
<g>
</g>
<g>
</g>
<g>
</g>
<g>
</g>
<g>
</g>
<g>
</g>
<g>
</g>
<g>
</g>
<g>
</g>
<g>
</g>
<g>
</g>
<g>
</g>
<g>
</g>
<g>
</g>
<g>
</g>
</svg>
