<?xml version="1.0" encoding="iso-8859-1"?>
<!-- Generator: Adobe Illustrator 16.0.4, SVG Export Plug-In . SVG Version: 6.00 Build 0)  -->
<!DOCTYPE svg PUBLIC "-//W3C//DTD SVG 1.1//EN" "http://www.w3.org/Graphics/SVG/1.1/DTD/svg11.dtd">
<svg version="1.1" id="Layer_1" xmlns="http://www.w3.org/2000/svg" xmlns:xlink="http://www.w3.org/1999/xlink" x="0px" y="0px"
	 width="56.039px" height="56.009px" viewBox="0 0 56.039 56.009" style="enable-background:new 0 0 56.039 56.009;"
	 xml:space="preserve">
<g id="_x31_000-guitar_x40_2x.png">
	<g>
		<path d="M56.039,9c0-0.276-0.112-0.526-0.293-0.707l-8-8C47.565,0.112,47.315,0,47.039,0s-0.526,0.112-0.707,0.293L44.97,1.655
			C44.828,1.274,44.469,1,44.039,1c-0.553,0-1,0.447-1,1c0,0.43,0.274,0.789,0.655,0.931L42.97,3.655
			C42.828,3.274,42.469,3,42.039,3c-0.553,0-1,0.448-1,1c0,0.43,0.274,0.789,0.655,0.931l-1.362,1.362
			C40.151,6.474,40.039,6.724,40.039,7v3.586l-7.368,7.368c-5.244-3.038-11.823-2.534-16.032,1.666
			c-1.547,1.543-2.587,3.409-3.143,5.409c-3.435,0.23-6.739,1.608-9.294,4.157c-5.869,5.857-5.552,15.672,0.709,21.92
			c6.261,6.249,16.095,6.565,21.965,0.707c2.562-2.556,3.943-5.866,4.169-9.305c1.994-0.557,3.854-1.592,5.395-3.129
			c4.215-4.206,4.714-10.784,1.655-16.021L45.453,16h3.586c0.276,0,0.526-0.112,0.707-0.293l1.362-1.362
			C51.25,14.726,51.609,15,52.039,15c0.553,0,1-0.447,1-1c0-0.43-0.274-0.789-0.655-0.931l0.725-0.725
			C53.25,12.726,53.609,13,54.039,13c0.553,0,1-0.447,1-1c0-0.43-0.274-0.789-0.655-0.931l1.362-1.362
			C55.927,9.526,56.039,9.276,56.039,9z M34.995,37.938c-1.648,1.646-3.733,2.611-5.94,2.922c0.166,3.503-1.019,6.967-3.596,9.539
			c-5.088,5.077-13.652,4.761-19.131-0.707S0.532,35.678,5.619,30.601c2.572-2.566,6.033-3.75,9.535-3.591
			c0.308-2.21,1.275-4.299,2.929-5.948c4.304-4.295,11.578-3.999,16.248,0.662C39.001,26.384,39.299,33.645,34.995,37.938z
			 M52.97,9.655C52.828,9.274,52.469,9,52.039,9c-0.553,0-1,0.448-1,1c0,0.43,0.274,0.789,0.655,0.931l-0.725,0.725
			C50.828,11.274,50.469,11,50.039,11c-0.553,0-1,0.448-1,1c0,0.43,0.274,0.789,0.655,0.931L48.625,14h-3.586
			c-0.276,0-0.526,0.112-0.707,0.293l-7.383,7.383c-0.371-0.472-0.763-0.933-1.199-1.368c-0.443-0.442-0.912-0.838-1.393-1.212
			l7.389-7.389c0.181-0.181,0.293-0.431,0.293-0.707V7.414l1.069-1.069C43.25,6.726,43.609,7,44.039,7c0.553,0,1-0.447,1-1
			c0-0.43-0.274-0.789-0.655-0.931l0.725-0.725C45.25,4.726,45.609,5,46.039,5c0.553,0,1-0.447,1-1c0-0.43-0.274-0.789-0.655-0.931
			l0.655-0.655L53.625,9L52.97,9.655z M27.039,24c-2.762,0-5,2.238-5,5s2.238,5,5,5s5-2.238,5-5S29.801,24,27.039,24z M27.039,32
			c-1.657,0-3-1.343-3-3s1.343-3,3-3s3,1.343,3,3S28.696,32,27.039,32z"/>
	</g>
</g>
<g>
</g>
<g>
</g>
<g>
</g>
<g>
</g>
<g>
</g>
<g>
</g>
<g>
</g>
<g>
</g>
<g>
</g>
<g>
</g>
<g>
</g>
<g>
</g>
<g>
</g>
<g>
</g>
<g>
</g>
</svg>
