<?xml version="1.0" encoding="iso-8859-1"?>
<!-- Generator: Adobe Illustrator 16.0.4, SVG Export Plug-In . SVG Version: 6.00 Build 0)  -->
<!DOCTYPE svg PUBLIC "-//W3C//DTD SVG 1.1//EN" "http://www.w3.org/Graphics/SVG/1.1/DTD/svg11.dtd">
<svg version="1.1" id="Layer_1" xmlns="http://www.w3.org/2000/svg" xmlns:xlink="http://www.w3.org/1999/xlink" x="0px" y="0px"
	 width="43.978px" height="43.978px" viewBox="0 0 43.978 43.978" style="enable-background:new 0 0 43.978 43.978;"
	 xml:space="preserve">
<g id="_x31_000-guitar-toolbar_x40_2x.png">
	<g>
		<path d="M43.978,7c0-0.276-0.112-0.526-0.293-0.707l-6-6C37.504,0.112,37.254,0,36.978,0s-0.526,0.112-0.707,0.293l-1.362,1.362
			C34.767,1.274,34.407,1,33.978,1c-0.553,0-1,0.447-1,1c0,0.43,0.274,0.789,0.655,0.931l-0.725,0.725
			C32.767,3.274,32.407,3,31.978,3c-0.553,0-1,0.448-1,1c0,0.43,0.274,0.789,0.655,0.931l-1.362,1.362
			C30.09,6.474,29.978,6.724,29.978,7v2.586l-3.86,3.86c-4.05-2.285-9.088-1.865-12.322,1.369c-1.204,1.205-2.015,2.663-2.444,4.225
			c-2.939,0.076-5.798,1.18-7.976,3.357c-4.714,4.713-4.459,12.609,0.568,17.637s12.924,5.282,17.637,0.568
			c2.178-2.177,3.281-5.034,3.357-7.973c1.562-0.431,3.018-1.24,4.223-2.445c3.232-3.233,3.653-8.272,1.37-12.322L34.392,14h2.586
			c0.276,0,0.526-0.111,0.707-0.293l1.362-1.362C39.188,12.726,39.548,13,39.978,13c0.553,0,1-0.447,1-1
			c0-0.43-0.274-0.789-0.655-0.931l0.725-0.725C41.188,10.726,41.548,11,41.978,11c0.553,0,1-0.447,1-1
			c0-0.43-0.274-0.789-0.655-0.931l1.362-1.362C43.865,7.526,43.978,7.276,43.978,7z M27.728,28.755
			c-1.327,1.328-3.041,2.028-4.834,2.184c0.382,2.997-0.512,6.039-2.719,8.24c-3.947,3.938-10.594,3.692-14.845-0.548
			c-4.251-4.241-4.497-10.872-0.55-14.81c2.207-2.202,5.259-3.094,8.263-2.712c0.15-1.804,0.851-3.529,2.185-4.863
			c3.181-3.184,8.558-2.964,12.01,0.49C30.688,20.19,30.908,25.571,27.728,28.755z M40.908,7.655C40.767,7.274,40.407,7,39.978,7
			c-0.553,0-1,0.448-1,1c0,0.43,0.274,0.789,0.655,0.931l-0.725,0.725C38.767,9.274,38.407,9,37.978,9c-0.553,0-1,0.448-1,1
			c0,0.431,0.274,0.789,0.655,0.931L36.563,12h-2.586c-0.276,0-0.526,0.112-0.707,0.293l-3.89,3.89
			c-0.236-0.286-0.487-0.563-0.756-0.832c-0.268-0.268-0.544-0.519-0.829-0.754l3.889-3.89c0.181-0.181,0.293-0.431,0.293-0.707
			V7.414l1.069-1.069C33.188,6.726,33.548,7,33.978,7c0.553,0,1-0.447,1-1c0-0.43-0.274-0.789-0.655-0.931l0.725-0.725
			C35.188,4.726,35.548,5,35.978,5c0.553,0,1-0.447,1-1c0-0.43-0.274-0.789-0.655-0.931l0.655-0.655L41.563,7L40.908,7.655z
			 M20.978,19c-2.209,0-4,1.791-4,4s1.791,4,4,4s4-1.791,4-4S23.187,19,20.978,19z M20.978,25c-1.104,0-2-0.896-2-2s0.896-2,2-2
			s2,0.896,2,2S22.082,25,20.978,25z"/>
	</g>
</g>
<g>
</g>
<g>
</g>
<g>
</g>
<g>
</g>
<g>
</g>
<g>
</g>
<g>
</g>
<g>
</g>
<g>
</g>
<g>
</g>
<g>
</g>
<g>
</g>
<g>
</g>
<g>
</g>
<g>
</g>
</svg>
