<?xml version="1.0" encoding="iso-8859-1"?>
<!-- Generator: Adobe Illustrator 16.0.4, SVG Export Plug-In . SVG Version: 6.00 Build 0)  -->
<!DOCTYPE svg PUBLIC "-//W3C//DTD SVG 1.1//EN" "http://www.w3.org/Graphics/SVG/1.1/DTD/svg11.dtd">
<svg version="1.1" id="Layer_1" xmlns="http://www.w3.org/2000/svg" xmlns:xlink="http://www.w3.org/1999/xlink" x="0px" y="0px"
	 width="28.001px" height="44px" viewBox="0 0 28.001 44" style="enable-background:new 0 0 28.001 44;" xml:space="preserve">
<g id="_x31_013-hammer-toolbar_x40_2x.png">
	<g>
		<path d="M26.001,0h-2c-1.104,0-2,0.896-2,2h-5c0-1.104-0.896-2-2-2h-2c-1.095,0-1.982,0.881-1.997,1.973
			C6.81,2.021,0,2.587,0,9.967v2.004c0,0,1.885-3.719,11.001-3.98v16.564c-1.19,0.693-2,1.969-2,3.445v12c0,2.209,1.791,4,4,4h2
			c2.209,0,4-1.791,4-4V28c0-1.477-0.81-2.752-2-3.445V8h5c0,1.104,0.896,2,2,2h2c1.104,0,2-0.896,2-2V2
			C28.001,0.896,27.105,0,26.001,0z M10,5.972V6.02C6.571,6.212,4.098,6.89,2.33,7.691C3.225,5.05,5.903,4.193,10,4.008V5.972z
			 M17.001,40c0,1.104-0.896,2-2,2h-2c-1.104,0-2-0.896-2-2V28c0-1.104,1.896-2,3-2h1c1.104,0,2,0.896,2,2V40z M13.001,24V8h2v16
			H13.001z M22.001,6h-9H12h-1.999V4H12h0.001h1h9V6z M26.001,8h-2V2h2V8z"/>
	</g>
</g>
<g>
</g>
<g>
</g>
<g>
</g>
<g>
</g>
<g>
</g>
<g>
</g>
<g>
</g>
<g>
</g>
<g>
</g>
<g>
</g>
<g>
</g>
<g>
</g>
<g>
</g>
<g>
</g>
<g>
</g>
</svg>
