<?xml version="1.0" encoding="iso-8859-1"?>
<!-- Generator: Adobe Illustrator 16.0.4, SVG Export Plug-In . SVG Version: 6.00 Build 0)  -->
<!DOCTYPE svg PUBLIC "-//W3C//DTD SVG 1.1//EN" "http://www.w3.org/Graphics/SVG/1.1/DTD/svg11.dtd">
<svg version="1.1" id="Layer_1" xmlns="http://www.w3.org/2000/svg" xmlns:xlink="http://www.w3.org/1999/xlink" x="0px" y="0px"
	 width="32.001px" height="56px" viewBox="0 0 32.001 56" style="enable-background:new 0 0 32.001 56;" xml:space="preserve">
<g id="_x31_013-hammer_x40_2x.png">
	<g>
		<path d="M30.001,0h-6c-1.104,0-2,0.896-2,2h-4c0-1.104-0.896-2-2-2h-2c-1.104,0-2,0.896-2,2v0.033C7.354,2.35,0,4.9,0,12.995
			l0.003,2.386l1.702-1.676c0.036-0.036,3.517-3.371,10.296-3.68v20.529c-1.19,0.693-2,1.969-2,3.445v18c0,2.209,1.791,4,4,4h2
			c2.209,0,4-1.791,4-4V34c0-1.477-0.81-2.752-2-3.445V10h4c0,1.104,0.896,2,2,2h6c1.104,0,2-0.896,2-2V2
			C32.001,0.896,31.105,0,30.001,0z M18.001,52c0,1.104-0.896,2-2,2h-2c-1.104,0-2-0.896-2-2V34c0-1.104,0.896-2,2-2h2
			c1.104,0,2,0.896,2,2V52z M14.001,30V10h2v20H14.001z M22.001,8h-9V7.994C12.951,7.994,12.907,8,12.858,8h-0.857v0.032
			C7.38,8.224,4.117,9.666,2.237,10.828C3.687,4.586,11.354,4.046,12.778,4h0.223h9V8z M30.001,10h-6V2h6V10z"/>
	</g>
</g>
<g>
</g>
<g>
</g>
<g>
</g>
<g>
</g>
<g>
</g>
<g>
</g>
<g>
</g>
<g>
</g>
<g>
</g>
<g>
</g>
<g>
</g>
<g>
</g>
<g>
</g>
<g>
</g>
<g>
</g>
</svg>
