<?xml version="1.0" encoding="iso-8859-1"?>
<!-- Generator: Adobe Illustrator 16.0.4, SVG Export Plug-In . SVG Version: 6.00 Build 0)  -->
<!DOCTYPE svg PUBLIC "-//W3C//DTD SVG 1.1//EN" "http://www.w3.org/Graphics/SVG/1.1/DTD/svg11.dtd">
<svg version="1.1" id="Layer_1" xmlns="http://www.w3.org/2000/svg" xmlns:xlink="http://www.w3.org/1999/xlink" x="0px" y="0px"
	 width="44px" height="44px" viewBox="0 0 44 44" style="enable-background:new 0 0 44 44;" xml:space="preserve">
<g id="_x39_20-handbag-toolbar_x40_2x.png">
	<g>
		<path d="M34.949,12C34.438,5.289,28.842,0,22,0S9.562,5.289,9.051,12H0v28c0,2.209,1.791,4,4,4h36c2.209,0,4-1.791,4-4V12H34.949z
			 M22,2c5.737,0,10.443,4.395,10.949,10H11.051C11.557,6.395,16.263,2,22,2z M42,40c0,1.104-0.896,2-2,2H4c-1.104,0-2-0.896-2-2v-4
			h40V40z M42,34H2V14h40V34z"/>
	</g>
</g>
<g>
</g>
<g>
</g>
<g>
</g>
<g>
</g>
<g>
</g>
<g>
</g>
<g>
</g>
<g>
</g>
<g>
</g>
<g>
</g>
<g>
</g>
<g>
</g>
<g>
</g>
<g>
</g>
<g>
</g>
</svg>
