<?xml version="1.0" encoding="iso-8859-1"?>
<!-- Generator: Adobe Illustrator 16.0.4, SVG Export Plug-In . SVG Version: 6.00 Build 0)  -->
<!DOCTYPE svg PUBLIC "-//W3C//DTD SVG 1.1//EN" "http://www.w3.org/Graphics/SVG/1.1/DTD/svg11.dtd">
<svg version="1.1" id="Layer_1" xmlns="http://www.w3.org/2000/svg" xmlns:xlink="http://www.w3.org/1999/xlink" x="0px" y="0px"
	 width="56px" height="37px" viewBox="0 0 56 37" style="enable-background:new 0 0 56 37;" xml:space="preserve">
<g id="_x31_016-handgun_x40_2x.png">
	<g>
		<path d="M56,3c0-0.553-0.447-1-1-1h-1h-2h-2.586l-1.707-1.707C47.526,0.112,47.276,0,47,0s-0.526,0.112-0.707,0.293L44.586,2H10H8
			C7.447,2,7,2.447,7,3c0,0.276,0.112,0.526,0.293,0.707l0.999,0.999l-2.091,5.575l-1.648,0.824l0.005,0.009
			C4.23,11.279,4,11.609,4,12c0,0.276,0.112,0.526,0.293,0.707l2.217,2.217L0.061,32.658l0.008,0.003C0.029,32.768,0,32.88,0,33
			c0,0.468,0.328,0.843,0.762,0.952l-0.004,0.019l12,3l0.004-0.019C12.84,36.972,12.916,37,13,37c0.445,0,0.811-0.297,0.939-0.699
			l0.013,0.004L19.17,20H26c3.313,0,6-2.687,6-6v-2h22c0.509,0,0.913-0.386,0.976-0.878l0.017,0.002l1-8l-0.017-0.002
			C55.98,3.08,56,3.043,56,3z M12.333,34.803L2.319,32.299l0.81-2.228l9.858,2.688L12.333,34.803z M13.597,30.854l-9.782-2.668
			L9.7,12h9.93L13.597,30.854z M30,14c0,2.209-1.791,4-4,4h-6.19l1.553-4.851L23.2,15.6l0.014-0.01C23.396,15.833,23.673,16,24,16
			c0.553,0,1-0.447,1-1c0-0.225-0.088-0.423-0.214-0.59L24.8,14.4L23,12h7V14z M49.117,10H21H9H8.443l2.065-5.509l0.198-0.198
			l-0.09-0.09L10.693,4h39.174L49.117,10z M53.117,10h-1.984l0.75-6H52h1.867L53.117,10z M14,16c0.553,0,1-0.447,1-1s-0.447-1-1-1
			s-1,0.447-1,1S13.447,16,14,16z"/>
	</g>
</g>
<g>
</g>
<g>
</g>
<g>
</g>
<g>
</g>
<g>
</g>
<g>
</g>
<g>
</g>
<g>
</g>
<g>
</g>
<g>
</g>
<g>
</g>
<g>
</g>
<g>
</g>
<g>
</g>
<g>
</g>
</svg>
