<?xml version="1.0" encoding="iso-8859-1"?>
<!-- Generator: Adobe Illustrator 16.0.4, SVG Export Plug-In . SVG Version: 6.00 Build 0)  -->
<!DOCTYPE svg PUBLIC "-//W3C//DTD SVG 1.1//EN" "http://www.w3.org/Graphics/SVG/1.1/DTD/svg11.dtd">
<svg version="1.1" id="Layer_1" xmlns="http://www.w3.org/2000/svg" xmlns:xlink="http://www.w3.org/1999/xlink" x="0px" y="0px"
	 width="43.973px" height="43.991px" viewBox="0 0 43.973 43.991" style="enable-background:new 0 0 43.973 43.991;"
	 xml:space="preserve">
<g id="_x38_71-handtruck-toolbar_x40_2x.png">
	<g>
		<path d="M42.21,30.914l-21.761,5.844c-0.821-1.635-2.493-2.767-4.444-2.767c-0.1,0-0.192,0.023-0.29,0.029L7.92,4.961
			C7.917,4.946,7.922,4.933,7.918,4.918s-0.015-0.024-0.02-0.039l-1.11-4.138c-0.143-0.533-0.691-0.85-1.225-0.707
			c-0.533,0.144-0.85,0.691-0.707,1.225l0.862,3.216L0.741,5.826c-0.533,0.143-0.85,0.691-0.707,1.225s0.691,0.851,1.225,0.707
			l4.979-1.352l7.544,28.13c-1.636,0.821-2.77,2.498-2.77,4.455c0,2.762,2.235,5,4.992,5c2.757,0,4.992-2.238,4.992-5
			c0-0.104-0.024-0.2-0.03-0.302l21.761-5.844c0.533-0.143,0.85-0.691,0.707-1.225C43.291,31.088,42.743,30.771,42.21,30.914z
			 M16.004,41.984c-1.656,0-2.999-1.34-2.999-2.993s1.343-2.993,2.999-2.993c1.656,0,2.999,1.34,2.999,2.993
			S17.66,41.984,16.004,41.984z M43.938,25.276L39.797,9.821c-0.143-0.533-0.691-0.85-1.225-0.707l-22.719,6.101
			c-0.534,0.143-0.85,0.691-0.708,1.225l4.141,15.455c0.143,0.533,0.691,0.85,1.225,0.707l22.719-6.101
			C43.765,26.358,44.081,25.81,43.938,25.276z M20.96,30.411l-3.624-13.523l20.787-5.582l3.623,13.522L20.96,30.411z"/>
	</g>
</g>
<g>
</g>
<g>
</g>
<g>
</g>
<g>
</g>
<g>
</g>
<g>
</g>
<g>
</g>
<g>
</g>
<g>
</g>
<g>
</g>
<g>
</g>
<g>
</g>
<g>
</g>
<g>
</g>
<g>
</g>
</svg>
