<?xml version="1.0" encoding="iso-8859-1"?>
<!-- Generator: Adobe Illustrator 16.0.4, SVG Export Plug-In . SVG Version: 6.00 Build 0)  -->
<!DOCTYPE svg PUBLIC "-//W3C//DTD SVG 1.1//EN" "http://www.w3.org/Graphics/SVG/1.1/DTD/svg11.dtd">
<svg version="1.1" id="Layer_1" xmlns="http://www.w3.org/2000/svg" xmlns:xlink="http://www.w3.org/1999/xlink" x="0px" y="0px"
	 width="54px" height="56px" viewBox="0 0 54 56" style="enable-background:new 0 0 54 56;" xml:space="preserve">
<g id="_x38_71-handtruck_x40_2x.png">
	<g>
		<path d="M17.032,17.253l6,22.999l0.018-0.004C23.163,40.677,23.536,41,24,41c0.104,0,0.198-0.029,0.292-0.059l0.004,0.014l29-9
			l-0.005-0.014C53.699,31.814,54,31.449,54,31c0-0.088-0.028-0.166-0.05-0.248l0.018-0.004l-6-23L47.95,7.752
			C47.838,7.323,47.465,7,47,7c-0.104,0-0.198,0.03-0.292,0.06l-0.005-0.015l-29,9l0.004,0.015C17.301,16.186,17,16.552,17,17
			c0,0.088,0.029,0.167,0.05,0.248L17.032,17.253z M46.297,9.266l5.494,21.062l-27.087,8.406l-5.495-21.062L46.297,9.266z M53,36
			c-0.102,0-0.193,0.03-0.285,0.058l-0.005-0.015l-26.693,8.089C24.745,42.821,22.971,42,21,42c-0.24,0-0.467,0.047-0.702,0.071
			L9.97,0.758L9.952,0.762C9.843,0.328,9.468,0,9,0C8.448,0,8,0.447,8,1c0,0.084,0.028,0.16,0.048,0.238L8.03,1.242l1.536,6.145
			l-8.853,2.655l0.004,0.016C0.306,10.181,0,10.548,0,11c0,0.553,0.448,1,1,1c0.101,0,0.191-0.029,0.283-0.057l0.005,0.015
			l8.764-2.629l8.3,33.198C15.8,43.572,14,46.072,14,49c0,3.866,3.134,7,7,7s7-3.134,7-7c0-1.137-0.296-2.194-0.777-3.144
			l26.067-7.899l-0.004-0.015C53.696,37.818,54,37.451,54,37C54,36.447,53.553,36,53,36z M21,54c-2.761,0-5-2.238-5-5s2.239-5,5-5
			s5,2.238,5,5S23.761,54,21,54z"/>
	</g>
</g>
<g>
</g>
<g>
</g>
<g>
</g>
<g>
</g>
<g>
</g>
<g>
</g>
<g>
</g>
<g>
</g>
<g>
</g>
<g>
</g>
<g>
</g>
<g>
</g>
<g>
</g>
<g>
</g>
<g>
</g>
</svg>
