<?xml version="1.0" encoding="iso-8859-1"?>
<!-- Generator: Adobe Illustrator 16.0.4, SVG Export Plug-In . SVG Version: 6.00 Build 0)  -->
<!DOCTYPE svg PUBLIC "-//W3C//DTD SVG 1.1//EN" "http://www.w3.org/Graphics/SVG/1.1/DTD/svg11.dtd">
<svg version="1.1" id="Layer_1" xmlns="http://www.w3.org/2000/svg" xmlns:xlink="http://www.w3.org/1999/xlink" x="0px" y="0px"
	 width="56px" height="52px" viewBox="0 0 56 52" style="enable-background:new 0 0 56 52;" xml:space="preserve">
<g id="_x39_20-handbag_x40_2x.png">
	<g>
		<path d="M42.949,14C42.433,6.185,35.946,0,28,0S13.567,6.185,13.051,14H0v34c0,2.209,1.791,4,4,4h48c2.209,0,4-1.791,4-4V14
			H42.949z M28,2c6.842,0,12.438,5.289,12.949,12H15.051C15.562,7.289,21.158,2,28,2z M54,48c0,1.104-0.896,2-2,2H4
			c-1.104,0-2-0.896-2-2v-6h52V48z M54,40H2V16h52V40z"/>
	</g>
</g>
<g>
</g>
<g>
</g>
<g>
</g>
<g>
</g>
<g>
</g>
<g>
</g>
<g>
</g>
<g>
</g>
<g>
</g>
<g>
</g>
<g>
</g>
<g>
</g>
<g>
</g>
<g>
</g>
<g>
</g>
</svg>
