<?xml version="1.0" encoding="iso-8859-1"?>
<!-- Generator: Adobe Illustrator 16.0.4, SVG Export Plug-In . SVG Version: 6.00 Build 0)  -->
<!DOCTYPE svg PUBLIC "-//W3C//DTD SVG 1.1//EN" "http://www.w3.org/Graphics/SVG/1.1/DTD/svg11.dtd">
<svg version="1.1" id="Layer_1" xmlns="http://www.w3.org/2000/svg" xmlns:xlink="http://www.w3.org/1999/xlink" x="0px" y="0px"
	 width="44px" height="28px" viewBox="0 0 44 28" style="enable-background:new 0 0 44 28;" xml:space="preserve">
<g id="_x31_016-handgun-toolbar_x40_2x.png">
	<g>
		<path d="M44,3c0-0.553-0.447-1-1-1h-1h-2h-2.586l-1.707-1.707C35.526,0.112,35.276,0,35,0s-0.526,0.112-0.707,0.293L32.586,2H9H7
			C6.447,2,6,2.447,6,3c0,0.276,0.112,0.526,0.293,0.707l0.828,0.828L5.263,8.251l-1.71,0.854l0.005,0.01C3.23,9.279,3,9.609,3,10
			c0,0.276,0.112,0.526,0.293,0.707l1.997,1.997L0.086,24.601c-0.004,0.007-0.007,0.014-0.01,0.021l-0.016,0.037l0.008,0.003
			C0.029,24.768,0,24.88,0,25c0,0.468,0.328,0.843,0.762,0.952l-0.004,0.019l7,2l0.004-0.019C7.84,27.972,7.916,28,8,28
			c0.445,0,0.811-0.297,0.939-0.699l0.013,0.004L13.977,16H19c3.313,0,6-2.687,6-6h17c0.509,0,0.913-0.386,0.976-0.878l0.017,0.002
			l1-6l-0.017-0.002C43.98,3.08,44,3.043,44,3z M7.444,25.802l-5.071-1.449l0.958-2.189l4.991,1.663L7.444,25.802z M9.138,21.993
			l-5.003-1.667l3.469-7.93l0.104-0.104l-0.041-0.041L8.652,10h5.815L9.138,21.993z M19,14h-4.134l1.707-3.841l1.627,2.441
			l0.014-0.011C18.396,12.833,18.673,13,19,13c0.553,0,1-0.447,1-1c0-0.225-0.088-0.422-0.214-0.59L19.8,11.4L18.867,10H23
			C23,12.209,21.209,14,19,14z M37.154,8H16H8H7.612l1.611-3.224l0.483-0.483L9.546,4.132L9.612,4H37.82L37.154,8z M41.154,8H39.18
			l0.667-4H40h1.82L41.154,8z M10.5,14c0.553,0,1-0.447,1-1c0-0.552-0.447-1-1-1s-1,0.448-1,1C9.5,13.553,9.947,14,10.5,14z"/>
	</g>
</g>
<g>
</g>
<g>
</g>
<g>
</g>
<g>
</g>
<g>
</g>
<g>
</g>
<g>
</g>
<g>
</g>
<g>
</g>
<g>
</g>
<g>
</g>
<g>
</g>
<g>
</g>
<g>
</g>
<g>
</g>
</svg>
