<?xml version="1.0" encoding="iso-8859-1"?>
<!-- Generator: Adobe Illustrator 16.0.4, SVG Export Plug-In . SVG Version: 6.00 Build 0)  -->
<!DOCTYPE svg PUBLIC "-//W3C//DTD SVG 1.1//EN" "http://www.w3.org/Graphics/SVG/1.1/DTD/svg11.dtd">
<svg version="1.1" id="Layer_1" xmlns="http://www.w3.org/2000/svg" xmlns:xlink="http://www.w3.org/1999/xlink" x="0px" y="0px"
	 width="56px" height="56px" viewBox="0 0 56 56" style="enable-background:new 0 0 56 56;" xml:space="preserve">
<g id="_x38_24-headphone_x40_2x.png">
	<g>
		<path d="M48,20C48,8.954,39.046,0,28,0S8,8.954,8,20c-4.418,0-8,3.582-8,8v4c0,4.418,3.582,8,8,8h2c2,0,2-2,2-2V22c0,0,0-2-2-2
			c0-9.941,8.059-18,18-18s18,8.059,18,18c-2,0-2,2-2,2v16c0,0,0.003,1.544,1.362,1.917c-1.184,3.647-3.982,6.731-7.711,8.713
			C36.884,46.518,34.878,45,32.5,45h-5c-3.037,0-5.5,2.463-5.5,5.5c0,3.038,2.463,5.5,5.5,5.5h5c2.969,0,5.372-2.357,5.479-5.3
			c4.66-2.291,8.131-6.131,9.432-10.7H48c4.418,0,8-3.582,8-8v-4C56,23.582,52.418,20,48,20z M10,38H8c-3.313,0-6-2.687-6-6v-4
			c0-3.313,2.687-6,6-6h2V38z M32.5,54h-5c-1.933,0-3.5-1.566-3.5-3.5c0-1.933,1.567-3.5,3.5-3.5h5c1.933,0,3.5,1.567,3.5,3.5
			C36,52.434,34.433,54,32.5,54z M54,32c0,3.313-2.687,6-6,6h-2V22h2c3.313,0,6,2.687,6,6V32z"/>
	</g>
</g>
<g>
</g>
<g>
</g>
<g>
</g>
<g>
</g>
<g>
</g>
<g>
</g>
<g>
</g>
<g>
</g>
<g>
</g>
<g>
</g>
<g>
</g>
<g>
</g>
<g>
</g>
<g>
</g>
<g>
</g>
</svg>
