<?xml version="1.0" encoding="iso-8859-1"?>
<!-- Generator: Adobe Illustrator 16.0.4, SVG Export Plug-In . SVG Version: 6.00 Build 0)  -->
<!DOCTYPE svg PUBLIC "-//W3C//DTD SVG 1.1//EN" "http://www.w3.org/Graphics/SVG/1.1/DTD/svg11.dtd">
<svg version="1.1" id="Layer_1" xmlns="http://www.w3.org/2000/svg" xmlns:xlink="http://www.w3.org/1999/xlink" x="0px" y="0px"
	 width="44px" height="44px" viewBox="0 0 44 44" style="enable-background:new 0 0 44 44;" xml:space="preserve">
<g id="_x38_24-headphone-toolbar_x40_2x.png">
	<g>
		<path d="M38,16c0-8.837-7.163-16-16-16S6,7.163,6,16c-3.313,0-6,2.687-6,6v4c0,3.313,2.687,6,6,6h2c1.104,0,2-0.896,2-2V18
			c0-1.104-0.896-2-2-2C8,8.268,14.268,2,22,2s14,6.268,14,14c-1.104,0-2,0.896-2,2v12c0,0.654,0.318,1.229,0.805,1.595
			c-1.142,2.601-3.042,4.789-5.428,6.279C28.668,36.751,27.426,36,26,36h-4c-2.209,0-4,1.791-4,4s1.791,4,4,4h4c2.209,0,4-1.791,4-4
			c0-0.055-0.014-0.104-0.016-0.158c3.059-1.775,5.473-4.531,6.818-7.842H38c3.313,0,6-2.687,6-6v-4C44,18.687,41.313,16,38,16z
			 M8,30H6c-2.209,0-4-1.791-4-4v-4c0-2.209,1.791-4,4-4h2V30z M26,42h-4c-1.104,0-2-0.896-2-2s0.896-2,2-2h4c1.104,0,2,0.896,2,2
			S27.104,42,26,42z M42,26c0,2.209-1.791,4-4,4h-2V18h2c2.209,0,4,1.791,4,4V26z"/>
	</g>
</g>
<g>
</g>
<g>
</g>
<g>
</g>
<g>
</g>
<g>
</g>
<g>
</g>
<g>
</g>
<g>
</g>
<g>
</g>
<g>
</g>
<g>
</g>
<g>
</g>
<g>
</g>
<g>
</g>
<g>
</g>
</svg>
