<?xml version="1.0" encoding="iso-8859-1"?>
<!-- Generator: Adobe Illustrator 16.0.4, SVG Export Plug-In . SVG Version: 6.00 Build 0)  -->
<!DOCTYPE svg PUBLIC "-//W3C//DTD SVG 1.1//EN" "http://www.w3.org/Graphics/SVG/1.1/DTD/svg11.dtd">
<svg version="1.1" id="Layer_1" xmlns="http://www.w3.org/2000/svg" xmlns:xlink="http://www.w3.org/1999/xlink" x="0px" y="0px"
	 width="44px" height="40px" viewBox="0 0 44 40" style="enable-background:new 0 0 44 40;" xml:space="preserve">
<g id="_x37_48-heart-toolbar_x40_2x.png">
	<g>
		<path d="M44,12.503C44,5.598,38.406,0,31.507,0C27.697,0,24.292,1.712,22,4.402C19.709,1.712,16.303,0,12.493,0
			C5.594,0,0,5.598,0,12.503C0,12.671,0.019,12.834,0.025,13H0c0,14.399,17.286,22.2,22,27c4.715-4.8,22-12.601,22-27h-0.025
			C43.981,12.834,44,12.671,44,12.503z M22,37.5C20.429,35.1,2,27,2,13h0.033c-0.008-0.166-0.024-0.329-0.024-0.497
			c0-5.798,4.701-10.497,10.5-10.497c4.198,0,7.812,2.47,9.491,6.03c1.68-3.561,5.293-6.03,9.491-6.03c5.8,0,10.5,4.699,10.5,10.497
			c0,0.168-0.017,0.331-0.024,0.497H42C42,27,23.571,35.1,22,37.5z"/>
	</g>
</g>
<g>
</g>
<g>
</g>
<g>
</g>
<g>
</g>
<g>
</g>
<g>
</g>
<g>
</g>
<g>
</g>
<g>
</g>
<g>
</g>
<g>
</g>
<g>
</g>
<g>
</g>
<g>
</g>
<g>
</g>
</svg>
