<?xml version="1.0" encoding="iso-8859-1"?>
<!-- Generator: Adobe Illustrator 16.0.4, SVG Export Plug-In . SVG Version: 6.00 Build 0)  -->
<!DOCTYPE svg PUBLIC "-//W3C//DTD SVG 1.1//EN" "http://www.w3.org/Graphics/SVG/1.1/DTD/svg11.dtd">
<svg version="1.1" id="Layer_1" xmlns="http://www.w3.org/2000/svg" xmlns:xlink="http://www.w3.org/1999/xlink" x="0px" y="0px"
	 width="56px" height="50px" viewBox="0 0 56 50" style="enable-background:new 0 0 56 50;" xml:space="preserve">
<g id="_x37_48-heart_x40_2x.png">
	<g>
		<path d="M40,0c-4.785,0-9.068,2.112-12,5.441C25.068,2.112,20.785,0,16,0C7.163,0,0,7.163,0,16c0,18,22,28,28,34c6-6,28-16,28-34
			C56,7.163,48.837,0,40,0z M28,47.625C26,44.625,2,34,2,16C2,8.269,8.268,2,16,2c5.102,0,9.553,2.738,12,6.816
			C30.447,4.738,34.898,2,40,2c7.732,0,14,6.269,14,14C54,34,30,44.625,28,47.625z"/>
	</g>
</g>
<g>
</g>
<g>
</g>
<g>
</g>
<g>
</g>
<g>
</g>
<g>
</g>
<g>
</g>
<g>
</g>
<g>
</g>
<g>
</g>
<g>
</g>
<g>
</g>
<g>
</g>
<g>
</g>
<g>
</g>
</svg>
