<?xml version="1.0" encoding="iso-8859-1"?>
<!-- Generator: Adobe Illustrator 16.0.4, SVG Export Plug-In . SVG Version: 6.00 Build 0)  -->
<!DOCTYPE svg PUBLIC "-//W3C//DTD SVG 1.1//EN" "http://www.w3.org/Graphics/SVG/1.1/DTD/svg11.dtd">
<svg version="1.1" id="Layer_1" xmlns="http://www.w3.org/2000/svg" xmlns:xlink="http://www.w3.org/1999/xlink" x="0px" y="0px"
	 width="56.016px" height="36.012px" viewBox="0 0 56.016 36.012" style="enable-background:new 0 0 56.016 36.012;"
	 xml:space="preserve">
<g id="_x39_88-helmet_x40_2x.png">
	<g>
		<path d="M56.016,11.258c0-6.21-2.073-9.39-2.162-9.522L52.695,0l-0.623,1.991c-1.012,3.229-3.904,10.36-7.486,13.589
			c-4.033-4.629-9.957-7.568-16.578-7.568S15.463,10.951,11.43,15.58C7.848,12.352,4.955,5.22,3.943,1.991L3.32,0L2.162,1.735
			C2.073,1.868,0,5.048,0,11.258c0,7.117,3.8,12.689,6.266,15.559c-0.152,1.046-0.258,2.107-0.258,3.195v5c0,0.553,0.447,1,1,1h42
			c0.553,0,1-0.447,1-1v-5c0-1.088-0.105-2.149-0.258-3.195C52.216,23.947,56.016,18.375,56.016,11.258z M33.008,10.662
			c7.997,2.062,14.062,8.929,14.899,17.35H33.008V10.662z M6.792,24.266c-2.173-2.864-4.798-7.461-4.798-13.008
			c0-2.761,0.448-4.851,0.9-6.258c0.587,1.535,1.463,3.623,2.583,5.729c1.524,2.868,3.1,4.999,4.711,6.415
			C8.654,19.267,7.494,21.669,6.792,24.266z M23.008,34.012h-15v-4h15V34.012z M23.008,28.012H8.108
			c0.837-8.421,6.902-15.288,14.899-17.35V28.012z M31.008,34.012h-6v-4h6V34.012z M31.008,28.012h-6V10.258
			c0.98-0.148,1.978-0.246,3-0.246s2.02,0.098,3,0.246V28.012z M48.008,34.012h-15v-4h15V34.012z M49.224,24.266
			c-0.702-2.597-1.862-4.999-3.396-7.121c1.611-1.416,3.187-3.547,4.711-6.415c1.12-2.106,1.996-4.194,2.583-5.729
			c0.452,1.407,0.9,3.497,0.9,6.258C54.021,16.805,51.396,21.401,49.224,24.266z M27.008,26.012h2v-2h-2V26.012z M27.008,18.012h2
			v-2h-2V18.012z M27.008,22.012h2v-2h-2V22.012z M27.008,14.012h2v-2h-2V14.012z"/>
	</g>
</g>
<g>
</g>
<g>
</g>
<g>
</g>
<g>
</g>
<g>
</g>
<g>
</g>
<g>
</g>
<g>
</g>
<g>
</g>
<g>
</g>
<g>
</g>
<g>
</g>
<g>
</g>
<g>
</g>
<g>
</g>
</svg>
