<?xml version="1.0" encoding="iso-8859-1"?>
<!-- Generator: Adobe Illustrator 16.0.4, SVG Export Plug-In . SVG Version: 6.00 Build 0)  -->
<!DOCTYPE svg PUBLIC "-//W3C//DTD SVG 1.1//EN" "http://www.w3.org/Graphics/SVG/1.1/DTD/svg11.dtd">
<svg version="1.1" id="Layer_1" xmlns="http://www.w3.org/2000/svg" xmlns:xlink="http://www.w3.org/1999/xlink" x="0px" y="0px"
	 width="43.99px" height="28.005px" viewBox="0 0 43.99 28.005" style="enable-background:new 0 0 43.99 28.005;"
	 xml:space="preserve">
<g id="_x39_88-helmet-toolbar_x40_2x.png">
	<g>
		<path d="M39.6,20.262c1.958-2.415,4.391-6.437,4.391-11.417C43.99,2.723,41.243,0,41.243,0l-0.516,1.564
			c-0.782,2.37-2.924,7.416-5.618,10.138c-3.284-3.499-7.938-5.697-13.114-5.697s-9.83,2.198-13.114,5.697
			C6.187,8.98,4.045,3.935,3.263,1.564L2.747,0C2.747,0,0,2.723,0,8.845c0,4.98,2.433,9.002,4.391,11.417
			c-0.255,1.206-0.395,2.454-0.396,3.735H3.989v3.011H3.99c0,0-0.001,0.001-0.001,0.002c0,0.55,0.45,0.995,1.006,0.995h34
			c0.556,0,1.006-0.445,1.006-0.995c0-0.001,0-0.002,0-0.002v-3.011h-0.006C39.994,22.716,39.854,21.468,39.6,20.262z M25.984,8.526
			C32.257,10.14,37.035,15.446,37.856,22H25.984V8.526z M4.838,17.516c-1.428-2.132-2.851-5.142-2.851-8.671
			c0-1.545,0.191-2.828,0.462-3.87c0.989,2.312,2.621,5.574,4.736,7.847c-0.579,0.855-1.227,1.982-1.811,3.354
			C5.166,16.665,4.988,17.109,4.838,17.516z M18.007,26.014H6.001v-2.017H5.995c0-0.002,0.001-0.004,0.001-0.006h12.011V26.014z
			 M18.007,22H6.134c0.821-6.554,5.6-11.86,11.873-13.474V22z M24.012,26.014h-4.033v-2.022h4.033V26.014z M24.012,22h-4.033V8.146
			c0.662-0.083,1.332-0.141,2.017-0.141s1.354,0.058,2.017,0.141V22z M37.989,23.997v2.017H25.984v-2.022h12.01
			c0,0.002,0.001,0.004,0.001,0.006H37.989z M38.615,16.175c-0.584-1.371-1.231-2.498-1.811-3.354
			c2.115-2.272,3.747-5.534,4.736-7.847c0.271,1.042,0.462,2.325,0.462,3.87c0,3.529-1.423,6.539-2.851,8.671
			C39.002,17.109,38.824,16.665,38.615,16.175z M20.989,15.005h2.012v-1.991h-2.012V15.005z M20.989,11.992h2.012V9.991h-2.012
			V11.992z M20.989,21.01h2.012v-1.991h-2.012V21.01z M20.989,17.987h2.012v-1.991h-2.012V17.987z"/>
	</g>
</g>
<g>
</g>
<g>
</g>
<g>
</g>
<g>
</g>
<g>
</g>
<g>
</g>
<g>
</g>
<g>
</g>
<g>
</g>
<g>
</g>
<g>
</g>
<g>
</g>
<g>
</g>
<g>
</g>
<g>
</g>
</svg>
