<?xml version="1.0" encoding="iso-8859-1"?>
<!-- Generator: Adobe Illustrator 16.0.4, SVG Export Plug-In . SVG Version: 6.00 Build 0)  -->
<!DOCTYPE svg PUBLIC "-//W3C//DTD SVG 1.1//EN" "http://www.w3.org/Graphics/SVG/1.1/DTD/svg11.dtd">
<svg version="1.1" id="Layer_1" xmlns="http://www.w3.org/2000/svg" xmlns:xlink="http://www.w3.org/1999/xlink" x="0px" y="0px"
	 width="36.971px" height="44.009px" viewBox="0 0 36.971 44.009" style="enable-background:new 0 0 36.971 44.009;"
	 xml:space="preserve">
<g id="_x38_12-hiking-toolbar_x40_2x.png">
	<g>
		<path d="M17.968,8.014c2.213,0,4.007-1.794,4.007-4.007S20.181,0,17.968,0s-4.007,1.794-4.007,4.007S15.755,8.014,17.968,8.014z
			 M17.969,2.008c1.106,0,2.003,0.895,2.003,1.998s-0.896,1.998-2.003,1.998s-2.004-0.895-2.004-1.998S16.863,2.008,17.969,2.008z
			 M36.971,13c0-0.553-0.447-1-1-1c-0.463,0-0.835,0.32-0.949,0.747l-0.017-0.005l-8,30l0.017,0.005
			C27,42.83,26.971,42.91,26.971,43c0,0.553,0.447,1,1,1c0.463,0,0.835-0.32,0.949-0.747l0.017,0.005l8-30l-0.017-0.005
			C36.942,13.17,36.971,13.09,36.971,13z M10.943,10.559L6.47,9.122c-0.317-0.103-0.639-0.15-0.955-0.15
			c-1.324,0-2.555,0.851-2.98,2.186L0.15,18.64c-0.527,1.653,0.38,3.423,2.026,3.952l4.472,1.437L10.943,10.559z M2.789,20.688
			c-0.597-0.191-0.926-0.838-0.733-1.44l2.385-7.481c0.151-0.476,0.584-0.794,1.075-0.794c0.115,0,0.23,0.019,0.344,0.055
			l2.572,0.826l-3.08,9.658L2.789,20.688z M28.958,23.992c0-1.249-0.76-2.317-1.842-2.768L21.298,18.6c0,0,0.337-0.713,0.303-0.713
			c-0.004,0-0.01,0.006-0.021,0.021c1.058-2.556-0.146-5.482-2.692-6.536c-0.621-0.258-1.266-0.38-1.9-0.38
			c-1.962,0-3.825,1.167-4.625,3.098c0-0.001,0-0.002,0-0.002c-0.003,0-0.083,0.222-0.083,0.222L4.342,38.34
			c0,0-0.032,0.137-0.047,0.137c-0.002,0-0.002,0-0.003-0.001c-0.847,2.045,0.118,4.386,2.154,5.229
			c0.497,0.206,1.012,0.304,1.52,0.304c1.562,0,3.048-0.928,3.692-2.462l0.055-0.084l2.411-5.753l2.101,5.696l0.014-0.005
			C16.809,42.917,18.262,44,19.978,44c2.213,0,4.007-1.794,4.007-4.007c0-0.504-0.104-0.981-0.273-1.426l0.014-0.005l-3.792-13.965
			l4.863,2.148c0.362,0.155,0.759,0.243,1.177,0.243C27.622,26.989,28.958,25.646,28.958,23.992z M25.973,24.989
			c-0.133,0-0.262-0.027-0.368-0.072l-4.864-2.148c-0.26-0.114-0.535-0.171-0.808-0.171c-0.47,0-0.934,0.166-1.304,0.483
			c-0.585,0.503-0.829,1.297-0.626,2.04l3.729,13.734c0.021,0.145,0.059,0.288,0.11,0.426c0.096,0.25,0.142,0.482,0.142,0.712
			c0,1.106-0.899,2.007-2.006,2.007c-0.836,0-1.569-0.512-1.868-1.304c-0.026-0.071-0.059-0.141-0.093-0.207L16,35.018
			c-0.283-0.771-1.011-1.289-1.832-1.307c-0.015-0.001-0.029-0.001-0.044-0.001c-0.804,0-1.532,0.482-1.845,1.227l-2.346,5.598
			c-0.045,0.077-0.085,0.156-0.12,0.238c-0.314,0.751-1.04,1.236-1.848,1.236c-0.258,0-0.512-0.051-0.754-0.151
			c-0.995-0.412-1.478-1.55-1.095-2.559c0.056-0.12,0.104-0.25,0.144-0.393l7.907-23.938l0.04-0.109
			c0-0.001,0.001-0.003,0.001-0.005c0.47-1.132,1.56-1.863,2.778-1.863c0.389,0,0.771,0.077,1.137,0.228
			c0.734,0.305,1.308,0.879,1.612,1.619c0.306,0.742,0.303,1.561-0.004,2.304c-0.038,0.093-0.069,0.186-0.093,0.279
			c-0.067,0.152-0.147,0.319-0.151,0.324c-0.228,0.485-0.254,1.042-0.067,1.546c0.185,0.503,0.565,0.911,1.055,1.132l5.817,2.625
			c0.018,0.008,0.036,0.016,0.053,0.023c0.371,0.154,0.611,0.516,0.611,0.921C26.958,24.542,26.516,24.989,25.973,24.989z"/>
	</g>
</g>
<g>
</g>
<g>
</g>
<g>
</g>
<g>
</g>
<g>
</g>
<g>
</g>
<g>
</g>
<g>
</g>
<g>
</g>
<g>
</g>
<g>
</g>
<g>
</g>
<g>
</g>
<g>
</g>
<g>
</g>
</svg>
