<?xml version="1.0" encoding="iso-8859-1"?>
<!-- Generator: Adobe Illustrator 16.0.4, SVG Export Plug-In . SVG Version: 6.00 Build 0)  -->
<!DOCTYPE svg PUBLIC "-//W3C//DTD SVG 1.1//EN" "http://www.w3.org/Graphics/SVG/1.1/DTD/svg11.dtd">
<svg version="1.1" id="Layer_1" xmlns="http://www.w3.org/2000/svg" xmlns:xlink="http://www.w3.org/1999/xlink" x="0px" y="0px"
	 width="46px" height="56px" viewBox="0 0 46 56" style="enable-background:new 0 0 46 56;" xml:space="preserve">
<g id="_x38_12-hiking_x40_2x.png">
	<g>
		<path d="M36,30c0-1.364-0.916-2.502-2.162-2.866l0.004-0.011l-9.145-2.729l0.954-2.406l-0.025-0.01C25.85,21.356,26,20.7,26,20
			c0-3.313-2.687-6-6-6c-2.594,0-4.782,1.655-5.62,3.959l-0.021-0.007L4.36,49.172C4.136,49.739,4,50.353,4,51c0,2.762,2.238,5,5,5
			c2.076,0,3.855-1.266,4.611-3.066l0.024,0.008l3.372-9.09l3.325,8.996l0.026-0.009C21.093,54.688,22.89,56,25,56
			c2.762,0,5-2.238,5-5c0-0.516-0.08-1.012-0.226-1.479l0.004-0.001l-6.419-19.17l8.807,2.53l0.003-0.01
			C32.434,32.947,32.709,33,33,33C34.657,33,36,31.657,36,30z M33,31c-0.098,0-0.187-0.029-0.275-0.056l-0.004,0.015l-10.637-3.058
			l-0.008,0.027c-0.086-0.024-0.17-0.054-0.264-0.054c-0.553,0-1,0.448-1,1c0,0.127,0.029,0.243,0.072,0.354l-0.007,0.003
			l6.991,20.881l0.037,0.138l-0.011,0.004C27.957,50.494,28,50.741,28,51c0,1.657-1.343,3-3,3c-1.318,0-2.426-0.855-2.828-2.038
			l-0.149-0.308l-4.043-10.939l-0.034,0.012C17.824,40.311,17.455,40,17,40c-0.441,0-0.805,0.291-0.937,0.688l-0.012-0.004
			l-4.239,11.426l-0.094,0.203l-0.028-0.01C11.205,53.305,10.188,54,9,54c-1.657,0-3-1.343-3-3c0-0.214,0.024-0.422,0.066-0.623
			l-0.004-0.002l0.005-0.018l0.012,0.004l10.173-31.767l0.014,0.005C16.835,17.084,18.286,16,20,16c2.209,0,4,1.791,4,4
			c0,0.438-0.088,0.853-0.218,1.247l0.187,0.065v0.021l-0.183-0.071L22.482,24.6c-0.064,0.132-0.107,0.275-0.107,0.432
			c0,0.422,0.263,0.779,0.632,0.926l-0.005,0.014l9.989,2.981l0.165,0.079C33.631,29.109,34,29.503,34,30C34,30.553,33.553,31,33,31
			z M21,10c2.762,0,5-2.238,5-5s-2.238-5-5-5s-5,2.238-5,5S18.238,10,21,10z M21,2c1.657,0,3,1.344,3,3c0,1.657-1.343,3-3,3
			s-3-1.343-3-3C18,3.344,19.343,2,21,2z M46,17c0-0.553-0.447-1-1-1c-0.464,0-0.836,0.322-0.949,0.75l-0.018-0.004l-10,37.999
			l0.018,0.005C34.029,54.832,34,54.911,34,55c0,0.553,0.447,1,1,1c0.464,0,0.836-0.322,0.949-0.75l0.018,0.005l10-38l-0.018-0.005
			C45.972,17.168,46,17.089,46,17z M13.983,12.899L8.27,11.07c-2.104-0.674-4.356,0.486-5.029,2.59l-3.049,9.523
			c-0.674,2.104,0.486,4.356,2.59,5.029l5.715,1.829L13.983,12.899z M3.392,26.309c-1.053-0.337-1.632-1.463-1.296-2.515
			l3.049-9.524c0.337-1.052,1.463-1.632,2.515-1.295l3.81,1.22L7.201,27.528L3.392,26.309z"/>
	</g>
</g>
<g>
</g>
<g>
</g>
<g>
</g>
<g>
</g>
<g>
</g>
<g>
</g>
<g>
</g>
<g>
</g>
<g>
</g>
<g>
</g>
<g>
</g>
<g>
</g>
<g>
</g>
<g>
</g>
<g>
</g>
</svg>
