<?xml version="1.0" encoding="iso-8859-1"?>
<!-- Generator: Adobe Illustrator 16.0.4, SVG Export Plug-In . SVG Version: 6.00 Build 0)  -->
<!DOCTYPE svg PUBLIC "-//W3C//DTD SVG 1.1//EN" "http://www.w3.org/Graphics/SVG/1.1/DTD/svg11.dtd">
<svg version="1.1" id="Layer_1" xmlns="http://www.w3.org/2000/svg" xmlns:xlink="http://www.w3.org/1999/xlink" x="0px" y="0px"
	 width="44px" height="44px" viewBox="0 0 44 44" style="enable-background:new 0 0 44 44;" xml:space="preserve">
<g id="_x31_166-hindu-om-symbol_x40_2x.png">
	<g>
		<path d="M34.571,15.966c-8.643,0-7.071,9.076-13.357,9.076c-0.785,0-1.571-0.315-2.356-0.693C22,23.592,22,21.325,22,16.79
			c0-3.023-2.357-6.803-7.071-6.803c-4.715,0-10.214,3.779-10.214,3.779l3.143,5.291C11,16.79,14,16.034,14,16.034s2,0,2,3.023
			c0,2.942-1.857,3.023-1.857,3.023s-2.356,0-3.143,0s-0.786,0.756-0.786,0.756s1.572,3.778,2.357,4.534
			c0.786,0.756,0.786,1.512,2.357,1.512c3.232,0,3.054,4.535,3.054,4.535s-0.152,4.535-5.062,4.535C2.705,37.953,0,25.104,0,25.104
			C0,37.197,5.849,44,13.705,44c7.857,0,10.215-6.047,10.215-9.826c0-3.778-1.134-4.174-1.134-4.174S24,30,25,30
			c4.071,0,6-8.05,9-8.05c1.643,0,4,2.268,4,5.29c0,5.291-1,6.809-5,6.809S27,32,27,32s0,7.971,7.571,7.971
			c8.644,0,9.429-9.575,9.429-12.6C44,24.349,42.429,15.966,34.571,15.966z M34.571,37.971c-2.08,0-3.557-0.738-4.497-2.253
			c0.854,0.202,1.828,0.331,2.926,0.331c5.829,0,7-3.37,7-8.809c0-4.105-3.226-7.29-6-7.29c-2.45,0-3.974,2.261-5.447,4.448
			C27.472,26.003,26.127,28,25,28h-2.214c-0.977,0-1.81,0.704-1.973,1.666c-0.127,0.751,0.184,1.488,0.764,1.928
			c0.101,0.223,0.343,0.932,0.343,2.58c0,1.82-0.646,3.723-1.729,5.089C18.752,41.079,16.57,42,13.705,42
			c-3.558,0-6.486-1.661-8.524-4.606c2.26,1.688,4.869,2.56,7.739,2.56c5.021,0,6.975-3.868,7.061-6.456
			c0.014-0.34,0.079-3.37-1.704-5.226c-0.873-0.908-2.03-1.389-3.348-1.389c-0.068,0-0.122-0.002-0.163-0.005
			c-0.031-0.04-0.065-0.086-0.095-0.124c-0.161-0.211-0.379-0.498-0.688-0.8c-0.195-0.236-0.589-0.967-1.022-1.873h1.182
			c0.029,0,0.059-0.001,0.087-0.002C15.533,24.022,18,22.899,18,19.058c0-3.686-2.393-5.023-4-5.023
			c-0.165,0-0.329,0.021-0.488,0.061c-0.113,0.028-2.325,0.598-4.997,2.154l-1.073-1.807c1.965-1.093,4.995-2.455,7.487-2.455
			c3.498,0,5.071,2.809,5.071,4.803c0,5.066-0.255,5.288-1.61,5.613c-0.822,0.198-1.432,0.892-1.521,1.733
			c-0.089,0.841,0.36,1.647,1.122,2.014c0.916,0.44,2.016,0.892,3.224,0.892c3.989,0,5.732-2.729,7.134-4.922
			c1.483-2.321,2.654-4.154,6.224-4.154c7.344,0,7.429,9.312,7.429,9.405C42,29.858,41.464,37.971,34.571,37.971z M29.216,14.011
			c6.533,0,11.349-4.37,11.551-4.571c0.307-0.308,0.307-0.805,0-1.112l-3.142-3.144c-0.152-0.153-0.354-0.23-0.556-0.23
			c-0.178,0-0.356,0.061-0.503,0.182C36.521,5.173,32.021,9,27.645,9c-4.193,0-7.144-5.548-7.172-5.599
			c-0.144-0.249-0.406-0.396-0.682-0.396c-0.067,0-0.135,0.009-0.202,0.026c-0.344,0.092-0.583,0.403-0.583,0.76
			C19.006,3.894,19.122,14.011,29.216,14.011z M27.645,11c3.859,0,7.632-2.402,9.323-3.645l1.427,1.428
			c-1.604,1.165-5.027,3.228-9.179,3.228c-3.202,0-5.155-1.227-6.348-2.736C24.194,10.264,25.801,11,27.645,11z M28.577,5.834
			C28.685,5.943,28.835,6.01,29,6.01s0.315-0.066,0.424-0.176l2.395-2.404c0.107-0.108,0.175-0.259,0.175-0.425
			s-0.067-0.316-0.175-0.425l-2.395-2.404C29.315,0.067,29.165,0,29,0s-0.315,0.067-0.423,0.176L26.183,2.58
			c-0.108,0.108-0.176,0.259-0.176,0.425s0.067,0.316,0.175,0.425L28.577,5.834z M29,2.585l0.418,0.42L29,3.425l-0.418-0.42
			L29,2.585z"/>
	</g>
</g>
<g>
</g>
<g>
</g>
<g>
</g>
<g>
</g>
<g>
</g>
<g>
</g>
<g>
</g>
<g>
</g>
<g>
</g>
<g>
</g>
<g>
</g>
<g>
</g>
<g>
</g>
<g>
</g>
<g>
</g>
</svg>
