<?xml version="1.0" encoding="UTF-8" standalone="no"?>
<svg width="58px" height="58px" viewBox="0 0 58 58" version="1.1" xmlns="http://www.w3.org/2000/svg" xmlns:xlink="http://www.w3.org/1999/xlink" xmlns:sketch="http://www.bohemiancoding.com/sketch/ns">
    <!-- Generator: Sketch 3.0.4 (8053) - http://www.bohemiancoding.com/sketch -->
    <title>1166-hindu-om-symbol</title>
    <desc>Created with Sketch.</desc>
    <defs></defs>
    <g id="Page-1" stroke="none" stroke-width="1" fill="none" fill-rule="evenodd" sketch:type="MSPage">
        <g id="Glyphish-8-Icons" sketch:type="MSArtboardGroup" transform="translate(-500.000000, -595.000000)" fill="#000000">
            <g id="1166-hindu-om-symbol" sketch:type="MSLayerGroup" transform="translate(500.036996, 595.860499)">
                <g id="_x31_166-hindu-om-symbol_x40_2x.png" sketch:type="MSShapeGroup">
                    <path d="M34.293,9.707 C34.474,9.889 34.724,10 35,10 C35.276,10 35.526,9.889 35.707,9.707 L39.707,5.707 C39.888,5.526 40,5.276 40,5 C40,4.724 39.888,4.474 39.707,4.293 L35.707,0.293 C35.526,0.112 35.276,0 35,0 C34.724,0 34.474,0.112 34.293,0.293 L30.293,4.293 C30.112,4.474 30,4.724 30,5 C30,5.276 30.112,5.526 30.293,5.707 L34.293,9.707 L34.293,9.707 Z M35,2.414 L37.586,5 L35,7.586 L32.414,5 L35,2.414 L35,2.414 Z M36.947,17.991 C45.239,17.991 51.35,11.986 51.606,11.73 C51.996,11.341 51.996,10.712 51.606,10.324 L47.62,6.345 C47.256,5.982 46.674,5.955 46.277,6.284 C46.219,6.331 40.508,11.027 34.954,11.027 C29.633,11.027 25.889,4.629 25.851,4.564 C25.625,4.172 25.163,3.98 24.73,4.097 C24.293,4.213 23.99,4.608 23.99,5.058 C23.99,5.188 24.138,17.991 36.947,17.991 L36.947,17.991 Z M34.954,13.018 C40.047,13.018 45.012,9.723 46.832,8.372 L49.453,10.988 C47.67,12.488 42.858,16.002 36.947,16.002 C30.309,16.002 27.69,12.037 26.656,8.877 C28.544,10.87 31.402,13.018 34.954,13.018 L34.954,13.018 Z M44,18 C33,18 35,31 27,31 C26,31 25,30.5 24,30 C28,29 28,26 28,20 C28,16 25,11 19,11 C13,11 6,16 6,16 L10,23 C14,20 19,19 19,19 C19,19 22,19 22,23 C22,26 18,27 18,27 L14,27 C13,27 13,28 13,28 C13,28 15,33 16,34 C17,35 17,36 19,36 C24,36 24,42 24,42 C24,42 24,48 17,48 C4,48 0,31 0,31 C0,47 8,56 18,56 C28,56 31,48 31,43 C31,38 29,36 29,36 L33,36 C40,36 38,26 45,26 C47,26 50,29 50,33 C50,40 48,43 42,43 C36,43 34,38 34,38 C34,38 34,51 44,51 C55,51 56,38 56,34 C56,30 54,18 44,18 L44,18 Z M44,49 C40.201,49 38.206,46.538 37.158,43.942 C38.462,44.573 40.061,45 42,45 C46.656,45 52,43.637 52,33 C52,28.924 48.878,24 45,24 C40.264,24 38.5,27.529 37.211,30.105 C35.932,32.665 35.163,34 33,34 L29,34 C28.173,34 27.377,34.457 27.079,35.229 C26.782,36.001 26.937,36.825 27.551,37.379 C27.61,37.444 29,39.031 29,43 C29,47.086 26.684,54 18,54 C11.897,54 7.072,50.241 4.376,43.951 C7.286,47.296 11.378,50 17,50 C24.383,50 26,44.226 26,42 C26,39.233 24.537,34 19,34 C18.698,34 18.564,33.966 18.547,33.966 L18.545,33.966 C18.488,33.915 18.357,33.736 18.26,33.604 C18.051,33.318 17.791,32.963 17.427,32.599 C17.08,32.211 16.314,30.656 15.588,29 L18,29 C18.163,29 18.326,28.98 18.485,28.94 C20.533,28.429 24,26.601 24,23 C24,18.598 21.01,17 19,17 C18.868,17 18.737,17.014 18.607,17.039 C18.417,17.077 14.506,17.879 10.675,20.15 L8.672,16.646 C11.181,15.133 15.487,13 19,13 C23.828,13 26,17.094 26,20 C26,26.604 25.722,27.508 23.515,28.06 C22.703,28.263 22.104,28.951 22.012,29.783 C21.921,30.615 22.358,31.416 23.106,31.79 C24.241,32.356 25.527,33 27,33 C31.847,33 33.88,29.42 35.673,26.261 C37.58,22.901 39.228,20 44,20 C53.728,20 54,33.86 54,34 C54,37.519 53.279,49 44,49 L44,49 Z" id="Shape"></path>
                </g>
            </g>
        </g>
    </g>
</svg>