<?xml version="1.0" encoding="iso-8859-1"?>
<!-- Generator: Adobe Illustrator 16.0.4, SVG Export Plug-In . SVG Version: 6.00 Build 0)  -->
<!DOCTYPE svg PUBLIC "-//W3C//DTD SVG 1.1//EN" "http://www.w3.org/Graphics/SVG/1.1/DTD/svg11.dtd">
<svg version="1.1" id="Layer_1" xmlns="http://www.w3.org/2000/svg" xmlns:xlink="http://www.w3.org/1999/xlink" x="0px" y="0px"
	 width="36px" height="44px" viewBox="0 0 36 44" style="enable-background:new 0 0 36 44;" xml:space="preserve">
<g id="_x39_89-hockey-mask-toolbar_x40_2x.png">
	<g>
		<path d="M14,6c-1.104,0-2,0.896-2,2s0.896,2,2,2s2-0.896,2-2S15.104,6,14,6z M11,14c-2.762,0-5,1.791-5,4s2.238,4,5,4s5-1.791,5-4
			S13.762,14,11,14z M11,20c-1.657,0-3-0.896-3-2s1.343-2,3-2s3,0.896,3,2S12.657,20,11,20z M14,26c-1.104,0-2,0.896-2,2
			s0.896,2,2,2s2-0.896,2-2S15.104,26,14,26z M14,32c-1.104,0-2,0.896-2,2s0.896,2,2,2s2-0.896,2-2S15.104,32,14,32z M18,0
			C8.059,0,0,7.739,0,17.286v9.429C0,36.261,8.059,44,18,44s18-7.739,18-17.285v-9.429C36,7.739,27.941,0,18,0z M34,26.615
			C34,35.112,26.837,42,18,42S2,35.112,2,26.615v-9.23C2,8.888,9.163,2,18,2s16,6.888,16,15.385V26.615z M25,14
			c-2.762,0-5,1.791-5,4s2.238,4,5,4s5-1.791,5-4S27.762,14,25,14z M25,20c-1.657,0-3-0.896-3-2s1.343-2,3-2s3,0.896,3,2
			S26.657,20,25,20z M22,32c-1.104,0-2,0.896-2,2s0.896,2,2,2s2-0.896,2-2S23.104,32,22,32z M22,26c-1.104,0-2,0.896-2,2
			s0.896,2,2,2s2-0.896,2-2S23.104,26,22,26z M22,10c1.104,0,2-0.896,2-2s-0.896-2-2-2s-2,0.896-2,2S20.896,10,22,10z"/>
	</g>
</g>
<g>
</g>
<g>
</g>
<g>
</g>
<g>
</g>
<g>
</g>
<g>
</g>
<g>
</g>
<g>
</g>
<g>
</g>
<g>
</g>
<g>
</g>
<g>
</g>
<g>
</g>
<g>
</g>
<g>
</g>
</svg>
