<?xml version="1.0" encoding="iso-8859-1"?>
<!-- Generator: Adobe Illustrator 16.0.4, SVG Export Plug-In . SVG Version: 6.00 Build 0)  -->
<!DOCTYPE svg PUBLIC "-//W3C//DTD SVG 1.1//EN" "http://www.w3.org/Graphics/SVG/1.1/DTD/svg11.dtd">
<svg version="1.1" id="Layer_1" xmlns="http://www.w3.org/2000/svg" xmlns:xlink="http://www.w3.org/1999/xlink" x="0px" y="0px"
	 width="44px" height="56px" viewBox="0 0 44 56" style="enable-background:new 0 0 44 56;" xml:space="preserve">
<g id="_x39_89-hockey-mask_x40_2x.png">
	<g>
		<path d="M17,43c-1.657,0-3,1.344-3,3c0,1.657,1.343,3,3,3s3-1.343,3-3C20,44.344,18.657,43,17,43z M17,47c-0.553,0-1-0.447-1-1
			c0-0.552,0.447-1,1-1s1,0.448,1,1C18,46.553,17.553,47,17,47z M14,19c-3.313,0-6,2.238-6,5s2.687,5,6,5s6-2.238,6-5
			S17.313,19,14,19z M14,27c-2.209,0-4-1.343-4-3s1.791-3,4-3s4,1.343,4,3S16.209,27,14,27z M17,35c-1.657,0-3,1.344-3,3
			c0,1.657,1.343,3,3,3s3-1.343,3-3C20,36.344,18.657,35,17,35z M17,39c-0.553,0-1-0.447-1-1s0.447-1,1-1s1,0.447,1,1
			S17.553,39,17,39z M27,43c-1.657,0-3,1.344-3,3c0,1.657,1.343,3,3,3s3-1.343,3-3C30,44.344,28.657,43,27,43z M27,47
			c-0.553,0-1-0.447-1-1c0-0.552,0.447-1,1-1s1,0.448,1,1C28,46.553,27.553,47,27,47z M17,9c-1.657,0-3,1.343-3,3s1.343,3,3,3
			s3-1.343,3-3S18.657,9,17,9z M17,13c-0.553,0-1-0.447-1-1c0-0.552,0.447-1,1-1s1,0.448,1,1C18,12.553,17.553,13,17,13z M30,19
			c-3.313,0-6,2.238-6,5s2.687,5,6,5s6-2.238,6-5S33.313,19,30,19z M30,27c-2.209,0-4-1.343-4-3s1.791-3,4-3s4,1.343,4,3
			S32.209,27,30,27z M22,0C9.85,0,0,9.85,0,22v12c0,12.15,9.85,22,22,22s22-9.85,22-22V22C44,9.85,34.15,0,22,0z M42,34
			c0,11.046-8.954,20-20,20S2,45.046,2,34V22C2,10.954,10.954,2,22,2s20,8.954,20,20V34z M27,35c-1.657,0-3,1.344-3,3
			c0,1.657,1.343,3,3,3s3-1.343,3-3C30,36.344,28.657,35,27,35z M27,39c-0.553,0-1-0.447-1-1s0.447-1,1-1s1,0.447,1,1
			S27.553,39,27,39z M27,15c1.657,0,3-1.343,3-3s-1.343-3-3-3s-3,1.343-3,3S25.343,15,27,15z M27,11c0.553,0,1,0.448,1,1
			c0,0.553-0.447,1-1,1s-1-0.447-1-1C26,11.448,26.447,11,27,11z"/>
	</g>
</g>
<g>
</g>
<g>
</g>
<g>
</g>
<g>
</g>
<g>
</g>
<g>
</g>
<g>
</g>
<g>
</g>
<g>
</g>
<g>
</g>
<g>
</g>
<g>
</g>
<g>
</g>
<g>
</g>
<g>
</g>
</svg>
