<?xml version="1.0" encoding="iso-8859-1"?>
<!-- Generator: Adobe Illustrator 16.0.4, SVG Export Plug-In . SVG Version: 6.00 Build 0)  -->
<!DOCTYPE svg PUBLIC "-//W3C//DTD SVG 1.1//EN" "http://www.w3.org/Graphics/SVG/1.1/DTD/svg11.dtd">
<svg version="1.1" id="Layer_1" xmlns="http://www.w3.org/2000/svg" xmlns:xlink="http://www.w3.org/1999/xlink" x="0px" y="0px"
	 width="44px" height="32px" viewBox="0 0 44 32" style="enable-background:new 0 0 44 32;" xml:space="preserve">
<g id="_x31_158-hockey-stick-and-puck_x40_2x.png">
	<g>
		<path d="M41,0c-0.829,0-1.579,0.337-2.122,0.88L13.938,25.819L3.625,24.062v0.005C3.423,24.024,3.215,24,3,24
			c-1.657,0-3,1.344-3,3v2c0,1.657,1.343,3,3,3h12c0.828,0,1.578-0.336,2.121-0.879l26-26C43.664,4.579,44,3.828,44,3
			C44,1.343,42.657,0,41,0z M41.707,3.707l-26,26C15.526,29.888,15.276,30,15,30H3c-0.553,0-1-0.447-1-1v-2c0-0.553,0.447-1,1-1
			c0.068,0,0.128,0.026,0.192,0.039l0.004-0.02l10.901,1.816l0.001-0.004c0.071,0.016,0.138,0.043,0.214,0.043
			c0.205,0,0.384-0.076,0.543-0.182l0.025,0.012l0.09-0.09c0.029-0.026,0.056-0.053,0.082-0.082l25.24-25.239
			C40.474,2.112,40.724,2,41,2c0.553,0,1,0.448,1,1C42,3.276,41.888,3.526,41.707,3.707z M10,16c5.522,0,10-2.238,10-5V5
			c0-2.762-4.478-5-10-5S0,2.238,0,5v6C0,13.762,4.478,16,10,16z M10,2c4.418,0,8,1.343,8,3s-3.582,3-8,3S2,6.657,2,5S5.582,2,10,2z
			 M2,8.009V7.991C3.824,9.209,6.724,10,10,10s6.176-0.791,8-2.009v0.018V11c0,1.657-3.582,3-8,3s-8-1.343-8-3V8.009z"/>
	</g>
</g>
<g>
</g>
<g>
</g>
<g>
</g>
<g>
</g>
<g>
</g>
<g>
</g>
<g>
</g>
<g>
</g>
<g>
</g>
<g>
</g>
<g>
</g>
<g>
</g>
<g>
</g>
<g>
</g>
<g>
</g>
</svg>
