<?xml version="1.0" encoding="iso-8859-1"?>
<!-- Generator: Adobe Illustrator 16.0.4, SVG Export Plug-In . SVG Version: 6.00 Build 0)  -->
<!DOCTYPE svg PUBLIC "-//W3C//DTD SVG 1.1//EN" "http://www.w3.org/Graphics/SVG/1.1/DTD/svg11.dtd">
<svg version="1.1" id="Layer_1" xmlns="http://www.w3.org/2000/svg" xmlns:xlink="http://www.w3.org/1999/xlink" x="0px" y="0px"
	 width="44px" height="44px" viewBox="0 0 44 44" style="enable-background:new 0 0 44 44;" xml:space="preserve">
<g id="_x37_50-home-toolbar_x40_2x.png">
	<g>
		<path d="M43.707,21.293L36,13.586V6c0-1.105-0.896-2-2-2h-2c-1.105,0-2,0.895-2,2v1.586l-7.293-7.293C22.526,0.111,22.275,0,22,0
			c-0.276,0-0.526,0.111-0.708,0.293L0.293,21.292C0.111,21.474,0,21.724,0,22c0,0.552,0.447,1,1,1c0.275,0,0.525-0.112,0.707-0.293
			L4,20.414V42c0,1.104,0.895,2,2,2h12h8h12c1.104,0,2-0.896,2-2V20.414l2.293,2.293C42.474,22.888,42.724,23,43,23
			c0.552,0,1-0.448,1-1C44,21.724,43.888,21.474,43.707,21.293z M32,6h2v5.586l-2-2V6z M26,42h-8V24h8V42z M38,42H28V24
			c0-1.104-0.896-2-2-2h-8c-1.105,0-2,0.896-2,2v18H6V18.414l16-16l16,16V42z"/>
	</g>
</g>
<g>
</g>
<g>
</g>
<g>
</g>
<g>
</g>
<g>
</g>
<g>
</g>
<g>
</g>
<g>
</g>
<g>
</g>
<g>
</g>
<g>
</g>
<g>
</g>
<g>
</g>
<g>
</g>
<g>
</g>
</svg>
