<?xml version="1.0" encoding="iso-8859-1"?>
<!-- Generator: Adobe Illustrator 16.0.4, SVG Export Plug-In . SVG Version: 6.00 Build 0)  -->
<!DOCTYPE svg PUBLIC "-//W3C//DTD SVG 1.1//EN" "http://www.w3.org/Graphics/SVG/1.1/DTD/svg11.dtd">
<svg version="1.1" id="Layer_1" xmlns="http://www.w3.org/2000/svg" xmlns:xlink="http://www.w3.org/1999/xlink" x="0px" y="0px"
	 width="56px" height="56px" viewBox="0 0 56 56" style="enable-background:new 0 0 56 56;" xml:space="preserve">
<g id="_x37_50-home_x40_2x.png">
	<g>
		<path d="M55.718,28.309l0.002-0.003L46,18.227V6c0-1.104-0.896-2-2-2h-4c-1.104,0-2,0.896-2,2v3.93l-9.28-9.624l-0.002,0.003
			C28.535,0.12,28.283,0,28,0s-0.535,0.12-0.718,0.309L27.28,0.306l-27,28l0.002,0.003C0.109,28.488,0,28.73,0,29
			c0,0.553,0.447,1,1,1c0.283,0,0.535-0.119,0.718-0.309l0.002,0.003L6,25.256V54c0,1.104,0.896,2,2,2h14h12h14c1.104,0,2-0.896,2-2
			V25.256l4.28,4.438l0.002-0.003C54.465,29.881,54.717,30,55,30c0.553,0,1-0.447,1-1C56,28.73,55.891,28.488,55.718,28.309z M40,6
			h4v10.152l-4-4.148V6z M34,54H22V32h12V54z M48,54H36V32c0-1.104-0.896-2-2-2H22c-1.104,0-2,0.896-2,2v22H8V23.182L28,2.44
			l20,20.741V54z"/>
	</g>
</g>
<g>
</g>
<g>
</g>
<g>
</g>
<g>
</g>
<g>
</g>
<g>
</g>
<g>
</g>
<g>
</g>
<g>
</g>
<g>
</g>
<g>
</g>
<g>
</g>
<g>
</g>
<g>
</g>
<g>
</g>
</svg>
