<?xml version="1.0" encoding="UTF-8" standalone="no"?>
<svg width="54px" height="58px" viewBox="0 0 54 58" version="1.1" xmlns="http://www.w3.org/2000/svg" xmlns:xlink="http://www.w3.org/1999/xlink" xmlns:sketch="http://www.bohemiancoding.com/sketch/ns">
    <!-- Generator: Sketch 3.0.4 (8053) - http://www.bohemiancoding.com/sketch -->
    <title>1106-horizontal-swipe</title>
    <desc>Created with Sketch.</desc>
    <defs></defs>
    <g id="Page-1" stroke="none" stroke-width="1" fill="none" fill-rule="evenodd" sketch:type="MSPage">
        <g id="Glyphish-8-Icons" sketch:type="MSArtboardGroup" transform="translate(-502.000000, -19.000000)" fill="#000000">
            <g id="1106-horizontal-swipe" sketch:type="MSLayerGroup" transform="translate(502.036996, 19.860499)">
                <g id="_x31_106-horizontal-swipe_x40_2x.png" sketch:type="MSShapeGroup">
                    <path d="M5,10 C5.553,10 6,9.553 6,9 C6,8.724 5.888,8.474 5.707,8.293 L3.414,6 L15,6 C15.553,6 16,5.553 16,5 C16,4.448 15.553,4 15,4 L3.414,4 L5.707,1.707 C5.888,1.526 6,1.276 6,1 C6,0.448 5.553,0 5,0 C4.724,0 4.474,0.112 4.293,0.293 L0.293,4.293 C0.112,4.474 0,4.724 0,5 C0,5.276 0.112,5.526 0.293,5.707 L4.293,9.707 C4.474,9.888 4.724,10 5,10 L5,10 Z M20,15 C20,14.724 19.888,14.474 19.707,14.293 L15.707,10.293 C15.526,10.112 15.276,10 15,10 C14.447,10 14,10.447 14,11 C14,11.276 14.112,11.526 14.293,11.707 L16.586,14 L5,14 C4.447,14 4,14.448 4,15 C4,15.553 4.447,16 5,16 L16.586,16 L14.293,18.293 C14.112,18.474 14,18.724 14,19 C14,19.553 14.447,20 15,20 C15.276,20 15.526,19.889 15.707,19.707 L19.707,15.707 C19.888,15.526 20,15.276 20,15 L20,15 Z M48,22 C47.17,22 46.4,22.253 45.761,22.686 C45.215,21.126 43.746,20 42,20 C41.171,20 40.4,20.253 39.761,20.686 C39.215,19.126 37.746,18 36,18 C35.268,18 34.591,18.212 34,18.555 L34,10 C34,7.791 32.209,6 30,6 C27.791,6 26,7.791 26,10 L26,32.913 L23.688,28.456 C22.656,26.384 20.503,25.446 18.462,26.291 C16.421,27.137 15.451,29.477 16.297,31.518 L20.601,44.297 C22.48,51.044 28.654,56 36,56 C44.837,56 52,48.837 52,40 L52,39.999 L52,26 C52,23.791 50.209,22 48,22 L48,22 Z M50,40 C50,47.732 43.732,54 36,54 C30.084,54 25.036,50.325 22.986,45.138 L22.966,45.14 L22.965,45.137 L22.986,45.128 L18.144,30.752 C17.721,29.731 18.206,28.562 19.226,28.139 C20.247,27.716 21.259,28.116 21.839,29.222 L26.087,37.41 L26.091,37.408 C26.248,37.756 26.594,38 27,38 C27.553,38 28,37.553 28,37 L28,10 C28,8.896 28.896,8 30,8 C31.104,8 32,8.896 32,10 L32,27 C32,27.553 32.448,28 33,28 C33.553,28 34,27.553 34,27 L34,22 C34,20.896 34.896,20 36,20 C37.104,20 38,20.896 38,22 L38,29 C38,29.553 38.448,30 39,30 C39.553,30 40,29.553 40,29 L40,24 C40,22.896 40.896,22 42,22 C43.104,22 44,22.896 44,24 L44,31 C44,31.553 44.448,32 45,32 C45.553,32 46,31.553 46,31 L46,26.001 C46,26.001 46,26.001 46,26 C46,24.896 46.896,24 48,24 C49.104,24 50,24.896 50,26 L50,40 L50,40 Z" id="Shape"></path>
                </g>
            </g>
        </g>
    </g>
</svg>