<?xml version="1.0" encoding="iso-8859-1"?>
<!-- Generator: Adobe Illustrator 16.0.4, SVG Export Plug-In . SVG Version: 6.00 Build 0)  -->
<!DOCTYPE svg PUBLIC "-//W3C//DTD SVG 1.1//EN" "http://www.w3.org/Graphics/SVG/1.1/DTD/svg11.dtd">
<svg version="1.1" id="Layer_1" xmlns="http://www.w3.org/2000/svg" xmlns:xlink="http://www.w3.org/1999/xlink" x="0px" y="0px"
	 width="44px" height="44px" viewBox="0 0 44 44" style="enable-background:new 0 0 44 44;" xml:space="preserve">
<g id="_x31_106-horizontal-swipe_x40_2x.png">
	<g>
		<path d="M17.707,14.293l-4-4C13.526,10.112,13.276,10,13,10c-0.553,0-1,0.447-1,1c0,0.276,0.112,0.526,0.293,0.707L14.586,14H5
			c-0.553,0-1,0.448-1,1c0,0.553,0.447,1,1,1h9.586l-2.293,2.293C12.112,18.474,12,18.724,12,19c0,0.553,0.447,1,1,1
			c0.276,0,0.526-0.112,0.707-0.293l4-4C17.888,15.526,18,15.276,18,15S17.888,14.474,17.707,14.293z M5,10c0.553,0,1-0.447,1-1
			c0-0.276-0.112-0.526-0.293-0.707L3.414,6H13c0.553,0,1-0.447,1-1s-0.447-1-1-1H3.414l2.293-2.293C5.888,1.526,6,1.276,6,1
			c0-0.553-0.447-1-1-1C4.724,0,4.474,0.112,4.293,0.293l-4,4C0.112,4.474,0,4.724,0,5s0.112,0.526,0.293,0.707l4,4
			C4.474,9.888,4.724,10,5,10z M41,20c-0.395,0-0.771,0.081-1.115,0.22C39.539,18.943,38.385,18,37,18
			c-0.395,0-0.771,0.081-1.115,0.22C35.539,16.943,34.385,16,33,16c-0.353,0-0.686,0.072-1,0.184V11c0-1.657-1.343-3-3-3
			s-3,1.343-3,3v15.861l-2.615-3.699l-0.045,0.032C22.797,22.48,21.968,22,21,22c-1.657,0-3,1.343-3,3
			c0,0.389,0.08,0.757,0.214,1.098l-0.012,0.006l3.241,9.546C22.815,40.468,27.239,44,32.497,44c6.352,0,11.5-5.148,11.503-11.5V23
			C44,21.343,42.657,20,41,20z M42,25.806v0.249V32.5c-0.002,5.247-4.255,9.5-9.502,9.5c-4.235,0-7.82-2.773-9.047-6.602
			l0.003-0.002l-0.05-0.146c-0.02-0.066-0.027-0.138-0.046-0.204l-1.923-5.621c-0.002,0.008-0.006,0.015-0.008,0.021l-0.494-1.453
			c0.004,0,0.008,0.001,0.012,0.001l-0.917-2.682l0.031-0.018C20.029,25.2,20,25.104,20,25c0-0.552,0.447-1,1-1
			c0.304,0,0.567,0.143,0.75,0.357l0.003-0.002l4.487,6.295l0.01-0.007C26.434,30.857,26.696,31,27,31c0.553,0,1-0.447,1-1v-5.854
			v-2.224v-8.105V11c0-0.553,0.447-1,1-1s1,0.447,1,1v2.816V23c0,0.553,0.447,1,1,1s1-0.447,1-1v-2v-2c0-0.552,0.447-1,1-1
			s1,0.448,1,1v4.126V25c0,0.553,0.447,1,1,1s1-0.447,1-1v-1.322V21c0-0.552,0.447-1,1-1s1,0.448,1,1v3.766V27c0,0.553,0.447,1,1,1
			s1-0.447,1-1v-0.288V23c0-0.552,0.447-1,1-1s1,0.448,1,1V25.806z"/>
	</g>
</g>
<g>
</g>
<g>
</g>
<g>
</g>
<g>
</g>
<g>
</g>
<g>
</g>
<g>
</g>
<g>
</g>
<g>
</g>
<g>
</g>
<g>
</g>
<g>
</g>
<g>
</g>
<g>
</g>
<g>
</g>
</svg>
