<?xml version="1.0" encoding="UTF-8" standalone="no"?>
<svg width="42px" height="58px" viewBox="0 0 42 58" version="1.1" xmlns="http://www.w3.org/2000/svg" xmlns:xlink="http://www.w3.org/1999/xlink" xmlns:sketch="http://www.bohemiancoding.com/sketch/ns">
    <!-- Generator: Sketch 3.0.4 (8053) - http://www.bohemiancoding.com/sketch -->
    <title>1185-horse</title>
    <desc>Created with Sketch.</desc>
    <defs></defs>
    <g id="Page-1" stroke="none" stroke-width="1" fill="none" fill-rule="evenodd" sketch:type="MSPage">
        <g id="Glyphish-8-Icons" sketch:type="MSArtboardGroup" transform="translate(-412.000000, -787.000000)" fill="#000000">
            <g id="1185-horse" sketch:type="MSLayerGroup" transform="translate(412.036996, 787.860499)">
                <g id="_x31_185-horse_x40_2x.png" sketch:type="MSShapeGroup">
                    <path d="M37.105,18.37 C40.376,15.037 40.867,9.303 38.603,0.941 L38.348,0 L37.407,0.25 C32.707,1.495 29.276,3.555 27.222,6.17 C26.334,3.795 25,2.01 25,2.01 L23.5,3.51 C22.5,1.51 21,0.01 21,0.01 C20,1.01 19,5.01 19,5.01 C18,2.01 16,0.01 16,0.01 C14.609,2.328 13.653,4.64 13.022,6.459 C11.001,3.702 7.47,1.542 2.593,0.25 L1.652,0 L1.397,0.941 C-0.868,9.303 -0.376,15.037 2.895,18.37 C1.324,25.966 0,38.128 0,43.01 C0,49.01 9,56.01 20,56.01 C31,56.01 40,49.01 40,43.01 C40,38.128 38.676,25.966 37.105,18.37 L37.105,18.37 Z M36.971,2.397 C38.533,8.621 38.384,13.076 36.54,15.914 C36.361,15.209 36.181,14.552 36,14.01 C35.059,11.186 31.458,9.692 27.911,8.901 C27.902,8.833 27.904,8.763 27.894,8.696 C29.321,5.953 32.388,3.772 36.971,2.397 L36.971,2.397 Z M3.029,2.397 C7.712,3.802 10.785,6.056 12.17,8.882 C8.597,9.67 4.949,11.164 4,14.01 C3.819,14.552 3.639,15.209 3.46,15.914 C1.616,13.076 1.466,8.621 3.029,2.397 L3.029,2.397 Z M5.897,14.643 C7.061,11.153 15.9,10.015 20,10.01 C24.1,10.015 32.939,11.154 34.103,14.643 C35.83,19.824 37.565,33.577 37.928,40.685 C33.068,37.779 26.833,36.01 20,36.01 C13.167,36.01 6.932,37.78 2.072,40.685 C2.435,33.576 4.17,19.823 5.897,14.643 L5.897,14.643 Z M20,54.01 C9.612,54.01 2.084,47.508 2.007,43.08 C6.677,39.957 12.993,38.01 20,38.01 C27.007,38.01 33.323,39.957 37.993,43.08 C37.916,47.508 30.389,54.01 20,54.01 L20,54.01 Z M27,24.01 C28.657,24.01 30,22.667 30,21.01 C30,19.354 28.657,18.01 27,18.01 C25.343,18.01 24,19.354 24,21.01 C24,22.667 25.343,24.01 27,24.01 L27,24.01 Z M14,42.01 C12.896,42.01 12,42.906 12,44.01 L12,48.01 C12,49.114 12.896,50.01 14,50.01 C15.104,50.01 16,49.114 16,48.01 L16,44.01 C16,42.905 15.104,42.01 14,42.01 L14,42.01 Z M13,18.01 C11.343,18.01 10,19.354 10,21.01 C10,22.667 11.343,24.01 13,24.01 C14.657,24.01 16,22.667 16,21.01 C16,19.354 14.657,18.01 13,18.01 L13,18.01 Z M26,42.01 C24.896,42.01 24,42.906 24,44.01 L24,48.01 C24,49.114 24.896,50.01 26,50.01 C27.104,50.01 28,49.114 28,48.01 L28,44.01 C28,42.905 27.104,42.01 26,42.01 L26,42.01 Z" id="Shape"></path>
                </g>
            </g>
        </g>
    </g>
</svg>