<?xml version="1.0" encoding="iso-8859-1"?>
<!-- Generator: Adobe Illustrator 16.0.4, SVG Export Plug-In . SVG Version: 6.00 Build 0)  -->
<!DOCTYPE svg PUBLIC "-//W3C//DTD SVG 1.1//EN" "http://www.w3.org/Graphics/SVG/1.1/DTD/svg11.dtd">
<svg version="1.1" id="Layer_1" xmlns="http://www.w3.org/2000/svg" xmlns:xlink="http://www.w3.org/1999/xlink" x="0px" y="0px"
	 width="32px" height="44.021px" viewBox="0 0 32 44.021" style="enable-background:new 0 0 32 44.021;" xml:space="preserve">
<g id="_x31_185-horse_x40_2x.png">
	<g>
		<path d="M12,14.008c-1.104,0-2,0.896-2,2s0.896,2,2,2s2-0.896,2-2S13.104,14.008,12,14.008z M20,18.008c1.104,0,2-0.896,2-2
			s-0.896-2-2-2s-2,0.896-2,2S18.896,18.008,20,18.008z M29.731,14.442c2.489-2.617,2.895-7.108,1.18-13.703L30.718,0l-0.71,0.196
			c-3.842,1.061-6.566,2.868-8.054,5.173C21.262,3.252,20,1.579,20,1.579l-1.2,1.179c-0.8-1.571-2-2.75-2-2.75
			c-0.8,0.786-1.6,3.929-1.6,3.929c-0.8-2.357-2.4-3.929-2.4-3.929c-1.285,2.104-2.103,4.191-2.593,5.689
			c-1.435-2.46-4.225-4.392-8.246-5.501L1.25,0L1.058,0.739c-1.721,6.617-1.307,11.117,1.206,13.73C1.03,20.5,0,29.912,0,33.725
			c0,4.752,7.2,10.296,16,10.296s16-5.544,16-10.296C32,29.906,30.967,20.471,29.731,14.442z M29.384,2.469
			c0.999,4.353,0.915,7.483-0.222,9.52c-0.121-0.45-0.241-0.874-0.362-1.232c-0.672-1.998-3.043-3.147-5.564-3.817
			C24.261,5.03,26.385,3.482,29.384,2.469z M2.584,2.469c3.002,1.014,5.127,2.564,6.151,4.475C6.226,7.614,3.87,8.765,3.2,10.756
			c-0.124,0.367-0.248,0.803-0.371,1.268C1.672,9.987,1.58,6.848,2.584,2.469z M5.094,11.403C5.868,9.104,12.059,8.025,16,8.02
			c3.941,0.006,10.132,1.085,10.906,3.384c1.298,3.855,2.658,14.253,3.006,19.982c-3.469-2.069-8.404-3.378-13.913-3.378
			S5.557,29.316,2.087,31.386C2.436,25.656,3.796,15.258,5.094,11.403z M26.178,38.985c-2.81,1.919-6.52,3.019-10.178,3.019
			s-7.368-1.1-10.178-3.019C3.466,37.377,2.002,35.362,2,33.727c3.061-2.237,8.168-3.719,14-3.719c5.832,0,10.939,1.481,14,3.719
			C29.998,35.362,28.534,37.377,26.178,38.985z M20,32.008c-1.104,0-2,0.896-2,2v4c0,1.104,0.896,2,2,2s2-0.896,2-2v-4
			C22,32.903,21.104,32.008,20,32.008z M12,32.008c-1.104,0-2,0.896-2,2v4c0,1.104,0.896,2,2,2s2-0.896,2-2v-4
			C14,32.903,13.104,32.008,12,32.008z"/>
	</g>
</g>
<g>
</g>
<g>
</g>
<g>
</g>
<g>
</g>
<g>
</g>
<g>
</g>
<g>
</g>
<g>
</g>
<g>
</g>
<g>
</g>
<g>
</g>
<g>
</g>
<g>
</g>
<g>
</g>
<g>
</g>
</svg>
