<?xml version="1.0" encoding="iso-8859-1"?>
<!-- Generator: Adobe Illustrator 16.0.4, SVG Export Plug-In . SVG Version: 6.00 Build 0)  -->
<!DOCTYPE svg PUBLIC "-//W3C//DTD SVG 1.1//EN" "http://www.w3.org/Graphics/SVG/1.1/DTD/svg11.dtd">
<svg version="1.1" id="Layer_1" xmlns="http://www.w3.org/2000/svg" xmlns:xlink="http://www.w3.org/1999/xlink" x="0px" y="0px"
	 width="32px" height="44px" viewBox="0 0 32 44" style="enable-background:new 0 0 32 44;" xml:space="preserve">
<g id="_x38_86-ice-cream-cone-toolbar_x40_2x.png">
	<g>
		<path d="M25.811,8.04C24.896,3.455,20.853,0,16,0c-4.861,0-8.909,3.468-9.814,8.064C2.704,8.467,0,11.419,0,15.007
			c0,3.632,2.771,6.616,6.314,6.959l8.755,21.4l0.004-0.002C15.22,43.735,15.577,44,16,44s0.78-0.265,0.927-0.636l0.004,0.002
			l8.755-21.4C29.229,21.624,32,18.635,32,14.995C32,11.399,29.294,8.439,25.811,8.04z M16,40.359L8.489,22h15.021L16,40.359z
			 M25.006,19.989v0.003h-4.887c0.004,0.003,0.007,0.007,0.01,0.01h-3.996c0.034-0.001,0.067-0.01,0.102-0.01h-0.47
			c0.035,0,0.067,0.009,0.103,0.01h-3.986c0.004-0.003,0.006-0.007,0.01-0.01H7.012v-0.001c-0.005,0-0.01,0.001-0.015,0.001
			c-2.757,0-4.991-2.238-4.991-5s2.234-5,4.991-5c0.345,0,0.682,0.035,1.007,0.102C8.004,10.064,8,10.036,8,10.007
			c0-4.417,3.582-7.998,8-7.998s8,3.581,8,7.998c0,0.031-0.004,0.062-0.005,0.094C24.317,10.035,24.649,10,24.99,10
			c2.764,0,5.003,2.236,5.003,4.996C29.993,17.749,27.762,19.98,25.006,19.989z"/>
	</g>
</g>
<g>
</g>
<g>
</g>
<g>
</g>
<g>
</g>
<g>
</g>
<g>
</g>
<g>
</g>
<g>
</g>
<g>
</g>
<g>
</g>
<g>
</g>
<g>
</g>
<g>
</g>
<g>
</g>
<g>
</g>
</svg>
