<?xml version="1.0" encoding="iso-8859-1"?>
<!-- Generator: Adobe Illustrator 16.0.4, SVG Export Plug-In . SVG Version: 6.00 Build 0)  -->
<!DOCTYPE svg PUBLIC "-//W3C//DTD SVG 1.1//EN" "http://www.w3.org/Graphics/SVG/1.1/DTD/svg11.dtd">
<svg version="1.1" id="Layer_1" xmlns="http://www.w3.org/2000/svg" xmlns:xlink="http://www.w3.org/1999/xlink" x="0px" y="0px"
	 width="40px" height="56px" viewBox="0 0 40 56" style="enable-background:new 0 0 40 56;" xml:space="preserve">
<g id="_x38_86-ice-cream-cone_x40_2x.png">
	<g>
		<path d="M32,12c0-6.627-5.373-12-12-12C14.041,0,9.11,4.349,8.174,10.042C3.591,10.46,0,14.309,0,19
			c0,4.736,3.66,8.609,8.305,8.965l10.765,27.401l0.004-0.002C19.22,55.735,19.577,56,20,56s0.78-0.265,0.927-0.636l0.004,0.002
			L31.682,28H32c4.418,0,8-3.582,8-8S36.418,12,32,12z M20,52.266L10.468,28h19.064L20,52.266z M32,26H9c-3.866,0-7-3.134-7-7
			s3.134-7,7-7c0.342,0,0.676,0.033,1.004,0.08C10.004,12.053,10,12.027,10,12c0-5.522,4.478-10,10-10s10,4.478,10,10
			c0,0.853-0.118,1.676-0.319,2.467C30.395,14.167,31.178,14,32,14c3.313,0,6,2.687,6,6C38,23.314,35.313,26,32,26z"/>
	</g>
</g>
<g>
</g>
<g>
</g>
<g>
</g>
<g>
</g>
<g>
</g>
<g>
</g>
<g>
</g>
<g>
</g>
<g>
</g>
<g>
</g>
<g>
</g>
<g>
</g>
<g>
</g>
<g>
</g>
<g>
</g>
</svg>
