<?xml version="1.0" encoding="UTF-8" standalone="no"?>
<svg width="58px" height="58px" viewBox="0 0 58 58" version="1.1" xmlns="http://www.w3.org/2000/svg" xmlns:xlink="http://www.w3.org/1999/xlink" xmlns:sketch="http://www.bohemiancoding.com/sketch/ns">
    <!-- Generator: Sketch 3.0.4 (8053) - http://www.bohemiancoding.com/sketch -->
    <title>1267-icloud</title>
    <desc>Created with Sketch.</desc>
    <defs></defs>
    <g id="Page-1" stroke="none" stroke-width="1" fill="none" fill-rule="evenodd" sketch:type="MSPage">
        <g id="Glyphish-8-Icons" sketch:type="MSArtboardGroup" transform="translate(-596.000000, -1555.000000)" fill="#000000">
            <g id="1267-icloud" sketch:type="MSLayerGroup" transform="translate(596.036996, 1555.860499)">
                <g id="_x31_267-icloud_x40_2x.png" sketch:type="MSShapeGroup">
                    <path d="M28,0 C12.536,0 0,12.536 0,28 C0,43.464 12.536,56 28,56 C43.464,56 56,43.464 56,28 C56,12.536 43.464,0 28,0 L28,0 Z M28,54 C13.641,54 2,42.359 2,28 C2,13.641 13.641,2 28,2 C42.359,2 54,13.641 54,28 C54,42.359 42.359,54 28,54 L28,54 Z M39.682,24.074 C39.703,23.822 39.721,23.568 39.721,23.31 C39.721,18.168 35.504,13.999 30.303,13.999 C27.308,13.999 24.645,15.386 22.92,17.539 C22.346,17.337 21.737,17.206 21.093,17.206 C18.144,17.206 15.756,19.53 15.668,22.425 C12.385,23.433 10,26.458 10,30.035 C10,34.434 13.607,38 18.059,38 L38.152,38 L38.152,37.925 C38.433,37.96 38.713,38 39.004,38 C42.867,38 46,34.867 46,31.003 C46,27.371 43.223,24.42 39.682,24.074 L39.682,24.074 Z" id="Shape"></path>
                </g>
            </g>
        </g>
    </g>
</svg>