<?xml version="1.0" encoding="iso-8859-1"?>
<!-- Generator: Adobe Illustrator 16.0.4, SVG Export Plug-In . SVG Version: 6.00 Build 0)  -->
<!DOCTYPE svg PUBLIC "-//W3C//DTD SVG 1.1//EN" "http://www.w3.org/Graphics/SVG/1.1/DTD/svg11.dtd">
<svg version="1.1" id="Layer_1" xmlns="http://www.w3.org/2000/svg" xmlns:xlink="http://www.w3.org/1999/xlink" x="0px" y="0px"
	 width="44px" height="44px" viewBox="0 0 44 44" style="enable-background:new 0 0 44 44;" xml:space="preserve">
<g id="_x31_267-icloud_x40_2x.png">
	<g>
		<path d="M31.048,18.979c0.017-0.202,0.06-0.396,0.06-0.603c0-4.073-3.276-7.376-7.318-7.376c-2.323,0-4.369,1.112-5.709,2.813
			c-0.453-0.167-0.937-0.272-1.447-0.272c-2.303,0-4.168,1.858-4.219,4.167c-2.543,0.803-4.4,3.168-4.4,5.995
			c0,3.485,2.803,6.311,6.261,6.311h15.613v-0.06c0.219,0.027,0.437,0.06,0.663,0.06c3.002,0,5.436-2.481,5.436-5.543
			C35.986,21.582,33.813,19.238,31.048,18.979z M22,0C9.85,0,0,9.85,0,22s9.85,22,22,22s22-9.85,22-22S34.15,0,22,0z M22,42
			C10.954,42,2,33.046,2,22S10.954,2,22,2s20,8.954,20,20S33.046,42,22,42z"/>
	</g>
</g>
<g>
</g>
<g>
</g>
<g>
</g>
<g>
</g>
<g>
</g>
<g>
</g>
<g>
</g>
<g>
</g>
<g>
</g>
<g>
</g>
<g>
</g>
<g>
</g>
<g>
</g>
<g>
</g>
<g>
</g>
</svg>
