<?xml version="1.0" encoding="iso-8859-1"?>
<!-- Generator: Adobe Illustrator 16.0.4, SVG Export Plug-In . SVG Version: 6.00 Build 0)  -->
<!DOCTYPE svg PUBLIC "-//W3C//DTD SVG 1.1//EN" "http://www.w3.org/Graphics/SVG/1.1/DTD/svg11.dtd">
<svg version="1.1" id="Layer_1" xmlns="http://www.w3.org/2000/svg" xmlns:xlink="http://www.w3.org/1999/xlink" x="0px" y="0px"
	 width="44px" height="32px" viewBox="0 0 44 32" style="enable-background:new 0 0 44 32;" xml:space="preserve">
<g id="_x37_49-inbox-toolbar_x40_2x.png">
	<g>
		<path d="M43.816,12.455l0.016-0.01l-8-12l-0.016,0.011C35.638,0.188,35.347,0,35,0H9C8.653,0,8.362,0.188,8.184,0.456L8.168,0.445
			l-8,12l0.016,0.01C0.077,12.614,0,12.795,0,13v17c0,1.104,0.896,2,2,2h40c1.104,0,2-0.896,2-2V13
			C44,12.795,43.923,12.614,43.816,12.455z M9.535,2h24.93l6.667,10H29c-0.553,0-1,0.447-1,1c0,3.313-2.687,6-6,6s-6-2.686-6-5.999
			C16,13,16,13,16,13c0-0.553-0.447-1-1-1H2.868L9.535,2z M42,30H2V14h12.069c0.493,3.945,3.852,7,7.931,7s7.438-3.055,7.931-7H42
			V30z"/>
	</g>
</g>
<g>
</g>
<g>
</g>
<g>
</g>
<g>
</g>
<g>
</g>
<g>
</g>
<g>
</g>
<g>
</g>
<g>
</g>
<g>
</g>
<g>
</g>
<g>
</g>
<g>
</g>
<g>
</g>
<g>
</g>
</svg>
