<?xml version="1.0" encoding="iso-8859-1"?>
<!-- Generator: Adobe Illustrator 16.0.4, SVG Export Plug-In . SVG Version: 6.00 Build 0)  -->
<!DOCTYPE svg PUBLIC "-//W3C//DTD SVG 1.1//EN" "http://www.w3.org/Graphics/SVG/1.1/DTD/svg11.dtd">
<svg version="1.1" id="Layer_1" xmlns="http://www.w3.org/2000/svg" xmlns:xlink="http://www.w3.org/1999/xlink" x="0px" y="0px"
	 width="56px" height="56px" viewBox="0 0 56 56" style="enable-background:new 0 0 56 56;" xml:space="preserve">
<g id="_x39_24-inbox-download_x40_2x.png">
	<g>
		<path d="M20,22c-0.553,0-1,0.448-1,1c0,0.276,0.112,0.526,0.293,0.707l8,8C27.474,31.888,27.724,32,28,32s0.526-0.112,0.707-0.293
			l8-8C36.888,23.526,37,23.276,37,23c0-0.552-0.447-1-1-1c-0.276,0-0.526,0.112-0.707,0.293L29,28.586V1c0-0.552-0.447-1-1-1
			c-0.552,0-1,0.448-1,1v27.586l-6.293-6.293C20.526,22.112,20.276,22,20,22z M55.926,34.63l0.003-0.001l-0.007-0.018l-0.001-0.001
			L43.929,4.629L43.926,4.63C43.777,4.262,43.421,4,43,4h-9c-0.553,0-1,0.447-1,1s0.447,1,1,1h8.323l11.2,28H41c-5,0-6,8-8,8
			s-5,0-5,0s-3,0-5,0s-3-8-8-8H2.477l11.2-28H22c0.553,0,1-0.447,1-1s-0.447-1-1-1h-9c-0.421,0-0.777,0.262-0.925,0.63l-0.004-0.001
			L0.079,34.61l-0.001,0.001l-0.007,0.018l0.003,0.001C0.028,34.745,0,34.869,0,35v20c0,0.553,0.447,1,1,1h54c0.553,0,1-0.447,1-1
			V35C56,34.869,55.972,34.745,55.926,34.63z M54,54H2V36c2.628,0,9.769,0,13,0c4,0,4,8,8,8h5h5c4,0,4-8,8-8c3.231,0,10.372,0,13,0
			V54z"/>
	</g>
</g>
<g>
</g>
<g>
</g>
<g>
</g>
<g>
</g>
<g>
</g>
<g>
</g>
<g>
</g>
<g>
</g>
<g>
</g>
<g>
</g>
<g>
</g>
<g>
</g>
<g>
</g>
<g>
</g>
<g>
</g>
</svg>
