<?xml version="1.0" encoding="iso-8859-1"?>
<!-- Generator: Adobe Illustrator 16.0.4, SVG Export Plug-In . SVG Version: 6.00 Build 0)  -->
<!DOCTYPE svg PUBLIC "-//W3C//DTD SVG 1.1//EN" "http://www.w3.org/Graphics/SVG/1.1/DTD/svg11.dtd">
<svg version="1.1" id="Layer_1" xmlns="http://www.w3.org/2000/svg" xmlns:xlink="http://www.w3.org/1999/xlink" x="0px" y="0px"
	 width="56px" height="38px" viewBox="0 0 56 38" style="enable-background:new 0 0 56 38;" xml:space="preserve">
<g id="_x37_49-inbox_x40_2x.png">
	<g>
		<path d="M55.773,14.393l0.013-0.01l-11-14.001l-0.013,0.01C44.591,0.159,44.319,0,44,0H12c-0.319,0-0.591,0.159-0.773,0.392
			l-0.013-0.01l-11,14.001l0.013,0.01C0.093,14.562,0,14.768,0,15v1v2v18c0,1.104,0.896,2,2,2h52c1.104,0,2-0.896,2-2V18v-2v-1
			C56,14.768,55.907,14.562,55.773,14.393z M12.486,2h31.027l9.429,12H38h-1c-0.553,0-1,0.448-1,1h-0.069
			c-0.493,3.945-3.852,7-7.931,7s-7.438-3.055-7.931-7H20c0-0.552-0.447-1-1-1h-1H3.058L12.486,2z M54,18v18H2V18v-2h16.201
			c0.926,4.564,4.961,8,9.799,8s8.873-3.436,9.799-8H54V18z"/>
	</g>
</g>
<g>
</g>
<g>
</g>
<g>
</g>
<g>
</g>
<g>
</g>
<g>
</g>
<g>
</g>
<g>
</g>
<g>
</g>
<g>
</g>
<g>
</g>
<g>
</g>
<g>
</g>
<g>
</g>
<g>
</g>
</svg>
