<?xml version="1.0" encoding="iso-8859-1"?>
<!-- Generator: Adobe Illustrator 16.0.4, SVG Export Plug-In . SVG Version: 6.00 Build 0)  -->
<!DOCTYPE svg PUBLIC "-//W3C//DTD SVG 1.1//EN" "http://www.w3.org/Graphics/SVG/1.1/DTD/svg11.dtd">
<svg version="1.1" id="Layer_1" xmlns="http://www.w3.org/2000/svg" xmlns:xlink="http://www.w3.org/1999/xlink" x="0px" y="0px"
	 width="44px" height="40px" viewBox="0 0 44 40" style="enable-background:new 0 0 44 40;" xml:space="preserve">
<g id="_x39_28-inbox-files-toolbar_x40_2x.png">
	<g>
		<path d="M14,6h16v2h2V5c0-0.552-0.447-1-1-1H13c-0.553,0-1,0.448-1,1v3h2V6z M12,12h20v2h2v-3c0-0.552-0.447-1-1-1H11
			c-0.553,0-1,0.448-1,1v3h2V12z M43.926,22.63l0.003-0.001l-8-22L35.926,0.63C35.777,0.262,35.421,0,35,0H9
			C8.579,0,8.223,0.262,8.075,0.63L8.071,0.629l-8,22l0.003,0.001C0.028,22.745,0,22.869,0,23v16c0,0.553,0.447,1,1,1h42
			c0.553,0,1-0.447,1-1V23C44,22.869,43.972,22.745,43.926,22.63z M9.7,2h24.6l7.273,20H33c-5,0-6,6-8,6s-3,0-3,0s-1,0-3,0s-3-6-8-6
			H2.427L9.7,2z M42,38H2V24c1.875,0,6,0,9,0c4,0,4,6,8,6h3h3c4,0,4-6,8-6c3,0,7.125,0,9,0V38z M34,20h2v-3c0-0.552-0.447-1-1-1H9
			c-0.553,0-1,0.448-1,1v3h2v-2h24V20z"/>
	</g>
</g>
<g>
</g>
<g>
</g>
<g>
</g>
<g>
</g>
<g>
</g>
<g>
</g>
<g>
</g>
<g>
</g>
<g>
</g>
<g>
</g>
<g>
</g>
<g>
</g>
<g>
</g>
<g>
</g>
<g>
</g>
</svg>
