<?xml version="1.0" encoding="iso-8859-1"?>
<!-- Generator: Adobe Illustrator 16.0.4, SVG Export Plug-In . SVG Version: 6.00 Build 0)  -->
<!DOCTYPE svg PUBLIC "-//W3C//DTD SVG 1.1//EN" "http://www.w3.org/Graphics/SVG/1.1/DTD/svg11.dtd">
<svg version="1.1" id="Layer_1" xmlns="http://www.w3.org/2000/svg" xmlns:xlink="http://www.w3.org/1999/xlink" x="0px" y="0px"
	 width="44px" height="44px" viewBox="0 0 44 44" style="enable-background:new 0 0 44 44;" xml:space="preserve">
<g id="_x39_24-inbox-download-toolbar_x40_2x.png">
	<g>
		<path d="M16,18c-0.553,0-1,0.448-1,1c0,0.276,0.112,0.526,0.293,0.707l6,6C21.474,25.888,21.724,26,22,26s0.526-0.112,0.707-0.293
			l6-6C28.888,19.526,29,19.276,29,19c0-0.552-0.447-1-1-1c-0.276,0-0.526,0.112-0.707,0.293L23,22.586V1c0-0.552-0.447-1-1-1
			c-0.552,0-1,0.448-1,1v21.586l-4.293-4.293C16.526,18.112,16.276,18,16,18z M43.926,26.63l0.003-0.001l-6-22L37.926,4.63
			C37.777,4.262,37.421,4,37,4h-9c-0.553,0-1,0.447-1,1s0.447,1,1,1h8.243l5.454,20H33c-5,0-6,6-8,6s-3,0-3,0s-1,0-3,0s-3-6-8-6
			H2.303L7.757,6H16c0.553,0,1-0.447,1-1s-0.447-1-1-1H7C6.579,4,6.223,4.262,6.075,4.63L6.071,4.629l-6,22l0.004,0.001
			C0.028,26.745,0,26.869,0,27v16c0,0.553,0.447,1,1,1h42c0.553,0,1-0.447,1-1V27C44,26.869,43.972,26.745,43.926,26.63z M42,42H2
			V28c1.875,0,6,0,9,0c4,0,4,6,8,6h3h3c4,0,4-6,8-6c3,0,7.125,0,9,0V42z"/>
	</g>
</g>
<g>
</g>
<g>
</g>
<g>
</g>
<g>
</g>
<g>
</g>
<g>
</g>
<g>
</g>
<g>
</g>
<g>
</g>
<g>
</g>
<g>
</g>
<g>
</g>
<g>
</g>
<g>
</g>
<g>
</g>
</svg>
