<?xml version="1.0" encoding="iso-8859-1"?>
<!-- Generator: Adobe Illustrator 16.0.4, SVG Export Plug-In . SVG Version: 6.00 Build 0)  -->
<!DOCTYPE svg PUBLIC "-//W3C//DTD SVG 1.1//EN" "http://www.w3.org/Graphics/SVG/1.1/DTD/svg11.dtd">
<svg version="1.1" id="Layer_1" xmlns="http://www.w3.org/2000/svg" xmlns:xlink="http://www.w3.org/1999/xlink" x="0px" y="0px"
	 width="56px" height="52px" viewBox="0 0 56 52" style="enable-background:new 0 0 56 52;" xml:space="preserve">
<g id="_x39_28-inbox-files_x40_2x.png">
	<g>
		<path d="M16,8h24v4h2V7c0-0.552-0.447-1-1-1H15c-0.553,0-1,0.448-1,1v5h2V8z M55.949,30.747l0.017-0.005l-8-30l-0.017,0.005
			C47.835,0.32,47.463,0,47,0H9C8.537,0,8.165,0.32,8.051,0.747L8.034,0.742l-8,30l0.017,0.005C0.029,30.83,0,30.91,0,31v20
			c0,0.553,0.447,1,1,1h54c0.553,0,1-0.447,1-1V31C56,30.91,55.971,30.83,55.949,30.747z M9.769,2h36.463l7.467,28H41c-5,0-6,8-8,8
			s-5,0-5,0s-3,0-5,0s-3-8-8-8H2.302L9.769,2z M54,50H2V32c2.628,0,9.769,0,13,0c4,0,4,8,8,8h5h5c4,0,4-8,8-8c3.231,0,10.372,0,13,0
			V50z M14,16h28v4h2v-5c0-0.552-0.447-1-1-1H13c-0.553,0-1,0.448-1,1v5h2V16z M44,28h2v-5c0-0.552-0.447-1-1-1H11
			c-0.553,0-1,0.448-1,1v5h2v-4h32V28z"/>
	</g>
</g>
<g>
</g>
<g>
</g>
<g>
</g>
<g>
</g>
<g>
</g>
<g>
</g>
<g>
</g>
<g>
</g>
<g>
</g>
<g>
</g>
<g>
</g>
<g>
</g>
<g>
</g>
<g>
</g>
<g>
</g>
</svg>
