<?xml version="1.0" encoding="iso-8859-1"?>
<!-- Generator: Adobe Illustrator 16.0.4, SVG Export Plug-In . SVG Version: 6.00 Build 0)  -->
<!DOCTYPE svg PUBLIC "-//W3C//DTD SVG 1.1//EN" "http://www.w3.org/Graphics/SVG/1.1/DTD/svg11.dtd">
<svg version="1.1" id="Layer_1" xmlns="http://www.w3.org/2000/svg" xmlns:xlink="http://www.w3.org/1999/xlink" x="0px" y="0px"
	 width="44px" height="44px" viewBox="0 0 44 44" style="enable-background:new 0 0 44 44;" xml:space="preserve">
<g id="_x37_24-info-toolbar_x40_2x.png">
	<g>
		<path d="M21.869,17.798c0.486,0,0.907-0.185,1.263-0.554c0.355-0.368,0.534-0.814,0.534-1.338s-0.177-0.971-0.529-1.343
			s-0.775-0.558-1.268-0.558c-0.493,0-0.917,0.186-1.272,0.558c-0.356,0.372-0.534,0.819-0.534,1.343s0.178,0.97,0.534,1.338
			C20.952,17.613,21.376,17.798,21.869,17.798z M24.14,28.978c-0.17-0.083-0.301-0.209-0.392-0.378
			c-0.092-0.168-0.137-0.373-0.137-0.614v-8.204l-0.137-0.155l-4.47,0.269v0.755c0.182,0.021,0.384,0.068,0.606,0.145
			c0.222,0.075,0.388,0.155,0.497,0.237c0.146,0.11,0.268,0.257,0.364,0.439c0.098,0.183,0.146,0.395,0.146,0.636v6.013
			c0,0.256-0.04,0.46-0.119,0.615s-0.216,0.273-0.41,0.356c-0.109,0.049-0.24,0.083-0.393,0.104
			c-0.151,0.021-0.307,0.038-0.465,0.052V30h5.765v-0.754c-0.158-0.021-0.31-0.055-0.456-0.104
			C24.396,29.095,24.262,29.039,24.14,28.978z M22,0C9.85,0,0,9.85,0,22s9.85,22,22,22s22-9.85,22-22S34.15,0,22,0z M22,42
			C10.954,42,2,33.046,2,22C2,10.955,10.954,2,22,2s20,8.955,20,20C42,33.046,33.046,42,22,42z"/>
	</g>
</g>
<g>
</g>
<g>
</g>
<g>
</g>
<g>
</g>
<g>
</g>
<g>
</g>
<g>
</g>
<g>
</g>
<g>
</g>
<g>
</g>
<g>
</g>
<g>
</g>
<g>
</g>
<g>
</g>
<g>
</g>
</svg>
