<?xml version="1.0" encoding="iso-8859-1"?>
<!-- Generator: Adobe Illustrator 16.0.4, SVG Export Plug-In . SVG Version: 6.00 Build 0)  -->
<!DOCTYPE svg PUBLIC "-//W3C//DTD SVG 1.1//EN" "http://www.w3.org/Graphics/SVG/1.1/DTD/svg11.dtd">
<svg version="1.1" id="Layer_1" xmlns="http://www.w3.org/2000/svg" xmlns:xlink="http://www.w3.org/1999/xlink" x="0px" y="0px"
	 width="56px" height="56px" viewBox="0 0 56 56" style="enable-background:new 0 0 56 56;" xml:space="preserve">
<g id="_x37_24-info_x40_2x.png">
	<g>
		<path d="M27.781,21.171c0.811,0,1.513-0.3,2.105-0.898s0.89-1.324,0.89-2.175s-0.294-1.578-0.882-2.183s-1.292-0.906-2.113-0.906
			s-1.528,0.302-2.121,0.906s-0.889,1.332-0.889,2.183s0.296,1.576,0.889,2.175S26.96,21.171,27.781,21.171z M28,0
			C12.536,0,0,12.536,0,28s12.536,28,28,28s28-12.536,28-28S43.464,0,28,0z M28,54C13.641,54,2,42.359,2,28S13.641,2,28,2
			s26,11.641,26,26S42.359,54,28,54z M31.566,39.338c-0.283-0.135-0.502-0.339-0.653-0.613c-0.152-0.273-0.229-0.606-0.229-0.999
			V24.395l-0.228-0.252l-7.449,0.437v1.226c0.304,0.033,0.641,0.112,1.011,0.235s0.646,0.252,0.828,0.386
			c0.243,0.18,0.446,0.417,0.608,0.714s0.243,0.641,0.243,1.032v9.772c0,0.414-0.065,0.747-0.197,0.999s-0.36,0.445-0.685,0.579
			c-0.183,0.079-0.4,0.135-0.653,0.168c-0.254,0.033-0.512,0.062-0.775,0.084V41h9.608v-1.226c-0.264-0.033-0.518-0.089-0.761-0.168
			C31.992,39.528,31.77,39.438,31.566,39.338z"/>
	</g>
</g>
<g>
</g>
<g>
</g>
<g>
</g>
<g>
</g>
<g>
</g>
<g>
</g>
<g>
</g>
<g>
</g>
<g>
</g>
<g>
</g>
<g>
</g>
<g>
</g>
<g>
</g>
<g>
</g>
<g>
</g>
</svg>
