<?xml version="1.0" encoding="iso-8859-1"?>
<!-- Generator: Adobe Illustrator 16.0.4, SVG Export Plug-In . SVG Version: 6.00 Build 0)  -->
<!DOCTYPE svg PUBLIC "-//W3C//DTD SVG 1.1//EN" "http://www.w3.org/Graphics/SVG/1.1/DTD/svg11.dtd">
<svg version="1.1" id="Layer_1" xmlns="http://www.w3.org/2000/svg" xmlns:xlink="http://www.w3.org/1999/xlink" x="0px" y="0px"
	 width="44px" height="44px" viewBox="0 0 44 44" style="enable-background:new 0 0 44 44;" xml:space="preserve">
<g id="_x31_268-instagram_x40_2x.png">
	<g>
		<path d="M22,0C9.85,0,0,9.85,0,22s9.85,22,22,22s22-9.85,22-22S34.15,0,22,0z M22,42C10.954,42,2,33.046,2,22S10.954,2,22,2
			s20,8.954,20,20S33.046,42,22,42z M31,10H13c-1.657,0-3,1.343-3,3v18c0,1.657,1.343,3,3,3h18c1.657,0,3-1.343,3-3V13
			C34,11.343,32.657,10,31,10z M22,18c2.209,0,4,1.791,4,4s-1.791,4-4,4s-4-1.791-4-4S19.791,18,22,18z M31,31H13V20h2.325
			C15.134,20.638,15,21.3,15,22c0,3.866,3.134,7,7,7s7-3.134,7-7c0-0.7-0.134-1.362-0.325-2H31V31z M31,16c0,0.553-0.447,1-1,1h-2
			c-0.553,0-1-0.447-1-1v-2c0-0.553,0.447-1,1-1h2c0.553,0,1,0.447,1,1V16z"/>
	</g>
</g>
<g>
</g>
<g>
</g>
<g>
</g>
<g>
</g>
<g>
</g>
<g>
</g>
<g>
</g>
<g>
</g>
<g>
</g>
<g>
</g>
<g>
</g>
<g>
</g>
<g>
</g>
<g>
</g>
<g>
</g>
</svg>
