<?xml version="1.0" encoding="UTF-8" standalone="no"?>
<svg width="58px" height="58px" viewBox="0 0 58 58" version="1.1" xmlns="http://www.w3.org/2000/svg" xmlns:xlink="http://www.w3.org/1999/xlink" xmlns:sketch="http://www.bohemiancoding.com/sketch/ns">
    <!-- Generator: Sketch 3.0.4 (8053) - http://www.bohemiancoding.com/sketch -->
    <title>1268-instagram</title>
    <desc>Created with Sketch.</desc>
    <defs></defs>
    <g id="Page-1" stroke="none" stroke-width="1" fill="none" fill-rule="evenodd" sketch:type="MSPage">
        <g id="Glyphish-8-Icons" sketch:type="MSArtboardGroup" transform="translate(-692.000000, -1555.000000)" fill="#000000">
            <g id="1268-instagram" sketch:type="MSLayerGroup" transform="translate(692.036996, 1555.860499)">
                <g id="_x31_268-instagram_x40_2x.png" sketch:type="MSShapeGroup">
                    <path d="M40.307,11.999 L15.689,11.999 C13.651,11.999 11.998,13.651 11.998,15.69 L11.998,40.305 C11.998,42.345 13.651,43.998 15.689,43.998 L40.306,43.998 C42.345,43.998 43.998,42.345 43.998,40.305 L43.998,15.69 C43.999,13.651 42.346,11.999 40.307,11.999 L40.307,11.999 Z M27.998,21.845 C31.397,21.845 34.152,24.6 34.152,27.998 C34.152,31.396 31.397,34.152 27.998,34.152 C24.6,34.152 21.844,31.396 21.844,27.998 C21.844,24.6 24.6,21.845 27.998,21.845 L27.998,21.845 Z M40.307,39.076 C40.307,39.754 39.756,40.305 39.076,40.305 L16.922,40.305 C16.241,40.305 15.69,39.753 15.69,39.076 L15.69,25.536 L18.476,25.536 C18.273,26.324 18.153,27.147 18.153,27.998 C18.153,33.437 22.561,37.845 27.999,37.845 C33.437,37.845 37.845,33.438 37.845,27.998 C37.845,27.147 37.726,26.324 37.523,25.536 L40.308,25.536 L40.308,39.076 L40.307,39.076 Z M40.307,20.614 C40.307,21.293 39.756,21.844 39.076,21.844 L35.385,21.844 C34.704,21.844 34.154,21.292 34.154,20.614 L34.154,16.921 C34.154,16.242 34.705,15.691 35.385,15.691 L39.076,15.691 C39.757,15.691 40.307,16.243 40.307,16.921 L40.307,20.614 L40.307,20.614 Z M28,0 C12.536,0 0,12.536 0,28 C0,43.464 12.536,56 28,56 C43.464,56 56,43.464 56,28 C56,12.536 43.464,0 28,0 L28,0 Z M28,54 C13.641,54 2,42.359 2,28 C2,13.641 13.641,2 28,2 C42.359,2 54,13.641 54,28 C54,42.359 42.359,54 28,54 L28,54 Z" id="Shape"></path>
                </g>
            </g>
        </g>
    </g>
</svg>