<?xml version="1.0" encoding="iso-8859-1"?>
<!-- Generator: Adobe Illustrator 16.0.4, SVG Export Plug-In . SVG Version: 6.00 Build 0)  -->
<!DOCTYPE svg PUBLIC "-//W3C//DTD SVG 1.1//EN" "http://www.w3.org/Graphics/SVG/1.1/DTD/svg11.dtd">
<svg version="1.1" id="Layer_1" xmlns="http://www.w3.org/2000/svg" xmlns:xlink="http://www.w3.org/1999/xlink" x="0px" y="0px"
	 width="36px" height="56px" viewBox="0 0 36 56" style="enable-background:new 0 0 36 56;" xml:space="preserve">
<g id="_x39_19-ipod-touch_x40_2x.png">
	<g>
		<path d="M18,53c1.104,0,2-0.896,2-2s-0.896-2-2-2s-2,0.896-2,2S16.896,53,18,53z M32,0H4C1.791,0,0,1.791,0,4v48
			c0,2.209,1.791,4,4,4h28c2.209,0,4-1.791,4-4V4C36,1.791,34.209,0,32,0z M34,52c0,1.104-0.896,2-2,2H4c-1.104,0-2-0.896-2-2v-4h32
			V52z M34,46H2V10h32V46z M34,8H2V4c0-1.104,0.896-2,2-2h28c1.104,0,2,0.896,2,2V8z M20,4h-4c-0.553,0-1,0.447-1,1s0.447,1,1,1h4
			c0.553,0,1-0.447,1-1S20.553,4,20,4z"/>
	</g>
</g>
<g>
</g>
<g>
</g>
<g>
</g>
<g>
</g>
<g>
</g>
<g>
</g>
<g>
</g>
<g>
</g>
<g>
</g>
<g>
</g>
<g>
</g>
<g>
</g>
<g>
</g>
<g>
</g>
<g>
</g>
</svg>
