<?xml version="1.0" encoding="iso-8859-1"?>
<!-- Generator: Adobe Illustrator 16.0.4, SVG Export Plug-In . SVG Version: 6.00 Build 0)  -->
<!DOCTYPE svg PUBLIC "-//W3C//DTD SVG 1.1//EN" "http://www.w3.org/Graphics/SVG/1.1/DTD/svg11.dtd">
<svg version="1.1" id="Layer_1" xmlns="http://www.w3.org/2000/svg" xmlns:xlink="http://www.w3.org/1999/xlink" x="0px" y="0px"
	 width="36px" height="56px" viewBox="0 0 36 56" style="enable-background:new 0 0 36 56;" xml:space="preserve">
<g id="_x39_18-ipod-classic_x40_2x.png">
	<g>
		<path d="M18,24c-7.732,0-14,6.269-14,14c0,7.732,6.268,14,14,14s14-6.268,14-14C32,30.269,25.732,24,18,24z M18,50
			c-6.627,0-12-5.372-12-12c0-6.627,5.373-12,12-12s12,5.373,12,12C30,44.628,24.627,50,18,50z M18,34c-2.209,0-4,1.791-4,4
			s1.791,4,4,4s4-1.791,4-4S20.209,34,18,34z M4,22h28V4H4V22z M6,6h24v14H6V6z M32,0H4C1.791,0,0,1.791,0,4v48c0,2.209,1.791,4,4,4
			h28c2.209,0,4-1.791,4-4V4C36,1.791,34.209,0,32,0z M34,52c0,1.104-0.896,2-2,2H4c-1.104,0-2-0.896-2-2V4c0-1.104,0.896-2,2-2h28
			c1.104,0,2,0.896,2,2V52z"/>
	</g>
</g>
<g>
</g>
<g>
</g>
<g>
</g>
<g>
</g>
<g>
</g>
<g>
</g>
<g>
</g>
<g>
</g>
<g>
</g>
<g>
</g>
<g>
</g>
<g>
</g>
<g>
</g>
<g>
</g>
<g>
</g>
</svg>
