<?xml version="1.0" encoding="iso-8859-1"?>
<!-- Generator: Adobe Illustrator 16.0.4, SVG Export Plug-In . SVG Version: 6.00 Build 0)  -->
<!DOCTYPE svg PUBLIC "-//W3C//DTD SVG 1.1//EN" "http://www.w3.org/Graphics/SVG/1.1/DTD/svg11.dtd">
<svg version="1.1" id="Layer_1" xmlns="http://www.w3.org/2000/svg" xmlns:xlink="http://www.w3.org/1999/xlink" x="0px" y="0px"
	 width="28px" height="44px" viewBox="0 0 28 44" style="enable-background:new 0 0 28 44;" xml:space="preserve">
<g id="_x39_18-ipod-classic-toolbar_x40_2x.png">
	<g>
		<path d="M14,27c-1.657,0-3,1.343-3,3s1.343,3,3,3s3-1.343,3-3S15.657,27,14,27z M24,0H4C1.791,0,0,1.791,0,4v36
			c0,2.209,1.791,4,4,4h20c2.209,0,4-1.791,4-4V4C28,1.791,26.209,0,24,0z M26,40c0,1.104-0.896,2-2,2H4c-1.104,0-2-0.896-2-2V4
			c0-1.104,0.896-2,2-2h20c1.104,0,2,0.896,2,2V40z M4,18h20V4H4V18z M6,6h16v10H6V6z M14,20C8.478,20,4,24.478,4,30
			c0,5.523,4.478,10,10,10s10-4.477,10-10C24,24.478,19.522,20,14,20z M14,38c-4.418,0-8-3.582-8-8s3.582-8,8-8s8,3.582,8,8
			S18.418,38,14,38z"/>
	</g>
</g>
<g>
</g>
<g>
</g>
<g>
</g>
<g>
</g>
<g>
</g>
<g>
</g>
<g>
</g>
<g>
</g>
<g>
</g>
<g>
</g>
<g>
</g>
<g>
</g>
<g>
</g>
<g>
</g>
<g>
</g>
</svg>
