<?xml version="1.0" encoding="UTF-8" standalone="no"?>
<svg width="53px" height="58px" viewBox="0 0 53 58" version="1.1" xmlns="http://www.w3.org/2000/svg" xmlns:xlink="http://www.w3.org/1999/xlink" xmlns:sketch="http://www.bohemiancoding.com/sketch/ns">
    <!-- Generator: Sketch 3.0.4 (8053) - http://www.bohemiancoding.com/sketch -->
    <title>1163-islamic-moon-and-star</title>
    <desc>Created with Sketch.</desc>
    <defs></defs>
    <g id="Page-1" stroke="none" stroke-width="1" fill="none" fill-rule="evenodd" sketch:type="MSPage">
        <g id="Glyphish-8-Icons" sketch:type="MSArtboardGroup" transform="translate(-214.000000, -595.000000)" fill="#000000">
            <g id="1163-islamic-moon-and-star" sketch:type="MSLayerGroup" transform="translate(214.036996, 595.860499)">
                <g id="_x31_163-islamic-moon-and-star_x40_2x.png" sketch:type="MSShapeGroup">
                    <path d="M51.998,29 C51.998,28.573 51.728,28.215 51.352,28.071 L51.354,28.065 L43.998,25.263 L43.998,17 C43.998,16.448 43.55,16 42.998,16 C42.665,16 42.384,16.174 42.202,16.425 L42.188,16.415 L37.567,22.813 L30.355,20.065 L30.346,20.089 C30.237,20.044 30.126,19.999 29.999,19.999 C29.447,19.999 28.999,20.446 28.999,20.999 C28.999,21.218 29.083,21.409 29.203,21.574 L29.189,21.585 L33.82,28 L29.187,34.415 L29.201,34.425 C29.082,34.59 28.997,34.781 28.997,35 C28.997,35.553 29.445,36 29.997,36 C30.095,36 30.176,35.958 30.263,35.931 L30.272,35.962 L37.979,33.76 L42.187,40.586 L42.201,40.575 C42.384,40.826 42.665,41 42.998,41 C43.55,41 43.998,40.553 43.998,40 L43.998,32.04 L51.273,29.962 L51.268,29.945 C51.686,29.826 51.998,29.457 51.998,29 L51.998,29 Z M43.449,30.117 C42.59,30.362 41.998,31.146 41.998,32.04 L41.998,36.467 L39.682,32.71 C39.311,32.108 38.661,31.76 37.98,31.76 C37.797,31.76 37.612,31.784 37.43,31.837 L32.498,33.246 L35.441,29.171 C35.946,28.472 35.946,27.528 35.441,26.829 L32.765,23.125 L36.854,24.682 C37.086,24.771 37.327,24.814 37.565,24.814 C38.193,24.814 38.803,24.517 39.187,23.985 L41.998,20.093 L41.998,25.264 C41.998,26.093 42.511,26.837 43.286,27.132 L47.833,28.864 L43.449,30.117 L43.449,30.117 Z M12.017,28 C12.017,14.745 22.777,4 36.05,4 C39.213,4 42.226,4.626 44.992,5.735 C40.28,2.152 34.418,0 28.039,0 C12.553,0 0,12.536 0,28 C0,43.464 12.553,56 28.039,56 C34.418,56 40.281,53.848 44.993,50.265 C42.226,51.374 39.213,52 36.05,52 C22.776,52 12.017,41.255 12.017,28 L12.017,28 Z M28.039,54 C13.682,54 2.002,42.336 2.002,28 C2.002,13.664 13.682,2 28.039,2 C29.392,2 30.73,2.104 32.045,2.308 C19.583,4.236 10.014,15.023 10.014,28 C10.014,40.977 19.583,51.764 32.045,53.693 C30.73,53.896 29.392,54 28.039,54 L28.039,54 Z" id="Shape"></path>
                </g>
            </g>
        </g>
    </g>
</svg>