<?xml version="1.0" encoding="UTF-8" standalone="no"?>
<svg width="27px" height="38px" viewBox="0 0 27 38" version="1.1" xmlns="http://www.w3.org/2000/svg" xmlns:xlink="http://www.w3.org/1999/xlink" xmlns:sketch="http://www.bohemiancoding.com/sketch/ns">
    <!-- Generator: Sketch 3.0.4 (8053) - http://www.bohemiancoding.com/sketch -->
    <title>1172-italic</title>
    <desc>Created with Sketch.</desc>
    <defs></defs>
    <g id="Page-1" stroke="none" stroke-width="1" fill="none" fill-rule="evenodd" sketch:type="MSPage">
        <g id="Glyphish-8-Icons" sketch:type="MSArtboardGroup" transform="translate(-131.000000, -701.000000)" fill="#000000">
            <g id="1172-italic" sketch:type="MSLayerGroup" transform="translate(131.036996, 701.860499)">
                <g id="_x31_172-italic_x40_2x.png" sketch:type="MSShapeGroup">
                    <path d="M25,0 L25,0 L9,0 L9,0 C8.448,0 8,0.448 8,1 C8,1.553 8.448,2 9,2 L15.737,2 L8.208,34 L1,34 C0.448,34 0,34.448 0,35 C0,35.553 0.448,36 1,36 L17,36 C17.552,36 18,35.553 18,35 C18,34.448 17.552,34 17,34 L17,34 L10.263,34 L17.792,2 L25,2 C25.552,2 26,1.553 26,1 C26,0.448 25.552,0 25,0 L25,0 Z" id="Shape"></path>
                </g>
            </g>
        </g>
    </g>
</svg>