<?xml version="1.0" encoding="iso-8859-1"?>
<!-- Generator: Adobe Illustrator 16.0.4, SVG Export Plug-In . SVG Version: 6.00 Build 0)  -->
<!DOCTYPE svg PUBLIC "-//W3C//DTD SVG 1.1//EN" "http://www.w3.org/Graphics/SVG/1.1/DTD/svg11.dtd">
<svg version="1.1" id="Layer_1" xmlns="http://www.w3.org/2000/svg" xmlns:xlink="http://www.w3.org/1999/xlink" x="0px" y="0px"
	 width="26px" height="36px" viewBox="0 0 26 36" style="enable-background:new 0 0 26 36;" xml:space="preserve">
<g id="_x31_172-italic_x40_2x.png">
	<g>
		<path d="M25,0L25,0H9c0,0,0,0,0,0C8.448,0,8,0.448,8,1c0,0.553,0.448,1,1,1h6.737L8.208,34H1h0c-0.552,0-1,0.448-1,1
			c0,0.553,0.448,1,1,1h16c0.552,0,1-0.447,1-1c0-0.552-0.448-1-1-1h0h-6.737l7.529-32H25c0.552,0,1-0.447,1-1
			C26,0.448,25.552,0,25,0z"/>
	</g>
</g>
<g>
</g>
<g>
</g>
<g>
</g>
<g>
</g>
<g>
</g>
<g>
</g>
<g>
</g>
<g>
</g>
<g>
</g>
<g>
</g>
<g>
</g>
<g>
</g>
<g>
</g>
<g>
</g>
<g>
</g>
</svg>
