<?xml version="1.0" encoding="UTF-8" standalone="no"?>
<svg width="58px" height="58px" viewBox="0 0 58 58" version="1.1" xmlns="http://www.w3.org/2000/svg" xmlns:xlink="http://www.w3.org/1999/xlink" xmlns:sketch="http://www.bohemiancoding.com/sketch/ns">
    <!-- Generator: Sketch 3.0.4 (8053) - http://www.bohemiancoding.com/sketch -->
    <title>1269-itunes</title>
    <desc>Created with Sketch.</desc>
    <defs></defs>
    <g id="Page-1" stroke="none" stroke-width="1" fill="none" fill-rule="evenodd" sketch:type="MSPage">
        <g id="Glyphish-8-Icons" sketch:type="MSArtboardGroup" transform="translate(-788.000000, -1555.000000)" fill="#000000">
            <g id="1269-itunes" sketch:type="MSLayerGroup" transform="translate(788.036996, 1555.860499)">
                <g id="_x31_269-itunes_x40_2x.png" sketch:type="MSShapeGroup">
                    <path d="M28,0 C12.536,0 0,12.536 0,28 C0,43.464 12.536,56 28,56 C43.464,56 56,43.464 56,28 C56,12.536 43.464,0 28,0 L28,0 Z M28,54 C13.641,54 2,42.359 2,28 C2,13.641 13.641,2 28,2 C42.359,2 54,13.641 54,28 C54,42.359 42.359,54 28,54 L28,54 Z M38.247,12.052 C36.159,12.448 25.342,14.764 23.671,15.158 C22.001,15.553 22.001,16.417 22.001,17.134 L22.001,33.401 C22.001,34.981 20.331,34.981 20.331,34.981 L17.742,34.981 C15.666,34.981 13.984,36.51 13.984,38.474 C13.984,40.438 15.666,41.998 17.742,41.998 L20.268,41.998 C22.343,41.998 24.026,40.406 24.026,38.442 L24.026,23.455 C24.026,22.941 24.161,22.475 25.148,22.269 C26.437,22 35.475,20 36.289,19.849 C37.101,19.699 37.985,19.693 37.985,20.689 L37.985,30.395 C37.985,31.976 36.314,31.976 36.314,31.976 L33.767,31.976 C31.691,31.976 30.009,33.505 30.009,35.468 C30.009,37.432 31.691,38.961 33.767,38.961 L36.22,38.961 C38.296,38.961 39.978,37.369 39.978,35.405 L39.978,13.578 C39.979,13.578 40.334,11.657 38.247,12.052 L38.247,12.052 Z" id="Shape"></path>
                </g>
            </g>
        </g>
    </g>
</svg>