<?xml version="1.0" encoding="iso-8859-1"?>
<!-- Generator: Adobe Illustrator 16.0.4, SVG Export Plug-In . SVG Version: 6.00 Build 0)  -->
<!DOCTYPE svg PUBLIC "-//W3C//DTD SVG 1.1//EN" "http://www.w3.org/Graphics/SVG/1.1/DTD/svg11.dtd">
<svg version="1.1" id="Layer_1" xmlns="http://www.w3.org/2000/svg" xmlns:xlink="http://www.w3.org/1999/xlink" x="0px" y="0px"
	 width="44px" height="44px" viewBox="0 0 44 44" style="enable-background:new 0 0 44 44;" xml:space="preserve">
<g id="_x31_269-itunes_x40_2x.png">
	<g>
		<path d="M28.672,10.031c-1.607,0.303-9.938,2.079-11.225,2.383C16.161,12.717,16,13.45,16,14c0,0.454,0,10,0,12s-2,2-2,2h-1
			c-1.657,0-3,1.344-3,3c0,1.657,1.343,3,3,3h2c1.657,0,3-1.343,3-3c0-2.927,0.002-12.019,0.002-12.224
			c0-0.394,0.104-0.751,0.864-0.909C19.859,17.662,26.374,16.116,27,16c0.626-0.115,1,0.236,1,1c0,0.909,0,7,0,7s0,2-2,2h-1
			c-1.657,0-3,1.344-3,3c0,1.657,1.343,3,3,3h2c1.657,0,3-1.343,3-3V11C30,11,30.279,9.729,28.672,10.031z M22,0C9.85,0,0,9.85,0,22
			s9.85,22,22,22s22-9.85,22-22S34.15,0,22,0z M22,42C10.954,42,2,33.046,2,22S10.954,2,22,2s20,8.954,20,20S33.046,42,22,42z"/>
	</g>
</g>
<g>
</g>
<g>
</g>
<g>
</g>
<g>
</g>
<g>
</g>
<g>
</g>
<g>
</g>
<g>
</g>
<g>
</g>
<g>
</g>
<g>
</g>
<g>
</g>
<g>
</g>
<g>
</g>
<g>
</g>
</svg>
