<?xml version="1.0" encoding="iso-8859-1"?>
<!-- Generator: Adobe Illustrator 16.0.4, SVG Export Plug-In . SVG Version: 6.00 Build 0)  -->
<!DOCTYPE svg PUBLIC "-//W3C//DTD SVG 1.1//EN" "http://www.w3.org/Graphics/SVG/1.1/DTD/svg11.dtd">
<svg version="1.1" id="Layer_1" xmlns="http://www.w3.org/2000/svg" xmlns:xlink="http://www.w3.org/1999/xlink" x="0px" y="0px"
	 width="36px" height="44px" viewBox="0 0 36 44" style="enable-background:new 0 0 36 44;" xml:space="preserve">
<g id="_x31_123-jacket_x40_2x.png">
	<g>
		<path d="M27,12h-2c-0.552,0-1,0.448-1,1c0,0.553,0.448,1,1,1h2c0.552,0,1-0.447,1-1C28,12.448,27.552,12,27,12z M25.275,2.008
			l-2.565-1.71c-0.093-0.095-0.206-0.17-0.331-0.222l-0.007-0.005L22.37,0.075C22.255,0.028,22.131,0,22,0h0H14h0
			c-0.131,0-0.255,0.028-0.37,0.075l-0.001-0.004l-0.007,0.005c-0.125,0.052-0.238,0.127-0.332,0.222l-2.565,1.71
			C6.861,2.084,0,3.816,0,10v27v1.5C0,39.328,0.671,40,1.5,40H3h3v1v1.5C6,43.328,6.671,44,7.5,44H9h6c0.552,0,1-0.447,1-1v-1h4v1
			c0,0.553,0.448,1,1,1h6h1.5c0.829,0,1.5-0.672,1.5-1.5V41v-1h3h1.5c0.829,0,1.5-0.672,1.5-1.5V37V10
			C36,3.816,29.139,2.084,25.275,2.008z M14,42H9H8v-1V17c0-0.552-0.448-1-1-1s-1,0.448-1,1v21H3H2v-1V10
			c0-4.784,5.647-5.753,8-5.949V5c0,0.182,0.061,0.342,0.146,0.488l-0.014,0.008l0.058,0.059c0.07,0.102,0.154,0.186,0.255,0.256
			l2.687,2.686l0.014-0.008C13.318,8.789,13.629,9,14,9V42z M20,8v32h-4V8c0-0.099-0.029-0.188-0.056-0.279L18,6.179l2.056,1.542
			C20.03,7.812,20,7.901,20,8z M18.832,4.445l-0.015,0.011C18.638,4.188,18.347,4,18,4s-0.637,0.188-0.817,0.456l-0.015-0.011
			l-3.062,2.297L12,4.636V3.51L14.264,2h7.472L24,3.51v1.149l-2.093,2.093L18.832,4.445z M34,10v27v1h-1h-3V17c0-0.552-0.448-1-1-1
			s-1,0.448-1,1v24v1h-1h-5V9c0.391,0,0.721-0.23,0.885-0.558l0.009,0.005l2.59-2.59c0.157-0.09,0.283-0.216,0.372-0.372
			l0.038-0.038l-0.009-0.004C25.953,5.308,26,5.161,26,5V4.051C28.353,4.247,34,5.216,34,10L34,10z"/>
	</g>
</g>
<g>
</g>
<g>
</g>
<g>
</g>
<g>
</g>
<g>
</g>
<g>
</g>
<g>
</g>
<g>
</g>
<g>
</g>
<g>
</g>
<g>
</g>
<g>
</g>
<g>
</g>
<g>
</g>
<g>
</g>
</svg>
