<?xml version="1.0" encoding="iso-8859-1"?>
<!-- Generator: Adobe Illustrator 16.0.4, SVG Export Plug-In . SVG Version: 6.00 Build 0)  -->
<!DOCTYPE svg PUBLIC "-//W3C//DTD SVG 1.1//EN" "http://www.w3.org/Graphics/SVG/1.1/DTD/svg11.dtd">
<svg version="1.1" id="Layer_1" xmlns="http://www.w3.org/2000/svg" xmlns:xlink="http://www.w3.org/1999/xlink" x="0px" y="0px"
	 width="44px" height="28px" viewBox="0 0 44 28" style="enable-background:new 0 0 44 28;" xml:space="preserve">
<g id="_x31_078-join-path-toolbar_x40_2x.png">
	<g>
		<path d="M43.707,6.293l-6-6C37.526,0.112,37.276,0,37,0c-0.553,0-1,0.448-1,1c0,0.276,0.112,0.526,0.293,0.707L40.586,6H1
			C0.447,6,0,6.448,0,7c0,0.553,0.447,1,1,1h21.929L8.529,26H1.001C1,26,1,26,1,26c-0.553,0-1,0.447-1,1s0.447,1,1,1h7.999
			C9,28,9,28,9,28c0.359,0,0.66-0.2,0.837-0.485l0.015,0.01L25.471,8h15.115l-4.293,4.293C36.112,12.474,36,12.724,36,13
			c0,0.553,0.447,1,1,1c0.276,0,0.526-0.112,0.707-0.293l6-6C43.888,7.526,44,7.276,44,7S43.888,6.474,43.707,6.293z"/>
	</g>
</g>
<g>
</g>
<g>
</g>
<g>
</g>
<g>
</g>
<g>
</g>
<g>
</g>
<g>
</g>
<g>
</g>
<g>
</g>
<g>
</g>
<g>
</g>
<g>
</g>
<g>
</g>
<g>
</g>
<g>
</g>
</svg>
