<?xml version="1.0" encoding="iso-8859-1"?>
<!-- Generator: Adobe Illustrator 16.0.4, SVG Export Plug-In . SVG Version: 6.00 Build 0)  -->
<!DOCTYPE svg PUBLIC "-//W3C//DTD SVG 1.1//EN" "http://www.w3.org/Graphics/SVG/1.1/DTD/svg11.dtd">
<svg version="1.1" id="Layer_1" xmlns="http://www.w3.org/2000/svg" xmlns:xlink="http://www.w3.org/1999/xlink" x="0px" y="0px"
	 width="56px" height="36px" viewBox="0 0 56 36" style="enable-background:new 0 0 56 36;" xml:space="preserve">
<g id="_x31_078-join-path_x40_2x.png">
	<g>
		<path d="M55.707,8.293l-8-8C47.526,0.112,47.276,0,47,0c-0.553,0-1,0.447-1,1c0,0.276,0.112,0.526,0.293,0.707L52.586,8H1
			C0.447,8,0,8.447,0,9s0.447,1,1,1h28.211l-14.77,24H1.001C1,34,1,34,1,34c-0.553,0-1,0.447-1,1c0,0.552,0.447,1,1,1h13.999
			C15,36,15,36,15,36c0.359,0,0.66-0.2,0.837-0.485l0.015,0.01L31.559,10h21.027l-6.293,6.293C46.112,16.474,46,16.724,46,17
			c0,0.553,0.447,1,1,1c0.276,0,0.526-0.112,0.707-0.293l8-8C55.888,9.526,56,9.276,56,9S55.888,8.474,55.707,8.293z"/>
	</g>
</g>
<g>
</g>
<g>
</g>
<g>
</g>
<g>
</g>
<g>
</g>
<g>
</g>
<g>
</g>
<g>
</g>
<g>
</g>
<g>
</g>
<g>
</g>
<g>
</g>
<g>
</g>
<g>
</g>
<g>
</g>
</svg>
