<?xml version="1.0" encoding="iso-8859-1"?>
<!-- Generator: Adobe Illustrator 16.0.4, SVG Export Plug-In . SVG Version: 6.00 Build 0)  -->
<!DOCTYPE svg PUBLIC "-//W3C//DTD SVG 1.1//EN" "http://www.w3.org/Graphics/SVG/1.1/DTD/svg11.dtd">
<svg version="1.1" id="Layer_1" xmlns="http://www.w3.org/2000/svg" xmlns:xlink="http://www.w3.org/1999/xlink" x="0px" y="0px"
	 width="40px" height="44px" viewBox="0 0 40 44" style="enable-background:new 0 0 40 44;" xml:space="preserve">
<g id="_x31_162-judaic-star_x40_2x.png">
	<g>
		<path d="M39.873,32.512L33.631,22l6.242-10.512L39.86,11.48C39.941,11.336,40,11.178,40,11c0-0.552-0.448-1-1-1H26.506
			l-5.633-9.488L20.86,0.52C20.688,0.215,20.375,0,20,0s-0.688,0.215-0.86,0.52l-0.013-0.008L13.494,10H1c-0.552,0-1,0.448-1,1
			c0,0.178,0.059,0.336,0.14,0.48l-0.013,0.008L6.369,22L0.127,32.512L0.14,32.52C0.059,32.664,0,32.822,0,33c0,0.553,0.448,1,1,1
			h12.494l5.633,9.488l0.013-0.008C19.312,43.785,19.625,44,20,44s0.688-0.215,0.86-0.52l0.013,0.008L26.506,34H39
			c0.552,0,1-0.447,1-1c0-0.178-0.059-0.336-0.14-0.48L39.873,32.512z M37.244,12l-4.775,8.042L27.694,12H37.244z M20,2.958
			L24.181,10h-8.362L20,2.958z M2.756,12h9.55l-4.775,8.042L2.756,12z M2.756,32l4.775-8.042L12.306,32H2.756z M20,41.042L15.819,34
			h8.362L20,41.042z M25.369,32H14.631L8.694,22l5.938-10h10.737l5.938,10L25.369,32z M27.694,32l4.775-8.042L37.244,32H27.694z"/>
	</g>
</g>
<g>
</g>
<g>
</g>
<g>
</g>
<g>
</g>
<g>
</g>
<g>
</g>
<g>
</g>
<g>
</g>
<g>
</g>
<g>
</g>
<g>
</g>
<g>
</g>
<g>
</g>
<g>
</g>
<g>
</g>
</svg>
