<?xml version="1.0" encoding="UTF-8" standalone="no"?>
<svg width="53px" height="58px" viewBox="0 0 53 58" version="1.1" xmlns="http://www.w3.org/2000/svg" xmlns:xlink="http://www.w3.org/1999/xlink" xmlns:sketch="http://www.bohemiancoding.com/sketch/ns">
    <!-- Generator: Sketch 3.0.4 (8053) - http://www.bohemiancoding.com/sketch -->
    <title>1162-judaic-star</title>
    <desc>Created with Sketch.</desc>
    <defs></defs>
    <g id="Page-1" stroke="none" stroke-width="1" fill="none" fill-rule="evenodd" sketch:type="MSPage">
        <g id="Glyphish-8-Icons" sketch:type="MSArtboardGroup" transform="translate(-118.000000, -595.000000)" fill="#000000">
            <g id="1162-judaic-star" sketch:type="MSLayerGroup" transform="translate(118.036996, 595.860499)">
                <g id="_x31_162-judaic-star_x40_2x.png" sketch:type="MSShapeGroup">
                    <path d="M51.859,42.488 L43.235,28 L51.859,13.512 L51.844,13.503 C51.935,13.354 52,13.188 52,13 C52,12.448 51.552,12 51,12 L33.711,12 L26.859,0.488 L26.844,0.497 C26.67,0.205 26.365,0 26,0 C25.635,0 25.33,0.205 25.155,0.497 L25.14,0.488 L18.289,12 L1,12 C0.448,12 0,12.448 0,13 C0,13.188 0.065,13.354 0.155,13.503 L0.14,13.512 L8.765,28 L0.141,42.488 L0.156,42.497 C0.065,42.647 0,42.812 0,43 C0,43.553 0.448,44 1,44 L18.289,44 L25.141,55.512 L25.156,55.503 C25.33,55.795 25.635,56 26,56 C26.365,56 26.67,55.795 26.845,55.503 L26.86,55.512 L33.711,44 L51,44 C51.552,44 52,43.553 52,43 C52,42.812 51.935,42.647 51.845,42.497 L51.859,42.488 L51.859,42.488 Z M49.241,14 L42.071,26.045 L34.902,14 L49.241,14 L49.241,14 Z M26,2.955 L31.384,12 L20.616,12 L26,2.955 L26,2.955 Z M2.759,14 L17.098,14 L9.929,26.045 L2.759,14 L2.759,14 Z M2.759,42 L9.929,29.955 L17.098,42 L2.759,42 L2.759,42 Z M26,53.045 L20.616,44 L31.384,44 L26,53.045 L26,53.045 Z M32.574,42 L19.426,42 L11.093,28 L19.426,14 L32.574,14 L40.907,28 L32.574,42 L32.574,42 Z M34.902,42 L42.071,29.955 L49.241,42 L34.902,42 L34.902,42 Z" id="Shape"></path>
                </g>
            </g>
        </g>
    </g>
</svg>