<?xml version="1.0" encoding="iso-8859-1"?>
<!-- Generator: Adobe Illustrator 16.0.4, SVG Export Plug-In . SVG Version: 6.00 Build 0)  -->
<!DOCTYPE svg PUBLIC "-//W3C//DTD SVG 1.1//EN" "http://www.w3.org/Graphics/SVG/1.1/DTD/svg11.dtd">
<svg version="1.1" id="Layer_1" xmlns="http://www.w3.org/2000/svg" xmlns:xlink="http://www.w3.org/1999/xlink" x="0px" y="0px"
	 width="44px" height="44px" viewBox="0 0 44 44" style="enable-background:new 0 0 44 44;" xml:space="preserve">
<g id="_x38_99-key-toolbar_x40_2x.png">
	<g>
		<path d="M11,7.004c-2.207,0-3.996,1.789-3.996,3.996S8.793,14.996,11,14.996s3.996-1.789,3.996-3.996S13.207,7.004,11,7.004z
			 M11,12.991c-1.1,0-1.991-0.892-1.991-1.991S9.9,9.009,11,9.009S12.991,9.9,12.991,11S12.1,12.991,11,12.991z M44,34.994
			c0-0.288-0.125-0.544-0.319-0.728L27.417,18.003c0.378-1.269,0.588-2.609,0.588-4.001C28.005,6.27,21.735,0,14.002,0
			S0,6.27,0,14.002c0,7.733,6.269,14.003,14.002,14.003c1.393,0,2.737-0.204,4.005-0.583l8.218,8.217
			c0.185,0.223,0.452,0.373,0.764,0.373c0.002,0,0.003-0.001,0.004-0.001v0.001h2.993V39h0.005c0.003,0.551,0.447,0.996,0.998,0.999
			v0.007h3.023v2.876c-0.005,0.039-0.023,0.072-0.023,0.112c0,0.556,0.45,1.006,1.006,1.006c0.007,0,0.013-0.004,0.02-0.004V44
			h7.981c0.555-0.001,1.004-0.45,1.005-1.005v-7.981h-0.004C43.996,35.007,44,35.001,44,34.994z M41.988,41.988h-6.005v-2.911
			C35.985,39.049,36,39.023,36,38.994c0-0.555-0.45-1.006-1.006-1.006c-0.01,0-0.019,0.006-0.028,0.006h-2.978v-2.987l0.001-0.001
			l-0.001-0.001v-0.001C31.987,34.449,31.547,34,31.003,34c-0.005,0-0.009,0.003-0.015,0.003V34h-3.574l-5.207-5.207l-0.008,0.008
			l-3.165-3.165l-0.007,0.009c-0.185-0.218-0.45-0.363-0.758-0.363c-0.107,0-0.205,0.03-0.303,0.062l-0.014-0.034
			c-1.239,0.435-2.563,0.688-3.951,0.688c-6.624,0-11.993-5.37-11.993-11.994S7.378,2.009,14.002,2.009s11.994,5.369,11.994,11.993
			c0,1.37-0.247,2.679-0.671,3.904l0.018,0.008c-0.044,0.112-0.073,0.233-0.073,0.361c0,0.311,0.148,0.577,0.369,0.762l3.162,3.162
			l-0.008,0.008l13.195,13.195V41.988z"/>
	</g>
</g>
<g>
</g>
<g>
</g>
<g>
</g>
<g>
</g>
<g>
</g>
<g>
</g>
<g>
</g>
<g>
</g>
<g>
</g>
<g>
</g>
<g>
</g>
<g>
</g>
<g>
</g>
<g>
</g>
<g>
</g>
</svg>
