<?xml version="1.0" encoding="iso-8859-1"?>
<!-- Generator: Adobe Illustrator 16.0.4, SVG Export Plug-In . SVG Version: 6.00 Build 0)  -->
<!DOCTYPE svg PUBLIC "-//W3C//DTD SVG 1.1//EN" "http://www.w3.org/Graphics/SVG/1.1/DTD/svg11.dtd">
<svg version="1.1" id="Layer_1" xmlns="http://www.w3.org/2000/svg" xmlns:xlink="http://www.w3.org/1999/xlink" x="0px" y="0px"
	 width="56px" height="56px" viewBox="0 0 56 56" style="enable-background:new 0 0 56 56;" xml:space="preserve">
<g id="_x38_99-key_x40_2x.png">
	<g>
		<path d="M14,8c-3.313,0-6,2.687-6,6c0,3.314,2.687,6,6,6s6-2.686,6-6C20,10.687,17.313,8,14,8z M14,18c-2.209,0-4-1.791-4-4
			s1.791-4,4-4s4,1.791,4,4S16.209,18,14,18z M55.921,44.61c0-0.002-0.002-0.003-0.003-0.005c-0.051-0.117-0.122-0.224-0.211-0.312
			l-20.63-20.63c0.113-0.341,0.208-0.688,0.301-1.037c0.047-0.176,0.094-0.352,0.136-0.529c0.069-0.298,0.132-0.598,0.187-0.901
			c0.052-0.28,0.092-0.562,0.13-0.848c0.03-0.232,0.065-0.464,0.087-0.7C35.968,19.104,36,18.557,36,18c0-9.941-8.059-18-18-18
			S0,8.059,0,18s8.059,18,18,18c0.558,0,1.106-0.032,1.649-0.083c0.232-0.021,0.459-0.056,0.688-0.086
			c0.29-0.038,0.578-0.079,0.863-0.132c0.3-0.054,0.596-0.115,0.891-0.185c0.18-0.042,0.356-0.089,0.534-0.137
			c0.35-0.093,0.696-0.188,1.037-0.301l8.63,8.63c0.089,0.089,0.195,0.16,0.312,0.211c0.002,0.001,0.004,0.003,0.005,0.004
			C32.73,43.972,32.862,44,33,44h5v5c0,0.553,0.447,1,1,1h5v5c0,0.553,0.447,1,1,1h10c0.553,0,1-0.447,1-1V45
			C56,44.861,55.972,44.73,55.921,44.61z M54,54h-8v-5c0-0.552-0.447-1-1-1h-5v-5c0-0.553-0.447-1-1-1h-5.586l-1.965-1.965
			L28.3,36.887l-3.594-3.584l-0.01,0.005c-0.184-0.221-0.449-0.37-0.759-0.37c-0.153,0-0.295,0.041-0.426,0.104l-0.018-0.032
			C21.778,33.638,19.934,34,18,34C9.163,34,2,26.837,2,18C2,9.164,9.163,2,18,2s16,7.164,16,16c0,1.938-0.363,3.785-0.994,5.503
			l0.03,0.016c-0.06,0.128-0.099,0.268-0.099,0.419c0,0.309,0.148,0.574,0.367,0.758l-0.007,0.007l3.607,3.617l10.651,10.651
			L54,45.414V54z"/>
	</g>
</g>
<g>
</g>
<g>
</g>
<g>
</g>
<g>
</g>
<g>
</g>
<g>
</g>
<g>
</g>
<g>
</g>
<g>
</g>
<g>
</g>
<g>
</g>
<g>
</g>
<g>
</g>
<g>
</g>
<g>
</g>
</svg>
