<?xml version="1.0" encoding="iso-8859-1"?>
<!-- Generator: Adobe Illustrator 16.0.4, SVG Export Plug-In . SVG Version: 6.00 Build 0)  -->
<!DOCTYPE svg PUBLIC "-//W3C//DTD SVG 1.1//EN" "http://www.w3.org/Graphics/SVG/1.1/DTD/svg11.dtd">
<svg version="1.1" id="Layer_1" xmlns="http://www.w3.org/2000/svg" xmlns:xlink="http://www.w3.org/1999/xlink" x="0px" y="0px"
	 width="56px" height="56px" viewBox="0 0 56 56" style="enable-background:new 0 0 56 56;" xml:space="preserve">
<g id="_x37_20-keyhole_x40_2x.png">
	<g>
		<path d="M37,21c0-4.971-4.029-9-9-9s-9,4.029-9,9c0,3.509,2.012,6.54,4.941,8.025L20,44h16l-3.941-14.975
			C34.988,27.54,37,24.509,37,21z M31.154,27.241l-1.44,0.731l0.411,1.562L33.406,42H22.594l3.281-12.466l0.411-1.562l-1.44-0.731
			C22.474,26.039,21,23.647,21,21c0-3.859,3.141-7,7-7s7,3.141,7,7C35,23.647,33.526,26.039,31.154,27.241z M28,0
			C12.536,0,0,12.536,0,28s12.536,28,28,28s28-12.536,28-28S43.464,0,28,0z M28,54C13.664,54,2,42.337,2,28S13.664,2,28,2
			s26,11.663,26,26S42.336,54,28,54z"/>
	</g>
</g>
<g>
</g>
<g>
</g>
<g>
</g>
<g>
</g>
<g>
</g>
<g>
</g>
<g>
</g>
<g>
</g>
<g>
</g>
<g>
</g>
<g>
</g>
<g>
</g>
<g>
</g>
<g>
</g>
<g>
</g>
</svg>
