<?xml version="1.0" encoding="iso-8859-1"?>
<!-- Generator: Adobe Illustrator 16.0.4, SVG Export Plug-In . SVG Version: 6.00 Build 0)  -->
<!DOCTYPE svg PUBLIC "-//W3C//DTD SVG 1.1//EN" "http://www.w3.org/Graphics/SVG/1.1/DTD/svg11.dtd">
<svg version="1.1" id="Layer_1" xmlns="http://www.w3.org/2000/svg" xmlns:xlink="http://www.w3.org/1999/xlink" x="0px" y="0px"
	 width="44px" height="44px" viewBox="0 0 44 44" style="enable-background:new 0 0 44 44;" xml:space="preserve">
<g id="_x37_20-keyhole-toolbar_x40_2x.png">
	<g>
		<path d="M28,16c0-3.313-2.687-6-6-6s-6,2.687-6,6c0,2.055,1.035,3.865,2.61,4.946L16,34h12l-2.61-13.054
			C26.965,19.865,28,18.055,28,16z M24.62,19h-1.433l2.438,13h-7.25l2.438-13H19.38C18.541,18.267,18,17.201,18,16
			c0-2.209,1.791-4,4-4s4,1.791,4,4C26,17.201,25.459,18.267,24.62,19z M22,0C9.85,0,0,9.85,0,22s9.85,22,22,22s22-9.85,22-22
			S34.15,0,22,0z M22,42C10.954,42,2,33.046,2,22S10.954,2,22,2s20,8.954,20,20S33.046,42,22,42z"/>
	</g>
</g>
<g>
</g>
<g>
</g>
<g>
</g>
<g>
</g>
<g>
</g>
<g>
</g>
<g>
</g>
<g>
</g>
<g>
</g>
<g>
</g>
<g>
</g>
<g>
</g>
<g>
</g>
<g>
</g>
<g>
</g>
</svg>
