<?xml version="1.0" encoding="iso-8859-1"?>
<!-- Generator: Adobe Illustrator 16.0.4, SVG Export Plug-In . SVG Version: 6.00 Build 0)  -->
<!DOCTYPE svg PUBLIC "-//W3C//DTD SVG 1.1//EN" "http://www.w3.org/Graphics/SVG/1.1/DTD/svg11.dtd">
<svg version="1.1" id="Layer_1" xmlns="http://www.w3.org/2000/svg" xmlns:xlink="http://www.w3.org/1999/xlink" x="0px" y="0px"
	 width="56px" height="56px" viewBox="0 0 56 56" style="enable-background:new 0 0 56 56;" xml:space="preserve">
<g id="_x39_92-lamp_x40_2x.png">
	<g>
		<path d="M41,28c-0.553,0-1,0.447-1,1v6c0,0.553,0.447,1,1,1s1-0.447,1-1v-6C42,28.447,41.553,28,41,28z M55.816,24.455l0.016-0.01
			l-16-24l-0.016,0.01C39.638,0.188,39.347,0,39,0H17c-0.347,0-0.638,0.188-0.816,0.455l-0.016-0.01l-16,24l0.016,0.01
			C0.077,24.614,0,24.795,0,25c0,0.553,0.447,1,1,1h26v28h-7c-0.553,0-1,0.448-1,1c0,0.553,0.447,1,1,1h16c0.553,0,1-0.447,1-1
			c0-0.552-0.447-1-1-1h-7V26h26c0.553,0,1-0.447,1-1C56,24.795,55.923,24.614,55.816,24.455z M2.868,24L17.535,2h20.93l14.667,22
			H2.868z"/>
	</g>
</g>
<g>
</g>
<g>
</g>
<g>
</g>
<g>
</g>
<g>
</g>
<g>
</g>
<g>
</g>
<g>
</g>
<g>
</g>
<g>
</g>
<g>
</g>
<g>
</g>
<g>
</g>
<g>
</g>
<g>
</g>
</svg>
