<?xml version="1.0" encoding="iso-8859-1"?>
<!-- Generator: Adobe Illustrator 16.0.4, SVG Export Plug-In . SVG Version: 6.00 Build 0)  -->
<!DOCTYPE svg PUBLIC "-//W3C//DTD SVG 1.1//EN" "http://www.w3.org/Graphics/SVG/1.1/DTD/svg11.dtd">
<svg version="1.1" id="Layer_1" xmlns="http://www.w3.org/2000/svg" xmlns:xlink="http://www.w3.org/1999/xlink" x="0px" y="0px"
	 width="44px" height="44px" viewBox="0 0 44 44" style="enable-background:new 0 0 44 44;" xml:space="preserve">
<g id="_x39_92-lamp-toolbar_x40_2x.png">
	<g>
		<path d="M35,22c-0.553,0-1,0.447-1,1v4c0,0.553,0.447,1,1,1s1-0.447,1-1v-4C36,22.447,35.553,22,35,22z M43.816,18.455l0.016-0.01
			l-10-18l-0.016,0.011C33.638,0.188,33.347,0,33,0H11c-0.347,0-0.638,0.188-0.816,0.455l-0.016-0.01l-10,18l0.016,0.01
			C0.077,18.614,0,18.795,0,19c0,0.553,0.448,1,1,1h20v22h-5c-0.552,0-1,0.447-1,1s0.448,1,1,1h12c0.553,0,1-0.447,1-1s-0.447-1-1-1
			h-5V20h20c0.553,0,1-0.447,1-1C44,18.795,43.923,18.614,43.816,18.455z M2.696,18l8.889-16h20.83l8.89,16H2.696z"/>
	</g>
</g>
<g>
</g>
<g>
</g>
<g>
</g>
<g>
</g>
<g>
</g>
<g>
</g>
<g>
</g>
<g>
</g>
<g>
</g>
<g>
</g>
<g>
</g>
<g>
</g>
<g>
</g>
<g>
</g>
<g>
</g>
</svg>
