<?xml version="1.0" encoding="iso-8859-1"?>
<!-- Generator: Adobe Illustrator 16.0.4, SVG Export Plug-In . SVG Version: 6.00 Build 0)  -->
<!DOCTYPE svg PUBLIC "-//W3C//DTD SVG 1.1//EN" "http://www.w3.org/Graphics/SVG/1.1/DTD/svg11.dtd">
<svg version="1.1" id="Layer_1" xmlns="http://www.w3.org/2000/svg" xmlns:xlink="http://www.w3.org/1999/xlink" x="0px" y="0px"
	 width="44px" height="32px" viewBox="0 0 44 32" style="enable-background:new 0 0 44 32;" xml:space="preserve">
<g id="_x31_009-laptop-toolbar_x40_2x.png">
	<g>
		<path d="M43.937,30.688l0.013-0.004l-0.024-0.055c-0.005-0.012-0.009-0.023-0.015-0.034l-2.68-6.254
			C41.709,23.682,42,22.877,42,22V4c0-2.209-1.791-4-4-4H6C3.791,0,2,1.791,2,4v18c0,0.877,0.291,1.682,0.77,2.341l-2.68,6.254
			c-0.005,0.011-0.01,0.022-0.015,0.034l-0.023,0.055l0.012,0.004C0.03,30.787,0,30.89,0,31c0,0.553,0.447,1,1,1h42
			c0.553,0,1-0.447,1-1C44,30.89,43.971,30.787,43.937,30.688z M4,4c0-1.104,0.896-2,2-2h32c1.104,0,2,0.896,2,2v18
			c0,1.104-0.896,2-2,2H6c-1.104,0-2-0.896-2-2V4z M2.513,30l1.864-4.35C4.874,25.871,5.421,26,6,26h32
			c0.579,0,1.126-0.129,1.623-0.35L41.487,30H2.513z"/>
	</g>
</g>
<g>
</g>
<g>
</g>
<g>
</g>
<g>
</g>
<g>
</g>
<g>
</g>
<g>
</g>
<g>
</g>
<g>
</g>
<g>
</g>
<g>
</g>
<g>
</g>
<g>
</g>
<g>
</g>
<g>
</g>
</svg>
