<?xml version="1.0" encoding="iso-8859-1"?>
<!-- Generator: Adobe Illustrator 16.0.4, SVG Export Plug-In . SVG Version: 6.00 Build 0)  -->
<!DOCTYPE svg PUBLIC "-//W3C//DTD SVG 1.1//EN" "http://www.w3.org/Graphics/SVG/1.1/DTD/svg11.dtd">
<svg version="1.1" id="Layer_1" xmlns="http://www.w3.org/2000/svg" xmlns:xlink="http://www.w3.org/1999/xlink" x="0px" y="0px"
	 width="52px" height="56px" viewBox="0 0 52 56" style="enable-background:new 0 0 52 56;" xml:space="preserve">
<g id="_x38_03-large-house_x40_2x.png">
	<g>
		<path d="M9,46h8V36H9V46z M11,38h4v6h-4V38z M51,0H1C0.447,0,0,0.447,0,1v23c0,0.553,0.447,1,1,1h3v29c0,1.104,0.896,2,2,2h40
			c1.104,0,2-0.896,2-2V25h3c0.553,0,1-0.447,1-1V1.001V1C52,0.447,51.553,0,51,0z M30,54h-8V40c0-2.209,1.791-4,4-4s4,1.791,4,4V54
			z M46,54H32V40c0-3.313-2.687-6-6-6s-6,2.687-6,6v14H6V25h10c0.309,0,0.574-0.148,0.758-0.368l0.011,0.009L26,13.562l9.231,11.078
			l0.011-0.009C35.426,24.852,35.691,25,36,25h10V54z M50,23H36.468l-9.699-11.64l-0.011,0.008C26.574,11.148,26.309,11,26,11
			s-0.574,0.148-0.758,0.368l-0.011-0.008L15.532,23H2V2h48V23z M23,30h6v-8h-6V30z M25,24h2v4h-2V24z M35,46h8V36h-8V46z M37,38h4
			v6h-4V38z"/>
	</g>
</g>
<g>
</g>
<g>
</g>
<g>
</g>
<g>
</g>
<g>
</g>
<g>
</g>
<g>
</g>
<g>
</g>
<g>
</g>
<g>
</g>
<g>
</g>
<g>
</g>
<g>
</g>
<g>
</g>
<g>
</g>
</svg>
