<?xml version="1.0" encoding="iso-8859-1"?>
<!-- Generator: Adobe Illustrator 16.0.4, SVG Export Plug-In . SVG Version: 6.00 Build 0)  -->
<!DOCTYPE svg PUBLIC "-//W3C//DTD SVG 1.1//EN" "http://www.w3.org/Graphics/SVG/1.1/DTD/svg11.dtd">
<svg version="1.1" id="Layer_1" xmlns="http://www.w3.org/2000/svg" xmlns:xlink="http://www.w3.org/1999/xlink" x="0px" y="0px"
	 width="44px" height="44px" viewBox="0 0 44 44" style="enable-background:new 0 0 44 44;" xml:space="preserve">
<g id="_x38_03-large-house-toolbar_x40_2x.png">
	<g>
		<path d="M43,0H1C0.447,0,0,0.447,0,1v16c0,0.553,0.447,1,1,1h3v24c0,1.104,0.896,2,2,2h32c1.104,0,2-0.896,2-2V18h3
			c0.553,0,1-0.447,1-1V1.001c0,0,0,0,0-0.001C44,0.447,43.553,0,43,0z M24,42h-4V30c0-1.104,0.896-2,2-2s2,0.896,2,2V42z M38,42H26
			V30c0-2.209-1.791-4-4-4s-4,1.791-4,4v12H6V18h10c0.309,0,0.574-0.148,0.758-0.368l0.011,0.009L22,10.665l5.231,6.976l0.011-0.009
			C27.426,17.852,27.691,18,28,18h10V42z M42,16H28.498l-5.729-7.64l-0.011,0.008C22.574,8.148,22.309,8,22,8
			s-0.574,0.148-0.758,0.368L21.231,8.36L15.502,16H2V2h40V16z M35,26h-6v8h6V26z M33,32h-2v-4h2V32z M9,34h6v-8H9V34z M11,28h2v4
			h-2V28z"/>
	</g>
</g>
<g>
</g>
<g>
</g>
<g>
</g>
<g>
</g>
<g>
</g>
<g>
</g>
<g>
</g>
<g>
</g>
<g>
</g>
<g>
</g>
<g>
</g>
<g>
</g>
<g>
</g>
<g>
</g>
<g>
</g>
</svg>
