<?xml version="1.0" encoding="iso-8859-1"?>
<!-- Generator: Adobe Illustrator 16.0.4, SVG Export Plug-In . SVG Version: 6.00 Build 0)  -->
<!DOCTYPE svg PUBLIC "-//W3C//DTD SVG 1.1//EN" "http://www.w3.org/Graphics/SVG/1.1/DTD/svg11.dtd">
<svg version="1.1" id="Layer_1" xmlns="http://www.w3.org/2000/svg" xmlns:xlink="http://www.w3.org/1999/xlink" x="0px" y="0px"
	 width="56px" height="36px" viewBox="0 0 56 36" style="enable-background:new 0 0 56 36;" xml:space="preserve">
<g id="_x31_063-layers-3_x40_2x.png">
	<g>
		<path d="M56,19c0-0.375-0.216-0.69-0.521-0.861l0.007-0.013l-7.983-4.436l7.715-1.714l-0.004-0.02C55.659,11.857,56,11.477,56,11
			c0-0.375-0.216-0.69-0.521-0.861l0.007-0.013l-18-10l-0.007,0.013C37.334,0.059,37.177,0,37,0c-0.075,0-0.142,0.027-0.213,0.043
			l-0.004-0.02l-36,8l0.004,0.02C0.341,8.143,0,8.523,0,9c0,0.375,0.216,0.69,0.521,0.861L0.515,9.874l7.983,4.436l-7.715,1.714
			l0.004,0.02C0.341,16.143,0,16.523,0,17c0,0.375,0.216,0.69,0.521,0.861l-0.007,0.013l7.983,4.436l-7.715,1.714l0.004,0.02
			C0.341,24.143,0,24.523,0,25c0,0.375,0.216,0.69,0.521,0.861l-0.007,0.013l18,10l0.007-0.013C18.666,35.941,18.823,36,19,36
			c0.075,0,0.142-0.027,0.213-0.043l0.004,0.02l36-8l-0.004-0.02C55.659,27.857,56,27.477,56,27c0-0.375-0.216-0.69-0.521-0.861
			l0.007-0.013l-7.983-4.436l7.715-1.714l-0.004-0.02C55.659,19.857,56,19.477,56,19z M3.788,9.405l33.059-7.347l15.365,8.537
			l-33.059,7.346L3.788,9.405z M52.212,26.596l-33.059,7.346L3.788,25.405l7.344-1.633l7.383,4.102l0.007-0.013
			C18.666,27.941,18.823,28,19,28c0.075,0,0.142-0.027,0.213-0.043l0.004,0.02l25.344-5.632L52.212,26.596z M19.153,25.941
			L3.788,17.405l7.344-1.633l7.383,4.102l0.007-0.013C18.666,19.941,18.823,20,19,20c0.075,0,0.142-0.027,0.213-0.043l0.004,0.02
			l25.344-5.632l7.651,4.251L19.153,25.941z"/>
	</g>
</g>
<g>
</g>
<g>
</g>
<g>
</g>
<g>
</g>
<g>
</g>
<g>
</g>
<g>
</g>
<g>
</g>
<g>
</g>
<g>
</g>
<g>
</g>
<g>
</g>
<g>
</g>
<g>
</g>
<g>
</g>
</svg>
