<?xml version="1.0" encoding="iso-8859-1"?>
<!-- Generator: Adobe Illustrator 16.0.4, SVG Export Plug-In . SVG Version: 6.00 Build 0)  -->
<!DOCTYPE svg PUBLIC "-//W3C//DTD SVG 1.1//EN" "http://www.w3.org/Graphics/SVG/1.1/DTD/svg11.dtd">
<svg version="1.1" id="Layer_1" xmlns="http://www.w3.org/2000/svg" xmlns:xlink="http://www.w3.org/1999/xlink" x="0px" y="0px"
	 width="44px" height="38px" viewBox="0 0 44 38" style="enable-background:new 0 0 44 38;" xml:space="preserve">
<g id="_x31_062-layers-2-toolbar_x40_2x.png">
	<g>
		<path d="M44,19c0-0.371-0.211-0.682-0.512-0.854l0.008-0.014L39.766,16l3.73-2.132l-0.008-0.014C43.789,13.682,44,13.371,44,13
			s-0.211-0.682-0.512-0.854l0.008-0.014l-21-12l-0.008,0.014C22.342,0.062,22.181,0,22,0s-0.342,0.062-0.488,0.146l-0.008-0.014
			l-21,12l0.008,0.014C0.211,12.318,0,12.629,0,13s0.211,0.682,0.512,0.854l-0.008,0.014L4.234,16l-3.73,2.132l0.008,0.014
			C0.211,18.318,0,18.629,0,19s0.211,0.682,0.512,0.854l-0.008,0.014L4.234,22l-3.73,2.132l0.008,0.014C0.211,24.318,0,24.629,0,25
			s0.211,0.682,0.512,0.854l-0.008,0.014l21,12l0.008-0.014C21.658,37.938,21.819,38,22,38s0.342-0.062,0.488-0.146l0.008,0.014
			l21-12l-0.008-0.014C43.789,25.682,44,25.371,44,25s-0.211-0.682-0.512-0.854l0.008-0.014L39.766,22l3.73-2.132l-0.008-0.014
			C43.789,19.682,44,19.371,44,19z M3.016,13L22,2.151L40.984,13L22,23.849L3.016,13z M40.984,25L22,35.849L3.016,25l3.234-1.848
			l15.254,8.716l0.008-0.014C21.658,31.938,21.819,32,22,32s0.342-0.062,0.488-0.146l0.008,0.014l15.254-8.716L40.984,25z
			 M22,29.849L3.016,19l3.234-1.848l15.254,8.716l0.008-0.014C21.658,25.938,21.819,26,22,26s0.342-0.062,0.488-0.146l0.008,0.014
			l15.254-8.716L40.984,19L22,29.849z"/>
	</g>
</g>
<g>
</g>
<g>
</g>
<g>
</g>
<g>
</g>
<g>
</g>
<g>
</g>
<g>
</g>
<g>
</g>
<g>
</g>
<g>
</g>
<g>
</g>
<g>
</g>
<g>
</g>
<g>
</g>
<g>
</g>
</svg>
