<?xml version="1.0" encoding="iso-8859-1"?>
<!-- Generator: Adobe Illustrator 16.0.4, SVG Export Plug-In . SVG Version: 6.00 Build 0)  -->
<!DOCTYPE svg PUBLIC "-//W3C//DTD SVG 1.1//EN" "http://www.w3.org/Graphics/SVG/1.1/DTD/svg11.dtd">
<svg version="1.1" id="Layer_1" xmlns="http://www.w3.org/2000/svg" xmlns:xlink="http://www.w3.org/1999/xlink" x="0px" y="0px"
	 width="56px" height="52px" viewBox="0 0 56 52" style="enable-background:new 0 0 56 52;" xml:space="preserve">
<g id="_x31_064-layers-4_x40_2x.png">
	<g>
		<path d="M56,26c0-0.407-0.246-0.755-0.595-0.911l0.001-0.003l-0.017-0.007l-0.001-0.001L42.837,19.5l12.552-5.578l0.001-0.001
			l0.017-0.007l-0.001-0.003C55.754,13.755,56,13.407,56,13s-0.246-0.755-0.595-0.911l0.001-0.003l-0.017-0.007
			c0,0-0.001,0-0.001-0.001L28.406,0.086l-0.001,0.003C28.28,0.033,28.145,0,28,0s-0.28,0.033-0.405,0.089l-0.001-0.003
			L0.611,12.078c0,0.001-0.001,0.001-0.001,0.001l-0.017,0.007l0.001,0.003C0.245,12.245,0,12.593,0,13s0.245,0.755,0.595,0.911
			l-0.001,0.003l0.017,0.007l0.001,0.001L13.163,19.5L0.611,25.078L0.61,25.079l-0.017,0.007l0.001,0.003
			C0.245,25.245,0,25.593,0,26s0.245,0.755,0.595,0.911l-0.001,0.003l0.017,0.007l0.001,0.001L13.163,32.5L0.611,38.078L0.61,38.079
			l-0.017,0.007l0.001,0.003C0.245,38.245,0,38.593,0,39s0.245,0.755,0.595,0.911l-0.001,0.003l0.017,0.007l0.001,0.001
			l26.982,11.992l0.001-0.003C27.72,51.967,27.855,52,28,52s0.28-0.033,0.405-0.089l0.001,0.003l26.982-11.992l0.001-0.001
			l0.017-0.007l-0.001-0.003C55.754,39.755,56,39.407,56,39s-0.246-0.755-0.595-0.911l0.001-0.003l-0.017-0.007l-0.001-0.001
			L42.837,32.5l12.552-5.578l0.001-0.001l0.017-0.007l-0.001-0.003C55.754,26.755,56,26.407,56,26z M3.462,13L28,2.095L52.538,13
			L28,23.906L3.462,13z M52.538,39L28,49.905L3.462,39l12.163-5.405l11.969,5.319l0.001-0.003C27.72,38.967,27.855,39,28,39
			s0.28-0.033,0.405-0.089l0.001,0.003l11.969-5.319L52.538,39z M28,36.906L3.462,26l12.163-5.405l11.969,5.319l0.001-0.003
			C27.72,25.967,27.855,26,28,26s0.28-0.033,0.405-0.089l0.001,0.003l11.969-5.319L52.538,26L28,36.906z"/>
	</g>
</g>
<g>
</g>
<g>
</g>
<g>
</g>
<g>
</g>
<g>
</g>
<g>
</g>
<g>
</g>
<g>
</g>
<g>
</g>
<g>
</g>
<g>
</g>
<g>
</g>
<g>
</g>
<g>
</g>
<g>
</g>
</svg>
