<?xml version="1.0" encoding="iso-8859-1"?>
<!-- Generator: Adobe Illustrator 16.0.4, SVG Export Plug-In . SVG Version: 6.00 Build 0)  -->
<!DOCTYPE svg PUBLIC "-//W3C//DTD SVG 1.1//EN" "http://www.w3.org/Graphics/SVG/1.1/DTD/svg11.dtd">
<svg version="1.1" id="Layer_1" xmlns="http://www.w3.org/2000/svg" xmlns:xlink="http://www.w3.org/1999/xlink" x="0px" y="0px"
	 width="44px" height="40px" viewBox="0 0 44 40" style="enable-background:new 0 0 44 40;" xml:space="preserve">
<g id="_x31_064-layers-4-toolbar_x40_2x.png">
	<g>
		<path d="M43.391,20.921l0.003-0.002v-0.001C43.75,20.766,44,20.412,44,20s-0.25-0.766-0.606-0.918v-0.001l-0.003-0.002
			c-0.001,0-0.002,0-0.003-0.001L33.872,15l9.516-4.078c0.001,0,0.002-0.001,0.003-0.001l0.003-0.002C43.75,10.766,44,10.412,44,10
			s-0.25-0.766-0.606-0.918V9.081l-0.003-0.002c-0.001,0-0.002,0-0.003-0.001L22.394,0.081v0.001C22.272,0.029,22.14,0,22,0
			s-0.272,0.029-0.394,0.082V0.081L0.612,9.078C0.611,9.079,0.61,9.079,0.609,9.079L0.606,9.081v0.001C0.25,9.234,0,9.588,0,10
			s0.25,0.766,0.606,0.919l0.003,0.002c0.001,0,0.002,0.001,0.003,0.001L10.128,15l-9.516,4.078
			c-0.001,0.001-0.002,0.001-0.003,0.001l-0.003,0.002v0.001C0.25,19.234,0,19.588,0,20s0.25,0.766,0.606,0.918v0.001l0.003,0.002
			c0.001,0,0.002,0.001,0.003,0.001L10.128,25l-9.516,4.078c-0.001,0.001-0.002,0.001-0.003,0.001l-0.003,0.002v0.001
			C0.25,29.234,0,29.588,0,30s0.25,0.766,0.606,0.918v0.001l0.003,0.002c0.001,0,0.002,0.001,0.003,0.001l20.994,8.997
			C21.728,39.971,21.86,40,22,40s0.272-0.029,0.394-0.081l20.994-8.997c0.001,0,0.002-0.001,0.003-0.001l0.003-0.002v-0.001
			C43.75,30.766,44,30.412,44,30s-0.25-0.766-0.606-0.918v-0.001l-0.003-0.002c-0.001,0-0.002,0-0.003-0.001L33.872,25l9.516-4.078
			C43.389,20.922,43.39,20.921,43.391,20.921z M3.539,10L22,2.088L40.461,10L22,17.912L3.539,10z M40.461,30L22,37.912L3.539,30
			l9.128-3.912l8.939,3.831v-0.001C21.728,29.971,21.86,30,22,30s0.272-0.029,0.394-0.082v0.001l8.939-3.831L40.461,30z M22,27.912
			L3.539,20l9.128-3.912l8.939,3.831v-0.001C21.728,19.971,21.86,20,22,20s0.272-0.029,0.394-0.082v0.001l8.939-3.831L40.461,20
			L22,27.912z"/>
	</g>
</g>
<g>
</g>
<g>
</g>
<g>
</g>
<g>
</g>
<g>
</g>
<g>
</g>
<g>
</g>
<g>
</g>
<g>
</g>
<g>
</g>
<g>
</g>
<g>
</g>
<g>
</g>
<g>
</g>
<g>
</g>
</svg>
