<?xml version="1.0" encoding="iso-8859-1"?>
<!-- Generator: Adobe Illustrator 16.0.4, SVG Export Plug-In . SVG Version: 6.00 Build 0)  -->
<!DOCTYPE svg PUBLIC "-//W3C//DTD SVG 1.1//EN" "http://www.w3.org/Graphics/SVG/1.1/DTD/svg11.dtd">
<svg version="1.1" id="Layer_1" xmlns="http://www.w3.org/2000/svg" xmlns:xlink="http://www.w3.org/1999/xlink" x="0px" y="0px"
	 width="56px" height="48px" viewBox="0 0 56 48" style="enable-background:new 0 0 56 48;" xml:space="preserve">
<g id="_x31_062-layers-2_x40_2x.png">
	<g>
		<path d="M56,24c0-0.365-0.206-0.672-0.499-0.846l0.009-0.015l-4.454-2.64l4.454-2.64l-0.009-0.015C55.794,17.672,56,17.365,56,17
			s-0.206-0.672-0.499-0.846l0.009-0.015l-27-16l-0.009,0.015C28.352,0.065,28.187,0,28,0s-0.352,0.065-0.501,0.154L27.49,0.14
			l-27,16l0.009,0.015C0.206,16.328,0,16.635,0,17s0.206,0.672,0.499,0.846L0.49,17.86l4.454,2.64L0.49,23.14l0.009,0.015
			C0.206,23.328,0,23.635,0,24s0.206,0.672,0.499,0.846L0.49,24.86l4.454,2.64L0.49,30.14l0.009,0.015C0.206,30.328,0,30.635,0,31
			s0.206,0.672,0.499,0.846L0.49,31.86l27,16l0.009-0.015C27.648,47.936,27.813,48,28,48s0.352-0.064,0.501-0.154l0.009,0.015l27-16
			l-0.009-0.015C55.794,31.672,56,31.365,56,31s-0.206-0.672-0.499-0.846l0.009-0.015l-4.454-2.64l4.454-2.64l-0.009-0.015
			C55.794,24.672,56,24.365,56,24z M2.962,17L28,2.162L53.038,17L28,31.838L2.962,17z M53.038,31L28,45.838L2.962,31l3.944-2.338
			L27.49,40.86l0.009-0.015C27.648,40.936,27.813,41,28,41s0.352-0.064,0.501-0.154l0.009,0.015l20.584-12.198L53.038,31z
			 M28,38.838L2.962,24l3.944-2.338L27.49,33.86l0.009-0.015C27.648,33.936,27.813,34,28,34s0.352-0.064,0.501-0.154l0.009,0.015
			l20.584-12.198L53.038,24L28,38.838z"/>
	</g>
</g>
<g>
</g>
<g>
</g>
<g>
</g>
<g>
</g>
<g>
</g>
<g>
</g>
<g>
</g>
<g>
</g>
<g>
</g>
<g>
</g>
<g>
</g>
<g>
</g>
<g>
</g>
<g>
</g>
<g>
</g>
</svg>
