<?xml version="1.0" encoding="iso-8859-1"?>
<!-- Generator: Adobe Illustrator 16.0.4, SVG Export Plug-In . SVG Version: 6.00 Build 0)  -->
<!DOCTYPE svg PUBLIC "-//W3C//DTD SVG 1.1//EN" "http://www.w3.org/Graphics/SVG/1.1/DTD/svg11.dtd">
<svg version="1.1" id="Layer_1" xmlns="http://www.w3.org/2000/svg" xmlns:xlink="http://www.w3.org/1999/xlink" x="0px" y="0px"
	 width="44px" height="28px" viewBox="0 0 44 28" style="enable-background:new 0 0 44 28;" xml:space="preserve">
<g id="_x31_063-layers-3-toolbar_x40_2x.png">
	<g>
		<path d="M44,15c0-0.391-0.23-0.721-0.558-0.885l0.005-0.01l-5.318-3.039l5.081-1.089l-0.005-0.019C43.655,9.861,44,9.479,44,9
			c0-0.391-0.23-0.721-0.558-0.886l0.005-0.009l-14-8l-0.005,0.009C29.308,0.047,29.161,0,29,0c-0.073,0-0.137,0.027-0.205,0.042
			l-0.005-0.02l-28,7l0.005,0.019C0.345,7.139,0,7.521,0,8c0,0.391,0.23,0.721,0.558,0.886L0.553,8.895l5.583,2.791L0.79,13.022
			l0.005,0.019C0.345,13.139,0,13.521,0,14c0,0.391,0.23,0.721,0.558,0.886l-0.005,0.009l5.583,2.791L0.79,19.022l0.005,0.019
			C0.345,19.139,0,19.521,0,20c0,0.391,0.23,0.721,0.558,0.886l-0.005,0.009l14,7l0.005-0.009C14.692,27.953,14.839,28,15,28
			c0.073,0,0.137-0.026,0.205-0.041l0.005,0.019l28-6l-0.005-0.019C43.655,21.861,44,21.479,44,21c0-0.391-0.23-0.721-0.558-0.885
			l0.005-0.01l-5.318-3.039l5.081-1.089l-0.005-0.019C43.655,15.861,44,15.479,44,15z M3.997,8.381l24.869-6.33l11.137,6.568
			l-24.869,5.33L3.997,8.381z M40.003,20.619l-24.869,5.33L3.997,20.381l4.988-1.27l5.567,2.783l0.005-0.009
			C14.692,21.953,14.839,22,15,22c0.073,0,0.137-0.026,0.205-0.041l0.005,0.019l19.875-4.259L40.003,20.619z M15.134,19.949
			L3.997,14.381l4.988-1.27l5.567,2.783l0.005-0.009C14.692,15.953,14.839,16,15,16c0.073,0,0.137-0.026,0.205-0.041l0.005,0.019
			l19.875-4.259l4.918,2.9L15.134,19.949z"/>
	</g>
</g>
<g>
</g>
<g>
</g>
<g>
</g>
<g>
</g>
<g>
</g>
<g>
</g>
<g>
</g>
<g>
</g>
<g>
</g>
<g>
</g>
<g>
</g>
<g>
</g>
<g>
</g>
<g>
</g>
<g>
</g>
</svg>
