<?xml version="1.0" encoding="iso-8859-1"?>
<!-- Generator: Adobe Illustrator 16.0.4, SVG Export Plug-In . SVG Version: 6.00 Build 0)  -->
<!DOCTYPE svg PUBLIC "-//W3C//DTD SVG 1.1//EN" "http://www.w3.org/Graphics/SVG/1.1/DTD/svg11.dtd">
<svg version="1.1" id="Layer_1" xmlns="http://www.w3.org/2000/svg" xmlns:xlink="http://www.w3.org/1999/xlink" x="0px" y="0px"
	 width="44px" height="16px" viewBox="0 0 44 16" style="enable-background:new 0 0 44 16;" xml:space="preserve">
<g id="_x31_098-level-toolbar_x40_2x.png">
	<g>
		<path d="M36.143,0h-0.131H34H10H7.988H7.857C3.518,0,0,3.582,0,8s3.518,8,7.857,8h0.131H10h24h2.012h0.131
			C40.482,16,44,12.418,44,8S40.482,0,36.143,0z M7.988,13.986C4.672,13.896,2.009,11.254,2.009,8s2.663-5.896,5.979-5.985V13.986z
			 M29.73,2.006C28.84,5.451,25.724,8,22,8s-6.84-2.549-7.73-5.994H29.73z M34,13.994H10V2.006h2.206C13.135,6.566,17.165,10,22,10
			s8.865-3.434,9.794-7.994H34V13.994z M36.012,13.986V2.015C39.329,2.104,41.991,4.746,41.991,8S39.329,13.896,36.012,13.986z"/>
	</g>
</g>
<g>
</g>
<g>
</g>
<g>
</g>
<g>
</g>
<g>
</g>
<g>
</g>
<g>
</g>
<g>
</g>
<g>
</g>
<g>
</g>
<g>
</g>
<g>
</g>
<g>
</g>
<g>
</g>
<g>
</g>
</svg>
