<?xml version="1.0" encoding="iso-8859-1"?>
<!-- Generator: Adobe Illustrator 16.0.4, SVG Export Plug-In . SVG Version: 6.00 Build 0)  -->
<!DOCTYPE svg PUBLIC "-//W3C//DTD SVG 1.1//EN" "http://www.w3.org/Graphics/SVG/1.1/DTD/svg11.dtd">
<svg version="1.1" id="Layer_1" xmlns="http://www.w3.org/2000/svg" xmlns:xlink="http://www.w3.org/1999/xlink" x="0px" y="0px"
	 width="44px" height="44px" viewBox="0 0 44 44" style="enable-background:new 0 0 44 44;" xml:space="preserve">
<g id="_x39_58-life-preserver-toolbar_x40_2x.png">
	<g>
		<path d="M22,0C9.85,0,0,9.85,0,22s9.85,22,22,22s22-9.85,22-22S34.15,0,22,0z M22,2c4.652,0,8.922,1.603,12.319,4.267
			l-4.281,4.281C27.762,8.947,24.994,8,22,8s-5.762,0.947-8.037,2.548L9.681,6.267C13.078,3.603,17.348,2,22,2z M34,22
			c0,6.628-5.373,12-12,12s-12-5.372-12-12c0-6.627,5.373-12,12-12S34,15.373,34,22z M6.267,34.319C3.603,30.922,2,26.652,2,22
			s1.603-8.922,4.267-12.319l4.281,4.282C8.947,16.238,8,19.007,8,22c0,2.994,0.947,5.762,2.548,8.038L6.267,34.319z M22,42
			c-4.652,0-8.922-1.603-12.319-4.266l4.282-4.282C16.238,35.053,19.006,36,22,36s5.762-0.947,8.038-2.548l4.281,4.282
			C30.922,40.397,26.652,42,22,42z M33.452,30.038C35.053,27.762,36,24.994,36,22c0-2.993-0.947-5.762-2.548-8.037l4.281-4.282
			C40.397,13.078,42,17.348,42,22s-1.603,8.922-4.267,12.319L33.452,30.038z"/>
	</g>
</g>
<g>
</g>
<g>
</g>
<g>
</g>
<g>
</g>
<g>
</g>
<g>
</g>
<g>
</g>
<g>
</g>
<g>
</g>
<g>
</g>
<g>
</g>
<g>
</g>
<g>
</g>
<g>
</g>
<g>
</g>
</svg>
