<?xml version="1.0" encoding="iso-8859-1"?>
<!-- Generator: Adobe Illustrator 16.0.4, SVG Export Plug-In . SVG Version: 6.00 Build 0)  -->
<!DOCTYPE svg PUBLIC "-//W3C//DTD SVG 1.1//EN" "http://www.w3.org/Graphics/SVG/1.1/DTD/svg11.dtd">
<svg version="1.1" id="Layer_1" xmlns="http://www.w3.org/2000/svg" xmlns:xlink="http://www.w3.org/1999/xlink" x="0px" y="0px"
	 width="56px" height="56px" viewBox="0 0 56 56" style="enable-background:new 0 0 56 56;" xml:space="preserve">
<g id="_x39_58-life-preserver_x40_2x.png">
	<g>
		<path d="M28,0C12.536,0,0,12.536,0,28s12.536,28,28,28s28-12.536,28-28S43.464,0,28,0z M28,2c6.311,0,12.093,2.251,16.596,5.989
			l-7.131,7.132C34.812,13.168,31.547,12,28,12s-6.812,1.168-9.465,3.121l-7.131-7.132C15.907,4.251,21.689,2,28,2z M42,28
			c0,7.732-6.268,14-14,14s-14-6.268-14-14c0-7.731,6.268-14,14-14S42,20.269,42,28z M7.989,44.596C4.251,40.093,2,34.311,2,28
			s2.251-12.093,5.989-16.596l7.132,7.131C13.168,21.188,12,24.453,12,28s1.168,6.812,3.121,9.465L7.989,44.596z M28,54
			c-6.311,0-12.093-2.251-16.596-5.989l7.131-7.132C21.188,42.832,24.453,44,28,44s6.812-1.168,9.465-3.121l7.131,7.132
			C40.093,51.749,34.311,54,28,54z M40.879,37.465C42.832,34.812,44,31.547,44,28s-1.168-6.812-3.121-9.465l7.132-7.131
			C51.749,15.907,54,21.689,54,28s-2.251,12.093-5.989,16.596L40.879,37.465z"/>
	</g>
</g>
<g>
</g>
<g>
</g>
<g>
</g>
<g>
</g>
<g>
</g>
<g>
</g>
<g>
</g>
<g>
</g>
<g>
</g>
<g>
</g>
<g>
</g>
<g>
</g>
<g>
</g>
<g>
</g>
<g>
</g>
</svg>
