<?xml version="1.0" encoding="iso-8859-1"?>
<!-- Generator: Adobe Illustrator 16.0.4, SVG Export Plug-In . SVG Version: 6.00 Build 0)  -->
<!DOCTYPE svg PUBLIC "-//W3C//DTD SVG 1.1//EN" "http://www.w3.org/Graphics/SVG/1.1/DTD/svg11.dtd">
<svg version="1.1" id="Layer_1" xmlns="http://www.w3.org/2000/svg" xmlns:xlink="http://www.w3.org/1999/xlink" x="0px" y="0px"
	 width="28px" height="56px" viewBox="0 0 28 56" style="enable-background:new 0 0 28 56;" xml:space="preserve">
<g id="_x39_65-lightning-bolt_x40_2x.png">
	<g>
		<path d="M27.843,15.506C27.934,15.355,28,15.188,28,15c0-0.552-0.447-1-1-1h-6.483l5.402-12.605V1.394C25.971,1.272,26,1.14,26,1
			c0-0.553-0.447-1-1-1H9C8.593,0,8.245,0.246,8.089,0.595L8.086,0.594L8.079,0.61c0,0,0,0.001-0.001,0.001L0.086,18.594
			l0.003,0.002C0.034,18.72,0,18.855,0,19c0,0.553,0.448,1,1,1h6.523L0.079,38.61c0,0,0,0.001-0.001,0.001l-0.007,0.018l0.004,0.001
			C0.028,38.745,0,38.869,0,39c0,0.553,0.448,1,1,1h9v15c0,0.553,0.447,1,1,1c0.391,0,0.721-0.23,0.886-0.558l0.009,0.005l10-20
			l-0.009-0.005C21.953,35.308,22,35.161,22,35c0-0.552-0.447-1-1-1h-4.233l11.091-18.485L27.843,15.506z M14.143,34.485
			l0.015,0.009C14.066,34.645,14,34.812,14,35c0,0.553,0.447,1,1,1h4.382L12,50.764V39c0-0.552-0.447-1-1-1H2.478l7.443-18.61
			c0.001,0,0.001,0,0.001-0.001l0.007-0.018L9.926,19.37C9.972,19.256,10,19.132,10,19c0-0.552-0.447-1-1-1H2.539L9.65,2h13.833
			l-5.402,12.606h0.001C18.029,14.728,18,14.86,18,15c0,0.553,0.447,1,1,1h6.233L14.143,34.485z"/>
	</g>
</g>
<g>
</g>
<g>
</g>
<g>
</g>
<g>
</g>
<g>
</g>
<g>
</g>
<g>
</g>
<g>
</g>
<g>
</g>
<g>
</g>
<g>
</g>
<g>
</g>
<g>
</g>
<g>
</g>
<g>
</g>
</svg>
