<?xml version="1.0" encoding="iso-8859-1"?>
<!-- Generator: Adobe Illustrator 16.0.4, SVG Export Plug-In . SVG Version: 6.00 Build 0)  -->
<!DOCTYPE svg PUBLIC "-//W3C//DTD SVG 1.1//EN" "http://www.w3.org/Graphics/SVG/1.1/DTD/svg11.dtd">
<svg version="1.1" id="Layer_1" xmlns="http://www.w3.org/2000/svg" xmlns:xlink="http://www.w3.org/1999/xlink" x="0px" y="0px"
	 width="20px" height="44px" viewBox="0 0 20 44" style="enable-background:new 0 0 20 44;" xml:space="preserve">
<g id="_x39_65-lightning-bolt-toolbar_x40_2x.png">
	<g>
		<path d="M19.914,11.4C19.968,11.277,20,11.143,20,11c0-0.552-0.447-1-1-1h-3.526l3.421-8.553l-0.009-0.005
			C18.953,1.308,19,1.161,19,1c0-0.552-0.447-1-1-1H6C5.566,0,5.205,0.28,5.067,0.667L5.059,0.664l-5,14l0.009,0.003
			C0.029,14.772,0,14.882,0,15c0,0.553,0.447,1,1,1h3.584l-4.5,12.6h0.002C0.032,28.723,0,28.857,0,29c0,0.553,0.447,1,1,1h4v13
			c0,0.553,0.447,1,1,1c0.342,0,0.629-0.183,0.809-0.443l0.016,0.01l9-16l-0.016-0.01C15.92,27.396,16,27.211,16,27
			c0-0.553-0.447-1-1-1h-1.471l6.387-14.6H19.914z M11.084,26.6h0.002C11.032,26.723,11,26.857,11,27c0,0.553,0.447,1,1,1h1.295
			L7,39.19V29c0-0.553-0.447-1-1-1H2.416l4.5-12.6H6.914C6.968,15.277,7,15.143,7,15c0-0.553-0.447-1-1-1H2.419L6.705,2h9.821
			l-3.421,8.553l0.009,0.005C13.047,10.692,13,10.839,13,11c0,0.553,0.447,1,1,1h3.471L11.084,26.6z"/>
	</g>
</g>
<g>
</g>
<g>
</g>
<g>
</g>
<g>
</g>
<g>
</g>
<g>
</g>
<g>
</g>
<g>
</g>
<g>
</g>
<g>
</g>
<g>
</g>
<g>
</g>
<g>
</g>
<g>
</g>
<g>
</g>
</svg>
