<?xml version="1.0" encoding="iso-8859-1"?>
<!-- Generator: Adobe Illustrator 16.0.4, SVG Export Plug-In . SVG Version: 6.00 Build 0)  -->
<!DOCTYPE svg PUBLIC "-//W3C//DTD SVG 1.1//EN" "http://www.w3.org/Graphics/SVG/1.1/DTD/svg11.dtd">
<svg version="1.1" id="Layer_1" xmlns="http://www.w3.org/2000/svg" xmlns:xlink="http://www.w3.org/1999/xlink" x="0px" y="0px"
	 width="44px" height="56px" viewBox="0 0 44 56" style="enable-background:new 0 0 44 56;" xml:space="preserve">
<g id="_x31_093-lightning-bolt-2_x40_2x.png">
	<g>
		<path d="M44,23c0-0.553-0.447-1-1-1H22.553L31.91,1.414l-0.004-0.002C31.964,1.285,32,1.148,32,1c0-0.553-0.447-1-1-1
			c-0.288,0-0.542,0.127-0.723,0.322l-0.007-0.006l-30,32l0.004,0.004C0.107,32.499,0,32.735,0,33c0,0.553,0.447,1,1,1h20.447
			L12.09,54.586l0.009,0.005C12.04,54.716,12,54.852,12,55c0,0.553,0.447,1,1,1c0.288,0,0.543-0.125,0.726-0.32l0.004,0.004l30-32
			l-0.004-0.004C43.893,23.501,44,23.265,44,23z M16.423,49.888l7.487-16.474l-0.004-0.002C23.964,33.285,24,33.148,24,33
			c0-0.553-0.447-1-1-1H3.309L27.577,6.113L20.09,22.586l0.004,0.002C20.036,22.715,20,22.853,20,23c0,0.553,0.447,1,1,1h19.691
			L16.423,49.888z"/>
	</g>
</g>
<g>
</g>
<g>
</g>
<g>
</g>
<g>
</g>
<g>
</g>
<g>
</g>
<g>
</g>
<g>
</g>
<g>
</g>
<g>
</g>
<g>
</g>
<g>
</g>
<g>
</g>
<g>
</g>
<g>
</g>
</svg>
