<?xml version="1.0" encoding="iso-8859-1"?>
<!-- Generator: Adobe Illustrator 16.0.4, SVG Export Plug-In . SVG Version: 6.00 Build 0)  -->
<!DOCTYPE svg PUBLIC "-//W3C//DTD SVG 1.1//EN" "http://www.w3.org/Graphics/SVG/1.1/DTD/svg11.dtd">
<svg version="1.1" id="Layer_1" xmlns="http://www.w3.org/2000/svg" xmlns:xlink="http://www.w3.org/1999/xlink" x="0px" y="0px"
	 width="31.984px" height="44px" viewBox="0 0 31.984 44" style="enable-background:new 0 0 31.984 44;" xml:space="preserve">
<g id="_x31_093-lightning-bolt-2-toolbar_x40_2x.png">
	<g>
		<path d="M31.984,18.994c0-0.555-0.443-1.006-0.99-1.006c-0.018,0-0.032,0.011-0.05,0.012H18.38L23.94,1.316l-0.02-0.007
			c0.033-0.097,0.06-0.196,0.06-0.304C23.98,0.45,23.537,0,22.99,0c-0.29,0-0.545,0.132-0.726,0.333l-0.01-0.009l-22,24l0.01,0.009
			C0.104,24.512,0,24.745,0,25.006c0,0.556,0.443,1.006,0.99,1.006c0.018,0,0.032-0.011,0.05-0.012h12.564L8.044,42.684l0.02,0.007
			c-0.033,0.097-0.06,0.196-0.06,0.304C8.004,43.55,8.447,44,8.994,44c0.29,0,0.545-0.131,0.726-0.333l0.01,0.009l22-24l-0.01-0.009
			C31.881,19.488,31.984,19.256,31.984,18.994z M11.424,38.867l4.517-13.551l-0.019-0.007c0.033-0.101,0.062-0.203,0.062-0.315
			c0-0.556-0.443-1.006-0.99-1.006c-0.02,0-0.036,0.011-0.056,0.012H3.266L20.561,5.133l-4.517,13.551l0.019,0.007
			C16.029,18.791,16,18.894,16,19.006c0,0.556,0.443,1.006,0.99,1.006c0.02,0,0.036-0.011,0.056-0.012h11.673L11.424,38.867z"/>
	</g>
</g>
<g>
</g>
<g>
</g>
<g>
</g>
<g>
</g>
<g>
</g>
<g>
</g>
<g>
</g>
<g>
</g>
<g>
</g>
<g>
</g>
<g>
</g>
<g>
</g>
<g>
</g>
<g>
</g>
<g>
</g>
</svg>
