<?xml version="1.0" encoding="iso-8859-1"?>
<!-- Generator: Adobe Illustrator 16.0.4, SVG Export Plug-In . SVG Version: 6.00 Build 0)  -->
<!DOCTYPE svg PUBLIC "-//W3C//DTD SVG 1.1//EN" "http://www.w3.org/Graphics/SVG/1.1/DTD/svg11.dtd">
<svg version="1.1" id="Layer_1" xmlns="http://www.w3.org/2000/svg" xmlns:xlink="http://www.w3.org/1999/xlink" x="0px" y="0px"
	 width="32px" height="44px" viewBox="0 0 32 44" style="enable-background:new 0 0 32 44;" xml:space="preserve">
<g id="_x39_54-light-bulb-toolbar_x40_2x.png">
	<g>
		<path d="M17,42h-2c-0.553,0-1,0.447-1,1s0.447,1,1,1h2c0.553,0,1-0.447,1-1S17.553,42,17,42z M16,0C7.163,0,0,7.611,0,17
			c0,6.718,3.677,12.508,9,15.269V35c0,0.553,0.447,1,1,1h12c0.553,0,1-0.447,1-1v-2.731c5.323-2.761,9-8.551,9-15.269
			C32,7.611,24.837,0,16,0z M21,30.997V34H11v-3.003C5.741,28.839,2,23.395,2,17C2,8.716,8.268,2,16,2s14,6.716,14,15
			C30,23.395,26.259,28.839,21,30.997z M20,38h-8c-0.553,0-1,0.448-1,1c0,0.553,0.447,1,1,1h8c0.553,0,1-0.447,1-1
			C21,38.448,20.553,38,20,38z"/>
	</g>
</g>
<g>
</g>
<g>
</g>
<g>
</g>
<g>
</g>
<g>
</g>
<g>
</g>
<g>
</g>
<g>
</g>
<g>
</g>
<g>
</g>
<g>
</g>
<g>
</g>
<g>
</g>
<g>
</g>
<g>
</g>
</svg>
