<?xml version="1.0" encoding="iso-8859-1"?>
<!-- Generator: Adobe Illustrator 16.0.4, SVG Export Plug-In . SVG Version: 6.00 Build 0)  -->
<!DOCTYPE svg PUBLIC "-//W3C//DTD SVG 1.1//EN" "http://www.w3.org/Graphics/SVG/1.1/DTD/svg11.dtd">
<svg version="1.1" id="Layer_1" xmlns="http://www.w3.org/2000/svg" xmlns:xlink="http://www.w3.org/1999/xlink" x="0px" y="0px"
	 width="44.004px" height="20.004px" viewBox="0 0 44.004 20.004" style="enable-background:new 0 0 44.004 20.004;"
	 xml:space="preserve">
<g id="_x38_58-line-chart-toolbar_x40_2x.png">
	<g>
		<path d="M41.002,0C39.344,0,38,1.344,38,3.002c0,0.04,0.01,0.077,0.012,0.116l-4.767,1.906C32.694,4.401,31.898,4,31.002,4
			C29.344,4,28,5.344,28,7.002c0,0.462,0.112,0.895,0.299,1.285l-6.012,6.012C21.896,14.112,21.464,14,21.002,14
			c-0.183,0-0.36,0.022-0.534,0.054l-5.2-9.102c0.453-0.525,0.736-1.201,0.736-1.95C16.004,1.344,14.66,0,13.002,0
			S10,1.344,10,3.002c0,0.462,0.112,0.894,0.299,1.285l-6.012,6.012C3.896,10.112,3.464,10,3.002,10C1.344,10,0,11.344,0,13.002
			s1.344,3.002,3.002,3.002s3.002-1.344,3.002-3.002c0-0.464-0.113-0.898-0.302-1.29l6.01-6.01c0.392,0.188,0.826,0.302,1.29,0.302
			c0.183,0,0.359-0.022,0.532-0.054l5.201,9.103C18.283,15.579,18,16.254,18,17.002c0,1.658,1.344,3.002,3.002,3.002
			s3.002-1.344,3.002-3.002c0-0.464-0.114-0.898-0.302-1.29l6.01-6.01c0.392,0.188,0.826,0.302,1.29,0.302
			c1.658,0,3.002-1.344,3.002-3.002c0-0.042-0.011-0.08-0.012-0.122l4.763-1.905c0.551,0.626,1.348,1.029,2.247,1.029
			c1.658,0,3.002-1.344,3.002-3.002S42.66,0,41.002,0z M3.001,13.997c-0.55,0-0.995-0.446-0.995-0.996s0.445-0.995,0.995-0.995
			s0.996,0.445,0.996,0.995S3.551,13.997,3.001,13.997z M13.001,3.997c-0.55,0-0.995-0.446-0.995-0.996s0.445-0.995,0.995-0.995
			s0.996,0.445,0.996,0.995S13.551,3.997,13.001,3.997z M21.001,17.997c-0.55,0-0.995-0.446-0.995-0.996s0.445-0.995,0.995-0.995
			s0.996,0.445,0.996,0.995S21.551,17.997,21.001,17.997z M31.001,7.997c-0.55,0-0.995-0.446-0.995-0.996s0.445-0.995,0.995-0.995
			s0.996,0.445,0.996,0.995S31.551,7.997,31.001,7.997z M41.001,3.997c-0.55,0-0.995-0.446-0.995-0.996s0.445-0.995,0.995-0.995
			s0.996,0.445,0.996,0.995S41.551,3.997,41.001,3.997z"/>
	</g>
</g>
<g>
</g>
<g>
</g>
<g>
</g>
<g>
</g>
<g>
</g>
<g>
</g>
<g>
</g>
<g>
</g>
<g>
</g>
<g>
</g>
<g>
</g>
<g>
</g>
<g>
</g>
<g>
</g>
<g>
</g>
</svg>
