<?xml version="1.0" encoding="iso-8859-1"?>
<!-- Generator: Adobe Illustrator 16.0.4, SVG Export Plug-In . SVG Version: 6.00 Build 0)  -->
<!DOCTYPE svg PUBLIC "-//W3C//DTD SVG 1.1//EN" "http://www.w3.org/Graphics/SVG/1.1/DTD/svg11.dtd">
<svg version="1.1" id="Layer_1" xmlns="http://www.w3.org/2000/svg" xmlns:xlink="http://www.w3.org/1999/xlink" x="0px" y="0px"
	 width="56px" height="28px" viewBox="0 0 56 28" style="enable-background:new 0 0 56 28;" xml:space="preserve">
<g id="_x38_58-line-chart_x40_2x.png">
	<g>
		<path d="M52,0c-2.209,0-4,1.791-4,4c0,0.376,0.068,0.733,0.166,1.078L42.84,8.186C42.115,7.454,41.111,7,40,7
			c-2.209,0-4,1.791-4,4c0,0.811,0.245,1.562,0.659,2.193l-6.773,7.3C29.321,20.188,28.686,20,28,20c-0.498,0-0.97,0.103-1.41,0.269
			L19.04,9.572C19.63,8.875,20,7.985,20,7c0-2.209-1.791-4-4-4s-4,1.791-4,4c0,0.679,0.185,1.308,0.482,1.867l-6.308,5.782
			C5.548,14.242,4.804,14,4,14c-2.209,0-4,1.791-4,4s1.791,4,4,4s4-1.791,4-4c0-0.678-0.185-1.308-0.482-1.867l6.308-5.782
			C14.452,10.758,15.197,11,16,11c0.498,0,0.97-0.103,1.41-0.269l7.55,10.696C24.37,22.125,24,23.015,24,24c0,2.209,1.791,4,4,4
			s4-1.791,4-4c0-0.798-0.24-1.538-0.643-2.162l6.763-7.327C38.683,14.812,39.316,15,40,15c2.209,0,4-1.791,4-4
			c0-0.376-0.068-0.733-0.166-1.079l5.326-3.106C49.885,7.546,50.889,8,52,8c2.209,0,4-1.791,4-4S54.209,0,52,0z M4,20
			c-1.104,0-2-0.896-2-2s0.896-2,2-2s2,0.896,2,2S5.104,20,4,20z M16,9c-1.104,0-2-0.896-2-2s0.896-2,2-2s2,0.896,2,2S17.104,9,16,9
			z M28,26c-1.104,0-2-0.896-2-2s0.896-2,2-2s2,0.896,2,2S29.104,26,28,26z M40,13c-1.104,0-2-0.896-2-2s0.896-2,2-2s2,0.896,2,2
			S41.104,13,40,13z M52,6c-1.104,0-2-0.896-2-2s0.896-2,2-2s2,0.896,2,2S53.104,6,52,6z"/>
	</g>
</g>
<g>
</g>
<g>
</g>
<g>
</g>
<g>
</g>
<g>
</g>
<g>
</g>
<g>
</g>
<g>
</g>
<g>
</g>
<g>
</g>
<g>
</g>
<g>
</g>
<g>
</g>
<g>
</g>
<g>
</g>
</svg>
