<?xml version="1.0" encoding="iso-8859-1"?>
<!-- Generator: Adobe Illustrator 16.0.4, SVG Export Plug-In . SVG Version: 6.00 Build 0)  -->
<!DOCTYPE svg PUBLIC "-//W3C//DTD SVG 1.1//EN" "http://www.w3.org/Graphics/SVG/1.1/DTD/svg11.dtd">
<svg version="1.1" id="Layer_1" xmlns="http://www.w3.org/2000/svg" xmlns:xlink="http://www.w3.org/1999/xlink" x="0px" y="0px"
	 width="43.97px" height="43.959px" viewBox="0 0 43.97 43.959" style="enable-background:new 0 0 43.97 43.959;"
	 xml:space="preserve">
<g id="_x38_43-link-toolbar_x40_2x.png">
	<g>
		<path d="M40.881,3.089c-4.116-4.117-10.79-4.118-14.905-0.003l-8.959,8.959c-0.054,0.054-0.099,0.112-0.15,0.167
			c1.017-0.217,2.054-0.303,3.089-0.266l7.44-7.44c3.331-3.332,8.733-3.331,12.066,0.002c3.332,3.332,3.333,8.734,0.002,12.065
			l-8.959,8.959c-3.331,3.332-8.733,3.33-12.066-0.002c-1.796-1.796-2.615-4.193-2.476-6.544c-0.38,0.246-0.741,0.532-1.074,0.865
			l-0.877,0.877c0.267,2.273,1.264,4.478,3.008,6.221c4.116,4.117,10.79,4.118,14.905,0.003l8.959-8.959
			C45,13.878,44.998,7.205,40.881,3.089z M16.574,39.454c-3.332,3.331-8.733,3.33-12.066-0.003
			c-3.332-3.332-3.333-8.734-0.002-12.065l8.959-8.959c3.331-3.331,8.733-3.33,12.066,0.002c1.796,1.796,2.615,4.193,2.476,6.544
			c0.38-0.246,0.741-0.532,1.074-0.865l0.877-0.877c-0.267-2.272-1.264-4.477-3.008-6.221c-4.116-4.117-10.79-4.118-14.905-0.003
			l-8.959,8.959c-4.115,4.115-4.113,10.788,0.003,14.905c4.116,4.116,10.79,4.117,14.905,0.002l8.959-8.959
			c0.054-0.054,0.099-0.112,0.15-0.167c-1.017,0.217-2.054,0.303-3.089,0.266L16.574,39.454z"/>
	</g>
</g>
<g>
</g>
<g>
</g>
<g>
</g>
<g>
</g>
<g>
</g>
<g>
</g>
<g>
</g>
<g>
</g>
<g>
</g>
<g>
</g>
<g>
</g>
<g>
</g>
<g>
</g>
<g>
</g>
<g>
</g>
</svg>
