<?xml version="1.0" encoding="iso-8859-1"?>
<!-- Generator: Adobe Illustrator 16.0.4, SVG Export Plug-In . SVG Version: 6.00 Build 0)  -->
<!DOCTYPE svg PUBLIC "-//W3C//DTD SVG 1.1//EN" "http://www.w3.org/Graphics/SVG/1.1/DTD/svg11.dtd">
<svg version="1.1" id="Layer_1" xmlns="http://www.w3.org/2000/svg" xmlns:xlink="http://www.w3.org/1999/xlink" x="0px" y="0px"
	 width="44px" height="44px" viewBox="0 0 44 44" style="enable-background:new 0 0 44 44;" xml:space="preserve">
<g id="_x31_270-linkedin_x40_2x.png">
	<g>
		<path d="M22,0C9.85,0,0,9.85,0,22s9.85,22,22,22s22-9.85,22-22S34.15,0,22,0z M22,42C10.954,42,2,33.046,2,22S10.954,2,22,2
			s20,8.954,20,20S33.046,42,22,42z M30,10H14c-2.209,0-4,1.791-4,4v16c0,2.209,1.791,4,4,4h16c2.209,0,4-1.791,4-4V14
			C34,11.791,32.209,10,30,10z M17.997,28.005h-3.002v-9.007h3.002V28.005z M16.496,17.997c-0.829,0-1.501-0.672-1.501-1.501
			s0.672-1.501,1.501-1.501s1.501,0.672,1.501,1.501S17.325,17.997,16.496,17.997z M29.005,28.005h-3.002v-5.004
			c0-1.114-0.332-1.666-1.366-1.666c-1.68,0-1.636,1.666-1.636,1.666v5.004h-3.002v-9.007h3.002v1.501c0,0,0.559-1.501,3.002-1.501
			c1.881,0,3.002,1.457,3.002,4.003V28.005z"/>
	</g>
</g>
<g>
</g>
<g>
</g>
<g>
</g>
<g>
</g>
<g>
</g>
<g>
</g>
<g>
</g>
<g>
</g>
<g>
</g>
<g>
</g>
<g>
</g>
<g>
</g>
<g>
</g>
<g>
</g>
<g>
</g>
</svg>
