<?xml version="1.0" encoding="iso-8859-1"?>
<!-- Generator: Adobe Illustrator 16.0.4, SVG Export Plug-In . SVG Version: 6.00 Build 0)  -->
<!DOCTYPE svg PUBLIC "-//W3C//DTD SVG 1.1//EN" "http://www.w3.org/Graphics/SVG/1.1/DTD/svg11.dtd">
<svg version="1.1" id="Layer_1" xmlns="http://www.w3.org/2000/svg" xmlns:xlink="http://www.w3.org/1999/xlink" x="0px" y="0px"
	 width="55.98px" height="55.98px" viewBox="0 0 55.98 55.98" style="enable-background:new 0 0 55.98 55.98;" xml:space="preserve"
	>
<g id="_x38_43-link_x40_2x.png">
	<g>
		<path d="M52.153,3.827c-5.103-5.103-13.375-5.103-18.478,0L22.305,15.198c-0.533,0.533-0.99,1.112-1.412,1.708
			c0.974-0.234,1.962-0.372,2.957-0.41L35.097,5.248c4.317-4.316,11.317-4.316,15.635,0c4.317,4.318,4.317,11.318,0,15.636
			l-11.37,11.37c-4.317,4.318-11.317,4.318-15.635,0c-2.426-2.425-3.488-5.696-3.188-8.863c-0.727,0.348-1.414,0.797-2.046,1.349
			c0.075,3.242,1.338,6.462,3.812,8.937c5.103,5.103,13.375,5.103,18.478,0l11.371-11.371C57.256,17.202,57.256,8.93,52.153,3.827z
			 M20.884,50.732c-4.317,4.316-11.317,4.316-15.636,0c-4.317-4.318-4.317-11.318,0-15.636l11.371-11.37
			c4.317-4.317,11.317-4.317,15.635,0c2.426,2.425,3.488,5.696,3.188,8.863c0.727-0.347,1.414-0.796,2.046-1.349
			c-0.075-3.242-1.339-6.462-3.812-8.937c-5.103-5.103-13.375-5.103-18.478,0L3.827,33.676c-5.103,5.103-5.103,13.375,0,18.478
			s13.375,5.103,18.478,0l11.371-11.371c0.533-0.533,0.99-1.112,1.412-1.708c-0.974,0.234-1.962,0.372-2.957,0.41L20.884,50.732z"/>
	</g>
</g>
<g>
</g>
<g>
</g>
<g>
</g>
<g>
</g>
<g>
</g>
<g>
</g>
<g>
</g>
<g>
</g>
<g>
</g>
<g>
</g>
<g>
</g>
<g>
</g>
<g>
</g>
<g>
</g>
<g>
</g>
</svg>
