<?xml version="1.0" encoding="UTF-8" standalone="no"?>
<svg width="58px" height="58px" viewBox="0 0 58 58" version="1.1" xmlns="http://www.w3.org/2000/svg" xmlns:xlink="http://www.w3.org/1999/xlink" xmlns:sketch="http://www.bohemiancoding.com/sketch/ns">
    <!-- Generator: Sketch 3.0.4 (8053) - http://www.bohemiancoding.com/sketch -->
    <title>1270-linkedin</title>
    <desc>Created with Sketch.</desc>
    <defs></defs>
    <g id="Page-1" stroke="none" stroke-width="1" fill="none" fill-rule="evenodd" sketch:type="MSPage">
        <g id="Glyphish-8-Icons" sketch:type="MSArtboardGroup" transform="translate(-884.000000, -1555.000000)" fill="#000000">
            <g id="1270-linkedin" sketch:type="MSLayerGroup" transform="translate(884.036996, 1555.860499)">
                <g id="_x31_270-linkedin_x40_2x.png" sketch:type="MSShapeGroup">
                    <path d="M40,12 L16,12 C13.791,12 12,13.791 12,16 L12,40 C12,42.209 13.791,44 16,44 L40,44 C42.209,44 44,42.209 44,40 L44,16 C44,13.791 42.209,12 40,12 L40,12 Z M22.667,36 L18.667,36 L18.667,24 L22.667,24 L22.667,36 L22.667,36 Z M20.667,22.667 C19.563,22.667 18.667,21.771 18.667,20.667 C18.667,19.563 19.563,18.667 20.667,18.667 C21.771,18.667 22.667,19.563 22.667,20.667 C22.667,21.771 21.771,22.667 20.667,22.667 L20.667,22.667 Z M37.333,36 L33.333,36 L33.333,29.334 C33.333,27.85 32.892,27.114 31.514,27.114 C29.276,27.114 29.333,29.334 29.333,29.334 L29.333,36 L25.333,36 L25.333,24 L29.333,24 L29.333,26 C29.333,26 30.078,24 33.333,24 C35.839,24 37.333,25.941 37.333,29.334 L37.333,36 L37.333,36 Z M28,0 C12.536,0 0,12.536 0,28 C0,43.464 12.536,56 28,56 C43.464,56 56,43.464 56,28 C56,12.536 43.464,0 28,0 L28,0 Z M28,54 C13.641,54 2,42.359 2,28 C2,13.641 13.641,2 28,2 C42.359,2 54,13.641 54,28 C54,42.359 42.359,54 28,54 L28,54 Z" id="Shape"></path>
                </g>
            </g>
        </g>
    </g>
</svg>