<?xml version="1.0" encoding="iso-8859-1"?>
<!-- Generator: Adobe Illustrator 16.0.4, SVG Export Plug-In . SVG Version: 6.00 Build 0)  -->
<!DOCTYPE svg PUBLIC "-//W3C//DTD SVG 1.1//EN" "http://www.w3.org/Graphics/SVG/1.1/DTD/svg11.dtd">
<svg version="1.1" id="Layer_1" xmlns="http://www.w3.org/2000/svg" xmlns:xlink="http://www.w3.org/1999/xlink" x="0px" y="0px"
	 width="39.989px" height="32px" viewBox="0 0 39.989 32" style="enable-background:new 0 0 39.989 32;" xml:space="preserve">
<g id="_x38_54-list-toolbar_x40_2x.png">
	<g>
		<path d="M2,19c-1.104,0-2,0.896-2,2s0.896,2,2,2s2-0.896,2-2S3.104,19,2,19z M9,3h29.99c0.552,0,0.999-0.447,0.999-1
			s-0.447-1-0.999-1H9C8.447,1,8,1.447,8,2S8.447,3,9,3z M2,28c-1.104,0-2,0.896-2,2s0.896,2,2,2s2-0.896,2-2S3.104,28,2,28z M2,10
			c-1.104,0-2,0.896-2,2s0.896,2,2,2s2-0.896,2-2S3.104,10,2,10z M2,0C0.896,0,0,0.896,0,2s0.896,2,2,2s2-0.896,2-2S3.104,0,2,0z
			 M38.99,11H9c-0.553,0-1,0.447-1,1s0.447,1,1,1h29.99c0.552,0,0.999-0.447,0.999-1S39.542,11,38.99,11z M38.99,20H9
			c-0.553,0-1,0.447-1,1s0.447,1,1,1h29.99c0.552,0,0.999-0.447,0.999-1S39.542,20,38.99,20z M38.99,29H9c-0.553,0-1,0.447-1,1
			s0.447,1,1,1h29.99c0.552,0,0.999-0.447,0.999-1S39.542,29,38.99,29z"/>
	</g>
</g>
<g>
</g>
<g>
</g>
<g>
</g>
<g>
</g>
<g>
</g>
<g>
</g>
<g>
</g>
<g>
</g>
<g>
</g>
<g>
</g>
<g>
</g>
<g>
</g>
<g>
</g>
<g>
</g>
<g>
</g>
</svg>
