<?xml version="1.0" encoding="iso-8859-1"?>
<!-- Generator: Adobe Illustrator 16.0.4, SVG Export Plug-In . SVG Version: 6.00 Build 0)  -->
<!DOCTYPE svg PUBLIC "-//W3C//DTD SVG 1.1//EN" "http://www.w3.org/Graphics/SVG/1.1/DTD/svg11.dtd">
<svg version="1.1" id="Layer_1" xmlns="http://www.w3.org/2000/svg" xmlns:xlink="http://www.w3.org/1999/xlink" x="0px" y="0px"
	 width="56px" height="44px" viewBox="0 0 56 44" style="enable-background:new 0 0 56 44;" xml:space="preserve">
<g id="_x31_099-list-1_x40_2x.png">
	<g>
		<path d="M51,34H5c-2.762,0-5,2.238-5,5s2.238,5,5,5h46c2.762,0,5-2.238,5-5S53.762,34,51,34z M51,42H5c-1.657,0-3-1.343-3-3
			s1.343-3,3-3h46c1.657,0,3,1.343,3,3S52.657,42,51,42z M51,17H5c-2.762,0-5,2.238-5,5s2.238,5,5,5h46c2.762,0,5-2.238,5-5
			S53.762,17,51,17z M51,25H5c-1.657,0-3-1.343-3-3c0-1.656,1.343-3,3-3h46c1.657,0,3,1.344,3,3C54,23.657,52.657,25,51,25z M5,10
			h46c2.762,0,5-2.238,5-5s-2.238-5-5-5H5C2.238,0,0,2.238,0,5S2.238,10,5,10z M5,2h46c1.657,0,3,1.344,3,3c0,1.657-1.343,3-3,3H5
			C3.343,8,2,6.657,2,5C2,3.344,3.343,2,5,2z"/>
	</g>
</g>
<g>
</g>
<g>
</g>
<g>
</g>
<g>
</g>
<g>
</g>
<g>
</g>
<g>
</g>
<g>
</g>
<g>
</g>
<g>
</g>
<g>
</g>
<g>
</g>
<g>
</g>
<g>
</g>
<g>
</g>
</svg>
