<?xml version="1.0" encoding="iso-8859-1"?>
<!-- Generator: Adobe Illustrator 16.0.4, SVG Export Plug-In . SVG Version: 6.00 Build 0)  -->
<!DOCTYPE svg PUBLIC "-//W3C//DTD SVG 1.1//EN" "http://www.w3.org/Graphics/SVG/1.1/DTD/svg11.dtd">
<svg version="1.1" id="Layer_1" xmlns="http://www.w3.org/2000/svg" xmlns:xlink="http://www.w3.org/1999/xlink" x="0px" y="0px"
	 width="44px" height="36px" viewBox="0 0 44 36" style="enable-background:new 0 0 44 36;" xml:space="preserve">
<g id="_x31_099-list-1-toolbar_x40_2x.png">
	<g>
		<path d="M40,28H4c-2.209,0-4,1.791-4,4s1.791,4,4,4h36c2.209,0,4-1.791,4-4S42.209,28,40,28z M40,34H4c-1.104,0-2-0.896-2-2
			s0.896-2,2-2h36c1.104,0,2,0.896,2,2S41.104,34,40,34z M40,14H4c-2.209,0-4,1.791-4,4s1.791,4,4,4h36c2.209,0,4-1.791,4-4
			S42.209,14,40,14z M40,20H4c-1.104,0-2-0.896-2-2s0.896-2,2-2h36c1.104,0,2,0.896,2,2S41.104,20,40,20z M4,8h36
			c2.209,0,4-1.791,4-4s-1.791-4-4-4H4C1.791,0,0,1.791,0,4S1.791,8,4,8z M4,2h36c1.104,0,2,0.896,2,2s-0.896,2-2,2H4
			C2.896,6,2,5.104,2,4S2.896,2,4,2z"/>
	</g>
</g>
<g>
</g>
<g>
</g>
<g>
</g>
<g>
</g>
<g>
</g>
<g>
</g>
<g>
</g>
<g>
</g>
<g>
</g>
<g>
</g>
<g>
</g>
<g>
</g>
<g>
</g>
<g>
</g>
<g>
</g>
</svg>
