<?xml version="1.0" encoding="iso-8859-1"?>
<!-- Generator: Adobe Illustrator 16.0.4, SVG Export Plug-In . SVG Version: 6.00 Build 0)  -->
<!DOCTYPE svg PUBLIC "-//W3C//DTD SVG 1.1//EN" "http://www.w3.org/Graphics/SVG/1.1/DTD/svg11.dtd">
<svg version="1.1" id="Layer_1" xmlns="http://www.w3.org/2000/svg" xmlns:xlink="http://www.w3.org/1999/xlink" x="0px" y="0px"
	 width="56px" height="44px" viewBox="0 0 56 44" style="enable-background:new 0 0 56 44;" xml:space="preserve">
<g id="_x31_100-list-2_x40_2x.png">
	<g>
		<path d="M5,34c-2.762,0-5,2.238-5,5s2.238,5,5,5s5-2.238,5-5S7.762,34,5,34z M5,42c-1.657,0-3-1.343-3-3s1.343-3,3-3s3,1.343,3,3
			S6.657,42,5,42z M19,10h32c2.762,0,5-2.238,5-5s-2.238-5-5-5H19c-2.762,0-5,2.238-5,5S16.238,10,19,10z M19,2h32
			c1.657,0,3,1.344,3,3c0,1.657-1.343,3-3,3H19c-1.657,0-3-1.343-3-3C16,3.344,17.343,2,19,2z M5,17c-2.762,0-5,2.238-5,5
			s2.238,5,5,5s5-2.238,5-5S7.762,17,5,17z M5,25c-1.657,0-3-1.343-3-3c0-1.656,1.343-3,3-3s3,1.344,3,3C8,23.657,6.657,25,5,25z
			 M51,17H19c-2.762,0-5,2.238-5,5s2.238,5,5,5h32c2.762,0,5-2.238,5-5S53.762,17,51,17z M51,25H19c-1.657,0-3-1.343-3-3
			c0-1.656,1.343-3,3-3h32c1.657,0,3,1.344,3,3C54,23.657,52.657,25,51,25z M5,0C2.238,0,0,2.238,0,5s2.238,5,5,5s5-2.238,5-5
			S7.762,0,5,0z M5,8C3.343,8,2,6.657,2,5c0-1.656,1.343-3,3-3s3,1.344,3,3C8,6.657,6.657,8,5,8z M51,34H19c-2.762,0-5,2.238-5,5
			s2.238,5,5,5h32c2.762,0,5-2.238,5-5S53.762,34,51,34z M51,42H19c-1.657,0-3-1.343-3-3s1.343-3,3-3h32c1.657,0,3,1.343,3,3
			S52.657,42,51,42z"/>
	</g>
</g>
<g>
</g>
<g>
</g>
<g>
</g>
<g>
</g>
<g>
</g>
<g>
</g>
<g>
</g>
<g>
</g>
<g>
</g>
<g>
</g>
<g>
</g>
<g>
</g>
<g>
</g>
<g>
</g>
<g>
</g>
</svg>
