<?xml version="1.0" encoding="iso-8859-1"?>
<!-- Generator: Adobe Illustrator 16.0.4, SVG Export Plug-In . SVG Version: 6.00 Build 0)  -->
<!DOCTYPE svg PUBLIC "-//W3C//DTD SVG 1.1//EN" "http://www.w3.org/Graphics/SVG/1.1/DTD/svg11.dtd">
<svg version="1.1" id="Layer_1" xmlns="http://www.w3.org/2000/svg" xmlns:xlink="http://www.w3.org/1999/xlink" x="0px" y="0px"
	 width="44px" height="36px" viewBox="0 0 44 36" style="enable-background:new 0 0 44 36;" xml:space="preserve">
<g id="_x31_100-list-2-toolbar_x40_2x.png">
	<g>
		<path d="M16,8h24c2.209,0,4-1.791,4-4s-1.791-4-4-4H16c-2.209,0-4,1.791-4,4S13.791,8,16,8z M16,2h24c1.104,0,2,0.896,2,2
			s-0.896,2-2,2H16c-1.104,0-2-0.896-2-2S14.896,2,16,2z M4,28c-2.209,0-4,1.791-4,4s1.791,4,4,4s4-1.791,4-4S6.209,28,4,28z M4,34
			c-1.104,0-2-0.896-2-2s0.896-2,2-2s2,0.896,2,2S5.104,34,4,34z M4,0C1.791,0,0,1.791,0,4s1.791,4,4,4s4-1.791,4-4S6.209,0,4,0z
			 M4,6C2.896,6,2,5.104,2,4s0.896-2,2-2s2,0.896,2,2S5.104,6,4,6z M4,14c-2.209,0-4,1.791-4,4s1.791,4,4,4s4-1.791,4-4
			S6.209,14,4,14z M4,20c-1.104,0-2-0.896-2-2s0.896-2,2-2s2,0.896,2,2S5.104,20,4,20z M40,14H16c-2.209,0-4,1.791-4,4s1.791,4,4,4
			h24c2.209,0,4-1.791,4-4S42.209,14,40,14z M40,20H16c-1.104,0-2-0.896-2-2s0.896-2,2-2h24c1.104,0,2,0.896,2,2S41.104,20,40,20z
			 M40,28H16c-2.209,0-4,1.791-4,4s1.791,4,4,4h24c2.209,0,4-1.791,4-4S42.209,28,40,28z M40,34H16c-1.104,0-2-0.896-2-2
			s0.896-2,2-2h24c1.104,0,2,0.896,2,2S41.104,34,40,34z"/>
	</g>
</g>
<g>
</g>
<g>
</g>
<g>
</g>
<g>
</g>
<g>
</g>
<g>
</g>
<g>
</g>
<g>
</g>
<g>
</g>
<g>
</g>
<g>
</g>
<g>
</g>
<g>
</g>
<g>
</g>
<g>
</g>
</svg>
