<?xml version="1.0" encoding="iso-8859-1"?>
<!-- Generator: Adobe Illustrator 16.0.4, SVG Export Plug-In . SVG Version: 6.00 Build 0)  -->
<!DOCTYPE svg PUBLIC "-//W3C//DTD SVG 1.1//EN" "http://www.w3.org/Graphics/SVG/1.1/DTD/svg11.dtd">
<svg version="1.1" id="Layer_1" xmlns="http://www.w3.org/2000/svg" xmlns:xlink="http://www.w3.org/1999/xlink" x="0px" y="0px"
	 width="38px" height="56px" viewBox="0 0 38 56" style="enable-background:new 0 0 38 56;" xml:space="preserve">
<g id="_x37_22-location-pin_x40_2x.png">
	<g>
		<path d="M19,0C8.507,0,0,8.507,0,19c0,16,19,37,19,37s19-21,19-37C38,8.507,29.493,0,19,0z M2,19C2,9.611,9.611,2,19,2
			s17,7.611,17,17c0,14-17,34-17,34S2,33,2,19z M19,10c-4.971,0-9,4.029-9,9s4.029,9,9,9s9-4.029,9-9S23.971,10,19,10z M19,26
			c-3.866,0-7-3.134-7-7s3.134-7,7-7s7,3.134,7,7S22.866,26,19,26z"/>
	</g>
</g>
<g>
</g>
<g>
</g>
<g>
</g>
<g>
</g>
<g>
</g>
<g>
</g>
<g>
</g>
<g>
</g>
<g>
</g>
<g>
</g>
<g>
</g>
<g>
</g>
<g>
</g>
<g>
</g>
<g>
</g>
</svg>
