<?xml version="1.0" encoding="iso-8859-1"?>
<!-- Generator: Adobe Illustrator 16.0.4, SVG Export Plug-In . SVG Version: 6.00 Build 0)  -->
<!DOCTYPE svg PUBLIC "-//W3C//DTD SVG 1.1//EN" "http://www.w3.org/Graphics/SVG/1.1/DTD/svg11.dtd">
<svg version="1.1" id="Layer_1" xmlns="http://www.w3.org/2000/svg" xmlns:xlink="http://www.w3.org/1999/xlink" x="0px" y="0px"
	 width="44px" height="44px" viewBox="0 0 44 44" style="enable-background:new 0 0 44 44;" xml:space="preserve">
<g id="_x37_23-location-arrow-toolbar_x40_2x.png">
	<g>
		<path d="M44,1c0-0.552-0.447-1-1-1c-0.146,0-0.277,0.04-0.401,0.097l-0.005-0.01L0.612,18.078
			c-0.001,0.001-0.002,0.001-0.003,0.001l-0.016,0.007l0.001,0.003C0.246,18.245,0,18.593,0,19c0,0.553,0.447,1,1,1h23v23
			c0,0.553,0.447,1,1,1c0.407,0,0.755-0.245,0.911-0.595l0.003,0.001l0.006-0.016c0.001-0.001,0.001-0.002,0.002-0.003L43.914,1.406
			l-0.003-0.001C43.967,1.281,44,1.146,44,1z M26,38.129V19c0-0.552-0.447-1-1-1H5.872L41.097,2.904L26,38.129z"/>
	</g>
</g>
<g>
</g>
<g>
</g>
<g>
</g>
<g>
</g>
<g>
</g>
<g>
</g>
<g>
</g>
<g>
</g>
<g>
</g>
<g>
</g>
<g>
</g>
<g>
</g>
<g>
</g>
<g>
</g>
<g>
</g>
</svg>
