<?xml version="1.0" encoding="iso-8859-1"?>
<!-- Generator: Adobe Illustrator 16.0.4, SVG Export Plug-In . SVG Version: 6.00 Build 0)  -->
<!DOCTYPE svg PUBLIC "-//W3C//DTD SVG 1.1//EN" "http://www.w3.org/Graphics/SVG/1.1/DTD/svg11.dtd">
<svg version="1.1" id="Layer_1" xmlns="http://www.w3.org/2000/svg" xmlns:xlink="http://www.w3.org/1999/xlink" x="0px" y="0px"
	 width="28px" height="44px" viewBox="0 0 28 44" style="enable-background:new 0 0 28 44;" xml:space="preserve">
<g id="_x37_22-location-pin-toolbar_x40_2x.png">
	<g>
		<path d="M14,0C6.268,0,0,6.268,0,14c0,12,14,30,14,30s14-18,14-30C28,6.268,21.732,0,14,0z M2,14C2,7.373,7.373,2,14,2
			s12,5.373,12,12c0,10-12,26.833-12,26.833S2,24,2,14z M13.969,8.014c-3.872,0-7.012,3.131-7.012,6.993S10.097,22,13.969,22
			s7.012-3.131,7.012-6.993S17.841,8.014,13.969,8.014z M13.969,19.992c-2.759,0-4.995-2.238-4.995-5s2.236-5,4.995-5
			s4.995,2.238,4.995,5S16.728,19.992,13.969,19.992z"/>
	</g>
</g>
<g>
</g>
<g>
</g>
<g>
</g>
<g>
</g>
<g>
</g>
<g>
</g>
<g>
</g>
<g>
</g>
<g>
</g>
<g>
</g>
<g>
</g>
<g>
</g>
<g>
</g>
<g>
</g>
<g>
</g>
</svg>
