<?xml version="1.0" encoding="iso-8859-1"?>
<!-- Generator: Adobe Illustrator 16.0.4, SVG Export Plug-In . SVG Version: 6.00 Build 0)  -->
<!DOCTYPE svg PUBLIC "-//W3C//DTD SVG 1.1//EN" "http://www.w3.org/Graphics/SVG/1.1/DTD/svg11.dtd">
<svg version="1.1" id="Layer_1" xmlns="http://www.w3.org/2000/svg" xmlns:xlink="http://www.w3.org/1999/xlink" x="0px" y="0px"
	 width="56px" height="56px" viewBox="0 0 56 56" style="enable-background:new 0 0 56 56;" xml:space="preserve">
<g id="_x37_23-location-arrow_x40_2x.png">
	<g>
		<path d="M56,1c0-0.552-0.447-1-1-1c-0.146,0-0.277,0.04-0.401,0.097l-0.005-0.011L0.611,24.079c-0.001,0-0.001,0-0.001,0
			l-0.017,0.007l0.001,0.003C0.246,24.245,0,24.593,0,25c0,0.553,0.447,1,1,1h29v29c0,0.553,0.447,1,1,1
			c0.407,0,0.755-0.245,0.911-0.595l0.003,0.001l0.007-0.017c0,0,0,0,0.001-0.001L55.914,1.406l-0.003-0.001
			C55.967,1.281,56,1.146,56,1z M32,50.288V25c0-0.552-0.447-1-1-1H5.713L53.03,2.97L32,50.288z"/>
	</g>
</g>
<g>
</g>
<g>
</g>
<g>
</g>
<g>
</g>
<g>
</g>
<g>
</g>
<g>
</g>
<g>
</g>
<g>
</g>
<g>
</g>
<g>
</g>
<g>
</g>
<g>
</g>
<g>
</g>
<g>
</g>
</svg>
