<?xml version="1.0" encoding="iso-8859-1"?>
<!-- Generator: Adobe Illustrator 16.0.4, SVG Export Plug-In . SVG Version: 6.00 Build 0)  -->
<!DOCTYPE svg PUBLIC "-//W3C//DTD SVG 1.1//EN" "http://www.w3.org/Graphics/SVG/1.1/DTD/svg11.dtd">
<svg version="1.1" id="Layer_1" xmlns="http://www.w3.org/2000/svg" xmlns:xlink="http://www.w3.org/1999/xlink" x="0px" y="0px"
	 width="56px" height="56px" viewBox="0 0 56 56" style="enable-background:new 0 0 56 56;" xml:space="preserve">
<g id="_x38_45-location-target_x40_2x.png">
	<g>
		<path d="M28,22c-3.313,0-6,2.687-6,6c0,3.314,2.687,6,6,6s6-2.686,6-6C34,24.687,31.313,22,28,22z M28,32c-2.209,0-4-1.791-4-4
			s1.791-4,4-4s4,1.791,4,4S30.209,32,28,32z M55,27h-3.051C51.436,14.547,41.452,4.564,29,4.049V1c0-0.553-0.447-1-1-1
			s-1,0.447-1,1v3.049C14.548,4.564,4.564,14.547,4.051,27H1c-0.553,0-1,0.448-1,1c0,0.553,0.447,1,1,1h3.051
			C4.565,41.453,14.548,51.436,27,51.951V55c0,0.553,0.447,1,1,1s1-0.447,1-1v-3.049C41.452,51.436,51.436,41.453,51.949,29H55
			c0.553,0,1-0.447,1-1C56,27.448,55.553,27,55,27z M47,29h2.949C49.438,40.35,40.348,49.439,29,49.951V47c0-0.552-0.447-1-1-1
			s-1,0.448-1,1v2.951C15.652,49.439,6.562,40.35,6.051,29H9c0.553,0,1-0.447,1-1c0-0.552-0.447-1-1-1H6.051
			C6.562,15.651,15.652,6.561,27,6.049V9c0,0.553,0.447,1,1,1s1-0.447,1-1V6.049C40.348,6.561,49.438,15.651,49.949,27H47
			c-0.553,0-1,0.448-1,1C46,28.553,46.447,29,47,29z"/>
	</g>
</g>
<g>
</g>
<g>
</g>
<g>
</g>
<g>
</g>
<g>
</g>
<g>
</g>
<g>
</g>
<g>
</g>
<g>
</g>
<g>
</g>
<g>
</g>
<g>
</g>
<g>
</g>
<g>
</g>
<g>
</g>
</svg>
