<?xml version="1.0" encoding="iso-8859-1"?>
<!-- Generator: Adobe Illustrator 16.0.4, SVG Export Plug-In . SVG Version: 6.00 Build 0)  -->
<!DOCTYPE svg PUBLIC "-//W3C//DTD SVG 1.1//EN" "http://www.w3.org/Graphics/SVG/1.1/DTD/svg11.dtd">
<svg version="1.1" id="Layer_1" xmlns="http://www.w3.org/2000/svg" xmlns:xlink="http://www.w3.org/1999/xlink" x="0px" y="0px"
	 width="44px" height="44px" viewBox="0 0 44 44" style="enable-background:new 0 0 44 44;" xml:space="preserve">
<g id="_x37_01-location-toolbar_x40_2x.png_xA0_Clipping_Path_1_">
	<g>
		<path d="M31,13c-0.14,0-0.272,0.029-0.394,0.082v-0.001L9.612,22.078c0,0.001-0.001,0.001-0.002,0.001l-0.004,0.002l0,0.001
			C9.25,22.234,9,22.588,9,23c0,0.553,0.448,1,1,1h11v11c0,0.553,0.448,1,1,1c0.412,0,0.766-0.25,0.918-0.606h0.001l0.002-0.003
			c0-0.001,0-0.002,0.001-0.002l8.997-20.995l-0.009-0.003C31.963,14.27,32,14.141,32,14C32,13.448,31.553,13,31,13z M22,0
			C9.85,0,0,9.85,0,22s9.85,22,22,22s22-9.85,22-22S34.15,0,22,0z M22,41.991c-11.041,0-19.991-8.95-19.991-19.991
			S10.959,2.009,22,2.009S41.991,10.959,41.991,22S33.041,41.991,22,41.991z"/>
	</g>
</g>
<g>
</g>
<g>
</g>
<g>
</g>
<g>
</g>
<g>
</g>
<g>
</g>
<g>
</g>
<g>
</g>
<g>
</g>
<g>
</g>
<g>
</g>
<g>
</g>
<g>
</g>
<g>
</g>
<g>
</g>
</svg>
