<?xml version="1.0" encoding="iso-8859-1"?>
<!-- Generator: Adobe Illustrator 16.0.4, SVG Export Plug-In . SVG Version: 6.00 Build 0)  -->
<!DOCTYPE svg PUBLIC "-//W3C//DTD SVG 1.1//EN" "http://www.w3.org/Graphics/SVG/1.1/DTD/svg11.dtd">
<svg version="1.1" id="Layer_1" xmlns="http://www.w3.org/2000/svg" xmlns:xlink="http://www.w3.org/1999/xlink" x="0px" y="0px"
	 width="56px" height="56px" viewBox="0 0 56 56" style="enable-background:new 0 0 56 56;" xml:space="preserve">
<g id="_x37_01-location_x40_2x.png">
	<g>
		<path d="M39,16c-0.15,0-0.289,0.038-0.417,0.098l-0.002-0.006l-26,12l0.002,0.006C12.241,28.256,12,28.598,12,29
			c0,0.553,0.448,1,1,1h13v13c0,0.553,0.448,1,1,1c0.402,0,0.744-0.24,0.903-0.583l0.005,0.002l12-26l-0.011-0.005
			C39.958,17.287,40,17.15,40,17C40,16.447,39.553,16,39,16z M28,0C12.536,0,0,12.536,0,28s12.536,28,28,28s28-12.536,28-28
			S43.464,0,28,0z M28,54C13.641,54,2,42.359,2,28S13.641,2,28,2s26,11.641,26,26S42.359,54,28,54z"/>
	</g>
</g>
<g>
</g>
<g>
</g>
<g>
</g>
<g>
</g>
<g>
</g>
<g>
</g>
<g>
</g>
<g>
</g>
<g>
</g>
<g>
</g>
<g>
</g>
<g>
</g>
<g>
</g>
<g>
</g>
<g>
</g>
</svg>
