<?xml version="1.0" encoding="iso-8859-1"?>
<!-- Generator: Adobe Illustrator 16.0.4, SVG Export Plug-In . SVG Version: 6.00 Build 0)  -->
<!DOCTYPE svg PUBLIC "-//W3C//DTD SVG 1.1//EN" "http://www.w3.org/Graphics/SVG/1.1/DTD/svg11.dtd">
<svg version="1.1" id="Layer_1" xmlns="http://www.w3.org/2000/svg" xmlns:xlink="http://www.w3.org/1999/xlink" x="0px" y="0px"
	 width="44px" height="44px" viewBox="0 0 44 44" style="enable-background:new 0 0 44 44;" xml:space="preserve">
<g id="_x38_45-location-target-toolbar_x40_2x.png">
	<g>
		<path d="M43,21h-3.051C39.446,11.859,32.139,4.553,23,4.049V1c0-0.553-0.448-1-1-1c-0.553,0-1,0.447-1,1v3.049
			C11.861,4.553,4.554,11.86,4.051,21H1c-0.552,0-1,0.448-1,1c0,0.553,0.448,1,1,1h3.051C4.554,32.141,11.861,39.447,21,39.951V43
			c0,0.553,0.447,1,1,1c0.552,0,1-0.447,1-1v-3.049C32.139,39.447,39.446,32.141,39.949,23H43c0.553,0,1-0.447,1-1
			C44,21.448,43.553,21,43,21z M35,23h2.949C37.451,31.036,31.034,37.453,23,37.952V35c0-0.553-0.448-1-1-1c-0.553,0-1,0.447-1,1
			v2.951C12.965,37.453,6.549,31.036,6.051,23H9c0.553,0,1-0.447,1-1c0-0.552-0.447-1-1-1H6.051C6.549,12.965,12.965,6.547,21,6.049
			V9c0,0.553,0.447,1,1,1c0.552,0,1-0.447,1-1V6.049C31.034,6.547,37.451,12.964,37.949,21H35c-0.552,0-1,0.448-1,1
			C34,22.553,34.448,23,35,23z M22,16c-3.313,0-6,2.687-6,6c0,3.314,2.687,6,6,6s6-2.686,6-6C28,18.687,25.313,16,22,16z M22,26
			c-2.209,0-4-1.791-4-4s1.791-4,4-4s4,1.791,4,4S24.209,26,22,26z"/>
	</g>
</g>
<g>
</g>
<g>
</g>
<g>
</g>
<g>
</g>
<g>
</g>
<g>
</g>
<g>
</g>
<g>
</g>
<g>
</g>
<g>
</g>
<g>
</g>
<g>
</g>
<g>
</g>
<g>
</g>
<g>
</g>
</svg>
