<?xml version="1.0" encoding="iso-8859-1"?>
<!-- Generator: Adobe Illustrator 16.0.4, SVG Export Plug-In . SVG Version: 6.00 Build 0)  -->
<!DOCTYPE svg PUBLIC "-//W3C//DTD SVG 1.1//EN" "http://www.w3.org/Graphics/SVG/1.1/DTD/svg11.dtd">
<svg version="1.1" id="Layer_1" xmlns="http://www.w3.org/2000/svg" xmlns:xlink="http://www.w3.org/1999/xlink" x="0px" y="0px"
	 width="34px" height="44px" viewBox="0 0 34 44" style="enable-background:new 0 0 34 44;" xml:space="preserve">
<g id="_x37_44-locked-toolbar_x40_2x.png">
	<g>
		<path d="M17,25c-1.657,0-3,1.344-3,3c0,1.305,0.838,2.403,2,2.816V34c0,0.553,0.448,1,1,1c0.553,0,1-0.447,1-1v-3.184
			c1.162-0.413,2-1.512,2-2.816C20,26.344,18.657,25,17,25z M30,16h-2.002v-5.004c0-0.001,0-0.001,0-0.001
			C27.998,4.923,23.074,0,17,0S6.002,4.923,6.002,10.995c0,0,0,0,0,0.001V16H4c-2.209,0-4,1.791-4,4v20c0,2.209,1.791,4,4,4h26
			c2.209,0,4-1.791,4-4V20C34,17.791,32.209,16,30,16z M7.994,10.996C8.003,6.031,12.031,2.01,17,2.01s8.997,4.021,9.006,8.986
			h0.001V16H7.994V10.996z M32,40c0,1.104-0.896,2-2,2H4c-1.104,0-2-0.896-2-2V20c0-1.104,0.896-2,2-2h26c1.104,0,2,0.896,2,2V40z"
			/>
	</g>
</g>
<g>
</g>
<g>
</g>
<g>
</g>
<g>
</g>
<g>
</g>
<g>
</g>
<g>
</g>
<g>
</g>
<g>
</g>
<g>
</g>
<g>
</g>
<g>
</g>
<g>
</g>
<g>
</g>
<g>
</g>
</svg>
