<?xml version="1.0" encoding="iso-8859-1"?>
<!-- Generator: Adobe Illustrator 16.0.4, SVG Export Plug-In . SVG Version: 6.00 Build 0)  -->
<!DOCTYPE svg PUBLIC "-//W3C//DTD SVG 1.1//EN" "http://www.w3.org/Graphics/SVG/1.1/DTD/svg11.dtd">
<svg version="1.1" id="Layer_1" xmlns="http://www.w3.org/2000/svg" xmlns:xlink="http://www.w3.org/1999/xlink" x="0px" y="0px"
	 width="56px" height="36px" viewBox="0 0 56 36" style="enable-background:new 0 0 56 36;" xml:space="preserve">
<g id="_x31_015-magic-lamp_x40_2x.png">
	<g>
		<path d="M56,17c0-0.553-0.447-1-1-1H37.301c-0.479-1.355-1.211-2.662-2.207-3.813L35,12h-0.078C32.801,9.655,29.543,8,25,8
			c-4.545,0-7.811,1.654-9.934,4H15l-0.1,0.2c-0.178,0.205-0.304,0.438-0.465,0.653C12.779,11.477,10.431,9.994,8,9.994
			c-4.785,0-8,4.435-8,8.781c0,2.214,1.568,5.166,4.567,6.527c0.776,0.352,1.884,0.693,3.258,0.693c1.515,0,3.36-0.438,5.44-1.709
			c1.609,2.596,4.627,4.575,8.299,5.349l-1.387,2.772l-1.885,1.885C18.112,34.474,18,34.724,18,35c0,0.553,0.447,1,1,1h12
			c0.553,0,1-0.447,1-1c0-0.276-0.112-0.526-0.293-0.707l-1.885-1.885l-1.385-2.769c1.062-0.226,2.069-0.55,3.005-0.962l0.006,0.013
			l23.969-10.781l-0.003-0.005C55.759,17.746,56,17.403,56,17z M25,10c3,0,5.295,0.786,6.992,2H18.003
			C19.702,10.785,21.999,10,25,10z M12,20c0,0.853,0.141,1.68,0.401,2.469c-2.5,1.578-4.935,1.951-7.008,1.013
			C3.189,22.48,2,20.31,2,18.775c0-3.311,2.464-6.781,6-6.781c1.942,0,3.951,1.362,5.357,2.572C12.469,16.312,12,18.199,12,20z
			 M28.586,34h-7.172l0.293-0.293l-0.009-0.009c0.073-0.076,0.139-0.16,0.188-0.256l0.009,0.005l1.751-3.502
			C24.091,29.98,24.542,30,25,30c0.457,0,0.903-0.033,1.348-0.069l1.758,3.517l0.009-0.005c0.049,0.097,0.104,0.189,0.179,0.265
			L28.586,34z M30.625,26.875l0.009-0.023C28.983,27.571,27.064,28,25,28c-6.075,0-11-3.582-11-8c0-1.969,0.601-4.166,1.969-6
			h18.053c0.916,1.23,1.493,2.621,1.77,4h2.033h12.515h0.005L30.625,26.875z M29,4c0-2.209-1.791-4-4-4s-4,1.791-4,4s1.791,4,4,4
			S29,6.209,29,4z M25,6c-1.104,0-2-0.896-2-2s0.896-2,2-2s2,0.896,2,2S26.104,6,25,6z"/>
	</g>
</g>
<g>
</g>
<g>
</g>
<g>
</g>
<g>
</g>
<g>
</g>
<g>
</g>
<g>
</g>
<g>
</g>
<g>
</g>
<g>
</g>
<g>
</g>
<g>
</g>
<g>
</g>
<g>
</g>
<g>
</g>
</svg>
