<?xml version="1.0" encoding="iso-8859-1"?>
<!-- Generator: Adobe Illustrator 16.0.4, SVG Export Plug-In . SVG Version: 6.00 Build 0)  -->
<!DOCTYPE svg PUBLIC "-//W3C//DTD SVG 1.1//EN" "http://www.w3.org/Graphics/SVG/1.1/DTD/svg11.dtd">
<svg version="1.1" id="Layer_1" xmlns="http://www.w3.org/2000/svg" xmlns:xlink="http://www.w3.org/1999/xlink" x="0px" y="0px"
	 width="44px" height="44px" viewBox="0 0 44 44" style="enable-background:new 0 0 44 44;" xml:space="preserve">
<g id="_x38_73-magic-wand-toolbar_x40_2x.png">
	<g>
		<path d="M13,10l1.11-3.889L18,5l-3.89-1.111L13,0l-1.111,3.889L8,5l3.889,1.111L13,10z M25,14l0.666-2.334L28,11l-2.334-0.667
			L25,8l-0.667,2.333L22,11l2.333,0.666L25,14z M3.666,17.666L6,17l-2.334-0.667L3,14l-0.667,2.333L0,17l2.333,0.666L3,20
			L3.666,17.666z M37,14l1.555-5.444L44,7l-5.444-1.556L37,0l-1.556,5.444L30,7l5.444,1.556L37,14z M43.731,38.191L21.805,16.265
			c-0.012-0.013-0.016-0.032-0.027-0.045c-0.614-0.614-2.355,0.133-3.891,1.667c-1.534,1.535-2.281,3.276-1.667,3.891
			c0.013,0.013,0.032,0.016,0.046,0.027l21.927,21.927c0.011,0.014,0.015,0.033,0.027,0.046c0.613,0.613,2.355-0.133,3.89-1.668
			c1.535-1.534,2.281-3.275,1.668-3.89C43.765,38.207,43.745,38.203,43.731,38.191z M25.319,25.32
			c-0.739,0.738-1.136,1.529-0.914,1.796L23.52,26.23l-0.008,0.008l-5-5l0.022-0.023c-0.019-0.008-0.048-0.002-0.062-0.015
			c-0.251-0.251,0.156-1.064,0.909-1.817c0.752-0.753,1.565-1.159,1.816-0.908c0.014,0.013,0.008,0.043,0.016,0.061l0.024-0.023l5,5
			L26.23,23.52l0.888,0.888C26.854,24.181,26.06,24.579,25.319,25.32z M39,16l-1.111,3.889L34,21l3.889,1.111L39,26l1.11-3.889
			L44,21l-3.89-1.111L39,16z M9,27l-1.334,4.666L3,33l4.666,1.333L9,39l1.333-4.667L15,33l-4.667-1.334L9,27z M19,38l-0.667,2.333
			L16,41l2.333,0.666L19,44l0.666-2.334L22,41l-2.334-0.667L19,38z"/>
	</g>
</g>
<g>
</g>
<g>
</g>
<g>
</g>
<g>
</g>
<g>
</g>
<g>
</g>
<g>
</g>
<g>
</g>
<g>
</g>
<g>
</g>
<g>
</g>
<g>
</g>
<g>
</g>
<g>
</g>
<g>
</g>
</svg>
