<?xml version="1.0" encoding="iso-8859-1"?>
<!-- Generator: Adobe Illustrator 16.0.4, SVG Export Plug-In . SVG Version: 6.00 Build 0)  -->
<!DOCTYPE svg PUBLIC "-//W3C//DTD SVG 1.1//EN" "http://www.w3.org/Graphics/SVG/1.1/DTD/svg11.dtd">
<svg version="1.1" id="Layer_1" xmlns="http://www.w3.org/2000/svg" xmlns:xlink="http://www.w3.org/1999/xlink" x="0px" y="0px"
	 width="44px" height="28px" viewBox="0 0 44 28" style="enable-background:new 0 0 44 28;" xml:space="preserve">
<g id="_x31_015-magic-lamp-toolbar_x40_2x.png">
	<g>
		<path d="M44,13c0-0.553-0.447-1-1-1H31.186C29.779,8.764,26.497,6,21,6c-3.512,0-6.113,1.134-7.909,2.792
			C11.62,7.515,9.394,5.999,7.069,5.999C2.841,5.999,0,9.88,0,13.683c0,1.938,1.387,4.521,4.036,5.712
			c0.687,0.308,1.664,0.606,2.879,0.606c1.124,0,2.455-0.271,3.941-1.015c1.386,2.452,4.34,4.275,7.923,4.82l-2.486,2.486
			C16.112,26.474,16,26.724,16,27c0,0.553,0.447,1,1,1h8c0.553,0,1-0.447,1-1c0-0.276-0.112-0.526-0.293-0.707l-2.48-2.48
			c1.677-0.26,3.223-0.788,4.526-1.545l0.008,0.017l15.656-8.375l-0.003-0.005C43.759,13.746,44,13.403,44,13z M21,8
			c2.819,0,4.872,0.809,6.303,2H14.691C16.124,8.809,18.181,8,21,8z M10,15.818c0,0.436,0.06,0.86,0.147,1.277
			c-1.119,0.592-2.205,0.905-3.232,0.905c-0.729,0-1.422-0.146-2.059-0.431C2.887,16.685,2,14.764,2,13.683
			c0-2.745,2.037-5.684,5.069-5.684c1.724,0,3.547,1.292,4.704,2.295C10.579,11.989,10,13.967,10,15.818z M19.414,26L21,24.414
			L22.586,26H19.414z M27.002,20.405C25.409,21.394,23.31,22,21,22c-4.971,0-9-2.786-9-6.223c0-1.224,0.319-2.561,1.016-3.777H28.98
			c0.368,0.645,0.635,1.322,0.799,2h2.037h7.198h0.704L27.002,20.405z M24,3c0-1.656-1.343-3-3-3s-3,1.344-3,3c0,1.657,1.343,3,3,3
			S24,4.657,24,3z M21,4c-0.553,0-1-0.447-1-1s0.447-1,1-1s1,0.447,1,1S21.553,4,21,4z"/>
	</g>
</g>
<g>
</g>
<g>
</g>
<g>
</g>
<g>
</g>
<g>
</g>
<g>
</g>
<g>
</g>
<g>
</g>
<g>
</g>
<g>
</g>
<g>
</g>
<g>
</g>
<g>
</g>
<g>
</g>
<g>
</g>
</svg>
