<?xml version="1.0" encoding="iso-8859-1"?>
<!-- Generator: Adobe Illustrator 16.0.4, SVG Export Plug-In . SVG Version: 6.00 Build 0)  -->
<!DOCTYPE svg PUBLIC "-//W3C//DTD SVG 1.1//EN" "http://www.w3.org/Graphics/SVG/1.1/DTD/svg11.dtd">
<svg version="1.1" id="Layer_1" xmlns="http://www.w3.org/2000/svg" xmlns:xlink="http://www.w3.org/1999/xlink" x="0px" y="0px"
	 width="52px" height="56px" viewBox="0 0 52 56" style="enable-background:new 0 0 52 56;" xml:space="preserve">
<g id="_x31_027-magnet_x40_2x.png">
	<g>
		<path d="M28,4l8,2L25,0l-1,6l-8-2l11,7L28,4z M51,0H41c-0.553,0-1,0.448-1,1v29c0,7.732-6.268,14-14,14s-14-6.268-14-14V1
			c0-0.552-0.447-1-1-1H1C0.447,0,0,0.448,0,1v29c0,14.359,11.641,26,26,26s26-11.641,26-26V1C52,0.448,51.553,0,51,0z M2,2h8v9H2V2
			z M50,30c0,13.255-10.745,24-24,24S2,43.255,2,30V13h8v17c0,8.837,7.163,16,16,16s16-7.163,16-16V13h8V30z M50,11h-8V2h8V11z"/>
	</g>
</g>
<g>
</g>
<g>
</g>
<g>
</g>
<g>
</g>
<g>
</g>
<g>
</g>
<g>
</g>
<g>
</g>
<g>
</g>
<g>
</g>
<g>
</g>
<g>
</g>
<g>
</g>
<g>
</g>
<g>
</g>
</svg>
