<?xml version="1.0" encoding="iso-8859-1"?>
<!-- Generator: Adobe Illustrator 16.0.4, SVG Export Plug-In . SVG Version: 6.00 Build 0)  -->
<!DOCTYPE svg PUBLIC "-//W3C//DTD SVG 1.1//EN" "http://www.w3.org/Graphics/SVG/1.1/DTD/svg11.dtd">
<svg version="1.1" id="Layer_1" xmlns="http://www.w3.org/2000/svg" xmlns:xlink="http://www.w3.org/1999/xlink" x="0px" y="0px"
	 width="40px" height="44px" viewBox="0 0 40 44" style="enable-background:new 0 0 40 44;" xml:space="preserve">
<g id="_x31_027-magnet-toolbar_x40_2x.png">
	<g>
		<path d="M21.601,3.268l6.404,1.634L19.199,0l-0.8,4.901l-6.404-1.634l8.806,5.719L21.601,3.268z M39.013,0.004V0h-8.005v0.004
			C31.001,0.004,30.996,0,30.989,0c-0.547,0-0.987,0.438-1,0.983v0.021h-0.005v23.004h0.005v0.001h-0.051
			c-0.502,5.053-4.759,8.998-9.938,8.998c-5.179,0-9.437-3.945-9.938-8.998h-0.051v-0.001h0.005V1.005h-0.005V0.983
			C9.998,0.438,9.558,0,9.011,0C9.005,0,8.999,0.004,8.992,0.004V0H0.987v0.004C0.441,0.014,0.001,0.456,0,1.005v23.004h0.001
			C0.01,35.051,8.96,44,20,44s19.99-8.949,19.999-19.991H40V1.005C39.999,0.456,39.559,0.014,39.013,0.004z M31.994,2.012h5.996
			v5.972h-5.996V2.012z M2.01,2.012h5.996v5.972H2.01V2.012z M20,41.991c-9.932,0-17.983-8.05-17.992-17.982H2.01V9.994h5.996
			v12.979c0,0.007-0.001,0.014-0.001,0.021c0,0.01,0.001,0.021,0.001,0.031v0.983h0.05C8.572,30.156,13.718,34.987,20,34.987
			s11.428-4.831,11.944-10.979h0.05v-0.983c0-0.011,0.001-0.021,0.001-0.031c0-0.008-0.001-0.015-0.001-0.021V9.994h5.996v14.015
			h0.002C37.983,33.941,29.932,41.991,20,41.991z"/>
	</g>
</g>
<g>
</g>
<g>
</g>
<g>
</g>
<g>
</g>
<g>
</g>
<g>
</g>
<g>
</g>
<g>
</g>
<g>
</g>
<g>
</g>
<g>
</g>
<g>
</g>
<g>
</g>
<g>
</g>
<g>
</g>
</svg>
