<?xml version="1.0" encoding="iso-8859-1"?>
<!-- Generator: Adobe Illustrator 16.0.4, SVG Export Plug-In . SVG Version: 6.00 Build 0)  -->
<!DOCTYPE svg PUBLIC "-//W3C//DTD SVG 1.1//EN" "http://www.w3.org/Graphics/SVG/1.1/DTD/svg11.dtd">
<svg version="1.1" id="Layer_1" xmlns="http://www.w3.org/2000/svg" xmlns:xlink="http://www.w3.org/1999/xlink" x="0px" y="0px"
	 width="48px" height="56px" viewBox="0 0 48 56" style="enable-background:new 0 0 48 56;" xml:space="preserve">
<g id="_x38_05-mailbox_x40_2x.png">
	<g>
		<path d="M44,16H22v-4h13c0.553,0,1-0.447,1-1c0-0.236-0.094-0.444-0.23-0.615l0.012-0.01L32.28,6l3.501-4.375l-0.012-0.01
			C35.906,1.444,36,1.236,36,1c0-0.553-0.447-1-1-1H21c-0.553,0-1,0.447-1,1v15H4c-2.209,0-4,1.791-4,4v24c0,2.209,1.791,4,4,4h20v8
			h2v-8h4v8h2v-8h12c2.209,0,4-1.791,4-4V20C48,17.791,46.209,16,44,16z M22,2h10.92l-2.701,3.376l0.012,0.009
			C30.094,5.556,30,5.764,30,6s0.094,0.444,0.23,0.615l-0.012,0.01l2.7,3.375H22V2z M21,30c1.104,0,2,0.896,2,2s-0.896,2-2,2
			s-2-0.896-2-2S19.896,30,21,30z M6,46H4c-1.104,0-2-0.895-2-2V20c0-1.104,0.896-2,2-2h2V46z M46,44c0,1.105-0.896,2-2,2H32h-2h-4
			h-2H8V18h12v10.142c-1.723,0.446-3,1.997-3,3.858c0,2.209,1.791,4,4,4s4-1.791,4-4c0-1.861-1.277-3.412-3-3.858V18h22
			c1.104,0,2,0.896,2,2V44z"/>
	</g>
</g>
<g>
</g>
<g>
</g>
<g>
</g>
<g>
</g>
<g>
</g>
<g>
</g>
<g>
</g>
<g>
</g>
<g>
</g>
<g>
</g>
<g>
</g>
<g>
</g>
<g>
</g>
<g>
</g>
<g>
</g>
</svg>
