<?xml version="1.0" encoding="iso-8859-1"?>
<!-- Generator: Adobe Illustrator 16.0.4, SVG Export Plug-In . SVG Version: 6.00 Build 0)  -->
<!DOCTYPE svg PUBLIC "-//W3C//DTD SVG 1.1//EN" "http://www.w3.org/Graphics/SVG/1.1/DTD/svg11.dtd">
<svg version="1.1" id="Layer_1" xmlns="http://www.w3.org/2000/svg" xmlns:xlink="http://www.w3.org/1999/xlink" x="0px" y="0px"
	 width="40px" height="44px" viewBox="0 0 40 44" style="enable-background:new 0 0 40 44;" xml:space="preserve">
<g id="_x38_05-mailbox-toolbar_x40_2x.png">
	<g>
		<path d="M36,12H18v-2h9c0.553,0,1-0.447,1-1c0-0.236-0.094-0.443-0.23-0.615l0.012-0.009L25.249,5l2.532-3.375l-0.012-0.01
			C27.906,1.444,28,1.236,28,1c0-0.553-0.447-1-1-1H17c-0.553,0-1,0.447-1,1v11H4c-2.209,0-4,1.791-4,4v18c0,2.209,1.791,4,4,4h18v6
			h2v-6h4v6h2v-6h6c2.209,0,4-1.791,4-4V16C40,13.791,38.209,12,36,12z M18,2h7.001l-1.782,2.376l0.012,0.009
			C23.094,4.557,23,4.764,23,5s0.094,0.444,0.23,0.615l-0.012,0.01L25.001,8H18V2z M6,36H4c-1.104,0-2-0.895-2-2V16
			c0-1.104,0.896-2,2-2h2V36z M38,34c0,1.105-0.896,2-2,2h-6h-2h-4h-2H8V14h8v8.184c-1.162,0.414-2,1.513-2,2.816
			c0,1.657,1.343,3,3,3s3-1.343,3-3c0-1.305-0.838-2.402-2-2.816V14h18c1.104,0,2,0.896,2,2V34z"/>
	</g>
</g>
<g>
</g>
<g>
</g>
<g>
</g>
<g>
</g>
<g>
</g>
<g>
</g>
<g>
</g>
<g>
</g>
<g>
</g>
<g>
</g>
<g>
</g>
<g>
</g>
<g>
</g>
<g>
</g>
<g>
</g>
</svg>
