<?xml version="1.0" encoding="iso-8859-1"?>
<!-- Generator: Adobe Illustrator 16.0.4, SVG Export Plug-In . SVG Version: 6.00 Build 0)  -->
<!DOCTYPE svg PUBLIC "-//W3C//DTD SVG 1.1//EN" "http://www.w3.org/Graphics/SVG/1.1/DTD/svg11.dtd">
<svg version="1.1" id="Layer_1" xmlns="http://www.w3.org/2000/svg" xmlns:xlink="http://www.w3.org/1999/xlink" x="0px" y="0px"
	 width="56px" height="56px" viewBox="0 0 56 56" style="enable-background:new 0 0 56 56;" xml:space="preserve">
<g id="_x37_69-male_x40_2x.png">
	<g>
		<path d="M28,0C12.536,0,0,12.536,0,28s12.536,28,28,28s28-12.536,28-28S43.464,0,28,0z M46.389,46.381
			c-4.3-3.827-9.321-5.49-10.438-5.822c-3.168-2.655-1.885-5.614,0.43-9.799c0.35-0.634,0.691-1.253,0.99-1.85
			c1.717-3.432,1.416-5.603,1.158-6.477c0.668-2.467,1.26-9.316-2.196-13.049c-2.058-2.223-5.074-2.866-8.979-1.922
			c-4.116,0.025-7.11,1.299-8.903,3.786c-3.092,4.289-1.465,10.708-1.02,12.216c-0.869,3.091,0.902,5.23,1.275,5.637
			c0.421,0.584,5.135,7.345,1.188,11.525l-1.349,0.597c-4.078,1.804-6.898,3.063-9.229,4.834C4.795,41.38,2,35.021,2,28
			C2,13.641,13.641,2,28,2s26,11.641,26,26C54,35.178,51.092,41.676,46.389,46.381z"/>
	</g>
</g>
<g>
</g>
<g>
</g>
<g>
</g>
<g>
</g>
<g>
</g>
<g>
</g>
<g>
</g>
<g>
</g>
<g>
</g>
<g>
</g>
<g>
</g>
<g>
</g>
<g>
</g>
<g>
</g>
<g>
</g>
</svg>
