<?xml version="1.0" encoding="iso-8859-1"?>
<!-- Generator: Adobe Illustrator 16.0.4, SVG Export Plug-In . SVG Version: 6.00 Build 0)  -->
<!DOCTYPE svg PUBLIC "-//W3C//DTD SVG 1.1//EN" "http://www.w3.org/Graphics/SVG/1.1/DTD/svg11.dtd">
<svg version="1.1" id="Layer_1" xmlns="http://www.w3.org/2000/svg" xmlns:xlink="http://www.w3.org/1999/xlink" x="0px" y="0px"
	 width="44px" height="44px" viewBox="0 0 44 44" style="enable-background:new 0 0 44 44;" xml:space="preserve">
<g id="_x37_69-male-toolbar_x40_2x.png">
	<g>
		<path d="M22,0C9.85,0,0,9.85,0,22s9.85,22,22,22s22-9.85,22-22S34.15,0,22,0z M36.023,36.238c-3.214-3.105-7.286-4.525-8.137-4.78
			c-2.3-1.938-1.368-4.097,0.311-7.149c0.255-0.463,0.503-0.915,0.72-1.351c1.245-2.504,1.028-4.088,0.84-4.726
			c0.485-1.8,0.915-6.798-1.594-9.521c-1.493-1.622-3.683-2.092-6.517-1.402c-2.986,0.019-5.16,0.947-6.461,2.763
			c-2.244,3.13-1.063,7.813-0.74,8.913c-0.631,2.256,0.654,3.817,0.926,4.114c0.305,0.426,3.727,5.358,0.862,8.409l-0.979,0.436
			c-3.283,1.46-5.631,2.613-7.431,4.149C4.231,32.479,2.009,27.5,2.009,22c0-11.041,8.95-19.991,19.991-19.991
			S41.991,10.959,41.991,22C41.991,27.575,39.705,32.612,36.023,36.238z"/>
	</g>
</g>
<g>
</g>
<g>
</g>
<g>
</g>
<g>
</g>
<g>
</g>
<g>
</g>
<g>
</g>
<g>
</g>
<g>
</g>
<g>
</g>
<g>
</g>
<g>
</g>
<g>
</g>
<g>
</g>
<g>
</g>
</svg>
