<?xml version="1.0" encoding="iso-8859-1"?>
<!-- Generator: Adobe Illustrator 16.0.4, SVG Export Plug-In . SVG Version: 6.00 Build 0)  -->
<!DOCTYPE svg PUBLIC "-//W3C//DTD SVG 1.1//EN" "http://www.w3.org/Graphics/SVG/1.1/DTD/svg11.dtd">
<svg version="1.1" id="Layer_1" xmlns="http://www.w3.org/2000/svg" xmlns:xlink="http://www.w3.org/1999/xlink" x="0px" y="0px"
	 width="44px" height="40px" viewBox="0 0 44 40" style="enable-background:new 0 0 44 40;" xml:space="preserve">
<g id="_x37_89-map-location-toolbar_x40_2x.png">
	<g>
		<path d="M28,14c0-3.313-2.687-6-6-6s-6,2.687-6,6c0,3.314,2.687,6,6,6S28,17.314,28,14z M18,14c0-2.209,1.791-4,4-4s4,1.791,4,4
			s-1.791,4-4,4S18,16.209,18,14z M43.861,38.521l0.013-0.007l-3.93-11.788c-0.016-0.055-0.028-0.109-0.053-0.16l-0.018-0.052
			l-0.013,0.007C39.69,26.216,39.375,26,39,26h-4c-0.553,0-1,0.448-1,1c0,0.553,0.447,1,1,1h3.297l3.334,10H2.369l3.334-10H9
			c0.553,0,1-0.447,1-1c0-0.552-0.447-1-1-1H5c-0.375,0-0.69,0.216-0.861,0.521l-0.013-0.007l-0.018,0.052
			c-0.024,0.051-0.037,0.104-0.053,0.16l-3.93,11.788l0.013,0.007C0.059,38.666,0,38.823,0,39c0,0.553,0.447,1,1,1h42
			c0.553,0,1-0.447,1-1C44,38.823,43.941,38.666,43.861,38.521z M36,14.096C36,6.311,29.732,0,22,0S8,6.311,8,14.096
			C8,22.905,22,37,22,37S36,22.905,36,14.096z M22,2c6.627,0,12,5.421,12,12.108C34,21.027,22,34,22,34S10,21.027,10,14.108
			C10,7.421,15.373,2,22,2z"/>
	</g>
</g>
<g>
</g>
<g>
</g>
<g>
</g>
<g>
</g>
<g>
</g>
<g>
</g>
<g>
</g>
<g>
</g>
<g>
</g>
<g>
</g>
<g>
</g>
<g>
</g>
<g>
</g>
<g>
</g>
<g>
</g>
</svg>
