<?xml version="1.0" encoding="iso-8859-1"?>
<!-- Generator: Adobe Illustrator 16.0.4, SVG Export Plug-In . SVG Version: 6.00 Build 0)  -->
<!DOCTYPE svg PUBLIC "-//W3C//DTD SVG 1.1//EN" "http://www.w3.org/Graphics/SVG/1.1/DTD/svg11.dtd">
<svg version="1.1" id="Layer_1" xmlns="http://www.w3.org/2000/svg" xmlns:xlink="http://www.w3.org/1999/xlink" x="0px" y="0px"
	 width="56px" height="48px" viewBox="0 0 56 48" style="enable-background:new 0 0 56 48;" xml:space="preserve">
<g id="_x37_89-map-location_x40_2x.png">
	<g>
		<path d="M36,16c0-4.418-3.582-8-8-8s-8,3.582-8,8c0,4.419,3.582,8,8,8S36,20.419,36,16z M22,16c0-3.313,2.687-6,6-6s6,2.687,6,6
			s-2.687,6-6,6S22,19.313,22,16z M55.861,46.521l0.013-0.007l-10-18l-0.013,0.007C45.69,28.216,45.375,28,45,28h-2
			c-0.553,0-1,0.448-1,1c0,0.553,0.447,1,1,1h1.412l8.889,16H2.699l8.89-16H13c0.553,0,1-0.447,1-1c0-0.552-0.447-1-1-1h-2
			c-0.375,0-0.69,0.216-0.861,0.521l-0.013-0.007l-10,18l0.013,0.007C0.059,46.666,0,46.823,0,47c0,0.553,0.447,1,1,1h54
			c0.553,0,1-0.447,1-1C56,46.823,55.941,46.666,55.861,46.521z M44,16c0-8.837-7.163-16-16-16S12,7.163,12,16c0,10,16,26,16,26
			S44,26,44,16z M28,2c7.732,0,14,6.268,14,14c0,8-14,23-14,23S14,24,14,16C14,8.268,20.268,2,28,2z"/>
	</g>
</g>
<g>
</g>
<g>
</g>
<g>
</g>
<g>
</g>
<g>
</g>
<g>
</g>
<g>
</g>
<g>
</g>
<g>
</g>
<g>
</g>
<g>
</g>
<g>
</g>
<g>
</g>
<g>
</g>
<g>
</g>
</svg>
