<?xml version="1.0" encoding="iso-8859-1"?>
<!-- Generator: Adobe Illustrator 16.0.4, SVG Export Plug-In . SVG Version: 6.00 Build 0)  -->
<!DOCTYPE svg PUBLIC "-//W3C//DTD SVG 1.1//EN" "http://www.w3.org/Graphics/SVG/1.1/DTD/svg11.dtd">
<svg version="1.1" id="Layer_1" xmlns="http://www.w3.org/2000/svg" xmlns:xlink="http://www.w3.org/1999/xlink" x="0px" y="0px"
	 width="44px" height="36px" viewBox="0 0 44 36" style="enable-background:new 0 0 44 36;" xml:space="preserve">
<g id="_x38_52-map-toolbar_x40_2x.png">
	<g>
		<path d="M8.119,15.712c0.095,0,0.19-0.017,0.284-0.051l0.072-0.026c0.39-0.124,0.753-0.164,1.07-0.117
			c0.424,0.055,0.828-0.223,0.893-0.632c0.064-0.41-0.231-0.792-0.661-0.854c-0.55-0.077-1.169-0.021-1.81,0.183l-0.132,0.047
			c-0.405,0.149-0.606,0.584-0.449,0.971C7.507,15.53,7.805,15.712,8.119,15.712z M4.502,18.749
			c0.104,0.045,0.214,0.065,0.321,0.065c0.3,0,0.586-0.164,0.717-0.443c0.149-0.318,0.414-0.703,0.744-1.084
			c0.276-0.318,0.23-0.792-0.104-1.056c-0.333-0.265-0.829-0.222-1.106,0.099c-0.425,0.488-0.759,0.982-0.968,1.427
			C3.929,18.135,4.105,18.579,4.502,18.749z M9.67,20.786c-0.241,0.585-0.411,1.085-0.521,1.527
			c-0.101,0.403,0.16,0.809,0.583,0.904c0.062,0.014,0.122,0.021,0.183,0.021c0.355,0,0.678-0.232,0.764-0.577
			c0.093-0.374,0.241-0.808,0.454-1.327c0.159-0.385-0.04-0.821-0.444-0.972S9.827,20.4,9.67,20.786z M11.359,18.999
			c0.08,0.024,0.161,0.035,0.241,0.035c0.332,0,0.641-0.202,0.748-0.52l0.029-0.095c0.102-0.348,0.153-0.707,0.153-1.065
			c0-0.231-0.021-0.464-0.064-0.689c-0.078-0.407-0.484-0.676-0.913-0.604c-0.428,0.074-0.71,0.465-0.633,0.873
			c0.026,0.137,0.039,0.276,0.039,0.419c0,0.225-0.032,0.447-0.107,0.701C10.72,18.448,10.946,18.871,11.359,18.999z M38.794,17.684
			c-0.423,0.091-0.689,0.492-0.595,0.896c0.113,0.481,0.2,0.954,0.26,1.406c0.049,0.38,0.388,0.658,0.778,0.658
			c0.032,0,0.064-0.002,0.098-0.006c0.431-0.052,0.736-0.426,0.683-0.837c-0.064-0.501-0.16-1.022-0.285-1.55
			C39.638,17.847,39.216,17.592,38.794,17.684z M32.034,9.742l2.524,0.804l-1.217,2.605c-0.177,0.378,0.001,0.822,0.397,0.991
			c0.104,0.045,0.213,0.064,0.319,0.064c0.302,0,0.588-0.165,0.719-0.444l1.279-2.74l2.264,0.721
			c0.082,0.026,0.166,0.039,0.248,0.039c0.329,0,0.636-0.198,0.746-0.513c0.137-0.394-0.086-0.818-0.497-0.949l-2.118-0.675
			l0.811-1.734c0.177-0.378-0.002-0.822-0.397-0.991c-0.397-0.17-0.861,0.001-1.038,0.38l-0.872,1.869l-2.671-0.851
			c-0.413-0.133-0.857,0.082-0.994,0.475C31.4,9.187,31.622,9.611,32.034,9.742z M11.211,24.495
			c-0.367-0.222-0.853-0.118-1.085,0.231s-0.124,0.813,0.241,1.035c0.535,0.326,1.177,0.496,1.906,0.507c0.004,0,0.008,0,0.013,0
			c0.428,0,0.778-0.328,0.785-0.739c0.007-0.414-0.34-0.755-0.773-0.762C11.863,24.761,11.497,24.669,11.211,24.495z M22.818,20.382
			c0.374,0.003,0.764,0.096,1.193,0.284c0.105,0.046,0.218,0.068,0.327,0.068c0.298,0,0.582-0.162,0.715-0.438
			c0.181-0.376,0.008-0.821-0.387-0.996c-0.626-0.273-1.243-0.416-1.836-0.42c-0.002,0-0.005,0-0.007,0
			c-0.431,0-0.782,0.332-0.785,0.744C22.035,20.039,22.384,20.378,22.818,20.382z M39.349,22.145
			c-0.427-0.071-0.835,0.197-0.912,0.605c-0.088,0.465-0.225,0.876-0.406,1.225c-0.193,0.371-0.036,0.821,0.353,1.007
			c0.112,0.054,0.231,0.078,0.35,0.078c0.289,0,0.566-0.152,0.704-0.415c0.248-0.476,0.432-1.023,0.546-1.627
			C40.06,22.609,39.776,22.219,39.349,22.145z M36.182,25.385c-0.098,0.022-0.199,0.04-0.304,0.054
			c-0.287,0.04-0.574,0.06-0.848,0.06l-0.204-0.004c-0.43-0.021-0.797,0.312-0.811,0.727s0.327,0.761,0.762,0.773l0.245,0.005
			c0.355,0,0.718-0.024,1.078-0.074c0.152-0.021,0.3-0.047,0.442-0.079c0.422-0.096,0.684-0.5,0.584-0.903
			S36.603,25.294,36.182,25.385z M38.316,16.25c0.401-0.158,0.592-0.598,0.425-0.98c-0.217-0.5-0.452-0.979-0.702-1.425
			c-0.205-0.366-0.68-0.503-1.063-0.308c-0.383,0.195-0.526,0.65-0.322,1.016c0.226,0.402,0.439,0.837,0.637,1.291
			c0.125,0.289,0.418,0.464,0.727,0.464C38.116,16.308,38.219,16.289,38.316,16.25z M43,0c-0.049,0-0.092,0.021-0.139,0.028
			L42.858,0.01L29,1.99L15.142,0.01l-0.003,0.019C15.092,0.021,15.049,0,15,0s-0.092,0.021-0.139,0.028L14.858,0.01l-14,2
			l0.003,0.019C0.378,2.099,0,2.497,0,3v32c0,0.553,0.447,1,1,1c0.049,0,0.092-0.021,0.139-0.028l0.003,0.019L15,34.01l13.858,1.98
			l0.003-0.019C28.908,35.979,28.951,36,29,36s0.092-0.021,0.139-0.028l0.003,0.019l14-2l-0.003-0.019
			C43.622,33.901,44,33.503,44,33V1C44,0.447,43.553,0,43,0z M14,32.133L2,33.847V3.867l12-1.714V32.133z M28,21.639
			c-0.195-0.166-0.389-0.336-0.585-0.498c-0.33-0.27-0.825-0.235-1.108,0.078c-0.284,0.313-0.248,0.787,0.081,1.059
			c0.373,0.308,0.743,0.627,1.159,0.987c0.133,0.114,0.292,0.168,0.453,0.178v10.404l-12-1.714v-6.887
			c0.155-0.081,0.322-0.161,0.457-0.241c0.225-0.134,0.44-0.276,0.652-0.427c0.347-0.248,0.417-0.719,0.157-1.051
			c-0.26-0.331-0.753-0.398-1.1-0.151c-0.054,0.039-0.112,0.072-0.167,0.109V2.153l12,1.714V21.639z M42,32.133l-12,1.714v-8.611
			c0.006,0.004,0.008,0.011,0.014,0.015c0.494,0.344,0.96,0.624,1.423,0.857c0.117,0.06,0.242,0.087,0.366,0.087
			c0.282,0,0.555-0.146,0.695-0.399c0.203-0.367,0.056-0.821-0.328-1.015c-0.396-0.2-0.799-0.443-1.23-0.744
			c-0.29-0.201-0.67-0.175-0.939,0.026V3.867l12-1.714V32.133z M18.93,22.679c0.206,0,0.411-0.076,0.565-0.229
			c0.35-0.346,0.721-0.708,1.08-1.017c0.322-0.277,0.35-0.752,0.06-1.061c-0.29-0.308-0.786-0.333-1.11-0.057
			c-0.397,0.342-0.791,0.726-1.159,1.09c-0.302,0.299-0.293,0.773,0.019,1.062C18.536,22.608,18.733,22.679,18.93,22.679z"/>
	</g>
</g>
<g>
</g>
<g>
</g>
<g>
</g>
<g>
</g>
<g>
</g>
<g>
</g>
<g>
</g>
<g>
</g>
<g>
</g>
<g>
</g>
<g>
</g>
<g>
</g>
<g>
</g>
<g>
</g>
<g>
</g>
</svg>
