<?xml version="1.0" encoding="iso-8859-1"?>
<!-- Generator: Adobe Illustrator 16.0.4, SVG Export Plug-In . SVG Version: 6.00 Build 0)  -->
<!DOCTYPE svg PUBLIC "-//W3C//DTD SVG 1.1//EN" "http://www.w3.org/Graphics/SVG/1.1/DTD/svg11.dtd">
<svg version="1.1" id="Layer_1" xmlns="http://www.w3.org/2000/svg" xmlns:xlink="http://www.w3.org/1999/xlink" x="0px" y="0px"
	 width="56px" height="48px" viewBox="0 0 56 48" style="enable-background:new 0 0 56 48;" xml:space="preserve">
<g id="_x38_52-map_x40_2x.png">
	<g>
		<path d="M5.729,24.998c0.133,0.06,0.271,0.088,0.408,0.088c0.383,0,0.747-0.22,0.914-0.591c0.189-0.425,0.526-0.938,0.946-1.445
			c0.353-0.425,0.293-1.057-0.132-1.408c-0.424-0.353-1.056-0.295-1.408,0.132c-0.54,0.651-0.966,1.31-1.232,1.902
			C5,24.18,5.226,24.772,5.729,24.998z M14.457,25.331c0.103,0.032,0.206,0.048,0.308,0.048c0.422,0,0.814-0.27,0.951-0.693
			l0.037-0.126c0.13-0.464,0.195-0.942,0.195-1.421c0.001-0.308-0.026-0.617-0.081-0.919c-0.1-0.543-0.616-0.9-1.163-0.806
			c-0.543,0.1-0.903,0.62-0.805,1.164c0.033,0.183,0.05,0.369,0.049,0.559c0,0.299-0.041,0.596-0.136,0.935
			C13.644,24.598,13.932,25.162,14.457,25.331z M14.269,32.66c-0.467-0.296-1.085-0.158-1.381,0.309
			c-0.296,0.466-0.158,1.084,0.308,1.381c0.681,0.434,1.497,0.66,2.425,0.675c0.006,0,0.011,0,0.017,0
			c0.545,0,0.99-0.438,0.999-0.985c0.009-0.552-0.432-1.007-0.984-1.016S14.633,32.893,14.269,32.66z M24.85,27.089
			c-0.506,0.455-1.007,0.967-1.476,1.452c-0.384,0.398-0.373,1.031,0.024,1.416c0.193,0.188,0.444,0.281,0.694,0.281
			c0.262,0,0.523-0.102,0.72-0.305c0.444-0.461,0.916-0.944,1.374-1.355c0.411-0.37,0.444-1.003,0.076-1.413
			C25.893,26.753,25.262,26.72,24.85,27.089z M10.334,20.948c0.12,0,0.242-0.021,0.36-0.067l0.093-0.034
			c0.496-0.166,0.959-0.219,1.362-0.157c0.539,0.073,1.055-0.296,1.137-0.842c0.081-0.547-0.296-1.056-0.842-1.138
			c-0.7-0.104-1.488-0.029-2.304,0.243l-0.168,0.062c-0.515,0.199-0.771,0.778-0.571,1.295C9.555,20.706,9.933,20.948,10.334,20.948
			z M12.307,27.715c-0.306,0.78-0.522,1.446-0.663,2.037c-0.128,0.537,0.204,1.077,0.741,1.204c0.078,0.019,0.156,0.027,0.232,0.027
			c0.453,0,0.863-0.31,0.973-0.769c0.118-0.498,0.308-1.077,0.578-1.77c0.202-0.514-0.051-1.095-0.565-1.296
			C13.088,26.949,12.508,27.2,12.307,27.715z M31.395,25.735c-0.797-0.366-1.583-0.556-2.337-0.562c-0.003,0-0.006,0-0.008,0
			c-0.549,0-0.996,0.443-1,0.993c-0.005,0.552,0.439,1.004,0.991,1.009c0.477,0.004,0.973,0.128,1.519,0.379
			c0.136,0.062,0.277,0.091,0.417,0.091c0.379,0,0.741-0.216,0.909-0.583C32.116,26.561,31.896,25.967,31.395,25.735z
			 M49.374,23.578c-0.539,0.121-0.878,0.656-0.757,1.195c0.144,0.642,0.255,1.272,0.33,1.874c0.062,0.507,0.493,0.878,0.99,0.878
			c0.042,0,0.083-0.002,0.125-0.008c0.548-0.068,0.938-0.567,0.869-1.116c-0.083-0.667-0.205-1.362-0.363-2.065
			C50.447,23.795,49.911,23.456,49.374,23.578z M40.771,12.989l3.213,1.071l-1.548,3.475c-0.226,0.504,0.001,1.097,0.506,1.321
			c0.132,0.06,0.271,0.087,0.406,0.087c0.383,0,0.748-0.221,0.914-0.594l1.628-3.652l2.881,0.961
			c0.105,0.035,0.212,0.052,0.316,0.052c0.419,0,0.81-0.265,0.949-0.685c0.175-0.524-0.108-1.091-0.633-1.266l-2.695-0.898
			l1.031-2.313c0.225-0.504-0.002-1.097-0.506-1.321C46.729,9,46.137,9.228,45.913,9.733l-1.111,2.491l-3.398-1.134
			c-0.525-0.177-1.091,0.108-1.265,0.633C39.964,12.248,40.247,12.815,40.771,12.989z M38,4h-2L20,0h-2L0,4v44l18-4h2l16,4h2l18-4V0
			L38,4z M18,42h-0.22l-0.214,0.048L2,45.507V5.604l16-3.556V42z M36,29.176c-0.368-0.332-0.736-0.666-1.108-0.988
			c-0.42-0.36-1.05-0.314-1.411,0.104c-0.36,0.419-0.314,1.05,0.104,1.411c0.476,0.411,0.945,0.837,1.476,1.317
			c0.185,0.166,0.408,0.247,0.633,0.247c0.104,0,0.207-0.033,0.308-0.067v14.739L20.484,42.06L20.246,42H20v-8.138
			c0.343-0.172,0.667-0.35,0.945-0.522c0.286-0.178,0.562-0.368,0.83-0.568c0.441-0.332,0.531-0.959,0.2-1.401
			s-0.958-0.531-1.399-0.202c-0.187,0.141-0.38,0.27-0.576,0.396V2.062L35.516,5.94L35.754,6H36V29.176z M54,42.396l-16,3.556
			V33.448c0.059,0.078,0.116,0.157,0.199,0.218c0.629,0.458,1.222,0.833,1.812,1.145c0.148,0.078,0.309,0.115,0.466,0.115
			c0.359,0,0.706-0.193,0.885-0.533c0.258-0.489,0.071-1.095-0.417-1.353c-0.504-0.267-1.017-0.591-1.567-0.992
			C38.938,31.73,38.329,31.822,38,32.25V6h0.22l0.215-0.048L54,2.493V42.396z M48.767,21.667c0.51-0.211,0.752-0.797,0.541-1.308
			c-0.276-0.666-0.577-1.306-0.895-1.899c-0.261-0.488-0.865-0.671-1.354-0.411c-0.486,0.262-0.67,0.867-0.41,1.354
			c0.287,0.537,0.56,1.116,0.811,1.722c0.159,0.386,0.531,0.618,0.924,0.618C48.512,21.743,48.642,21.719,48.767,21.667z
			 M50.08,29.526c-0.543-0.096-1.063,0.263-1.161,0.808c-0.112,0.618-0.286,1.168-0.518,1.632c-0.246,0.495-0.045,1.096,0.449,1.343
			c0.144,0.071,0.295,0.104,0.445,0.104c0.367,0,0.721-0.203,0.896-0.554c0.316-0.635,0.55-1.364,0.695-2.17
			C50.985,30.146,50.624,29.625,50.08,29.526z M46.049,33.846c-0.124,0.031-0.253,0.054-0.386,0.072
			c-0.365,0.053-0.731,0.079-1.079,0.079l-0.26-0.005c-0.547-0.028-1.014,0.417-1.031,0.969c-0.018,0.553,0.416,1.015,0.969,1.031
			l0.312,0.007c0.452,0,0.913-0.033,1.372-0.099c0.194-0.028,0.382-0.063,0.562-0.105c0.538-0.128,0.87-0.667,0.743-1.205
			S46.585,33.725,46.049,33.846z"/>
	</g>
</g>
<g>
</g>
<g>
</g>
<g>
</g>
<g>
</g>
<g>
</g>
<g>
</g>
<g>
</g>
<g>
</g>
<g>
</g>
<g>
</g>
<g>
</g>
<g>
</g>
<g>
</g>
<g>
</g>
<g>
</g>
</svg>
