<?xml version="1.0" encoding="iso-8859-1"?>
<!-- Generator: Adobe Illustrator 16.0.4, SVG Export Plug-In . SVG Version: 6.00 Build 0)  -->
<!DOCTYPE svg PUBLIC "-//W3C//DTD SVG 1.1//EN" "http://www.w3.org/Graphics/SVG/1.1/DTD/svg11.dtd">
<svg version="1.1" id="Layer_1" xmlns="http://www.w3.org/2000/svg" xmlns:xlink="http://www.w3.org/1999/xlink" x="0px" y="0px"
	 width="52px" height="56px" viewBox="0 0 52 56" style="enable-background:new 0 0 52 56;" xml:space="preserve">
<g id="_x39_95-martini-glass_x40_2x.png">
	<g>
		<path d="M51.692,5.722L51.69,5.719C51.88,5.537,52,5.283,52,5c0-0.552-0.447-1-1-1H36.202l1.63-2.445l-0.016-0.01
			C37.923,1.386,38,1.205,38,1c0-0.553-0.447-1-1-1c-0.347,0-0.638,0.188-0.816,0.455l-0.016-0.01L33.798,4H1C0.447,4,0,4.448,0,5
			c0,0.283,0.12,0.537,0.311,0.719L0.308,5.722L25,29.427V54H11c-0.553,0-1,0.448-1,1c0,0.553,0.447,1,1,1h30c0.553,0,1-0.447,1-1
			c0-0.552-0.447-1-1-1H27V29.427L51.692,5.722z M34.868,6h13.646l-7.093,6.809c-0.829,0.262-5.895,1.736-11.085,0.992
			c-0.106-0.161-0.246-0.297-0.375-0.441L34.868,6z M3.485,6h28.979l-4.164,6.245C27.891,12.102,27.46,12,27,12
			c-0.568,0-1.106,0.122-1.596,0.336c-8.014-3.163-14.509,0.277-14.798,0.401l0.071,0.167L3.485,6z M29,16c0,1.104-0.896,2-2,2
			s-2-0.896-2-2s0.896-2,2-2S29,14.896,29,16z M26,27.613L12.086,14.256c1.674-0.705,6.209-2.184,11.568-0.438
			C23.243,14.445,23,15.193,23,16c0,1.052,0.414,2.001,1.078,2.715l-1.098,3.283l2.636-2.259C26.049,19.899,26.512,20,27,20
			c2.209,0,4-1.791,4-4c0-0.055-0.014-0.106-0.016-0.16c2.368,0.245,4.996,0.174,7.564-0.272L26,27.613z"/>
	</g>
</g>
<g>
</g>
<g>
</g>
<g>
</g>
<g>
</g>
<g>
</g>
<g>
</g>
<g>
</g>
<g>
</g>
<g>
</g>
<g>
</g>
<g>
</g>
<g>
</g>
<g>
</g>
<g>
</g>
<g>
</g>
</svg>
