<?xml version="1.0" encoding="iso-8859-1"?>
<!-- Generator: Adobe Illustrator 16.0.4, SVG Export Plug-In . SVG Version: 6.00 Build 0)  -->
<!DOCTYPE svg PUBLIC "-//W3C//DTD SVG 1.1//EN" "http://www.w3.org/Graphics/SVG/1.1/DTD/svg11.dtd">
<svg version="1.1" id="Layer_1" xmlns="http://www.w3.org/2000/svg" xmlns:xlink="http://www.w3.org/1999/xlink" x="0px" y="0px"
	 width="48px" height="56px" viewBox="0 0 48 56" style="enable-background:new 0 0 48 56;" xml:space="preserve">
<g id="_x39_34-measuring-cup_x40_2x.png">
	<g>
		<path d="M47,0h-1h-2v52c0,1.104-0.896,2-2,2H6c-1.104,0-2-0.896-2-2v-4h5c0.553,0,1-0.447,1-1c0-0.552-0.447-1-1-1H4v-6h9
			c0.553,0,1-0.447,1-1c0-0.552-0.447-1-1-1H4v-6h5c0.553,0,1-0.447,1-1c0-0.552-0.447-1-1-1H4v-6h9c0.553,0,1-0.447,1-1
			s-0.447-1-1-1H4v-6h5c0.553,0,1-0.447,1-1s-0.447-1-1-1H4V8h9c0.553,0,1-0.447,1-1s-0.447-1-1-1H4V0H2H1C0.447,0,0,0.448,0,1
			c0,0.553,0.447,1,1,1h1v50c0,2.209,1.791,4,4,4h36c2.209,0,4-1.791,4-4V2h1c0.553,0,1-0.447,1-1C48,0.448,47.553,0,47,0z"/>
	</g>
</g>
<g>
</g>
<g>
</g>
<g>
</g>
<g>
</g>
<g>
</g>
<g>
</g>
<g>
</g>
<g>
</g>
<g>
</g>
<g>
</g>
<g>
</g>
<g>
</g>
<g>
</g>
<g>
</g>
<g>
</g>
</svg>
