<?xml version="1.0" encoding="iso-8859-1"?>
<!-- Generator: Adobe Illustrator 16.0.4, SVG Export Plug-In . SVG Version: 6.00 Build 0)  -->
<!DOCTYPE svg PUBLIC "-//W3C//DTD SVG 1.1//EN" "http://www.w3.org/Graphics/SVG/1.1/DTD/svg11.dtd">
<svg version="1.1" id="Layer_1" xmlns="http://www.w3.org/2000/svg" xmlns:xlink="http://www.w3.org/1999/xlink" x="0px" y="0px"
	 width="36px" height="44px" viewBox="0 0 36 44" style="enable-background:new 0 0 36 44;" xml:space="preserve">
<g id="_x39_70-medal-toolbar_x40_2x.png">
	<g>
		<path d="M25.018,19.003c0,0.544,0.441,0.986,0.987,0.986c0.121,0,0.233-0.029,0.34-0.069l0.007,0.017l8-3l-0.002-0.003
			c0.371-0.145,0.637-0.505,0.637-0.934V1.004c-0.001-0.549-0.435-0.991-0.973-1.001V0h-8.024v0.004
			c-0.537,0.009-0.971,0.451-0.972,1h-0.032v17.983h0.035C25.021,18.993,25.018,18.997,25.018,19.003z M26.993,2.012h6.018v13.291
			l-6.018,2.257V2.012z M1.65,16.934l-0.002,0.003l8,3l0.007-0.017c0.106,0.04,0.219,0.069,0.34,0.069
			c0.546,0,0.987-0.442,0.987-0.986c0-0.006-0.003-0.01-0.003-0.016h0.035V1.004h-0.032c-0.001-0.549-0.434-0.991-0.972-1V0H1.986
			v0.003c-0.538,0.01-0.972,0.452-0.973,1.001V16C1.014,16.429,1.279,16.789,1.65,16.934z M2.99,2.012h6.017V17.56L2.99,15.303
			V2.012z M36,23.006c0-0.553-0.447-1-1-1.004V22H23.687l-0.683-1.776V1.004h-0.001c0-0.554-0.45-1.003-1.006-1.004h-7.994
			c-0.556,0.001-1.005,0.45-1.006,1.004h-0.001v19.22L12.313,22H1v0.002c-0.553,0.004-1,0.451-1,1.004
			c0,0.314,0.153,0.584,0.381,0.769l-0.006,0.007l9.456,7.564L6.052,42.684l0.044,0.015c-0.032,0.097-0.078,0.188-0.078,0.296
			C6.018,43.55,6.46,44,7.005,44c0.196,0,0.368-0.072,0.521-0.173l0.011,0.017L18,37.186l10.463,6.658l0.011-0.017
			C28.627,43.928,28.799,44,28.995,44c0.546,0,0.987-0.45,0.987-1.006c0-0.108-0.046-0.199-0.078-0.296l0.045-0.015l-3.78-11.338
			l9.456-7.564l-0.006-0.007C35.847,23.59,36,23.32,36,23.006z M15.011,2.012h5.979v12.976l-2.051-5.334
			C18.797,9.268,18.436,8.988,18,8.988c-0.435,0-0.797,0.279-0.938,0.665l-2.052,5.334V2.012z M24.375,30.219l0.021,0.026
			c-0.226,0.181-0.379,0.446-0.379,0.758c0,0.107,0.029,0.207,0.062,0.304l-0.027,0.01l3.109,9.328l-8.624-5.488l-0.013,0.02
			c-0.155-0.095-0.328-0.164-0.524-0.164s-0.369,0.069-0.524,0.164l-0.013-0.02L8.84,40.645l3.108-9.328l-0.027-0.01
			c0.032-0.097,0.062-0.196,0.062-0.304c0-0.312-0.153-0.577-0.379-0.758l0.021-0.026L3.851,24h9.089
			c0.021,0.001,0.037,0.012,0.057,0.012c0.432,0,0.792-0.273,0.937-0.653l0.001,0.001L18,12.786l4.066,10.573l0.002-0.001
			c0.144,0.38,0.504,0.653,0.936,0.653c0.02,0,0.036-0.011,0.057-0.012h9.089L24.375,30.219z"/>
	</g>
</g>
<g>
</g>
<g>
</g>
<g>
</g>
<g>
</g>
<g>
</g>
<g>
</g>
<g>
</g>
<g>
</g>
<g>
</g>
<g>
</g>
<g>
</g>
<g>
</g>
<g>
</g>
<g>
</g>
<g>
</g>
</svg>
