<?xml version="1.0" encoding="UTF-8" standalone="no"?>
<svg width="58px" height="58px" viewBox="0 0 58 58" version="1.1" xmlns="http://www.w3.org/2000/svg" xmlns:xlink="http://www.w3.org/1999/xlink" xmlns:sketch="http://www.bohemiancoding.com/sketch/ns">
    <!-- Generator: Sketch 3.0.4 (8053) - http://www.bohemiancoding.com/sketch -->
    <title>1296-meetup</title>
    <desc>Created with Sketch.</desc>
    <defs></defs>
    <g id="Page-1" stroke="none" stroke-width="1" fill="none" fill-rule="evenodd" sketch:type="MSPage">
        <g id="Glyphish-8-Icons" sketch:type="MSArtboardGroup" transform="translate(-500.000000, -1843.000000)" fill="#000000">
            <g id="1296-meetup" sketch:type="MSLayerGroup" transform="translate(500.036996, 1843.860499)">
                <g id="_x31_296-meetup_x40_2x.png" sketch:type="MSShapeGroup">
                    <path d="M38.595,24.622 L35.19,14.742 L31.785,14.01 L29.514,14.376 L26.109,24.622 L25.73,28.646 L19.676,18.766 L17.784,18.4 C15.514,18.4 14,19.499 14,19.499 L14,33.038 L14.757,37.429 L15.514,38.893 L18.541,38.528 L20.811,37.064 L20.054,31.209 L25.73,38.894 L27.622,38.163 L30.271,38.163 L31.406,35.601 L31.406,29.38 L32.163,24.623 L37.082,39.991 L39.73,39.991 L42,38.893 L38.973,26.818 L38.595,24.622 L38.595,24.622 Z M28,0 C12.536,0 0,12.536 0,28 C0,43.464 12.536,56 28,56 C43.464,56 56,43.464 56,28 C56,12.536 43.464,0 28,0 L28,0 Z M28,54 C13.641,54 2,42.359 2,28 C2,13.641 13.641,2 28,2 C42.359,2 54,13.641 54,28 C54,42.359 42.359,54 28,54 L28,54 Z" id="Shape"></path>
                </g>
            </g>
        </g>
    </g>
</svg>