<?xml version="1.0" encoding="iso-8859-1"?>
<!-- Generator: Adobe Illustrator 16.0.4, SVG Export Plug-In . SVG Version: 6.00 Build 0)  -->
<!DOCTYPE svg PUBLIC "-//W3C//DTD SVG 1.1//EN" "http://www.w3.org/Graphics/SVG/1.1/DTD/svg11.dtd">
<svg version="1.1" id="Layer_1" xmlns="http://www.w3.org/2000/svg" xmlns:xlink="http://www.w3.org/1999/xlink" x="0px" y="0px"
	 width="44px" height="44px" viewBox="0 0 44 44" style="enable-background:new 0 0 44 44;" xml:space="preserve">
<g id="_x31_296-meetup_x40_2x.png">
	<g>
		<path d="M30.324,19.346l-2.676-7.763l-2.676-0.575l-1.783,0.287l-2.676,8.051l-0.298,3.163l-4.757-7.764l-1.486-0.287
			C12.189,14.458,11,15.32,11,15.32v10.639l0.595,3.449l0.595,1.15l2.378-0.287l1.784-1.15l-0.595-4.6l4.459,6.037l1.487-0.575
			h2.081l0.892-2.013v-4.888l0.595-3.737l3.864,12.075h2.081L33,30.559l-2.378-9.488L30.324,19.346z M22,0C9.85,0,0,9.85,0,22
			s9.85,22,22,22s22-9.85,22-22S34.15,0,22,0z M22,42C10.954,42,2,33.046,2,22S10.954,2,22,2s20,8.954,20,20S33.046,42,22,42z"/>
	</g>
</g>
<g>
</g>
<g>
</g>
<g>
</g>
<g>
</g>
<g>
</g>
<g>
</g>
<g>
</g>
<g>
</g>
<g>
</g>
<g>
</g>
<g>
</g>
<g>
</g>
<g>
</g>
<g>
</g>
<g>
</g>
</svg>
