<?xml version="1.0" encoding="iso-8859-1"?>
<!-- Generator: Adobe Illustrator 16.0.4, SVG Export Plug-In . SVG Version: 6.00 Build 0)  -->
<!DOCTYPE svg PUBLIC "-//W3C//DTD SVG 1.1//EN" "http://www.w3.org/Graphics/SVG/1.1/DTD/svg11.dtd">
<svg version="1.1" id="Layer_1" xmlns="http://www.w3.org/2000/svg" xmlns:xlink="http://www.w3.org/1999/xlink" x="0px" y="0px"
	 width="44px" height="36px" viewBox="0 0 44 36" style="enable-background:new 0 0 44 36;" xml:space="preserve">
<g id="_x37_58-megaphone-toolbar_x40_2x.png">
	<g>
		<path d="M40,0c-2.209,0-4,1.791-4,4L7.239,11.67C6.513,10.662,5.337,10,4,10c-2.209,0-4,1.791-4,4v6c0,2.209,1.791,4,4,4
			c1.307,0,2.456-0.636,3.186-1.604l6.24,2.08l-0.23,0.691c-0.699,2.096,0.433,4.361,2.527,5.061l7.589,2.533
			c2.096,0.699,4.361-0.433,5.061-2.528l0.233-0.697L36,32c0,2.21,1.791,4,4,4s4-1.79,4-4V4C44,1.791,42.209,0,40,0z M6,20
			c0,1.104-0.896,2-2,2s-2-0.896-2-2v-6c0-1.104,0.896-2,2-2s2,0.896,2,2V20z M26.475,29.6c-0.35,1.048-1.482,1.613-2.53,1.264
			l-7.588-2.532c-1.048-0.35-1.614-1.482-1.265-2.53l0.231-0.693l11.385,3.795L26.475,29.6z M36,30L7.936,20.645
			C7.97,20.434,8,20.221,8,20v-6c0-0.178-0.029-0.348-0.053-0.52L36,6V30z M42,32c0,1.104-0.896,2-2,2s-2-0.896-2-2V4
			c0-1.104,0.896-2,2-2s2,0.896,2,2V32z"/>
	</g>
</g>
<g>
</g>
<g>
</g>
<g>
</g>
<g>
</g>
<g>
</g>
<g>
</g>
<g>
</g>
<g>
</g>
<g>
</g>
<g>
</g>
<g>
</g>
<g>
</g>
<g>
</g>
<g>
</g>
<g>
</g>
</svg>
