<?xml version="1.0" encoding="iso-8859-1"?>
<!-- Generator: Adobe Illustrator 16.0.4, SVG Export Plug-In . SVG Version: 6.00 Build 0)  -->
<!DOCTYPE svg PUBLIC "-//W3C//DTD SVG 1.1//EN" "http://www.w3.org/Graphics/SVG/1.1/DTD/svg11.dtd">
<svg version="1.1" id="Layer_1" xmlns="http://www.w3.org/2000/svg" xmlns:xlink="http://www.w3.org/1999/xlink" x="0px" y="0px"
	 width="56px" height="44px" viewBox="0 0 56 44" style="enable-background:new 0 0 56 44;" xml:space="preserve">
<g id="_x37_58-megaphone_x40_2x.png">
	<g>
		<path d="M52,0c-2.209,0-4,1.791-4,4L7.224,15.65C6.496,14.654,5.328,14,4,14c-2.209,0-4,1.791-4,4v6c0,2.209,1.791,4,4,4
			c1.307,0,2.456-0.636,3.186-1.604l8.041,2.681l-1.031,3.091c-0.699,2.096,0.432,4.361,2.527,5.061l7.589,2.533
			c2.096,0.699,4.361-0.433,5.061-2.528l1.034-3.097L48,40c0,2.209,1.791,4,4,4s4-1.791,4-4V4C56,1.791,54.209,0,52,0z M6,24
			c0,1.104-0.896,2-2,2s-2-0.896-2-2v-6c0-1.104,0.896-2,2-2s2,0.896,2,2V24z M27.475,36.6c-0.35,1.048-1.482,1.613-2.53,1.264
			l-7.588-2.532c-1.048-0.351-1.614-1.482-1.265-2.53l1.032-3.093l11.385,3.795L27.475,36.6z M48,38L7.935,24.645
			C7.97,24.434,8,24.221,8,24v-6c0-0.19-0.03-0.372-0.056-0.556L48,6V38z M54,40c0,1.104-0.896,2-2,2s-2-0.896-2-2V4
			c0-1.104,0.896-2,2-2s2,0.896,2,2V40z"/>
	</g>
</g>
<g>
</g>
<g>
</g>
<g>
</g>
<g>
</g>
<g>
</g>
<g>
</g>
<g>
</g>
<g>
</g>
<g>
</g>
<g>
</g>
<g>
</g>
<g>
</g>
<g>
</g>
<g>
</g>
<g>
</g>
</svg>
