<?xml version="1.0" encoding="iso-8859-1"?>
<!-- Generator: Adobe Illustrator 16.0.4, SVG Export Plug-In . SVG Version: 6.00 Build 0)  -->
<!DOCTYPE svg PUBLIC "-//W3C//DTD SVG 1.1//EN" "http://www.w3.org/Graphics/SVG/1.1/DTD/svg11.dtd">
<svg version="1.1" id="Layer_1" xmlns="http://www.w3.org/2000/svg" xmlns:xlink="http://www.w3.org/1999/xlink" x="0px" y="0px"
	 width="36px" height="44px" viewBox="0 0 36 44" style="enable-background:new 0 0 36 44;" xml:space="preserve">
<g id="_x31_082-merge-toolbar_x40_2x.png">
	<g>
		<path d="M10,5c0-2.762-2.238-5-5-5S0,2.238,0,5c0,2.419,1.718,4.436,4,4.899v24.201C1.718,34.564,0,36.581,0,39
			c0,2.762,2.238,5,5,5s5-2.238,5-5c0-2.419-1.718-4.436-4-4.899V9.899C8.282,9.436,10,7.419,10,5z M8,39c0,1.657-1.343,3-3,3
			s-3-1.343-3-3c0-1.656,1.343-3,3-3S8,37.344,8,39z M5,8C3.343,8,2,6.657,2,5c0-1.656,1.343-3,3-3s3,1.344,3,3C8,6.657,6.657,8,5,8
			z M32,34.101V12c0-4.418-3.582-8-8-8h-6.586l2.293-2.293C19.888,1.526,20,1.276,20,1c0-0.552-0.447-1-1-1
			c-0.276,0-0.526,0.112-0.707,0.293l-4,4C14.112,4.474,14,4.724,14,5s0.112,0.526,0.293,0.707l4,4C18.474,9.889,18.724,10,19,10
			c0.553,0,1-0.447,1-1c0-0.276-0.112-0.526-0.293-0.707L17.414,6H24c3.313,0,6,2.687,6,6v22.101c-2.282,0.464-4,2.48-4,4.899
			c0,2.762,2.238,5,5,5s5-2.238,5-5C36,36.581,34.282,34.564,32,34.101z M31,42c-1.657,0-3-1.343-3-3c0-1.656,1.343-3,3-3
			s3,1.344,3,3C34,40.657,32.657,42,31,42z"/>
	</g>
</g>
<g>
</g>
<g>
</g>
<g>
</g>
<g>
</g>
<g>
</g>
<g>
</g>
<g>
</g>
<g>
</g>
<g>
</g>
<g>
</g>
<g>
</g>
<g>
</g>
<g>
</g>
<g>
</g>
<g>
</g>
</svg>
