<?xml version="1.0" encoding="iso-8859-1"?>
<!-- Generator: Adobe Illustrator 16.0.4, SVG Export Plug-In . SVG Version: 6.00 Build 0)  -->
<!DOCTYPE svg PUBLIC "-//W3C//DTD SVG 1.1//EN" "http://www.w3.org/Graphics/SVG/1.1/DTD/svg11.dtd">
<svg version="1.1" id="Layer_1" xmlns="http://www.w3.org/2000/svg" xmlns:xlink="http://www.w3.org/1999/xlink" x="0px" y="0px"
	 width="56px" height="32px" viewBox="0 0 56 32" style="enable-background:new 0 0 56 32;" xml:space="preserve">
<g id="_x31_014-messenger-bag_x40_2x.png">
	<g>
		<path d="M48,3.358V2c0-1.104-0.896-2-2-2h-3.999H42H14h-0.001H10C8.896,0,8,0.896,8,2v1.358C6.006,4.341,0,7.964,0,16
			c0,7.59,5.398,9.836,5.628,9.929C5.75,25.978,5.875,26,5.998,26c0.395,0,0.768-0.236,0.925-0.624
			c0.208-0.511-0.038-1.092-0.546-1.304C6.198,24,2,22.189,2,16C2,9.941,5.872,6.852,8,5.609V30c0,1.104,0.896,2,2,2h36
			c1.104,0,2-0.896,2-2V5.609C50.128,6.852,54,9.941,54,16c0,6.189-4.198,8-4.377,8.072c-0.508,0.212-0.754,0.793-0.546,1.304
			C49.234,25.764,49.607,26,50.002,26c0.123,0,0.248-0.022,0.37-0.071C50.602,25.836,56,23.59,56,16C56,7.964,49.994,4.341,48,3.358
			z M14,2h28v20H14V2z M46,30H10V2h2v20c0,1.104,0.896,2,2,2h28c1.104,0,2-0.896,2-2V2h2V30z"/>
	</g>
</g>
<g>
</g>
<g>
</g>
<g>
</g>
<g>
</g>
<g>
</g>
<g>
</g>
<g>
</g>
<g>
</g>
<g>
</g>
<g>
</g>
<g>
</g>
<g>
</g>
<g>
</g>
<g>
</g>
<g>
</g>
</svg>
