<?xml version="1.0" encoding="iso-8859-1"?>
<!-- Generator: Adobe Illustrator 16.0.4, SVG Export Plug-In . SVG Version: 6.00 Build 0)  -->
<!DOCTYPE svg PUBLIC "-//W3C//DTD SVG 1.1//EN" "http://www.w3.org/Graphics/SVG/1.1/DTD/svg11.dtd">
<svg version="1.1" id="Layer_1" xmlns="http://www.w3.org/2000/svg" xmlns:xlink="http://www.w3.org/1999/xlink" x="0px" y="0px"
	 width="44px" height="24px" viewBox="0 0 44 24" style="enable-background:new 0 0 44 24;" xml:space="preserve">
<g id="_x31_014-messenger-bag-toolbar_x40_2x.png">
	<g>
		<path d="M36,3.321V2c0-1.104-0.896-2-2-2h-3.999H30H14h-0.001H10C8.896,0,8,0.896,8,2v1.321C6.006,4.174,0,7.291,0,14
			c0,7.999,5.398,7.836,5.628,7.929C5.75,21.978,5.875,22,5.998,22c0.395,0,0.768-0.236,0.925-0.624
			c0.208-0.511-0.038-1.092-0.546-1.304C6.198,20,2,20,2,14c0-4.455,3.872-7.221,6-8.401V22c0,1.104,0.896,2,2,2h24
			c1.104,0,2-0.896,2-2V5.599c2.128,1.181,6,3.946,6,8.401c0,6-4.198,6-4.377,6.072c-0.508,0.212-0.754,0.793-0.546,1.304
			C37.234,21.764,37.607,22,38.002,22c0.123,0,0.248-0.022,0.37-0.071C38.602,21.836,44,21.999,44,14
			C44,7.291,37.994,4.175,36,3.321z M14,2h16v12H14V2z M34,22H10V2h2v12c0,1.104,0.896,2,2,2h16c1.104,0,2-0.896,2-2V2h2V22z"/>
	</g>
</g>
<g>
</g>
<g>
</g>
<g>
</g>
<g>
</g>
<g>
</g>
<g>
</g>
<g>
</g>
<g>
</g>
<g>
</g>
<g>
</g>
<g>
</g>
<g>
</g>
<g>
</g>
<g>
</g>
<g>
</g>
</svg>
