<?xml version="1.0" encoding="iso-8859-1"?>
<!-- Generator: Adobe Illustrator 16.0.4, SVG Export Plug-In . SVG Version: 6.00 Build 0)  -->
<!DOCTYPE svg PUBLIC "-//W3C//DTD SVG 1.1//EN" "http://www.w3.org/Graphics/SVG/1.1/DTD/svg11.dtd">
<svg version="1.1" id="Layer_1" xmlns="http://www.w3.org/2000/svg" xmlns:xlink="http://www.w3.org/1999/xlink" x="0px" y="0px"
	 width="56px" height="56px" viewBox="0 0 56 56" style="enable-background:new 0 0 56 56;" xml:space="preserve">
<g id="_x38_25-microphone_x40_2x.png">
	<g>
		<path d="M25.961,33.493l8.052-7.263l-4.243-4.242l-7.262,8.051L25.961,33.493z M43.723,27.309l-0.016-0.016L28.723,12.309
			l-0.003,0.003C28.538,12.121,28.284,12,28,12c-0.335,0-0.617,0.176-0.799,0.429l-0.019-0.015L0.214,46.383l0.013,0.01
			C0.093,46.562,0,46.768,0,47c0,0.276,0.112,0.526,0.293,0.707l8,8C8.474,55.888,8.724,56,9,56c0.234,0,0.44-0.093,0.61-0.228
			l0.01,0.012l34-26.999l-0.01-0.013C43.842,28.589,44,28.318,44,28c0-0.268-0.108-0.509-0.28-0.688L43.723,27.309z M9.076,53.662
			l-6.738-6.738l25.744-32.427L41.5,27.914L9.076,53.662z M43,0c-5.848,0-10.792,3.862-12.426,9.174L30.59,9.18
			c-0.029,0.093-0.059,0.187-0.059,0.289c0,0.276,0.112,0.526,0.293,0.707l15,15c0.181,0.181,0.431,0.293,0.707,0.293
			c0.097,0,0.185-0.029,0.273-0.055l0.005,0.016C52.13,23.801,56,18.854,56,13C56,5.82,50.18,0,43,0z M46.773,23.297l-14.07-14.07
			C34.247,5.019,38.257,2,43,2c6.075,0,11,4.925,11,11C54,17.744,50.981,21.753,46.773,23.297z"/>
	</g>
</g>
<g>
</g>
<g>
</g>
<g>
</g>
<g>
</g>
<g>
</g>
<g>
</g>
<g>
</g>
<g>
</g>
<g>
</g>
<g>
</g>
<g>
</g>
<g>
</g>
<g>
</g>
<g>
</g>
<g>
</g>
</svg>
