<?xml version="1.0" encoding="iso-8859-1"?>
<!-- Generator: Adobe Illustrator 16.0.4, SVG Export Plug-In . SVG Version: 6.00 Build 0)  -->
<!DOCTYPE svg PUBLIC "-//W3C//DTD SVG 1.1//EN" "http://www.w3.org/Graphics/SVG/1.1/DTD/svg11.dtd">
<svg version="1.1" id="Layer_1" xmlns="http://www.w3.org/2000/svg" xmlns:xlink="http://www.w3.org/1999/xlink" x="0px" y="0px"
	 width="32px" height="56px" viewBox="0 0 32 56" style="enable-background:new 0 0 32 56;" xml:space="preserve">
<g id="_x39_46-microphone_x40_2x.png">
	<g>
		<path d="M16,42c6.627,0,12-5.372,12-12V12c0-6.627-5.373-12-12-12S4,5.373,4,12v18C4,36.628,9.373,42,16,42z M6,12
			C6,6.478,10.478,2,16,2s10,4.478,10,10v8H6V12z M6,22h20v8c0,5.522-4.478,10-10,10S6,35.522,6,30V22z M32,30v-9
			c0-0.552-0.447-1-1-1s-1,0.448-1,1v9c0,7.732-6.268,14-14,14S2,37.732,2,30v-9c0-0.552-0.447-1-1-1s-1,0.448-1,1v9
			c0,8.499,6.632,15.431,15,15.949V54H3c-0.553,0-1,0.447-1,1s0.447,1,1,1h12h2h12c0.553,0,1-0.447,1-1s-0.447-1-1-1H17v-8.051
			C25.368,45.431,32,38.499,32,30z"/>
	</g>
</g>
<g>
</g>
<g>
</g>
<g>
</g>
<g>
</g>
<g>
</g>
<g>
</g>
<g>
</g>
<g>
</g>
<g>
</g>
<g>
</g>
<g>
</g>
<g>
</g>
<g>
</g>
<g>
</g>
<g>
</g>
</svg>
