<?xml version="1.0" encoding="iso-8859-1"?>
<!-- Generator: Adobe Illustrator 16.0.4, SVG Export Plug-In . SVG Version: 6.00 Build 0)  -->
<!DOCTYPE svg PUBLIC "-//W3C//DTD SVG 1.1//EN" "http://www.w3.org/Graphics/SVG/1.1/DTD/svg11.dtd">
<svg version="1.1" id="Layer_1" xmlns="http://www.w3.org/2000/svg" xmlns:xlink="http://www.w3.org/1999/xlink" x="0px" y="0px"
	 width="44px" height="44px" viewBox="0 0 44 44" style="enable-background:new 0 0 44 44;" xml:space="preserve">
<g id="_x38_25-microphone-toolbar_x40_2x.png">
	<g>
		<path d="M22.724,10.31C22.541,10.114,22.288,9.988,22,9.988c-0.317,0-0.589,0.157-0.773,0.387l-0.005-0.004L0.302,36.272
			c-0.009,0.01-0.016,0.021-0.024,0.031l-0.056,0.067l0.006,0.005C0.093,36.548,0,36.754,0,36.988c0,0.279,0.114,0.531,0.298,0.714
			l-0.005,0.005l6,6l0.005-0.005C6.48,43.886,6.732,44,7.012,44c0.234,0,0.44-0.093,0.612-0.228l0.004,0.005l0.065-0.053
			c0.012-0.01,0.024-0.017,0.035-0.027l25.899-20.919l-0.003-0.005c0.229-0.185,0.387-0.455,0.387-0.773
			c0-0.288-0.126-0.542-0.321-0.724L22.724,10.31z M7.071,41.657l-4.729-4.729l19.736-24.436l9.428,9.428L7.071,41.657z
			 M20.397,26.315l6.326-5.706l-3.333-3.333l-5.706,6.326L20.397,26.315z M34.004,0c-4.836,0-8.87,3.436-9.795,8h0.037
			c-0.015,0.068-0.041,0.133-0.041,0.206c0,0.267,0.107,0.507,0.279,0.685L24.48,8.895L35.105,19.52l0.004-0.004
			c0.18,0.188,0.431,0.306,0.71,0.306c0.064,0,0.12-0.025,0.181-0.037v0.007c0.048-0.01,0.094-0.024,0.142-0.035
			c0.022-0.008,0.048-0.008,0.07-0.018C40.669,18.732,44,14.757,44,9.996C44,4.476,39.524,0,34.004,0z M36.112,17.698l-9.811-9.811
			c0.934-3.384,4.008-5.88,7.688-5.88c4.42,0,8.003,3.583,8.003,8.003C41.992,13.69,39.496,16.765,36.112,17.698z"/>
	</g>
</g>
<g>
</g>
<g>
</g>
<g>
</g>
<g>
</g>
<g>
</g>
<g>
</g>
<g>
</g>
<g>
</g>
<g>
</g>
<g>
</g>
<g>
</g>
<g>
</g>
<g>
</g>
<g>
</g>
<g>
</g>
</svg>
