<?xml version="1.0" encoding="iso-8859-1"?>
<!-- Generator: Adobe Illustrator 16.0.4, SVG Export Plug-In . SVG Version: 6.00 Build 0)  -->
<!DOCTYPE svg PUBLIC "-//W3C//DTD SVG 1.1//EN" "http://www.w3.org/Graphics/SVG/1.1/DTD/svg11.dtd">
<svg version="1.1" id="Layer_1" xmlns="http://www.w3.org/2000/svg" xmlns:xlink="http://www.w3.org/1999/xlink" x="0px" y="0px"
	 width="28px" height="44px" viewBox="0 0 28 44" style="enable-background:new 0 0 28 44;" xml:space="preserve">
<g id="_x39_46-microphone-toolbar_x40_2x.png">
	<g>
		<path d="M27.996,17c-0.011-0.543-0.45-0.98-0.996-0.98c-0.545,0-0.985,0.438-0.996,0.98H26v5c0,6.628-5.373,12-12,12
			S2,28.628,2,22v-5H1.996C1.985,16.457,1.546,16.02,1,16.02S0.015,16.457,0.004,17H0v5c0,7.395,5.736,13.435,13,13.949V42H7
			c-0.553,0-1,0.447-1,1s0.447,1,1,1h6h2h6c0.553,0,1-0.447,1-1s-0.447-1-1-1h-6v-6.051C22.264,35.435,28,29.395,28,22v-5H27.996z
			 M14,32c5.522,0,10-4.478,10-10V10c0-5.522-4.478-10-10-10S4,4.478,4,10v12C4,27.522,8.478,32,14,32z M6,10c0-4.418,3.582-8,8-8
			s8,3.582,8,8v6.02H6V10z M6,18.019h16V22c0,4.418-3.582,8-8,8s-8-3.582-8-8V18.019z"/>
	</g>
</g>
<g>
</g>
<g>
</g>
<g>
</g>
<g>
</g>
<g>
</g>
<g>
</g>
<g>
</g>
<g>
</g>
<g>
</g>
<g>
</g>
<g>
</g>
<g>
</g>
<g>
</g>
<g>
</g>
<g>
</g>
</svg>
