<?xml version="1.0" encoding="iso-8859-1"?>
<!-- Generator: Adobe Illustrator 16.0.4, SVG Export Plug-In . SVG Version: 6.00 Build 0)  -->
<!DOCTYPE svg PUBLIC "-//W3C//DTD SVG 1.1//EN" "http://www.w3.org/Graphics/SVG/1.1/DTD/svg11.dtd">
<svg version="1.1" id="Layer_1" xmlns="http://www.w3.org/2000/svg" xmlns:xlink="http://www.w3.org/1999/xlink" x="0px" y="0px"
	 width="38px" height="56px" viewBox="0 0 38 56" style="enable-background:new 0 0 38 56;" xml:space="preserve">
<g id="_x38_39-mobile-phone_x40_2x.png">
	<g>
		<path d="M10,34H8c-1.104,0-2,0.896-2,2v2c0,1.104,0.896,2,2,2h2c1.104,0,2-0.896,2-2v-2C12,34.896,11.104,34,10,34z M10,38H8v-2h2
			V38z M14,8h10c0.553,0,1-0.447,1-1c0-0.552-0.447-1-1-1H14c-0.553,0-1,0.448-1,1C13,7.553,13.447,8,14,8z M10,44H8
			c-1.104,0-2,0.896-2,2v2c0,1.104,0.896,2,2,2h2c1.104,0,2-0.896,2-2v-2C12,44.896,11.104,44,10,44z M10,48H8v-2h2V48z M20,34h-2
			c-1.104,0-2,0.896-2,2v2c0,1.104,0.896,2,2,2h2c1.104,0,2-0.896,2-2v-2C22,34.896,21.104,34,20,34z M20,38h-2v-2h2V38z M20,44h-2
			c-1.104,0-2,0.896-2,2v2c0,1.104,0.896,2,2,2h2c1.104,0,2-0.896,2-2v-2C22,44.896,21.104,44,20,44z M20,48h-2v-2h2V48z M34,0H4
			C1.791,0,0,1.791,0,4v48c0,2.209,1.791,4,4,4h30c2.209,0,4-1.791,4-4V4C38,1.791,36.209,0,34,0z M36,52c0,1.104-0.896,2-2,2H4
			c-1.104,0-2-0.896-2-2V4c0-1.104,0.896-2,2-2h30c1.104,0,2,0.896,2,2V52z M30,12H8c-1.104,0-2,0.896-2,2v14c0,1.104,0.896,2,2,2
			h22c1.104,0,2-0.896,2-2V14C32,12.896,31.104,12,30,12z M30,28H8V14h22V28z M30,34h-2c-1.104,0-2,0.896-2,2v2c0,1.104,0.896,2,2,2
			h2c1.104,0,2-0.896,2-2v-2C32,34.896,31.104,34,30,34z M30,38h-2v-2h2V38z M30,44h-2c-1.104,0-2,0.896-2,2v2c0,1.104,0.896,2,2,2
			h2c1.104,0,2-0.896,2-2v-2C32,44.896,31.104,44,30,44z M30,48h-2v-2h2V48z"/>
	</g>
</g>
<g>
</g>
<g>
</g>
<g>
</g>
<g>
</g>
<g>
</g>
<g>
</g>
<g>
</g>
<g>
</g>
<g>
</g>
<g>
</g>
<g>
</g>
<g>
</g>
<g>
</g>
<g>
</g>
<g>
</g>
</svg>
