<?xml version="1.0" encoding="iso-8859-1"?>
<!-- Generator: Adobe Illustrator 16.0.4, SVG Export Plug-In . SVG Version: 6.00 Build 0)  -->
<!DOCTYPE svg PUBLIC "-//W3C//DTD SVG 1.1//EN" "http://www.w3.org/Graphics/SVG/1.1/DTD/svg11.dtd">
<svg version="1.1" id="Layer_1" xmlns="http://www.w3.org/2000/svg" xmlns:xlink="http://www.w3.org/1999/xlink" x="0px" y="0px"
	 width="32px" height="44px" viewBox="0 0 32 44" style="enable-background:new 0 0 32 44;" xml:space="preserve">
<g id="_x38_39-mobile-phone-toolbar_x40_2x.png">
	<g>
		<path d="M9,25H7c-1.104,0-2,0.896-2,2v2c0,1.104,0.896,2,2,2h2c1.104,0,2-0.896,2-2v-2C11,25.896,10.104,25,9,25z M9,29H7v-2h2V29
			z M25,33h-2c-1.104,0-2,0.896-2,2v2c0,1.104,0.896,2,2,2h2c1.104,0,2-0.896,2-2v-2C27,33.896,26.104,33,25,33z M25,37h-2v-2h2V37z
			 M9,33H7c-1.104,0-2,0.896-2,2v2c0,1.104,0.896,2,2,2h2c1.104,0,2-0.896,2-2v-2C11,33.896,10.104,33,9,33z M9,37H7v-2h2V37z M13,6
			h6c0.553,0,1-0.447,1-1c0-0.552-0.447-1-1-1h-6c-0.553,0-1,0.448-1,1C12,5.553,12.447,6,13,6z M28,0H4C1.791,0,0,1.791,0,4v36
			c0,2.209,1.791,4,4,4h24c2.209,0,4-1.791,4-4V4C32,1.791,30.209,0,28,0z M30,40c0,1.104-0.896,2-2,2H4c-1.104,0-2-0.896-2-2V4
			c0-1.104,0.896-2,2-2h24c1.104,0,2,0.896,2,2V40z M25,8H7c-1.104,0-2,0.896-2,2v11c0,1.104,0.896,2,2,2h18c1.104,0,2-0.896,2-2V10
			C27,8.896,26.104,8,25,8z M25,21H7V10h18V21z M17,25h-2c-1.104,0-2,0.896-2,2v2c0,1.104,0.896,2,2,2h2c1.104,0,2-0.896,2-2v-2
			C19,25.896,18.104,25,17,25z M17,29h-2v-2h2V29z M25,25h-2c-1.104,0-2,0.896-2,2v2c0,1.104,0.896,2,2,2h2c1.104,0,2-0.896,2-2v-2
			C27,25.896,26.104,25,25,25z M25,29h-2v-2h2V29z M17,33h-2c-1.104,0-2,0.896-2,2v2c0,1.104,0.896,2,2,2h2c1.104,0,2-0.896,2-2v-2
			C19,33.896,18.104,33,17,33z M17,37h-2v-2h2V37z"/>
	</g>
</g>
<g>
</g>
<g>
</g>
<g>
</g>
<g>
</g>
<g>
</g>
<g>
</g>
<g>
</g>
<g>
</g>
<g>
</g>
<g>
</g>
<g>
</g>
<g>
</g>
<g>
</g>
<g>
</g>
<g>
</g>
</svg>
