<?xml version="1.0" encoding="iso-8859-1"?>
<!-- Generator: Adobe Illustrator 16.0.4, SVG Export Plug-In . SVG Version: 6.00 Build 0)  -->
<!DOCTYPE svg PUBLIC "-//W3C//DTD SVG 1.1//EN" "http://www.w3.org/Graphics/SVG/1.1/DTD/svg11.dtd">
<svg version="1.1" id="Layer_1" xmlns="http://www.w3.org/2000/svg" xmlns:xlink="http://www.w3.org/1999/xlink" x="0px" y="0px"
	 width="44px" height="40px" viewBox="0 0 44 40" style="enable-background:new 0 0 44 40;" xml:space="preserve">
<g id="_x38_26-money-1-toolbar_x40_2x.png">
	<g>
		<path d="M12.977,9.129C13.306,9.393,13.5,9.687,13.5,10c0,1.104-2.187,2-5.5,2s-5.5-0.896-5.5-2c0-0.313,0.194-0.607,0.523-0.871
			C2.242,8.817,1.582,8.435,1.079,8C0.396,8.589,0,9.271,0,10c0,2.209,3.582,4,8,4s8-1.791,8-4c0-0.729-0.396-1.411-1.079-2
			C14.418,8.435,13.758,8.817,12.977,9.129z M8,0C3.582,0,0,1.791,0,4s3.582,4,8,4s8-1.791,8-4S12.418,0,8,0z M8,6
			C4.687,6,2.5,5.104,2.5,4S4.687,2,8,2s5.5,0.896,5.5,2S11.313,6,8,6z M12.977,27.129C13.306,27.393,13.5,27.687,13.5,28
			c0,1.105-2.187,2-5.5,2s-5.5-0.895-5.5-2c0-0.313,0.194-0.607,0.523-0.871C2.242,26.817,1.582,26.435,1.079,26
			C0.396,26.589,0,27.271,0,28c0,2.209,3.582,4,8,4s8-1.791,8-4c0-0.729-0.396-1.411-1.079-2
			C14.418,26.435,13.758,26.817,12.977,27.129z M12.977,15.129C13.306,15.393,13.5,15.687,13.5,16c0,1.104-2.187,2-5.5,2
			s-5.5-0.896-5.5-2c0-0.313,0.194-0.607,0.523-0.871C2.242,14.817,1.582,14.435,1.079,14C0.396,14.589,0,15.271,0,16
			c0,2.209,3.582,4,8,4s8-1.791,8-4c0-0.729-0.396-1.411-1.079-2C14.418,14.435,13.759,14.817,12.977,15.129z M12.977,21.129
			C13.306,21.394,13.5,21.687,13.5,22c0,1.104-2.187,2-5.5,2s-5.5-0.896-5.5-2c0-0.313,0.194-0.607,0.523-0.871
			C2.242,20.817,1.582,20.435,1.079,20C0.396,20.589,0,21.271,0,22c0,2.209,3.582,4,8,4s8-1.791,8-4c0-0.729-0.396-1.411-1.079-2
			C14.418,20.435,13.758,20.817,12.977,21.129z M38,18c0-1.104-0.896-2-2-2s-2,0.896-2,2s0.896,2,2,2S38,19.104,38,18z M40,2H19
			c-0.553,0-1,0.448-1,1c0,0.553,0.447,1,1,1h21c1.104,0,2,0.896,2,2v16c0,1.104-0.896,2-2,2h-3c-0.553,0-1,0.448-1,1
			c0,0.553,0.447,1,1,1h3c2.209,0,4-1.791,4-4V6C44,3.791,42.209,2,40,2z M36,12c1.104,0,2-0.896,2-2s-0.896-2-2-2s-2,0.896-2,2
			S34.896,12,36,12z M24,20c3.313,0,6-2.687,6-6s-2.687-6-6-6s-6,2.687-6,6S20.687,20,24,20z M24,10c2.209,0,4,1.791,4,4
			s-1.791,4-4,4s-4-1.791-4-4S21.791,10,24,10z M30.978,35.129C31.306,35.393,31.5,35.687,31.5,36c0,1.105-2.187,2-5.5,2
			s-5.5-0.895-5.5-2c0-0.313,0.194-0.607,0.523-0.871c-0.781-0.312-1.441-0.694-1.944-1.129C18.396,34.589,18,35.271,18,36
			c0,2.209,3.582,4,8,4s8-1.791,8-4c0-0.729-0.396-1.411-1.079-2C32.418,34.435,31.759,34.817,30.978,35.129z M26,26
			c-4.418,0-8,1.791-8,4s3.582,4,8,4s8-1.791,8-4S30.418,26,26,26z M26,32c-3.313,0-5.5-0.896-5.5-2s2.187-2,5.5-2s5.5,0.896,5.5,2
			S29.313,32,26,32z"/>
	</g>
</g>
<g>
</g>
<g>
</g>
<g>
</g>
<g>
</g>
<g>
</g>
<g>
</g>
<g>
</g>
<g>
</g>
<g>
</g>
<g>
</g>
<g>
</g>
<g>
</g>
<g>
</g>
<g>
</g>
<g>
</g>
</svg>
