<?xml version="1.0" encoding="iso-8859-1"?>
<!-- Generator: Adobe Illustrator 16.0.4, SVG Export Plug-In . SVG Version: 6.00 Build 0)  -->
<!DOCTYPE svg PUBLIC "-//W3C//DTD SVG 1.1//EN" "http://www.w3.org/Graphics/SVG/1.1/DTD/svg11.dtd">
<svg version="1.1" id="Layer_1" xmlns="http://www.w3.org/2000/svg" xmlns:xlink="http://www.w3.org/1999/xlink" x="0px" y="0px"
	 width="56px" height="46px" viewBox="0 0 56 46" style="enable-background:new 0 0 56 46;" xml:space="preserve">
<g id="_x38_26-money-1_x40_2x.png">
	<g>
		<path d="M14.891,8c-0.502,0.432-1.154,0.807-1.931,1.116C13.299,9.384,13.5,9.682,13.5,10c0,1.104-2.187,2-5.5,2s-5.5-0.896-5.5-2
			c0-0.318,0.201-0.616,0.54-0.884C2.265,8.807,1.611,8.432,1.109,8C0.423,8.591,0,9.268,0,10c0,2.209,3.582,4,8,4s8-1.791,8-4
			C16,9.268,15.578,8.591,14.891,8z M14.891,14c-0.502,0.432-1.154,0.807-1.931,1.116c0.339,0.268,0.54,0.565,0.54,0.884
			c0,1.104-2.187,2-5.5,2s-5.5-0.896-5.5-2c0-0.318,0.201-0.616,0.54-0.884C2.265,14.807,1.611,14.432,1.109,14
			C0.423,14.591,0,15.268,0,16c0,2.209,3.582,4,8,4s8-1.791,8-4C16,15.268,15.578,14.591,14.891,14z M8,0C3.582,0,0,1.791,0,4
			s3.582,4,8,4s8-1.791,8-4S12.418,0,8,0z M8,6C4.687,6,2.5,5.104,2.5,4S4.687,2,8,2s5.5,0.896,5.5,2S11.313,6,8,6z M14.891,26
			c-0.502,0.432-1.154,0.807-1.931,1.116c0.339,0.268,0.54,0.565,0.54,0.884c0,1.104-2.187,2-5.5,2s-5.5-0.896-5.5-2
			c0-0.318,0.201-0.616,0.54-0.884C2.265,26.807,1.611,26.432,1.109,26C0.423,26.591,0,27.268,0,28c0,2.209,3.582,4,8,4s8-1.791,8-4
			C16,27.268,15.578,26.591,14.891,26z M14.891,20c-0.502,0.432-1.154,0.807-1.931,1.116c0.339,0.268,0.54,0.564,0.54,0.884
			c0,1.104-2.187,2-5.5,2s-5.5-0.896-5.5-2c0-0.319,0.201-0.616,0.54-0.884C2.265,20.807,1.611,20.432,1.109,20
			C0.423,20.591,0,21.268,0,22c0,2.209,3.582,4,8,4s8-1.791,8-4C16,21.268,15.578,20.591,14.891,20z M14.891,32
			c-0.502,0.432-1.154,0.807-1.931,1.116c0.339,0.268,0.54,0.565,0.54,0.884c0,1.104-2.187,2-5.5,2s-5.5-0.896-5.5-2
			c0-0.318,0.201-0.616,0.54-0.884C2.265,32.807,1.611,32.432,1.109,32C0.423,32.591,0,33.268,0,34c0,2.209,3.582,4,8,4s8-1.791,8-4
			C16,33.268,15.578,32.591,14.891,32z M48,30c1.104,0,2-0.896,2-2s-0.896-2-2-2s-2,0.896-2,2S46.896,30,48,30z M52,4H19
			c-0.553,0-1,0.448-1,1c0,0.553,0.447,1,1,1h33c1.104,0,2,0.896,2,2v24c0,1.104-0.896,2-2,2H37c-0.553,0-1,0.448-1,1
			c0,0.553,0.447,1,1,1h15c2.209,0,4-1.791,4-4V8C56,5.791,54.209,4,52,4z M48,14c1.104,0,2-0.896,2-2s-0.896-2-2-2s-2,0.896-2,2
			S46.896,14,48,14z M32,28c4.418,0,8-3.582,8-8s-3.582-8-8-8s-8,3.582-8,8S27.582,28,32,28z M32,14c3.313,0,6,2.687,6,6
			s-2.687,6-6,6s-6-2.687-6-6S28.687,14,32,14z M26,32c-4.418,0-8,1.791-8,4s3.582,4,8,4s8-1.791,8-4S30.418,32,26,32z M26,38
			c-3.313,0-5.5-0.896-5.5-2s2.187-2,5.5-2s5.5,0.896,5.5,2S29.313,38,26,38z M32.891,40c-0.502,0.432-1.154,0.807-1.931,1.116
			c0.339,0.268,0.54,0.565,0.54,0.884c0,1.104-2.187,2-5.5,2s-5.5-0.896-5.5-2c0-0.318,0.201-0.616,0.54-0.884
			c-0.776-0.31-1.429-0.685-1.931-1.116C18.422,40.591,18,41.268,18,42c0,2.209,3.582,4,8,4s8-1.791,8-4
			C34,41.268,33.578,40.591,32.891,40z"/>
	</g>
</g>
<g>
</g>
<g>
</g>
<g>
</g>
<g>
</g>
<g>
</g>
<g>
</g>
<g>
</g>
<g>
</g>
<g>
</g>
<g>
</g>
<g>
</g>
<g>
</g>
<g>
</g>
<g>
</g>
<g>
</g>
</svg>
