<?xml version="1.0" encoding="iso-8859-1"?>
<!-- Generator: Adobe Illustrator 16.0.4, SVG Export Plug-In . SVG Version: 6.00 Build 0)  -->
<!DOCTYPE svg PUBLIC "-//W3C//DTD SVG 1.1//EN" "http://www.w3.org/Graphics/SVG/1.1/DTD/svg11.dtd">
<svg version="1.1" id="Layer_1" xmlns="http://www.w3.org/2000/svg" xmlns:xlink="http://www.w3.org/1999/xlink" x="0px" y="0px"
	 width="44px" height="32px" viewBox="0 0 44 32" style="enable-background:new 0 0 44 32;" xml:space="preserve">
<g id="_x38_27-money-2-toolbar_x40_2x.png">
	<g>
		<path d="M0,0v32h44V0H0z M27,5.761c1.827,1.466,3,3.714,3,6.239s-1.173,4.773-3,6.24V5.761z M17,30H2v-2h15V30z M17,26H2v-2h15V26
			z M17,18.24c-1.827-1.467-3-3.715-3-6.24s1.173-4.773,3-6.239V18.24z M17,3.349c-2.986,1.73-5,4.952-5,8.651s2.014,6.922,5,8.651
			V22H2V2h15V3.349z M25,30h-6v-6h6V30z M25,22h-6V2h6V22z M42,30H27v-2h15V30z M42,26H27v-2h15V26z M42,22H27v-1.349
			c2.986-1.729,5-4.952,5-8.651s-2.014-6.921-5-8.651V2h15V22z M37,15c1.657,0,3-1.343,3-3c0-1.656-1.343-3-3-3s-3,1.344-3,3
			C34,13.657,35.343,15,37,15z M37,11c0.553,0,1,0.448,1,1c0,0.553-0.447,1-1,1s-1-0.447-1-1C36,11.448,36.447,11,37,11z M7,15
			c1.657,0,3-1.343,3-3c0-1.656-1.343-3-3-3s-3,1.344-3,3C4,13.657,5.343,15,7,15z M7,11c0.553,0,1,0.448,1,1c0,0.553-0.447,1-1,1
			s-1-0.447-1-1C6,11.448,6.447,11,7,11z"/>
	</g>
</g>
<g>
</g>
<g>
</g>
<g>
</g>
<g>
</g>
<g>
</g>
<g>
</g>
<g>
</g>
<g>
</g>
<g>
</g>
<g>
</g>
<g>
</g>
<g>
</g>
<g>
</g>
<g>
</g>
<g>
</g>
</svg>
