<?xml version="1.0" encoding="iso-8859-1"?>
<!-- Generator: Adobe Illustrator 16.0.4, SVG Export Plug-In . SVG Version: 6.00 Build 0)  -->
<!DOCTYPE svg PUBLIC "-//W3C//DTD SVG 1.1//EN" "http://www.w3.org/Graphics/SVG/1.1/DTD/svg11.dtd">
<svg version="1.1" id="Layer_1" xmlns="http://www.w3.org/2000/svg" xmlns:xlink="http://www.w3.org/1999/xlink" x="0px" y="0px"
	 width="56px" height="40px" viewBox="0 0 56 40" style="enable-background:new 0 0 56 40;" xml:space="preserve">
<g id="_x38_27-money-2_x40_2x.png">
	<g>
		<path d="M0,0v40h56V0H0z M34,7.306c1.837,1.647,3,4.032,3,6.694s-1.163,5.047-3,6.695V7.306z M22,38H2v-2h20V38z M22,34H2v-2h20
			V34z M22,30H2v-2h20V30z M22,20.695c-1.837-1.648-3-4.033-3-6.695s1.163-5.047,3-6.694V20.695z M22,4.787
			c-3.008,1.964-5,5.354-5,9.213c0,3.86,1.992,7.25,5,9.213V26H2V2h20V4.787z M32,38h-8V28h8V38z M32,26h-8V2h8V26z M54,38H34v-2h20
			V38z M54,34H34v-2h20V34z M54,30H34v-2h20V30z M54,26H34v-2.787c3.008-1.963,5-5.353,5-9.213c0-3.859-1.992-7.249-5-9.213V2h20V26
			z M47,19c2.762,0,5-2.238,5-5s-2.238-5-5-5s-5,2.238-5,5S44.238,19,47,19z M47,11c1.657,0,3,1.343,3,3s-1.343,3-3,3s-3-1.343-3-3
			S45.343,11,47,11z M9,19c2.762,0,5-2.238,5-5s-2.238-5-5-5s-5,2.238-5,5S6.238,19,9,19z M9,11c1.657,0,3,1.343,3,3s-1.343,3-3,3
			s-3-1.343-3-3S7.343,11,9,11z"/>
	</g>
</g>
<g>
</g>
<g>
</g>
<g>
</g>
<g>
</g>
<g>
</g>
<g>
</g>
<g>
</g>
<g>
</g>
<g>
</g>
<g>
</g>
<g>
</g>
<g>
</g>
<g>
</g>
<g>
</g>
<g>
</g>
</svg>
