<?xml version="1.0" encoding="iso-8859-1"?>
<!-- Generator: Adobe Illustrator 16.0.4, SVG Export Plug-In . SVG Version: 6.00 Build 0)  -->
<!DOCTYPE svg PUBLIC "-//W3C//DTD SVG 1.1//EN" "http://www.w3.org/Graphics/SVG/1.1/DTD/svg11.dtd">
<svg version="1.1" id="Layer_1" xmlns="http://www.w3.org/2000/svg" xmlns:xlink="http://www.w3.org/1999/xlink" x="0px" y="0px"
	 width="47.996px" height="56.01px" viewBox="0 0 47.996 56.01" style="enable-background:new 0 0 47.996 56.01;"
	 xml:space="preserve">
<g id="_x38_47-moon_x40_2x.png">
	<g>
		<path d="M47.152,47.736c-15.501,0-28.065-12.543-28.065-28.016c0-7.692,3.107-14.658,8.135-19.721C12.112,0.445,0,12.803,0,27.993
			C0,43.467,12.564,56.01,28.065,56.01c7.794,0,14.845-3.175,19.931-8.295C47.714,47.724,47.435,47.736,47.152,47.736z
			 M28.065,54.004c-14.367,0-26.057-11.669-26.057-26.011c0-6.811,2.619-13.248,7.375-18.127c3.599-3.691,8.121-6.189,13.059-7.269
			c-3.486,4.992-5.365,10.918-5.365,17.123c0,15.089,11.209,27.613,25.752,29.712C38.519,52.404,33.418,54.004,28.065,54.004z"/>
	</g>
</g>
<g>
</g>
<g>
</g>
<g>
</g>
<g>
</g>
<g>
</g>
<g>
</g>
<g>
</g>
<g>
</g>
<g>
</g>
<g>
</g>
<g>
</g>
<g>
</g>
<g>
</g>
<g>
</g>
<g>
</g>
</svg>
