<?xml version="1.0" encoding="iso-8859-1"?>
<!-- Generator: Adobe Illustrator 16.0.4, SVG Export Plug-In . SVG Version: 6.00 Build 0)  -->
<!DOCTYPE svg PUBLIC "-//W3C//DTD SVG 1.1//EN" "http://www.w3.org/Graphics/SVG/1.1/DTD/svg11.dtd">
<svg version="1.1" id="Layer_1" xmlns="http://www.w3.org/2000/svg" xmlns:xlink="http://www.w3.org/1999/xlink" x="0px" y="0px"
	 width="40px" height="44px" viewBox="0 0 40 44" style="enable-background:new 0 0 40 44;" xml:space="preserve">
<g id="_x38_47-moon-toolbar_x40_2x.png">
	<g>
		<path d="M39.068,36.008C38.715,36.008,38.36,36,38,36C23.364,36,12,24.216,12,9.58c0-3.383,0.658-6.605,1.813-9.58
			C5.686,3.548,0,11.646,0,21.08C0,33.782,10.298,44,23,44c7.015,0,12.781-3.07,17-8.021C39.689,36.002,39.38,36.008,39.068,36.008z
			 M23,42C11.42,42,2,32.615,2,21.08c0-6.747,3.234-12.977,8.521-16.883C10.175,5.972,10,7.771,10,9.58
			c0,14.964,10.844,26.883,25.166,28.282C31.661,40.582,27.524,42,23,42z"/>
	</g>
</g>
<g>
</g>
<g>
</g>
<g>
</g>
<g>
</g>
<g>
</g>
<g>
</g>
<g>
</g>
<g>
</g>
<g>
</g>
<g>
</g>
<g>
</g>
<g>
</g>
<g>
</g>
<g>
</g>
<g>
</g>
</svg>
