<?xml version="1.0" encoding="iso-8859-1"?>
<!-- Generator: Adobe Illustrator 16.0.4, SVG Export Plug-In . SVG Version: 6.00 Build 0)  -->
<!DOCTYPE svg PUBLIC "-//W3C//DTD SVG 1.1//EN" "http://www.w3.org/Graphics/SVG/1.1/DTD/svg11.dtd">
<svg version="1.1" id="Layer_1" xmlns="http://www.w3.org/2000/svg" xmlns:xlink="http://www.w3.org/1999/xlink" x="0px" y="0px"
	 width="44px" height="28px" viewBox="0 0 44 28" style="enable-background:new 0 0 44 28;" xml:space="preserve">
<g id="_x38_79-mountains-toolbar_x40_2x.png">
	<g>
		<path d="M32.882,26.516l-15.5-26l-0.013,0.008C17.197,0.217,16.879,0,16.5,0c-0.361,0-0.664,0.199-0.841,0.482l-0.011-0.007
			l-15.5,26l0.019,0.012C0.07,26.641,0,26.811,0,27.005C0,27.554,0.449,27.999,1.005,28h30.991C32.551,27.999,33,27.554,33,27.005
			c0-0.177-0.059-0.333-0.14-0.477L32.882,26.516z M16.503,2.947l6.758,11.336l-3.765-2.151l-0.007,0.012
			C19.343,12.061,19.182,12,19,12c-0.282,0-0.535,0.116-0.718,0.302L16.5,13.728l-1.782-1.426C14.535,12.116,14.282,12,14,12
			c-0.182,0-0.343,0.061-0.489,0.144l-0.007-0.012l-3.755,2.146L16.503,2.947z M2.755,26.01l4.911-8.238l6.246-3.569l1.881,1.505
			l0.003-0.003c0.182,0.177,0.43,0.287,0.704,0.287s0.522-0.11,0.704-0.287l0.003,0.003l1.881-1.505l6.256,3.575l4.908,8.232H2.755z
			 M43.829,26.482l0.019-0.013l-10-16l-0.022,0.015c-0.179-0.279-0.479-0.475-0.837-0.475c-0.323,0-0.598,0.16-0.781,0.396
			L32.2,10.4l-2.812,4l0.01,0.008c-0.13,0.168-0.222,0.368-0.222,0.597c0,0.185,0.064,0.348,0.153,0.496l-0.005,0.003l7.046,11.868
			c0.017,0.041,0.045,0.073,0.066,0.112l0.013,0.02l0.001-0.001C36.625,27.795,36.934,28,37.301,28c0.001,0,0.002,0,0.003,0h5.692
			C43.551,27.999,44,27.554,44,27.005C44,26.809,43.928,26.637,43.829,26.482z M37.887,26.01l-6.509-10.964l1.573-2.238l8.25,13.202
			H37.887z"/>
	</g>
</g>
<g>
</g>
<g>
</g>
<g>
</g>
<g>
</g>
<g>
</g>
<g>
</g>
<g>
</g>
<g>
</g>
<g>
</g>
<g>
</g>
<g>
</g>
<g>
</g>
<g>
</g>
<g>
</g>
<g>
</g>
</svg>
