<?xml version="1.0" encoding="iso-8859-1"?>
<!-- Generator: Adobe Illustrator 16.0.4, SVG Export Plug-In . SVG Version: 6.00 Build 0)  -->
<!DOCTYPE svg PUBLIC "-//W3C//DTD SVG 1.1//EN" "http://www.w3.org/Graphics/SVG/1.1/DTD/svg11.dtd">
<svg version="1.1" id="Layer_1" xmlns="http://www.w3.org/2000/svg" xmlns:xlink="http://www.w3.org/1999/xlink" x="0px" y="0px"
	 width="56px" height="36px" viewBox="0 0 56 36" style="enable-background:new 0 0 56 36;" xml:space="preserve">
<g id="_x38_79-mountains_x40_2x.png">
	<g>
		<path d="M41.862,34.493l-20-34l-0.015,0.008C21.674,0.207,21.367,0,21,0c-0.366,0-0.674,0.207-0.848,0.501l-0.015-0.008l-20,34
			l0.015,0.009C0.064,34.65,0,34.814,0,35c0,0.553,0.447,1,1,1h40c0.553,0,1-0.447,1-1c0-0.186-0.064-0.35-0.152-0.498
			L41.862,34.493z M21,2.973l8.463,14.386l-3.967-2.227l-0.008,0.014C25.342,15.062,25.181,15,25,15
			c-0.276,0-0.526,0.112-0.707,0.293L21,18.586l-3.293-3.293C17.526,15.112,17.276,15,17,15c-0.181,0-0.342,0.062-0.488,0.146
			l-0.008-0.014l-3.967,2.227L21,2.973z M2.748,34l7.775-13.217l6.306-3.54l3.464,3.464C20.474,20.889,20.724,21,21,21
			s0.526-0.111,0.707-0.293l3.465-3.464l6.305,3.54L39.252,34H2.748z M55.843,34.494l0.015-0.009l-12-19.999l-0.015,0.008
			C43.668,14.204,43.363,14,43,14c-0.262,0-0.496,0.106-0.674,0.271l-0.006-0.005l-0.023,0.025
			c-0.003,0.002-0.005,0.004-0.007,0.007l-4.876,5.062l0.014,0.013c-0.144,0.173-0.24,0.386-0.24,0.628
			c0,0.188,0.066,0.355,0.157,0.506l-0.015,0.009l8.812,15l0.015-0.009C46.332,35.796,46.637,36,47,36h8c0.553,0,1-0.447,1-1
			C56,34.812,55.934,34.646,55.843,34.494z M47.572,34l-8.139-13.854l3.381-3.511L53.233,34H47.572z"/>
	</g>
</g>
<g>
</g>
<g>
</g>
<g>
</g>
<g>
</g>
<g>
</g>
<g>
</g>
<g>
</g>
<g>
</g>
<g>
</g>
<g>
</g>
<g>
</g>
<g>
</g>
<g>
</g>
<g>
</g>
<g>
</g>
</svg>
