<?xml version="1.0" encoding="iso-8859-1"?>
<!-- Generator: Adobe Illustrator 16.0.4, SVG Export Plug-In . SVG Version: 6.00 Build 0)  -->
<!DOCTYPE svg PUBLIC "-//W3C//DTD SVG 1.1//EN" "http://www.w3.org/Graphics/SVG/1.1/DTD/svg11.dtd">
<svg version="1.1" id="Layer_1" xmlns="http://www.w3.org/2000/svg" xmlns:xlink="http://www.w3.org/1999/xlink" x="0px" y="0px"
	 width="56px" height="56px" viewBox="0 0 56 56" style="enable-background:new 0 0 56 56;" xml:space="preserve">
<g id="_x38_82-mug_x40_2x.png">
	<g>
		<path d="M46,15h-2v-5c0-5.522-9.85-10-22-10S0,4.478,0,10v36c0,5.523,9.85,10,22,10s22-4.477,22-10v-4h2c5.522,0,10-4.478,10-10
			v-7C56,19.478,51.522,15,46,15z M42,15v26.852V42v4c0,4.418-8.954,8-20,8S2,50.418,2,46v-4.148V14.148
			C5.47,17.599,13.109,20,22,20s16.53-2.401,20-5.852V15z M22,18c-11.046,0-20-3.582-20-8s8.954-8,20-8s20,3.582,20,8
			S33.046,18,22,18z M54,32c0,4.418-3.582,8-8,8h-2V17h2c4.418,0,8,3.582,8,8V32z"/>
	</g>
</g>
<g>
</g>
<g>
</g>
<g>
</g>
<g>
</g>
<g>
</g>
<g>
</g>
<g>
</g>
<g>
</g>
<g>
</g>
<g>
</g>
<g>
</g>
<g>
</g>
<g>
</g>
<g>
</g>
<g>
</g>
</svg>
