<?xml version="1.0" encoding="iso-8859-1"?>
<!-- Generator: Adobe Illustrator 16.0.4, SVG Export Plug-In . SVG Version: 6.00 Build 0)  -->
<!DOCTYPE svg PUBLIC "-//W3C//DTD SVG 1.1//EN" "http://www.w3.org/Graphics/SVG/1.1/DTD/svg11.dtd">
<svg version="1.1" id="Layer_1" xmlns="http://www.w3.org/2000/svg" xmlns:xlink="http://www.w3.org/1999/xlink" x="0px" y="0px"
	 width="30.011px" height="44.049px" viewBox="0 0 30.011 44.049" style="enable-background:new 0 0 30.011 44.049;"
	 xml:space="preserve">
<g id="_x39_48-music-note-toolbar_x40_2x.png">
	<g>
		<path d="M23.687,10.263C20.768,7.587,20.011,5.061,20.011,1c0-0.552-0.447-1-1-1s-1,0.448-1,1c0,0.021,0.002,0.041,0.002,0.062
			h-0.002v29.344c-2.243-2.099-6.066-2.932-9.973-1.862c-5.419,1.483-8.93,6.053-7.84,10.205c1.089,4.152,6.365,6.315,11.784,4.832
			c4.818-1.319,8.119-5.077,8.028-8.812V9.028c0.616,0.945,1.371,1.836,2.324,2.709c2.919,2.676,5.676,5.202,5.676,9.263
			c0,8.145-3.427,10.095-3.447,10.105c-0.494,0.247-0.694,0.848-0.447,1.342C24.292,32.798,24.645,33,25.012,33
			c0.15,0,0.303-0.033,0.446-0.105c0.186-0.093,4.553-2.386,4.553-11.895C30.011,16.06,26.796,13.112,23.687,10.263z M11.482,41.664
			c-4.335,1.185-8.509-0.363-9.322-3.457s2.042-6.562,6.378-7.747c4.336-1.184,8.51,0.364,9.322,3.458
			C18.674,37.012,15.818,40.48,11.482,41.664z"/>
	</g>
</g>
<g>
</g>
<g>
</g>
<g>
</g>
<g>
</g>
<g>
</g>
<g>
</g>
<g>
</g>
<g>
</g>
<g>
</g>
<g>
</g>
<g>
</g>
<g>
</g>
<g>
</g>
<g>
</g>
<g>
</g>
</svg>
