<?xml version="1.0" encoding="iso-8859-1"?>
<!-- Generator: Adobe Illustrator 16.0.4, SVG Export Plug-In . SVG Version: 6.00 Build 0)  -->
<!DOCTYPE svg PUBLIC "-//W3C//DTD SVG 1.1//EN" "http://www.w3.org/Graphics/SVG/1.1/DTD/svg11.dtd">
<svg version="1.1" id="Layer_1" xmlns="http://www.w3.org/2000/svg" xmlns:xlink="http://www.w3.org/1999/xlink" x="0px" y="0px"
	 width="44px" height="44px" viewBox="0 0 44 44" style="enable-background:new 0 0 44 44;" xml:space="preserve">
<g id="_x38_41-music-playlist-toolbar_x40_2x.png">
	<g>
		<path d="M21,6h-3c-1.298,0-2,1.03-2,2v11h0v1.072C15.67,20.038,15.343,20,15,20c-3.866,0-7,2.239-7,5c0,2.762,3.134,5,7,5
			s7-2.238,7-5V12.03c5.388,0.53,8,2.97,8,2.97s-0.259-3.469-1.132-4.996C27.824,8.178,25.612,6,21,6z M21,10h-1v3.111L20,17h0v8
			c0,1.657-2.239,3-5,3s-5-1.343-5-3c0-1.656,2.239-3,5-3c1.131,0,2.163,0.234,3,0.613V8h3c3.827,0,5.562,1.786,6.348,3.41
			C25.953,10.664,23.896,10,21,10z M36,34V2c0-1.104-0.896-2-2-2H2C0.896,0,0,0.896,0,2v32c0,1.104,0.896,2,2,2h32
			C35.104,36,36,35.104,36,34z M2,2h32v32H2V2z M40,38V7c0-0.553-0.447-1-1-1s-1,0.447-1,1v31H7c-0.552,0-1,0.447-1,1s0.448,1,1,1
			h31C39.104,40,40,39.104,40,38z M43,10c-0.553,0-1,0.447-1,1v31H11c-0.552,0-1,0.448-1,1c0,0.553,0.448,1,1,1h31
			c1.104,0,2-0.896,2-2V11C44,10.447,43.553,10,43,10z"/>
	</g>
</g>
<g>
</g>
<g>
</g>
<g>
</g>
<g>
</g>
<g>
</g>
<g>
</g>
<g>
</g>
<g>
</g>
<g>
</g>
<g>
</g>
<g>
</g>
<g>
</g>
<g>
</g>
<g>
</g>
<g>
</g>
</svg>
