<?xml version="1.0" encoding="iso-8859-1"?>
<!-- Generator: Adobe Illustrator 16.0.4, SVG Export Plug-In . SVG Version: 6.00 Build 0)  -->
<!DOCTYPE svg PUBLIC "-//W3C//DTD SVG 1.1//EN" "http://www.w3.org/Graphics/SVG/1.1/DTD/svg11.dtd">
<svg version="1.1" id="Layer_1" xmlns="http://www.w3.org/2000/svg" xmlns:xlink="http://www.w3.org/1999/xlink" x="0px" y="0px"
	 width="44.01px" height="44.027px" viewBox="0 0 44.01 44.027" style="enable-background:new 0 0 44.01 44.027;"
	 xml:space="preserve">
<g id="_x38_98-music-note-toolbar_x40_2x.png">
	<g>
		<path d="M43.99,1.02c0-0.005,0.003-0.009,0.003-0.013C43.993,0.45,43.552,0,43.007,0c-0.046,0-0.085,0.021-0.129,0.027
			l-0.001-0.004l-29.852,3.98C13.019,4.004,13.014,4,13.007,4c-0.03,0-0.056,0.015-0.086,0.018l-0.044,0.006l0.001,0.003
			c-0.48,0.067-0.857,0.471-0.857,0.98c0,0,0.001,0.001,0.001,0.002h-0.001v25.132c-1.487-0.243-3.131-0.18-4.793,0.266
			c-4.872,1.303-8.028,5.316-7.05,8.965c0.979,3.647,5.724,5.549,10.597,4.245c4.266-1.141,7.215-4.358,7.228-7.59h0.024V10.886
			L38.01,8.161v18.008c-1.486-0.248-3.118-0.208-4.782,0.237c-4.872,1.303-8.028,5.316-7.05,8.965
			c0.979,3.648,5.724,5.549,10.597,4.245c4.273-1.143,7.226-4.371,7.227-7.608h0.009V1.02H43.99z M42.01,32.015h-0.03
			c0.075,2.348-2.266,4.765-5.676,5.649c-3.793,0.983-7.443-0.302-8.155-2.872c-0.711-2.569,1.786-5.449,5.579-6.433
			c2.382-0.618,4.705-0.339,6.282,0.589v-1.934v-0.316V7.039c0-0.01,0.006-0.018,0.006-0.027c0-0.545-0.45-0.986-1.006-0.986
			c-0.047,0-0.087,0.02-0.132,0.025l-0.004-0.026l-22,3l0.002,0.009c-0.483,0.073-0.86,0.474-0.86,0.978c0,0,0,0,0,0.001V31.88
			c-0.002-0.002-0.005-0.003-0.006-0.004v4.139h-0.03c0.075,2.348-2.266,4.765-5.676,5.649c-3.793,0.983-7.443-0.302-8.155-2.872
			c-0.711-2.569,1.786-5.449,5.579-6.433c2.381-0.618,4.705-0.339,6.282,0.589v-2.266c-0.006-0.002-0.011-0.006-0.017-0.008V5.893
			l28.005-3.733v22.855h0.012V32.015z"/>
	</g>
</g>
<g>
</g>
<g>
</g>
<g>
</g>
<g>
</g>
<g>
</g>
<g>
</g>
<g>
</g>
<g>
</g>
<g>
</g>
<g>
</g>
<g>
</g>
<g>
</g>
<g>
</g>
<g>
</g>
<g>
</g>
</svg>
