<?xml version="1.0" encoding="iso-8859-1"?>
<!-- Generator: Adobe Illustrator 16.0.4, SVG Export Plug-In . SVG Version: 6.00 Build 0)  -->
<!DOCTYPE svg PUBLIC "-//W3C//DTD SVG 1.1//EN" "http://www.w3.org/Graphics/SVG/1.1/DTD/svg11.dtd">
<svg version="1.1" id="Layer_1" xmlns="http://www.w3.org/2000/svg" xmlns:xlink="http://www.w3.org/1999/xlink" x="0px" y="0px"
	 width="56px" height="56px" viewBox="0 0 56 56" style="enable-background:new 0 0 56 56;" xml:space="preserve">
<g id="_x38_41-music-playlist_x40_2x.png">
	<g>
		<path d="M23,8H20c-1.299,0-2,1.03-2,2v11h0v1.072C17.67,22.038,17.343,22,17,22c-3.866,0-7,2.238-7,5s3.134,5,7,5s7-2.238,7-5
			V14.03c5.388,0.53,8,2.97,8,2.97s-0.259-3.469-1.132-4.996C29.824,10.178,27.612,8,23,8z M23,12h-1v3.11L22,19h0v8
			c0,1.657-2.239,3-5,3s-5-1.343-5-3s2.239-3,5-3c1.131,0,2.163,0.233,3,0.613V10h3c3.827,0,5.562,1.786,6.348,3.41
			C27.953,12.664,25.897,12,23,12z M40,38V2c0-1.104-0.896-2-2-2H2C0.896,0,0,0.896,0,2v36c0,1.104,0.896,2,2,2h36
			C39.104,40,40,39.104,40,38z M2,2h36v36H2V2z M54,16h-3c-0.553,0-1,0.448-1,1c0,0.553,0.447,1,1,1h3v36H18v-3c0-0.553-0.448-1-1-1
			s-1,0.447-1,1v3c0,1.104,0.896,2,2,2h36c1.104,0,2-0.896,2-2V18C56,16.896,55.104,16,54,16z M48,46V10c0-1.104-0.896-2-2-2h-3
			c-0.553,0-1,0.448-1,1c0,0.553,0.447,1,1,1h3v36H10v-3c0-0.553-0.448-1-1-1s-1,0.447-1,1v3c0,1.104,0.896,2,2,2h36
			C47.104,48,48,47.104,48,46z"/>
	</g>
</g>
<g>
</g>
<g>
</g>
<g>
</g>
<g>
</g>
<g>
</g>
<g>
</g>
<g>
</g>
<g>
</g>
<g>
</g>
<g>
</g>
<g>
</g>
<g>
</g>
<g>
</g>
<g>
</g>
<g>
</g>
</svg>
