<?xml version="1.0" encoding="iso-8859-1"?>
<!-- Generator: Adobe Illustrator 16.0.4, SVG Export Plug-In . SVG Version: 6.00 Build 0)  -->
<!DOCTYPE svg PUBLIC "-//W3C//DTD SVG 1.1//EN" "http://www.w3.org/Graphics/SVG/1.1/DTD/svg11.dtd">
<svg version="1.1" id="Layer_1" xmlns="http://www.w3.org/2000/svg" xmlns:xlink="http://www.w3.org/1999/xlink" x="0px" y="0px"
	 width="34.013px" height="56.046px" viewBox="0 0 34.013 56.046" style="enable-background:new 0 0 34.013 56.046;"
	 xml:space="preserve">
<g id="_x39_48-music-note_x40_2x.png">
	<g>
		<path d="M27.688,10.263C24.77,7.588,24.013,5.061,24.013,1c0-0.552-0.447-1-1-1s-1,0.448-1,1c0,0.021,0.002,0.041,0.002,0.062
			h-0.002v39.169c-2.62-2.778-7.441-3.932-12.366-2.597c-6.503,1.761-10.716,7.187-9.409,12.117
			c1.308,4.932,7.639,7.501,14.142,5.739c5.782-1.566,9.742-6.029,9.634-10.465V9.028c0.616,0.946,1.372,1.836,2.324,2.709
			c2.919,2.675,5.676,5.203,5.676,9.263c0,8.145-3.427,10.094-3.447,10.105c-0.494,0.247-0.694,0.848-0.447,1.342
			C28.294,32.798,28.646,33,29.014,33c0.15,0,0.303-0.033,0.446-0.105c0.186-0.093,4.553-2.386,4.553-11.895
			C34.013,16.061,30.798,13.113,27.688,10.263z M13.854,53.507C8.434,54.975,3.217,53.056,2.2,49.221s2.553-8.135,7.972-9.603
			c5.42-1.468,10.637,0.451,11.653,4.286S19.272,52.039,13.854,53.507z"/>
	</g>
</g>
<g>
</g>
<g>
</g>
<g>
</g>
<g>
</g>
<g>
</g>
<g>
</g>
<g>
</g>
<g>
</g>
<g>
</g>
<g>
</g>
<g>
</g>
<g>
</g>
<g>
</g>
<g>
</g>
<g>
</g>
</svg>
