<?xml version="1.0" encoding="iso-8859-1"?>
<!-- Generator: Adobe Illustrator 16.0.4, SVG Export Plug-In . SVG Version: 6.00 Build 0)  -->
<!DOCTYPE svg PUBLIC "-//W3C//DTD SVG 1.1//EN" "http://www.w3.org/Graphics/SVG/1.1/DTD/svg11.dtd">
<svg version="1.1" id="Layer_1" xmlns="http://www.w3.org/2000/svg" xmlns:xlink="http://www.w3.org/1999/xlink" x="0px" y="0px"
	 width="56.015px" height="55.983px" viewBox="0 0 56.015 55.983" style="enable-background:new 0 0 56.015 55.983;"
	 xml:space="preserve">
<g id="_x31_019-music-note-2_x40_2x.png">
	<g>
		<path d="M55.013,0c-0.043,0-0.08,0.02-0.122,0.024l-0.002-0.017l-32,4l0.002,0.017C22.398,4.087,22.013,4.491,22.013,5v35.169
			c-2.62-2.778-7.441-3.931-12.366-2.597c-6.503,1.761-10.716,7.187-9.409,12.117c1.308,4.932,7.639,7.501,14.142,5.739
			c5.782-1.566,9.743-6.029,9.634-10.465V5.883l30-3.75v34.036c-2.62-2.778-7.441-3.932-12.366-2.597
			c-6.503,1.761-10.716,7.187-9.409,12.117c1.308,4.932,7.639,7.501,14.142,5.739c5.782-1.566,9.742-6.029,9.634-10.465V1
			C56.013,0.448,55.565,0,55.013,0z M13.854,53.444C8.434,54.912,3.217,52.993,2.2,49.158s2.553-8.135,7.972-9.603
			c5.42-1.468,10.637,0.451,11.653,4.286S19.272,51.977,13.854,53.444z M45.854,49.444c-5.42,1.468-10.637-0.451-11.653-4.286
			s2.553-8.135,7.972-9.603c5.42-1.468,10.637,0.451,11.653,4.286S51.272,47.977,45.854,49.444z"/>
	</g>
</g>
<g>
</g>
<g>
</g>
<g>
</g>
<g>
</g>
<g>
</g>
<g>
</g>
<g>
</g>
<g>
</g>
<g>
</g>
<g>
</g>
<g>
</g>
<g>
</g>
<g>
</g>
<g>
</g>
<g>
</g>
</svg>
