<?xml version="1.0" encoding="iso-8859-1"?>
<!-- Generator: Adobe Illustrator 16.0.4, SVG Export Plug-In . SVG Version: 6.00 Build 0)  -->
<!DOCTYPE svg PUBLIC "-//W3C//DTD SVG 1.1//EN" "http://www.w3.org/Graphics/SVG/1.1/DTD/svg11.dtd">
<svg version="1.1" id="Layer_1" xmlns="http://www.w3.org/2000/svg" xmlns:xlink="http://www.w3.org/1999/xlink" x="0px" y="0px"
	 width="28px" height="44px" viewBox="0 0 28 44" style="enable-background:new 0 0 28 44;" xml:space="preserve">
<g id="_x31_128-necklace-1_x40_2x.png">
	<g>
		<path d="M28,12.952C28,4.011,19.584,0,14,0S0,4.011,0,12.952c0,2.458,0.962,5.649,2.446,8.803C2.172,22.098,2,22.526,2,23
			c0,1.042,0.8,1.888,1.817,1.981C3.32,25.515,3,26.213,3,27c0,1.371,0.925,2.515,2.181,2.872C5.075,30.232,5,30.605,5,31
			c0,2.209,1.791,4,4,4c0.663,0,1.279-0.173,1.827-0.462l-1.695,2.966l0.014,0.008C9.062,37.658,9,37.819,9,38
			c0,0.236,0.094,0.444,0.23,0.615l-0.012,0.01l4,5l0.013-0.01C13.414,43.845,13.684,44,14,44s0.586-0.156,0.77-0.385l0.012,0.01
			l4-5l-0.012-0.01C18.906,38.444,19,38.236,19,38c0-0.181-0.062-0.342-0.146-0.488l0.014-0.008l-1.694-2.966
			C17.721,34.827,18.337,35,19,35c2.209,0,4-1.791,4-4c0-0.395-0.074-0.768-0.181-1.128C24.075,29.515,25,28.371,25,27
			c0-0.787-0.32-1.485-0.817-2.019C25.2,24.888,26,24.042,26,23c0-0.474-0.172-0.902-0.446-1.245C27.038,18.602,28,15.41,28,12.952z
			 M6,28c-0.553,0-1-0.447-1-1s0.447-1,1-1s1,0.447,1,1S6.553,28,6,28z M9,33c-1.104,0-2-0.896-2-2s0.896-2,2-2s2,0.896,2,2
			S10.104,33,9,33z M14,41.399l-2.795-3.493L14,33.016l2.795,4.891L14,41.399z M19,33c-1.104,0-2-0.896-2-2s0.896-2,2-2s2,0.896,2,2
			S20.104,33,19,33z M22,28c-0.553,0-1-0.447-1-1s0.447-1,1-1s1,0.447,1,1S22.553,28,22,28z M23.983,21.002
			C22.887,21.011,22,21.901,22,23c0,0.378,0.111,0.729,0.294,1.029C22.196,24.017,22.101,24,22,24c-1.657,0-3,1.343-3,3
			c-2.132,0-3.857,1.673-3.978,3.774l-0.154-0.271l-0.014,0.008C14.682,30.212,14.371,30,14,30s-0.682,0.212-0.854,0.512
			l-0.014-0.008l-0.154,0.271C12.857,28.673,11.132,27,9,27c0-1.657-1.343-3-3-3c-0.101,0-0.196,0.017-0.293,0.029
			C5.889,23.729,6,23.378,6,23c0-1.099-0.887-1.989-1.983-1.998C2.793,18.283,2,15.547,2,13.429C2,5.539,9.214,2,14,2
			s12,3.539,12,11.429C26,15.547,25.207,18.283,23.983,21.002z"/>
	</g>
</g>
<g>
</g>
<g>
</g>
<g>
</g>
<g>
</g>
<g>
</g>
<g>
</g>
<g>
</g>
<g>
</g>
<g>
</g>
<g>
</g>
<g>
</g>
<g>
</g>
<g>
</g>
<g>
</g>
<g>
</g>
</svg>
