<?xml version="1.0" encoding="iso-8859-1"?>
<!-- Generator: Adobe Illustrator 16.0.4, SVG Export Plug-In . SVG Version: 6.00 Build 0)  -->
<!DOCTYPE svg PUBLIC "-//W3C//DTD SVG 1.1//EN" "http://www.w3.org/Graphics/SVG/1.1/DTD/svg11.dtd">
<svg version="1.1" id="Layer_1" xmlns="http://www.w3.org/2000/svg" xmlns:xlink="http://www.w3.org/1999/xlink" x="0px" y="0px"
	 width="18px" height="56px" viewBox="0 0 18 56" style="enable-background:new 0 0 18 56;" xml:space="preserve">
<g id="_x31_001-neck-tie_x40_2x.png">
	<g>
		<path d="M17.988,46.844l-5.88-37.235l5.55-4.855L17.655,4.75C17.865,4.566,18,4.3,18,4c0,0,0-0.061-0.017-0.165
			c-0.003-0.02-0.006-0.039-0.011-0.059C17.815,2.938,16.715,0,9,0S0.185,2.938,0.027,3.776C0.023,3.796,0.02,3.815,0.017,3.835
			C0,3.939,0,4,0,4c0,0.3,0.135,0.566,0.344,0.75L0.341,4.753l5.55,4.855L0.012,46.844l0.003,0.001C0.008,46.896,0,46.947,0,47
			c0,0.276,0.112,0.526,0.293,0.707l8,8C8.474,55.889,8.724,56,9,56s0.526-0.111,0.707-0.293l8-8C17.888,47.526,18,47.276,18,47
			c0-0.053-0.008-0.104-0.016-0.155L17.988,46.844z M2.21,3.73C2.726,3.186,4.375,2,9,2c4.626,0,6.274,1.186,6.79,1.73L9,9.671
			L2.21,3.73z M9,53.586l-6.933-6.934L7.67,11.165l0.671,0.588l0.003-0.003C8.52,11.903,8.748,12,9,12
			c0.252,0,0.479-0.097,0.656-0.25l0.002,0.003l0.671-0.588l5.604,35.488L9,53.586z"/>
	</g>
</g>
<g>
</g>
<g>
</g>
<g>
</g>
<g>
</g>
<g>
</g>
<g>
</g>
<g>
</g>
<g>
</g>
<g>
</g>
<g>
</g>
<g>
</g>
<g>
</g>
<g>
</g>
<g>
</g>
<g>
</g>
</svg>
