<?xml version="1.0" encoding="iso-8859-1"?>
<!-- Generator: Adobe Illustrator 16.0.4, SVG Export Plug-In . SVG Version: 6.00 Build 0)  -->
<!DOCTYPE svg PUBLIC "-//W3C//DTD SVG 1.1//EN" "http://www.w3.org/Graphics/SVG/1.1/DTD/svg11.dtd">
<svg version="1.1" id="Layer_1" xmlns="http://www.w3.org/2000/svg" xmlns:xlink="http://www.w3.org/1999/xlink" x="0px" y="0px"
	 width="36px" height="44px" viewBox="0 0 36 44" style="enable-background:new 0 0 36 44;" xml:space="preserve">
<g id="_x31_129-necklace-2_x40_2x.png">
	<g>
		<path d="M36,20.007c0-1.838-1.242-3.37-2.927-3.842C33.643,15.618,34,14.854,34,14.003c0-1.423-0.991-2.608-2.318-2.918
			C31.881,10.774,32,10.406,32,10.01c0-1.104-0.896-1.998-2-1.998c-0.102,0-0.198,0.016-0.296,0.029C29.888,7.737,30,7.384,30,7.001
			c0-1.11-0.896-2.011-2-2.011c-0.378,0-0.728,0.111-1.028,0.294C26.984,5.191,27,5.098,27,5c0-1.11-0.896-2.011-2-2.011
			c-0.001,0-0.001,0-0.002,0C24.989,1.894,24.099,1.008,23,1.008c-0.414,0-0.798,0.126-1.117,0.341C21.611,0.566,20.876,0,20,0
			c-1.104,0-2,0.895-2,1.998s0.896,1.998,2,1.998c0.414,0,0.799-0.125,1.117-0.341C21.389,4.438,22.124,5.004,23,5.004
			c0.002,1.109,0.896,2.008,2,2.008c0.378,0,0.728-0.111,1.028-0.295C26.016,6.811,26,6.904,26,7.001c0,1.111,0.896,2.012,2,2.012
			c0.1,0,0.196-0.015,0.292-0.029C28.11,9.284,28,9.633,28,10.01c0,0.752,0.421,1.399,1.035,1.74C28.406,12.301,28,13.101,28,14.003
			c0,1.201,0.71,2.23,1.729,2.71C28.686,17.436,28,18.64,28,20.007c0,0.985,0.368,1.875,0.957,2.572
			C27.79,23.279,27,24.545,27,26.007c0,0.756,0.221,1.454,0.584,2.057C27.39,28.041,27.2,28.005,27,28.005c-2.762,0-5,2.236-5,4.995
			c0,0.206,0.036,0.401,0.061,0.6c-1.069-0.989-2.488-1.607-4.061-1.607c-1.105,0-2.128,0.32-3.017,0.842
			c-0.09-2.68-2.279-4.829-4.983-4.829c-0.2,0-0.39,0.036-0.584,0.059C9.779,27.461,10,26.763,10,26.007
			c0-1.747-1.123-3.217-2.68-3.766C7.749,21.604,8,20.834,8,20.007c0-1.367-0.686-2.571-1.729-3.294C7.29,16.233,8,15.204,8,14.003
			c0-0.902-0.406-1.702-1.035-2.253C7.579,11.409,8,10.762,8,10.01c0-0.377-0.11-0.726-0.292-1.026C7.804,8.998,7.9,9.013,8,9.013
			c1.104,0,2-0.9,2-2.012c0-0.097-0.016-0.19-0.028-0.284C10.272,6.9,10.622,7.012,11,7.012c1.104,0,1.998-0.898,2-2.008
			c0.876,0,1.611-0.565,1.883-1.349C15.201,3.871,15.586,3.996,16,3.996c1.104,0,2-0.895,2-1.998S17.104,0,16,0
			c-0.876,0-1.611,0.566-1.883,1.349C13.799,1.134,13.414,1.008,13,1.008c-1.099,0-1.989,0.886-1.998,1.981
			c-0.001,0-0.001,0-0.002,0c-1.104,0-2,0.9-2,2.011c0,0.098,0.016,0.191,0.028,0.284C8.728,5.102,8.378,4.99,8,4.99
			c-1.104,0-2,0.9-2,2.011c0,0.383,0.112,0.736,0.296,1.04C6.198,8.027,6.102,8.012,6,8.012c-1.104,0-2,0.895-2,1.998
			c0,0.396,0.119,0.765,0.318,1.075C2.991,11.395,2,12.58,2,14.003c0,0.851,0.357,1.615,0.927,2.162C1.242,16.637,0,18.169,0,20.007
			c0,1.747,1.123,3.218,2.68,3.766C2.251,24.411,2,25.18,2,26.007c0,2.213,1.791,4.007,4,4.007c0.005,0,0.01-0.001,0.015-0.001
			C5.387,30.848,5,31.875,5,33c0,2.759,2.238,4.995,5,4.995c0.73,0,1.42-0.164,2.045-0.445C12.034,37.699,12,37.843,12,37.996
			C12,41.312,14.687,44,18,44s6-2.688,6-6.004c0-0.382-0.044-0.753-0.112-1.115c0.856,0.687,1.929,1.114,3.112,1.114
			c2.762,0,5-2.236,5-4.995c0-1.125-0.387-2.152-1.015-2.987c0.005,0,0.01,0.001,0.015,0.001c2.209,0,4-1.794,4-4.007
			c0-0.984-0.368-1.875-0.957-2.572C35.21,22.734,36,21.469,36,20.007z M5,13.006c0.553,0,1,0.445,1,0.996
			c0,0.55-0.447,0.995-1,0.995s-1-0.445-1-0.995C4,13.451,4.447,13.006,5,13.006z M2,20.006c0-1.104,0.896-1.998,2-1.998
			s2,0.895,2,1.998s-0.896,1.998-2,1.998S2,21.109,2,20.006z M6,28.004c-1.104,0-2-0.895-2-1.998s0.896-1.998,2-1.998
			s2,0.895,2,1.998S7.104,28.004,6,28.004z M10,35.987c-1.657,0-3-1.337-3-2.987c0-1.649,1.343-2.987,3-2.987s3,1.338,3,2.987
			C13,34.65,11.657,35.987,10,35.987z M18,41.992c-2.209,0-4-1.789-4-3.996S15.791,34,18,34s4,1.789,4,3.996
			S20.209,41.992,18,41.992z M31,13.006c0.553,0,1,0.445,1,0.996c0,0.55-0.447,0.995-1,0.995s-1-0.445-1-0.995
			C30,13.451,30.447,13.006,31,13.006z M27,36.143c-1.657,0-3-1.406-3-3.143c0-1.735,1.343-3.143,3-3.143s3,1.407,3,3.143
			C30,34.736,28.657,36.143,27,36.143z M31,28.004c-1.104,0-2-0.895-2-1.998s0.896-1.998,2-1.998s2,0.895,2,1.998
			S32.104,28.004,31,28.004z M32,22.004c-1.104,0-2-0.895-2-1.998s0.896-1.998,2-1.998s2,0.895,2,1.998S33.104,22.004,32,22.004z"/>
	</g>
</g>
<g>
</g>
<g>
</g>
<g>
</g>
<g>
</g>
<g>
</g>
<g>
</g>
<g>
</g>
<g>
</g>
<g>
</g>
<g>
</g>
<g>
</g>
<g>
</g>
<g>
</g>
<g>
</g>
<g>
</g>
</svg>
