<?xml version="1.0" encoding="iso-8859-1"?>
<!-- Generator: Adobe Illustrator 16.0.4, SVG Export Plug-In . SVG Version: 6.00 Build 0)  -->
<!DOCTYPE svg PUBLIC "-//W3C//DTD SVG 1.1//EN" "http://www.w3.org/Graphics/SVG/1.1/DTD/svg11.dtd">
<svg version="1.1" id="Layer_1" xmlns="http://www.w3.org/2000/svg" xmlns:xlink="http://www.w3.org/1999/xlink" x="0px" y="0px"
	 width="56px" height="44px" viewBox="0 0 56 44" style="enable-background:new 0 0 56 44;" xml:space="preserve">
<g id="_x38_74-newspaper_x40_2x.png">
	<g>
		<path d="M35,26h14c0.553,0,1-0.447,1-1s-0.447-1-1-1H35c-0.553,0-1,0.447-1,1S34.447,26,35,26z M35,8h14c0.553,0,1-0.447,1-1
			c0-0.552-0.447-1-1-1H35c-0.553,0-1,0.448-1,1C34,7.553,34.447,8,35,8z M35,14h14c0.553,0,1-0.447,1-1s-0.447-1-1-1H35
			c-0.553,0-1,0.447-1,1S34.447,14,35,14z M35,20h14c0.553,0,1-0.447,1-1c0-0.552-0.447-1-1-1H35c-0.553,0-1,0.448-1,1
			C34,19.553,34.447,20,35,20z M54,0H10C8.896,0,8,0.896,8,2v6H2c-1.104,0-2,0.896-2,2v2v21v5c0,3.313,2.687,6,6,6h4h4h40
			c1.104,0,2-0.896,2-2V2C56,0.896,55.104,0,54,0z M54,42H11h-0.558H10H8H7H6c-2.209,0-4-1.791-4-4v-4.442V10h6v27
			c0,0.553,0.447,1,1,1s1-0.447,1-1V2h44V42z M15,26h14c0.553,0,1-0.447,1-1V7c0-0.552-0.447-1-1-1H15c-0.553,0-1,0.448-1,1v18
			C14,25.553,14.447,26,15,26z M16,8h12v16H16V8z M15,38h34c0.553,0,1-0.447,1-1c0-0.552-0.447-1-1-1H15c-0.553,0-1,0.448-1,1
			C14,37.553,14.447,38,15,38z M15,32h34c0.553,0,1-0.447,1-1s-0.447-1-1-1H15c-0.553,0-1,0.447-1,1S14.447,32,15,32z"/>
	</g>
</g>
<g>
</g>
<g>
</g>
<g>
</g>
<g>
</g>
<g>
</g>
<g>
</g>
<g>
</g>
<g>
</g>
<g>
</g>
<g>
</g>
<g>
</g>
<g>
</g>
<g>
</g>
<g>
</g>
<g>
</g>
</svg>
