<?xml version="1.0" encoding="iso-8859-1"?>
<!-- Generator: Adobe Illustrator 16.0.4, SVG Export Plug-In . SVG Version: 6.00 Build 0)  -->
<!DOCTYPE svg PUBLIC "-//W3C//DTD SVG 1.1//EN" "http://www.w3.org/Graphics/SVG/1.1/DTD/svg11.dtd">
<svg version="1.1" id="Layer_1" xmlns="http://www.w3.org/2000/svg" xmlns:xlink="http://www.w3.org/1999/xlink" x="0px" y="0px"
	 width="44px" height="40px" viewBox="0 0 44 40" style="enable-background:new 0 0 44 40;" xml:space="preserve">
<g id="_x38_74-newspaper-toolbar_x40_2x.png">
	<g>
		<path d="M13,32h24c0.553,0,1-0.447,1-1c0-0.552-0.447-1-1-1H13c-0.553,0-1,0.448-1,1C12,31.553,12.447,32,13,32z M29,20h8
			c0.553,0,1-0.447,1-1s-0.447-1-1-1h-8c-0.553,0-1,0.447-1,1S28.447,20,29,20z M29,8h8c0.553,0,1-0.447,1-1c0-0.552-0.447-1-1-1h-8
			c-0.553,0-1,0.448-1,1C28,7.553,28.447,8,29,8z M29,14h8c0.553,0,1-0.447,1-1c0-0.552-0.447-1-1-1h-8c-0.553,0-1,0.448-1,1
			C28,13.553,28.447,14,29,14z M42,0H8C6.896,0,6,0.896,6,2v6H2c-1.104,0-2,0.896-2,2v2v17v5c0,3.313,2.687,6,6,6h2h4h30
			c1.104,0,2-0.895,2-2V2C44,0.896,43.104,0,42,0z M42,38H9H8.442H8H6c-2.209,0-4-1.791-4-4v-4.442V10h4v23c0,0.553,0.447,1,1,1
			s1-0.447,1-1V2h34V38z M13,26h24c0.553,0,1-0.447,1-1c0-0.552-0.447-1-1-1H13c-0.553,0-1,0.448-1,1C12,25.553,12.447,26,13,26z
			 M13,20h10c0.553,0,1-0.447,1-1V7c0-0.552-0.447-1-1-1H13c-0.553,0-1,0.448-1,1v12C12,19.553,12.447,20,13,20z M14,8h8v10h-8V8z"
			/>
	</g>
</g>
<g>
</g>
<g>
</g>
<g>
</g>
<g>
</g>
<g>
</g>
<g>
</g>
<g>
</g>
<g>
</g>
<g>
</g>
<g>
</g>
<g>
</g>
<g>
</g>
<g>
</g>
<g>
</g>
<g>
</g>
</svg>
