<?xml version="1.0" encoding="iso-8859-1"?>
<!-- Generator: Adobe Illustrator 16.0.4, SVG Export Plug-In . SVG Version: 6.00 Build 0)  -->
<!DOCTYPE svg PUBLIC "-//W3C//DTD SVG 1.1//EN" "http://www.w3.org/Graphics/SVG/1.1/DTD/svg11.dtd">
<svg version="1.1" id="Layer_1" xmlns="http://www.w3.org/2000/svg" xmlns:xlink="http://www.w3.org/1999/xlink" x="0px" y="0px"
	 width="48px" height="56px" viewBox="0 0 48 56" style="enable-background:new 0 0 48 56;" xml:space="preserve">
<g id="_x38_87-notepad_x40_2x.png">
	<g>
		<path d="M44,6h-4V1c0-0.553-0.447-1-1-1s-1,0.447-1,1v5h-4V1c0-0.553-0.447-1-1-1s-1,0.447-1,1v5h-4V1c0-0.553-0.447-1-1-1
			s-1,0.447-1,1v5h-4V1c0-0.553-0.447-1-1-1c-0.552,0-1,0.447-1,1v5h-4V1c0-0.553-0.447-1-1-1s-1,0.447-1,1v5h-4V1
			c0-0.553-0.447-1-1-1S8,0.447,8,1v5H4c-2.209,0-4,1.791-4,4v42c0,2.209,1.791,4,4,4h40c2.209,0,4-1.791,4-4V10
			C48,7.791,46.209,6,44,6z M46,52c0,1.104-0.896,2-2,2H4c-1.104,0-2-0.896-2-2V10c0-1.104,0.896-2,2-2h4v5c0,0.553,0.447,1,1,1
			s1-0.447,1-1V8h4v5c0,0.553,0.447,1,1,1s1-0.447,1-1V8h4v5c0,0.553,0.448,1,1,1c0.553,0,1-0.447,1-1V8h4v5c0,0.553,0.447,1,1,1
			s1-0.447,1-1V8h4v5c0,0.553,0.447,1,1,1s1-0.447,1-1V8h4v5c0,0.553,0.447,1,1,1s1-0.447,1-1V8h4c1.104,0,2,0.896,2,2V52z M9,36h24
			c0.553,0,1-0.447,1-1c0-0.552-0.447-1-1-1H9c-0.553,0-1,0.448-1,1C8,35.553,8.447,36,9,36z M39,40H9c-0.553,0-1,0.447-1,1
			s0.447,1,1,1h30c0.553,0,1-0.447,1-1S39.553,40,39,40z M39,22H9c-0.553,0-1,0.448-1,1c0,0.553,0.447,1,1,1h30c0.553,0,1-0.447,1-1
			C40,22.448,39.553,22,39,22z M39,28H9c-0.553,0-1,0.448-1,1c0,0.553,0.447,1,1,1h30c0.553,0,1-0.447,1-1
			C40,28.448,39.553,28,39,28z"/>
	</g>
</g>
<g>
</g>
<g>
</g>
<g>
</g>
<g>
</g>
<g>
</g>
<g>
</g>
<g>
</g>
<g>
</g>
<g>
</g>
<g>
</g>
<g>
</g>
<g>
</g>
<g>
</g>
<g>
</g>
<g>
</g>
</svg>
