<?xml version="1.0" encoding="iso-8859-1"?>
<!-- Generator: Adobe Illustrator 16.0.4, SVG Export Plug-In . SVG Version: 6.00 Build 0)  -->
<!DOCTYPE svg PUBLIC "-//W3C//DTD SVG 1.1//EN" "http://www.w3.org/Graphics/SVG/1.1/DTD/svg11.dtd">
<svg version="1.1" id="Layer_1" xmlns="http://www.w3.org/2000/svg" xmlns:xlink="http://www.w3.org/1999/xlink" x="0px" y="0px"
	 width="44px" height="56px" viewBox="0 0 44 56" style="enable-background:new 0 0 44 56;" xml:space="preserve">
<g id="_x31_011-notepad_x40_2x.png">
	<g>
		<path d="M36,24H8v2h28V24z M36,18H8v2h28V18z M36,12H8v2h28V12z M26,42H8v2h18V42z M36,30H8v2h28V30z M42,4h-3V1
			c0-0.552-0.447-1-1-1s-1,0.448-1,1v3h-6V1c0-0.552-0.447-1-1-1s-1,0.448-1,1v3h-6V1c0-0.552-0.447-1-1-1c-0.552,0-1,0.448-1,1v3
			h-6V1c0-0.552-0.448-1-1-1s-1,0.448-1,1v3H7V1c0-0.552-0.448-1-1-1S5,0.448,5,1v3H2C0.896,4,0,4.896,0,6v48c0,1.104,0.896,2,2,2
			h40c1.104,0,2-0.896,2-2V6C44,4.896,43.104,4,42,4z M42,54H2V6h40V54z M36,36H8v2h28V36z"/>
	</g>
</g>
<g>
</g>
<g>
</g>
<g>
</g>
<g>
</g>
<g>
</g>
<g>
</g>
<g>
</g>
<g>
</g>
<g>
</g>
<g>
</g>
<g>
</g>
<g>
</g>
<g>
</g>
<g>
</g>
<g>
</g>
</svg>
