<?xml version="1.0" encoding="iso-8859-1"?>
<!-- Generator: Adobe Illustrator 16.0.4, SVG Export Plug-In . SVG Version: 6.00 Build 0)  -->
<!DOCTYPE svg PUBLIC "-//W3C//DTD SVG 1.1//EN" "http://www.w3.org/Graphics/SVG/1.1/DTD/svg11.dtd">
<svg version="1.1" id="Layer_1" xmlns="http://www.w3.org/2000/svg" xmlns:xlink="http://www.w3.org/1999/xlink" x="0px" y="0px"
	 width="32px" height="44px" viewBox="0 0 32 44" style="enable-background:new 0 0 32 44;" xml:space="preserve">
<g id="_x31_011-notepad-toolbar_x40_2x.png">
	<g>
		<path d="M26,16H6v2h20V16z M30,4h-4V1c0-0.553-0.447-1-1-1s-1,0.447-1,1v3h-4V1c0-0.553-0.447-1-1-1s-1,0.447-1,1v3h-4V1
			c0-0.553-0.448-1-1-1s-1,0.447-1,1v3H8V1c0-0.553-0.448-1-1-1S6,0.447,6,1v3H2C0.896,4,0,4.896,0,6v36c0,1.104,0.896,2,2,2h28
			c1.104,0,2-0.896,2-2V6C32,4.896,31.104,4,30,4z M30,42H2V6h28V42z M26,22H6v2h20V22z M26,10H6v2h20V10z M26,28H6v2h20V28z M22,34
			H6v2h16V34z"/>
	</g>
</g>
<g>
</g>
<g>
</g>
<g>
</g>
<g>
</g>
<g>
</g>
<g>
</g>
<g>
</g>
<g>
</g>
<g>
</g>
<g>
</g>
<g>
</g>
<g>
</g>
<g>
</g>
<g>
</g>
<g>
</g>
</svg>
