<?xml version="1.0" encoding="iso-8859-1"?>
<!-- Generator: Adobe Illustrator 16.0.4, SVG Export Plug-In . SVG Version: 6.00 Build 0)  -->
<!DOCTYPE svg PUBLIC "-//W3C//DTD SVG 1.1//EN" "http://www.w3.org/Graphics/SVG/1.1/DTD/svg11.dtd">
<svg version="1.1" id="Layer_1" xmlns="http://www.w3.org/2000/svg" xmlns:xlink="http://www.w3.org/1999/xlink" x="0px" y="0px"
	 width="36px" height="44px" viewBox="0 0 36 44" style="enable-background:new 0 0 36 44;" xml:space="preserve">
<g id="_x38_87-notepad-toolbar_x40_2x.png">
	<g>
		<path d="M29,22H7c-0.553,0-1,0.447-1,1s0.447,1,1,1h22c0.553,0,1-0.447,1-1S29.553,22,29,22z M29,30H7c-0.553,0-1,0.447-1,1
			s0.447,1,1,1h22c0.553,0,1-0.447,1-1S29.553,30,29,30z M7,28h18c0.553,0,1-0.447,1-1s-0.447-1-1-1H7c-0.553,0-1,0.447-1,1
			S6.447,28,7,28z M34,4h-5V1c0-0.553-0.447-1-1-1s-1,0.447-1,1v3h-3V1c0-0.553-0.447-1-1-1s-1,0.447-1,1v3h-3V1
			c0-0.553-0.447-1-1-1s-1,0.447-1,1v3h-3V1c0-0.553-0.447-1-1-1s-1,0.447-1,1v3H9V1c0-0.553-0.447-1-1-1S7,0.447,7,1v3H2
			C0.896,4,0,4.896,0,6v36c0,1.104,0.896,2,2,2h32c1.104,0,2-0.896,2-2V6C36,4.896,35.104,4,34,4z M34,42H2V6h5v3
			c0,0.553,0.447,1,1,1s1-0.447,1-1V6h3v3c0,0.553,0.447,1,1,1s1-0.447,1-1V6h3v3c0,0.553,0.447,1,1,1s1-0.447,1-1V6h3v3
			c0,0.553,0.447,1,1,1s1-0.447,1-1V6h3v3c0,0.553,0.447,1,1,1s1-0.447,1-1V6h5V42z M7,18c-0.553,0-1,0.447-1,1s0.447,1,1,1h22
			c0.553,0,1-0.447,1-1s-0.447-1-1-1H7z"/>
	</g>
</g>
<g>
</g>
<g>
</g>
<g>
</g>
<g>
</g>
<g>
</g>
<g>
</g>
<g>
</g>
<g>
</g>
<g>
</g>
<g>
</g>
<g>
</g>
<g>
</g>
<g>
</g>
<g>
</g>
<g>
</g>
</svg>
