<?xml version="1.0" encoding="iso-8859-1"?>
<!-- Generator: Adobe Illustrator 16.0.4, SVG Export Plug-In . SVG Version: 6.00 Build 0)  -->
<!DOCTYPE svg PUBLIC "-//W3C//DTD SVG 1.1//EN" "http://www.w3.org/Graphics/SVG/1.1/DTD/svg11.dtd">
<svg version="1.1" id="Layer_1" xmlns="http://www.w3.org/2000/svg" xmlns:xlink="http://www.w3.org/1999/xlink" x="0px" y="0px"
	 width="43.56px" height="33.913px" viewBox="0 0 43.56 33.913" style="enable-background:new 0 0 43.56 33.913;"
	 xml:space="preserve">
<g id="_x31_175-numbered-list_x40_2x.png">
	<g>
		<path d="M4.214,16.704c-0.29,0.252-0.607,0.487-0.952,0.707c-0.346,0.219-0.677,0.445-0.994,0.679
			c-0.663,0.448-1.186,0.976-1.568,1.582S0.121,20.988,0.112,21.8h6.692v-1.428H2.03c0.065-0.215,0.187-0.418,0.364-0.609
			c0.177-0.191,0.385-0.375,0.623-0.553c0.238-0.177,0.497-0.354,0.777-0.532c0.28-0.177,0.56-0.364,0.84-0.56
			c0.28-0.196,0.551-0.406,0.812-0.63c0.261-0.225,0.495-0.47,0.7-0.735c0.205-0.266,0.369-0.558,0.49-0.875
			c0.121-0.317,0.182-0.672,0.182-1.063c0-0.317-0.051-0.651-0.154-1.001c-0.103-0.351-0.278-0.675-0.525-0.974
			c-0.248-0.299-0.572-0.546-0.973-0.742c-0.401-0.195-0.901-0.294-1.498-0.294c-0.551,0-1.034,0.096-1.449,0.287
			c-0.415,0.191-0.768,0.455-1.057,0.791c-0.29,0.336-0.506,0.735-0.651,1.197c-0.145,0.462-0.217,0.964-0.217,1.505H1.89
			c0.009-0.346,0.044-0.667,0.105-0.966c0.061-0.299,0.154-0.558,0.28-0.777c0.126-0.219,0.294-0.392,0.504-0.518
			s0.474-0.189,0.791-0.189c0.345,0,0.625,0.059,0.84,0.175c0.214,0.117,0.382,0.262,0.504,0.435
			c0.121,0.173,0.203,0.359,0.245,0.56c0.042,0.201,0.063,0.39,0.063,0.567c-0.01,0.383-0.107,0.721-0.294,1.015
			C4.741,16.179,4.503,16.452,4.214,16.704z M42.56,15.966h-32c-0.552,0-1,0.447-1,1s0.448,1,1,1h32c0.552,0,1-0.447,1-1
			S43.112,15.966,42.56,15.966z M10.56,5.966h32c0.552,0,1-0.447,1-1c0-0.552-0.448-1-1-1h-32c-0.552,0-1,0.448-1,1
			C9.56,5.519,10.008,5.966,10.56,5.966z M3.311,9.8h1.75V0H3.759C3.703,0.299,3.584,0.551,3.402,0.756
			C3.22,0.962,3.001,1.13,2.744,1.26C2.487,1.391,2.2,1.484,1.883,1.54c-0.317,0.056-0.644,0.084-0.98,0.084v1.26h2.408V9.8z
			 M5.138,28.467v-0.028c0.476-0.168,0.826-0.436,1.05-0.805c0.224-0.368,0.336-0.801,0.336-1.295c0-0.43-0.089-0.81-0.266-1.142
			c-0.177-0.331-0.413-0.604-0.707-0.818c-0.294-0.215-0.625-0.378-0.994-0.49c-0.369-0.112-0.745-0.168-1.127-0.168
			c-0.495,0-0.938,0.084-1.33,0.252c-0.392,0.168-0.726,0.401-1.001,0.7c-0.275,0.299-0.493,0.651-0.651,1.057
			c-0.159,0.406-0.247,0.848-0.266,1.323h1.596c-0.009-0.252,0.019-0.497,0.084-0.735c0.065-0.237,0.166-0.452,0.301-0.644
			c0.135-0.191,0.306-0.343,0.511-0.455c0.206-0.112,0.448-0.168,0.728-0.168c0.448,0,0.814,0.126,1.099,0.378
			s0.427,0.588,0.427,1.008c0,0.299-0.063,0.551-0.189,0.756c-0.126,0.206-0.292,0.366-0.497,0.483
			c-0.205,0.117-0.438,0.198-0.7,0.245s-0.523,0.065-0.784,0.056v1.19c0.317-0.01,0.628,0,0.931,0.027
			c0.303,0.028,0.576,0.101,0.819,0.217c0.243,0.117,0.439,0.287,0.588,0.512c0.149,0.224,0.224,0.527,0.224,0.91
			c0,0.56-0.18,0.991-0.539,1.295c-0.359,0.303-0.805,0.455-1.337,0.455c-0.625,0-1.094-0.198-1.407-0.596
			c-0.313-0.396-0.46-0.894-0.441-1.49H0c0.009,0.513,0.088,0.979,0.238,1.399s0.366,0.779,0.651,1.078
			c0.284,0.299,0.639,0.53,1.064,0.693c0.424,0.163,0.921,0.245,1.491,0.245c0.467,0,0.91-0.07,1.33-0.21
			c0.42-0.141,0.789-0.339,1.106-0.596c0.317-0.256,0.569-0.569,0.756-0.938c0.187-0.369,0.28-0.786,0.28-1.253
			c0-0.635-0.156-1.174-0.469-1.617C6.134,28.856,5.698,28.579,5.138,28.467z M42.56,27.966h-32c-0.552,0-1,0.448-1,1
			c0,0.553,0.448,1,1,1h32c0.552,0,1-0.447,1-1C43.56,28.414,43.112,27.966,42.56,27.966z"/>
	</g>
</g>
<g>
</g>
<g>
</g>
<g>
</g>
<g>
</g>
<g>
</g>
<g>
</g>
<g>
</g>
<g>
</g>
<g>
</g>
<g>
</g>
<g>
</g>
<g>
</g>
<g>
</g>
<g>
</g>
<g>
</g>
</svg>
