<?xml version="1.0" encoding="UTF-8" standalone="no"?>
<svg width="57px" height="44px" viewBox="0 0 57 44" version="1.1" xmlns="http://www.w3.org/2000/svg" xmlns:xlink="http://www.w3.org/1999/xlink" xmlns:sketch="http://www.bohemiancoding.com/sketch/ns">
    <!-- Generator: Sketch 3.0.4 (8053) - http://www.bohemiancoding.com/sketch -->
    <title>1175-numbered-list</title>
    <desc>Created with Sketch.</desc>
    <defs></defs>
    <g id="Page-1" stroke="none" stroke-width="1" fill="none" fill-rule="evenodd" sketch:type="MSPage">
        <g id="Glyphish-8-Icons" sketch:type="MSArtboardGroup" transform="translate(-404.000000, -698.000000)" fill="#000000">
            <g id="1175-numbered-list" sketch:type="MSLayerGroup" transform="translate(404.036996, 698.860499)">
                <g id="_x31_175-numbered-list_x40_2x.png" sketch:type="MSShapeGroup">
                    <path d="M3.716,9.8 L5.466,9.8 L5.466,0 L4.164,0 C4.108,0.299 3.989,0.551 3.807,0.756 C3.625,0.961 3.406,1.129 3.149,1.26 C2.892,1.391 2.605,1.484 2.288,1.54 C1.971,1.596 1.644,1.624 1.308,1.624 L1.308,2.884 L3.716,2.884 L3.716,9.8 L3.716,9.8 Z M10.56,5.966 L54.56,5.966 C55.112,5.966 55.56,5.519 55.56,4.966 C55.56,4.414 55.112,3.966 54.56,3.966 L10.56,3.966 C10.008,3.966 9.56,4.414 9.56,4.966 C9.56,5.519 10.008,5.966 10.56,5.966 L10.56,5.966 Z M4.214,20.704 C3.924,20.956 3.607,21.191 3.262,21.411 C2.916,21.63 2.585,21.856 2.268,22.09 C1.605,22.538 1.082,23.066 0.7,23.672 C0.318,24.278 0.121,24.988 0.112,25.8 L6.804,25.8 L6.804,24.372 L2.03,24.372 C2.095,24.157 2.217,23.954 2.394,23.763 C2.571,23.572 2.779,23.388 3.017,23.21 C3.255,23.033 3.514,22.856 3.794,22.678 C4.074,22.501 4.354,22.314 4.634,22.118 C4.914,21.922 5.185,21.712 5.446,21.488 C5.707,21.263 5.941,21.018 6.146,20.753 C6.351,20.487 6.515,20.195 6.636,19.878 C6.758,19.561 6.818,19.206 6.818,18.815 C6.818,18.498 6.767,18.164 6.664,17.814 C6.561,17.463 6.386,17.139 6.139,16.84 C5.891,16.541 5.567,16.294 5.166,16.098 C4.765,15.903 4.265,15.804 3.668,15.804 C3.117,15.804 2.634,15.9 2.219,16.091 C1.804,16.282 1.451,16.546 1.162,16.882 C0.872,17.218 0.656,17.617 0.511,18.079 C0.366,18.541 0.294,19.043 0.294,19.584 L1.89,19.584 C1.899,19.238 1.934,18.917 1.995,18.618 C2.056,18.319 2.149,18.06 2.275,17.841 C2.401,17.622 2.569,17.449 2.779,17.323 C2.989,17.197 3.253,17.134 3.57,17.134 C3.915,17.134 4.195,17.193 4.41,17.309 C4.625,17.426 4.793,17.571 4.914,17.744 C5.035,17.917 5.117,18.103 5.159,18.304 C5.201,18.505 5.222,18.694 5.222,18.871 C5.212,19.254 5.115,19.592 4.928,19.886 C4.741,20.179 4.503,20.452 4.214,20.704 L4.214,20.704 Z M5.138,36.467 L5.138,36.439 C5.614,36.271 5.964,36.003 6.188,35.634 C6.412,35.265 6.524,34.833 6.524,34.339 C6.524,33.909 6.435,33.529 6.258,33.197 C6.081,32.866 5.845,32.593 5.551,32.379 C5.257,32.165 4.926,32.001 4.557,31.889 C4.188,31.777 3.812,31.721 3.43,31.721 C2.935,31.721 2.492,31.805 2.1,31.973 C1.708,32.141 1.374,32.374 1.099,32.673 C0.824,32.972 0.606,33.323 0.448,33.73 C0.29,34.137 0.201,34.578 0.182,35.053 L1.778,35.053 C1.769,34.801 1.797,34.556 1.862,34.318 C1.927,34.08 2.028,33.866 2.163,33.674 C2.298,33.483 2.469,33.331 2.674,33.219 C2.88,33.107 3.122,33.051 3.402,33.051 C3.85,33.051 4.216,33.177 4.501,33.429 C4.786,33.681 4.928,34.017 4.928,34.437 C4.928,34.736 4.865,34.988 4.739,35.193 C4.613,35.399 4.447,35.559 4.242,35.676 C4.037,35.792 3.804,35.874 3.542,35.921 C3.28,35.968 3.019,35.986 2.758,35.977 L2.758,37.167 C3.075,37.157 3.386,37.167 3.689,37.194 C3.992,37.222 4.265,37.295 4.508,37.411 C4.751,37.528 4.947,37.698 5.096,37.923 C5.245,38.147 5.32,38.45 5.32,38.833 C5.32,39.393 5.14,39.824 4.781,40.128 C4.422,40.431 3.976,40.583 3.444,40.583 C2.819,40.583 2.35,40.385 2.037,39.987 C1.724,39.591 1.577,39.093 1.596,38.497 L0,38.497 C0.009,39.01 0.088,39.476 0.238,39.896 C0.388,40.316 0.604,40.675 0.889,40.974 C1.173,41.273 1.528,41.504 1.953,41.667 C2.377,41.83 2.874,41.911 3.444,41.911 C3.911,41.911 4.354,41.842 4.774,41.702 C5.194,41.561 5.563,41.363 5.88,41.106 C6.197,40.85 6.449,40.537 6.636,40.168 C6.823,39.799 6.916,39.382 6.916,38.915 C6.916,38.28 6.76,37.741 6.447,37.298 C6.134,36.856 5.698,36.579 5.138,36.467 L5.138,36.467 Z M54.56,19.966 L10.56,19.966 C10.008,19.966 9.56,20.413 9.56,20.966 C9.56,21.519 10.008,21.966 10.56,21.966 L54.56,21.966 C55.112,21.966 55.56,21.519 55.56,20.966 C55.56,20.413 55.112,19.966 54.56,19.966 L54.56,19.966 Z M54.56,35.966 L10.56,35.966 C10.008,35.966 9.56,36.413 9.56,36.966 C9.56,37.519 10.008,37.966 10.56,37.966 L54.56,37.966 C55.112,37.966 55.56,37.519 55.56,36.966 C55.56,36.413 55.112,35.966 54.56,35.966 L54.56,35.966 Z" id="Shape"></path>
                </g>
            </g>
        </g>
    </g>
</svg>