<?xml version="1.0" encoding="iso-8859-1"?>
<!-- Generator: Adobe Illustrator 16.0.4, SVG Export Plug-In . SVG Version: 6.00 Build 0)  -->
<!DOCTYPE svg PUBLIC "-//W3C//DTD SVG 1.1//EN" "http://www.w3.org/Graphics/SVG/1.1/DTD/svg11.dtd">
<svg version="1.1" id="Layer_1" xmlns="http://www.w3.org/2000/svg" xmlns:xlink="http://www.w3.org/1999/xlink" x="0px" y="0px"
	 width="26px" height="42px" viewBox="0 0 26 42" style="enable-background:new 0 0 26 42;" xml:space="preserve">
<g id="_x31_102-one-finger-tap_x40_2x.png">
	<g>
		<path d="M5,8c0.552,0,1-0.447,1-1c0-3.313,2.655-5,5-5s5,1.687,5,5c0,0.553,0.448,1,1,1s1-0.447,1-1c0-4.418-3.494-7-7-7
			S4,2.582,4,7C4,7.553,4.448,8,5,8z M23,18c-0.395,0-0.77,0.081-1.116,0.22C21.539,16.943,20.385,16,19,16
			c-0.395,0-0.77,0.081-1.116,0.22C17.54,14.943,16.385,14,15,14c-0.353,0-0.686,0.072-1,0.184V9c0-1.657-1.343-3-3-3S8,7.343,8,9
			v15.861l-2.616-3.699L5.34,21.193C4.797,20.48,3.968,20,3,20c-1.657,0-3,1.343-3,3c0,0.389,0.08,0.757,0.214,1.098l-0.012,0.006
			l3.241,9.546C4.815,38.468,9.24,42,14.498,42c6.351,0,11.5-5.148,11.502-11.5V21C26,19.343,24.657,18,23,18z M24,23.806v0.233
			V30.5c-0.002,5.247-4.255,9.5-9.502,9.5c-4.236,0-7.821-2.773-9.047-6.602l0.003-0.002l-0.05-0.146
			c-0.02-0.066-0.027-0.138-0.046-0.204l-1.923-5.622c-0.002,0.008-0.005,0.015-0.007,0.022l-0.495-1.453
			c0.004,0,0.008,0.001,0.013,0.001l-0.917-2.682l0.031-0.018C2.03,23.2,2,23.104,2,23c0-0.552,0.448-1,1-1
			c0.304,0,0.567,0.143,0.75,0.357l0.002-0.002l4.488,6.295l0.009-0.007C8.433,28.857,8.696,29,9,29c0.552,0,1-0.447,1-1v-5.854
			v-2.178v-8.151V9c0-0.553,0.448-1,1-1s1,0.447,1,1v2.816V21c0,0.553,0.448,1,1,1s1-0.447,1-1v-2v-2c0-0.552,0.448-1,1-1
			s1,0.448,1,1v4.126V23c0,0.553,0.448,1,1,1s1-0.447,1-1v-1.322V19c0-0.553,0.448-1,1-1s1,0.447,1,1v3.766V25c0,0.553,0.448,1,1,1
			s1-0.447,1-1v-0.316V21c0-0.552,0.448-1,1-1s1,0.448,1,1V23.806z"/>
	</g>
</g>
<g>
</g>
<g>
</g>
<g>
</g>
<g>
</g>
<g>
</g>
<g>
</g>
<g>
</g>
<g>
</g>
<g>
</g>
<g>
</g>
<g>
</g>
<g>
</g>
<g>
</g>
<g>
</g>
<g>
</g>
</svg>
