<?xml version="1.0" encoding="iso-8859-1"?>
<!-- Generator: Adobe Illustrator 16.0.4, SVG Export Plug-In . SVG Version: 6.00 Build 0)  -->
<!DOCTYPE svg PUBLIC "-//W3C//DTD SVG 1.1//EN" "http://www.w3.org/Graphics/SVG/1.1/DTD/svg11.dtd">
<svg version="1.1" id="Layer_1" xmlns="http://www.w3.org/2000/svg" xmlns:xlink="http://www.w3.org/1999/xlink" x="0px" y="0px"
	 width="44px" height="44px" viewBox="0 0 44 44" style="enable-background:new 0 0 44 44;" xml:space="preserve">
<g id="_x31_056-org-chart-toolbar_x40_2x.png">
	<g>
		<path d="M17,12h10c0.553,0,1-0.447,1-1V1c0-0.553-0.447-1-1-1H17c-0.553,0-1,0.447-1,1v10C16,11.553,16.447,12,17,12z M18,2h8v8
			h-8V2z M7,23h14v7h2v-7h14v7h2v-8c0-0.552-0.447-1-1-1H23v-7h-2v7H6c-0.553,0-1,0.448-1,1v8h2V23z M11,32H1c-0.553,0-1,0.447-1,1
			v10c0,0.553,0.447,1,1,1h10c0.553,0,1-0.447,1-1V33C12,32.447,11.553,32,11,32z M10,42H2v-8h8V42z M27,32H17c-0.553,0-1,0.447-1,1
			v10c0,0.553,0.447,1,1,1h10c0.553,0,1-0.447,1-1V33C28,32.447,27.553,32,27,32z M26,42h-8v-8h8V42z M43,32H33
			c-0.553,0-1,0.447-1,1v10c0,0.553,0.447,1,1,1h10c0.553,0,1-0.447,1-1V33C44,32.447,43.553,32,43,32z M42,42h-8v-8h8V42z"/>
	</g>
</g>
<g>
</g>
<g>
</g>
<g>
</g>
<g>
</g>
<g>
</g>
<g>
</g>
<g>
</g>
<g>
</g>
<g>
</g>
<g>
</g>
<g>
</g>
<g>
</g>
<g>
</g>
<g>
</g>
<g>
</g>
</svg>
