<?xml version="1.0" encoding="iso-8859-1"?>
<!-- Generator: Adobe Illustrator 16.0.4, SVG Export Plug-In . SVG Version: 6.00 Build 0)  -->
<!DOCTYPE svg PUBLIC "-//W3C//DTD SVG 1.1//EN" "http://www.w3.org/Graphics/SVG/1.1/DTD/svg11.dtd">
<svg version="1.1" id="Layer_1" xmlns="http://www.w3.org/2000/svg" xmlns:xlink="http://www.w3.org/1999/xlink" x="0px" y="0px"
	 width="56px" height="56px" viewBox="0 0 56 56" style="enable-background:new 0 0 56 56;" xml:space="preserve">
<g id="_x31_056-org-chart_x40_2x.png">
	<g>
		<path d="M9,28h18v10h2V28h18v10h2V27c0-0.552-0.447-1-1-1H29v-8h-2v8H8c-0.553,0-1,0.448-1,1v11h2V28z M21,16h14
			c0.553,0,1-0.447,1-1V1c0-0.553-0.447-1-1-1H21c-0.553,0-1,0.447-1,1v14C20,15.553,20.447,16,21,16z M22,2h12v12H22V2z M35,40H21
			c-0.553,0-1,0.447-1,1v14c0,0.553,0.447,1,1,1h14c0.553,0,1-0.447,1-1V41C36,40.447,35.553,40,35,40z M34,54H22V42h12V54z M15,40
			H1c-0.553,0-1,0.447-1,1v14c0,0.553,0.447,1,1,1h14c0.553,0,1-0.447,1-1V41C16,40.447,15.553,40,15,40z M14,54H2V42h12V54z M55,40
			H41c-0.553,0-1,0.447-1,1v14c0,0.553,0.447,1,1,1h14c0.553,0,1-0.447,1-1V41C56,40.447,55.553,40,55,40z M54,54H42V42h12V54z"/>
	</g>
</g>
<g>
</g>
<g>
</g>
<g>
</g>
<g>
</g>
<g>
</g>
<g>
</g>
<g>
</g>
<g>
</g>
<g>
</g>
<g>
</g>
<g>
</g>
<g>
</g>
<g>
</g>
<g>
</g>
<g>
</g>
</svg>
