<?xml version="1.0" encoding="iso-8859-1"?>
<!-- Generator: Adobe Illustrator 16.0.4, SVG Export Plug-In . SVG Version: 6.00 Build 0)  -->
<!DOCTYPE svg PUBLIC "-//W3C//DTD SVG 1.1//EN" "http://www.w3.org/Graphics/SVG/1.1/DTD/svg11.dtd">
<svg version="1.1" id="Layer_1" xmlns="http://www.w3.org/2000/svg" xmlns:xlink="http://www.w3.org/1999/xlink" x="0px" y="0px"
	 width="44px" height="44px" viewBox="0 0 44 44" style="enable-background:new 0 0 44 44;" xml:space="preserve">
<g id="_x38_07-package-toolbar_x40_2x.png">
	<g>
		<path d="M15,36H7c-0.553,0-1,0.448-1,1c0,0.553,0.447,1,1,1h8c0.553,0,1-0.447,1-1C16,36.448,15.553,36,15,36z M33,32h1.586
			l-4.293,4.293C30.112,36.475,30,36.725,30,37c0,0.553,0.447,1,1,1c0.276,0,0.526-0.112,0.708-0.293L36,33.414V35
			c0,0.553,0.447,1,1,1s1-0.447,1-1v-4c0-0.553-0.447-1-1-1h-4c-0.553,0-1,0.447-1,1S32.447,32,33,32z M43.886,10.558l0.009-0.005
			l-0.077-0.097c-0.047-0.069-0.093-0.137-0.155-0.193l-7.768-9.71l-0.009,0.005C35.721,0.23,35.391,0,35,0H9
			C8.609,0,8.279,0.23,8.114,0.558L8.105,0.553l-7.768,9.71c-0.062,0.057-0.108,0.124-0.154,0.193l-0.078,0.097l0.01,0.005
			C0.047,10.692,0,10.839,0,11v1v3v27c0,1.104,0.896,2,2,2h40c1.104,0,2-0.896,2-2V15v-3v-1C44,10.839,43.953,10.692,43.886,10.558z
			 M24,2l2,10v8h-8v-8l2-10H24z M42,15v27H2V15v-3h11c0.553,0,1-0.447,1-1c0-0.552-0.447-1-1-1H3.053l6.399-8H18l-2,10v8
			c0,0,0,2,2,2h8c0,0,2,0,2-2s0-8,0-8L26,2h8.548l6.4,8H31c-0.553,0-1,0.448-1,1c0,0.553,0.447,1,1,1h11V15z M19,30H7
			c-0.553,0-1,0.447-1,1s0.447,1,1,1h12c0.553,0,1-0.447,1-1S19.553,30,19,30z"/>
	</g>
</g>
<g>
</g>
<g>
</g>
<g>
</g>
<g>
</g>
<g>
</g>
<g>
</g>
<g>
</g>
<g>
</g>
<g>
</g>
<g>
</g>
<g>
</g>
<g>
</g>
<g>
</g>
<g>
</g>
<g>
</g>
</svg>
