<?xml version="1.0" encoding="iso-8859-1"?>
<!-- Generator: Adobe Illustrator 16.0.4, SVG Export Plug-In . SVG Version: 6.00 Build 0)  -->
<!DOCTYPE svg PUBLIC "-//W3C//DTD SVG 1.1//EN" "http://www.w3.org/Graphics/SVG/1.1/DTD/svg11.dtd">
<svg version="1.1" id="Layer_1" xmlns="http://www.w3.org/2000/svg" xmlns:xlink="http://www.w3.org/1999/xlink" x="0px" y="0px"
	 width="56px" height="56px" viewBox="0 0 56 56" style="enable-background:new 0 0 56 56;" xml:space="preserve">
<g id="_x38_07-package_x40_2x.png">
	<g>
		<path d="M21,48H7c-0.553,0-1,0.448-1,1c0,0.553,0.447,1,1,1h14c0.553,0,1-0.447,1-1C22,48.448,21.553,48,21,48z M55.886,16.558
			l0.009-0.005l-8-16l-0.009,0.005C47.721,0.23,47.391,0,47,0H9C8.609,0,8.279,0.23,8.114,0.558L8.105,0.553l-8,16l0.009,0.005
			C0.047,16.692,0,16.839,0,17v1v3v33c0,1.104,0.896,2,2,2h52c1.104,0,2-0.896,2-2V21v-3v-1C56,16.839,55.953,16.692,55.886,16.558z
			 M30,2l2,16v8h-8v-8l2-16H30z M54,21v33H2V21v-3h17c0.553,0,1-0.447,1-1c0-0.552-0.447-1-1-1H2.618l7-14H24l-2,16v8c0,0,0,2,2,2h8
			c0,0,2,0,2-2s0-8,0-8L32,2h14.382l7,14H37c-0.553,0-1,0.448-1,1c0,0.553,0.447,1,1,1h17V21z M43,50
			c0.276,0,0.526-0.112,0.708-0.293L48,45.414V47c0,0.553,0.447,1,1,1s1-0.447,1-1v-4c0-0.553-0.447-1-1-1h-4c-0.553,0-1,0.447-1,1
			s0.447,1,1,1h1.586l-4.293,4.293C42.112,48.475,42,48.725,42,49C42,49.553,42.447,50,43,50z M25,42H7c-0.553,0-1,0.447-1,1
			s0.447,1,1,1h18c0.553,0,1-0.447,1-1S25.553,42,25,42z"/>
	</g>
</g>
<g>
</g>
<g>
</g>
<g>
</g>
<g>
</g>
<g>
</g>
<g>
</g>
<g>
</g>
<g>
</g>
<g>
</g>
<g>
</g>
<g>
</g>
<g>
</g>
<g>
</g>
<g>
</g>
<g>
</g>
</svg>
