<?xml version="1.0" encoding="iso-8859-1"?>
<!-- Generator: Adobe Illustrator 16.0.4, SVG Export Plug-In . SVG Version: 6.00 Build 0)  -->
<!DOCTYPE svg PUBLIC "-//W3C//DTD SVG 1.1//EN" "http://www.w3.org/Graphics/SVG/1.1/DTD/svg11.dtd">
<svg version="1.1" id="Layer_1" xmlns="http://www.w3.org/2000/svg" xmlns:xlink="http://www.w3.org/1999/xlink" x="0px" y="0px"
	 width="56px" height="56px" viewBox="0 0 56 56" style="enable-background:new 0 0 56 56;" xml:space="preserve">
<g id="_x31_017-paint-roller_x40_2x.png">
	<g>
		<path d="M55,8h-3V4c0-2.209-1.791-4-4-4H4C1.791,0,0,1.791,0,4v10c0,2.209,1.791,4,4,4h44c2.209,0,4-1.791,4-4v-4h2v14H25
			c-0.553,0-1,0.447-1,1v5c-2.209,0-4,1.791-4,4v18c0,2.209,1.791,4,4,4h2c2.209,0,4-1.791,4-4V34c0-2.209-1.791-4-4-4v-4h29
			c0.553,0,1-0.447,1-1V9C56,8.447,55.553,8,55,8z M50,14c0,1.104-0.896,2-2,2H4c-1.104,0-2-0.896-2-2V4c0-1.104,0.896-2,2-2h44
			c1.104,0,2,0.896,2,2V14z M28,34v18c0,1.104-0.896,2-2,2h-2c-1.104,0-2-0.896-2-2V34c0-1.104,0.896-2,2-2h2
			C27.104,32,28,32.896,28,34z"/>
	</g>
</g>
<g>
</g>
<g>
</g>
<g>
</g>
<g>
</g>
<g>
</g>
<g>
</g>
<g>
</g>
<g>
</g>
<g>
</g>
<g>
</g>
<g>
</g>
<g>
</g>
<g>
</g>
<g>
</g>
<g>
</g>
</svg>
