<?xml version="1.0" encoding="iso-8859-1"?>
<!-- Generator: Adobe Illustrator 16.0.4, SVG Export Plug-In . SVG Version: 6.00 Build 0)  -->
<!DOCTYPE svg PUBLIC "-//W3C//DTD SVG 1.1//EN" "http://www.w3.org/Graphics/SVG/1.1/DTD/svg11.dtd">
<svg version="1.1" id="Layer_1" xmlns="http://www.w3.org/2000/svg" xmlns:xlink="http://www.w3.org/1999/xlink" x="0px" y="0px"
	 width="55.978px" height="55.98px" viewBox="0 0 55.978 55.98" style="enable-background:new 0 0 55.978 55.98;"
	 xml:space="preserve">
<g id="_x39_49-paint-brush_x40_2x.png">
	<g>
		<path d="M48.02,5.99c-1.104,0-2,0.896-2,2s0.896,2,2,2s2-0.896,2-2S49.124,5.99,48.02,5.99z M55.018,0.961
			C54.38,0.323,53.506,0,52.418,0c-6.42,0-22.001,12.921-24.955,20.03l-2.758-2.757c-0.973-0.974-1.883-1.447-2.781-1.447
			c-1.186,0-1.988,0.803-2.672,1.488C9.754,27.957,0.877,29.983,0.789,30.003c-0.303,0.065-0.559,0.268-0.691,0.546
			s-0.131,0.603,0.007,0.879c7.038,14.076,21.718,23.971,22.339,24.385c0.166,0.111,0.359,0.168,0.556,0.168
			c0.104,0,0.212-0.017,0.314-0.051c0.291-0.097,0.522-0.322,0.626-0.612c4.129-11.561,11.041-16.104,13.643-17.814
			c0.561-0.368,0.9-0.591,1.123-0.815c0.947-0.945,2.708-2.707,0-5.414l-2.779-2.78c5.632-2.416,15.612-12.646,19.146-21.174
			C56.297,4.361,56.279,2.222,55.018,0.961z M22.516,53.416C19.137,50.963,8.348,42.576,2.45,31.608
			c2.432-0.788,8.116-3.137,14.593-9.181l15.949,15.949C29.784,41.041,25.549,45.619,22.516,53.416z M53.225,6.554
			c-3.52,8.492-15.381,20.427-19.227,20.427c-0.404,0-0.77,0.244-0.923,0.617c-0.155,0.374-0.069,0.804,0.217,1.09l4,4
			c1.292,1.293,0.992,1.593,0.001,2.585c-0.093,0.088-0.473,0.338-0.809,0.56c-0.5,0.328-1.148,0.755-1.903,1.306L18.479,21.036
			c0.736-0.739,1.478-1.51,2.226-2.349c0.443-0.443,0.862-0.861,1.219-0.861c0.326,0,0.812,0.306,1.368,0.861l4,4
			c0.286,0.286,0.716,0.372,1.089,0.217c0.375-0.155,0.617-0.52,0.617-0.924C28.998,17.333,45.707,2,52.418,2
			c0.545,0,0.934,0.122,1.186,0.375C54.211,2.982,54.072,4.505,53.225,6.554z"/>
	</g>
</g>
<g>
</g>
<g>
</g>
<g>
</g>
<g>
</g>
<g>
</g>
<g>
</g>
<g>
</g>
<g>
</g>
<g>
</g>
<g>
</g>
<g>
</g>
<g>
</g>
<g>
</g>
<g>
</g>
<g>
</g>
</svg>
