<?xml version="1.0" encoding="iso-8859-1"?>
<!-- Generator: Adobe Illustrator 16.0.4, SVG Export Plug-In . SVG Version: 6.00 Build 0)  -->
<!DOCTYPE svg PUBLIC "-//W3C//DTD SVG 1.1//EN" "http://www.w3.org/Graphics/SVG/1.1/DTD/svg11.dtd">
<svg version="1.1" id="Layer_1" xmlns="http://www.w3.org/2000/svg" xmlns:xlink="http://www.w3.org/1999/xlink" x="0px" y="0px"
	 width="43.982px" height="43.984px" viewBox="0 0 43.982 43.984" style="enable-background:new 0 0 43.982 43.984;"
	 xml:space="preserve">
<g id="_x39_49-paint-brush-toolbar_x40_2x.png">
	<g>
		<path d="M37.495,4.988c-0.824,0-1.493,0.675-1.493,1.508c0,0.834,0.669,1.509,1.493,1.509c0.825,0,1.494-0.675,1.494-1.509
			C38.989,5.663,38.32,4.988,37.495,4.988z M43.228,0.755C42.727,0.254,42.04,0,41.187,0c-5.045,0-17.287,10.152-19.609,15.738
			l-2.166-2.166c-0.764-0.766-1.48-1.138-2.186-1.138c-0.932,0-1.562,0.631-2.099,1.17c-7.463,8.361-14.438,9.954-14.507,9.97
			c-0.238,0.051-0.439,0.209-0.543,0.428c-0.104,0.219-0.104,0.475,0.004,0.691c5.531,11.06,17.065,18.834,17.554,19.159
			c0.13,0.087,0.282,0.132,0.435,0.132c0.084,0,0.168-0.013,0.248-0.039c0.229-0.076,0.412-0.254,0.492-0.482
			c3.245-9.083,8.675-12.652,10.719-13.996c0.441-0.29,0.707-0.465,0.883-0.641c0.744-0.743,2.128-2.127,0-4.254l-2.185-2.185
			c4.425-1.898,12.269-9.936,15.044-16.637C44.233,3.427,44.22,1.746,43.228,0.755z M17.493,41.304
			C14.518,39.115,6.987,33.078,2.54,25.067c2.142-0.776,6.356-2.714,11.056-7.057l11.923,11.923
			C23.048,32.013,19.856,35.496,17.493,41.304z M41.423,4.985c-2.55,6.155-9.943,13.831-13.984,15.564
			c-0.609,0.262-1.05,0.809-1.176,1.46c-0.125,0.652,0.081,1.323,0.551,1.792l2.184,2.185c0.5,0.5,0.545,0.755,0.549,0.755
			c-0.035,0.157-0.395,0.517-0.531,0.655c-0.071,0.062-0.336,0.235-0.584,0.398c-0.354,0.232-0.806,0.532-1.321,0.901L15.032,16.618
			c0.514-0.521,1.029-1.06,1.549-1.64c0.196-0.197,0.516-0.511,0.645-0.544c0.047,0,0.314,0.094,0.771,0.552l2.167,2.166
			c0.379,0.379,0.888,0.586,1.413,0.586c0.13,0,0.26-0.014,0.39-0.038c0.655-0.13,1.202-0.578,1.458-1.195
			C25.51,11.489,37.128,2,41.187,2c0.305,0,0.516,0.057,0.628,0.17C42.087,2.442,42.072,3.419,41.423,4.985z"/>
	</g>
</g>
<g>
</g>
<g>
</g>
<g>
</g>
<g>
</g>
<g>
</g>
<g>
</g>
<g>
</g>
<g>
</g>
<g>
</g>
<g>
</g>
<g>
</g>
<g>
</g>
<g>
</g>
<g>
</g>
<g>
</g>
</svg>
