<?xml version="1.0" encoding="iso-8859-1"?>
<!-- Generator: Adobe Illustrator 16.0.4, SVG Export Plug-In . SVG Version: 6.00 Build 0)  -->
<!DOCTYPE svg PUBLIC "-//W3C//DTD SVG 1.1//EN" "http://www.w3.org/Graphics/SVG/1.1/DTD/svg11.dtd">
<svg version="1.1" id="Layer_1" xmlns="http://www.w3.org/2000/svg" xmlns:xlink="http://www.w3.org/1999/xlink" x="0px" y="0px"
	 width="40px" height="44px" viewBox="0 0 40 44" style="enable-background:new 0 0 40 44;" xml:space="preserve">
<g id="_x38_37-palette-toolbar_x40_2x.png">
	<g>
		<path d="M11,8c-1.657,0-3,1.344-3,3c0,1.657,1.343,3,3,3s3-1.343,3-3C14,9.344,12.657,8,11,8z M11,12c-0.553,0-1-0.447-1-1
			c0-0.552,0.447-1,1-1s1,0.448,1,1C12,11.553,11.553,12,11,12z M19,12c1.657,0,3-1.343,3-3c0-1.656-1.343-3-3-3s-3,1.344-3,3
			C16,10.657,17.343,12,19,12z M19,8c0.553,0,1,0.447,1,1s-0.447,1-1,1s-1-0.447-1-1S18.447,8,19,8z M31,16c-1.657,0-3,1.343-3,3
			s1.343,3,3,3s3-1.343,3-3S32.657,16,31,16z M31,20c-0.553,0-1-0.447-1-1c0-0.552,0.447-1,1-1s1,0.448,1,1
			C32,19.553,31.553,20,31,20z M18.462,0C7.937,0,0,5.742,0,13.357c0,4.81,3.469,6.268,6.002,7.333
			c2.343,0.984,3.229,1.487,3.229,2.881c0,2.163-0.813,2.923-1.94,3.974C6.099,28.657,4.615,30.041,4.615,33
			c0,2.581,0.998,11,13.847,11c3.462,0,8.831-1.269,13.515-4.828C35.636,36.39,40,31.287,40,22.786C40,7.986,28.903,0,18.462,0z
			 M30.767,37.579C26.479,40.839,21.599,42,18.462,42C14.9,42,6.615,41.123,6.615,33c0-2.089,0.944-2.971,2.039-3.992
			c1.207-1.126,2.576-2.402,2.576-5.437c0-2.854-2.264-3.805-4.454-4.725C3.891,17.633,2,16.596,2,13.357C2,6.883,9.077,2,18.462,2
			c4.89,0,9.741,1.932,13.312,5.299C34.614,9.977,38,14.837,38,22.786C38,30.467,34.066,35.07,30.767,37.579z M19,26
			c-2.762,0-5,2.238-5,5s2.238,5,5,5s5-2.238,5-5S21.762,26,19,26z M19,34c-1.657,0-3-1.343-3-3s1.343-3,3-3s3,1.343,3,3
			S20.657,34,19,34z M30,11c0-1.656-1.343-3-3-3s-3,1.344-3,3c0,1.657,1.343,3,3,3S30,12.657,30,11z M27,12c-0.553,0-1-0.447-1-1
			c0-0.552,0.447-1,1-1s1,0.448,1,1C28,11.553,27.553,12,27,12z"/>
	</g>
</g>
<g>
</g>
<g>
</g>
<g>
</g>
<g>
</g>
<g>
</g>
<g>
</g>
<g>
</g>
<g>
</g>
<g>
</g>
<g>
</g>
<g>
</g>
<g>
</g>
<g>
</g>
<g>
</g>
<g>
</g>
</svg>
