<?xml version="1.0" encoding="iso-8859-1"?>
<!-- Generator: Adobe Illustrator 16.0.4, SVG Export Plug-In . SVG Version: 6.00 Build 0)  -->
<!DOCTYPE svg PUBLIC "-//W3C//DTD SVG 1.1//EN" "http://www.w3.org/Graphics/SVG/1.1/DTD/svg11.dtd">
<svg version="1.1" id="Layer_1" xmlns="http://www.w3.org/2000/svg" xmlns:xlink="http://www.w3.org/1999/xlink" x="0px" y="0px"
	 width="52px" height="56px" viewBox="0 0 52 56" style="enable-background:new 0 0 52 56;" xml:space="preserve">
<g id="_x38_37-palette_x40_2x.png">
	<g>
		<path d="M38,16c0-2.209-1.791-4-4-4s-4,1.791-4,4s1.791,4,4,4S38,18.209,38,16z M34,18c-1.104,0-2-0.896-2-2s0.896-2,2-2
			s2,0.896,2,2S35.104,18,34,18z M24,16c2.209,0,4-1.791,4-4s-1.791-4-4-4s-4,1.791-4,4S21.791,16,24,16z M24,10
			c1.104,0,2,0.896,2,2s-0.896,2-2,2s-2-0.896-2-2S22.896,10,24,10z M24,0C10.317,0,0,7.309,0,17c0,6.122,4.51,7.978,7.803,9.333
			C10.849,27.586,12,28.227,12,30c0,2.753-1.058,3.72-2.522,5.057C7.929,36.473,6,38.233,6,42c0,3.284,1.298,14,18,14
			c4.501,0,11.48-1.614,17.569-6.146C46.327,46.313,52,39.82,52,29C52,10.164,37.574,0,24,0z M24,54C12,54,8,48,8,42s6-5,6-12
			S2,26,2,17S12,2,24,2s26,9,26,27S33,54,24,54z M40,22c-2.209,0-4,1.791-4,4s1.791,4,4,4s4-1.791,4-4S42.209,22,40,22z M40,28
			c-1.104,0-2-0.896-2-2s0.896-2,2-2s2,0.896,2,2S41.104,28,40,28z M24,34c-3.313,0-6,2.687-6,6c0,3.314,2.687,6,6,6s6-2.686,6-6
			C30,36.687,27.313,34,24,34z M24,44c-2.209,0-4-1.791-4-4s1.791-4,4-4s4,1.791,4,4S26.209,44,24,44z M14,12c-2.209,0-4,1.791-4,4
			s1.791,4,4,4s4-1.791,4-4S16.209,12,14,12z M14,18c-1.104,0-2-0.896-2-2s0.896-2,2-2s2,0.896,2,2S15.104,18,14,18z"/>
	</g>
</g>
<g>
</g>
<g>
</g>
<g>
</g>
<g>
</g>
<g>
</g>
<g>
</g>
<g>
</g>
<g>
</g>
<g>
</g>
<g>
</g>
<g>
</g>
<g>
</g>
<g>
</g>
<g>
</g>
<g>
</g>
</svg>
