<?xml version="1.0" encoding="iso-8859-1"?>
<!-- Generator: Adobe Illustrator 16.0.4, SVG Export Plug-In . SVG Version: 6.00 Build 0)  -->
<!DOCTYPE svg PUBLIC "-//W3C//DTD SVG 1.1//EN" "http://www.w3.org/Graphics/SVG/1.1/DTD/svg11.dtd">
<svg version="1.1" id="Layer_1" xmlns="http://www.w3.org/2000/svg" xmlns:xlink="http://www.w3.org/1999/xlink" x="0px" y="0px"
	 width="28px" height="44px" viewBox="0 0 28 44" style="enable-background:new 0 0 28 44;" xml:space="preserve">
<g id="_x31_124-pants_x40_2x.png">
	<g>
		<path d="M26,0h-1H3H2C0.896,0,0,0.896,0,2v1v38v1c0,1.104,0.896,2,2,2h1h7c0.484,0,0.869-0.351,0.961-0.808l0.019,0.004L14,22.061
			l3.02,21.136l0.02-0.004C17.131,43.649,17.516,44,18,44h7h1c1.104,0,2-0.896,2-2v-1V3V2C28,0.896,27.104,0,26,0z M2,6h5.92
			C7.481,9.063,5.063,11.481,2,11.921V6z M26,41v1h-1h-6.134L14.98,14.804l-0.019,0.004C14.869,14.351,14.484,14,14,14
			c-0.484,0-0.869,0.351-0.961,0.808l-0.02-0.004L9.134,42H3H2v-1V13.941C6.171,13.479,9.48,10.171,9.941,6h8.117
			c0.462,4.171,3.771,7.479,7.941,7.941V41z M26,11.921C22.937,11.481,20.519,9.063,20.08,6H26V11.921z M26,3v1H2V3V2h1h22h1V3z"/>
	</g>
</g>
<g>
</g>
<g>
</g>
<g>
</g>
<g>
</g>
<g>
</g>
<g>
</g>
<g>
</g>
<g>
</g>
<g>
</g>
<g>
</g>
<g>
</g>
<g>
</g>
<g>
</g>
<g>
</g>
<g>
</g>
</svg>
