<?xml version="1.0" encoding="iso-8859-1"?>
<!-- Generator: Adobe Illustrator 16.0.4, SVG Export Plug-In . SVG Version: 6.00 Build 0)  -->
<!DOCTYPE svg PUBLIC "-//W3C//DTD SVG 1.1//EN" "http://www.w3.org/Graphics/SVG/1.1/DTD/svg11.dtd">
<svg version="1.1" id="Layer_1" xmlns="http://www.w3.org/2000/svg" xmlns:xlink="http://www.w3.org/1999/xlink" x="0px" y="0px"
	 width="43.971px" height="39.728px" viewBox="0 0 43.971 39.728" style="enable-background:new 0 0 43.971 39.728;"
	 xml:space="preserve">
<g id="_x37_70-paper-clip-toolbar_x40_2x.png">
	<g>
		<path d="M32.034,2.039l-0.001-0.001l-20.619,20.62c-1.562,1.562-1.562,4.095,0,5.656c1.562,1.562,4.095,1.562,5.656,0
			l13.436-13.435c0.391-0.391,0.391-1.023,0-1.414s-1.024-0.391-1.415,0L15.656,26.9c-0.781,0.781-2.047,0.781-2.828,0
			s-0.781-2.047,0-2.828L33.447,3.453L32.034,2.039L32.034,2.039z M41.921,2.049c-2.729-2.729-7.152-2.732-9.887-0.01l1.413,1.414
			l0.001,0.001c1.954-1.941,5.11-1.938,7.059,0.01c1.948,1.949,1.951,5.105,0.011,7.059l0.001,0.001L15.656,35.385
			c-3.124,3.124-8.189,3.124-11.313,0s-3.124-8.189,0-11.313L23.435,4.98c0.391-0.391,0.391-1.024,0-1.414
			c-0.391-0.391-1.023-0.391-1.414,0L2.929,22.658c-3.905,3.905-3.905,10.236,0,14.142s10.236,3.905,14.142,0l24.851-24.85
			l0.012-0.013l-0.001-0.001C44.653,9.202,44.65,4.78,41.921,2.049z"/>
	</g>
</g>
<g>
</g>
<g>
</g>
<g>
</g>
<g>
</g>
<g>
</g>
<g>
</g>
<g>
</g>
<g>
</g>
<g>
</g>
<g>
</g>
<g>
</g>
<g>
</g>
<g>
</g>
<g>
</g>
<g>
</g>
</svg>
