<?xml version="1.0" encoding="iso-8859-1"?>
<!-- Generator: Adobe Illustrator 16.0.4, SVG Export Plug-In . SVG Version: 6.00 Build 0)  -->
<!DOCTYPE svg PUBLIC "-//W3C//DTD SVG 1.1//EN" "http://www.w3.org/Graphics/SVG/1.1/DTD/svg11.dtd">
<svg version="1.1" id="Layer_1" xmlns="http://www.w3.org/2000/svg" xmlns:xlink="http://www.w3.org/1999/xlink" x="0px" y="0px"
	 width="56px" height="56px" viewBox="0 0 56 56" style="enable-background:new 0 0 56 56;" xml:space="preserve">
<g id="_x37_57-paper-airplane_x40_2x.png">
	<g>
		<path d="M56,1c0-0.552-0.447-1-1-1c-0.139,0-0.271,0.029-0.392,0.08L0.612,23.078c-0.001,0.001-0.002,0.001-0.003,0.002H0.608
			C0.251,23.232,0,23.587,0,24c0,0.418,0.258,0.774,0.622,0.924l-0.001,0.002l21.612,8.841l8.841,21.612l0.002-0.001
			C31.226,55.742,31.582,56,32,56c0.413,0,0.768-0.251,0.92-0.608v0.001l0.001-0.002c0-0.001,0-0.002,0.001-0.002L55.92,1.392
			l-0.009-0.003C55.963,1.268,56,1.14,56,1z M3.596,23.981L50.644,3.942l-27.88,27.88L3.596,23.981z M32.019,52.404l-7.841-19.167
			l27.88-27.88L32.019,52.404z"/>
	</g>
</g>
<g>
</g>
<g>
</g>
<g>
</g>
<g>
</g>
<g>
</g>
<g>
</g>
<g>
</g>
<g>
</g>
<g>
</g>
<g>
</g>
<g>
</g>
<g>
</g>
<g>
</g>
<g>
</g>
<g>
</g>
</svg>
