<?xml version="1.0" encoding="iso-8859-1"?>
<!-- Generator: Adobe Illustrator 16.0.4, SVG Export Plug-In . SVG Version: 6.00 Build 0)  -->
<!DOCTYPE svg PUBLIC "-//W3C//DTD SVG 1.1//EN" "http://www.w3.org/Graphics/SVG/1.1/DTD/svg11.dtd">
<svg version="1.1" id="Layer_1" xmlns="http://www.w3.org/2000/svg" xmlns:xlink="http://www.w3.org/1999/xlink" x="0px" y="0px"
	 width="56.012px" height="52.258px" viewBox="0 0 56.012 52.258" style="enable-background:new 0 0 56.012 52.258;"
	 xml:space="preserve">
<g id="_x37_70-paper-clip_x40_2x.png">
	<g>
		<path d="M53.392,2.643c-3.493-3.524-9.157-3.524-12.65,0L11.927,31.715c-2.328,2.35-2.328,6.159,0,8.51
			c2.329,2.35,6.104,2.35,8.434,0l20.381-20.564c0.389-0.392,0.389-1.026,0-1.418c-0.388-0.392-1.017-0.392-1.405,0L22.077,35.656
			l-3.122,3.15c-1.553,1.566-4.07,1.566-5.622,0c-1.553-1.566-1.553-4.106,0-5.673l3.122-3.15L38.176,8.068c0,0.001,0,0.001,0,0.001
			l3.972-4.008c2.717-2.741,7.122-2.741,9.839,0s2.717,7.186,0,9.928l-7.028,7.091L18.955,47.315
			c-3.882,3.917-10.175,3.917-14.056,0c-3.882-3.916-3.882-10.265,0-14.182L29.496,8.316h0.001c0.388-0.392,0.388-1.026,0-1.419
			c-0.389-0.391-1.018-0.391-1.405,0c-0.001,0.001-0.001,0.001-0.001,0.001L3.493,31.715c-4.657,4.699-4.657,12.318,0,17.018
			c4.658,4.7,12.21,4.7,16.867,0l33.031-33.326C56.885,11.881,56.885,6.167,53.392,2.643z"/>
	</g>
</g>
<g>
</g>
<g>
</g>
<g>
</g>
<g>
</g>
<g>
</g>
<g>
</g>
<g>
</g>
<g>
</g>
<g>
</g>
<g>
</g>
<g>
</g>
<g>
</g>
<g>
</g>
<g>
</g>
<g>
</g>
</svg>
