<?xml version="1.0" encoding="iso-8859-1"?>
<!-- Generator: Adobe Illustrator 16.0.4, SVG Export Plug-In . SVG Version: 6.00 Build 0)  -->
<!DOCTYPE svg PUBLIC "-//W3C//DTD SVG 1.1//EN" "http://www.w3.org/Graphics/SVG/1.1/DTD/svg11.dtd">
<svg version="1.1" id="Layer_1" xmlns="http://www.w3.org/2000/svg" xmlns:xlink="http://www.w3.org/1999/xlink" x="0px" y="0px"
	 width="44.012px" height="43.973px" viewBox="0 0 44.012 43.973" style="enable-background:new 0 0 44.012 43.973;"
	 xml:space="preserve">
<g id="_x37_57-paper-airplane-toolbar_x40_2x.png">
	<g>
		<path d="M44.012,0.986c0-0.545-0.45-0.986-1.006-0.986c-0.141,0-0.273,0.029-0.396,0.08l-0.004-0.01l-42,17.999L0.61,18.08
			C0.252,18.23,0,18.579,0,18.986c0,0.412,0.26,0.764,0.626,0.911l-0.007,0.017l16.615,6.841l6.841,16.615l0.004-0.002
			c0.152,0.354,0.51,0.604,0.927,0.604c0.43,0,0.79-0.267,0.934-0.638L43.919,1.383l-0.003-0.001
			C43.972,1.26,44.012,1.129,44.012,0.986z M3.582,18.971L38.621,3.953L17.765,24.811L3.582,18.971z M25.019,40.407l-5.84-14.183
			L40.035,5.368L25.019,40.407z"/>
	</g>
</g>
<g>
</g>
<g>
</g>
<g>
</g>
<g>
</g>
<g>
</g>
<g>
</g>
<g>
</g>
<g>
</g>
<g>
</g>
<g>
</g>
<g>
</g>
<g>
</g>
<g>
</g>
<g>
</g>
<g>
</g>
</svg>
