<?xml version="1.0" encoding="iso-8859-1"?>
<!-- Generator: Adobe Illustrator 16.0.4, SVG Export Plug-In . SVG Version: 6.00 Build 0)  -->
<!DOCTYPE svg PUBLIC "-//W3C//DTD SVG 1.1//EN" "http://www.w3.org/Graphics/SVG/1.1/DTD/svg11.dtd">
<svg version="1.1" id="Layer_1" xmlns="http://www.w3.org/2000/svg" xmlns:xlink="http://www.w3.org/1999/xlink" x="0px" y="0px"
	 width="44px" height="36px" viewBox="0 0 44 36" style="enable-background:new 0 0 44 36;" xml:space="preserve">
<g id="_x38_06-parcel-toolbar_x40_2x.png">
	<g>
		<path d="M42,0H2C0.896,0,0,0.896,0,2v32c0,1.104,0.896,2,2,2h40c1.104,0,2-0.896,2-2V2C44,0.896,43.104,0,42,0z M21,34H2V19
			h17.133c-2.062,2.081-4.618,5.593-3.148,9.269c0.157,0.391,0.533,0.629,0.93,0.629c0.124,0,0.249-0.023,0.371-0.071
			c0.513-0.206,0.762-0.787,0.558-1.301C16.695,24.658,19.24,21.63,21,19.975V34z M21,16.526c-2.496-0.798-4.719-2.762-5.332-4.511
			c-0.364-1.038-0.119-1.826,0.793-2.557c0.274-0.22,0.685-0.481,1.082-0.481c1.087,0,2.865,2.29,3.457,6.799V16.526z M21,9.332
			c-0.969-1.508-2.174-2.354-3.457-2.354c-0.763,0-1.551,0.295-2.331,0.92c-3.368,2.694-1.284,6.742,2.264,9.103H2V2h19V9.332z
			 M42,34H23V19.858c1.761,1.626,4.458,4.729,3.283,7.667c-0.205,0.514,0.044,1.095,0.557,1.301
			c0.122,0.048,0.248,0.071,0.371,0.071c0.397,0,0.772-0.238,0.93-0.629c1.47-3.676-1.086-7.188-3.148-9.269H42V34z M23.065,16.219
			c0.527-4.81,2.395-7.24,3.519-7.241c0.396,0,0.806,0.262,1.08,0.481c0.912,0.73,1.157,1.519,0.794,2.557
			c-0.616,1.756-2.854,3.73-5.362,4.521C23.087,16.43,23.076,16.324,23.065,16.219z M42,17H26.649
			c3.548-2.36,5.632-6.408,2.265-9.103c-0.781-0.625-1.569-0.92-2.331-0.92c-1.339,0-2.595,0.912-3.583,2.543V2h19V17z"/>
	</g>
</g>
<g>
</g>
<g>
</g>
<g>
</g>
<g>
</g>
<g>
</g>
<g>
</g>
<g>
</g>
<g>
</g>
<g>
</g>
<g>
</g>
<g>
</g>
<g>
</g>
<g>
</g>
<g>
</g>
<g>
</g>
</svg>
