<?xml version="1.0" encoding="iso-8859-1"?>
<!-- Generator: Adobe Illustrator 16.0.4, SVG Export Plug-In . SVG Version: 6.00 Build 0)  -->
<!DOCTYPE svg PUBLIC "-//W3C//DTD SVG 1.1//EN" "http://www.w3.org/Graphics/SVG/1.1/DTD/svg11.dtd">
<svg version="1.1" id="Layer_1" xmlns="http://www.w3.org/2000/svg" xmlns:xlink="http://www.w3.org/1999/xlink" x="0px" y="0px"
	 width="56px" height="44px" viewBox="0 0 56 44" style="enable-background:new 0 0 56 44;" xml:space="preserve">
<g id="_x38_06-parcel_x40_2x.png">
	<g>
		<path d="M54,0H2C0.896,0,0,0.896,0,2v40c0,1.104,0.896,2,2,2h52c1.104,0,2-0.896,2-2V2C56,0.896,55.104,0,54,0z M29,20.408
			c0.048-0.117,0.076-0.244,0.076-0.379c0-4.846,2.368-9.769,5.507-11.451c1.632-0.875,3.28-0.772,4.897,0.309
			c1.166,0.777,1.655,1.726,1.498,2.897c-0.447,3.354-5.786,7.721-10.014,9.216H29V20.408z M27,42H2V23h22.694
			c0.407,0.139,0.817,0.303,1.23,0.483c-1.319,0.867-2.573,1.866-3.654,2.949c-2.57,2.576-3.703,5.085-3.104,6.884
			c0.139,0.418,0.527,0.682,0.944,0.682c0.104,0,0.21-0.017,0.315-0.052c0.521-0.173,0.803-0.738,0.629-1.262
			c-0.274-0.826,0.43-2.644,2.624-4.841c0.984-0.986,2.123-1.896,3.32-2.685V42z M27,21h-1.965
			c-4.228-1.495-9.566-5.862-10.014-9.216c-0.157-1.172,0.332-2.12,1.498-2.897c1.617-1.081,3.266-1.184,4.897-0.309
			c3.139,1.683,5.507,6.605,5.507,11.451c0,0.135,0.028,0.262,0.076,0.379V21z M27,11.967c-1.161-2.292-2.775-4.146-4.644-5.148
			c-2.266-1.213-4.731-1.07-6.942,0.407c-2.286,1.527-2.55,3.466-2.367,4.822c0.439,3.294,3.946,6.729,7.524,8.952H2V2h25V11.967z
			 M54,42H29V25.159c1.197,0.789,2.336,1.698,3.32,2.685c2.194,2.197,2.898,4.015,2.624,4.841c-0.174,0.523,0.108,1.089,0.629,1.262
			c0.105,0.035,0.212,0.052,0.315,0.052c0.417,0,0.806-0.264,0.944-0.682c0.6-1.799-0.533-4.308-3.104-6.884
			c-1.083-1.085-2.342-2.079-3.665-2.945c0.416-0.181,0.831-0.348,1.241-0.487H54V42z M54,21H35.429
			c3.578-2.223,7.085-5.658,7.524-8.952c0.183-1.356-0.081-3.295-2.367-4.822c-2.211-1.478-4.677-1.62-6.942-0.407
			C31.775,7.82,30.161,9.675,29,11.967V2h25V21z"/>
	</g>
</g>
<g>
</g>
<g>
</g>
<g>
</g>
<g>
</g>
<g>
</g>
<g>
</g>
<g>
</g>
<g>
</g>
<g>
</g>
<g>
</g>
<g>
</g>
<g>
</g>
<g>
</g>
<g>
</g>
<g>
</g>
</svg>
