<?xml version="1.0" encoding="iso-8859-1"?>
<!-- Generator: Adobe Illustrator 16.0.4, SVG Export Plug-In . SVG Version: 6.00 Build 0)  -->
<!DOCTYPE svg PUBLIC "-//W3C//DTD SVG 1.1//EN" "http://www.w3.org/Graphics/SVG/1.1/DTD/svg11.dtd">
<svg version="1.1" id="Layer_1" xmlns="http://www.w3.org/2000/svg" xmlns:xlink="http://www.w3.org/1999/xlink" x="0px" y="0px"
	 width="55.995px" height="55.989px" viewBox="0 0 55.995 55.989" style="enable-background:new 0 0 55.995 55.989;"
	 xml:space="preserve">
<g id="_x39_53-paw-print_x40_2x.png">
	<g>
		<path d="M45.399,37.844c-1.975-0.814-4.016-1.658-5.625-3.641c-1.731-2.134-2.429-4.465-3.104-6.719
			c-1.153-3.853-2.241-7.491-8.401-7.491h-0.543c-6.161,0-7.25,3.639-8.401,7.491c-0.675,2.253-1.371,4.584-3.104,6.719
			c-1.609,1.982-3.65,2.826-5.625,3.641c-3.243,1.34-6.599,2.726-6.599,8.989c0,4.328,1.265,8.938,10.645,9.15
			c3.953,0.097,5.471-1.124,6.949-2.146c1.37-0.947,2.664-1.873,6.406-1.873s5.037,0.926,6.406,1.873
			c1.42,0.981,2.887,2.152,6.487,2.152c0.001,0,0.002,0,0.002,0c0.149,0,0.303-0.002,0.46-0.006
			c9.38-0.213,10.645-4.822,10.645-9.15C51.998,40.569,48.642,39.184,45.399,37.844z M41.307,53.985l-0.415,0.004
			c-2.977,0-4.076-0.917-5.351-1.797c-1.489-1.03-3.177-2.229-7.544-2.229c-4.366,0-6.055,1.198-7.543,2.229
			c-1.273,0.881-2.374,1.797-5.351,1.797l-0.416-0.004c-8.02-0.184-8.69-3.713-8.69-7.152c0-4.926,2.249-5.855,5.363-7.141
			c2.102-0.868,4.484-1.852,6.413-4.229c1.981-2.442,2.771-5.079,3.467-7.405c1.131-3.782,1.813-6.064,6.485-6.064h0.543
			c4.67,0,5.354,2.282,6.485,6.064c0.696,2.326,1.485,4.964,3.467,7.405c1.929,2.378,4.312,3.361,6.413,4.229
			c3.113,1.285,5.363,2.215,5.363,7.141C49.998,50.272,49.327,53.802,41.307,53.985z M51.276,12.191
			c-3.652-1.015-7.634,2.109-8.893,6.979c-1.258,4.868,0.683,9.638,4.336,10.652c3.652,1.015,7.634-2.109,8.893-6.979
			C56.87,17.976,54.929,13.206,51.276,12.191z M53.722,22.319c-0.979,3.787-3.888,6.27-6.497,5.544
			c-2.608-0.725-3.931-4.382-2.952-8.169c0.979-3.787,3.888-6.269,6.497-5.544C53.378,14.875,54.701,18.532,53.722,22.319z
			 M34.719,17.822c3.652,1.015,7.634-2.109,8.893-6.979c1.258-4.868-0.683-9.638-4.336-10.652c-3.652-1.015-7.634,2.109-8.893,6.979
			C29.125,12.038,31.066,16.808,34.719,17.822z M32.273,7.694c0.979-3.787,3.888-6.269,6.497-5.544
			c2.608,0.725,3.931,4.382,2.952,8.169c-0.979,3.787-3.888,6.27-6.497,5.544C32.617,15.139,31.294,11.481,32.273,7.694z
			 M9.276,29.822c3.653-1.015,5.594-5.784,4.336-10.652c-1.259-4.869-5.24-7.993-8.893-6.979c-3.653,1.015-5.594,5.784-4.336,10.652
			C1.642,27.713,5.624,30.837,9.276,29.822z M2.273,22.319c-0.979-3.787,0.344-7.444,2.952-8.169
			c2.609-0.725,5.518,1.757,6.497,5.544c0.979,3.787-0.344,7.444-2.952,8.169C6.161,28.589,3.252,26.106,2.273,22.319z
			 M21.276,17.822c3.653-1.015,5.594-5.784,4.336-10.652c-1.259-4.869-5.24-7.993-8.893-6.979
			c-3.653,1.015-5.594,5.784-4.336,10.652C13.642,15.713,17.624,18.837,21.276,17.822z M17.225,2.15
			c2.609-0.725,5.518,1.757,6.497,5.544c0.979,3.787-0.344,7.444-2.952,8.169c-2.609,0.726-5.518-1.757-6.497-5.544
			C13.294,6.532,14.617,2.875,17.225,2.15z"/>
	</g>
</g>
<g>
</g>
<g>
</g>
<g>
</g>
<g>
</g>
<g>
</g>
<g>
</g>
<g>
</g>
<g>
</g>
<g>
</g>
<g>
</g>
<g>
</g>
<g>
</g>
<g>
</g>
<g>
</g>
<g>
</g>
</svg>
