<?xml version="1.0" encoding="iso-8859-1"?>
<!-- Generator: Adobe Illustrator 16.0.4, SVG Export Plug-In . SVG Version: 6.00 Build 0)  -->
<!DOCTYPE svg PUBLIC "-//W3C//DTD SVG 1.1//EN" "http://www.w3.org/Graphics/SVG/1.1/DTD/svg11.dtd">
<svg version="1.1" id="Layer_1" xmlns="http://www.w3.org/2000/svg" xmlns:xlink="http://www.w3.org/1999/xlink" x="0px" y="0px"
	 width="43.996px" height="44.016px" viewBox="0 0 43.996 44.016" style="enable-background:new 0 0 43.996 44.016;"
	 xml:space="preserve">
<g id="_x39_53-paw-print-toolbar_x40_2x.png">
	<g>
		<path d="M26.716,14.011c0.365,0.102,0.734,0.15,1.104,0.15c2.528,0,5.021-2.296,5.883-5.637c0.989-3.827-0.536-7.577-3.406-8.374
			C29.931,0.049,29.562,0,29.193,0c-2.527,0-5.021,2.296-5.883,5.636C22.322,9.464,23.846,13.213,26.716,14.011z M25.247,6.136
			C25.855,3.778,27.552,2,29.194,2c0.191,0,0.383,0.025,0.567,0.077c1.791,0.498,2.71,3.221,2.005,5.947
			c-0.608,2.358-2.306,4.137-3.946,4.137c-0.192,0-0.383-0.025-0.568-0.077C25.461,11.586,24.542,8.862,25.247,6.136z
			 M35.783,29.892c-1.563-0.634-3.182-1.29-4.455-2.833c-1.372-1.661-1.925-3.476-2.459-5.229c-0.914-2.998-1.775-5.831-6.656-5.831
			h-0.43c-4.881,0-5.743,2.832-6.656,5.831c-0.534,1.754-1.087,3.568-2.458,5.229c-1.275,1.543-2.893,2.199-4.456,2.833
			c-2.57,1.043-5.229,2.121-5.229,6.997c0,3.369,1.002,6.956,8.434,7.122c0.117,0.003,0.231,0.004,0.344,0.004
			c2.877,0,4.034-0.784,5.162-1.549c1.084-0.738,2.109-1.459,5.074-1.459s3.99,0.721,5.076,1.459c1.124,0.764,2.287,1.55,5.139,1.55
			c0,0,0.001,0,0.002,0c0.118,0,0.238-0.001,0.363-0.005c7.432-0.166,8.434-3.753,8.434-7.122
			C41.011,32.013,38.353,30.935,35.783,29.892z M32.515,42.012c-0.104,0.003-0.203,0.004-0.303,0.004
			c-2.075,0-2.846-0.403-3.821-1.072l-0.229-0.156c-1.166-0.793-2.617-1.78-6.164-1.78S17,39.994,15.8,40.811l-0.197,0.135
			c-0.975,0.667-1.744,1.069-3.842,1.069c-0.097,0-0.195-0.001-0.3-0.003c-6.478-0.146-6.478-3.022-6.478-5.123
			c0-3.528,1.497-4.137,3.979-5.144c1.71-0.693,3.649-1.479,5.246-3.413c1.626-1.969,2.266-4.066,2.831-5.921
			c0.894-2.938,1.343-4.413,4.742-4.413h0.43c3.397,0,3.847,1.475,4.743,4.414c0.563,1.852,1.203,3.95,2.829,5.92
			c1.597,1.934,3.536,2.72,5.247,3.413c2.481,1.007,3.979,1.615,3.979,5.144C39.011,38.989,39.011,41.866,32.515,42.012z
			 M40.288,10.084c-0.365-0.102-0.734-0.15-1.103-0.15c-2.528,0-5.021,2.296-5.885,5.637c-0.988,3.827,0.537,7.577,3.407,8.374
			c0.365,0.102,0.734,0.15,1.104,0.15c2.528,0,5.021-2.296,5.884-5.636C44.683,14.631,43.158,10.882,40.288,10.084z M41.758,17.958
			c-0.609,2.358-2.307,4.137-3.947,4.137c-0.192,0-0.384-0.025-0.568-0.077c-1.791-0.497-2.71-3.221-2.006-5.947
			c0.609-2.358,2.307-4.137,3.948-4.137c0.191,0,0.383,0.025,0.566,0.077C41.543,12.509,42.462,15.232,41.758,17.958z
			 M16.175,14.161c0.368,0,0.738-0.049,1.104-0.15c2.87-0.798,4.395-4.547,3.406-8.375C19.823,2.296,17.331,0,14.801,0
			c-0.368,0-0.737,0.049-1.103,0.15c-2.871,0.797-4.396,4.547-3.406,8.374C11.155,11.865,13.647,14.161,16.175,14.161z
			 M14.234,2.077C14.418,2.025,14.61,2,14.801,2c1.642,0,3.338,1.778,3.947,4.136c0.704,2.727-0.214,5.45-2.005,5.948
			c-0.185,0.052-0.376,0.077-0.568,0.077c-1.641,0-3.338-1.778-3.946-4.137C11.524,5.298,12.443,2.575,14.234,2.077z M7.289,23.944
			c2.869-0.797,4.394-4.547,3.406-8.374C9.832,12.229,7.338,9.934,4.81,9.934c-0.368,0-0.737,0.049-1.103,0.15
			c-2.87,0.798-4.396,4.547-3.406,8.375c0.862,3.34,3.354,5.636,5.884,5.636C6.553,24.095,6.922,24.046,7.289,23.944z M2.238,17.958
			c-0.704-2.726,0.214-5.449,2.005-5.947c0.185-0.051,0.376-0.077,0.567-0.077c1.642,0,3.339,1.778,3.948,4.137
			c0.704,2.727-0.215,5.45-2.006,5.947c-0.185,0.052-0.376,0.077-0.567,0.077C4.543,22.095,2.846,20.316,2.238,17.958z"/>
	</g>
</g>
<g>
</g>
<g>
</g>
<g>
</g>
<g>
</g>
<g>
</g>
<g>
</g>
<g>
</g>
<g>
</g>
<g>
</g>
<g>
</g>
<g>
</g>
<g>
</g>
<g>
</g>
<g>
</g>
<g>
</g>
</svg>
