<?xml version="1.0" encoding="UTF-8" standalone="no"?>
<svg width="58px" height="58px" viewBox="0 0 58 58" version="1.1" xmlns="http://www.w3.org/2000/svg" xmlns:xlink="http://www.w3.org/1999/xlink" xmlns:sketch="http://www.bohemiancoding.com/sketch/ns">
    <!-- Generator: Sketch 3.0.4 (8053) - http://www.bohemiancoding.com/sketch -->
    <title>1271-paypal</title>
    <desc>Created with Sketch.</desc>
    <defs></defs>
    <g id="Page-1" stroke="none" stroke-width="1" fill="none" fill-rule="evenodd" sketch:type="MSPage">
        <g id="Glyphish-8-Icons" sketch:type="MSArtboardGroup" transform="translate(-20.000000, -1651.000000)" fill="#000000">
            <g id="1271-paypal" sketch:type="MSLayerGroup" transform="translate(20.036996, 1651.860499)">
                <g id="_x31_271-paypal_x40_2x.png" sketch:type="MSShapeGroup">
                    <path d="M28,0 C12.536,0 0,12.536 0,28 C0,43.464 12.536,56 28,56 C43.464,56 56,43.464 56,28 C56,12.536 43.464,0 28,0 L28,0 Z M28,54 C13.641,54 2,42.359 2,28 C2,13.641 13.641,2 28,2 C42.359,2 54,13.641 54,28 C54,42.359 42.359,54 28,54 L28,54 Z M21.462,38.627 L22.518,33.092 C22.87,30.67 24.983,31.017 24.983,31.017 L27.095,31.017 C29.559,31.017 40.473,30.325 41.882,20.985 C43.29,11.644 32.376,11.99 32.376,11.99 L21.814,11.99 C20.054,11.99 19.702,13.719 19.702,13.719 L14.069,38.627 C13.717,40.011 15.125,40.011 15.125,40.011 L19.35,40.011 C21.111,40.011 21.462,38.627 21.462,38.627 L21.462,38.627 Z M24.983,23.752 L26.039,18.563 C26.391,17.179 28.151,17.179 28.151,17.179 L29.207,17.179 C30.615,17.179 34.136,16.832 34.136,20.985 C34.136,25.136 28.503,25.828 26.391,25.828 C24.278,25.827 24.983,23.752 24.983,23.752 L24.983,23.752 Z M43.041,17.736 C43.828,19.007 44.226,20.703 43.882,22.984 C42.474,32.324 31.56,33.016 29.095,33.016 L26.983,33.016 C26.983,33.016 24.87,32.67 24.518,35.091 L23.462,40.626 C23.462,40.626 23.11,42.011 21.35,42.011 L18.208,42.011 L18.069,42.626 C17.717,44.01 19.125,44.01 19.125,44.01 L23.35,44.01 C25.111,44.01 25.462,42.626 25.462,42.626 L26.518,37.091 C26.87,34.67 28.982,35.016 28.982,35.016 L31.095,35.016 C33.559,35.016 44.473,34.324 45.882,24.984 C46.455,21.186 44.981,19.006 43.041,17.736 L43.041,17.736 Z" id="Shape"></path>
                </g>
            </g>
        </g>
    </g>
</svg>