<?xml version="1.0" encoding="iso-8859-1"?>
<!-- Generator: Adobe Illustrator 16.0.4, SVG Export Plug-In . SVG Version: 6.00 Build 0)  -->
<!DOCTYPE svg PUBLIC "-//W3C//DTD SVG 1.1//EN" "http://www.w3.org/Graphics/SVG/1.1/DTD/svg11.dtd">
<svg version="1.1" id="Layer_1" xmlns="http://www.w3.org/2000/svg" xmlns:xlink="http://www.w3.org/1999/xlink" x="0px" y="0px"
	 width="44px" height="44px" viewBox="0 0 44 44" style="enable-background:new 0 0 44 44;" xml:space="preserve">
<g id="_x31_271-paypal_x40_2x.png">
	<g>
		<path d="M32.766,14.316c0.591,0.951,0.889,2.221,0.631,3.928c-1.057,6.993-9.249,7.512-11.098,7.512h-1.585
			c0,0-1.585-0.259-1.85,1.554l-0.792,4.145c0,0-0.264,1.036-1.585,1.036c-0.766,0-1.7,0-2.358,0l-0.104,0.461
			c-0.264,1.036,0.792,1.036,0.792,1.036s1.85,0,3.171,0c1.321,0,1.585-1.036,1.585-1.036l0.793-4.145
			c0.264-1.812,1.85-1.554,1.85-1.554h1.585c1.85,0,10.041-0.518,11.098-7.511C35.328,16.898,34.223,15.267,32.766,14.316z M22,0
			C9.85,0,0,9.85,0,22s9.85,22,22,22s22-9.85,22-22S34.15,0,22,0z M22,42C10.954,42,2,33.046,2,22S10.954,2,22,2s20,8.954,20,20
			S33.046,42,22,42z M16.571,29.956l0.792-4.144c0.264-1.813,1.85-1.554,1.85-1.554h1.585c1.85,0,10.041-0.519,11.098-7.512
			c1.057-6.993-7.134-6.733-7.134-6.733h-7.927c-1.321,0-1.585,1.295-1.585,1.295l-4.228,18.647
			c-0.265,1.036,0.792,1.036,0.792,1.036s1.85,0,3.171,0S16.571,29.956,16.571,29.956z M19.213,18.819l0.793-3.885
			c0.264-1.036,1.585-1.036,1.585-1.036h0.792c1.057,0,3.699-0.259,3.699,2.849c0,3.108-4.228,3.626-5.813,3.626
			S19.213,18.819,19.213,18.819z"/>
	</g>
</g>
<g>
</g>
<g>
</g>
<g>
</g>
<g>
</g>
<g>
</g>
<g>
</g>
<g>
</g>
<g>
</g>
<g>
</g>
<g>
</g>
<g>
</g>
<g>
</g>
<g>
</g>
<g>
</g>
<g>
</g>
</svg>
