<?xml version="1.0" encoding="UTF-8" standalone="no"?>
<svg width="36px" height="52px" viewBox="0 0 36 52" version="1.1" xmlns="http://www.w3.org/2000/svg" xmlns:xlink="http://www.w3.org/1999/xlink" xmlns:sketch="http://www.bohemiancoding.com/sketch/ns">
    <!-- Generator: Sketch 3.0.4 (8053) - http://www.bohemiancoding.com/sketch -->
    <title>1115-peace-sign</title>
    <desc>Created with Sketch.</desc>
    <defs></defs>
    <g id="Page-1" stroke="none" stroke-width="1" fill="none" fill-rule="evenodd" sketch:type="MSPage">
        <g id="Glyphish-8-Icons" sketch:type="MSArtboardGroup" transform="translate(-415.000000, -118.000000)" fill="#000000">
            <g id="1115-peace-sign" sketch:type="MSLayerGroup" transform="translate(415.036996, 118.860499)">
                <g id="_x31_115-peace-sign_x40_2x.png" sketch:type="MSShapeGroup">
                    <path d="M34,20 C34,17.791 32.209,16 30,16 C29.169,16 28.399,16.255 27.762,16.689 C27.217,15.128 25.748,14 24,14 C23.584,14 23.192,14.082 22.815,14.199 L24.914,4.821 C24.916,4.812 24.918,4.804 24.92,4.796 L24.922,4.785 L24.921,4.784 C24.972,4.53 25,4.269 25,4 C25,1.791 23.209,0 21,0 C19.06,0 17.444,1.383 17.079,3.216 L17.078,3.216 L12.886,17.812 L8.854,6.93 L8.838,6.935 C8.369,5.246 6.837,4 5,4 C2.791,4 1,5.791 1,8 C1,8.372 1.063,8.727 1.159,9.067 L1.146,9.07 L5.293,24 L5,24 C2.239,24 0,26.239 0,29 L0,34 L0.028,34 C0.028,42.837 7.185,50 16.014,50 C24.843,50 32,42.837 32,34 L32,30.396 L33.917,20.813 C33.918,20.808 33.919,20.803 33.92,20.798 L33.923,20.784 L33.922,20.783 C33.972,20.53 34,20.269 34,20 L34,20 Z M24,16 C25.104,16 26,16.896 26,18 C26,18.135 25.986,18.266 25.96,18.393 L25.96,18.393 L25.959,18.4 C25.959,18.403 25.958,18.405 25.957,18.408 L23.96,28.393 C23.778,29.309 22.97,30 22,30 C20.896,30 20,29.104 20,28 C20,27.866 20.014,27.735 20.04,27.608 L20.04,27.608 L20.041,27.601 C20.041,27.598 20.042,27.595 20.043,27.593 L22.04,17.608 C22.222,16.691 23.03,16 24,16 L24,16 Z M16.014,48 C8.289,48 2.026,41.732 2.026,34 L2,34 L2,29 C2,27.344 3.343,26 5,26 L11,26 C12.657,26 14,27.344 14,29 C14,30.657 12.657,32 11,32 L9,32 C7.343,32 6,33.343 6,35 C6,35.553 6.448,36 7,36 C7.552,36 8,35.553 8,35 C8,34.448 8.448,34 9,34 L10.844,33.97 C13.605,33.97 16,31.762 16,29 C16,26.239 13.762,24 11,24 L7.381,24 L3.998,11.858 L3.999,11.858 L3.895,11.49 L3.072,8.536 L3.061,8.539 L3.054,8.516 C3.004,8.341 3,8.191 3,8 C3,6.896 3.896,6 5,6 C5.906,6 6.599,6.517 6.936,7.463 L6.926,7.466 L6.932,7.484 L6.923,7.482 L7.027,7.74 L12.034,21.211 L12.041,21.209 C12.141,21.657 12.522,22 13,22 C13.471,22 13.848,21.667 13.954,21.229 L13.964,21.231 L19.039,3.609 C19.222,2.691 20.03,2 21,2 C22.104,2 23,2.896 23,4 C23,4.135 22.986,4.266 22.96,4.393 L22.96,4.393 L22.96,4.398 C22.959,4.402 22.958,4.406 22.957,4.411 L22.195,7.798 C22.196,7.798 22.197,7.798 22.198,7.797 L20.097,17.142 C20.092,17.167 20.083,17.191 20.078,17.216 L20.077,17.216 L18.083,27.188 C18.082,27.193 18.081,27.197 18.08,27.202 L18.077,27.217 L18.078,27.217 C18.029,27.47 18,27.731 18,28 C18,30.209 19.791,32 22,32 C22.83,32 23.6,31.748 24.239,31.315 C24.785,32.875 26.254,34 28,34 C28.729,34 29.413,33.805 30.001,33.463 L30.001,34 C30.002,41.732 23.739,48 16.014,48 L16.014,48 Z M31.96,20.393 L31.96,20.393 L29.96,30.393 L28,30 L29.96,30.392 C29.778,31.309 28.97,32 28,32 C26.896,32 26,31.104 26,30 C26,29.866 26.014,29.735 26.04,29.608 L26.04,29.608 L28.04,19.608 C28.222,18.691 29.03,18 30,18 C31.104,18 32,18.896 32,20 C32,20.135 31.986,20.266 31.96,20.393 L31.96,20.393 Z" id="Shape"></path>
                </g>
            </g>
        </g>
    </g>
</svg>