<?xml version="1.0" encoding="iso-8859-1"?>
<!-- Generator: Adobe Illustrator 16.0.4, SVG Export Plug-In . SVG Version: 6.00 Build 0)  -->
<!DOCTYPE svg PUBLIC "-//W3C//DTD SVG 1.1//EN" "http://www.w3.org/Graphics/SVG/1.1/DTD/svg11.dtd">
<svg version="1.1" id="Layer_1" xmlns="http://www.w3.org/2000/svg" xmlns:xlink="http://www.w3.org/1999/xlink" x="0px" y="0px"
	 width="24.005px" height="36px" viewBox="0 0 24.005 36" style="enable-background:new 0 0 24.005 36;" xml:space="preserve">
<g id="_x31_115-peace-sign_x40_2x.png">
	<g>
		<path d="M23.995,16c-0.023-1.305-0.887-2.491-2.21-2.846c-0.382-0.103-0.765-0.121-1.134-0.077
			c-0.003-1.321-0.874-2.532-2.212-2.891c-0.591-0.158-1.188-0.126-1.728,0.056l1.301-7.001l-0.031-0.003
			c0.006-0.08,0.024-0.157,0.024-0.238c0-1.656-1.343-3-3-3c-1.461,0-2.675,1.045-2.942,2.428l-2.236,9.107L7.797,5.871L7.783,5.878
			C7.338,4.777,6.264,4,5.005,4c-1.657,0-3,1.343-3,3c0,0.108,0.021,0.212,0.032,0.317L2.019,7.32l0.046,0.275
			C2.066,7.6,2.066,7.604,2.067,7.609l1.758,10.409c-2.124,0.096-3.82,1.834-3.82,3.981v2H0c0.002,6.628,5.375,12,12.002,12
			s12-5.372,12.002-12v-8H23.995z M19.007,19.656l1.035-3.863c0.143-0.533,0.691-0.85,1.225-0.707
			c0.534,0.143,0.851,0.691,0.708,1.225l-1.036,3.863c-0.143,0.534-0.691,0.851-1.225,0.708
			C19.181,20.738,18.864,20.19,19.007,19.656z M17.921,12.119c0.533,0.143,0.85,0.69,0.707,1.225l-0.729,2.719l-0.096,0.356
			l-0.729,2.72c-0.143,0.534-0.691,0.851-1.225,0.707c-0.533-0.143-0.85-0.69-0.707-1.225l1.553-5.795
			C16.839,12.292,17.387,11.976,17.921,12.119z M22.005,24c-0.002,5.523-4.479,10-10.002,10c-5.523,0-10-4.477-10.002-10h0.004v-2
			c0-1.104,0.896-2,2-2h5c1.104,0,2,0.896,2,2s-0.896,2-2,2h-2c-1.104,0-2,0.896-2,2v1c0,0.553,0.448,1,1,1s1-0.447,1-1v-1h2
			c2.209,0,4-1.791,4-4s-1.791-4-4-4H5.85L4.491,9.948c0.001,0,0.002,0,0.003,0L3.99,6.991l0.018-0.003C4.014,6.442,4.457,6,5.005,6
			c0.44,0,0.802,0.289,0.936,0.684l0.017-0.003l3.106,8.633l0.004-0.001C9.201,15.709,9.563,16,10.005,16
			c0.468,0,0.843-0.328,0.952-0.762l0.018,0.004l0.767-3.123l2.251-9.222l0.032,0.002C14.078,2.396,14.488,2,15.005,2
			c0.552,0,1,0.448,1,1c0,0.002-0.001,0.004-0.001,0.006l-0.02-0.003L15.032,8.16l-1.812,9.912l-0.008,0.031
			c-0.429,1.601,0.521,3.245,2.121,3.675c0.746,0.199,1.496,0.09,2.133-0.234c0.39,0.6,0.985,1.069,1.73,1.27
			c1.032,0.276,2.078-0.026,2.809-0.701V24z"/>
	</g>
</g>
<g>
</g>
<g>
</g>
<g>
</g>
<g>
</g>
<g>
</g>
<g>
</g>
<g>
</g>
<g>
</g>
<g>
</g>
<g>
</g>
<g>
</g>
<g>
</g>
<g>
</g>
<g>
</g>
<g>
</g>
</svg>
