<?xml version="1.0" encoding="iso-8859-1"?>
<!-- Generator: Adobe Illustrator 16.0.4, SVG Export Plug-In . SVG Version: 6.00 Build 0)  -->
<!DOCTYPE svg PUBLIC "-//W3C//DTD SVG 1.1//EN" "http://www.w3.org/Graphics/SVG/1.1/DTD/svg11.dtd">
<svg version="1.1" id="Layer_1" xmlns="http://www.w3.org/2000/svg" xmlns:xlink="http://www.w3.org/1999/xlink" x="0px" y="0px"
	 width="44px" height="44px" viewBox="0 0 44 44" style="enable-background:new 0 0 44 44;" xml:space="preserve">
<g id="_x38_30-pencil-toolbar_x40_2x.png">
	<g>
		<path d="M43.705,10.295l0.002-0.002l-10-10l-0.002,0.002C33.523,0.112,33.272,0,32.994,0c-0.288,0-0.544,0.125-0.728,0.319
			L4.308,28.278c-0.128,0.12-0.207,0.278-0.26,0.45l-0.01-0.003l-4,14l0.016,0.004C0.029,42.815,0,42.9,0,42.994
			C0,43.55,0.45,44,1.006,44c0.094,0,0.182-0.021,0.267-0.045l0.002,0.006l14-4l-0.003-0.009c0.172-0.053,0.331-0.133,0.451-0.261
			L43.68,11.734c0.195-0.184,0.32-0.439,0.32-0.729C44,10.729,43.888,10.477,43.705,10.295z M14,38.246L2.456,41.544L5.754,30H9
			v3.949c-0.001,0.02-0.012,0.036-0.012,0.057c0,0.556,0.45,1.006,1.006,1.006c0.021,0,0.037-0.011,0.057-0.012H14V38.246z
			 M16,36.586v-2.58V34h-0.001c-0.004-0.551-0.448-0.995-0.999-0.999V33h-4v-4h-0.001c-0.004-0.551-0.448-0.996-0.999-0.999V28
			H7.414L27,8.414L35.586,17L16,36.586z M37,15.586L28.414,7L33,2.414L41.586,11L37,15.586z"/>
	</g>
</g>
<g>
</g>
<g>
</g>
<g>
</g>
<g>
</g>
<g>
</g>
<g>
</g>
<g>
</g>
<g>
</g>
<g>
</g>
<g>
</g>
<g>
</g>
<g>
</g>
<g>
</g>
<g>
</g>
<g>
</g>
</svg>
