<?xml version="1.0" encoding="iso-8859-1"?>
<!-- Generator: Adobe Illustrator 16.0.4, SVG Export Plug-In . SVG Version: 6.00 Build 0)  -->
<!DOCTYPE svg PUBLIC "-//W3C//DTD SVG 1.1//EN" "http://www.w3.org/Graphics/SVG/1.1/DTD/svg11.dtd">
<svg version="1.1" id="Layer_1" xmlns="http://www.w3.org/2000/svg" xmlns:xlink="http://www.w3.org/1999/xlink" x="0px" y="0px"
	 width="56px" height="56px" viewBox="0 0 56 56" style="enable-background:new 0 0 56 56;" xml:space="preserve">
<g id="_x38_30-pencil_x40_2x.png">
	<g>
		<path d="M55.707,14.293l-14-14C41.526,0.112,41.276,0,41,0s-0.526,0.112-0.707,0.293l-36,36L4.31,36.31
			c-0.126,0.132-0.225,0.292-0.267,0.478l-0.02-0.004l-4,18l0.015,0.003C0.022,54.856,0,54.925,0,55c0,0.553,0.447,1,1,1
			c0.075,0,0.143-0.027,0.213-0.043l0.004,0.02l18-4l-0.004-0.02c0.188-0.042,0.362-0.118,0.494-0.25l36-35.999
			C55.888,15.526,56,15.276,56,15S55.888,14.474,55.707,14.293z M18,50.197L2.317,53.684L5.803,38H12v5c0,0.553,0.447,1,1,1h5
			V50.197z M20,48.586V43c0-0.552-0.447-1-1-1h-5v-5c0-0.553-0.447-1-1-1H7.414L33.5,9.914L46.086,22.5L20,48.586z M47.5,21.086
			L34.914,8.5L41,2.414L53.586,15L47.5,21.086z"/>
	</g>
</g>
<g>
</g>
<g>
</g>
<g>
</g>
<g>
</g>
<g>
</g>
<g>
</g>
<g>
</g>
<g>
</g>
<g>
</g>
<g>
</g>
<g>
</g>
<g>
</g>
<g>
</g>
<g>
</g>
<g>
</g>
</svg>
