<?xml version="1.0" encoding="iso-8859-1"?>
<!-- Generator: Adobe Illustrator 16.0.4, SVG Export Plug-In . SVG Version: 6.00 Build 0)  -->
<!DOCTYPE svg PUBLIC "-//W3C//DTD SVG 1.1//EN" "http://www.w3.org/Graphics/SVG/1.1/DTD/svg11.dtd">
<svg version="1.1" id="Layer_1" xmlns="http://www.w3.org/2000/svg" xmlns:xlink="http://www.w3.org/1999/xlink" x="0px" y="0px"
	 width="43.971px" height="43.982px" viewBox="0 0 43.971 43.982" style="enable-background:new 0 0 43.971 43.982;"
	 xml:space="preserve">
<g id="_x37_35-phone-toolbar_x40_2x.png">
	<g>
		<path d="M43.921,35.951c-0.349-2.297-2.487-4.798-6.186-7.232c-2.615-1.722-4.303-2.37-5.581-2.37c-1.316,0-2.197,0.688-3.208,1.6
			c-0.161,0.146-0.328,0.298-0.506,0.45l-0.061,0.058c-0.223,0.237-1.008,0.917-1.676,0.938h-0.023
			c-0.238,0-0.437-0.085-0.633-0.271c-1.559-1.468-5.558-5.311-5.716-5.463l0.009-0.008c0,0-3.749-4.053-5.285-5.591
			c-0.26-0.26-0.276-0.46-0.266-0.589c0.046-0.54,0.721-1.144,0.951-1.31l0.071-0.058c0.202-0.184,0.404-0.353,0.601-0.516
			c2.105-1.76,3.124-3.229-0.472-8.8c-2.94-4.555-4.757-6.379-6.705-6.73C9.016,0.02,8.796,0,8.574,0
			c-0.99,0-1.999,0.403-3.172,1.255C2.913,2.973,0.45,4.923,0.055,8.189c-0.578,4.772,3.401,11.601,13.012,22.249l0.076,0.077
			c9.163,9.168,15.97,13.467,21.35,13.467c0.179,0,0.355-0.005,0.53-0.014c3.851-0.208,6.309-2.696,8.008-4.826
			C43.792,38.234,44.1,37.131,43.921,35.951z M41.467,37.896c-1.534,1.924-3.513,3.912-6.545,4.076
			c-0.142,0.007-0.285,0.011-0.43,0.011c-4.752,0-11.272-4.213-19.926-12.872l-0.046-0.045C5.511,19.077,1.545,12.521,2.04,8.43
			c0.269-2.213,1.853-3.702,4.537-5.557C7.388,2.286,8.04,2,8.574,2c0.102,0,0.202,0.009,0.307,0.028
			c1.274,0.229,2.884,1.979,5.381,5.847c2.896,4.486,2.219,5.052,0.856,6.19c-0.196,0.164-0.398,0.333-0.601,0.515
			c-0.363,0.273-1.601,1.303-1.722,2.733c-0.063,0.799,0.229,1.548,0.845,2.161c0.904,0.906,2.622,2.734,3.843,4.042l-0.096,0.085
			l1.558,1.499c0.037,0.036,4.139,3.979,5.73,5.478c0.716,0.674,1.485,0.815,2.005,0.815h0.054l0.031-0.001
			c1.479-0.045,2.688-1.172,3.021-1.515c0.15-0.13,0.295-0.26,0.435-0.387l0.064-0.059c0.943-0.851,1.345-1.084,1.868-1.084
			c0.917,0,2.425,0.687,4.481,2.041c3.119,2.054,5.054,4.189,5.308,5.861C42.036,36.863,41.891,37.389,41.467,37.896z"/>
	</g>
</g>
<g>
</g>
<g>
</g>
<g>
</g>
<g>
</g>
<g>
</g>
<g>
</g>
<g>
</g>
<g>
</g>
<g>
</g>
<g>
</g>
<g>
</g>
<g>
</g>
<g>
</g>
<g>
</g>
<g>
</g>
</svg>
