<?xml version="1.0" encoding="iso-8859-1"?>
<!-- Generator: Adobe Illustrator 16.0.4, SVG Export Plug-In . SVG Version: 6.00 Build 0)  -->
<!DOCTYPE svg PUBLIC "-//W3C//DTD SVG 1.1//EN" "http://www.w3.org/Graphics/SVG/1.1/DTD/svg11.dtd">
<svg version="1.1" id="Layer_1" xmlns="http://www.w3.org/2000/svg" xmlns:xlink="http://www.w3.org/1999/xlink" x="0px" y="0px"
	 width="55.962px" height="56.009px" viewBox="0 0 55.962 56.009" style="enable-background:new 0 0 55.962 56.009;"
	 xml:space="preserve">
<g id="_x37_35-phone_x40_2x.png">
	<g>
		<path d="M55.899,45.782c-0.443-2.925-3.166-6.109-7.872-9.21c-6.755-4.449-8.65-3.27-11.187-0.98
			c-0.205,0.186-0.418,0.378-0.645,0.573l-0.076,0.073c-0.284,0.302-1.283,1.168-2.133,1.193c-0.315,0.008-0.576-0.101-0.836-0.345
			c-1.982-1.868-7.072-6.763-7.274-6.956l0.011-0.011c0,0-4.771-5.161-6.727-7.119c-0.33-0.331-0.351-0.586-0.337-0.749
			c0.058-0.688,0.917-1.457,1.21-1.669l0.091-0.073c0.257-0.233,0.516-0.448,0.765-0.657c2.68-2.24,3.977-4.112-0.6-11.205
			c-3.743-5.801-6.056-8.123-8.534-8.571c-1.539-0.276-3.054,0.196-4.88,1.522C3.708,3.786,0.573,6.27,0.069,10.429
			c-0.735,6.077,4.329,14.772,16.561,28.333l0.097,0.098c11.662,11.675,20.326,17.149,27.173,17.149
			c0.227,0,0.452-0.006,0.676-0.019c4.899-0.264,8.028-3.433,10.191-6.145C55.735,48.69,56.127,47.285,55.899,45.782z M53.2,48.644
			c-2.888,3.62-5.5,5.24-8.736,5.415c-6.251,0.331-14.839-5.072-26.287-16.531C6.522,24.605,1.398,16.065,2.054,10.655
			c0.37-3.058,2.474-5.058,6.002-7.494c1.359-0.988,2.389-1.351,3.334-1.182c1.778,0.321,3.934,2.622,7.206,7.693
			c3.999,6.198,2.866,7.146,0.988,8.715c-0.256,0.215-0.521,0.436-0.785,0.674c-0.34,0.254-1.828,1.445-1.965,3.025
			c-0.071,0.822,0.236,1.604,0.892,2.26c1.924,1.927,6.712,7.132,6.736,7.157l-0.012,0.012c0,0,5.281,5.049,7.309,6.958
			c0.647,0.61,1.434,0.91,2.3,0.893c1.746-0.058,3.205-1.478,3.504-1.789c0.224-0.193,0.436-0.385,0.641-0.57
			c1.948-1.757,2.924-2.641,8.701,1.166c4.171,2.748,6.664,5.55,7.019,7.891C54.069,47.029,53.831,47.891,53.2,48.644z"/>
	</g>
</g>
<g>
</g>
<g>
</g>
<g>
</g>
<g>
</g>
<g>
</g>
<g>
</g>
<g>
</g>
<g>
</g>
<g>
</g>
<g>
</g>
<g>
</g>
<g>
</g>
<g>
</g>
<g>
</g>
<g>
</g>
</svg>
