<?xml version="1.0" encoding="iso-8859-1"?>
<!-- Generator: Adobe Illustrator 16.0.4, SVG Export Plug-In . SVG Version: 6.00 Build 0)  -->
<!DOCTYPE svg PUBLIC "-//W3C//DTD SVG 1.1//EN" "http://www.w3.org/Graphics/SVG/1.1/DTD/svg11.dtd">
<svg version="1.1" id="Layer_1" xmlns="http://www.w3.org/2000/svg" xmlns:xlink="http://www.w3.org/1999/xlink" x="0px" y="0px"
	 width="56px" height="44px" viewBox="0 0 56 44" style="enable-background:new 0 0 56 44;" xml:space="preserve">
<g id="_x37_05-photos_x40_2x.png">
	<g>
		<path d="M3,36H2V2h46v1c0,0.553,0.448,1,1,1c0.553,0,1-0.447,1-1V2c0-1.104-0.896-2-2-2H2C0.896,0,0,0.896,0,2v34
			c0,1.104,0.896,2,2,2h1c0.553,0,1-0.447,1-1C4,36.448,3.553,36,3,36z M54,6H8C6.896,6,6,6.896,6,8v34c0,1.104,0.896,2,2,2h46
			c1.104,0,2-0.896,2-2V8C56,6.896,55.104,6,54,6z M54,42H8V8h46V42z"/>
	</g>
</g>
<g>
</g>
<g>
</g>
<g>
</g>
<g>
</g>
<g>
</g>
<g>
</g>
<g>
</g>
<g>
</g>
<g>
</g>
<g>
</g>
<g>
</g>
<g>
</g>
<g>
</g>
<g>
</g>
<g>
</g>
</svg>
