<?xml version="1.0" encoding="iso-8859-1"?>
<!-- Generator: Adobe Illustrator 16.0.4, SVG Export Plug-In . SVG Version: 6.00 Build 0)  -->
<!DOCTYPE svg PUBLIC "-//W3C//DTD SVG 1.1//EN" "http://www.w3.org/Graphics/SVG/1.1/DTD/svg11.dtd">
<svg version="1.1" id="Layer_1" xmlns="http://www.w3.org/2000/svg" xmlns:xlink="http://www.w3.org/1999/xlink" x="0px" y="0px"
	 width="56px" height="46px" viewBox="0 0 56 46" style="enable-background:new 0 0 56 46;" xml:space="preserve">
<g id="_x37_67-photo-1_x40_2x.png">
	<g>
		<path d="M54,0H2C0.896,0,0,0.896,0,2v42c0,1.104,0.896,2,2,2h52c1.104,0,2-0.896,2-2V2C56,0.896,55.104,0,54,0z M54,44H2V2h52V44z
			 M52,4H4v38h48V4z M50,40H6V6h44V40z M16.742,29.5c1.104,1.913,3.551,2.568,5.464,1.464c0.554-0.319,1.368-0.968,2.216-1.766
			C24.154,30.331,24,31.36,24,32c0,2.209,1.791,4,4,4s4-1.791,4-4c0-0.641-0.154-1.67-0.423-2.803
			c0.848,0.799,1.662,1.447,2.217,1.767c1.913,1.104,4.359,0.449,5.464-1.464c1.105-1.913,0.449-4.359-1.464-5.464
			c-0.555-0.32-1.523-0.701-2.639-1.036c1.115-0.335,2.084-0.715,2.639-1.035c1.913-1.105,2.569-3.552,1.464-5.465
			c-1.104-1.913-3.551-2.568-5.464-1.464c-0.554,0.32-1.368,0.968-2.216,1.767C31.846,15.669,32,14.641,32,14c0-2.209-1.791-4-4-4
			s-4,1.791-4,4c0,0.641,0.155,1.671,0.423,2.804c-0.848-0.799-1.662-1.447-2.217-1.768c-1.913-1.104-4.359-0.449-5.464,1.464
			c-1.105,1.913-0.449,4.359,1.464,5.465c0.555,0.319,1.523,0.701,2.639,1.036c-1.115,0.334-2.084,0.715-2.639,1.035
			C16.293,25.141,15.637,27.587,16.742,29.5z M34.794,16.768c0.957-0.552,2.18-0.224,2.732,0.732
			c0.552,0.957,0.225,2.18-0.732,2.732c-0.608,0.352-3.07,1.353-4.928,1.792c-0.185-0.731-0.561-1.383-1.085-1.892
			C32.092,18.745,34.188,17.118,34.794,16.768z M31.867,23.974c1.857,0.44,4.319,1.443,4.927,1.794
			c0.957,0.553,1.284,1.776,0.732,2.732c-0.553,0.957-1.775,1.284-2.732,0.732c-0.606-0.351-2.702-1.978-4.013-3.365
			C31.306,25.358,31.683,24.705,31.867,23.974z M28,12c1.104,0,2,0.896,2,2c0,0.703-0.364,3.34-0.913,5.168
			C28.739,19.069,28.379,19,28,19s-0.738,0.069-1.087,0.168C26.364,17.34,26,14.703,26,14C26,12.896,26.896,12,28,12z M28,21
			c1.104,0,2,0.896,2,2s-0.896,2-2,2s-2-0.896-2-2S26.896,21,28,21z M26.914,26.832C27.262,26.931,27.621,27,28,27
			s0.739-0.069,1.086-0.168C29.636,28.66,30,31.297,30,32c0,1.104-0.896,2-2,2s-2-0.896-2-2C26,31.297,26.365,28.66,26.914,26.832z
			 M19.206,20.232c-0.957-0.553-1.284-1.775-0.732-2.732c0.553-0.956,1.775-1.284,2.732-0.732c0.606,0.351,2.702,1.978,4.013,3.365
			c-0.524,0.509-0.901,1.162-1.086,1.894C22.275,21.586,19.813,20.583,19.206,20.232z M19.206,25.768
			c0.608-0.351,3.07-1.352,4.928-1.791c0.185,0.73,0.561,1.383,1.085,1.891c-1.311,1.388-3.406,3.015-4.013,3.365
			c-0.957,0.552-2.18,0.225-2.732-0.732C17.922,27.544,18.249,26.32,19.206,25.768z"/>
	</g>
</g>
<g>
</g>
<g>
</g>
<g>
</g>
<g>
</g>
<g>
</g>
<g>
</g>
<g>
</g>
<g>
</g>
<g>
</g>
<g>
</g>
<g>
</g>
<g>
</g>
<g>
</g>
<g>
</g>
<g>
</g>
</svg>
