<?xml version="1.0" encoding="iso-8859-1"?>
<!-- Generator: Adobe Illustrator 16.0.4, SVG Export Plug-In . SVG Version: 6.00 Build 0)  -->
<!DOCTYPE svg PUBLIC "-//W3C//DTD SVG 1.1//EN" "http://www.w3.org/Graphics/SVG/1.1/DTD/svg11.dtd">
<svg version="1.1" id="Layer_1" xmlns="http://www.w3.org/2000/svg" xmlns:xlink="http://www.w3.org/1999/xlink" x="0px" y="0px"
	 width="56px" height="44px" viewBox="0 0 56 44" style="enable-background:new 0 0 56 44;" xml:space="preserve">
<g id="_x38_22-photo-2_x40_2x.png">
	<g>
		<path d="M46,14c2.209,0,4-1.791,4-4s-1.791-4-4-4s-4,1.791-4,4S43.791,14,46,14z M46,8c1.104,0,2,0.896,2,2s-0.896,2-2,2
			s-2-0.896-2-2S44.896,8,46,8z M7,38h42c0.553,0,1-0.447,1-1c0-0.248-0.1-0.468-0.25-0.643l0.009-0.008l-11.999-14l-0.01,0.008
			C37.566,22.143,37.304,22,37,22c-0.276,0-0.526,0.112-0.707,0.293L31,27.586l-9.293-9.293C21.526,18.112,21.276,18,21,18
			c-0.321,0-0.594,0.161-0.776,0.396l-0.013-0.011l-14,18l0.013,0.011C6.092,36.565,6,36.769,6,37C6,37.553,6.447,38,7,38z
			 M21.094,20.508l9.199,9.199C30.474,29.888,30.724,30,31,30s0.526-0.112,0.707-0.293l5.236-5.236L46.826,36H9.045L21.094,20.508z
			 M54,0H2C0.896,0,0,0.896,0,2v40c0,1.104,0.896,2,2,2h52c1.104,0,2-0.896,2-2V2C56,0.896,55.104,0,54,0z M54,42H2V2h52V42z"/>
	</g>
</g>
<g>
</g>
<g>
</g>
<g>
</g>
<g>
</g>
<g>
</g>
<g>
</g>
<g>
</g>
<g>
</g>
<g>
</g>
<g>
</g>
<g>
</g>
<g>
</g>
<g>
</g>
<g>
</g>
<g>
</g>
</svg>
