<?xml version="1.0" encoding="iso-8859-1"?>
<!-- Generator: Adobe Illustrator 16.0.4, SVG Export Plug-In . SVG Version: 6.00 Build 0)  -->
<!DOCTYPE svg PUBLIC "-//W3C//DTD SVG 1.1//EN" "http://www.w3.org/Graphics/SVG/1.1/DTD/svg11.dtd">
<svg version="1.1" id="Layer_1" xmlns="http://www.w3.org/2000/svg" xmlns:xlink="http://www.w3.org/1999/xlink" x="0px" y="0px"
	 width="44px" height="36px" viewBox="0 0 44 36" style="enable-background:new 0 0 44 36;" xml:space="preserve">
<g id="_x37_67-photo-1-toolbar_x40_2x.png">
	<g>
		<path d="M42,0H2C0.896,0,0,0.896,0,2v32c0,1.104,0.896,2,2,2h40c1.104,0,2-0.896,2-2V2C44,0.896,43.104,0,42,0z M42,34H2V2h40V34z
			 M40,4H4v28h36V4z M38,30H6V6h32V30z M13.34,23c0.824,1.429,2.686,1.896,4.157,1.047c0.465-0.269,1.168-0.828,1.886-1.514
			c-0.234,0.965-0.368,1.854-0.368,2.39C19.015,26.622,20.351,28,22,28s2.985-1.378,2.985-3.077c0-0.537-0.137-1.429-0.372-2.394
			c0.72,0.688,1.424,1.249,1.89,1.518c1.472,0.85,3.333,0.382,4.157-1.047c0.824-1.428,0.3-3.274-1.172-4.124
			c-0.466-0.269-1.305-0.598-2.259-0.877c0.953-0.279,1.794-0.606,2.259-0.875c1.472-0.85,1.996-2.695,1.172-4.124
			c-0.824-1.428-2.686-1.896-4.157-1.047c-0.465,0.269-1.168,0.828-1.886,1.514c0.234-0.965,0.368-1.853,0.368-2.39
			C24.985,9.378,23.649,8,22,8s-2.985,1.378-2.985,3.077c0,0.537,0.137,1.429,0.372,2.394c-0.719-0.687-1.424-1.249-1.89-1.518
			c-1.472-0.85-3.333-0.381-4.157,1.047c-0.824,1.429-0.3,3.274,1.172,4.124c0.466,0.27,1.305,0.598,2.259,0.878
			c-0.953,0.278-1.793,0.605-2.259,0.874C13.04,19.726,12.516,21.572,13.34,23z M27.482,13.649c0.514-0.297,1.163-0.14,1.445,0.351
			c0.283,0.49,0.095,1.131-0.419,1.428c-0.757,0.438-2.57,0.952-3.889,1.14c-0.022-0.041-0.042-0.083-0.066-0.123
			C25.375,15.397,26.726,14.086,27.482,13.649z M24.62,19.433c1.318,0.188,3.132,0.703,3.889,1.14
			c0.514,0.297,0.702,0.938,0.419,1.428c-0.282,0.49-0.932,0.647-1.445,0.351c-0.757-0.437-2.107-1.747-2.929-2.794
			C24.578,19.517,24.598,19.474,24.62,19.433z M22,10c0.566,0,1.026,0.483,1.026,1.077c0,0.872-0.459,2.695-0.954,3.931
			C22.048,15.007,22.024,15,22,15s-0.048,0.007-0.072,0.008c-0.495-1.235-0.954-3.059-0.954-3.931C20.974,10.483,21.435,10,22,10z
			 M23,18c0,0.553-0.447,1-1,1s-1-0.447-1-1c0-0.552,0.447-1,1-1S23,17.448,23,18z M21.928,20.993C21.952,20.993,21.976,21,22,21
			s0.048-0.007,0.072-0.007c0.495,1.234,0.954,3.058,0.954,3.93C23.026,25.517,22.566,26,22,26c-0.565,0-1.026-0.483-1.026-1.077
			C20.974,24.051,21.433,22.228,21.928,20.993z M15.491,15.428c-0.514-0.297-0.702-0.938-0.419-1.428
			c0.282-0.49,0.932-0.647,1.445-0.351c0.757,0.437,2.107,1.748,2.929,2.795c-0.024,0.039-0.044,0.082-0.066,0.123
			C18.062,16.38,16.248,15.865,15.491,15.428z M15.491,20.572c0.757-0.437,2.57-0.952,3.889-1.14
			c0.022,0.041,0.042,0.084,0.066,0.124c-0.821,1.047-2.172,2.357-2.929,2.794c-0.514,0.297-1.163,0.14-1.445-0.351
			C14.789,21.51,14.978,20.869,15.491,20.572z"/>
	</g>
</g>
<g>
</g>
<g>
</g>
<g>
</g>
<g>
</g>
<g>
</g>
<g>
</g>
<g>
</g>
<g>
</g>
<g>
</g>
<g>
</g>
<g>
</g>
<g>
</g>
<g>
</g>
<g>
</g>
<g>
</g>
</svg>
