<?xml version="1.0" encoding="iso-8859-1"?>
<!-- Generator: Adobe Illustrator 16.0.4, SVG Export Plug-In . SVG Version: 6.00 Build 0)  -->
<!DOCTYPE svg PUBLIC "-//W3C//DTD SVG 1.1//EN" "http://www.w3.org/Graphics/SVG/1.1/DTD/svg11.dtd">
<svg version="1.1" id="Layer_1" xmlns="http://www.w3.org/2000/svg" xmlns:xlink="http://www.w3.org/1999/xlink" x="0px" y="0px"
	 width="44px" height="36px" viewBox="0 0 44 36" style="enable-background:new 0 0 44 36;" xml:space="preserve">
<g id="_x38_22-photo-2-toolbar_x40_2x.png">
	<g>
		<path d="M7,30h30c0.553,0,1-0.447,1-1c0-0.257-0.104-0.486-0.264-0.663l0.007-0.006l-8-10l-0.007,0.006
			C29.554,18.134,29.295,18,29,18c-0.276,0-0.526,0.112-0.707,0.293L25,21.586l-7.293-7.293C17.526,14.112,17.276,14,17,14
			c-0.319,0-0.591,0.159-0.773,0.392l-0.013-0.01l-10,14l0.013,0.011C6.093,28.562,6,28.767,6,29C6,29.553,6.447,30,7,30z
			 M17.127,16.541l7.166,7.166C24.474,23.888,24.724,24,25,24s0.526-0.112,0.707-0.293l3.211-3.211L34.922,28H8.941L17.127,16.541z
			 M34.003,13.982c2.211,0,4.003-1.786,4.003-3.989s-1.792-3.989-4.003-3.989S30,7.79,30,9.993S31.792,13.982,34.003,13.982z
			 M34.003,8.018c1.1,0,1.991,0.893,1.991,1.995c0,1.102-0.892,1.994-1.991,1.994s-1.991-0.893-1.991-1.994
			C32.012,8.91,32.903,8.018,34.003,8.018z M42,0H2C0.896,0,0,0.896,0,2v32c0,1.104,0.896,2,2,2h40c1.104,0,2-0.896,2-2V2
			C44,0.896,43.104,0,42,0z M42,34H2V2h40V34z"/>
	</g>
</g>
<g>
</g>
<g>
</g>
<g>
</g>
<g>
</g>
<g>
</g>
<g>
</g>
<g>
</g>
<g>
</g>
<g>
</g>
<g>
</g>
<g>
</g>
<g>
</g>
<g>
</g>
<g>
</g>
<g>
</g>
</svg>
