<?xml version="1.0" encoding="iso-8859-1"?>
<!-- Generator: Adobe Illustrator 16.0.4, SVG Export Plug-In . SVG Version: 6.00 Build 0)  -->
<!DOCTYPE svg PUBLIC "-//W3C//DTD SVG 1.1//EN" "http://www.w3.org/Graphics/SVG/1.1/DTD/svg11.dtd">
<svg version="1.1" id="Layer_1" xmlns="http://www.w3.org/2000/svg" xmlns:xlink="http://www.w3.org/1999/xlink" x="0px" y="0px"
	 width="44px" height="32px" viewBox="0 0 44 32" style="enable-background:new 0 0 44 32;" xml:space="preserve">
<g id="_x37_05-photos-toolbar_x40_2x.png">
	<g>
		<path d="M3,24H2V2h34v1c0,0.553,0.448,1,1,1c0.553,0,1-0.447,1-1V2c0-1.104-0.896-2-2-2H2C0.896,0,0,0.896,0,2v22
			c0,1.104,0.896,2,2,2h1c0.553,0,1-0.447,1-1C4,24.448,3.553,24,3,24z M42,6H8C6.896,6,6,6.896,6,8v22c0,1.104,0.896,2,2,2h34
			c1.104,0,2-0.896,2-2V8C44,6.896,43.104,6,42,6z M42,30H8V8h34V30z"/>
	</g>
</g>
<g>
</g>
<g>
</g>
<g>
</g>
<g>
</g>
<g>
</g>
<g>
</g>
<g>
</g>
<g>
</g>
<g>
</g>
<g>
</g>
<g>
</g>
<g>
</g>
<g>
</g>
<g>
</g>
<g>
</g>
</svg>
