<?xml version="1.0" encoding="iso-8859-1"?>
<!-- Generator: Adobe Illustrator 16.0.4, SVG Export Plug-In . SVG Version: 6.00 Build 0)  -->
<!DOCTYPE svg PUBLIC "-//W3C//DTD SVG 1.1//EN" "http://www.w3.org/Graphics/SVG/1.1/DTD/svg11.dtd">
<svg version="1.1" id="Layer_1" xmlns="http://www.w3.org/2000/svg" xmlns:xlink="http://www.w3.org/1999/xlink" x="0px" y="0px"
	 width="56px" height="44px" viewBox="0 0 56 44" style="enable-background:new 0 0 56 44;" xml:space="preserve">
<g id="_x38_48-piano_x40_2x.png">
	<g>
		<path d="M52,16h-2h-2H36c-8,0-8-16-22-16C6.268,0,0,6.269,0,14v28c0,1.104,0.896,2,2,2h52c1.104,0,2-0.896,2-2V24v-2v-2
			C56,17.791,54.209,16,52,16z M54,42H2v-8h4v3c0,0.553,0.447,1,1,1s1-0.447,1-1v-3h2v3c0,0.553,0.447,1,1,1s1-0.447,1-1v-3h4v3
			c0,0.553,0.447,1,1,1s1-0.447,1-1v-3h2v3c0,0.553,0.447,1,1,1s1-0.447,1-1v-3h2v3c0,0.553,0.447,1,1,1s1-0.447,1-1v-3h4v3
			c0,0.553,0.447,1,1,1s1-0.447,1-1v-3h2v3c0,0.553,0.447,1,1,1s1-0.447,1-1v-3h4v3c0,0.553,0.447,1,1,1s1-0.447,1-1v-3h2v3
			c0,0.553,0.447,1,1,1s1-0.447,1-1v-3h2v3c0,0.553,0.447,1,1,1s1-0.447,1-1v-3h4V42z M54,27.445V30v2h-2H42H2V14
			C2,7.373,7.373,2,14,2c13,0,12,16,22,16h6h2.555H52c1.104,0,2,0.896,2,2V27.445z"/>
	</g>
</g>
<g>
</g>
<g>
</g>
<g>
</g>
<g>
</g>
<g>
</g>
<g>
</g>
<g>
</g>
<g>
</g>
<g>
</g>
<g>
</g>
<g>
</g>
<g>
</g>
<g>
</g>
<g>
</g>
<g>
</g>
</svg>
