<?xml version="1.0" encoding="iso-8859-1"?>
<!-- Generator: Adobe Illustrator 16.0.4, SVG Export Plug-In . SVG Version: 6.00 Build 0)  -->
<!DOCTYPE svg PUBLIC "-//W3C//DTD SVG 1.1//EN" "http://www.w3.org/Graphics/SVG/1.1/DTD/svg11.dtd">
<svg version="1.1" id="Layer_1" xmlns="http://www.w3.org/2000/svg" xmlns:xlink="http://www.w3.org/1999/xlink" x="0px" y="0px"
	 width="44px" height="36px" viewBox="0 0 44 36" style="enable-background:new 0 0 44 36;" xml:space="preserve">
<g id="_x38_48-piano-toolbar_x40_2x.png">
	<g>
		<path d="M40,12h-4h-2c-7.74,0-8.03-11.201-20.721-11.93C12.858,0.025,12.433,0,12,0C5.373,0,0,5.373,0,12v22c0,1.104,0.896,2,2,2
			h40c1.104,0,2-0.896,2-2V20v-2v-2C44,13.791,42.209,12,40,12z M42,34H2v-8h5v3c0,0.553,0.447,1,1,1s1-0.447,1-1v-3h2v3
			c0,0.553,0.447,1,1,1s1-0.447,1-1v-3h4v3c0,0.553,0.447,1,1,1s1-0.447,1-1v-3h2v3c0,0.553,0.447,1,1,1s1-0.447,1-1v-3h2v3
			c0,0.553,0.447,1,1,1s1-0.447,1-1v-3h4v3c0,0.553,0.447,1,1,1s1-0.447,1-1v-3h2v3c0,0.553,0.447,1,1,1s1-0.447,1-1v-3h5V34z
			 M42,24c0,0-0.896,0-2,0h-4h-6H2V12C2,6.478,6.478,2,12,2c0.379,0,0.751,0.025,1.118,0.066C21.765,2.573,23.771,8.729,28.022,12
			c1.547,1.19,3.392,2,5.978,2h2h4c1.104,0,2,0.896,2,2V24z"/>
	</g>
</g>
<g>
</g>
<g>
</g>
<g>
</g>
<g>
</g>
<g>
</g>
<g>
</g>
<g>
</g>
<g>
</g>
<g>
</g>
<g>
</g>
<g>
</g>
<g>
</g>
<g>
</g>
<g>
</g>
<g>
</g>
</svg>
