<?xml version="1.0" encoding="iso-8859-1"?>
<!-- Generator: Adobe Illustrator 16.0.4, SVG Export Plug-In . SVG Version: 6.00 Build 0)  -->
<!DOCTYPE svg PUBLIC "-//W3C//DTD SVG 1.1//EN" "http://www.w3.org/Graphics/SVG/1.1/DTD/svg11.dtd">
<svg version="1.1" id="Layer_1" xmlns="http://www.w3.org/2000/svg" xmlns:xlink="http://www.w3.org/1999/xlink" x="0px" y="0px"
	 width="54px" height="56px" viewBox="0 0 54 56" style="enable-background:new 0 0 54 56;" xml:space="preserve">
<g id="_x39_67-piano_x40_2x.png">
	<g>
		<path d="M52,4h-5V2c0-1.104-0.896-2-2-2h-8c-1.104,0-2,0.896-2,2v2h-2V2c0-1.104-0.896-2-2-2h-8c-1.104,0-2,0.896-2,2v2h-2V2
			c0-1.104-0.896-2-2-2H9C7.896,0,7,0.896,7,2v2H2C0.896,4,0,4.896,0,6v48c0,1.104,0.896,2,2,2h8c1.104,0,2-0.896,2-2V32h2v22
			c0,1.104,0.896,2,2,2h8c1.104,0,2-0.896,2-2V32h2v22c0,1.104,0.896,2,2,2h8c1.104,0,2-0.896,2-2V32h2v22c0,1.104,0.896,2,2,2h8
			c1.104,0,2-0.896,2-2V6C54,4.896,53.104,4,52,4z M10,54H2V6h5v24c0,1.104,0.896,2,2,2h1V54z M9,30V2h8v28H9z M24,54h-8V32h1
			c1.104,0,2-0.896,2-2V6h2v24c0,1.104,0.896,2,2,2h1V54z M23,30V2h8v28H23z M38,54h-8V32h1c1.104,0,2-0.896,2-2V6h2v24
			c0,1.104,0.896,2,2,2h1V54z M37,30V2h8v28H37z M52,54h-8V32h1c1.104,0,2-0.896,2-2V6h5V54z"/>
	</g>
</g>
<g>
</g>
<g>
</g>
<g>
</g>
<g>
</g>
<g>
</g>
<g>
</g>
<g>
</g>
<g>
</g>
<g>
</g>
<g>
</g>
<g>
</g>
<g>
</g>
<g>
</g>
<g>
</g>
<g>
</g>
</svg>
