<?xml version="1.0" encoding="iso-8859-1"?>
<!-- Generator: Adobe Illustrator 16.0.4, SVG Export Plug-In . SVG Version: 6.00 Build 0)  -->
<!DOCTYPE svg PUBLIC "-//W3C//DTD SVG 1.1//EN" "http://www.w3.org/Graphics/SVG/1.1/DTD/svg11.dtd">
<svg version="1.1" id="Layer_1" xmlns="http://www.w3.org/2000/svg" xmlns:xlink="http://www.w3.org/1999/xlink" x="0px" y="0px"
	 width="44px" height="44px" viewBox="0 0 44 44" style="enable-background:new 0 0 44 44;" xml:space="preserve">
<g id="_x39_67-piano-toolbar_x40_2x.png">
	<g>
		<path d="M42,4h-4V2c0-1.104-0.896-2-2-2h-8c-0.366,0-0.705,0.105-1,0.277C26.705,0.105,26.366,0,26,0h-8
			c-0.366,0-0.705,0.105-1,0.277C16.705,0.105,16.366,0,16,0H8C6.896,0,6,0.896,6,2v2H2C0.896,4,0,4.896,0,6v36c0,1.104,0.896,2,2,2
			h9c0.366,0,0.705-0.105,1-0.277C12.295,43.895,12.634,44,13,44h8c0.366,0,0.705-0.105,1-0.277C22.295,43.895,22.634,44,23,44h8
			c0.366,0,0.705-0.105,1-0.277C32.295,43.895,32.634,44,33,44h9c1.104,0,2-0.896,2-2V6C44,4.896,43.104,4,42,4z M11,42H2V6h4v20
			c0,1.104,0.896,2,2,2h3V42z M8,26V2h8v24H8z M21,42h-8V28h3c0.366,0,0.705-0.105,1-0.277C17.295,27.895,17.634,28,18,28h3V42z
			 M18,26V2h8v24H18z M31,42h-8V28h3c0.366,0,0.705-0.105,1-0.277C27.295,27.895,27.634,28,28,28h3V42z M28,26V2h8v24H28z M42,42h-9
			V28h3c1.104,0,2-0.896,2-2V6h4V42z"/>
	</g>
</g>
<g>
</g>
<g>
</g>
<g>
</g>
<g>
</g>
<g>
</g>
<g>
</g>
<g>
</g>
<g>
</g>
<g>
</g>
<g>
</g>
<g>
</g>
<g>
</g>
<g>
</g>
<g>
</g>
<g>
</g>
</svg>
