<?xml version="1.0" encoding="iso-8859-1"?>
<!-- Generator: Adobe Illustrator 16.0.4, SVG Export Plug-In . SVG Version: 6.00 Build 0)  -->
<!DOCTYPE svg PUBLIC "-//W3C//DTD SVG 1.1//EN" "http://www.w3.org/Graphics/SVG/1.1/DTD/svg11.dtd">
<svg version="1.1" id="Layer_1" xmlns="http://www.w3.org/2000/svg" xmlns:xlink="http://www.w3.org/1999/xlink" x="0px" y="0px"
	 width="52px" height="56px" viewBox="0 0 52 56" style="enable-background:new 0 0 52 56;" xml:space="preserve">
<g id="_x39_25-picture_x40_2x.png">
	<g>
		<path d="M48,16H4v36h44V16z M46,50H6V18h40V50z M36.442,12l-8.544-9.398C27.958,2.41,28,2.211,28,2c0-1.104-0.896-2-2-2
			s-2,0.896-2,2c0,0.211,0.042,0.41,0.103,0.602L15.558,12H0v44h52V12H36.442z M25.576,3.953C25.713,3.982,25.854,4,26,4
			s0.287-0.018,0.424-0.047L33.739,12H18.261L25.576,3.953z M50,54H2V14h48V54z"/>
	</g>
</g>
<g>
</g>
<g>
</g>
<g>
</g>
<g>
</g>
<g>
</g>
<g>
</g>
<g>
</g>
<g>
</g>
<g>
</g>
<g>
</g>
<g>
</g>
<g>
</g>
<g>
</g>
<g>
</g>
<g>
</g>
</svg>
