<?xml version="1.0" encoding="iso-8859-1"?>
<!-- Generator: Adobe Illustrator 16.0.4, SVG Export Plug-In . SVG Version: 6.00 Build 0)  -->
<!DOCTYPE svg PUBLIC "-//W3C//DTD SVG 1.1//EN" "http://www.w3.org/Graphics/SVG/1.1/DTD/svg11.dtd">
<svg version="1.1" id="Layer_1" xmlns="http://www.w3.org/2000/svg" xmlns:xlink="http://www.w3.org/1999/xlink" x="0px" y="0px"
	 width="44px" height="44px" viewBox="0 0 44 44" style="enable-background:new 0 0 44 44;" xml:space="preserve">
<g id="_x39_25-picture-toolbar_x40_2x.png">
	<g>
		<path d="M40,16H4v24h36V16z M38,38H6V18h32V38z M32.442,12l-8.544-9.398C23.958,2.41,24,2.211,24,2c0-1.104-0.896-2-2-2
			s-2,0.896-2,2c0,0.211,0.042,0.41,0.103,0.602L11.558,12H0v32h44V12H32.442z M21.576,3.953C21.713,3.982,21.854,4,22,4
			s0.287-0.018,0.424-0.047L29.739,12H14.261L21.576,3.953z M42,42H2V14h40V42z"/>
	</g>
</g>
<g>
</g>
<g>
</g>
<g>
</g>
<g>
</g>
<g>
</g>
<g>
</g>
<g>
</g>
<g>
</g>
<g>
</g>
<g>
</g>
<g>
</g>
<g>
</g>
<g>
</g>
<g>
</g>
<g>
</g>
</svg>
