<?xml version="1.0" encoding="iso-8859-1"?>
<!-- Generator: Adobe Illustrator 16.0.4, SVG Export Plug-In . SVG Version: 6.00 Build 0)  -->
<!DOCTYPE svg PUBLIC "-//W3C//DTD SVG 1.1//EN" "http://www.w3.org/Graphics/SVG/1.1/DTD/svg11.dtd">
<svg version="1.1" id="Layer_1" xmlns="http://www.w3.org/2000/svg" xmlns:xlink="http://www.w3.org/1999/xlink" x="0px" y="0px"
	 width="56px" height="56px" viewBox="0 0 56 56" style="enable-background:new 0 0 56 56;" xml:space="preserve">
<g id="_x31_035-pie-chart_x40_2x.png">
	<g>
		<path d="M28,0C12.536,0,0,12.536,0,28s12.536,28,28,28s28-12.536,28-28S43.464,0,28,0z M29,2.051
			C39.477,2.45,48.363,9.034,52.103,18.26L29,26.577V2.051z M28,54C13.641,54,2,42.359,2,28C2,13.979,13.107,2.58,27,2.051V28
			c0,0.22,0.085,0.413,0.206,0.578l-0.015,0.01L42.472,49.6C38.335,52.377,33.357,54,28,54z M44.078,48.407L29.593,28.489
			l23.184-8.346C53.563,22.623,54,25.259,54,28C54,36.283,50.113,43.646,44.078,48.407z"/>
	</g>
</g>
<g>
</g>
<g>
</g>
<g>
</g>
<g>
</g>
<g>
</g>
<g>
</g>
<g>
</g>
<g>
</g>
<g>
</g>
<g>
</g>
<g>
</g>
<g>
</g>
<g>
</g>
<g>
</g>
<g>
</g>
</svg>
