<?xml version="1.0" encoding="iso-8859-1"?>
<!-- Generator: Adobe Illustrator 16.0.4, SVG Export Plug-In . SVG Version: 6.00 Build 0)  -->
<!DOCTYPE svg PUBLIC "-//W3C//DTD SVG 1.1//EN" "http://www.w3.org/Graphics/SVG/1.1/DTD/svg11.dtd">
<svg version="1.1" id="Layer_1" xmlns="http://www.w3.org/2000/svg" xmlns:xlink="http://www.w3.org/1999/xlink" x="0px" y="0px"
	 width="44px" height="44px" viewBox="0 0 44 44" style="enable-background:new 0 0 44 44;" xml:space="preserve">
<g id="_x31_035-pie-chart-toolbar_x40_2x.png">
	<g>
		<path d="M22,0C9.85,0,0,9.85,0,22s9.85,22,22,22s22-9.85,22-22S34.15,0,22,0z M23,2.051c7.879,0.391,14.562,5.316,17.457,12.242
			L23,20.577V2.051z M22,42C10.954,42,2,33.046,2,22C2,11.292,10.422,2.575,21,2.051V22c0,0.22,0.085,0.413,0.206,0.578l-0.015,0.01
			l11.743,16.147C29.79,40.793,26.038,42,22,42z M34.553,37.56l-10.96-15.07l17.54-6.314C41.693,18.019,42,19.973,42,22
			C42,28.289,39.092,33.894,34.553,37.56z"/>
	</g>
</g>
<g>
</g>
<g>
</g>
<g>
</g>
<g>
</g>
<g>
</g>
<g>
</g>
<g>
</g>
<g>
</g>
<g>
</g>
<g>
</g>
<g>
</g>
<g>
</g>
<g>
</g>
<g>
</g>
<g>
</g>
</svg>
