<?xml version="1.0" encoding="iso-8859-1"?>
<!-- Generator: Adobe Illustrator 16.0.4, SVG Export Plug-In . SVG Version: 6.00 Build 0)  -->
<!DOCTYPE svg PUBLIC "-//W3C//DTD SVG 1.1//EN" "http://www.w3.org/Graphics/SVG/1.1/DTD/svg11.dtd">
<svg version="1.1" id="Layer_1" xmlns="http://www.w3.org/2000/svg" xmlns:xlink="http://www.w3.org/1999/xlink" x="0px" y="0px"
	 width="43.977px" height="44.003px" viewBox="0 0 43.977 44.003" style="enable-background:new 0 0 43.977 44.003;"
	 xml:space="preserve">
<g id="_x31_183-pig_x40_2x.png">
	<g>
		<path d="M18.988,26.003c-0.552,0-1,0.448-1,1v6c0,0.553,0.448,1,1,1s1-0.447,1-1v-6C19.988,26.451,19.541,26.003,18.988,26.003z
			 M25.988,18.003c1.104,0,2-0.896,2-2s-0.896-2-2-2s-2,0.896-2,2S24.884,18.003,25.988,18.003z M17.988,18.003c1.104,0,2-0.896,2-2
			s-0.896-2-2-2s-2,0.896-2,2S16.884,18.003,17.988,18.003z M24.988,26.003c-0.552,0-1,0.448-1,1v6c0,0.553,0.448,1,1,1s1-0.447,1-1
			v-6C25.988,26.451,25.541,26.003,24.988,26.003z M21.988,20.003c-5.523,0-10,4.478-10,10s4.477,10,10,10s10-4.478,10-10
			S27.511,20.003,21.988,20.003z M21.988,38.003c-4.418,0-8-3.582-8-8s3.582-8,8-8s8,3.582,8,8S26.407,38.003,21.988,38.003z
			 M43.977,0.791V0h-0.764C37.01,0,32.871,2.354,31.512,6.402c-2.831-1.538-6.075-2.412-9.523-2.412s-6.692,0.874-9.523,2.412
			C11.105,2.354,6.966,0,0.764,0H0v0.791c0,6.97,1.542,11.32,4.646,13.28c-1.677,2.928-2.649,6.31-2.649,9.926
			c0,11.049,8.95,20.006,19.991,20.006s19.991-8.957,19.991-20.006c0-3.616-0.972-6.998-2.649-9.926
			C42.436,12.111,43.977,7.761,43.977,0.791z M1.962,2.046C4.96,2.228,9.62,3.221,10.762,7.443c-1.98,1.348-3.694,3.05-5.079,5.004
			C4.137,11.496,2.172,9.041,1.962,2.046z M40.001,23.997c0,9.939-8.064,17.998-18.013,17.998S3.976,33.937,3.976,23.997
			c0-9.94,8.064-17.998,18.013-17.998S40.001,14.057,40.001,23.997z M38.294,12.447c-1.385-1.954-3.099-3.656-5.079-5.004
			c1.142-4.223,5.802-5.216,8.799-5.397C41.805,9.041,39.84,11.496,38.294,12.447z"/>
	</g>
</g>
<g>
</g>
<g>
</g>
<g>
</g>
<g>
</g>
<g>
</g>
<g>
</g>
<g>
</g>
<g>
</g>
<g>
</g>
<g>
</g>
<g>
</g>
<g>
</g>
<g>
</g>
<g>
</g>
<g>
</g>
</svg>
