<?xml version="1.0" encoding="UTF-8" standalone="no"?>
<svg width="58px" height="58px" viewBox="0 0 58 58" version="1.1" xmlns="http://www.w3.org/2000/svg" xmlns:xlink="http://www.w3.org/1999/xlink" xmlns:sketch="http://www.bohemiancoding.com/sketch/ns">
    <!-- Generator: Sketch 3.0.4 (8053) - http://www.bohemiancoding.com/sketch -->
    <title>1183-pig</title>
    <desc>Created with Sketch.</desc>
    <defs></defs>
    <g id="Page-1" stroke="none" stroke-width="1" fill="none" fill-rule="evenodd" sketch:type="MSPage">
        <g id="Glyphish-8-Icons" sketch:type="MSArtboardGroup" transform="translate(-212.000000, -787.000000)" fill="#000000">
            <g id="1183-pig" sketch:type="MSLayerGroup" transform="translate(212.036996, 787.860499)">
                <g id="_x31_183-pig_x40_2x.png" sketch:type="MSShapeGroup">
                    <path d="M24,34 C22.896,34 22,34.896 22,36 L22,40 C22,41.104 22.896,42 24,42 C25.104,42 26,41.104 26,40 L26,36 C26,34.896 25.104,34 24,34 L24,34 Z M35,24 C36.657,24 38,22.657 38,21 C38,19.343 36.657,18 35,18 C33.343,18 32,19.343 32,21 C32,22.657 33.343,24 35,24 L35,24 Z M21,24 C22.657,24 24,22.657 24,21 C24,19.343 22.657,18 21,18 C19.343,18 18,19.343 18,21 C18,22.657 19.343,24 21,24 L21,24 Z M56,1.002 L56,0 L55,0 C47.474,0 42.227,2.536 40.082,6.988 C36.47,5.088 32.364,4 28,4 C23.636,4 19.53,5.088 15.918,6.988 C13.773,2.536 8.526,0 1,0 L0,0 L0,1.002 C0,9.262 1.747,14.647 5.3,17.341 C3.205,21.089 2,25.401 2,30 C2,44.359 13.641,56 28,56 C42.359,56 54,44.359 54,30 C54,25.401 52.795,21.089 50.7,17.341 C54.253,14.646 56,9.262 56,1.002 L56,1.002 Z M2.009,2.02 C8.268,2.223 12.488,4.342 14.173,8.01 C11.064,9.969 8.39,12.55 6.355,15.606 C3.57,13.344 2.136,8.861 2.009,2.02 L2.009,2.02 Z M52,30 C52,43.255 41.255,54 28,54 C14.745,54 4,43.255 4,30 C4,16.745 14.745,6 28,6 C41.255,6 52,16.745 52,30 L52,30 Z M49.646,15.605 C47.61,12.549 44.937,9.968 41.828,8.009 C43.514,4.341 47.733,2.222 53.992,2.019 C53.865,8.861 52.431,13.344 49.646,15.605 L49.646,15.605 Z M28,26 C21.373,26 16,31.373 16,38 C16,44.628 21.373,50 28,50 C34.627,50 40,44.628 40,38 C40,31.373 34.627,26 28,26 L28,26 Z M28,48 C22.477,48 18,43.522 18,38 C18,32.478 22.477,28 28,28 C33.523,28 38,32.478 38,38 C38,43.522 33.523,48 28,48 L28,48 Z M32,34 C30.896,34 30,34.896 30,36 L30,40 C30,41.104 30.896,42 32,42 C33.104,42 34,41.104 34,40 L34,36 C34,34.896 33.104,34 32,34 L32,34 Z" id="Shape"></path>
                </g>
            </g>
        </g>
    </g>
</svg>