<?xml version="1.0" encoding="iso-8859-1"?>
<!-- Generator: Adobe Illustrator 16.0.4, SVG Export Plug-In . SVG Version: 6.00 Build 0)  -->
<!DOCTYPE svg PUBLIC "-//W3C//DTD SVG 1.1//EN" "http://www.w3.org/Graphics/SVG/1.1/DTD/svg11.dtd">
<svg version="1.1" id="Layer_1" xmlns="http://www.w3.org/2000/svg" xmlns:xlink="http://www.w3.org/1999/xlink" x="0px" y="0px"
	 width="44px" height="32px" viewBox="0 0 44 32" style="enable-background:new 0 0 44 32;" xml:space="preserve">
<g id="_x39_79-piggy-bank-toolbar_x40_2x.png">
	<g>
		<path d="M21.999,4.969c-6.234,0-8.474,2.059-8.707,2.293c-0.386,0.386-0.385,1.004-0.006,1.396
			c0.378,0.393,1.007,0.402,1.408,0.031c0.017-0.018,1.904-1.72,7.305-1.72s7.286,1.702,7.293,1.707
			c0.195,0.195,0.45,0.293,0.707,0.293c0.256,0,0.512-0.098,0.707-0.293c0.391-0.391,0.391-1.023,0-1.414
			C30.472,7.027,28.233,4.969,21.999,4.969z M40,12h-0.361c-0.635-2.604-2.091-4.954-4.115-6.878C36.191,4.518,37.041,4,38,4
			c0.553,0,1-0.447,1-1c0-0.552-0.447-1-1-1c-1.433,0-2.862,0.913-3.968,1.866C30.842,1.471,26.633,0,22,0C12.059,0,4,6.716,4,15
			c0,0.562,0.044,1.117,0.117,1.664C2.897,15.091,2,13.199,2,11c0-0.553-0.447-1-1-1s-1,0.447-1,1c0,4.229,2.792,7.603,5.426,9.859
			C5.6,21.198,5.799,21.525,6,21.852V28c0,2.209,1.791,4,4,4c2.07,0,3.753-1.578,3.959-3.594C16.382,29.417,19.106,30,22,30
			s5.618-0.583,8.041-1.594C30.247,30.422,31.93,32,34,32c2.209,0,4-1.791,4-4v-6.148c0.367-0.595,0.683-1.214,0.954-1.852H40
			c2.209,0,4-1.791,4-4S42.209,12,40,12z M40,18h-2.445c-0.336,1.154-0.869,2.245-1.555,3.258V28c0,1.104-0.896,2-2,2s-2-0.896-2-2
			v-2.859C29.264,26.929,25.788,28,22,28c-3.786,0-7.26-1.074-10-2.86V28c0,1.104-0.896,2-2,2s-2-0.896-2-2v-6.711
			C6.729,19.425,6,17.282,6,15C6,7.82,13.163,2,22,2c8.421,0,15.308,5.289,15.938,12H40c1.104,0,2,0.896,2,2S41.104,18,40,18z"/>
	</g>
</g>
<g>
</g>
<g>
</g>
<g>
</g>
<g>
</g>
<g>
</g>
<g>
</g>
<g>
</g>
<g>
</g>
<g>
</g>
<g>
</g>
<g>
</g>
<g>
</g>
<g>
</g>
<g>
</g>
<g>
</g>
</svg>
