<?xml version="1.0" encoding="iso-8859-1"?>
<!-- Generator: Adobe Illustrator 16.0.4, SVG Export Plug-In . SVG Version: 6.00 Build 0)  -->
<!DOCTYPE svg PUBLIC "-//W3C//DTD SVG 1.1//EN" "http://www.w3.org/Graphics/SVG/1.1/DTD/svg11.dtd">
<svg version="1.1" id="Layer_1" xmlns="http://www.w3.org/2000/svg" xmlns:xlink="http://www.w3.org/1999/xlink" x="0px" y="0px"
	 width="56px" height="24px" viewBox="0 0 56 24" style="enable-background:new 0 0 56 24;" xml:space="preserve">
<g id="_x39_60-pill_x40_2x.png">
	<g>
		<path d="M44,0H12C5.373,0,0,5.373,0,12c0,6.628,5.373,12,12,12h32c6.627,0,12-5.372,12-12C56,5.373,50.627,0,44,0z M7,13
			c-1.657,0-3-1.343-3-3s1.343-3,3-3s3,1.343,3,3S8.657,13,7,13z M13,8c-1.104,0-2-0.896-2-2s0.896-2,2-2s2,0.896,2,2S14.104,8,13,8
			z M44,22H29V2h15c5.522,0,10,4.478,10,10C54,17.523,49.522,22,44,22z"/>
	</g>
</g>
<g>
</g>
<g>
</g>
<g>
</g>
<g>
</g>
<g>
</g>
<g>
</g>
<g>
</g>
<g>
</g>
<g>
</g>
<g>
</g>
<g>
</g>
<g>
</g>
<g>
</g>
<g>
</g>
<g>
</g>
</svg>
