<?xml version="1.0" encoding="iso-8859-1"?>
<!-- Generator: Adobe Illustrator 16.0.4, SVG Export Plug-In . SVG Version: 6.00 Build 0)  -->
<!DOCTYPE svg PUBLIC "-//W3C//DTD SVG 1.1//EN" "http://www.w3.org/Graphics/SVG/1.1/DTD/svg11.dtd">
<svg version="1.1" id="Layer_1" xmlns="http://www.w3.org/2000/svg" xmlns:xlink="http://www.w3.org/1999/xlink" x="0px" y="0px"
	 width="44px" height="20px" viewBox="0 0 44 20" style="enable-background:new 0 0 44 20;" xml:space="preserve">
<g id="_x39_60-pill-toolbar_x40_2x.png">
	<g>
		<path d="M34,0H10C4.478,0,0,4.478,0,10c0,5.523,4.478,10,10,10h24c5.522,0,10-4.477,10-10C44,4.478,39.522,0,34,0z M6,10
			c-1.104,0-2-0.896-2-2s0.896-2,2-2s2,0.896,2,2S7.104,10,6,10z M11,6c-0.553,0-1-0.447-1-1c0-0.552,0.447-1,1-1s1,0.448,1,1
			C12,5.553,11.553,6,11,6z M34,18H22V2h12c4.418,0,8,3.582,8,8S38.418,18,34,18z"/>
	</g>
</g>
<g>
</g>
<g>
</g>
<g>
</g>
<g>
</g>
<g>
</g>
<g>
</g>
<g>
</g>
<g>
</g>
<g>
</g>
<g>
</g>
<g>
</g>
<g>
</g>
<g>
</g>
<g>
</g>
<g>
</g>
</svg>
