<?xml version="1.0" encoding="iso-8859-1"?>
<!-- Generator: Adobe Illustrator 16.0.4, SVG Export Plug-In . SVG Version: 6.00 Build 0)  -->
<!DOCTYPE svg PUBLIC "-//W3C//DTD SVG 1.1//EN" "http://www.w3.org/Graphics/SVG/1.1/DTD/svg11.dtd">
<svg version="1.1" id="Layer_1" xmlns="http://www.w3.org/2000/svg" xmlns:xlink="http://www.w3.org/1999/xlink" x="0px" y="0px"
	 width="24px" height="44px" viewBox="0 0 24 44" style="enable-background:new 0 0 24 44;" xml:space="preserve">
<g id="_x38_69-pin-toolbar_x40_2x.png">
	<g>
		<path d="M22,6c1.104,0,2-0.896,2-2V2c0-1.104-0.896-2-2-2H2C0.896,0,0,0.896,0,2v2c0,1.104,0.896,2,2,2h2v14.586l-3.707,3.707
			C0.112,24.474,0,24.724,0,25c0,0.553,0.447,1,1,1h10v14l1,4l1-4V26h10c0.553,0,1-0.447,1-1c0-0.276-0.112-0.526-0.293-0.707
			L20,20.586V6H22z M20.586,24H3.414l2.293-2.293C5.888,21.526,6,21.276,6,21V6h12v15c0,0.276,0.112,0.526,0.293,0.707L20.586,24z
			 M2,4V2h20v2H2z"/>
	</g>
</g>
<g>
</g>
<g>
</g>
<g>
</g>
<g>
</g>
<g>
</g>
<g>
</g>
<g>
</g>
<g>
</g>
<g>
</g>
<g>
</g>
<g>
</g>
<g>
</g>
<g>
</g>
<g>
</g>
<g>
</g>
</svg>
