<?xml version="1.0" encoding="iso-8859-1"?>
<!-- Generator: Adobe Illustrator 16.0.4, SVG Export Plug-In . SVG Version: 6.00 Build 0)  -->
<!DOCTYPE svg PUBLIC "-//W3C//DTD SVG 1.1//EN" "http://www.w3.org/Graphics/SVG/1.1/DTD/svg11.dtd">
<svg version="1.1" id="Layer_1" xmlns="http://www.w3.org/2000/svg" xmlns:xlink="http://www.w3.org/1999/xlink" x="0px" y="0px"
	 width="20px" height="44px" viewBox="0 0 20 44" style="enable-background:new 0 0 20 44;" xml:space="preserve">
<g id="_x39_40-pin-toolbar_x40_2x.png">
	<g>
		<path d="M8,6C6.896,6,6,6.896,6,8s0.896,2,2,2s2-0.896,2-2S9.104,6,8,6z M10,0C4.478,0,0,4.478,0,10c0,5.186,3.947,9.448,9,9.949
			V40l1,4l1-4V19.949c5.053-0.502,9-4.764,9-9.949C20,4.478,15.522,0,10,0z M10,18c-4.418,0-8-3.582-8-8s3.582-8,8-8s8,3.582,8,8
			S14.418,18,10,18z"/>
	</g>
</g>
<g>
</g>
<g>
</g>
<g>
</g>
<g>
</g>
<g>
</g>
<g>
</g>
<g>
</g>
<g>
</g>
<g>
</g>
<g>
</g>
<g>
</g>
<g>
</g>
<g>
</g>
<g>
</g>
<g>
</g>
</svg>
