<?xml version="1.0" encoding="iso-8859-1"?>
<!-- Generator: Adobe Illustrator 16.0.4, SVG Export Plug-In . SVG Version: 6.00 Build 0)  -->
<!DOCTYPE svg PUBLIC "-//W3C//DTD SVG 1.1//EN" "http://www.w3.org/Graphics/SVG/1.1/DTD/svg11.dtd">
<svg version="1.1" id="Layer_1" xmlns="http://www.w3.org/2000/svg" xmlns:xlink="http://www.w3.org/1999/xlink" x="0px" y="0px"
	 width="28px" height="56px" viewBox="0 0 28 56" style="enable-background:new 0 0 28 56;" xml:space="preserve">
<g id="_x38_69-pin_x40_2x.png">
	<g>
		<path d="M26,8c1.104,0,2-0.896,2-2V2c0-1.104-0.896-2-2-2H2C0.896,0,0,0.896,0,2v4c0,1.104,0.896,2,2,2h4v18.586l-5.707,5.707
			C0.112,32.475,0,32.725,0,33c0,0.553,0.447,1,1,1h12v19l1,3l1-3V34h12c0.553,0,1-0.447,1-1c0-0.275-0.112-0.525-0.293-0.707
			L22,26.586V8H26z M24.586,32H3.414l4.293-4.293C7.888,27.526,8,27.276,8,27V8h12v19c0,0.276,0.112,0.526,0.293,0.707L24.586,32z
			 M2,6V2h24v4H2z"/>
	</g>
</g>
<g>
</g>
<g>
</g>
<g>
</g>
<g>
</g>
<g>
</g>
<g>
</g>
<g>
</g>
<g>
</g>
<g>
</g>
<g>
</g>
<g>
</g>
<g>
</g>
<g>
</g>
<g>
</g>
<g>
</g>
</svg>
