<?xml version="1.0" encoding="iso-8859-1"?>
<!-- Generator: Adobe Illustrator 16.0.4, SVG Export Plug-In . SVG Version: 6.00 Build 0)  -->
<!DOCTYPE svg PUBLIC "-//W3C//DTD SVG 1.1//EN" "http://www.w3.org/Graphics/SVG/1.1/DTD/svg11.dtd">
<svg version="1.1" id="Layer_1" xmlns="http://www.w3.org/2000/svg" xmlns:xlink="http://www.w3.org/1999/xlink" x="0px" y="0px"
	 width="39.727px" height="40.024px" viewBox="0 0 39.727 40.024" style="enable-background:new 0 0 39.727 40.024;"
	 xml:space="preserve">
<g id="_x31_109-pinch_x40_2x.png">
	<g>
		<path d="M5.927,13.092c0.128,0.222,0.341,0.395,0.607,0.466s0.537,0.028,0.759-0.101l4.898-2.828
			c0.222-0.128,0.395-0.34,0.467-0.607c0.143-0.533-0.174-1.081-0.708-1.225c-0.267-0.071-0.537-0.027-0.759,0.101l-2.808,1.621
			l2.48-9.259c0.144-0.534-0.173-1.082-0.707-1.226C9.624-0.108,9.076,0.208,8.933,0.741l-2.48,9.26L4.83,7.192
			C4.702,6.971,4.49,6.798,4.224,6.727C3.689,6.584,3.142,6.9,2.998,7.434C2.927,7.7,2.971,7.971,3.099,8.192L5.927,13.092z
			 M6.765,17.907c-0.128-0.222-0.341-0.396-0.607-0.467s-0.537-0.027-0.759,0.101L0.5,20.369c-0.222,0.128-0.395,0.341-0.466,0.607
			c-0.144,0.533,0.173,1.081,0.707,1.225c0.267,0.071,0.537,0.028,0.759-0.1l2.808-1.622l-2.48,9.26
			c-0.144,0.533,0.174,1.081,0.707,1.225c0.533,0.143,1.082-0.174,1.225-0.707l2.481-9.26l1.621,2.809
			c0.128,0.222,0.34,0.395,0.607,0.466c0.533,0.144,1.081-0.174,1.225-0.707c0.071-0.267,0.027-0.537-0.101-0.759L6.765,17.907z
			 M39.331,25.541C39.331,25.541,39.331,25.541,39.331,25.541C39.561,26.397,39.616,26.604,39.331,25.541z M39.331,25.542
			c-0.61-2.277-2.458-9.173-2.458-9.173c-0.429-1.6-2.073-2.55-3.674-2.121c-0.382,0.103-0.723,0.277-1.021,0.501
			c-0.664-1.144-2.022-1.756-3.36-1.397c-0.382,0.103-0.724,0.277-1.021,0.501c-0.663-1.144-2.022-1.756-3.36-1.397
			c-0.341,0.091-0.644,0.247-0.918,0.437l-1.904-5.633c-0.522-1.6-2.074-2.55-3.675-2.121c-1.6,0.429-2.55,2.074-2.121,3.675
			l5.229,18.499l-6.154-3.065c0,0-0.861-0.426-1.972-0.128c-1.601,0.43-2.441,2.049-2.121,3.675
			c0.119,0.606,0.735,1.306,0.735,1.306l8.247,7.232c2.807,3.028,7.15,4.442,11.415,3.3C37.334,37.986,40.976,31.678,39.331,25.542z
			 M30.681,37.698c-6.343,1.369-9.198-2.495-9.198-2.495l-8.618-7.664c-0.053-0.083-0.105-0.166-0.132-0.265
			c-0.144-0.534,0.174-1.082,0.707-1.226c0.43-0.115,0.794,0.091,0.791,0.128l7.986,4.11c0,0,0.317,0.293,0.824,0.141
			c0.528-0.159,0.85-0.691,0.707-1.225L17.75,8.294c-0.143-0.534,0.174-1.082,0.707-1.226c0.534-0.143,1.145,0.174,1.288,0.707
			l3.605,12.217c0.143,0.533,0.691,0.85,1.225,0.707c0.533-0.144,0.851-0.691,0.707-1.225l-1.035-3.864
			c-0.143-0.533,0.174-1.082,0.707-1.225s1.082,0.174,1.225,0.707l1.553,5.796c0.144,0.533,0.691,0.85,1.226,0.707
			c0.533-0.143,0.85-0.691,0.707-1.225l-1.035-3.864c-0.144-0.533,0.173-1.081,0.707-1.225c0.533-0.143,1.081,0.174,1.225,0.707
			l1.553,5.796c0.143,0.533,0.691,0.85,1.225,0.707s0.85-0.691,0.707-1.225l-1.035-3.864c-0.143-0.533,0.174-1.081,0.707-1.225
			c0.533-0.143,1.082,0.174,1.225,0.707c0,0,2.403,8.969,2.633,9.823c-0.027-0.1-0.082-0.306-0.175-0.65
			C38.758,31.129,35.811,36.591,30.681,37.698z"/>
	</g>
</g>
<g>
</g>
<g>
</g>
<g>
</g>
<g>
</g>
<g>
</g>
<g>
</g>
<g>
</g>
<g>
</g>
<g>
</g>
<g>
</g>
<g>
</g>
<g>
</g>
<g>
</g>
<g>
</g>
<g>
</g>
</svg>
