<?xml version="1.0" encoding="UTF-8" standalone="no"?>
<svg width="54px" height="50px" viewBox="0 0 54 50" version="1.1" xmlns="http://www.w3.org/2000/svg" xmlns:xlink="http://www.w3.org/1999/xlink" xmlns:sketch="http://www.bohemiancoding.com/sketch/ns">
    <!-- Generator: Sketch 3.0.4 (8053) - http://www.bohemiancoding.com/sketch -->
    <title>1109-pinch</title>
    <desc>Created with Sketch.</desc>
    <defs></defs>
    <g id="Page-1" stroke="none" stroke-width="1" fill="none" fill-rule="evenodd" sketch:type="MSPage">
        <g id="Glyphish-8-Icons" sketch:type="MSArtboardGroup" transform="translate(-790.000000, -23.000000)" fill="#000000">
            <g id="1109-pinch" sketch:type="MSLayerGroup" transform="translate(790.036996, 23.860499)">
                <g id="_x31_109-pinch_x40_2x.png" sketch:type="MSShapeGroup">
                    <path d="M6.586,15.088 C6.714,15.31 6.927,15.483 7.193,15.554 C7.459,15.625 7.73,15.582 7.952,15.453 L12.851,12.625 C13.073,12.497 13.246,12.285 13.317,12.018 C13.46,11.485 13.143,10.937 12.61,10.793 C12.343,10.722 12.072,10.766 11.851,10.894 L9.042,12.515 L12.041,1.324 C12.184,0.791 11.867,0.242 11.334,0.099 C10.8,-0.044 10.252,0.273 10.108,0.806 L7.111,11.998 L5.49,9.189 C5.362,8.967 5.149,8.794 4.883,8.723 C4.35,8.581 3.801,8.897 3.658,9.43 C3.586,9.697 3.63,9.967 3.758,10.189 L6.586,15.088 L6.586,15.088 Z M6.766,19.883 C6.638,19.661 6.425,19.489 6.159,19.417 C5.892,19.346 5.622,19.39 5.4,19.518 L0.502,22.346 C0.28,22.474 0.106,22.686 0.035,22.953 C-0.108,23.486 0.209,24.034 0.742,24.178 C1.009,24.249 1.279,24.205 1.501,24.078 L4.31,22.456 L1.31,33.648 C1.167,34.181 1.484,34.73 2.018,34.873 C2.551,35.016 3.099,34.699 3.243,34.166 L6.24,22.974 L7.861,25.783 C7.99,26.005 8.202,26.178 8.468,26.249 C9.001,26.392 9.55,26.075 9.693,25.542 C9.765,25.275 9.721,25.005 9.593,24.783 L6.766,19.883 L6.766,19.883 Z M51.48,27.847 C51.48,27.846 51.479,27.846 51.479,27.845 L47.856,14.324 C47.285,12.19 45.091,10.924 42.958,11.496 C42.156,11.711 41.478,12.154 40.973,12.737 C40.041,11.372 38.331,10.665 36.645,11.117 C35.843,11.332 35.165,11.775 34.66,12.358 C33.729,10.993 32.018,10.286 30.332,10.738 C29.623,10.927 29.022,11.308 28.541,11.795 L26.174,2.966 C25.602,0.832 23.408,-0.434 21.275,0.138 C19.141,0.709 17.875,2.903 18.447,5.036 L26.164,33.816 L17.037,31.114 L17.03,31.134 C16.374,30.958 15.671,30.931 14.968,31.119 C12.834,31.69 11.569,33.884 12.14,36.017 C12.44,37.135 13.19,38.005 14.137,38.507 L14.133,38.518 L28.705,46.224 L28.717,46.2 C32.129,47.956 36.17,48.514 40.168,47.443 C48.702,45.156 53.768,36.382 51.48,27.847 L51.48,27.847 Z M39.648,45.511 C36.135,46.452 32.583,45.962 29.593,44.408 L31.34,40.844 L29.56,44.405 L15.066,36.75 L15.068,36.744 C14.594,36.493 14.219,36.058 14.069,35.499 C13.783,34.433 14.417,33.336 15.483,33.05 C15.837,32.955 16.213,32.998 16.571,33.124 L16.591,33.077 L27.357,36.241 L27.357,36.24 C27.516,36.279 27.681,36.294 27.85,36.249 C28.383,36.105 28.7,35.558 28.557,35.024 L20.377,4.517 C20.091,3.451 20.725,2.354 21.791,2.068 C22.858,1.782 23.955,2.416 24.24,3.482 L28.795,20.466 L28.797,20.465 C28.94,20.998 29.488,21.315 30.022,21.172 C30.555,21.028 30.873,20.481 30.729,19.947 C30.729,19.947 30.729,19.947 30.729,19.946 L29.435,15.117 C29.149,14.051 29.783,12.954 30.849,12.668 C31.916,12.382 33.013,13.016 33.299,14.082 L35.111,20.844 C35.254,21.377 35.802,21.694 36.336,21.551 C36.87,21.408 37.186,20.86 37.043,20.326 L35.749,15.496 C35.463,14.43 36.096,13.333 37.163,13.047 C38.229,12.761 39.327,13.395 39.612,14.461 L41.424,21.223 L41.425,21.223 C41.568,21.756 42.115,22.073 42.65,21.93 C43.183,21.787 43.5,21.239 43.357,20.705 L42.063,15.876 C42.063,15.876 42.063,15.875 42.062,15.875 C41.777,14.809 42.41,13.712 43.477,13.426 C44.543,13.14 45.64,13.774 45.926,14.84 L49.549,28.363 C51.55,35.833 47.117,43.509 39.648,45.511 L39.648,45.511 Z M42.787,30.176 L45.684,29.4 L42.067,30.369 L42.787,30.176 L42.787,30.176 Z" id="Shape"></path>
                </g>
            </g>
        </g>
    </g>
</svg>