<?xml version="1.0" encoding="iso-8859-1"?>
<!-- Generator: Adobe Illustrator 16.0.4, SVG Export Plug-In . SVG Version: 6.00 Build 0)  -->
<!DOCTYPE svg PUBLIC "-//W3C//DTD SVG 1.1//EN" "http://www.w3.org/Graphics/SVG/1.1/DTD/svg11.dtd">
<svg version="1.1" id="Layer_1" xmlns="http://www.w3.org/2000/svg" xmlns:xlink="http://www.w3.org/1999/xlink" x="0px" y="0px"
	 width="44.004px" height="44.004px" viewBox="0 0 44.004 44.004" style="enable-background:new 0 0 44.004 44.004;"
	 xml:space="preserve">
<g id="_x31_090-ping-pong-paddle-toolbar_x40_2x.png">
	<g>
		<path d="M39.005,34.014c-2.759,0-4.995,2.236-4.995,4.995s2.236,4.995,4.995,4.995S44,41.768,44,39.009
			S41.764,34.014,39.005,34.014z M38.989,41.995c-1.658,0-3.002-1.344-3.002-3.002s1.344-3.002,3.002-3.002s3.002,1.344,3.002,3.002
			S40.647,41.995,38.989,41.995z M44.004,15.459C44.004,6.92,37.084,0,28.545,0C20.008,0,9.996,8.467,9.996,17.005
			c0,3.268,1.244,6.472,3.222,9.214L0.308,37.284C0.119,37.467,0,37.721,0,38.004c0,0.281,0.116,0.534,0.302,0.716l4.982,4.982
			C5.467,43.888,5.719,44.004,6,44.004c0.263,0,0.498-0.106,0.677-0.271l0.004,0.004l0.014-0.016
			c0.017-0.016,0.028-0.034,0.044-0.051l11.034-12.873c2.777,1.988,6.015,3.212,9.229,3.212
			C35.537,34.009,44.004,23.996,44.004,15.459z M5.948,41.538l-3.479-3.479l11.995-10.281c0.553,0.623,1.131,1.226,1.757,1.776
			L5.948,41.538z M27.001,32.009c-7.433,0-15.005-7.573-15.005-15.004c0-0.486,0.047-0.977,0.124-1.467l16.346,16.346
			C27.976,31.961,27.486,32.009,27.001,32.009z M30.688,31.278L12.726,13.315C14.954,7.396,22.007,2,28.545,2
			c7.422,0,13.46,6.037,13.46,13.459C42.005,21.997,36.607,29.051,30.688,31.278z"/>
	</g>
</g>
<g>
</g>
<g>
</g>
<g>
</g>
<g>
</g>
<g>
</g>
<g>
</g>
<g>
</g>
<g>
</g>
<g>
</g>
<g>
</g>
<g>
</g>
<g>
</g>
<g>
</g>
<g>
</g>
<g>
</g>
</svg>
