<?xml version="1.0" encoding="UTF-8" standalone="no"?>
<svg width="58px" height="58px" viewBox="0 0 58 58" version="1.1" xmlns="http://www.w3.org/2000/svg" xmlns:xlink="http://www.w3.org/1999/xlink" xmlns:sketch="http://www.bohemiancoding.com/sketch/ns">
    <!-- Generator: Sketch 3.0.4 (8053) - http://www.bohemiancoding.com/sketch -->
    <title>1272-pinterest</title>
    <desc>Created with Sketch.</desc>
    <defs></defs>
    <g id="Page-1" stroke="none" stroke-width="1" fill="none" fill-rule="evenodd" sketch:type="MSPage">
        <g id="Glyphish-8-Icons" sketch:type="MSArtboardGroup" transform="translate(-116.000000, -1651.000000)" fill="#000000">
            <g id="1272-pinterest" sketch:type="MSLayerGroup" transform="translate(116.036996, 1651.860499)">
                <g id="_x31_272-pinterest_x40_2x.png" sketch:type="MSShapeGroup">
                    <path d="M28.848,10 C18.977,10 14,17.045 14,22.919 C14,26.476 15.353,29.64 18.254,30.819 C18.73,31.012 19.156,30.826 19.294,30.301 C19.39,29.938 19.617,29.023 19.719,28.641 C19.858,28.122 19.804,27.941 19.42,27.489 C18.583,26.507 18.048,25.235 18.048,23.433 C18.048,18.207 21.976,13.529 28.277,13.529 C33.857,13.529 36.922,16.923 36.922,21.454 C36.922,27.417 34.271,32.449 30.335,32.449 C28.161,32.449 26.534,30.66 27.056,28.466 C27.681,25.846 28.89,23.019 28.89,21.128 C28.89,19.436 27.977,18.024 26.088,18.024 C23.866,18.024 22.081,20.312 22.081,23.377 C22.081,25.329 22.744,26.649 22.744,26.649 C22.744,26.649 20.471,36.238 20.072,37.918 C19.278,41.263 19.953,45.362 20.01,45.776 C20.043,46.021 20.36,46.08 20.504,45.894 C20.709,45.627 23.355,42.375 24.255,39.127 C24.509,38.207 25.716,33.442 25.716,33.442 C26.438,34.812 28.548,36.019 30.791,36.019 C37.47,36.019 42.001,29.958 42.001,21.847 C42.001,15.713 36.781,10 28.848,10 L28.848,10 Z M28,0 C12.536,0 0,12.536 0,28 C0,43.464 12.536,56 28,56 C43.464,56 56,43.464 56,28 C56,12.536 43.464,0 28,0 L28,0 Z M28,54 C13.641,54 2,42.359 2,28 C2,13.641 13.641,2 28,2 C42.359,2 54,13.641 54,28 C54,42.359 42.359,54 28,54 L28,54 Z" id="Shape"></path>
                </g>
            </g>
        </g>
    </g>
</svg>