<?xml version="1.0" encoding="iso-8859-1"?>
<!-- Generator: Adobe Illustrator 16.0.4, SVG Export Plug-In . SVG Version: 6.00 Build 0)  -->
<!DOCTYPE svg PUBLIC "-//W3C//DTD SVG 1.1//EN" "http://www.w3.org/Graphics/SVG/1.1/DTD/svg11.dtd">
<svg version="1.1" id="Layer_1" xmlns="http://www.w3.org/2000/svg" xmlns:xlink="http://www.w3.org/1999/xlink" x="0px" y="0px"
	 width="44px" height="44px" viewBox="0 0 44 44" style="enable-background:new 0 0 44 44;" xml:space="preserve">
<g id="_x31_272-pinterest_x40_2x.png">
	<g>
		<path d="M22.666,8.014C14.91,8.014,11,13.487,11,18.052c0,2.764,1.063,5.223,3.343,6.139c0.374,0.15,0.709,0.005,0.817-0.402
			c0.075-0.282,0.254-0.993,0.333-1.289c0.109-0.403,0.067-0.544-0.235-0.896c-0.657-0.764-1.078-1.752-1.078-3.151
			c0-4.062,3.087-7.696,8.037-7.696c4.384,0,6.792,2.637,6.792,6.158c0,4.633-2.083,8.543-5.175,8.543
			c-1.708,0-2.986-1.39-2.577-3.095c0.491-2.036,1.441-4.232,1.441-5.702c0-1.315-0.717-2.412-2.202-2.412
			c-1.746,0-3.148,1.777-3.148,4.159c0,1.517,0.521,2.543,0.521,2.543s-1.787,7.45-2.1,8.756c-0.624,2.599-0.094,5.784-0.049,6.106
			c0.026,0.19,0.275,0.236,0.388,0.092c0.161-0.207,2.24-2.734,2.947-5.259c0.2-0.715,1.148-4.417,1.148-4.417
			c0.567,1.065,2.225,2.003,3.988,2.003c5.248,0,8.808-4.709,8.808-11.013C33,12.452,28.899,8.014,22.666,8.014z M22,0
			C9.85,0,0,9.85,0,22s9.85,22,22,22s22-9.85,22-22S34.15,0,22,0z M22,42C10.954,42,2,33.046,2,22S10.954,2,22,2s20,8.954,20,20
			S33.046,42,22,42z"/>
	</g>
</g>
<g>
</g>
<g>
</g>
<g>
</g>
<g>
</g>
<g>
</g>
<g>
</g>
<g>
</g>
<g>
</g>
<g>
</g>
<g>
</g>
<g>
</g>
<g>
</g>
<g>
</g>
<g>
</g>
<g>
</g>
</svg>
