<?xml version="1.0" encoding="iso-8859-1"?>
<!-- Generator: Adobe Illustrator 16.0.4, SVG Export Plug-In . SVG Version: 6.00 Build 0)  -->
<!DOCTYPE svg PUBLIC "-//W3C//DTD SVG 1.1//EN" "http://www.w3.org/Graphics/SVG/1.1/DTD/svg11.dtd">
<svg version="1.1" id="Layer_1" xmlns="http://www.w3.org/2000/svg" xmlns:xlink="http://www.w3.org/1999/xlink" x="0px" y="0px"
	 width="52px" height="56px" viewBox="0 0 52 56" style="enable-background:new 0 0 52 56;" xml:space="preserve">
<g id="_x31_053-pizza_x40_2x.png">
	<g>
		<path d="M24,17c0-2.209-1.791-4-4-4s-4,1.791-4,4s1.791,4,4,4S24,19.209,24,17z M18,17c0-1.104,0.896-2,2-2s2,0.896,2,2
			s-0.896,2-2,2S18,18.104,18,17z M52,7c0-0.046-0.021-0.085-0.026-0.129c-0.009-0.071-0.018-0.139-0.041-0.205
			c-0.021-0.061-0.054-0.112-0.086-0.167c-0.033-0.056-0.063-0.109-0.107-0.158c-0.046-0.052-0.101-0.091-0.157-0.132
			c-0.036-0.027-0.062-0.064-0.103-0.087C51.021,5.872,40.093,0,26,0S0.979,5.872,0.521,6.122c-0.041,0.022-0.066,0.06-0.103,0.087
			C0.361,6.25,0.307,6.289,0.261,6.341C0.217,6.39,0.187,6.443,0.154,6.499C0.121,6.554,0.089,6.605,0.067,6.666
			C0.044,6.732,0.035,6.8,0.026,6.87C0.021,6.914,0,6.954,0,7c0,0.014,0.01,0.024,0.011,0.038c0.005,0.144,0.035,0.286,0.105,0.423
			L0.113,7.462l25,48l0.011-0.006C25.291,55.775,25.615,56,26,56s0.709-0.225,0.876-0.543l0.011,0.005l25-48l-0.003-0.001
			c0.07-0.137,0.101-0.279,0.105-0.423C51.99,7.024,52,7.014,52,7z M26,52.835L5.027,12.568C6.926,11.545,14.339,8,26,8
			c11.622,0,19.065,3.545,20.972,4.569L26,52.835z M47.897,10.792C45.742,9.621,38.104,6,26,6S6.257,9.621,4.103,10.792L2.356,7.439
			C5.171,6.088,14.616,2,26,2s20.829,4.088,23.644,5.44L47.897,10.792z M26,29c0-1.657-1.343-3-3-3s-3,1.343-3,3s1.343,3,3,3
			S26,30.657,26,29z M23,30c-0.553,0-1-0.447-1-1s0.447-1,1-1s1,0.447,1,1S23.553,30,23,30z M24,37c0,1.657,1.343,3,3,3s3-1.343,3-3
			c0-1.656-1.343-3-3-3S24,35.344,24,37z M27,36c0.553,0,1,0.447,1,1s-0.447,1-1,1s-1-0.447-1-1S26.447,36,27,36z M32,26
			c2.209,0,4-1.791,4-4s-1.791-4-4-4s-4,1.791-4,4S29.791,26,32,26z M32,20c1.104,0,2,0.896,2,2s-0.896,2-2,2s-2-0.896-2-2
			S30.896,20,32,20z"/>
	</g>
</g>
<g>
</g>
<g>
</g>
<g>
</g>
<g>
</g>
<g>
</g>
<g>
</g>
<g>
</g>
<g>
</g>
<g>
</g>
<g>
</g>
<g>
</g>
<g>
</g>
<g>
</g>
<g>
</g>
<g>
</g>
</svg>
