<?xml version="1.0" encoding="iso-8859-1"?>
<!-- Generator: Adobe Illustrator 16.0.4, SVG Export Plug-In . SVG Version: 6.00 Build 0)  -->
<!DOCTYPE svg PUBLIC "-//W3C//DTD SVG 1.1//EN" "http://www.w3.org/Graphics/SVG/1.1/DTD/svg11.dtd">
<svg version="1.1" id="Layer_1" xmlns="http://www.w3.org/2000/svg" xmlns:xlink="http://www.w3.org/1999/xlink" x="0px" y="0px"
	 width="55.988px" height="36px" viewBox="0 0 55.988 36" style="enable-background:new 0 0 55.988 36;" xml:space="preserve">
<g id="_x39_16-planet_x40_2x.png">
	<g>
		<path d="M55.768,8.083c-0.785-2.045-3.414-3.082-7.815-3.082c-1.385,0-2.914,0.112-4.539,0.309
			c0.497,0.604,0.967,1.231,1.391,1.892c1.15-0.113,2.256-0.192,3.252-0.192c3.253,0,5.443,0.651,5.86,1.742
			c0.431,1.121-0.793,3.543-5.512,6.979c-0.755,0.551-1.583,1.1-2.441,1.647C45.633,7.728,37.726,0,27.994,0
			c-9.941,0-18,8.059-18,18c0,4.336,1.534,8.313,4.089,11.421c-2.261,0.36-4.354,0.57-6.149,0.57c-3.254,0-5.444-0.651-5.861-1.742
			c-0.431-1.121,0.793-3.543,5.512-6.979c0.202-0.147,0.428-0.294,0.637-0.44c-0.113-0.775-0.186-1.562-0.204-2.365
			c-0.547,0.364-1.081,0.729-1.584,1.093c-5.017,3.644-7.165,6.88-6.212,9.36c0.784,2.045,3.414,3.082,7.816,3.082
			c2.267,0,4.894-0.275,7.756-0.792C19.002,34.173,23.279,36,27.994,36c9.315,0,16.978-7.076,17.905-16.146
			c1.317-0.798,2.546-1.604,3.656-2.41C54.572,13.8,56.721,10.563,55.768,8.083z M27.994,34c-3.652,0-7.008-1.237-9.7-3.297
			c4.026-0.882,8.419-2.188,12.898-3.868c4.547-1.705,8.808-3.654,12.49-5.696C42.223,28.472,35.756,34,27.994,34z M43.964,18.598
			c-3.873,2.263-8.503,4.443-13.511,6.327c-4.872,1.832-9.721,3.22-14.053,4.08c-2.725-2.868-4.406-6.736-4.406-11.005
			c0-8.837,7.163-16,16-16s16,7.163,16,16C43.994,18.202,43.972,18.397,43.964,18.598z"/>
	</g>
</g>
<g>
</g>
<g>
</g>
<g>
</g>
<g>
</g>
<g>
</g>
<g>
</g>
<g>
</g>
<g>
</g>
<g>
</g>
<g>
</g>
<g>
</g>
<g>
</g>
<g>
</g>
<g>
</g>
<g>
</g>
</svg>
