<?xml version="1.0" encoding="iso-8859-1"?>
<!-- Generator: Adobe Illustrator 16.0.4, SVG Export Plug-In . SVG Version: 6.00 Build 0)  -->
<!DOCTYPE svg PUBLIC "-//W3C//DTD SVG 1.1//EN" "http://www.w3.org/Graphics/SVG/1.1/DTD/svg11.dtd">
<svg version="1.1" id="Layer_1" xmlns="http://www.w3.org/2000/svg" xmlns:xlink="http://www.w3.org/1999/xlink" x="0px" y="0px"
	 width="44px" height="28px" viewBox="0 0 44 28" style="enable-background:new 0 0 44 28;" xml:space="preserve">
<g id="_x39_16-planet-toolbar_x40_2x.png">
	<g>
		<path d="M43.853,6.476c-0.638-1.657-3.255-2.47-7.06-2.47c-0.708,0-1.47,0.038-2.254,0.095c0.481,0.61,0.918,1.257,1.309,1.936
			c0.316-0.011,0.644-0.03,0.946-0.03c3.577,0,5.043,0.8,5.192,1.188c0.034,0.09,0.015,0.322-0.154,0.686
			c-0.652,1.4-2.7,3.287-5.889,5.261C35.496,5.811,29.434,0,22,0C14.274,0,8.013,6.269,8.013,14c0,2.894,0.878,5.581,2.38,7.812
			c-1.124,0.113-2.199,0.182-3.186,0.182c-3.578,0-5.044-0.8-5.193-1.188c-0.034-0.09-0.015-0.322,0.154-0.686
			c0.511-1.099,1.889-2.497,3.991-4C6.064,15.426,6,14.722,6,14c0-0.065,0.009-0.129,0.01-0.194
			c-4.301,2.847-6.641,5.698-5.862,7.719c0.638,1.657,3.255,2.47,7.06,2.47c1.405,0,2.986-0.124,4.676-0.345
			C14.43,26.325,18.016,28,22,28c7.225,0,13.168-5.484,13.907-12.521C41.51,12.226,44.747,8.802,43.853,6.476z M22,26.007
			c-2.902,0-5.564-1.029-7.641-2.743c3.149-0.567,6.604-1.458,10.171-2.686c3.376-1.162,6.469-2.496,9.165-3.891
			C32.474,22.022,27.706,26.007,22,26.007z M33.994,14.274c-2.766,1.523-6.167,3.053-10.115,4.413
			c-3.89,1.339-7.764,2.31-11.228,2.841c-1.661-2.06-2.66-4.676-2.66-7.528C9.991,7.369,15.367,1.993,22,1.993
			c6.632,0,12.008,5.376,12.008,12.007C34.008,14.093,33.996,14.183,33.994,14.274z"/>
	</g>
</g>
<g>
</g>
<g>
</g>
<g>
</g>
<g>
</g>
<g>
</g>
<g>
</g>
<g>
</g>
<g>
</g>
<g>
</g>
<g>
</g>
<g>
</g>
<g>
</g>
<g>
</g>
<g>
</g>
<g>
</g>
</svg>
