<?xml version="1.0" encoding="UTF-8" standalone="no"?>
<svg width="58px" height="58px" viewBox="0 0 58 58" version="1.1" xmlns="http://www.w3.org/2000/svg" xmlns:xlink="http://www.w3.org/1999/xlink" xmlns:sketch="http://www.bohemiancoding.com/sketch/ns">
    <!-- Generator: Sketch 3.0.4 (8053) - http://www.bohemiancoding.com/sketch -->
    <title>1241-play</title>
    <desc>Created with Sketch.</desc>
    <defs></defs>
    <g id="Page-1" stroke="none" stroke-width="1" fill="none" fill-rule="evenodd" sketch:type="MSPage">
        <g id="Glyphish-8-Icons" sketch:type="MSArtboardGroup" transform="translate(-20.000000, -1363.000000)" fill="#000000">
            <g id="1241-play" sketch:type="MSLayerGroup" transform="translate(20.036996, 1363.860499)">
                <g id="_x31_241-play_x40_2x.png" sketch:type="MSShapeGroup">
                    <path d="M39.622,27.235 L39.631,27.224 L21.631,16.224 L21.622,16.235 C21.45,16.096 21.239,16 21,16 C20.448,16 20,16.447 20,17 L20,39 C20,39.553 20.448,40 21,40 C21.239,40 21.449,39.904 21.622,39.765 L21.631,39.777 L39.631,28.777 L39.622,28.765 C39.847,28.582 40,28.313 40,28 C40,27.687 39.847,27.419 39.622,27.235 L39.622,27.235 Z M28,0 C12.536,0 0,12.536 0,28 C0,43.464 12.536,56 28,56 C43.464,56 56,43.464 56,28 C56,12.536 43.464,0 28,0 L28,0 Z M28,54 C13.641,54 2,42.359 2,28 C2,13.641 13.641,2 28,2 C42.359,2 54,13.641 54,28 C54,42.359 42.359,54 28,54 L28,54 Z" id="Shape"></path>
                </g>
            </g>
        </g>
    </g>
</svg>