<?xml version="1.0" encoding="iso-8859-1"?>
<!-- Generator: Adobe Illustrator 16.0.4, SVG Export Plug-In . SVG Version: 6.00 Build 0)  -->
<!DOCTYPE svg PUBLIC "-//W3C//DTD SVG 1.1//EN" "http://www.w3.org/Graphics/SVG/1.1/DTD/svg11.dtd">
<svg version="1.1" id="Layer_1" xmlns="http://www.w3.org/2000/svg" xmlns:xlink="http://www.w3.org/1999/xlink" x="0px" y="0px"
	 width="44px" height="44px" viewBox="0 0 44 44" style="enable-background:new 0 0 44 44;" xml:space="preserve">
<g id="_x39_07-plus-rounded-square-toolbar_x40_2x.png">
	<g>
		<path d="M30,21h-7v-7c0-0.552-0.447-1-1-1s-1,0.448-1,1v7h-7c-0.553,0-1,0.448-1,1c0,0.553,0.447,1,1,1h7v7c0,0.553,0.447,1,1,1
			s1-0.447,1-1v-7h7c0.553,0,1-0.447,1-1C31,21.448,30.553,21,30,21z M40,0H4C1.791,0,0,1.791,0,4v36c0,2.209,1.791,4,4,4h36
			c2.209,0,4-1.791,4-4V4C44,1.791,42.209,0,40,0z M42,40c0,1.104-0.896,2-2,2H4c-1.104,0-2-0.896-2-2V4c0-1.104,0.896-2,2-2h36
			c1.104,0,2,0.896,2,2V40z"/>
	</g>
</g>
<g>
</g>
<g>
</g>
<g>
</g>
<g>
</g>
<g>
</g>
<g>
</g>
<g>
</g>
<g>
</g>
<g>
</g>
<g>
</g>
<g>
</g>
<g>
</g>
<g>
</g>
<g>
</g>
<g>
</g>
</svg>
