<?xml version="1.0" encoding="iso-8859-1"?>
<!-- Generator: Adobe Illustrator 16.0.4, SVG Export Plug-In . SVG Version: 6.00 Build 0)  -->
<!DOCTYPE svg PUBLIC "-//W3C//DTD SVG 1.1//EN" "http://www.w3.org/Graphics/SVG/1.1/DTD/svg11.dtd">
<svg version="1.1" id="Layer_1" xmlns="http://www.w3.org/2000/svg" xmlns:xlink="http://www.w3.org/1999/xlink" x="0px" y="0px"
	 width="32px" height="44px" viewBox="0 0 32 44" style="enable-background:new 0 0 32 44;" xml:space="preserve">
<g id="_x38_72-podium-toolbar_x40_2x.png">
	<g>
		<path d="M31.948,26.742l0.017-0.005l-4-16l-0.017,0.005C27.832,10.318,27.461,10,27,10h-8h-6h-3V8.978V5c0-1.656,1.343-3,3-3
			c1.132,0,2.105,0.635,2.616,1.561C15.238,3.925,15,4.434,15,5c0,1.104,0.896,2,2,2s2-0.896,2-2c0-0.885-0.579-1.627-1.376-1.891
			C16.878,1.286,15.092,0,13,0c-2.762,0-5,2.238-5,5v5H5c-0.461,0-0.832,0.318-0.948,0.742l-0.017-0.005l-4,16l0.017,0.005
			C0.029,26.826,0,26.908,0,27c0,0.553,0.447,1,1,1h12v10h-1c-2.209,0-4,1.791-4,4v2h2h12h2v-2c0-2.209-1.791-4-4-4h-1V28h12
			c0.553,0,1-0.447,1-1C32,26.908,31.971,26.826,31.948,26.742z M5.78,12H26.22l2.5,10H3.28L5.78,12z M20,40c1.104,0,2,0.896,2,2H10
			c0-1.104,0.896-2,2-2h1h2h2h2H20z M15,38V28h2v10H15z M2.28,26l0.5-2H29.22l0.5,2H2.28z"/>
	</g>
</g>
<g>
</g>
<g>
</g>
<g>
</g>
<g>
</g>
<g>
</g>
<g>
</g>
<g>
</g>
<g>
</g>
<g>
</g>
<g>
</g>
<g>
</g>
<g>
</g>
<g>
</g>
<g>
</g>
<g>
</g>
</svg>
