<?xml version="1.0" encoding="UTF-8" standalone="no"?>
<svg width="38px" height="52px" viewBox="0 0 38 52" version="1.1" xmlns="http://www.w3.org/2000/svg" xmlns:xlink="http://www.w3.org/1999/xlink" xmlns:sketch="http://www.bohemiancoding.com/sketch/ns">
    <!-- Generator: Sketch 3.0.4 (8053) - http://www.bohemiancoding.com/sketch -->
    <title>1101-pointing-finger</title>
    <desc>Created with Sketch.</desc>
    <defs></defs>
    <g id="Page-1" stroke="none" stroke-width="1" fill="none" fill-rule="evenodd" sketch:type="MSPage">
        <g id="Glyphish-8-Icons" sketch:type="MSArtboardGroup" transform="translate(-30.000000, -22.000000)" fill="#000000">
            <g id="1101-pointing-finger" sketch:type="MSLayerGroup" transform="translate(30.036996, 22.860499)">
                <g id="_x31_101-pointing-finger_x40_2x.png" sketch:type="MSShapeGroup">
                    <path d="M32.008,16 C31.178,16 30.408,16.253 29.769,16.686 C29.224,15.126 27.754,14 26.008,14 C25.178,14 24.408,14.253 23.769,14.686 C23.224,13.126 21.754,12 20.008,12 C19.276,12 18.598,12.212 18.008,12.555 L18.008,4 C18.008,1.791 16.217,0 14.008,0 C11.799,0 10.008,1.791 10.008,4 L10.008,26.913 L7.696,22.456 C6.663,20.384 4.51,19.446 2.469,20.291 C0.428,21.137 -0.541,23.477 0.304,25.518 L4.608,38.297 C6.488,45.044 12.663,50 20.008,50 C28.844,50 36.008,42.837 36.008,34 L36.008,33.999 L36.008,20 C36.008,17.791 34.217,16 32.008,16 L32.008,16 Z M34.008,34 C34.008,41.732 27.74,48 20.008,48 C14.092,48 9.044,44.325 6.994,39.138 L6.974,39.14 L6.973,39.137 L6.994,39.128 L2.153,24.752 C1.73,23.731 2.215,22.562 3.236,22.139 C4.257,21.716 5.269,22.116 5.849,23.222 L10.097,31.41 L10.1,31.408 C10.256,31.756 10.603,32 11.008,32 C11.56,32 12.008,31.553 12.008,31 L12.008,4 C12.008,2.896 12.904,2 14.008,2 C15.112,2 16.008,2.896 16.008,4 L16.008,21 C16.008,21.553 16.456,22 17.008,22 C17.56,22 18.008,21.553 18.008,21 L18.008,16 C18.008,14.896 18.904,14 20.008,14 C21.112,14 22.008,14.896 22.008,16 L22.008,23 C22.008,23.553 22.456,24 23.008,24 C23.56,24 24.008,23.553 24.008,23 L24.008,18 C24.008,16.896 24.904,16 26.008,16 C27.112,16 28.008,16.896 28.008,18 L28.008,25 C28.008,25.553 28.456,26 29.008,26 C29.56,26 30.008,25.553 30.008,25 L30.008,20.001 L30.008,20 C30.008,18.896 30.904,18 32.008,18 C33.112,18 34.008,18.896 34.008,20 L34.008,34 L34.008,34 Z" id="Shape"></path>
                </g>
            </g>
        </g>
    </g>
</svg>