<?xml version="1.0" encoding="iso-8859-1"?>
<!-- Generator: Adobe Illustrator 16.0.4, SVG Export Plug-In . SVG Version: 6.00 Build 0)  -->
<!DOCTYPE svg PUBLIC "-//W3C//DTD SVG 1.1//EN" "http://www.w3.org/Graphics/SVG/1.1/DTD/svg11.dtd">
<svg version="1.1" id="Layer_1" xmlns="http://www.w3.org/2000/svg" xmlns:xlink="http://www.w3.org/1999/xlink" x="0px" y="0px"
	 width="24px" height="44px" viewBox="0 0 24 44" style="enable-background:new 0 0 24 44;" xml:space="preserve">
<g id="_x39_97-popsicle-toolbar_x40_2x.png">
	<g>
		<path d="M12,0C5.373,0,0,5.373,0,12v19c0,1.657,1.343,3,3,3h6v7.014h0.002C9.011,42.664,10.349,44,12,44s2.989-1.336,2.998-2.986
			H15V34h6c1.657,0,3-1.343,3-3V12C24,5.373,18.627,0,12,0z M13,41.014h-0.003c-0.009,0.543-0.45,0.98-0.997,0.98
			s-0.988-0.438-0.997-0.98H11V34h2V41.014z M22,31c0,0.553-0.447,1-1,1H3c-0.553,0-1-0.447-1-1V12C2,6.478,6.478,2,12,2
			s10,4.478,10,10V31z"/>
	</g>
</g>
<g>
</g>
<g>
</g>
<g>
</g>
<g>
</g>
<g>
</g>
<g>
</g>
<g>
</g>
<g>
</g>
<g>
</g>
<g>
</g>
<g>
</g>
<g>
</g>
<g>
</g>
<g>
</g>
<g>
</g>
</svg>
