<?xml version="1.0" encoding="iso-8859-1"?>
<!-- Generator: Adobe Illustrator 16.0.4, SVG Export Plug-In . SVG Version: 6.00 Build 0)  -->
<!DOCTYPE svg PUBLIC "-//W3C//DTD SVG 1.1//EN" "http://www.w3.org/Graphics/SVG/1.1/DTD/svg11.dtd">
<svg version="1.1" id="Layer_1" xmlns="http://www.w3.org/2000/svg" xmlns:xlink="http://www.w3.org/1999/xlink" x="0px" y="0px"
	 width="32px" height="56px" viewBox="0 0 32 56" style="enable-background:new 0 0 32 56;" xml:space="preserve">
<g id="_x39_97-popsicle_x40_2x.png">
	<g>
		<path d="M16,0C7.163,0,0,7.163,0,16v22c0,2.209,1.791,4,4,4h8v10c0,2.209,1.791,4,4,4s4-1.791,4-4V42h8c2.209,0,4-1.791,4-4V16
			C32,7.163,24.837,0,16,0z M18,52c0,1.104-0.896,2-2,2s-2-0.896-2-2V42h4V52z M30,38c0,1.104-0.896,2-2,2H4c-1.104,0-2-0.896-2-2
			V16C2,8.268,8.268,2,16,2s14,6.268,14,14V38z"/>
	</g>
</g>
<g>
</g>
<g>
</g>
<g>
</g>
<g>
</g>
<g>
</g>
<g>
</g>
<g>
</g>
<g>
</g>
<g>
</g>
<g>
</g>
<g>
</g>
<g>
</g>
<g>
</g>
<g>
</g>
<g>
</g>
</svg>
