<?xml version="1.0" encoding="iso-8859-1"?>
<!-- Generator: Adobe Illustrator 16.0.4, SVG Export Plug-In . SVG Version: 6.00 Build 0)  -->
<!DOCTYPE svg PUBLIC "-//W3C//DTD SVG 1.1//EN" "http://www.w3.org/Graphics/SVG/1.1/DTD/svg11.dtd">
<svg version="1.1" id="Layer_1" xmlns="http://www.w3.org/2000/svg" xmlns:xlink="http://www.w3.org/1999/xlink" x="0px" y="0px"
	 width="56px" height="44px" viewBox="0 0 56 44" style="enable-background:new 0 0 56 44;" xml:space="preserve">
<g id="_x39_35-power-socket_x40_2x.png">
	<g>
		<path d="M28,30c-5,0-5,5-5,5c0,0.553,0.447,1,1,1h8c0.553,0,1-0.447,1-1C33,35,33,30,28,30z M19,10c-0.553,0-1,0.448-1,1v12
			c0,0.553,0.447,1,1,1s1-0.447,1-1V11C20,10.448,19.553,10,19,10z M47,0H9C4.029,0,0,9.85,0,22s4.029,22,9,22h38
			c4.971,0,9-9.85,9-22S51.971,0,47,0z M47,42H9c-3.866,0-7-8.954-7-20S5.134,2,9,2h38c3.866,0,7,8.954,7,20S50.866,42,47,42z
			 M37,10c-0.553,0-1,0.448-1,1v12c0,0.553,0.447,1,1,1s1-0.447,1-1V11C38,10.448,37.553,10,37,10z"/>
	</g>
</g>
<g>
</g>
<g>
</g>
<g>
</g>
<g>
</g>
<g>
</g>
<g>
</g>
<g>
</g>
<g>
</g>
<g>
</g>
<g>
</g>
<g>
</g>
<g>
</g>
<g>
</g>
<g>
</g>
<g>
</g>
</svg>
