<?xml version="1.0" encoding="iso-8859-1"?>
<!-- Generator: Adobe Illustrator 16.0.4, SVG Export Plug-In . SVG Version: 6.00 Build 0)  -->
<!DOCTYPE svg PUBLIC "-//W3C//DTD SVG 1.1//EN" "http://www.w3.org/Graphics/SVG/1.1/DTD/svg11.dtd">
<svg version="1.1" id="Layer_1" xmlns="http://www.w3.org/2000/svg" xmlns:xlink="http://www.w3.org/1999/xlink" x="0px" y="0px"
	 width="44px" height="32px" viewBox="0 0 44 32" style="enable-background:new 0 0 44 32;" xml:space="preserve">
<g id="_x39_35-power-socket-toolbar_x40_2x.png">
	<g>
		<path d="M15,8c-0.553,0-1,0.448-1,1v8c0,0.553,0.447,1,1,1s1-0.447,1-1V9C16,8.448,15.553,8,15,8z M22,20c-3,0-3,3-3,3
			c0,0.553,0.448,1,1,1h4c0.553,0,1-0.447,1-1C25,23,25,20,22,20z M29,8c-0.553,0-1,0.448-1,1v8c0,0.553,0.447,1,1,1s1-0.447,1-1V9
			C30,8.448,29.553,8,29,8z M36.991,0.007V0H7.009v0.007C3.133,0.084,0,7.211,0,16s3.133,15.916,7.009,15.993V32h29.982v-0.007
			C40.867,31.916,44,24.789,44,16S40.867,0.084,36.991,0.007z M36.992,30.014C36.991,30.014,36.991,30.014,36.992,30.014H7.009
			c0,0,0,0-0.001,0c-2.761,0-5-6.274-5-14.014s2.239-14.014,5-14.014c0.001,0,0.001,0,0.001,0h29.982c0,0,0,0,0.001,0
			c2.761,0,5,6.274,5,14.014S39.753,30.014,36.992,30.014z"/>
	</g>
</g>
<g>
</g>
<g>
</g>
<g>
</g>
<g>
</g>
<g>
</g>
<g>
</g>
<g>
</g>
<g>
</g>
<g>
</g>
<g>
</g>
<g>
</g>
<g>
</g>
<g>
</g>
<g>
</g>
<g>
</g>
</svg>
