<?xml version="1.0" encoding="iso-8859-1"?>
<!-- Generator: Adobe Illustrator 16.0.4, SVG Export Plug-In . SVG Version: 6.00 Build 0)  -->
<!DOCTYPE svg PUBLIC "-//W3C//DTD SVG 1.1//EN" "http://www.w3.org/Graphics/SVG/1.1/DTD/svg11.dtd">
<svg version="1.1" id="Layer_1" xmlns="http://www.w3.org/2000/svg" xmlns:xlink="http://www.w3.org/1999/xlink" x="0px" y="0px"
	 width="44px" height="44px" viewBox="0 0 44 44" style="enable-background:new 0 0 44 44;" xml:space="preserve">
<g id="_x39_90-presentation-toolbar_x40_2x.png">
	<g>
		<path d="M36,20H26v2h10V20z M36,26H26v2h10V26z M36,14H26v2h10V14z M43,4H23V1c0-0.552-0.447-1-1-1s-1,0.448-1,1v3H1
			C0.447,4,0,4.448,0,5v4c0,0.553,0.447,1,1,1h1v23c0,0.553,0.447,1,1,1h17.52l0.2,0.25l-6.501,8.125l0.012,0.01
			C14.094,42.556,14,42.764,14,43c0,0.553,0.447,1,1,1c0.316,0,0.586-0.155,0.77-0.385l0.012,0.01L22,35.851l6.219,7.774l0.012-0.01
			C28.414,43.845,28.684,44,29,44c0.553,0,1-0.447,1-1c0-0.236-0.094-0.444-0.23-0.615l0.012-0.01L23.28,34.25l0.2-0.25H41
			c0.553,0,1-0.447,1-1V10h1c0.553,0,1-0.447,1-1V5C44,4.448,43.553,4,43,4z M40,32H4V10h36V32z M42,8H2V6h40V8z M14,26v-6h6
			c0-3.313-2.687-6-6-6s-6,2.687-6,6S10.687,26,14,26z M16,28c3.313,0,6-2.687,6-6h-6V28z"/>
	</g>
</g>
<g>
</g>
<g>
</g>
<g>
</g>
<g>
</g>
<g>
</g>
<g>
</g>
<g>
</g>
<g>
</g>
<g>
</g>
<g>
</g>
<g>
</g>
<g>
</g>
<g>
</g>
<g>
</g>
<g>
</g>
</svg>
