<?xml version="1.0" encoding="iso-8859-1"?>
<!-- Generator: Adobe Illustrator 16.0.4, SVG Export Plug-In . SVG Version: 6.00 Build 0)  -->
<!DOCTYPE svg PUBLIC "-//W3C//DTD SVG 1.1//EN" "http://www.w3.org/Graphics/SVG/1.1/DTD/svg11.dtd">
<svg version="1.1" id="Layer_1" xmlns="http://www.w3.org/2000/svg" xmlns:xlink="http://www.w3.org/1999/xlink" x="0px" y="0px"
	 width="56px" height="52px" viewBox="0 0 56 52" style="enable-background:new 0 0 56 52;" xml:space="preserve">
<g id="_x39_90-presentation_x40_2x.png">
	<g>
		<path d="M46,30H32v2h14V30z M55,4H29V1c0-0.552-0.447-1-1-1s-1,0.448-1,1v3H1C0.447,4,0,4.447,0,5v4c0,0.553,0.447,1,1,1h1v31
			c0,0.553,0.447,1,1,1h23.52l0.2,0.25l-6.501,8.125l0.012,0.01C20.094,50.556,20,50.764,20,51c0,0.553,0.447,1,1,1
			c0.316,0,0.586-0.155,0.77-0.385l0.012,0.01L28,43.851l6.219,7.774l0.012-0.01C34.414,51.845,34.684,52,35,52c0.553,0,1-0.447,1-1
			c0-0.236-0.094-0.444-0.23-0.615l0.012-0.01L29.28,42.25l0.2-0.25H53c0.553,0,1-0.447,1-1V10h1c0.553,0,1-0.447,1-1V5
			C56,4.447,55.553,4,55,4z M52,40H4V10h48V40z M54,8H2V6h52V8z M46,18H32v2h14V18z M46,24H32v2h14V24z M19,34c4.418,0,8-3.582,8-8
			h-8V34z M17,32v-8h8c0-4.418-3.582-8-8-8s-8,3.582-8,8S12.582,32,17,32z"/>
	</g>
</g>
<g>
</g>
<g>
</g>
<g>
</g>
<g>
</g>
<g>
</g>
<g>
</g>
<g>
</g>
<g>
</g>
<g>
</g>
<g>
</g>
<g>
</g>
<g>
</g>
<g>
</g>
<g>
</g>
<g>
</g>
</svg>
