<?xml version="1.0" encoding="iso-8859-1"?>
<!-- Generator: Adobe Illustrator 16.0.4, SVG Export Plug-In . SVG Version: 6.00 Build 0)  -->
<!DOCTYPE svg PUBLIC "-//W3C//DTD SVG 1.1//EN" "http://www.w3.org/Graphics/SVG/1.1/DTD/svg11.dtd">
<svg version="1.1" id="Layer_1" xmlns="http://www.w3.org/2000/svg" xmlns:xlink="http://www.w3.org/1999/xlink" x="0px" y="0px"
	 width="56px" height="56.001px" viewBox="0 0 56 56.001" style="enable-background:new 0 0 56 56.001;" xml:space="preserve">
<g id="_x31_007-price-tag_x40_2x.png">
	<g>
		<path d="M24.585,27.512l-1.866-0.5l-0.562,2.1c-2.402-0.231-4.146,0.817-4.64,2.66c-0.533,1.992,0.739,3.437,2.911,4.892
			c1.529,1.03,2.159,1.865,1.901,2.829c-0.275,1.029-1.432,1.431-2.865,1.046c-1.389-0.372-2.543-1.164-3.298-1.895l-1.153,1.849
			c0.681,0.734,2.012,1.505,3.434,1.933l-0.557,2.078l1.866,0.5l0.591-2.207c2.606,0.286,4.379-0.961,4.867-2.782
			c0.51-1.907-0.318-3.369-2.626-4.953c-1.739-1.247-2.427-1.96-2.191-2.839c0.195-0.729,0.971-1.347,2.563-0.92
			c1.547,0.416,2.417,1.177,2.899,1.559l1.143-1.807c-0.637-0.538-1.529-1.121-2.951-1.549L24.585,27.512z M55.427,0.098
			c-0.5-0.239-1.095-0.021-1.331,0.478C54.051,0.669,49.57,10.001,43,10.001c-3.452,0-5.938,1.678-7.73,3.855l-1.562-1.562
			c-0.181-0.181-0.431-0.293-0.707-0.293H23c-0.276,0-0.526,0.112-0.707,0.293l-22,22C0.112,34.475,0,34.725,0,35.001
			s0.112,0.526,0.293,0.707l20,20c0.181,0.182,0.431,0.293,0.707,0.293s0.526-0.111,0.707-0.293l22-22
			C43.888,33.527,44,33.277,44,33.001v-10c0-0.276-0.112-0.526-0.293-0.707l-6.995-6.995c1.494-1.868,3.524-3.298,6.288-3.298
			c7.824,0,12.7-10.141,12.904-10.572C56.14,0.929,55.927,0.333,55.427,0.098z M31.848,24.989c0.052,0.009,0.103,0.013,0.153,0.013
			c0.485,0,0.911-0.354,0.987-0.849c0.006-0.036,0.188-1.143,0.648-2.662C34.456,22.026,35,22.948,35,24.001c0,1.657-1.343,3-3,3
			s-3-1.343-3-3c0-1.545,1.173-2.803,2.675-2.967c-0.449,1.532-0.64,2.66-0.663,2.815C30.928,24.396,31.302,24.905,31.848,24.989z
			 M42,23.415v9.172l-21,21L2.414,35.001l21-21h9.172l1.494,1.494c-0.729,1.172-1.294,2.396-1.732,3.541
			c-0.117-0.008-0.229-0.035-0.348-0.035c-2.762,0-5,2.238-5,5s2.238,5,5,5s5-2.238,5-5c0-1.927-1.102-3.579-2.698-4.414
			c0.339-0.855,0.747-1.748,1.254-2.616L42,23.415z"/>
	</g>
</g>
<g>
</g>
<g>
</g>
<g>
</g>
<g>
</g>
<g>
</g>
<g>
</g>
<g>
</g>
<g>
</g>
<g>
</g>
<g>
</g>
<g>
</g>
<g>
</g>
<g>
</g>
<g>
</g>
<g>
</g>
</svg>
