<?xml version="1.0" encoding="iso-8859-1"?>
<!-- Generator: Adobe Illustrator 16.0.4, SVG Export Plug-In . SVG Version: 6.00 Build 0)  -->
<!DOCTYPE svg PUBLIC "-//W3C//DTD SVG 1.1//EN" "http://www.w3.org/Graphics/SVG/1.1/DTD/svg11.dtd">
<svg version="1.1" id="Layer_1" xmlns="http://www.w3.org/2000/svg" xmlns:xlink="http://www.w3.org/1999/xlink" x="0px" y="0px"
	 width="44px" height="44px" viewBox="0 0 44 44" style="enable-background:new 0 0 44 44;" xml:space="preserve">
<g id="_x31_007-price-tag-toolbar_x40_2x.png">
	<g>
		<path d="M18.39,23.312l-1.244-0.307l-0.374,1.284c-1.602-0.142-2.764,0.499-3.093,1.625c-0.355,1.218,0.492,2.101,1.94,2.989
			c1.02,0.63,1.439,1.141,1.268,1.729c-0.184,0.629-0.955,0.874-1.91,0.639c-0.926-0.228-1.695-0.711-2.199-1.158l-0.769,1.131
			c0.454,0.448,1.342,0.919,2.289,1.181l-0.37,1.27l1.244,0.307l0.394-1.35c1.737,0.175,2.919-0.587,3.244-1.7
			c0.341-1.165-0.212-2.059-1.75-3.026c-1.16-0.763-1.618-1.198-1.461-1.735c0.13-0.445,0.646-0.823,1.708-0.562
			c1.032,0.253,1.611,0.719,1.934,0.952l0.762-1.104c-0.425-0.328-1.02-0.686-1.968-0.946L18.39,23.312z M43.555,0.169
			c-0.462-0.309-1.081-0.183-1.387,0.277c-1.692,2.538-4.396,4.579-10.332,5.568C28.972,6.492,27.045,8.07,25.735,10H17
			c-0.276,0-0.526,0.112-0.707,0.293l-16,16C0.112,26.474,0,26.724,0,27s0.112,0.526,0.293,0.707l16,16
			C16.474,43.888,16.724,44,17,44s0.526-0.112,0.707-0.293l16-16C33.888,27.526,34,27.276,34,27V17c0-0.276-0.112-0.526-0.293-0.707
			l-5.799-5.8c1.02-1.239,2.392-2.195,4.256-2.507c6.77-1.128,9.901-3.781,11.668-6.432C44.139,1.096,44.015,0.475,43.555,0.169z
			 M25,19.99c0-0.026,0.001-0.679,0.101-1.658C25.642,18.689,26,19.303,26,20c0,1.104-0.896,2-2,2s-2-0.896-2-2
			c0-0.775,0.446-1.441,1.092-1.772c-0.09,0.987-0.093,1.673-0.092,1.784c0.007,0.549,0.453,0.989,1,0.989c0.004,0,0.007,0,0.011,0
			C24.562,21.001,25.006,20.543,25,19.99z M32,17.414v9.172l-15,15L2.414,27l15-15h7.216c-0.613,1.38-0.995,2.798-1.232,4.061
			C21.477,16.354,20,17.997,20,20c0,2.209,1.791,4,4,4s4-1.791,4-4c0-1.71-1.077-3.157-2.586-3.73
			c0.259-1.287,0.681-2.736,1.373-4.068L32,17.414z"/>
	</g>
</g>
<g>
</g>
<g>
</g>
<g>
</g>
<g>
</g>
<g>
</g>
<g>
</g>
<g>
</g>
<g>
</g>
<g>
</g>
<g>
</g>
<g>
</g>
<g>
</g>
<g>
</g>
<g>
</g>
<g>
</g>
</svg>
