<?xml version="1.0" encoding="iso-8859-1"?>
<!-- Generator: Adobe Illustrator 16.0.4, SVG Export Plug-In . SVG Version: 6.00 Build 0)  -->
<!DOCTYPE svg PUBLIC "-//W3C//DTD SVG 1.1//EN" "http://www.w3.org/Graphics/SVG/1.1/DTD/svg11.dtd">
<svg version="1.1" id="Layer_1" xmlns="http://www.w3.org/2000/svg" xmlns:xlink="http://www.w3.org/1999/xlink" x="0px" y="0px"
	 width="56px" height="56px" viewBox="0 0 56 56" style="enable-background:new 0 0 56 56;" xml:space="preserve">
<g id="_x37_43-printer_x40_2x.png">
	<g>
		<path d="M17,45h18c0.553,0,1-0.447,1-1c0-0.552-0.447-1-1-1H17c-0.553,0-1,0.448-1,1C16,44.553,16.447,45,17,45z M17,40h22
			c0.553,0,1-0.447,1-1c0-0.552-0.447-1-1-1H17c-0.553,0-1,0.448-1,1C16,39.553,16.447,40,17,40z M52,16h-6V2c0-1.104-0.896-2-2-2
			H12c-1.104,0-2,0.896-2,2v14H4c-2.209,0-4,1.791-4,4v22c0,2.209,1.791,4,4,4h6v8c0,1.104,0.896,2,2,2h32c1.104,0,2-0.896,2-2v-8h6
			c2.209,0,4-1.791,4-4V20C56,17.791,54.209,16,52,16z M12,2h32v14H12V2z M44,54H12V34h32V54z M54,42c0,1.104-0.896,2-2,2h-6V34
			c0-1.104-0.896-2-2-2H12c-1.104,0-2,0.896-2,2v10H4c-1.104,0-2-0.896-2-2V20c0-1.104,0.896-2,2-2h8h32h8c1.104,0,2,0.896,2,2V42z
			 M48,22c-1.104,0-2,0.896-2,2s0.896,2,2,2s2-0.896,2-2S49.104,22,48,22z M17,50h22c0.553,0,1-0.447,1-1c0-0.552-0.447-1-1-1H17
			c-0.553,0-1,0.448-1,1C16,49.553,16.447,50,17,50z"/>
	</g>
</g>
<g>
</g>
<g>
</g>
<g>
</g>
<g>
</g>
<g>
</g>
<g>
</g>
<g>
</g>
<g>
</g>
<g>
</g>
<g>
</g>
<g>
</g>
<g>
</g>
<g>
</g>
<g>
</g>
<g>
</g>
</svg>
