<?xml version="1.0" encoding="iso-8859-1"?>
<!-- Generator: Adobe Illustrator 16.0.4, SVG Export Plug-In . SVG Version: 6.00 Build 0)  -->
<!DOCTYPE svg PUBLIC "-//W3C//DTD SVG 1.1//EN" "http://www.w3.org/Graphics/SVG/1.1/DTD/svg11.dtd">
<svg version="1.1" id="Layer_1" xmlns="http://www.w3.org/2000/svg" xmlns:xlink="http://www.w3.org/1999/xlink" x="0px" y="0px"
	 width="44px" height="44px" viewBox="0 0 44 44" style="enable-background:new 0 0 44 44;" xml:space="preserve">
<g id="_x37_43-printer-toolbar_x40_2x.png">
	<g>
		<path d="M15,32h14c0.553,0,1-0.447,1-1c0-0.552-0.447-1-1-1H15c-0.553,0-1,0.448-1,1C14,31.553,14.447,32,15,32z M40,12h-4V2
			c0-1.104-0.896-2-2-2H10C8.896,0,8,0.896,8,2v10H4c-2.209,0-4,1.791-4,4v18c0,2.21,1.791,4,4,4h4v4c0,1.104,0.896,2,2,2h24
			c1.104,0,2-0.896,2-2v-4h4c2.209,0,4-1.79,4-4V16C44,13.791,42.209,12,40,12z M10,2h24v10H10V2z M34,42H10V26h24V42z M42,34
			c0,1.104-0.896,2-2,2h-4V26c0-1.104-0.896-2-2-2H10c-1.104,0-2,0.896-2,2v10H4c-1.104,0-2-0.896-2-2V16c0-1.104,0.896-2,2-2h6h24
			h6c1.104,0,2,0.896,2,2V34z M15,38h10c0.553,0,1-0.447,1-1c0-0.552-0.447-1-1-1H15c-0.553,0-1,0.448-1,1
			C14,37.553,14.447,38,15,38z M36,16c-1.104,0-2,0.896-2,2.001C34,19.104,34.896,20,36,20s2-0.896,2-1.999
			C38,16.896,37.104,16,36,16z"/>
	</g>
</g>
<g>
</g>
<g>
</g>
<g>
</g>
<g>
</g>
<g>
</g>
<g>
</g>
<g>
</g>
<g>
</g>
<g>
</g>
<g>
</g>
<g>
</g>
<g>
</g>
<g>
</g>
<g>
</g>
<g>
</g>
</svg>
