<?xml version="1.0" encoding="iso-8859-1"?>
<!-- Generator: Adobe Illustrator 16.0.4, SVG Export Plug-In . SVG Version: 6.00 Build 0)  -->
<!DOCTYPE svg PUBLIC "-//W3C//DTD SVG 1.1//EN" "http://www.w3.org/Graphics/SVG/1.1/DTD/svg11.dtd">
<svg version="1.1" id="Layer_1" xmlns="http://www.w3.org/2000/svg" xmlns:xlink="http://www.w3.org/1999/xlink" x="0px" y="0px"
	 width="36px" height="44px" viewBox="0 0 36 44" style="enable-background:new 0 0 36 44;" xml:space="preserve">
<g id="_x31_127-purse_x40_2x.png">
	<g>
		<path d="M33,19.453C32.589,18.611,31.952,18,31.089,18c-0.71,0-1.573,0.414-2.589,1.453c-0.15,0.154-0.32,0.298-0.503,0.434
			C27.967,8.894,23.504,0,18,0S8.033,8.894,8.003,19.887C7.82,19.751,7.65,19.607,7.5,19.453C6.484,18.414,5.621,18,4.911,18
			c-0.862,0-1.5,0.611-1.911,1.453c-0.194,0.397-0.489,1.626-0.82,3.27c-0.04,0.102-0.057,0.207-0.062,0.317
			C1.182,27.783,0,35.635,0,37.86c0,0,0,6.14,6,6.14s18,0,24,0s6-6.14,6-6.14C36,34.791,33.75,20.988,33,19.453z M18,2
			c4.418,0,8,8.059,8,18c0,0.306-0.011,0.605-0.021,0.906c-0.637,0.225-1.318,0.406-2.018,0.549C23.979,20.974,24,20.494,24,20
			c0-8.837-2.687-16-6-16s-6,7.163-6,16c0,0.494,0.021,0.974,0.038,1.455c-0.698-0.143-1.381-0.324-2.018-0.549
			C10.012,20.605,10,20.306,10,20C10,10.059,13.582,2,18,2z M22,20c0,0.604-0.024,1.187-0.047,1.77
			c-1.594,0.187-3.066,0.227-3.953,0.227s-2.359-0.04-3.953-0.227C14.025,21.187,14,20.604,14,20c0-7.732,1.791-14,4-14
			S22,12.268,22,20z M4.797,20.332c0.073-0.15,0.142-0.248,0.189-0.307c0.154,0.06,0.518,0.246,1.083,0.826
			c2.675,2.736,8.623,3.145,11.931,3.145s9.256-0.408,11.93-3.145c0.567-0.58,0.931-0.768,1.085-0.826
			c0.047,0.056,0.111,0.146,0.175,0.277c0.144,0.346,0.369,1.303,0.628,2.582c-0.036,0.062-0.081,0.138-0.133,0.221
			c-0.023,0.037-0.054,0.082-0.08,0.123c-0.07,0.11-0.153,0.232-0.247,0.366c-0.051,0.072-0.102,0.146-0.16,0.225
			c-0.06,0.081-0.127,0.168-0.195,0.256c-0.053,0.068-0.109,0.14-0.168,0.212c-0.082,0.103-0.167,0.206-0.26,0.313
			c-0.045,0.053-0.097,0.107-0.144,0.162c-0.365,0.411-0.799,0.854-1.312,1.303c-0.038,0.034-0.077,0.067-0.116,0.102
			c-0.182,0.156-0.372,0.312-0.573,0.468c-0.013,0.01-0.026,0.02-0.039,0.03c-0.658,0.506-1.415,1.003-2.283,1.452
			c-0.002,0.001-0.005,0.003-0.008,0.004c-0.29,0.15-0.593,0.295-0.907,0.433c-0.009,0.004-0.018,0.007-0.025,0.011
			c-0.941,0.41-1.995,0.759-3.166,1.009c-0.016,0.003-0.029,0.007-0.045,0.011C21.764,28.679,20.962,28,20,28h-4
			c-0.967,0-1.772,0.686-1.959,1.597c-6.278-1.301-9.173-5.454-9.877-6.637C4.427,21.651,4.654,20.676,4.797,20.332z M20,30v2h-4v-2
			H20z M30,41.999H6c-3.655,0-3.986-3.179-4-4.139c0-1.891,0.863-7.753,1.657-12.211C5.343,27.694,8.607,30.61,14,31.616V32
			c0,1.104,0.896,2,2,2h4c1.104,0,2-0.896,2-2v-0.395c0.029-0.006,0.056-0.016,0.085-0.021c0.609-0.118,1.19-0.261,1.746-0.425
			c0.154-0.045,0.296-0.099,0.445-0.147c0.421-0.136,0.832-0.277,1.221-0.435c0.172-0.068,0.332-0.143,0.497-0.215
			c0.346-0.152,0.682-0.309,1.002-0.475c0.162-0.084,0.318-0.17,0.475-0.257c0.3-0.167,0.588-0.338,0.863-0.514
			c0.144-0.092,0.285-0.183,0.423-0.276c0.269-0.183,0.521-0.367,0.767-0.554c0.117-0.09,0.236-0.178,0.349-0.269
			c0.253-0.204,0.486-0.407,0.712-0.61c0.08-0.073,0.167-0.145,0.244-0.217c0.28-0.264,0.541-0.523,0.777-0.777
			c0.009-0.009,0.02-0.019,0.027-0.027c0.259-0.277,0.489-0.545,0.697-0.799C33.13,30.059,34,35.956,34,37.847
			C33.986,38.82,33.655,41.999,30,41.999z"/>
	</g>
</g>
<g>
</g>
<g>
</g>
<g>
</g>
<g>
</g>
<g>
</g>
<g>
</g>
<g>
</g>
<g>
</g>
<g>
</g>
<g>
</g>
<g>
</g>
<g>
</g>
<g>
</g>
<g>
</g>
<g>
</g>
</svg>
