<?xml version="1.0" encoding="iso-8859-1"?>
<!-- Generator: Adobe Illustrator 16.0.4, SVG Export Plug-In . SVG Version: 6.00 Build 0)  -->
<!DOCTYPE svg PUBLIC "-//W3C//DTD SVG 1.1//EN" "http://www.w3.org/Graphics/SVG/1.1/DTD/svg11.dtd">
<svg version="1.1" id="Layer_1" xmlns="http://www.w3.org/2000/svg" xmlns:xlink="http://www.w3.org/1999/xlink" x="0px" y="0px"
	 width="55.995px" height="48.008px" viewBox="0 0 55.995 48.008" style="enable-background:new 0 0 55.995 48.008;"
	 xml:space="preserve">
<g id="_x39_62-puzzle-piece_x40_2x.png">
	<g>
		<path d="M52.172,18.331c3.984-2.234,4.874-5.461,2.574-9.331c-2.301-3.87-5.621-4.734-9.605-2.5
			c-2.031,1.14-2.734,2.852-3.236,4.312L35.769,0.488c-0.277-0.467-0.892-0.627-1.372-0.357l-11.016,6.18
			c-0.32,0.179-0.513,0.514-0.502,0.871c0.01,0.357,0.221,0.682,0.55,0.844c0.84,0.414,1.439,0.957,1.886,1.707
			c1.736,2.923,1.17,4.979-1.839,6.666c-3.008,1.687-5.124,1.136-6.86-1.786c-0.446-0.751-0.63-1.526-0.579-2.44
			c0.021-0.357-0.163-0.697-0.477-0.885c-0.314-0.188-0.709-0.192-1.028-0.014l-11.017,6.18c-0.48,0.269-0.645,0.866-0.367,1.332
			l6.137,10.327c-1.553-0.307-3.431-0.572-5.462,0.567c-3.984,2.234-4.874,5.461-2.574,9.331c2.301,3.871,5.621,4.735,9.605,2.501
			c2.031-1.14,2.734-2.853,3.236-4.312l6.134,10.32c0.277,0.467,0.892,0.627,1.372,0.357l11.678-6.55
			c0.339-0.19,0.533-0.555,0.498-0.934c-0.036-0.379-0.295-0.704-0.664-0.831c-1.257-0.435-2.237-0.964-2.932-2.133
			c-1.736-2.922-1.17-4.978,1.838-6.665c3.009-1.687,5.124-1.136,6.861,1.786c0.694,1.169,0.676,2.258,0.435,3.533
			c-0.071,0.374,0.089,0.754,0.409,0.974c0.32,0.219,0.741,0.238,1.081,0.048l11.678-6.55c0.48-0.27,0.645-0.866,0.367-1.333
			L46.71,18.898C48.263,19.206,50.141,19.471,52.172,18.331z M46.748,16.913c-0.622-0.127-1.267-0.258-1.913-0.298
			c-0.368-0.021-0.721,0.155-0.916,0.46c-0.194,0.307-0.201,0.691-0.016,1.003l6.7,11.274l-9.136,5.125
			c-0.029-0.911-0.249-1.888-0.853-2.902c-2.3-3.87-5.621-4.735-9.604-2.501c-3.984,2.234-4.874,5.462-2.574,9.332
			c0.604,1.015,1.364,1.688,2.161,2.168l-9.136,5.125l-6.699-11.272c-0.185-0.312-0.531-0.499-0.9-0.487
			c-0.37,0.012-0.703,0.22-0.868,0.54c-0.288,0.563-0.494,1.171-0.692,1.758c-0.473,1.401-0.919,2.724-2.452,3.584
			c-3.008,1.688-5.124,1.137-6.86-1.786c-1.737-2.923-1.17-4.978,1.838-6.665c1.533-0.86,2.936-0.574,4.421-0.271
			c0.622,0.127,1.267,0.258,1.913,0.297c0.368,0.021,0.72-0.155,0.916-0.46c0.194-0.306,0.201-0.69,0.016-1.002L5.39,18.655
			l8.759-4.913c0.136,0.645,0.376,1.256,0.727,1.846c2.301,3.87,5.621,4.734,9.605,2.5c3.983-2.234,4.874-5.461,2.573-9.331
			c-0.35-0.59-0.774-1.099-1.281-1.534l8.759-4.913l6.701,11.275c0.185,0.311,0.531,0.498,0.901,0.487
			c0.369-0.012,0.703-0.22,0.867-0.541c0.288-0.563,0.494-1.171,0.692-1.758c0.473-1.4,0.919-2.724,2.452-3.583
			c3.008-1.688,5.124-1.137,6.86,1.785c1.737,2.923,1.17,4.979-1.838,6.666C49.635,17.501,48.233,17.215,46.748,16.913z"/>
	</g>
</g>
<g>
</g>
<g>
</g>
<g>
</g>
<g>
</g>
<g>
</g>
<g>
</g>
<g>
</g>
<g>
</g>
<g>
</g>
<g>
</g>
<g>
</g>
<g>
</g>
<g>
</g>
<g>
</g>
<g>
</g>
</svg>
