<?xml version="1.0" encoding="iso-8859-1"?>
<!-- Generator: Adobe Illustrator 16.0.4, SVG Export Plug-In . SVG Version: 6.00 Build 0)  -->
<!DOCTYPE svg PUBLIC "-//W3C//DTD SVG 1.1//EN" "http://www.w3.org/Graphics/SVG/1.1/DTD/svg11.dtd">
<svg version="1.1" id="Layer_1" xmlns="http://www.w3.org/2000/svg" xmlns:xlink="http://www.w3.org/1999/xlink" x="0px" y="0px"
	 width="43.995px" height="36.006px" viewBox="0 0 43.995 36.006" style="enable-background:new 0 0 43.995 36.006;"
	 xml:space="preserve">
<g id="_x39_62-puzzle-piece-toolbar_x40_2x.png">
	<g>
		<path d="M40.992,13.749c3.131-1.677,3.83-4.096,2.022-6.999c-1.152-1.851-2.631-2.784-4.362-2.784
			c-0.984,0-2.05,0.302-3.185,0.909c-1.596,0.854-2.148,2.139-2.543,3.234l-4.82-7.743C27.958,0.132,27.692,0,27.419,0
			c-0.134,0-0.27,0.032-0.394,0.099L18.37,4.732c-0.251,0.135-0.402,0.386-0.394,0.654c0.007,0.268,0.173,0.511,0.432,0.633
			c0.66,0.311,1.131,0.717,1.481,1.28c1.365,2.191,0.919,3.733-1.444,4.999c-0.881,0.472-1.664,0.71-2.371,0.71
			c-1.189,0-2.163-0.675-3.02-2.05c-0.351-0.562-0.495-1.145-0.455-1.83c0.017-0.269-0.128-0.523-0.374-0.663
			c-0.127-0.072-0.271-0.108-0.414-0.108c-0.136,0-0.272,0.032-0.395,0.098L2.761,13.09c-0.377,0.202-0.507,0.649-0.289,0.999
			l4.822,7.746c-0.543-0.103-1.137-0.199-1.77-0.199c-0.788,0-1.637,0.15-2.522,0.624c-3.13,1.676-3.829,4.096-2.021,6.999
			c1.151,1.851,2.63,2.784,4.361,2.784c0.984,0,2.051-0.302,3.186-0.909c1.596-0.854,2.147-2.139,2.543-3.234l4.818,7.74
			c0.146,0.234,0.411,0.366,0.685,0.366c0.134,0,0.27-0.032,0.394-0.099l9.176-4.912c0.267-0.143,0.419-0.416,0.391-0.7
			c-0.027-0.284-0.231-0.527-0.521-0.623c-0.987-0.326-1.758-0.723-2.303-1.6c-1.365-2.191-0.92-3.733,1.444-4.999
			c0.881-0.472,1.664-0.71,2.371-0.71c1.189,0,2.163,0.675,3.02,2.05c0.545,0.877,0.531,1.693,0.342,2.649
			c-0.056,0.281,0.069,0.566,0.321,0.73c0.136,0.089,0.295,0.134,0.454,0.134c0.136,0,0.272-0.032,0.396-0.098l9.175-4.913
			c0.377-0.201,0.507-0.649,0.289-0.999L36.7,14.174c0.544,0.103,1.138,0.199,1.771,0.199
			C39.258,14.373,40.107,14.223,40.992,13.749z M36.7,12.174c-0.652,0-1.273,0.319-1.65,0.87c-0.448,0.655-0.467,1.514-0.048,2.187
			l4.088,6.564l-6.168,3.303c-0.102-0.559-0.309-1.145-0.68-1.742c-1.236-1.985-2.823-2.992-4.717-2.992
			c-1.04,0-2.125,0.31-3.314,0.946c-1.729,0.926-2.75,2.052-3.122,3.443c-0.358,1.345-0.048,2.817,0.923,4.375
			c0.316,0.51,0.68,0.913,1.067,1.239l-6.087,3.259l-4.223-6.783c-0.368-0.591-1.012-0.943-1.697-0.943
			c-0.07,0-0.141,0.004-0.211,0.011c-0.762,0.081-1.411,0.59-1.671,1.311c-0.327,0.906-0.653,1.64-1.606,2.149
			c-0.834,0.447-1.588,0.673-2.241,0.673c-0.375,0-1.518,0-2.663-1.841c-0.578-0.929-0.789-1.709-0.626-2.318
			c0.219-0.817,1.15-1.463,1.893-1.86c0.494-0.265,0.995-0.388,1.579-0.388c0.438,0,0.876,0.065,1.398,0.164
			c0.124,0.023,0.248,0.035,0.371,0.035c0.652,0,1.273-0.319,1.65-0.87c0.448-0.655,0.467-1.513,0.048-2.187l-4.089-6.567
			l5.968-3.195c0.121,0.344,0.283,0.677,0.485,1.001c1.236,1.985,2.823,2.992,4.717,2.992c1.041,0,2.125-0.31,3.315-0.947
			c1.729-0.925,2.749-2.052,3.12-3.443c0.359-1.344,0.049-2.816-0.922-4.375c-0.154-0.247-0.324-0.478-0.511-0.691l5.925-3.172
			l4.225,6.786c0.368,0.591,1.012,0.943,1.697,0.943c0.07,0,0.141-0.004,0.212-0.011c0.762-0.081,1.411-0.591,1.671-1.312
			c0.326-0.905,0.65-1.638,1.605-2.148c0.833-0.447,1.588-0.673,2.24-0.673c0.376,0,1.518,0,2.664,1.841
			c0.578,0.929,0.789,1.708,0.626,2.317c-0.219,0.817-1.15,1.464-1.895,1.862c-0.493,0.264-0.994,0.387-1.577,0.387
			c-0.439,0-0.877-0.065-1.399-0.164C36.947,12.186,36.823,12.174,36.7,12.174z"/>
	</g>
</g>
<g>
</g>
<g>
</g>
<g>
</g>
<g>
</g>
<g>
</g>
<g>
</g>
<g>
</g>
<g>
</g>
<g>
</g>
<g>
</g>
<g>
</g>
<g>
</g>
<g>
</g>
<g>
</g>
<g>
</g>
</svg>
