<?xml version="1.0" encoding="iso-8859-1"?>
<!-- Generator: Adobe Illustrator 16.0.4, SVG Export Plug-In . SVG Version: 6.00 Build 0)  -->
<!DOCTYPE svg PUBLIC "-//W3C//DTD SVG 1.1//EN" "http://www.w3.org/Graphics/SVG/1.1/DTD/svg11.dtd">
<svg version="1.1" id="Layer_1" xmlns="http://www.w3.org/2000/svg" xmlns:xlink="http://www.w3.org/1999/xlink" x="0px" y="0px"
	 width="44px" height="44px" viewBox="0 0 44 44" style="enable-background:new 0 0 44 44;" xml:space="preserve">
<g id="_x31_288-500px_x40_2x.png">
	<g>
		<path d="M22,0C9.85,0,0,9.85,0,22s9.85,22,22,22s22-9.85,22-22S34.15,0,22,0z M22,42C10.954,42,2,33.046,2,22S10.954,2,22,2
			s20,8.954,20,20S33.046,42,22,42z M29.965,19.671c-1.427,0-3.211,1.381-4.125,2.7c-0.914-1.319-2.697-2.7-4.124-2.7
			c-1.648,0-3.062,0.769-3.683,2.297c-0.435-1.035-1.315-2.192-2.973-2.192c0,0-1.366-0.159-2.378,0.852l0.404-2.661h4.656v-1.969
			h-6.275l-1.113,6.546h2.024c0,0,0.607-1.012,1.771-1.012c1.164,0,1.924,0.958,1.924,2.342s-1.113,2.182-2.024,2.182
			s-1.771-0.852-1.771-1.809H10c0,0-0.051,3.725,4.049,3.725c2.341,0,3.425-1.267,3.927-2.473c0.585,1.619,2.034,2.505,3.74,2.505
			c1.427,0,3.21-1.38,4.124-2.7c0.914,1.32,2.698,2.7,4.125,2.7c2.222,0,4.023-1.491,4.023-4.166
			C33.988,21.06,32.187,19.671,29.965,19.671z M21.69,25.74c-1.215,0-1.872-0.853-1.872-1.903s0.657-1.903,1.872-1.903
			c1.034,0,2.783,1.669,2.783,1.903C24.474,24.072,22.725,25.74,21.69,25.74z M29.99,25.74c-1.034,0-2.784-1.668-2.784-1.903
			c0-0.234,1.75-1.903,2.784-1.903c1.214,0,1.872,0.853,1.872,1.903S31.204,25.74,29.99,25.74z"/>
	</g>
</g>
<g>
</g>
<g>
</g>
<g>
</g>
<g>
</g>
<g>
</g>
<g>
</g>
<g>
</g>
<g>
</g>
<g>
</g>
<g>
</g>
<g>
</g>
<g>
</g>
<g>
</g>
<g>
</g>
<g>
</g>
</svg>
