<?xml version="1.0" encoding="UTF-8" standalone="no"?>
<svg width="58px" height="58px" viewBox="0 0 58 58" version="1.1" xmlns="http://www.w3.org/2000/svg" xmlns:xlink="http://www.w3.org/1999/xlink" xmlns:sketch="http://www.bohemiancoding.com/sketch/ns">
    <!-- Generator: Sketch 3.0.4 (8053) - http://www.bohemiancoding.com/sketch -->
    <title>1288-500px</title>
    <desc>Created with Sketch.</desc>
    <defs></defs>
    <g id="Page-1" stroke="none" stroke-width="1" fill="none" fill-rule="evenodd" sketch:type="MSPage">
        <g id="Glyphish-8-Icons" sketch:type="MSArtboardGroup" transform="translate(-692.000000, -1747.000000)" fill="#000000">
            <g id="1288-500px" sketch:type="MSLayerGroup" transform="translate(692.036996, 1747.860499)">
                <g id="_x31_288-500px_x40_2x.png" sketch:type="MSShapeGroup">
                    <path d="M28,0 C12.536,0 0,12.536 0,28 C0,43.464 12.536,56 28,56 C43.464,56 56,43.464 56,28 C56,12.536 43.464,0 28,0 L28,0 Z M28,54 C13.641,54 2,42.359 2,28 C2,13.641 13.641,2 28,2 C42.359,2 54,13.641 54,28 C54,42.359 42.359,54 28,54 L28,54 Z M38.645,24.896 C36.75,24.896 34.368,26.72 33.143,28.472 C31.919,26.72 29.536,24.896 27.641,24.896 C25.443,24.896 23.559,25.919 22.729,27.954 C22.15,26.575 20.972,25.036 18.763,25.036 C18.763,25.036 16.94,24.823 15.59,26.17 L16.13,22.625 L22.341,22.625 L22.341,20.002 L13.97,20.002 L12.485,28.723 L15.185,28.723 C15.185,28.723 15.996,27.376 17.548,27.376 C19.1,27.376 20.113,28.652 20.113,30.495 C20.113,32.339 18.628,33.402 17.412,33.402 C16.197,33.402 15.05,32.267 15.05,30.992 L12.012,30.992 C12.012,30.992 11.945,35.955 17.412,35.955 C20.535,35.955 21.981,34.267 22.65,32.661 C23.431,34.817 25.365,35.998 27.64,35.998 C29.535,35.998 31.918,34.174 33.142,32.423 C34.367,34.174 36.749,35.998 38.644,35.998 C41.609,35.998 44.011,34.012 44.011,30.447 C44.012,26.747 41.609,24.896 38.645,24.896 L38.645,24.896 Z M27.606,32.983 C25.986,32.983 25.108,31.847 25.108,30.447 C25.108,29.047 25.986,27.912 27.606,27.912 C28.986,27.912 31.32,30.135 31.32,30.447 C31.32,30.761 28.986,32.983 27.606,32.983 L27.606,32.983 Z M38.679,32.983 C37.299,32.983 34.966,30.76 34.966,30.447 C34.966,30.135 37.299,27.912 38.679,27.912 C40.299,27.912 41.177,29.047 41.177,30.447 C41.177,31.847 40.299,32.983 38.679,32.983 L38.679,32.983 Z" id="Shape"></path>
                </g>
            </g>
        </g>
    </g>
</svg>