<?xml version="1.0" encoding="iso-8859-1"?>
<!-- Generator: Adobe Illustrator 16.0.4, SVG Export Plug-In . SVG Version: 6.00 Build 0)  -->
<!DOCTYPE svg PUBLIC "-//W3C//DTD SVG 1.1//EN" "http://www.w3.org/Graphics/SVG/1.1/DTD/svg11.dtd">
<svg version="1.1" id="Layer_1" xmlns="http://www.w3.org/2000/svg" xmlns:xlink="http://www.w3.org/1999/xlink" x="0px" y="0px"
	 width="44px" height="44px" viewBox="0 0 44 44" style="enable-background:new 0 0 44 44;" xml:space="preserve">
<g id="_x37_39-question-toolbar_x40_2x.png">
	<g>
		<path d="M22,0C9.85,0,0,9.85,0,22s9.85,22,22,22s22-9.85,22-22S34.15,0,22,0z M22,42C10.954,42,2,33.046,2,22S10.954,2,22,2
			s20,8.954,20,20S33.046,42,22,42z M21.98,27.755c-0.428,0-0.797,0.16-1.106,0.479c-0.31,0.32-0.464,0.701-0.464,1.144
			c0,0.443,0.154,0.824,0.464,1.144s0.679,0.479,1.106,0.479c0.429,0,0.798-0.16,1.107-0.479c0.309-0.319,0.464-0.7,0.464-1.144
			c0-0.442-0.155-0.823-0.464-1.144C22.778,27.915,22.409,27.755,21.98,27.755z M25.622,14.191
			c-0.428-0.385-0.933-0.681-1.511-0.886c-0.58-0.204-1.202-0.308-1.869-0.308c-1.396,0-2.566,0.406-3.511,1.218
			s-1.52,1.931-1.726,3.357l2.428,0.245c0.096-0.819,0.385-1.483,0.869-1.991c0.483-0.509,1.114-0.763,1.893-0.763
			c0.349,0,0.678,0.065,0.987,0.196c0.31,0.132,0.575,0.312,0.798,0.541c0.222,0.23,0.4,0.505,0.535,0.824
			c0.135,0.32,0.202,0.668,0.202,1.046c0,0.377-0.067,0.717-0.202,1.021s-0.306,0.59-0.512,0.86s-0.437,0.533-0.69,0.787
			s-0.508,0.504-0.762,0.75c-0.317,0.312-0.583,0.578-0.797,0.8c-0.215,0.221-0.385,0.451-0.512,0.688
			c-0.128,0.237-0.223,0.504-0.286,0.799s-0.095,0.664-0.095,1.106v1.501h2.284v-1.082c0-0.345,0.016-0.632,0.048-0.861
			s0.092-0.438,0.179-0.627s0.206-0.369,0.357-0.541c0.15-0.172,0.353-0.381,0.606-0.627l0.238-0.222l1.428-1.524
			c0.317-0.41,0.563-0.849,0.738-1.316c0.174-0.467,0.262-1.012,0.262-1.635c0-0.722-0.123-1.365-0.369-1.931
			C26.388,15.052,26.051,14.577,25.622,14.191z"/>
	</g>
</g>
<g>
</g>
<g>
</g>
<g>
</g>
<g>
</g>
<g>
</g>
<g>
</g>
<g>
</g>
<g>
</g>
<g>
</g>
<g>
</g>
<g>
</g>
<g>
</g>
<g>
</g>
<g>
</g>
<g>
</g>
</svg>
