<?xml version="1.0" encoding="iso-8859-1"?>
<!-- Generator: Adobe Illustrator 16.0.4, SVG Export Plug-In . SVG Version: 6.00 Build 0)  -->
<!DOCTYPE svg PUBLIC "-//W3C//DTD SVG 1.1//EN" "http://www.w3.org/Graphics/SVG/1.1/DTD/svg11.dtd">
<svg version="1.1" id="Layer_1" xmlns="http://www.w3.org/2000/svg" xmlns:xlink="http://www.w3.org/1999/xlink" x="0px" y="0px"
	 width="56px" height="56px" viewBox="0 0 56 56" style="enable-background:new 0 0 56 56;" xml:space="preserve">
<g id="_x37_39-question_x40_2x.png">
	<g>
		<path d="M33.071,16.721c-0.6-0.556-1.306-0.982-2.116-1.278c-0.811-0.297-1.683-0.444-2.615-0.444
			c-1.955,0-3.594,0.586-4.915,1.759c-1.322,1.172-2.128,2.788-2.416,4.849l3.398,0.355c0.134-1.185,0.538-2.144,1.217-2.878
			c0.677-0.733,1.561-1.101,2.648-1.101c0.489,0,0.95,0.095,1.383,0.283c0.434,0.19,0.806,0.45,1.117,0.782
			c0.311,0.331,0.561,0.728,0.749,1.189s0.283,0.966,0.283,1.511s-0.095,1.036-0.283,1.474c-0.188,0.438-0.428,0.853-0.716,1.243
			c-0.289,0.391-0.611,0.771-0.967,1.137c-0.355,0.367-0.711,0.729-1.066,1.084c-0.444,0.45-0.816,0.835-1.116,1.154
			s-0.539,0.651-0.717,0.995c-0.178,0.343-0.311,0.728-0.399,1.154c-0.089,0.426-0.133,0.959-0.133,1.599v2.167h3.198v-1.563
			c0-0.497,0.022-0.911,0.067-1.243c0.044-0.331,0.127-0.633,0.249-0.906c0.122-0.271,0.289-0.532,0.5-0.781s0.494-0.551,0.85-0.906
			l0.334-0.319l1.999-2.202c0.444-0.592,0.788-1.226,1.033-1.9c0.244-0.675,0.366-1.463,0.366-2.362
			c0-1.043-0.172-1.973-0.517-2.789C34.143,17.964,33.671,17.277,33.071,16.721z M27.973,36.312c-0.6,0-1.116,0.23-1.549,0.692
			c-0.434,0.462-0.65,1.013-0.65,1.652s0.217,1.189,0.65,1.651c0.433,0.462,0.949,0.693,1.549,0.693s1.116-0.231,1.55-0.693
			c0.433-0.462,0.649-1.012,0.649-1.651s-0.217-1.19-0.649-1.652C29.089,36.543,28.572,36.312,27.973,36.312z M28,0
			C12.536,0,0,12.536,0,28s12.536,28,28,28s28-12.536,28-28S43.464,0,28,0z M28,54C13.641,54,2,42.359,2,28S13.641,2,28,2
			s26,11.641,26,26S42.359,54,28,54z"/>
	</g>
</g>
<g>
</g>
<g>
</g>
<g>
</g>
<g>
</g>
<g>
</g>
<g>
</g>
<g>
</g>
<g>
</g>
<g>
</g>
<g>
</g>
<g>
</g>
<g>
</g>
<g>
</g>
<g>
</g>
<g>
</g>
</svg>
