<?xml version="1.0" encoding="UTF-8" standalone="no"?>
<svg width="58px" height="58px" viewBox="0 0 58 58" version="1.1" xmlns="http://www.w3.org/2000/svg" xmlns:xlink="http://www.w3.org/1999/xlink" xmlns:sketch="http://www.bohemiancoding.com/sketch/ns">
    <!-- Generator: Sketch 3.0.4 (8053) - http://www.bohemiancoding.com/sketch -->
    <title>1273-quora</title>
    <desc>Created with Sketch.</desc>
    <defs></defs>
    <g id="Page-1" stroke="none" stroke-width="1" fill="none" fill-rule="evenodd" sketch:type="MSPage">
        <g id="Glyphish-8-Icons" sketch:type="MSArtboardGroup" transform="translate(-212.000000, -1651.000000)" fill="#000000">
            <g id="1273-quora" sketch:type="MSLayerGroup" transform="translate(212.036996, 1651.860499)">
                <g id="_x31_273-quora_x40_2x.png" sketch:type="MSShapeGroup">
                    <path d="M28.082,11.009 C26.032,10.983 13.546,12.589 12.987,27.796 C12.987,27.796 12.428,43.398 27.709,43.99 C29.254,43.908 30.635,43.66 31.884,43.293 C33.645,46.687 36.577,47.623 40.461,46.65 L40.074,43.552 C40.074,43.552 38.124,44.455 36.142,41.261 C42.767,36.584 42.989,27.598 42.989,27.598 C42.989,27.598 43.698,11.206 28.082,11.009 L28.082,11.009 Z M33.614,36.206 C30.841,32.52 26.26,33.541 25.764,33.871 L26.151,36.582 C26.151,36.582 28.548,35.791 30.253,39.156 C28.854,39.668 27.72,39.473 27.72,39.473 C25.024,39.089 20.531,39.089 20.531,27.188 C20.531,15.286 28.08,15.478 28.08,15.478 C28.08,15.478 35.449,14.71 35.449,27.379 C35.448,31.634 34.672,34.403 33.614,36.206 L33.614,36.206 Z M28,0 C12.536,0 0,12.536 0,28 C0,43.464 12.536,56 28,56 C43.464,56 56,43.464 56,28 C56,12.536 43.464,0 28,0 L28,0 Z M28,54 C13.641,54 2,42.359 2,28 C2,13.641 13.641,2 28,2 C42.359,2 54,13.641 54,28 C54,42.359 42.359,54 28,54 L28,54 Z" id="Shape"></path>
                </g>
            </g>
        </g>
    </g>
</svg>