<?xml version="1.0" encoding="iso-8859-1"?>
<!-- Generator: Adobe Illustrator 16.0.4, SVG Export Plug-In . SVG Version: 6.00 Build 0)  -->
<!DOCTYPE svg PUBLIC "-//W3C//DTD SVG 1.1//EN" "http://www.w3.org/Graphics/SVG/1.1/DTD/svg11.dtd">
<svg version="1.1" id="Layer_1" xmlns="http://www.w3.org/2000/svg" xmlns:xlink="http://www.w3.org/1999/xlink" x="0px" y="0px"
	 width="44px" height="44px" viewBox="0 0 44 44" style="enable-background:new 0 0 44 44;" xml:space="preserve">
<g id="_x31_273-quora_x40_2x.png">
	<g>
		<path d="M22.065,8.994c-1.641-0.021-11.633,1.229-12.081,13.059c0,0-0.447,12.137,11.782,12.597
			c1.248-0.063,2.341-0.278,3.348-0.567c1.409,2.645,3.747,3.395,6.858,2.637l-0.31-2.409c0,0-1.564,0.703-3.151-1.79
			c5.299-3.639,5.484-10.621,5.484-10.621S34.563,9.147,22.065,8.994z M26.492,28.593c-2.22-2.865-5.885-2.071-6.281-1.814
			l0.31,2.108c0,0,1.918-0.614,3.282,2.001c-1.119,0.397-2.026,0.249-2.026,0.249c-2.158-0.299-5.754-0.299-5.754-9.557
			c0-9.259,6.042-9.109,6.042-9.109s5.897-0.598,5.897,9.258C27.96,25.039,27.339,27.19,26.492,28.593z M22,0C9.85,0,0,9.85,0,22
			s9.85,22,22,22s22-9.85,22-22S34.15,0,22,0z M22,42C10.954,42,2,33.046,2,22S10.954,2,22,2s20,8.954,20,20S33.046,42,22,42z"/>
	</g>
</g>
<g>
</g>
<g>
</g>
<g>
</g>
<g>
</g>
<g>
</g>
<g>
</g>
<g>
</g>
<g>
</g>
<g>
</g>
<g>
</g>
<g>
</g>
<g>
</g>
<g>
</g>
<g>
</g>
<g>
</g>
</svg>
