<?xml version="1.0" encoding="iso-8859-1"?>
<!-- Generator: Adobe Illustrator 16.0.4, SVG Export Plug-In . SVG Version: 6.00 Build 0)  -->
<!DOCTYPE svg PUBLIC "-//W3C//DTD SVG 1.1//EN" "http://www.w3.org/Graphics/SVG/1.1/DTD/svg11.dtd">
<svg version="1.1" id="Layer_1" xmlns="http://www.w3.org/2000/svg" xmlns:xlink="http://www.w3.org/1999/xlink" x="0px" y="0px"
	 width="44px" height="44px" viewBox="0 0 44 44" style="enable-background:new 0 0 44 44;" xml:space="preserve">
<g id="_x38_49-radar-toolbar_x40_2x.png">
	<g>
		<path d="M43,21c-0.553,0-1,0.448-1,1c0,11.046-8.954,20-20,20S2,33.046,2,22C2,10.955,10.954,2,22,2
			c3.506,0,6.798,0.908,9.663,2.493l-4.222,6.821C25.807,10.48,23.961,10,22,10c-6.627,0-12,5.373-12,12c0,6.628,5.373,12,12,12
			s12-5.372,12-12c0-0.552-0.447-1-1-1s-1,0.448-1,1c0,5.523-4.478,10-10,10s-10-4.477-10-10c0-5.522,4.478-10,10-10
			c1.574,0,3.059,0.374,4.384,1.022l-3.204,5.176C22.805,18.081,22.414,18,22,18c-2.209,0-4,1.791-4,4s1.791,4,4,4s4-1.791,4-4
			c0-0.413-0.081-0.805-0.197-1.18L43.575,9.818l-0.01-0.016C43.821,9.622,44,9.338,44,9c0-0.276-0.112-0.525-0.293-0.707l-8-8
			C35.526,0.112,35.276,0,35,0c-0.338,0-0.622,0.179-0.803,0.436l-0.015-0.011l-1.468,2.37C29.543,1.021,25.893,0,22,0
			C9.85,0,0,9.85,0,22s9.85,22,22,22s22-9.85,22-22C44,21.448,43.553,21,43,21z M22,24c-1.104,0-2-0.896-2-2s0.896-2,2-2
			s2,0.896,2,2S23.104,24,22,24z"/>
	</g>
</g>
<g>
</g>
<g>
</g>
<g>
</g>
<g>
</g>
<g>
</g>
<g>
</g>
<g>
</g>
<g>
</g>
<g>
</g>
<g>
</g>
<g>
</g>
<g>
</g>
<g>
</g>
<g>
</g>
<g>
</g>
</svg>
