<?xml version="1.0" encoding="iso-8859-1"?>
<!-- Generator: Adobe Illustrator 16.0.4, SVG Export Plug-In . SVG Version: 6.00 Build 0)  -->
<!DOCTYPE svg PUBLIC "-//W3C//DTD SVG 1.1//EN" "http://www.w3.org/Graphics/SVG/1.1/DTD/svg11.dtd">
<svg version="1.1" id="Layer_1" xmlns="http://www.w3.org/2000/svg" xmlns:xlink="http://www.w3.org/1999/xlink" x="0px" y="0px"
	 width="56px" height="56px" viewBox="0 0 56 56" style="enable-background:new 0 0 56 56;" xml:space="preserve">
<g id="_x38_49-radar_x40_2x.png">
	<g>
		<path d="M55,27c-0.553,0-1,0.448-1,1c0,14.359-11.641,26-26,26S2,42.359,2,28S13.641,2,28,2c5.212,0,10.056,1.55,14.125,4.19
			l-5.762,8.188C33.927,12.88,31.069,12,28,12c-8.837,0-16,7.164-16,16c0,8.837,7.163,16,16,16s16-7.163,16-16c0-0.552-0.447-1-1-1
			s-1,0.448-1,1c0,7.732-6.268,14-14,14s-14-6.268-14-14s6.268-14,14-14c2.642,0,5.103,0.745,7.211,2.016l-5.805,8.249
			C28.97,24.095,28.497,24,28,24c-2.209,0-4,1.791-4,4s1.791,4,4,4s4-1.791,4-4c0-0.496-0.102-0.966-0.267-1.404L55.575,9.818
			l-0.01-0.016C55.821,9.622,56,9.338,56,9c0-0.276-0.112-0.526-0.293-0.707l-8-8C47.526,0.112,47.276,0,47,0
			c-0.338,0-0.622,0.179-0.803,0.436l-0.015-0.011l-2.905,4.128C38.882,1.684,33.641,0,28,0C12.536,0,0,12.536,0,28s12.536,28,28,28
			s28-12.536,28-28C56,27.448,55.553,27,55,27z M28,30c-1.104,0-2-0.896-2-2s0.896-2,2-2s2,0.896,2,2S29.104,30,28,30z"/>
	</g>
</g>
<g>
</g>
<g>
</g>
<g>
</g>
<g>
</g>
<g>
</g>
<g>
</g>
<g>
</g>
<g>
</g>
<g>
</g>
<g>
</g>
<g>
</g>
<g>
</g>
<g>
</g>
<g>
</g>
<g>
</g>
</svg>
