<?xml version="1.0" encoding="iso-8859-1"?>
<!-- Generator: Adobe Illustrator 16.0.4, SVG Export Plug-In . SVG Version: 6.00 Build 0)  -->
<!DOCTYPE svg PUBLIC "-//W3C//DTD SVG 1.1//EN" "http://www.w3.org/Graphics/SVG/1.1/DTD/svg11.dtd">
<svg version="1.1" id="Layer_1" xmlns="http://www.w3.org/2000/svg" xmlns:xlink="http://www.w3.org/1999/xlink" x="0px" y="0px"
	 width="56px" height="56px" viewBox="0 0 56 56" style="enable-background:new 0 0 56 56;" xml:space="preserve">
<g id="_x39_45-radar_x40_2x.png">
	<g>
		<path d="M28,0C12.536,0,0,12.536,0,28s12.536,28,28,28s28-12.536,28-28S43.464,0,28,0z M27,53.949
			C13.442,53.433,2.566,42.557,2.05,29h7.999C10.553,38.139,17.859,45.446,27,45.949V53.949z M27,43.95
			C18.964,43.451,12.547,37.035,12.049,29h8.045c0.455,3.613,3.292,6.479,6.906,6.932V43.95z M27,33.899
			c-2.509-0.423-4.486-2.393-4.909-4.899H27V33.899z M27,27h-4.909c0.423-2.506,2.4-4.476,4.909-4.898V27z M27,20.069
			c-3.614,0.452-6.451,3.318-6.906,6.931h-8.045c0.271-4.365,2.298-8.244,5.374-10.965C18.12,16.629,19.013,17,20,17
			c2.209,0,4-1.791,4-4c0-0.157-0.028-0.306-0.046-0.458c0.982-0.257,1.999-0.427,3.046-0.491V20.069z M27,10.051
			c-1.296,0.071-2.549,0.293-3.757,0.624C22.518,9.664,21.339,9,20,9c-2.209,0-4,1.791-4,4c0,0.492,0.101,0.958,0.264,1.394
			C12.681,17.485,10.327,21.96,10.049,27H2.05C2.566,13.443,13.442,2.567,27,2.051V10.051z M29,2.051
			C42.558,2.567,53.434,13.443,53.951,27h-8C45.447,17.861,38.141,10.555,29,10.051V2.051z M29,12.051
			C37.036,12.549,43.453,18.966,43.951,27h-8.044c-0.455-3.612-3.293-6.479-6.907-6.931V12.051z M29,22.102
			c2.509,0.423,4.486,2.393,4.909,4.898H29V22.102z M29,29h4.909c-0.423,2.507-2.4,4.477-4.909,4.899V29z M29,35.932
			c3.615-0.452,6.452-3.318,6.907-6.932h8.044c-0.117,1.9-0.576,3.704-1.299,5.366C42.147,34.136,41.591,34,41,34
			c-2.209,0-4,1.791-4,4c0,0.96,0.353,1.829,0.916,2.519c-2.48,1.967-5.553,3.223-8.916,3.432V35.932z M29,53.949v-8
			c4.033-0.222,7.706-1.771,10.599-4.215C40.036,41.898,40.505,42,41,42c2.209,0,4-1.791,4-4c0-0.867-0.282-1.664-0.751-2.318
			c0.968-2.046,1.571-4.299,1.702-6.682h8C53.434,42.557,42.558,53.433,29,53.949z"/>
	</g>
</g>
<g>
</g>
<g>
</g>
<g>
</g>
<g>
</g>
<g>
</g>
<g>
</g>
<g>
</g>
<g>
</g>
<g>
</g>
<g>
</g>
<g>
</g>
<g>
</g>
<g>
</g>
<g>
</g>
<g>
</g>
</svg>
