<?xml version="1.0" encoding="iso-8859-1"?>
<!-- Generator: Adobe Illustrator 16.0.4, SVG Export Plug-In . SVG Version: 6.00 Build 0)  -->
<!DOCTYPE svg PUBLIC "-//W3C//DTD SVG 1.1//EN" "http://www.w3.org/Graphics/SVG/1.1/DTD/svg11.dtd">
<svg version="1.1" id="Layer_1" xmlns="http://www.w3.org/2000/svg" xmlns:xlink="http://www.w3.org/1999/xlink" x="0px" y="0px"
	 width="44px" height="44px" viewBox="0 0 44 44" style="enable-background:new 0 0 44 44;" xml:space="preserve">
<g id="_x39_45-radar-toolbar_x40_2x.png">
	<g>
		<path d="M22,0C9.85,0,0,9.85,0,22s9.85,22,22,22s22-9.85,22-22S34.15,0,22,0z M20.994,41.94
			C10.759,41.43,2.568,33.239,2.058,23.006h6.004c0.494,6.919,6.013,12.437,12.933,12.931V41.94z M20.994,33.958
			c-5.828-0.484-10.47-5.125-10.954-10.952h6.047c0.425,2.504,2.4,4.473,4.907,4.897V33.958z M20.994,25.853
			c-1.394-0.363-2.482-1.456-2.848-2.847h2.848V25.853z M20.994,20.994h-2.848c0.366-1.39,1.454-2.483,2.848-2.847V20.994z
			 M20.994,16.098c-2.507,0.425-4.482,2.393-4.907,4.896H10.04c0.24-2.887,1.502-5.48,3.422-7.424
			c0.453,0.275,0.979,0.442,1.549,0.442c1.658,0,3.002-1.344,3.002-3.002c0-0.108-0.021-0.21-0.031-0.315
			c0.955-0.339,1.964-0.565,3.013-0.653V16.098z M20.994,8.064c-1.346,0.096-2.637,0.387-3.85,0.837
			c-0.545-0.551-1.299-0.893-2.134-0.893c-1.658,0-3.002,1.344-3.002,3.002c0,0.364,0.074,0.709,0.193,1.032
			c-2.352,2.313-3.891,5.452-4.141,8.951H2.058C2.569,10.761,10.759,2.57,20.994,2.06V8.064z M23.006,2.06
			c10.235,0.511,18.426,8.701,18.937,18.935h-6.004c-0.494-6.919-6.013-12.437-12.933-12.93V2.06z M23.006,10.042
			c5.828,0.485,10.47,5.125,10.954,10.952h-6.047c-0.425-2.504-2.4-4.472-4.907-4.896V10.042z M23.006,18.147
			c1.394,0.363,2.482,1.457,2.848,2.847h-2.848V18.147z M23.006,23.006h2.848c-0.365,1.391-1.454,2.483-2.848,2.847V23.006z
			 M23.006,27.903c2.507-0.425,4.482-2.394,4.907-4.897h6.047c-0.121,1.466-0.507,2.855-1.108,4.124
			c-0.269-0.078-0.547-0.134-0.841-0.134c-1.658,0-3.002,1.344-3.002,3.002c0,0.525,0.146,1.013,0.385,1.442
			c-1.792,1.403-3.985,2.318-6.388,2.518V27.903z M23.006,41.94v-6.004c2.986-0.213,5.708-1.365,7.881-3.158
			C31.234,32.919,31.612,33,32.011,33c1.658,0,3.002-1.344,3.002-3.002c0-0.639-0.202-1.228-0.542-1.715
			c0.812-1.607,1.333-3.387,1.468-5.277h6.004C41.432,33.239,33.241,41.43,23.006,41.94z"/>
	</g>
</g>
<g>
</g>
<g>
</g>
<g>
</g>
<g>
</g>
<g>
</g>
<g>
</g>
<g>
</g>
<g>
</g>
<g>
</g>
<g>
</g>
<g>
</g>
<g>
</g>
<g>
</g>
<g>
</g>
<g>
</g>
</svg>
