<?xml version="1.0" encoding="iso-8859-1"?>
<!-- Generator: Adobe Illustrator 16.0.4, SVG Export Plug-In . SVG Version: 6.00 Build 0)  -->
<!DOCTYPE svg PUBLIC "-//W3C//DTD SVG 1.1//EN" "http://www.w3.org/Graphics/SVG/1.1/DTD/svg11.dtd">
<svg version="1.1" id="Layer_1" xmlns="http://www.w3.org/2000/svg" xmlns:xlink="http://www.w3.org/1999/xlink" x="0px" y="0px"
	 width="55.981px" height="51.977px" viewBox="0 0 55.981 51.977" style="enable-background:new 0 0 55.981 51.977;"
	 xml:space="preserve">
<g id="_x31_021-radiation_x40_2x.png">
	<g>
		<path d="M27.99,28.989c2.76,0,5.005-2.244,5.005-5.005c0-2.76-2.245-5.004-5.005-5.004s-5.005,2.244-5.005,5.004
			C22.985,26.745,25.23,28.989,27.99,28.989z M27.991,20.991c1.651,0,2.994,1.343,2.994,2.994s-1.343,2.994-2.994,2.994
			c-1.65,0-2.993-1.343-2.993-2.994S26.34,20.991,27.991,20.991z M32.908,31.528c-2.936,1.919-6.9,1.917-9.835-0.001l-0.83-0.543
			l-10.37,15.901l0.828,0.54c4.554,2.977,9.841,4.551,15.29,4.551c5.448,0,10.735-1.574,15.289-4.551l0.828-0.54l-10.37-15.901
			L32.908,31.528z M27.991,49.994c-4.732,0-9.332-1.277-13.367-3.7l8.218-12.603c3.166,1.686,7.13,1.687,10.295,0l8.22,12.603
			C37.322,48.717,32.722,49.994,27.991,49.994z M43.279,0.543L42.449,0L32.08,15.901l0.828,0.541C35.47,18.117,37,20.937,37,23.984
			v0.992h18.981v-0.992C55.981,14.504,51.233,5.741,43.279,0.543z M38.937,22.994c-0.27-3.007-1.762-5.758-4.14-7.632l8.219-12.602
			c6.627,4.694,10.66,12.136,10.966,20.233H38.937z M18.981,23.984c0-3.048,1.53-5.867,4.091-7.542l0.829-0.541L13.531,0
			l-0.83,0.543C4.748,5.741,0,14.504,0,23.984v0.992h18.981V23.984z M2,22.994C2.305,14.896,6.338,7.455,12.966,2.761l8.218,12.602
			c-2.378,1.874-3.87,4.625-4.14,7.632H2z"/>
	</g>
</g>
<g>
</g>
<g>
</g>
<g>
</g>
<g>
</g>
<g>
</g>
<g>
</g>
<g>
</g>
<g>
</g>
<g>
</g>
<g>
</g>
<g>
</g>
<g>
</g>
<g>
</g>
<g>
</g>
<g>
</g>
</svg>
