<?xml version="1.0" encoding="iso-8859-1"?>
<!-- Generator: Adobe Illustrator 16.0.4, SVG Export Plug-In . SVG Version: 6.00 Build 0)  -->
<!DOCTYPE svg PUBLIC "-//W3C//DTD SVG 1.1//EN" "http://www.w3.org/Graphics/SVG/1.1/DTD/svg11.dtd">
<svg version="1.1" id="Layer_1" xmlns="http://www.w3.org/2000/svg" xmlns:xlink="http://www.w3.org/1999/xlink" x="0px" y="0px"
	 width="56px" height="56px" viewBox="0 0 56 56" style="enable-background:new 0 0 56 56;" xml:space="preserve">
<g id="_x38_64-rain-cloud_x40_2x.png">
	<g>
		<path d="M38,54c1.657,0,3-1.343,3-3s-3-7-3-7s-3,5.343-3,7S36.343,54,38,54z M38,48c0,0,1,2.448,1,3c0,0.553-0.447,1-1,1
			s-1-0.447-1-1C37,50.448,38,48,38,48z M15,53c0,1.657,1.343,3,3,3s3-1.343,3-3c0-1.656-3-7-3-7S15,51.344,15,53z M18,54
			c-0.553,0-1-0.447-1-1c0-0.552,1-3,1-3s1,2.448,1,3C19,53.553,18.553,54,18,54z M25,47c0,1.657,1.343,3,3,3s3-1.343,3-3
			c0-1.656-3-7-3-7S25,45.344,25,47z M28,48c-0.553,0-1-0.447-1-1s1-3,1-3s1,2.447,1,3S28.553,48,28,48z M56,26
			c0-9.941-8.059-18-18-18c-1.959-4.697-6.593-8-12-8c-7.18,0-13,5.82-13,13c0,1.046,0.137,2.058,0.37,3.032
			C5.933,16.364,0,22.48,0,30c0,7.732,6.268,14,14,14h9c0.553,0,1-0.447,1-1c0-0.552-0.447-1-1-1h-1.842H14C7.373,42,2,36.627,2,30
			s5.373-12,12-12c0.805,0,1.589,0.082,2.35,0.233C15.5,16.676,15,14.9,15,13c0-6.075,4.925-11,11-11c5.06,0,9.31,3.42,10.594,8.071
			C37.058,10.03,37.525,10,38,10c8.837,0,16,7.163,16,16s-7.163,16-16,16h-5c-0.553,0-1,0.448-1,1c0,0.553,0.447,1,1,1h5
			C47.941,44,56,35.941,56,26z"/>
	</g>
</g>
<g>
</g>
<g>
</g>
<g>
</g>
<g>
</g>
<g>
</g>
<g>
</g>
<g>
</g>
<g>
</g>
<g>
</g>
<g>
</g>
<g>
</g>
<g>
</g>
<g>
</g>
<g>
</g>
<g>
</g>
</svg>
