<?xml version="1.0" encoding="iso-8859-1"?>
<!-- Generator: Adobe Illustrator 16.0.4, SVG Export Plug-In . SVG Version: 6.00 Build 0)  -->
<!DOCTYPE svg PUBLIC "-//W3C//DTD SVG 1.1//EN" "http://www.w3.org/Graphics/SVG/1.1/DTD/svg11.dtd">
<svg version="1.1" id="Layer_1" xmlns="http://www.w3.org/2000/svg" xmlns:xlink="http://www.w3.org/1999/xlink" x="0px" y="0px"
	 width="44px" height="44px" viewBox="0 0 44 44" style="enable-background:new 0 0 44 44;" xml:space="preserve">
<g id="_x31_274-rdio_x40_2x.png">
	<g>
		<path d="M27.396,11.933l0.016,0.041c-0.314-0.195-0.625-0.397-0.958-0.565V22.39h-0.033c-0.021,2.039-1.827,4.001-4.495,4.653
			c-3.105,0.761-6.185-0.54-6.878-2.904c-0.693-2.364,1.262-4.898,4.368-5.658c1.725-0.422,3.427-0.191,4.731,0.487l0.004-8.455
			c-1.136-0.32-2.335-0.499-3.581-0.499c-6.951,0-12.585,5.371-12.585,11.997s5.635,11.998,12.585,11.998
			s12.585-5.372,12.585-11.998c0-0.226-0.036-0.442-0.049-0.666c4.874-0.962,4.89-5.572,4.89-5.572
			C33.156,15.772,27.396,11.933,27.396,11.933z M22,0C9.85,0,0,9.85,0,22s9.85,22,22,22s22-9.85,22-22S34.15,0,22,0z M22,42
			C10.954,42,2,33.046,2,22S10.954,2,22,2s20,8.954,20,20S33.046,42,22,42z"/>
	</g>
</g>
<g>
</g>
<g>
</g>
<g>
</g>
<g>
</g>
<g>
</g>
<g>
</g>
<g>
</g>
<g>
</g>
<g>
</g>
<g>
</g>
<g>
</g>
<g>
</g>
<g>
</g>
<g>
</g>
<g>
</g>
</svg>
