<?xml version="1.0" encoding="UTF-8" standalone="no"?>
<svg width="58px" height="58px" viewBox="0 0 58 58" version="1.1" xmlns="http://www.w3.org/2000/svg" xmlns:xlink="http://www.w3.org/1999/xlink" xmlns:sketch="http://www.bohemiancoding.com/sketch/ns">
    <!-- Generator: Sketch 3.0.4 (8053) - http://www.bohemiancoding.com/sketch -->
    <title>1274-rdio</title>
    <desc>Created with Sketch.</desc>
    <defs></defs>
    <g id="Page-1" stroke="none" stroke-width="1" fill="none" fill-rule="evenodd" sketch:type="MSPage">
        <g id="Glyphish-8-Icons" sketch:type="MSArtboardGroup" transform="translate(-308.000000, -1651.000000)" fill="#000000">
            <g id="1274-rdio" sketch:type="MSLayerGroup" transform="translate(308.036996, 1651.860499)">
                <g id="_x31_274-rdio_x40_2x.png" sketch:type="MSShapeGroup">
                    <path d="M35.223,14.55 L35.229,14.567 C34.829,14.313 34.422,14.07 34,13.851 L34,28.5 L33.966,28.5 C33.94,31.22 31.583,33.837 28.117,34.708 C24.082,35.723 20.081,33.987 19.18,30.833 C18.279,27.679 20.819,24.299 24.854,23.285 C27.096,22.722 29.307,23.029 31.001,23.935 L31.006,12.656 C29.531,12.227 27.972,11.989 26.355,11.989 C17.324,11.989 10.003,19.155 10.003,27.995 C10.004,36.834 17.325,44 26.355,44 C35.385,44 42.707,36.834 42.707,27.995 C42.707,27.694 42.692,27.397 42.675,27.1 C48.976,25.802 48.996,19.671 48.996,19.671 C42.707,19.672 35.223,14.55 35.223,14.55 L35.223,14.55 Z M28,0 C12.536,0 0,12.536 0,28 C0,43.464 12.536,56 28,56 C43.464,56 56,43.464 56,28 C56,12.536 43.464,0 28,0 L28,0 Z M28,54 C13.641,54 2,42.359 2,28 C2,13.641 13.641,2 28,2 C42.359,2 54,13.641 54,28 C54,42.359 42.359,54 28,54 L28,54 Z" id="Shape"></path>
                </g>
            </g>
        </g>
    </g>
</svg>