<?xml version="1.0" encoding="iso-8859-1"?>
<!-- Generator: Adobe Illustrator 16.0.4, SVG Export Plug-In . SVG Version: 6.00 Build 0)  -->
<!DOCTYPE svg PUBLIC "-//W3C//DTD SVG 1.1//EN" "http://www.w3.org/Graphics/SVG/1.1/DTD/svg11.dtd">
<svg version="1.1" id="Layer_1" xmlns="http://www.w3.org/2000/svg" xmlns:xlink="http://www.w3.org/1999/xlink" x="0px" y="0px"
	 width="55.998px" height="55.5px" viewBox="0 0 55.998 55.5" style="enable-background:new 0 0 55.998 55.5;" xml:space="preserve"
	>
<g id="_x37_76-recycle_x40_2x.png">
	<g>
		<path d="M55.248,28.818l-6.035-11.459c-0.002-0.004-0.002-0.008-0.004-0.012c-0.252-0.491-0.855-0.685-1.346-0.433L47.86,16.91
			l-4.637,2.162l4.593-11.262c0.055-0.124,0.088-0.26,0.088-0.404c0-0.552-0.447-1-1-1c-0.419,0-0.775,0.259-0.924,0.623
			l-0.005-0.002l-1.335,3.284c-0.66-1.157-1.568-2.808-2.557-4.784C40.008,1.376,37.76,0,33.186,0h-11
			c-4.483,0-6.734,3.279-6.873,3.496L8.409,14.447l0.009,0.006c-0.316,0.453-0.205,1.076,0.248,1.393
			c0.019,0.013,0.041,0.014,0.061,0.025l4.51,3.157L1.184,20.724l0.003,0.021c-0.491,0.063-0.876,0.467-0.876,0.975
			c0,0.553,0.447,1,1,1c0.045,0,0.084-0.02,0.128-0.025l0.002,0.014l3.339-0.475c-0.726,1.164-1.761,2.854-2.855,4.75
			c-2.207,3.824-2.62,6.371-0.69,10.018H1.186l5.835,10.085c2.241,3.883,6.488,3.914,6.488,3.914L26.998,51c0.553,0,1-0.447,1-1
			v-4.547l7.554,9.725c0.01,0.011,0.017,0.023,0.027,0.034l0.006,0.008l0.002-0.002c0.18,0.173,0.423,0.282,0.692,0.282
			c0.553,0,1-0.447,1-1c0-0.221-0.086-0.415-0.207-0.58l0.008-0.008L34.82,51c1.257,0,3.065,0,5.178,0
			c4.618,0,7.048-0.973,9.325-4.884l0.013-0.001l5.522-9.58C57.1,32.652,55.365,29.047,55.248,28.818z M33.65,1.991
			c3.481,0.082,4.976,1.09,6.645,4.431c1.505,3.009,2.858,5.294,3.397,6.219l-2.147,5.281l-6.403-0.524l-5.93-8.699L33.65,1.991z
			 M10.496,14.668l6.525-10.139c0.017-0.025,1.744-2.555,5.168-2.555h9.205L18.896,20.549L10.496,14.668z M6.765,42.622
			l-1.152-2.008L5.6,40.616L3.52,37H3.51l-0.257-0.441c-0.051-0.087-0.082-0.162-0.13-0.248L2.772,35.7l0.031-0.003
			c-1.375-2.787-0.966-4.566,0.852-7.715c1.619-2.805,3.268-5.137,3.883-6.142l5.66-0.805l2.781,5.861l-5.376,9.174l0.001,0.002
			L10.062,37H9.998v0.107L6.765,42.622z M25.998,49l-12.449,0.002c-0.03-0.002-3.084,0.049-4.796-2.917L7.912,44.62L11.207,39h0.524
			h1.267h13V49z M26.998,37h-14H12.38l0.37-0.632l4.274-7.269l1.256,2.646l0.019-0.009c0.172,0.301,0.483,0.513,0.855,0.513
			c0.553,0,1-0.447,1-1c0-0.129-0.029-0.252-0.074-0.365l0.004-0.002l-0.007-0.014c-0.003-0.007-0.006-0.013-0.009-0.019
			L15.06,20.305l3.574,2.502l0.005-0.008c0.453,0.316,1.076,0.205,1.392-0.248l0.011,0.007l7.979-12.057l4.549,6.686l-2.802-0.229
			l-0.002,0.028c-0.027-0.003-0.051-0.017-0.079-0.017c-0.553,0-1,0.448-1,1c0,0.553,0.447,1,1,1c0.016,0,0.028-0.008,0.043-0.009
			l4.284,0.35l0.005,0.007l7.35,0.622l-4.535,2.116l0.001,0.003c-0.493,0.249-0.69,0.851-0.441,1.343l-0.006,0.003l6.78,13.596
			l-8.38-0.013l1.798-2.563l-0.021-0.015c0.127-0.169,0.217-0.368,0.217-0.596c0-0.553-0.447-1-1-1c-0.359,0-0.66,0.2-0.837,0.485
			l-0.008-0.006l-2.583,3.69H32.35l-4.352,6.17V38C27.998,37.448,27.551,37,26.998,37z M48.523,43.507l-0.004-0.009l-1.396,2.408
			l-0.028-0.04C45.372,48.44,43.626,49,39.998,49c-3.193,0.001-5.586-0.002-6.73,0l-3.63-4.676L33.373,39h10.125h7.628
			L48.523,43.507z M53.126,35.535L52.28,37h-6.939l-6.653-13.604l9.293-4.336l5.518,10.722
			C53.512,29.809,54.839,32.568,53.126,35.535z"/>
	</g>
</g>
<g>
</g>
<g>
</g>
<g>
</g>
<g>
</g>
<g>
</g>
<g>
</g>
<g>
</g>
<g>
</g>
<g>
</g>
<g>
</g>
<g>
</g>
<g>
</g>
<g>
</g>
<g>
</g>
<g>
</g>
</svg>
