<?xml version="1.0" encoding="iso-8859-1"?>
<!-- Generator: Adobe Illustrator 16.0.4, SVG Export Plug-In . SVG Version: 6.00 Build 0)  -->
<!DOCTYPE svg PUBLIC "-//W3C//DTD SVG 1.1//EN" "http://www.w3.org/Graphics/SVG/1.1/DTD/svg11.dtd">
<svg version="1.1" id="Layer_1" xmlns="http://www.w3.org/2000/svg" xmlns:xlink="http://www.w3.org/1999/xlink" x="0px" y="0px"
	 width="43.975px" height="43px" viewBox="0 0 43.975 43" style="enable-background:new 0 0 43.975 43;" xml:space="preserve">
<g id="_x37_76-recycle-toolbar_x40_2x.png">
	<g>
		<path d="M43.251,21.858l-4.317-8.206l-0.014,0.007c-0.013-0.031-0.012-0.064-0.027-0.096c-0.243-0.467-0.808-0.65-1.289-0.446
			l-0.014-0.031l-2.27,1.009l3.368-7.488l-0.022-0.009c0.122-0.278,0.131-0.601-0.031-0.883c-0.272-0.472-0.877-0.632-1.351-0.358
			c-0.194,0.112-0.32,0.286-0.401,0.478L36.851,5.82l-1.27,2.799c-0.736-1.16-1.733-2.797-2.511-4.337
			C31.439,1.066,29.674,0,26.082,0h-8.638c-3.521,0-5.288,2.541-5.398,2.709l-5.778,9.633c-0.026,0.029-0.061,0.048-0.085,0.082
			c-0.313,0.454-0.203,1.078,0.247,1.395c0.014,0.01,0.029,0.01,0.043,0.019l-0.007,0.011l2.158,1.345l-7.691,0.772l0.003,0.024
			c-0.302,0.032-0.586,0.186-0.749,0.468c-0.272,0.472-0.108,1.075,0.366,1.35c0.194,0.112,0.408,0.135,0.615,0.109l0.004,0.034
			l2.225-0.216c-0.524,0.767-1.178,1.756-1.874,2.902c-1.73,2.85-2.032,4.732-0.664,7.375h-0.03l4.949,8.646
			C7.618,39.987,10.996,40,10.996,40h11c0.553,0,1-0.447,1-1v-2.237l4.2,5.837l0.02-0.014C27.396,42.831,27.67,43,27.996,43
			c0.544,0,0.985-0.443,0.985-0.991c0-0.225-0.088-0.422-0.213-0.588l0.027-0.021l-1.009-1.412c1.615,0.003,3.737,0.006,3.737-0.005
			c3.708,0,5.837-0.793,7.664-4.134l-0.012-0.007l3.925-7.536C44.924,24.767,43.343,22.036,43.251,21.858z M26.304,1.979V1.973
			c2.873,0.029,3.7,0.808,5.143,3.409c1.201,2.165,2.699,4.46,3.204,5.288l-1.566,3.453l-5.612-0.569l-4.364-7.097l2.763-4.493
			L26.304,1.979z M8.295,12.583l5.406-8.823c0.014-0.02,0.732-1.792,3.777-1.792h6.041l-3.432,5.585l-0.001-0.001l-5.505,8.951
			l-1.469-0.906L8.295,12.583z M5.25,31.679l-0.763-1.296l0.008-0.004l-1.529-2.532c-1.495-2.521-1.184-3.757,0.376-6.389
			c1.026-1.731,2.127-3.126,2.768-3.987l4.148-0.403l1.682,3.733L5.25,31.679z M20.996,33.954l-0.011,0.015l0.011,0.015V38
			l-9.684-0.008C11.289,37.991,8.915,38,7.584,35.642l-1.186-2.013l2.23-3.623L20.996,30V33.954z M21.996,28
			c-0.021,0-0.037,0.011-0.058,0.012H9.855l3.079-5.003l1.055,2.342l0.015-0.007c0.084,0.194,0.213,0.371,0.41,0.485
			c0.484,0.279,1.102,0.116,1.379-0.364c0.166-0.287,0.156-0.616,0.032-0.899l0.003-0.001l-3.021-6.767l1.534,0.956l0.006-0.008
			c0.411,0.25,0.927,0.17,1.255-0.174l0.036,0.032l0.119-0.194l0.002,0.001l3.003-4.888l3.172-5.157l3.034,4.934l-0.912-0.093
			l-0.002,0.017c-0.21-0.025-0.427-0.002-0.624,0.112c-0.483,0.278-0.65,0.895-0.372,1.375c0.165,0.287,0.454,0.443,0.761,0.479
			v0.003l7.311,0.766l-2.539,1.128l0.008,0.017c-0.013,0.005-0.024,0.006-0.036,0.012c-0.486,0.247-0.681,0.844-0.436,1.333
			c0.008,0.017,0.023,0.025,0.032,0.041l5.857,9.525h-6.237l1.018-1.414l-0.013-0.01c0.126-0.169,0.215-0.369,0.215-0.598
			c0-0.559-0.45-1.012-1.005-1.012c-0.331,0-0.611,0.172-0.795,0.422L27.196,25.4l-4.2,5.795V29C22.996,28.447,22.549,28,21.996,28z
			 M39.092,31.532l0.012,0.015l-1.344,2.555l0.003,0.005l-0.323,0.625l-0.008-0.005l-0.311,0.591l-0.024-0.031
			c-1.381,2.284-2.614,2.729-5.572,2.729c-2.351,0.001-4.162-0.001-5.146,0l-2.889-4.043l2.861-3.976h13.535L39.092,31.532z
			 M41.21,27.781l-0.135,0.232h-4.712l-4.016-6.53l-1.852-3.044l7.048-3.141l4.052,7.557C41.888,23.533,42.555,25.202,41.21,27.781z
			"/>
	</g>
</g>
<g>
</g>
<g>
</g>
<g>
</g>
<g>
</g>
<g>
</g>
<g>
</g>
<g>
</g>
<g>
</g>
<g>
</g>
<g>
</g>
<g>
</g>
<g>
</g>
<g>
</g>
<g>
</g>
<g>
</g>
</svg>
