<?xml version="1.0" encoding="iso-8859-1"?>
<!-- Generator: Adobe Illustrator 16.0.4, SVG Export Plug-In . SVG Version: 6.00 Build 0)  -->
<!DOCTYPE svg PUBLIC "-//W3C//DTD SVG 1.1//EN" "http://www.w3.org/Graphics/SVG/1.1/DTD/svg11.dtd">
<svg version="1.1" id="Layer_1" xmlns="http://www.w3.org/2000/svg" xmlns:xlink="http://www.w3.org/1999/xlink" x="0px" y="0px"
	 width="44px" height="44px" viewBox="0 0 44 44" style="enable-background:new 0 0 44 44;" xml:space="preserve">
<g id="_x31_275-reddit_x40_2x.png">
	<g>
		<path d="M19.074,22.967c0-1.017-0.806-1.841-1.801-1.841c-0.994,0-1.8,0.824-1.8,1.841s0.806,1.84,1.8,1.84
			C18.268,24.807,19.074,23.983,19.074,22.967z M26.727,21.126c-0.995,0-1.801,0.824-1.801,1.841s0.806,1.84,1.801,1.84
			c0.994,0,1.8-0.823,1.8-1.84S27.721,21.126,26.727,21.126z M22,0C9.85,0,0,9.85,0,22s9.85,22,22,22s22-9.85,22-22S34.15,0,22,0z
			 M22,42C10.954,42,2,33.046,2,22S10.954,2,22,2s20,8.954,20,20S33.046,42,22,42z M33.253,16.219c-1.086,0-2.056,0.479-2.741,1.232
			c-2.067-1.31-4.706-2.143-7.608-2.278c0.076-1.095,0.243-3.489,1.797-4.245c1.344-0.654,3.167,0.304,3.677,0.602
			c0,0.004-0.001,0.008-0.001,0.012c0,1.948,1.545,3.527,3.451,3.527c1.906,0,3.451-1.579,3.451-3.527s-1.545-3.527-3.451-3.527
			c-1.362,0-2.529,0.813-3.09,1.985c-2.406-1.396-4.487-0.605-4.487-0.605c-2.811,1.149-2.857,5.26-2.852,5.774
			c-3.009,0.115-5.741,0.979-7.859,2.348c-0.687-0.79-1.678-1.297-2.793-1.297c-2.071,0-3.751,1.716-3.751,3.834
			c0,1.572,0.928,2.92,2.252,3.512c-0.049,0.332-0.077,0.67-0.077,1.013c0,5.209,5.777,9.432,12.904,9.432
			s12.903-4.223,12.903-9.432c0-0.369-0.036-0.73-0.092-1.088c1.25-0.622,2.118-1.921,2.118-3.437
			C37.004,17.935,35.325,16.219,33.253,16.219z M31.828,9.547c1.078,0,1.951,0.893,1.951,1.994c0,1.101-0.873,1.993-1.951,1.993
			c-1.077,0-1.95-0.893-1.95-1.993C29.877,10.439,30.75,9.547,31.828,9.547z M8.496,20.053c0-1.271,1.008-2.301,2.25-2.301
			c0.614,0,1.17,0.253,1.576,0.66c-1.231,1.04-2.152,2.277-2.669,3.64C8.966,21.658,8.496,20.915,8.496,20.053z M22.075,32.398
			c-6.298,0-11.403-3.502-11.403-7.821c0-4.32,5.105-7.822,11.403-7.822s11.403,3.502,11.403,7.822
			C33.479,28.896,28.373,32.398,22.075,32.398z M34.473,21.982c-0.533-1.363-1.474-2.597-2.722-3.632
			c0.399-0.368,0.922-0.599,1.502-0.599c1.243,0,2.25,1.03,2.25,2.301C35.504,20.863,35.092,21.572,34.473,21.982z M26.951,27.491
			c-0.169,0-0.317,0.067-0.443,0.164l-0.007-0.011c0,0-1.653,1.457-4.501,1.457c-1.911,0-4.501-1.457-4.501-1.457l-0.007,0.011
			c-0.125-0.097-0.274-0.164-0.443-0.164c-0.415,0-0.75,0.343-0.75,0.767c0,0.287,0.161,0.527,0.389,0.659l-0.008,0.012
			c0,0,2.319,1.706,5.32,1.706s5.327-1.713,5.327-1.713l-0.007-0.01c0.224-0.133,0.382-0.371,0.382-0.654
			C27.702,27.834,27.366,27.491,26.951,27.491z"/>
	</g>
</g>
<g>
</g>
<g>
</g>
<g>
</g>
<g>
</g>
<g>
</g>
<g>
</g>
<g>
</g>
<g>
</g>
<g>
</g>
<g>
</g>
<g>
</g>
<g>
</g>
<g>
</g>
<g>
</g>
<g>
</g>
</svg>
