<?xml version="1.0" encoding="UTF-8" standalone="no"?>
<svg width="58px" height="58px" viewBox="0 0 58 58" version="1.1" xmlns="http://www.w3.org/2000/svg" xmlns:xlink="http://www.w3.org/1999/xlink" xmlns:sketch="http://www.bohemiancoding.com/sketch/ns">
    <!-- Generator: Sketch 3.0.4 (8053) - http://www.bohemiancoding.com/sketch -->
    <title>1275-reddit</title>
    <desc>Created with Sketch.</desc>
    <defs></defs>
    <g id="Page-1" stroke="none" stroke-width="1" fill="none" fill-rule="evenodd" sketch:type="MSPage">
        <g id="Glyphish-8-Icons" sketch:type="MSArtboardGroup" transform="translate(-404.000000, -1651.000000)" fill="#000000">
            <g id="1275-reddit" sketch:type="MSLayerGroup" transform="translate(404.036996, 1651.860499)">
                <g id="_x31_275-reddit_x40_2x.png" sketch:type="MSShapeGroup">
                    <path d="M28,0 C12.536,0 0,12.536 0,28 C0,43.464 12.536,56 28,56 C43.464,56 56,43.464 56,28 C56,12.536 43.464,0 28,0 L28,0 Z M28,54 C13.641,54 2,42.359 2,28 C2,13.641 13.641,2 28,2 C42.359,2 54,13.641 54,28 C54,42.359 42.359,54 28,54 L28,54 Z M24.098,29.558 C24.098,28.229 23.023,27.151 21.697,27.151 C20.371,27.151 19.296,28.229 19.296,29.558 C19.296,30.887 20.371,31.965 21.697,31.965 C23.023,31.965 24.098,30.887 24.098,29.558 L24.098,29.558 Z M34.304,27.15 C32.978,27.15 31.903,28.228 31.903,29.557 C31.903,30.886 32.978,31.964 34.304,31.964 C35.63,31.964 36.705,30.886 36.705,29.557 C36.705,28.228 35.63,27.15 34.304,27.15 L34.304,27.15 Z M34.604,35.475 C34.378,35.475 34.181,35.564 34.013,35.691 L34.004,35.676 C34.004,35.676 31.799,37.581 28.001,37.581 C25.453,37.581 21.998,35.676 21.998,35.676 L21.989,35.691 C21.822,35.564 21.624,35.475 21.398,35.475 C20.845,35.475 20.397,35.924 20.397,36.479 C20.397,36.854 20.612,37.168 20.916,37.34 L20.906,37.356 C20.906,37.356 23.999,39.587 28.002,39.587 C32.005,39.587 35.106,37.348 35.106,37.348 L35.097,37.334 C35.396,37.16 35.606,36.85 35.606,36.479 C35.604,35.924 35.156,35.475 34.604,35.475 L34.604,35.475 Z M43.009,20.732 C41.561,20.732 40.267,21.358 39.353,22.343 C36.596,20.631 33.076,19.541 29.206,19.364 C29.308,17.931 29.529,14.801 31.602,13.811 C33.394,12.956 35.825,14.208 36.506,14.598 C36.506,14.603 36.505,14.608 36.505,14.614 C36.505,17.162 38.566,19.227 41.108,19.227 C43.65,19.227 45.711,17.162 45.711,14.614 C45.711,12.066 43.649,10 41.107,10 C39.29,10 37.734,11.064 36.986,12.598 C33.777,10.772 31.002,11.806 31.002,11.806 C27.252,13.309 27.191,18.685 27.198,19.358 C23.185,19.509 19.541,20.639 16.717,22.429 C15.8,21.396 14.479,20.733 12.991,20.733 C10.228,20.733 7.989,22.977 7.989,25.747 C7.989,27.804 9.226,29.566 10.993,30.34 C10.928,30.776 10.89,31.217 10.89,31.665 C10.89,38.477 18.595,44 28.1,44 C37.605,44 45.31,38.477 45.31,31.664 C45.31,31.182 45.262,30.709 45.186,30.241 C46.853,29.428 48.011,27.729 48.011,25.746 C48.011,22.977 45.771,20.732 43.009,20.732 L43.009,20.732 Z M41.107,12.006 C42.544,12.006 43.709,13.174 43.709,14.614 C43.709,16.053 42.544,17.221 41.107,17.221 C39.67,17.221 38.505,16.053 38.505,14.614 C38.506,13.174 39.671,12.006 41.107,12.006 L41.107,12.006 Z M9.99,25.746 C9.99,24.085 11.334,22.737 12.991,22.737 C13.81,22.737 14.552,23.068 15.093,23.601 C13.451,24.961 12.223,26.579 11.532,28.361 C10.616,27.846 9.99,26.875 9.99,25.746 L9.99,25.746 Z M28.1,41.894 C19.701,41.894 12.892,37.314 12.892,31.665 C12.892,26.015 19.701,21.435 28.1,21.435 C36.499,21.435 43.308,26.015 43.308,31.665 C43.309,37.313 36.5,41.894 28.1,41.894 L28.1,41.894 Z M44.635,28.27 C43.924,26.488 42.669,24.875 41.005,23.521 C41.538,23.04 42.235,22.738 43.009,22.738 C44.667,22.738 46.01,24.086 46.01,25.747 C46.01,26.807 45.461,27.734 44.635,28.27 L44.635,28.27 Z" id="Shape"></path>
                </g>
            </g>
        </g>
    </g>
</svg>