<?xml version="1.0" encoding="iso-8859-1"?>
<!-- Generator: Adobe Illustrator 16.0.4, SVG Export Plug-In . SVG Version: 6.00 Build 0)  -->
<!DOCTYPE svg PUBLIC "-//W3C//DTD SVG 1.1//EN" "http://www.w3.org/Graphics/SVG/1.1/DTD/svg11.dtd">
<svg version="1.1" id="Layer_1" xmlns="http://www.w3.org/2000/svg" xmlns:xlink="http://www.w3.org/1999/xlink" x="0px" y="0px"
	 width="36px" height="44px" viewBox="0 0 36 44" style="enable-background:new 0 0 36 44;" xml:space="preserve">
<g id="_x37_13-refresh-1-toolbar_x40_2x.png">
	<g>
		<path d="M34.997,24.5c-0.555,0-1.004,0.448-1.004,1C33.993,34.612,26,42,18.438,42v-0.003C9.354,41.963,2,34.592,2,25.5
			C2,16.557,9.121,9.292,18,9.025V15c0,0.553,0.447,1,1,1c0.185,0,0.348-0.063,0.496-0.15l0.008,0.014l12-7L31.496,8.85
			C31.792,8.676,32,8.368,32,8s-0.208-0.676-0.504-0.85l0.008-0.014l-12-7.001L19.495,0.15C19.348,0.063,19.185,0,19,0
			c-0.553,0-1,0.448-1,1v6.025C8.017,7.293,0,15.451,0,25.5c0,10.196,8.249,18.463,18.438,18.497V44C27,44,36,35.718,36,25.5
			C36,24.948,35.551,24.5,34.997,24.5z"/>
	</g>
</g>
<g>
</g>
<g>
</g>
<g>
</g>
<g>
</g>
<g>
</g>
<g>
</g>
<g>
</g>
<g>
</g>
<g>
</g>
<g>
</g>
<g>
</g>
<g>
</g>
<g>
</g>
<g>
</g>
<g>
</g>
</svg>
