<?xml version="1.0" encoding="iso-8859-1"?>
<!-- Generator: Adobe Illustrator 16.0.4, SVG Export Plug-In . SVG Version: 6.00 Build 0)  -->
<!DOCTYPE svg PUBLIC "-//W3C//DTD SVG 1.1//EN" "http://www.w3.org/Graphics/SVG/1.1/DTD/svg11.dtd">
<svg version="1.1" id="Layer_1" xmlns="http://www.w3.org/2000/svg" xmlns:xlink="http://www.w3.org/1999/xlink" x="0px" y="0px"
	 width="44px" height="44px" viewBox="0 0 44 44" style="enable-background:new 0 0 44 44;" xml:space="preserve">
<g id="_x37_60-refresh-3-toolbar_x40_2x.png">
	<g>
		<path d="M43.989,21.794v0.154c-0.028-0.53-0.458-0.954-0.995-0.954c-0.556,0-1.006,0.45-1.006,1.006
			c0,0.004,0.002,0.007,0.003,0.011C41.985,33.047,33.037,41.991,22,41.991S2.016,33.047,2.01,22.011
			c0-0.004,0.002-0.007,0.002-0.011S2.01,21.993,2.01,21.989C2.016,10.954,10.963,2.009,22,2.009c7.396,0,13.834,4.03,17.29,10.003
			h-8.315c-0.001,0-0.001,0-0.002,0c0,0,0,0-0.001,0h-0.014v0.003c-0.538,0.008-0.973,0.443-0.973,0.982s0.435,0.975,0.973,0.982
			v0.035h10.015v-0.035c0.006,0.001,0.01,0.004,0.016,0.004c0.54,0,0.976-0.434,0.984-0.972h0.003v-10h-0.003
			c0-0.005,0.003-0.009,0.003-0.015c0-0.545-0.442-0.986-0.987-0.986C40.442,2.011,40,2.452,40,2.997
			c0,0.006,0.004,0.01,0.004,0.015H40v6.406C36.027,3.733,29.462,0,22,0C9.85,0,0,9.85,0,22c0,3.312,0.752,6.439,2.062,9.256
			c0.032,0.119,0.083,0.225,0.154,0.321C5.78,38.923,13.288,44,22,44c12.15,0,22-9.85,22-21.999V22
			C44,21.931,43.99,21.863,43.989,21.794z"/>
	</g>
</g>
<g>
</g>
<g>
</g>
<g>
</g>
<g>
</g>
<g>
</g>
<g>
</g>
<g>
</g>
<g>
</g>
<g>
</g>
<g>
</g>
<g>
</g>
<g>
</g>
<g>
</g>
<g>
</g>
<g>
</g>
</svg>
