<?xml version="1.0" encoding="iso-8859-1"?>
<!-- Generator: Adobe Illustrator 16.0.4, SVG Export Plug-In . SVG Version: 6.00 Build 0)  -->
<!DOCTYPE svg PUBLIC "-//W3C//DTD SVG 1.1//EN" "http://www.w3.org/Graphics/SVG/1.1/DTD/svg11.dtd">
<svg version="1.1" id="Layer_1" xmlns="http://www.w3.org/2000/svg" xmlns:xlink="http://www.w3.org/1999/xlink" x="0px" y="0px"
	 width="56px" height="56px" viewBox="0 0 56 56" style="enable-background:new 0 0 56 56;" xml:space="preserve">
<g id="_x37_59-refresh-2_x40_2x.png">
	<g>
		<path d="M28,2c10.027,0,18.714,5.686,23.052,14H39c-0.553,0-1,0.448-1,1c0,0.553,0.447,1,1,1h14c0.553,0,1-0.447,1-1V3
			c0-0.552-0.447-1-1-1s-1,0.448-1,1v10.662C47.113,5.491,38.214,0,28,0C12.536,0,0,12.536,0,28c0,0.553,0.447,1,1,1s1-0.447,1-1
			C2,13.641,13.641,2,28,2z M55,27c-0.553,0-1,0.447-1,1c0,14.359-11.641,26-26,26C17.973,54,9.286,48.314,4.948,40H17
			c0.553,0,1-0.447,1-1s-0.447-1-1-1H3c-0.553,0-1,0.447-1,1v14c0,0.553,0.447,1,1,1s1-0.447,1-1V42.338
			C8.887,50.509,17.786,56,28,56c15.464,0,28-12.536,28-27.999C56,28,56,28,56,28C56,27.447,55.553,27,55,27z"/>
	</g>
</g>
<g>
</g>
<g>
</g>
<g>
</g>
<g>
</g>
<g>
</g>
<g>
</g>
<g>
</g>
<g>
</g>
<g>
</g>
<g>
</g>
<g>
</g>
<g>
</g>
<g>
</g>
<g>
</g>
<g>
</g>
</svg>
