<?xml version="1.0" encoding="iso-8859-1"?>
<!-- Generator: Adobe Illustrator 16.0.4, SVG Export Plug-In . SVG Version: 6.00 Build 0)  -->
<!DOCTYPE svg PUBLIC "-//W3C//DTD SVG 1.1//EN" "http://www.w3.org/Graphics/SVG/1.1/DTD/svg11.dtd">
<svg version="1.1" id="Layer_1" xmlns="http://www.w3.org/2000/svg" xmlns:xlink="http://www.w3.org/1999/xlink" x="0px" y="0px"
	 width="56px" height="56px" viewBox="0 0 56 56" style="enable-background:new 0 0 56 56;" xml:space="preserve">
<g id="_x37_60-refresh-3_x40_2x.png">
	<g>
		<path d="M55,27c-0.552,0-1,0.447-1,1c0,14.359-11.641,26-26,26S2,42.359,2,28S13.641,2,28,2c10.027,0,18.714,5.686,23.052,14H39
			c-0.553,0-1,0.448-1,1c0,0.553,0.447,1,1,1h14c0.553,0,1-0.447,1-1V3c0-0.552-0.447-1-1-1s-1,0.448-1,1v10.662
			C47.113,5.491,38.214,0,28,0C12.536,0,0,12.536,0,28s12.536,28,28,28s28-12.535,28-27.999V28C56,27.447,55.553,27,55,27z"/>
	</g>
</g>
<g>
</g>
<g>
</g>
<g>
</g>
<g>
</g>
<g>
</g>
<g>
</g>
<g>
</g>
<g>
</g>
<g>
</g>
<g>
</g>
<g>
</g>
<g>
</g>
<g>
</g>
<g>
</g>
<g>
</g>
</svg>
