<?xml version="1.0" encoding="iso-8859-1"?>
<!-- Generator: Adobe Illustrator 16.0.4, SVG Export Plug-In . SVG Version: 6.00 Build 0)  -->
<!DOCTYPE svg PUBLIC "-//W3C//DTD SVG 1.1//EN" "http://www.w3.org/Graphics/SVG/1.1/DTD/svg11.dtd">
<svg version="1.1" id="Layer_1" xmlns="http://www.w3.org/2000/svg" xmlns:xlink="http://www.w3.org/1999/xlink" x="0px" y="0px"
	 width="47px" height="56px" viewBox="0 0 47 56" style="enable-background:new 0 0 47 56;" xml:space="preserve">
<g id="_x37_13-refresh-1_x40_2x.png">
	<g>
		<path d="M46,31.5c-0.553,0-1,0.448-1,1C45,44.374,35.374,54,23.5,54S2,44.374,2,32.5S11.626,11,23.5,11
			c0.169,0,0.332,0.021,0.5,0.025V19c0,0.553,0.447,1,1,1c0.199,0,0.375-0.073,0.531-0.174l0.01,0.016l14-9.001l-0.01-0.015
			C39.807,10.648,40,10.353,40,10s-0.193-0.647-0.469-0.826l0.01-0.015l-14-9l-0.01,0.015C25.375,0.073,25.199,0,25,0
			c-0.553,0-1,0.448-1,1v8.025C23.832,9.022,23.669,9,23.5,9C10.521,9,0,19.521,0,32.5S10.521,56,23.5,56S47,45.479,47,32.5
			C47,31.948,46.553,31.5,46,31.5z"/>
	</g>
</g>
<g>
</g>
<g>
</g>
<g>
</g>
<g>
</g>
<g>
</g>
<g>
</g>
<g>
</g>
<g>
</g>
<g>
</g>
<g>
</g>
<g>
</g>
<g>
</g>
<g>
</g>
<g>
</g>
<g>
</g>
</svg>
