<?xml version="1.0" encoding="iso-8859-1"?>
<!-- Generator: Adobe Illustrator 16.0.4, SVG Export Plug-In . SVG Version: 6.00 Build 0)  -->
<!DOCTYPE svg PUBLIC "-//W3C//DTD SVG 1.1//EN" "http://www.w3.org/Graphics/SVG/1.1/DTD/svg11.dtd">
<svg version="1.1" id="Layer_1" xmlns="http://www.w3.org/2000/svg" xmlns:xlink="http://www.w3.org/1999/xlink" x="0px" y="0px"
	 width="44px" height="44px" viewBox="0 0 44 44" style="enable-background:new 0 0 44 44;" xml:space="preserve">
<g id="_x31_300-renren_x40_2x.png">
	<g>
		<path d="M22,16.814c-1.204-1.476-2.92-2.496-4.866-2.803v4.849c0,0,0.442,6.509,4.52,8.621c0.117-0.126,0.238-0.247,0.347-0.381
			c-1.139-1.395-1.825-3.188-1.825-5.144S20.861,18.209,22,16.814z M15.917,24.435c-1.032,2.313-2.345,3.757-3.629,4.672
			c1.087,0.574,2.319,0.903,3.629,0.903s2.539-0.332,3.626-0.906C18.26,28.188,16.949,26.746,15.917,24.435z M14.7,14.01
			c-3.788,0.598-6.69,3.923-6.69,7.947c0,2.143,0.827,4.084,2.167,5.527c4.081-2.111,4.523-8.624,4.523-8.624V14.01z M26.866,14.012
			c-1.946,0.307-3.662,1.327-4.866,2.803c1.139,1.395,1.825,3.187,1.825,5.143S23.139,25.706,22,27.101
			c0.109,0.135,0.239,0.25,0.359,0.375c4.065-2.12,4.507-8.615,4.507-8.615V14.012z M22,0C9.85,0,0,9.85,0,22s9.85,22,22,22
			s22-9.85,22-22S34.15,0,22,0z M22,42C10.954,42,2,33.046,2,22S10.954,2,22,2s20,8.954,20,20S33.046,42,22,42z M29.3,14.01v4.851
			c0,0,0.442,6.513,4.523,8.624c1.341-1.443,2.167-3.385,2.167-5.527C35.99,17.933,33.088,14.607,29.3,14.01z M28.083,24.435
			c-1.031,2.311-2.341,3.753-3.624,4.668c1.087,0.573,2.315,0.907,3.624,0.907c1.31,0,2.542-0.329,3.629-0.903
			C30.428,28.191,29.115,26.748,28.083,24.435z"/>
	</g>
</g>
<g>
</g>
<g>
</g>
<g>
</g>
<g>
</g>
<g>
</g>
<g>
</g>
<g>
</g>
<g>
</g>
<g>
</g>
<g>
</g>
<g>
</g>
<g>
</g>
<g>
</g>
<g>
</g>
<g>
</g>
</svg>
