<?xml version="1.0" encoding="UTF-8" standalone="no"?>
<svg width="58px" height="58px" viewBox="0 0 58 58" version="1.1" xmlns="http://www.w3.org/2000/svg" xmlns:xlink="http://www.w3.org/1999/xlink" xmlns:sketch="http://www.bohemiancoding.com/sketch/ns">
    <!-- Generator: Sketch 3.0.4 (8053) - http://www.bohemiancoding.com/sketch -->
    <title>1300-renren</title>
    <desc>Created with Sketch.</desc>
    <defs></defs>
    <g id="Page-1" stroke="none" stroke-width="1" fill="none" fill-rule="evenodd" sketch:type="MSPage">
        <g id="Glyphish-8-Icons" sketch:type="MSArtboardGroup" transform="translate(-884.000000, -1843.000000)" fill="#000000">
            <g id="1300-renren" sketch:type="MSLayerGroup" transform="translate(884.036996, 1843.860499)">
                <g id="_x31_300-renren_x40_2x.png" sketch:type="MSShapeGroup">
                    <path d="M28,21.496 C26.45,19.651 24.242,18.376 21.737,17.992 L21.737,24.054 C21.737,24.054 22.306,32.192 27.553,34.833 C27.703,34.676 27.86,34.523 27.999,34.356 C26.533,32.612 25.65,30.372 25.65,27.925 C25.65,25.478 26.534,23.24 28,21.496 L28,21.496 Z M20.172,31.024 C18.843,33.918 17.153,35.721 15.501,36.865 C16.9,37.583 18.486,37.995 20.172,37.995 C21.857,37.995 23.439,37.58 24.838,36.862 C23.187,35.719 21.5,33.914 20.172,31.024 L20.172,31.024 Z M18.606,17.989 C13.73,18.736 9.995,22.894 9.995,27.927 C9.995,30.606 11.059,33.033 12.784,34.837 C18.037,32.198 18.606,24.055 18.606,24.055 L18.606,17.989 L18.606,17.989 Z M37.394,17.989 L37.394,24.054 C37.394,24.054 37.963,32.198 43.216,34.836 C44.941,33.032 46.005,30.605 46.005,27.926 C46.005,22.895 42.27,18.736 37.394,17.989 L37.394,17.989 Z M28,0 C12.536,0 0,12.536 0,28 C0,43.464 12.536,56 28,56 C43.464,56 56,43.464 56,28 C56,12.536 43.464,0 28,0 L28,0 Z M28,54 C13.641,54 2,42.359 2,28 C2,13.641 13.641,2 28,2 C42.359,2 54,13.641 54,28 C54,42.359 42.359,54 28,54 L28,54 Z M35.828,31.024 C34.501,33.913 32.815,35.715 31.165,36.86 C32.563,37.577 34.144,37.995 35.828,37.995 C37.514,37.995 39.099,37.583 40.499,36.865 C38.847,35.722 37.157,33.918 35.828,31.024 L35.828,31.024 Z M34.263,17.992 C31.758,18.376 29.55,19.651 28,21.496 C29.466,23.24 30.349,25.48 30.349,27.927 C30.349,30.374 29.466,32.613 28,34.357 C28.142,34.526 28.308,34.669 28.462,34.827 C33.695,32.176 34.263,24.055 34.263,24.055 L34.263,17.992 L34.263,17.992 Z" id="Shape"></path>
                </g>
            </g>
        </g>
    </g>
</svg>