<?xml version="1.0" encoding="iso-8859-1"?>
<!-- Generator: Adobe Illustrator 16.0.4, SVG Export Plug-In . SVG Version: 6.00 Build 0)  -->
<!DOCTYPE svg PUBLIC "-//W3C//DTD SVG 1.1//EN" "http://www.w3.org/Graphics/SVG/1.1/DTD/svg11.dtd">
<svg version="1.1" id="Layer_1" xmlns="http://www.w3.org/2000/svg" xmlns:xlink="http://www.w3.org/1999/xlink" x="0px" y="0px"
	 width="44px" height="36px" viewBox="0 0 44 36" style="enable-background:new 0 0 44 36;" xml:space="preserve">
<g id="_x39_01-repeat-toolbar_x40_2x.png">
	<g>
		<path d="M43,15c-0.276,0-0.526,0.112-0.707,0.293l-2.312,2.312C39.769,7.849,31.808,0,22,0C14.729,0,8.493,4.324,5.654,10.53
			c-0.127,0.168-0.217,0.367-0.217,0.595c0,0.552,0.448,1,1,1c0.422,0,0.779-0.263,0.926-0.632l0.032,0.015
			C9.885,5.91,15.479,2,22,2c8.689,0,15.744,6.931,15.978,15.563l-2.271-2.271C35.526,15.112,35.276,15,35,15c-0.553,0-1,0.447-1,1
			c0,0.276,0.112,0.526,0.293,0.707l4,4C38.474,20.888,38.724,21,39,21s0.526-0.112,0.707-0.293l4-4C43.888,16.526,44,16.276,44,16
			C44,15.447,43.553,15,43,15z M37.562,23.844c-0.422,0-0.778,0.263-0.926,0.633l-0.02-0.01C34.133,30.078,28.531,34,22,34
			c-8.7,0-15.764-6.948-15.979-15.597l2.272,2.272C8.474,20.857,8.724,20.969,9,20.969c0.552,0,1-0.447,1-1
			c0-0.276-0.112-0.526-0.293-0.707l-4-4C5.526,15.081,5.276,14.969,5,14.969s-0.526,0.112-0.707,0.293l-4,4
			C0.112,19.442,0,19.692,0,19.969c0,0.553,0.448,1,1,1c0.276,0,0.526-0.111,0.707-0.293l2.312-2.312C4.214,28.136,12.182,36,22,36
			c7.313,0,13.582-4.374,16.397-10.639c0.096-0.153,0.165-0.323,0.165-0.518C38.562,24.292,38.115,23.844,37.562,23.844z"/>
	</g>
</g>
<g>
</g>
<g>
</g>
<g>
</g>
<g>
</g>
<g>
</g>
<g>
</g>
<g>
</g>
<g>
</g>
<g>
</g>
<g>
</g>
<g>
</g>
<g>
</g>
<g>
</g>
<g>
</g>
<g>
</g>
</svg>
