<?xml version="1.0" encoding="iso-8859-1"?>
<!-- Generator: Adobe Illustrator 16.0.4, SVG Export Plug-In . SVG Version: 6.00 Build 0)  -->
<!DOCTYPE svg PUBLIC "-//W3C//DTD SVG 1.1//EN" "http://www.w3.org/Graphics/SVG/1.1/DTD/svg11.dtd">
<svg version="1.1" id="Layer_1" xmlns="http://www.w3.org/2000/svg" xmlns:xlink="http://www.w3.org/1999/xlink" x="0px" y="0px"
	 width="56px" height="40px" viewBox="0 0 56 40" style="enable-background:new 0 0 56 40;" xml:space="preserve">
<g id="_x39_02-repeat-infinite_x40_2x.png">
	<g>
		<path d="M41.5,6C33.492,6,27,12.269,27,20c0,6.628-5.597,12-12.5,12S2,26.628,2,20C2,13.373,7.597,8,14.5,8h9.086l-4.293,4.293
			C19.112,12.474,19,12.724,19,13c0,0.552,0.447,1,1,1c0.276,0,0.526-0.112,0.707-0.293l6-6C26.888,7.526,27,7.276,27,7
			s-0.112-0.526-0.293-0.707l-6-6C20.526,0.112,20.276,0,20,0c-0.553,0-1,0.447-1,1c0,0.276,0.112,0.526,0.293,0.707L23.586,6H14.5
			C6.492,6,0,12.269,0,20c0,7.732,6.492,14,14.5,14S29,27.732,29,20c0-6.627,5.597-12,12.5-12S54,13.373,54,20
			c0,6.628-5.597,12-12.5,12h-9.086l4.293-4.293C36.888,27.526,37,27.276,37,27c0-0.553-0.447-1-1-1
			c-0.276,0-0.526,0.112-0.707,0.293l-6,6C29.112,32.474,29,32.724,29,33s0.112,0.526,0.293,0.707l6,6
			C35.474,39.888,35.724,40,36,40c0.553,0,1-0.447,1-1c0-0.276-0.112-0.526-0.293-0.707L32.414,34H41.5C49.508,34,56,27.732,56,20
			C56,12.269,49.508,6,41.5,6z"/>
	</g>
</g>
<g>
</g>
<g>
</g>
<g>
</g>
<g>
</g>
<g>
</g>
<g>
</g>
<g>
</g>
<g>
</g>
<g>
</g>
<g>
</g>
<g>
</g>
<g>
</g>
<g>
</g>
<g>
</g>
<g>
</g>
</svg>
