<?xml version="1.0" encoding="iso-8859-1"?>
<!-- Generator: Adobe Illustrator 16.0.4, SVG Export Plug-In . SVG Version: 6.00 Build 0)  -->
<!DOCTYPE svg PUBLIC "-//W3C//DTD SVG 1.1//EN" "http://www.w3.org/Graphics/SVG/1.1/DTD/svg11.dtd">
<svg version="1.1" id="Layer_1" xmlns="http://www.w3.org/2000/svg" xmlns:xlink="http://www.w3.org/1999/xlink" x="0px" y="0px"
	 width="56px" height="44px" viewBox="0 0 56 44" style="enable-background:new 0 0 56 44;" xml:space="preserve">
<g id="_x39_01-repeat_x40_2x.png">
	<g>
		<path d="M47.062,29.844c-0.384,0-0.706,0.224-0.873,0.54l-0.032-0.018C42.989,37.23,36.057,42,28,42C16.954,42,8,33.046,8,22
			c0-0.511,0.029-1.014,0.073-1.514l4.22,4.221C12.474,24.888,12.724,25,13,25c0.552,0,1-0.447,1-1c0-0.276-0.112-0.526-0.293-0.707
			l-6-6C7.526,17.112,7.276,17,7,17c-0.276,0-0.526,0.112-0.707,0.293l-6,6C0.112,23.474,0,23.724,0,24c0,0.553,0.448,1,1,1
			c0.276,0,0.526-0.112,0.708-0.293l4.37-4.37C6.029,20.885,6,21.438,6,22c0,12.15,9.85,22,22,22c8.76,0,16.296-5.135,19.835-12.545
			c0.135-0.171,0.228-0.377,0.228-0.611C48.062,30.292,47.615,29.844,47.062,29.844z M55,19c-0.276,0-0.526,0.112-0.707,0.293
			l-4.37,4.37C49.972,23.115,50,22.562,50,22C50,9.85,40.15,0,28,0C19.24,0,11.704,5.136,8.166,12.546
			c-0.135,0.17-0.228,0.376-0.228,0.61c0,0.553,0.448,1,1,1c0.383,0,0.706-0.223,0.874-0.54l0.032,0.019C13.011,6.771,19.943,2,28,2
			c11.046,0,20,8.954,20,20c0,0.511-0.028,1.014-0.072,1.514l-4.221-4.221C43.526,19.112,43.276,19,43,19c-0.553,0-1,0.447-1,1
			c0,0.276,0.112,0.526,0.293,0.707l6,6C48.474,26.888,48.724,27,49,27s0.526-0.112,0.707-0.293l6-6C55.888,20.526,56,20.276,56,20
			C56,19.447,55.553,19,55,19z"/>
	</g>
</g>
<g>
</g>
<g>
</g>
<g>
</g>
<g>
</g>
<g>
</g>
<g>
</g>
<g>
</g>
<g>
</g>
<g>
</g>
<g>
</g>
<g>
</g>
<g>
</g>
<g>
</g>
<g>
</g>
<g>
</g>
</svg>
