<?xml version="1.0" encoding="iso-8859-1"?>
<!-- Generator: Adobe Illustrator 16.0.4, SVG Export Plug-In . SVG Version: 6.00 Build 0)  -->
<!DOCTYPE svg PUBLIC "-//W3C//DTD SVG 1.1//EN" "http://www.w3.org/Graphics/SVG/1.1/DTD/svg11.dtd">
<svg version="1.1" id="Layer_1" xmlns="http://www.w3.org/2000/svg" xmlns:xlink="http://www.w3.org/1999/xlink" x="0px" y="0px"
	 width="44px" height="32px" viewBox="0 0 44 32" style="enable-background:new 0 0 44 32;" xml:space="preserve">
<g id="_x39_02-repeat-infinite-toolbar_x40_2x.png">
	<g>
		<path d="M32.5,4C26.148,4,21,9.373,21,16c0,5.522-4.253,10-9.5,10S2,21.522,2,16S6.253,6,11.5,6h6.086l-2.293,2.293
			C15.112,8.474,15,8.724,15,9c0,0.552,0.447,1,1,1c0.276,0,0.526-0.112,0.707-0.293l4-4C20.888,5.526,21,5.276,21,5
			s-0.112-0.526-0.293-0.707l-4-4C16.526,0.112,16.276,0,16,0c-0.553,0-1,0.448-1,1c0,0.276,0.112,0.526,0.293,0.707L17.586,4H11.5
			C5.148,4,0,9.373,0,16c0,6.628,5.148,12,11.5,12S23,22.628,23,16c0-5.522,4.253-10,9.5-10S42,10.478,42,16s-4.253,10-9.5,10
			h-6.086l2.293-2.293C28.888,23.526,29,23.276,29,23c0-0.553-0.447-1-1-1c-0.276,0-0.526,0.112-0.707,0.293l-4,4
			C23.112,26.474,23,26.724,23,27s0.112,0.526,0.293,0.707l4,4C27.474,31.888,27.724,32,28,32c0.553,0,1-0.447,1-1
			c0-0.276-0.111-0.526-0.293-0.707L26.414,28H32.5C38.852,28,44,22.628,44,16C44,9.373,38.852,4,32.5,4z"/>
	</g>
</g>
<g>
</g>
<g>
</g>
<g>
</g>
<g>
</g>
<g>
</g>
<g>
</g>
<g>
</g>
<g>
</g>
<g>
</g>
<g>
</g>
<g>
</g>
<g>
</g>
<g>
</g>
<g>
</g>
<g>
</g>
</svg>
