<?xml version="1.0" encoding="iso-8859-1"?>
<!-- Generator: Adobe Illustrator 16.0.4, SVG Export Plug-In . SVG Version: 6.00 Build 0)  -->
<!DOCTYPE svg PUBLIC "-//W3C//DTD SVG 1.1//EN" "http://www.w3.org/Graphics/SVG/1.1/DTD/svg11.dtd">
<svg version="1.1" id="Layer_1" xmlns="http://www.w3.org/2000/svg" xmlns:xlink="http://www.w3.org/1999/xlink" x="0px" y="0px"
	 width="43.969px" height="24px" viewBox="0 0 43.969 24" style="enable-background:new 0 0 43.969 24;" xml:space="preserve">
<g id="_x31_025-reply-all-toolbar_x40_2x.png">
	<g>
		<path d="M14,20.942L2.618,12L14,3.058v1.198l2-1.568V1c0-0.553-0.447-1-1-1c-0.233,0-0.438,0.093-0.608,0.227l-0.01-0.013l-14,11
			l0.01,0.013C0.159,11.409,0,11.681,0,12s0.159,0.591,0.392,0.773l-0.01,0.013l14,11l0.01-0.013C14.562,23.908,14.767,24,15,24
			c0.553,0,1-0.447,1-1v-1.679l-2-1.569V20.942z M24,7.025V1c0-0.553-0.447-1-1-1c-0.233,0-0.438,0.093-0.608,0.227l-0.01-0.013
			l-14,11l0.01,0.013C8.159,11.409,8,11.681,8,12s0.159,0.591,0.392,0.773l-0.01,0.013l14,11l0.01-0.013
			C22.562,23.908,22.767,24,23,24c0.553,0,1-0.447,1-1v-5.968c14.276,0.208,18.158,4.569,18.188,4.605l1.781,2.226v-2.852
			C43.969,9.02,30.745,7.182,24,7.025z M23.067,15.014C23.044,15.012,23.023,15,23,15c-0.553,0-1,0.447-1,1v4.942L10.618,12
			L22,3.058V8c0,0.541,0.432,0.977,0.969,0.994v0.018c11.037,0,17.607,3.459,18.802,9.802C39.184,17.23,33.677,15.027,23.067,15.014
			z"/>
	</g>
</g>
<g>
</g>
<g>
</g>
<g>
</g>
<g>
</g>
<g>
</g>
<g>
</g>
<g>
</g>
<g>
</g>
<g>
</g>
<g>
</g>
<g>
</g>
<g>
</g>
<g>
</g>
<g>
</g>
<g>
</g>
</svg>
