<?xml version="1.0" encoding="iso-8859-1"?>
<!-- Generator: Adobe Illustrator 16.0.4, SVG Export Plug-In . SVG Version: 6.00 Build 0)  -->
<!DOCTYPE svg PUBLIC "-//W3C//DTD SVG 1.1//EN" "http://www.w3.org/Graphics/SVG/1.1/DTD/svg11.dtd">
<svg version="1.1" id="Layer_1" xmlns="http://www.w3.org/2000/svg" xmlns:xlink="http://www.w3.org/1999/xlink" x="0px" y="0px"
	 width="56px" height="42px" viewBox="0 0 56 42" style="enable-background:new 0 0 56 42;" xml:space="preserve">
<g id="_x37_12-reply_x40_2x.png">
	<g>
		<path d="M28,14V1c0-0.552-0.447-1-1-1c-0.221,0-0.414,0.086-0.579,0.207L26.41,0.193l-26,18.999l0.011,0.015
			C0.172,19.389,0,19.669,0,20c0,0.332,0.172,0.611,0.421,0.793L0.41,20.808l26,19l0.011-0.015C26.586,39.914,26.779,40,27,40
			c0.553,0,1-0.447,1-1V26c19,0,28,16,28,16C56,14,28,14,28,14z M28,24c0,0-2,0-2,2v11.031L2.695,20L26,2.97V14c0,2,2,2,2,2
			s21-0.833,26,20.167C54,36.167,44,24,28,24z"/>
	</g>
</g>
<g>
</g>
<g>
</g>
<g>
</g>
<g>
</g>
<g>
</g>
<g>
</g>
<g>
</g>
<g>
</g>
<g>
</g>
<g>
</g>
<g>
</g>
<g>
</g>
<g>
</g>
<g>
</g>
<g>
</g>
</svg>
