<?xml version="1.0" encoding="iso-8859-1"?>
<!-- Generator: Adobe Illustrator 16.0.4, SVG Export Plug-In . SVG Version: 6.00 Build 0)  -->
<!DOCTYPE svg PUBLIC "-//W3C//DTD SVG 1.1//EN" "http://www.w3.org/Graphics/SVG/1.1/DTD/svg11.dtd">
<svg version="1.1" id="Layer_1" xmlns="http://www.w3.org/2000/svg" xmlns:xlink="http://www.w3.org/1999/xlink" x="0px" y="0px"
	 width="56.021px" height="32px" viewBox="0 0 56.021 32" style="enable-background:new 0 0 56.021 32;" xml:space="preserve">
<g id="_x31_025-reply-all_x40_2x.png">
	<g>
		<path d="M18,28.865L2.562,16L18,3.135v3.437l2-1.714V1c0-0.553-0.447-1-1-1c-0.243,0-0.458,0.098-0.632,0.242l-0.009-0.011l-18,15
			l0.009,0.011C0.148,15.426,0,15.691,0,16s0.148,0.574,0.368,0.758l-0.009,0.011l18,15l0.009-0.011C18.542,31.902,18.757,32,19,32
			c0.553,0,1-0.447,1-1v-3.857l-2-1.714V28.865z M51.336,16.4C45.244,10.558,35.181,10.013,32,9.991V1c0-0.553-0.447-1-1-1
			c-0.243,0-0.458,0.098-0.632,0.242l-0.009-0.011l-18,15l0.009,0.011C12.148,15.426,12,15.691,12,16s0.148,0.574,0.368,0.758
			l-0.009,0.011l18,15l0.009-0.011C30.542,31.902,30.757,32,31,32c0.553,0,1-0.447,1-1v-8.981
			c18.104,0.196,22.158,5.505,22.188,5.547l1.832,2.748v-3.303C56.021,22.288,54.444,19.382,51.336,16.4z M31,20
			c-0.553,0-1,0.447-1,1v7.865L14.562,16L30,3.135V11c0,0.553,0.447,1,1,1c0.125-0.01,12.412-0.429,18.952,5.844
			c2.177,2.089,3.489,3.718,3.915,6.837C51.03,22.771,44.564,20,31,20z"/>
	</g>
</g>
<g>
</g>
<g>
</g>
<g>
</g>
<g>
</g>
<g>
</g>
<g>
</g>
<g>
</g>
<g>
</g>
<g>
</g>
<g>
</g>
<g>
</g>
<g>
</g>
<g>
</g>
<g>
</g>
<g>
</g>
</svg>
