<?xml version="1.0" encoding="iso-8859-1"?>
<!-- Generator: Adobe Illustrator 16.0.4, SVG Export Plug-In . SVG Version: 6.00 Build 0)  -->
<!DOCTYPE svg PUBLIC "-//W3C//DTD SVG 1.1//EN" "http://www.w3.org/Graphics/SVG/1.1/DTD/svg11.dtd">
<svg version="1.1" id="Layer_1" xmlns="http://www.w3.org/2000/svg" xmlns:xlink="http://www.w3.org/1999/xlink" x="0px" y="0px"
	 width="44px" height="28px" viewBox="0 0 44 28" style="enable-background:new 0 0 44 28;" xml:space="preserve">
<g id="_x31_050-retweet-toolbar_x40_2x.png">
	<g>
		<path d="M43,20c-0.276,0-0.526,0.112-0.707,0.293L38,24.586V1c0-0.552-0.447-1-1-1H14c-0.552,0-1,0.448-1,1c0,0.553,0.448,1,1,1
			h0.001H36v22.586l-4.293-4.293C31.526,20.112,31.276,20,31,20c-0.553,0-1,0.447-1,1c0,0.276,0.112,0.526,0.293,0.707l6,6
			C36.474,27.889,36.724,28,37,28s0.526-0.111,0.707-0.293l6-6C43.888,21.526,44,21.276,44,21C44,20.447,43.553,20,43,20z M30,26H8
			V3.414l4.293,4.293C12.474,7.888,12.724,8,13,8c0.553,0,1-0.448,1-1c0-0.276-0.112-0.526-0.293-0.707l-6-6
			C7.526,0.111,7.276,0,7,0S6.474,0.111,6.293,0.293l-6,6C0.112,6.474,0,6.724,0,7c0,0.552,0.448,1,1,1
			c0.276,0,0.526-0.112,0.707-0.293L6,3.414V27c0,0.552,0.447,1,1,1h22.999H30c0.553,0,1-0.447,1-1C31,26.448,30.553,26,30,26z"/>
	</g>
</g>
<g>
</g>
<g>
</g>
<g>
</g>
<g>
</g>
<g>
</g>
<g>
</g>
<g>
</g>
<g>
</g>
<g>
</g>
<g>
</g>
<g>
</g>
<g>
</g>
<g>
</g>
<g>
</g>
<g>
</g>
</svg>
