<?xml version="1.0" encoding="iso-8859-1"?>
<!-- Generator: Adobe Illustrator 16.0.4, SVG Export Plug-In . SVG Version: 6.00 Build 0)  -->
<!DOCTYPE svg PUBLIC "-//W3C//DTD SVG 1.1//EN" "http://www.w3.org/Graphics/SVG/1.1/DTD/svg11.dtd">
<svg version="1.1" id="Layer_1" xmlns="http://www.w3.org/2000/svg" xmlns:xlink="http://www.w3.org/1999/xlink" x="0px" y="0px"
	 width="56px" height="32px" viewBox="0 0 56 32" style="enable-background:new 0 0 56 32;" xml:space="preserve">
<g id="_x31_050-retweet_x40_2x.png">
	<g>
		<path d="M38,30H12V3.414l8.293,8.293C20.474,11.888,20.724,12,21,12c0.553,0,1-0.447,1-1c0-0.276-0.112-0.526-0.293-0.707l-10-10
			C11.526,0.112,11.276,0,11,0s-0.526,0.112-0.707,0.293l-10,10C0.112,10.474,0,10.724,0,11c0,0.553,0.447,1,1,1
			c0.276,0,0.526-0.112,0.707-0.293L10,3.414V31c0,0.552,0.447,1,1,1h26.999H38c0.553,0,1-0.447,1-1C39,30.448,38.553,30,38,30z
			 M55,20c-0.276,0-0.526,0.112-0.707,0.293L46,28.586V1c0-0.552-0.447-1-1-1H18c-0.552,0-1,0.448-1,1c0,0.553,0.448,1,1,1h0.001H44
			v26.586l-8.293-8.293C35.526,20.112,35.276,20,35,20c-0.553,0-1,0.448-1,1c0,0.276,0.112,0.526,0.293,0.707l10,10
			C44.474,31.889,44.724,32,45,32s0.526-0.111,0.707-0.293l10-10C55.888,21.526,56,21.276,56,21C56,20.448,55.553,20,55,20z"/>
	</g>
</g>
<g>
</g>
<g>
</g>
<g>
</g>
<g>
</g>
<g>
</g>
<g>
</g>
<g>
</g>
<g>
</g>
<g>
</g>
<g>
</g>
<g>
</g>
<g>
</g>
<g>
</g>
<g>
</g>
<g>
</g>
</svg>
