<?xml version="1.0" encoding="iso-8859-1"?>
<!-- Generator: Adobe Illustrator 16.0.4, SVG Export Plug-In . SVG Version: 6.00 Build 0)  -->
<!DOCTYPE svg PUBLIC "-//W3C//DTD SVG 1.1//EN" "http://www.w3.org/Graphics/SVG/1.1/DTD/svg11.dtd">
<svg version="1.1" id="Layer_1" xmlns="http://www.w3.org/2000/svg" xmlns:xlink="http://www.w3.org/1999/xlink" x="0px" y="0px"
	 width="48.033px" height="56px" viewBox="0 0 48.033 56" style="enable-background:new 0 0 48.033 56;" xml:space="preserve">
<g id="_x31_026-revert_x40_2x.png">
	<g>
		<path d="M23,0c0,0-7.594-0.031-7.969,0.594c0,0,1.281,0.125,7.969,1.406c0.574,0.038,14.033,1.106,14.033,16
			c0,10.98-9.848,12.687-13.033,12.95V19c0-0.553-0.447-1-1-1c-0.24,0-0.452,0.096-0.624,0.237l-0.009-0.011l-22,18l0.009,0.011
			C0.151,36.421,0,36.688,0,37s0.151,0.58,0.376,0.763l-0.009,0.011l22,18.001l0.009-0.012C22.548,55.904,22.76,56,23,56
			c0.553,0,1-0.447,1-1V42.96c4.578-0.278,24.033-2.548,24.033-20.96C48.033,0.252,23.25,0,23,0z M34.699,38.556
			C28.951,40.965,23.091,41,23.032,41v0.007C23.021,41.006,23.012,41,23,41c-0.553,0-1,0.447-1,1v10.89L2.579,37L22,21.11V32
			c0,0.553,0.447,1,1,1c0.012,0,0.021-0.006,0.033-0.007V33c0.16,0,16-0.172,16-15c0-7.29-2.99-11.642-6.381-14.232
			c0.655,0.228,1.317,0.483,1.98,0.773c7.564,3.31,11.4,9.184,11.4,17.459C46.033,29.834,42.22,35.403,34.699,38.556z"/>
	</g>
</g>
<g>
</g>
<g>
</g>
<g>
</g>
<g>
</g>
<g>
</g>
<g>
</g>
<g>
</g>
<g>
</g>
<g>
</g>
<g>
</g>
<g>
</g>
<g>
</g>
<g>
</g>
<g>
</g>
<g>
</g>
</svg>
