<?xml version="1.0" encoding="UTF-8" standalone="no"?>
<svg width="58px" height="58px" viewBox="0 0 58 58" version="1.1" xmlns="http://www.w3.org/2000/svg" xmlns:xlink="http://www.w3.org/1999/xlink" xmlns:sketch="http://www.bohemiancoding.com/sketch/ns">
    <!-- Generator: Sketch 3.0.4 (8053) - http://www.bohemiancoding.com/sketch -->
    <title>1245-rewind</title>
    <desc>Created with Sketch.</desc>
    <defs></defs>
    <g id="Page-1" stroke="none" stroke-width="1" fill="none" fill-rule="evenodd" sketch:type="MSPage">
        <g id="Glyphish-8-Icons" sketch:type="MSArtboardGroup" transform="translate(-404.000000, -1363.000000)" fill="#000000">
            <g id="1245-rewind" sketch:type="MSLayerGroup" transform="translate(404.036996, 1363.860499)">
                <g id="_x31_245-rewind_x40_2x.png" sketch:type="MSShapeGroup">
                    <path d="M41,16 C40.761,16 40.55,16.096 40.378,16.235 L40.369,16.224 L28,24.729 L28,17 C28,16.447 27.552,16 27,16 C26.761,16 26.55,16.096 26.378,16.235 L26.369,16.224 L10.369,27.224 L10.378,27.235 C10.153,27.419 10,27.687 10,28 C10,28.313 10.153,28.582 10.378,28.765 L10.369,28.777 L26.369,39.777 L26.378,39.765 C26.551,39.904 26.761,40 27,40 C27.552,40 28,39.553 28,39 L28,31.272 L40.37,39.776 L40.379,39.764 C40.551,39.904 40.761,40 41,40 C41.552,40 42,39.553 42,39 L42,17 C42,16.447 41.552,16 41,16 L41,16 Z M28,0 C12.536,0 0,12.536 0,28 C0,43.464 12.536,56 28,56 C43.464,56 56,43.464 56,28 C56,12.536 43.464,0 28,0 L28,0 Z M28,54 C13.641,54 2,42.359 2,28 C2,13.641 13.641,2 28,2 C42.359,2 54,13.641 54,28 C54,42.359 42.359,54 28,54 L28,54 Z" id="Shape"></path>
                </g>
            </g>
        </g>
    </g>
</svg>