<?xml version="1.0" encoding="iso-8859-1"?>
<!-- Generator: Adobe Illustrator 16.0.4, SVG Export Plug-In . SVG Version: 6.00 Build 0)  -->
<!DOCTYPE svg PUBLIC "-//W3C//DTD SVG 1.1//EN" "http://www.w3.org/Graphics/SVG/1.1/DTD/svg11.dtd">
<svg version="1.1" id="Layer_1" xmlns="http://www.w3.org/2000/svg" xmlns:xlink="http://www.w3.org/1999/xlink" x="0px" y="0px"
	 width="56px" height="56px" viewBox="0 0 56 56" style="enable-background:new 0 0 56 56;" xml:space="preserve">
<g id="_x31_065-rewind-time-1_x40_2x.png">
	<g>
		<path d="M28,0C13.642,0,4.938,11.585,2,16.275V5c0-0.553-0.447-1-1-1S0,4.447,0,5v14c0,0.553,0.447,1,1,1h14c0.553,0,1-0.447,1-1
			s-0.447-1-1-1H3.197C5.84,13.638,14.186,2,28,2c14.359,0,26,11.641,26,26S42.359,54,28,54c-5.741,0-11.03-1.884-15.332-5.035
			l-0.026,0.034C12.467,48.85,12.248,48.75,12,48.75c-0.553,0-1,0.447-1,1c0,0.424,0.267,0.782,0.639,0.927
			C16.245,54.008,21.882,56,28,56c15.464,0,28-12.536,28-28S43.464,0,28,0z M27,16c-0.553,0-1,0.447-1,1v14c0,0.553,0.447,1,1,1h8
			c0.553,0,1-0.447,1-1s-0.447-1-1-1h-7V17C28,16.447,27.553,16,27,16z"/>
	</g>
</g>
<g>
</g>
<g>
</g>
<g>
</g>
<g>
</g>
<g>
</g>
<g>
</g>
<g>
</g>
<g>
</g>
<g>
</g>
<g>
</g>
<g>
</g>
<g>
</g>
<g>
</g>
<g>
</g>
<g>
</g>
</svg>
