<?xml version="1.0" encoding="iso-8859-1"?>
<!-- Generator: Adobe Illustrator 16.0.4, SVG Export Plug-In . SVG Version: 6.00 Build 0)  -->
<!DOCTYPE svg PUBLIC "-//W3C//DTD SVG 1.1//EN" "http://www.w3.org/Graphics/SVG/1.1/DTD/svg11.dtd">
<svg version="1.1" id="Layer_1" xmlns="http://www.w3.org/2000/svg" xmlns:xlink="http://www.w3.org/1999/xlink" x="0px" y="0px"
	 width="44px" height="44px" viewBox="0 0 44 44" style="enable-background:new 0 0 44 44;" xml:space="preserve">
<g id="_x31_065-rewind-time-1-toolbar_x40_2x.png">
	<g>
		<path d="M22,0C13.818,0,6.042,4.477,2.012,11.107V2.991H2.011c0-0.001,0.001-0.002,0.001-0.003c0-0.555-0.45-1.005-1.006-1.005
			S0,2.434,0,2.988C0,2.989,0.001,2.99,0.001,2.991H0v11h0.001c0.001,0.554,0.45,1.003,1.005,1.003c0.001,0,0.002,0,0.003,0v0.018
			H11.98v-0.001c0.001,0,0.002,0.001,0.002,0.001c0.555,0,1.004-0.45,1.004-1.006S12.537,13,11.982,13c0,0-0.001,0-0.002,0H3.213
			C6.702,6.48,14.196,2,22,2c11.046,0,20,8.954,20,20s-8.954,20-20,20c-4.671,0-8.958-1.614-12.361-4.298l-0.021,0.026
			c-0.174-0.143-0.388-0.24-0.63-0.24c-0.555,0-1.006,0.451-1.006,1.006c0,0.422,0.261,0.78,0.628,0.93
			C12.322,42.281,16.954,44,22,44c12.15,0,22-9.85,22-22S34.15,0,22,0z M19.988,25.014h0.004c0.009,0.536,0.452,0.97,1.002,0.97
			c0.001,0,0.001,0,0.002,0H27c0.556,0,1.006-0.441,1.006-0.986c0-0.544-0.45-0.985-1.006-0.985h-5v-9.998h-0.003
			c0-0.006,0.003-0.011,0.003-0.017c0-0.544-0.45-0.985-1.006-0.985s-1.006,0.441-1.006,0.985c0,0.006,0.004,0.011,0.004,0.017
			h-0.004V25.014z"/>
	</g>
</g>
<g>
</g>
<g>
</g>
<g>
</g>
<g>
</g>
<g>
</g>
<g>
</g>
<g>
</g>
<g>
</g>
<g>
</g>
<g>
</g>
<g>
</g>
<g>
</g>
<g>
</g>
<g>
</g>
<g>
</g>
</svg>
