<?xml version="1.0" encoding="iso-8859-1"?>
<!-- Generator: Adobe Illustrator 16.0.4, SVG Export Plug-In . SVG Version: 6.00 Build 0)  -->
<!DOCTYPE svg PUBLIC "-//W3C//DTD SVG 1.1//EN" "http://www.w3.org/Graphics/SVG/1.1/DTD/svg11.dtd">
<svg version="1.1" id="Layer_1" xmlns="http://www.w3.org/2000/svg" xmlns:xlink="http://www.w3.org/1999/xlink" x="0px" y="0px"
	 width="55.99px" height="55.99px" viewBox="0 0 55.99 55.99" style="enable-background:new 0 0 55.99 55.99;" xml:space="preserve"
	>
<g id="_x38_96-road-sign_x40_2x.png">
	<g>
		<path d="M54.82,25.172L30.819,1.17c-1.56-1.56-4.088-1.56-5.647,0L1.17,25.172c-1.56,1.56-1.56,4.088,0,5.647L25.172,54.82
			c1.56,1.56,4.088,1.56,5.647,0L54.82,30.819C56.38,29.26,56.38,26.731,54.82,25.172z M53.408,29.407L29.407,53.408
			c-0.78,0.78-2.044,0.78-2.824,0L2.582,29.407c-0.78-0.779-0.78-2.044,0-2.824L26.583,2.582c0.78-0.78,2.044-0.78,2.824,0
			l24.001,24.001C54.188,27.363,54.188,28.628,53.408,29.407z M37.011,14.011h-12c-0.553,0-1,0.447-1,1
			c0,0.276,0.112,0.526,0.293,0.707l3.112,3.112c-5.703,5.121-9.405,13.304-9.405,21.181c0,0.553,0.447,1,1,1h6c0.553,0,1-0.447,1-1
			c0-8.405,4.286-13.236,7.082-15.503l3.211,3.21c0.181,0.182,0.431,0.293,0.707,0.293c0.553,0,1-0.447,1-1v-12
			C38.011,14.458,37.563,14.011,37.011,14.011z M36.011,24.597l-2.687-2.687c-2.749,1.849-8.834,7.055-9.217,17.103H20.11
			c0.316-7.547,4.556-15.62,10.261-20.056l-2.946-2.946h8.586V24.597z"/>
	</g>
</g>
<g>
</g>
<g>
</g>
<g>
</g>
<g>
</g>
<g>
</g>
<g>
</g>
<g>
</g>
<g>
</g>
<g>
</g>
<g>
</g>
<g>
</g>
<g>
</g>
<g>
</g>
<g>
</g>
<g>
</g>
</svg>
