<?xml version="1.0" encoding="iso-8859-1"?>
<!-- Generator: Adobe Illustrator 16.0.4, SVG Export Plug-In . SVG Version: 6.00 Build 0)  -->
<!DOCTYPE svg PUBLIC "-//W3C//DTD SVG 1.1//EN" "http://www.w3.org/Graphics/SVG/1.1/DTD/svg11.dtd">
<svg version="1.1" id="Layer_1" xmlns="http://www.w3.org/2000/svg" xmlns:xlink="http://www.w3.org/1999/xlink" x="0px" y="0px"
	 width="44px" height="44px" viewBox="0 0 44 44" style="enable-background:new 0 0 44 44;" xml:space="preserve">
<g id="_x38_96-road-sign-toolbar_x40_2x.png">
	<g>
		<path d="M29,13h-8c-0.553,0-1,0.448-1,1c0,0.553,0.447,1,1,1h6.05c-2.981,1.881-9.624,6.924-12.037,15.771l0.031,0.01
			C15.027,30.854,15,30.922,15,31c0,0.553,0.447,1,1,1c0.447,0,0.812-0.299,0.94-0.703h0.001C19.118,23.317,25.217,18.584,28,16.779
			V22c0,0.553,0.447,1,1,1s1-0.447,1-1v-8C30,13.448,29.553,13,29,13z M43.121,19.879l-19-19C23.578,0.336,22.828,0,22,0
			s-1.578,0.336-2.121,0.879l-19,19C0.336,20.422,0,21.172,0,22s0.336,1.578,0.879,2.121l19,19C20.422,43.664,21.172,44,22,44
			s1.578-0.336,2.121-0.879l19-19C43.664,23.578,44,22.828,44,22S43.664,20.422,43.121,19.879z M41.707,22.707l-19,19
			C22.526,41.888,22.276,42,22,42s-0.526-0.112-0.707-0.293l-19-19C2.112,22.526,2,22.276,2,22s0.112-0.526,0.293-0.707l19-19
			C21.474,2.112,21.724,2,22,2s0.526,0.112,0.707,0.293l19,19C41.888,21.474,42,21.724,42,22S41.888,22.526,41.707,22.707z"/>
	</g>
</g>
<g>
</g>
<g>
</g>
<g>
</g>
<g>
</g>
<g>
</g>
<g>
</g>
<g>
</g>
<g>
</g>
<g>
</g>
<g>
</g>
<g>
</g>
<g>
</g>
<g>
</g>
<g>
</g>
<g>
</g>
</svg>
