<?xml version="1.0" encoding="iso-8859-1"?>
<!-- Generator: Adobe Illustrator 16.0.4, SVG Export Plug-In . SVG Version: 6.00 Build 0)  -->
<!DOCTYPE svg PUBLIC "-//W3C//DTD SVG 1.1//EN" "http://www.w3.org/Graphics/SVG/1.1/DTD/svg11.dtd">
<svg version="1.1" id="Layer_1" xmlns="http://www.w3.org/2000/svg" xmlns:xlink="http://www.w3.org/1999/xlink" x="0px" y="0px"
	 width="24px" height="43.996px" viewBox="0 0 24 43.996" style="enable-background:new 0 0 24 43.996;" xml:space="preserve">
<g id="_x38_57-rocket-toolbar_x40_2x.png">
	<g>
		<path d="M12,18.998c-1.104,0-2,0.896-2,2s0.896,2,2,2s2-0.896,2-2S13.104,18.998,12,18.998z M12,10.998c-1.104,0-2,0.896-2,2
			s0.896,2,2,2s2-0.896,2-2S13.104,10.998,12,10.998z M19,27.053c2.565-3.994,3-7.052,3-12.021C22,7.001,14,0,12,0S2,7.001,2,15.031
			c0,4.97,0.434,8.027,3,12.021l-5,8.012v8.932l8-7.93l4,7.93l4-7.93l8,7.93v-8.932L19,27.053z M22,39.197l-4.592-4.552
			l-1.955-1.937l-1.238,2.457L12,39.556l-2.215-4.39l-1.238-2.457l-1.955,1.937L2,39.197v-3.56l4.697-7.526l0.67-1.074l-0.685-1.065
			C4.387,22.399,4,19.71,4,15.031c0-6.485,6.123-12.242,8-12.989c1.877,0.747,8,6.504,8,12.989c0,4.677-0.387,7.367-2.683,10.94
			l-0.685,1.065l0.67,1.074L22,35.638V39.197z"/>
	</g>
</g>
<g>
</g>
<g>
</g>
<g>
</g>
<g>
</g>
<g>
</g>
<g>
</g>
<g>
</g>
<g>
</g>
<g>
</g>
<g>
</g>
<g>
</g>
<g>
</g>
<g>
</g>
<g>
</g>
<g>
</g>
</svg>
