<?xml version="1.0" encoding="iso-8859-1"?>
<!-- Generator: Adobe Illustrator 16.0.4, SVG Export Plug-In . SVG Version: 6.00 Build 0)  -->
<!DOCTYPE svg PUBLIC "-//W3C//DTD SVG 1.1//EN" "http://www.w3.org/Graphics/SVG/1.1/DTD/svg11.dtd">
<svg version="1.1" id="Layer_1" xmlns="http://www.w3.org/2000/svg" xmlns:xlink="http://www.w3.org/1999/xlink" x="0px" y="0px"
	 width="28px" height="55.997px" viewBox="0 0 28 55.997" style="enable-background:new 0 0 28 55.997;" xml:space="preserve">
<g id="_x38_57-rocket_x40_2x.png">
	<g>
		<path d="M21,37.055c2.566-3.995,5-9.168,5-15.022C26,9.644,16,0,14,0S2,9.644,2,22.032c0,5.854,2.434,11.027,5,15.022l-7,8.011
			v10.932l10-9.93l4,9.93l4-9.93l10,9.93V45.065L21,37.055z M26,51.19l-6.592-6.545l-2.137-2.122l-1.126,2.795L14,50.643
			l-2.145-5.324l-1.127-2.795l-2.137,2.122L2,51.002v-5l6.506-7.629l0.99-1.135l-0.814-1.268C5.531,31.065,4,26.508,4,22.032
			C4,11.602,11.762,3.385,14,2.105c2.238,1.279,10,9.496,10,19.927c0,4.476-1.531,9.033-4.682,13.938l-0.814,1.268l0.99,1.135
			L26,45.818V51.19z M14,12.002c-2.209,0-4,1.791-4,4s1.791,4,4,4s4-1.791,4-4S16.209,12.002,14,12.002z M14,18.002
			c-1.104,0-2-0.896-2-2s0.896-2,2-2s2,0.896,2,2S15.104,18.002,14,18.002z M14,22.002c-2.209,0-4,1.791-4,4s1.791,4,4,4
			s4-1.791,4-4S16.209,22.002,14,22.002z M14,28.002c-1.104,0-2-0.896-2-2s0.896-2,2-2s2,0.896,2,2S15.104,28.002,14,28.002z"/>
	</g>
</g>
<g>
</g>
<g>
</g>
<g>
</g>
<g>
</g>
<g>
</g>
<g>
</g>
<g>
</g>
<g>
</g>
<g>
</g>
<g>
</g>
<g>
</g>
<g>
</g>
<g>
</g>
<g>
</g>
<g>
</g>
</svg>
