<?xml version="1.0" encoding="iso-8859-1"?>
<!-- Generator: Adobe Illustrator 16.0.4, SVG Export Plug-In . SVG Version: 6.00 Build 0)  -->
<!DOCTYPE svg PUBLIC "-//W3C//DTD SVG 1.1//EN" "http://www.w3.org/Graphics/SVG/1.1/DTD/svg11.dtd">
<svg version="1.1" id="Layer_1" xmlns="http://www.w3.org/2000/svg" xmlns:xlink="http://www.w3.org/1999/xlink" x="0px" y="0px"
	 width="44.006px" height="34.99px" viewBox="0 0 44.006 34.99" style="enable-background:new 0 0 44.006 34.99;"
	 xml:space="preserve">
<g id="_x31_110-rotate_x40_2x.png">
	<g>
		<path d="M43.77,21.1C43.814,21.268,43.811,21.252,43.77,21.1L43.77,21.1z M9,4.981L9,4.981c2.043,0.002,4.099,1.592,5.303,4H13
			c-0.553,0-1,0.448-1,1c0,0.553,0.447,1,1,1h4c0.553,0,1-0.447,1-1v-4c0-0.552-0.447-1-1-1s-1,0.448-1,1v1.942
			C14.444,4.95,11.777,3.03,9,3.028V2.981c-3.727,0-6.849,2.552-7.737,6h2.104C4.194,6.656,6.392,4.981,9,4.981z M43.61,20.507
			c-0.61-2.277-2.458-9.173-2.458-9.173c-0.429-1.6-2.073-2.55-3.674-2.121c-0.382,0.103-0.723,0.277-1.021,0.501
			c-0.664-1.144-2.022-1.756-3.36-1.397c-0.382,0.103-0.724,0.277-1.021,0.501c-0.663-1.144-2.022-1.756-3.36-1.397
			c-0.341,0.091-0.644,0.247-0.918,0.437l-1.904-5.633c-0.522-1.6-2.074-2.55-3.675-2.121c-1.6,0.429-2.55,2.074-2.121,3.675
			l5.229,18.499l-6.154-3.065c0,0-0.861-0.426-1.972-0.128c-1.601,0.43-2.441,2.049-2.121,3.675
			c0.119,0.606,0.735,1.306,0.735,1.306l8.247,7.232c2.807,3.027,7.15,4.442,11.415,3.3C41.613,32.953,45.255,26.644,43.61,20.507z
			 M34.96,32.665c-6.343,1.369-9.198-2.495-9.198-2.495l-8.618-7.664c-0.053-0.083-0.105-0.166-0.132-0.265
			c-0.144-0.534,0.174-1.082,0.707-1.226c0.43-0.115,0.794,0.091,0.791,0.128l7.986,4.11c0,0,0.317,0.293,0.824,0.141
			c0.528-0.159,0.85-0.691,0.707-1.225L22.029,3.26c-0.143-0.534,0.174-1.082,0.707-1.226c0.534-0.143,1.145,0.174,1.288,0.707
			l3.605,12.217c0.143,0.533,0.691,0.85,1.225,0.707c0.533-0.144,0.851-0.691,0.707-1.225l-1.035-3.864
			c-0.143-0.533,0.174-1.082,0.707-1.225s1.082,0.174,1.225,0.707l1.553,5.796c0.144,0.533,0.691,0.85,1.226,0.707
			c0.533-0.144,0.85-0.691,0.707-1.225l-1.035-3.864c-0.144-0.533,0.173-1.081,0.707-1.225c0.533-0.143,1.081,0.174,1.225,0.707
			l1.553,5.796c0.143,0.533,0.691,0.85,1.225,0.707s0.85-0.691,0.707-1.225l-1.035-3.864c-0.143-0.533,0.174-1.081,0.707-1.225
			c0.533-0.143,1.082,0.174,1.225,0.707c0,0,2.403,8.969,2.633,9.823c-0.027-0.1-0.082-0.306-0.175-0.65
			C43.037,26.095,40.09,31.557,34.96,32.665z M43.61,20.507c0.055,0.203,0.093,0.346,0.124,0.46
			C43.702,20.849,43.661,20.697,43.61,20.507z M14.633,12.981c-0.826,2.325-3.024,4-5.633,4v0.001
			c-2.043-0.002-4.099-1.593-5.303-4.001H5c0.553,0,1-0.447,1-1c0-0.552-0.447-1-1-1H1c-0.553,0-1,0.448-1,1v4c0,0.553,0.447,1,1,1
			s1-0.447,1-1v-1.942c1.556,2.974,4.223,4.894,7,4.896v0.047c3.727,0,6.849-2.551,7.738-6H14.633z"/>
	</g>
</g>
<g>
</g>
<g>
</g>
<g>
</g>
<g>
</g>
<g>
</g>
<g>
</g>
<g>
</g>
<g>
</g>
<g>
</g>
<g>
</g>
<g>
</g>
<g>
</g>
<g>
</g>
<g>
</g>
<g>
</g>
</svg>
