<?xml version="1.0" encoding="UTF-8" standalone="no"?>
<svg width="57px" height="50px" viewBox="0 0 57 50" version="1.1" xmlns="http://www.w3.org/2000/svg" xmlns:xlink="http://www.w3.org/1999/xlink" xmlns:sketch="http://www.bohemiancoding.com/sketch/ns">
    <!-- Generator: Sketch 3.0.4 (8053) - http://www.bohemiancoding.com/sketch -->
    <title>1110-rotate</title>
    <desc>Created with Sketch.</desc>
    <defs></defs>
    <g id="Page-1" stroke="none" stroke-width="1" fill="none" fill-rule="evenodd" sketch:type="MSPage">
        <g id="Glyphish-8-Icons" sketch:type="MSArtboardGroup" transform="translate(-884.000000, -23.000000)" fill="#000000">
            <g id="1110-rotate" sketch:type="MSLayerGroup" transform="translate(884.036996, 23.860499)">
                <g id="_x31_110-rotate_x40_2x.png" sketch:type="MSShapeGroup">
                    <path d="M9,14.017 L9,14.017 C11.043,14.019 13.099,15.609 14.303,18.017 L13,18.017 C12.447,18.017 12,18.465 12,19.017 C12,19.57 12.447,20.017 13,20.017 L17,20.017 C17.553,20.017 18,19.57 18,19.017 L18,15.017 C18,14.465 17.553,14.017 17,14.017 C16.447,14.017 16,14.465 16,15.017 L16,16.959 C14.444,13.985 11.777,12.065 9,12.063 L9,12.016 C5.273,12.016 2.151,14.568 1.263,18.016 L3.367,18.016 C4.194,15.692 6.392,14.017 9,14.017 L9,14.017 Z M55.461,27.847 C55.461,27.846 55.46,27.846 55.46,27.845 L51.837,14.324 C51.266,12.19 49.072,10.924 46.939,11.496 C46.137,11.711 45.459,12.154 44.954,12.737 C44.022,11.372 42.312,10.665 40.626,11.117 C39.824,11.332 39.146,11.775 38.641,12.358 C37.71,10.993 35.999,10.286 34.313,10.738 C33.604,10.927 33.003,11.308 32.522,11.795 L30.155,2.966 C29.583,0.832 27.389,-0.434 25.256,0.138 C23.122,0.709 21.856,2.903 22.428,5.036 L30.145,33.816 L21.018,31.114 L21.011,31.134 C20.355,30.958 19.652,30.931 18.949,31.119 C16.815,31.69 15.55,33.884 16.121,36.017 C16.421,37.135 17.171,38.005 18.118,38.507 L18.114,38.518 L32.686,46.224 L32.698,46.2 C36.11,47.956 40.151,48.514 44.149,47.443 C52.683,45.156 57.748,36.382 55.461,27.847 L55.461,27.847 Z M43.629,45.511 C40.116,46.452 36.564,45.962 33.574,44.408 L35.319,40.846 L33.541,44.404 L19.047,36.75 L19.049,36.744 C18.575,36.493 18.2,36.058 18.05,35.499 C17.765,34.433 18.398,33.336 19.464,33.05 C19.818,32.955 20.194,32.998 20.552,33.124 L20.572,33.077 L31.338,36.241 L31.338,36.24 C31.497,36.279 31.662,36.294 31.831,36.249 C32.364,36.105 32.681,35.558 32.538,35.024 L24.358,4.517 C24.072,3.451 24.706,2.354 25.772,2.068 C26.839,1.782 27.936,2.416 28.221,3.482 L32.776,20.466 L32.778,20.465 C32.921,20.998 33.469,21.315 34.003,21.172 C34.536,21.028 34.854,20.481 34.71,19.947 C34.71,19.947 34.71,19.947 34.71,19.946 L33.416,15.117 C33.13,14.051 33.764,12.954 34.83,12.668 C35.897,12.382 36.994,13.016 37.28,14.082 L39.092,20.844 C39.235,21.377 39.783,21.694 40.317,21.551 C40.851,21.408 41.167,20.86 41.024,20.326 L39.73,15.496 C39.444,14.43 40.077,13.333 41.144,13.047 C42.21,12.761 43.308,13.395 43.593,14.461 L45.405,21.223 L45.406,21.223 C45.549,21.756 46.096,22.073 46.631,21.93 C47.164,21.787 47.481,21.239 47.338,20.705 L46.044,15.876 C46.044,15.876 46.044,15.875 46.043,15.875 C45.758,14.809 46.391,13.712 47.458,13.426 C48.524,13.14 49.621,13.774 49.907,14.84 L53.53,28.363 C55.53,35.833 51.098,43.509 43.629,45.511 L43.629,45.511 Z M14.633,22.017 C13.807,24.342 11.609,26.017 9,26.017 L9,26.018 C6.957,26.016 4.901,24.425 3.697,22.017 L5,22.017 C5.553,22.017 6,21.57 6,21.017 C6,20.465 5.553,20.017 5,20.017 L1,20.017 C0.447,20.017 0,20.465 0,21.017 L0,25.017 C0,25.57 0.447,26.017 1,26.017 C1.553,26.017 2,25.57 2,25.017 L2,23.075 C3.556,26.049 6.223,27.969 9,27.971 L9,28.018 C12.727,28.018 15.849,25.466 16.738,22.018 L14.633,22.018 L14.633,22.017 Z" id="Shape"></path>
                </g>
            </g>
        </g>
    </g>
</svg>