<?xml version="1.0" encoding="iso-8859-1"?>
<!-- Generator: Adobe Illustrator 16.0.4, SVG Export Plug-In . SVG Version: 6.00 Build 0)  -->
<!DOCTYPE svg PUBLIC "-//W3C//DTD SVG 1.1//EN" "http://www.w3.org/Graphics/SVG/1.1/DTD/svg11.dtd">
<svg version="1.1" id="Layer_1" xmlns="http://www.w3.org/2000/svg" xmlns:xlink="http://www.w3.org/1999/xlink" x="0px" y="0px"
	 width="44.015px" height="39.998px" viewBox="0 0 44.015 39.998" style="enable-background:new 0 0 44.015 39.998;"
	 xml:space="preserve">
<g id="_x31_032-route-toolbar_x40_2x.png">
	<g>
		<path d="M10.074,21.025c-0.33-0.016-0.674-0.027-1.032-0.027h-0.01c-0.548,0-0.995,0.437-1,0.985
			c-0.006,0.552,0.438,0.999,0.99,1.005c0.334,0.003,0.655,0.01,0.964,0.01h0.045c0.532,0,0.974-0.406,0.998-0.942
			C11.054,21.504,10.627,21.049,10.074,21.025z M6.938,37.577c-0.397-0.382-1.029-0.371-1.414,0.027
			c-0.383,0.397-0.371,1.03,0.027,1.414c0.232,0.224,0.466,0.451,0.7,0.686c0.195,0.196,0.452,0.294,0.708,0.294
			S7.47,39.9,7.665,39.706c0.392-0.391,0.392-1.023,0.002-1.414C7.424,38.048,7.18,37.811,6.938,37.577z M19.231,29.144
			c-0.147-0.32-0.291-0.628-0.434-0.921c-0.241-0.498-0.841-0.705-1.336-0.465c-0.497,0.24-0.705,0.838-0.464,1.336
			c0.137,0.283,0.275,0.578,0.417,0.886c0.168,0.366,0.53,0.582,0.908,0.582c0.141,0,0.283-0.029,0.418-0.092
			C19.243,30.238,19.463,29.645,19.231,29.144z M13.351,21.675c-0.507-0.218-1.095,0.014-1.314,0.521
			c-0.22,0.507,0.014,1.095,0.521,1.314c0.251,0.108,0.485,0.236,0.717,0.391c0.171,0.114,0.363,0.168,0.555,0.168
			c0.323,0,0.64-0.156,0.833-0.444c0.306-0.46,0.182-1.081-0.277-1.388C14.057,22.02,13.709,21.83,13.351,21.675z M17.315,25.495
			c-0.198-0.317-0.395-0.61-0.589-0.882c-0.321-0.449-0.946-0.554-1.396-0.231c-0.449,0.321-0.553,0.946-0.231,1.396
			c0.172,0.239,0.345,0.498,0.52,0.778c0.19,0.304,0.516,0.47,0.85,0.47c0.181,0,0.363-0.049,0.529-0.151
			C17.466,26.581,17.607,25.963,17.315,25.495z M4.119,34.829c-0.373-0.407-1.006-0.435-1.412-0.062
			c-0.408,0.374-0.435,1.006-0.062,1.413c0.232,0.253,0.474,0.503,0.724,0.753c0.195,0.194,0.45,0.292,0.707,0.292
			c0.256,0,0.513-0.098,0.707-0.294c0.391-0.391,0.39-1.023-0.001-1.414C4.553,35.289,4.332,35.061,4.119,34.829z M1.759,26.276
			c0.164,0.103,0.348,0.151,0.527,0.151c0.334,0,0.66-0.167,0.85-0.471c0.157-0.25,0.327-0.491,0.51-0.72
			c0.346-0.431,0.277-1.06-0.154-1.405c-0.43-0.346-1.06-0.277-1.405,0.154c-0.232,0.289-0.449,0.595-0.646,0.912
			C1.147,25.367,1.29,25.984,1.759,26.276z M1.001,30.18c0.509,0,0.943-0.385,0.995-0.9c0.029-0.293,0.075-0.583,0.14-0.869
			c0.12-0.539-0.221-1.073-0.76-1.193c-0.537-0.121-1.073,0.22-1.193,0.76c-0.08,0.363-0.14,0.732-0.178,1.104
			c-0.055,0.549,0.347,1.039,0.896,1.095C0.935,30.178,0.969,30.18,1.001,30.18z M2.553,32.633
			c-0.125-0.259-0.233-0.525-0.318-0.795c-0.169-0.526-0.731-0.817-1.257-0.647c-0.526,0.169-0.816,0.73-0.648,1.257
			c0.115,0.359,0.258,0.716,0.425,1.06c0.173,0.355,0.529,0.562,0.899,0.562c0.147,0,0.296-0.032,0.437-0.101
			C2.587,33.728,2.794,33.129,2.553,32.633z M6.385,23.256c0.523-0.176,0.806-0.742,0.631-1.266
			c-0.176-0.524-0.744-0.809-1.266-0.631c-0.361,0.121-0.72,0.273-1.064,0.455c-0.489,0.256-0.678,0.861-0.421,1.35
			c0.179,0.342,0.526,0.535,0.887,0.535c0.155,0,0.315-0.036,0.464-0.114C5.866,23.454,6.124,23.342,6.385,23.256z M34.156,28.758
			c-0.546-0.092-1.058,0.283-1.146,0.829c-0.05,0.308-0.109,0.616-0.178,0.921c-0.121,0.539,0.218,1.074,0.756,1.195
			c0.074,0.017,0.148,0.024,0.221,0.024c0.457,0,0.87-0.315,0.975-0.78c0.078-0.346,0.146-0.695,0.201-1.044
			C35.073,29.358,34.702,28.846,34.156,28.758z M33.289,32.665c-0.506-0.221-1.096,0.011-1.316,0.517
			c-0.124,0.285-0.258,0.56-0.399,0.818c-0.265,0.484-0.086,1.092,0.398,1.357c0.152,0.083,0.316,0.122,0.479,0.122
			c0.354,0,0.697-0.188,0.879-0.521c0.169-0.31,0.328-0.637,0.478-0.979C34.027,33.475,33.796,32.885,33.289,32.665z M37.646,22.236
			l0.016-0.02l-5-4l-0.015,0.019c-0.238-0.193-0.551-0.287-0.869-0.202c-0.334,0.091-0.565,0.349-0.667,0.656l-0.022-0.008l-2,6
			l0.021,0.008c-0.061,0.179-0.089,0.371-0.035,0.567c0.144,0.531,0.695,0.846,1.231,0.704c0.002-0.001,0.003-0.002,0.005-0.003
			v0.002l3.15-0.9c-0.246,0.225-0.395,0.556-0.345,0.903c0.042,0.286,0.068,0.646,0.082,0.956c0.022,0.538,0.466,1.079,0.998,1.079
			h0.044c0.552,0,0.979-0.604,0.956-1.156c-0.016-0.379-0.05-0.859-0.1-1.21c-0.062-0.428-0.388-0.735-0.788-0.814l3.002-0.857
			l-0.001-0.006c0.521-0.148,0.829-0.686,0.688-1.21C37.941,22.529,37.807,22.364,37.646,22.236z M31.584,23.516l0.947-2.841
			l2.367,1.894L31.584,23.516z M43.721,7.779c-2.229-7.75-6.414-8.611-16.452-7.244c-8.745,1.191-12.605,6.645-10.776,14.04
			c1.405,5.683,5.274,7.848,11.393,7.341l0.671-2.014c-5.467,0.555-8.912-1.143-10.146-5.929c-1.57-6.088,1.744-10.576,9.251-11.557
			c8.617-1.126,12.21-0.416,14.123,5.963c1.101,3.669-1.693,7.573-6.101,9.692l1.602,1.281
			C42.199,16.682,44.958,12.082,43.721,7.779z M26.576,14.764c0.144,0.537,0.694,0.855,1.23,0.711
			c0.254-0.067,0.453-0.231,0.583-0.438l0.01,0.007l1.973-3.156l3.094,1.933c0.238,0.161,0.538,0.232,0.84,0.153
			c0.548-0.144,0.873-0.694,0.726-1.23c-0.076-0.279-0.268-0.494-0.51-0.621l-3.089-1.931l1.941-3.106
			c0.161-0.239,0.232-0.539,0.153-0.841c-0.144-0.548-0.694-0.873-1.23-0.726c-0.279,0.076-0.494,0.269-0.621,0.51l-1.939,3.104
			l-3.119-1.95c-0.235-0.165-0.531-0.239-0.831-0.159c-0.537,0.144-0.854,0.694-0.711,1.23c0.067,0.254,0.231,0.453,0.438,0.583
			l-0.007,0.01l3.171,1.981l-1.941,3.105C26.57,14.168,26.496,14.465,26.576,14.764z M23.432,35.127
			c-0.241-0.157-0.479-0.332-0.714-0.525c-0.428-0.354-1.057-0.291-1.407,0.134c-0.353,0.426-0.292,1.056,0.134,1.407
			c0.294,0.244,0.594,0.464,0.896,0.66c0.169,0.109,0.358,0.162,0.545,0.162c0.327,0,0.647-0.16,0.839-0.454
			C24.025,36.048,23.895,35.428,23.432,35.127z M26.728,36.297c-0.283-0.031-0.576-0.078-0.874-0.146
			c-0.539-0.12-1.074,0.216-1.196,0.755c-0.122,0.538,0.216,1.074,0.755,1.196c0.374,0.084,0.741,0.145,1.097,0.184
			c0.037,0.004,0.074,0.006,0.11,0.006c0.504,0,0.937-0.379,0.993-0.891C27.673,36.852,27.276,36.357,26.728,36.297z M20.459,31.799
			c-0.266-0.483-0.873-0.661-1.358-0.395c-0.483,0.267-0.66,0.875-0.394,1.358c0.179,0.326,0.366,0.635,0.559,0.925
			c0.192,0.291,0.511,0.448,0.835,0.448c0.189,0,0.381-0.054,0.551-0.166c0.461-0.305,0.587-0.926,0.282-1.386
			C20.771,32.338,20.611,32.076,20.459,31.799z M30,35.881c-0.12,0.073-0.24,0.13-0.367,0.172c-0.086,0.03-0.182,0.057-0.283,0.083
			c-0.535,0.137-0.857,0.682-0.721,1.217c0.115,0.451,0.522,0.752,0.968,0.752c0.082,0,0.166-0.01,0.249-0.031
			c0.158-0.04,0.305-0.084,0.428-0.126c0.26-0.086,0.518-0.207,0.768-0.359c0.472-0.287,0.621-0.902,0.333-1.374
			S30.47,35.593,30,35.881z"/>
	</g>
</g>
<g>
</g>
<g>
</g>
<g>
</g>
<g>
</g>
<g>
</g>
<g>
</g>
<g>
</g>
<g>
</g>
<g>
</g>
<g>
</g>
<g>
</g>
<g>
</g>
<g>
</g>
<g>
</g>
<g>
</g>
</svg>
