<?xml version="1.0" encoding="iso-8859-1"?>
<!-- Generator: Adobe Illustrator 16.0.4, SVG Export Plug-In . SVG Version: 6.00 Build 0)  -->
<!DOCTYPE svg PUBLIC "-//W3C//DTD SVG 1.1//EN" "http://www.w3.org/Graphics/SVG/1.1/DTD/svg11.dtd">
<svg version="1.1" id="Layer_1" xmlns="http://www.w3.org/2000/svg" xmlns:xlink="http://www.w3.org/1999/xlink" x="0px" y="0px"
	 width="56.01px" height="51.996px" viewBox="0 0 56.01 51.996" style="enable-background:new 0 0 56.01 51.996;"
	 xml:space="preserve">
<g id="_x31_032-route_x40_2x.png">
	<g>
		<path d="M22.396,37.495c-0.332-0.665-0.649-1.255-0.971-1.805c-0.277-0.474-0.89-0.636-1.367-0.361s-0.641,0.879-0.365,1.353
			c0.32,0.548,0.622,1.113,0.91,1.69c0.174,0.349,0.528,0.551,0.897,0.551c0.148,0,0.3-0.033,0.442-0.103
			C22.438,38.577,22.641,37.984,22.396,37.495z M7.368,31.29c0.53-0.154,0.833-0.705,0.676-1.229
			c-0.155-0.524-0.713-0.826-1.242-0.668c-0.739,0.216-1.433,0.516-2.059,0.892c-0.473,0.282-0.623,0.892-0.337,1.359
			c0.188,0.307,0.519,0.476,0.856,0.476c0.177,0,0.355-0.046,0.518-0.143C6.26,31.689,6.794,31.459,7.368,31.29z M7.248,48.915
			c-0.4-0.376-1.033-0.36-1.413,0.036c-0.38,0.397-0.363,1.023,0.037,1.398c0.484,0.455,0.964,0.905,1.421,1.356
			c0.195,0.193,0.45,0.29,0.707,0.29c0.256,0,0.511-0.097,0.706-0.29c0.392-0.386,0.392-1.012,0-1.398
			C8.239,49.845,7.747,49.381,7.248,48.915z M17.249,30.916c-0.452-0.311-1.076-0.198-1.391,0.25
			c-0.315,0.449-0.202,1.065,0.252,1.377c0.473,0.323,0.934,0.712,1.372,1.155c0.195,0.197,0.455,0.297,0.715,0.297
			c0.252,0,0.504-0.094,0.699-0.281c0.395-0.382,0.402-1.008,0.017-1.399C18.386,31.782,17.826,31.311,17.249,30.916z
			 M13.177,29.259c-0.716-0.126-1.409-0.214-2.063-0.26c-0.554-0.023-1.029,0.374-1.068,0.919c-0.038,0.545,0.378,1.018,0.928,1.056
			c0.584,0.04,1.206,0.118,1.81,0.226c0.033,0.007,0.093,0.017,0.126,0.021c0.04,0.005,0.078,0.007,0.117,0.007
			c0.488,0,0.902-0.356,0.977-0.846C14.081,29.852,13.708,29.354,13.177,29.259z M1.451,36.73c0.104,0.034,0.209,0.05,0.312,0.05
			c0.42,0,0.811-0.264,0.949-0.681c0.198-0.597,0.439-1.149,0.716-1.645c0.269-0.477,0.094-1.08-0.39-1.345
			c-0.482-0.263-1.092-0.093-1.359,0.387c-0.338,0.603-0.629,1.271-0.866,1.984C0.641,36.001,0.927,36.56,1.451,36.73z
			 M2.021,41.564c-0.014-0.149-0.021-0.3-0.021-0.45c0-0.408,0.012-0.872,0.045-1.373c0.036-0.545-0.382-1.016-0.933-1.052
			c-0.547-0.01-1.026,0.378-1.063,0.923C0.012,40.159,0,40.667,0,41.117c0,0.211,0.01,0.421,0.029,0.629
			c0.047,0.513,0.483,0.898,0.994,0.898c0.031,0,0.062-0.001,0.093-0.004C1.667,42.591,2.071,42.108,2.021,41.564z M34.202,18.155
			c0.143,0.533,0.69,0.85,1.225,0.707c0.267-0.071,0.479-0.244,0.607-0.467l2.328-4.032l4.032,2.328
			c0.222,0.128,0.492,0.172,0.76,0.101c0.533-0.144,0.85-0.691,0.707-1.226c-0.072-0.267-0.245-0.479-0.467-0.606l-4.032-2.329
			l2.328-4.032c0.128-0.222,0.172-0.492,0.1-0.76c-0.143-0.533-0.69-0.85-1.225-0.707c-0.267,0.072-0.479,0.244-0.606,0.467
			l-2.329,4.032l-4.033-2.328c-0.221-0.128-0.491-0.171-0.759-0.1c-0.533,0.143-0.85,0.69-0.707,1.225
			c0.072,0.267,0.244,0.479,0.467,0.606h-0.001l4.033,2.329l-2.328,4.033C34.174,17.618,34.13,17.888,34.202,18.155z M3.307,44.728
			c-0.313-0.45-0.937-0.562-1.391-0.252c-0.455,0.311-0.568,0.927-0.255,1.377c0.369,0.527,0.802,1.065,1.323,1.643
			c0.197,0.22,0.471,0.33,0.746,0.33c0.237,0,0.475-0.083,0.666-0.251c0.412-0.364,0.447-0.989,0.08-1.396
			C4.011,45.662,3.628,45.188,3.307,44.728z M42.03,35.512c-0.548-0.044-1.017,0.405-1.037,0.951
			c-0.015,0.407-0.056,1.068-0.16,1.894c-0.068,0.542,0.321,1.036,0.868,1.104c0.042,0.006,0.084,0.008,0.126,0.008
			c0.497,0,0.928-0.365,0.991-0.866c0.112-0.896,0.157-1.617,0.174-2.065C43.013,35.99,42.582,35.531,42.03,35.512z M55.63,9.897
			c-2.872-9.86-8.264-10.957-21.196-9.217c-11.267,1.516-16.24,8.453-13.885,17.863c1.84,7.345,6.948,10.081,15.052,9.315
			l0.716-2.147c-7.46,0.823-12.16-1.394-13.829-7.817C20.394,9.829,24.814,3.882,34.83,2.583c11.495-1.491,16.287-0.551,18.84,7.9
			c1.582,5.234-2.865,10.832-9.536,13.447l1.624,1.461C53.067,22.168,57.353,15.812,55.63,9.897z M46.284,29.122l0.012-0.014
			l-5.416-4.76l-0.013,0.014c-0.242-0.213-0.571-0.318-0.906-0.229s-0.567,0.346-0.671,0.651l-0.018-0.006l-2.311,6.83l0.018,0.006
			c-0.062,0.182-0.09,0.375-0.036,0.573c0.143,0.534,0.69,0.851,1.225,0.708l7.728-2.071c0.533-0.143,0.85-0.691,0.707-1.225
			C46.549,29.402,46.428,29.248,46.284,29.122z M39.455,30.48l1.231-3.64l2.886,2.536L39.455,30.48z M41.294,41.41
			c-0.527-0.159-1.087,0.129-1.251,0.651c-0.193,0.618-0.415,1.205-0.658,1.747c-0.224,0.5,0.004,1.084,0.51,1.306
			c0.132,0.058,0.27,0.085,0.404,0.085c0.383,0,0.749-0.22,0.915-0.589c0.274-0.611,0.522-1.271,0.739-1.962
			C42.117,42.126,41.822,41.572,41.294,41.41z M26.815,46.17c-0.327-0.439-0.952-0.536-1.397-0.213
			c-0.445,0.324-0.541,0.943-0.215,1.384c0.468,0.631,0.943,1.161,1.452,1.622c0.191,0.174,0.434,0.26,0.675,0.26
			c0.271,0,0.54-0.108,0.738-0.321c0.372-0.403,0.345-1.029-0.062-1.397C27.594,47.131,27.205,46.695,26.815,46.17z M24.088,41.125
			c-0.228-0.497-0.819-0.72-1.322-0.497c-0.504,0.225-0.729,0.811-0.502,1.309c0.28,0.618,0.562,1.229,0.85,1.821
			c0.172,0.354,0.53,0.56,0.902,0.56c0.145,0,0.293-0.03,0.433-0.097c0.498-0.237,0.707-0.828,0.468-1.321
			C24.635,42.323,24.361,41.728,24.088,41.125z M32.759,48.997c-0.565,0.048-1.192,0.045-1.756-0.041
			c-0.542-0.079-1.056,0.289-1.139,0.828c-0.084,0.54,0.291,1.045,0.837,1.127c0.419,0.063,0.855,0.096,1.298,0.096
			c0.317,0,0.626-0.013,0.925-0.037c0.551-0.045,0.96-0.523,0.914-1.067C33.793,49.357,33.316,48.955,32.759,48.997z M37.408,46.829
			c-0.417,0.43-0.872,0.802-1.353,1.104c-0.466,0.294-0.604,0.905-0.307,1.366c0.19,0.297,0.515,0.458,0.845,0.458
			c0.184,0,0.37-0.05,0.536-0.154c0.615-0.388,1.194-0.861,1.723-1.406c0.382-0.394,0.368-1.02-0.03-1.397
			C38.425,46.42,37.79,46.434,37.408,46.829z"/>
	</g>
</g>
<g>
</g>
<g>
</g>
<g>
</g>
<g>
</g>
<g>
</g>
<g>
</g>
<g>
</g>
<g>
</g>
<g>
</g>
<g>
</g>
<g>
</g>
<g>
</g>
<g>
</g>
<g>
</g>
<g>
</g>
</svg>
