<?xml version="1.0" encoding="UTF-8" standalone="no"?>
<svg width="58px" height="58px" viewBox="0 0 58 58" version="1.1" xmlns="http://www.w3.org/2000/svg" xmlns:xlink="http://www.w3.org/1999/xlink" xmlns:sketch="http://www.bohemiancoding.com/sketch/ns">
    <!-- Generator: Sketch 3.0.4 (8053) - http://www.bohemiancoding.com/sketch -->
    <title>1295-rss</title>
    <desc>Created with Sketch.</desc>
    <defs></defs>
    <g id="Page-1" stroke="none" stroke-width="1" fill="none" fill-rule="evenodd" sketch:type="MSPage">
        <g id="Glyphish-8-Icons" sketch:type="MSArtboardGroup" transform="translate(-404.000000, -1843.000000)" fill="#000000">
            <g id="1295-rss" sketch:type="MSLayerGroup" transform="translate(404.036996, 1843.860499)">
                <g id="_x31_295-rss_x40_2x.png" sketch:type="MSShapeGroup">
                    <path d="M16.016,22.005 L16.016,26 C23.739,26 30,32.261 30,39.984 L33.996,39.984 C33.996,30.055 25.946,22.005 16.016,22.005 L16.016,22.005 Z M19.012,33.991 C17.357,33.991 16.015,35.333 16.015,36.988 C16.015,38.642 17.357,39.984 19.012,39.984 C20.667,39.984 22.009,38.642 22.009,36.988 C22.009,35.333 20.667,33.991 19.012,33.991 L19.012,33.991 Z M16.016,12.016 L16.016,16.012 C29.256,16.012 39.989,26.744 39.989,39.985 L43.985,39.985 C43.984,24.538 31.462,12.016 16.016,12.016 L16.016,12.016 Z M28,0 C12.536,0 0,12.536 0,28 C0,43.464 12.536,56 28,56 C43.464,56 56,43.464 56,28 C56,12.536 43.464,0 28,0 L28,0 Z M28,54 C13.641,54 2,42.359 2,28 C2,13.641 13.641,2 28,2 C42.359,2 54,13.641 54,28 C54,42.359 42.359,54 28,54 L28,54 Z" id="Shape"></path>
                </g>
            </g>
        </g>
    </g>
</svg>