<?xml version="1.0" encoding="iso-8859-1"?>
<!-- Generator: Adobe Illustrator 16.0.4, SVG Export Plug-In . SVG Version: 6.00 Build 0)  -->
<!DOCTYPE svg PUBLIC "-//W3C//DTD SVG 1.1//EN" "http://www.w3.org/Graphics/SVG/1.1/DTD/svg11.dtd">
<svg version="1.1" id="Layer_1" xmlns="http://www.w3.org/2000/svg" xmlns:xlink="http://www.w3.org/1999/xlink" x="0px" y="0px"
	 width="32px" height="56px" viewBox="0 0 32 56" style="enable-background:new 0 0 32 56;" xml:space="preserve">
<g id="_x38_84-ruler_x40_2x.png">
	<g>
		<path d="M16,8c-4.418,0-8,3.582-8,8s3.582,8,8,8s8-3.582,8-8S20.418,8,16,8z M16,22c-3.313,0-6-2.687-6-6s2.687-6,6-6s6,2.687,6,6
			S19.313,22,16,22z M30,0H2C0.896,0,0,0.896,0,2v54h1h1h9c0.553,0,1-0.447,1-1c0-0.552-0.447-1-1-1H2v-4h13c0.553,0,1-0.447,1-1
			c0-0.552-0.447-1-1-1H2v-4h9c0.553,0,1-0.447,1-1c0-0.552-0.447-1-1-1H2v-4h13c0.553,0,1-0.447,1-1c0-0.552-0.447-1-1-1H2v-4h9
			c0.553,0,1-0.447,1-1s-0.447-1-1-1H2V2h28v54h2V2C32,0.896,31.104,0,30,0z"/>
	</g>
</g>
<g>
</g>
<g>
</g>
<g>
</g>
<g>
</g>
<g>
</g>
<g>
</g>
<g>
</g>
<g>
</g>
<g>
</g>
<g>
</g>
<g>
</g>
<g>
</g>
<g>
</g>
<g>
</g>
<g>
</g>
</svg>
