<?xml version="1.0" encoding="iso-8859-1"?>
<!-- Generator: Adobe Illustrator 16.0.4, SVG Export Plug-In . SVG Version: 6.00 Build 0)  -->
<!DOCTYPE svg PUBLIC "-//W3C//DTD SVG 1.1//EN" "http://www.w3.org/Graphics/SVG/1.1/DTD/svg11.dtd">
<svg version="1.1" id="Layer_1" xmlns="http://www.w3.org/2000/svg" xmlns:xlink="http://www.w3.org/1999/xlink" x="0px" y="0px"
	 width="24px" height="44px" viewBox="0 0 24 44" style="enable-background:new 0 0 24 44;" xml:space="preserve">
<g id="_x38_84-ruler-toolbar_x40_2x.png">
	<g>
		<path d="M12,6.004c-3.313,0-6,2.688-6,6.005c0,3.315,2.687,6.004,6,6.004s6-2.688,6-6.004C18,8.692,15.313,6.004,12,6.004z
			 M12,16.004c-2.209,0-4-1.789-4-3.996s1.791-3.996,4-3.996s4,1.789,4,3.996S14.209,16.004,12,16.004z M22,0H2C0.896,0,0,0.896,0,2
			v42h1h1h5c0.553,0,1-0.448,1-1c0-0.553-0.447-1-1-1H2v-2h9c0.553,0,1-0.448,1-1c0-0.553-0.447-1-1-1H2v-2h5c0.553,0,1-0.448,1-1
			c0-0.553-0.447-1-1-1H2v-2h9c0.553,0,1-0.448,1-1c0-0.553-0.447-1-1-1H2v-2h5c0.553,0,1-0.448,1-1c0-0.553-0.447-1-1-1H2v-2h9
			c0.553,0,1-0.448,1-1c0-0.553-0.447-1-1-1H2V2h20v42h2V2C24,0.896,23.104,0,22,0z"/>
	</g>
</g>
<g>
</g>
<g>
</g>
<g>
</g>
<g>
</g>
<g>
</g>
<g>
</g>
<g>
</g>
<g>
</g>
<g>
</g>
<g>
</g>
<g>
</g>
<g>
</g>
<g>
</g>
<g>
</g>
<g>
</g>
</svg>
