<?xml version="1.0" encoding="iso-8859-1"?>
<!-- Generator: Adobe Illustrator 16.0.4, SVG Export Plug-In . SVG Version: 6.00 Build 0)  -->
<!DOCTYPE svg PUBLIC "-//W3C//DTD SVG 1.1//EN" "http://www.w3.org/Graphics/SVG/1.1/DTD/svg11.dtd">
<svg version="1.1" id="Layer_1" xmlns="http://www.w3.org/2000/svg" xmlns:xlink="http://www.w3.org/1999/xlink" x="0px" y="0px"
	 width="28px" height="44px" viewBox="0 0 28 44" style="enable-background:new 0 0 28 44;" xml:space="preserve">
<g id="_x39_94-rum-jug-toolbar_x40_2x.png">
	<g>
		<path d="M18,8.045V1c0-0.552-0.447-1-1-1h-6c-0.552,0-1,0.448-1,1v7.045C7.29,8.242,0,9.301,0,15v25c0,2.209,1.791,4,4,4h20
			c2.209,0,4-1.791,4-4V15C28,9.301,20.711,8.242,18,8.045z M12,2h4v2h-4V2z M26,40c0,1.104-0.896,2-2,2H4c-1.104,0-2-0.896-2-2v-4
			h24V40z M26,34H2V22h24V34z M26,20H2v-5c0-5,9-5,9-5c0.553,0,1-0.447,1-1V6h4v3c0,0.553,0.447,1,1,1c0,0,9,0,9,5V20z"/>
	</g>
</g>
<g>
</g>
<g>
</g>
<g>
</g>
<g>
</g>
<g>
</g>
<g>
</g>
<g>
</g>
<g>
</g>
<g>
</g>
<g>
</g>
<g>
</g>
<g>
</g>
<g>
</g>
<g>
</g>
<g>
</g>
</svg>
