<?xml version="1.0" encoding="iso-8859-1"?>
<!-- Generator: Adobe Illustrator 16.0.4, SVG Export Plug-In . SVG Version: 6.00 Build 0)  -->
<!DOCTYPE svg PUBLIC "-//W3C//DTD SVG 1.1//EN" "http://www.w3.org/Graphics/SVG/1.1/DTD/svg11.dtd">
<svg version="1.1" id="Layer_1" xmlns="http://www.w3.org/2000/svg" xmlns:xlink="http://www.w3.org/1999/xlink" x="0px" y="0px"
	 width="32px" height="44px" viewBox="0 0 32 44" style="enable-background:new 0 0 32 44;" xml:space="preserve">
<g id="_x39_43-running-man-toolbar_x40_2x.png">
	<g>
		<path d="M31,21h-7v-9.367C24.629,11.856,25.295,12,26,12c3.313,0,6-2.687,6-6s-2.687-6-6-6s-6,2.687-6,6
			c0,1.098,0.302,2.12,0.82,3H9C8.724,9,8.474,9.112,8.293,9.293l-8,8C0.112,17.474,0,17.724,0,18c0,0.553,0.448,1,1,1
			c0.276,0,0.526-0.112,0.707-0.293L9.414,11h11.389l-9.622,13.427l0.015,0.011C11.082,24.6,11,24.787,11,25v9H1
			c-0.552,0-1,0.448-1,1c0,0.553,0.448,1,1,1h12v-1v-1v-7l6,4.5V43c0,0.553,0.447,1,1,1s1-0.447,1-1V31
			c0-0.316-0.156-0.586-0.385-0.769l0.01-0.013l-7.242-5.432L22,12.764V22c0,0.553,0.447,1,1,1h8c0.553,0,1-0.447,1-1
			S31.553,21,31,21z M22,6c0-2.209,1.791-4,4-4s4,1.791,4,4s-1.791,4-4,4c-0.732,0-1.409-0.211-2-0.555V9h-0.62
			C22.541,8.267,22,7.202,22,6z"/>
	</g>
</g>
<g>
</g>
<g>
</g>
<g>
</g>
<g>
</g>
<g>
</g>
<g>
</g>
<g>
</g>
<g>
</g>
<g>
</g>
<g>
</g>
<g>
</g>
<g>
</g>
<g>
</g>
<g>
</g>
<g>
</g>
</svg>
