<?xml version="1.0" encoding="iso-8859-1"?>
<!-- Generator: Adobe Illustrator 16.0.4, SVG Export Plug-In . SVG Version: 6.00 Build 0)  -->
<!DOCTYPE svg PUBLIC "-//W3C//DTD SVG 1.1//EN" "http://www.w3.org/Graphics/SVG/1.1/DTD/svg11.dtd">
<svg version="1.1" id="Layer_1" xmlns="http://www.w3.org/2000/svg" xmlns:xlink="http://www.w3.org/1999/xlink" x="0px" y="0px"
	 width="40px" height="56px" viewBox="0 0 40 56" style="enable-background:new 0 0 40 56;" xml:space="preserve">
<g id="_x39_43-running-man_x40_2x.png">
	<g>
		<path d="M39,26h-9V14v-0.683C30.91,13.75,31.925,14,33,14c3.866,0,7-3.134,7-7s-3.134-7-7-7s-7,3.134-7,7
			c0,1.965,0.817,3.73,2.122,5H13c-0.276,0-0.526,0.112-0.707,0.293l-10,10C2.112,22.474,2,22.724,2,23c0,0.553,0.447,1,1,1
			c0.276,0,0.526-0.112,0.707-0.293L13.414,14h13.435L14.181,32.427l0.015,0.011C14.082,32.6,14,32.787,14,33v11H1
			c-0.553,0-1,0.447-1,1s0.447,1,1,1h15v-1v-1v-8.919l8,6.399V55c0,0.553,0.447,1,1,1s1-0.447,1-1V41
			c0-0.316-0.156-0.586-0.385-0.77l0.01-0.012L16.351,32.8L28,15.856V27c0,0.553,0.447,1,1,1h10c0.553,0,1-0.447,1-1
			S39.553,26,39,26z M28,7c0-2.762,2.238-5,5-5s5,2.238,5,5s-2.238,5-5,5S28,9.762,28,7z"/>
	</g>
</g>
<g>
</g>
<g>
</g>
<g>
</g>
<g>
</g>
<g>
</g>
<g>
</g>
<g>
</g>
<g>
</g>
<g>
</g>
<g>
</g>
<g>
</g>
<g>
</g>
<g>
</g>
<g>
</g>
<g>
</g>
</svg>
