<?xml version="1.0" encoding="iso-8859-1"?>
<!-- Generator: Adobe Illustrator 16.0.4, SVG Export Plug-In . SVG Version: 6.00 Build 0)  -->
<!DOCTYPE svg PUBLIC "-//W3C//DTD SVG 1.1//EN" "http://www.w3.org/Graphics/SVG/1.1/DTD/svg11.dtd">
<svg version="1.1" id="Layer_1" xmlns="http://www.w3.org/2000/svg" xmlns:xlink="http://www.w3.org/1999/xlink" x="0px" y="0px"
	 width="56px" height="56px" viewBox="0 0 56 56" style="enable-background:new 0 0 56 56;" xml:space="preserve">
<g id="_x38_29-safety-pin_x40_2x.png">
	<g>
		<path d="M56,12c0-6.627-5.373-12-12-12c-3.346,0-6.368,1.372-8.545,3.58l-0.006-0.006l-6.506,6.512l0.001,0.002
			c-0.194,0.182-0.319,0.438-0.319,0.725c0,0.238,0.095,0.448,0.234,0.62l-0.018,0.012l12.17,12.169l0.006-0.006
			c0.178,0.162,0.41,0.268,0.67,0.268c0.276,0,0.526-0.111,0.707-0.293l7-7.125l-0.014-0.013c0.12-0.114,0.221-0.25,0.274-0.411
			C50.479,14.891,51,13.518,51,12c0-2.143-0.986-4.033-2.505-5.315C48.129,6.269,47.599,6,47,6c-1.104,0-2,0.896-2,2s0.896,2,2,2
			c0.501,0,0.953-0.19,1.304-0.494C48.735,10.241,49,11.085,49,12c0,1.147-0.4,2.19-1.054,3.03l0.024,0.023l-6.289,6.401
			l-10.64-10.64l1.196-1.197c-0.002,0.007-0.002,0.015-0.003,0.022l4.521-4.521c0.118-0.124,0.239-0.245,0.363-0.363l0.318-0.318
			l0.016,0.016C39.208,2.93,41.493,2,44,2c5.522,0,10,4.478,10,10c0,2.491-0.916,4.764-2.423,6.515l0.017,0.017l-0.351,0.351
			c-0.117,0.124-0.238,0.244-0.362,0.362l-4.521,4.521c0.008-0.002,0.016-0.002,0.022-0.004l-1.88,1.879l0.007,0.007
			c-0.261,0.244-0.393,0.612-0.294,0.981c0.143,0.533,0.691,0.85,1.225,0.707c0.23-0.062,0.408-0.208,0.539-0.387l0.022,0.021
			l6.456-6.45l-0.005-0.004C54.643,18.342,56,15.33,56,12z M41.844,28.719c-0.262,0-0.496,0.106-0.675,0.271l-0.01-0.011
			L23.766,46.356C23.918,45.594,24,44.807,24,44c0-6.627-5.373-12-12-12c-0.807,0-1.594,0.083-2.356,0.234l17.377-17.394l-0.01-0.01
			c0.164-0.179,0.271-0.413,0.271-0.675c0-0.552-0.447-1-1-1c-0.262,0-0.496,0.106-0.675,0.271v-0.001l-0.003,0.003
			c-0.018,0.016-0.033,0.031-0.049,0.049L3.784,35.27c-0.179,0.169-0.352,0.342-0.52,0.521l-0.19,0.19l0.009,0.01
			C1.173,38.115,0,40.917,0,44c0,6.628,5.373,12,12,12c3.083,0,5.885-1.173,8.011-3.083l0.009,0.009l0.193-0.193
			c0.177-0.166,0.349-0.337,0.515-0.514l21.795-21.773c0.017-0.016,0.032-0.031,0.048-0.048l0.003-0.003v-0.001
			c0.164-0.179,0.271-0.413,0.271-0.675C42.844,29.167,42.396,28.719,41.844,28.719z M19.316,50.801l-0.521,0.521
			C17.011,52.979,14.627,54,12,54C6.478,54,2,49.523,2,44c0-2.629,1.022-5.014,2.682-6.799l0.514-0.514C6.981,35.024,9.368,34,12,34
			c5.522,0,10,4.478,10,10C22,46.631,20.977,49.016,19.316,50.801z"/>
	</g>
</g>
<g>
</g>
<g>
</g>
<g>
</g>
<g>
</g>
<g>
</g>
<g>
</g>
<g>
</g>
<g>
</g>
<g>
</g>
<g>
</g>
<g>
</g>
<g>
</g>
<g>
</g>
<g>
</g>
<g>
</g>
</svg>
