<?xml version="1.0" encoding="iso-8859-1"?>
<!-- Generator: Adobe Illustrator 16.0.4, SVG Export Plug-In . SVG Version: 6.00 Build 0)  -->
<!DOCTYPE svg PUBLIC "-//W3C//DTD SVG 1.1//EN" "http://www.w3.org/Graphics/SVG/1.1/DTD/svg11.dtd">
<svg version="1.1" id="Layer_1" xmlns="http://www.w3.org/2000/svg" xmlns:xlink="http://www.w3.org/1999/xlink" x="0px" y="0px"
	 width="44.014px" height="44.015px" viewBox="0 0 44.014 44.015" style="enable-background:new 0 0 44.014 44.015;"
	 xml:space="preserve">
<g id="_x38_29-safety-pin-toolbar_x40_2x.png">
	<g>
		<path d="M32.998,22.007c-0.304,0-0.566,0.143-0.75,0.357L18.934,35.679c0.347-2.808-0.549-5.739-2.704-7.894
			c-2.16-2.161-5.102-3.055-7.916-2.7l13.328-13.328c0.214-0.184,0.356-0.446,0.356-0.75c0-0.553-0.447-1-1-1
			c-0.28,0-0.532,0.117-0.714,0.303l-0.012-0.013L2.785,27.784c0,0,0,0,0,0.001c-3.713,3.712-3.713,9.731,0,13.444
			s9.732,3.713,13.444,0c0.064-0.064,0.118-0.134,0.18-0.199l17.299-17.298l-0.013-0.012c0.187-0.182,0.303-0.434,0.303-0.714
			C33.998,22.454,33.551,22.007,32.998,22.007z M9.505,41.999c-4.142,0-7.498-3.357-7.498-7.498s3.356-7.498,7.498-7.498
			c4.141,0,7.497,3.357,7.497,7.498S13.646,41.999,9.505,41.999z M41.229,2.785c-3.712-3.713-9.731-3.713-13.444-0.001
			c-0.002,0.002-0.003,0.004-0.004,0.006L27.78,2.789l-4.491,4.492l0.012,0.012c-0.186,0.182-0.303,0.434-0.303,0.714
			c0,0.276,0.112,0.526,0.293,0.707l9.188,9.188c0.181,0.181,0.431,0.293,0.707,0.293s0.526-0.112,0.707-0.293l4.5-4.5l-0.004-0.004
			c0.002-0.001,0.003-0.001,0.004-0.002c2.049-2.05,2.119-5.302,0.257-7.462c-0.354-0.556-0.974-0.927-1.683-0.927
			c-1.104,0-2,0.896-2,2s0.896,2,2,2c0.345,0,0.664-0.095,0.946-0.248c0.246,1.125-0.062,2.348-0.937,3.223
			c-0.001,0-0.002,0.001-0.002,0.002c-0.005,0.003-0.01,0.006-0.014,0.01l-1.04,1.052l-2.735,2.735l-7.783-7.783l3.792-3.793
			l0.804,0.803l-0.801-0.801c1.357-1.361,3.233-2.203,5.308-2.203c4.141,0,7.497,3.356,7.497,7.498c0,2.073-0.842,3.95-2.202,5.308
			l0.002,0.002l-4.446,4.446c-0.215,0.184-0.357,0.446-0.357,0.75c0,0.553,0.447,1,1,1c0.28,0,0.532-0.116,0.714-0.303l0.012,0.013
			l4.307-4.308c0.065-0.062,0.136-0.115,0.199-0.18C44.942,12.517,44.942,6.497,41.229,2.785z M33.331,8.341l3.644,3.643
			L33.331,8.341L33.331,8.341z"/>
	</g>
</g>
<g>
</g>
<g>
</g>
<g>
</g>
<g>
</g>
<g>
</g>
<g>
</g>
<g>
</g>
<g>
</g>
<g>
</g>
<g>
</g>
<g>
</g>
<g>
</g>
<g>
</g>
<g>
</g>
<g>
</g>
</svg>
