<?xml version="1.0" encoding="iso-8859-1"?>
<!-- Generator: Adobe Illustrator 16.0.4, SVG Export Plug-In . SVG Version: 6.00 Build 0)  -->
<!DOCTYPE svg PUBLIC "-//W3C//DTD SVG 1.1//EN" "http://www.w3.org/Graphics/SVG/1.1/DTD/svg11.dtd">
<svg version="1.1" id="Layer_1" xmlns="http://www.w3.org/2000/svg" xmlns:xlink="http://www.w3.org/1999/xlink" x="0px" y="0px"
	 width="56px" height="56px" viewBox="0 0 56 56" style="enable-background:new 0 0 56 56;" xml:space="preserve">
<g id="_x31_094-sail-boat-2_x40_2x.png">
	<g>
		<path d="M55,42H28V1c0-0.553-0.447-1-1-1s-1,0.447-1,1v41H1c-0.553,0-1,0.447-1,1c0,0,0,13,13,13h30c13,0,13-13,13-13
			C56,42.447,55.553,42,55,42z M43,54H13c0,0-10.271-0.031-10.937-10h51.873C53.271,53.969,43,54,43,54z M5,40h18
			c0.553,0,1-0.447,1-1V15c0-0.553-0.447-1-1-1c-0.327,0-0.604,0.168-0.786,0.41L22.2,14.4l-18,24l0.014,0.01
			C4.088,38.577,4,38.774,4,39C4,39.553,4.447,40,5,40z M22,18v20H7L22,18z M30.186,38.419c-0.217,0.305-0.246,0.705-0.074,1.039
			C30.282,39.791,30.626,40,31,40h24c0.279,0,0.546-0.116,0.735-0.321c0.188-0.205,0.283-0.48,0.262-0.759
			c-0.021-0.255-2.299-25.669-24.488-38.781c-0.347-0.203-0.779-0.183-1.103,0.057c-0.322,0.238-0.472,0.646-0.379,1.036
			C34.96,21.947,35.001,31.678,30.186,38.419z M53.871,38H32.835c3.996-6.897,3.885-16.544-0.309-34.863
			C49.493,14.404,53.197,33.301,53.871,38z"/>
	</g>
</g>
<g>
</g>
<g>
</g>
<g>
</g>
<g>
</g>
<g>
</g>
<g>
</g>
<g>
</g>
<g>
</g>
<g>
</g>
<g>
</g>
<g>
</g>
<g>
</g>
<g>
</g>
<g>
</g>
<g>
</g>
</svg>
