<?xml version="1.0" encoding="iso-8859-1"?>
<!-- Generator: Adobe Illustrator 16.0.4, SVG Export Plug-In . SVG Version: 6.00 Build 0)  -->
<!DOCTYPE svg PUBLIC "-//W3C//DTD SVG 1.1//EN" "http://www.w3.org/Graphics/SVG/1.1/DTD/svg11.dtd">
<svg version="1.1" id="Layer_1" xmlns="http://www.w3.org/2000/svg" xmlns:xlink="http://www.w3.org/1999/xlink" x="0px" y="0px"
	 width="44.005px" height="44px" viewBox="0 0 44.005 44" style="enable-background:new 0 0 44.005 44;" xml:space="preserve">
<g id="_x31_094-sail-boat-2-toolbar_x40_2x.png">
	<g>
		<path d="M24.993,32.006h17.996c1.017,0,0.986-1.061,1.016-1.061c-0.016-0.19-1.548-18.97-18.59-28.804
			c-0.178-0.102-0.352-0.147-0.512-0.147c-0.562,0-0.96,0.555-0.813,1.154c3.788,15.537,3.883,22.459,0.185,27.516
			C23.729,31.411,24.135,32.006,24.993,32.006z M26.646,5.273c11.948,8.137,14.672,20.898,15.234,24.732H27.045
			C29.741,24.951,29.602,18.103,26.646,5.273z M43,34H22V1c0-0.553-0.447-1-1-1s-1,0.447-1,1v33H1c-0.553,0-1,0.448-1,1
			c0,0,0,9,11,9h22c11,0,11-9,11-9C44,34.448,43.553,34,43,34z M33,42H11c-1.883,0-8.192-0.89-8.926-6h39.852
			C41.193,41.11,34.883,42,33,42z M5,32h12c0.553,0,1-0.447,1-1V13c0-0.552-0.447-1-1-1c-0.327,0-0.604,0.168-0.786,0.41L16.2,12.4
			l-12,18l0.014,0.01C4.088,30.577,4,30.775,4,31C4,31.553,4.447,32,5,32z M16,16.3V30H6.867L16,16.3z"/>
	</g>
</g>
<g>
</g>
<g>
</g>
<g>
</g>
<g>
</g>
<g>
</g>
<g>
</g>
<g>
</g>
<g>
</g>
<g>
</g>
<g>
</g>
<g>
</g>
<g>
</g>
<g>
</g>
<g>
</g>
<g>
</g>
</svg>
