<?xml version="1.0" encoding="iso-8859-1"?>
<!-- Generator: Adobe Illustrator 16.0.4, SVG Export Plug-In . SVG Version: 6.00 Build 0)  -->
<!DOCTYPE svg PUBLIC "-//W3C//DTD SVG 1.1//EN" "http://www.w3.org/Graphics/SVG/1.1/DTD/svg11.dtd">
<svg version="1.1" id="Layer_1" xmlns="http://www.w3.org/2000/svg" xmlns:xlink="http://www.w3.org/1999/xlink" x="0px" y="0px"
	 width="44px" height="44px" viewBox="0 0 44 44" style="enable-background:new 0 0 44 44;" xml:space="preserve">
<g id="_x39_98-sail-boat-toolbar_x40_2x.png">
	<g>
		<path d="M43,32H24V1c0-0.552-0.447-1-1-1c-0.276,0-0.526,0.112-0.707,0.293l-22,22C0.112,22.474,0,22.724,0,23
			c0,0.553,0.448,1,1,1h21v8H1c-0.553,0-1,0.448-1,1v3c0,5,4.478,8,10,8h24c5.522,0,10-3,10-8v-3C44,32.448,43.553,32,43,32z
			 M3.414,22L22,3.414V22H3.414z M42,36c0,4-3.582,6-8,6H10c-4.418,0-8-2-8-6v-2h40V36z"/>
	</g>
</g>
<g>
</g>
<g>
</g>
<g>
</g>
<g>
</g>
<g>
</g>
<g>
</g>
<g>
</g>
<g>
</g>
<g>
</g>
<g>
</g>
<g>
</g>
<g>
</g>
<g>
</g>
<g>
</g>
<g>
</g>
</svg>
