<?xml version="1.0" encoding="iso-8859-1"?>
<!-- Generator: Adobe Illustrator 16.0.4, SVG Export Plug-In . SVG Version: 6.00 Build 0)  -->
<!DOCTYPE svg PUBLIC "-//W3C//DTD SVG 1.1//EN" "http://www.w3.org/Graphics/SVG/1.1/DTD/svg11.dtd">
<svg version="1.1" id="Layer_1" xmlns="http://www.w3.org/2000/svg" xmlns:xlink="http://www.w3.org/1999/xlink" x="0px" y="0px"
	 width="56px" height="52px" viewBox="0 0 56 52" style="enable-background:new 0 0 56 52;" xml:space="preserve">
<g id="_x39_98-sail-boat_x40_2x.png">
	<g>
		<path d="M55,38H30V1c0-0.552-0.447-1-1-1c-0.276,0-0.526,0.112-0.707,0.293l-28,28C0.112,28.474,0,28.724,0,29
			c0,0.553,0.447,1,1,1h27v8H1c-0.553,0-1,0.448-1,1v3c0,5.522,4.478,10,10,10h36c5.522,0,10-4.478,10-10v-3
			C56,38.448,55.553,38,55,38z M3.414,28L28,3.414V28H3.414z M54,42c0,4.418-3.582,8-8,8H10c-4.418,0-8-3.582-8-8v-2h52V42z"/>
	</g>
</g>
<g>
</g>
<g>
</g>
<g>
</g>
<g>
</g>
<g>
</g>
<g>
</g>
<g>
</g>
<g>
</g>
<g>
</g>
<g>
</g>
<g>
</g>
<g>
</g>
<g>
</g>
<g>
</g>
<g>
</g>
</svg>
