<?xml version="1.0" encoding="iso-8859-1"?>
<!-- Generator: Adobe Illustrator 16.0.4, SVG Export Plug-In . SVG Version: 6.00 Build 0)  -->
<!DOCTYPE svg PUBLIC "-//W3C//DTD SVG 1.1//EN" "http://www.w3.org/Graphics/SVG/1.1/DTD/svg11.dtd">
<svg version="1.1" id="Layer_1" xmlns="http://www.w3.org/2000/svg" xmlns:xlink="http://www.w3.org/1999/xlink" x="0px" y="0px"
	 width="44px" height="44px" viewBox="0 0 44 44" style="enable-background:new 0 0 44 44;" xml:space="preserve">
<g id="_x38_16-satellite-toolbar_x40_2x.png">
	<g>
		<path d="M28,23c0-1.274-0.492-2.425-1.277-3.309l9.984-9.983C36.888,9.527,37,9.276,37,9s-0.112-0.526-0.293-0.707l-8-8
			C28.526,0.112,28.276,0,28,0s-0.526,0.112-0.707,0.293l-9.965,9.965l-0.793-0.793l-0.012,0.012C15.621,8.569,14.382,8,13,8
			c-2.762,0-5,2.238-5,5c0,1.382,0.569,2.621,1.477,3.523l-0.012,0.013l0.793,0.792l-9.965,9.965C0.112,27.474,0,27.724,0,28
			s0.112,0.526,0.293,0.707l8,8C8.474,36.889,8.724,37,9,37s0.526-0.111,0.707-0.293l9.984-9.984C20.574,27.509,21.726,28,23,28
			C25.762,28,28,25.762,28,23z M28,2.414L34.586,9l-9.258,9.258l-6.585-6.586L28,2.414z M9,34.586L2.414,28l9.258-9.257l6.586,6.586
			L9,34.586z M23,26c-0.828,0-1.578-0.336-2.121-0.879l-10-10C10.336,14.579,10,13.828,10,13c0-1.656,1.343-3,3-3
			c0.828,0,1.578,0.336,2.121,0.879l10,10C25.664,21.422,26,22.172,26,23C26,24.657,24.657,26,23,26z M34,26c0,4.418-3.582,8-8,8
			c-0.553,0-1,0.447-1,1s0.447,1,1,1c5.522,0,10-4.477,10-10c0-0.552-0.447-1-1-1S34,25.448,34,26z M43,25c-0.553,0-1,0.448-1,1
			c0,8.837-7.163,16-16,16c-0.553,0-1,0.447-1,1s0.447,1,1,1c9.941,0,18-8.059,18-18C44,25.448,43.553,25,43,25z"/>
	</g>
</g>
<g>
</g>
<g>
</g>
<g>
</g>
<g>
</g>
<g>
</g>
<g>
</g>
<g>
</g>
<g>
</g>
<g>
</g>
<g>
</g>
<g>
</g>
<g>
</g>
<g>
</g>
<g>
</g>
<g>
</g>
</svg>
