<?xml version="1.0" encoding="iso-8859-1"?>
<!-- Generator: Adobe Illustrator 16.0.4, SVG Export Plug-In . SVG Version: 6.00 Build 0)  -->
<!DOCTYPE svg PUBLIC "-//W3C//DTD SVG 1.1//EN" "http://www.w3.org/Graphics/SVG/1.1/DTD/svg11.dtd">
<svg version="1.1" id="Layer_1" xmlns="http://www.w3.org/2000/svg" xmlns:xlink="http://www.w3.org/1999/xlink" x="0px" y="0px"
	 width="56px" height="56px" viewBox="0 0 56 56" style="enable-background:new 0 0 56 56;" xml:space="preserve">
<g id="_x38_16-satellite_x40_2x.png">
	<g>
		<path d="M36,31c0-1.274-0.492-2.426-1.277-3.309l13.984-13.983C48.888,13.526,49,13.276,49,13s-0.112-0.526-0.293-0.707l-12-12
			C36.526,0.112,36.276,0,36,0s-0.526,0.112-0.707,0.293L21.328,14.258l-0.793-0.793l-0.012,0.012C19.621,12.568,18.382,12,17,12
			c-2.762,0-5,2.238-5,5c0,1.382,0.568,2.621,1.477,3.523l-0.012,0.012l0.793,0.793L0.293,35.293C0.112,35.474,0,35.724,0,36
			s0.112,0.526,0.293,0.707l12,12C12.474,48.889,12.724,49,13,49s0.526-0.111,0.707-0.293l13.984-13.984
			C28.574,35.509,29.726,36,31,36C33.762,36,36,33.762,36,31z M36,2.414L46.586,13L33.328,26.258L22.743,15.672L36,2.414z
			 M13,46.586L2.414,36l13.258-13.257l10.586,10.585L13,46.586z M14.879,19.121C14.336,18.578,14,17.828,14,17c0-1.656,1.343-3,3-3
			c0.828,0,1.578,0.336,2.121,0.879l14,14C33.664,29.422,34,30.172,34,31c0,1.657-1.343,3-3,3c-0.828,0-1.578-0.336-2.121-0.879
			L14.879,19.121z M55,30c-0.553,0-1,0.448-1,1c0,12.703-10.298,23-23,23c-0.553,0-1,0.448-1,1c0,0.553,0.447,1,1,1
			c13.807,0,25-11.192,25-25C56,30.448,55.553,30,55,30z M46,31c0,8.284-6.716,15-15,15c-0.553,0-1,0.448-1,1c0,0.553,0.447,1,1,1
			c9.389,0,17-7.611,17-17c0-0.552-0.447-1-1-1S46,30.448,46,31z"/>
	</g>
</g>
<g>
</g>
<g>
</g>
<g>
</g>
<g>
</g>
<g>
</g>
<g>
</g>
<g>
</g>
<g>
</g>
<g>
</g>
<g>
</g>
<g>
</g>
<g>
</g>
<g>
</g>
<g>
</g>
<g>
</g>
</svg>
