<?xml version="1.0" encoding="iso-8859-1"?>
<!-- Generator: Adobe Illustrator 16.0.4, SVG Export Plug-In . SVG Version: 6.00 Build 0)  -->
<!DOCTYPE svg PUBLIC "-//W3C//DTD SVG 1.1//EN" "http://www.w3.org/Graphics/SVG/1.1/DTD/svg11.dtd">
<svg version="1.1" id="Layer_1" xmlns="http://www.w3.org/2000/svg" xmlns:xlink="http://www.w3.org/1999/xlink" x="0px" y="0px"
	 width="56px" height="56.013px" viewBox="0 0 56 56.013" style="enable-background:new 0 0 56 56.013;" xml:space="preserve">
<g id="_x37_54-scale_x40_2x.png">
	<g>
		<path d="M55.93,34.665l0.007-0.003l-8.508-22.688l-0.458-1.96C39.051,5.299,35.946,6.931,31.249,9.4
			C31.168,9.443,31.081,9.487,31,9.529V3.013c0-1.656-1.343-3-3-3c-1.505,0-2.738,1.111-2.955,2.555
			c-0.107-0.056-0.22-0.113-0.325-0.168c-4.697-2.469-7.802-4.101-15.722,0.614L8.637,4.801L0.063,27.663l0.007,0.002
			C0.029,27.774,0,27.89,0,28.013c0,0.15,0.038,0.29,0.098,0.418c0.605,3.707,4.796,6.582,9.902,6.582s9.297-2.875,9.902-6.582
			C19.962,28.303,20,28.164,20,28.013c0-0.123-0.029-0.239-0.07-0.349l0.007-0.002L11.148,4.229c6.1-3.348,8.385-2.151,12.686,0.107
			C24.198,4.528,24.6,4.736,25,4.942v45.071h-7c-2.209,0-4,1.791-4,4v2h2h24h2v-2c0-2.209-1.791-4-4-4h-7V11.926
			c0.389-0.2,0.781-0.403,1.135-0.589c4.307-2.263,6.594-3.459,12.711-0.094l-8.782,23.418l0.007,0.003
			C36.029,34.774,36,34.89,36,35.013c0,0.15,0.038,0.29,0.098,0.417c0.605,3.708,4.796,6.583,9.902,6.583s9.297-2.875,9.902-6.583
			C55.962,35.303,56,35.164,56,35.013C56,34.89,55.971,34.774,55.93,34.665z M10,33.013c-3.661,0-6.742-1.691-7.691-4h15.384
			C16.742,31.322,13.661,33.013,10,33.013z M17.557,27.013H2.443L10,6.862L17.557,27.013z M27,3.013c0-0.552,0.447-1,1-1
			s1,0.448,1,1v47h-2V3.013z M38,52.013c1.104,0,2,0.896,2,2H16c0-1.104,0.896-2,2-2H38z M46,13.861l7.557,20.152H38.443L46,13.861z
			 M46,40.013c-3.661,0-6.742-1.691-7.691-4h15.384C52.742,38.322,49.661,40.013,46,40.013z"/>
	</g>
</g>
<g>
</g>
<g>
</g>
<g>
</g>
<g>
</g>
<g>
</g>
<g>
</g>
<g>
</g>
<g>
</g>
<g>
</g>
<g>
</g>
<g>
</g>
<g>
</g>
<g>
</g>
<g>
</g>
<g>
</g>
</svg>
