<?xml version="1.0" encoding="iso-8859-1"?>
<!-- Generator: Adobe Illustrator 16.0.4, SVG Export Plug-In . SVG Version: 6.00 Build 0)  -->
<!DOCTYPE svg PUBLIC "-//W3C//DTD SVG 1.1//EN" "http://www.w3.org/Graphics/SVG/1.1/DTD/svg11.dtd">
<svg version="1.1" id="Layer_1" xmlns="http://www.w3.org/2000/svg" xmlns:xlink="http://www.w3.org/1999/xlink" x="0px" y="0px"
	 width="44px" height="44px" viewBox="0 0 44 44" style="enable-background:new 0 0 44 44;" xml:space="preserve">
<g id="_x37_54-scale-toolbar_x40_2x.png">
	<g>
		<path d="M43.93,28.651l0.007-0.003l-5-18l-0.042,0.017c-7.877-4.215-8.926-2.742-13.614-0.278
			c-0.091,0.048-0.188,0.097-0.28,0.146V3c0-1.656-1.343-3-3-3c-1.505,0-2.738,1.111-2.955,2.555
			c-0.107-0.056-0.22-0.112-0.324-0.168C14.032-0.076,12.982-1.55,5.105,2.665L5.063,2.649l-5,17.999l0.007,0.003
			C0.029,20.761,0,20.877,0,21c0,0.221,0.086,0.414,0.207,0.579C0.819,23.781,3.154,26,6,26s5.181-2.219,5.793-4.42
			C11.914,21.414,12,21.221,12,21c0-0.123-0.029-0.239-0.07-0.349l0.007-0.003L7.288,3.914c5.685-2.95,6.28-1.831,10.546,0.409
			C18.198,4.515,18.6,4.723,19,4.929V38h-7c-2.209,0-4,1.791-4,4v2h2h24h2v-2c0-2.209-1.791-4-4-4h-7V12.929
			c0.4-0.206,0.803-0.414,1.166-0.605c4.266-2.24,4.861-3.359,10.547-0.409l-4.649,16.734l0.007,0.003
			C32.029,28.761,32,28.877,32,29c0,0.221,0.086,0.414,0.207,0.58C32.819,31.781,35.154,34,38,34s5.181-2.219,5.793-4.42
			C43.914,29.414,44,29.221,44,29C44,28.877,43.971,28.761,43.93,28.651z M6,24c-1.483,0-2.771-0.954-3.46-2h6.92
			C8.771,23.046,7.483,24,6,24z M9.688,20H2.312L6,6.723L9.688,20z M21,3c0-0.552,0.447-1,1-1s1,0.448,1,1v35h-2V3z M32,40
			c1.104,0,2,0.896,2,2H10c0-1.104,0.896-2,2-2H32z M38,32c-1.483,0-2.771-0.954-3.46-2h6.92C40.771,31.046,39.483,32,38,32z
			 M34.312,28L38,14.722L41.688,28H34.312z"/>
	</g>
</g>
<g>
</g>
<g>
</g>
<g>
</g>
<g>
</g>
<g>
</g>
<g>
</g>
<g>
</g>
<g>
</g>
<g>
</g>
<g>
</g>
<g>
</g>
<g>
</g>
<g>
</g>
<g>
</g>
<g>
</g>
</svg>
