<?xml version="1.0" encoding="iso-8859-1"?>
<!-- Generator: Adobe Illustrator 16.0.4, SVG Export Plug-In . SVG Version: 6.00 Build 0)  -->
<!DOCTYPE svg PUBLIC "-//W3C//DTD SVG 1.1//EN" "http://www.w3.org/Graphics/SVG/1.1/DTD/svg11.dtd">
<svg version="1.1" id="Layer_1" xmlns="http://www.w3.org/2000/svg" xmlns:xlink="http://www.w3.org/1999/xlink" x="0px" y="0px"
	 width="40.001px" height="43.993px" viewBox="0 0 40.001 43.993" style="enable-background:new 0 0 40.001 43.993;"
	 xml:space="preserve">
<g id="_x31_134-scarf_x40_2x.png">
	<g>
		<path d="M39.801,31.664c-1.25-1.999-2.505-3.003-3.206-3.465c-0.018-0.013-0.025-0.034-0.043-0.046
			c-0.31-0.193-7.225-4.497-13.064-6.69c5.847-7.37,5.607-10.675,5.496-12.102c-0.008-0.103-0.016-0.188-0.016-0.262
			c0-2.452-0.993-5.137-3.424-6.952c-0.006-0.004-0.011-0.008-0.017-0.012C23.795,0.85,21.345,0,17.983,0
			C7.676,0,4.004,7.312,4.004,14.155c0,4.084,1.49,6.579,2.281,7.619C2.323,27.191,0,33.231,0,37.001
			c0,0.197-0.002,0.293,0.014,0.343c-0.017,1.554,0.094,3.679,0.659,5.816c0.146,0.554,0.705,0.919,1.249,0.815
			c0.188-0.035,0.351-0.123,0.476-0.245c0.235-0.23,0.338-0.582,0.243-0.943c-0.452-1.709-0.575-3.427-0.586-4.785
			c0.563,0.01,1.331,0.037,2.218,0.096c0.026,1.457,0.175,3.251,0.654,5.062c0.146,0.554,0.705,0.919,1.249,0.815
			c0.188-0.035,0.35-0.123,0.475-0.245c0.235-0.23,0.339-0.582,0.243-0.943c-0.421-1.592-0.557-3.195-0.583-4.508
			c0.795,0.088,1.629,0.199,2.479,0.349c0.053,1.354,0.218,2.938,0.64,4.532c0.146,0.554,0.705,0.919,1.249,0.815
			c0.188-0.035,0.35-0.123,0.475-0.245c0.235-0.23,0.338-0.582,0.243-0.943c-0.339-1.283-0.494-2.578-0.556-3.722
			c0.777,0.193,1.545,0.41,2.268,0.681c0.092,1.075,0.265,2.244,0.574,3.414c0.146,0.554,0.705,0.919,1.249,0.815
			c0.188-0.035,0.351-0.123,0.476-0.245c0.234-0.23,0.338-0.582,0.243-0.943c-0.307-1.161-0.706-2.758-0.541-4.416
			c0.235-1.211,0.854-3.822,2.297-7.11c5.981,2.746,8.699,6.169,8.815,6.319c0.004,0.009,0.004,0.016,0.008,0.024
			c-0.01-0.024,0.944,0.822,3.248,3.712c0.233,0.293,0.535,0.472,0.863,0.452c0.175-0.011,0.349-0.071,0.501-0.187
			c0.441-0.333,0.545-0.991,0.233-1.47c-1.228-1.881-2.121-2.874-2.711-3.42c0.331-0.499,0.753-0.991,1.205-1.477
			c0.4,0.301,1.246,1.122,2.542,3.397c0.185,0.324,0.505,0.503,0.834,0.503c0.175,0,0.352-0.051,0.511-0.157
			c0.46-0.306,0.604-0.955,0.321-1.452c-1.253-2.198-2.172-3.229-2.727-3.724c0.465-0.406,0.939-0.801,1.412-1.166
			c0.464,0.311,1.359,1.086,2.763,3.072c0.215,0.305,0.552,0.451,0.879,0.42c0.174-0.018,0.345-0.085,0.494-0.206
			c0.428-0.349,0.508-1.01,0.178-1.477c-1.133-1.604-1.992-2.517-2.604-3.056c0.692-0.477,1.301-0.867,1.721-1.127
			c0.516,0.436,1.295,1.233,2.38,2.711c0.221,0.301,0.56,0.441,0.887,0.403c0.173-0.021,0.344-0.091,0.49-0.215
			C40.072,32.787,40.104,32.148,39.801,31.664z M14.694,2.363c1.021-0.217,2.113-0.341,3.289-0.341c2.714,0,4.603,0.578,5.931,1.409
			c-0.228,0.97-0.864,3.043-2.397,5.069c-3.498-2.037-6.887-1.604-8.882-1.02C13.121,5.582,13.945,3.792,14.694,2.363z
			 M12.245,9.737c1.257-0.521,4.514-1.521,7.915,0.286c-0.813,0.772-1.789,1.492-2.968,2.081c-1.396,0.697-2.727,1.543-3.985,2.5
			C12.34,13.08,12.109,11.404,12.245,9.737z M6,14.155c0-5.199,2.1-8.962,5.828-10.821c-1.632,3.646-2.914,8.544-0.275,12.636
			c-1.438,1.266-2.772,2.661-3.979,4.137C6.931,19.107,6,17.158,6,14.155z M13.213,37.623c-4.026-1.352-8.947-1.601-11.145-1.632
			c0.068-0.596,0.207-1.265,0.385-1.97c1.128-0.063,6.78-0.271,11.271,1.512C13.49,36.37,13.324,37.079,13.213,37.623z
			 M14.321,33.622c-4.24-1.642-9.182-1.695-11.252-1.63c2.15-6.092,7.472-14.329,15.018-18.099c4.818-2.408,6.754-6.598,7.496-8.979
			C26.804,6.482,26.97,8.266,26.97,9.1c0,0.117,0.01,0.257,0.022,0.422c0.087,1.113,0.318,4.069-5.477,11.202
			C17.627,25.509,15.487,30.203,14.321,33.622z M18.255,29.461c0.994-1.989,2.283-4.144,3.938-6.332
			c2.628,0.928,5.607,2.396,8.081,3.724c-3.021,1.876-5.3,4.367-6.485,5.822C22.357,31.634,20.525,30.504,18.255,29.461z
			 M26.883,35.32c-0.388-0.399-0.918-0.896-1.563-1.441c1.217-1.487,3.712-4.2,6.926-5.938c0.707,0.399,1.351,0.771,1.856,1.068
			C32.172,30.255,28.765,32.676,26.883,35.32z"/>
	</g>
</g>
<g>
</g>
<g>
</g>
<g>
</g>
<g>
</g>
<g>
</g>
<g>
</g>
<g>
</g>
<g>
</g>
<g>
</g>
<g>
</g>
<g>
</g>
<g>
</g>
<g>
</g>
<g>
</g>
<g>
</g>
</svg>
