<?xml version="1.0" encoding="iso-8859-1"?>
<!-- Generator: Adobe Illustrator 16.0.4, SVG Export Plug-In . SVG Version: 6.00 Build 0)  -->
<!DOCTYPE svg PUBLIC "-//W3C//DTD SVG 1.1//EN" "http://www.w3.org/Graphics/SVG/1.1/DTD/svg11.dtd">
<svg version="1.1" id="Layer_1" xmlns="http://www.w3.org/2000/svg" xmlns:xlink="http://www.w3.org/1999/xlink" x="0px" y="0px"
	 width="44.029px" height="40.031px" viewBox="0 0 44.029 40.031" style="enable-background:new 0 0 44.029 40.031;"
	 xml:space="preserve">
<g id="_x37_75-scissors-toolbar_x40_2x.png">
	<g>
		<path d="M7.01,30.023c-1.659,0-3.004,1.345-3.004,3.003c0,1.657,1.345,3.002,3.004,3.002s3.004-1.345,3.004-3.002
			C10.014,31.368,8.669,30.023,7.01,30.023z M7.01,34.026c-0.553,0-1.001-0.448-1.001-1c0-0.553,0.448-1.001,1.001-1.001
			s1.001,0.448,1.001,1.001C8.011,33.578,7.562,34.026,7.01,34.026z M7.01,4.003c-1.659,0-3.004,1.345-3.004,3.003
			s1.345,3.002,3.004,3.002s3.004-1.344,3.004-3.002S8.669,4.003,7.01,4.003z M7.01,8.006c-0.553,0-1.001-0.447-1.001-1
			S6.457,6.005,7.01,6.005s1.001,0.448,1.001,1.001S7.562,8.006,7.01,8.006z M44.029,5.591l-0.816-0.816
			c-5.434-5.428-14.866,2.616-24.141,10.844c-3.292-2.598-5.247-4.167-6.146-4.888c0.683-1.081,1.093-2.353,1.093-3.725
			C14.02,3.137,10.881,0,7.01,0S0,3.137,0,7.006c0,2.215,1.049,4.166,2.654,5.449L2.63,12.488c1.611,1.209,3.979,2.673,5.954,3.825
			c1.73,1.01,3.505,2.293,5.303,3.722c-1.798,1.426-3.571,2.704-5.303,3.714c-1.736,1.013-3.746,2.258-5.309,3.367
			c-0.158,0.101-0.306,0.211-0.454,0.323c-0.06,0.043-0.134,0.092-0.191,0.135l0.01,0.014C1.043,28.872,0,30.817,0,33.026
			c0,3.868,3.139,7.005,7.01,7.005s7.01-3.137,7.01-7.005c0-1.364-0.406-2.627-1.081-3.703c0.908-0.729,2.837-2.277,6.133-4.88
			c9.275,8.229,18.708,16.272,24.142,10.845l0.816-0.816l-19.268-14.44L44.029,5.591z M2.003,7.006c0-2.764,2.241-5.004,5.007-5.004
			s5.007,2.24,5.007,5.004S9.775,12.01,7.01,12.01S2.003,9.77,2.003,7.006z M9.594,14.585c-0.385-0.225-0.792-0.469-1.199-0.714
			c1.229-0.246,2.323-0.832,3.229-1.629c0.771,0.614,2.658,2.12,5.936,4.715c-0.693,0.613-1.386,1.215-2.073,1.791
			C13.476,17.132,11.508,15.701,9.594,14.585z M7.01,38.029c-2.766,0-5.007-2.24-5.007-5.003c0-1.606,0.771-3.02,1.947-3.936
			c0.136-0.101,0.297-0.209,0.443-0.313c0.763-0.471,1.653-0.756,2.616-0.756c2.766,0,5.007,2.241,5.007,5.005
			C12.017,35.789,9.775,38.029,7.01,38.029z M11.643,27.805c-0.898-0.797-1.985-1.386-3.207-1.638
			c0.393-0.236,0.786-0.472,1.158-0.688c3.06-1.786,6.244-4.31,9.542-7.239l0.311-0.275c7.885-7.005,16.749-14.882,21.39-12.481
			l-18.96,14.211C15.835,24.461,12.723,26.943,11.643,27.805z M40.836,34.58c-4.402,2.277-12.603-4.693-20.165-11.396
			c0.746-0.587,1.541-1.212,2.406-1.889l0.017-0.013L40.836,34.58z M19.425,19.246c-0.435,0-0.787,0.345-0.787,0.77
			c0,0.426,0.353,0.771,0.787,0.771s0.787-0.345,0.787-0.771C20.212,19.591,19.859,19.246,19.425,19.246z"/>
	</g>
</g>
<g>
</g>
<g>
</g>
<g>
</g>
<g>
</g>
<g>
</g>
<g>
</g>
<g>
</g>
<g>
</g>
<g>
</g>
<g>
</g>
<g>
</g>
<g>
</g>
<g>
</g>
<g>
</g>
<g>
</g>
</svg>
