<?xml version="1.0" encoding="iso-8859-1"?>
<!-- Generator: Adobe Illustrator 16.0.4, SVG Export Plug-In . SVG Version: 6.00 Build 0)  -->
<!DOCTYPE svg PUBLIC "-//W3C//DTD SVG 1.1//EN" "http://www.w3.org/Graphics/SVG/1.1/DTD/svg11.dtd">
<svg version="1.1" id="Layer_1" xmlns="http://www.w3.org/2000/svg" xmlns:xlink="http://www.w3.org/1999/xlink" x="0px" y="0px"
	 width="55.988px" height="52px" viewBox="0 0 55.988 52" style="enable-background:new 0 0 55.988 52;" xml:space="preserve">
<g id="_x37_75-scissors_x40_2x.png">
	<g>
		<path d="M9,5C6.791,5,5,6.791,5,9s1.791,4,4,4s4-1.791,4-4S11.209,5,9,5z M9,11c-1.104,0-2-0.896-2-2s0.896-2,2-2s2,0.896,2,2
			S10.104,11,9,11z M9,39.018c-2.209,0-4,1.788-4,3.994s1.791,3.995,4,3.995s4-1.789,4-3.995S11.209,39.018,9,39.018z M9,45.009
			c-1.104,0-2-0.894-2-1.997c0-1.103,0.896-1.997,2-1.997s2,0.895,2,1.997C11,44.115,10.104,45.009,9,45.009z M55.988,7.296
			l-0.543-0.785c-0.06-0.087-1.504-2.125-4.822-2.464c-4.772-0.488-10.717,2.643-17.655,9.268c-2.271,1.966-4.291,3.726-6.113,5.313
			c-0.858,0.749-1.659,1.443-2.437,2.114l-8.266-6.289C17.31,12.94,18,11.052,18,9c0-4.971-4.029-9-9-9S0,4.029,0,9
			c0,3.515,2.019,6.55,4.955,8.032l-0.006,0.01c4.987,2.771,8.46,5.116,13.21,8.977c-4.753,3.856-8.221,6.193-13.21,8.962
			l0.006,0.01C2.019,36.471,0,39.502,0,43.012C0,47.976,4.029,52,9,52s9-4.024,9-8.988c0-2.049-0.69-3.935-1.848-5.446l8.257-6.274
			c0.779,0.674,1.581,1.37,2.445,2.124c1.822,1.591,3.842,3.353,6.113,5.321c6.938,6.633,12.883,9.769,17.655,9.279
			c3.318-0.339,4.763-2.38,4.822-2.467l0.543-0.786L31.351,26.018L55.988,7.296z M7.974,16.463l-0.036-0.025l-2.09-1.22
			C3.574,14.062,2,11.726,2,9c0-3.866,3.134-7,7-7s7,3.134,7,7c0,1.598-0.55,3.057-1.455,4.23l-0.001-0.001
			c-0.192,0.252-0.403,0.488-0.625,0.712c-0.024,0.023-0.046,0.049-0.07,0.072c-0.232,0.228-0.479,0.44-0.744,0.634
			c-0.001,0.001-0.002,0.001-0.003,0.002l1.659,1.263c0.001,0,0.002-0.002,0.003-0.002l8.104,6.166
			c-1.117,0.958-2.157,1.837-3.136,2.649C15.48,21.258,12.141,18.895,7.974,16.463z M14.764,36.111
			c-0.001-0.001-0.002-0.002-0.003-0.003l-1.659,1.261c0.001,0.001,0.002,0.002,0.003,0.003c0.265,0.192,0.512,0.405,0.744,0.633
			c0.024,0.023,0.046,0.048,0.069,0.071c0.223,0.224,0.434,0.46,0.626,0.712l0.001-0.001C15.45,39.959,16,41.416,16,43.012
			c0,3.861-3.134,6.991-7,6.991s-7-3.13-7-6.991c0-2.722,1.574-5.055,3.848-6.21l0.321-0.215
			c7.573-4.225,11.976-7.716,22.001-16.454c1.821-1.586,3.838-3.345,6.144-5.342C42.391,7.08,47.48,5.774,50.338,6.025
			c1.305,0.118,2.199,0.567,2.752,0.962L14.764,36.111z M53.09,45.071c-0.553,0.396-1.447,0.845-2.752,0.963
			c-2.857,0.252-7.947-1.056-16.024-8.776c-2.306-2-4.322-3.761-6.144-5.35c-0.748-0.652-1.448-1.26-2.133-1.854l3.661-2.782
			L53.09,45.071z M24.688,25c-0.553,0-1,0.448-1,1c0,0.553,0.447,1,1,1s1-0.447,1-1C25.688,25.448,25.24,25,24.688,25z"/>
	</g>
</g>
<g>
</g>
<g>
</g>
<g>
</g>
<g>
</g>
<g>
</g>
<g>
</g>
<g>
</g>
<g>
</g>
<g>
</g>
<g>
</g>
<g>
</g>
<g>
</g>
<g>
</g>
<g>
</g>
<g>
</g>
</svg>
