<?xml version="1.0" encoding="iso-8859-1"?>
<!-- Generator: Adobe Illustrator 16.0.4, SVG Export Plug-In . SVG Version: 6.00 Build 0)  -->
<!DOCTYPE svg PUBLIC "-//W3C//DTD SVG 1.1//EN" "http://www.w3.org/Graphics/SVG/1.1/DTD/svg11.dtd">
<svg version="1.1" id="Layer_1" xmlns="http://www.w3.org/2000/svg" xmlns:xlink="http://www.w3.org/1999/xlink" x="0px" y="0px"
	 width="44px" height="44px" viewBox="0 0 44 44" style="enable-background:new 0 0 44 44;" xml:space="preserve">
<g id="_x31_151-scoreboard_x40_2x.png">
	<g>
		<path d="M14,28H4v2h10V28z M28,28H16v2h12V28z M40,28H30v2h10V28z M42,6l-4.224,0.005C35.078,2.303,29.036,0,22,0
			S8.922,2.303,6.224,6.005L2,6C1,6,0,7,0,8v26c0,1,1,2,2,2h2v8h2v-8h32v8h2v-8h2c1,0,2-1,2-2V8C44,7,43,6,42,6z M42,33.915
			c-0.021,0.029-0.055,0.063-0.085,0.085H40h-2H6H4H2.085C2.055,33.979,2.021,33.944,2,33.915V24h40V33.915z M42,22H2V8.085
			C2.021,8.056,2.055,8.021,2.085,8l4.137,0.005c0.001,0,0.001,0,0.002,0c0.639,0,1.24-0.306,1.616-0.822
			C10.134,4.034,15.692,2,22,2s11.866,2.034,14.16,5.183c0.376,0.517,0.977,0.822,1.616,0.822c0.001,0,0.002,0,0.002,0L41.916,8
			C41.945,8.021,41.979,8.056,42,8.085V22z M4,20h10v-6H4V20z M6,16h6v2H6V16z M30,12h10v-2H30V12z M30,20h10v-6H30V20z M32,16h6v2
			h-6V16z M16,12h12v-2H16V12z M18,20h8v-6h-8V20z M20,16h4v2h-4V16z M4,12h10v-2H4V12z"/>
	</g>
</g>
<g>
</g>
<g>
</g>
<g>
</g>
<g>
</g>
<g>
</g>
<g>
</g>
<g>
</g>
<g>
</g>
<g>
</g>
<g>
</g>
<g>
</g>
<g>
</g>
<g>
</g>
<g>
</g>
<g>
</g>
</svg>
