<?xml version="1.0" encoding="iso-8859-1"?>
<!-- Generator: Adobe Illustrator 16.0.4, SVG Export Plug-In . SVG Version: 6.00 Build 0)  -->
<!DOCTYPE svg PUBLIC "-//W3C//DTD SVG 1.1//EN" "http://www.w3.org/Graphics/SVG/1.1/DTD/svg11.dtd">
<svg version="1.1" id="Layer_1" xmlns="http://www.w3.org/2000/svg" xmlns:xlink="http://www.w3.org/1999/xlink" x="0px" y="0px"
	 width="32px" height="56px" viewBox="0 0 32 56" style="enable-background:new 0 0 32 56;" xml:space="preserve">
<g id="_x38_35-screw_x40_2x.png">
	<g>
		<path d="M17.121,0.013C17.08,0.01,17.041,0,17,0v2h-2V0c-0.041,0-0.08,0.01-0.121,0.013C3.768,0.138,0,2.13,0,6c0,2,2,2,2,2h8v34
			c0,0.127,0.029,0.246,0.072,0.357l-0.006,0.002l5,13l0.006-0.002C15.217,55.732,15.574,56,16,56s0.784-0.268,0.928-0.643
			l0.006,0.002l5-13l-0.006-0.002C21.971,42.246,22,42.127,22,42V8h8c0,0,2,0,2-2C32,2.13,28.232,0.138,17.121,0.013z M16,52.215
			l-0.639-1.661l1.666-1.01L16,52.215z M18.177,46.556c-0.017,0.009-0.037,0.007-0.053,0.015l-0.014-0.021l-3.479,2.108L13.8,46.492
			l5.724-3.438L18.177,46.556z M20,40.435l-6.93,4.163l-0.835-2.172L20,37.767V40.435z M20,35.434l-8,4.801v-2.668l8-4.8V35.434z
			 M20,30.434l-8,4.801v-2.668l8-4.8V30.434z M20,25.434l-8,4.801v-2.668l8-4.8V25.434z M20,20.434l-8,4.801v-2.668l8-4.8V20.434z
			 M20,15.434l-8,4.801v-2.668l8-4.8V15.434z M20,10.434l-8,4.801V8h8V10.434z M16,6H2c0-1.786,3.204-3.567,11.007-3.93
			C13.045,3.142,13.92,4,15,4h2c1.08,0,1.955-0.858,1.993-1.93C26.797,2.433,30,4.214,30,6H16z"/>
	</g>
</g>
<g>
</g>
<g>
</g>
<g>
</g>
<g>
</g>
<g>
</g>
<g>
</g>
<g>
</g>
<g>
</g>
<g>
</g>
<g>
</g>
<g>
</g>
<g>
</g>
<g>
</g>
<g>
</g>
<g>
</g>
</svg>
