<?xml version="1.0" encoding="iso-8859-1"?>
<!-- Generator: Adobe Illustrator 16.0.4, SVG Export Plug-In . SVG Version: 6.00 Build 0)  -->
<!DOCTYPE svg PUBLIC "-//W3C//DTD SVG 1.1//EN" "http://www.w3.org/Graphics/SVG/1.1/DTD/svg11.dtd">
<svg version="1.1" id="Layer_1" xmlns="http://www.w3.org/2000/svg" xmlns:xlink="http://www.w3.org/1999/xlink" x="0px" y="0px"
	 width="28px" height="44px" viewBox="0 0 28 44" style="enable-background:new 0 0 28 44;" xml:space="preserve">
<g id="_x38_35-screw-toolbar_x40_2x.png">
	<g>
		<path d="M15.148,0.016C15.099,0.012,15.051,0,15,0v2h-2V0c-0.051,0-0.098,0.012-0.147,0.016C3.705,0.168,0,2.159,0,6c0,2,2,2,2,2
			h6v22c0,0.127,0.029,0.246,0.072,0.357l-0.006,0.002l5,13l0.006-0.002C13.217,43.731,13.574,44,14,44s0.784-0.269,0.928-0.643
			l0.006,0.002l5-13l-0.006-0.002C19.971,30.246,20,30.127,20,30V8h6c0,0,2,0,2-2C28,2.159,24.296,0.168,15.148,0.016z M14,40.215
			l-0.639-1.661l1.666-1.009L14,40.215z M16.177,34.556c-0.017,0.009-0.037,0.007-0.053,0.015l-0.014-0.021l-3.479,2.108
			L11.8,34.492l5.724-3.438L16.177,34.556z M18,28.435l-6.93,4.163l-0.835-2.172L18,25.767V28.435z M18,23.434l-8,4.801v-2.668
			l8-4.8V23.434z M18,18.434l-8,4.801v-2.668l8-4.8V18.434z M18,13.434l-8,4.801v-2.668l8-4.8V13.434z M18,8.434l-8,4.801V8h8V8.434
			z M14,6H2c0-1.732,3.008-3.463,9.011-3.895C11.066,3.16,11.932,4,13,4h2c1.068,0,1.934-0.84,1.989-1.895
			C22.993,2.537,26,4.268,26,6H14z"/>
	</g>
</g>
<g>
</g>
<g>
</g>
<g>
</g>
<g>
</g>
<g>
</g>
<g>
</g>
<g>
</g>
<g>
</g>
<g>
</g>
<g>
</g>
<g>
</g>
<g>
</g>
<g>
</g>
<g>
</g>
<g>
</g>
</svg>
