<?xml version="1.0" encoding="iso-8859-1"?>
<!-- Generator: Adobe Illustrator 16.0.4, SVG Export Plug-In . SVG Version: 6.00 Build 0)  -->
<!DOCTYPE svg PUBLIC "-//W3C//DTD SVG 1.1//EN" "http://www.w3.org/Graphics/SVG/1.1/DTD/svg11.dtd">
<svg version="1.1" id="Layer_1" xmlns="http://www.w3.org/2000/svg" xmlns:xlink="http://www.w3.org/1999/xlink" x="0px" y="0px"
	 width="43.985px" height="43.985px" viewBox="0 0 43.985 43.985" style="enable-background:new 0 0 43.985 43.985;"
	 xml:space="preserve">
<g id="_x37_08-search-toolbar_x40_2x.png">
	<g>
		<path d="M43.695,42.294L29.688,28.286C32.361,25.283,34,21.337,34,17c0-9.39-7.611-17-17-17C7.61,0,0,7.61,0,17
			c0,9.389,7.61,17,17,17c4.337,0,8.283-1.639,11.286-4.312l14.009,14.008c0.387,0.387,1.014,0.387,1.4,0
			S44.082,42.682,43.695,42.294z M17,32C8.716,32,2,25.284,2,17S8.716,2,17,2s15,6.716,15,15S25.284,32,17,32z"/>
	</g>
</g>
<g>
</g>
<g>
</g>
<g>
</g>
<g>
</g>
<g>
</g>
<g>
</g>
<g>
</g>
<g>
</g>
<g>
</g>
<g>
</g>
<g>
</g>
<g>
</g>
<g>
</g>
<g>
</g>
<g>
</g>
</svg>
