<?xml version="1.0" encoding="iso-8859-1"?>
<!-- Generator: Adobe Illustrator 16.0.4, SVG Export Plug-In . SVG Version: 6.00 Build 0)  -->
<!DOCTYPE svg PUBLIC "-//W3C//DTD SVG 1.1//EN" "http://www.w3.org/Graphics/SVG/1.1/DTD/svg11.dtd">
<svg version="1.1" id="Layer_1" xmlns="http://www.w3.org/2000/svg" xmlns:xlink="http://www.w3.org/1999/xlink" x="0px" y="0px"
	 width="55.986px" height="55.986px" viewBox="0 0 55.986 55.986" style="enable-background:new 0 0 55.986 55.986;"
	 xml:space="preserve">
<g id="_x37_08-search_x40_2x.png">
	<g>
		<path d="M55.696,54.295L39.931,38.529C43.688,34.436,46,28.995,46,23C46,10.298,35.702,0,23,0S0,10.298,0,23s10.298,23,23,23
			c5.994,0,11.436-2.312,15.529-6.069l15.766,15.766c0.387,0.387,1.014,0.387,1.401,0C56.083,55.309,56.083,54.682,55.696,54.295z
			 M23,44C11.402,44,2,34.599,2,23C2,11.402,11.402,2,23,2s21,9.402,21,21C44,34.599,34.598,44,23,44z"/>
	</g>
</g>
<g>
</g>
<g>
</g>
<g>
</g>
<g>
</g>
<g>
</g>
<g>
</g>
<g>
</g>
<g>
</g>
<g>
</g>
<g>
</g>
<g>
</g>
<g>
</g>
<g>
</g>
<g>
</g>
<g>
</g>
</svg>
