<?xml version="1.0" encoding="iso-8859-1"?>
<!-- Generator: Adobe Illustrator 16.0.4, SVG Export Plug-In . SVG Version: 6.00 Build 0)  -->
<!DOCTYPE svg PUBLIC "-//W3C//DTD SVG 1.1//EN" "http://www.w3.org/Graphics/SVG/1.1/DTD/svg11.dtd">
<svg version="1.1" id="Layer_1" xmlns="http://www.w3.org/2000/svg" xmlns:xlink="http://www.w3.org/1999/xlink" x="0px" y="0px"
	 width="44px" height="29px" viewBox="0 0 44 29" style="enable-background:new 0 0 44 29;" xml:space="preserve">
<g id="_x37_93-service-bell-toolbar_x40_2x.png">
	<g>
		<path d="M43,27h-1c0,0-2,0-2-2v-9c0-8.067-4.523-11.791-17-11.981V2h2c0.553,0,1-0.447,1-1c0-0.552-0.447-1-1-1h-6
			c-0.553,0-1,0.448-1,1c0,0.553,0.447,1,1,1h2v2.019C8.523,4.209,4,7.933,4,16v9c0,2-2,2-2,2H1c-0.553,0-1,0.448-1,1
			c0,0.553,0.447,1,1,1h42c0.553,0,1-0.447,1-1C44,27.448,43.553,27,43,27z M6,16C6,8.82,9.85,6,22,6s16,2.82,16,10v3H6V16z M38,27
			H6H5c0,0,1,0,1-2v-4h32v4c0,2,1,2,1,2H38z"/>
	</g>
</g>
<g>
</g>
<g>
</g>
<g>
</g>
<g>
</g>
<g>
</g>
<g>
</g>
<g>
</g>
<g>
</g>
<g>
</g>
<g>
</g>
<g>
</g>
<g>
</g>
<g>
</g>
<g>
</g>
<g>
</g>
</svg>
