<?xml version="1.0" encoding="iso-8859-1"?>
<!-- Generator: Adobe Illustrator 16.0.4, SVG Export Plug-In . SVG Version: 6.00 Build 0)  -->
<!DOCTYPE svg PUBLIC "-//W3C//DTD SVG 1.1//EN" "http://www.w3.org/Graphics/SVG/1.1/DTD/svg11.dtd">
<svg version="1.1" id="Layer_1" xmlns="http://www.w3.org/2000/svg" xmlns:xlink="http://www.w3.org/1999/xlink" x="0px" y="0px"
	 width="56px" height="38px" viewBox="0 0 56 38" style="enable-background:new 0 0 56 38;" xml:space="preserve">
<g id="_x37_93-service-bell_x40_2x.png">
	<g>
		<path d="M55,36h-1c0,0-2,0-2-2V21c0-8.073-10.213-14.638-23-14.968V2h4c0.553,0,1-0.447,1-1s-0.447-1-1-1H23c-0.553,0-1,0.447-1,1
			s0.447,1,1,1h4v4.032C14.213,6.362,4,12.927,4,21v13c0,2-2,2-2,2H1c-0.553,0-1,0.448-1,1c0,0.553,0.447,1,1,1h54
			c0.553,0,1-0.447,1-1C56,36.448,55.553,36,55,36z M6,21c0-7.18,9.85-13,22-13s22,5.82,22,13v7H6V21z M50,36H6H5c0,0,1,0,1-2v-4h44
			v4c0,2,1,2,1,2H50z"/>
	</g>
</g>
<g>
</g>
<g>
</g>
<g>
</g>
<g>
</g>
<g>
</g>
<g>
</g>
<g>
</g>
<g>
</g>
<g>
</g>
<g>
</g>
<g>
</g>
<g>
</g>
<g>
</g>
<g>
</g>
<g>
</g>
</svg>
