<?xml version="1.0" encoding="UTF-8" standalone="no"?>
<svg width="58px" height="58px" viewBox="0 0 58 58" version="1.1" xmlns="http://www.w3.org/2000/svg" xmlns:xlink="http://www.w3.org/1999/xlink" xmlns:sketch="http://www.bohemiancoding.com/sketch/ns">
    <!-- Generator: Sketch 3.0.4 (8053) - http://www.bohemiancoding.com/sketch -->
    <title>1276-share</title>
    <desc>Created with Sketch.</desc>
    <defs></defs>
    <g id="Page-1" stroke="none" stroke-width="1" fill="none" fill-rule="evenodd" sketch:type="MSPage">
        <g id="Glyphish-8-Icons" sketch:type="MSArtboardGroup" transform="translate(-500.000000, -1651.000000)" fill="#000000">
            <g id="1276-share" sketch:type="MSLayerGroup" transform="translate(500.036996, 1651.860499)">
                <g id="_x31_276-share_x40_2x.png" sketch:type="MSShapeGroup">
                    <path d="M36.262,23.228 C39.432,23.228 42.001,20.715 42.001,17.614 C42.001,14.513 39.432,12 36.262,12 C33.092,12 30.522,14.514 30.522,17.614 C30.522,17.786 30.534,17.954 30.548,18.122 L19.486,23.639 C18.484,22.803 17.187,22.296 15.767,22.296 C12.597,22.296 10.027,24.81 10.027,27.91 C10.027,31.01 12.597,33.524 15.767,33.524 C17.045,33.524 18.221,33.111 19.175,32.42 L30.536,38.086 C30.531,38.187 30.52,38.286 30.52,38.388 C30.52,41.489 33.09,44.002 36.26,44.002 C39.43,44.002 41.999,41.488 41.999,38.388 C41.999,35.288 39.43,32.774 36.26,32.774 C34.774,32.774 33.423,33.332 32.405,34.238 L21.432,28.766 C21.475,28.486 21.505,28.203 21.505,27.911 C21.505,27.747 21.494,27.586 21.48,27.425 L32.556,21.902 C33.558,22.727 34.85,23.228 36.262,23.228 L36.262,23.228 Z M28,0 C12.536,0 0,12.536 0,28 C0,43.464 12.536,56 28,56 C43.464,56 56,43.464 56,28 C56,12.536 43.464,0 28,0 L28,0 Z M28,54 C13.641,54 2,42.359 2,28 C2,13.641 13.641,2 28,2 C42.359,2 54,13.641 54,28 C54,42.359 42.359,54 28,54 L28,54 Z" id="Shape"></path>
                </g>
            </g>
        </g>
    </g>
</svg>