<?xml version="1.0" encoding="iso-8859-1"?>
<!-- Generator: Adobe Illustrator 16.0.4, SVG Export Plug-In . SVG Version: 6.00 Build 0)  -->
<!DOCTYPE svg PUBLIC "-//W3C//DTD SVG 1.1//EN" "http://www.w3.org/Graphics/SVG/1.1/DTD/svg11.dtd">
<svg version="1.1" id="Layer_1" xmlns="http://www.w3.org/2000/svg" xmlns:xlink="http://www.w3.org/1999/xlink" x="0px" y="0px"
	 width="32px" height="44px" viewBox="0 0 32 44" style="enable-background:new 0 0 32 44;" xml:space="preserve">
<g id="_x37_02-share-toolbar_x40_2x.png">
	<g>
		<path d="M10,8c0.276,0,0.526-0.112,0.707-0.293L15,3.414V33c0,0.553,0.448,1,1,1c0.553,0,1-0.447,1-1V3.414l4.293,4.293
			C21.474,7.888,21.724,8,22,8c0.553,0,1-0.447,1-1c0-0.276-0.112-0.526-0.293-0.707l-6-6C16.526,0.112,16.276,0,16,0
			s-0.526,0.112-0.707,0.293l-6,6C9.112,6.474,9,6.724,9,7C9,7.553,9.447,8,10,8z M30,14h-8c-0.553,0-1,0.448-1,1
			c0,0.553,0.447,1,1,1h8v26H2V16h8c0.553,0,1-0.447,1-1c0-0.552-0.447-1-1-1H2c-1.104,0-2,0.896-2,2v26c0,1.104,0.896,2,2,2h28
			c1.104,0,2-0.896,2-2V16C32,14.896,31.104,14,30,14z"/>
	</g>
</g>
<g>
</g>
<g>
</g>
<g>
</g>
<g>
</g>
<g>
</g>
<g>
</g>
<g>
</g>
<g>
</g>
<g>
</g>
<g>
</g>
<g>
</g>
<g>
</g>
<g>
</g>
<g>
</g>
<g>
</g>
</svg>
