<?xml version="1.0" encoding="iso-8859-1"?>
<!-- Generator: Adobe Illustrator 16.0.4, SVG Export Plug-In . SVG Version: 6.00 Build 0)  -->
<!DOCTYPE svg PUBLIC "-//W3C//DTD SVG 1.1//EN" "http://www.w3.org/Graphics/SVG/1.1/DTD/svg11.dtd">
<svg version="1.1" id="Layer_1" xmlns="http://www.w3.org/2000/svg" xmlns:xlink="http://www.w3.org/1999/xlink" x="0px" y="0px"
	 width="42px" height="56px" viewBox="0 0 42 56" style="enable-background:new 0 0 42 56;" xml:space="preserve">
<g id="_x37_02-share_x40_2x.png">
	<g>
		<path d="M13,10c0.276,0,0.526-0.112,0.707-0.293L20,3.414V35c0,0.553,0.447,1,1,1s1-0.447,1-1V3.414l6.293,6.293
			C28.474,9.888,28.724,10,29,10c0.553,0,1-0.447,1-1c0-0.276-0.112-0.526-0.293-0.707l-8-8C21.526,0.112,21.276,0,21,0
			s-0.526,0.112-0.707,0.293l-8,8C12.112,8.474,12,8.724,12,9C12,9.553,12.447,10,13,10z M40,16H27c-0.553,0-1,0.447-1,1
			s0.447,1,1,1h13v36H2V18h13c0.553,0,1-0.447,1-1s-0.447-1-1-1H2c-1.104,0-2,0.896-2,2v36c0,1.104,0.896,2,2,2h38
			c1.104,0,2-0.896,2-2V18C42,16.896,41.104,16,40,16z"/>
	</g>
</g>
<g>
</g>
<g>
</g>
<g>
</g>
<g>
</g>
<g>
</g>
<g>
</g>
<g>
</g>
<g>
</g>
<g>
</g>
<g>
</g>
<g>
</g>
<g>
</g>
<g>
</g>
<g>
</g>
<g>
</g>
</svg>
