<?xml version="1.0" encoding="iso-8859-1"?>
<!-- Generator: Adobe Illustrator 16.0.4, SVG Export Plug-In . SVG Version: 6.00 Build 0)  -->
<!DOCTYPE svg PUBLIC "-//W3C//DTD SVG 1.1//EN" "http://www.w3.org/Graphics/SVG/1.1/DTD/svg11.dtd">
<svg version="1.1" id="Layer_1" xmlns="http://www.w3.org/2000/svg" xmlns:xlink="http://www.w3.org/1999/xlink" x="0px" y="0px"
	 width="44px" height="44px" viewBox="0 0 44 44" style="enable-background:new 0 0 44 44;" xml:space="preserve">
<g id="_x31_276-share_x40_2x.png">
	<g>
		<path d="M28.693,18.418c2.379,0,4.308-1.886,4.308-4.213s-1.929-4.214-4.308-4.214c-2.38,0-4.308,1.887-4.308,4.214
			c0,0.128,0.008,0.255,0.02,0.381l-8.303,4.14c-0.752-0.627-1.726-1.007-2.791-1.007c-2.379,0-4.308,1.886-4.308,4.213
			c0,2.328,1.929,4.214,4.308,4.214c0.959,0,1.843-0.311,2.559-0.829l8.526,4.253c-0.004,0.075-0.011,0.149-0.011,0.227
			c0,2.327,1.928,4.214,4.308,4.214c2.379,0,4.308-1.887,4.308-4.214s-1.929-4.214-4.308-4.214c-1.116,0-2.129,0.418-2.895,1.099
			l-8.234-4.106c0.032-0.21,0.055-0.424,0.055-0.643c0-0.123-0.009-0.244-0.019-0.364l8.312-4.146
			C26.664,18.042,27.633,18.418,28.693,18.418z M22,0C9.85,0,0,9.85,0,22s9.85,22,22,22s22-9.85,22-22S34.15,0,22,0z M22,42
			C10.954,42,2,33.046,2,22S10.954,2,22,2s20,8.954,20,20S33.046,42,22,42z"/>
	</g>
</g>
<g>
</g>
<g>
</g>
<g>
</g>
<g>
</g>
<g>
</g>
<g>
</g>
<g>
</g>
<g>
</g>
<g>
</g>
<g>
</g>
<g>
</g>
<g>
</g>
<g>
</g>
<g>
</g>
<g>
</g>
</svg>
