<?xml version="1.0" encoding="iso-8859-1"?>
<!-- Generator: Adobe Illustrator 16.0.4, SVG Export Plug-In . SVG Version: 6.00 Build 0)  -->
<!DOCTYPE svg PUBLIC "-//W3C//DTD SVG 1.1//EN" "http://www.w3.org/Graphics/SVG/1.1/DTD/svg11.dtd">
<svg version="1.1" id="Layer_1" xmlns="http://www.w3.org/2000/svg" xmlns:xlink="http://www.w3.org/1999/xlink" x="0px" y="0px"
	 width="56px" height="44px" viewBox="0 0 56 44" style="enable-background:new 0 0 56 44;" xml:space="preserve">
<g id="_x31_024-share_x40_2x.png">
	<g>
		<path d="M56,17c0-0.316-0.156-0.586-0.385-0.77l0.01-0.012l-20-16l-0.01,0.013C35.444,0.094,35.236,0,35,0c-0.553,0-1,0.447-1,1
			v9.037c-9.11,0.488-24,7.492-24,20.971v3.609l1.857-3.096c0.056-0.094,5.703-9.115,22.143-9.48V31c0,0.553,0.447,1,1,1
			c0.214,0,0.4-0.082,0.563-0.195l0.01,0.015l20-14l-0.011-0.015C55.82,17.623,56,17.339,56,17z M36,29.079V21c0-0.553-0.447-1-1-1
			c-0.015,0-0.026,0.008-0.041,0.009c-12.601,0.01-19.486,4.762-22.641,7.869c1.083-5.192,4.733-8.748,7.876-10.923
			c4.341-3.006,10.152-4.947,14.806-4.947V12c0.553,0,1-0.447,1-1V3.081l17.332,13.865L36,29.079z M45,30c-0.553,0-1,0.447-1,1v11H2
			V12h13c0.553,0,1-0.447,1-1s-0.447-1-1-1H1c-0.553,0-1,0.447-1,1v32c0,0.553,0.447,1,1,1h44c0.553,0,1-0.447,1-1V31
			C46,30.447,45.553,30,45,30z"/>
	</g>
</g>
<g>
</g>
<g>
</g>
<g>
</g>
<g>
</g>
<g>
</g>
<g>
</g>
<g>
</g>
<g>
</g>
<g>
</g>
<g>
</g>
<g>
</g>
<g>
</g>
<g>
</g>
<g>
</g>
<g>
</g>
</svg>
