<?xml version="1.0" encoding="iso-8859-1"?>
<!-- Generator: Adobe Illustrator 16.0.4, SVG Export Plug-In . SVG Version: 6.00 Build 0)  -->
<!DOCTYPE svg PUBLIC "-//W3C//DTD SVG 1.1//EN" "http://www.w3.org/Graphics/SVG/1.1/DTD/svg11.dtd">
<svg version="1.1" id="Layer_1" xmlns="http://www.w3.org/2000/svg" xmlns:xlink="http://www.w3.org/1999/xlink" x="0px" y="0px"
	 width="44.006px" height="36px" viewBox="0 0 44.006 36" style="enable-background:new 0 0 44.006 36;" xml:space="preserve">
<g id="_x31_024-share-toolbar_x40_2x.png">
	<g>
		<path d="M34.997,26.018c-0.539,0-0.975,0.435-0.982,0.973h-0.003v0.014c0,0.001,0,0.001,0,0.001c0,0.001,0,0.001,0,0.001v6.98h-32
			V10.007h8.992c0.001,0,0.001,0,0.002,0c0.556,0,1.006-0.45,1.006-1.007c0-0.556-0.45-1.007-1.006-1.007c-0.001,0-0.001,0-0.002,0
			h-10C0.449,7.994,0,8.444,0,9v25.994C0.001,35.55,0.45,35.999,1.005,36h34.009v-0.003c0.535-0.01,0.968-0.452,0.969-1.002h0.032
			V26.99H35.98C35.973,26.452,35.537,26.018,34.997,26.018z M44.006,14.007c0-0.293-0.13-0.551-0.329-0.735l0.004-0.004
			L29.712,0.296c-0.001-0.001-0.003-0.002-0.004-0.003l-0.027-0.025l-0.004,0.004C29.497,0.106,29.263,0,29,0
			c-0.555,0-1.005,0.45-1.005,1.006h-0.001v7.042C23.813,8.325,8,10.345,8,25.004v2.621c0,0,5.177-9.171,19.994-9.582v6.946h0.004
			c0,0.006-0.004,0.012-0.004,0.018c0,0.557,0.45,1.007,1.006,1.007c0.236,0,0.444-0.094,0.616-0.23l0.002,0.003l0.038-0.03
			c0.021-0.018,0.045-0.03,0.063-0.05l13.898-10.92l-0.003-0.003C43.848,14.6,44.006,14.326,44.006,14.007z M30.006,22.938v-5.944
			h-0.003C29.996,16.444,29.551,16,29,16c-0.008,0-0.014,0.004-0.021,0.004c-10.217,0.006-15.961,3.597-18.726,6.104
			c0.859-4.665,3.899-8.074,9.07-10.157c4.544-1.829,9.166-1.94,9.63-1.946c0.017,0,0.03,0.009,0.047,0.009
			c0.556,0,1.006-0.45,1.006-1.007c0-0.002-0.001-0.004-0.001-0.007h0.001V3.299l11.456,10.638L30.006,22.938z"/>
	</g>
</g>
<g>
</g>
<g>
</g>
<g>
</g>
<g>
</g>
<g>
</g>
<g>
</g>
<g>
</g>
<g>
</g>
<g>
</g>
<g>
</g>
<g>
</g>
<g>
</g>
<g>
</g>
<g>
</g>
<g>
</g>
</svg>
