<?xml version="1.0" encoding="iso-8859-1"?>
<!-- Generator: Adobe Illustrator 16.0.4, SVG Export Plug-In . SVG Version: 6.00 Build 0)  -->
<!DOCTYPE svg PUBLIC "-//W3C//DTD SVG 1.1//EN" "http://www.w3.org/Graphics/SVG/1.1/DTD/svg11.dtd">
<svg version="1.1" id="Layer_1" xmlns="http://www.w3.org/2000/svg" xmlns:xlink="http://www.w3.org/1999/xlink" x="0px" y="0px"
	 width="40px" height="44.014px" viewBox="0 0 40 44.014" style="enable-background:new 0 0 40 44.014;" xml:space="preserve">
<g id="_x38_28-shield-toolbar_x40_2x.png">
	<g>
		<path d="M8.462,18.062l7.108,5.12l-2.576,8.253L20,26.628l7.006,4.807l-2.576-8.253l7.108-5.12H22.73L20,9.704l-2.73,8.357H8.462z
			 M19.171,18.683L20,16.145l0.829,2.538l0.45,1.38h4.06l-2.078,1.495l-1.17,0.844l0.43,1.376l0.856,2.742l-2.246-1.54L20,24.203
			l-1.131,0.776l-2.246,1.54l0.856-2.742l0.43-1.376l-1.17-0.844l-2.077-1.495h4.059L19.171,18.683z M39.23,6.445
			c-10.379,0-18.695-6.051-18.778-6.11L20,0l-0.452,0.335c-0.083,0.06-8.399,6.11-18.778,6.11H0v8.609
			c0,21.614,18.38,28.959,20,28.959s20-7.345,20-28.959V6.445H39.23z M38,15.055c0,20.047-16.253,26.328-18,26.921
			c-1.747-0.593-18-6.874-18-26.921V8.419c8.631-0.37,15.738-4.512,17.999-5.977C22.229,3.889,29.349,8.048,38,8.419V15.055z"/>
	</g>
</g>
<g>
</g>
<g>
</g>
<g>
</g>
<g>
</g>
<g>
</g>
<g>
</g>
<g>
</g>
<g>
</g>
<g>
</g>
<g>
</g>
<g>
</g>
<g>
</g>
<g>
</g>
<g>
</g>
<g>
</g>
</svg>
