<?xml version="1.0" encoding="iso-8859-1"?>
<!-- Generator: Adobe Illustrator 16.0.4, SVG Export Plug-In . SVG Version: 6.00 Build 0)  -->
<!DOCTYPE svg PUBLIC "-//W3C//DTD SVG 1.1//EN" "http://www.w3.org/Graphics/SVG/1.1/DTD/svg11.dtd">
<svg version="1.1" id="Layer_1" xmlns="http://www.w3.org/2000/svg" xmlns:xlink="http://www.w3.org/1999/xlink" x="0px" y="0px"
	 width="52px" height="56.017px" viewBox="0 0 52 56.017" style="enable-background:new 0 0 52 56.017;" xml:space="preserve">
<g id="_x38_28-shield_x40_2x.png">
	<g>
		<path d="M22.451,22.994H11l9.241,6.516l-3.349,10.504L26,33.897l9.107,6.116L31.759,29.51L41,22.994H29.549L26,12.357
			L22.451,22.994z M34.812,25.014l-5.431,3.819l1.937,6.272L26,31.288l-5.388,3.817l2.006-6.272l-5.431-3.819H24l2-6.174l2,6.174
			H34.812z M51,8.204c-13.493,0-24.305-7.702-24.412-7.778L26,0l-0.588,0.426C25.305,0.502,14.493,8.204,1,8.204H0v10.957
			C0,46.67,23.894,56.017,26,56.017s26-9.347,26-36.855V8.204H51z M50,19.161c0,25.76-21.611,34.71-24,34.863
			c-2.389-0.153-24-9.104-24-34.863v-8.978c12.025-0.312,21.567-6.123,24-7.742c2.433,1.619,11.975,7.431,24,7.742V19.161z"/>
	</g>
</g>
<g>
</g>
<g>
</g>
<g>
</g>
<g>
</g>
<g>
</g>
<g>
</g>
<g>
</g>
<g>
</g>
<g>
</g>
<g>
</g>
<g>
</g>
<g>
</g>
<g>
</g>
<g>
</g>
<g>
</g>
</svg>
