<?xml version="1.0" encoding="UTF-8" standalone="no"?>
<svg width="57px" height="54px" viewBox="0 0 57 54" version="1.1" xmlns="http://www.w3.org/2000/svg" xmlns:xlink="http://www.w3.org/1999/xlink" xmlns:sketch="http://www.bohemiancoding.com/sketch/ns">
    <!-- Generator: Sketch 3.0.4 (8053) - http://www.bohemiancoding.com/sketch -->
    <title>1164-shinto-torii-arch</title>
    <desc>Created with Sketch.</desc>
    <defs></defs>
    <g id="Page-1" stroke="none" stroke-width="1" fill="none" fill-rule="evenodd" sketch:type="MSPage">
        <g id="Glyphish-8-Icons" sketch:type="MSArtboardGroup" transform="translate(-308.000000, -597.000000)" fill="#000000">
            <g id="1164-shinto-torii-arch" sketch:type="MSLayerGroup" transform="translate(308.036996, 597.860499)">
                <g id="_x31_164-shinto-torii-arch_x40_2x.png" sketch:type="MSShapeGroup">
                    <path d="M55.847,0.462 C55.594,0.066 55.102,-0.099 54.661,0.06 C54.553,0.1 43.644,3.993 28.001,3.993 C12.383,3.992 1.45,0.1 1.341,0.06 C0.897,-0.1 0.406,0.068 0.156,0.462 C-0.095,0.857 -0.039,1.373 0.293,1.704 C3.049,4.456 4.02,8.192 4.03,8.229 C4.142,8.672 4.542,8.984 5,8.984 C5.69,8.984 7.155,11.064 8.072,13.348 C8.224,13.727 8.592,13.976 9,13.976 L14.006,13.976 C14.006,13.981 14.004,13.986 14.004,13.991 C14.004,15.095 15.347,15.991 17.004,15.991 C18.661,15.991 20.004,15.095 20.004,13.991 C20.004,13.986 20.002,13.981 20.002,13.976 L25.004,13.976 L25.004,17.991 L20.004,17.991 C20.004,16.887 18.661,15.991 17.004,15.991 C15.347,15.991 14.004,16.887 14.004,17.991 L10.418,17.991 L9.711,17.284 C9.53,17.103 9.28,16.99 9.004,16.99 C8.452,16.99 8.004,17.437 8.004,17.99 L8.004,22.99 C8.004,23.543 8.452,23.99 9.004,23.99 L14.004,23.99 L14.004,49.99 C14.004,51.094 14.9,51.99 16.004,51.99 L18.004,51.99 C19.108,51.99 20.004,51.094 20.004,49.99 L20.004,23.99 L36.004,23.99 L36.004,49.99 C36.004,51.094 36.9,51.99 38.004,51.99 L40.004,51.99 C41.108,51.99 42.004,51.094 42.004,49.99 L42.004,23.99 L47.004,23.99 C47.556,23.99 48.004,23.543 48.004,22.99 L48.004,17.99 C48.004,17.437 47.556,16.99 47.004,16.99 C46.728,16.99 46.478,17.102 46.297,17.283 L45.59,17.99 L42.004,17.99 C42.004,16.886 40.661,15.99 39.004,15.99 C37.347,15.99 36.004,16.886 36.004,17.99 L31.004,17.99 L31.004,13.975 L36.006,13.975 C36.006,13.98 36.004,13.985 36.004,13.99 C36.004,15.094 37.347,15.99 39.004,15.99 C40.661,15.99 42.004,15.094 42.004,13.99 C42.004,13.985 42.002,13.98 42.002,13.975 L47.003,13.975 C47.411,13.975 47.779,13.726 47.932,13.348 C48.849,11.064 50.314,8.984 51.003,8.984 C51.461,8.984 51.861,8.672 51.973,8.229 C51.983,8.192 52.953,4.456 55.71,1.704 C56.042,1.373 56.099,0.856 55.847,0.462 L55.847,0.462 Z M18.004,49.99 L16.004,49.99 L16.004,23.99 L18.004,23.99 L18.004,49.99 L18.004,49.99 Z M40.004,49.99 L38.004,49.99 L38.004,23.99 L40.004,23.99 L40.004,49.99 L40.004,49.99 Z M46.004,19.99 L46.004,21.99 L40.004,21.99 L38.004,21.99 L18.004,21.99 L16.004,21.99 L10.004,21.99 L10.004,19.99 L46.004,19.99 L46.004,19.99 Z M27.004,17.99 L27.004,13.975 L29.004,13.975 L29.004,17.99 L27.004,17.99 L27.004,17.99 Z M50.213,7.131 C48.415,7.781 47.002,10.484 46.34,11.979 L9.663,11.979 C9.001,10.483 7.588,7.781 5.79,7.131 C5.512,6.272 4.896,4.629 3.787,2.896 C8.168,4.096 16.845,5.989 28.002,5.989 C39.159,5.989 47.835,4.096 52.217,2.896 C51.106,4.629 50.49,6.272 50.213,7.131 L50.213,7.131 Z" id="Shape"></path>
                </g>
            </g>
        </g>
    </g>
</svg>