<?xml version="1.0" encoding="iso-8859-1"?>
<!-- Generator: Adobe Illustrator 16.0.4, SVG Export Plug-In . SVG Version: 6.00 Build 0)  -->
<!DOCTYPE svg PUBLIC "-//W3C//DTD SVG 1.1//EN" "http://www.w3.org/Graphics/SVG/1.1/DTD/svg11.dtd">
<svg version="1.1" id="Layer_1" xmlns="http://www.w3.org/2000/svg" xmlns:xlink="http://www.w3.org/1999/xlink" x="0px" y="0px"
	 width="44.004px" height="39.99px" viewBox="0 0 44.004 39.99" style="enable-background:new 0 0 44.004 39.99;"
	 xml:space="preserve">
<g id="_x31_164-shinto-torii-arch_x40_2x.png">
	<g>
		<path d="M43.847,0.462c-0.253-0.396-0.745-0.561-1.186-0.402c-0.108,0.04-5.017,3.934-20.66,3.934
			C6.383,3.993,1.45,0.1,1.341,0.06C0.897-0.1,0.407,0.068,0.156,0.462c-0.251,0.395-0.195,0.911,0.137,1.242
			C3.049,4.456,4.02,7.192,4.03,7.229C4.142,7.672,4.542,7.984,5,7.984c0.69,0,2.155,1.08,3.072,3.364
			C8.224,11.727,8.592,11.976,9,11.976h3.006c0,0.005-0.002,0.01-0.002,0.015c0,1.104,1.343,2,3,2s3-0.896,3-2
			c0-0.005-0.002-0.01-0.002-0.015h3.002v4.015h-3c0-1.104-1.343-2-3-2s-3,0.896-3,2h-1.586l-0.707-0.707
			C9.53,15.103,9.28,14.99,9.004,14.99c-0.552,0-1,0.447-1,1v5c0,0.553,0.448,1,1,1h3v16c0,1.104,0.896,2,2,2h2c1.104,0,2-0.896,2-2
			v-16h8v16c0,1.104,0.896,2,2,2h2c1.104,0,2-0.896,2-2v-16h3c0.552,0,1-0.447,1-1v-5c0-0.553-0.448-1-1-1
			c-0.276,0-0.526,0.112-0.707,0.293L33.59,15.99h-1.586c0-1.104-1.343-2-3-2s-3,0.896-3,2h-3v-4.015h3.002
			c0,0.005-0.002,0.01-0.002,0.015c0,1.104,1.343,2,3,2s3-0.896,3-2c0-0.005-0.002-0.01-0.002-0.015h3.001
			c0.408,0,0.776-0.249,0.929-0.627c0.917-2.284,2.382-3.364,3.072-3.364c0.458,0,0.857-0.312,0.97-0.755
			c0.01-0.037,0.98-2.773,3.737-5.525C44.043,1.373,44.099,0.856,43.847,0.462z M16.004,37.99h-2v-16h2V37.99z M30.004,37.99h-2v-16
			h2V37.99z M34.004,17.99v2h-3.999c0,0,0,0-0.001,0h-2c0,0-0.001,0-0.001,0H16.005c0,0,0,0-0.001,0h-2c0,0,0,0-0.001,0h-3.999v-2
			H34.004z M38.213,6.131c-1.798,0.65-3.211,2.353-3.874,3.848H9.663C9.001,8.483,7.588,6.781,5.79,6.131
			C5.512,5.272,4.896,4.629,3.787,2.896c4.381,1.2,7.058,3.093,18.215,3.093s13.833-1.893,18.215-3.093
			C39.107,4.629,38.49,5.272,38.213,6.131z"/>
	</g>
</g>
<g>
</g>
<g>
</g>
<g>
</g>
<g>
</g>
<g>
</g>
<g>
</g>
<g>
</g>
<g>
</g>
<g>
</g>
<g>
</g>
<g>
</g>
<g>
</g>
<g>
</g>
<g>
</g>
<g>
</g>
</svg>
