<?xml version="1.0" encoding="iso-8859-1"?>
<!-- Generator: Adobe Illustrator 16.0.4, SVG Export Plug-In . SVG Version: 6.00 Build 0)  -->
<!DOCTYPE svg PUBLIC "-//W3C//DTD SVG 1.1//EN" "http://www.w3.org/Graphics/SVG/1.1/DTD/svg11.dtd">
<svg version="1.1" id="Layer_1" xmlns="http://www.w3.org/2000/svg" xmlns:xlink="http://www.w3.org/1999/xlink" x="0px" y="0px"
	 width="44px" height="44px" viewBox="0 0 44 44" style="enable-background:new 0 0 44 44;" xml:space="preserve">
<g id="_x37_81-ships-wheel-toolbar_x40_2x.png">
	<g>
		<path d="M22,10c-6.627,0-12,5.373-12,12c0,6.628,5.373,12,12,12c6.628,0,12-5.372,12-12C34,15.373,28.628,10,22,10z M23,12.051
			c2.01,0.199,3.822,1.021,5.304,2.231l-2.135,2.135c-0.91-0.679-1.989-1.146-3.169-1.316V12.051z M21,12.051v3.05
			c-1.18,0.171-2.258,0.638-3.169,1.316l-2.135-2.135C17.177,13.071,18.99,12.25,21,12.051z M14.282,15.696l2.133,2.134
			c-0.682,0.91-1.152,1.989-1.323,3.17h-3.041C12.251,18.99,13.071,17.178,14.282,15.696z M12.051,23h3.041
			c0.171,1.181,0.641,2.26,1.323,3.17l-2.133,2.134C13.071,26.822,12.251,25.01,12.051,23z M21,31.95
			c-2.01-0.2-3.823-1.021-5.304-2.232l2.135-2.135c0.911,0.679,1.989,1.146,3.169,1.316V31.95z M17,22c0-2.762,2.239-5,5-5
			c2.762,0,5,2.238,5,5s-2.238,5-5,5C19.239,27,17,24.762,17,22z M23,31.95v-3.051c1.18-0.17,2.259-0.638,3.169-1.316l2.135,2.135
			C26.823,30.93,25.011,31.75,23,31.95z M29.718,28.304l-2.133-2.133c0.682-0.911,1.152-1.989,1.323-3.171h3.041
			C31.749,25.01,30.929,26.822,29.718,28.304z M28.908,21c-0.172-1.181-0.642-2.26-1.324-3.17l2.134-2.134
			c1.211,1.481,2.031,3.294,2.231,5.304H28.908z M43,21h-3.051c-0.231-4.215-1.906-8.035-4.548-10.987l2.155-2.154
			c0.39-0.391,0.391-1.024,0-1.415s-1.024-0.39-1.414,0l-2.155,2.155C31.035,5.957,27.215,4.283,23,4.051V1c0-0.552-0.447-1-1-1
			c-0.552,0-1,0.448-1,1v3.051c-4.215,0.232-8.036,1.906-10.987,4.548L7.858,6.443c-0.391-0.39-1.024-0.391-1.415,0
			c-0.39,0.391-0.39,1.024,0,1.414l2.155,2.155C5.957,12.965,4.283,16.785,4.05,21H1c-0.552,0-1,0.447-1,1s0.448,1,1,1h3.05
			c0.232,4.215,1.907,8.036,4.548,10.987l-2.155,2.155c-0.391,0.391-0.39,1.023,0,1.414c0.391,0.391,1.024,0.391,1.415,0
			l2.155-2.155c2.952,2.642,6.772,4.316,10.987,4.548V43c0,0.553,0.448,1,1,1c0.553,0,1-0.447,1-1v-3.051
			c4.215-0.231,8.036-1.906,10.987-4.548l2.155,2.155c0.39,0.391,1.023,0.391,1.414,0s0.391-1.023,0-1.414l-2.155-2.155
			c2.642-2.951,4.316-6.772,4.548-10.987H43c0.553,0,1-0.447,1-1S43.553,21,43,21z M22,38c-8.836,0-16-7.163-16-16
			c0-8.836,7.164-16,16-16c8.837,0,16,7.164,16,16C38,30.837,30.837,38,22,38z M22,19c-1.657,0-3,1.344-3,3c0,1.657,1.343,3,3,3
			c1.657,0,3-1.343,3-3C25,20.344,23.657,19,22,19z M22,23c-0.552,0-1-0.447-1-1c0-0.552,0.448-1,1-1c0.553,0,1,0.448,1,1
			C23,22.553,22.553,23,22,23z"/>
	</g>
</g>
<g>
</g>
<g>
</g>
<g>
</g>
<g>
</g>
<g>
</g>
<g>
</g>
<g>
</g>
<g>
</g>
<g>
</g>
<g>
</g>
<g>
</g>
<g>
</g>
<g>
</g>
<g>
</g>
<g>
</g>
</svg>
