<?xml version="1.0" encoding="iso-8859-1"?>
<!-- Generator: Adobe Illustrator 16.0.4, SVG Export Plug-In . SVG Version: 6.00 Build 0)  -->
<!DOCTYPE svg PUBLIC "-//W3C//DTD SVG 1.1//EN" "http://www.w3.org/Graphics/SVG/1.1/DTD/svg11.dtd">
<svg version="1.1" id="Layer_1" xmlns="http://www.w3.org/2000/svg" xmlns:xlink="http://www.w3.org/1999/xlink" x="0px" y="0px"
	 width="44px" height="28px" viewBox="0 0 44 28" style="enable-background:new 0 0 44 28;" xml:space="preserve">
<g id="_x31_138-shoes_x40_2x.png">
	<g>
		<path d="M6.998,8.014C5.34,8.014,3.996,9.351,3.996,11s1.344,2.986,3.002,2.986S10,12.649,10,11S8.656,8.014,6.998,8.014z
			 M38.196,18.02c-9.476-1.895-12.301-3.498-23.41-17.637C14.597,0.142,14.307,0,14,0H1C0.449,0,0.003,0.446,0.001,0.997H0V1v24v1.5
			C0,27.328,0.672,28,1.5,28H3h36c2.484,0,5-1.374,5-4C44,20.994,42.062,18.985,38.196,18.02z M2.012,2h11.503
			c1.664,2.113,3.147,3.954,4.506,5.564l-2.677,2.678c-0.21,0.187-0.35,0.451-0.35,0.756c0,0.561,0.45,1.016,1.006,1.016
			c0.295,0,0.554-0.133,0.737-0.337l2.592-2.592c0.518,0.591,1.018,1.146,1.504,1.668l-2.489,2.489
			c-0.21,0.187-0.35,0.451-0.35,0.756c0,0.561,0.45,1.016,1.006,1.016c0.295,0,0.554-0.133,0.737-0.337l2.484-2.484
			c0.556,0.555,1.099,1.068,1.631,1.541l-2.509,2.509c-0.21,0.187-0.35,0.451-0.35,0.756c0,0.561,0.45,1.016,1.006,1.016
			c0.295,0,0.554-0.133,0.737-0.337l2.664-2.664c3.56,2.733,7.012,3.89,12.356,4.958c2.007,0.501,3.063,1.242,3.626,2.016H2.012V2z
			 M39,26H3H2v-0.99h0.012v-0.992L42,24C42,25.582,40.038,26,39,26z"/>
	</g>
</g>
<g>
</g>
<g>
</g>
<g>
</g>
<g>
</g>
<g>
</g>
<g>
</g>
<g>
</g>
<g>
</g>
<g>
</g>
<g>
</g>
<g>
</g>
<g>
</g>
<g>
</g>
<g>
</g>
<g>
</g>
</svg>
