<?xml version="1.0" encoding="iso-8859-1"?>
<!-- Generator: Adobe Illustrator 16.0.4, SVG Export Plug-In . SVG Version: 6.00 Build 0)  -->
<!DOCTYPE svg PUBLIC "-//W3C//DTD SVG 1.1//EN" "http://www.w3.org/Graphics/SVG/1.1/DTD/svg11.dtd">
<svg version="1.1" id="Layer_1" xmlns="http://www.w3.org/2000/svg" xmlns:xlink="http://www.w3.org/1999/xlink" x="0px" y="0px"
	 width="56px" height="40px" viewBox="0 0 56 40" style="enable-background:new 0 0 56 40;" xml:space="preserve">
<g id="_x39_52-shopping-cart_x40_2x.png">
	<g>
		<path d="M19,30c-2.762,0-5,2.238-5,5s2.238,5,5,5s5-2.238,5-5S21.762,30,19,30z M19,38c-1.657,0-3-1.343-3-3c0-1.656,1.343-3,3-3
			s3,1.344,3,3C22,36.657,20.657,38,19,38z M43,30c-2.762,0-5,2.238-5,5s2.238,5,5,5s5-2.238,5-5S45.762,30,43,30z M43,38
			c-1.657,0-3-1.343-3-3c0-1.656,1.343-3,3-3s3,1.344,3,3C46,36.657,44.657,38,43,38z M56,7c0-0.552-0.447-1-1-1H10.979L9.982,0.812
			l-0.02,0.003C9.873,0.354,9.486,0,9,0H1C0.447,0,0,0.447,0,1s0.447,1,1,1h7.174l4.844,25.188l0.02-0.003
			C13.127,27.646,13.514,28,14,28h35c0.452,0,0.819-0.306,0.943-0.717l0.015,0.004l6-20l-0.015-0.004C55.971,7.191,56,7.101,56,7z
			 M40.897,8h5.86l-1.061,5h-5.344L40.897,8z M23.102,8l0.537,5h-4.987l-0.844-5H23.102z M11.364,8h4.416l0.844,5h-4.298L11.364,8z
			 M12.711,15h4.25l0.676,4h-4.157L12.711,15z M14.826,26l-0.962-5h4.109l0.844,5H14.826z M18.988,15h4.864l0.43,4h-4.618L18.988,15
			z M20.845,26l-0.844-5h4.496l0.536,5H20.845z M31,26h-3.955l-0.537-5H31V26z M31,19h-4.706l-0.43-4H31V19z M31,13h-5.351l-0.536-5
			H31V13z M36.928,26H33v-5h4.472L36.928,26z M37.688,19H33v-4h5.124L37.688,19z M38.342,13H33V8h5.886L38.342,13z M42.94,26h-4.001
			l0.544-5h4.518L42.94,26z M39.7,19l0.436-4h5.138l-0.849,4H39.7z M48.256,26h-3.271l1.061-5h3.711L48.256,26z M50.356,19h-3.888
			l0.849-4h4.238L50.356,19z M52.156,13h-4.414l1.061-5h4.854L52.156,13z"/>
	</g>
</g>
<g>
</g>
<g>
</g>
<g>
</g>
<g>
</g>
<g>
</g>
<g>
</g>
<g>
</g>
<g>
</g>
<g>
</g>
<g>
</g>
<g>
</g>
<g>
</g>
<g>
</g>
<g>
</g>
<g>
</g>
</svg>
