<?xml version="1.0" encoding="iso-8859-1"?>
<!-- Generator: Adobe Illustrator 16.0.4, SVG Export Plug-In . SVG Version: 6.00 Build 0)  -->
<!DOCTYPE svg PUBLIC "-//W3C//DTD SVG 1.1//EN" "http://www.w3.org/Graphics/SVG/1.1/DTD/svg11.dtd">
<svg version="1.1" id="Layer_1" xmlns="http://www.w3.org/2000/svg" xmlns:xlink="http://www.w3.org/1999/xlink" x="0px" y="0px"
	 width="44px" height="36px" viewBox="0 0 44 36" style="enable-background:new 0 0 44 36;" xml:space="preserve">
<g id="_x39_52-shopping-cart-toolbar_x40_2x.png">
	<g>
		<path d="M18,28c-2.209,0-4,1.791-4,4s1.791,4,4,4s4-1.791,4-4S20.209,28,18,28z M18,34c-1.104,0-2-0.896-2-2s0.896-2,2-2
			s2,0.896,2,2S19.104,34,18,34z M44,7c0-0.552-0.447-1-1-1H11.063L9.982,0.812l-0.02,0.004C9.873,0.354,9.486,0,9,0H1
			C0.448,0,0,0.448,0,1c0,0.553,0.448,1,1,1h7.188l4.83,23.188l0.02-0.003C13.127,25.646,13.514,26,14,26h23
			c0.452,0,0.819-0.306,0.943-0.717l0.015,0.004l6-18l-0.015-0.004C43.971,7.191,44,7.101,44,7z M27,8h6.717l-0.939,4H27V8z
			 M11.479,8h5.315l0.75,4h-5.231L11.479,8z M12.729,14h5.19l0.75,4h-5.106L12.729,14z M14.813,24l-0.834-4h5.065l0.75,4H14.813z
			 M25,24h-3.17l-0.75-4H25V24z M25,18h-4.295l-0.75-4H25V18z M25,12h-5.42l-0.75-4H25V12z M29.958,24H27v-4h3.897L29.958,24z
			 M27,18v-4h5.308l-0.94,4H27z M36.28,24h-4.269l0.939-4h4.662L36.28,24z M38.279,18h-4.858l0.939-4h5.253L38.279,18z M40.28,12
			h-5.45l0.939-4h5.844L40.28,12z M34,28c-2.209,0-4,1.791-4,4s1.791,4,4,4s4-1.791,4-4S36.209,28,34,28z M34,34
			c-1.104,0-2-0.896-2-2s0.896-2,2-2s2,0.896,2,2S35.104,34,34,34z"/>
	</g>
</g>
<g>
</g>
<g>
</g>
<g>
</g>
<g>
</g>
<g>
</g>
<g>
</g>
<g>
</g>
<g>
</g>
<g>
</g>
<g>
</g>
<g>
</g>
<g>
</g>
<g>
</g>
<g>
</g>
<g>
</g>
</svg>
