<?xml version="1.0" encoding="iso-8859-1"?>
<!-- Generator: Adobe Illustrator 16.0.4, SVG Export Plug-In . SVG Version: 6.00 Build 0)  -->
<!DOCTYPE svg PUBLIC "-//W3C//DTD SVG 1.1//EN" "http://www.w3.org/Graphics/SVG/1.1/DTD/svg11.dtd">
<svg version="1.1" id="Layer_1" xmlns="http://www.w3.org/2000/svg" xmlns:xlink="http://www.w3.org/1999/xlink" x="0px" y="0px"
	 width="52px" height="56px" viewBox="0 0 52 56" style="enable-background:new 0 0 52 56;" xml:space="preserve">
<g id="_x37_62-shopping-bag_x40_2x.png">
	<g>
		<path d="M46,16c0-1.104-0.896-2-2-2h-4h-1h-1v-2c0-6.627-5.373-12-12-12S14,5.373,14,12v2h-1h-1H8c-1.104,0-2,0.896-2,2L0,54
			c0,1.104,0.896,2,2,2h48c1.104,0,2-0.896,2-2L46,16z M16,12c0-5.522,4.478-10,10-10s10,4.478,10,10v2H16V12z M2,54l6-38h4h1h1
			v3.184c-1.162,0.414-2,1.513-2,2.816c0,1.657,1.343,3,3,3s3-1.343,3-3c0-1.304-0.838-2.402-2-2.816V16h20v3.184
			c-1.162,0.414-2,1.513-2,2.816c0,1.657,1.343,3,3,3s3-1.343,3-3c0-1.304-0.838-2.402-2-2.816V16h1h1h4l6,38H2z"/>
	</g>
</g>
<g>
</g>
<g>
</g>
<g>
</g>
<g>
</g>
<g>
</g>
<g>
</g>
<g>
</g>
<g>
</g>
<g>
</g>
<g>
</g>
<g>
</g>
<g>
</g>
<g>
</g>
<g>
</g>
<g>
</g>
</svg>
