<?xml version="1.0" encoding="iso-8859-1"?>
<!-- Generator: Adobe Illustrator 16.0.4, SVG Export Plug-In . SVG Version: 6.00 Build 0)  -->
<!DOCTYPE svg PUBLIC "-//W3C//DTD SVG 1.1//EN" "http://www.w3.org/Graphics/SVG/1.1/DTD/svg11.dtd">
<svg version="1.1" id="Layer_1" xmlns="http://www.w3.org/2000/svg" xmlns:xlink="http://www.w3.org/1999/xlink" x="0px" y="0px"
	 width="40px" height="44px" viewBox="0 0 40 44" style="enable-background:new 0 0 40 44;" xml:space="preserve">
<g id="_x37_62-shopping-bag-toolbar_x40_2x.png">
	<g>
		<path d="M39.974,42.87l0.018-0.002l-4-32l-0.018,0.002C35.907,10.382,35.506,10,35,10h-6h-1.012V8.087
			c0-0.028,0.006-0.053,0.006-0.081C27.994,3.584,24.415,0,20,0s-7.994,3.584-7.994,8.006c0,0.02,0.003,0.037,0.003,0.057V10H11H5
			c-0.506,0-0.907,0.382-0.974,0.87l-0.018-0.002l-4,32l0.018,0.002C0.021,42.915,0,42.954,0,43c0,0.553,0.447,1,1,1h38
			c0.553,0,1-0.447,1-1C40,42.954,39.979,42.915,39.974,42.87z M20,2.007c3.317,0,6.008,2.686,6.008,5.998
			C26.008,8.03,26,8.048,26,8.072V10H14V8.072c0-0.024-0.007-0.042-0.007-0.067C13.993,4.692,16.683,2.007,20,2.007z M2.133,42
			l3.75-30H11h1.009v2.169c-1.171,0.41-2.015,1.511-2.015,2.817c0,1.655,1.347,2.997,3.008,2.997s3.007-1.342,3.007-2.997
			c0-1.31-0.847-2.41-2.021-2.819V12.4c0.003,0.003,0.008,0.005,0.012,0.008V12h12v0.396c0.003-0.002,0.006-0.003,0.009-0.005v1.778
			c-1.171,0.41-2.015,1.511-2.015,2.817c0,1.655,1.347,2.997,3.008,2.997s3.007-1.342,3.007-2.997c0-1.31-0.847-2.41-2.021-2.819V12
			H29h5.117l3.75,30H2.133z"/>
	</g>
</g>
<g>
</g>
<g>
</g>
<g>
</g>
<g>
</g>
<g>
</g>
<g>
</g>
<g>
</g>
<g>
</g>
<g>
</g>
<g>
</g>
<g>
</g>
<g>
</g>
<g>
</g>
<g>
</g>
<g>
</g>
</svg>
