<?xml version="1.0" encoding="iso-8859-1"?>
<!-- Generator: Adobe Illustrator 16.0.4, SVG Export Plug-In . SVG Version: 6.00 Build 0)  -->
<!DOCTYPE svg PUBLIC "-//W3C//DTD SVG 1.1//EN" "http://www.w3.org/Graphics/SVG/1.1/DTD/svg11.dtd">
<svg version="1.1" id="Layer_1" xmlns="http://www.w3.org/2000/svg" xmlns:xlink="http://www.w3.org/1999/xlink" x="0px" y="0px"
	 width="36px" height="36px" viewBox="0 0 36 36" style="enable-background:new 0 0 36 36;" xml:space="preserve">
<g id="_x31_125-shorts_x40_2x.png">
	<g>
		<path d="M34,0H2C0.896,0,0,0.896,0,2v32c0,1.104,0.896,2,2,2h12c0.484,0,0.869-0.351,0.961-0.808l0.019,0.004L18,20.099
			l3.02,15.098l0.02-0.004C21.131,35.649,21.516,36,22,36h12c1.104,0,2-0.896,2-2V2C36,0.896,35.104,0,34,0z M2,6h7.941
			C9.48,10.171,6.171,13.479,2,13.941V6z M34,34H22.82L18.98,14.804l-0.019,0.004C18.869,14.351,18.484,14,18,14
			c-0.484,0-0.869,0.351-0.961,0.808l-0.02-0.004L13.18,34H2V15.949c5.276-0.476,9.473-4.673,9.95-9.949h12.101
			c0.476,5.276,4.673,9.474,9.949,9.949V34z M34,13.941c-4.171-0.462-7.479-3.771-7.941-7.941H34V13.941z M34,4H2V2h32V4z"/>
	</g>
</g>
<g>
</g>
<g>
</g>
<g>
</g>
<g>
</g>
<g>
</g>
<g>
</g>
<g>
</g>
<g>
</g>
<g>
</g>
<g>
</g>
<g>
</g>
<g>
</g>
<g>
</g>
<g>
</g>
<g>
</g>
</svg>
