<?xml version="1.0" encoding="iso-8859-1"?>
<!-- Generator: Adobe Illustrator 16.0.4, SVG Export Plug-In . SVG Version: 6.00 Build 0)  -->
<!DOCTYPE svg PUBLIC "-//W3C//DTD SVG 1.1//EN" "http://www.w3.org/Graphics/SVG/1.1/DTD/svg11.dtd">
<svg version="1.1" id="Layer_1" xmlns="http://www.w3.org/2000/svg" xmlns:xlink="http://www.w3.org/1999/xlink" x="0px" y="0px"
	 width="56px" height="36px" viewBox="0 0 56 36" style="enable-background:new 0 0 56 36;" xml:space="preserve">
<g id="_x39_04-shuffle_x40_2x.png">
	<g>
		<path d="M1,8h17.526l6.243,7.631l1.292-1.579l-6.287-7.685l-0.012,0.009C19.58,6.151,19.312,6,19,6H1C0.447,6,0,6.447,0,7
			S0.447,8,1,8z M49.707,22.293C49.526,22.112,49.276,22,49,22c-0.553,0-1,0.448-1,1c0,0.276,0.112,0.526,0.293,0.707L52.586,28
			H37.474l-6.243-7.631l-1.292,1.579l6.287,7.685l0.012-0.009C36.42,29.849,36.688,30,37,30h15.586l-4.293,4.293
			C48.112,34.474,48,34.724,48,35c0,0.553,0.447,1,1,1c0.276,0,0.526-0.112,0.707-0.293l6-6C55.888,29.526,56,29.276,56,29
			s-0.112-0.526-0.293-0.707L49.707,22.293z M52.586,8l-4.293,4.293C48.112,12.474,48,12.724,48,13c0,0.553,0.447,1,1,1
			c0.276,0,0.526-0.112,0.707-0.293l6-6C55.888,7.526,56,7.276,56,7s-0.112-0.526-0.293-0.707l-6-6C49.526,0.112,49.276,0,49,0
			c-0.553,0-1,0.447-1,1c0,0.276,0.112,0.526,0.293,0.707L52.586,6H37c-0.312,0-0.58,0.151-0.763,0.376l-0.012-0.009L18.526,28H1
			c-0.553,0-1,0.447-1,1s0.447,1,1,1h18c0.312,0,0.58-0.151,0.763-0.376l0.012,0.009L37.474,8H52.586z"/>
	</g>
</g>
<g>
</g>
<g>
</g>
<g>
</g>
<g>
</g>
<g>
</g>
<g>
</g>
<g>
</g>
<g>
</g>
<g>
</g>
<g>
</g>
<g>
</g>
<g>
</g>
<g>
</g>
<g>
</g>
<g>
</g>
</svg>
