<?xml version="1.0" encoding="iso-8859-1"?>
<!-- Generator: Adobe Illustrator 16.0.4, SVG Export Plug-In . SVG Version: 6.00 Build 0)  -->
<!DOCTYPE svg PUBLIC "-//W3C//DTD SVG 1.1//EN" "http://www.w3.org/Graphics/SVG/1.1/DTD/svg11.dtd">
<svg version="1.1" id="Layer_1" xmlns="http://www.w3.org/2000/svg" xmlns:xlink="http://www.w3.org/1999/xlink" x="0px" y="0px"
	 width="44px" height="28px" viewBox="0 0 44 28" style="enable-background:new 0 0 44 28;" xml:space="preserve">
<g id="_x38_91-shuffle-toolbar_x40_2x.png">
	<g>
		<path d="M1,6h13.511l4.444,5.715l1.267-1.629l-4.433-5.7l-0.013,0.011C15.594,4.161,15.321,4,15,4H1C0.448,4,0,4.448,0,5
			C0,5.553,0.448,6,1,6z M40.586,6l-2.293,2.293C38.112,8.474,38,8.724,38,9c0,0.553,0.447,1,1,1c0.276,0,0.526-0.112,0.707-0.293
			l4-4C43.888,5.526,44,5.276,44,5s-0.112-0.526-0.293-0.707l-4-4C39.526,0.112,39.276,0,39,0c-0.553,0-1,0.447-1,1
			c0,0.276,0.112,0.526,0.293,0.707L40.586,4H29c-0.32,0-0.594,0.161-0.776,0.396l-0.013-0.011L14.511,22H1c-0.552,0-1,0.447-1,1
			s0.448,1,1,1h14c0.321,0,0.594-0.161,0.777-0.396l0.013,0.01L29.489,6H40.586z M39.707,18.293C39.526,18.112,39.276,18,39,18
			c-0.553,0-1,0.447-1,1c0,0.276,0.112,0.526,0.293,0.707L40.586,22H29.489l-4.444-5.714l-1.267,1.628l4.433,5.7l0.013-0.01
			C28.406,23.839,28.68,24,29,24h11.586l-2.293,2.293C38.112,26.474,38,26.724,38,27c0,0.553,0.447,1,1,1
			c0.276,0,0.526-0.111,0.707-0.293l4-4C43.888,23.526,44,23.276,44,23s-0.112-0.526-0.293-0.707L39.707,18.293z"/>
	</g>
</g>
<g>
</g>
<g>
</g>
<g>
</g>
<g>
</g>
<g>
</g>
<g>
</g>
<g>
</g>
<g>
</g>
<g>
</g>
<g>
</g>
<g>
</g>
<g>
</g>
<g>
</g>
<g>
</g>
<g>
</g>
</svg>
