<?xml version="1.0" encoding="iso-8859-1"?>
<!-- Generator: Adobe Illustrator 16.0.4, SVG Export Plug-In . SVG Version: 6.00 Build 0)  -->
<!DOCTYPE svg PUBLIC "-//W3C//DTD SVG 1.1//EN" "http://www.w3.org/Graphics/SVG/1.1/DTD/svg11.dtd">
<svg version="1.1" id="Layer_1" xmlns="http://www.w3.org/2000/svg" xmlns:xlink="http://www.w3.org/1999/xlink" x="0px" y="0px"
	 width="56px" height="56px" viewBox="0 0 56 56" style="enable-background:new 0 0 56 56;" xml:space="preserve">
<g id="_x37_53-signpost_x40_2x.png">
	<g>
		<path d="M55.707,13.293l-7-7C48.526,6.112,48.276,6,48,6H31V3c0-1.656-1.343-3-3-3s-3,1.344-3,3v3H12c-1.104,0-2,0.896-2,2v12
			c0,1.104,0.896,2,2,2h13v4H8c-0.276,0-0.526,0.112-0.707,0.293l-7,7C0.112,33.474,0,33.725,0,34c0,0.276,0.112,0.526,0.293,0.707
			l7,7C7.474,41.888,7.724,42,8,42h17v14h2V42h2v14h2V42h13c1.104,0,2-0.896,2-2V28c0-1.104-0.896-2-2-2H31v-4h17
			c0.276,0,0.526-0.111,0.707-0.293l7-7C55.888,14.526,56,14.276,56,14S55.888,13.475,55.707,13.293z M27,3c0-0.552,0.447-1,1-1
			s1,0.448,1,1v3h-2V3z M44,28v12H8.414l-6-6l6-6H44z M27,26v-4h2v4H27z M47.586,20H12V8h35.586l6,6L47.586,20z"/>
	</g>
</g>
<g>
</g>
<g>
</g>
<g>
</g>
<g>
</g>
<g>
</g>
<g>
</g>
<g>
</g>
<g>
</g>
<g>
</g>
<g>
</g>
<g>
</g>
<g>
</g>
<g>
</g>
<g>
</g>
<g>
</g>
</svg>
