<?xml version="1.0" encoding="iso-8859-1"?>
<!-- Generator: Adobe Illustrator 16.0.4, SVG Export Plug-In . SVG Version: 6.00 Build 0)  -->
<!DOCTYPE svg PUBLIC "-//W3C//DTD SVG 1.1//EN" "http://www.w3.org/Graphics/SVG/1.1/DTD/svg11.dtd">
<svg version="1.1" id="Layer_1" xmlns="http://www.w3.org/2000/svg" xmlns:xlink="http://www.w3.org/1999/xlink" x="0px" y="0px"
	 width="40px" height="44px" viewBox="0 0 40 44" style="enable-background:new 0 0 40 44;" xml:space="preserve">
<g id="_x37_53-signpost-toolbar_x40_2x.png">
	<g>
		<path d="M39.707,13.293l-5-5C34.526,8.112,34.276,8,34,8H23V3c0-1.656-1.343-3-3-3s-3,1.344-3,3v5H9c-1.104,0-2,0.896-2,2v8
			c0,1.104,0.896,2,2,2h8v2H6c-0.276,0-0.526,0.112-0.707,0.294l-5,4.999C0.112,27.475,0,27.725,0,28
			c0,0.276,0.112,0.526,0.293,0.707l5,5C5.474,33.888,5.724,34,6,34h11v10h2V34h2v10h2V34h8c1.104,0,2-0.895,2-2v-8
			c0-1.104-0.896-2-2-2h-8v-2h11c0.276,0,0.526-0.111,0.707-0.293l5-5C39.888,14.526,40,14.276,40,14
			C40,13.725,39.888,13.475,39.707,13.293z M19,3c0-0.552,0.447-1,1-1s1,0.448,1,1v5h-2V3z M31,24v8H6.414l-4-4l4-4H31z M19,22v-2h2
			v2H19z M33.586,18H9v-8h24.586l4,4L33.586,18z"/>
	</g>
</g>
<g>
</g>
<g>
</g>
<g>
</g>
<g>
</g>
<g>
</g>
<g>
</g>
<g>
</g>
<g>
</g>
<g>
</g>
<g>
</g>
<g>
</g>
<g>
</g>
<g>
</g>
<g>
</g>
<g>
</g>
</svg>
