<?xml version="1.0" encoding="iso-8859-1"?>
<!-- Generator: Adobe Illustrator 16.0.4, SVG Export Plug-In . SVG Version: 6.00 Build 0)  -->
<!DOCTYPE svg PUBLIC "-//W3C//DTD SVG 1.1//EN" "http://www.w3.org/Graphics/SVG/1.1/DTD/svg11.dtd">
<svg version="1.1" id="Layer_1" xmlns="http://www.w3.org/2000/svg" xmlns:xlink="http://www.w3.org/1999/xlink" x="0px" y="0px"
	 width="56px" height="52px" viewBox="0 0 56 52" style="enable-background:new 0 0 56 52;" xml:space="preserve">
<g id="_x31_034-sign_x40_2x.png">
	<g>
		<path d="M17,19h19.586l-6.293,6.293C30.112,25.474,30,25.724,30,26c0,0.553,0.448,1,1,1c0.276,0,0.526-0.112,0.707-0.293l8-8
			C39.889,18.526,40,18.276,40,18s-0.111-0.526-0.293-0.707l-8-8C31.526,9.112,31.276,9,31,9c-0.552,0-1,0.447-1,1
			c0,0.276,0.112,0.526,0.293,0.707L36.586,17H17c-0.552,0-1,0.447-1,1S16.448,19,17,19z M54,0H2C0.896,0,0,0.896,0,2v32
			c0,1.104,0.896,2,2,2h22v16h2V36h4v16h2V36h22c1.104,0,2-0.896,2-2V2C56,0.896,55.104,0,54,0z M54,34H32h-8H2V2h52V34z"/>
	</g>
</g>
<g>
</g>
<g>
</g>
<g>
</g>
<g>
</g>
<g>
</g>
<g>
</g>
<g>
</g>
<g>
</g>
<g>
</g>
<g>
</g>
<g>
</g>
<g>
</g>
<g>
</g>
<g>
</g>
<g>
</g>
</svg>
