<?xml version="1.0" encoding="UTF-8" standalone="no"?>
<svg width="50px" height="58px" viewBox="0 0 50 58" version="1.1" xmlns="http://www.w3.org/2000/svg" xmlns:xlink="http://www.w3.org/1999/xlink" xmlns:sketch="http://www.bohemiancoding.com/sketch/ns">
    <!-- Generator: Sketch 3.0.4 (8053) - http://www.bohemiancoding.com/sketch -->
    <title>1168-sikh-symbol</title>
    <desc>Created with Sketch.</desc>
    <defs></defs>
    <g id="Page-1" stroke="none" stroke-width="1" fill="none" fill-rule="evenodd" sketch:type="MSPage">
        <g id="Glyphish-8-Icons" sketch:type="MSArtboardGroup" transform="translate(-696.000000, -595.000000)" fill="#000000">
            <g id="1168-sikh-symbol" sketch:type="MSLayerGroup" transform="translate(696.036996, 595.860499)">
                <g id="_x31_168-sikh-symbol_x40_2x.png" sketch:type="MSShapeGroup">
                    <path d="M38,11 C38,11 44,15 44,21 C44,30.69 39.276,34.763 25.338,44.104 C25.223,44.09 25.119,44.063 25,44.053 L25,41.414 L30.707,35.707 C30.732,35.682 30.745,35.645 30.768,35.617 C30.793,35.586 30.813,35.554 30.833,35.52 C30.879,35.447 30.916,35.373 30.941,35.289 C30.956,35.242 30.962,35.196 30.969,35.148 C30.978,35.098 31,35.053 31,35 C31,34.97 30.985,34.944 30.983,34.915 C30.978,34.86 30.963,34.81 30.95,34.755 C30.931,34.681 30.911,34.61 30.876,34.544 C30.866,34.524 30.866,34.502 30.855,34.482 C30.849,34.471 30.704,34.217 30.487,33.767 C36.084,31.589 40,26.706 40,21 C40,15.324 36.129,10.455 30.579,8.259 C30.767,7.751 30.891,7.452 30.908,7.409 C30.965,7.283 31,7.146 31,7 C31,6.87 30.971,6.747 30.926,6.633 C30.925,6.631 30.926,6.629 30.925,6.627 C30.887,6.533 30.827,6.455 30.765,6.378 C30.745,6.355 30.735,6.324 30.713,6.302 C30.71,6.299 30.709,6.296 30.707,6.293 L24.707,0.293 C24.526,0.112 24.276,0 24,0 C23.724,0 23.474,0.112 23.293,0.293 L17.293,6.293 C17.291,6.296 17.289,6.299 17.287,6.302 C17.266,6.324 17.255,6.354 17.235,6.378 C17.173,6.455 17.113,6.533 17.075,6.627 C17.075,6.628 17.075,6.63 17.074,6.631 C17.028,6.746 17,6.869 17,7 C17,7.146 17.035,7.283 17.092,7.409 C17.111,7.452 17.235,7.754 17.424,8.265 C11.874,10.462 8,15.324 8,21 C8,26.706 11.916,31.589 17.514,33.768 C17.297,34.218 17.152,34.472 17.146,34.483 C17.134,34.503 17.134,34.525 17.125,34.545 C17.09,34.611 17.069,34.682 17.051,34.756 C17.037,34.811 17.023,34.861 17.019,34.916 C17.015,34.944 17,34.97 17,35 C17,35.053 17.022,35.098 17.03,35.148 C17.037,35.196 17.044,35.242 17.058,35.289 C17.083,35.373 17.12,35.447 17.166,35.52 C17.187,35.553 17.206,35.585 17.231,35.617 C17.253,35.645 17.266,35.681 17.292,35.707 L23,41.414 L23,44.053 C22.881,44.063 22.778,44.09 22.662,44.104 C8.724,34.763 4,30.69 4,21 C4,15 10,11 10,11 C10,11 0,14 0,25 C0,36 11,43 11,48 C11,48 13.902,43.356 17.938,43.356 C17.952,43.356 17.966,43.359 17.981,43.359 L20.054,44.788 C18.076,45.609 16.772,46.934 16.005,48.001 C16.004,48.001 16.002,48 16,48 C14.896,48 14,48.896 14,50 C14,51.104 14.896,52 16,52 C17.104,52 18,51.104 18,50 C18,49.643 17.898,49.312 17.733,49.021 C18.604,47.87 20.247,46.359 23,46.056 L23,50.184 C21.838,50.597 21,51.696 21,53 C21,54.657 22.343,56 24,56 C25.657,56 27,54.657 27,53 C27,51.695 26.162,50.597 25,50.184 L25,46.056 C27.754,46.358 29.396,47.868 30.268,49.02 C30.102,49.311 30,49.642 30,50 C30,51.104 30.896,52 32,52 C33.104,52 34,51.104 34,50 C34,48.896 33.104,48 32,48 L31.996,48 C31.228,46.934 29.924,45.608 27.946,44.788 L30.018,43.359 C30.033,43.359 30.047,43.356 30.061,43.356 C34.098,43.356 37,48 37,48 C37,43 48,36 48,25 C48,14 38,11 38,11 L38,11 Z M11.77,44.061 C10.973,42.655 9.867,41.204 8.675,39.643 C5.546,35.542 2,30.895 2,25 C2,24.415 2.032,23.854 2.094,23.32 C2.748,31.066 6.874,35.5 15.639,41.722 C14.104,42.213 12.794,43.13 11.77,44.061 L11.77,44.061 Z M38,21 C38,25.879 34.598,30.064 29.721,31.939 C28.923,29.778 27.999,26.34 27.999,21.996 C27.999,17.26 29.09,12.86 29.937,10.152 C34.696,12.067 38,16.195 38,21 L38,21 Z M10,21 C10,16.195 13.305,12.067 18.063,10.152 C18.91,12.86 20.001,17.259 20.001,21.996 C20.001,26.341 19.077,29.778 18.279,31.939 C13.402,30.064 10,25.879 10,21 L10,21 Z M24,54 C23.447,54 23,53.553 23,53 C23,52.447 23.447,52 24,52 C24.553,52 25,52.447 25,53 C25,53.553 24.553,54 24,54 L24,54 Z M24,39.586 L19.23,34.816 C20.062,33.147 21.999,28.562 21.999,21.996 C21.999,15.166 19.911,9.15 19.175,7.239 L24,2.414 L28.825,7.239 C28.089,9.15 26.001,15.166 26.001,21.996 C26.001,28.562 27.938,33.147 28.77,34.816 L24,39.586 L24,39.586 Z M36.23,44.061 C35.206,43.13 33.895,42.213 32.361,41.723 C41.126,35.5 45.252,31.066 45.906,23.32 C45.968,23.854 46,24.415 46,25 C46,30.895 42.454,35.542 39.325,39.643 C38.134,41.203 37.027,42.654 36.23,44.061 L36.23,44.061 Z" id="Shape"></path>
                </g>
            </g>
        </g>
    </g>
</svg>