<?xml version="1.0" encoding="UTF-8" standalone="no"?>
<svg width="58px" height="58px" viewBox="0 0 58 58" version="1.1" xmlns="http://www.w3.org/2000/svg" xmlns:xlink="http://www.w3.org/1999/xlink" xmlns:sketch="http://www.bohemiancoding.com/sketch/ns">
    <!-- Generator: Sketch 3.0.4 (8053) - http://www.bohemiancoding.com/sketch -->
    <title>1299-sinawebo</title>
    <desc>Created with Sketch.</desc>
    <defs></defs>
    <g id="Page-1" stroke="none" stroke-width="1" fill="none" fill-rule="evenodd" sketch:type="MSPage">
        <g id="Glyphish-8-Icons" sketch:type="MSArtboardGroup" transform="translate(-788.000000, -1843.000000)" fill="#000000">
            <g id="1299-sinawebo" sketch:type="MSLayerGroup" transform="translate(788.036996, 1843.860499)">
                <g id="_x31_299-sinawebo_x40_2x.png" sketch:type="MSShapeGroup">
                    <path d="M33.697,21.481 C33.697,21.862 33.966,22.166 34.32,22.253 C34.318,22.267 34.316,22.276 34.314,22.291 C35.514,22.291 35.514,23.282 35.514,23.282 L35.687,23.282 C35.687,23.729 36.051,24.092 36.501,24.092 C36.95,24.092 37.314,23.73 37.314,23.282 C37.314,23.07 37.229,22.883 37.096,22.738 C36.94,22.043 36.414,20.929 34.795,20.727 C34.706,20.694 34.611,20.67 34.51,20.67 C34.484,20.67 34.462,20.682 34.437,20.685 C34.391,20.683 34.36,20.67 34.313,20.67 C34.317,20.685 34.318,20.693 34.322,20.707 C33.967,20.796 33.697,21.101 33.697,21.481 L33.697,21.481 Z M24.018,30.682 C24.018,30.682 19.355,30.85 18.837,35.566 C18.837,35.566 18.837,38.934 22.636,38.934 C26.436,38.934 27.817,35.566 27.817,34.387 C27.816,33.207 27.126,30.682 24.018,30.682 L24.018,30.682 Z M21.85,37.239 C20.557,37.239 20.372,36.159 20.372,36.159 C20.372,34.358 22.219,34.178 22.219,34.178 C23.326,34.178 23.511,35.618 23.511,35.618 C23.511,35.618 23.142,37.239 21.85,37.239 L21.85,37.239 Z M24.233,34.673 C24.233,34.673 23.719,34.923 23.719,34.171 C23.719,33.42 24.233,33.42 24.233,33.42 C24.233,33.42 25.004,33.169 25.004,33.921 C25.004,34.673 24.233,34.673 24.233,34.673 L24.233,34.673 Z M34.874,14.009 C34.225,14.009 33.697,14.532 33.697,15.179 C33.697,15.826 34.224,16.35 34.874,16.35 C41.658,16.35 41.658,22.923 41.658,22.923 C41.658,23.569 42.184,24.093 42.834,24.093 C43.484,24.093 44.01,23.57 44.01,22.923 C44.01,22.923 44.01,14.009 34.874,14.009 L34.874,14.009 Z M28,0 C12.536,0 0,12.536 0,28 C0,43.464 12.536,56 28,56 C43.464,56 56,43.464 56,28 C56,12.536 43.464,0 28,0 L28,0 Z M28,54 C13.641,54 2,42.359 2,28 C2,13.641 13.641,2 28,2 C42.359,2 54,13.641 54,28 C54,42.359 42.359,54 28,54 L28,54 Z M34.783,17.61 L34.783,17.613 C34.183,17.613 33.697,18.096 33.697,18.693 C33.697,19.29 34.183,19.773 34.783,19.773 C34.786,19.773 34.788,19.771 34.791,19.771 C38.029,19.778 38.039,22.992 38.039,23.009 L38.039,23.012 C38.039,23.609 38.525,24.092 39.127,24.092 C39.728,24.092 40.215,23.609 40.215,23.012 C40.215,23.004 40.21,22.997 40.21,22.99 C40.207,22.755 40.087,17.61 34.783,17.61 L34.783,17.61 Z M33.483,27.875 C34.406,26.614 34.221,25.533 34.221,25.533 C34.221,25.533 34.036,23.373 31.267,23.373 C28.496,23.373 26.096,25.353 26.096,25.353 C25.727,25.353 25.911,24.092 25.911,24.092 C26.096,20.671 26.096,19.95 24.064,19.41 C22.032,18.87 11.99,26.064 11.99,34.168 C11.99,42.272 23.511,41.996 23.511,41.996 C32.93,41.996 39.947,35.618 39.393,31.476 C38.839,27.334 33.483,27.875 33.483,27.875 L33.483,27.875 Z M23.326,40.48 C23.326,40.48 14.278,40.3 14.278,34.898 C15.201,29.135 22.772,28.054 25.727,28.054 C28.681,28.054 34.775,29.135 34.775,33.637 C34.775,38.139 27.39,40.48 23.326,40.48 L23.326,40.48 Z" id="Shape"></path>
                </g>
            </g>
        </g>
    </g>
</svg>