<?xml version="1.0" encoding="iso-8859-1"?>
<!-- Generator: Adobe Illustrator 16.0.4, SVG Export Plug-In . SVG Version: 6.00 Build 0)  -->
<!DOCTYPE svg PUBLIC "-//W3C//DTD SVG 1.1//EN" "http://www.w3.org/Graphics/SVG/1.1/DTD/svg11.dtd">
<svg version="1.1" id="Layer_1" xmlns="http://www.w3.org/2000/svg" xmlns:xlink="http://www.w3.org/1999/xlink" x="0px" y="0px"
	 width="44px" height="44px" viewBox="0 0 44 44" style="enable-background:new 0 0 44 44;" xml:space="preserve">
<g id="_x31_299-sinawebo_x40_2x.png">
	<g>
		<path d="M22,0C9.85,0,0,9.85,0,22s9.85,22,22,22s22-9.85,22-22S34.15,0,22,0z M22,42C10.954,42,2,33.046,2,22S10.954,2,22,2
			s20,8.954,20,20S33.046,42,22,42z M26.266,16.879c0,0.299,0.201,0.537,0.467,0.606c-0.002,0.011-0.004,0.019-0.005,0.03
			c0.898,0,0.898,0.777,0.898,0.777h0.13c0,0.353,0.272,0.638,0.609,0.638c0.336,0,0.609-0.285,0.609-0.638
			c0-0.165-0.064-0.313-0.164-0.427c-0.116-0.546-0.509-1.421-1.722-1.579c-0.066-0.026-0.138-0.045-0.214-0.045
			c-0.02,0-0.036,0.01-0.055,0.012c-0.034-0.001-0.058-0.012-0.093-0.012c0.003,0.012,0.004,0.019,0.007,0.029
			C26.468,16.34,26.266,16.579,26.266,16.879z M27.146,11.007c-0.486,0-0.881,0.411-0.881,0.92c0,0.507,0.395,0.919,0.881,0.919
			c5.079,0,5.079,5.165,5.079,5.165c0,0.508,0.394,0.92,0.88,0.92s0.881-0.412,0.881-0.92
			C33.986,18.011,33.986,11.007,27.146,11.007z M27.078,13.837c0,0.001,0,0.001,0,0.002c-0.449,0-0.812,0.38-0.812,0.849
			s0.363,0.85,0.812,0.85c0.002,0,0.004-0.002,0.007-0.002c2.423,0.005,2.432,2.528,2.432,2.544c0,0.001-0.001,0.002-0.001,0.003
			c0,0.469,0.365,0.849,0.814,0.849c0.45,0,0.814-0.38,0.814-0.849c0-0.007-0.003-0.012-0.003-0.019
			C31.14,17.878,31.049,13.837,27.078,13.837z M26.105,21.902c0.691-0.991,0.553-1.84,0.553-1.84s-0.139-1.698-2.212-1.698
			c-2.074,0-3.871,1.557-3.871,1.557c-0.276,0-0.139-0.99-0.139-0.99c0.139-2.688,0.139-3.255-1.383-3.679
			c-1.521-0.425-9.04,5.228-9.04,11.595s8.626,6.15,8.626,6.15c7.051,0,12.305-5.011,11.89-8.266
			C30.114,21.478,26.105,21.902,26.105,21.902z M18.501,31.807c0,0-6.774-0.142-6.774-4.387c0.691-4.527,6.359-5.377,8.572-5.377
			c2.212,0,6.774,0.85,6.774,4.387S21.543,31.807,18.501,31.807z M19.019,24.106c0,0-3.491,0.133-3.879,3.838
			c0,0,0,2.646,2.845,2.646c2.844,0,3.879-2.646,3.879-3.573C21.863,26.092,21.346,24.106,19.019,24.106z M17.396,29.26
			c-0.968,0-1.106-0.85-1.106-0.85c0-1.415,1.383-1.557,1.383-1.557c0.829,0,0.968,1.133,0.968,1.133S18.363,29.26,17.396,29.26z
			 M19.181,27.242c0,0-0.385,0.197-0.385-0.394s0.385-0.591,0.385-0.591s0.577-0.197,0.577,0.395
			C19.758,27.242,19.181,27.242,19.181,27.242z"/>
	</g>
</g>
<g>
</g>
<g>
</g>
<g>
</g>
<g>
</g>
<g>
</g>
<g>
</g>
<g>
</g>
<g>
</g>
<g>
</g>
<g>
</g>
<g>
</g>
<g>
</g>
<g>
</g>
<g>
</g>
<g>
</g>
</svg>
