<?xml version="1.0" encoding="UTF-8" standalone="no"?>
<svg width="58px" height="58px" viewBox="0 0 58 58" version="1.1" xmlns="http://www.w3.org/2000/svg" xmlns:xlink="http://www.w3.org/1999/xlink" xmlns:sketch="http://www.bohemiancoding.com/sketch/ns">
    <!-- Generator: Sketch 3.0.4 (8053) - http://www.bohemiancoding.com/sketch -->
    <title>1248-skip-ahead</title>
    <desc>Created with Sketch.</desc>
    <defs></defs>
    <g id="Page-1" stroke="none" stroke-width="1" fill="none" fill-rule="evenodd" sketch:type="MSPage">
        <g id="Glyphish-8-Icons" sketch:type="MSArtboardGroup" transform="translate(-692.000000, -1363.000000)" fill="#000000">
            <g id="1248-skip-ahead" sketch:type="MSLayerGroup" transform="translate(692.036996, 1363.860499)">
                <g id="_x31_248-skip-ahead_x40_2x.png" sketch:type="MSShapeGroup">
                    <path d="M39,16 L39,16 L33.001,16 L33,16 C32.447,16 32,16.447 32,17 L32,26.104 L17.631,16.225 L17.621,16.236 C17.449,16.096 17.239,16 17,16 C16.447,16 16,16.447 16,17 L16,39 C16,39.553 16.448,40 17,40 C17.239,40 17.449,39.904 17.621,39.765 L17.631,39.777 L32,29.897 L32,39 C32,39.553 32.448,40 33,40 L39,40 C39.553,40 40,39.553 40,39 L40,17 C40,16.447 39.553,16 39,16 L39,16 Z M28,0 C12.536,0 0,12.536 0,28 C0,43.464 12.536,56 28,56 C43.464,56 56,43.464 56,28 C56,12.536 43.464,0 28,0 L28,0 Z M28,54 C13.641,54 2,42.359 2,28 C2,13.641 13.641,2 28,2 C42.359,2 54,13.641 54,28 C54,42.359 42.359,54 28,54 L28,54 Z" id="Shape"></path>
                </g>
            </g>
        </g>
    </g>
</svg>