<?xml version="1.0" encoding="iso-8859-1"?>
<!-- Generator: Adobe Illustrator 16.0.4, SVG Export Plug-In . SVG Version: 6.00 Build 0)  -->
<!DOCTYPE svg PUBLIC "-//W3C//DTD SVG 1.1//EN" "http://www.w3.org/Graphics/SVG/1.1/DTD/svg11.dtd">
<svg version="1.1" id="Layer_1" xmlns="http://www.w3.org/2000/svg" xmlns:xlink="http://www.w3.org/1999/xlink" x="0px" y="0px"
	 width="44px" height="44px" viewBox="0 0 44 44" style="enable-background:new 0 0 44 44;" xml:space="preserve">
<g id="_x31_247-skip-back_x40_2x.png">
	<g>
		<path d="M17,12C17,12,17,12,17,12h-3.999C13,12,13,12,13,12c-0.553,0-1,0.448-1,1v18c0,0.553,0.448,1,1,1h4c0.553,0,1-0.447,1-1
			v-9v-9C18,12.448,17.553,12,17,12z M31,12c-0.239,0-0.449,0.096-0.621,0.235l-0.01-0.011l-12,9l0.01,0.011
			C18.153,21.419,18,21.687,18,22s0.153,0.582,0.379,0.765l-0.01,0.012l12,9l0.01-0.012C30.551,31.904,30.761,32,31,32
			c0.553,0,1-0.447,1-1V13C32,12.448,31.553,12,31,12z M22,0C9.85,0,0,9.85,0,22s9.85,22,22,22s22-9.85,22-22S34.15,0,22,0z M22,42
			C10.954,42,2,33.046,2,22S10.954,2,22,2s20,8.954,20,20S33.046,42,22,42z"/>
	</g>
</g>
<g>
</g>
<g>
</g>
<g>
</g>
<g>
</g>
<g>
</g>
<g>
</g>
<g>
</g>
<g>
</g>
<g>
</g>
<g>
</g>
<g>
</g>
<g>
</g>
<g>
</g>
<g>
</g>
<g>
</g>
</svg>
