<?xml version="1.0" encoding="iso-8859-1"?>
<!-- Generator: Adobe Illustrator 16.0.4, SVG Export Plug-In . SVG Version: 6.00 Build 0)  -->
<!DOCTYPE svg PUBLIC "-//W3C//DTD SVG 1.1//EN" "http://www.w3.org/Graphics/SVG/1.1/DTD/svg11.dtd">
<svg version="1.1" id="Layer_1" xmlns="http://www.w3.org/2000/svg" xmlns:xlink="http://www.w3.org/1999/xlink" x="0px" y="0px"
	 width="40px" height="44px" viewBox="0 0 40 44" style="enable-background:new 0 0 40 44;" xml:space="preserve">
<g id="_x31_131-skirt-1_x40_2x.png">
	<g>
		<path d="M36,7.66V4.08c0.001-0.025,0.01-0.048,0.01-0.073C36.01,1.002,29.606,0,20,0S3.99,1.002,3.99,4.007
			C3.99,4.032,3.999,4.055,4,4.08v3.58L0,37c0,1.657,2.239,3,5,3c0.773,0,1.497-0.114,2.15-0.302C7.676,41.017,9.641,42,12,42
			c1.162,0,2.213-0.25,3.059-0.65C15.35,42.84,17.438,44,20,44s4.65-1.16,4.941-2.65C25.787,41.75,26.838,42,28,42
			c2.359,0,4.324-0.983,4.85-2.302C33.504,39.886,34.227,40,35,40c2.761,0,5-1.343,5-3L36,7.66z M20,2.008
			c7.733,0,14.002,0.895,14.002,1.998S27.733,6.004,20,6.004S5.998,5.109,5.998,4.006S12.267,2.008,20,2.008z M34,8
			c-0.021,1.101-6.28,1.993-14,1.993C12.28,9.993,6.021,9.101,6,8h0V7.987V6.368c2.604,1.194,7.58,1.646,14,1.646
			s11.396-0.451,14-1.646v1.619L34,8L34,8z M7.154,37.687C6.611,37.878,5.854,38,5,38c-1.493,0-2.722-0.364-2.952-0.841L2,37.156
			l0.015-0.107C2.012,37.032,2,37.017,2,37c0-0.044,0.022-0.086,0.039-0.128l3.634-26.674c1.082,0.568,2.661,0.98,4.644,1.267
			L7.154,37.687z M15.123,37.328l-0.13,1.879l-0.056-0.002C14.653,39.658,13.446,40,12,40c-1.657,0-3-0.447-3-1l3.302-27.301
			c1.128,0.105,2.356,0.181,3.667,0.229L15.123,37.328z M20,42c-1.657,0-3-0.447-3-1l0.967-29.018C18.629,11.993,19.303,12,20,12
			s1.371-0.007,2.033-0.018L23,41C23,41.553,21.657,42,20,42z M28,40c-1.446,0-2.653-0.342-2.936-0.795l-0.057,0.002l-0.13-1.879
			l-0.847-25.4c1.311-0.048,2.539-0.123,3.667-0.229L31,39C31,39.553,29.657,40,28,40z M38,37.156l-0.048,0.003
			C37.722,37.636,36.493,38,35,38c-0.854,0-1.611-0.122-2.154-0.313l-3.162-26.222c1.982-0.286,3.562-0.698,4.644-1.267
			l3.634,26.674C37.978,36.914,38,36.956,38,37c0,0.017-0.012,0.032-0.015,0.049L38,37.156z"/>
	</g>
</g>
<g>
</g>
<g>
</g>
<g>
</g>
<g>
</g>
<g>
</g>
<g>
</g>
<g>
</g>
<g>
</g>
<g>
</g>
<g>
</g>
<g>
</g>
<g>
</g>
<g>
</g>
<g>
</g>
<g>
</g>
</svg>
