<?xml version="1.0" encoding="iso-8859-1"?>
<!-- Generator: Adobe Illustrator 16.0.4, SVG Export Plug-In . SVG Version: 6.00 Build 0)  -->
<!DOCTYPE svg PUBLIC "-//W3C//DTD SVG 1.1//EN" "http://www.w3.org/Graphics/SVG/1.1/DTD/svg11.dtd">
<svg version="1.1" id="Layer_1" xmlns="http://www.w3.org/2000/svg" xmlns:xlink="http://www.w3.org/1999/xlink" x="0px" y="0px"
	 width="43.997px" height="40px" viewBox="0 0 43.997 40" style="enable-background:new 0 0 43.997 40;" xml:space="preserve">
<g id="_x31_132-skirt-2_x40_2x.png">
	<g>
		<path d="M10.997,15c-0.484,0-0.869,0.351-0.961,0.808l-0.02-0.004l-3,15l0.02,0.004C7.023,30.872,6.997,30.932,6.997,31
			c0,0.553,0.448,1,1,1c0.484,0,0.869-0.351,0.961-0.808l0.019,0.004l3-15l-0.019-0.004c0.013-0.064,0.039-0.124,0.039-0.192
			C11.997,15.448,11.549,15,10.997,15z M16.997,12c-0.518,0-0.929,0.398-0.98,0.902L16.002,12.9l-2,20l0.015,0.002
			c-0.003,0.033-0.02,0.063-0.02,0.098c0,0.553,0.448,1,1,1c0.518,0,0.929-0.398,0.98-0.902l0.015,0.002l2-20l-0.015-0.002
			c0.003-0.033,0.02-0.062,0.02-0.098C17.997,12.448,17.549,12,16.997,12z M33.978,15.804l-0.019,0.004
			C33.866,15.351,33.481,15,32.997,15c-0.552,0-1,0.448-1,1c0,0.068,0.026,0.128,0.039,0.192l-0.019,0.004l3,15l0.019-0.004
			C35.128,31.649,35.513,32,35.997,32c0.552,0,1-0.447,1-1c0-0.068-0.026-0.128-0.039-0.192l0.019-0.004L33.978,15.804z M21.997,10
			c-0.552,0-1,0.448-1,1v22c0,0.553,0.448,1,1,1s1-0.447,1-1V11C22.997,10.448,22.549,10,21.997,10z M35.998,5V2
			c0-1.274-0.698-2-2-2c-3.785,0-6,2-11.999,2s-8.213-2-11.998-2c-1.302,0-2,0.726-2,2v3C6.342,10.367-0.003,29.405,0,34.615
			C0.002,39.23,18.857,40,22,40c3.143,0,21.998-0.77,21.998-5.385C43.997,29.405,37.808,10.367,35.998,5z M34.441,6.652
			c0.433,1.296,0.915,2.771,1.416,4.335c-2.416-0.057-4.443-1.548-5.334-3.652C32.258,7.087,33.641,6.822,34.441,6.652z M8.91,8.764
			c0.251-0.79,0.474-1.491,0.668-2.106c0.803,0.171,2.175,0.433,3.893,0.678c-0.882,2.084-2.88,3.562-5.265,3.646
			C8.461,10.174,8.702,9.415,8.91,8.764z M32.965,37.191C28.481,37.803,23.641,38,22,38c-1.642,0-6.483-0.197-10.966-0.809
			C3.584,36.177,2.189,34.77,2,34.527c0.052-3.493,3.286-14.25,5.581-21.565C7.721,12.971,7.855,13,7.997,13
			c3.506,0,6.471-2.263,7.55-5.402c1.922,0.212,4.114,0.372,6.444,0.372v-2c-5.377,0-10.18-0.889-11.99-1.27V2
			c1.395,0,2.552,0.332,4.017,0.751C15.959,3.308,18.375,4,22,4s6.04-0.692,7.981-1.248C31.446,2.332,32.603,2,33.998,2v2.699
			c-1.806,0.38-6.613,1.271-11.995,1.271v2c2.331,0,4.522-0.16,6.444-0.372c1.079,3.14,4.043,5.402,7.55,5.402
			c0.167,0,0.324-0.033,0.487-0.044c2.583,8.185,5.463,18.176,5.513,21.572C41.808,34.771,40.412,36.178,32.965,37.191z
			 M29.992,32.9l-2-20l-0.015,0.002C27.926,12.398,27.515,12,26.997,12c-0.552,0-1,0.448-1,1c0,0.035,0.017,0.064,0.02,0.098
			L26.002,13.1l2,20l0.015-0.002C28.068,33.602,28.479,34,28.997,34c0.552,0,1-0.447,1-1c0-0.034-0.016-0.064-0.02-0.098
			L29.992,32.9z"/>
	</g>
</g>
<g>
</g>
<g>
</g>
<g>
</g>
<g>
</g>
<g>
</g>
<g>
</g>
<g>
</g>
<g>
</g>
<g>
</g>
<g>
</g>
<g>
</g>
<g>
</g>
<g>
</g>
<g>
</g>
<g>
</g>
</svg>
