<?xml version="1.0" encoding="iso-8859-1"?>
<!-- Generator: Adobe Illustrator 16.0.4, SVG Export Plug-In . SVG Version: 6.00 Build 0)  -->
<!DOCTYPE svg PUBLIC "-//W3C//DTD SVG 1.1//EN" "http://www.w3.org/Graphics/SVG/1.1/DTD/svg11.dtd">
<svg version="1.1" id="Layer_1" xmlns="http://www.w3.org/2000/svg" xmlns:xlink="http://www.w3.org/1999/xlink" x="0px" y="0px"
	 width="56px" height="56px" viewBox="0 0 56 56" style="enable-background:new 0 0 56 56;" xml:space="preserve">
<g id="_x38_75-skull_x40_2x.png">
	<g>
		<path d="M18,21c-3.866,0-7,3.134-7,7s3.134,7,7,7s7-3.134,7-7S21.866,21,18,21z M18,33c-2.757,0-5-2.243-5-5s2.243-5,5-5
			s5,2.243,5,5S20.757,33,18,33z M38,21c-3.866,0-7,3.134-7,7s3.134,7,7,7s7-3.134,7-7S41.866,21,38,21z M38,33
			c-2.757,0-5-2.243-5-5s2.243-5,5-5s5,2.243,5,5S40.757,33,38,33z M28,0C12.536,0,0,11.192,0,25c0,8.494,4.748,15.994,12,20.512V52
			c0,2.209,1.791,4,4,4h24c2.209,0,4-1.791,4-4v-6.488C51.252,40.994,56,33.494,56,25C56,11.192,43.464,0,28,0z M42.942,43.814
			L42,44.401v1.11V52c0,1.103-0.896,2-2,2h-4v-9c0-0.553-0.447-1-1-1s-1,0.447-1,1v9h-5v-9c0-0.553-0.447-1-1-1s-1,0.447-1,1v9h-5
			v-9c0-0.553-0.447-1-1-1s-1,0.447-1,1v9h-4c-1.103,0-2-0.897-2-2v-6.488v-1.11l-0.942-0.587C6.134,39.501,2,32.468,2,25
			C2,12.317,13.664,2,28,2s26,10.317,26,23C54,32.468,49.866,39.501,42.942,43.814z"/>
	</g>
</g>
<g>
</g>
<g>
</g>
<g>
</g>
<g>
</g>
<g>
</g>
<g>
</g>
<g>
</g>
<g>
</g>
<g>
</g>
<g>
</g>
<g>
</g>
<g>
</g>
<g>
</g>
<g>
</g>
<g>
</g>
</svg>
