<?xml version="1.0" encoding="iso-8859-1"?>
<!-- Generator: Adobe Illustrator 16.0.4, SVG Export Plug-In . SVG Version: 6.00 Build 0)  -->
<!DOCTYPE svg PUBLIC "-//W3C//DTD SVG 1.1//EN" "http://www.w3.org/Graphics/SVG/1.1/DTD/svg11.dtd">
<svg version="1.1" id="Layer_1" xmlns="http://www.w3.org/2000/svg" xmlns:xlink="http://www.w3.org/1999/xlink" x="0px" y="0px"
	 width="50px" height="56px" viewBox="0 0 50 56" style="enable-background:new 0 0 50 56;" xml:space="preserve">
<g id="_x39_14-skull-and-crossbones_x40_2x.png">
	<g>
		<path d="M23,21c-0.553,0-1,0.448-1,1c0,0.553,0.447,1,1,1h4c0.553,0,1-0.447,1-1c0-0.552-0.447-1-1-1c0,0-1-1-1-2
			c0-0.553-0.447-1-1-1s-1,0.447-1,1C24,20,23,21,23,21z M30,16c2.209,0,4-1.791,4-4s-1.791-4-4-4s-4,1.791-4,4S27.791,16,30,16z
			 M30,10c1.104,0,2,0.896,2,2s-0.896,2-2,2s-2-0.896-2-2S28.896,10,30,10z M15,25c0,2.209,1.791,4,4,4
			c0.627,0,1.212-0.157,1.74-0.414C21.617,30.028,23.189,31,25,31s3.383-0.972,4.26-2.414C29.788,28.843,30.373,29,31,29
			c2.209,0,4-1.791,4-4v-5.351c1.872-2.074,3-4.737,3-7.649c0-6.627-5.82-12-13-12S12,5.373,12,12c0,2.912,1.129,5.575,3,7.65V25z
			 M14,12c0-5.522,4.925-10,11-10s11,4.478,11,10c0,2.653-1.145,5.059-3,6.85V25c0,1.104-0.896,2-2,2
			c-0.553,0-1.053-0.224-1.414-0.586l-0.01,0.01c-0.183-0.2-0.44-0.33-0.732-0.33c-0.392,0-0.722,0.23-0.887,0.559l-0.029-0.01
			C27.633,27.99,26.436,29,25,29s-2.633-1.01-2.928-2.357l-0.029,0.01c-0.164-0.328-0.495-0.559-0.887-0.559
			c-0.292,0-0.55,0.13-0.732,0.33l-0.01-0.01C20.053,26.776,19.553,27,19,27c-1.104,0-2-0.896-2-2v-6.15
			C15.145,17.059,14,14.653,14,12z M41.973,36.263C42.796,37.313,44.062,38,45.5,38c2.485,0,4.5-2.015,4.5-4.5
			c0-2.077-1.415-3.809-3.329-4.326C46.879,28.655,47,28.093,47,27.5c0-2.485-2.015-4.5-4.5-4.5S38,25.015,38,27.5
			c0,0.653,0.153,1.266,0.404,1.823L8.318,43.145C7.525,41.861,6.118,41,4.5,41C2.015,41,0,43.015,0,45.5
			c0,2.077,1.416,3.809,3.329,4.327C3.121,50.345,3,50.907,3,51.5C3,53.985,5.015,56,7.5,56s4.5-2.015,4.5-4.5
			c0-0.478-0.095-0.93-0.232-1.361L41.973,36.263z M10,51.5c0,1.381-1.119,2.5-2.5,2.5S5,52.881,5,51.5
			c0-0.88,0.457-1.65,1.146-2.097l-0.004-0.006c0.221-0.161,0.374-0.408,0.374-0.702c0-0.488-0.395-0.883-0.883-0.883
			c-0.118,0-0.229,0.024-0.332,0.066L5.29,47.86C5.04,47.944,4.778,48,4.5,48C3.119,48,2,46.881,2,45.5S3.119,43,4.5,43
			S7,44.119,7,45.5c0,0.166-0.018,0.327-0.049,0.484l0.018-0.016l1.986-0.913c0-0.001,0-0.002,0-0.003L36,32.629v-0.004l5.844-2.688
			l-0.035-0.047C40.767,29.59,40,28.64,40,27.5c0-1.381,1.119-2.5,2.5-2.5s2.5,1.119,2.5,2.5c0,0.876-0.453,1.645-1.135,2.091
			l0.003,0.006c-0.227,0.159-0.384,0.41-0.384,0.708c0,0.488,0.396,0.884,0.883,0.884c0.115,0,0.225-0.025,0.325-0.066l0.011,0.02
			C44.955,31.057,45.22,31,45.5,31c1.381,0,2.5,1.119,2.5,2.5S46.881,36,45.5,36c-1.353,0-2.446-1.075-2.491-2.417L43,33.594
			l-7,3.219v-0.007L13.969,46.927v0.011l-5.236,2.399C9.486,49.768,10,50.57,10,51.5z M45.5,41c-1.618,0-3.025,0.862-3.818,2.145
			l-3.709-1.704l-2.385,1.104l5.457,2.508c0,0.001,0,0.002,0,0.003l1.986,0.913l0.018,0.016C43.018,45.827,43,45.666,43,45.5
			c0-1.381,1.119-2.5,2.5-2.5s2.5,1.119,2.5,2.5S46.881,48,45.5,48c-0.277,0-0.54-0.056-0.79-0.14l-0.011,0.019
			c-0.103-0.042-0.214-0.066-0.332-0.066c-0.487,0-0.883,0.395-0.883,0.883c0,0.294,0.153,0.541,0.374,0.702l-0.004,0.007
			C44.543,49.85,45,50.62,45,51.5c0,1.381-1.119,2.5-2.5,2.5S40,52.881,40,51.5c0-0.93,0.514-1.732,1.268-2.163l-5.236-2.399v-0.011
			l-4.971-2.283l-2.385,1.104l9.557,4.391C38.095,50.57,38,51.022,38,51.5c0,2.485,2.015,4.5,4.5,4.5s4.5-2.015,4.5-4.5
			c0-0.593-0.121-1.155-0.329-1.673C48.585,49.309,50,47.577,50,45.5C50,43.015,47.985,41,45.5,41z M4.5,38
			c1.438,0,2.704-0.687,3.527-1.737l3.929,1.805l2.386-1.104L14,36.806v0.007l-7-3.219l-0.009-0.011C6.946,34.925,5.853,36,4.5,36
			C3.119,36,2,34.881,2,33.5S3.119,31,4.5,31c0.28,0,0.545,0.057,0.797,0.142l0.011-0.02c0.101,0.041,0.21,0.066,0.325,0.066
			c0.488,0,0.883-0.396,0.883-0.884c0-0.298-0.157-0.549-0.384-0.708l0.003-0.006C5.453,29.145,5,28.376,5,27.5
			C5,26.119,6.119,25,7.5,25s2.5,1.119,2.5,2.5c0,1.14-0.767,2.09-1.809,2.391l-0.035,0.047L14,32.625v0.004l4.869,2.236
			l2.385-1.105l-9.658-4.437C11.847,28.766,12,28.153,12,27.5c0-2.485-2.015-4.5-4.5-4.5S3,25.015,3,27.5
			c0,0.593,0.121,1.155,0.329,1.673C1.416,29.691,0,31.423,0,33.5C0,35.985,2.015,38,4.5,38z M20,16c2.209,0,4-1.791,4-4
			s-1.791-4-4-4s-4,1.791-4,4S17.791,16,20,16z M20,10c1.104,0,2,0.896,2,2s-0.896,2-2,2s-2-0.896-2-2S18.896,10,20,10z"/>
	</g>
</g>
<g>
</g>
<g>
</g>
<g>
</g>
<g>
</g>
<g>
</g>
<g>
</g>
<g>
</g>
<g>
</g>
<g>
</g>
<g>
</g>
<g>
</g>
<g>
</g>
<g>
</g>
<g>
</g>
<g>
</g>
</svg>
