<?xml version="1.0" encoding="iso-8859-1"?>
<!-- Generator: Adobe Illustrator 16.0.4, SVG Export Plug-In . SVG Version: 6.00 Build 0)  -->
<!DOCTYPE svg PUBLIC "-//W3C//DTD SVG 1.1//EN" "http://www.w3.org/Graphics/SVG/1.1/DTD/svg11.dtd">
<svg version="1.1" id="Layer_1" xmlns="http://www.w3.org/2000/svg" xmlns:xlink="http://www.w3.org/1999/xlink" x="0px" y="0px"
	 width="40px" height="44px" viewBox="0 0 40 44" style="enable-background:new 0 0 40 44;" xml:space="preserve">
<g id="_x39_13-skull-toolbar_x40_2x.png">
	<g>
		<path d="M18.005,17.004c0-3.315-2.686-6.004-5.998-6.004S6.01,13.688,6.01,17.004c0,3.316,2.685,6.005,5.997,6.005
			S18.005,20.32,18.005,17.004z M11.992,21c-2.212,0-4.005-1.789-4.005-3.996s1.793-3.996,4.005-3.996
			c2.213,0,4.006,1.789,4.006,3.996S14.205,21,11.992,21z M28.007,11c-3.312,0-5.997,2.688-5.997,6.004
			c0,3.316,2.685,6.005,5.997,6.005s5.998-2.688,5.998-6.005C34.005,13.688,31.319,11,28.007,11z M27.993,21
			c-2.213,0-4.006-1.789-4.006-3.996s1.793-3.996,4.006-3.996c2.212,0,4.005,1.789,4.005,3.996S30.205,21,27.993,21z M20,0
			C8.954,0,0,8.091,0,18.071c0,4.05,1.496,7.771,3.99,10.78v7.133h0.002c0,0.006-0.002,0.012-0.002,0.018
			c0,3.308,2.686,5.989,5.998,5.989c1.64,0,3.245-0.66,4.452-1.725C15.337,42.455,17.485,44,20,44c2.508,0,4.653-1.535,5.554-3.715
			c1.204,1.053,2.798,1.706,4.427,1.706c3.312,0,5.998-2.682,5.998-5.989c0-0.006-0.002-0.012-0.002-0.018h0.033v-7.133
			c2.494-3.01,3.99-6.73,3.99-10.78C40,8.091,31.046,0,20,0z M34,28.049V36l-0.03,0.012c-0.006,2.21-1.796,4-4.004,4
			c-1.595,0-3.201-0.939-3.981-2.289l-0.028,0.006c-0.12-0.421-0.49-0.734-0.949-0.734c-0.555,0-1.003,0.449-1.003,1.003
			c0,0.054,0.022,0.101,0.03,0.151l-0.048,0.011c-0.085,2.129-1.83,3.832-3.986,3.832c-2.161,0-3.91-1.711-3.988-3.847l-0.043-0.011
			c0.007-0.047,0.028-0.088,0.028-0.137c0-0.554-0.449-1.003-1.004-1.003c-0.443,0-0.808,0.293-0.94,0.691l-0.038-0.009
			c-0.771,1.375-2.398,2.335-4.012,2.335c-2.212,0-4.005-1.796-4.005-4.01C5.998,35.995,6,35.988,6,35.98v-7.932
			c-2.493-2.746-3.993-6.236-3.993-10.04c0-8.837,8.056-16,17.993-16s17.993,7.163,17.993,16C37.993,21.812,36.493,25.303,34,28.049
			z M21.996,26.996v-1.004h-0.002c-0.008-1.098-0.896-1.984-1.994-1.984s-1.986,0.887-1.994,1.984h-0.002v1.004
			c-1.102,0-1.995,0.895-1.995,1.998s0.894,1.998,1.995,1.998h3.992c1.102,0,1.996-0.895,1.996-1.998S23.098,26.996,21.996,26.996z"
			/>
	</g>
</g>
<g>
</g>
<g>
</g>
<g>
</g>
<g>
</g>
<g>
</g>
<g>
</g>
<g>
</g>
<g>
</g>
<g>
</g>
<g>
</g>
<g>
</g>
<g>
</g>
<g>
</g>
<g>
</g>
<g>
</g>
</svg>
