<?xml version="1.0" encoding="iso-8859-1"?>
<!-- Generator: Adobe Illustrator 16.0.4, SVG Export Plug-In . SVG Version: 6.00 Build 0)  -->
<!DOCTYPE svg PUBLIC "-//W3C//DTD SVG 1.1//EN" "http://www.w3.org/Graphics/SVG/1.1/DTD/svg11.dtd">
<svg version="1.1" id="Layer_1" xmlns="http://www.w3.org/2000/svg" xmlns:xlink="http://www.w3.org/1999/xlink" x="0px" y="0px"
	 width="44px" height="44px" viewBox="0 0 44 44" style="enable-background:new 0 0 44 44;" xml:space="preserve">
<g id="_x38_75-skull-toolbar_x40_2x.png">
	<g>
		<path d="M30,16c-3.313,0-6,2.687-6,6s2.687,6,6,6s6-2.687,6-6S33.313,16,30,16z M30,26c-2.209,0-4-1.791-4-4s1.791-4,4-4
			s4,1.791,4,4S32.209,26,30,26z M14,16c-3.313,0-6,2.687-6,6s2.687,6,6,6s6-2.687,6-6S17.313,16,14,16z M14,26
			c-2.209,0-4-1.791-4-4s1.791-4,4-4s4,1.791,4,4S16.209,26,14,26z M22,0C9.85,0,0,8.73,0,19.5c0,6.453,3.552,12.156,9,15.706V39v1
			c0,2.209,1.791,4,4,4h18c2.209,0,4-1.791,4-4v-1v-3.794c5.448-3.55,9-9.253,9-15.706C44,8.73,34.15,0,22,0z M33.426,33.852
			l0.015,0.029c-0.26,0.181-0.44,0.467-0.44,0.807c0,0.111,0.03,0.213,0.063,0.312H33v1v0.37V39v1c0,1.104-0.896,2-2,2h-2v-7
			c0-0.553-0.447-1-1-1s-1,0.447-1,1v7h-4v-7c0-0.553-0.447-1-1-1s-1,0.447-1,1v7h-4v-7c0-0.553-0.447-1-1-1s-1,0.447-1,1v7h-2
			c-1.104,0-2-0.896-2-2v-1v-2.63V36v-1h-0.063C10.971,34.9,11,34.799,11,34.688c0-0.34-0.181-0.626-0.44-0.807l0.015-0.029
			C5.396,30.689,2,25.445,2,19.5C2,9.835,10.954,2,22,2s20,7.835,20,17.5C42,25.445,38.604,30.689,33.426,33.852z"/>
	</g>
</g>
<g>
</g>
<g>
</g>
<g>
</g>
<g>
</g>
<g>
</g>
<g>
</g>
<g>
</g>
<g>
</g>
<g>
</g>
<g>
</g>
<g>
</g>
<g>
</g>
<g>
</g>
<g>
</g>
<g>
</g>
</svg>
