<?xml version="1.0" encoding="iso-8859-1"?>
<!-- Generator: Adobe Illustrator 16.0.4, SVG Export Plug-In . SVG Version: 6.00 Build 0)  -->
<!DOCTYPE svg PUBLIC "-//W3C//DTD SVG 1.1//EN" "http://www.w3.org/Graphics/SVG/1.1/DTD/svg11.dtd">
<svg version="1.1" id="Layer_1" xmlns="http://www.w3.org/2000/svg" xmlns:xlink="http://www.w3.org/1999/xlink" x="0px" y="0px"
	 width="52px" height="56px" viewBox="0 0 52 56" style="enable-background:new 0 0 52 56;" xml:space="preserve">
<g id="_x39_13-skull_x40_2x.png">
	<g>
		<path d="M23,22c0-4.418-3.582-8-8-8s-8,3.582-8,8s3.582,8,8,8S23,26.418,23,22z M15,28c-3.313,0-6-2.687-6-6s2.687-6,6-6
			s6,2.687,6,6S18.313,28,15,28z M29,34v-1c0-1.657-1.343-3-3-3s-3,1.343-3,3v1c-1.657,0-3,1.343-3,3s1.343,3,3,3h6
			c1.657,0,3-1.343,3-3S30.657,34,29,34z M29,38h-6c-0.553,0-1-0.447-1-1c0-0.552,0.447-1,1-1c2,0,2-2,2-2v-1c0-0.553,0.447-1,1-1
			s1,0.447,1,1v1c0,2,2,2,2,2c0.553,0,1,0.448,1,1C30,37.553,29.553,38,29,38z M26,0C11.641,0,0,10.298,0,23
			c0,5.578,2.262,10.677,6,14.654V46c0,4.418,3.582,8,8,8c2.162,0,4.121-0.861,5.561-2.256C20.628,54.246,23.108,56,26,56
			s5.372-1.754,6.439-4.256C33.879,53.139,35.838,54,38,54c4.418,0,8-3.582,8-8v-8.346c3.738-3.978,6-9.076,6-14.654
			C52,10.298,40.359,0,26,0z M44,36.872V46c0,3.313-2.687,6-6,6c-2.271,0-4.223-1.276-5.242-3.137l-0.04,0.023
			c-0.166-0.264-0.445-0.449-0.78-0.449c-0.495,0-0.891,0.388-0.925,0.875h-0.044C30.804,51.926,28.654,54,26,54
			s-4.804-2.074-4.969-4.688h-0.044c-0.034-0.487-0.429-0.875-0.925-0.875c-0.338,0-0.621,0.188-0.786,0.457l-0.039-0.023
			C18.218,50.728,16.268,52,14,52c-3.313,0-6-2.687-6-6v-9.128C4.27,33.174,2,28.321,2,23C2,11.402,12.745,2,26,2s24,9.402,24,21
			C50,28.321,47.73,33.174,44,36.872z M37,14c-4.418,0-8,3.582-8,8s3.582,8,8,8s8-3.582,8-8S41.418,14,37,14z M37,28
			c-3.313,0-6-2.687-6-6s2.687-6,6-6s6,2.687,6,6S40.313,28,37,28z"/>
	</g>
</g>
<g>
</g>
<g>
</g>
<g>
</g>
<g>
</g>
<g>
</g>
<g>
</g>
<g>
</g>
<g>
</g>
<g>
</g>
<g>
</g>
<g>
</g>
<g>
</g>
<g>
</g>
<g>
</g>
<g>
</g>
</svg>
