<?xml version="1.0" encoding="iso-8859-1"?>
<!-- Generator: Adobe Illustrator 16.0.4, SVG Export Plug-In . SVG Version: 6.00 Build 0)  -->
<!DOCTYPE svg PUBLIC "-//W3C//DTD SVG 1.1//EN" "http://www.w3.org/Graphics/SVG/1.1/DTD/svg11.dtd">
<svg version="1.1" id="Layer_1" xmlns="http://www.w3.org/2000/svg" xmlns:xlink="http://www.w3.org/1999/xlink" x="0px" y="0px"
	 width="40.006px" height="44.002px" viewBox="0 0 40.006 44.002" style="enable-background:new 0 0 40.006 44.002;"
	 xml:space="preserve">
<g id="_x39_14-skull-and-crossbones-toolbar_x40_2x.png">
	<g>
		<path d="M23.003,11c1.109,0,2.008-0.892,2.008-1.991c0-1.101-0.898-1.992-2.008-1.992s-2.008,0.892-2.008,1.992
			C20.995,10.108,21.894,11,23.003,11z M17.003,11.006c1.109,0,2.008-0.896,2.008-2.002c0-1.104-0.898-2.001-2.008-2.001
			c-1.108,0-2.008,0.896-2.008,2.001C14.995,10.109,15.895,11.006,17.003,11.006z M19.003,13v0.003
			c-0.549,0.006-0.992,0.451-0.992,1.003c0,0.556,0.449,1.006,1.004,1.006c0.021,0,0.038-0.011,0.059-0.012h1.859
			c0.021,0.001,0.038,0.012,0.059,0.012c0.555,0,1.004-0.45,1.004-1.006c0-0.552-0.443-0.997-0.992-1.003V13h-0.018
			c0-0.004,0.002-0.008,0.002-0.012c0-0.555-0.44-1.006-0.984-1.006s-0.984,0.451-0.984,1.006c0,0.004,0.002,0.008,0.002,0.012
			H19.003z M36.52,32c-0.007,0.001-0.013,0.003-0.02,0.003c-0.006,0-0.012-0.002-0.018-0.002c-1.355,0.007-2.517,0.787-3.094,1.917
			l-3.483-1.571l-2.432,1.097l5.093,2.298c0.266,0.12,0.546,0.177,0.821,0.177c0.729,0,1.429-0.4,1.781-1.09
			c0.263-0.512,0.771-0.83,1.331-0.83c0.83,0,1.506,0.675,1.506,1.504c0,0.646-0.423,1.216-1.052,1.417
			c-0.571,0.182-1.029,0.61-1.251,1.167c-0.221,0.557-0.181,1.184,0.109,1.707c0.134,0.242,0.199,0.473,0.199,0.705
			c0,0.829-0.676,1.504-1.506,1.504S33,41.327,33,40.498c0-0.097,0.019-0.217,0.058-0.368c0.24-0.941-0.23-1.919-1.115-2.318
			l-7.076-3.192l-2.432,1.098l8.685,3.918C31.049,39.912,31,40.199,31,40.498c0,1.936,1.569,3.504,3.506,3.504
			s3.506-1.568,3.506-3.504c0-0.611-0.173-1.174-0.45-1.674c1.414-0.451,2.444-1.76,2.444-3.322
			C40.006,33.573,38.446,32.011,36.52,32z M33.611,28.479c0.632,0.919,1.689,1.523,2.889,1.523c1.937,0,3.506-1.569,3.506-3.505
			c0-1.561-1.027-2.867-2.438-3.321c0.273-0.499,0.443-1.064,0.443-1.674c0-1.937-1.569-3.505-3.506-3.505
			c-1.936,0-3.506,1.568-3.506,3.505c0,0.46,0.094,0.897,0.256,1.3L6.617,33.918c-0.58-1.135-1.748-1.919-3.111-1.919
			C1.57,31.999,0,33.566,0,35.502c0,1.562,1.03,2.871,2.444,3.322c-0.277,0.5-0.45,1.062-0.45,1.674
			c0,1.936,1.569,3.504,3.506,3.504s3.506-1.568,3.506-3.504c0-0.299-0.049-0.586-0.119-0.863L33.611,28.479z M6.948,40.13
			c0.039,0.151,0.058,0.271,0.058,0.368c0,0.829-0.676,1.504-1.506,1.504s-1.506-0.675-1.506-1.504c0-0.232,0.065-0.463,0.199-0.705
			c0.29-0.523,0.33-1.15,0.109-1.707s-0.681-0.985-1.251-1.167C2.423,36.718,2,36.148,2,35.502c0-0.829,0.676-1.504,1.506-1.504
			c0.56,0,1.069,0.318,1.331,0.83c0.352,0.689,1.053,1.09,1.781,1.09c0.275,0,0.556-0.057,0.821-0.177l24.639-11.116
			c0.979-0.44,1.434-1.575,1.033-2.57C33.037,21.872,33,21.687,33,21.503c0-0.83,0.676-1.505,1.506-1.505s1.506,0.675,1.506,1.505
			c0,0.233-0.066,0.474-0.197,0.714c-0.287,0.522-0.325,1.146-0.104,1.7c0.221,0.554,0.677,0.98,1.244,1.164
			c0.629,0.202,1.051,0.771,1.051,1.417c0,0.83-0.676,1.505-1.506,1.505c-0.494,0-0.958-0.245-1.241-0.656
			c-0.383-0.558-1.007-0.866-1.648-0.866c-0.276,0-0.556,0.057-0.821,0.177L8.063,37.812C7.179,38.211,6.708,39.188,6.948,40.13z
			 M3.486,30.001c0.007-0.001,0.013-0.002,0.02-0.002C3.512,29.999,3.518,30,3.523,30c1.191-0.006,2.242-0.606,2.871-1.521
			l3.706,1.673l2.432-1.098l-5.315-2.397c-0.266-0.12-0.545-0.177-0.821-0.177c-0.642,0-1.266,0.309-1.648,0.866
			C4.464,27.758,4,28.003,3.506,28.003C2.676,28.003,2,27.328,2,26.498c0-0.646,0.422-1.215,1.051-1.417
			c0.567-0.184,1.023-0.61,1.244-1.164c0.222-0.554,0.184-1.178-0.104-1.7c-0.131-0.24-0.197-0.48-0.197-0.714
			c0-0.83,0.676-1.505,1.506-1.505s1.506,0.675,1.506,1.505c0,0.184-0.037,0.369-0.111,0.552c-0.4,0.995,0.055,2.13,1.033,2.57
			l7.212,3.254l2.432-1.097L8.75,22.803c0.162-0.402,0.256-0.84,0.256-1.3c0-1.937-1.57-3.505-3.506-3.505
			c-1.937,0-3.506,1.568-3.506,3.505c0,0.609,0.17,1.175,0.443,1.674C1.027,23.631,0,24.938,0,26.498
			C0,28.427,1.56,29.99,3.486,30.001z M12.003,17.982h0.003c-0.001,0.007-0.003,0.013-0.003,0.02c0,1.658,1.342,3.002,2.997,3.002
			c0.68,0,1.299-0.234,1.802-0.616c0.729,0.981,1.886,1.626,3.201,1.626s2.473-0.645,3.201-1.626
			c0.503,0.382,1.122,0.616,1.802,0.616c1.655,0,2.997-1.344,2.997-3.002c0-0.007-0.002-0.013-0.002-0.02h0.002v-3.62
			c1.244-1.496,1.994-3.342,1.994-5.355C29.997,4.032,25.522,0,20.003,0s-9.994,4.032-9.994,9.007c0,2.019,0.747,3.873,1.994,5.373
			V17.982z M20.003,2.008c4.412,0,7.988,3.134,7.988,6.998c0,1.771-0.756,3.383-1.994,4.615v4.364h-0.001
			c0,0.006,0.003,0.011,0.003,0.016c0,0.551-0.445,0.996-0.994,0.996s-0.994-0.445-0.994-0.996c0-0.005,0.003-0.01,0.003-0.016
			h-0.016c-0.013-0.544-0.453-0.982-0.999-0.982S22.013,17.441,22,17.985h-0.004c0,0.005,0,0.009,0.001,0.014
			c0,0.004-0.002,0.006-0.002,0.01c0,0.003,0.002,0.005,0.002,0.008c-0.006,1.099-0.896,1.987-1.994,1.987s-1.987-0.889-1.994-1.987
			c0-0.003,0.002-0.005,0.002-0.008c0-0.004-0.002-0.007-0.002-0.01c0.001-0.005,0.001-0.009,0.001-0.014h-0.004
			c-0.013-0.544-0.453-0.982-0.999-0.982s-0.986,0.438-0.999,0.982h-0.016c0,0.006,0.003,0.011,0.003,0.016
			c0,0.551-0.445,0.996-0.994,0.996s-0.994-0.445-0.994-0.996c0-0.005,0.003-0.01,0.003-0.016h-0.001v-4.364
			c-1.238-1.232-1.994-2.845-1.994-4.615C12.015,5.142,15.591,2.008,20.003,2.008z"/>
	</g>
</g>
<g>
</g>
<g>
</g>
<g>
</g>
<g>
</g>
<g>
</g>
<g>
</g>
<g>
</g>
<g>
</g>
<g>
</g>
<g>
</g>
<g>
</g>
<g>
</g>
<g>
</g>
<g>
</g>
<g>
</g>
</svg>
