<?xml version="1.0" encoding="iso-8859-1"?>
<!-- Generator: Adobe Illustrator 16.0.4, SVG Export Plug-In . SVG Version: 6.00 Build 0)  -->
<!DOCTYPE svg PUBLIC "-//W3C//DTD SVG 1.1//EN" "http://www.w3.org/Graphics/SVG/1.1/DTD/svg11.dtd">
<svg version="1.1" id="Layer_1" xmlns="http://www.w3.org/2000/svg" xmlns:xlink="http://www.w3.org/1999/xlink" x="0px" y="0px"
	 width="44px" height="44px" viewBox="0 0 44 44" style="enable-background:new 0 0 44 44;" xml:space="preserve">
<g id="_x31_277-skype_x40_2x.png">
	<g>
		<path d="M34.911,22c0-7.13-5.78-12.91-12.911-12.91c-0.769,0-1.517,0.079-2.248,0.208c-1.201-0.811-2.649-1.284-4.207-1.284
			c-4.16,0-7.531,3.372-7.531,7.531c0,1.559,0.474,3.006,1.284,4.207C9.169,20.483,9.089,21.231,9.089,22
			c0,7.131,5.78,12.911,12.911,12.911c0.769,0,1.517-0.08,2.248-0.208c1.201,0.811,2.649,1.284,4.207,1.284
			c4.16,0,7.531-3.372,7.531-7.532c0-1.558-0.473-3.005-1.284-4.207C34.831,23.517,34.911,22.769,34.911,22z M22.335,30
			c-4.4,0-6.368-2.2-6.368-3.851c0-0.847,0.613-1.438,1.46-1.438c1.883,0,1.396,2.75,4.908,2.75c1.798,0,2.793-0.994,2.793-2.01
			c0-0.613-0.297-1.29-1.481-1.587l-3.914-0.994c-3.152-0.804-3.724-2.539-3.724-4.168c0-3.385,3.132-4.654,6.072-4.654
			c2.708,0,5.902,1.523,5.902,3.554c0,0.868-0.74,1.375-1.586,1.375c-1.608,0-1.312-2.264-4.549-2.264
			c-1.608,0-2.497,0.741-2.497,1.799s1.27,1.396,2.37,1.65l2.898,0.655c3.173,0.72,3.978,2.603,3.978,4.38
			C28.598,27.947,26.524,30,22.335,30z M22,0C9.85,0,0,9.85,0,22s9.85,22,22,22s22-9.85,22-22S34.15,0,22,0z M22,42
			C10.954,42,2,33.046,2,22S10.954,2,22,2s20,8.954,20,20S33.046,42,22,42z"/>
	</g>
</g>
<g>
</g>
<g>
</g>
<g>
</g>
<g>
</g>
<g>
</g>
<g>
</g>
<g>
</g>
<g>
</g>
<g>
</g>
<g>
</g>
<g>
</g>
<g>
</g>
<g>
</g>
<g>
</g>
<g>
</g>
</svg>
