<?xml version="1.0" encoding="UTF-8" standalone="no"?>
<svg width="58px" height="58px" viewBox="0 0 58 58" version="1.1" xmlns="http://www.w3.org/2000/svg" xmlns:xlink="http://www.w3.org/1999/xlink" xmlns:sketch="http://www.bohemiancoding.com/sketch/ns">
    <!-- Generator: Sketch 3.0.4 (8053) - http://www.bohemiancoding.com/sketch -->
    <title>1277-skype</title>
    <desc>Created with Sketch.</desc>
    <defs></defs>
    <g id="Page-1" stroke="none" stroke-width="1" fill="none" fill-rule="evenodd" sketch:type="MSPage">
        <g id="Glyphish-8-Icons" sketch:type="MSArtboardGroup" transform="translate(-596.000000, -1651.000000)" fill="#000000">
            <g id="1277-skype" sketch:type="MSLayerGroup" transform="translate(596.036996, 1651.860499)">
                <g id="_x31_277-skype_x40_2x.png" sketch:type="MSShapeGroup">
                    <path d="M44.615,28 C44.615,18.824 37.177,11.385 28,11.385 C27.012,11.385 26.048,11.488 25.106,11.654 C23.561,10.609 21.697,10 19.692,10 C14.34,10 10,14.34 10,19.692 C10,21.698 10.609,23.56 11.652,25.106 C11.487,26.047 11.384,27.011 11.384,28 C11.384,37.177 18.822,44.615 27.999,44.615 C28.988,44.615 29.951,44.512 30.893,44.347 C32.439,45.391 34.303,46 36.308,46 C41.66,46 46,41.661 46,36.308 C46,34.303 45.391,32.44 44.348,30.894 C44.513,29.952 44.615,28.989 44.615,28 L44.615,28 Z M28.432,38.295 C22.768,38.295 20.236,35.464 20.236,33.34 C20.236,32.251 21.026,31.488 22.115,31.488 C24.539,31.488 23.912,35.027 28.432,35.027 C30.745,35.027 32.026,33.748 32.026,32.441 C32.026,31.651 31.644,30.78 30.12,30.399 L25.083,29.119 C21.026,28.085 20.291,25.852 20.291,23.756 C20.291,19.4 24.321,17.766 28.105,17.766 C31.59,17.766 35.702,19.727 35.702,22.34 C35.702,23.456 34.749,24.11 33.659,24.11 C31.591,24.11 31.971,21.197 27.805,21.197 C25.736,21.197 24.592,22.15 24.592,23.511 C24.592,24.872 26.226,25.308 27.642,25.635 L31.372,26.479 C35.456,27.405 36.49,29.828 36.49,32.115 C36.49,35.654 33.822,38.295 28.432,38.295 L28.432,38.295 Z M28,0 C12.536,0 0,12.536 0,28 C0,43.464 12.536,56 28,56 C43.464,56 56,43.464 56,28 C56,12.536 43.464,0 28,0 L28,0 Z M28,54 C13.641,54 2,42.359 2,28 C2,13.641 13.641,2 28,2 C42.359,2 54,13.641 54,28 C54,42.359 42.359,54 28,54 L28,54 Z" id="Shape"></path>
                </g>
            </g>
        </g>
    </g>
</svg>