<?xml version="1.0" encoding="UTF-8" standalone="no"?>
<svg width="38px" height="52px" viewBox="0 0 38 52" version="1.1" xmlns="http://www.w3.org/2000/svg" xmlns:xlink="http://www.w3.org/1999/xlink" xmlns:sketch="http://www.bohemiancoding.com/sketch/ns">
    <!-- Generator: Sketch 3.0.4 (8053) - http://www.bohemiancoding.com/sketch -->
    <title>1116-slayer-hand</title>
    <desc>Created with Sketch.</desc>
    <defs></defs>
    <g id="Page-1" stroke="none" stroke-width="1" fill="none" fill-rule="evenodd" sketch:type="MSPage">
        <g id="Glyphish-8-Icons" sketch:type="MSArtboardGroup" transform="translate(-510.000000, -118.000000)" fill="#000000">
            <g id="1116-slayer-hand" sketch:type="MSLayerGroup" transform="translate(510.036996, 118.860499)">
                <g id="_x31_116-slayer-hand_x40_2x.png" sketch:type="MSShapeGroup">
                    <path d="M32.009,4 C29.8,4 28.009,5.791 28.009,8 L28.009,14.556 C27.419,14.212 26.741,14 26.009,14 C25.179,14 24.409,14.253 23.77,14.686 C23.224,13.126 21.755,12 20.009,12 C19.277,12 18.6,12.212 18.009,12.555 L18.009,4 C18.009,1.791 16.218,0 14.009,0 C11.8,0 10.009,1.791 10.009,4 L10.009,21.528 L10.009,24.211 L10.009,26.913 L7.697,22.456 C6.665,20.384 4.512,19.446 2.471,20.291 C0.43,21.137 -0.54,23.477 0.306,25.518 L4.61,38.297 C6.489,45.044 12.663,50 20.009,50 C28.846,50 36.009,42.837 36.009,34 L36.009,8 C36.009,5.791 34.218,4 32.009,4 L32.009,4 Z M24.009,18 C24.009,16.896 24.905,16 26.009,16 C27.113,16 28.009,16.896 28.009,18 L28.009,26 C28.009,27.104 27.113,28 26.009,28 C24.905,28 24.009,27.104 24.009,26 L24.009,18 L24.009,18 Z M18.009,16 C18.009,14.896 18.905,14 20.009,14 C21.113,14 22.009,14.896 22.009,16 L22.009,26 C22.009,27.104 21.113,28 20.009,28 C18.905,28 18.009,27.104 18.009,26 L18.009,16 L18.009,16 Z M34.009,34 C34.009,41.732 27.741,48 20.009,48 C14.093,48 9.045,44.325 6.995,39.138 L6.975,39.14 L6.974,39.137 L6.995,39.128 L2.153,24.752 C1.73,23.731 2.215,22.562 3.235,22.139 C4.256,21.716 5.268,22.116 5.848,23.222 L10.096,31.41 L10.1,31.408 C10.257,31.756 10.603,32 11.009,32 C11.562,32 12.009,31.553 12.009,31 L12.009,4 C12.009,2.896 12.905,2 14.009,2 C15.113,2 16.009,2.896 16.009,4 L16.009,26 C16.009,28.209 17.8,30 20.009,30 C21.21,30 22.276,29.459 23.009,28.621 C23.742,29.459 24.808,30 26.009,30 C28.218,30 30.009,28.209 30.009,26 L30.009,8 C30.009,6.896 30.905,6 32.009,6 C33.113,6 34.009,6.896 34.009,8 L34.009,34 L34.009,34 Z" id="Shape"></path>
                </g>
            </g>
        </g>
    </g>
</svg>