<?xml version="1.0" encoding="iso-8859-1"?>
<!-- Generator: Adobe Illustrator 16.0.4, SVG Export Plug-In . SVG Version: 6.00 Build 0)  -->
<!DOCTYPE svg PUBLIC "-//W3C//DTD SVG 1.1//EN" "http://www.w3.org/Graphics/SVG/1.1/DTD/svg11.dtd">
<svg version="1.1" id="Layer_1" xmlns="http://www.w3.org/2000/svg" xmlns:xlink="http://www.w3.org/1999/xlink" x="0px" y="0px"
	 width="26px" height="36px" viewBox="0 0 26 36" style="enable-background:new 0 0 26 36;" xml:space="preserve">
<g id="_x31_116-slayer-hand_x40_2x.png">
	<g>
		<path d="M23,4c-1.657,0-3,1.343-3,3v3.184C19.686,10.072,19.353,10,19,10c-0.395,0-0.771,0.081-1.115,0.22
			C17.539,8.943,16.385,8,15,8c-0.353,0-0.686,0.072-1,0.184V3c0-1.656-1.343-3-3-3S8,1.344,8,3v15.861l-2.615-3.699L5.34,15.194
			C4.797,14.48,3.968,14,3,14c-1.657,0-3,1.343-3,3c0,0.389,0.08,0.758,0.214,1.098l-0.012,0.006l3.241,9.546
			C4.815,32.468,9.239,36,14.498,36C20.849,36,25.997,30.852,26,24.5V7C26,5.343,24.657,4,23,4z M18,13c0-0.552,0.447-1,1-1
			s1,0.448,1,1v5c0,0.553-0.447,1-1,1s-1-0.447-1-1V13z M14,15.184V13v-2c0-0.552,0.447-1,1-1s1,0.448,1,1v4.123v0.061V18
			c0,0.553-0.447,1-1,1s-1-0.447-1-1V15.184z M24,9.816v8.212V24.5c-0.002,5.247-4.255,9.5-9.502,9.5
			c-4.235,0-7.82-2.773-9.047-6.602l0.003-0.002l-0.05-0.146c-0.02-0.066-0.027-0.138-0.046-0.204l-1.924-5.622
			c-0.002,0.008-0.005,0.015-0.007,0.022l-0.495-1.453c0.005,0,0.009,0.001,0.013,0.001l-0.917-2.682l0.031-0.018
			C2.029,17.2,2,17.104,2,17c0-0.552,0.447-1,1-1c0.304,0,0.566,0.143,0.75,0.357l0.003-0.002l4.488,6.295l0.009-0.007
			C8.434,22.857,8.696,23,9,23c0.553,0,1-0.447,1-1v-5.875v-2.157V5.816V3c0-0.552,0.447-1,1-1s1,0.448,1,1v2.816V18
			c0,1.657,1.343,3,3,3c0.771,0,1.469-0.3,2-0.778C17.531,20.7,18.229,21,19,21c1.45,0,2.66-1.029,2.939-2.397
			c0.02,0.024,0.041,0.047,0.061,0.071v-2.882V9.816V7c0-0.552,0.447-1,1-1s1,0.448,1,1V9.816z"/>
	</g>
</g>
<g>
</g>
<g>
</g>
<g>
</g>
<g>
</g>
<g>
</g>
<g>
</g>
<g>
</g>
<g>
</g>
<g>
</g>
<g>
</g>
<g>
</g>
<g>
</g>
<g>
</g>
<g>
</g>
<g>
</g>
</svg>
