<?xml version="1.0" encoding="iso-8859-1"?>
<!-- Generator: Adobe Illustrator 16.0.4, SVG Export Plug-In . SVG Version: 6.00 Build 0)  -->
<!DOCTYPE svg PUBLIC "-//W3C//DTD SVG 1.1//EN" "http://www.w3.org/Graphics/SVG/1.1/DTD/svg11.dtd">
<svg version="1.1" id="Layer_1" xmlns="http://www.w3.org/2000/svg" xmlns:xlink="http://www.w3.org/1999/xlink" x="0px" y="0px"
	 width="44px" height="44px" viewBox="0 0 44 44" style="enable-background:new 0 0 44 44;" xml:space="preserve">
<g id="_x39_68-sliders-toolbar_x40_2x.png">
	<g>
		<path d="M25,24h-2V10c0-0.552-0.447-1-1-1s-1,0.448-1,1v14h-2c-1.104,0-2,0.896-2,2v2c0,1.104,0.896,2,2,2h2v4
			c0,0.553,0.447,1,1,1s1-0.447,1-1v-4h2c1.104,0,2-0.896,2-2v-2C27,24.896,26.104,24,25,24z M25,28h-6v-2h6V28z M36,18h-2v-8
			c0-0.552-0.447-1-1-1s-1,0.448-1,1v8h-2c-1.104,0-2,0.896-2,2v2c0,1.104,0.896,2,2,2h2v10c0,0.553,0.447,1,1,1s1-0.447,1-1V24h2
			c1.104,0,2-0.896,2-2v-2C38,18.896,37.104,18,36,18z M36,22h-6v-2h6V22z M14,16h-2v-6c0-0.552-0.447-1-1-1s-1,0.448-1,1v6H8
			c-1.104,0-2,0.896-2,2v2c0,1.104,0.896,2,2,2h2v12c0,0.553,0.447,1,1,1s1-0.447,1-1V22h2c1.104,0,2-0.896,2-2v-2
			C16,16.896,15.104,16,14,16z M14,20H8v-2h6V20z M40,0H4C1.791,0,0,1.791,0,4v36c0,2.209,1.791,4,4,4h36c2.209,0,4-1.791,4-4V4
			C44,1.791,42.209,0,40,0z M42,40c0,1.104-0.896,2-2,2H4c-1.104,0-2-0.896-2-2V4c0-1.104,0.896-2,2-2h36c1.104,0,2,0.896,2,2V40z"
			/>
	</g>
</g>
<g>
</g>
<g>
</g>
<g>
</g>
<g>
</g>
<g>
</g>
<g>
</g>
<g>
</g>
<g>
</g>
<g>
</g>
<g>
</g>
<g>
</g>
<g>
</g>
<g>
</g>
<g>
</g>
<g>
</g>
</svg>
