<?xml version="1.0" encoding="iso-8859-1"?>
<!-- Generator: Adobe Illustrator 16.0.4, SVG Export Plug-In . SVG Version: 6.00 Build 0)  -->
<!DOCTYPE svg PUBLIC "-//W3C//DTD SVG 1.1//EN" "http://www.w3.org/Graphics/SVG/1.1/DTD/svg11.dtd">
<svg version="1.1" id="Layer_1" xmlns="http://www.w3.org/2000/svg" xmlns:xlink="http://www.w3.org/1999/xlink" x="0px" y="0px"
	 width="44px" height="44px" viewBox="0 0 44 44" style="enable-background:new 0 0 44 44;" xml:space="preserve">
<g id="_x31_059-sliders-toolbar_x40_2x.png">
	<g>
		<path d="M43,21H16v-2c0-1.104-0.896-2-2-2h-2c-1.104,0-2,0.896-2,2v2H1c-0.553,0-1,0.447-1,1s0.447,1,1,1h9v2c0,1.104,0.896,2,2,2
			h2c1.104,0,2-0.896,2-2v-2h27c0.552,0,1-0.447,1-1S43.552,21,43,21z M14,25h-2v-6h2V25z M1,6h29v2c0,1.104,0.896,2,2,2h2
			c1.104,0,2-0.896,2-2V6h7c0.552,0,1-0.447,1-1s-0.448-1-1-1h-7V2c0-1.104-0.896-2-2-2h-2c-1.104,0-2,0.896-2,2v2H1
			C0.447,4,0,4.447,0,5S0.447,6,1,6z M32,2h2v6h-2V2z M43,38H30v-2c0-1.104-0.896-2-2-2h-2c-1.104,0-2,0.896-2,2v2H1
			c-0.553,0-1,0.447-1,1s0.447,1,1,1h23v2c0,1.104,0.896,2,2,2h2c1.104,0,2-0.896,2-2v-2h13c0.552,0,1-0.447,1-1S43.552,38,43,38z
			 M28,42h-2v-6h2V42z"/>
	</g>
</g>
<g>
</g>
<g>
</g>
<g>
</g>
<g>
</g>
<g>
</g>
<g>
</g>
<g>
</g>
<g>
</g>
<g>
</g>
<g>
</g>
<g>
</g>
<g>
</g>
<g>
</g>
<g>
</g>
<g>
</g>
</svg>
