<?xml version="1.0" encoding="iso-8859-1"?>
<!-- Generator: Adobe Illustrator 16.0.4, SVG Export Plug-In . SVG Version: 6.00 Build 0)  -->
<!DOCTYPE svg PUBLIC "-//W3C//DTD SVG 1.1//EN" "http://www.w3.org/Graphics/SVG/1.1/DTD/svg11.dtd">
<svg version="1.1" id="Layer_1" xmlns="http://www.w3.org/2000/svg" xmlns:xlink="http://www.w3.org/1999/xlink" x="0px" y="0px"
	 width="56px" height="56px" viewBox="0 0 56 56" style="enable-background:new 0 0 56 56;" xml:space="preserve">
<g id="_x31_059-sliders_x40_2x.png">
	<g>
		<path d="M1,8h40v4c0,1.104,0.896,2,2,2h2c1.104,0,2-0.896,2-2V8h8c0.553,0,1-0.447,1-1s-0.447-1-1-1h-8V2c0-1.104-0.896-2-2-2h-2
			c-1.104,0-2,0.896-2,2v4H1C0.447,6,0,6.447,0,7S0.447,8,1,8z M43,2h2v10h-2V2z M55,27H15v-4c0-1.104-0.896-2-2-2h-2
			c-1.104,0-2,0.896-2,2v4H1c-0.553,0-1,0.448-1,1c0,0.553,0.447,1,1,1h8v4c0,1.104,0.896,2,2,2h2c1.104,0,2-0.896,2-2v-4h40
			c0.553,0,1-0.447,1-1C56,27.448,55.553,27,55,27z M13,33h-2V23h2V33z M55,48H35v-4c0-1.104-0.896-2-2-2h-2c-1.104,0-2,0.896-2,2v4
			H1c-0.553,0-1,0.447-1,1s0.447,1,1,1h28v4c0,1.104,0.896,2,2,2h2c1.104,0,2-0.896,2-2v-4h20c0.553,0,1-0.447,1-1S55.553,48,55,48z
			 M33,54h-2V44h2V54z"/>
	</g>
</g>
<g>
</g>
<g>
</g>
<g>
</g>
<g>
</g>
<g>
</g>
<g>
</g>
<g>
</g>
<g>
</g>
<g>
</g>
<g>
</g>
<g>
</g>
<g>
</g>
<g>
</g>
<g>
</g>
<g>
</g>
</svg>
