<?xml version="1.0" encoding="iso-8859-1"?>
<!-- Generator: Adobe Illustrator 16.0.4, SVG Export Plug-In . SVG Version: 6.00 Build 0)  -->
<!DOCTYPE svg PUBLIC "-//W3C//DTD SVG 1.1//EN" "http://www.w3.org/Graphics/SVG/1.1/DTD/svg11.dtd">
<svg version="1.1" id="Layer_1" xmlns="http://www.w3.org/2000/svg" xmlns:xlink="http://www.w3.org/1999/xlink" x="0px" y="0px"
	 width="56px" height="56px" viewBox="0 0 56 56" style="enable-background:new 0 0 56 56;" xml:space="preserve">
<g id="_x39_68-sliders_x40_2x.png">
	<g>
		<path d="M32,32h-3V10c0-0.552-0.447-1-1-1s-1,0.448-1,1v22h-3c-1.104,0-2,0.896-2,2v2c0,1.104,0.896,2,2,2h3v8
			c0,0.553,0.447,1,1,1s1-0.447,1-1v-8h3c1.104,0,2-0.896,2-2v-2C34,32.896,33.104,32,32,32z M32,36h-8v-2h8V36z M17,18h-3v-8
			c0-0.552-0.447-1-1-1s-1,0.448-1,1v8H9c-1.104,0-2,0.896-2,2v2c0,1.104,0.896,2,2,2h3v22c0,0.553,0.447,1,1,1s1-0.447,1-1V24h3
			c1.104,0,2-0.896,2-2v-2C19,18.896,18.104,18,17,18z M17,22H9v-2h8V22z M47,22h-3V10c0-0.552-0.447-1-1-1s-1,0.448-1,1v12h-3
			c-1.104,0-2,0.896-2,2v2c0,1.104,0.896,2,2,2h3v18c0,0.553,0.447,1,1,1s1-0.447,1-1V28h3c1.104,0,2-0.896,2-2v-2
			C49,22.896,48.104,22,47,22z M47,26h-8v-2h8V26z M52,0H4C1.791,0,0,1.791,0,4v48c0,2.209,1.791,4,4,4h48c2.209,0,4-1.791,4-4V4
			C56,1.791,54.209,0,52,0z M54,52c0,1.104-0.896,2-2,2H4c-1.104,0-2-0.896-2-2V4c0-1.104,0.896-2,2-2h48c1.104,0,2,0.896,2,2V52z"
			/>
	</g>
</g>
<g>
</g>
<g>
</g>
<g>
</g>
<g>
</g>
<g>
</g>
<g>
</g>
<g>
</g>
<g>
</g>
<g>
</g>
<g>
</g>
<g>
</g>
<g>
</g>
<g>
</g>
<g>
</g>
<g>
</g>
</svg>
