<?xml version="1.0" encoding="iso-8859-1"?>
<!-- Generator: Adobe Illustrator 16.0.4, SVG Export Plug-In . SVG Version: 6.00 Build 0)  -->
<!DOCTYPE svg PUBLIC "-//W3C//DTD SVG 1.1//EN" "http://www.w3.org/Graphics/SVG/1.1/DTD/svg11.dtd">
<svg version="1.1" id="Layer_1" xmlns="http://www.w3.org/2000/svg" xmlns:xlink="http://www.w3.org/1999/xlink" x="0px" y="0px"
	 width="36.031px" height="44px" viewBox="0 0 36.031 44" style="enable-background:new 0 0 36.031 44;" xml:space="preserve">
<g id="_x38_77-slingshot-toolbar_x40_2x.png">
	<g>
		<path d="M35.031,6h-0.336c0.212-0.968,0.336-1.969,0.336-3c0-1.656-1.343-3-3-3s-3,1.344-3,3c0,1.062-0.211,2.073-0.587,3h-0.413
			c-0.553,0-1,0.448-1,1c0,0.324,0.164,0.599,0.403,0.781C25.976,9.732,23.654,11,21.031,11s-4.944-1.268-6.403-3.219
			C14.867,7.599,15.031,7.324,15.031,7c0-0.552-0.447-1-1-1h-0.413c-0.376-0.927-0.587-1.938-0.587-3c0-1.656-1.343-3-3-3
			s-3,1.344-3,3c0,1.031,0.124,2.032,0.336,3H7.031c-0.553,0-1,0.448-1,1c0,0.409,0.247,0.759,0.6,0.914C3.646,10.829,0,14.785,0,21
			c0,12.7,12.707,14.965,12.836,14.986C12.891,35.996,12.947,36,13.001,36c0.48,0,0.904-0.347,0.985-0.836
			c0.091-0.544-0.277-1.06-0.821-1.15C12.709,33.938,2,32.026,2,21c0-5.656,3.482-9.191,6.406-12.023
			c1.824,3.841,5.32,6.733,9.572,7.68L16.031,41c0,1.657,2.238,3,5,3s5-1.343,5-3l-1.947-24.344
			c3.805-0.848,7.002-3.257,8.943-6.504c-0.032,10.604-0.399,16.69-4.621,20.066c-0.431,0.346-0.501,0.975-0.156,1.406
			C28.448,31.872,28.738,32,29.032,32c0.219,0,0.439-0.071,0.624-0.219C34.892,27.592,35.027,20.565,35.031,8c0.553,0,1-0.447,1-1
			C36.031,6.448,35.584,6,35.031,6z M9.031,3c0-0.553,0.447-1,1-1s1,0.447,1,1c0,1.046,0.162,2.053,0.459,3H9.425
			C9.177,5.04,9.031,4.038,9.031,3z M21.031,42c-1.657,0-3-0.447-3-1l1.925-24.055C20.312,16.973,20.668,17,21.031,17
			s0.72-0.027,1.076-0.055L24.031,41C24.031,41.553,22.688,42,21.031,42z M21.031,15c-4.841,0-9.001-2.872-10.898-7h2.247
			c1.729,2.986,4.952,5,8.651,5s6.922-2.014,8.651-5h2.247C30.032,12.128,25.872,15,21.031,15z M32.638,6h-2.065
			c0.297-0.947,0.459-1.954,0.459-3c0-0.553,0.447-1,1-1s1,0.447,1,1C33.031,4.038,32.886,5.04,32.638,6z"/>
	</g>
</g>
<g>
</g>
<g>
</g>
<g>
</g>
<g>
</g>
<g>
</g>
<g>
</g>
<g>
</g>
<g>
</g>
<g>
</g>
<g>
</g>
<g>
</g>
<g>
</g>
<g>
</g>
<g>
</g>
<g>
</g>
</svg>
