<?xml version="1.0" encoding="iso-8859-1"?>
<!-- Generator: Adobe Illustrator 16.0.4, SVG Export Plug-In . SVG Version: 6.00 Build 0)  -->
<!DOCTYPE svg PUBLIC "-//W3C//DTD SVG 1.1//EN" "http://www.w3.org/Graphics/SVG/1.1/DTD/svg11.dtd">
<svg version="1.1" id="Layer_1" xmlns="http://www.w3.org/2000/svg" xmlns:xlink="http://www.w3.org/1999/xlink" x="0px" y="0px"
	 width="44px" height="56px" viewBox="0 0 44 56" style="enable-background:new 0 0 44 56;" xml:space="preserve">
<g id="_x38_77-slingshot_x40_2x.png">
	<g>
		<path d="M43,9h-0.933C42.664,7.113,43,5.1,43,3c0-1.656-1.343-3-3-3s-3,1.344-3,3c0,2.166-0.496,4.204-1.361,6H35
			c-0.553,0-1,0.447-1,1c0,0.382,0.221,0.702,0.535,0.871C32.343,13.983,28.893,16,25,16s-7.343-2.017-9.535-5.129
			C15.779,10.702,16,10.382,16,10c0-0.553-0.447-1-1-1h-0.639C13.496,7.204,13,5.166,13,3c0-1.656-1.343-3-3-3S7,1.344,7,3
			c0,2.103,0.349,4.112,0.948,6H7c-0.553,0-1,0.447-1,1c0,0.427,0.269,0.784,0.645,0.928C2.735,14.38,0,21.727,0,29.497
			c0,12.7,12.707,14.965,12.836,14.986l0.004-0.021c0.012,0,0.022,0.007,0.035,0.007c0.553,0,1-0.447,1-1
			c0-0.45-0.304-0.817-0.714-0.942l0.003-0.016C12.709,42.435,2,40.523,2,29.497c0-8.386,3.339-15.523,6.998-17.833
			c2.385,4.886,6.708,8.544,11.907,9.823L19,52c0,2.209,2.687,4,6,4s6-1.791,6-4l-1.905-30.513C33.628,20.372,37.5,17.451,40,13.484
			c0,2.451,0,6.153,0,11.013c0,9.294-5.331,13.017-5.555,13.168l0.017,0.025c-0.237,0.183-0.399,0.456-0.399,0.778
			c0,0.553,0.447,1,1,1c0.181,0,0.342-0.062,0.488-0.146l0.004,0.006c0.021-0.014,0.09-0.063,0.18-0.129
			c0.012-0.012,0.027-0.019,0.039-0.03C36.892,38.33,42,33.977,42,24.497c0-6.628,0-11.121,0-13.497h1c0.553,0,1-0.447,1-1
			S43.553,9,43,9z M10.304,8.985C10.287,8.989,10.271,8.996,10.254,9h-0.207C9.382,7.132,9,5.115,9,3c0-0.552,0.447-1,1-1
			s1,0.448,1,1c0,2.135,0.423,4.162,1.173,6h-1.866L10.304,8.985z M25,54c-2.209,0-4-0.896-4-2l1.886-30.143
			C23.58,21.943,24.283,22,25,22s1.42-0.057,2.114-0.143L29,52C29,53.104,27.209,54,25,54z M25,20c-6.109,0-11.396-3.651-14.09-9
			h2.262c2.48,4.202,6.845,7,11.828,7s9.348-2.798,11.828-7h2.287C36.422,16.354,31.113,20,25,20z M39.955,9h-2.128
			C38.577,7.162,39,5.135,39,3c0-0.552,0.447-1,1-1s1,0.448,1,1C41,5.115,40.62,7.132,39.955,9z"/>
	</g>
</g>
<g>
</g>
<g>
</g>
<g>
</g>
<g>
</g>
<g>
</g>
<g>
</g>
<g>
</g>
<g>
</g>
<g>
</g>
<g>
</g>
<g>
</g>
<g>
</g>
<g>
</g>
<g>
</g>
<g>
</g>
</svg>
