<?xml version="1.0" encoding="UTF-8" standalone="no"?>
<svg width="58px" height="58px" viewBox="0 0 58 58" version="1.1" xmlns="http://www.w3.org/2000/svg" xmlns:xlink="http://www.w3.org/1999/xlink" xmlns:sketch="http://www.bohemiancoding.com/sketch/ns">
    <!-- Generator: Sketch 3.0.4 (8053) - http://www.bohemiancoding.com/sketch -->
    <title>1249-slowmo</title>
    <desc>Created with Sketch.</desc>
    <defs></defs>
    <g id="Page-1" stroke="none" stroke-width="1" fill="none" fill-rule="evenodd" sketch:type="MSPage">
        <g id="Glyphish-8-Icons" sketch:type="MSArtboardGroup" transform="translate(-788.000000, -1363.000000)" fill="#000000">
            <g id="1249-slowmo" sketch:type="MSLayerGroup" transform="translate(788.036996, 1363.860499)">
                <g id="_x31_249-slowmo_x40_2x.png" sketch:type="MSShapeGroup">
                    <path d="M23,16 L23,16 L17.001,16 L17,16 C16.447,16 16,16.447 16,17 L16,39 C16,39.553 16.447,40 17,40 L23,40 C23.553,40 24,39.553 24,39 L24,17 C24,16.447 23.553,16 23,16 L23,16 Z M28,0 C12.536,0 0,12.536 0,28 C0,43.464 12.536,56 28,56 C43.464,56 56,43.464 56,28 C56,12.536 43.464,0 28,0 L28,0 Z M28,54 C13.641,54 2,42.359 2,28 C2,13.641 13.641,2 28,2 C42.359,2 54,13.641 54,28 C54,42.359 42.359,54 28,54 L28,54 Z M43.621,27.235 L43.631,27.224 L27.631,16.224 L27.621,16.235 C27.449,16.096 27.239,16 27,16 C26.447,16 26,16.447 26,17 L26,39 C26,39.553 26.448,40 27,40 C27.239,40 27.449,39.904 27.621,39.765 L27.631,39.777 L43.631,28.777 L43.621,28.765 C43.847,28.582 44,28.313 44,28 C44,27.687 43.847,27.419 43.621,27.235 L43.621,27.235 Z" id="Shape"></path>
                </g>
            </g>
        </g>
    </g>
</svg>