<?xml version="1.0" encoding="iso-8859-1"?>
<!-- Generator: Adobe Illustrator 16.0.4, SVG Export Plug-In . SVG Version: 6.00 Build 0)  -->
<!DOCTYPE svg PUBLIC "-//W3C//DTD SVG 1.1//EN" "http://www.w3.org/Graphics/SVG/1.1/DTD/svg11.dtd">
<svg version="1.1" id="Layer_1" xmlns="http://www.w3.org/2000/svg" xmlns:xlink="http://www.w3.org/1999/xlink" x="0px" y="0px"
	 width="44px" height="44px" viewBox="0 0 44 44" style="enable-background:new 0 0 44 44;" xml:space="preserve">
<g id="_x31_249-slowmo_x40_2x.png">
	<g>
		<path d="M19,12h-4c-0.553,0-1,0.448-1,1v18c0,0.553,0.447,1,1,1h4c0.553,0,1-0.447,1-1V13C20,12.448,19.553,12,19,12z M22,0
			C9.85,0,0,9.85,0,22s9.85,22,22,22s22-9.85,22-22S34.15,0,22,0z M22,42C10.954,42,2,33.046,2,22S10.954,2,22,2s20,8.954,20,20
			S33.046,42,22,42z M34.736,21.337l0.007-0.006l-0.023-0.02c-0.021-0.022-0.048-0.038-0.071-0.058l-10.905-8.923l-0.007,0.006
			C23.554,12.134,23.295,12,23,12c-0.553,0-1,0.448-1,1v18c0,0.553,0.447,1,1,1c0.295,0,0.554-0.133,0.736-0.337l0.007,0.006
			l10.904-8.922c0.024-0.021,0.051-0.036,0.072-0.059l0.023-0.02l-0.007-0.006C34.896,22.486,35,22.257,35,22
			S34.896,21.514,34.736,21.337z"/>
	</g>
</g>
<g>
</g>
<g>
</g>
<g>
</g>
<g>
</g>
<g>
</g>
<g>
</g>
<g>
</g>
<g>
</g>
<g>
</g>
<g>
</g>
<g>
</g>
<g>
</g>
<g>
</g>
<g>
</g>
<g>
</g>
</svg>
