<?xml version="1.0" encoding="iso-8859-1"?>
<!-- Generator: Adobe Illustrator 16.0.4, SVG Export Plug-In . SVG Version: 6.00 Build 0)  -->
<!DOCTYPE svg PUBLIC "-//W3C//DTD SVG 1.1//EN" "http://www.w3.org/Graphics/SVG/1.1/DTD/svg11.dtd">
<svg version="1.1" id="Layer_1" xmlns="http://www.w3.org/2000/svg" xmlns:xlink="http://www.w3.org/1999/xlink" x="0px" y="0px"
	 width="44px" height="44px" viewBox="0 0 44 44" style="enable-background:new 0 0 44 44;" xml:space="preserve">
<g id="_x38_70-smile-toolbar_x40_2x.png">
	<g>
		<path d="M30,14c-2.209,0-4,1.791-4,4s1.791,4,4,4s4-1.791,4-4S32.209,14,30,14z M30,20c-1.104,0-2-0.896-2-2s0.896-2,2-2
			s2,0.896,2,2S31.104,20,30,20z M18,18c0-2.209-1.791-4-4-4s-4,1.791-4,4s1.791,4,4,4S18,20.209,18,18z M12,18c0-1.104,0.896-2,2-2
			s2,0.896,2,2s-0.896,2-2,2S12,19.104,12,18z M25.143,0h-6.285C4.714,0,0,4.715,0,18.857v6.286C0,39.286,4.714,44,18.857,44h6.285
			C39.286,44,44,39.286,44,25.144v-6.286C44,4.715,39.286,0,25.143,0z M42,25.144C42,38.219,38.219,42,25.143,42h-6.285
			C5.781,42,2,38.219,2,25.144v-6.286C2,5.781,5.781,2,18.857,2h6.285C38.219,2,42,5.781,42,18.857V25.144z M31,28
			c-0.187,0-0.352,0.065-0.501,0.154l-0.013-0.021C30.438,28.162,27,30.991,22,30.991s-8.438-2.829-8.486-2.857l-0.012,0.021
			C13.352,28.065,13.187,28,13,28c-0.553,0-1,0.447-1,1c0,0.362,0.202,0.665,0.49,0.841l-0.005,0.008
			C12.699,29.977,16,32.991,22,32.991s9.301-3.015,9.515-3.143l-0.005-0.008C31.798,29.665,32,29.362,32,29
			C32,28.447,31.553,28,31,28z"/>
	</g>
</g>
<g>
</g>
<g>
</g>
<g>
</g>
<g>
</g>
<g>
</g>
<g>
</g>
<g>
</g>
<g>
</g>
<g>
</g>
<g>
</g>
<g>
</g>
<g>
</g>
<g>
</g>
<g>
</g>
<g>
</g>
</svg>
