<?xml version="1.0" encoding="iso-8859-1"?>
<!-- Generator: Adobe Illustrator 16.0.4, SVG Export Plug-In . SVG Version: 6.00 Build 0)  -->
<!DOCTYPE svg PUBLIC "-//W3C//DTD SVG 1.1//EN" "http://www.w3.org/Graphics/SVG/1.1/DTD/svg11.dtd">
<svg version="1.1" id="Layer_1" xmlns="http://www.w3.org/2000/svg" xmlns:xlink="http://www.w3.org/1999/xlink" x="0px" y="0px"
	 width="56px" height="56px" viewBox="0 0 56 56" style="enable-background:new 0 0 56 56;" xml:space="preserve">
<g id="_x38_70-smile_x40_2x.png">
	<g>
		<path d="M22,22c0-2.209-1.791-4-4-4s-4,1.791-4,4s1.791,4,4,4S22,24.209,22,22z M16,22c0-1.104,0.896-2,2-2s2,0.896,2,2
			s-0.896,2-2,2S16,23.104,16,22z M32,0h-8C6,0,0,6,0,24v8c0,18,6,24,24,24h8c18,0,24-6,24-24v-8C56,6,50,0,32,0z M54,31.715
			C54,48.429,48.429,54,31.715,54h-7.429C7.571,54,2,48.429,2,31.715v-7.429C2,7.571,7.571,2,24.286,2h7.429
			C48.429,2,54,7.571,54,24.286V31.715z M39,36c-0.187,0-0.352,0.065-0.501,0.154l-0.013-0.021C38.438,36.162,35,39,28,38.991
			s-10.438-2.829-10.486-2.857l-0.012,0.021C17.352,36.065,17.187,36,17,36c-0.553,0-1,0.447-1,1c0,0.362,0.202,0.665,0.49,0.84
			l-0.005,0.009C16.699,37.977,20,40.982,28,40.991s11.301-3.015,11.515-3.143L39.51,37.84C39.798,37.665,40,37.362,40,37
			C40,36.447,39.553,36,39,36z M38,18c-2.209,0-4,1.791-4,4s1.791,4,4,4s4-1.791,4-4S40.209,18,38,18z M38,24c-1.104,0-2-0.896-2-2
			s0.896-2,2-2s2,0.896,2,2S39.104,24,38,24z"/>
	</g>
</g>
<g>
</g>
<g>
</g>
<g>
</g>
<g>
</g>
<g>
</g>
<g>
</g>
<g>
</g>
<g>
</g>
<g>
</g>
<g>
</g>
<g>
</g>
<g>
</g>
<g>
</g>
<g>
</g>
<g>
</g>
</svg>
