<?xml version="1.0" encoding="iso-8859-1"?>
<!-- Generator: Adobe Illustrator 16.0.4, SVG Export Plug-In . SVG Version: 6.00 Build 0)  -->
<!DOCTYPE svg PUBLIC "-//W3C//DTD SVG 1.1//EN" "http://www.w3.org/Graphics/SVG/1.1/DTD/svg11.dtd">
<svg version="1.1" id="Layer_1" xmlns="http://www.w3.org/2000/svg" xmlns:xlink="http://www.w3.org/1999/xlink" x="0px" y="0px"
	 width="56px" height="56px" viewBox="0 0 56 56" style="enable-background:new 0 0 56 56;" xml:space="preserve">
<g id="_x38_66-snow-cloud_x40_2x.png">
	<g>
		<path d="M32,42h-1.586l1.121-1.121c0.391-0.391,0.391-1.023,0-1.414s-1.023-0.391-1.414,0L29,40.586V39c0-0.553-0.447-1-1-1
			s-1,0.447-1,1v1.586l-1.121-1.121c-0.391-0.391-1.023-0.391-1.414,0s-0.391,1.023,0,1.414L25.586,42H24c-0.553,0-1,0.448-1,1
			c0,0.553,0.447,1,1,1h1.586l-1.121,1.121c-0.391,0.391-0.391,1.023,0,1.415c0.391,0.39,1.023,0.39,1.414,0L27,45.414V47
			c0,0.553,0.447,1,1,1s1-0.447,1-1v-1.586l1.121,1.122c0.391,0.39,1.023,0.39,1.414,0c0.391-0.392,0.391-1.024,0-1.415L30.414,44
			H32c0.553,0,1-0.447,1-1C33,42.448,32.553,42,32,42z M21,50h-1.586l1.121-1.121c0.391-0.391,0.391-1.023,0-1.414
			s-1.023-0.391-1.414,0L18,48.586V47c0-0.553-0.447-1-1-1s-1,0.447-1,1v1.586l-1.121-1.121c-0.391-0.391-1.023-0.391-1.414,0
			s-0.391,1.023,0,1.414L14.586,50H13c-0.553,0-1,0.448-1,1c0,0.553,0.447,1,1,1h1.586l-1.121,1.121
			c-0.391,0.391-0.391,1.023,0,1.415c0.391,0.39,1.023,0.39,1.414,0L16,53.414V55c0,0.553,0.447,1,1,1s1-0.447,1-1v-1.586
			l1.121,1.122c0.391,0.39,1.023,0.39,1.414,0c0.391-0.392,0.391-1.024,0-1.415L19.414,52H21c0.553,0,1-0.447,1-1
			C22,50.448,21.553,50,21,50z M43,48h-1.586l1.121-1.121c0.391-0.391,0.391-1.023,0-1.414s-1.023-0.391-1.414,0L40,46.586V45
			c0-0.553-0.447-1-1-1s-1,0.447-1,1v1.586l-1.121-1.121c-0.391-0.391-1.023-0.391-1.414,0s-0.391,1.023,0,1.414L36.586,48H35
			c-0.553,0-1,0.448-1,1c0,0.553,0.447,1,1,1h1.586l-1.121,1.121c-0.391,0.391-0.391,1.024,0,1.414c0.391,0.391,1.023,0.391,1.414,0
			L38,51.414V53c0,0.553,0.447,1,1,1s1-0.447,1-1v-1.586l1.121,1.121c0.391,0.391,1.023,0.391,1.414,0
			c0.391-0.39,0.391-1.023,0-1.414L41.414,50H43c0.553,0,1-0.447,1-1C44,48.448,43.553,48,43,48z M38,8c-1.959-4.697-6.593-8-12-8
			c-7.18,0-13,5.82-13,13c0,1.046,0.137,2.058,0.37,3.032C5.933,16.364,0,22.48,0,30c0,7.732,6.268,14,14,14h6c0.553,0,1-0.447,1-1
			c0-0.552-0.447-1-1-1h-6C7.373,42,2,36.627,2,30s5.373-12,12-12c0.805,0,1.589,0.082,2.35,0.233C15.5,16.676,15,14.9,15,13
			c0-6.075,4.925-11,11-11c5.06,0,9.31,3.42,10.594,8.071C37.058,10.03,37.525,10,38,10c8.837,0,16,7.163,16,16s-7.163,16-16,16h-2
			c-0.553,0-1,0.448-1,1c0,0.553,0.447,1,1,1h2c9.941,0,18-8.059,18-18S47.941,8,38,8z"/>
	</g>
</g>
<g>
</g>
<g>
</g>
<g>
</g>
<g>
</g>
<g>
</g>
<g>
</g>
<g>
</g>
<g>
</g>
<g>
</g>
<g>
</g>
<g>
</g>
<g>
</g>
<g>
</g>
<g>
</g>
<g>
</g>
</svg>
