<?xml version="1.0" encoding="iso-8859-1"?>
<!-- Generator: Adobe Illustrator 16.0.4, SVG Export Plug-In . SVG Version: 6.00 Build 0)  -->
<!DOCTYPE svg PUBLIC "-//W3C//DTD SVG 1.1//EN" "http://www.w3.org/Graphics/SVG/1.1/DTD/svg11.dtd">
<svg version="1.1" id="Layer_1" xmlns="http://www.w3.org/2000/svg" xmlns:xlink="http://www.w3.org/1999/xlink" x="0px" y="0px"
	 width="44px" height="44px" viewBox="0 0 44 44" style="enable-background:new 0 0 44 44;" xml:space="preserve">
<g id="_x31_087-soccer-ball-toolbar_x40_2x.png">
	<g>
		<path d="M22,0C9.85,0,0,9.85,0,22s9.85,22,22,22s22-9.85,22-22S34.15,0,22,0z M23,7.234l4.885-4.342
			c4.281,1.316,7.939,4.039,10.462,7.622l-2.651,6.104l-6.612,1.983L23,13.195V7.234z M15.7,3.037l5.3,4.24v5.874l-6.841,5.473
			l-5.826-1.942l-2.68-6.167C8.093,7.05,11.599,4.4,15.7,3.037z M6.12,34.11c-2.486-3.256-3.996-7.289-4.09-11.68l5.735-3.829
			l5.789,1.93l2.024,8.096l-3.025,4.504L6.12,34.11z M27.117,41.306c-1.636,0.433-3.345,0.686-5.117,0.686
			c-1.865,0-3.663-0.274-5.376-0.752l-2.352-7.083l2.889-4.299h8.865l3.306,4.919L27.117,41.306z M30.626,33.006l-0.002,0.012
			c-0.021-0.004-0.042,0.005-0.063,0.004l-2.933-4.365l2.035-8.141l6.513-1.954l5.794,3.869c-0.094,4.382-1.597,8.406-4.075,11.659
			L30.626,33.006z"/>
	</g>
</g>
<g>
</g>
<g>
</g>
<g>
</g>
<g>
</g>
<g>
</g>
<g>
</g>
<g>
</g>
<g>
</g>
<g>
</g>
<g>
</g>
<g>
</g>
<g>
</g>
<g>
</g>
<g>
</g>
<g>
</g>
</svg>
