<?xml version="1.0" encoding="iso-8859-1"?>
<!-- Generator: Adobe Illustrator 16.0.4, SVG Export Plug-In . SVG Version: 6.00 Build 0)  -->
<!DOCTYPE svg PUBLIC "-//W3C//DTD SVG 1.1//EN" "http://www.w3.org/Graphics/SVG/1.1/DTD/svg11.dtd">
<svg version="1.1" id="Layer_1" xmlns="http://www.w3.org/2000/svg" xmlns:xlink="http://www.w3.org/1999/xlink" x="0px" y="0px"
	 width="56px" height="56px" viewBox="0 0 56 56" style="enable-background:new 0 0 56 56;" xml:space="preserve">
<g id="_x31_087-soccer-ball_x40_2x.png">
	<g>
		<path d="M28,0C12.536,0,0,12.536,0,28s12.536,28,28,28s28-12.536,28-28S43.464,0,28,0z M29,9.449l6.968-6.193
			c0.081,0.025,0.157,0.06,0.237,0.086c1.088,0.364,2.142,0.803,3.16,1.301c0.18,0.088,0.363,0.169,0.541,0.261
			c0.478,0.248,0.942,0.516,1.402,0.791c0.163,0.098,0.326,0.194,0.486,0.296c0.476,0.299,0.941,0.61,1.395,0.938
			c0.102,0.073,0.2,0.15,0.301,0.225c2.129,1.588,4.012,3.487,5.568,5.641c0.001,0,0.001,0.001,0.001,0.001l-3.768,8.674
			l-8.045,2.413L29,16.551V9.449z M6.941,12.793c1.521-2.102,3.35-3.963,5.416-5.525c0.071-0.054,0.142-0.107,0.213-0.159
			c0.488-0.362,0.987-0.71,1.5-1.037c0.026-0.017,0.054-0.031,0.079-0.048c1.535-0.971,3.184-1.776,4.913-2.413
			c0.137-0.05,0.273-0.103,0.411-0.15L27,9.48v7.039l-9.2,7.359l-7.067-2.355L6.94,12.795C6.94,12.794,6.941,12.793,6.941,12.793z
			 M7.167,43.508c-1.504-2.017-2.718-4.259-3.591-6.664c-0.025-0.068-0.051-0.137-0.075-0.205c-0.199-0.563-0.38-1.136-0.54-1.717
			c-0.022-0.079-0.041-0.16-0.062-0.239c-0.463-1.74-0.745-3.553-0.835-5.418c-0.006-0.119-0.015-0.237-0.019-0.357l8.162-5.45
			l6.955,2.318l2.761,11.041L16.4,42.102L7.167,43.508z M34.3,53.199c-0.757,0.188-1.529,0.338-2.309,0.463
			c-0.303,0.047-0.603,0.103-0.908,0.139c-0.297,0.037-0.597,0.062-0.896,0.089C29.464,53.95,28.738,54,28,54
			c-0.743,0-1.475-0.05-2.202-0.111c-0.318-0.028-0.637-0.059-0.952-0.099c-0.298-0.036-0.591-0.089-0.886-0.135
			c-0.878-0.144-1.745-0.318-2.594-0.542l-3.294-9.923l3.46-5.19h11.936l3.968,5.952L34.3,53.199z M53.105,34.663
			c-0.021,0.083-0.041,0.168-0.064,0.251c-0.159,0.579-0.339,1.149-0.537,1.711c-0.023,0.067-0.049,0.135-0.073,0.202
			c-0.869,2.4-2.078,4.639-3.576,6.652l-9.876-1.472l-0.002,0.015c-0.137-0.021-0.276-0.008-0.413,0.024l-3.487-5.23l2.756-11.021
			l7.908-2.373l8.214,5.485c-0.004,0.121-0.013,0.241-0.019,0.361C53.846,31.125,53.565,32.93,53.105,34.663z"/>
	</g>
</g>
<g>
</g>
<g>
</g>
<g>
</g>
<g>
</g>
<g>
</g>
<g>
</g>
<g>
</g>
<g>
</g>
<g>
</g>
<g>
</g>
<g>
</g>
<g>
</g>
<g>
</g>
<g>
</g>
<g>
</g>
</svg>
