<?xml version="1.0" encoding="iso-8859-1"?>
<!-- Generator: Adobe Illustrator 16.0.4, SVG Export Plug-In . SVG Version: 6.00 Build 0)  -->
<!DOCTYPE svg PUBLIC "-//W3C//DTD SVG 1.1//EN" "http://www.w3.org/Graphics/SVG/1.1/DTD/svg11.dtd">
<svg version="1.1" id="Layer_1" xmlns="http://www.w3.org/2000/svg" xmlns:xlink="http://www.w3.org/1999/xlink" x="0px" y="0px"
	 width="28px" height="44px" viewBox="0 0 28 44" style="enable-background:new 0 0 28 44;" xml:space="preserve">
<g id="_x31_139-sock_x40_2x.png">
	<g>
		<path d="M24.437,29.345L24.437,29.345L16,23.719V3V2c0-1.104-0.896-2-2-2h-1H3H2C0.896,0,0,0.896,0,2v1v25
			c0,2.776,1.416,5.221,3.562,6.655v0.001l11.953,7.97c0.009,0.006,0.018,0.011,0.026,0.017l0.021,0.014v-0.001
			C16.833,43.504,18.358,44,20,44c4.418,0,8-3.582,8-8C28,33.224,26.585,30.779,24.437,29.345z M2,3V2h1h10h1v1v3H2V3z M2,8h12v2H2
			V8z M7.304,34.747l-2.632-1.755l0.001-0.002C3.062,31.914,2,30.082,2,28v-2c3.313,0,6,2.687,6,6
			C8,32.997,7.739,33.924,7.304,34.747z M20,42c-1.231,0-2.374-0.373-3.327-1.01l-0.001,0.002l-7.689-5.126
			C9.622,34.719,10,33.407,10,32c0-4.418-3.582-8-8-8v-1.279V14v-2h12v2v8.386v2.403l9.328,6.219l-0.001,0.002
			C24.938,32.086,26,33.918,26,36C26,39.313,23.313,42,20,42z"/>
	</g>
</g>
<g>
</g>
<g>
</g>
<g>
</g>
<g>
</g>
<g>
</g>
<g>
</g>
<g>
</g>
<g>
</g>
<g>
</g>
<g>
</g>
<g>
</g>
<g>
</g>
<g>
</g>
<g>
</g>
<g>
</g>
</svg>
