<?xml version="1.0" encoding="iso-8859-1"?>
<!-- Generator: Adobe Illustrator 16.0.4, SVG Export Plug-In . SVG Version: 6.00 Build 0)  -->
<!DOCTYPE svg PUBLIC "-//W3C//DTD SVG 1.1//EN" "http://www.w3.org/Graphics/SVG/1.1/DTD/svg11.dtd">
<svg version="1.1" id="Layer_1" xmlns="http://www.w3.org/2000/svg" xmlns:xlink="http://www.w3.org/1999/xlink" x="0px" y="0px"
	 width="31.984px" height="44px" viewBox="0 0 31.984 44" style="enable-background:new 0 0 31.984 44;" xml:space="preserve">
<g id="_x39_83-sock-toolbar_x40_2x.png">
	<g>
		<path d="M27.644,27.878l0.003-0.006l-9.656-5.55L18,1c0,0,0.016-1-0.984-1S2,0,1,0S0,1,0,1l0.016,31
			c0,0.624,0.727,0.962,0.727,0.962l18.104,9.88c0,0,1.651,1.158,4.4,1.158c4.86,0,8.737-3.869,8.737-8.643
			C31.984,32.158,30.273,29.373,27.644,27.878z M2,2h14.016l0.001,4H1.998L2,2z M1.997,8h14.021v2H1.996L1.997,8z M5.947,33.541
			l-3.962-2.162L1.986,28.1C4.275,28.558,6,30.576,6,33C6,33.186,5.97,33.361,5.947,33.541z M7.817,34.561
			C7.933,34.059,8,33.537,8,33c0-3.53-2.615-6.441-6.013-6.922L1.995,12h14.023l0.003,11.478l10.634,6.139
			c0.077,0.044,0.145,0.098,0.219,0.144l-7.538,11.085L7.817,34.561z M23.247,42c-0.848,0-1.541-0.138-2.075-0.299l7.231-10.633
			c1.006,1.171,1.581,2.666,1.581,4.289C29.984,39.021,26.962,42,23.247,42z"/>
	</g>
</g>
<g>
</g>
<g>
</g>
<g>
</g>
<g>
</g>
<g>
</g>
<g>
</g>
<g>
</g>
<g>
</g>
<g>
</g>
<g>
</g>
<g>
</g>
<g>
</g>
<g>
</g>
<g>
</g>
<g>
</g>
</svg>
