<?xml version="1.0" encoding="iso-8859-1"?>
<!-- Generator: Adobe Illustrator 16.0.4, SVG Export Plug-In . SVG Version: 6.00 Build 0)  -->
<!DOCTYPE svg PUBLIC "-//W3C//DTD SVG 1.1//EN" "http://www.w3.org/Graphics/SVG/1.1/DTD/svg11.dtd">
<svg version="1.1" id="Layer_1" xmlns="http://www.w3.org/2000/svg" xmlns:xlink="http://www.w3.org/1999/xlink" x="0px" y="0px"
	 width="40px" height="56px" viewBox="0 0 40 56" style="enable-background:new 0 0 40 56;" xml:space="preserve">
<g id="_x39_83-sock_x40_2x.png">
	<g>
		<path d="M34.496,35.481l0.004-0.008l-0.235-0.133c-0.011-0.006-0.021-0.013-0.032-0.019L22,28.409V1c0-0.552-0.447-1-1-1H0v1v1v39
			c0,0.356,0.197,0.655,0.479,0.832l-0.004,0.007l0.073,0.04c0.029,0.016,0.055,0.035,0.085,0.047L23.5,54.526l0.017-0.028
			C25.129,55.442,26.993,56,29,56c6.075,0,11-4.925,11-11C40,40.929,37.783,37.383,34.496,35.481z M2,2h18v4.031H2V2z M2,8.031h18v2
			H2V8.031z M5.943,42.577L2,40.404v-3.304c2.282,0.464,4,2.48,4,4.899C6,42.198,5.969,42.387,5.943,42.577z M24.504,52.788
			L24.5,52.794l-0.029-0.017l-0.009,0.004L7.806,43.604C7.928,43.088,8,42.553,8,42c0-3.525-2.609-6.434-6-6.921V12.031h18V29
			c0,0.371,0.211,0.682,0.511,0.854l-0.009,0.015l12.994,7.344c0.454,0.263,0.872,0.576,1.271,0.911l-8.979,15.266
			C25.344,53.217,24.911,53.024,24.504,52.788z M29,54c-0.408,0-0.811-0.027-1.204-0.081l8.407-14.291
			C37.326,41.127,38,42.981,38,45C38,49.971,33.971,54,29,54z"/>
	</g>
</g>
<g>
</g>
<g>
</g>
<g>
</g>
<g>
</g>
<g>
</g>
<g>
</g>
<g>
</g>
<g>
</g>
<g>
</g>
<g>
</g>
<g>
</g>
<g>
</g>
<g>
</g>
<g>
</g>
<g>
</g>
</svg>
