<?xml version="1.0" encoding="iso-8859-1"?>
<!-- Generator: Adobe Illustrator 16.0.4, SVG Export Plug-In . SVG Version: 6.00 Build 0)  -->
<!DOCTYPE svg PUBLIC "-//W3C//DTD SVG 1.1//EN" "http://www.w3.org/Graphics/SVG/1.1/DTD/svg11.dtd">
<svg version="1.1" id="Layer_1" xmlns="http://www.w3.org/2000/svg" xmlns:xlink="http://www.w3.org/1999/xlink" x="0px" y="0px"
	 width="56px" height="52px" viewBox="0 0 56 52" style="enable-background:new 0 0 56 52;" xml:space="preserve">
<g id="_x38_90-sort-ascending_x40_2x.png">
	<g>
		<path d="M24,10h14c1.104,0,2-0.896,2-2V2c0-1.104-0.896-2-2-2H24c-1.104,0-2,0.896-2,2v6C22,9.104,22.896,10,24,10z M24,2h14v6H24
			V2z M25,38h-7V2c0-1.104-0.896-2-2-2h-6C8.896,0,8,0.896,8,2v36H1c-0.553,0-1,0.447-1,1c0,0.276,0.112,0.526,0.293,0.707l12,12
			C12.474,51.888,12.724,52,13,52s0.526-0.112,0.707-0.293l12-12C25.888,39.526,26,39.276,26,39C26,38.447,25.553,38,25,38z
			 M13,49.586L3.414,40H8h2V2h6v38h2h4.586L13,49.586z M24,22h22c1.104,0,2-0.896,2-2v-6c0-1.104-0.896-2-2-2H24
			c-1.104,0-2,0.896-2,2v6C22,21.104,22.896,22,24,22z M24,14h22v6H24V14z M54,24H24c-1.104,0-2,0.896-2,2v6c0,1.104,0.896,2,2,2h30
			c1.104,0,2-0.896,2-2v-6C56,24.896,55.104,24,54,24z M54,32H24v-6h30V32z"/>
	</g>
</g>
<g>
</g>
<g>
</g>
<g>
</g>
<g>
</g>
<g>
</g>
<g>
</g>
<g>
</g>
<g>
</g>
<g>
</g>
<g>
</g>
<g>
</g>
<g>
</g>
<g>
</g>
<g>
</g>
<g>
</g>
</svg>
