<?xml version="1.0" encoding="iso-8859-1"?>
<!-- Generator: Adobe Illustrator 16.0.4, SVG Export Plug-In . SVG Version: 6.00 Build 0)  -->
<!DOCTYPE svg PUBLIC "-//W3C//DTD SVG 1.1//EN" "http://www.w3.org/Graphics/SVG/1.1/DTD/svg11.dtd">
<svg version="1.1" id="Layer_1" xmlns="http://www.w3.org/2000/svg" xmlns:xlink="http://www.w3.org/1999/xlink" x="0px" y="0px"
	 width="44px" height="44px" viewBox="0 0 44 44" style="enable-background:new 0 0 44 44;" xml:space="preserve">
<g id="_x38_89-sort-descending-toolbar_x40_2x.png">
	<g>
		<path d="M42,0H22c-1.104,0-2,0.896-2,2v4c0,1.104,0.896,2,2,2h20c1.104,0,2-0.896,2-2V2C44,0.896,43.104,0,42,0z M42,6H22V2h20V6z
			 M36,10H22c-1.104,0-2,0.896-2,2v4c0,1.104,0.896,2,2,2h14c1.104,0,2-0.896,2-2v-4C38,10.896,37.104,10,36,10z M36,16H22v-4h14V16
			z M21,32h-5V2c0-1.104-1.119-2-2.5-2h-5C7.119,0,6,0.896,6,2v30H1c-0.553,0-1,0.448-1,1c0,0.276,0.112,0.526,0.293,0.707l10,10
			C10.474,43.888,10.724,44,11,44s0.526-0.112,0.707-0.293l10-10C21.888,33.526,22,33.276,22,33C22,32.448,21.553,32,21,32z
			 M11,41.586L3.414,34H8V2h6v32h4.586L11,41.586z M30,20h-8c-1.104,0-2,0.896-2,2v4c0,1.104,0.896,2,2,2h8c1.104,0,2-0.896,2-2v-4
			C32,20.896,31.104,20,30,20z M30,26h-8v-4h8V26z"/>
	</g>
</g>
<g>
</g>
<g>
</g>
<g>
</g>
<g>
</g>
<g>
</g>
<g>
</g>
<g>
</g>
<g>
</g>
<g>
</g>
<g>
</g>
<g>
</g>
<g>
</g>
<g>
</g>
<g>
</g>
<g>
</g>
</svg>
