<?xml version="1.0" encoding="iso-8859-1"?>
<!-- Generator: Adobe Illustrator 16.0.4, SVG Export Plug-In . SVG Version: 6.00 Build 0)  -->
<!DOCTYPE svg PUBLIC "-//W3C//DTD SVG 1.1//EN" "http://www.w3.org/Graphics/SVG/1.1/DTD/svg11.dtd">
<svg version="1.1" id="Layer_1" xmlns="http://www.w3.org/2000/svg" xmlns:xlink="http://www.w3.org/1999/xlink" x="0px" y="0px"
	 width="44px" height="44px" viewBox="0 0 44 44" style="enable-background:new 0 0 44 44;" xml:space="preserve">
<g id="_x38_90-sort-ascending-toolbar_x40_2x.png">
	<g>
		<path d="M22,8h8c1.104,0,2-0.896,2-2V2c0-1.104-0.896-2-2-2h-8c-1.104,0-2,0.896-2,2v4C20,7.104,20.896,8,22,8z M22,2h8v4h-8V2z
			 M21,32h-5V2c0-1.104-1.119-2-2.5-2h-5C7.119,0,6,0.896,6,2v30H1c-0.552,0-1,0.448-1,1c0,0.276,0.112,0.526,0.293,0.707l10,10
			C10.474,43.888,10.724,44,11,44s0.526-0.112,0.707-0.293l10-10C21.888,33.526,22,33.276,22,33C22,32.448,21.553,32,21,32z
			 M11,41.586L3.414,34H8V2h6v32h4.586L11,41.586z M42,20H22c-1.104,0-2,0.896-2,2v4c0,1.104,0.896,2,2,2h20c1.104,0,2-0.896,2-2v-4
			C44,20.896,43.104,20,42,20z M42,26H22v-4h20V26z M22,18h14c1.104,0,2-0.896,2-2v-4c0-1.104-0.896-2-2-2H22c-1.104,0-2,0.896-2,2
			v4C20,17.104,20.896,18,22,18z M22,12h14v4H22V12z"/>
	</g>
</g>
<g>
</g>
<g>
</g>
<g>
</g>
<g>
</g>
<g>
</g>
<g>
</g>
<g>
</g>
<g>
</g>
<g>
</g>
<g>
</g>
<g>
</g>
<g>
</g>
<g>
</g>
<g>
</g>
<g>
</g>
</svg>
