<?xml version="1.0" encoding="iso-8859-1"?>
<!-- Generator: Adobe Illustrator 16.0.4, SVG Export Plug-In . SVG Version: 6.00 Build 0)  -->
<!DOCTYPE svg PUBLIC "-//W3C//DTD SVG 1.1//EN" "http://www.w3.org/Graphics/SVG/1.1/DTD/svg11.dtd">
<svg version="1.1" id="Layer_1" xmlns="http://www.w3.org/2000/svg" xmlns:xlink="http://www.w3.org/1999/xlink" x="0px" y="0px"
	 width="40px" height="44px" viewBox="0 0 40 44" style="enable-background:new 0 0 40 44;" xml:space="preserve">
<g id="_x37_73-sound-2-toolbar_x40_2x.png">
	<g>
		<path d="M29,17c-0.552,0-1,0.447-1,1s0.448,1,1,1c1.657,0,3,1.343,3,3s-1.343,3-3,3c-0.552,0-1,0.448-1,1c0,0.553,0.448,1,1,1
			c2.762,0,5-2.238,5-5S31.762,17,29,17z M21.015,0c-0.832,0-1.584,0.34-2.127,0.888l-0.009-0.009L7.758,12H4c-2.209,0-4,1.791-4,4
			v12c0,2.209,1.791,4,4,4h3.758l11.121,11.121l0.009-0.008C19.431,43.66,20.183,44,21.015,44c1.655,0,2.997-1.342,2.997-2.997
			c0-0.005-0.002-0.01-0.002-0.016h0.002V3.014H24.01c0-0.006,0.002-0.011,0.002-0.017C24.012,1.342,22.67,0,21.015,0z M6,30H4
			c-1.104,0-2-0.896-2-2V16c0-1.104,0.896-2,2-2h2V30z M22,3.014v2.802v32.37v2.802h-0.003c0,0.006,0.003,0.011,0.003,0.016
			c0,0.545-0.45,0.986-1.006,0.986c-0.273,0-0.52-0.108-0.701-0.282l-0.001-0.001l-0.015-0.015l-0.704-0.704l-0.561-0.561l-0.7-0.7
			L8,29.414V14.586L18.312,4.273l0.7-0.7l0.56-0.56l0.706-0.706l0.012-0.012l0.003-0.003l0.001,0.001
			c0.181-0.174,0.427-0.282,0.7-0.282C21.55,2.012,22,2.453,22,2.998c0,0.005-0.003,0.01-0.003,0.016H22z M34.263,12.34
			l-0.008,0.014c-0.144-0.078-0.299-0.135-0.474-0.135c-0.552,0-1,0.448-1,1c0,0.368,0.208,0.676,0.504,0.85l-0.007,0.012
			C36.09,15.603,38,18.578,38,22s-1.91,6.397-4.722,7.92l0.007,0.012c-0.296,0.174-0.504,0.481-0.504,0.85c0,0.553,0.448,1,1,1
			c0.175,0,0.33-0.057,0.474-0.135l0.008,0.014C37.681,29.795,40,26.169,40,22C40,17.832,37.681,14.205,34.263,12.34z"/>
	</g>
</g>
<g>
</g>
<g>
</g>
<g>
</g>
<g>
</g>
<g>
</g>
<g>
</g>
<g>
</g>
<g>
</g>
<g>
</g>
<g>
</g>
<g>
</g>
<g>
</g>
<g>
</g>
<g>
</g>
<g>
</g>
</svg>
