<?xml version="1.0" encoding="iso-8859-1"?>
<!-- Generator: Adobe Illustrator 16.0.4, SVG Export Plug-In . SVG Version: 6.00 Build 0)  -->
<!DOCTYPE svg PUBLIC "-//W3C//DTD SVG 1.1//EN" "http://www.w3.org/Graphics/SVG/1.1/DTD/svg11.dtd">
<svg version="1.1" id="Layer_1" xmlns="http://www.w3.org/2000/svg" xmlns:xlink="http://www.w3.org/1999/xlink" x="0px" y="0px"
	 width="40px" height="56px" viewBox="0 0 40 56" style="enable-background:new 0 0 40 56;" xml:space="preserve">
<g id="_x37_72-sound-1_x40_2x.png">
	<g>
		<path d="M34,21.969c-0.553,0-1,0.447-1,1s0.447,1,1,1c2.209,0,4,1.791,4,4V28c0,2.209-1.791,4-4,4c-0.553,0-1,0.447-1,1
			s0.447,1,1,1c3.313,0,6-2.687,6-6v-0.031C40,24.655,37.313,21.969,34,21.969z M27,0c-0.73,0-1.391,0.271-1.91,0.705l-0.007-0.008
			L8.93,14H4c-2.209,0-4,1.791-4,4v20c0,2.209,1.791,4,4,4h4.929l16.154,13.304l0.007-0.009C25.609,55.729,26.27,56,27,56
			c1.657,0,3-1.343,3-3V3C30,1.343,28.657,0,27,0z M8,40H4c-1.104,0-2-0.896-2-2V18c0-1.104,0.896-2,2-2h4V40z M28,5.816v44.367V53
			c0,0.553-0.447,1-1,1c-0.24,0-0.452-0.096-0.624-0.236l-0.009,0.011l-0.015-0.013l0.002-0.002L10,40.291V15.709L26.354,2.241
			l-0.002-0.003l0.015-0.012l0.009,0.011C26.548,2.097,26.76,2,27,2c0.553,0,1,0.448,1,1V5.816z"/>
	</g>
</g>
<g>
</g>
<g>
</g>
<g>
</g>
<g>
</g>
<g>
</g>
<g>
</g>
<g>
</g>
<g>
</g>
<g>
</g>
<g>
</g>
<g>
</g>
<g>
</g>
<g>
</g>
<g>
</g>
<g>
</g>
</svg>
