<?xml version="1.0" encoding="iso-8859-1"?>
<!-- Generator: Adobe Illustrator 16.0.4, SVG Export Plug-In . SVG Version: 6.00 Build 0)  -->
<!DOCTYPE svg PUBLIC "-//W3C//DTD SVG 1.1//EN" "http://www.w3.org/Graphics/SVG/1.1/DTD/svg11.dtd">
<svg version="1.1" id="Layer_1" xmlns="http://www.w3.org/2000/svg" xmlns:xlink="http://www.w3.org/1999/xlink" x="0px" y="0px"
	 width="32px" height="44px" viewBox="0 0 32 44" style="enable-background:new 0 0 32 44;" xml:space="preserve">
<g id="_x37_72-sound-1-toolbar_x40_2x.png">
	<g>
		<path d="M21.015,0c-0.832,0-1.584,0.34-2.127,0.888l-0.009-0.009L7.758,12H4c-2.209,0-4,1.791-4,4v12c0,2.209,1.791,4,4,4h3.758
			l11.121,11.121l0.008-0.008C19.431,43.66,20.183,44,21.015,44c1.655,0,2.997-1.342,2.997-2.997c0-0.005-0.002-0.01-0.002-0.016
			h0.002V3.014H24.01c0-0.006,0.002-0.011,0.002-0.017C24.012,1.342,22.67,0,21.015,0z M6,30H4c-1.104,0-2-0.896-2-2V16
			c0-1.104,0.896-2,2-2h2V30z M22,3.014v2.802v32.37v2.802h-0.003c0,0.006,0.003,0.011,0.003,0.016c0,0.545-0.45,0.986-1.006,0.986
			c-0.273,0-0.52-0.108-0.701-0.282l-0.002-0.001L20.286,41.7l-0.713-0.713l-0.561-0.561l-0.7-0.7L8,29.414V14.586l0.443-0.443
			L19.013,3.573l0.461-0.462l0.805-0.804L20.286,2.3l0.007-0.007v0.001c0.182-0.174,0.428-0.282,0.701-0.282
			C21.55,2.012,22,2.453,22,2.998c0,0.005-0.003,0.01-0.003,0.016H22z M27,17c-0.553,0-1,0.447-1,1s0.447,1,1,1c1.657,0,3,1.343,3,3
			s-1.343,3-3,3c-0.553,0-1,0.448-1,1c0,0.553,0.447,1,1,1c2.762,0,5-2.238,5-5S29.762,17,27,17z"/>
	</g>
</g>
<g>
</g>
<g>
</g>
<g>
</g>
<g>
</g>
<g>
</g>
<g>
</g>
<g>
</g>
<g>
</g>
<g>
</g>
<g>
</g>
<g>
</g>
<g>
</g>
<g>
</g>
<g>
</g>
<g>
</g>
</svg>
