<?xml version="1.0" encoding="iso-8859-1"?>
<!-- Generator: Adobe Illustrator 16.0.4, SVG Export Plug-In . SVG Version: 6.00 Build 0)  -->
<!DOCTYPE svg PUBLIC "-//W3C//DTD SVG 1.1//EN" "http://www.w3.org/Graphics/SVG/1.1/DTD/svg11.dtd">
<svg version="1.1" id="Layer_1" xmlns="http://www.w3.org/2000/svg" xmlns:xlink="http://www.w3.org/1999/xlink" x="0px" y="0px"
	 width="36px" height="44px" viewBox="0 0 36 44" style="enable-background:new 0 0 36 44;" xml:space="preserve">
<g id="_x37_71-sound-muted-toolbar_x40_2x.png">
	<g>
		<path d="M33.414,23l2.293-2.292C35.888,20.526,36,20.276,36,20c0-0.552-0.447-1-1-1c-0.276,0-0.526,0.112-0.707,0.294L32,21.586
			l-2.293-2.292C29.526,19.112,29.276,19,29,19c-0.553,0-1,0.448-1,1c0,0.276,0.112,0.526,0.293,0.708L30.586,23l-2.293,2.293
			C28.112,25.474,28,25.724,28,26c0,0.553,0.447,1,1,1c0.276,0,0.526-0.112,0.707-0.293L32,24.414l2.293,2.293
			C34.474,26.888,34.724,27,35,27c0.553,0,1-0.447,1-1c0-0.276-0.112-0.526-0.293-0.707L33.414,23z M21.015,0
			c-0.832,0-1.584,0.34-2.127,0.888l-0.009-0.009L7.757,12H4c-2.209,0-4,1.791-4,4v12c0,2.209,1.791,4,4,4h3.757l11.122,11.121
			l0.009-0.008C19.431,43.66,20.183,44,21.015,44c1.655,0,2.997-1.342,2.997-2.997c0-0.005-0.002-0.01-0.002-0.016h0.002V3.014
			H24.01c0-0.006,0.002-0.011,0.002-0.017C24.012,1.342,22.67,0,21.015,0z M6,30H4c-1.104,0-2-0.896-2-2V16c0-1.104,0.896-2,2-2h2
			V30z M22,3.014v2.802v32.37v2.802h-0.003c0,0.006,0.003,0.011,0.003,0.016c0,0.545-0.45,0.986-1.006,0.986
			c-0.273,0-0.52-0.108-0.701-0.282l-0.002-0.001l-0.014-0.015l-0.704-0.704l-0.561-0.561l-0.7-0.7L8,29.414V14.586L18.312,4.273
			l0.7-0.7l0.56-0.56l0.706-0.706l0.012-0.012l0.003-0.003l0.001,0.001c0.181-0.174,0.427-0.282,0.7-0.282
			C21.55,2.012,22,2.453,22,2.998c0,0.005-0.003,0.01-0.003,0.016H22z"/>
	</g>
</g>
<g>
</g>
<g>
</g>
<g>
</g>
<g>
</g>
<g>
</g>
<g>
</g>
<g>
</g>
<g>
</g>
<g>
</g>
<g>
</g>
<g>
</g>
<g>
</g>
<g>
</g>
<g>
</g>
<g>
</g>
</svg>
