<?xml version="1.0" encoding="iso-8859-1"?>
<!-- Generator: Adobe Illustrator 16.0.4, SVG Export Plug-In . SVG Version: 6.00 Build 0)  -->
<!DOCTYPE svg PUBLIC "-//W3C//DTD SVG 1.1//EN" "http://www.w3.org/Graphics/SVG/1.1/DTD/svg11.dtd">
<svg version="1.1" id="Layer_1" xmlns="http://www.w3.org/2000/svg" xmlns:xlink="http://www.w3.org/1999/xlink" x="0px" y="0px"
	 width="56px" height="56px" viewBox="0 0 56 56" style="enable-background:new 0 0 56 56;" xml:space="preserve">
<g id="_x37_74-sound-3_x40_2x.png">
	<g>
		<path d="M27,0c-0.73,0-1.391,0.271-1.91,0.705l-0.007-0.008L8.93,14H4c-2.209,0-4,1.791-4,4v20c0,2.209,1.791,4,4,4h4.929
			l16.154,13.304l0.007-0.009C25.609,55.729,26.27,56,27,56c1.657,0,3-1.343,3-3V3C30,1.343,28.657,0,27,0z M8,40H4
			c-1.104,0-2-0.896-2-2V18c0-1.104,0.896-2,2-2h4V40z M28,5.816v44.367V53c0,0.553-0.447,1-1,1c-0.24,0-0.452-0.096-0.624-0.236
			l-0.009,0.011l-0.015-0.013l0.002-0.002L10,40.291V15.709L26.354,2.241l-0.002-0.003l0.015-0.012l0.009,0.011
			C26.548,2.097,26.76,2,27,2c0.553,0,1,0.448,1,1V5.816z M44.603,8.694L44.6,8.699c-0.144-0.08-0.3-0.137-0.475-0.137
			c-0.553,0-1,0.448-1,1c0,0.569,0.318,0.777,0.318,0.777C49.726,13.712,54,20.34,54,27.969V28c0,7.63-4.274,14.258-10.557,17.63
			c0,0-0.318,0.207-0.318,0.776c0,0.553,0.447,1,1,1c0.175,0,0.331-0.057,0.475-0.136l0.003,0.004C51.396,43.529,56,36.305,56,28
			v-0.031C56,19.664,51.396,12.439,44.603,8.694z M48,28v-0.031c0-5.662-3.368-10.528-8.205-12.733l-0.006,0.007
			c-0.157-0.104-0.336-0.18-0.539-0.18c-0.553,0-1,0.447-1,1c0,0.383,0.223,0.736,0.539,0.904l-0.011,0.016
			C43.022,18.832,46,23.044,46,27.969V28c0,4.925-2.978,9.138-7.222,10.986l0.011,0.016c-0.316,0.168-0.539,0.521-0.539,0.904
			c0,0.553,0.447,1,1,1c0.203,0,0.382-0.075,0.539-0.18l0.006,0.007C44.632,38.528,48,33.663,48,28z M40,27.969c0-3.313-2.687-6-6-6
			c-0.553,0-1,0.447-1,1s0.447,1,1,1c2.209,0,4,1.791,4,4V28c0,2.209-1.791,4-4,4c-0.553,0-1,0.447-1,1s0.447,1,1,1
			c3.313,0,6-2.687,6-6V27.969z"/>
	</g>
</g>
<g>
</g>
<g>
</g>
<g>
</g>
<g>
</g>
<g>
</g>
<g>
</g>
<g>
</g>
<g>
</g>
<g>
</g>
<g>
</g>
<g>
</g>
<g>
</g>
<g>
</g>
<g>
</g>
<g>
</g>
</svg>
