<?xml version="1.0" encoding="iso-8859-1"?>
<!-- Generator: Adobe Illustrator 16.0.4, SVG Export Plug-In . SVG Version: 6.00 Build 0)  -->
<!DOCTYPE svg PUBLIC "-//W3C//DTD SVG 1.1//EN" "http://www.w3.org/Graphics/SVG/1.1/DTD/svg11.dtd">
<svg version="1.1" id="Layer_1" xmlns="http://www.w3.org/2000/svg" xmlns:xlink="http://www.w3.org/1999/xlink" x="0px" y="0px"
	 width="32px" height="44px" viewBox="0 0 32 44" style="enable-background:new 0 0 32 44;" xml:space="preserve">
<g id="_x31_054-speaker-toolbar_x40_2x.png">
	<g>
		<path d="M22,12c0-3.313-2.687-6-6-6s-6,2.687-6,6s2.687,6,6,6S22,15.313,22,12z M16,16c-2.209,0-4-1.791-4-4s1.791-4,4-4
			s4,1.791,4,4S18.209,16,16,16z M16,11c-0.553,0-1,0.448-1,1c0,0.553,0.447,1,1,1s1-0.447,1-1C17,11.448,16.553,11,16,11z M30,0H2
			C0.896,0,0,0.896,0,2v40c0,1.104,0.896,2,2,2h28c1.104,0,2-0.896,2-2V2C32,0.896,31.104,0,30,0z M30,42H2V2h28V42z M16,38
			c5.522,0,10-4.478,10-10s-4.478-10-10-10S6,22.478,6,28S10.478,38,16,38z M16,20c4.418,0,8,3.582,8,8s-3.582,8-8,8s-8-3.582-8-8
			S11.582,20,16,20z M16,31c1.657,0,3-1.343,3-3c0-1.656-1.343-3-3-3s-3,1.344-3,3C13,29.657,14.343,31,16,31z M16,27
			c0.553,0,1,0.447,1,1s-0.447,1-1,1s-1-0.447-1-1S15.447,27,16,27z"/>
	</g>
</g>
<g>
</g>
<g>
</g>
<g>
</g>
<g>
</g>
<g>
</g>
<g>
</g>
<g>
</g>
<g>
</g>
<g>
</g>
<g>
</g>
<g>
</g>
<g>
</g>
<g>
</g>
<g>
</g>
<g>
</g>
</svg>
