<?xml version="1.0" encoding="iso-8859-1"?>
<!-- Generator: Adobe Illustrator 16.0.4, SVG Export Plug-In . SVG Version: 6.00 Build 0)  -->
<!DOCTYPE svg PUBLIC "-//W3C//DTD SVG 1.1//EN" "http://www.w3.org/Graphics/SVG/1.1/DTD/svg11.dtd">
<svg version="1.1" id="Layer_1" xmlns="http://www.w3.org/2000/svg" xmlns:xlink="http://www.w3.org/1999/xlink" x="0px" y="0px"
	 width="40px" height="56px" viewBox="0 0 40 56" style="enable-background:new 0 0 40 56;" xml:space="preserve">
<g id="_x31_054-speaker_x40_2x.png">
	<g>
		<path d="M20,22c4.418,0,8-3.582,8-8s-3.582-8-8-8s-8,3.582-8,8S15.582,22,20,22z M20,8c3.313,0,6,2.687,6,6s-2.687,6-6,6
			s-6-2.687-6-6S16.687,8,20,8z M20,16c1.104,0,2-0.896,2-2s-0.896-2-2-2s-2,0.896-2,2S18.896,16,20,16z M20,50
			c7.18,0,13-5.82,13-13s-5.82-13-13-13S7,29.82,7,37S12.82,50,20,50z M20,26c6.075,0,11,4.925,11,11s-4.925,11-11,11S9,43.075,9,37
			S13.925,26,20,26z M38,0H2C0.896,0,0,0.896,0,2v52c0,1.104,0.896,2,2,2h36c1.104,0,2-0.896,2-2V2C40,0.896,39.104,0,38,0z M38,54
			H2V2h36V54z M20,41c2.209,0,4-1.791,4-4s-1.791-4-4-4s-4,1.791-4,4S17.791,41,20,41z M20,35c1.104,0,2,0.896,2,2s-0.896,2-2,2
			s-2-0.896-2-2S18.896,35,20,35z"/>
	</g>
</g>
<g>
</g>
<g>
</g>
<g>
</g>
<g>
</g>
<g>
</g>
<g>
</g>
<g>
</g>
<g>
</g>
<g>
</g>
<g>
</g>
<g>
</g>
<g>
</g>
<g>
</g>
<g>
</g>
<g>
</g>
</svg>
