<?xml version="1.0" encoding="iso-8859-1"?>
<!-- Generator: Adobe Illustrator 16.0.4, SVG Export Plug-In . SVG Version: 6.00 Build 0)  -->
<!DOCTYPE svg PUBLIC "-//W3C//DTD SVG 1.1//EN" "http://www.w3.org/Graphics/SVG/1.1/DTD/svg11.dtd">
<svg version="1.1" id="Layer_1" xmlns="http://www.w3.org/2000/svg" xmlns:xlink="http://www.w3.org/1999/xlink" x="0px" y="0px"
	 width="56px" height="56px" viewBox="0 0 56 56" style="enable-background:new 0 0 56 56;" xml:space="preserve">
<g id="_x39_17-speedometer_x40_2x.png">
	<g>
		<path d="M9,27c-0.553,0-1,0.448-1,1c0,0.553,0.447,1,1,1s1-0.447,1-1C10,27.448,9.553,27,9,27z M12.046,17.634
			c-0.479-0.275-1.09-0.112-1.366,0.366s-0.112,1.09,0.366,1.366c0.478,0.276,1.09,0.112,1.365-0.366
			C12.688,18.521,12.523,17.91,12.046,17.634z M18,10.68c-0.479,0.276-0.643,0.888-0.366,1.366c0.276,0.478,0.888,0.642,1.366,0.365
			c0.479-0.275,0.643-0.888,0.366-1.365C19.09,10.567,18.479,10.403,18,10.68z M38,10.68c-0.479-0.276-1.09-0.112-1.366,0.366
			c-0.276,0.478-0.112,1.09,0.366,1.365c0.479,0.276,1.09,0.112,1.366-0.365C38.643,11.567,38.479,10.956,38,10.68z M28,0
			C12.536,0,0,12.536,0,28s12.536,28,28,28s28-12.536,28-28S43.464,0,28,0z M14.814,50.381c-4.66-2.752-8.389-6.902-10.593-11.891
			C5.677,36.961,7.723,36,10,36c4.418,0,8,3.582,8,8C18,46.608,16.747,48.921,14.814,50.381z M41.186,50.381
			C39.253,48.921,38,46.608,38,44c0-4.418,3.582-8,8-8c2.277,0,4.323,0.961,5.778,2.49C49.574,43.479,45.846,47.629,41.186,50.381z
			 M46,34c-5.522,0-10,4.478-10,10c0,2.936,1.271,5.566,3.287,7.395C35.87,53.047,32.051,54,28,54s-7.869-0.953-11.287-2.605
			C18.729,49.566,20,46.936,20,44c0-5.522-4.478-10-10-10c-2.515,0-4.805,0.938-6.561,2.472C2.522,33.812,2,30.971,2,28
			C2,13.641,13.641,2,28,2s26,11.641,26,26c0,2.971-0.522,5.812-1.439,8.472C50.805,34.938,48.516,34,46,34z M28,10
			c0.553,0,1-0.447,1-1s-0.447-1-1-1s-1,0.447-1,1S27.447,10,28,10z M43.954,17.634c-0.478,0.276-0.642,0.888-0.365,1.366
			c0.275,0.479,0.888,0.643,1.365,0.366c0.479-0.276,0.643-0.888,0.366-1.366C45.045,17.521,44.433,17.358,43.954,17.634z
			 M29.015,24.133l-8.003-8.277l3.154,11.029c-0.294,1.01-0.198,2.132,0.37,3.115c1.104,1.913,3.551,2.568,5.464,1.464
			s2.568-3.551,1.464-5.464C30.908,25.037,30.012,24.395,29.015,24.133z M25.506,24.892l-1.065-3.098l2.151,2.476
			c-0.2,0.076-0.4,0.156-0.592,0.267C25.82,24.64,25.663,24.766,25.506,24.892z M29,29.732c-0.957,0.552-2.18,0.225-2.732-0.732
			c-0.552-0.956-0.225-2.18,0.732-2.732c0.957-0.552,2.18-0.224,2.732,0.732C30.284,27.957,29.957,29.18,29,29.732z M47,27
			c-0.553,0-1,0.448-1,1c0,0.553,0.447,1,1,1s1-0.447,1-1C48,27.448,47.553,27,47,27z"/>
	</g>
</g>
<g>
</g>
<g>
</g>
<g>
</g>
<g>
</g>
<g>
</g>
<g>
</g>
<g>
</g>
<g>
</g>
<g>
</g>
<g>
</g>
<g>
</g>
<g>
</g>
<g>
</g>
<g>
</g>
<g>
</g>
</svg>
