<?xml version="1.0" encoding="iso-8859-1"?>
<!-- Generator: Adobe Illustrator 16.0.4, SVG Export Plug-In . SVG Version: 6.00 Build 0)  -->
<!DOCTYPE svg PUBLIC "-//W3C//DTD SVG 1.1//EN" "http://www.w3.org/Graphics/SVG/1.1/DTD/svg11.dtd">
<svg version="1.1" id="Layer_1" xmlns="http://www.w3.org/2000/svg" xmlns:xlink="http://www.w3.org/1999/xlink" x="0px" y="0px"
	 width="44px" height="44px" viewBox="0 0 44 44" style="enable-background:new 0 0 44 44;" xml:space="preserve">
<g id="_x39_17-speedometer-toolbar_x40_2x.png">
	<g>
		<path d="M9.51,13.634C9.031,13.358,8.42,13.521,8.144,14s-0.112,1.09,0.366,1.366S9.6,15.479,9.876,15
			C10.151,14.521,9.988,13.91,9.51,13.634z M22,8c0.553,0,1-0.447,1-1c0-0.552-0.447-1-1-1s-1,0.448-1,1C21,7.553,21.447,8,22,8z
			 M7,21c-0.553,0-1,0.448-1,1c0,0.553,0.447,1,1,1s1-0.447,1-1C8,21.448,7.553,21,7,21z M34.49,13.634
			c-0.479,0.276-0.642,0.888-0.366,1.366c0.276,0.479,0.888,0.643,1.366,0.366s0.643-0.888,0.366-1.366S34.969,13.358,34.49,13.634z
			 M37,21c-0.553,0-1,0.448-1,1c0,0.553,0.447,1,1,1s1-0.447,1-1C38,21.448,37.553,21,37,21z M22,0C9.85,0,0,9.85,0,22
			s9.85,22,22,22s22-9.85,22-22S34.15,0,22,0z M11.896,39.239c-3.62-2.127-6.514-5.348-8.212-9.223C3.789,30.012,3.893,30,4,30
			c4.418,0,8,3.582,8,8C12,38.423,11.961,38.835,11.896,39.239z M32.104,39.239C32.04,38.835,32,38.423,32,38c0-4.418,3.582-8,8-8
			c0.107,0,0.211,0.012,0.316,0.017C38.618,33.892,35.725,37.112,32.104,39.239z M40,28c-5.522,0-10,4.478-10,10
			c0,0.758,0.118,1.481,0.282,2.188C27.757,41.341,24.958,42,22,42s-5.756-0.659-8.282-1.812C13.882,39.481,14,38.758,14,38
			c0-5.522-4.478-10-10-10c-0.358,0-0.712,0.021-1.061,0.058C2.333,26.146,2,24.112,2,22C2,10.954,10.954,2,22,2s20,8.954,20,20
			c0,2.112-0.332,4.146-0.939,6.058C40.712,28.021,40.358,28,40,28z M14,8.144c-0.479,0.276-0.643,0.888-0.366,1.366
			S14.521,10.152,15,9.876s0.643-0.888,0.366-1.366S14.479,7.867,14,8.144z M24.384,20.203l0.026-0.016l-0.141-0.145
			c-0.04-0.046-0.085-0.086-0.127-0.129L16,11.607l3.215,11.58l0.037-0.021c0.047,0.112,0.088,0.226,0.15,0.334
			c0.828,1.435,2.663,1.927,4.098,1.099c1.435-0.829,1.927-2.664,1.098-4.099C24.536,20.392,24.457,20.3,24.384,20.203z
			 M22.5,22.866c-0.479,0.276-1.09,0.112-1.366-0.366s-0.112-1.09,0.366-1.366s1.09-0.112,1.366,0.366S22.979,22.59,22.5,22.866z
			 M30,8.144c-0.479-0.276-1.09-0.112-1.366,0.366S28.521,9.6,29,9.876s1.09,0.112,1.366-0.366S30.479,8.42,30,8.144z"/>
	</g>
</g>
<g>
</g>
<g>
</g>
<g>
</g>
<g>
</g>
<g>
</g>
<g>
</g>
<g>
</g>
<g>
</g>
<g>
</g>
<g>
</g>
<g>
</g>
<g>
</g>
<g>
</g>
<g>
</g>
<g>
</g>
</svg>
