<?xml version="1.0" encoding="iso-8859-1"?>
<!-- Generator: Adobe Illustrator 16.0.4, SVG Export Plug-In . SVG Version: 6.00 Build 0)  -->
<!DOCTYPE svg PUBLIC "-//W3C//DTD SVG 1.1//EN" "http://www.w3.org/Graphics/SVG/1.1/DTD/svg11.dtd">
<svg version="1.1" id="Layer_1" xmlns="http://www.w3.org/2000/svg" xmlns:xlink="http://www.w3.org/1999/xlink" x="0px" y="0px"
	 width="56px" height="44px" viewBox="0 0 56 44" style="enable-background:new 0 0 56 44;" xml:space="preserve">
<g id="_x31_077-split-path_x40_2x.png">
	<g>
		<path d="M47.707,26.293C47.526,26.112,47.276,26,47,26c-0.553,0-1,0.447-1,1c0,0.276,0.112,0.526,0.293,0.707L52.586,34H12.79
			l14.769-24h25.027l-6.293,6.293C46.112,16.474,46,16.724,46,17c0,0.553,0.447,1,1,1c0.276,0,0.526-0.112,0.707-0.293l8-8
			C55.888,9.526,56,9.276,56,9c0-0.275-0.112-0.526-0.293-0.707l-8-8C47.526,0.112,47.276,0,47,0c-0.553,0-1,0.447-1,1
			c0,0.276,0.112,0.526,0.293,0.707L52.586,8H27.001C27,8,27,8,27,8c-0.359,0-0.66,0.2-0.837,0.485l-0.015-0.01L10.441,34H1
			c-0.553,0-1,0.447-1,1s0.447,1,1,1h51.586l-6.293,6.293C46.112,42.474,46,42.724,46,43c0,0.553,0.447,1,1,1
			c0.276,0,0.526-0.112,0.707-0.293l8-8C55.888,35.526,56,35.276,56,35s-0.112-0.525-0.293-0.707L47.707,26.293z"/>
	</g>
</g>
<g>
</g>
<g>
</g>
<g>
</g>
<g>
</g>
<g>
</g>
<g>
</g>
<g>
</g>
<g>
</g>
<g>
</g>
<g>
</g>
<g>
</g>
<g>
</g>
<g>
</g>
<g>
</g>
<g>
</g>
</svg>
