<?xml version="1.0" encoding="iso-8859-1"?>
<!-- Generator: Adobe Illustrator 16.0.4, SVG Export Plug-In . SVG Version: 6.00 Build 0)  -->
<!DOCTYPE svg PUBLIC "-//W3C//DTD SVG 1.1//EN" "http://www.w3.org/Graphics/SVG/1.1/DTD/svg11.dtd">
<svg version="1.1" id="Layer_1" xmlns="http://www.w3.org/2000/svg" xmlns:xlink="http://www.w3.org/1999/xlink" x="0px" y="0px"
	 width="44px" height="36px" viewBox="0 0 44 36" style="enable-background:new 0 0 44 36;" xml:space="preserve">
<g id="_x31_077-split-path-toolbar_x40_2x.png">
	<g>
		<path d="M37.707,22.293C37.526,22.112,37.276,22,37,22c-0.553,0-1,0.447-1,1c0,0.276,0.112,0.526,0.293,0.707L40.586,28H12.545
			l9.091-20h18.95l-4.293,4.293C36.112,12.474,36,12.724,36,13c0,0.553,0.447,1,1,1c0.276,0,0.526-0.112,0.707-0.293l6-6
			C43.888,7.526,44,7.276,44,7c0-0.275-0.112-0.525-0.293-0.707l-6-6C37.526,0.112,37.276,0,37,0c-0.553,0-1,0.447-1,1
			c0,0.276,0.112,0.526,0.293,0.707L40.586,6H21.001C21,6,21,6,21,6c-0.359,0-0.66,0.2-0.837,0.485l-0.015-0.009l-0.044,0.096
			c-0.012,0.024-0.022,0.047-0.032,0.072L10.364,28H1c-0.553,0-1,0.447-1,1s0.447,1,1,1h39.586l-4.293,4.293
			C36.112,34.474,36,34.724,36,35c0,0.553,0.447,1,1,1c0.276,0,0.526-0.111,0.707-0.293l6-6C43.888,29.526,44,29.276,44,29
			s-0.112-0.525-0.293-0.707L37.707,22.293z"/>
	</g>
</g>
<g>
</g>
<g>
</g>
<g>
</g>
<g>
</g>
<g>
</g>
<g>
</g>
<g>
</g>
<g>
</g>
<g>
</g>
<g>
</g>
<g>
</g>
<g>
</g>
<g>
</g>
<g>
</g>
<g>
</g>
</svg>
