<?xml version="1.0" encoding="UTF-8" standalone="no"?>
<svg width="58px" height="58px" viewBox="0 0 58 58" version="1.1" xmlns="http://www.w3.org/2000/svg" xmlns:xlink="http://www.w3.org/1999/xlink" xmlns:sketch="http://www.bohemiancoding.com/sketch/ns">
    <!-- Generator: Sketch 3.0.4 (8053) - http://www.bohemiancoding.com/sketch -->
    <title>1278-spotify</title>
    <desc>Created with Sketch.</desc>
    <defs></defs>
    <g id="Page-1" stroke="none" stroke-width="1" fill="none" fill-rule="evenodd" sketch:type="MSPage">
        <g id="Glyphish-8-Icons" sketch:type="MSArtboardGroup" transform="translate(-692.000000, -1651.000000)" fill="#000000">
            <g id="1278-spotify" sketch:type="MSLayerGroup" transform="translate(692.036996, 1651.860499)">
                <g id="_x31_278-spotify_x40_2x.png" sketch:type="MSShapeGroup">
                    <path d="M42.391,29.661 C37.645,26.912 32.37,25.303 26.715,24.877 C20.906,24.44 16.191,25.362 13.257,26.212 C12.208,26.517 11.604,27.613 11.907,28.663 C12.212,29.713 13.308,30.316 14.358,30.013 C18.062,28.94 22.344,28.517 26.418,28.824 C31.475,29.204 36.182,30.637 40.407,33.086 C40.719,33.267 41.06,33.353 41.396,33.353 C42.079,33.353 42.743,32.999 43.11,32.367 C43.658,31.42 43.336,30.209 42.391,29.661 L42.391,29.661 Z M39.329,37.251 C30.164,31.877 21.082,32.898 14.193,34.391 C13.329,34.578 12.779,35.43 12.966,36.294 C13.153,37.158 14.006,37.708 14.87,37.521 C17.508,36.95 21.506,36.217 25.738,36.445 C30.097,36.68 34.012,37.847 37.708,40.014 C37.962,40.163 38.241,40.235 38.517,40.234 C39.067,40.234 39.602,39.952 39.9,39.443 C40.348,38.68 40.092,37.698 39.329,37.251 L39.329,37.251 Z M28,0 C12.536,0 0,12.536 0,28 C0,43.464 12.536,56 28,56 C43.464,56 56,43.464 56,28 C56,12.536 43.464,0 28,0 L28,0 Z M28,54 C13.641,54 2,42.359 2,28 C2,13.641 13.641,2 28,2 C42.359,2 54,13.641 54,28 C54,42.359 42.359,54 28,54 L28,54 Z M45.812,20.883 C34.185,14.317 19.08,15.23 11.763,17.445 C10.501,17.828 9.788,19.16 10.171,20.422 C10.553,21.683 11.885,22.396 13.147,22.014 C16.821,20.902 21.957,20.385 26.886,20.634 C31.284,20.857 37.732,21.801 43.465,25.038 C43.836,25.248 44.238,25.348 44.636,25.348 C45.469,25.348 46.278,24.911 46.717,24.134 C47.364,22.986 46.96,21.531 45.812,20.883 L45.812,20.883 Z" id="Shape"></path>
                </g>
            </g>
        </g>
    </g>
</svg>