<?xml version="1.0" encoding="iso-8859-1"?>
<!-- Generator: Adobe Illustrator 16.0.4, SVG Export Plug-In . SVG Version: 6.00 Build 0)  -->
<!DOCTYPE svg PUBLIC "-//W3C//DTD SVG 1.1//EN" "http://www.w3.org/Graphics/SVG/1.1/DTD/svg11.dtd">
<svg version="1.1" id="Layer_1" xmlns="http://www.w3.org/2000/svg" xmlns:xlink="http://www.w3.org/1999/xlink" x="0px" y="0px"
	 width="44px" height="44px" viewBox="0 0 44 44" style="enable-background:new 0 0 44 44;" xml:space="preserve">
<g id="_x31_278-spotify_x40_2x.png">
	<g>
		<path d="M32.472,23.208c-3.593-2.022-7.585-3.207-11.866-3.521c-4.396-0.321-7.967,0.356-10.188,0.982
			c-0.794,0.224-1.251,1.031-1.021,1.804c0.23,0.771,1.061,1.217,1.855,0.993c2.804-0.79,6.046-1.102,9.129-0.876
			c3.828,0.28,7.391,1.335,10.59,3.137c0.236,0.133,0.494,0.196,0.749,0.196c0.517,0,1.02-0.261,1.297-0.727
			C33.432,24.502,33.188,23.611,32.472,23.208z M30.154,28.793c-6.938-3.955-13.812-3.202-19.027-2.105
			c-0.654,0.138-1.07,0.766-0.929,1.401s0.787,1.04,1.441,0.902c1.997-0.42,5.023-0.959,8.228-0.792
			c3.3,0.174,6.264,1.032,9.061,2.627c0.193,0.109,0.404,0.162,0.612,0.162c0.416,0,0.821-0.209,1.047-0.583
			C30.926,29.844,30.732,29.122,30.154,28.793z M35.062,16.748c-8.801-4.832-20.236-4.16-25.774-2.529
			C8.332,14.5,7.793,15.48,8.082,16.408c0.289,0.929,1.297,1.453,2.252,1.172c2.781-0.818,6.67-1.198,10.401-1.016
			c3.329,0.164,8.21,0.859,12.55,3.241c0.28,0.154,0.586,0.228,0.887,0.228c0.631,0,1.242-0.321,1.574-0.893
			C36.237,18.296,35.931,17.225,35.062,16.748z M22,0C9.85,0,0,9.85,0,22s9.85,22,22,22s22-9.85,22-22S34.15,0,22,0z M22,42
			C10.954,42,2,33.046,2,22S10.954,2,22,2s20,8.954,20,20S33.046,42,22,42z"/>
	</g>
</g>
<g>
</g>
<g>
</g>
<g>
</g>
<g>
</g>
<g>
</g>
<g>
</g>
<g>
</g>
<g>
</g>
<g>
</g>
<g>
</g>
<g>
</g>
<g>
</g>
<g>
</g>
<g>
</g>
<g>
</g>
</svg>
