<?xml version="1.0" encoding="iso-8859-1"?>
<!-- Generator: Adobe Illustrator 16.0.4, SVG Export Plug-In . SVG Version: 6.00 Build 0)  -->
<!DOCTYPE svg PUBLIC "-//W3C//DTD SVG 1.1//EN" "http://www.w3.org/Graphics/SVG/1.1/DTD/svg11.dtd">
<svg version="1.1" id="Layer_1" xmlns="http://www.w3.org/2000/svg" xmlns:xlink="http://www.w3.org/1999/xlink" x="0px" y="0px"
	 width="38px" height="56px" viewBox="0 0 38 56" style="enable-background:new 0 0 38 56;" xml:space="preserve">
<g id="_x39_80-spraybottle_x40_2x.png">
	<g>
		<path d="M24,12c1.104,0,2-0.896,2-2s-0.896-2-2-2s-2,0.896-2,2S22.896,12,24,12z M36,4c1.104,0,2-0.896,2-2s-0.896-2-2-2
			s-2,0.896-2,2S34.896,4,36,4z M36,16c-1.104,0-2,0.896-2,2s0.896,2,2,2s2-0.896,2-2S37.104,16,36,16z M30,4c-1.104,0-2,0.896-2,2
			s0.896,2,2,2s2-0.896,2-2S31.104,4,30,4z M20,17.365V5c0-1.657-1.343-3-3-3h-6C9.343,2,8,3.343,8,5v12.365
			C3.274,19.614,0,24.418,0,30v2v11v11c0,1.104,0.896,2,2,2h24c1.104,0,2-0.896,2-2V43V32v-2C28,24.418,24.726,19.614,20,17.365z
			 M10,4h8v4c-1.104,0-2,0.896-2,2s0.896,2,2,2v4.588C16.731,16.21,15.391,16,14,16s-2.731,0.21-4,0.588V4z M26,54H2V30
			c0-6.627,5.373-12,12-12s12,5.373,12,12V54z M36,8c-1.104,0-2,0.896-2,2s0.896,2,2,2s2-0.896,2-2S37.104,8,36,8z M30,12
			c-1.104,0-2,0.896-2,2s0.896,2,2,2s2-0.896,2-2S31.104,12,30,12z"/>
	</g>
</g>
<g>
</g>
<g>
</g>
<g>
</g>
<g>
</g>
<g>
</g>
<g>
</g>
<g>
</g>
<g>
</g>
<g>
</g>
<g>
</g>
<g>
</g>
<g>
</g>
<g>
</g>
<g>
</g>
<g>
</g>
</svg>
