<?xml version="1.0" encoding="iso-8859-1"?>
<!-- Generator: Adobe Illustrator 16.0.4, SVG Export Plug-In . SVG Version: 6.00 Build 0)  -->
<!DOCTYPE svg PUBLIC "-//W3C//DTD SVG 1.1//EN" "http://www.w3.org/Graphics/SVG/1.1/DTD/svg11.dtd">
<svg version="1.1" id="Layer_1" xmlns="http://www.w3.org/2000/svg" xmlns:xlink="http://www.w3.org/1999/xlink" x="0px" y="0px"
	 width="36px" height="56px" viewBox="0 0 36 56" style="enable-background:new 0 0 36 56;" xml:space="preserve">
<g id="_x39_23-spray-can_x40_2x.png">
	<g>
		<path d="M35,0c-0.116,0-0.224,0.03-0.327,0.066l-0.003-0.01l-20,7l0.003,0.01C14.283,7.202,14,7.563,14,8
			c0,0.406,0.244,0.752,0.592,0.908L14.59,8.912l0.021,0.01h0.001l19.979,8.99l0.002-0.004C34.717,17.965,34.854,18,35,18
			c0.553,0,1-0.447,1-1V1C36,0.447,35.553,0,35,0z M34,15.453L17.695,8.116L34,2.409V15.453z M12,11V8c0-0.552-0.447-1-1-1
			s-1,0.448-1,1v3H9l-9,6v1v36c0,1.104,0.896,2,2,2h18c1.104,0,2-0.896,2-2V18v-1l-9-6H12z M20,40h-6V26h6V40z M20,24h-7
			c-0.553,0-1,0.448-1,1v16c0,0.553,0.447,1,1,1h7v12H2V18l7.344-5h3.312L20,18V24z"/>
	</g>
</g>
<g>
</g>
<g>
</g>
<g>
</g>
<g>
</g>
<g>
</g>
<g>
</g>
<g>
</g>
<g>
</g>
<g>
</g>
<g>
</g>
<g>
</g>
<g>
</g>
<g>
</g>
<g>
</g>
<g>
</g>
</svg>
