<?xml version="1.0" encoding="UTF-8" standalone="no"?>
<svg width="57px" height="50px" viewBox="0 0 57 50" version="1.1" xmlns="http://www.w3.org/2000/svg" xmlns:xlink="http://www.w3.org/1999/xlink" xmlns:sketch="http://www.bohemiancoding.com/sketch/ns">
    <!-- Generator: Sketch 3.0.4 (8053) - http://www.bohemiancoding.com/sketch -->
    <title>1108-spread</title>
    <desc>Created with Sketch.</desc>
    <defs></defs>
    <g id="Page-1" stroke="none" stroke-width="1" fill="none" fill-rule="evenodd" sketch:type="MSPage">
        <g id="Glyphish-8-Icons" sketch:type="MSArtboardGroup" transform="translate(-692.000000, -23.000000)" fill="#000000">
            <g id="1108-spread" sketch:type="MSLayerGroup" transform="translate(692.036996, 23.860499)">
                <g id="_x31_108-spread_x40_2x.png" sketch:type="MSShapeGroup">
                    <path d="M8.986,30.112 C8.719,30.041 8.449,30.085 8.227,30.213 L5.42,31.833 L8.418,20.642 C8.561,20.109 8.244,19.561 7.711,19.417 C7.178,19.274 6.629,19.591 6.486,20.124 L3.487,31.316 L1.866,28.507 C1.738,28.285 1.525,28.112 1.259,28.041 C0.726,27.898 0.177,28.215 0.034,28.748 C-0.037,29.016 0.006,29.286 0.135,29.508 L2.963,34.406 C3.091,34.628 3.303,34.801 3.57,34.872 C3.837,34.943 4.107,34.9 4.328,34.772 L9.227,31.943 C9.449,31.815 9.622,31.603 9.693,31.337 C9.837,30.803 9.52,30.255 8.986,30.112 L8.986,30.112 Z M16.423,6.223 C16.494,5.956 16.451,5.686 16.323,5.464 L13.494,0.565 C13.366,0.343 13.154,0.17 12.888,0.099 C12.62,0.028 12.35,0.072 12.129,0.2 L7.229,3.028 C7.007,3.156 6.834,3.368 6.763,3.635 C6.621,4.168 6.938,4.716 7.471,4.86 C7.738,4.931 8.008,4.887 8.23,4.759 L11.039,3.138 L8.039,14.33 C7.896,14.863 8.213,15.411 8.746,15.555 C9.279,15.698 9.828,15.381 9.971,14.848 L12.97,3.656 L14.591,6.465 C14.719,6.687 14.932,6.86 15.198,6.931 C15.731,7.073 16.28,6.756 16.423,6.223 L16.423,6.223 Z M55.189,27.847 C55.189,27.846 55.188,27.846 55.188,27.845 L51.565,14.324 C50.994,12.19 48.8,10.924 46.667,11.496 C45.865,11.711 45.187,12.154 44.682,12.737 C43.75,11.372 42.04,10.665 40.354,11.117 C39.552,11.332 38.874,11.775 38.369,12.358 C37.438,10.993 35.727,10.286 34.041,10.738 C33.332,10.927 32.731,11.308 32.25,11.795 L29.883,2.966 C29.311,0.832 27.117,-0.434 24.984,0.138 C22.85,0.709 21.584,2.903 22.156,5.036 L29.873,33.816 L20.746,31.114 L20.739,31.134 C20.083,30.958 19.38,30.931 18.677,31.119 C16.543,31.69 15.278,33.884 15.849,36.017 C16.149,37.135 16.899,38.005 17.846,38.507 L17.842,38.518 L32.414,46.224 L32.426,46.2 C35.838,47.956 39.879,48.514 43.877,47.443 C52.411,45.156 57.477,36.382 55.189,27.847 L55.189,27.847 Z M43.357,45.511 C39.844,46.452 36.292,45.962 33.302,44.408 L35.049,40.844 L33.269,44.405 L18.775,36.75 L18.777,36.744 C18.303,36.493 17.928,36.058 17.778,35.499 C17.492,34.433 18.126,33.336 19.192,33.05 C19.546,32.955 19.922,32.998 20.28,33.124 L20.3,33.077 L31.066,36.241 L31.066,36.24 C31.225,36.279 31.39,36.294 31.559,36.249 C32.092,36.105 32.409,35.558 32.266,35.024 L24.086,4.517 C23.8,3.452 24.434,2.355 25.5,2.069 C26.567,1.783 27.664,2.417 27.949,3.483 L32.504,20.467 L32.506,20.466 C32.649,20.999 33.197,21.316 33.731,21.173 C34.264,21.029 34.582,20.482 34.438,19.948 L34.438,19.947 L33.144,15.118 C32.858,14.052 33.492,12.955 34.558,12.669 C35.625,12.383 36.722,13.017 37.008,14.083 L38.82,20.845 C38.963,21.378 39.511,21.695 40.045,21.552 C40.579,21.409 40.895,20.861 40.752,20.327 L39.458,15.497 C39.172,14.431 39.805,13.334 40.872,13.048 C41.938,12.762 43.036,13.396 43.321,14.462 L45.133,21.224 L45.134,21.224 C45.277,21.757 45.824,22.074 46.359,21.931 C46.892,21.788 47.209,21.24 47.066,20.706 L45.772,15.877 C45.772,15.877 45.772,15.876 45.771,15.876 C45.486,14.81 46.119,13.713 47.186,13.427 C48.252,13.141 49.349,13.775 49.635,14.841 L53.258,28.364 C55.259,35.833 50.826,43.509 43.357,45.511 L43.357,45.511 Z M46.496,30.176 L49.393,29.4 L45.776,30.369 L46.496,30.176 L46.496,30.176 Z" id="Shape"></path>
                </g>
            </g>
        </g>
    </g>
</svg>