<?xml version="1.0" encoding="iso-8859-1"?>
<!-- Generator: Adobe Illustrator 16.0.4, SVG Export Plug-In . SVG Version: 6.00 Build 0)  -->
<!DOCTYPE svg PUBLIC "-//W3C//DTD SVG 1.1//EN" "http://www.w3.org/Graphics/SVG/1.1/DTD/svg11.dtd">
<svg version="1.1" id="Layer_1" xmlns="http://www.w3.org/2000/svg" xmlns:xlink="http://www.w3.org/1999/xlink" x="0px" y="0px"
	 width="43.763px" height="40.024px" viewBox="0 0 43.763 40.024" style="enable-background:new 0 0 43.763 40.024;"
	 xml:space="preserve">
<g id="_x31_108-spread_x40_2x.png">
	<g>
		<path d="M15.729,6.158c0.071-0.267,0.027-0.537-0.101-0.759L12.801,0.5c-0.128-0.222-0.341-0.394-0.607-0.466
			c-0.267-0.071-0.537-0.027-0.759,0.101L6.536,2.963C6.314,3.091,6.142,3.303,6.069,3.57C5.927,4.104,6.243,4.652,6.777,4.795
			c0.267,0.071,0.537,0.028,0.759-0.1l2.808-1.622l-2.48,9.26c-0.144,0.533,0.173,1.081,0.707,1.225
			c0.533,0.143,1.082-0.174,1.225-0.707l2.481-9.26l1.621,2.809c0.128,0.222,0.34,0.395,0.607,0.466
			C15.038,7.008,15.586,6.691,15.729,6.158z M8.986,26.172c-0.267-0.071-0.537-0.027-0.759,0.101L5.42,27.894l2.48-9.26
			c0.144-0.533-0.173-1.081-0.707-1.225c-0.533-0.143-1.081,0.174-1.225,0.707l-2.48,9.26l-1.622-2.809
			c-0.128-0.222-0.34-0.395-0.606-0.466c-0.534-0.143-1.082,0.174-1.226,0.707c-0.071,0.267-0.027,0.537,0.101,0.759l2.828,4.899
			c0.128,0.222,0.341,0.395,0.607,0.466s0.537,0.028,0.759-0.101l4.898-2.828c0.222-0.128,0.395-0.34,0.467-0.607
			C9.837,26.863,9.521,26.315,8.986,26.172z M43.367,25.542c-0.61-2.277-2.458-9.173-2.458-9.173c-0.429-1.6-2.073-2.55-3.674-2.121
			c-0.382,0.103-0.723,0.277-1.021,0.501c-0.664-1.144-2.022-1.756-3.36-1.397c-0.382,0.103-0.724,0.277-1.021,0.501
			c-0.663-1.144-2.022-1.756-3.36-1.397c-0.341,0.091-0.644,0.247-0.918,0.437L25.65,7.258c-0.522-1.6-2.074-2.55-3.675-2.121
			c-1.6,0.429-2.55,2.074-2.121,3.675l5.229,18.499l-6.154-3.065c0,0-0.861-0.426-1.972-0.128c-1.601,0.43-2.441,2.049-2.121,3.675
			c0.119,0.606,0.735,1.306,0.735,1.306l8.247,7.232c2.807,3.028,7.15,4.442,11.415,3.3C41.37,37.986,45.012,31.678,43.367,25.542z
			 M34.717,37.698c-6.343,1.369-9.198-2.495-9.198-2.495L16.9,27.539c-0.053-0.083-0.105-0.166-0.132-0.265
			c-0.144-0.534,0.174-1.082,0.707-1.226c0.43-0.115,0.794,0.091,0.791,0.128l7.986,4.11c0,0,0.317,0.293,0.824,0.141
			c0.528-0.159,0.85-0.691,0.707-1.225L21.786,8.294c-0.143-0.534,0.174-1.082,0.707-1.226c0.534-0.143,1.145,0.174,1.288,0.707
			l3.605,12.217c0.143,0.533,0.691,0.85,1.225,0.707c0.533-0.144,0.851-0.691,0.707-1.225l-1.035-3.864
			c-0.143-0.533,0.174-1.082,0.707-1.225s1.082,0.174,1.225,0.707l1.553,5.796c0.144,0.533,0.691,0.85,1.226,0.707
			c0.533-0.143,0.85-0.691,0.707-1.225l-1.035-3.864c-0.144-0.533,0.173-1.081,0.707-1.225c0.533-0.143,1.081,0.174,1.225,0.707
			l1.553,5.796c0.143,0.533,0.691,0.85,1.225,0.707s0.85-0.691,0.707-1.225l-1.035-3.864c-0.143-0.533,0.174-1.081,0.707-1.225
			c0.533-0.143,1.082,0.174,1.225,0.707c0,0,2.403,8.969,2.633,9.823c-0.027-0.1-0.082-0.306-0.175-0.65
			C42.794,31.129,39.847,36.591,34.717,37.698z M43.367,25.541C43.367,25.541,43.367,25.541,43.367,25.541
			C43.597,26.397,43.652,26.604,43.367,25.541z"/>
	</g>
</g>
<g>
</g>
<g>
</g>
<g>
</g>
<g>
</g>
<g>
</g>
<g>
</g>
<g>
</g>
<g>
</g>
<g>
</g>
<g>
</g>
<g>
</g>
<g>
</g>
<g>
</g>
<g>
</g>
<g>
</g>
</svg>
