<?xml version="1.0" encoding="iso-8859-1"?>
<!-- Generator: Adobe Illustrator 16.0.4, SVG Export Plug-In . SVG Version: 6.00 Build 0)  -->
<!DOCTYPE svg PUBLIC "-//W3C//DTD SVG 1.1//EN" "http://www.w3.org/Graphics/SVG/1.1/DTD/svg11.dtd">
<svg version="1.1" id="Layer_1" xmlns="http://www.w3.org/2000/svg" xmlns:xlink="http://www.w3.org/1999/xlink" x="0px" y="0px"
	 width="56px" height="28px" viewBox="0 0 56 28" style="enable-background:new 0 0 56 28;" xml:space="preserve">
<g id="_x39_03-squiggle_x40_2x.png">
	<g>
		<path d="M55.707,16.293l-6-6C49.526,10.112,49.276,10,49,10c-0.553,0-1,0.448-1,1c0,0.276,0.112,0.526,0.293,0.707L52.586,16H51
			h-2.022H45c-1.657,0-3-1.343-3-3V9.022V8V6h-0.121C41.946,5.676,42,5.345,42,5c0-2.762-2.238-5-5-5s-5,2.238-5,5v14.022V23
			c0,1.657-1.343,3-3,3s-3-1.343-3-3v-3.978V5c0-2.762-2.238-5-5-5s-5,2.238-5,5v14.022V23c0,1.657-1.343,3-3,3s-3-1.343-3-3v-3.978
			V17c0-2.762-2.238-5-5-5H1c-0.553,0-1,0.448-1,1c0,0.553,0.447,1,1,1h0.022H5c1.657,0,3,1.343,3,3v3.978V23c0,2.762,2.238,5,5,5
			s5-2.238,5-5V8.978V5c0-1.656,1.343-3,3-3s3,1.344,3,3v3.978V23c0,2.762,2.238,5,5,5s5-2.238,5-5V10V8.978V5c0-1.656,1.343-3,3-3
			s3,1.344,3,3v1v2.978V13c0,2.762,2.238,5,5,5h7.586l-4.293,4.293C48.112,22.474,48,22.724,48,23c0,0.553,0.447,1,1,1
			c0.276,0,0.526-0.112,0.707-0.293l6-6C55.888,17.526,56,17.276,56,17S55.888,16.474,55.707,16.293z"/>
	</g>
</g>
<g>
</g>
<g>
</g>
<g>
</g>
<g>
</g>
<g>
</g>
<g>
</g>
<g>
</g>
<g>
</g>
<g>
</g>
<g>
</g>
<g>
</g>
<g>
</g>
<g>
</g>
<g>
</g>
<g>
</g>
</svg>
