<?xml version="1.0" encoding="iso-8859-1"?>
<!-- Generator: Adobe Illustrator 16.0.4, SVG Export Plug-In . SVG Version: 6.00 Build 0)  -->
<!DOCTYPE svg PUBLIC "-//W3C//DTD SVG 1.1//EN" "http://www.w3.org/Graphics/SVG/1.1/DTD/svg11.dtd">
<svg version="1.1" id="Layer_1" xmlns="http://www.w3.org/2000/svg" xmlns:xlink="http://www.w3.org/1999/xlink" x="0px" y="0px"
	 width="44px" height="24px" viewBox="0 0 44 24" style="enable-background:new 0 0 44 24;" xml:space="preserve">
<g id="_x39_03-squiggle-toolbar_x40_2x.png">
	<g>
		<path d="M43.707,13.293l-4-4C39.526,9.112,39.276,9,39,9c-0.553,0-1,0.447-1,1c0,0.276,0.112,0.526,0.293,0.707L40.586,13H40h-4
			c-1.104,0-2-0.896-2-2V7V4c0-2.209-1.791-4-4-4s-4,1.791-4,4v13.294V20c0,1.104-0.896,2-2,2s-2-0.896-2-2v-5V4
			c0-2.209-1.791-4-4-4s-4,1.791-4,4v12.555V20c0,1.104-0.896,2-2,2s-2-0.896-2-2v-3.445v-2.554C10,14,10,14,10,14
			c0-2.209-1.791-4-4-4H1c-0.553,0-1,0.448-1,1c0,0.553,0.447,1,1,1h1h0.555H6c1.104,0,2,0.896,2,2v3.445V18v2c0,2.209,1.791,4,4,4
			s4-1.791,4-4V9V7.445V4c0-1.104,0.896-2,2-2s2,0.896,2,2v3.445V20c0,2.209,1.791,4,4,4s4-1.791,4-4V9V7.445V4c0-1.104,0.896-2,2-2
			s2,0.896,2,2v3.445V11c0,2.209,1.791,4,4,4h4.586l-2.293,2.293C38.112,17.474,38,17.724,38,18c0,0.553,0.447,1,1,1
			c0.276,0,0.526-0.112,0.707-0.293l4-4C43.888,14.526,44,14.276,44,14S43.888,13.474,43.707,13.293z"/>
	</g>
</g>
<g>
</g>
<g>
</g>
<g>
</g>
<g>
</g>
<g>
</g>
<g>
</g>
<g>
</g>
<g>
</g>
<g>
</g>
<g>
</g>
<g>
</g>
<g>
</g>
<g>
</g>
<g>
</g>
<g>
</g>
</svg>
