<?xml version="1.0" encoding="iso-8859-1"?>
<!-- Generator: Adobe Illustrator 16.0.4, SVG Export Plug-In . SVG Version: 6.00 Build 0)  -->
<!DOCTYPE svg PUBLIC "-//W3C//DTD SVG 1.1//EN" "http://www.w3.org/Graphics/SVG/1.1/DTD/svg11.dtd">
<svg version="1.1" id="Layer_1" xmlns="http://www.w3.org/2000/svg" xmlns:xlink="http://www.w3.org/1999/xlink" x="0px" y="0px"
	 width="44px" height="20px" viewBox="0 0 44 20" style="enable-background:new 0 0 44 20;" xml:space="preserve">
<g id="_x38_31-stack-2-toolbar_x40_2x.png">
	<g>
		<path d="M1,12h42c0.553,0,1-0.447,1-1c0-0.248-0.1-0.468-0.25-0.643l0.01-0.008l-0.037-0.033
			c-0.017-0.019-0.035-0.032-0.054-0.049L32.76,0.35l-0.01,0.008C32.567,0.144,32.304,0,32,0H12c-0.304,0-0.567,0.144-0.75,0.357
			L11.241,0.35l-10.91,9.918c-0.018,0.017-0.036,0.03-0.053,0.049L0.241,10.35l0.009,0.008C0.1,10.532,0,10.752,0,11
			C0,11.553,0.448,12,1,12z M12.375,2h19.25l8.8,8H3.575L12.375,2z M43,14H1c-0.552,0-1,0.448-1,1c0,0.553,0.448,1,1,1h42
			c0.553,0,1-0.447,1-1C44,14.448,43.553,14,43,14z M43,18H1c-0.552,0-1,0.447-1,1s0.448,1,1,1h42c0.553,0,1-0.447,1-1
			S43.553,18,43,18z"/>
	</g>
</g>
<g>
</g>
<g>
</g>
<g>
</g>
<g>
</g>
<g>
</g>
<g>
</g>
<g>
</g>
<g>
</g>
<g>
</g>
<g>
</g>
<g>
</g>
<g>
</g>
<g>
</g>
<g>
</g>
<g>
</g>
</svg>
