<?xml version="1.0" encoding="iso-8859-1"?>
<!-- Generator: Adobe Illustrator 16.0.4, SVG Export Plug-In . SVG Version: 6.00 Build 0)  -->
<!DOCTYPE svg PUBLIC "-//W3C//DTD SVG 1.1//EN" "http://www.w3.org/Graphics/SVG/1.1/DTD/svg11.dtd">
<svg version="1.1" id="Layer_1" xmlns="http://www.w3.org/2000/svg" xmlns:xlink="http://www.w3.org/1999/xlink" x="0px" y="0px"
	 width="56px" height="24px" viewBox="0 0 56 24" style="enable-background:new 0 0 56 24;" xml:space="preserve">
<g id="_x38_31-stack-2_x40_2x.png">
	<g>
		<path d="M55,22H1c-0.552,0-1,0.447-1,1s0.448,1,1,1h54c0.553,0,1-0.447,1-1S55.553,22,55,22z M55,18H1c-0.552,0-1,0.448-1,1
			c0,0.553,0.448,1,1,1h54c0.553,0,1-0.447,1-1C56,18.448,55.553,18,55,18z M1,16h54c0.553,0,1-0.447,1-1
			c0-0.248-0.1-0.468-0.25-0.643l0.009-0.008l-12-14L43.75,0.357C43.566,0.144,43.304,0,43,0H13c-0.304,0-0.567,0.144-0.75,0.357
			L12.241,0.35l-12,14l0.009,0.008C0.1,14.532,0,14.752,0,15C0,15.553,0.448,16,1,16z M13.46,2h29.08l10.286,12H3.174L13.46,2z"/>
	</g>
</g>
<g>
</g>
<g>
</g>
<g>
</g>
<g>
</g>
<g>
</g>
<g>
</g>
<g>
</g>
<g>
</g>
<g>
</g>
<g>
</g>
<g>
</g>
<g>
</g>
<g>
</g>
<g>
</g>
<g>
</g>
</svg>
