<?xml version="1.0" encoding="iso-8859-1"?>
<!-- Generator: Adobe Illustrator 16.0.4, SVG Export Plug-In . SVG Version: 6.00 Build 0)  -->
<!DOCTYPE svg PUBLIC "-//W3C//DTD SVG 1.1//EN" "http://www.w3.org/Graphics/SVG/1.1/DTD/svg11.dtd">
<svg version="1.1" id="Layer_1" xmlns="http://www.w3.org/2000/svg" xmlns:xlink="http://www.w3.org/1999/xlink" x="0px" y="0px"
	 width="44px" height="32px" viewBox="0 0 44 32" style="enable-background:new 0 0 44 32;" xml:space="preserve">
<g id="_x38_32-stack-1-toolbar_x40_2x.png">
	<g>
		<path d="M0.499,11.846L0.49,11.86l0.102,0.048c0.011,0.006,0.021,0.012,0.033,0.017L21.49,21.86l0.009-0.015
			C21.648,21.936,21.813,22,22,22s0.352-0.064,0.501-0.154l0.009,0.015l20.865-9.936c0.012-0.005,0.022-0.011,0.033-0.017
			l0.102-0.048l-0.009-0.015C43.794,11.672,44,11.365,44,11s-0.206-0.671-0.499-0.846l0.009-0.015l-0.102-0.048
			c-0.011-0.006-0.021-0.011-0.032-0.016L22.51,0.14l-0.009,0.015C22.352,0.065,22.187,0,22,0s-0.352,0.065-0.501,0.154L21.49,0.14
			L0.624,10.076c-0.011,0.005-0.021,0.01-0.032,0.016L0.49,10.14l0.009,0.015C0.206,10.329,0,10.635,0,11S0.206,11.672,0.499,11.846
			z M22,2.104L40.684,11L22,19.897L3.316,11L22,2.104z M43,20c-0.187,0-0.352,0.065-0.501,0.154L42.49,20.14L22,29.897L1.51,20.14
			l-0.009,0.015C1.352,20.065,1.187,20,1,20c-0.553,0-1,0.448-1,1c0,0.365,0.206,0.672,0.499,0.846L0.49,21.86l0.101,0.048
			c0.012,0.006,0.022,0.012,0.034,0.017L21.49,31.86l0.009-0.015C21.648,31.936,21.813,32,22,32s0.352-0.064,0.501-0.154
			l0.009,0.015l20.865-9.936c0.012-0.005,0.022-0.011,0.034-0.017l0.101-0.048l-0.009-0.015C43.794,21.672,44,21.365,44,21
			C44,20.448,43.553,20,43,20z M43,15c-0.187,0-0.352,0.065-0.501,0.154L42.49,15.14L22,24.897L1.51,15.14l-0.009,0.015
			C1.352,15.065,1.187,15,1,15c-0.553,0-1,0.447-1,1c0,0.366,0.206,0.672,0.499,0.846L0.49,16.86l0.102,0.049
			c0.012,0.005,0.021,0.011,0.032,0.015L21.49,26.86l0.009-0.015C21.648,26.936,21.813,27,22,27s0.352-0.064,0.501-0.154
			l0.009,0.015l20.866-9.937c0.011-0.004,0.021-0.01,0.032-0.015l0.102-0.049l-0.009-0.015C43.794,16.672,44,16.366,44,16
			C44,15.447,43.553,15,43,15z"/>
	</g>
</g>
<g>
</g>
<g>
</g>
<g>
</g>
<g>
</g>
<g>
</g>
<g>
</g>
<g>
</g>
<g>
</g>
<g>
</g>
<g>
</g>
<g>
</g>
<g>
</g>
<g>
</g>
<g>
</g>
<g>
</g>
</svg>
