<?xml version="1.0" encoding="iso-8859-1"?>
<!-- Generator: Adobe Illustrator 16.0.4, SVG Export Plug-In . SVG Version: 6.00 Build 0)  -->
<!DOCTYPE svg PUBLIC "-//W3C//DTD SVG 1.1//EN" "http://www.w3.org/Graphics/SVG/1.1/DTD/svg11.dtd">
<svg version="1.1" id="Layer_1" xmlns="http://www.w3.org/2000/svg" xmlns:xlink="http://www.w3.org/1999/xlink" x="0px" y="0px"
	 width="56px" height="44px" viewBox="0 0 56 44" style="enable-background:new 0 0 56 44;" xml:space="preserve">
<g id="_x38_32-stack-1_x40_2x.png">
	<g>
		<path d="M0.499,17.846L0.49,17.86l27,16l0.009-0.015C27.648,33.936,27.813,34,28,34s0.352-0.064,0.501-0.154l0.009,0.015l27-16
			l-0.009-0.015C55.794,17.672,56,17.365,56,17s-0.206-0.671-0.499-0.846l0.009-0.015l-27-16l-0.009,0.015
			C28.352,0.065,28.187,0,28,0s-0.352,0.065-0.501,0.154L27.49,0.14l-27,16l0.009,0.015C0.206,16.329,0,16.635,0,17
			S0.206,17.672,0.499,17.846z M28,2.162L53.038,17L28,31.838L2.962,17L28,2.162z M55,21c-0.187,0-0.352,0.065-0.501,0.154
			L54.49,21.14L28,36.838L1.51,21.14l-0.009,0.015C1.352,21.065,1.187,21,1,21c-0.553,0-1,0.447-1,1
			c0,0.366,0.206,0.672,0.499,0.846L0.49,22.86l27,16l0.009-0.015C27.648,38.936,27.813,39,28,39s0.352-0.064,0.501-0.154
			l0.009,0.015l27-16l-0.009-0.015C55.794,22.672,56,22.366,56,22C56,21.447,55.553,21,55,21z M55,26
			c-0.187,0-0.352,0.065-0.501,0.154L54.49,26.14L28,41.838L1.51,26.14l-0.009,0.015C1.352,26.065,1.187,26,1,26
			c-0.553,0-1,0.448-1,1c0,0.365,0.206,0.672,0.499,0.846L0.49,27.86l27,16l0.009-0.015C27.648,43.936,27.813,44,28,44
			s0.352-0.064,0.501-0.154l0.009,0.015l27-16l-0.009-0.015C55.794,27.672,56,27.365,56,27C56,26.448,55.553,26,55,26z"/>
	</g>
</g>
<g>
</g>
<g>
</g>
<g>
</g>
<g>
</g>
<g>
</g>
<g>
</g>
<g>
</g>
<g>
</g>
<g>
</g>
<g>
</g>
<g>
</g>
<g>
</g>
<g>
</g>
<g>
</g>
<g>
</g>
</svg>
