<?xml version="1.0" encoding="iso-8859-1"?>
<!-- Generator: Adobe Illustrator 16.0.4, SVG Export Plug-In . SVG Version: 6.00 Build 0)  -->
<!DOCTYPE svg PUBLIC "-//W3C//DTD SVG 1.1//EN" "http://www.w3.org/Graphics/SVG/1.1/DTD/svg11.dtd">
<svg version="1.1" id="Layer_1" xmlns="http://www.w3.org/2000/svg" xmlns:xlink="http://www.w3.org/1999/xlink" x="0px" y="0px"
	 width="44.011px" height="44.011px" viewBox="0 0 44.011 44.011" style="enable-background:new 0 0 44.011 44.011;"
	 xml:space="preserve">
<g id="_x38_21-stamp-toolbar_x40_2x.png">
	<g>
		<path d="M36.565,14.511c0.785-0.8,1.282-1.867,1.391-3.048l-3.698,3.698c0.094,0.106,0.203,0.199,0.335,0.258v0.001l-0.061,0.06
			c0.869,0.523,1.47,1.442,1.47,2.531s-0.601,2.009-1.47,2.531l0.061,0.061C34.245,20.76,34,21.105,34,21.511
			c0,0.406,0.244,0.752,0.592,0.909l-0.061,0.06c0.869,0.523,1.47,1.442,1.47,2.531s-0.601,2.009-1.47,2.531l0.061,0.061
			C34.245,27.759,34,28.104,34,28.511s0.244,0.752,0.592,0.908l-0.061,0.061c0.869,0.523,1.47,1.442,1.47,2.531
			s-0.601,2.009-1.47,2.531l0.061,0.061C34.245,34.759,34,35.104,34,35.511s0.244,0.752,0.592,0.908l-0.061,0.061
			C35.401,37.003,36,37.923,36,39.012c0,1.657-1.343,3-3,3c-1.089,0-2.008-0.601-2.531-1.47l-0.061,0.061
			c-0.156-0.348-0.502-0.592-0.908-0.592s-0.752,0.244-0.908,0.592l-0.061-0.061c-0.522,0.869-1.442,1.47-2.531,1.47
			s-2.008-0.601-2.531-1.47l-0.061,0.061c-0.156-0.348-0.502-0.592-0.908-0.592s-0.751,0.244-0.908,0.592l-0.061-0.061
			c-0.523,0.869-1.442,1.47-2.531,1.47s-2.008-0.601-2.531-1.47l-0.06,0.061c-0.157-0.348-0.503-0.592-0.909-0.592
			s-0.751,0.244-0.908,0.592l-0.061-0.061c-0.523,0.869-1.442,1.47-2.531,1.47s-2.008-0.601-2.531-1.47l-0.06,0.061
			c-0.157-0.348-0.503-0.592-0.909-0.592s-0.751,0.244-0.908,0.592l-0.06-0.06c-0.523,0.868-1.442,1.468-2.531,1.468
			c-1.657,0-3-1.343-3-3c0-1.088,0.6-2.008,1.468-2.531l-0.06-0.061C3.756,36.263,4,35.917,4,35.511s-0.244-0.752-0.591-0.908
			l0.061-0.061c-0.869-0.523-1.469-1.442-1.469-2.531c0-1.088,0.6-2.008,1.468-2.531l-0.06-0.061C3.756,29.263,4,28.917,4,28.511
			s-0.244-0.752-0.591-0.908l0.06-0.061c-0.869-0.523-1.468-1.442-1.468-2.531c0-1.088,0.6-2.008,1.468-2.531l-0.06-0.06
			C3.756,22.263,4,21.917,4,21.511c0-0.405-0.244-0.751-0.591-0.908l0.06-0.061c-0.869-0.523-1.468-1.442-1.468-2.531
			c0-1.088,0.6-2.008,1.468-2.531l-0.06-0.06v-0.001C3.756,15.263,4,14.917,4,14.511s-0.244-0.752-0.591-0.908l0.06-0.061
			c-0.869-0.523-1.468-1.442-1.468-2.531c0-1.656,1.343-3,3-3c1.089,0,2.008,0.6,2.531,1.469l0.06-0.061
			c0.156,0.348,0.502,0.592,0.908,0.592s0.752-0.244,0.909-0.592L9.47,9.479C9.993,8.611,10.912,8.011,12,8.011
			s2.008,0.601,2.531,1.469l0.061-0.061c0.156,0.348,0.502,0.592,0.908,0.592s0.752-0.244,0.909-0.592l0.061,0.061
			C16.993,8.611,17.912,8.011,19,8.011s2.008,0.601,2.531,1.469l0.06-0.061c0.157,0.348,0.502,0.592,0.909,0.592
			s0.752-0.244,0.908-0.592l0.061,0.061C23.993,8.611,24.912,8.011,26,8.011s2.008,0.601,2.531,1.469l0.061-0.061
			c0.059,0.132,0.152,0.241,0.258,0.335l3.698-3.698C31.368,6.164,30.3,6.66,29.5,7.445C28.598,6.56,27.365,6.011,26,6.011
			s-2.598,0.549-3.5,1.436C21.599,6.56,20.365,6.011,19,6.011s-2.598,0.549-3.5,1.435C14.599,6.56,13.365,6.011,12,6.011
			s-2.598,0.55-3.5,1.436C8.498,7.444,8.496,7.442,8.494,7.44c-0.45-0.439-0.979-0.797-1.569-1.043
			C6.887,6.382,6.846,6.376,6.808,6.36C6.546,6.259,6.279,6.169,5.999,6.111C5.758,6.062,5.507,6.05,5.256,6.037
			C5.169,6.032,5.088,6.011,5,6.011c-2.761,0-5,2.238-5,5c0,0.185,0.035,0.359,0.055,0.539c0.017,0.152,0.016,0.311,0.046,0.458
			c0.063,0.312,0.159,0.61,0.277,0.898c0.003,0.009,0.005,0.019,0.009,0.028c0.247,0.592,0.606,1.125,1.049,1.576
			C0.55,15.413,0,16.646,0,18.011s0.55,2.598,1.436,3.5C0.55,22.413,0,23.646,0,25.011s0.55,2.598,1.435,3.5
			C0.55,29.413,0,30.646,0,32.011s0.55,2.599,1.436,3.5c-0.885,0.902-1.435,2.137-1.435,3.5c0,2.762,2.238,5,5,5
			c1.364,0,2.598-0.549,3.5-1.436c0.902,0.886,2.136,1.436,3.5,1.436c1.364,0,2.598-0.55,3.5-1.436
			c0.902,0.886,2.136,1.436,3.5,1.436s2.598-0.55,3.5-1.436c0.902,0.886,2.136,1.436,3.5,1.436s2.598-0.55,3.5-1.436
			c0.902,0.886,2.136,1.436,3.5,1.436c2.762,0,5-2.239,5-5.001c0-1.363-0.55-2.598-1.436-3.499c0.886-0.902,1.436-2.136,1.436-3.5
			s-0.55-2.598-1.436-3.5c0.886-0.902,1.436-2.136,1.436-3.5s-0.55-2.598-1.436-3.5c0.886-0.902,1.436-2.136,1.436-3.5
			S37.451,15.413,36.565,14.511z M42.591,2.841l-1.42-1.421V0l-3.551,3.551v1.42L26.752,15.839c-0.904-0.508-1.93-0.822-3.038-0.822
			c-1.88,0-3.586,0.837-4.738,2.155c-1.152-1.318-2.81-2.155-4.69-2.155C10.815,15.017,8,17.854,8,21.353
			c0,7.129,8.619,11.088,10.976,13.465C21.333,32.44,30,28.481,30,21.353c0-1.646-0.639-3.133-1.661-4.26L39.041,6.391h1.42
			l3.551-3.55H42.591z M20.367,31.203c-0.497,0.354-0.964,0.688-1.39,1.008c-0.42-0.317-0.881-0.647-1.37-0.998
			c-3.21-2.3-7.606-5.449-7.606-9.86c0-2.391,1.922-4.336,4.286-4.336c1.224,0,2.355,0.522,3.184,1.472l1.505,1.722l1.506-1.722
			c0.817-0.936,1.995-1.472,3.232-1.472c0.55,0,1.071,0.114,1.555,0.306l-5.431,5.431l-1.42-1.42l-1.42,5.681l5.681-1.42l-1.42-1.42
			l5.665-5.665C27.585,19.271,28,20.26,28,21.353C28,25.755,23.588,28.904,20.367,31.203z"/>
	</g>
</g>
<g>
</g>
<g>
</g>
<g>
</g>
<g>
</g>
<g>
</g>
<g>
</g>
<g>
</g>
<g>
</g>
<g>
</g>
<g>
</g>
<g>
</g>
<g>
</g>
<g>
</g>
<g>
</g>
<g>
</g>
</svg>
