<?xml version="1.0" encoding="iso-8859-1"?>
<!-- Generator: Adobe Illustrator 16.0.4, SVG Export Plug-In . SVG Version: 6.00 Build 0)  -->
<!DOCTYPE svg PUBLIC "-//W3C//DTD SVG 1.1//EN" "http://www.w3.org/Graphics/SVG/1.1/DTD/svg11.dtd">
<svg version="1.1" id="Layer_1" xmlns="http://www.w3.org/2000/svg" xmlns:xlink="http://www.w3.org/1999/xlink" x="0px" y="0px"
	 width="44px" height="40px" viewBox="0 0 44 40" style="enable-background:new 0 0 44 40;" xml:space="preserve">
<g id="_x31_031-stamp-toolbar_x40_2x.png">
	<g>
		<path d="M43,34h-1.323l-3.748-9.371l-0.003,0.001C37.778,24.262,37.421,24,37,24h-9c-0.553,0-1,0.447-1,1c0,2.762-2.238,5-5,5
			c-2.761,0-5-2.238-5-5c0-0.553-0.448-1-1-1H7c-0.421,0-0.778,0.262-0.925,0.63l-0.003-0.001L2.323,34H1c-0.552,0-1,0.448-1,1v4
			c0,0.553,0.448,1,1,1h42c0.553,0,1-0.447,1-1v-4C44,34.448,43.553,34,43,34z M7.677,26h7.423c0.489,3.388,3.376,6,6.899,6
			s6.41-2.612,6.899-6h7.424l3.2,8H4.477L7.677,26z M42,38H2v-2h1h38h1V38z M19,15.413V25c0,1.657,1.343,3,3,3c1.657,0,3-1.343,3-3
			v-9.587c2.931-1.188,5-4.057,5-7.413c0-4.418-3.582-8-8-8c-4.418,0-8,3.582-8,8C14,11.356,16.069,14.226,19,15.413z M23,20v2.184
			V25c0,0.553-0.447,1-1,1c-0.552,0-1-0.447-1-1v-5v-4.069C21.328,15.973,21.661,16,22,16c0.34,0,0.672-0.027,1-0.069V20z M22,2
			c3.313,0,6,2.687,6,6s-2.687,6-6,6s-6-2.687-6-6S18.687,2,22,2z"/>
	</g>
</g>
<g>
</g>
<g>
</g>
<g>
</g>
<g>
</g>
<g>
</g>
<g>
</g>
<g>
</g>
<g>
</g>
<g>
</g>
<g>
</g>
<g>
</g>
<g>
</g>
<g>
</g>
<g>
</g>
<g>
</g>
</svg>
