<?xml version="1.0" encoding="iso-8859-1"?>
<!-- Generator: Adobe Illustrator 16.0.4, SVG Export Plug-In . SVG Version: 6.00 Build 0)  -->
<!DOCTYPE svg PUBLIC "-//W3C//DTD SVG 1.1//EN" "http://www.w3.org/Graphics/SVG/1.1/DTD/svg11.dtd">
<svg version="1.1" id="Layer_1" xmlns="http://www.w3.org/2000/svg" xmlns:xlink="http://www.w3.org/1999/xlink" x="0px" y="0px"
	 width="56.011px" height="56.011px" viewBox="0 0 56.011 56.011" style="enable-background:new 0 0 56.011 56.011;"
	 xml:space="preserve">
<g id="_x38_21-stamp_x40_2x.png">
	<g>
		<path d="M50.831,12.838l-1.439,1.439c0.37,0.485,0.61,1.071,0.61,1.733c0,1.089-0.601,2.009-1.47,2.531l0.061,0.061
			C48.245,18.759,48,19.104,48,19.511s0.244,0.752,0.592,0.908l-0.061,0.061c0.869,0.523,1.47,1.442,1.47,2.531
			s-0.601,2.009-1.47,2.531l0.061,0.061C48.245,25.759,48,26.104,48,26.511s0.244,0.752,0.592,0.908l-0.061,0.061
			c0.869,0.523,1.47,1.442,1.47,2.531s-0.601,2.009-1.47,2.531l0.061,0.061C48.245,32.759,48,33.105,48,33.511
			c0,0.406,0.244,0.752,0.592,0.909l-0.061,0.06c0.869,0.523,1.47,1.442,1.47,2.531s-0.601,2.009-1.47,2.531l0.061,0.061
			C48.245,39.759,48,40.104,48,40.511s0.244,0.752,0.592,0.908l-0.061,0.061c0.869,0.523,1.47,1.442,1.47,2.531
			s-0.601,2.009-1.47,2.531l0.061,0.061C48.245,46.759,48,47.104,48,47.511s0.244,0.752,0.592,0.908l-0.061,0.061
			C49.401,49.003,50,49.923,50,51.012c0,1.657-1.343,3-3,3c-1.089,0-2.008-0.601-2.531-1.47l-0.061,0.061
			c-0.156-0.348-0.502-0.592-0.908-0.592s-0.752,0.244-0.908,0.592l-0.061-0.061c-0.522,0.869-1.442,1.47-2.531,1.47
			s-2.008-0.601-2.531-1.47l-0.061,0.061c-0.156-0.348-0.502-0.592-0.908-0.592s-0.752,0.244-0.908,0.592l-0.061-0.061
			c-0.522,0.869-1.442,1.47-2.531,1.47s-2.008-0.601-2.531-1.47l-0.061,0.061c-0.156-0.348-0.502-0.592-0.908-0.592
			s-0.752,0.244-0.908,0.592l-0.061-0.061c-0.522,0.869-1.442,1.47-2.531,1.47s-2.008-0.601-2.531-1.47l-0.06,0.061
			c-0.157-0.348-0.503-0.592-0.909-0.592s-0.752,0.244-0.909,0.592l-0.06-0.061c-0.523,0.869-1.442,1.47-2.531,1.47
			s-2.008-0.601-2.531-1.47l-0.06,0.061c-0.157-0.348-0.503-0.592-0.909-0.592s-0.751,0.244-0.909,0.592l-0.06-0.061
			c-0.523,0.869-1.442,1.47-2.531,1.47s-2.008-0.601-2.531-1.47l-0.06,0.061c-0.157-0.348-0.503-0.592-0.909-0.592
			s-0.751,0.244-0.908,0.592l-0.06-0.06c-0.523,0.868-1.442,1.468-2.531,1.468c-1.657,0-3-1.343-3-3c0-1.088,0.6-2.008,1.468-2.531
			l-0.06-0.061C3.756,48.263,4,47.917,4,47.511s-0.244-0.752-0.591-0.908l0.061-0.061c-0.869-0.523-1.469-1.442-1.469-2.531
			c0-1.088,0.6-2.008,1.468-2.531l-0.06-0.061C3.756,41.263,4,40.917,4,40.511s-0.244-0.752-0.592-0.908l0.061-0.061
			c-0.869-0.523-1.468-1.442-1.468-2.531c0-1.088,0.6-2.008,1.468-2.531l-0.06-0.06C3.756,34.263,4,33.917,4,33.511
			c0-0.405-0.244-0.752-0.591-0.908l0.06-0.061c-0.869-0.523-1.468-1.442-1.468-2.531c0-1.088,0.6-2.008,1.468-2.531l-0.06-0.061
			C3.756,27.263,4,26.917,4,26.511s-0.244-0.752-0.591-0.908l0.061-0.061c-0.869-0.523-1.469-1.442-1.469-2.531
			c0-1.088,0.6-2.008,1.468-2.531l-0.06-0.061C3.756,20.263,4,19.917,4,19.511s-0.244-0.752-0.591-0.908l0.061-0.061
			c-0.869-0.523-1.469-1.442-1.469-2.531c0-1.088,0.6-2.008,1.468-2.531l-0.061-0.061C3.756,13.263,4,12.917,4,12.511
			c0-0.405-0.244-0.752-0.591-0.908l0.06-0.061C2.601,11.019,2.001,10.1,2.001,9.011c0-1.656,1.343-3,3-3
			c1.089,0,2.008,0.6,2.531,1.469l0.06-0.061C7.749,7.767,8.095,8.011,8.5,8.011s0.752-0.244,0.909-0.592l0.06,0.061
			C9.993,6.611,10.912,6.011,12,6.011s2.008,0.601,2.531,1.469l0.06-0.061c0.157,0.348,0.503,0.592,0.909,0.592
			s0.752-0.244,0.909-0.592l0.061,0.061C16.993,6.611,17.912,6.011,19,6.011s2.008,0.601,2.531,1.469l0.06-0.061
			c0.157,0.348,0.503,0.592,0.909,0.592s0.752-0.244,0.909-0.592l0.061,0.061C23.993,6.611,24.912,6.011,26,6.011
			s2.008,0.601,2.531,1.469l0.061-0.061c0.156,0.348,0.502,0.592,0.908,0.592s0.752-0.244,0.908-0.592l0.061,0.061
			C30.993,6.611,31.912,6.011,33,6.011s2.008,0.601,2.531,1.469l0.061-0.061c0.156,0.348,0.502,0.592,0.908,0.592
			s0.752-0.244,0.908-0.592l0.061,0.061C37.993,6.611,38.912,6.011,40,6.011c0.662,0,1.247,0.24,1.733,0.61l1.44-1.44
			c-0.865-0.719-1.961-1.17-3.174-1.17c-1.364,0-2.598,0.549-3.5,1.435C35.598,4.56,34.365,4.011,33,4.011s-2.598,0.549-3.5,1.435
			C28.598,4.56,27.365,4.011,26,4.011s-2.598,0.549-3.5,1.435C21.599,4.56,20.365,4.011,19,4.011s-2.598,0.549-3.5,1.435
			C14.599,4.56,13.365,4.011,12,4.011S9.402,4.56,8.5,5.446C8.499,5.444,8.497,5.443,8.495,5.441c-0.45-0.44-0.98-0.798-1.57-1.044
			C6.889,4.382,6.849,4.377,6.813,4.362C6.55,4.26,6.281,4.169,5.998,4.111c-0.234-0.048-0.48-0.06-0.725-0.073
			C5.181,4.033,5.093,4.011,5,4.011c-2.761,0-5,2.238-5,5c0,0.184,0.035,0.357,0.054,0.537C0.071,9.7,0.07,9.859,0.101,10.008
			c0.063,0.311,0.158,0.609,0.276,0.896c0.004,0.01,0.005,0.021,0.01,0.03c0.247,0.592,0.606,1.125,1.049,1.576
			C0.549,13.413,0,14.647,0,16.011c0,1.364,0.549,2.598,1.435,3.5C0.549,20.413,0,21.646,0,23.011s0.549,2.598,1.435,3.5
			C0.549,27.413,0,28.646,0,30.011s0.549,2.598,1.435,3.5C0.549,34.413,0,35.646,0,37.011s0.549,2.598,1.435,3.5
			C0.549,41.413,0,42.646,0,44.011s0.55,2.599,1.436,3.5c-0.885,0.902-1.435,2.136-1.435,3.5c0,2.762,2.238,5,5,5
			c1.364,0,2.598-0.55,3.5-1.436c0.902,0.886,2.136,1.436,3.5,1.436c1.364,0,2.598-0.55,3.5-1.436
			c0.902,0.886,2.136,1.436,3.5,1.436s2.598-0.55,3.5-1.436c0.902,0.886,2.136,1.436,3.5,1.436s2.598-0.55,3.5-1.436
			c0.902,0.886,2.136,1.436,3.5,1.436s2.598-0.55,3.5-1.436c0.902,0.886,2.136,1.436,3.5,1.436s2.598-0.55,3.5-1.436
			c0.902,0.886,2.136,1.436,3.5,1.436c2.762,0,5-2.239,5-5.001c0-1.363-0.55-2.598-1.436-3.499c0.886-0.902,1.436-2.136,1.436-3.5
			s-0.55-2.598-1.436-3.5c0.886-0.902,1.436-2.136,1.436-3.5s-0.55-2.598-1.436-3.5c0.886-0.902,1.436-2.136,1.436-3.5
			s-0.55-2.598-1.436-3.5c0.886-0.902,1.436-2.136,1.436-3.5s-0.55-2.598-1.436-3.5c0.886-0.902,1.436-2.136,1.436-3.5
			C52,14.798,51.549,13.703,50.831,12.838z M54.591,2.841l-1.42-1.421V0l-3.551,3.55v1.421L35.705,18.887
			c-1.108-0.557-2.366-0.876-3.704-0.876c-2.393,0-4.565,1.014-6.031,2.612c-1.466-1.599-3.576-2.612-5.969-2.612
			c-4.418,0-8,3.438-8,7.68c0,8.641,10.969,13.44,13.969,16.32c3-2.88,14.031-7.68,14.031-16.32c0-2.241-1.007-4.252-2.603-5.656
			L51.041,6.391h1.42l3.551-3.55H54.591z M38,26.011c0,7.467-11.102,12.496-12.031,13.834C25.04,38.507,14,33.502,14,26.011
			c0-3.448,2.834-6.012,6.426-6.012c2.37,0,4.406,1.283,5.543,3.102c1.137-1.818,3.235-3.102,5.605-3.102
			c0.91,0,1.77,0.167,2.549,0.469l-7.286,7.285l-1.42-1.42l-1.42,5.681l5.681-1.42l-1.42-1.42l7.641-7.641
			C37.186,22.614,38,24.18,38,26.011z"/>
	</g>
</g>
<g>
</g>
<g>
</g>
<g>
</g>
<g>
</g>
<g>
</g>
<g>
</g>
<g>
</g>
<g>
</g>
<g>
</g>
<g>
</g>
<g>
</g>
<g>
</g>
<g>
</g>
<g>
</g>
<g>
</g>
</svg>
