<?xml version="1.0" encoding="iso-8859-1"?>
<!-- Generator: Adobe Illustrator 16.0.4, SVG Export Plug-In . SVG Version: 6.00 Build 0)  -->
<!DOCTYPE svg PUBLIC "-//W3C//DTD SVG 1.1//EN" "http://www.w3.org/Graphics/SVG/1.1/DTD/svg11.dtd">
<svg version="1.1" id="Layer_1" xmlns="http://www.w3.org/2000/svg" xmlns:xlink="http://www.w3.org/1999/xlink" x="0px" y="0px"
	 width="56px" height="52px" viewBox="0 0 56 52" style="enable-background:new 0 0 56 52;" xml:space="preserve">
<g id="_x31_031-stamp_x40_2x.png">
	<g>
		<path d="M24,19.162V35c0,2.209,1.791,4,4,4s4-1.791,4-4V19.162c3.53-1.543,6-5.062,6-9.162c0-5.522-4.478-10-10-10
			c-5.523,0-10,4.478-10,10C18,14.1,20.47,17.619,24,19.162z M30,35c0,1.104-0.896,2-2,2s-2-0.896-2-2V19.799
			C26.646,19.931,27.315,20,28,20c0.685,0,1.354-0.069,2-0.201V35z M28,2c4.418,0,8,3.582,8,8s-3.582,8-8,8c-4.418,0-8-3.582-8-8
			S23.582,2,28,2z M55,44h-1.323l-3.748-9.371l-0.003,0.001C49.777,34.262,49.421,34,49,34H35c-0.553,0-1,0.447-1,1
			c0,3.313-2.687,6-6,6s-6-2.687-6-6c0-0.553-0.448-1-1-1H7c-0.421,0-0.778,0.262-0.925,0.63l-0.003-0.001L2.323,44H1
			c-0.552,0-1,0.447-1,1v6c0,0.553,0.448,1,1,1h54c0.553,0,1-0.447,1-1v-6C56,44.447,55.553,44,55,44z M7.677,36h12.392
			c0.493,3.945,3.852,7,7.931,7c4.079,0,7.438-3.055,7.931-7h12.393l3.199,8H4.477L7.677,36z M54,50H2v-4h52V50z"/>
	</g>
</g>
<g>
</g>
<g>
</g>
<g>
</g>
<g>
</g>
<g>
</g>
<g>
</g>
<g>
</g>
<g>
</g>
<g>
</g>
<g>
</g>
<g>
</g>
<g>
</g>
<g>
</g>
<g>
</g>
<g>
</g>
</svg>
