<?xml version="1.0" encoding="UTF-8" standalone="no"?>
<svg width="58px" height="58px" viewBox="0 0 58 58" version="1.1" xmlns="http://www.w3.org/2000/svg" xmlns:xlink="http://www.w3.org/1999/xlink" xmlns:sketch="http://www.bohemiancoding.com/sketch/ns">
    <!-- Generator: Sketch 3.0.4 (8053) - http://www.bohemiancoding.com/sketch -->
    <title>1279-steam</title>
    <desc>Created with Sketch.</desc>
    <defs></defs>
    <g id="Page-1" stroke="none" stroke-width="1" fill="none" fill-rule="evenodd" sketch:type="MSPage">
        <g id="Glyphish-8-Icons" sketch:type="MSArtboardGroup" transform="translate(-788.000000, -1651.000000)" fill="#000000">
            <g id="1279-steam" sketch:type="MSLayerGroup" transform="translate(788.036996, 1651.860499)">
                <g id="_x31_279-steam_x40_2x.png" sketch:type="MSShapeGroup">
                    <path d="M42.587,18.992 C39.608,18.992 37.191,21.357 37.163,24.284 L33.784,30.054 C33.646,30.039 33.506,30.032 33.365,30.032 C32.609,30.032 31.904,30.237 31.298,30.594 L15.994,23.198 C15.594,21.41 13.972,20.063 12.039,20.063 C9.809,20.063 7.99,21.86 7.99,24.056 C7.99,26.252 9.808,28.044 12.039,28.044 C12.794,28.044 13.5,27.84 14.106,27.482 L29.41,34.867 C29.806,36.659 31.429,38.008 33.365,38.008 C35.462,38.008 37.191,36.425 37.391,34.41 L42.586,29.67 C45.579,29.67 48.009,27.281 48.009,24.334 C48.01,21.385 45.581,18.992 42.587,18.992 L42.587,18.992 Z M12.715,22.441 C11.616,22.367 10.665,23.184 10.59,24.266 C10.469,26.006 12.743,26.514 13.527,26.593 C13.577,26.572 13.615,26.554 13.621,26.55 C13.901,26.595 13.808,26.62 13.527,26.593 C13.252,26.709 12.405,27.019 11.861,26.983 C10.219,26.873 8.98,25.472 9.092,23.855 C9.204,22.239 10.626,21.018 12.267,21.128 C13.59,21.218 14.638,22.149 14.942,23.351 C14.075,22.89 13.186,22.474 12.715,22.441 L12.715,22.441 Z M33.123,36.94 C31.801,36.844 30.758,35.909 30.46,34.705 C31.323,35.172 32.211,35.592 32.682,35.626 C33.781,35.705 34.736,34.893 34.817,33.812 C34.946,32.077 32.686,31.556 31.898,31.472 C31.866,31.49 31.828,31.495 31.797,31.514 C31.515,31.466 31.612,31.442 31.898,31.472 C32.389,31.2 32.955,31.045 33.559,31.089 C35.201,31.207 36.433,32.613 36.313,34.23 C36.191,35.846 34.764,37.06 33.123,36.94 L33.123,36.94 Z M42.587,27.909 C40.58,27.909 38.95,26.309 38.95,24.334 C38.95,22.359 40.58,20.753 42.587,20.753 C44.593,20.753 46.223,22.358 46.223,24.334 C46.223,26.31 44.593,27.909 42.587,27.909 L42.587,27.909 Z M42.599,22.14 C41.378,22.14 40.387,23.116 40.387,24.318 C40.387,25.521 41.378,26.497 42.599,26.497 C43.821,26.497 44.811,25.521 44.811,24.318 C44.811,23.115 43.82,22.14 42.599,22.14 L42.599,22.14 Z M28,0 C12.536,0 0,12.536 0,28 C0,43.464 12.536,56 28,56 C43.464,56 56,43.464 56,28 C56,12.536 43.464,0 28,0 L28,0 Z M28,54 C13.641,54 2,42.359 2,28 C2,13.641 13.641,2 28,2 C42.359,2 54,13.641 54,28 C54,42.359 42.359,54 28,54 L28,54 Z" id="Shape"></path>
                </g>
            </g>
        </g>
    </g>
</svg>