<?xml version="1.0" encoding="iso-8859-1"?>
<!-- Generator: Adobe Illustrator 16.0.4, SVG Export Plug-In . SVG Version: 6.00 Build 0)  -->
<!DOCTYPE svg PUBLIC "-//W3C//DTD SVG 1.1//EN" "http://www.w3.org/Graphics/SVG/1.1/DTD/svg11.dtd">
<svg version="1.1" id="Layer_1" xmlns="http://www.w3.org/2000/svg" xmlns:xlink="http://www.w3.org/1999/xlink" x="0px" y="0px"
	 width="44px" height="44px" viewBox="0 0 44 44" style="enable-background:new 0 0 44 44;" xml:space="preserve">
<g id="_x31_279-steam_x40_2x.png">
	<g>
		<path d="M22,0C9.85,0,0,9.85,0,22s9.85,22,22,22s22-9.85,22-22S34.15,0,22,0z M22,42C10.954,42,2,33.046,2,22S10.954,2,22,2
			s20,8.954,20,20S33.046,42,22,42z M32.937,14.986c-2.232,0-4.046,1.741-4.066,3.896l-2.533,4.249
			c-0.104-0.011-0.208-0.017-0.314-0.017c-0.566,0-1.095,0.15-1.55,0.413l-11.475-5.445c-0.3-1.317-1.517-2.31-2.965-2.31
			c-1.673,0-3.036,1.323-3.036,2.941c0,1.617,1.363,2.937,3.036,2.937c0.565,0,1.095-0.15,1.549-0.413l11.476,5.438
			c0.297,1.32,1.514,2.313,2.965,2.313c1.572,0,2.869-1.166,3.02-2.649l3.895-3.491c2.245,0,4.066-1.759,4.066-3.929
			C37.003,16.748,35.182,14.986,32.937,14.986z M10.539,17.526c-0.823-0.055-1.537,0.547-1.593,1.344
			c-0.091,1.279,1.608,1.654,2.198,1.713c0.024-0.011,0.07-0.028,0.074-0.031c0.211,0.034,0.138,0.052-0.074,0.031
			c-0.179,0.077-0.822,0.315-1.246,0.287c-1.23-0.081-2.16-1.112-2.076-2.303c0.085-1.19,1.15-2.089,2.381-2.008
			c0.992,0.065,1.778,0.751,2.006,1.637C11.56,17.855,10.892,17.55,10.539,17.526z M25.841,28.203
			c-0.991-0.07-1.773-0.76-1.997-1.646c0.648,0.344,1.313,0.653,1.667,0.679c0.823,0.059,1.539-0.54,1.6-1.336
			c0.097-1.278-1.597-1.661-2.188-1.724c-0.023,0.013-0.052,0.017-0.075,0.031c-0.211-0.035-0.138-0.054,0.075-0.031
			c0.369-0.2,0.793-0.314,1.246-0.282c1.23,0.088,2.154,1.123,2.064,2.313C28.142,27.396,27.071,28.291,25.841,28.203z
			 M32.937,21.553c-1.504,0-2.726-1.178-2.726-2.633s1.222-2.638,2.726-2.638c1.505,0,2.727,1.183,2.727,2.638
			S34.441,21.553,32.937,21.553z M32.946,17.304c-0.916,0-1.658,0.719-1.658,1.604c0,0.885,0.742,1.604,1.658,1.604
			c0.915,0,1.658-0.719,1.658-1.604C34.604,18.022,33.861,17.304,32.946,17.304z"/>
	</g>
</g>
<g>
</g>
<g>
</g>
<g>
</g>
<g>
</g>
<g>
</g>
<g>
</g>
<g>
</g>
<g>
</g>
<g>
</g>
<g>
</g>
<g>
</g>
<g>
</g>
<g>
</g>
<g>
</g>
<g>
</g>
</svg>
