<?xml version="1.0" encoding="iso-8859-1"?>
<!-- Generator: Adobe Illustrator 16.0.4, SVG Export Plug-In . SVG Version: 6.00 Build 0)  -->
<!DOCTYPE svg PUBLIC "-//W3C//DTD SVG 1.1//EN" "http://www.w3.org/Graphics/SVG/1.1/DTD/svg11.dtd">
<svg version="1.1" id="Layer_1" xmlns="http://www.w3.org/2000/svg" xmlns:xlink="http://www.w3.org/1999/xlink" x="0px" y="0px"
	 width="56px" height="56px" viewBox="0 0 56 56" style="enable-background:new 0 0 56 56;" xml:space="preserve">
<g id="_x31_012-sticky-note_x40_2x.png">
	<g>
		<path d="M54,0H2C0.896,0,0,0.896,0,2v52c0,1.104,0.896,2,2,2h39c0.276,0,0.526-0.111,0.707-0.293l14-14
			C55.888,41.526,56,41.276,56,41V2C56,0.896,55.104,0,54,0z M42,52.586V42h10.586L42,52.586z M54,40H41c-0.553,0-1,0.447-1,1v13H2
			V2h52V40z"/>
	</g>
</g>
<g>
</g>
<g>
</g>
<g>
</g>
<g>
</g>
<g>
</g>
<g>
</g>
<g>
</g>
<g>
</g>
<g>
</g>
<g>
</g>
<g>
</g>
<g>
</g>
<g>
</g>
<g>
</g>
<g>
</g>
</svg>
