<?xml version="1.0" encoding="iso-8859-1"?>
<!-- Generator: Adobe Illustrator 16.0.4, SVG Export Plug-In . SVG Version: 6.00 Build 0)  -->
<!DOCTYPE svg PUBLIC "-//W3C//DTD SVG 1.1//EN" "http://www.w3.org/Graphics/SVG/1.1/DTD/svg11.dtd">
<svg version="1.1" id="Layer_1" xmlns="http://www.w3.org/2000/svg" xmlns:xlink="http://www.w3.org/1999/xlink" x="0px" y="0px"
	 width="40px" height="40px" viewBox="0 0 40 40" style="enable-background:new 0 0 40 40;" xml:space="preserve">
<g id="_x31_012-sticky-note-toolbar_x40_2x.png">
	<g>
		<path d="M38,0H2C0.896,0,0,0.896,0,2v36c0,1.104,0.896,2,2,2h27c0.276,0,0.526-0.111,0.707-0.293l10-10
			C39.888,29.526,40,29.276,40,29V2C40,0.896,39.104,0,38,0z M30,36.586V30h6.586L30,36.586z M38,28h-9c-0.552,0-1,0.447-1,1v9H2V2
			h36V28z"/>
	</g>
</g>
<g>
</g>
<g>
</g>
<g>
</g>
<g>
</g>
<g>
</g>
<g>
</g>
<g>
</g>
<g>
</g>
<g>
</g>
<g>
</g>
<g>
</g>
<g>
</g>
<g>
</g>
<g>
</g>
<g>
</g>
</svg>
