<?xml version="1.0" encoding="iso-8859-1"?>
<!-- Generator: Adobe Illustrator 16.0.4, SVG Export Plug-In . SVG Version: 6.00 Build 0)  -->
<!DOCTYPE svg PUBLIC "-//W3C//DTD SVG 1.1//EN" "http://www.w3.org/Graphics/SVG/1.1/DTD/svg11.dtd">
<svg version="1.1" id="Layer_1" xmlns="http://www.w3.org/2000/svg" xmlns:xlink="http://www.w3.org/1999/xlink" x="0px" y="0px"
	 width="40px" height="44px" viewBox="0 0 40 44" style="enable-background:new 0 0 40 44;" xml:space="preserve">
<g id="_x37_16-stopwatch-1-toolbar_x40_2x.png">
	<g>
		<path d="M21,20.142V11c0-0.552-0.447-1-1-1s-1,0.448-1,1v9.142c-1.723,0.446-3,1.997-3,3.858c0,1.862,1.277,3.413,3,3.858V30
			c0,0.553,0.447,1,1,1s1-0.447,1-1v-2.142c1.723-0.445,3-1.996,3-3.858C24,22.139,22.723,20.588,21,20.142z M35.168,8.247
			c0,0,1.414-1.415,2.121-0.708c0.391,0.391,1.023,0.391,1.414,0c0.391-0.39,0.391-1.023,0-1.414l-2.828-2.828
			c-0.391-0.391-1.023-0.391-1.414,0s-0.391,1.023,0,1.414c0,0,0.707,0.707-0.707,2.121L35.168,8.247z M21,4.051V1
			c0-0.552-0.447-1-1-1s-1,0.448-1,1v3.051C8.422,4.575,0,13.292,0,24c0,11.046,8.954,20,20,20s20-8.954,20-20
			C40,13.292,31.578,4.575,21,4.051z M20,42c-9.941,0-18-8.059-18-18c0-9.94,8.059-18,18-18s18,8.06,18,18
			C38,33.941,29.941,42,20,42z"/>
	</g>
</g>
<g>
</g>
<g>
</g>
<g>
</g>
<g>
</g>
<g>
</g>
<g>
</g>
<g>
</g>
<g>
</g>
<g>
</g>
<g>
</g>
<g>
</g>
<g>
</g>
<g>
</g>
<g>
</g>
<g>
</g>
</svg>
