<?xml version="1.0" encoding="iso-8859-1"?>
<!-- Generator: Adobe Illustrator 16.0.4, SVG Export Plug-In . SVG Version: 6.00 Build 0)  -->
<!DOCTYPE svg PUBLIC "-//W3C//DTD SVG 1.1//EN" "http://www.w3.org/Graphics/SVG/1.1/DTD/svg11.dtd">
<svg version="1.1" id="Layer_1" xmlns="http://www.w3.org/2000/svg" xmlns:xlink="http://www.w3.org/1999/xlink" x="0px" y="0px"
	 width="26px" height="36px" viewBox="0 0 26 36" style="enable-background:new 0 0 26 36;" xml:space="preserve">
<g id="_x31_117-stop-hand-1_x40_2x.png">
	<g>
		<path d="M23,4c-0.395,0-0.771,0.081-1.115,0.22C21.539,2.943,20.385,2,19,2c-0.395,0-0.771,0.081-1.115,0.22
			C17.539,0.943,16.385,0,15,0s-2.539,0.943-2.885,2.22C11.771,2.081,11.396,2,11,2C9.343,2,8,3.343,8,5v13.861l-2.615-3.699
			L5.34,15.194C4.797,14.48,3.968,14,3,14c-1.657,0-3,1.343-3,3c0,0.389,0.08,0.758,0.214,1.098l-0.012,0.006l3.241,9.546
			C4.815,32.468,9.239,36,14.497,36c6.352,0,11.5-5.148,11.503-11.5V7C26,5.343,24.657,4,23,4z M24,9.816v8.2V24.5
			c-0.002,5.247-4.255,9.5-9.502,9.5c-4.235,0-7.82-2.773-9.047-6.602l0.003-0.002l-0.05-0.146c-0.02-0.066-0.027-0.138-0.046-0.205
			L3.434,21.42c-0.002,0.008-0.005,0.015-0.007,0.022l-0.494-1.449c0.005,0,0.009,0.001,0.013,0.001l-0.917-2.682l0.031-0.018
			C2.029,17.2,2,17.104,2,17c0-0.552,0.447-1,1-1c0.304,0,0.566,0.143,0.75,0.357l0.003-0.002l4.488,6.295l0.009-0.007
			C8.434,22.857,8.696,23,9,23c0.553,0,1-0.447,1-1v-5.854v-2.21V7.816V5c0-0.552,0.447-1,1-1s1,0.448,1,1v2.827V15
			c0,0.553,0.447,1,1,1s1-0.447,1-1V5.815V5V3c0-0.552,0.447-1,1-1s1,0.448,1,1v2.815v7.276v2.034V17c0,0.553,0.447,1,1,1
			s1-0.447,1-1v-1.322v-2.12v-5.73V5c0-0.552,0.447-1,1-1s1,0.448,1,1v2.815v6.618v2.332V19c0,0.553,0.447,1,1,1s1-0.447,1-1v-0.316
			v-2.846V9.826V7c0-0.552,0.447-1,1-1s1,0.448,1,1V9.816z"/>
	</g>
</g>
<g>
</g>
<g>
</g>
<g>
</g>
<g>
</g>
<g>
</g>
<g>
</g>
<g>
</g>
<g>
</g>
<g>
</g>
<g>
</g>
<g>
</g>
<g>
</g>
<g>
</g>
<g>
</g>
<g>
</g>
</svg>
