<?xml version="1.0" encoding="UTF-8" standalone="no"?>
<svg width="38px" height="52px" viewBox="0 0 38 52" version="1.1" xmlns="http://www.w3.org/2000/svg" xmlns:xlink="http://www.w3.org/1999/xlink" xmlns:sketch="http://www.bohemiancoding.com/sketch/ns">
    <!-- Generator: Sketch 3.0.4 (8053) - http://www.bohemiancoding.com/sketch -->
    <title>1117-stop-hand-1</title>
    <desc>Created with Sketch.</desc>
    <defs></defs>
    <g id="Page-1" stroke="none" stroke-width="1" fill="none" fill-rule="evenodd" sketch:type="MSPage">
        <g id="Glyphish-8-Icons" sketch:type="MSArtboardGroup" transform="translate(-606.000000, -118.000000)" fill="#000000">
            <g id="1117-stop-hand-1" sketch:type="MSLayerGroup" transform="translate(606.036996, 118.860499)">
                <g id="_x31_117-stop-hand-1_x40_2x.png" sketch:type="MSShapeGroup">
                    <path d="M31.978,8 C31.245,8 30.569,8.216 29.978,8.561 L29.978,8 C29.978,5.791 28.187,4 25.978,4 C25.249,4 24.577,4.215 23.989,4.557 L23.989,4 L23.978,4 C23.978,1.791 22.201,0 20.009,0 C17.817,0 16.04,1.791 16.04,4 L15.995,4 L15.995,4.556 C15.409,4.216 14.741,4 14.016,4 C11.811,4 10.023,5.791 10.023,8 L9.991,8 L9.991,17.006 L10,17 L10,26.913 L7.689,22.456 C6.658,20.384 4.507,19.446 2.467,20.291 C0.428,21.137 -0.54,23.477 0.305,25.518 L4.719,38.638 C4.766,38.791 4.822,38.941 4.872,39.092 L5.142,39.894 L5.163,39.885 C7.505,45.807 13.261,50 20.005,50 C28.826,50 35.978,42.837 35.978,34 L35.978,12 C35.978,9.791 34.187,8 31.978,8 L31.978,8 Z M33.981,34 C33.981,41.732 27.723,48 20.004,48 C14.098,48 9.058,44.323 7.012,39.135 L6.97,39.14 L6.969,39.137 L6.99,39.128 L2.151,24.752 C1.729,23.731 2.213,22.562 3.233,22.139 C4.253,21.716 5.264,22.116 5.843,23.222 L10.087,31.41 L10.098,31.405 C10.253,31.755 10.601,32 11.008,32 C11.561,32 12.008,31.553 12.008,31 L12.008,28 L11.987,28 L11.987,8 L12.018,8 C12.018,6.896 12.912,6 14.014,6 C15.116,6 16.011,6.896 16.011,8 C16.011,8.106 15.995,8.209 15.98,8.311 L15.98,21 L16.011,21 C16.011,21.553 16.457,22 17.009,22 C17.56,22 18.007,21.553 18.007,21 C18.007,20.973 17.993,20.949 17.991,20.923 L17.991,4.154 C17.989,4.103 17.978,4.053 17.978,4 C17.978,2.896 18.874,2 19.978,2 C21.082,2 21.978,2.896 21.978,4 L21.99,4 L21.99,23 L22.003,23 C22.003,23.553 22.45,24 23.001,24 C23.553,24 23.999,23.553 23.999,23 C23.999,22.964 23.982,22.933 23.978,22.896 L23.978,8 C23.978,6.896 24.874,6 25.978,6 C27.082,6 27.978,6.896 27.978,8 L27.978,25 L27.992,25 C27.992,25.553 28.439,26 28.99,26 C29.542,26 29.989,25.553 29.989,25 L29.989,12.103 C29.987,12.069 29.978,12.036 29.978,12 C29.978,10.896 30.874,10 31.978,10 C33.082,10 33.978,10.896 33.978,12 L33.982,12 L33.982,34 L33.981,34 Z" id="Shape"></path>
                </g>
            </g>
        </g>
    </g>
</svg>