<?xml version="1.0" encoding="iso-8859-1"?>
<!-- Generator: Adobe Illustrator 16.0.4, SVG Export Plug-In . SVG Version: 6.00 Build 0)  -->
<!DOCTYPE svg PUBLIC "-//W3C//DTD SVG 1.1//EN" "http://www.w3.org/Graphics/SVG/1.1/DTD/svg11.dtd">
<svg version="1.1" id="Layer_1" xmlns="http://www.w3.org/2000/svg" xmlns:xlink="http://www.w3.org/1999/xlink" x="0px" y="0px"
	 width="52px" height="56px" viewBox="0 0 52 56" style="enable-background:new 0 0 52 56;" xml:space="preserve">
<g id="_x38_40-stopwatch-2_x40_2x.png">
	<g>
		<path d="M26,12c0.553,0,1-0.447,1-1s-0.447-1-1-1s-1,0.447-1,1S25.447,12,26,12z M7,29c-0.553,0-1,0.447-1,1s0.447,1,1,1
			s1-0.447,1-1S7.553,29,7,29z M9.046,38.635C8.567,38.91,8.403,39.521,8.68,40s0.888,0.643,1.366,0.366
			c0.478-0.276,0.642-0.888,0.365-1.366C10.136,38.521,9.523,38.358,9.046,38.635z M35,14.412c0.479,0.275,1.09,0.111,1.366-0.366
			c0.276-0.479,0.112-1.09-0.366-1.366s-1.09-0.112-1.366,0.366C34.357,13.523,34.521,14.136,35,14.412z M10.046,19.634
			C9.567,19.358,8.956,19.521,8.68,20s-0.112,1.09,0.366,1.366c0.478,0.276,1.09,0.112,1.365-0.366
			C10.688,20.521,10.523,19.91,10.046,19.634z M29,4.187V2h1c0.553,0,1-0.447,1-1s-0.447-1-1-1h-8c-0.553,0-1,0.447-1,1s0.447,1,1,1
			h1v2.187C18.07,4.754,13.567,6.7,9.872,9.63l-1.06-1.06c-0.781-0.781-2.047-0.781-2.828,0L4.57,9.984
			c-0.781,0.781-0.781,2.047,0,2.828l1.06,1.061C2.114,18.307,0,23.902,0,30c0,14.359,11.641,26,26,26s26-11.641,26-26
			C52,16.657,41.944,5.676,29,4.187z M25,2h2v2.051C26.666,4.038,26.338,4,26,4s-0.665,0.038-1,0.051V2z M7.398,9.984l0.958,0.958
			c-0.49,0.453-0.961,0.924-1.415,1.414l-0.957-0.958L7.398,9.984z M26,54C12.745,54,2,43.255,2,30S12.745,6,26,6s24,10.745,24,24
			S39.255,54,26,54z M37.313,17.272l-9.294,9.294C27.425,26.215,26.74,26,26,26c-2.209,0-4,1.791-4,4s1.791,4,4,4s4-1.791,4-4
			c0-0.74-0.215-1.425-0.565-2.02l9.293-9.294c0.391-0.391,0.391-1.024,0-1.414C38.338,16.882,37.704,16.882,37.313,17.272z M26,32
			c-1.104,0-2-0.896-2-2s0.896-2,2-2s2,0.896,2,2S27.104,32,26,32z M17,45.589c-0.479-0.276-1.09-0.112-1.366,0.366
			S15.521,47.045,16,47.32c0.479,0.276,1.09,0.112,1.366-0.365C17.643,46.477,17.479,45.864,17,45.589z M41.954,19.634
			c-0.478,0.276-0.642,0.888-0.365,1.366c0.275,0.479,0.888,0.643,1.365,0.366c0.479-0.276,0.643-0.888,0.366-1.366
			S42.433,19.358,41.954,19.634z M42.954,38.635c-0.478-0.276-1.09-0.113-1.365,0.365c-0.276,0.479-0.112,1.09,0.365,1.366
			c0.479,0.276,1.09,0.112,1.366-0.366S43.433,38.91,42.954,38.635z M45,29c-0.553,0-1,0.447-1,1s0.447,1,1,1s1-0.447,1-1
			S45.553,29,45,29z M16,12.68c-0.479,0.276-0.643,0.888-0.366,1.366c0.276,0.478,0.888,0.642,1.366,0.366
			c0.479-0.276,0.643-0.889,0.366-1.366C17.09,12.567,16.479,12.403,16,12.68z M35,45.589c-0.479,0.275-0.643,0.888-0.366,1.366
			c0.276,0.478,0.888,0.642,1.366,0.365c0.479-0.275,0.643-0.887,0.366-1.365S35.479,45.312,35,45.589z M26,48c-0.553,0-1,0.447-1,1
			s0.447,1,1,1s1-0.447,1-1S26.553,48,26,48z"/>
	</g>
</g>
<g>
</g>
<g>
</g>
<g>
</g>
<g>
</g>
<g>
</g>
<g>
</g>
<g>
</g>
<g>
</g>
<g>
</g>
<g>
</g>
<g>
</g>
<g>
</g>
<g>
</g>
<g>
</g>
<g>
</g>
</svg>
