<?xml version="1.0" encoding="iso-8859-1"?>
<!-- Generator: Adobe Illustrator 16.0.4, SVG Export Plug-In . SVG Version: 6.00 Build 0)  -->
<!DOCTYPE svg PUBLIC "-//W3C//DTD SVG 1.1//EN" "http://www.w3.org/Graphics/SVG/1.1/DTD/svg11.dtd">
<svg version="1.1" id="Layer_1" xmlns="http://www.w3.org/2000/svg" xmlns:xlink="http://www.w3.org/1999/xlink" x="0px" y="0px"
	 width="52px" height="56px" viewBox="0 0 52 56" style="enable-background:new 0 0 52 56;" xml:space="preserve">
<g id="_x37_16-stopwatch-1_x40_2x.png">
	<g>
		<path d="M27,27.184V11c0-0.553-0.447-1-1-1s-1,0.447-1,1v16.184c-1.162,0.414-2,1.513-2,2.816c0,1.305,0.838,2.403,2,2.816V36
			c0,0.553,0.447,1,1,1s1-0.447,1-1v-3.184c1.162-0.413,2-1.512,2-2.816C29,28.696,28.162,27.598,27,27.184z M45.168,10.246
			c0,0,1.414-1.414,2.121-0.707c0.391,0.391,1.023,0.391,1.414,0s0.391-1.023,0-1.414l-2.828-2.828
			c-0.391-0.391-1.023-0.391-1.414,0s-0.391,1.023,0,1.414c0,0,0.707,0.707-0.707,2.121L45.168,10.246z M27,4.051V1
			c0-0.552-0.447-1-1-1s-1,0.448-1,1v3.051C11.107,4.58,0,15.979,0,30c0,14.359,11.641,26,26,26s26-11.641,26-26
			C52,15.979,40.893,4.58,27,4.051z M26,54C12.745,54,2,43.255,2,30S12.745,6,26,6s24,10.745,24,24S39.255,54,26,54z"/>
	</g>
</g>
<g>
</g>
<g>
</g>
<g>
</g>
<g>
</g>
<g>
</g>
<g>
</g>
<g>
</g>
<g>
</g>
<g>
</g>
<g>
</g>
<g>
</g>
<g>
</g>
<g>
</g>
<g>
</g>
<g>
</g>
</svg>
