<?xml version="1.0" encoding="iso-8859-1"?>
<!-- Generator: Adobe Illustrator 16.0.4, SVG Export Plug-In . SVG Version: 6.00 Build 0)  -->
<!DOCTYPE svg PUBLIC "-//W3C//DTD SVG 1.1//EN" "http://www.w3.org/Graphics/SVG/1.1/DTD/svg11.dtd">
<svg version="1.1" id="Layer_1" xmlns="http://www.w3.org/2000/svg" xmlns:xlink="http://www.w3.org/1999/xlink" x="0px" y="0px"
	 width="44px" height="40px" viewBox="0 0 44 40" style="enable-background:new 0 0 44 40;" xml:space="preserve">
<g id="_x38_76-store-toolbar_x40_2x.png">
	<g>
		<path d="M40,33l-6.4-4.8l-0.01,0.014C33.423,28.089,33.225,28,33,28H11c-0.225,0-0.423,0.089-0.59,0.214L10.4,28.2L4,33V22H2v16
			c0,1.104,0.896,2,2,2h36c1.104,0,2-0.896,2-2V22h-2V33z M40,38H4v-2.5l7.334-5.5h21.332L40,35.5V38z M43.632,12.242l0.009-0.01
			L33,4.493V1c0-0.552-0.447-1-1-1H12c-0.553,0-1,0.448-1,1v3.493L0.359,12.232l0.009,0.01C0.148,12.426,0,12.691,0,13v4
			c0,0.553,0.447,1,1,1h2c1,0,2,2,4,2s3-2,4-2h2c1,0,2,2,4,2s3-2,4-2h2c1,0,2,2,4,2s3-2,4-2h2c1,0,2,2,4,2s3-2,4-2h2
			c0.553,0,1-0.447,1-1v-4C44,12.691,43.852,12.426,43.632,12.242z M13,2h18v2H13V2z M12.322,6h19.355l8.251,6H4.071L12.322,6z
			 M42,16h-1c-2,0-2,2-4,2s-2-2-4-2h-2c-2,0-2,2-4,2s-2-2-4-2h-2c-2,0-2,2-4,2s-2-2-4-2h-2c-2,0-2,2-4,2s-2-2-4-2H2v-2h40V16z"/>
	</g>
</g>
<g>
</g>
<g>
</g>
<g>
</g>
<g>
</g>
<g>
</g>
<g>
</g>
<g>
</g>
<g>
</g>
<g>
</g>
<g>
</g>
<g>
</g>
<g>
</g>
<g>
</g>
<g>
</g>
<g>
</g>
</svg>
