<?xml version="1.0" encoding="iso-8859-1"?>
<!-- Generator: Adobe Illustrator 16.0.4, SVG Export Plug-In . SVG Version: 6.00 Build 0)  -->
<!DOCTYPE svg PUBLIC "-//W3C//DTD SVG 1.1//EN" "http://www.w3.org/Graphics/SVG/1.1/DTD/svg11.dtd">
<svg version="1.1" id="Layer_1" xmlns="http://www.w3.org/2000/svg" xmlns:xlink="http://www.w3.org/1999/xlink" x="0px" y="0px"
	 width="56px" height="48px" viewBox="0 0 56 48" style="enable-background:new 0 0 56 48;" xml:space="preserve">
<g id="_x38_76-store_x40_2x.png">
	<g>
		<path d="M50,39l-6.4-4.8l-0.01,0.014C43.423,34.089,43.225,34,43,34H13c-0.225,0-0.423,0.089-0.59,0.214L12.4,34.2L6,39V24H4v22
			c0,1.104,0.896,2,2,2h44c1.104,0,2-0.896,2-2V24h-2V39z M50,46H6v-4.5l7.334-5.5h29.332L50,41.5V46z M55.632,14.242l0.009-0.01
			L44,4.531V1c0-0.552-0.447-1-1-1H13c-0.553,0-1,0.448-1,1v3.531L0.359,14.232l0.009,0.01C0.148,14.426,0,14.691,0,15v4
			c0,0.553,0.447,1,1,1h3c1,0,2,2,4,2s3-2,4-2h2c1,0,2,2,4,2s3-2,4-2h2c1,0,2,2,4,2s3-2,4-2h2c1,0,2,2,4,2s3-2,4-2h2c1,0,2,2,4,2
			s3-2,4-2h3c0.553,0,1-0.447,1-1v-4C56,14.691,55.852,14.426,55.632,14.242z M14,2h28v2H14V2z M13.362,6h29.275l9.601,8H3.762
			L13.362,6z M54,18h-2c-2,0-2,2-4,2s-2-2-4-2h-2c-2,0-2,2-4,2s-2-2-4-2h-2c-2,0-2,2-4,2s-2-2-4-2h-2c-2,0-2,2-4,2s-2-2-4-2h-2
			c-2,0-2,2-4,2s-2-2-4-2H2v-2h52V18z"/>
	</g>
</g>
<g>
</g>
<g>
</g>
<g>
</g>
<g>
</g>
<g>
</g>
<g>
</g>
<g>
</g>
<g>
</g>
<g>
</g>
<g>
</g>
<g>
</g>
<g>
</g>
<g>
</g>
<g>
</g>
<g>
</g>
</svg>
