<?xml version="1.0" encoding="iso-8859-1"?>
<!-- Generator: Adobe Illustrator 16.0.4, SVG Export Plug-In . SVG Version: 6.00 Build 0)  -->
<!DOCTYPE svg PUBLIC "-//W3C//DTD SVG 1.1//EN" "http://www.w3.org/Graphics/SVG/1.1/DTD/svg11.dtd">
<svg version="1.1" id="Layer_1" xmlns="http://www.w3.org/2000/svg" xmlns:xlink="http://www.w3.org/1999/xlink" x="0px" y="0px"
	 width="44px" height="44.167px" viewBox="0 0 44 44.167" style="enable-background:new 0 0 44 44.167;" xml:space="preserve">
<g id="_x38_65-storm-cloud-toolbar_x40_2x.png">
	<g>
		<path d="M27.088,28h-5.009l-6,12h3.986l-1.128,4.167L26.084,36l-2.986,0.01L27.088,28z M28.998,6.015
			c-0.071,0-0.14,0.007-0.21,0.008C26.972,2.452,23.271,0,18.99,0C12.918,0,7.995,4.923,7.995,10.996
			c0,1.148,0.178,2.257,0.505,3.298C3.631,15.428,0,19.784,0,24.999C0,31.074,4.925,36,11,36h4c0.553,0,1-0.447,1-1s-0.447-1-1-1
			v-0.014h-4v0.003c-4.966,0-8.991-4.024-8.991-8.99S6.034,16.008,11,16.008c0.19,0,0.376,0.018,0.563,0.028
			c-0.975-1.436-1.559-3.157-1.559-5.024c0-4.971,4.03-9,9.002-9c3.946,0,7.291,2.542,8.507,6.074
			c0.487-0.056,0.981-0.092,1.484-0.092c7.176,0,12.993,5.819,12.993,12.998c0,7.173-5.81,12.987-12.979,12.996v-0.002H28V34
			c-0.553,0-1,0.447-1,1s0.447,1,1,1h1.013v-0.001C37.291,35.991,44,29.282,44,21.008C44,12.727,37.283,6.015,28.998,6.015z"/>
	</g>
</g>
<g>
</g>
<g>
</g>
<g>
</g>
<g>
</g>
<g>
</g>
<g>
</g>
<g>
</g>
<g>
</g>
<g>
</g>
<g>
</g>
<g>
</g>
<g>
</g>
<g>
</g>
<g>
</g>
<g>
</g>
</svg>
