<?xml version="1.0" encoding="iso-8859-1"?>
<!-- Generator: Adobe Illustrator 16.0.4, SVG Export Plug-In . SVG Version: 6.00 Build 0)  -->
<!DOCTYPE svg PUBLIC "-//W3C//DTD SVG 1.1//EN" "http://www.w3.org/Graphics/SVG/1.1/DTD/svg11.dtd">
<svg version="1.1" id="Layer_1" xmlns="http://www.w3.org/2000/svg" xmlns:xlink="http://www.w3.org/1999/xlink" x="0px" y="0px"
	 width="56px" height="56px" viewBox="0 0 56 56" style="enable-background:new 0 0 56 56;" xml:space="preserve">
<g id="_x38_65-storm-cloud_x40_2x.png">
	<g>
		<path d="M32.833,39.521C32.93,39.367,33,39.195,33,39c0-0.553-0.447-1-1-1h-5c-0.421,0-0.778,0.262-0.925,0.63l-0.004-0.001
			l-5.985,11.972c-0.003,0.006-0.006,0.011-0.009,0.017l-0.006,0.012l0.004,0.001C20.028,50.745,20,50.869,20,51
			c0,0.553,0.447,1,1,1h2.729l-0.657,2.629l0.009,0.003C23.031,54.746,23,54.868,23,55c0,0.553,0.447,1,1,1
			c0.304,0,0.566-0.143,0.75-0.356l0.009,0.008l7-8l-0.009-0.008C31.9,47.469,32,47.249,32,47c0-0.553-0.447-1-1-1h-1.387
			l3.234-6.47L32.833,39.521z M27.152,46.471l0.015,0.009C27.07,46.634,27,46.805,27,47c0,0.553,0.447,1,1,1h0.797l-2.849,3.255
			C25.971,51.172,26,51.091,26,51c0-0.552-0.447-1-1-1h-2.386l5-10h2.772L27.152,46.471z M38,8c-1.959-4.697-6.593-8-12-8
			c-7.18,0-13,5.82-13,13c0,1.046,0.137,2.058,0.37,3.032C5.933,16.364,0,22.48,0,30c0,7.732,6.268,14,14,14h7c0.553,0,1-0.447,1-1
			c0-0.552-0.447-1-1-1h-7C7.373,42,2,36.627,2,30s5.373-12,12-12c0.805,0,1.589,0.082,2.35,0.233C15.5,16.676,15,14.9,15,13
			c0-6.075,4.925-11,11-11c5.06,0,9.31,3.42,10.594,8.071C37.058,10.03,37.525,10,38,10c8.837,0,16,7.163,16,16s-7.163,16-16,16h-4
			c-0.553,0-1,0.448-1,1c0,0.553,0.447,1,1,1h4c9.941,0,18-8.059,18-18S47.941,8,38,8z"/>
	</g>
</g>
<g>
</g>
<g>
</g>
<g>
</g>
<g>
</g>
<g>
</g>
<g>
</g>
<g>
</g>
<g>
</g>
<g>
</g>
<g>
</g>
<g>
</g>
<g>
</g>
<g>
</g>
<g>
</g>
<g>
</g>
</svg>
