<?xml version="1.0" encoding="iso-8859-1"?>
<!-- Generator: Adobe Illustrator 16.0.4, SVG Export Plug-In . SVG Version: 6.00 Build 0)  -->
<!DOCTYPE svg PUBLIC "-//W3C//DTD SVG 1.1//EN" "http://www.w3.org/Graphics/SVG/1.1/DTD/svg11.dtd">
<svg version="1.1" id="Layer_1" xmlns="http://www.w3.org/2000/svg" xmlns:xlink="http://www.w3.org/1999/xlink" x="0px" y="0px"
	 width="44px" height="44px" viewBox="0 0 44 44" style="enable-background:new 0 0 44 44;" xml:space="preserve">
<g id="_x31_280-stumbleupon_x40_2x.png">
	<g>
		<path d="M23.453,17.804l1.709,0.834l2.626-0.797v-2.163C27.694,12.526,25.16,10,22.009,10c-3.14,0-5.667,2.508-5.779,5.643v8.459
			c0,0.766-0.706,1.386-1.467,1.386c-0.76,0-1.421-0.62-1.421-1.386v-3.094H9.005c0,0,0,3.1,0,3.141
			c0,3.235,2.604,5.856,5.813,5.856c3.184,0,5.695-2.577,5.74-5.771l0.006-8.354c0-0.766,0.685-1.386,1.444-1.386
			c0.761,0,1.444,0.62,1.444,1.386V17.804z M30.677,24.269c0,0.766-0.685,1.431-1.444,1.431c-0.761,0-1.444-0.665-1.444-1.431
			v-3.323l-2.626,0.797l-1.709-0.834v3.293c0.027,3.21,2.553,5.804,5.746,5.804c3.211,0,5.813-2.621,5.813-5.856
			c0-0.041,0-3.141,0-3.141h-4.336V24.269z M22,0C9.85,0,0,9.85,0,22s9.85,22,22,22s22-9.85,22-22S34.15,0,22,0z M22,42
			C10.954,42,2,33.046,2,22S10.954,2,22,2s20,8.954,20,20S33.046,42,22,42z"/>
	</g>
</g>
<g>
</g>
<g>
</g>
<g>
</g>
<g>
</g>
<g>
</g>
<g>
</g>
<g>
</g>
<g>
</g>
<g>
</g>
<g>
</g>
<g>
</g>
<g>
</g>
<g>
</g>
<g>
</g>
<g>
</g>
</svg>
