<?xml version="1.0" encoding="UTF-8" standalone="no"?>
<svg width="58px" height="58px" viewBox="0 0 58 58" version="1.1" xmlns="http://www.w3.org/2000/svg" xmlns:xlink="http://www.w3.org/1999/xlink" xmlns:sketch="http://www.bohemiancoding.com/sketch/ns">
    <!-- Generator: Sketch 3.0.4 (8053) - http://www.bohemiancoding.com/sketch -->
    <title>1280-stumbleupon</title>
    <desc>Created with Sketch.</desc>
    <defs></defs>
    <g id="Page-1" stroke="none" stroke-width="1" fill="none" fill-rule="evenodd" sketch:type="MSPage">
        <g id="Glyphish-8-Icons" sketch:type="MSArtboardGroup" transform="translate(-884.000000, -1651.000000)" fill="#000000">
            <g id="1280-stumbleupon" sketch:type="MSLayerGroup" transform="translate(884.036996, 1651.860499)">
                <g id="_x31_280-stumbleupon_x40_2x.png" sketch:type="MSShapeGroup">
                    <path d="M39.991,31.987 C39.991,33.059 39.045,33.99 37.992,33.99 C36.94,33.99 35.993,33.059 35.993,31.987 L35.993,26.897 L32.357,28.012 L29.991,26.844 L29.991,31.892 C30.03,36.386 33.525,40.018 37.946,40.018 C42.391,40.018 45.995,36.347 45.995,31.82 L45.995,26.984 L39.991,26.984 L39.991,31.987 L39.991,31.987 Z M29.991,22.499 L32.357,23.667 L35.993,22.552 L35.993,19.96 C35.863,15.549 32.355,12.011 27.992,12.011 C23.645,12.011 20.146,15.523 19.991,19.911 L19.991,31.753 C19.991,32.825 19.013,33.693 17.961,33.693 C16.909,33.693 15.993,32.825 15.993,31.753 L15.993,26.984 L9.99,26.984 L9.99,31.82 C9.99,36.347 13.594,40.018 18.039,40.018 C22.444,40.018 25.922,36.41 25.984,31.937 L25.993,20.242 C25.993,19.17 26.94,18.302 27.992,18.302 C29.045,18.302 29.991,19.17 29.991,20.242 L29.991,22.499 L29.991,22.499 Z M28,0 C12.536,0 0,12.536 0,28 C0,43.464 12.536,56 28,56 C43.464,56 56,43.464 56,28 C56,12.536 43.464,0 28,0 L28,0 Z M28,54 C13.641,54 2,42.359 2,28 C2,13.641 13.641,2 28,2 C42.359,2 54,13.641 54,28 C54,42.359 42.359,54 28,54 L28,54 Z" id="Shape"></path>
                </g>
            </g>
        </g>
    </g>
</svg>