<?xml version="1.0" encoding="iso-8859-1"?>
<!-- Generator: Adobe Illustrator 16.0.4, SVG Export Plug-In . SVG Version: 6.00 Build 0)  -->
<!DOCTYPE svg PUBLIC "-//W3C//DTD SVG 1.1//EN" "http://www.w3.org/Graphics/SVG/1.1/DTD/svg11.dtd">
<svg version="1.1" id="Layer_1" xmlns="http://www.w3.org/2000/svg" xmlns:xlink="http://www.w3.org/1999/xlink" x="0px" y="0px"
	 width="36px" height="44px" viewBox="0 0 36 44" style="enable-background:new 0 0 36 44;" xml:space="preserve">
<g id="_x31_122-suit_x40_2x.png">
	<g>
		<path d="M25.275,2.008l-2.565-1.71c-0.093-0.095-0.206-0.17-0.331-0.222l-0.007-0.005L22.37,0.075C22.255,0.028,22.131,0,22,0h0
			H14c0,0,0,0,0,0c-0.131,0-0.255,0.028-0.37,0.075l-0.001-0.004l-0.007,0.005c-0.125,0.052-0.238,0.127-0.332,0.222l-2.565,1.71
			C6.861,2.084,0,3.816,0,10v27v1.5C0,39.328,0.671,40,1.5,40H3h3v1v1.5C6,43.328,6.671,44,7.5,44H9h18h1.5
			c0.829,0,1.5-0.672,1.5-1.5V41v-1h3h1.5c0.829,0,1.5-0.672,1.5-1.5V37V10C36,3.816,29.139,2.084,25.275,2.008z M25.863,5.59
			L28.8,9.113l-7.387,13.544l-0.231-2.084L25.863,5.59z M20.631,15.627l-0.606-5.458c0.489-0.461,0.841-1.068,0.935-1.771
			l0.208,0.156l0.015-0.01C21.363,8.812,21.653,9,22,9c0.384,0,0.704-0.225,0.872-0.542L20.631,15.627z M12,3.51L14.264,2h7.472
			L24,3.51v1.149l-2.093,2.093l-3.075-2.307l-0.015,0.011C18.638,4.188,18.347,4,18,4s-0.637,0.188-0.817,0.456l-0.015-0.011
			l-3.062,2.297L12,4.636V3.51z M19,8c0,0.553-0.448,1-1,1s-1-0.447-1-1s0.448-1,1-1S19,7.447,19,8z M15.975,10.169l-0.606,5.458
			l-2.229-7.135l0.006-0.004C13.318,8.789,13.629,9,14,9c0.347,0,0.637-0.188,0.817-0.455l0.015,0.01l0.208-0.156
			C15.134,9.101,15.486,9.708,15.975,10.169z M14.819,20.573l-0.231,2.084L7.2,9.113l2.937-3.523L14.819,20.573z M17,42H9H8v-1V18
			c0-0.552-0.448-1-1-1s-1,0.448-1,1v20H3H2v-1V10c0-4.042,4.025-5.356,6.695-5.787L5.297,8.29C5.292,8.295,5.29,8.3,5.285,8.305
			L5.168,8.445l0.016,0.011C5.077,8.614,5,8.795,5,9c0,0.161,0.047,0.308,0.115,0.442L5.105,9.447l9.097,16.678l-0.196,1.765
			l0.013,0.001C14.014,27.928,14,27.962,14,28c0,0.276,0.112,0.526,0.293,0.707L17,31.414V42z M16.047,27.633l1.947-17.522L17,10h2
			l-0.994,0.11l1.947,17.522L18,29.586L16.047,27.633z M34,37v1h-1h-3V18c0-0.552-0.448-1-1-1s-1,0.448-1,1v23v1h-1h-8V31.414
			l2.707-2.707C21.888,28.526,22,28.276,22,28c0-0.038-0.014-0.072-0.018-0.109l0.012-0.001l-0.196-1.765l9.097-16.678l-0.009-0.005
			C30.953,9.308,31,9.161,31,9c0-0.205-0.077-0.386-0.183-0.544l0.015-0.011l-0.117-0.141c-0.005-0.004-0.008-0.01-0.013-0.015
			l-3.397-4.077C29.975,4.644,34,5.958,34,10V37z"/>
	</g>
</g>
<g>
</g>
<g>
</g>
<g>
</g>
<g>
</g>
<g>
</g>
<g>
</g>
<g>
</g>
<g>
</g>
<g>
</g>
<g>
</g>
<g>
</g>
<g>
</g>
<g>
</g>
<g>
</g>
<g>
</g>
</svg>
