<?xml version="1.0" encoding="iso-8859-1"?>
<!-- Generator: Adobe Illustrator 16.0.4, SVG Export Plug-In . SVG Version: 6.00 Build 0)  -->
<!DOCTYPE svg PUBLIC "-//W3C//DTD SVG 1.1//EN" "http://www.w3.org/Graphics/SVG/1.1/DTD/svg11.dtd">
<svg version="1.1" id="Layer_1" xmlns="http://www.w3.org/2000/svg" xmlns:xlink="http://www.w3.org/1999/xlink" x="0px" y="0px"
	 width="44px" height="36px" viewBox="0 0 44 36" style="enable-background:new 0 0 44 36;" xml:space="preserve">
<g id="_x39_22-suitcase-toolbar_x40_2x.png">
	<g>
		<path d="M40,6H30V4c0-2.209-1.791-4-4-4h-8c-2.209,0-4,1.791-4,4v2H4c-2.209,0-4,1.791-4,4v22c0,2.209,1.791,4,4,4h36
			c2.209,0,4-1.791,4-4V10C44,7.791,42.209,6,40,6z M16,4c0-1.104,0.896-2,2-2h8c1.104,0,2,0.896,2,2v2H16V4z M6,34H4
			c-1.104,0-2-0.896-2-2V10c0-1.104,0.896-2,2-2h2V34z M36,34H8V8h28V34z M42,32c0,1.104-0.896,2-2,2h-2V8h2c1.104,0,2,0.896,2,2V32
			z"/>
	</g>
</g>
<g>
</g>
<g>
</g>
<g>
</g>
<g>
</g>
<g>
</g>
<g>
</g>
<g>
</g>
<g>
</g>
<g>
</g>
<g>
</g>
<g>
</g>
<g>
</g>
<g>
</g>
<g>
</g>
<g>
</g>
</svg>
