<?xml version="1.0" encoding="iso-8859-1"?>
<!-- Generator: Adobe Illustrator 16.0.4, SVG Export Plug-In . SVG Version: 6.00 Build 0)  -->
<!DOCTYPE svg PUBLIC "-//W3C//DTD SVG 1.1//EN" "http://www.w3.org/Graphics/SVG/1.1/DTD/svg11.dtd">
<svg version="1.1" id="Layer_1" xmlns="http://www.w3.org/2000/svg" xmlns:xlink="http://www.w3.org/1999/xlink" x="0px" y="0px"
	 width="56px" height="55.969px" viewBox="0 0 56 55.969" style="enable-background:new 0 0 56 55.969;" xml:space="preserve">
<g id="_x38_46-sun-1_x40_2x.png">
	<g>
		<path d="M56,28c0-0.335-0.176-0.617-0.43-0.799l0.011-0.015l-6.375-4.554l2.73-7.281l-0.007-0.003C51.971,15.239,52,15.124,52,15
			c0-0.468-0.328-0.843-0.762-0.952l0.004-0.018l-7.418-1.854L41.97,4.758l-0.018,0.004C41.843,4.328,41.468,4,41,4
			c-0.124,0-0.239,0.029-0.349,0.07l-0.003-0.007l-7.281,2.73l-4.554-6.375L28.799,0.43C28.617,0.176,28.335,0,28,0
			s-0.617,0.176-0.799,0.43l-0.015-0.011l-4.554,6.375l-7.281-2.73L15.349,4.07C15.239,4.029,15.124,4,15,4
			c-0.468,0-0.843,0.328-0.952,0.762L14.03,4.758l-1.854,7.418L4.758,14.03l0.004,0.018C4.328,14.157,4,14.532,4,15
			c0,0.124,0.029,0.239,0.07,0.349l-0.007,0.003l2.73,7.281l-6.375,4.554l0.011,0.015C0.176,27.383,0,27.665,0,28
			c0,0.336,0.176,0.618,0.43,0.799l-0.011,0.015l6.375,4.555l-2.73,7.281l0.029,0.011c-0.036,0.103-0.065,0.21-0.065,0.325
			c0,0.46,0.317,0.83,0.74,0.946l-0.01,0.039l7.418,1.854l1.854,7.418l0.038-0.01c0.116,0.423,0.486,0.74,0.946,0.74
			c0.115,0,0.223-0.03,0.325-0.066l0.012,0.029l7.281-2.73l4.554,6.375l0.029-0.021c0.182,0.242,0.458,0.408,0.784,0.408
			s0.603-0.166,0.784-0.408l0.029,0.021l4.554-6.375l7.281,2.73l0.012-0.029c0.103,0.036,0.21,0.066,0.325,0.066
			c0.46,0,0.83-0.317,0.946-0.74l0.038,0.01l1.854-7.418l7.418-1.854l-0.009-0.039c0.423-0.116,0.739-0.486,0.739-0.946
			c0-0.115-0.029-0.223-0.065-0.325l0.029-0.011l-2.73-7.281l6.375-4.555l-0.011-0.015C55.824,28.618,56,28.336,56,28z
			 M47.419,32.187L47.419,32.187c-0.259,0.182-0.439,0.468-0.439,0.808c0,0.163,0.049,0.311,0.118,0.446l2.572,6.861l-6.863,1.716
			c-0.384,0.074-0.684,0.36-0.774,0.74H42.03l-1.729,6.912l-6.86-2.572c-0.136-0.069-0.283-0.118-0.447-0.118
			c-0.34,0-0.626,0.181-0.806,0.44l-0.002-0.001L28,53.28l-4.187-5.861l-0.002,0.001c-0.18-0.26-0.466-0.44-0.806-0.44
			c-0.164,0-0.312,0.049-0.447,0.118l-6.86,2.572l-1.717-6.869c-0.076-0.38-0.361-0.678-0.739-0.769V42.03L6.33,40.302l2.572-6.861
			c0.069-0.136,0.118-0.283,0.118-0.446c0-0.34-0.181-0.626-0.44-0.807l0.001-0.001L2.721,28l5.86-4.186L8.57,23.799
			C8.824,23.618,9,23.336,9,23c0-0.123-0.029-0.239-0.07-0.349l0.007-0.002L6.33,15.698l6.912-1.728l-0.003-0.013
			c0.352-0.091,0.623-0.364,0.713-0.72l0.019,0.004l1.728-6.912l6.95,2.606l0.003-0.007C22.761,8.971,22.876,9,23,9
			c0.335,0,0.617-0.176,0.799-0.429l0.015,0.011L28,2.721l4.187,5.861l0.015-0.011C32.383,8.824,32.665,9,33,9
			c0.124,0,0.239-0.029,0.349-0.07l0.003,0.007l6.95-2.606l1.729,6.912l0.012-0.003c0.091,0.352,0.364,0.623,0.72,0.713
			l-0.004,0.019l6.912,1.728l-2.606,6.951l0.007,0.002C47.029,22.761,47,22.877,47,23c0,0.336,0.176,0.618,0.43,0.799l-0.011,0.016
			L53.279,28L47.419,32.187z M27.5,13C19.492,13,13,19.492,13,27.5C13,35.509,19.492,42,27.5,42S42,35.509,42,27.5
			C42,19.492,35.508,13,27.5,13z M27.5,40C20.597,40,15,34.403,15,27.5S20.597,15,27.5,15S40,20.597,40,27.5S34.403,40,27.5,40z"/>
	</g>
</g>
<g>
</g>
<g>
</g>
<g>
</g>
<g>
</g>
<g>
</g>
<g>
</g>
<g>
</g>
<g>
</g>
<g>
</g>
<g>
</g>
<g>
</g>
<g>
</g>
<g>
</g>
<g>
</g>
<g>
</g>
</svg>
