<?xml version="1.0" encoding="iso-8859-1"?>
<!-- Generator: Adobe Illustrator 16.0.4, SVG Export Plug-In . SVG Version: 6.00 Build 0)  -->
<!DOCTYPE svg PUBLIC "-//W3C//DTD SVG 1.1//EN" "http://www.w3.org/Graphics/SVG/1.1/DTD/svg11.dtd">
<svg version="1.1" id="Layer_1" xmlns="http://www.w3.org/2000/svg" xmlns:xlink="http://www.w3.org/1999/xlink" x="0px" y="0px"
	 width="44px" height="44px" viewBox="0 0 44 44" style="enable-background:new 0 0 44 44;" xml:space="preserve">
<g id="_x38_46-sun-1-toolbar_x40_2x.png">
	<g>
		<path d="M21.998,10.002c-6.629,0-12.002,5.369-12.002,11.992s5.373,11.992,12.002,11.992S34,28.617,34,21.994
			S28.627,10.002,21.998,10.002z M21.998,32.009c-5.519,0-9.993-4.477-9.993-9.999c0-5.521,4.475-9.998,9.993-9.998
			c5.52,0,9.993,4.477,9.993,9.998C31.991,27.532,27.518,32.009,21.998,32.009z M44,22.004c0-0.314-0.159-0.582-0.393-0.763
			l0.018-0.022l-4.439-3.551l1.703-5.245c0.062-0.13,0.102-0.271,0.102-0.425c0-0.439-0.284-0.802-0.676-0.939l0.002-0.007
			l-5.525-1.843l-1.842-5.525l-0.022,0.008C32.802,3.282,32.441,2.98,32,2.98c-0.153,0-0.295,0.043-0.424,0.107l-5.23,1.743
			l-3.564-4.456l-0.011,0.009C22.587,0.155,22.316,0,22,0c-0.315,0-0.586,0.155-0.771,0.384l-0.01-0.009l-3.564,4.456l-5.23-1.743
			c-0.13-0.064-0.271-0.107-0.424-0.107c-0.441,0-0.802,0.302-0.927,0.711l-0.022-0.008L9.21,9.209l-5.525,1.843l0.002,0.007
			c-0.392,0.138-0.676,0.5-0.676,0.939c0,0.11,0.03,0.212,0.062,0.311l-0.021,0.008l1.779,5.338l-4.455,3.564l0.018,0.022
			C0.16,21.422,0,21.689,0,22.004c0,0.312,0.158,0.579,0.39,0.76l-0.014,0.018l4.439,3.551l-1.703,5.245
			c-0.062,0.13-0.102,0.271-0.102,0.425c0,0.439,0.284,0.802,0.676,0.939l-0.002,0.008l5.525,1.842l1.842,5.525l0.022-0.008
			c0.125,0.409,0.485,0.711,0.927,0.711c0.153,0,0.294-0.043,0.424-0.106l5.23-1.744l3.564,4.456l0.01-0.009
			C21.414,43.845,21.685,44,22,44c0.316,0,0.587-0.155,0.771-0.384l0.011,0.009l3.564-4.456l5.23,1.744
			c0.13,0.063,0.271,0.106,0.424,0.106c0.441,0,0.802-0.302,0.927-0.711l0.022,0.008l1.842-5.525l5.525-1.842l-0.002-0.008
			c0.391-0.138,0.676-0.5,0.676-0.939c0-0.11-0.03-0.211-0.062-0.311l0.021-0.008l-1.779-5.338l4.455-3.564l-0.014-0.018
			C43.843,22.583,44,22.316,44,22.004z M37.376,25.219l0.011,0.015c-0.226,0.185-0.378,0.453-0.378,0.768
			c0,0.109,0.029,0.21,0.062,0.309l-0.02,0.007l1.684,5.051l-5.051,1.685l0.002,0.007c-0.302,0.098-0.537,0.334-0.638,0.633
			l-1.681,5.044l-4.979-1.659c-0.004-0.002-0.008-0.003-0.013-0.005l-0.061-0.02l-0.002,0.007c-0.1-0.034-0.201-0.064-0.312-0.064
			c-0.315,0-0.583,0.161-0.764,0.396l-0.02-0.016L22,41.399l-3.219-4.024l-0.02,0.016c-0.181-0.235-0.448-0.396-0.764-0.396
			c-0.11,0-0.213,0.03-0.312,0.064l-0.002-0.007l-0.062,0.02c-0.004,0.002-0.008,0.003-0.012,0.005l-4.979,1.659l-1.682-5.044
			c-0.1-0.299-0.335-0.535-0.637-0.633l0.002-0.007l-5.035-1.679l1.604-4.938c0.064-0.133,0.107-0.277,0.107-0.435
			c0-0.314-0.152-0.583-0.378-0.768l0.011-0.015L2.602,22l4.023-3.219l-0.011-0.015c0.226-0.185,0.378-0.453,0.378-0.768
			c0-0.109-0.03-0.21-0.062-0.309l0.02-0.007l-1.684-5.051l5.051-1.684l-0.002-0.008c0.302-0.098,0.536-0.334,0.637-0.632
			l1.682-5.045l4.979,1.659c0.004,0.002,0.008,0.003,0.012,0.005l0.062,0.021l0.002-0.008c0.099,0.034,0.201,0.064,0.311,0.064
			c0.316,0,0.584-0.161,0.765-0.396l0.02,0.016L22,2.601l3.22,4.024l0.02-0.016c0.181,0.235,0.448,0.396,0.764,0.396
			c0.11,0,0.212-0.03,0.312-0.064l0.002,0.008l0.062-0.021c0.004-0.002,0.008-0.003,0.012-0.004l4.979-1.66l1.681,5.044
			c0.101,0.299,0.336,0.535,0.638,0.633l-0.002,0.008l5.035,1.678l-1.604,4.938c-0.064,0.133-0.107,0.277-0.107,0.435
			c0,0.314,0.152,0.583,0.378,0.768l-0.011,0.015L41.399,22L37.376,25.219z"/>
	</g>
</g>
<g>
</g>
<g>
</g>
<g>
</g>
<g>
</g>
<g>
</g>
<g>
</g>
<g>
</g>
<g>
</g>
<g>
</g>
<g>
</g>
<g>
</g>
<g>
</g>
<g>
</g>
<g>
</g>
<g>
</g>
</svg>
