<?xml version="1.0" encoding="iso-8859-1"?>
<!-- Generator: Adobe Illustrator 16.0.4, SVG Export Plug-In . SVG Version: 6.00 Build 0)  -->
<!DOCTYPE svg PUBLIC "-//W3C//DTD SVG 1.1//EN" "http://www.w3.org/Graphics/SVG/1.1/DTD/svg11.dtd">
<svg version="1.1" id="Layer_1" xmlns="http://www.w3.org/2000/svg" xmlns:xlink="http://www.w3.org/1999/xlink" x="0px" y="0px"
	 width="44px" height="44px" viewBox="0 0 44 44" style="enable-background:new 0 0 44 44;" xml:space="preserve">
<g id="_x38_61-sun-2-toolbar_x40_2x.png">
	<g>
		<path d="M43,21h-3.051c-0.231-4.215-1.906-8.035-4.548-10.987l2.155-2.154c0.39-0.391,0.391-1.024,0-1.415s-1.024-0.39-1.414,0
			l-2.155,2.155C31.035,5.957,27.215,4.283,23,4.051V1c0-0.552-0.447-1-1-1c-0.552,0-1,0.448-1,1v3.051
			c-4.215,0.232-8.036,1.906-10.987,4.548L7.858,6.443c-0.391-0.391-1.024-0.391-1.414,0c-0.391,0.391-0.391,1.024,0,1.415
			l2.155,2.154C5.957,12.965,4.283,16.785,4.05,21H1c-0.552,0-1,0.447-1,1s0.448,1,1,1h3.05c0.232,4.215,1.907,8.036,4.548,10.987
			l-2.155,2.155c-0.391,0.391-0.39,1.023,0,1.414c0.391,0.391,1.024,0.391,1.414,0l2.155-2.155
			c2.952,2.642,6.772,4.316,10.987,4.548V43c0,0.553,0.448,1,1,1c0.553,0,1-0.447,1-1v-3.051c4.215-0.231,8.036-1.906,10.987-4.548
			l2.155,2.155c0.39,0.391,1.023,0.391,1.414,0s0.391-1.023,0-1.414l-2.155-2.155c2.642-2.951,4.316-6.772,4.548-10.987H43
			c0.553,0,1-0.447,1-1S43.553,21,43,21z M22,38c-8.836,0-16-7.163-16-16c0-8.836,7.164-16,16-16c8.837,0,16,7.164,16,16
			C38,30.837,30.837,38,22,38z"/>
	</g>
</g>
<g>
</g>
<g>
</g>
<g>
</g>
<g>
</g>
<g>
</g>
<g>
</g>
<g>
</g>
<g>
</g>
<g>
</g>
<g>
</g>
<g>
</g>
<g>
</g>
<g>
</g>
<g>
</g>
<g>
</g>
</svg>
