<?xml version="1.0" encoding="iso-8859-1"?>
<!-- Generator: Adobe Illustrator 16.0.4, SVG Export Plug-In . SVG Version: 6.00 Build 0)  -->
<!DOCTYPE svg PUBLIC "-//W3C//DTD SVG 1.1//EN" "http://www.w3.org/Graphics/SVG/1.1/DTD/svg11.dtd">
<svg version="1.1" id="Layer_1" xmlns="http://www.w3.org/2000/svg" xmlns:xlink="http://www.w3.org/1999/xlink" x="0px" y="0px"
	 width="56px" height="56px" viewBox="0 0 56 56" style="enable-background:new 0 0 56 56;" xml:space="preserve">
<g id="_x38_62-sun-cloud_x40_2x.png">
	<g>
		<path d="M49.672,24.312c-0.725-4.246-2.657-8.077-5.442-11.127l3.569-3.569c0.391-0.391,0.391-1.023,0-1.414s-1.023-0.391-1.414,0
			l-3.569,3.569C39.135,8.409,34.318,6.291,29,6.051V1c0-0.552-0.447-1-1-1s-1,0.448-1,1v5.051
			c-5.318,0.24-10.135,2.358-13.815,5.72L9.615,8.201c-0.391-0.391-1.023-0.391-1.414,0s-0.391,1.023,0,1.414l3.569,3.569
			C8.409,16.865,6.29,21.682,6.051,27H1c-0.553,0-1,0.447-1,1s0.447,1,1,1h5.051c0.021,0.469,0.074,0.929,0.124,1.39
			C2.449,32.905,0,37.167,0,42c0,7.732,6.268,14,14,14h24c9.941,0,18-8.059,18-18C56,32.516,53.539,27.613,49.672,24.312z M28,8
			c9.161,0,16.865,6.167,19.234,14.57C44.531,20.949,41.381,20,38,20c-7.195,0-13.386,4.232-16.268,10.333
			C19.517,28.861,16.859,28,14,28c-2.124,0-4.129,0.486-5.933,1.333C8.038,28.891,8,28.45,8,28C8,16.954,16.954,8,28,8z M38,54
			h-8.205H29h-2h-5.854H14C7.373,54,2,48.627,2,42s5.373-12,12-12c3.382,0,6.432,1.404,8.613,3.655C24.508,26.934,30.672,22,38,22
			c8.837,0,16,7.163,16,16S46.837,54,38,54z"/>
	</g>
</g>
<g>
</g>
<g>
</g>
<g>
</g>
<g>
</g>
<g>
</g>
<g>
</g>
<g>
</g>
<g>
</g>
<g>
</g>
<g>
</g>
<g>
</g>
<g>
</g>
<g>
</g>
<g>
</g>
<g>
</g>
</svg>
