<?xml version="1.0" encoding="iso-8859-1"?>
<!-- Generator: Adobe Illustrator 16.0.4, SVG Export Plug-In . SVG Version: 6.00 Build 0)  -->
<!DOCTYPE svg PUBLIC "-//W3C//DTD SVG 1.1//EN" "http://www.w3.org/Graphics/SVG/1.1/DTD/svg11.dtd">
<svg version="1.1" id="Layer_1" xmlns="http://www.w3.org/2000/svg" xmlns:xlink="http://www.w3.org/1999/xlink" x="0px" y="0px"
	 width="44px" height="44px" viewBox="0 0 44 44" style="enable-background:new 0 0 44 44;" xml:space="preserve">
<g id="_x38_62-sun-cloud-toolbar_x40_2x.png">
	<g>
		<path d="M39.637,18.439c-0.647-3.196-2.14-6.085-4.235-8.427l2.155-2.154c0.39-0.391,0.391-1.024,0-1.415s-1.024-0.39-1.414,0
			l-2.155,2.155C31.035,5.957,27.215,4.283,23,4.051V1c0-0.552-0.447-1-1-1s-1,0.448-1,1v3.051
			c-4.215,0.232-8.035,1.906-10.987,4.548L7.857,6.443c-0.39-0.391-1.023-0.391-1.414,0s-0.391,1.024,0,1.415l2.155,2.154
			C5.957,12.965,4.283,16.785,4.051,21H1c-0.553,0-1,0.447-1,1s0.447,1,1,1h3.051c0.025,0.463,0.082,0.916,0.142,1.368
			C1.643,26.383,0,29.496,0,32.999C0,39.074,4.925,44,11,44h18.013v-0.001C37.291,43.991,44,37.282,44,29.008
			C44,24.884,42.333,21.15,39.637,18.439z M22,6c6.827,0,12.639,4.283,14.937,10.303c-2.305-1.441-5.02-2.288-7.938-2.288
			c-6.099,0-11.337,3.643-13.683,8.864c-1.325-0.566-2.783-0.881-4.315-0.881c-1.779,0-3.453,0.432-4.94,1.182
			C6.031,22.789,6,22.398,6,22C6,13.164,13.163,6,22,6z M29.013,41.988H11v0.001c-4.966,0-8.991-4.024-8.991-8.99
			S6.034,24.008,11,24.008c2.033,0,3.902,0.684,5.408,1.82c1.415-5.646,6.507-9.834,12.59-9.834c7.176,0,12.993,5.819,12.993,12.998
			C41.991,36.165,36.182,41.979,29.013,41.988z"/>
	</g>
</g>
<g>
</g>
<g>
</g>
<g>
</g>
<g>
</g>
<g>
</g>
<g>
</g>
<g>
</g>
<g>
</g>
<g>
</g>
<g>
</g>
<g>
</g>
<g>
</g>
<g>
</g>
<g>
</g>
<g>
</g>
</svg>
