<?xml version="1.0" encoding="iso-8859-1"?>
<!-- Generator: Adobe Illustrator 16.0.4, SVG Export Plug-In . SVG Version: 6.00 Build 0)  -->
<!DOCTYPE svg PUBLIC "-//W3C//DTD SVG 1.1//EN" "http://www.w3.org/Graphics/SVG/1.1/DTD/svg11.dtd">
<svg version="1.1" id="Layer_1" xmlns="http://www.w3.org/2000/svg" xmlns:xlink="http://www.w3.org/1999/xlink" x="0px" y="0px"
	 width="36px" height="44px" viewBox="0 0 36 44" style="enable-background:new 0 0 36 44;" xml:space="preserve">
<g id="_x31_135-sweater_x40_2x.png">
	<g>
		<path d="M25.878,24.592l0.01-0.008l-1.333-2.25l-0.01,0.008C24.425,22.141,24.231,22,24,22c-0.231,0-0.425,0.141-0.544,0.342
			l-0.01-0.008l-1.333,2.25l0.01,0.008C22.051,24.711,22,24.846,22,25s0.051,0.289,0.122,0.408l-0.01,0.008l1.333,2.25l0.01-0.008
			C23.575,27.859,23.769,28,24,28c0.231,0,0.425-0.141,0.544-0.342l0.01,0.008l1.333-2.25l-0.01-0.008
			C25.949,25.289,26,25.154,26,25S25.949,24.711,25.878,24.592z M13.878,28.592l0.01-0.008l-1.333-2.25l-0.01,0.008
			C12.425,26.141,12.231,26,12,26c-0.231,0-0.425,0.141-0.544,0.342l-0.01-0.008l-1.333,2.25l0.01,0.008
			C10.051,28.711,10,28.846,10,29s0.051,0.289,0.122,0.408l-0.01,0.008l1.333,2.25l0.01-0.008C11.575,31.859,11.769,32,12,32
			c0.231,0,0.425-0.141,0.544-0.342l0.01,0.008l1.333-2.25l-0.01-0.008C13.949,29.289,14,29.154,14,29S13.949,28.711,13.878,28.592z
			 M25.97,2.037C25.823,0.886,25.001,0,24,0H12c-1.001,0-1.823,0.886-1.97,2.037C6.094,2.299,0,4.174,0,10v28.5
			C0,39.328,0.671,40,1.5,40H6v2.5C6,43.328,6.671,44,7.5,44h21c0.829,0,1.5-0.672,1.5-1.5V40h4.5c0.829,0,1.5-0.672,1.5-1.5V10
			C36,4.174,29.906,2.299,25.97,2.037z M12.109,2h11.781C23.935,2.062,24,2.195,24,2.4c0,0.04-0.004,0.08-0.009,0.119
			c-0.003,0.026-0.007,0.053-0.009,0.078C23.815,4.241,21.373,6,18,6s-5.815-1.759-5.981-3.402
			c-0.002-0.025-0.006-0.052-0.009-0.078C12.004,2.48,12,2.44,12,2.4C12,2.195,12.066,2.062,12.109,2z M6,38H2v-2h4V38z M34,38h-4
			v-2h4V38z M34,34h-4V12c0-0.552-0.448-1-1-1s-1,0.448-1,1v30H8V12c0-0.552-0.448-1-1-1s-1,0.448-1,1v22H2V10
			c0-5.059,6.303-5.85,8.359-5.975C11.354,6.324,14.391,8,18,8s6.646-1.676,7.641-3.975C27.697,4.15,34,4.941,34,10V34z
			 M25.888,15.584l-1.333-2.25l-0.01,0.008C24.425,13.141,24.231,13,24,13c-0.231,0-0.425,0.141-0.544,0.342l-0.01-0.008
			l-1.333,2.25l0.01,0.008C22.051,15.711,22,15.846,22,16s0.051,0.289,0.122,0.408l-0.01,0.008l1.333,2.25l0.01-0.008
			C23.575,18.859,23.769,19,24,19c0.231,0,0.425-0.141,0.544-0.342l0.01,0.008l1.333-2.25l-0.01-0.008
			C25.949,16.289,26,16.154,26,16s-0.051-0.289-0.122-0.408L25.888,15.584z M19.888,17.584l-1.333-2.25l-0.01,0.008
			C18.425,15.141,18.231,15,18,15c-0.231,0-0.425,0.141-0.544,0.342l-0.01-0.008l-1.333,2.25l0.01,0.008
			C16.051,17.711,16,17.846,16,18s0.051,0.289,0.122,0.408l-0.01,0.008l1.333,2.25l0.01-0.008C17.575,20.859,17.769,21,18,21
			c0.231,0,0.425-0.141,0.544-0.342l0.01,0.008l1.333-2.25l-0.01-0.008C19.949,18.289,20,18.154,20,18s-0.051-0.289-0.122-0.408
			L19.888,17.584z M13.888,19.584l-1.333-2.25l-0.01,0.008C12.425,17.141,12.231,17,12,17c-0.231,0-0.425,0.141-0.544,0.342
			l-0.01-0.008l-1.333,2.25l0.01,0.008C10.051,19.711,10,19.846,10,20s0.051,0.289,0.122,0.408l-0.01,0.008l1.333,2.25l0.01-0.008
			C11.575,22.859,11.769,23,12,23c0.231,0,0.425-0.141,0.544-0.342l0.01,0.008l1.333-2.25l-0.01-0.008
			C13.949,20.289,14,20.154,14,20s-0.051-0.289-0.122-0.408L13.888,19.584z M19.878,26.592l0.01-0.008l-1.333-2.25l-0.01,0.008
			C18.425,24.141,18.231,24,18,24c-0.231,0-0.425,0.141-0.544,0.342l-0.01-0.008l-1.333,2.25l0.01,0.008
			C16.051,26.711,16,26.846,16,27s0.051,0.289,0.122,0.408l-0.01,0.008l1.333,2.25l0.01-0.008C17.575,29.859,17.769,30,18,30
			c0.231,0,0.425-0.141,0.544-0.342l0.01,0.008l1.333-2.25l-0.01-0.008C19.949,27.289,20,27.154,20,27S19.949,26.711,19.878,26.592z
			"/>
	</g>
</g>
<g>
</g>
<g>
</g>
<g>
</g>
<g>
</g>
<g>
</g>
<g>
</g>
<g>
</g>
<g>
</g>
<g>
</g>
<g>
</g>
<g>
</g>
<g>
</g>
<g>
</g>
<g>
</g>
<g>
</g>
</svg>
