<?xml version="1.0" encoding="iso-8859-1"?>
<!-- Generator: Adobe Illustrator 16.0.4, SVG Export Plug-In . SVG Version: 6.00 Build 0)  -->
<!DOCTYPE svg PUBLIC "-//W3C//DTD SVG 1.1//EN" "http://www.w3.org/Graphics/SVG/1.1/DTD/svg11.dtd">
<svg version="1.1" id="Layer_1" xmlns="http://www.w3.org/2000/svg" xmlns:xlink="http://www.w3.org/1999/xlink" x="0px" y="0px"
	 width="56px" height="48px" viewBox="0 0 56 48" style="enable-background:new 0 0 56 48;" xml:space="preserve">
<g id="_x31_060-switches_x40_2x.png">
	<g>
		<path d="M8,40h18V8H8V40z M10,10h14v28H10V10z M12,22h10V12H12V22z M34,36h10V26H34V36z M52,0H4C1.791,0,0,1.791,0,4v40
			c0,2.209,1.791,4,4,4h48c2.209,0,4-1.791,4-4V4C56,1.791,54.209,0,52,0z M54,44c0,1.104-0.896,2-2,2H4c-1.104,0-2-0.896-2-2V4
			c0-1.104,0.896-2,2-2h48c1.104,0,2,0.896,2,2V44z M30,40h18V8H30V40z M32,10h14v28H32V10z"/>
	</g>
</g>
<g>
</g>
<g>
</g>
<g>
</g>
<g>
</g>
<g>
</g>
<g>
</g>
<g>
</g>
<g>
</g>
<g>
</g>
<g>
</g>
<g>
</g>
<g>
</g>
<g>
</g>
<g>
</g>
<g>
</g>
</svg>
