<?xml version="1.0" encoding="iso-8859-1"?>
<!-- Generator: Adobe Illustrator 16.0.4, SVG Export Plug-In . SVG Version: 6.00 Build 0)  -->
<!DOCTYPE svg PUBLIC "-//W3C//DTD SVG 1.1//EN" "http://www.w3.org/Graphics/SVG/1.1/DTD/svg11.dtd">
<svg version="1.1" id="Layer_1" xmlns="http://www.w3.org/2000/svg" xmlns:xlink="http://www.w3.org/1999/xlink" x="0px" y="0px"
	 width="44px" height="40px" viewBox="0 0 44 40" style="enable-background:new 0 0 44 40;" xml:space="preserve">
<g id="_x31_060-switches-toolbar_x40_2x.png">
	<g>
		<path d="M24,32h14V8H24V32z M26,10h10v20H26V10z M40,0H4C1.791,0,0,1.791,0,4v32c0,2.209,1.791,4,4,4h36c2.209,0,4-1.791,4-4V4
			C44,1.791,42.209,0,40,0z M42,36c0,1.104-0.896,2-2,2H4c-1.104,0-2-0.896-2-2V4c0-1.104,0.896-2,2-2h36c1.104,0,2,0.896,2,2V36z
			 M10,20h6v-8h-6V20z M28,28h6v-8h-6V28z M6,32h14V8H6V32z M8,10h10v20H8V10z"/>
	</g>
</g>
<g>
</g>
<g>
</g>
<g>
</g>
<g>
</g>
<g>
</g>
<g>
</g>
<g>
</g>
<g>
</g>
<g>
</g>
<g>
</g>
<g>
</g>
<g>
</g>
<g>
</g>
<g>
</g>
<g>
</g>
</svg>
