<?xml version="1.0" encoding="iso-8859-1"?>
<!-- Generator: Adobe Illustrator 16.0.4, SVG Export Plug-In . SVG Version: 6.00 Build 0)  -->
<!DOCTYPE svg PUBLIC "-//W3C//DTD SVG 1.1//EN" "http://www.w3.org/Graphics/SVG/1.1/DTD/svg11.dtd">
<svg version="1.1" id="Layer_1" xmlns="http://www.w3.org/2000/svg" xmlns:xlink="http://www.w3.org/1999/xlink" x="0px" y="0px"
	 width="56px" height="48px" viewBox="0 0 56 48" style="enable-background:new 0 0 56 48;" xml:space="preserve">
<g id="_x38_67-swords_x40_2x.png">
	<g>
		<path d="M55.706,42.293L47.414,34l4.293-4.293C51.888,29.526,52,29.276,52,29s-0.112-0.525-0.293-0.707l-4-4
			C47.526,24.112,47.276,24,47,24s-0.526,0.112-0.707,0.293L43,27.586L35.414,20L47.707,7.707C47.888,7.526,48,7.276,48,7V1
			c0-0.553-0.447-1-1-1s-1,0.447-1,1V0h-6v0.586l-12,12l-12-12V0h-6v1c0-0.553-0.447-1-1-1S8,0.447,8,1v6
			c0,0.276,0.112,0.526,0.293,0.707L20.586,20L13,27.586l-3.293-3.293C9.526,24.112,9.276,24,9,24s-0.526,0.112-0.707,0.293l-4,4
			C4.112,28.475,4,28.725,4,29c0,0.276,0.112,0.526,0.293,0.707L8.586,34l-8.292,8.293C0.112,42.474,0,42.724,0,43
			s0.112,0.526,0.293,0.707l4,4C4.474,47.889,4.724,48,5,48s0.526-0.111,0.707-0.293L14,39.414l4.293,4.293
			C18.474,43.888,18.724,44,19,44s0.526-0.111,0.707-0.293l4-4C23.888,39.526,24,39.276,24,39s-0.112-0.525-0.293-0.707L20.414,35
			L28,27.414L35.586,35l-3.293,3.293C32.112,38.475,32,38.725,32,39c0,0.276,0.112,0.526,0.293,0.707l4,4
			C36.474,43.889,36.724,44,37,44s0.526-0.111,0.707-0.293L42,39.414l8.293,8.293C50.474,47.889,50.724,48,51,48
			s0.526-0.111,0.707-0.293l4-4C55.888,43.526,56,43.276,56,43S55.888,42.474,55.706,42.293z M10,6.586V2h4.586l12,12L22,18.586
			L10,6.586z M5,45.586L2.414,43L10,35.414L12.586,38L5,45.586z M21.586,39L19,41.586l-4.293-4.293l-4-4L6.414,29L9,26.414
			L21.586,39z M19,33.586L14.414,29l27-27H46v4.586L19,33.586z M29.414,26L34,21.414L41.586,29L37,33.586L29.414,26z M41.293,37.293
			L37,41.586L34.414,39L47,26.414L49.586,29l-4.293,4.293L41.293,37.293z M51,45.586L43.414,38L46,35.414L53.586,43L51,45.586z"/>
	</g>
</g>
<g>
</g>
<g>
</g>
<g>
</g>
<g>
</g>
<g>
</g>
<g>
</g>
<g>
</g>
<g>
</g>
<g>
</g>
<g>
</g>
<g>
</g>
<g>
</g>
<g>
</g>
<g>
</g>
<g>
</g>
</svg>
