<?xml version="1.0" encoding="iso-8859-1"?>
<!-- Generator: Adobe Illustrator 16.0.4, SVG Export Plug-In . SVG Version: 6.00 Build 0)  -->
<!DOCTYPE svg PUBLIC "-//W3C//DTD SVG 1.1//EN" "http://www.w3.org/Graphics/SVG/1.1/DTD/svg11.dtd">
<svg version="1.1" id="Layer_1" xmlns="http://www.w3.org/2000/svg" xmlns:xlink="http://www.w3.org/1999/xlink" x="0px" y="0px"
	 width="44px" height="36px" viewBox="0 0 44 36" style="enable-background:new 0 0 44 36;" xml:space="preserve">
<g id="_x38_67-swords-toolbar_x40_2x.png">
	<g>
		<path d="M43.706,30.292L39.414,26l3.293-3.293C42.888,22.526,43,22.276,43,22c0-0.275-0.112-0.525-0.293-0.707l-3-3
			C39.526,18.112,39.276,18,39,18s-0.526,0.112-0.707,0.293L35,21.586L27.414,14l8.293-8.293C35.888,5.526,36,5.276,36,5V1
			c0-0.552-0.447-1-1-1h-4c-0.276,0-0.526,0.112-0.707,0.294L22,8.586l-8.293-8.293C13.526,0.112,13.276,0,13,0H9
			C8.447,0,8,0.448,8,1v4c0,0.276,0.112,0.526,0.293,0.707L16.586,14L9,21.586l-3.293-3.293C5.526,18.112,5.276,18,5,18
			s-0.526,0.112-0.707,0.293l-3,3C1.112,21.475,1,21.725,1,22c0,0.276,0.112,0.526,0.293,0.707L4.586,26l-4.292,4.293
			C0.112,30.474,0,30.724,0,31s0.112,0.526,0.293,0.707l4,4C4.474,35.889,4.724,36,5,36s0.526-0.111,0.707-0.293L10,31.414
			l3.293,3.293C13.474,34.888,13.724,35,14,35s0.526-0.111,0.707-0.293l3-3C17.888,31.526,18,31.276,18,31
			c0-0.275-0.112-0.525-0.293-0.707L14.414,27L22,19.414L29.586,27l-3.293,3.293C26.112,30.475,26,30.725,26,31
			c0,0.276,0.112,0.526,0.293,0.707l3,3C29.474,34.889,29.724,35,30,35s0.526-0.111,0.707-0.293L34,31.414l4.293,4.293
			C38.474,35.889,38.724,36,39,36s0.526-0.111,0.707-0.293l4-4C43.888,31.526,44,31.276,44,31S43.888,30.474,43.706,30.292z
			 M10,4.586V2h2.586l8,8L18,12.586L10,4.586z M5,33.586L2.414,31L6,27.414L8.586,30L5,33.586z M15.586,31L14,32.586l-3.293-3.293
			l-4-4L3.414,22L5,20.414L15.586,31z M13,25.586L10.414,23l21-21H34v2.586L13,25.586z M23.414,18L26,15.414L33.586,23L31,25.586
			L23.414,18z M33.293,29.293L30,32.586L28.414,31L39,20.414L40.586,22l-3.293,3.293L33.293,29.293z M39,33.586L35.414,30L38,27.414
			L41.586,31L39,33.586z"/>
	</g>
</g>
<g>
</g>
<g>
</g>
<g>
</g>
<g>
</g>
<g>
</g>
<g>
</g>
<g>
</g>
<g>
</g>
<g>
</g>
<g>
</g>
<g>
</g>
<g>
</g>
<g>
</g>
<g>
</g>
<g>
</g>
</svg>
