<?xml version="1.0" encoding="iso-8859-1"?>
<!-- Generator: Adobe Illustrator 16.0.4, SVG Export Plug-In . SVG Version: 6.00 Build 0)  -->
<!DOCTYPE svg PUBLIC "-//W3C//DTD SVG 1.1//EN" "http://www.w3.org/Graphics/SVG/1.1/DTD/svg11.dtd">
<svg version="1.1" id="Layer_1" xmlns="http://www.w3.org/2000/svg" xmlns:xlink="http://www.w3.org/1999/xlink" x="0px" y="0px"
	 width="56px" height="48px" viewBox="0 0 56 48" style="enable-background:new 0 0 56 48;" xml:space="preserve">
<g id="_x31_036-sword_x40_2x.png">
	<g>
		<path d="M50,0c-3.313,0-6,2.687-6,6c0,0.417,0.043,0.824,0.124,1.217L27.228,22.813L16.707,12.293C16.526,12.112,16.276,12,16,12
			s-0.526,0.112-0.707,0.293l-6,6C9.112,18.474,9,18.724,9,19c0,0.553,0.447,1,1,1h3.586l6.017,6.018L0.276,46.311l0.003,0.003
			C0.108,46.493,0,46.732,0,47c0,0.553,0.447,1,1,1h19c0.276,0,0.526-0.111,0.707-0.293L31,37.414l6,6V47c0,0.553,0.447,1,1,1
			c0.276,0,0.526-0.111,0.707-0.293l6-6C44.888,41.526,45,41.276,45,41s-0.112-0.526-0.293-0.707L33.96,29.546l15.033-17.647
			C49.322,11.954,49.655,12,50,12c3.313,0,6-2.687,6-6S53.313,0,50,0z M3.333,46l17.685-18.568l3.579,3.58L10.077,46H3.333z
			 M19.586,46h-6.725l13.15-13.574L29.586,36L19.586,46z M42.586,41L39,44.586V43c0-0.276-0.112-0.526-0.293-0.707l-24-24
			C14.526,18.112,14.276,18,14,18h-1.586L16,14.414L42.586,41z M32.541,28.127l-3.898-3.898L44.936,9.189
			c0.515,0.816,1.222,1.486,2.057,1.974L32.541,28.127z M50,10c-2.209,0-4-1.791-4-4s1.791-4,4-4s4,1.791,4,4S52.209,10,50,10z"/>
	</g>
</g>
<g>
</g>
<g>
</g>
<g>
</g>
<g>
</g>
<g>
</g>
<g>
</g>
<g>
</g>
<g>
</g>
<g>
</g>
<g>
</g>
<g>
</g>
<g>
</g>
<g>
</g>
<g>
</g>
<g>
</g>
</svg>
