<?xml version="1.0" encoding="iso-8859-1"?>
<!-- Generator: Adobe Illustrator 16.0.4, SVG Export Plug-In . SVG Version: 6.00 Build 0)  -->
<!DOCTYPE svg PUBLIC "-//W3C//DTD SVG 1.1//EN" "http://www.w3.org/Graphics/SVG/1.1/DTD/svg11.dtd">
<svg version="1.1" id="Layer_1" xmlns="http://www.w3.org/2000/svg" xmlns:xlink="http://www.w3.org/1999/xlink" x="0px" y="0px"
	 width="44px" height="40px" viewBox="0 0 44 40" style="enable-background:new 0 0 44 40;" xml:space="preserve">
<g id="_x31_036-sword-toolbar_x40_2x.png">
	<g>
		<path d="M39,0c-2.762,0-5,2.238-5,5c0,0.152,0.031,0.295,0.045,0.443l-10.318,9.869l-9.02-9.02C14.526,6.112,14.276,6,14,6
			s-0.526,0.112-0.707,0.293l-5,5C8.112,11.474,8,11.724,8,12c0,0.553,0.447,1,1,1h3.586l5.51,5.511l-17.819,19.8l0.003,0.003
			C0.108,38.493,0,38.732,0,39c0,0.553,0.447,1,1,1h13c0.276,0,0.526-0.111,0.707-0.293l11.801-12.784L32,32.414V36
			c0,0.553,0.447,1,1,1c0.276,0,0.526-0.111,0.707-0.293l5-5C38.888,31.526,39,31.276,39,31s-0.112-0.526-0.293-0.707l-9.289-9.289
			l9.365-11.025C38.856,9.981,38.926,10,39,10c2.762,0,5-2.238,5-5S41.762,0,39,0z M3.245,38l16.267-18.074l2.106,2.106L7.059,38
			H3.245z M13.563,38H9.765l13.269-14.553l2.061,2.062L13.563,38z M36.586,31L34,33.586V32c0-0.276-0.112-0.526-0.293-0.707l-20-20
			C13.526,11.112,13.276,11,13,11h-1.586L14,8.414L36.586,31z M27.999,19.585l-2.857-2.857l9.584-9.168
			c0.466,0.775,1.132,1.404,1.932,1.832L27.999,19.585z M39,8c-1.657,0-3-1.343-3-3c0-1.656,1.343-3,3-3s3,1.344,3,3
			C42,6.657,40.657,8,39,8z"/>
	</g>
</g>
<g>
</g>
<g>
</g>
<g>
</g>
<g>
</g>
<g>
</g>
<g>
</g>
<g>
</g>
<g>
</g>
<g>
</g>
<g>
</g>
<g>
</g>
<g>
</g>
<g>
</g>
<g>
</g>
<g>
</g>
</svg>
