<?xml version="1.0" encoding="iso-8859-1"?>
<!-- Generator: Adobe Illustrator 16.0.4, SVG Export Plug-In . SVG Version: 6.00 Build 0)  -->
<!DOCTYPE svg PUBLIC "-//W3C//DTD SVG 1.1//EN" "http://www.w3.org/Graphics/SVG/1.1/DTD/svg11.dtd">
<svg version="1.1" id="Layer_1" xmlns="http://www.w3.org/2000/svg" xmlns:xlink="http://www.w3.org/1999/xlink" x="0px" y="0px"
	 width="56px" height="44px" viewBox="0 0 56 44" style="enable-background:new 0 0 56 44;" xml:space="preserve">
<g id="_x38_94-t-shirt_x40_2x.png">
	<g>
		<path d="M56,7c0-0.391-0.23-0.721-0.558-0.885l0.005-0.01l-12-6l-0.005,0.009C43.308,0.047,43.161,0,43,0h-7c-0.553,0-1,0.447-1,1
			h-0.101C34.41,4.388,31.523,7,28,7s-6.41-2.612-6.899-6H21c0-0.553-0.447-1-1-1h-7c-0.161,0-0.308,0.047-0.442,0.114l-0.005-0.009
			l-12,6l0.005,0.01C0.23,6.279,0,6.609,0,7c0,0.132,0.028,0.256,0.074,0.37L0.071,7.371l0.007,0.018L0.079,7.39l3.992,9.981
			l0.003-0.001C4.223,17.738,4.579,18,5,18c0.161,0,0.308-0.047,0.442-0.114l0.005,0.009L12,14.618V42c0,1.104,0.896,2,2,2h28
			c1.104,0,2-0.896,2-2V14.618l6.553,3.276l0.005-0.009C50.692,17.953,50.839,18,51,18c0.421,0,0.778-0.262,0.926-0.63l0.003,0.001
			l3.992-9.981l0.001-0.001l0.007-0.018L55.926,7.37C55.972,7.256,56,7.132,56,7z M50.476,15.62l-7.028-3.515l-0.005,0.01
			C43.308,12.047,43.161,12,43,12c-0.553,0-1,0.448-1,1v29H14V13c0-0.552-0.447-1-1-1c-0.161,0-0.308,0.047-0.442,0.115l-0.005-0.01
			L5.525,15.62L2.271,7.483L13.236,2h5.997c0.91,4.007,4.484,7,8.767,7c4.28,0,7.845-2.995,8.755-7h6.009l10.966,5.483L50.476,15.62
			z"/>
	</g>
</g>
<g>
</g>
<g>
</g>
<g>
</g>
<g>
</g>
<g>
</g>
<g>
</g>
<g>
</g>
<g>
</g>
<g>
</g>
<g>
</g>
<g>
</g>
<g>
</g>
<g>
</g>
<g>
</g>
<g>
</g>
</svg>
