<?xml version="1.0" encoding="iso-8859-1"?>
<!-- Generator: Adobe Illustrator 16.0.4, SVG Export Plug-In . SVG Version: 6.00 Build 0)  -->
<!DOCTYPE svg PUBLIC "-//W3C//DTD SVG 1.1//EN" "http://www.w3.org/Graphics/SVG/1.1/DTD/svg11.dtd">
<svg version="1.1" id="Layer_1" xmlns="http://www.w3.org/2000/svg" xmlns:xlink="http://www.w3.org/1999/xlink" x="0px" y="0px"
	 width="44px" height="36px" viewBox="0 0 44 36" style="enable-background:new 0 0 44 36;" xml:space="preserve">
<g id="_x38_94-t-shirt-toolbar_x40_2x.png">
	<g>
		<path d="M44,5.011c0-0.424-0.262-0.782-0.632-0.932l0.003-0.008l-9.965-3.985c-0.007-0.004-0.015-0.006-0.022-0.01l-0.013-0.005
			L33.37,0.074C33.257,0.029,33.135,0,33.006,0c-0.001,0-0.002,0.001-0.003,0.001V0h-4v0.001C28.451,0.002,28.006,0.448,28.001,1H28
			c0,3.313-2.687,5-6,5s-6-1.687-6-5h-0.001c-0.005-0.552-0.45-0.998-1.002-0.999V0h-4v0.001C10.996,0.001,10.995,0,10.994,0
			c-0.129,0-0.251,0.029-0.364,0.074l-0.001-0.003l-0.013,0.005c-0.008,0.004-0.016,0.006-0.022,0.01L0.629,4.071l0.003,0.008
			C0.262,4.229,0,4.587,0,5.011c0,0.157,0.044,0.302,0.108,0.436L0.105,5.447l3.944,7.889c0.138,0.391,0.501,0.675,0.938,0.675
			c0.116,0,0.224-0.03,0.326-0.066l0.002,0.004l0.032-0.011c0.015-0.005,0.029-0.008,0.044-0.014L10,12.388V34c0,1.104,0.896,2,2,2
			h20c1.104,0,2-0.896,2-2V12.388l4.607,1.536c0.015,0.006,0.029,0.009,0.044,0.014l0.032,0.011l0.002-0.004
			c0.104,0.036,0.21,0.066,0.326,0.066c0.438,0,0.801-0.284,0.938-0.675l3.944-7.889l-0.003-0.001C43.956,5.312,44,5.168,44,5.011z
			 M38.493,11.777l-5.177-1.726l-0.006,0.016c-0.098-0.031-0.196-0.061-0.305-0.061c-0.556,0-1.006,0.442-1.006,0.988
			c0,0.002,0.001,0.003,0.001,0.005H32v23H12V11h-0.001c0-0.002,0.001-0.003,0.001-0.005c0-0.546-0.45-0.988-1.006-0.988
			c-0.108,0-0.207,0.029-0.305,0.061l-0.006-0.016l-5.177,1.726L2.381,5.525l8.776-3.512h2.948C14.62,5.799,17.938,8,22,8
			s7.38-2.201,7.895-5.986h2.948l8.776,3.512L38.493,11.777z"/>
	</g>
</g>
<g>
</g>
<g>
</g>
<g>
</g>
<g>
</g>
<g>
</g>
<g>
</g>
<g>
</g>
<g>
</g>
<g>
</g>
<g>
</g>
<g>
</g>
<g>
</g>
<g>
</g>
<g>
</g>
<g>
</g>
</svg>
