<?xml version="1.0" encoding="iso-8859-1"?>
<!-- Generator: Adobe Illustrator 16.0.4, SVG Export Plug-In . SVG Version: 6.00 Build 0)  -->
<!DOCTYPE svg PUBLIC "-//W3C//DTD SVG 1.1//EN" "http://www.w3.org/Graphics/SVG/1.1/DTD/svg11.dtd">
<svg version="1.1" id="Layer_1" xmlns="http://www.w3.org/2000/svg" xmlns:xlink="http://www.w3.org/1999/xlink" x="0px" y="0px"
	 width="32px" height="44px" viewBox="0 0 32 44" style="enable-background:new 0 0 32 44;" xml:space="preserve">
<g id="_x31_010-tablet-toolbar_x40_2x.png">
	<g>
		<path d="M28,0H4C1.791,0,0,1.791,0,4v36c0,2.209,1.791,4,4,4h24c2.209,0,4-1.791,4-4V4C32,1.791,30.209,0,28,0z M30,40
			c0,1.104-0.896,2-2,2H4c-1.104,0-2-0.896-2-2V4c0-1.104,0.896-2,2-2h24c1.104,0,2,0.896,2,2V40z M16,38c-0.553,0-1,0.447-1,1
			s0.447,1,1,1s1-0.447,1-1S16.553,38,16,38z M4,36h24V4H4V36z M6,6h20v28H6V6z"/>
	</g>
</g>
<g>
</g>
<g>
</g>
<g>
</g>
<g>
</g>
<g>
</g>
<g>
</g>
<g>
</g>
<g>
</g>
<g>
</g>
<g>
</g>
<g>
</g>
<g>
</g>
<g>
</g>
<g>
</g>
<g>
</g>
</svg>
