<?xml version="1.0" encoding="iso-8859-1"?>
<!-- Generator: Adobe Illustrator 16.0.4, SVG Export Plug-In . SVG Version: 6.00 Build 0)  -->
<!DOCTYPE svg PUBLIC "-//W3C//DTD SVG 1.1//EN" "http://www.w3.org/Graphics/SVG/1.1/DTD/svg11.dtd">
<svg version="1.1" id="Layer_1" xmlns="http://www.w3.org/2000/svg" xmlns:xlink="http://www.w3.org/1999/xlink" x="0px" y="0px"
	 width="44px" height="44px" viewBox="0 0 44 44" style="enable-background:new 0 0 44 44;" xml:space="preserve">
<g id="_x37_47-tag-toolbar_x40_2x.png">
	<g>
		<path d="M35.01,4.993c-2.212,0-4.005,1.793-4.005,4.005c0,2.211,1.793,4.004,4.005,4.004c2.211,0,4.004-1.793,4.004-4.004
			C39.014,6.786,37.221,4.993,35.01,4.993z M35.008,10.995c-1.103,0-1.997-0.895-1.997-1.997s0.895-1.997,1.997-1.997
			c1.104,0,1.997,0.895,1.997,1.997S36.111,10.995,35.008,10.995z M41,0H25c-0.828,0-1.578,0.336-2.121,0.879l-22,22
			C0.336,23.422,0,24.172,0,25s0.336,1.578,0.879,2.121l16,16C17.422,43.664,18.172,44,19,44s1.578-0.336,2.121-0.879l22-22
			C43.664,20.578,44,19.828,44,19V3C44,1.344,42.657,0,41,0z M42,19c0,0.276-0.112,0.526-0.293,0.707l-22,22
			C19.526,41.888,19.276,42,19,42s-0.526-0.111-0.707-0.293l-16-16C2.112,25.526,2,25.276,2,25s0.112-0.526,0.293-0.707l22-22
			C24.474,2.112,24.724,2,25,2h16c0.553,0,1,0.448,1,1V19z"/>
	</g>
</g>
<g>
</g>
<g>
</g>
<g>
</g>
<g>
</g>
<g>
</g>
<g>
</g>
<g>
</g>
<g>
</g>
<g>
</g>
<g>
</g>
<g>
</g>
<g>
</g>
<g>
</g>
<g>
</g>
<g>
</g>
</svg>
