<?xml version="1.0" encoding="iso-8859-1"?>
<!-- Generator: Adobe Illustrator 16.0.4, SVG Export Plug-In . SVG Version: 6.00 Build 0)  -->
<!DOCTYPE svg PUBLIC "-//W3C//DTD SVG 1.1//EN" "http://www.w3.org/Graphics/SVG/1.1/DTD/svg11.dtd">
<svg version="1.1" id="Layer_1" xmlns="http://www.w3.org/2000/svg" xmlns:xlink="http://www.w3.org/1999/xlink" x="0px" y="0px"
	 width="56.011px" height="56.012px" viewBox="0 0 56.011 56.012" style="enable-background:new 0 0 56.011 56.012;"
	 xml:space="preserve">
<g id="_x37_47-tag_x40_2x.png">
	<g>
		<path d="M45.007,6.004c-2.762,0-5,2.238-5,5s2.238,5,5,5s5-2.238,5-5S47.769,6.004,45.007,6.004z M45.007,14.004
			c-1.657,0-3-1.343-3-3c0-1.656,1.343-3,3-3s3,1.344,3,3C48.007,12.661,46.664,14.004,45.007,14.004z M56.007,4.004
			c0-2.228-1.771-4-4-4L32.267,0c-1.039-0.011-2.081,0.369-2.873,1.162L1.171,29.384c-1.562,1.562-1.562,4.095,0,5.657L20.97,54.84
			c1.562,1.562,4.095,1.562,5.657,0L54.85,26.617c0.787-0.787,1.15-1.819,1.14-2.85l0.021-0.001L56.007,4.004z M54.021,23.79
			c0,0.512-0.195,1.023-0.585,1.413L25.213,53.426c-0.781,0.78-2.048,0.78-2.828,0l-19.8-19.799c-0.78-0.781-0.78-2.048,0-2.829
			L30.808,2.576c0.401-0.402,0.931-0.589,1.457-0.578l0.002-0.003l19.74,0.009c1.114,0,2,0.886,2,2l0.009,19.785h0.007L54.021,23.79
			z"/>
	</g>
</g>
<g>
</g>
<g>
</g>
<g>
</g>
<g>
</g>
<g>
</g>
<g>
</g>
<g>
</g>
<g>
</g>
<g>
</g>
<g>
</g>
<g>
</g>
<g>
</g>
<g>
</g>
<g>
</g>
<g>
</g>
</svg>
