<?xml version="1.0" encoding="iso-8859-1"?>
<!-- Generator: Adobe Illustrator 16.0.4, SVG Export Plug-In . SVG Version: 6.00 Build 0)  -->
<!DOCTYPE svg PUBLIC "-//W3C//DTD SVG 1.1//EN" "http://www.w3.org/Graphics/SVG/1.1/DTD/svg11.dtd">
<svg version="1.1" id="Layer_1" xmlns="http://www.w3.org/2000/svg" xmlns:xlink="http://www.w3.org/1999/xlink" x="0px" y="0px"
	 width="55.976px" height="55.979px" viewBox="0 0 55.976 55.979" style="enable-background:new 0 0 55.976 55.979;"
	 xml:space="preserve">
<g id="_x39_09-tags_x40_2x.png">
	<g>
		<path d="M2.582,26.781L26.775,2.574c0.401-0.401,0.93-0.588,1.455-0.577l0.003-0.003l19.746,0.01h3.452
			c-0.688-1.194-1.961-2-3.452-2L28.229,0c-1.036-0.011-2.076,0.37-2.866,1.161L1.17,25.367c-1.561,1.562-1.561,4.093,0,5.654
			l0.972,0.973c0.098-0.812,0.262-1.639,0.529-2.298l-0.089-0.089C1.803,28.827,1.803,27.562,2.582,26.781z M44.957,10.001
			c-2.759,0-4.995,2.237-4.995,4.997s2.236,4.997,4.995,4.997c2.758,0,4.994-2.237,4.994-4.997S47.715,10.001,44.957,10.001z
			 M44.957,17.996c-1.655,0-2.997-1.343-2.997-2.998c0-1.656,1.342-2.998,2.997-2.998c1.654,0,2.996,1.342,2.996,2.998
			C47.953,16.653,46.611,17.996,44.957,17.996z M51.978,4.004L32.228,4c-1.036-0.011-2.076,0.37-2.867,1.161L5.168,29.367
			c-1.561,1.562-1.561,4.093,0,5.654L24.944,54.81c1.561,1.561,4.091,1.561,5.65,0l24.193-24.207
			c0.786-0.787,1.149-1.818,1.139-2.849h0.021l0.027-19.75C55.976,5.777,54.203,4.004,51.978,4.004z M53.962,27.775l-0.002,0.002
			c0,0.511-0.194,1.021-0.584,1.412L29.183,53.396c-0.78,0.781-2.045,0.781-2.825,0L6.58,33.607c-0.78-0.78-0.78-2.046,0-2.826
			L30.773,6.574c0.401-0.401,0.93-0.588,1.455-0.577l0.003-0.003l19.746,0.01c1.113,0,1.999,0.887,1.999,2l-0.021,19.771H53.962z"/>
	</g>
</g>
<g>
</g>
<g>
</g>
<g>
</g>
<g>
</g>
<g>
</g>
<g>
</g>
<g>
</g>
<g>
</g>
<g>
</g>
<g>
</g>
<g>
</g>
<g>
</g>
<g>
</g>
<g>
</g>
<g>
</g>
</svg>
