<?xml version="1.0" encoding="iso-8859-1"?>
<!-- Generator: Adobe Illustrator 16.0.4, SVG Export Plug-In . SVG Version: 6.00 Build 0)  -->
<!DOCTYPE svg PUBLIC "-//W3C//DTD SVG 1.1//EN" "http://www.w3.org/Graphics/SVG/1.1/DTD/svg11.dtd">
<svg version="1.1" id="Layer_1" xmlns="http://www.w3.org/2000/svg" xmlns:xlink="http://www.w3.org/1999/xlink" x="0px" y="0px"
	 width="44px" height="44px" viewBox="0 0 44 44" style="enable-background:new 0 0 44 44;" xml:space="preserve">
<g id="_x31_165-taoism-yin-yang_x40_2x.png">
	<g>
		<path d="M22,8c-2.209,0-4,1.791-4,4s1.791,4,4,4s4-1.791,4-4S24.209,8,22,8z M22,0C9.85,0,0,9.85,0,22
			c0,11.755,9.227,21.328,20.829,21.941C21.215,43.98,21.606,44,22,44c12.15,0,22-9.85,22-22S34.15,0,22,0z M22,36
			c-2.209,0-4-1.791-4-4s1.791-4,4-4s4,1.791,4,4S24.209,36,22,36z M22,21.215c-6.292,0-11.786,5.101-11.786,11.393
			c0,2.736,1.041,5.246,2.732,7.21C6.456,36.512,2,29.783,2,22C2,10.954,10.954,2,22,2c0.357,0,0.707,0.035,1.06,0.054
			C28.007,2.534,32,6.33,32,11C32,16.424,27.424,21.215,22,21.215z"/>
	</g>
</g>
<g>
</g>
<g>
</g>
<g>
</g>
<g>
</g>
<g>
</g>
<g>
</g>
<g>
</g>
<g>
</g>
<g>
</g>
<g>
</g>
<g>
</g>
<g>
</g>
<g>
</g>
<g>
</g>
<g>
</g>
</svg>
