<?xml version="1.0" encoding="UTF-8" standalone="no"?>
<svg width="58px" height="58px" viewBox="0 0 58 58" version="1.1" xmlns="http://www.w3.org/2000/svg" xmlns:xlink="http://www.w3.org/1999/xlink" xmlns:sketch="http://www.bohemiancoding.com/sketch/ns">
    <!-- Generator: Sketch 3.0.4 (8053) - http://www.bohemiancoding.com/sketch -->
    <title>1165-taoism-yin-yang</title>
    <desc>Created with Sketch.</desc>
    <defs></defs>
    <g id="Page-1" stroke="none" stroke-width="1" fill="none" fill-rule="evenodd" sketch:type="MSPage">
        <g id="Glyphish-8-Icons" sketch:type="MSArtboardGroup" transform="translate(-404.000000, -595.000000)" fill="#000000">
            <g id="1165-taoism-yin-yang" sketch:type="MSLayerGroup" transform="translate(404.036996, 595.860499)">
                <g id="_x31_165-taoism-yin-yang_x40_2x.png" sketch:type="MSShapeGroup">
                    <path d="M29.335,0.067 C28.898,0.027 28.458,0.001 28.011,0.001 C28.007,0.001 28.003,0 28,0 C12.536,0 0,12.536 0,28 C0,42.961 11.743,55.146 26.509,55.925 C27.001,55.975 27.499,56 28,56 C43.464,56 56,43.464 56,28 C56,12.986 44.175,0.769 29.335,0.067 L29.335,0.067 Z M28,46 C25.791,46 24,44.209 24,42 C24,39.791 25.791,38 28,38 C30.209,38 32,39.791 32,42 C32,44.209 30.209,46 28,46 L28,46 Z M28,27 C19.992,27 13,33.492 13,41.5 C13,45.527 14.771,49.169 17.547,51.797 C8.396,47.771 2,38.639 2,28 C2,13.641 13.641,2 28,2 C28.435,2 28.857,2.044 29.287,2.065 C35.644,2.707 41,8.029 41,14.5 C41,21.403 34.903,27 28,27 L28,27 Z M28,10 C25.791,10 24,11.791 24,14 C24,16.209 25.791,18 28,18 C30.209,18 32,16.209 32,14 C32,11.791 30.209,10 28,10 L28,10 Z" id="Shape"></path>
                </g>
            </g>
        </g>
    </g>
</svg>