<?xml version="1.0" encoding="iso-8859-1"?>
<!-- Generator: Adobe Illustrator 16.0.4, SVG Export Plug-In . SVG Version: 6.00 Build 0)  -->
<!DOCTYPE svg PUBLIC "-//W3C//DTD SVG 1.1//EN" "http://www.w3.org/Graphics/SVG/1.1/DTD/svg11.dtd">
<svg version="1.1" id="Layer_1" xmlns="http://www.w3.org/2000/svg" xmlns:xlink="http://www.w3.org/1999/xlink" x="0px" y="0px"
	 width="44.002px" height="44.002px" viewBox="0 0 44.002 44.002" style="enable-background:new 0 0 44.002 44.002;"
	 xml:space="preserve">
<g id="_x37_84-target-toolbar_x40_2x.png">
	<g>
		<path d="M24.872,16.746c-0.857-0.47-1.826-0.761-2.872-0.761c-3.323,0-6.017,2.693-6.017,6.017S18.677,28.02,22,28.02
			s6.018-2.694,6.018-6.018c0-1.046-0.291-2.015-0.761-2.872l6.741-5.409l10.004-4.287l-5.146-1.43L41,3.002l-5.002,2.145L34.569,0
			l-4.287,10.004L24.872,16.746z M40.366,14.099c1.045,2.425,1.629,5.095,1.629,7.903c0,11.043-8.952,19.996-19.995,19.996
			S2.005,33.045,2.005,22.002S10.957,2.007,22,2.007c2.809,0,5.479,0.585,7.904,1.63l0.847-1.815
			C28.068,0.656,25.111,0.002,22,0.002c-12.15,0-22,9.85-22,22s9.85,22,22,22s22-9.85,22-22c0-3.111-0.654-6.067-1.819-8.751
			L40.366,14.099z M22,10c1.601,0,3.124,0.319,4.521,0.888l0.85-1.822c-1.654-0.688-3.467-1.07-5.37-1.07
			c-7.736,0-14.008,6.271-14.008,14.007S14.264,36.01,22,36.01s14.008-6.271,14.008-14.008c0-1.903-0.384-3.716-1.071-5.37
			l-1.821,0.851c0.568,1.396,0.888,2.92,0.888,4.52c0,6.629-5.374,12.003-12.003,12.003S9.998,28.631,9.998,22.002S15.371,10,22,10z
			"/>
	</g>
</g>
<g>
</g>
<g>
</g>
<g>
</g>
<g>
</g>
<g>
</g>
<g>
</g>
<g>
</g>
<g>
</g>
<g>
</g>
<g>
</g>
<g>
</g>
<g>
</g>
<g>
</g>
<g>
</g>
<g>
</g>
</svg>
