<?xml version="1.0" encoding="iso-8859-1"?>
<!-- Generator: Adobe Illustrator 16.0.4, SVG Export Plug-In . SVG Version: 6.00 Build 0)  -->
<!DOCTYPE svg PUBLIC "-//W3C//DTD SVG 1.1//EN" "http://www.w3.org/Graphics/SVG/1.1/DTD/svg11.dtd">
<svg version="1.1" id="Layer_1" xmlns="http://www.w3.org/2000/svg" xmlns:xlink="http://www.w3.org/1999/xlink" x="0px" y="0px"
	 width="36px" height="43.992px" viewBox="0 0 36 43.992" style="enable-background:new 0 0 36 43.992;" xml:space="preserve">
<g id="_x31_071-target-dummy-toolbar_x40_2x.png">
	<g>
		<path d="M20.992,8.99c0-1.658-1.34-3.002-2.992-3.002s-2.992,1.344-2.992,3.002s1.34,3.002,2.992,3.002S20.992,10.648,20.992,8.99
			z M16.993,8.991c0-0.55,0.451-0.996,1.007-0.996c0.557,0,1.007,0.446,1.007,0.996S18.557,9.986,18,9.986
			C17.444,9.986,16.993,9.541,16.993,8.991z M18,25.98c-3.863,0-6.995,3.14-6.995,7.012c0,3.873,3.132,7.012,6.995,7.012
			s6.995-3.139,6.995-7.012C24.995,29.12,21.863,25.98,18,25.98z M18,37.996c-2.768,0-5.011-2.24-5.011-5.004
			s2.243-5.004,5.011-5.004s5.011,2.24,5.011,5.004S20.768,37.996,18,37.996z M18,29.995c-1.658,0-3.002,1.342-3.002,2.997
			s1.344,2.997,3.002,2.997c1.658,0,3.002-1.342,3.002-2.997S19.658,29.995,18,29.995z M18,33.988c-0.551,0-0.998-0.446-0.998-0.996
			s0.447-0.996,0.998-0.996s0.997,0.446,0.997,0.996S18.551,33.988,18,33.988z M23.218,22.135c1.021-1.199,2.55-3.447,3.881-7.654
			c0.298-0.327,0.907-1.105,0.907-1.97c0-0.902-0.662-1.768-1.521-2.151c0.44-2.96-0.718-4.115-1.261-4.557
			C22.997,0.414,20.613,0,19.436,0c-0.215,0-0.389,0.014-0.516,0.014c-1.026,0-1.924,0.459-2.581,0.725
			c-0.18-0.047-0.361-0.067-0.542-0.067c-1.827,0-3.669,2.157-4.144,2.755c-2.661,2.588-2.565,5.538-2.222,6.973
			c-0.818,0.4-1.438,1.238-1.438,2.112c0,0.864,0.609,1.643,0.907,1.97c1.331,4.207,2.86,6.455,3.881,7.654
			C6.985,23.228,0,28.614,0,30.583v0.396v12.006v0.003h0c0,0.554,0.45,1.003,1.005,1.004h33.988c0.556-0.001,1.005-0.45,1.006-1.004
			v-0.003V30.979v-0.396C36,28.614,29.015,23.228,23.218,22.135z M34,30.931c-0.001,0.017-0.011,0.031-0.011,0.049h-0.003V41.98
			H2.014V30.979H2.011c0-0.018-0.009-0.032-0.011-0.049v-0.165c0.669-1.333,6.16-5.725,11.153-6.665l3.386-0.639l-2.233-2.624
			c-1.367-1.605-2.543-3.947-3.497-6.96l-0.132-0.417l-0.294-0.324c-0.249-0.273-0.378-0.541-0.389-0.61
			c0.013-0.068,0.133-0.241,0.317-0.332l1.439-0.703l-0.373-1.559c-0.157-0.656-0.5-2.961,1.671-5.073l0.093-0.09l0.08-0.102
			c0.975-1.23,2.092-1.992,2.617-1.992c0.001,0,0.003,0,0.004,0l0.637,0.163l0.61-0.247c0.109-0.044,0.224-0.093,0.345-0.144
			c0.502-0.214,1.021-0.435,1.485-0.435c0.078,0,0.17-0.003,0.272-0.008C19.263,2.004,19.345,2,19.436,2
			c1.696,0,3.079,2.482,3.94,4.566l0.193,0.468l0.392,0.319c0.562,0.457,0.746,1.369,0.546,2.711l-0.223,1.501l1.385,0.619
			c0.193,0.087,0.324,0.271,0.337,0.317c-0.01,0.094-0.14,0.361-0.388,0.635l-0.294,0.324l-0.133,0.417
			c-0.953,3.012-2.129,5.354-3.497,6.961l-2.232,2.623l3.386,0.639c4.992,0.94,10.483,5.332,11.152,6.665V30.931z"/>
	</g>
</g>
<g>
</g>
<g>
</g>
<g>
</g>
<g>
</g>
<g>
</g>
<g>
</g>
<g>
</g>
<g>
</g>
<g>
</g>
<g>
</g>
<g>
</g>
<g>
</g>
<g>
</g>
<g>
</g>
<g>
</g>
</svg>
