<?xml version="1.0" encoding="iso-8859-1"?>
<!-- Generator: Adobe Illustrator 16.0.4, SVG Export Plug-In . SVG Version: 6.00 Build 0)  -->
<!DOCTYPE svg PUBLIC "-//W3C//DTD SVG 1.1//EN" "http://www.w3.org/Graphics/SVG/1.1/DTD/svg11.dtd">
<svg version="1.1" id="Layer_1" xmlns="http://www.w3.org/2000/svg" xmlns:xlink="http://www.w3.org/1999/xlink" x="0px" y="0px"
	 width="44px" height="55.998px" viewBox="0 0 44 55.998" style="enable-background:new 0 0 44 55.998;" xml:space="preserve">
<g id="_x31_071-target-dummy_x40_2x.png">
	<g>
		<path d="M22,39.998c-1.104,0-2,0.896-2,2s0.896,2,2,2s2-0.896,2-2S23.104,39.998,22,39.998z M22,13.998c2.209,0,4-1.791,4-4
			s-1.791-4-4-4s-4,1.791-4,4S19.791,13.998,22,13.998z M22,7.998c1.104,0,2,0.896,2,2s-0.896,2-2,2s-2-0.896-2-2
			S20.896,7.998,22,7.998z M22,31.998c-5.523,0-10,4.478-10,10s4.477,10,10,10c5.522,0,10-4.478,10-10S27.522,31.998,22,31.998z
			 M22,49.998c-4.418,0-8-3.582-8-8s3.582-8,8-8c4.418,0,8,3.582,8,8S26.418,49.998,22,49.998z M44,38.94
			c0-2.505-8.537-9.361-15.623-10.752c1.248-1.526,2.888-4.388,4.515-9.741C33.256,18.029,34,17.041,34,15.94
			c0-1.148-0.809-2.251-1.858-2.739c0.538-3.767-0.648-5.236-1.312-5.799c-2.637-6.857-5.396-7.552-7.519-7.381
			c-0.071,0.006-0.134,0.013-0.186,0.013c-0.846,0-2.352,0.584-3.155,0.923c-2.433-0.65-5.091,2.584-5.727,3.42
			c-3.253,3.295-2.906,7.049-2.486,8.875c-1,0.51-1.757,1.576-1.757,2.688c0,1.101,0.745,2.089,1.109,2.507
			c1.626,5.354,3.266,8.215,4.514,9.741C8.538,29.579,0,36.436,0,38.94c0,0.01,0.005,0.019,0.006,0.028
			c0,0.011-0.006,0.02-0.006,0.029v16c0,0.553,0.448,1,1,1h42c0.553,0,1-0.447,1-1v-16c0-0.01-0.006-0.019-0.006-0.029
			C43.994,38.959,44,38.95,44,38.94z M42,38.998v15H2v-15c0-0.004-0.002-0.008-0.002-0.013C2.33,37.486,11.346,29.94,18,29.94
			c0.472,0,0.858-0.34,0.956-0.802c0.098-0.463-0.163-0.938-0.595-1.131c-0.026-0.012-2.681-1.281-5.403-10.354
			c-0.047-0.157-0.134-0.302-0.248-0.417C12.424,16.945,12,16.332,12,15.94c0-0.448,0.551-1,1-1c0.331,0,0.639-0.165,0.825-0.438
			c0.187-0.272,0.225-0.623,0.104-0.93c-0.07-0.181-1.689-4.365,1.777-7.831c0.034-0.034,0.064-0.069,0.093-0.107
			c1.021-1.361,2.94-3.108,3.753-2.706c0.268,0.135,0.581,0.143,0.853,0.021c0.994-0.441,2.324-0.915,2.719-0.915
			c0.097,0,0.212-0.007,0.346-0.018c0.853-0.066,3.11-0.343,5.593,6.276c0.089,0.235,0.217,0.404,0.442,0.517
			c0.013,0.009,1.317,0.918,0.514,4.936c-0.06,0.294,0.018,0.598,0.207,0.83c0.19,0.23,0.474,0.366,0.773,0.366c0.448,0,1,0.552,1,1
			c0,0.392-0.424,1.005-0.707,1.292c-0.117,0.117-0.203,0.262-0.251,0.421c-2.718,9.058-5.366,10.339-5.358,10.339
			c-0.465,0.154-0.749,0.624-0.671,1.108c0.078,0.483,0.497,0.84,0.987,0.84c6.658,0,15.681,7.555,16,9
			c0,0.01,0.006,0.019,0.006,0.028C42.006,38.979,42,38.988,42,38.998z M22,35.998c-3.313,0-6,2.687-6,6s2.687,6,6,6s6-2.687,6-6
			S25.313,35.998,22,35.998z M22,45.998c-2.209,0-4-1.791-4-4s1.791-4,4-4s4,1.791,4,4S24.209,45.998,22,45.998z"/>
	</g>
</g>
<g>
</g>
<g>
</g>
<g>
</g>
<g>
</g>
<g>
</g>
<g>
</g>
<g>
</g>
<g>
</g>
<g>
</g>
<g>
</g>
<g>
</g>
<g>
</g>
<g>
</g>
<g>
</g>
<g>
</g>
</svg>
