<?xml version="1.0" encoding="iso-8859-1"?>
<!-- Generator: Adobe Illustrator 16.0.4, SVG Export Plug-In . SVG Version: 6.00 Build 0)  -->
<!DOCTYPE svg PUBLIC "-//W3C//DTD SVG 1.1//EN" "http://www.w3.org/Graphics/SVG/1.1/DTD/svg11.dtd">
<svg version="1.1" id="Layer_1" xmlns="http://www.w3.org/2000/svg" xmlns:xlink="http://www.w3.org/1999/xlink" x="0px" y="0px"
	 width="56.002px" height="56.002px" viewBox="0 0 56.002 56.002" style="enable-background:new 0 0 56.002 56.002;"
	 xml:space="preserve">
<g id="_x37_84-target_x40_2x.png">
	<g>
		<path d="M26,24.002c-3.313,0-6,2.687-6,6s2.687,6,6,6s6-2.687,6-6c0-1.062-0.3-2.045-0.784-2.911l14.782-11.37l10.004-4.287
			l-7.146-1.43L51,5.002l-5.002,2.144L44.569,0l-4.287,10.004L28.911,24.786C28.046,24.302,27.062,24.002,26,24.002z M47.527,19.443
			C49.096,22.633,50,26.208,50,30.002c0,13.255-10.745,24-24,24s-24-10.745-24-24s10.745-24,24-24c3.794,0,7.369,0.904,10.559,2.473
			l1.137-1.671C34.176,5.026,30.212,4.002,26,4.002c-14.359,0-26,11.641-26,26s11.641,26,26,26s26-11.641,26-26
			c0-4.212-1.024-8.176-2.802-11.694L47.527,19.443z M26,16.002c1.705,0,3.332,0.32,4.843,0.878l1.158-1.703
			c-1.854-0.752-3.877-1.175-6.001-1.175c-8.837,0-16,7.164-16,16c0,8.837,7.163,16,16,16s16-7.163,16-16
			c0-2.124-0.423-4.146-1.175-6.001l-1.703,1.158C39.68,26.67,40,28.297,40,30.002c0,7.732-6.268,14-14,14s-14-6.268-14-14
			C12,22.271,18.268,16.002,26,16.002z"/>
	</g>
</g>
<g>
</g>
<g>
</g>
<g>
</g>
<g>
</g>
<g>
</g>
<g>
</g>
<g>
</g>
<g>
</g>
<g>
</g>
<g>
</g>
<g>
</g>
<g>
</g>
<g>
</g>
<g>
</g>
<g>
</g>
</svg>
