<?xml version="1.0" encoding="iso-8859-1"?>
<!-- Generator: Adobe Illustrator 16.0.4, SVG Export Plug-In . SVG Version: 6.00 Build 0)  -->
<!DOCTYPE svg PUBLIC "-//W3C//DTD SVG 1.1//EN" "http://www.w3.org/Graphics/SVG/1.1/DTD/svg11.dtd">
<svg version="1.1" id="Layer_1" xmlns="http://www.w3.org/2000/svg" xmlns:xlink="http://www.w3.org/1999/xlink" x="0px" y="0px"
	 width="44px" height="44px" viewBox="0 0 44 44" style="enable-background:new 0 0 44 44;" xml:space="preserve">
<g id="_x39_08-target-toolbar_x40_2x.png">
	<g>
		<path d="M22,18c-2.209,0-4,1.791-4,4s1.791,4,4,4s4-1.791,4-4S24.209,18,22,18z M22,0C9.85,0,0,9.85,0,22s9.85,22,22,22
			s22-9.85,22-22S34.15,0,22,0z M22,42C10.954,42,2,33.046,2,22S10.954,2,22,2s20,8.954,20,20S33.046,42,22,42z M22,9
			C14.82,9,9,14.82,9,22s5.82,13,13,13s13-5.82,13-13S29.18,9,22,9z M22,33c-6.075,0-11-4.925-11-11s4.925-11,11-11s11,4.925,11,11
			S28.075,33,22,33z"/>
	</g>
</g>
<g>
</g>
<g>
</g>
<g>
</g>
<g>
</g>
<g>
</g>
<g>
</g>
<g>
</g>
<g>
</g>
<g>
</g>
<g>
</g>
<g>
</g>
<g>
</g>
<g>
</g>
<g>
</g>
<g>
</g>
</svg>
