<?xml version="1.0" encoding="iso-8859-1"?>
<!-- Generator: Adobe Illustrator 16.0.4, SVG Export Plug-In . SVG Version: 6.00 Build 0)  -->
<!DOCTYPE svg PUBLIC "-//W3C//DTD SVG 1.1//EN" "http://www.w3.org/Graphics/SVG/1.1/DTD/svg11.dtd">
<svg version="1.1" id="Layer_1" xmlns="http://www.w3.org/2000/svg" xmlns:xlink="http://www.w3.org/1999/xlink" x="0px" y="0px"
	 width="56px" height="56px" viewBox="0 0 56 56" style="enable-background:new 0 0 56 56;" xml:space="preserve">
<g id="_x39_08-target_x40_2x.png">
	<g>
		<path d="M28,24c-2.209,0-4,1.791-4,4s1.791,4,4,4s4-1.791,4-4S30.209,24,28,24z M28,0C12.536,0,0,12.536,0,28s12.536,28,28,28
			s28-12.536,28-28S43.464,0,28,0z M28,54C13.641,54,2,42.359,2,28S13.641,2,28,2s26,11.641,26,26S42.359,54,28,54z M28,12
			c-8.837,0-16,7.164-16,16c0,8.837,7.163,16,16,16s16-7.163,16-16C44,19.164,36.837,12,28,12z M28,42c-7.732,0-14-6.268-14-14
			c0-7.731,6.268-14,14-14s14,6.269,14,14C42,35.732,35.732,42,28,42z"/>
	</g>
</g>
<g>
</g>
<g>
</g>
<g>
</g>
<g>
</g>
<g>
</g>
<g>
</g>
<g>
</g>
<g>
</g>
<g>
</g>
<g>
</g>
<g>
</g>
<g>
</g>
<g>
</g>
<g>
</g>
<g>
</g>
</svg>
