<?xml version="1.0" encoding="iso-8859-1"?>
<!-- Generator: Adobe Illustrator 16.0.4, SVG Export Plug-In . SVG Version: 6.00 Build 0)  -->
<!DOCTYPE svg PUBLIC "-//W3C//DTD SVG 1.1//EN" "http://www.w3.org/Graphics/SVG/1.1/DTD/svg11.dtd">
<svg version="1.1" id="Layer_1" xmlns="http://www.w3.org/2000/svg" xmlns:xlink="http://www.w3.org/1999/xlink" x="0px" y="0px"
	 width="56px" height="56px" viewBox="0 0 56 56" style="enable-background:new 0 0 56 56;" xml:space="preserve">
<g id="_x39_47-target-reticle_x40_2x.png">
	<g>
		<path d="M28,0C12.536,0,0,12.536,0,28s12.536,28,28,28s28-12.536,28-28S43.464,0,28,0z M29,53.949V45c0-0.553-0.447-1-1-1
			s-1,0.447-1,1v8.949C13.442,53.433,2.566,42.557,2.05,29H11c0.553,0,1-0.447,1-1s-0.447-1-1-1H2.05
			C2.566,13.443,13.442,2.567,27,2.051V11c0,0.553,0.447,1,1,1s1-0.447,1-1V2.051C42.558,2.567,53.434,13.443,53.951,27H45
			c-0.553,0-1,0.447-1,1s0.447,1,1,1h8.951C53.434,42.557,42.558,53.433,29,53.949z"/>
	</g>
</g>
<g>
</g>
<g>
</g>
<g>
</g>
<g>
</g>
<g>
</g>
<g>
</g>
<g>
</g>
<g>
</g>
<g>
</g>
<g>
</g>
<g>
</g>
<g>
</g>
<g>
</g>
<g>
</g>
<g>
</g>
</svg>
