<?xml version="1.0" encoding="iso-8859-1"?>
<!-- Generator: Adobe Illustrator 16.0.4, SVG Export Plug-In . SVG Version: 6.00 Build 0)  -->
<!DOCTYPE svg PUBLIC "-//W3C//DTD SVG 1.1//EN" "http://www.w3.org/Graphics/SVG/1.1/DTD/svg11.dtd">
<svg version="1.1" id="Layer_1" xmlns="http://www.w3.org/2000/svg" xmlns:xlink="http://www.w3.org/1999/xlink" x="0px" y="0px"
	 width="44px" height="44px" viewBox="0 0 44 44" style="enable-background:new 0 0 44 44;" xml:space="preserve">
<g id="_x39_47-target-reticle-toolbar_x40_2x.png">
	<g>
		<path d="M22,0C9.85,0,0,9.85,0,22s9.85,22,22,22s22-9.85,22-22S34.15,0,22,0z M23,41.949V37c0-0.552-0.447-1-1-1s-1,0.448-1,1
			v4.949C10.756,41.441,2.557,33.243,2.049,23H7c0.553,0,1-0.447,1-1s-0.447-1-1-1H2.049C2.557,10.757,10.756,2.559,21,2.051V7
			c0,0.553,0.447,1,1,1s1-0.447,1-1V2.051C33.244,2.559,41.443,10.757,41.951,21H37c-0.553,0-1,0.447-1,1s0.447,1,1,1h4.951
			C41.443,33.243,33.244,41.441,23,41.949z"/>
	</g>
</g>
<g>
</g>
<g>
</g>
<g>
</g>
<g>
</g>
<g>
</g>
<g>
</g>
<g>
</g>
<g>
</g>
<g>
</g>
<g>
</g>
<g>
</g>
<g>
</g>
<g>
</g>
<g>
</g>
<g>
</g>
</svg>
