<?xml version="1.0" encoding="iso-8859-1"?>
<!-- Generator: Adobe Illustrator 16.0.4, SVG Export Plug-In . SVG Version: 6.00 Build 0)  -->
<!DOCTYPE svg PUBLIC "-//W3C//DTD SVG 1.1//EN" "http://www.w3.org/Graphics/SVG/1.1/DTD/svg11.dtd">
<svg version="1.1" id="Layer_1" xmlns="http://www.w3.org/2000/svg" xmlns:xlink="http://www.w3.org/1999/xlink" x="0px" y="0px"
	 width="44.032px" height="44.001px" viewBox="0 0 44.032 44.001" style="enable-background:new 0 0 44.032 44.001;"
	 xml:space="preserve">
<g id="_x39_00-telescope-toolbar_x40_2x.png">
	<g>
		<path d="M38.591,0l-7.243,2.416l0.472,1.481l-19.916,6.65l0.604,1.899l-7.08,2.372l0.603,1.897l-3.57,1.191l-0.605-1.905L0,16.626
			l0.605,1.902H0.604l0.882,2.771l1.537,4.831l1.854-0.623l-0.604-1.898l3.57-1.191l0.606,1.904l7.081-2.372l0.605,1.902
			l6.645-2.219l-6.705,21.071c-0.163,0.528,0.132,1.088,0.659,1.252c0.099,0.03,0.198,0.045,0.297,0.045
			c0.426,0,0.821-0.274,0.954-0.703l3.289-10.297h5.512l3.289,10.297c0.133,0.429,0.528,0.703,0.955,0.703
			c0.098,0,0.198-0.015,0.297-0.045c0.527-0.164,0.822-0.724,0.658-1.252l-6.945-21.826l11.011-3.677l0.737,2.318l7.243-2.415
			L38.591,0z M3.669,21.705l-0.604-1.899l3.572-1.186l0.468,1.473l0.136,0.428L3.669,21.705z M9.7,21.798l-1.813-5.701l5.226-1.748
			l0.987,3.103l0.827,2.599L9.7,21.798z M26.148,31.001h-4.233l2.116-6.626L26.148,31.001z M17.387,21.327l-3.023-9.502L32.415,5.77
			l3.022,9.502L17.387,21.327z M33.808,3.693l3.471-1.172l4.294,13.306l-3.533,1.169L33.808,3.693z"/>
	</g>
</g>
<g>
</g>
<g>
</g>
<g>
</g>
<g>
</g>
<g>
</g>
<g>
</g>
<g>
</g>
<g>
</g>
<g>
</g>
<g>
</g>
<g>
</g>
<g>
</g>
<g>
</g>
<g>
</g>
<g>
</g>
</svg>
