<?xml version="1.0" encoding="UTF-8" standalone="no"?>
<svg width="58px" height="58px" viewBox="0 0 58 58" version="1.1" xmlns="http://www.w3.org/2000/svg" xmlns:xlink="http://www.w3.org/1999/xlink" xmlns:sketch="http://www.bohemiancoding.com/sketch/ns">
    <!-- Generator: Sketch 3.0.4 (8053) - http://www.bohemiancoding.com/sketch -->
    <title>1155-tennis-racquet</title>
    <desc>Created with Sketch.</desc>
    <defs></defs>
    <g id="Page-1" stroke="none" stroke-width="1" fill="none" fill-rule="evenodd" sketch:type="MSPage">
        <g id="Glyphish-8-Icons" sketch:type="MSArtboardGroup" transform="translate(-404.000000, -499.000000)" fill="#000000">
            <g id="1155-tennis-racquet" sketch:type="MSLayerGroup" transform="translate(404.036996, 499.860499)">
                <g id="_x31_155-tennis-racquet_x40_2x.png" sketch:type="MSShapeGroup">
                    <path d="M52.646,3.354 C46.868,-2.423 35.627,-0.55 27.539,7.539 C24.888,10.19 22.918,13.182 21.653,16.207 C18.852,22.187 17.991,27.639 17.478,31.652 C17.065,34.881 14.064,37.744 12.88,38.878 C12.88,38.879 12.879,38.879 12.878,38.88 L0.88,50.877 C0.336,51.42 0,52.17 0,53 C0,54.657 1.343,56 3,56 C3.829,56 4.579,55.664 5.122,55.121 L17.122,43.121 C17.189,43.055 17.242,42.976 17.302,42.904 C18.537,41.619 21.26,38.899 24.334,38.507 C28.393,37.987 33.921,37.153 39.982,34.274 C42.943,33.005 45.865,31.059 48.462,28.462 C56.55,20.373 58.423,9.131 52.646,3.354 L52.646,3.354 Z M53.965,10.621 L53,11.585 L49.414,8 L51.906,5.509 C53.049,6.943 53.735,8.688 53.965,10.621 L53.965,10.621 Z M29.414,18 L33,14.414 L36.586,18 L33,21.585 L29.414,18 L29.414,18 Z M31.586,23 L28,26.585 L24.414,23 L28,19.414 L31.586,23 L31.586,23 Z M34.414,13 L38,9.414 L41.586,13 L38,16.585 L34.414,13 L34.414,13 Z M38,19.414 L41.586,23 L38,26.585 L34.414,23 L38,19.414 L38,19.414 Z M39.414,18 L43,14.414 L46.586,18 L43,21.585 L39.414,18 L39.414,18 Z M44.414,13 L48,9.414 L51.586,13 L48,16.585 L44.414,13 L44.414,13 Z M45.379,2.035 C47.313,2.265 49.057,2.951 50.492,4.094 L48,6.585 L44.414,3 L45.379,2.035 L45.379,2.035 Z M46.586,8 L43,11.585 L39.414,8 L43,4.414 L46.586,8 L46.586,8 Z M40.834,2.248 L41.586,3 L38,6.585 L35.534,4.12 C37.303,3.224 39.093,2.587 40.834,2.248 L40.834,2.248 Z M33.722,5.136 L36.586,8 L33,11.585 L29.665,8.25 C30.96,7.046 32.322,6.004 33.722,5.136 L33.722,5.136 Z M28.251,9.665 L31.586,13 L28,16.585 L25.137,13.722 C26.005,12.322 27.047,10.959 28.251,9.665 L28.251,9.665 Z M24.12,15.534 L26.586,18 L23,21.585 L22.249,20.833 C22.588,19.092 23.225,17.302 24.12,15.534 L24.12,15.534 Z M23,24.414 L26.586,28 L24.094,30.492 C22.95,29.056 22.265,27.312 22.035,25.379 L23,24.414 L23,24.414 Z M15.884,41.444 C15.822,41.508 15.748,41.582 15.69,41.643 L15.725,41.679 C15.717,41.688 15.714,41.699 15.706,41.706 L3.706,53.706 C3.526,53.888 3.276,54 3,54 C2.448,54 2,53.553 2,53 C2,52.724 2.112,52.474 2.293,52.293 L14.292,40.294 C14.3,40.285 14.312,40.282 14.32,40.274 L14.341,40.294 C14.376,40.262 14.418,40.219 14.454,40.185 C14.613,40.077 14.794,40 15,40 C15.552,40 16,40.447 16,41 C16,41.162 15.953,41.309 15.884,41.444 L15.884,41.444 Z M24.09,36.442 C21.542,36.768 19.343,38.266 17.68,39.724 C17.38,39.102 16.897,38.586 16.271,38.291 C17.725,36.629 19.217,34.435 19.542,31.894 C19.742,30.332 19.965,28.624 20.311,26.795 C20.771,29.037 21.762,31.053 23.354,32.645 C24.941,34.233 26.949,35.222 29.182,35.684 C27.355,36.024 25.651,36.243 24.09,36.442 L24.09,36.442 Z M30.621,33.964 C28.688,33.735 26.943,33.049 25.508,31.905 L28,29.414 L31.586,33 L30.621,33.964 L30.621,33.964 Z M29.414,28 L33,24.414 L36.586,28 L33,31.585 L29.414,28 L29.414,28 Z M35.166,33.751 L34.414,33 L38,29.414 L40.466,31.88 C38.698,32.775 36.907,33.412 35.166,33.751 L35.166,33.751 Z M42.278,30.863 L39.414,28 L43,24.414 L46.335,27.749 C45.04,28.953 43.678,29.995 42.278,30.863 L42.278,30.863 Z M47.749,26.334 L44.414,23 L48,19.414 L50.863,22.277 C49.996,23.677 48.953,25.04 47.749,26.334 L47.749,26.334 Z M51.88,20.465 L49.414,18 L53,14.414 L53.752,15.166 C53.412,16.907 52.776,18.698 51.88,20.465 L51.88,20.465 Z" id="Shape"></path>
                </g>
            </g>
        </g>
    </g>
</svg>