<?xml version="1.0" encoding="UTF-8" standalone="no"?>
<svg width="57px" height="26px" viewBox="0 0 57 26" version="1.1" xmlns="http://www.w3.org/2000/svg" xmlns:xlink="http://www.w3.org/1999/xlink" xmlns:sketch="http://www.bohemiancoding.com/sketch/ns">
    <!-- Generator: Sketch 3.0.4 (8053) - http://www.bohemiancoding.com/sketch -->
    <title>1156-tennis-net</title>
    <desc>Created with Sketch.</desc>
    <defs></defs>
    <g id="Page-1" stroke="none" stroke-width="1" fill="none" fill-rule="evenodd" sketch:type="MSPage">
        <g id="Glyphish-8-Icons" sketch:type="MSArtboardGroup" transform="translate(-500.000000, -515.000000)" fill="#000000">
            <g id="1156-tennis-net" sketch:type="MSLayerGroup" transform="translate(500.036996, 515.860499)">
                <g id="_x31_156-tennis-net_x40_2x.png" sketch:type="MSShapeGroup">
                    <path d="M55.816,22.455 L55.832,22.445 L48.868,12 L51,12 C51.553,12 52,11.553 52,11 L52,1 C52,0.448 51.553,0 51,0 C51,0 51,0 50.999,0 L5.001,0 L5,0 C4.447,0 4,0.448 4,1 L4,11 C4,11.553 4.448,12 5,12 L7.132,12 L0.168,22.445 L0.184,22.455 C0.077,22.614 0,22.795 0,23 C0,23.553 0.447,24 1,24 C1.347,24 1.638,23.812 1.816,23.545 L1.832,23.555 L9.535,12 L11.132,12 L4.168,22.445 L4.184,22.455 C4.077,22.614 4,22.795 4,23 C4,23.553 4.447,24 5,24 C5.347,24 5.638,23.812 5.816,23.545 L5.832,23.555 L7,21.803 L7,22 L49.132,22 L50.168,23.555 L50.184,23.545 C50.362,23.812 50.653,24 51,24 C51.553,24 52,23.553 52,23 C52,22.795 51.923,22.614 51.816,22.455 L51.832,22.445 L44.868,12 L46.465,12 L54.168,23.555 L54.184,23.545 C54.362,23.812 54.653,24 55,24 C55.553,24 56,23.553 56,23 C56,22.795 55.923,22.614 55.816,22.455 L55.816,22.455 Z M8,10 L6,10 L6,9 L8,9 L8,10 L8,10 Z M8,7 L6,7 L6,5 L8,5 L8,7 L8,7 Z M8,3 L6,3 L6,2 L8,2 L8,3 L8,3 Z M40,2 L42,2 L42,3 L40,3 L40,2 L40,2 Z M40,5 L42,5 L42,7 L40,7 L40,5 L40,5 Z M40,9 L42,9 L42,10 L40,10 L40,9 L40,9 Z M36,2 L38,2 L38,3 L36,3 L36,2 L36,2 Z M36,5 L38,5 L38,7 L36,7 L36,5 L36,5 Z M36,9 L38,9 L38,10 L36,10 L36,9 L36,9 Z M32,2 L34,2 L34,3 L32,3 L32,2 L32,2 Z M32,5 L34,5 L34,7 L32,7 L32,5 L32,5 Z M32,9 L34,9 L34,10 L32,10 L32,9 L32,9 Z M29,2 L30,2 L30,3 L29,3 L29,2 L29,2 Z M29,5 L30,5 L30,7 L29,7 L29,5 L29,5 Z M29,9 L30,9 L30,10 L29,10 L29,9 L29,9 Z M22,2 L24,2 L24,3 L22,3 L22,2 L22,2 Z M22,5 L24,5 L24,7 L22,7 L22,5 L22,5 Z M22,9 L24,9 L24,10 L22,10 L22,9 L22,9 Z M18,2 L20,2 L20,3 L18,3 L18,2 L18,2 Z M18,5 L20,5 L20,7 L18,7 L18,5 L18,5 Z M18,9 L20,9 L20,10 L18,10 L18,9 L18,9 Z M14,2 L16,2 L16,3 L14,3 L14,2 L14,2 Z M14,5 L16,5 L16,7 L14,7 L14,5 L14,5 Z M14,9 L16,9 L16,10 L14,10 L14,9 L14,9 Z M10,2 L12,2 L12,3 L10,3 L10,2 L10,2 Z M10,5 L12,5 L12,7 L10,7 L10,5 L10,5 Z M10,10 L10,9 L12,9 L12,10 L10,10 L10,10 Z M27,20 L8.202,20 L13.535,12 L27,12 L27,20 L27,20 Z M27,10 L26,10 L26,9 L27,9 L27,10 L27,10 Z M27,7 L26,7 L26,5 L27,5 L27,7 L27,7 Z M27,3 L26,3 L26,2 L27,2 L27,3 L27,3 Z M47.798,20 L29,20 L29,12 L42.465,12 L47.798,20 L47.798,20 Z M46,10 L44,10 L44,9 L46,9 L46,10 L46,10 Z M46,7 L44,7 L44,5 L46,5 L46,7 L46,7 Z M46,3 L44,3 L44,2 L46,2 L46,3 L46,3 Z M48,2 L50,2 L50,3 L48,3 L48,2 L48,2 Z M48,5 L50,5 L50,7 L48,7 L48,5 L48,5 Z M48,9 L50,9 L50,10 L48,10 L48,9 L48,9 Z" id="Shape"></path>
                </g>
            </g>
        </g>
    </g>
</svg>