<?xml version="1.0" encoding="iso-8859-1"?>
<!-- Generator: Adobe Illustrator 16.0.4, SVG Export Plug-In . SVG Version: 6.00 Build 0)  -->
<!DOCTYPE svg PUBLIC "-//W3C//DTD SVG 1.1//EN" "http://www.w3.org/Graphics/SVG/1.1/DTD/svg11.dtd">
<svg version="1.1" id="Layer_1" xmlns="http://www.w3.org/2000/svg" xmlns:xlink="http://www.w3.org/1999/xlink" x="0px" y="0px"
	 width="56px" height="56px" viewBox="0 0 56 56" style="enable-background:new 0 0 56 56;" xml:space="preserve">
<g id="_x31_088-tennis-ball_x40_2x.png">
	<g>
		<path d="M28,0C12.536,0,0,12.536,0,28s12.536,28,28,28s28-12.536,28-28S43.464,0,28,0z M28,54c0.355,0,0.701-0.039,1.053-0.053
			c0.543-13.516,11.379-24.352,24.895-24.894C53.39,42.92,42.004,54,28,54C13.641,54,2,42.359,2,28
			C2,13.996,13.08,2.61,26.947,2.053C26.404,15.568,15.568,26.404,2.053,26.947C2.039,27.299,2,27.645,2,28
			c0,0.32,0.036,0.63,0.048,0.947c14.624-0.543,26.356-12.275,26.899-26.899C42.864,2.551,54,13.961,54,28
			c0-0.319-0.036-0.63-0.048-0.947c-14.624,0.543-26.356,12.275-26.899,26.899C27.37,53.964,27.681,54,28,54z"/>
	</g>
</g>
<g>
</g>
<g>
</g>
<g>
</g>
<g>
</g>
<g>
</g>
<g>
</g>
<g>
</g>
<g>
</g>
<g>
</g>
<g>
</g>
<g>
</g>
<g>
</g>
<g>
</g>
<g>
</g>
<g>
</g>
</svg>
