<?xml version="1.0" encoding="iso-8859-1"?>
<!-- Generator: Adobe Illustrator 16.0.4, SVG Export Plug-In . SVG Version: 6.00 Build 0)  -->
<!DOCTYPE svg PUBLIC "-//W3C//DTD SVG 1.1//EN" "http://www.w3.org/Graphics/SVG/1.1/DTD/svg11.dtd">
<svg version="1.1" id="Layer_1" xmlns="http://www.w3.org/2000/svg" xmlns:xlink="http://www.w3.org/1999/xlink" x="0px" y="0px"
	 width="44px" height="36px" viewBox="0 0 44 36" style="enable-background:new 0 0 44 36;" xml:space="preserve">
<g id="_x31_157-tennis-court_x40_2x.png">
	<g>
		<path d="M21,31h2v-2h-2V31z M42,2H23V1c0-0.553-0.447-1-1-1s-1,0.447-1,1v1H2C0.896,2,0,2.896,0,4v28c0,1.104,0.896,2,2,2h19v1
			c0,0.553,0.447,1,1,1s1-0.447,1-1v-1h19c1.104,0,2-0.896,2-2V4C44,2.896,43.104,2,42,2z M2,10h10v16H2V10z M42,32H2v-4h10h2h16h2
			h10V32z M23,11v-1h7v7h-7v-2h-2v2h-7v-7h7v1H23z M21,19v2h2v-2h7v7h-7v-1h-2v1h-7v-7H21z M42,26H32V10h10V26z M42,8H32h-2H14h-2H2
			V4h40V8z M21,14h2v-2h-2V14z M23,22h-2v2h2V22z M23,5h-2v2h2V5z"/>
	</g>
</g>
<g>
</g>
<g>
</g>
<g>
</g>
<g>
</g>
<g>
</g>
<g>
</g>
<g>
</g>
<g>
</g>
<g>
</g>
<g>
</g>
<g>
</g>
<g>
</g>
<g>
</g>
<g>
</g>
<g>
</g>
</svg>
