<?xml version="1.0" encoding="iso-8859-1"?>
<!-- Generator: Adobe Illustrator 16.0.4, SVG Export Plug-In . SVG Version: 6.00 Build 0)  -->
<!DOCTYPE svg PUBLIC "-//W3C//DTD SVG 1.1//EN" "http://www.w3.org/Graphics/SVG/1.1/DTD/svg11.dtd">
<svg version="1.1" id="Layer_1" xmlns="http://www.w3.org/2000/svg" xmlns:xlink="http://www.w3.org/1999/xlink" x="0px" y="0px"
	 width="44px" height="44px" viewBox="0 0 44 44" style="enable-background:new 0 0 44 44;" xml:space="preserve">
<g id="_x31_088-tennis-ball-toolbar_x40_2x.png">
	<g>
		<path d="M22,0C9.85,0,0,9.85,0,22s9.85,22,22,22s22-9.85,22-22S34.15,0,22,0z M20.849,2.066
			c-0.977,9.936-8.847,17.806-18.781,18.782C2.645,10.73,10.729,2.645,20.849,2.066z M21.146,41.948
			C10.79,41.51,2.49,33.21,2.052,22.854c11.052-0.983,19.818-9.75,20.802-20.802C33.21,2.49,41.51,10.79,41.948,21.146
			C30.896,22.13,22.13,30.896,21.146,41.948z M23.151,41.934c0.977-9.936,8.847-17.806,18.782-18.782
			C41.355,33.271,33.271,41.355,23.151,41.934z"/>
	</g>
</g>
<g>
</g>
<g>
</g>
<g>
</g>
<g>
</g>
<g>
</g>
<g>
</g>
<g>
</g>
<g>
</g>
<g>
</g>
<g>
</g>
<g>
</g>
<g>
</g>
<g>
</g>
<g>
</g>
<g>
</g>
</svg>
