<?xml version="1.0" encoding="iso-8859-1"?>
<!-- Generator: Adobe Illustrator 16.0.4, SVG Export Plug-In . SVG Version: 6.00 Build 0)  -->
<!DOCTYPE svg PUBLIC "-//W3C//DTD SVG 1.1//EN" "http://www.w3.org/Graphics/SVG/1.1/DTD/svg11.dtd">
<svg version="1.1" id="Layer_1" xmlns="http://www.w3.org/2000/svg" xmlns:xlink="http://www.w3.org/1999/xlink" x="0px" y="0px"
	 width="20px" height="44px" viewBox="0 0 20 44" style="enable-background:new 0 0 20 44;" xml:space="preserve">
<g id="_x31_154-tennis-observation_seat_x40_2x.png">
	<g>
		<path d="M19.95,42.75l0.018-0.005L12.302,14H15c0.552,0,1-0.447,1-1c0-0.552-0.448-1-1-1c0,0-0.001,0-0.001,0h-2.615l1.537-4.61
			c0,0,0-0.001,0-0.001l0.048-0.146l-0.018-0.004C13.972,7.16,14,7.085,14,7c0-0.552-0.448-1-1-1h0H2V1c0-0.552-0.448-1-1-1
			S0,0.448,0,1v12c0,0.553,0.448,1,1,1h1v29c0,0.553,0.448,1,1,1s1-0.447,1-1v-7h12.099l1.935,7.255l0.017-0.005
			C18.164,43.678,18.537,44,19,44c0.552,0,1-0.447,1-1C20,42.911,19.971,42.832,19.95,42.75z M12.365,22H4v-8h6.232L12.365,22z
			 M3.001,12C3.001,12,3,12,3.001,12C3,12,2.999,12,2.999,12H2V8h9.616l-1.333,4H3.001z M4,34V24h8.898l2.667,10H4z"/>
	</g>
</g>
<g>
</g>
<g>
</g>
<g>
</g>
<g>
</g>
<g>
</g>
<g>
</g>
<g>
</g>
<g>
</g>
<g>
</g>
<g>
</g>
<g>
</g>
<g>
</g>
<g>
</g>
<g>
</g>
<g>
</g>
</svg>
