<?xml version="1.0" encoding="iso-8859-1"?>
<!-- Generator: Adobe Illustrator 16.0.4, SVG Export Plug-In . SVG Version: 6.00 Build 0)  -->
<!DOCTYPE svg PUBLIC "-//W3C//DTD SVG 1.1//EN" "http://www.w3.org/Graphics/SVG/1.1/DTD/svg11.dtd">
<svg version="1.1" id="Layer_1" xmlns="http://www.w3.org/2000/svg" xmlns:xlink="http://www.w3.org/1999/xlink" x="0px" y="0px"
	 width="44.007px" height="44px" viewBox="0 0 44.007 44" style="enable-background:new 0 0 44.007 44;" xml:space="preserve">
<g id="_x31_155-tennis-racquet_x40_2x.png">
	<g>
		<path d="M41.396,2.609C36.899-1.885,28.15-0.428,21.854,5.864c-2.455,2.454-4.163,5.28-5.081,8.082
			c-0.668,1.765-1.019,3.663-1.361,5.524c-0.593,3.232-1.174,6.287-3.248,8.662c-0.49,0.143-0.935,0.395-1.286,0.746l-10,10
			C0.336,39.421,0,40.171,0,41c0,1.657,1.343,3,3,3c0.829,0,1.579-0.336,2.121-0.879l10-10c0.333-0.332,0.575-0.749,0.722-1.208
			c2.383-2.113,5.459-2.697,8.717-3.295c2.142-0.394,4.332-0.806,6.311-1.693c2.531-0.969,5.052-2.569,7.268-4.784
			C44.435,15.847,45.893,7.103,41.396,2.609z M40.548,4.866c0.788,1.075,1.239,2.372,1.379,3.792L41.676,8.91L39.153,6.26
			L40.548,4.866z M23.251,14.163l2.585-2.585l2.522,2.648l-2.585,2.586L23.251,14.163z M24.359,18.226l-2.585,2.586l-2.522-2.649
			l2.585-2.585L24.359,18.226z M27.251,10.163l2.585-2.585l2.522,2.648l-2.585,2.586L27.251,10.163z M33.739,11.675l2.522,2.648
			l-2.585,2.586l-2.522-2.649L33.739,11.675z M35.153,10.26l2.585-2.585l2.522,2.648l-2.585,2.586L35.153,10.26z M35.362,2.051
			c1.415,0.146,2.707,0.603,3.777,1.395l-1.366,1.366l-2.522-2.649L35.362,2.051z M36.359,6.226l-2.585,2.586l-2.522-2.649
			l2.585-2.585L36.359,6.226z M32.413,2.172l-2.542,2.542l-1.26-1.322C29.885,2.792,31.168,2.384,32.413,2.172z M26.796,4.385
			l1.661,1.743l-2.585,2.586l-1.999-2.099C24.808,5.757,25.789,5.011,26.796,4.385z M22.464,8.037l1.993,2.092l-2.585,2.586
			l-1.612-1.693C20.874,9.996,21.608,8.993,22.464,8.037z M18.983,13.662c0.115-0.235,0.237-0.467,0.37-0.69l1.103,1.157
			l-2.267,2.267C18.344,15.498,18.628,14.581,18.983,13.662z M20.359,22.226l-0.901,0.901c-0.684-0.927-1.106-2.024-1.306-3.218
			L20.359,22.226z M13.707,31.707l-10,10C3.526,41.887,3.276,42,3,42c-0.552,0-1-0.447-1-1c0-0.276,0.112-0.526,0.293-0.707l10-10
			C12.474,30.112,12.724,30,13,30c0.552,0,1,0.448,1,1C14,31.276,13.888,31.526,13.707,31.707z M15.64,29.627
			c-0.28-0.528-0.696-0.972-1.223-1.257c1.212-1.776,1.868-3.762,2.327-5.792c0.43,1.05,1.042,2.004,1.854,2.816
			c0.83,0.83,1.807,1.454,2.885,1.885C19.434,27.74,17.431,28.401,15.64,29.627z M20.874,24.54l0.865-0.864l2.005,2.104
			C22.685,25.56,21.711,25.156,20.874,24.54z M23.153,22.26l2.585-2.585l2.522,2.648l-2.585,2.586L23.153,22.26z M30.656,24.894
			c-1.021,0.422-2.042,0.729-3.039,0.902l2.024-2.023l1.05,1.103C30.679,24.881,30.668,24.887,30.656,24.894z M29.676,20.91
			l-2.522-2.649l2.585-2.585l2.522,2.648L29.676,20.91z M32.581,23.959l-1.525-1.602l2.585-2.585l1.959,2.057
			C34.63,22.662,33.615,23.372,32.581,23.959z M37.05,20.452l-1.994-2.094l2.585-2.585l1.715,1.801
			C38.706,18.569,37.93,19.535,37.05,20.452z M40.391,15.76l-1.335-1.402l2.585-2.585l0.109,0.114
			C41.5,13.16,41.039,14.467,40.391,15.76z"/>
	</g>
</g>
<g>
</g>
<g>
</g>
<g>
</g>
<g>
</g>
<g>
</g>
<g>
</g>
<g>
</g>
<g>
</g>
<g>
</g>
<g>
</g>
<g>
</g>
<g>
</g>
<g>
</g>
<g>
</g>
<g>
</g>
</svg>
