<?xml version="1.0" encoding="UTF-8" standalone="no"?>
<svg width="58px" height="50px" viewBox="0 0 58 50" version="1.1" xmlns="http://www.w3.org/2000/svg" xmlns:xlink="http://www.w3.org/1999/xlink" xmlns:sketch="http://www.bohemiancoding.com/sketch/ns">
    <!-- Generator: Sketch 3.0.4 (8053) - http://www.bohemiancoding.com/sketch -->
    <title>1157-tennis-court</title>
    <desc>Created with Sketch.</desc>
    <defs></defs>
    <g id="Page-1" stroke="none" stroke-width="1" fill="none" fill-rule="evenodd" sketch:type="MSPage">
        <g id="Glyphish-8-Icons" sketch:type="MSArtboardGroup" transform="translate(-596.000000, -503.000000)" fill="#000000">
            <g id="1157-tennis-court" sketch:type="MSLayerGroup" transform="translate(596.036996, 503.860499)">
                <g id="_x31_157-tennis-court_x40_2x.png" sketch:type="MSShapeGroup">
                    <path d="M27,20 L29,20 L29,18 L27,18 L27,20 L27,20 Z M29,31 L27,31 L27,33 L29,33 L29,31 L29,31 Z M54,4 L29,4 L29,1 C29,0.448 28.553,0 28,0 C27.447,0 27,0.448 27,1 L27,4 L2,4 C0.896,4 0,4.896 0,6 L0,42 C0,43.104 0.896,44 2,44 L27,44 L27,47 C27,47.553 27.447,48 28,48 C28.553,48 29,47.553 29,47 L29,44 L54,44 C55.104,44 56,43.104 56,42 L56,6 C56,4.896 55.104,4 54,4 L54,4 Z M2,12 L14,12 L14,23 L14,25 L14,36 L2,36 L2,12 L2,12 Z M54,42 L29,42 L29,40 L27,40 L27,42 L2,42 L2,38 L14,38 L16,38 L27,38 L27,39 L29,39 L29,38 L40,38 L42,38 L54,38 L54,42 L54,42 Z M29,14 L29,12 L40,12 L40,23 L29,23 L29,21 L27,21 L27,23 L16,23 L16,12 L27,12 L27,14 L29,14 L29,14 Z M27,25 L27,27 L29,27 L29,25 L40,25 L40,36 L29,36 L29,34 L27,34 L27,36 L16,36 L16,25 L27,25 L27,25 Z M54,36 L42,36 L42,25 L42,23 L42,12 L54,12 L54,36 L54,36 Z M54,10 L42,10 L40,10 L29,10 L29,9 L27,9 L27,10 L16,10 L14,10 L2,10 L2,6 L27,6 L27,8 L29,8 L29,6 L54,6 L54,10 L54,10 Z M27,17 L29,17 L29,15 L27,15 L27,17 L27,17 Z M29,28 L27,28 L27,30 L29,30 L29,28 L29,28 Z" id="Shape"></path>
                </g>
            </g>
        </g>
    </g>
</svg>