<?xml version="1.0" encoding="UTF-8" standalone="no"?>
<svg width="26px" height="58px" viewBox="0 0 26 58" version="1.1" xmlns="http://www.w3.org/2000/svg" xmlns:xlink="http://www.w3.org/1999/xlink" xmlns:sketch="http://www.bohemiancoding.com/sketch/ns">
    <!-- Generator: Sketch 3.0.4 (8053) - http://www.bohemiancoding.com/sketch -->
    <title>1154-tennis-observation-seat</title>
    <desc>Created with Sketch.</desc>
    <defs></defs>
    <g id="Page-1" stroke="none" stroke-width="1" fill="none" fill-rule="evenodd" sketch:type="MSPage">
        <g id="Glyphish-8-Icons" sketch:type="MSArtboardGroup" transform="translate(-324.000000, -499.000000)" fill="#000000">
            <g id="1154-tennis-observation-seat" sketch:type="MSLayerGroup" transform="translate(324.036996, 499.860499)">
                <g id="_x31_154-tennis-observation_seat_x40_2x.png" sketch:type="MSShapeGroup">
                    <path d="M23.95,54.75 L23.968,54.746 L16.231,18 L19,18 C19.552,18 20,17.553 20,17 C20,16.448 19.552,16 19,16 L19,16 L16.281,16 L17.97,9.242 L17.952,9.238 C17.972,9.16 18,9.085 18,9 C18,8.447 17.552,8 17,8 L17,8 L2,8 L2,1 C2,0.447 1.552,0 1,0 C0.448,0 0,0.447 0,1 L0,17 C0,17.553 0.448,18 1,18 L2,18 L2,55 C2,55.553 2.448,56 3,56 C3.552,56 4,55.553 4,55 L4,48 L20.506,48 L22.033,55.255 L22.05,55.25 C22.164,55.678 22.537,56 23,56 C23.552,56 24,55.553 24,55 C24,54.911 23.971,54.832 23.95,54.75 L23.95,54.75 Z M16.295,28 L4,28 L4,18 L14.19,18 L16.295,28 L16.295,28 Z M3,16 L3,16 L2,16 L2,10 L15.719,10 L14.219,16 L3,16 L3,16 Z M4,46 L4,30 L16.716,30 L20.084,46 L4,46 L4,46 Z" id="Shape"></path>
                </g>
            </g>
        </g>
    </g>
</svg>