<?xml version="1.0" encoding="iso-8859-1"?>
<!-- Generator: Adobe Illustrator 16.0.4, SVG Export Plug-In . SVG Version: 6.00 Build 0)  -->
<!DOCTYPE svg PUBLIC "-//W3C//DTD SVG 1.1//EN" "http://www.w3.org/Graphics/SVG/1.1/DTD/svg11.dtd">
<svg version="1.1" id="Layer_1" xmlns="http://www.w3.org/2000/svg" xmlns:xlink="http://www.w3.org/1999/xlink" x="0px" y="0px"
	 width="44px" height="36px" viewBox="0 0 44 36" style="enable-background:new 0 0 44 36;" xml:space="preserve">
<g id="_x31_072-terminal-toolbar_x40_2x.png">
	<g>
		<path d="M17.488,14.146l0.008-0.014l-8-6L9.488,8.146C9.342,8.062,9.182,8,9,8C8.448,8,8,8.448,8,9
			c0,0.371,0.212,0.682,0.512,0.854L8.504,9.868l6.836,5.127l-6.921,5.191l0.011,0.015C8.176,20.383,8,20.665,8,21
			c0,0.553,0.448,1,1,1c0.217,0,0.407-0.084,0.57-0.201l0.011,0.015l8-6l-0.011-0.015C17.824,15.618,18,15.336,18,15
			C18,14.629,17.789,14.318,17.488,14.146z M40,0H4C1.791,0,0,1.791,0,4v28c0,2.209,1.791,4,4,4h36c2.209,0,4-1.791,4-4V4
			C44,1.791,42.209,0,40,0z M42,32c0,1.104-0.896,2-2,2H4c-1.104,0-2-0.896-2-2V4c0-1.104,0.896-2,2-2h36c1.104,0,2,0.896,2,2V32z
			 M26,24h-6c-0.553,0-1,0.447-1,1s0.447,1,1,1h6c0.553,0,1-0.447,1-1S26.553,24,26,24z"/>
	</g>
</g>
<g>
</g>
<g>
</g>
<g>
</g>
<g>
</g>
<g>
</g>
<g>
</g>
<g>
</g>
<g>
</g>
<g>
</g>
<g>
</g>
<g>
</g>
<g>
</g>
<g>
</g>
<g>
</g>
<g>
</g>
</svg>
