<?xml version="1.0" encoding="iso-8859-1"?>
<!-- Generator: Adobe Illustrator 16.0.4, SVG Export Plug-In . SVG Version: 6.00 Build 0)  -->
<!DOCTYPE svg PUBLIC "-//W3C//DTD SVG 1.1//EN" "http://www.w3.org/Graphics/SVG/1.1/DTD/svg11.dtd">
<svg version="1.1" id="Layer_1" xmlns="http://www.w3.org/2000/svg" xmlns:xlink="http://www.w3.org/1999/xlink" x="0px" y="0px"
	 width="56px" height="44px" viewBox="0 0 56 44" style="enable-background:new 0 0 56 44;" xml:space="preserve">
<g id="_x31_072-terminal_x40_2x.png">
	<g>
		<path d="M23.57,17.799C23.824,17.617,24,17.336,24,17c0-0.371-0.211-0.682-0.512-0.854l0.008-0.014l-14-8L9.488,8.146
			C9.342,8.062,9.181,8,9,8C8.447,8,8,8.448,8,9c0,0.371,0.211,0.682,0.512,0.854L8.504,9.868l12.645,7.226L8.419,26.187
			l0.011,0.015C8.176,26.383,8,26.665,8,27c0,0.553,0.447,1,1,1c0.217,0,0.407-0.084,0.57-0.201l0.011,0.015l14-10L23.57,17.799z
			 M32,28H22c-0.553,0-1,0.447-1,1s0.447,1,1,1h10c0.553,0,1-0.447,1-1S32.553,28,32,28z M52,0H4C1.791,0,0,1.791,0,4v36
			c0,2.209,1.791,4,4,4h48c2.209,0,4-1.791,4-4V4C56,1.791,54.209,0,52,0z M54,40c0,1.104-0.896,2-2,2H4c-1.104,0-2-0.896-2-2V4
			c0-1.104,0.896-2,2-2h48c1.104,0,2,0.896,2,2V40z"/>
	</g>
</g>
<g>
</g>
<g>
</g>
<g>
</g>
<g>
</g>
<g>
</g>
<g>
</g>
<g>
</g>
<g>
</g>
<g>
</g>
<g>
</g>
<g>
</g>
<g>
</g>
<g>
</g>
<g>
</g>
<g>
</g>
</svg>
