<?xml version="1.0" encoding="iso-8859-1"?>
<!-- Generator: Adobe Illustrator 16.0.4, SVG Export Plug-In . SVG Version: 6.00 Build 0)  -->
<!DOCTYPE svg PUBLIC "-//W3C//DTD SVG 1.1//EN" "http://www.w3.org/Graphics/SVG/1.1/DTD/svg11.dtd">
<svg version="1.1" id="Layer_1" xmlns="http://www.w3.org/2000/svg" xmlns:xlink="http://www.w3.org/1999/xlink" x="0px" y="0px"
	 width="20px" height="44px" viewBox="0 0 20 44" style="enable-background:new 0 0 20 44;" xml:space="preserve">
<g id="_x39_59-thermometer-toolbar_x40_2x.png">
	<g>
		<path d="M13,28.833V13c0-0.552-0.447-1-1-1s-1,0.448-1,1v16.438c0,0.396,0.234,0.73,0.567,0.893v0.001
			c0.003,0.001,0.005,0.003,0.009,0.005c0.018,0.008,0.033,0.02,0.053,0.026C13.024,30.986,14,32.381,14,34.008
			c0,2.207-1.791,3.996-4,3.996s-4-1.789-4-3.996c0-1.627,0.976-3.021,2.371-3.646c0.02-0.007,0.035-0.019,0.053-0.026
			c0.003-0.002,0.006-0.004,0.009-0.005V30.33C8.766,30.168,9,29.833,9,29.438V25c0-0.553-0.447-1-1-1s-1,0.447-1,1v3.833
			c-1.793,1.038-3.01,2.956-3.01,5.176c0,3.315,2.691,6.004,6.01,6.004c3.319,0,6.01-2.688,6.01-6.004
			C16.01,31.789,14.793,29.871,13,28.833z M17.011,26.862V7.004C17.011,3.136,13.872,0,10,0S2.989,3.136,2.989,7.004v19.858
			C1.146,28.678,0,31.2,0,33.993C0,39.52,4.478,44,10,44s10-4.48,10-10.007C20,31.2,18.854,28.678,17.011,26.862z M10,41.991
			c-4.413,0-7.99-3.581-7.99-7.998c0-2.521,1.169-4.768,2.99-6.233V22h1c0.553,0,1-0.447,1-1c0-0.552-0.447-1-1-1H5v-2h3
			c0.553,0,1-0.447,1-1s-0.447-1-1-1H5v-2h1c0.553,0,1-0.447,1-1c0-0.552-0.447-1-1-1H5v-2h3c0.553,0,1-0.447,1-1
			c0-0.552-0.447-1-1-1H5V7.004C5,4.246,7.238,2.01,10,2.01s5,2.236,5,4.994V27.76c1.821,1.466,2.99,3.712,2.99,6.233
			C17.99,38.41,14.413,41.991,10,41.991z"/>
	</g>
</g>
<g>
</g>
<g>
</g>
<g>
</g>
<g>
</g>
<g>
</g>
<g>
</g>
<g>
</g>
<g>
</g>
<g>
</g>
<g>
</g>
<g>
</g>
<g>
</g>
<g>
</g>
<g>
</g>
<g>
</g>
</svg>
