<?xml version="1.0" encoding="UTF-8" standalone="no"?>
<svg width="38px" height="58px" viewBox="0 0 38 58" version="1.1" xmlns="http://www.w3.org/2000/svg" xmlns:xlink="http://www.w3.org/1999/xlink" xmlns:sketch="http://www.bohemiancoding.com/sketch/ns">
    <!-- Generator: Sketch 3.0.4 (8053) - http://www.bohemiancoding.com/sketch -->
    <title>1104-three-finger-tap</title>
    <desc>Created with Sketch.</desc>
    <defs></defs>
    <g id="Page-1" stroke="none" stroke-width="1" fill="none" fill-rule="evenodd" sketch:type="MSPage">
        <g id="Glyphish-8-Icons" sketch:type="MSArtboardGroup" transform="translate(-318.000000, -19.000000)" fill="#000000">
            <g id="1104-three-finger-tap" sketch:type="MSLayerGroup" transform="translate(318.036996, 19.860499)">
                <g id="_x31_104-three-finger-tap_x40_2x.png" sketch:type="MSShapeGroup">
                    <path d="M5.009,14 C5.561,14 6.009,13.553 6.009,13 C6.009,6.925 12.277,2 20.009,2 C27.741,2 34.009,6.925 34.009,13 C34.009,13.553 34.457,14 35.009,14 C35.561,14 36.009,13.553 36.009,13 C36.009,5.82 28.845,0 20.009,0 C11.173,0 4.009,5.82 4.009,13 C4.009,13.553 4.457,14 5.009,14 L5.009,14 Z M32.009,22 C31.277,22 30.599,22.211 30.009,22.555 L30.009,12 C30.009,9.791 28.218,8 26.009,8 C25.179,8 24.409,8.253 23.77,8.686 C23.224,7.126 21.755,6 20.009,6 C18.263,6 16.794,7.126 16.248,8.686 C15.609,8.253 14.838,8 14.009,8 C11.8,8 10.009,9.791 10.009,12 L10.009,32.913 L7.697,28.456 C6.664,26.384 4.511,25.445 2.47,26.291 C0.429,27.137 -0.54,29.477 0.305,31.518 L4.609,44.296 C6.488,51.043 12.663,56 20.009,56 C28.845,56 36.009,48.837 36.009,40 L36.009,26 C36.009,23.791 34.218,22 32.009,22 L32.009,22 Z M34.009,40 C34.009,47.732 27.741,54 20.009,54 C14.093,54 9.045,50.325 6.995,45.138 L6.976,45.14 L6.975,45.137 L6.996,45.128 L2.153,30.752 C1.73,29.731 2.215,28.562 3.236,28.139 C4.257,27.716 5.269,28.116 5.849,29.221 L10.097,37.409 L10.1,37.408 C10.257,37.756 10.603,38 11.009,38 C11.561,38 12.009,37.553 12.009,37 L12.009,12 C12.009,10.896 12.905,10 14.009,10 C15.113,10 16.009,10.896 16.009,12 L16.009,27 C16.009,27.553 16.457,28 17.009,28 C17.561,28 18.009,27.553 18.009,27 L18.009,10 C18.009,8.896 18.905,8 20.009,8 C21.113,8 22.009,8.896 22.009,10 L22.009,29 C22.009,29.553 22.457,30 23.009,30 C23.561,30 24.009,29.553 24.009,29 L24.009,12 C24.009,10.896 24.905,10 26.009,10 C27.113,10 28.009,10.896 28.009,12 L28.009,31 C28.009,31.553 28.457,32 29.009,32 C29.561,32 30.009,31.553 30.009,31 L30.009,26.001 L30.009,26 C30.009,24.896 30.905,24 32.009,24 C33.113,24 34.009,24.896 34.009,26 L34.009,40 L34.009,40 Z" id="Shape"></path>
                </g>
            </g>
        </g>
    </g>
</svg>