<?xml version="1.0" encoding="iso-8859-1"?>
<!-- Generator: Adobe Illustrator 16.0.4, SVG Export Plug-In . SVG Version: 6.00 Build 0)  -->
<!DOCTYPE svg PUBLIC "-//W3C//DTD SVG 1.1//EN" "http://www.w3.org/Graphics/SVG/1.1/DTD/svg11.dtd">
<svg version="1.1" id="Layer_1" xmlns="http://www.w3.org/2000/svg" xmlns:xlink="http://www.w3.org/1999/xlink" x="0px" y="0px"
	 width="51.979px" height="55.993px" viewBox="0 0 51.979 55.993" style="enable-background:new 0 0 51.979 55.993;"
	 xml:space="preserve">
<g id="_x37_78-thumbs-down_x40_2x.png">
	<g>
		<path d="M51.979,23.448c0-1.311-0.054-3.488-1.602-5.237c0.635-0.588,1.228-1.728,1.514-3.026
			c0.439-2.004-0.859-3.939-2.692-6.377c0.237-0.831,1.501-2.096,0.424-4.04C47.822,1.514,41.697,0,32.743,0
			C21.885,0,17.484,0.786,13.657,2.197c-3.311,1.22-6.17,1.774-12.699,1.774v0.025C0.427,4.021,0,4.451,0,4.988c0,0.553,0.447,1,1,1
			c0.032,0,0.06-0.016,0.091-0.019c6.791-0.009,9.936-0.672,13.258-1.897c3.85-1.419,7.893-2.073,18.395-2.073
			c10.771,0,14.203,2.268,15.085,3.694c0.837,1.354-0.674,2.772-0.681,2.785L46.861,9.05l0.399,0.5
			c1.659,2.073,3.027,3.857,2.714,5.337c-0.33,1.56-1.329,2.366-1.387,2.396l-1.364,0.832l1.193,1.026
			c1.7,1.358,1.562,2.808,1.562,4.307c0,4.021-2.979,4.527-2.979,4.527s1.465,3.396-0.756,4.953
			c-1.527,1.068-4.105,0.482-7.094-0.195c-2.726-0.618-6.252-1.32-9.215-0.828c-1.312,0.219-3.134,0.671-3.799,2.066
			c-0.739,1.551,0.244,3.283,1.49,5.477c1.245,2.192,2.795,5.358,2.795,8.412c0,4.231-2.42,6.135-4.139,6.135
			c-1.139,0-1.792-0.792-1.792-2.172c0-5.698-2.738-8.872-10.867-16.996c-3.105-3.104-4.309-5.337-5.187-6.968
			C6.945,25.089,5,23.966,1.021,23.966v0.017C1.014,23.981,1.008,23.978,1,23.978c-0.553,0-1,0.448-1,1s0.447,0.999,1,0.999
			c0.021,0,0.037-0.01,0.057-0.011c2.953,0.004,4.388,0.554,5.619,2.841c0.885,1.642,2.222,4.123,5.534,7.434
			c7.897,7.893,10.281,10.713,10.281,15.583c0,2.88,1.904,4.17,3.792,4.17c3.018,0,6.139-3.042,6.139-8.133
			c0-3.582-1.694-7.003-3.056-9.399c-0.843-1.484-1.715-3.02-1.424-3.629c0.089-0.186,0.491-0.649,2.321-0.955
			c2.577-0.431,5.774,0.199,8.443,0.806c3.308,0.751,6.233,1.131,8.686-0.117c1.51-0.769,2.342-2.834,1.607-5.59
			C51.019,27.826,51.979,25.887,51.979,23.448z"/>
	</g>
</g>
<g>
</g>
<g>
</g>
<g>
</g>
<g>
</g>
<g>
</g>
<g>
</g>
<g>
</g>
<g>
</g>
<g>
</g>
<g>
</g>
<g>
</g>
<g>
</g>
<g>
</g>
<g>
</g>
<g>
</g>
</svg>
