<?xml version="1.0" encoding="iso-8859-1"?>
<!-- Generator: Adobe Illustrator 16.0.4, SVG Export Plug-In . SVG Version: 6.00 Build 0)  -->
<!DOCTYPE svg PUBLIC "-//W3C//DTD SVG 1.1//EN" "http://www.w3.org/Graphics/SVG/1.1/DTD/svg11.dtd">
<svg version="1.1" id="Layer_1" xmlns="http://www.w3.org/2000/svg" xmlns:xlink="http://www.w3.org/1999/xlink" x="0px" y="0px"
	 width="51.979px" height="56.025px" viewBox="0 0 51.979 56.025" style="enable-background:new 0 0 51.979 56.025;"
	 xml:space="preserve">
<g id="_x37_77-thumbs-up_x40_2x.png">
	<g>
		<path d="M51.892,40.832c-0.286-1.3-0.879-2.439-1.514-3.028c1.548-1.75,1.602-3.929,1.602-5.24c0-2.44-0.961-4.381-2.979-5.53
			c0.734-2.758-0.098-4.824-1.607-5.593c-2.452-1.249-5.378-0.869-8.686-0.117c-2.669,0.606-5.866,1.236-8.443,0.806
			c-1.83-0.306-2.232-0.77-2.321-0.955c-0.291-0.61,0.581-2.146,1.424-3.632c1.361-2.397,3.056-5.82,3.056-9.404
			C32.422,3.044,29.301,0,26.283,0c-1.888,0-3.792,1.291-3.792,4.173c0,4.873-2.384,7.694-10.281,15.592
			c-3.312,3.312-4.649,5.795-5.534,7.438C5.444,29.49,4.01,30.04,1.057,30.045C1.037,30.044,1.021,30.033,1,30.033
			c-0.553,0-1,0.448-1,1c0,0.553,0.447,1,1,1c0.007,0,0.014-0.004,0.021-0.004v0.017c3.979,0,5.925-1.124,7.417-3.896
			c0.878-1.632,2.081-3.867,5.187-6.972C21.753,13.05,24.491,9.874,24.491,4.173C24.491,2.792,25.145,2,26.283,2
			c1.719,0,4.139,1.904,4.139,6.138c0,3.056-1.55,6.224-2.795,8.417c-1.246,2.194-2.229,3.928-1.49,5.479
			c0.665,1.396,2.486,1.849,3.799,2.067c2.963,0.492,6.489-0.21,9.215-0.828c2.988-0.679,5.566-1.265,7.094-0.195
			C48.465,24.636,47,28.033,47,28.033s2.979,0.507,2.979,4.53c0,1.5,0.138,2.95-1.562,4.31l-1.193,1.026l1.364,0.833
			c0.058,0.03,1.057,0.837,1.387,2.397c0.313,1.48-1.055,3.266-2.714,5.34l-0.399,0.5l0.286,0.572
			c0.007,0.013,1.518,1.432,0.681,2.786c-0.882,1.428-4.314,3.697-15.085,3.697c-10.502,0-14.545-0.655-18.395-2.075
			c-3.322-1.227-6.467-1.89-13.258-1.898C1.06,50.049,1.032,50.033,1,50.033c-0.553,0-1,0.448-1,1c0,0.537,0.427,0.969,0.958,0.992
			v0.025c6.529,0,9.389,0.555,12.699,1.775c3.827,1.412,8.228,2.199,19.086,2.199c8.954,0,15.079-1.515,16.88-4.771
			c1.077-1.946-0.187-3.211-0.424-4.043C51.032,44.773,52.331,42.837,51.892,40.832z"/>
	</g>
</g>
<g>
</g>
<g>
</g>
<g>
</g>
<g>
</g>
<g>
</g>
<g>
</g>
<g>
</g>
<g>
</g>
<g>
</g>
<g>
</g>
<g>
</g>
<g>
</g>
<g>
</g>
<g>
</g>
<g>
</g>
</svg>
