<?xml version="1.0" encoding="iso-8859-1"?>
<!-- Generator: Adobe Illustrator 16.0.4, SVG Export Plug-In . SVG Version: 6.00 Build 0)  -->
<!DOCTYPE svg PUBLIC "-//W3C//DTD SVG 1.1//EN" "http://www.w3.org/Graphics/SVG/1.1/DTD/svg11.dtd">
<svg version="1.1" id="Layer_1" xmlns="http://www.w3.org/2000/svg" xmlns:xlink="http://www.w3.org/1999/xlink" x="0px" y="0px"
	 width="39.991px" height="43.996px" viewBox="0 0 39.991 43.996" style="enable-background:new 0 0 39.991 43.996;"
	 xml:space="preserve">
<g id="_x37_78-thumbs-down-toolbar_x40_2x.png">
	<g>
		<path d="M39.991,18.424c0-1.029-0.041-2.74-1.232-4.114c0.489-0.462,0.945-1.357,1.165-2.378c0.338-1.574-0.66-3.096-2.07-5.01
			c0.182-0.654,1.154-1.646,0.325-3.176C36.793,1.189,32.082,0,25.195,0c-8.354,0-11.488,0.494-14.432,1.602
			C8.238,2.553,6.046,2.988,1.115,2.995c0.058,0.007-0.203-0.018-0.5,0.062C0.235,3.155,0,3.566,0,3.983
			c0,0.556,0.449,1.006,1.004,1.006c0.002,0,0.002-0.001,0.004-0.001v0.01c0,0,6.032,0.238,10.46-1.524
			C14.046,2.448,16.9,2,25.195,2c9.059,0,10.883,2.065,11.225,2.699c0.129,0.236,0.143,0.262-0.137,0.821
			C36.16,5.769,36.02,6.05,35.926,6.384l-0.262,0.939l0.578,0.785c1.003,1.36,1.889,2.645,1.726,3.402
			c-0.16,0.746-0.468,1.236-0.583,1.346l-1.391,1.316l1.254,1.447c0.686,0.791,0.743,1.862,0.743,2.804
			c0,1.667-0.74,2.291-1.298,2.615l-1.312,0.764l0.383,1.469c0.312,1.199,0.051,1.971-0.225,2.113
			c-0.54,0.281-1.16,0.412-1.955,0.412c-1.076,0-2.297-0.25-3.35-0.494c-1.783-0.413-3.686-0.796-5.514-0.796
			c-0.63,0-1.227,0.048-1.771,0.141c-1.111,0.189-2.66,0.59-3.261,1.876c-0.655,1.403,0.186,2.917,1.161,4.669
			c0.9,1.62,2.098,4.047,2.098,6.413c0,2.995-1.625,4.391-2.723,4.391c-0.617,0-0.917-0.418-0.917-1.277
			c0-3.896-1.505-5.374-5.142-8.942c-0.896-0.879-1.912-1.875-3.119-3.107c-2.336-2.385-3.247-4.105-3.912-5.362
			c-1.061-2.016-2.438-2.854-4.127-3.158c0,0-1.596-0.181-2.392-0.068C0.254,20.231,0,20.589,0,21.007
			c0,0.555,0.449,1.005,1.004,1.005c0.027,0,0.05-0.013,0.076-0.016c2.242,0.01,3.34,0.447,4.281,2.232
			c0.682,1.289,1.709,3.239,4.258,5.84c6.074,6.202,7.688,6.824,7.688,10.65c0,2.264,1.466,3.277,2.917,3.277
			c2.321,0,4.722-2.391,4.722-6.391c0-2.814-1.302-5.502-2.349-7.385c-0.648-1.166-1.319-2.373-1.097-2.852
			c0.069-0.146,0.378-0.511,1.786-0.75c0.455-0.078,0.938-0.112,1.434-0.112c1.659,0,3.48,0.378,5.062,0.744
			c1.354,0.314,2.625,0.546,3.801,0.546c1.036,0,1.998-0.179,2.879-0.638c1.161-0.604,1.801-2.226,1.236-4.392
			C39.252,21.864,39.991,20.34,39.991,18.424z"/>
	</g>
</g>
<g>
</g>
<g>
</g>
<g>
</g>
<g>
</g>
<g>
</g>
<g>
</g>
<g>
</g>
<g>
</g>
<g>
</g>
<g>
</g>
<g>
</g>
<g>
</g>
<g>
</g>
<g>
</g>
<g>
</g>
</svg>
