<?xml version="1.0" encoding="iso-8859-1"?>
<!-- Generator: Adobe Illustrator 16.0.4, SVG Export Plug-In . SVG Version: 6.00 Build 0)  -->
<!DOCTYPE svg PUBLIC "-//W3C//DTD SVG 1.1//EN" "http://www.w3.org/Graphics/SVG/1.1/DTD/svg11.dtd">
<svg version="1.1" id="Layer_1" xmlns="http://www.w3.org/2000/svg" xmlns:xlink="http://www.w3.org/1999/xlink" x="0px" y="0px"
	 width="39.992px" height="43.996px" viewBox="0 0 39.992 43.996" style="enable-background:new 0 0 39.992 43.996;"
	 xml:space="preserve">
<g id="_x37_77-thumbs-up-toolbar_x40_2x.png">
	<g>
		<path d="M39.924,32.064c-0.22-1.021-0.676-1.916-1.165-2.378c1.192-1.374,1.233-3.085,1.233-4.114c0-1.916-0.74-3.44-2.293-4.344
			c0.564-2.166-0.075-3.787-1.236-4.392c-0.881-0.459-1.844-0.638-2.879-0.638c-1.176,0-2.447,0.231-3.801,0.546
			c-1.582,0.366-3.402,0.744-5.062,0.744c-0.496,0-0.979-0.034-1.434-0.112c-1.408-0.239-1.717-0.604-1.786-0.75
			c-0.224-0.479,0.448-1.686,1.096-2.852c1.048-1.883,2.35-4.57,2.35-7.385c0-4-2.399-6.391-4.722-6.391
			c-1.451,0-2.917,1.014-2.917,3.277c0,3.826-1.614,4.448-7.688,10.65c-2.549,2.601-3.577,4.551-4.258,5.84
			C4.42,21.553,3.322,21.99,1.08,22c-0.026-0.002-0.049-0.016-0.076-0.016C0.449,21.984,0,22.435,0,22.989
			c0,0.418,0.254,0.775,0.616,0.927c0.796,0.112,2.392-0.068,2.392-0.068c1.689-0.305,3.066-1.143,4.127-3.158
			c0.665-1.257,1.576-2.978,3.913-5.362c1.206-1.232,2.223-2.229,3.118-3.107c3.637-3.568,5.142-5.046,5.142-8.942
			c0-0.859,0.3-1.277,0.917-1.277c1.098,0,2.722,1.396,2.722,4.391c0,2.366-1.197,4.793-2.097,6.413
			c-0.976,1.752-1.816,3.266-1.16,4.669c0.6,1.286,2.148,1.687,3.26,1.876c0.545,0.093,1.142,0.141,1.771,0.141
			c1.828,0,3.73-0.383,5.514-0.796c1.053-0.244,2.273-0.494,3.35-0.494c0.795,0,1.415,0.131,1.955,0.412
			c0.275,0.143,0.537,0.914,0.225,2.113l-0.383,1.469l1.312,0.764c0.559,0.324,1.298,0.948,1.298,2.615
			c0,0.941-0.058,2.013-0.743,2.804l-1.254,1.447l1.392,1.316c0.114,0.109,0.422,0.6,0.583,1.346
			c0.162,0.758-0.724,2.042-1.727,3.402l-0.578,0.785l0.262,0.939c0.095,0.334,0.234,0.615,0.357,0.863
			c0.279,0.56,0.267,0.585,0.137,0.821c-0.342,0.634-2.166,2.699-11.225,2.699c-8.295,0-11.149-0.448-13.727-1.474
			C7.04,38.76,1.008,38.998,1.008,38.998v0.01c-0.002,0-0.002,0-0.004,0C0.449,39.008,0,39.457,0,40.013
			c0,0.417,0.235,0.828,0.615,0.927c0.297,0.079,0.558,0.055,0.5,0.062c4.932,0.007,7.123,0.442,9.647,1.394
			c2.944,1.107,6.078,1.602,14.433,1.602c6.887,0,11.598-1.189,12.984-3.746c0.828-1.529-0.145-2.521-0.326-3.176
			C39.264,35.16,40.262,33.639,39.924,32.064z"/>
	</g>
</g>
<g>
</g>
<g>
</g>
<g>
</g>
<g>
</g>
<g>
</g>
<g>
</g>
<g>
</g>
<g>
</g>
<g>
</g>
<g>
</g>
<g>
</g>
<g>
</g>
<g>
</g>
<g>
</g>
<g>
</g>
</svg>
