<?xml version="1.0" encoding="iso-8859-1"?>
<!-- Generator: Adobe Illustrator 16.0.4, SVG Export Plug-In . SVG Version: 6.00 Build 0)  -->
<!DOCTYPE svg PUBLIC "-//W3C//DTD SVG 1.1//EN" "http://www.w3.org/Graphics/SVG/1.1/DTD/svg11.dtd">
<svg version="1.1" id="Layer_1" xmlns="http://www.w3.org/2000/svg" xmlns:xlink="http://www.w3.org/1999/xlink" x="0px" y="0px"
	 width="56px" height="36px" viewBox="0 0 56 36" style="enable-background:new 0 0 56 36;" xml:space="preserve">
<g id="_x31_055-ticket_x40_2x.png">
	<g>
		<path d="M55,13c0.553,0,1-0.447,1-1V1c0-0.553-0.447-1-1-1H1C0.447,0,0,0.447,0,1v11c0,0.553,0.447,1,1,1c2.762,0,5,2.238,5,5
			s-2.238,5-5,5c-0.553,0-1,0.447-1,1v11c0,0.553,0.447,1,1,1h54c0.553,0,1-0.447,1-1V24c0-0.553-0.447-1-1-1c-2.762,0-5-2.238-5-5
			S52.238,13,55,13z M48,18c0,3.525,2.609,6.434,6,6.921V34H2v-9.079C5.391,24.434,8,21.525,8,18s-2.609-6.434-6-6.92V2h52v9.08
			C50.609,11.566,48,14.475,48,18z M40,4H16c-3.313,0-6,2.687-6,6v16c0,3.313,2.687,6,6,6h24c3.313,0,6-2.687,6-6V10
			C46,6.687,43.313,4,40,4z M34,30H16c-2.209,0-4-1.791-4-4V10c0-2.209,1.791-4,4-4h18V30z M44,26c0,2.209-1.791,4-4,4h-4V6h4
			c2.209,0,4,1.791,4,4V26z M14,16c0,0.316,0.156,0.586,0.385,0.77l-0.01,0.012l4.456,3.564l-1.779,5.338l0.012,0.004
			C17.03,25.787,17,25.89,17,26c0,0.553,0.447,1,1,1c0.238,0,0.448-0.089,0.617-0.229l0.008,0.01l4.375-3.5l4.375,3.5l0.01-0.012
			C27.556,26.906,27.764,27,28,27c0.553,0,1-0.447,1-1c0-0.112-0.04-0.209-0.075-0.309l0.023-0.008l-1.779-5.338l4.456-3.564
			l-0.01-0.012C31.844,16.586,32,16.316,32,16c0-0.553-0.447-1-1-1h-5.279l-1.771-5.316l-0.013,0.004C23.805,9.291,23.441,9,23,9
			s-0.805,0.291-0.937,0.688l-0.012-0.004L20.279,15H15C14.447,15,14,15.447,14,16z M21,17c0.441,0,0.805-0.291,0.937-0.688
			l0.012,0.004L23,13.162l1.052,3.154l0.012-0.004C24.195,16.709,24.559,17,25,17h3.149l-2.774,2.219l0.01,0.013
			C25.156,19.414,25,19.684,25,20c0,0.111,0.03,0.213,0.063,0.312l-0.012,0.004l0.929,2.787l-2.355-1.885l-0.01,0.013
			C23.444,21.094,23.236,21,23,21s-0.444,0.094-0.615,0.231l-0.01-0.013l-2.355,1.885l0.929-2.787l-0.012-0.004
			C20.971,20.213,21,20.111,21,20c0-0.316-0.156-0.586-0.385-0.769l0.01-0.013L17.851,17H21z"/>
	</g>
</g>
<g>
</g>
<g>
</g>
<g>
</g>
<g>
</g>
<g>
</g>
<g>
</g>
<g>
</g>
<g>
</g>
<g>
</g>
<g>
</g>
<g>
</g>
<g>
</g>
<g>
</g>
<g>
</g>
<g>
</g>
</svg>
