<?xml version="1.0" encoding="iso-8859-1"?>
<!-- Generator: Adobe Illustrator 16.0.4, SVG Export Plug-In . SVG Version: 6.00 Build 0)  -->
<!DOCTYPE svg PUBLIC "-//W3C//DTD SVG 1.1//EN" "http://www.w3.org/Graphics/SVG/1.1/DTD/svg11.dtd">
<svg version="1.1" id="Layer_1" xmlns="http://www.w3.org/2000/svg" xmlns:xlink="http://www.w3.org/1999/xlink" x="0px" y="0px"
	 width="54px" height="56px" viewBox="0 0 54 56" style="enable-background:new 0 0 54 56;" xml:space="preserve">
<g id="_x31_097-timer-2_x40_2x.png">
	<g>
		<path d="M27,6c1.657,0,3-1.343,3-3c0-1.656-1.343-3-3-3s-3,1.344-3,3C24,4.657,25.343,6,27,6z M27,2c0.553,0,1,0.447,1,1
			s-0.447,1-1,1s-1-0.447-1-1S26.447,2,27,2z M29.828,31.828c1.562-1.562,1.562-4.095,0-5.656C27,23.344,7.857,9.858,7.857,9.858
			S21.343,29,24.172,31.828C25.733,33.391,28.267,33.391,29.828,31.828z M37.477,4.11l-0.01,0.021C37.326,4.055,37.172,4,37,4
			c-0.553,0-1,0.447-1,1c0,0.416,0.255,0.772,0.617,0.923h-0.001C45.649,9.691,52,18.602,52,29c0,13.808-11.193,25-25,25
			S2,42.808,2,29c0-3.047,0.576-5.949,1.577-8.646l-0.056-0.022c0.062-0.13,0.104-0.271,0.104-0.426c0-0.552-0.447-1-1-1
			s-1,0.448-1,1c0,0.001,0.001,0.002,0.001,0.003C0.599,22.753,0,25.801,0,29c0,14.912,12.088,27,27,27s27-12.088,27-27
			C54,17.804,47.185,8.201,37.477,4.11z"/>
	</g>
</g>
<g>
</g>
<g>
</g>
<g>
</g>
<g>
</g>
<g>
</g>
<g>
</g>
<g>
</g>
<g>
</g>
<g>
</g>
<g>
</g>
<g>
</g>
<g>
</g>
<g>
</g>
<g>
</g>
<g>
</g>
</svg>
