<?xml version="1.0" encoding="iso-8859-1"?>
<!-- Generator: Adobe Illustrator 16.0.4, SVG Export Plug-In . SVG Version: 6.00 Build 0)  -->
<!DOCTYPE svg PUBLIC "-//W3C//DTD SVG 1.1//EN" "http://www.w3.org/Graphics/SVG/1.1/DTD/svg11.dtd">
<svg version="1.1" id="Layer_1" xmlns="http://www.w3.org/2000/svg" xmlns:xlink="http://www.w3.org/1999/xlink" x="0px" y="0px"
	 width="44px" height="44px" viewBox="0 0 44 44" style="enable-background:new 0 0 44 44;" xml:space="preserve">
<g id="_x37_18-timer-1-toolbar_x40_2x.png">
	<g>
		<path d="M23.404,0.089C23.28,0.033,23.145,0,23,0c-0.553,0-1,0.448-1,1v6c0,0.553,0.447,1,1,1s1-0.447,1-1V2.149
			C34.101,3.157,42,11.635,42,22c0,11.046-8.954,20-20,20S2,33.046,2,22c0-5.522,2.238-10.522,5.858-14.142l-0.02-0.02
			c0.21-0.184,0.349-0.444,0.349-0.745c0-0.552-0.447-1-1-1c-0.304,0-0.566,0.143-0.75,0.356C2.46,10.431,0,15.928,0,22
			c0,12.15,9.85,22,22,22s22-9.85,22-22C44,10.325,34.895,0.817,23.404,0.089z M24.824,24.798c1.568-1.562,1.568-4.095,0-5.657
			c-0.091-0.09-0.193-0.156-0.29-0.236c-3.121-2.833-12.677-7.046-12.677-7.046s4.167,9.382,7.001,12.59
			c0.094,0.117,0.177,0.24,0.286,0.35C20.713,26.359,23.256,26.359,24.824,24.798z"/>
	</g>
</g>
<g>
</g>
<g>
</g>
<g>
</g>
<g>
</g>
<g>
</g>
<g>
</g>
<g>
</g>
<g>
</g>
<g>
</g>
<g>
</g>
<g>
</g>
<g>
</g>
<g>
</g>
<g>
</g>
<g>
</g>
</svg>
