<?xml version="1.0" encoding="iso-8859-1"?>
<!-- Generator: Adobe Illustrator 16.0.4, SVG Export Plug-In . SVG Version: 6.00 Build 0)  -->
<!DOCTYPE svg PUBLIC "-//W3C//DTD SVG 1.1//EN" "http://www.w3.org/Graphics/SVG/1.1/DTD/svg11.dtd">
<svg version="1.1" id="Layer_1" xmlns="http://www.w3.org/2000/svg" xmlns:xlink="http://www.w3.org/1999/xlink" x="0px" y="0px"
	 width="44px" height="44px" viewBox="0 0 44 44" style="enable-background:new 0 0 44 44;" xml:space="preserve">
<g id="_x31_097-timer-2-toolbar_x40_2x.png">
	<g>
		<path d="M23,6c1.657,0,3-1.343,3-3c0-1.656-1.343-3-3-3s-3,1.344-3,3C20,4.657,21.343,6,23,6z M23,2c0.553,0,1,0.448,1,1
			c0,0.553-0.447,1-1,1s-1-0.447-1-1C22,2.448,22.447,2,23,2z M30.692,1.846C30.513,1.672,30.27,1.562,30,1.562
			c-0.553,0-1,0.448-1,1c0,0.416,0.255,0.772,0.617,0.923L29.591,3.54C36.865,6.526,42,13.647,42,22c0,11.046-8.954,20-20,20
			S2,33.046,2,22c0-2.682,0.537-5.235,1.494-7.572L3.49,14.426c0.062-0.13,0.104-0.271,0.104-0.426c0-0.552-0.447-1-1-1
			c-0.441,0-0.805,0.291-0.938,0.688L1.64,13.682C0.589,16.249,0,19.055,0,22c0,12.15,9.85,22,22,22s22-9.85,22-22
			C44,12.945,38.511,5.213,30.692,1.846z M19.145,24.798c1.568,1.562,4.111,1.562,5.68,0c1.568-1.562,1.568-4.095,0-5.657
			c-0.06-0.059-0.129-0.101-0.19-0.155C21.438,15.977,6.482,6.483,6.482,6.483s9.428,14.806,12.488,18.103
			C19.031,24.655,19.078,24.731,19.145,24.798z"/>
	</g>
</g>
<g>
</g>
<g>
</g>
<g>
</g>
<g>
</g>
<g>
</g>
<g>
</g>
<g>
</g>
<g>
</g>
<g>
</g>
<g>
</g>
<g>
</g>
<g>
</g>
<g>
</g>
<g>
</g>
<g>
</g>
</svg>
