<?xml version="1.0" encoding="iso-8859-1"?>
<!-- Generator: Adobe Illustrator 16.0.4, SVG Export Plug-In . SVG Version: 6.00 Build 0)  -->
<!DOCTYPE svg PUBLIC "-//W3C//DTD SVG 1.1//EN" "http://www.w3.org/Graphics/SVG/1.1/DTD/svg11.dtd">
<svg version="1.1" id="Layer_1" xmlns="http://www.w3.org/2000/svg" xmlns:xlink="http://www.w3.org/1999/xlink" x="0px" y="0px"
	 width="56px" height="56px" viewBox="0 0 56 56" style="enable-background:new 0 0 56 56;" xml:space="preserve">
<g id="_x37_18-timer-1_x40_2x.png">
	<g>
		<path d="M28,0c-0.553,0-1,0.448-1,1v12c0,0.553,0.447,1,1,1s1-0.447,1-1V2.051C42.893,2.58,54,13.979,54,28
			c0,14.359-11.641,26-26,26S2,42.359,2,28c0-7.18,2.91-13.68,7.615-18.385L9.613,9.613c0.181-0.181,0.293-0.431,0.293-0.707
			c0-0.553-0.447-1-1-1c-0.282,0-0.535,0.119-0.717,0.308C3.13,13.28,0,20.274,0,28c0,15.464,12.536,28,28,28s28-12.536,28-28
			S43.464,0,28,0z M30.828,30.829c1.562-1.562,1.562-4.095,0-5.657C28,22.344,13.857,13.858,13.857,13.858S22.343,28,25.172,30.829
			C26.733,32.391,29.267,32.391,30.828,30.829z"/>
	</g>
</g>
<g>
</g>
<g>
</g>
<g>
</g>
<g>
</g>
<g>
</g>
<g>
</g>
<g>
</g>
<g>
</g>
<g>
</g>
<g>
</g>
<g>
</g>
<g>
</g>
<g>
</g>
<g>
</g>
<g>
</g>
</svg>
