<?xml version="1.0" encoding="iso-8859-1"?>
<!-- Generator: Adobe Illustrator 16.0.4, SVG Export Plug-In . SVG Version: 6.00 Build 0)  -->
<!DOCTYPE svg PUBLIC "-//W3C//DTD SVG 1.1//EN" "http://www.w3.org/Graphics/SVG/1.1/DTD/svg11.dtd">
<svg version="1.1" id="Layer_1" xmlns="http://www.w3.org/2000/svg" xmlns:xlink="http://www.w3.org/1999/xlink" x="0px" y="0px"
	 width="44px" height="36px" viewBox="0 0 44 36" style="enable-background:new 0 0 44 36;" xml:space="preserve">
<g id="_x39_21-toolbox-toolbar_x40_2x.png">
	<g>
		<path d="M40,6H30V4c0-2.209-1.791-4-4-4h-8c-2.209,0-4,1.791-4,4v2H4c-2.209,0-4,1.791-4,4v10h2v12c0,2.209,1.791,4,4,4h32
			c2.209,0,4-1.791,4-4V20h2V10C44,7.791,42.209,6,40,6z M16,4c0-1.104,0.896-2,2-2h8c1.104,0,2,0.896,2,2v2H16V4z M40,32
			c0,1.104-0.896,2-2,2H6c-1.104,0-2-0.896-2-2V20h6v2c0,1.104,0.896,2,2,2h4c1.104,0,2-0.896,2-2v-2h8v2c0,1.104,0.896,2,2,2h4
			c1.104,0,2-0.896,2-2v-2h6V32z M12,22v-6h4v6H12z M28,22v-6h4v6H28z M42,18h-8v-2c0-1.104-0.896-2-2-2h-4c-1.104,0-2,0.896-2,2v2
			h-8v-2c0-1.104-0.896-2-2-2h-4c-1.104,0-2,0.896-2,2v2H2v-8c0-1.104,0.896-2,2-2h36c1.104,0,2,0.896,2,2V18z"/>
	</g>
</g>
<g>
</g>
<g>
</g>
<g>
</g>
<g>
</g>
<g>
</g>
<g>
</g>
<g>
</g>
<g>
</g>
<g>
</g>
<g>
</g>
<g>
</g>
<g>
</g>
<g>
</g>
<g>
</g>
<g>
</g>
</svg>
