<?xml version="1.0" encoding="iso-8859-1"?>
<!-- Generator: Adobe Illustrator 16.0.4, SVG Export Plug-In . SVG Version: 6.00 Build 0)  -->
<!DOCTYPE svg PUBLIC "-//W3C//DTD SVG 1.1//EN" "http://www.w3.org/Graphics/SVG/1.1/DTD/svg11.dtd">
<svg version="1.1" id="Layer_1" xmlns="http://www.w3.org/2000/svg" xmlns:xlink="http://www.w3.org/1999/xlink" x="0px" y="0px"
	 width="56px" height="44px" viewBox="0 0 56 44" style="enable-background:new 0 0 56 44;" xml:space="preserve">
<g id="_x39_21-toolbox_x40_2x.png">
	<g>
		<path d="M52,8H40V4c0-2.209-1.791-4-4-4H20c-2.209,0-4,1.791-4,4v4H4c-2.209,0-4,1.791-4,4v12h2v16c0,2.209,1.791,4,4,4h44
			c2.209,0,4-1.791,4-4V24h2V12C56,9.791,54.209,8,52,8z M18,4c0-1.104,0.896-2,2-2h16c1.104,0,2,0.896,2,2v4H18V4z M52,40
			c0,1.104-0.896,2-2,2H6c-1.104,0-2-0.896-2-2V24h6v2c0,1.104,0.896,2,2,2h4c1.104,0,2-0.896,2-2v-2h20v2c0,1.104,0.896,2,2,2h4
			c1.104,0,2-0.896,2-2v-2h6V40z M12,26v-6h4v6H12z M40,26v-6h4v6H40z M54,22h-8v-2c0-1.104-0.896-2-2-2h-4c-1.104,0-2,0.896-2,2v2
			H18v-2c0-1.104-0.896-2-2-2h-4c-1.104,0-2,0.896-2,2v2H2V12c0-1.104,0.896-2,2-2h48c1.104,0,2,0.896,2,2V22z"/>
	</g>
</g>
<g>
</g>
<g>
</g>
<g>
</g>
<g>
</g>
<g>
</g>
<g>
</g>
<g>
</g>
<g>
</g>
<g>
</g>
<g>
</g>
<g>
</g>
<g>
</g>
<g>
</g>
<g>
</g>
<g>
</g>
</svg>
