<?xml version="1.0" encoding="iso-8859-1"?>
<!-- Generator: Adobe Illustrator 16.0.4, SVG Export Plug-In . SVG Version: 6.00 Build 0)  -->
<!DOCTYPE svg PUBLIC "-//W3C//DTD SVG 1.1//EN" "http://www.w3.org/Graphics/SVG/1.1/DTD/svg11.dtd">
<svg version="1.1" id="Layer_1" xmlns="http://www.w3.org/2000/svg" xmlns:xlink="http://www.w3.org/1999/xlink" x="0px" y="0px"
	 width="44px" height="43.375px" viewBox="0 0 44 43.375" style="enable-background:new 0 0 44 43.375;" xml:space="preserve">
<g id="_x37_29-top-list-toolbar_x40_2x.png">
	<g>
		<path d="M17,7.375h26c0.553,0,1-0.447,1-1c0-0.552-0.447-1-1-1H17c-0.553,0-1,0.448-1,1C16,6.928,16.447,7.375,17,7.375z
			 M7.42,36.375L6,32l-1.42,4.375H0l3.696,2.68l-1.339,4.32L6,40.859l3.643,2.516l-1.339-4.32L12,36.375H7.42z M6,16l-1.42,4.375H0
			l3.696,2.68l-1.339,4.32L6,24.859l3.643,2.516l-1.339-4.32L12,20.375H7.42L6,16z M43,37.375H17c-0.553,0-1,0.448-1,1
			c0,0.553,0.447,1,1,1h26c0.553,0,1-0.447,1-1C44,37.823,43.553,37.375,43,37.375z M6,0L4.58,4.375H0l3.696,2.68l-1.339,4.32
			L6,8.859l3.643,2.516l-1.339-4.32L12,4.375H7.42L6,0z M43,21.375H17c-0.553,0-1,0.448-1,1c0,0.553,0.447,1,1,1h26
			c0.553,0,1-0.447,1-1C44,21.823,43.553,21.375,43,21.375z"/>
	</g>
</g>
<g>
</g>
<g>
</g>
<g>
</g>
<g>
</g>
<g>
</g>
<g>
</g>
<g>
</g>
<g>
</g>
<g>
</g>
<g>
</g>
<g>
</g>
<g>
</g>
<g>
</g>
<g>
</g>
<g>
</g>
</svg>
