<?xml version="1.0" encoding="iso-8859-1"?>
<!-- Generator: Adobe Illustrator 16.0.4, SVG Export Plug-In . SVG Version: 6.00 Build 0)  -->
<!DOCTYPE svg PUBLIC "-//W3C//DTD SVG 1.1//EN" "http://www.w3.org/Graphics/SVG/1.1/DTD/svg11.dtd">
<svg version="1.1" id="Layer_1" xmlns="http://www.w3.org/2000/svg" xmlns:xlink="http://www.w3.org/1999/xlink" x="0px" y="0px"
	 width="44px" height="36.003px" viewBox="0 0 44 36.003" style="enable-background:new 0 0 44 36.003;" xml:space="preserve">
<g id="_x31_133-tophat_x40_2x.png">
	<g>
		<path d="M36.525,20.27l1.471-16.176l-0.015-0.002C37.984,4.062,38,4.032,38,4.002C38,1.792,30.836,0,22,0S6,1.792,6,4.002
			c0,0.03,0.016,0.06,0.019,0.09L6.004,4.094L7.475,20.27C2.909,21.918,0,24.316,0,27.003c0,4.971,9.85,9,22,9s22-4.029,22-9
			C44,24.316,41.091,21.918,36.525,20.27z M22,1.997c7.097,0,12.122,1.145,13.837,2.005C34.122,4.862,29.098,6.007,22,6.007
			S9.878,4.862,8.163,4.002C9.878,3.142,14.902,1.997,22,1.997z M8.187,6.015C10.961,7.203,16.101,8.004,22,8.004
			s11.039-0.801,13.813-1.989L34.451,21c0,0.001,0,0.001,0,0.001l-0.007,0.082c-0.006,0.002-0.013,0.003-0.019,0.005
			C34.147,22.19,28.699,23.072,22,23.072S9.853,22.19,9.576,21.088c-0.006-0.002-0.013-0.003-0.019-0.005l-0.008-0.082V21
			L8.187,6.015z M22,34.003c-11.046,0-20-3.134-20-7c0-1.889,2.168-3.593,5.646-4.851l0.347,3.819c0,0.009-0.007,0.018-0.007,0.026
			c0,2.207,6.274,3.997,14.014,3.997s14.014-1.79,14.014-3.997c0-0.014-0.005-0.027-0.006-0.041l0.346-3.805
			C39.832,23.41,42,25.114,42,27.003C42,30.869,33.046,34.003,22,34.003z"/>
	</g>
</g>
<g>
</g>
<g>
</g>
<g>
</g>
<g>
</g>
<g>
</g>
<g>
</g>
<g>
</g>
<g>
</g>
<g>
</g>
<g>
</g>
<g>
</g>
<g>
</g>
<g>
</g>
<g>
</g>
<g>
</g>
</svg>
