<?xml version="1.0" encoding="iso-8859-1"?>
<!-- Generator: Adobe Illustrator 16.0.4, SVG Export Plug-In . SVG Version: 6.00 Build 0)  -->
<!DOCTYPE svg PUBLIC "-//W3C//DTD SVG 1.1//EN" "http://www.w3.org/Graphics/SVG/1.1/DTD/svg11.dtd">
<svg version="1.1" id="Layer_1" xmlns="http://www.w3.org/2000/svg" xmlns:xlink="http://www.w3.org/1999/xlink" x="0px" y="0px"
	 width="44px" height="28px" viewBox="0 0 44 28" style="enable-background:new 0 0 44 28;" xml:space="preserve">
<g id="_x38_85-trailer-toolbar_x40_2x.png">
	<g>
		<path d="M18,22c-1.657,0-3,1.344-3,3c0,1.657,1.343,3,3,3s3-1.343,3-3C21,23.344,19.657,22,18,22z M18,26c-0.553,0-1-0.447-1-1
			c0-0.552,0.447-1,1-1s1,0.448,1,1C19,25.553,18.553,26,18,26z M32,6h-6c-1.104,0-2,0.896-2,2v4c0,1.104,0.896,2,2,2h6
			c1.104,0,2-0.896,2-2V8C34,6.896,33.104,6,32,6z M32,12h-6V8h6V12z M18,6H8C6.896,6,6,6.896,6,8v4c0,1.104,0.896,2,2,2h10
			c1.104,0,2-0.896,2-2V8C20,6.896,19.104,6,18,6z M18,12H8V8h10V12z M43,20c-0.552,0-1,0.448-1,1v3h-3.558
			C39.4,22.938,40,21.544,40,20V6c0-3.313-2.687-6-6-6H6C2.687,0,0,2.687,0,6v14c0,3.313,2.687,6,6,6h7.101
			C13.035,25.677,13,25.343,13,25c0-0.342,0.035-0.677,0.101-1c0.464-2.282,2.48-4,4.899-4s4.436,1.718,4.899,4
			C22.965,24.323,23,24.658,23,25c0,0.343-0.035,0.677-0.101,1H33h1h9c0.553,0,1-0.447,1-1v-4C44,20.448,43.553,20,43,20z M38,20
			c0,2.209-1.791,4-4,4h-8.997c-0.39-3.374-3.375-6-7.003-6s-6.613,2.626-7.003,6H6c-2.209,0-4-1.791-4-4V6c0-2.209,1.791-4,4-4h28
			c2.209,0,4,1.791,4,4V20z"/>
	</g>
</g>
<g>
</g>
<g>
</g>
<g>
</g>
<g>
</g>
<g>
</g>
<g>
</g>
<g>
</g>
<g>
</g>
<g>
</g>
<g>
</g>
<g>
</g>
<g>
</g>
<g>
</g>
<g>
</g>
<g>
</g>
</svg>
