<?xml version="1.0" encoding="iso-8859-1"?>
<!-- Generator: Adobe Illustrator 16.0.4, SVG Export Plug-In . SVG Version: 6.00 Build 0)  -->
<!DOCTYPE svg PUBLIC "-//W3C//DTD SVG 1.1//EN" "http://www.w3.org/Graphics/SVG/1.1/DTD/svg11.dtd">
<svg version="1.1" id="Layer_1" xmlns="http://www.w3.org/2000/svg" xmlns:xlink="http://www.w3.org/1999/xlink" x="0px" y="0px"
	 width="28px" height="44px" viewBox="0 0 28 44" style="enable-background:new 0 0 28 44;" xml:space="preserve">
<g id="_x38_13-train-toolbar_x40_2x.png">
	<g>
		<path d="M26,4h-4V2c0-1.104-0.896-2-2-2h-2c-1.104,0-2,0.896-2,2v2h-4V2c0-1.104-0.896-2-2-2H8C6.896,0,6,0.896,6,2v2H2
			C0.896,4,0,4.896,0,6v26c0,1.104,0.896,2,2,2h24c1.104,0,2-0.896,2-2V6C28,4.896,27.104,4,26,4z M18,2h2v2h-2V2z M8,2h2v2H8V2z
			 M26,32H2V6h24V32z M19.707,36.293C19.526,36.112,19.276,36,19,36c-0.553,0-1,0.448-1,1c0,0.276,0.112,0.526,0.293,0.707
			L20.586,40H7.414l2.293-2.293C9.888,37.526,10,37.276,10,37c0-0.552-0.447-1-1-1c-0.276,0-0.526,0.112-0.707,0.293l-5.999,5.999
			C2.112,42.474,2,42.724,2,43c0,0.553,0.447,1,1,1c0.276,0,0.526-0.112,0.707-0.293L5.414,42h17.172l1.707,1.707
			C24.474,43.888,24.724,44,25,44c0.553,0,1-0.447,1-1c0-0.276-0.112-0.526-0.294-0.708L19.707,36.293z M6,22h16
			c1.104,0,2-0.895,2-2v-6c0-1.104-0.896-2-2-2H6c-1.104,0-2,0.896-2,2v6C4,21.105,4.896,22,6,22z M6,14h16v6H6V14z M8,25
			c-1.104,0-2,0.896-2,2c0,1.105,0.896,2,2,2s2-0.895,2-2C10,25.896,9.104,25,8,25z M11,10h6c0.553,0,1-0.447,1-1
			c0-0.552-0.447-1-1-1h-6c-0.553,0-1,0.448-1,1C10,9.553,10.447,10,11,10z M20,25c-1.104,0-2,0.896-2,2c0,1.105,0.896,2,2,2
			s2-0.895,2-2C22,25.896,21.104,25,20,25z"/>
	</g>
</g>
<g>
</g>
<g>
</g>
<g>
</g>
<g>
</g>
<g>
</g>
<g>
</g>
<g>
</g>
<g>
</g>
<g>
</g>
<g>
</g>
<g>
</g>
<g>
</g>
<g>
</g>
<g>
</g>
<g>
</g>
</svg>
