<?xml version="1.0" encoding="iso-8859-1"?>
<!-- Generator: Adobe Illustrator 16.0.4, SVG Export Plug-In . SVG Version: 6.00 Build 0)  -->
<!DOCTYPE svg PUBLIC "-//W3C//DTD SVG 1.1//EN" "http://www.w3.org/Graphics/SVG/1.1/DTD/svg11.dtd">
<svg version="1.1" id="Layer_1" xmlns="http://www.w3.org/2000/svg" xmlns:xlink="http://www.w3.org/1999/xlink" x="0px" y="0px"
	 width="36px" height="44px" viewBox="0 0 36 44" style="enable-background:new 0 0 36 44;" xml:space="preserve">
<g id="_x37_11-trash-toolbar_x40_2x.png">
	<g>
		<path d="M10.952,12.001c-0.551,0.032-0.972,0.507-0.94,1.059l0.99,24.001c0.032,0.552,0.505,0.974,1.057,0.941
			c0.551-0.033,0.972-0.507,0.94-1.059l-0.99-24.001C11.976,12.39,11.503,11.969,10.952,12.001z M18,12c-0.552,0-1,0.447-1,1v24
			c0,0.552,0.448,1,1,1c0.553,0,1-0.448,1-1V13C19,12.447,18.553,12,18,12z M35,6h-8V4c0-2.21-1.791-4-4-4H13c-2.209,0-4,1.79-4,4v2
			H1C0.448,6,0,6.447,0,7c0,0.552,0.448,1,1,1h1l2,32c0,2.209,1.791,4,4,4h20c2.209,0,4-1.791,4-4l2-32h1c0.553,0,1-0.448,1-1
			C36,6.447,35.553,6,35,6z M11,4c0-1.104,0.896-2,2-2h10c1.104,0,2,0.896,2,2v2H11V4z M30,40c0,1.104-0.896,2-2,2H8
			c-1.104,0-2-0.896-2-2L4,8h5h1.445h15.11H27h5L30,40z M25.049,12.063c-0.552-0.032-1.024,0.389-1.058,0.939l-0.989,23.941
			c-0.032,0.552,0.388,1.025,0.939,1.058c0.551,0.032,1.024-0.389,1.057-0.939l0.99-23.942C26.021,12.568,25.6,12.096,25.049,12.063
			z"/>
	</g>
</g>
<g>
</g>
<g>
</g>
<g>
</g>
<g>
</g>
<g>
</g>
<g>
</g>
<g>
</g>
<g>
</g>
<g>
</g>
<g>
</g>
<g>
</g>
<g>
</g>
<g>
</g>
<g>
</g>
<g>
</g>
</svg>
