<?xml version="1.0" encoding="iso-8859-1"?>
<!-- Generator: Adobe Illustrator 16.0.4, SVG Export Plug-In . SVG Version: 6.00 Build 0)  -->
<!DOCTYPE svg PUBLIC "-//W3C//DTD SVG 1.1//EN" "http://www.w3.org/Graphics/SVG/1.1/DTD/svg11.dtd">
<svg version="1.1" id="Layer_1" xmlns="http://www.w3.org/2000/svg" xmlns:xlink="http://www.w3.org/1999/xlink" x="0px" y="0px"
	 width="42px" height="56px" viewBox="0 0 42 56" style="enable-background:new 0 0 42 56;" xml:space="preserve">
<g id="_x37_11-trash_x40_2x.png">
	<g>
		<path d="M11.952,12.001c-0.551,0.032-0.972,0.507-0.94,1.059l1.99,36.001c0.032,0.553,0.505,0.974,1.057,0.941
			s0.972-0.506,0.94-1.059l-1.99-36.001C12.976,12.391,12.503,11.969,11.952,12.001z M21,12c-0.552,0-1,0.448-1,1v36
			c0,0.553,0.448,1,1,1c0.553,0,1-0.447,1-1V13C22,12.448,21.553,12,21,12z M41,6H30V4c0-2.209-1.791-4-4-4H16c-2.209,0-4,1.791-4,4
			v2H1C0.448,6,0,6.448,0,7c0,0.553,0.448,1,1,1h1l4,44c0,2.209,1.791,4,4,4h22c2.209,0,4-1.791,4-4l4-44h1c0.553,0,1-0.447,1-1
			C42,6.448,41.553,6,41,6z M14,4c0-1.104,0.896-2,2-2h10c1.104,0,2,0.896,2,2v2H14V4z M34,52c0,1.104-0.896,2-2,2H10
			c-1.104,0-2-0.896-2-2L4,8h8h2h14h2h8L34,52z M28.991,13.004l-1.989,35.941c-0.032,0.552,0.388,1.024,0.939,1.057
			s1.024-0.389,1.057-0.939l1.99-35.942c0.032-0.551-0.389-1.024-0.939-1.057C29.497,12.031,29.024,12.452,28.991,13.004z"/>
	</g>
</g>
<g>
</g>
<g>
</g>
<g>
</g>
<g>
</g>
<g>
</g>
<g>
</g>
<g>
</g>
<g>
</g>
<g>
</g>
<g>
</g>
<g>
</g>
<g>
</g>
<g>
</g>
<g>
</g>
<g>
</g>
</svg>
