<?xml version="1.0" encoding="iso-8859-1"?>
<!-- Generator: Adobe Illustrator 16.0.4, SVG Export Plug-In . SVG Version: 6.00 Build 0)  -->
<!DOCTYPE svg PUBLIC "-//W3C//DTD SVG 1.1//EN" "http://www.w3.org/Graphics/SVG/1.1/DTD/svg11.dtd">
<svg version="1.1" id="Layer_1" xmlns="http://www.w3.org/2000/svg" xmlns:xlink="http://www.w3.org/1999/xlink" x="0px" y="0px"
	 width="44px" height="56px" viewBox="0 0 44 56" style="enable-background:new 0 0 44 56;" xml:space="preserve">
<g id="_x39_36-tree_x40_2x.png">
	<g>
		<path d="M43.816,44.455l0.016-0.01L36.868,34H39c0.553,0,1-0.447,1-1c0-0.225-0.088-0.423-0.214-0.59L39.8,32.4L32,22h2
			c0.553,0,1-0.447,1-1c0-0.226-0.088-0.423-0.214-0.59L34.8,20.4L27,10h1c0.553,0,1-0.447,1-1c0-0.225-0.088-0.423-0.214-0.59
			L28.8,8.4l-6-8l-0.014,0.01C22.604,0.168,22.327,0,22,0s-0.604,0.168-0.786,0.41L21.2,0.4l-6,8l0.014,0.01
			C15.088,8.577,15,8.775,15,9c0,0.553,0.447,1,1,1h1L9.2,20.4l0.014,0.01C9.088,20.577,9,20.774,9,21c0,0.553,0.447,1,1,1h2
			L4.2,32.4l0.014,0.01C4.088,32.577,4,32.775,4,33c0,0.553,0.447,1,1,1h2.132L0.168,44.445l0.016,0.01C0.077,44.614,0,44.795,0,45
			c0,0.553,0.447,1,1,1h17v9c0,0.553,0.447,1,1,1h6c0.553,0,1-0.447,1-1v-9h17c0.553,0,1-0.447,1-1
			C44,44.795,43.923,44.614,43.816,44.455z M24,54h-4v-8h4V54z M2.868,44l6.964-10.445l-0.016-0.01C9.923,33.386,10,33.206,10,33
			c0-0.553-0.447-1-1-1H7l7.8-10.4l-0.014-0.01C14.912,21.423,15,21.226,15,21c0-0.552-0.447-1-1-1h-2l7.8-10.4l-0.014-0.01
			C19.912,9.423,20,9.226,20,9c0-0.552-0.447-1-1-1h-1l4-5.333L26,8h-1c-0.553,0-1,0.448-1,1c0,0.226,0.088,0.423,0.214,0.59
			L24.2,9.6L32,20h-2c-0.553,0-1,0.448-1,1c0,0.226,0.088,0.423,0.214,0.59L29.2,21.6L37,32h-2c-0.553,0-1,0.447-1,1
			c0,0.206,0.077,0.386,0.184,0.545l-0.016,0.01L41.132,44H2.868z"/>
	</g>
</g>
<g>
</g>
<g>
</g>
<g>
</g>
<g>
</g>
<g>
</g>
<g>
</g>
<g>
</g>
<g>
</g>
<g>
</g>
<g>
</g>
<g>
</g>
<g>
</g>
<g>
</g>
<g>
</g>
<g>
</g>
</svg>
