<?xml version="1.0" encoding="iso-8859-1"?>
<!-- Generator: Adobe Illustrator 16.0.4, SVG Export Plug-In . SVG Version: 6.00 Build 0)  -->
<!DOCTYPE svg PUBLIC "-//W3C//DTD SVG 1.1//EN" "http://www.w3.org/Graphics/SVG/1.1/DTD/svg11.dtd">
<svg version="1.1" id="Layer_1" xmlns="http://www.w3.org/2000/svg" xmlns:xlink="http://www.w3.org/1999/xlink" x="0px" y="0px"
	 width="32px" height="44px" viewBox="0 0 32 44" style="enable-background:new 0 0 32 44;" xml:space="preserve">
<g id="_x39_36-tree-toolbar_x40_2x.png">
	<g>
		<path d="M31.816,34.456l0.016-0.011L26.765,26H29c0.553,0,1-0.447,1-1c0-0.225-0.088-0.423-0.214-0.59L29.8,24.4l-0.09-0.104
			c-0.002-0.002-0.003-0.004-0.005-0.005L24.2,18H26c0.553,0,1-0.447,1-1c0-0.225-0.088-0.423-0.214-0.59L26.8,16.4l-0.09-0.104
			c-0.002-0.002-0.003-0.004-0.005-0.005L21.2,10H22c0.553,0,1-0.447,1-1c0-0.225-0.088-0.423-0.214-0.59L22.8,8.4l-6-8l-0.014,0.01
			C16.604,0.168,16.327,0,16,0s-0.604,0.168-0.786,0.41L15.2,0.4l-6,8l0.014,0.01C9.088,8.577,9,8.775,9,9c0,0.553,0.447,1,1,1h0.8
			l-5.505,6.292c-0.002,0.001-0.003,0.003-0.005,0.005L5.2,16.4l0.014,0.01C5.088,16.577,5,16.775,5,17c0,0.553,0.447,1,1,1h1.8
			l-5.505,6.292c-0.002,0.001-0.003,0.003-0.005,0.005L2.2,24.4l0.014,0.01C2.088,24.577,2,24.775,2,25c0,0.553,0.447,1,1,1h2.235
			l-5.067,8.445l0.016,0.011C0.077,34.614,0,34.795,0,35c0,0.553,0.447,1,1,1h11v7c0,0.553,0.447,1,1,1h6c0.553,0,1-0.447,1-1v-7h11
			c0.553,0,1-0.447,1-1C32,34.795,31.923,34.614,31.816,34.456z M18,42h-4v-6h4V42z M2.765,34l5.067-8.445l-0.016-0.01
			C7.923,25.386,8,25.206,8,25c0-0.552-0.447-1-1-1H5.2l5.505-6.291c0.002-0.002,0.003-0.004,0.005-0.006l0.09-0.103l-0.014-0.011
			C10.912,17.423,11,17.226,11,17c0-0.552-0.447-1-1-1H8.2l5.505-6.291c0.002-0.002,0.003-0.004,0.005-0.006L13.8,9.6l-0.014-0.01
			C13.912,9.423,14,9.226,14,9c0-0.552-0.447-1-1-1h-1l4-5.333L20,8h-1c-0.553,0-1,0.448-1,1c0,0.226,0.088,0.423,0.214,0.59
			L18.2,9.6l0.09,0.104c0.002,0.002,0.003,0.004,0.005,0.006L23.8,16H22c-0.553,0-1,0.448-1,1c0,0.226,0.088,0.423,0.214,0.59
			L21.2,17.601l0.09,0.103c0.002,0.002,0.003,0.004,0.005,0.006L26.8,24H25c-0.553,0-1,0.448-1,1c0,0.206,0.077,0.386,0.184,0.545
			l-0.016,0.01L29.235,34H2.765z"/>
	</g>
</g>
<g>
</g>
<g>
</g>
<g>
</g>
<g>
</g>
<g>
</g>
<g>
</g>
<g>
</g>
<g>
</g>
<g>
</g>
<g>
</g>
<g>
</g>
<g>
</g>
<g>
</g>
<g>
</g>
<g>
</g>
</svg>
