<?xml version="1.0" encoding="UTF-8" standalone="no"?>
<svg width="58px" height="54px" viewBox="0 0 58 54" version="1.1" xmlns="http://www.w3.org/2000/svg" xmlns:xlink="http://www.w3.org/1999/xlink" xmlns:sketch="http://www.bohemiancoding.com/sketch/ns">
    <!-- Generator: Sketch 3.0.4 (8053) - http://www.bohemiancoding.com/sketch -->
    <title>1170-trinity-knot</title>
    <desc>Created with Sketch.</desc>
    <defs></defs>
    <g id="Page-1" stroke="none" stroke-width="1" fill="none" fill-rule="evenodd" sketch:type="MSPage">
        <g id="Glyphish-8-Icons" sketch:type="MSArtboardGroup" transform="translate(-884.000000, -597.000000)" fill="#000000">
            <g id="1170-trinity-knot" sketch:type="MSLayerGroup" transform="translate(884.036996, 597.860499)">
                <g id="_x31_170-trinity-knot_x40_2x.png" sketch:type="MSShapeGroup">
                    <path d="M39.874,24.429 C39.82,25.125 39.742,25.816 39.643,26.504 C43.677,28.487 47.015,31.633 49.616,35.942 C52.455,40.65 53.54,45.411 53.88,47.275 C50.099,47.954 46.527,48.129 43.214,47.805 C42.555,48.441 41.86,49.034 41.125,49.585 C42.781,49.846 44.56,49.999 46.484,50 C49.125,50 52.022,49.724 55.198,49.087 C55.67,48.992 55.976,48.576 55.982,48.113 C55.993,48.031 56.012,47.95 56.002,47.864 C55.976,47.656 53.765,30.833 39.874,24.429 L39.874,24.429 Z M27.999,43.865 C29.378,44.998 31.077,46.144 33.131,47.136 C34.017,46.835 34.867,46.46 35.676,46.016 C33.341,45.094 31.18,43.886 29.267,42.315 C24.712,38.572 21.608,33.092 20.48,27.076 C19.831,27.276 19.19,27.491 18.573,27.746 C19.835,34.103 23.158,39.887 27.999,43.865 L27.999,43.865 Z M23.766,12.451 C23.492,13.164 23.239,13.912 23.015,14.707 C24.6,14.251 26.269,13.992 28.001,13.992 C35.365,13.992 41.687,18.42 44.475,24.753 C45.507,25.455 46.465,26.21 47.35,27.009 C45.132,18.379 37.323,11.992 28.001,11.992 C26.547,11.992 25.132,12.156 23.766,12.451 L23.766,12.451 Z M37.901,19.46 C37.213,18.916 36.485,18.424 35.713,17.996 C35.887,19.274 36,20.611 36,22.039 C36,28.648 33.586,35.009 29.423,39.707 C29.791,40.057 30.139,40.43 30.531,40.752 C30.655,40.855 30.789,40.941 30.916,41.04 C35.399,35.978 38,29.138 38,22.039 C38.001,21.152 37.966,20.293 37.901,19.46 L37.901,19.46 Z M33.886,24.563 C33.953,23.899 33.977,23.226 33.99,22.552 C32.146,22.193 30.16,21.986 28.002,21.986 C21.816,21.986 16.976,23.606 13.19,26.034 C12.782,27.041 12.475,28.095 12.277,29.191 C16.036,26.157 21.12,23.986 28.002,23.986 C30.073,23.986 32.03,24.187 33.886,24.563 L33.886,24.563 Z M47.504,36.375 C46.988,35.57 46.442,34.815 45.866,34.104 C44.819,43.048 37.226,49.992 28.001,49.992 C26.243,49.992 24.55,49.728 22.944,49.259 C22.054,49.656 21.101,50.025 20.085,50.358 C22.514,51.406 25.188,51.993 28.001,51.993 C37.539,51.992 45.504,45.31 47.504,36.375 L47.504,36.375 Z M28.002,2.327 C29.181,3.443 31.816,6.271 33.743,10.784 C34.595,11.014 35.429,11.289 36.236,11.615 C33.596,4.195 28.889,0.41 28.615,0.195 C28.594,0.179 28.569,0.175 28.548,0.162 C28.489,0.123 28.429,0.096 28.365,0.07 C28.306,0.047 28.251,0.025 28.19,0.013 C28.127,0.001 28.065,0 28.001,0 C27.937,0 27.875,0.001 27.812,0.014 C27.751,0.026 27.696,0.047 27.637,0.071 C27.574,0.096 27.513,0.124 27.454,0.163 C27.433,0.177 27.408,0.181 27.387,0.196 C27.008,0.492 18.211,7.536 18.019,21.584 C18.667,21.366 19.351,21.183 20.042,21.006 C20.402,10.358 26.114,4.109 28.002,2.327 L28.002,2.327 Z M24.838,43.676 C18.878,47.649 11.099,48.887 2.127,47.273 C2.47,45.423 3.557,40.734 6.391,36.033 C6.199,35.025 6.092,33.99 6.045,32.937 C1.051,39.933 0.02,47.724 0.003,47.865 C-0.007,47.944 0.013,48.017 0.021,48.093 C0.017,48.565 0.327,48.991 0.805,49.088 C3.981,49.725 6.879,50.001 9.519,50.001 C17.19,50 22.664,47.666 26.381,45.084 C25.85,44.633 25.332,44.166 24.838,43.676 L24.838,43.676 Z M15.891,45.281 C12.281,41.989 10.001,37.262 10.001,31.992 C10.001,26.575 12.405,21.729 16.191,18.43 C16.295,17.436 16.438,16.477 16.619,15.558 C11.415,19.168 8.001,25.179 8.001,31.993 C8.001,37.303 10.084,42.115 13.459,45.696 C14.289,45.59 15.101,45.454 15.891,45.281 L15.891,45.281 Z" id="Shape"></path>
                </g>
            </g>
        </g>
    </g>
</svg>