<?xml version="1.0" encoding="iso-8859-1"?>
<!-- Generator: Adobe Illustrator 16.0.4, SVG Export Plug-In . SVG Version: 6.00 Build 0)  -->
<!DOCTYPE svg PUBLIC "-//W3C//DTD SVG 1.1//EN" "http://www.w3.org/Graphics/SVG/1.1/DTD/svg11.dtd">
<svg version="1.1" id="Layer_1" xmlns="http://www.w3.org/2000/svg" xmlns:xlink="http://www.w3.org/1999/xlink" x="0px" y="0px"
	 width="44px" height="40px" viewBox="0 0 44 40" style="enable-background:new 0 0 44 40;" xml:space="preserve">
<g id="_x31_170-trinity-knot_x40_2x.png">
	<g>
		<path d="M29.999,15.934c-0.639-0.549-1.345-1.024-2.095-1.433c0.084,0.755,0.13,1.521,0.13,2.3c0,4.907-1.75,9.402-4.654,12.899
			c0.477,0.474,0.983,0.913,1.509,1.331c3.216-3.853,5.157-8.812,5.157-14.23C30.046,16.508,30.011,16.224,29.999,15.934z
			 M24.829,19.191c0.092-0.66,0.142-1.332,0.156-2.014c-0.979-0.131-1.971-0.221-2.985-0.221c-3.998,0-7.736,1.062-10.973,2.898
			c-0.429,0.929-0.726,1.924-0.885,2.962c3.324-2.411,7.414-3.843,11.857-3.843C22.963,18.975,23.902,19.062,24.829,19.191z
			 M20.825,9.056c-0.334,0.67-0.637,1.356-0.881,2.068c0.673-0.092,1.355-0.155,2.056-0.155c5.62,0,10.457,3.07,12.721,7.602
			c1.018,0.623,1.984,1.317,2.894,2.079C35.892,13.875,29.564,9,22,9C21.604,9,21.215,9.029,20.825,9.056z M24.538,35.726
			c0.91-0.19,1.78-0.48,2.601-0.859c-5.205-2.587-9.128-7.36-10.582-13.124c-0.652,0.201-1.283,0.444-1.901,0.714
			C16.128,28.053,19.73,32.778,24.538,35.726z M15.995,15.712c0.271-5.255,2.457-9.95,5.975-13.376
			c1.499,1.471,2.762,3.175,3.745,5.052c0.868,0.178,1.712,0.415,2.528,0.71c-1.261-2.934-3.122-5.549-5.445-7.673
			C22.489,0.11,22.201,0,22,0c-0.373,0-0.66,0.252-0.66,0.252L20.52,1.04c0.007,0.006,0.014,0.014,0.021,0.02
			c-3.954,3.916-6.465,9.282-6.593,15.265C14.618,16.092,15.3,15.887,15.995,15.712z M37.284,29.238
			c-0.455-0.709-0.959-1.382-1.509-2.017C34.414,33.362,28.767,37.969,22,37.969c-0.173,0-0.34-0.019-0.512-0.025
			c-0.952,0.621-1.94,1.189-2.976,1.678C19.637,39.863,20.801,40,22,40C29.134,40,35.174,35.485,37.284,29.238z M11.631,33.554
			c-2.306-2.423-3.725-5.645-3.725-9.194c0-3.229,1.171-6.152,3.117-8.439c0.037-1.036,0.133-2.065,0.296-3.081
			c-3.313,2.789-5.413,6.871-5.413,11.521c0,3.605,1.269,6.917,3.377,9.562C10.084,33.856,10.865,33.727,11.631,33.554z
			 M43.967,36.652c0-0.02-0.001-0.028-0.001-0.034l0.028-0.013c-0.02-0.179-0.066-0.348-0.09-0.525l-0.078-0.673
			c-0.011,0.005-0.022,0.008-0.033,0.013c-1.101-6.771-5.232-12.457-10.985-15.656c-0.085,0.717-0.198,1.423-0.341,2.119
			c5.006,3.02,8.543,8.154,9.397,14.227c-1.842,0.559-3.792,0.864-5.815,0.864c-0.484,0-0.958-0.038-1.433-0.072
			c-0.668,0.645-1.387,1.237-2.15,1.773c1.169,0.191,2.36,0.316,3.583,0.316c2.89,0,6.704-1.034,7.086-1.18l0.069-0.019v-0.006
			c0.048-0.009,0.253-0.069,0.453-0.247c0.059-0.051,0.11-0.104,0.155-0.167c0.015-0.022,0.026-0.043,0.039-0.067
			C43.938,37.161,44,37,44,36.816C44,36.758,43.98,36.706,43.967,36.652z M18.888,33.698c-3.156,2.065-6.918,3.275-10.968,3.275
			c-2.021,0-3.954-0.306-5.785-0.863c0.368-2.6,1.209-5.036,2.469-7.201c-0.249-0.927-0.428-1.88-0.517-2.86
			c-1.974,2.712-3.346,5.891-3.912,9.359c0,0-0.001,0-0.001-0.001l-0.171,1.197c0,0-0.003,0.073-0.003,0.212
			c0,0.146,0.039,0.276,0.095,0.398c0.199,0.49,0.702,0.579,0.702,0.579c-0.004,0.014,0.375,0.13,0.983,0.284l0.147,0.045
			c0-0.003,0.001-0.005,0.001-0.008c1.427,0.355,3.941,0.876,5.991,0.876c4.633,0,8.93-1.433,12.483-3.874
			C19.88,34.664,19.371,34.194,18.888,33.698z"/>
	</g>
</g>
<g>
</g>
<g>
</g>
<g>
</g>
<g>
</g>
<g>
</g>
<g>
</g>
<g>
</g>
<g>
</g>
<g>
</g>
<g>
</g>
<g>
</g>
<g>
</g>
<g>
</g>
<g>
</g>
<g>
</g>
</svg>
