<?xml version="1.0" encoding="iso-8859-1"?>
<!-- Generator: Adobe Illustrator 16.0.4, SVG Export Plug-In . SVG Version: 6.00 Build 0)  -->
<!DOCTYPE svg PUBLIC "-//W3C//DTD SVG 1.1//EN" "http://www.w3.org/Graphics/SVG/1.1/DTD/svg11.dtd">
<svg version="1.1" id="Layer_1" xmlns="http://www.w3.org/2000/svg" xmlns:xlink="http://www.w3.org/1999/xlink" x="0px" y="0px"
	 width="44px" height="28px" viewBox="0 0 44 28" style="enable-background:new 0 0 44 28;" xml:space="preserve">
<g id="_x38_44-trumpet-toolbar_x40_2x.png">
	<g>
		<path d="M21,6c1.657,0,3-1.343,3-3c0-1.656-1.343-3-3-3c-1.656,0-3,1.344-3,3C18,4.658,19.344,6,21,6z M21,2c0.553,0,1,0.448,1,1
			c0,0.553-0.447,1-1,1s-1-0.447-1-1C20,2.448,20.447,2,21,2z M27,6c1.657,0,3-1.343,3-3c0-1.656-1.343-3-3-3s-3,1.344-3,3
			C24,4.657,25.343,6,27,6z M27,2c0.553,0,1,0.448,1,1c0,0.553-0.447,1-1,1s-1-0.447-1-1C26,2.448,26.447,2,27,2z M15,6
			c1.657,0,3-1.342,3-3c0-1.656-1.343-3-3-3s-3,1.344-3,3C12,4.657,13.343,6,15,6z M15,2c0.553,0,1,0.448,1,1c0,0.553-0.447,1-1,1
			s-1-0.447-1-1C14,2.448,14.447,2,15,2z M43,0c-0.553,0-1,0.448-1,1v0.242C41.617,3.084,40.171,8,35.021,8H25H14
			c-0.002,0-0.003,0-0.005,0H2V6c0-0.552-0.447-1-1-1S0,5.448,0,6v6c0,0.553,0.447,1,1,1s1-0.447,1-1v-2h6.721
			C7.056,11.466,6,13.607,6,16c0,4.418,3.582,8,8,8h2v3c0,0.553,0.447,1,1,1s1-0.447,1-1v-3h2v3c0,0.553,0.447,1,1,1s1-0.447,1-1v-3
			h2v3c0,0.553,0.447,1,1,1s1-0.447,1-1v-3h2c4.418,0,8-3.582,8-8c0-0.552-0.447-1-1-1s-1,0.448-1,1c0,3.314-2.687,6-6,6h-2V10
			h9.021c5.149,0,6.596,4.916,6.979,6.758V17c0,0.553,0.447,1,1,1s1-0.447,1-1V1C44,0.448,43.553,0,43,0z M16,22h-2
			c-3.313,0-6-2.687-6-6s2.687-6,6-6h2V22z M20,22h-2V10h2V22z M24,22h-2V10h2V22z M42,11.796c-0.694-1.066-1.649-2.08-2.936-2.796
			c1.29-0.715,2.24-1.729,2.936-2.795V11.796z"/>
	</g>
</g>
<g>
</g>
<g>
</g>
<g>
</g>
<g>
</g>
<g>
</g>
<g>
</g>
<g>
</g>
<g>
</g>
<g>
</g>
<g>
</g>
<g>
</g>
<g>
</g>
<g>
</g>
<g>
</g>
<g>
</g>
</svg>
