<?xml version="1.0" encoding="iso-8859-1"?>
<!-- Generator: Adobe Illustrator 16.0.4, SVG Export Plug-In . SVG Version: 6.00 Build 0)  -->
<!DOCTYPE svg PUBLIC "-//W3C//DTD SVG 1.1//EN" "http://www.w3.org/Graphics/SVG/1.1/DTD/svg11.dtd">
<svg version="1.1" id="Layer_1" xmlns="http://www.w3.org/2000/svg" xmlns:xlink="http://www.w3.org/1999/xlink" x="0px" y="0px"
	 width="56px" height="36px" viewBox="0 0 56 36" style="enable-background:new 0 0 56 36;" xml:space="preserve">
<g id="_x38_44-trumpet_x40_2x.png">
	<g>
		<path d="M55,0c-0.435,0-0.796,0.281-0.934,0.67C53.502,1.737,48.939,10,43.021,10v0.005C43.014,10.004,43.008,10,43,10h-8H18H2V6
			c0-0.552-0.447-1-1-1S0,5.448,0,6v10c0,0.553,0.447,1,1,1s1-0.447,1-1v-4h10.019C9.583,13.824,8,16.724,8,20
			c0,5.523,4.478,10,10,10h2v5c0,0.553,0.447,1,1,1s1-0.447,1-1v-5h4v5c0,0.553,0.447,1,1,1s1-0.447,1-1v-5h4v5c0,0.553,0.447,1,1,1
			s1-0.447,1-1v-5h2c5.522,0,10-4.477,10-10c0-0.553-0.447-1-1-1s-1,0.447-1,1c0,4.418-3.582,8-8,8h-2V12h1h8
			c0.008,0,0.014-0.004,0.021-0.004V12c5.918,0,10.48,8.263,11.045,9.331C54.204,21.719,54.565,22,55,22c0.553,0,1-0.447,1-1V1
			C56,0.447,55.553,0,55,0z M20,28h-2c-4.418,0-8-3.582-8-8s3.582-8,8-8h2V28z M26,28h-4V12h4V28z M32,28h-4V12h4V28z M54,17.416
			c-1.53-2.189-3.909-4.961-6.895-6.416C50.095,9.542,52.47,6.774,54,4.584V17.416z M21,8c1.201,0,2.267-0.541,3-1.379
			C24.733,7.459,25.799,8,27,8s2.267-0.541,3-1.379C30.733,7.459,31.799,8,33,8c2.209,0,4-1.791,4-4s-1.791-4-4-4
			c-1.201,0-2.267,0.541-3,1.38C29.267,0.541,28.201,0,27,0s-2.267,0.541-3,1.38C23.267,0.541,22.201,0,21,0c-2.209,0-4,1.791-4,4
			S18.791,8,21,8z M33,2c1.104,0,2,0.896,2,2c0,1.105-0.896,2-2,2s-2-0.895-2-2C31,2.896,31.896,2,33,2z M27,2c1.104,0,2,0.896,2,2
			c0,1.105-0.896,2-2,2s-2-0.895-2-2C25,2.896,25.896,2,27,2z M21,2c1.104,0,2,0.896,2,2c0,1.105-0.896,2-2,2s-2-0.895-2-2
			C19,2.896,19.896,2,21,2z"/>
	</g>
</g>
<g>
</g>
<g>
</g>
<g>
</g>
<g>
</g>
<g>
</g>
<g>
</g>
<g>
</g>
<g>
</g>
<g>
</g>
<g>
</g>
<g>
</g>
<g>
</g>
<g>
</g>
<g>
</g>
<g>
</g>
</svg>
