<?xml version="1.0" encoding="UTF-8" standalone="no"?>
<svg width="58px" height="58px" viewBox="0 0 58 58" version="1.1" xmlns="http://www.w3.org/2000/svg" xmlns:xlink="http://www.w3.org/1999/xlink" xmlns:sketch="http://www.bohemiancoding.com/sketch/ns">
    <!-- Generator: Sketch 3.0.4 (8053) - http://www.bohemiancoding.com/sketch -->
    <title>1281-tumblr</title>
    <desc>Created with Sketch.</desc>
    <defs></defs>
    <g id="Page-1" stroke="none" stroke-width="1" fill="none" fill-rule="evenodd" sketch:type="MSPage">
        <g id="Glyphish-8-Icons" sketch:type="MSArtboardGroup" transform="translate(-20.000000, -1747.000000)" fill="#000000">
            <g id="1281-tumblr" sketch:type="MSLayerGroup" transform="translate(20.036996, 1747.860499)">
                <g id="_x31_281-tumblr_x40_2x.png" sketch:type="MSShapeGroup">
                    <path d="M31.966,38.121 C29.461,38.19 28.976,36.321 28.954,34.965 L28.954,24.999 L35.238,24.999 L35.238,20.151 L28.977,20.151 L28.977,11.996 L24.393,11.996 C24.318,11.996 24.186,12.064 24.168,12.235 C23.9,14.731 22.758,19.112 18.012,20.863 L18.012,24.999 L21.178,24.999 L21.178,35.46 C21.178,39.041 23.761,44.129 30.577,44.01 C32.876,43.969 35.431,42.984 35.995,42.135 L34.49,37.569 C33.909,37.852 32.795,38.1 31.966,38.121 L31.966,38.121 Z M28,0 C12.536,0 0,12.536 0,28 C0,43.464 12.536,56 28,56 C43.464,56 56,43.464 56,28 C56,12.536 43.464,0 28,0 L28,0 Z M28,54 C13.641,54 2,42.359 2,28 C2,13.641 13.641,2 28,2 C42.359,2 54,13.641 54,28 C54,42.359 42.359,54 28,54 L28,54 Z" id="Shape"></path>
                </g>
            </g>
        </g>
    </g>
</svg>