<?xml version="1.0" encoding="iso-8859-1"?>
<!-- Generator: Adobe Illustrator 16.0.4, SVG Export Plug-In . SVG Version: 6.00 Build 0)  -->
<!DOCTYPE svg PUBLIC "-//W3C//DTD SVG 1.1//EN" "http://www.w3.org/Graphics/SVG/1.1/DTD/svg11.dtd">
<svg version="1.1" id="Layer_1" xmlns="http://www.w3.org/2000/svg" xmlns:xlink="http://www.w3.org/1999/xlink" x="0px" y="0px"
	 width="44px" height="44px" viewBox="0 0 44 44" style="enable-background:new 0 0 44 44;" xml:space="preserve">
<g id="_x37_92-tv-toolbar_x40_2x.png">
	<g>
		<path d="M40,8H24c0-0.178-0.03-0.347-0.074-0.512l3.562-3.562C27.652,3.97,27.822,4,28,4c1.104,0,2-0.896,2-2s-0.896-2-2-2
			s-2,0.896-2,2c0,0.178,0.03,0.348,0.074,0.512l-3.562,3.562C22.348,6.031,22.178,6,22,6s-0.348,0.031-0.512,0.074l-3.562-3.562
			C17.97,2.348,18,2.178,18,2c0-1.104-0.896-2-2-2s-2,0.896-2,2s0.896,2,2,2c0.178,0,0.348-0.03,0.512-0.074l3.562,3.562
			C20.03,7.653,20,7.822,20,8H4c-2.209,0-4,1.791-4,4v20c0,2.21,1.791,4,4,4h14v2h-4c-2.209,0-4,1.791-4,4v2h2h20h2v-2
			c0-2.209-1.791-4-4-4h-4v-2h14c2.209,0,4-1.79,4-4V12C44,9.791,42.209,8,40,8z M30,40c1.104,0,2,0.896,2,2H12c0-1.104,0.896-2,2-2
			H30z M20,38v-2h4v2H20z M42,32c0,1.105-0.896,2-2,2H4c-1.104,0-2-0.895-2-2V12c0-1.104,0.896-2,2-2h36c1.104,0,2,0.896,2,2V32z"/>
	</g>
</g>
<g>
</g>
<g>
</g>
<g>
</g>
<g>
</g>
<g>
</g>
<g>
</g>
<g>
</g>
<g>
</g>
<g>
</g>
<g>
</g>
<g>
</g>
<g>
</g>
<g>
</g>
<g>
</g>
<g>
</g>
</svg>
