<?xml version="1.0" encoding="iso-8859-1"?>
<!-- Generator: Adobe Illustrator 16.0.4, SVG Export Plug-In . SVG Version: 6.00 Build 0)  -->
<!DOCTYPE svg PUBLIC "-//W3C//DTD SVG 1.1//EN" "http://www.w3.org/Graphics/SVG/1.1/DTD/svg11.dtd">
<svg version="1.1" id="Layer_1" xmlns="http://www.w3.org/2000/svg" xmlns:xlink="http://www.w3.org/1999/xlink" x="0px" y="0px"
	 width="56px" height="52px" viewBox="0 0 56 52" style="enable-background:new 0 0 56 52;" xml:space="preserve">
<g id="_x37_92-tv_x40_2x.png">
	<g>
		<path d="M52,8H30c0-0.178-0.03-0.347-0.074-0.512l3.562-3.562C33.652,3.97,33.822,4,34,4c1.104,0,2-0.896,2-2s-0.896-2-2-2
			s-2,0.896-2,2c0,0.178,0.03,0.348,0.074,0.512l-3.562,3.562C28.348,6.031,28.178,6,28,6s-0.348,0.031-0.512,0.074l-3.562-3.562
			C23.97,2.348,24,2.178,24,2c0-1.104-0.896-2-2-2s-2,0.896-2,2s0.896,2,2,2c0.178,0,0.348-0.03,0.512-0.074l3.562,3.562
			C26.03,7.653,26,7.822,26,8H4c-2.209,0-4,1.791-4,4v28c0,2.209,1.791,4,4,4h20v2h-6c-2.209,0-4,1.791-4,4v2h2h24h2v-2
			c0-2.209-1.791-4-4-4h-6v-2h20c2.209,0,4-1.791,4-4V12C56,9.791,54.209,8,52,8z M38,48c1.104,0,2,0.896,2,2H16
			c0-1.104,0.896-2,2-2H38z M26,46v-2h4v2H26z M54,40c0,1.104-0.896,2-2,2H4c-1.104,0-2-0.896-2-2V12c0-1.104,0.896-2,2-2h48
			c1.104,0,2,0.896,2,2V40z"/>
	</g>
</g>
<g>
</g>
<g>
</g>
<g>
</g>
<g>
</g>
<g>
</g>
<g>
</g>
<g>
</g>
<g>
</g>
<g>
</g>
<g>
</g>
<g>
</g>
<g>
</g>
<g>
</g>
<g>
</g>
<g>
</g>
</svg>
