<?xml version="1.0" encoding="UTF-8" standalone="no"?>
<svg width="58px" height="58px" viewBox="0 0 58 58" version="1.1" xmlns="http://www.w3.org/2000/svg" xmlns:xlink="http://www.w3.org/1999/xlink" xmlns:sketch="http://www.bohemiancoding.com/sketch/ns">
    <!-- Generator: Sketch 3.0.4 (8053) - http://www.bohemiancoding.com/sketch -->
    <title>1282-twitter</title>
    <desc>Created with Sketch.</desc>
    <defs></defs>
    <g id="Page-1" stroke="none" stroke-width="1" fill="none" fill-rule="evenodd" sketch:type="MSPage">
        <g id="Glyphish-8-Icons" sketch:type="MSArtboardGroup" transform="translate(-116.000000, -1747.000000)" fill="#000000">
            <g id="1282-twitter" sketch:type="MSLayerGroup" transform="translate(116.036996, 1747.860499)">
                <g id="_x31_282-twitter_x40_2x.png" sketch:type="MSShapeGroup">
                    <path d="M44.117,15.478 C42.848,16.231 41.444,16.777 39.948,17.072 C38.75,15.796 37.044,14.998 35.156,14.998 C31.53,14.998 28.591,17.937 28.591,21.563 C28.591,22.078 28.649,22.579 28.761,23.06 C23.304,22.786 18.467,20.171 15.229,16.201 C14.664,17.169 14.34,18.298 14.34,19.501 C14.34,21.779 15.427,23.788 17.189,24.966 C16.113,24.932 15.286,24.636 14.144,24.145 L14.144,24.227 C14.144,27.409 16.479,30.062 19.481,30.665 C18.931,30.814 18.386,30.895 17.788,30.895 C17.365,30.895 16.972,30.852 16.571,30.776 C17.406,33.384 19.84,35.283 22.713,35.337 C20.466,37.097 17.64,38.148 14.564,38.148 C14.033,38.148 13.513,38.117 13,38.055 C15.905,39.917 19.357,41.004 23.065,41.004 C35.14,41.004 41.743,31.001 41.743,22.325 C41.743,22.04 41.739,21.757 41.726,21.475 C43.009,20.549 44.121,19.393 45.001,18.077 C43.824,18.599 42.558,18.952 41.23,19.111 C42.586,18.297 43.627,17.011 44.117,15.478 L44.117,15.478 Z M28,0 C12.536,0 0,12.536 0,28 C0,43.464 12.536,56 28,56 C43.464,56 56,43.464 56,28 C56,12.536 43.464,0 28,0 L28,0 Z M28,54 C13.641,54 2,42.359 2,28 C2,13.641 13.641,2 28,2 C42.359,2 54,13.641 54,28 C54,42.359 42.359,54 28,54 L28,54 Z" id="Shape"></path>
                </g>
            </g>
        </g>
    </g>
</svg>