<?xml version="1.0" encoding="iso-8859-1"?>
<!-- Generator: Adobe Illustrator 16.0.4, SVG Export Plug-In . SVG Version: 6.00 Build 0)  -->
<!DOCTYPE svg PUBLIC "-//W3C//DTD SVG 1.1//EN" "http://www.w3.org/Graphics/SVG/1.1/DTD/svg11.dtd">
<svg version="1.1" id="Layer_1" xmlns="http://www.w3.org/2000/svg" xmlns:xlink="http://www.w3.org/1999/xlink" x="0px" y="0px"
	 width="44px" height="44px" viewBox="0 0 44 44" style="enable-background:new 0 0 44 44;" xml:space="preserve">
<g id="_x31_282-twitter_x40_2x.png">
	<g>
		<path d="M34.35,12.372c-0.952,0.578-2.006,0.999-3.129,1.225c-0.899-0.981-2.18-1.595-3.596-1.595
			c-2.722,0-4.928,2.261-4.928,5.049c0,0.396,0.043,0.78,0.127,1.15c-4.095-0.211-7.726-2.221-10.156-5.274
			c-0.424,0.745-0.667,1.612-0.667,2.538c0,1.751,0.816,3.296,2.138,4.201c-0.808-0.026-1.428-0.254-2.286-0.631
			c0,0.021,0,0.041,0,0.062c0,2.446,1.752,4.486,4.005,4.951c-0.413,0.114-0.822,0.177-1.271,0.177
			c-0.317,0-0.613-0.033-0.914-0.092c0.627,2.006,2.454,3.466,4.61,3.507c-1.687,1.354-3.808,2.161-6.116,2.161
			c-0.398,0-0.789-0.024-1.174-0.071c2.18,1.432,4.771,2.268,7.554,2.268c9.063,0,14.019-7.691,14.019-14.362
			c0-0.219-0.003-0.437-0.013-0.653c0.963-0.711,1.797-1.601,2.458-2.613c-0.884,0.402-1.833,0.673-2.831,0.795
			C33.201,14.54,33.982,13.551,34.35,12.372z M22,0C9.85,0,0,9.85,0,22s9.85,22,22,22s22-9.85,22-22S34.15,0,22,0z M22,42
			C10.954,42,2,33.046,2,22S10.954,2,22,2s20,8.954,20,20S33.046,42,22,42z"/>
	</g>
</g>
<g>
</g>
<g>
</g>
<g>
</g>
<g>
</g>
<g>
</g>
<g>
</g>
<g>
</g>
<g>
</g>
<g>
</g>
<g>
</g>
<g>
</g>
<g>
</g>
<g>
</g>
<g>
</g>
<g>
</g>
</svg>
