<?xml version="1.0" encoding="iso-8859-1"?>
<!-- Generator: Adobe Illustrator 16.0.4, SVG Export Plug-In . SVG Version: 6.00 Build 0)  -->
<!DOCTYPE svg PUBLIC "-//W3C//DTD SVG 1.1//EN" "http://www.w3.org/Graphics/SVG/1.1/DTD/svg11.dtd">
<svg version="1.1" id="Layer_1" xmlns="http://www.w3.org/2000/svg" xmlns:xlink="http://www.w3.org/1999/xlink" x="0px" y="0px"
	 width="32.001px" height="44px" viewBox="0 0 32.001 44" style="enable-background:new 0 0 32.001 44;" xml:space="preserve">
<g id="_x31_118-two-fingers_x40_2x.png">
	<g>
		<path d="M32.001,18c0-1.657-1.343-3-3-3c-0.858,0-1.627,0.366-2.173,0.945l0.169-1.854l-0.005-0.001
			c0.001-0.03,0.009-0.059,0.009-0.09c0-1.656-1.343-3-3-3c-1.034,0-1.931,0.532-2.466,1.329L22.001,3c0-1.657-1.343-3-3-3
			c-1.491,0-2.719,1.091-2.951,2.516l-0.012-0.001l-1.466,13.259l-2.748-9.805L11.802,5.98c-0.416-1.157-1.51-1.988-2.807-1.988
			C7.341,3.992,6,5.336,6,6.994c0,0.14,0.022,0.272,0.041,0.407L6.028,7.403l2.26,15.703L5.5,18.358l-0.007,0.004
			c-0.531-0.823-1.447-1.37-2.498-1.37C1.341,16.992,0,18.336,0,19.994c0,0.217,0.025,0.428,0.069,0.632l-0.017,0.003l4.493,14.122
			c0.027,0.091,0.057,0.181,0.086,0.271l0.015,0.044l0.001-0.001C6.355,40.252,11.235,44,17,44c6.802,0,12.377-5.218,12.95-11.864
			l0.041,0.006l1.921-13.445c0.035-0.147,0.052-0.3,0.064-0.455l0.015-0.1l-0.004-0.001C31.989,18.093,32.001,18.049,32.001,18z
			 M27.999,31.876l-0.041-0.009C27.511,37.531,22.78,41.991,17,41.991c-4.88,0-9.012-3.179-10.452-7.575L6.533,34.43l-4.51-14.138
			l0.039-0.021c-0.021-0.072-0.053-0.14-0.058-0.217c-0.031-0.55,0.391-1.02,0.944-1.052c0.314-0.018,0.579,0.135,0.773,0.353
			l0.02-0.011l0.035,0.06c0.011,0.014,0.027,0.02,0.037,0.033l0.11,0.188c0.007,0.017,0.008,0.036,0.014,0.053l1.316,2.233
			c0.002-0.002,0.006-0.004,0.008-0.007l1.041,1.773c-0.001,0.002-0.002,0.005-0.004,0.007l1.131,1.919
			c0-0.001,0.001-0.003,0.002-0.004l0.943,1.608l0.753,1.277l0.014-0.007C9.309,28.786,9.625,29,10.001,29c0.553,0,1-0.447,1-1
			c0-0.033-0.016-0.061-0.019-0.094l0.014-0.001l-0.789-5.513c0.002-0.002,0.005-0.004,0.008-0.006l-0.315-2.195
			c-0.002,0.001-0.005,0.003-0.008,0.004L8.422,9.938c0.003,0,0.007,0,0.01,0.001L8.038,7.193l0.004-0.001
			c-0.01-0.048-0.034-0.089-0.037-0.139c-0.031-0.55,0.391-1.021,0.944-1.052c0.55-0.031,1.02,0.384,1.057,0.929l0.027-0.004
			l3.986,14.329l0.02-0.005C14.154,21.679,14.526,22,14.99,22c0.552,0,0.999-0.447,1.002-1h0.009l0.104-0.938
			c0.001,0,0.003,0,0.005,0l0.225-2.014c-0.002,0-0.005,0-0.007,0l1.37-12.356c0.005,0.002,0.01,0.003,0.015,0.005l0.297-2.654
			C18.009,3.027,18.001,3.015,18.001,3c0-0.553,0.447-1,1-1s1,0.447,1,1c0,0.023-0.012,0.042-0.013,0.064l0.027,0.001l-0.607,11.777
			l-0.171,3.42c-0.002,0-0.004,0-0.006-0.001l-0.102,1.968c0.003,0.001,0.006,0.001,0.009,0.002l-0.137,2.719l0.022,0.001
			c-0.003,0.019-0.012,0.035-0.012,0.055c0,0.556,0.449,1.006,1.004,1.006c0.476,0,0.854-0.34,0.956-0.785l1.155-5.247l0.313-1.428
			c0,0,0,0,0.001,0l0.56-2.546c0-0.001-0.001-0.002-0.001-0.004l0.07-0.316l-0.007-0.001C23.198,13.289,23.561,13,24.001,13
			c0.506,0,0.906,0.383,0.973,0.871l0.059,0.005l-0.471,4.907l-0.145,1.599c-0.003-0.002-0.006-0.003-0.008-0.005l-0.224,2.336
			c0.006,0.005,0.013,0.009,0.018,0.014l-0.198,2.183l0.021,0.002c-0.006,0.029-0.018,0.056-0.018,0.086
			c0,0.545,0.449,0.986,1.003,0.986c0.467,0,0.841-0.319,0.953-0.742l0.007,0.001l0.116-0.421c0.001,0.001,0.002,0.003,0.002,0.004
			l0.657-2.388c-0.002-0.002-0.003-0.004-0.004-0.005l0.542-1.978c0.002,0.001,0.004,0.002,0.006,0.003l0.718-2.611l0.024-0.001
			C28.109,17.37,28.504,17,29.001,17c0.479,0,0.856,0.344,0.954,0.793l0.079-0.002L27.999,31.876z"/>
	</g>
</g>
<g>
</g>
<g>
</g>
<g>
</g>
<g>
</g>
<g>
</g>
<g>
</g>
<g>
</g>
<g>
</g>
<g>
</g>
<g>
</g>
<g>
</g>
<g>
</g>
<g>
</g>
<g>
</g>
<g>
</g>
</svg>
