<?xml version="1.0" encoding="UTF-8" standalone="no"?>
<svg width="41px" height="58px" viewBox="0 0 41 58" version="1.1" xmlns="http://www.w3.org/2000/svg" xmlns:xlink="http://www.w3.org/1999/xlink" xmlns:sketch="http://www.bohemiancoding.com/sketch/ns">
    <!-- Generator: Sketch 3.0.4 (8053) - http://www.bohemiancoding.com/sketch -->
    <title>1118-two-fingers</title>
    <desc>Created with Sketch.</desc>
    <defs></defs>
    <g id="Page-1" stroke="none" stroke-width="1" fill="none" fill-rule="evenodd" sketch:type="MSPage">
        <g id="Glyphish-8-Icons" sketch:type="MSArtboardGroup" transform="translate(-700.000000, -115.000000)" fill="#000000">
            <g id="1118-two-fingers" sketch:type="MSLayerGroup" transform="translate(700.036996, 115.860499)">
                <g id="_x31_118-two-fingers_x40_2x.png" sketch:type="MSShapeGroup">
                    <path d="M35.987,18 C35.231,18 34.531,18.223 33.927,18.587 C33.956,18.394 33.987,18.201 33.987,18 C33.987,15.791 32.196,14 29.987,14 C28.818,14 27.776,14.511 27.045,15.31 L27.987,4.002 L27.987,4 C27.987,1.791 26.203,0 24.003,0 C21.803,0 20.019,1.791 20.019,4 L19.988,4 L18.089,18.588 L16.956,8.466 L16.949,8.466 C16.686,6.512 15.031,5 13.007,5 C10.799,5 9.01,6.791 9.01,9 C9.01,9.061 9.026,9.117 9.028,9.177 L9.025,9.177 L10.593,30.719 L7.605,24.456 C6.76,22.415 4.422,21.445 2.383,22.291 C0.344,23.137 -0.422,25.298 0.221,27.518 L5.56,44.112 L5.568,44.108 C7.382,50.951 13.594,56 21.001,56 C29.221,56 35.984,49.789 36.88,41.801 L39.815,23.102 C39.917,22.749 39.988,22.385 39.988,22 C39.987,19.791 38.196,18 35.987,18 L35.987,18 Z M34.934,41.349 L34.864,41.343 L34.922,41.356 C34.239,48.451 28.27,54 21.001,54 C14.429,54 8.931,49.457 7.431,43.342 L7.4,43.33 L2.067,26.752 C1.769,25.646 2.129,24.562 3.148,24.139 C4.169,23.716 5.336,24.201 5.759,25.222 L11.066,36.41 L11.077,36.406 C11.232,36.755 11.58,37 11.987,37 C12.54,37 12.987,36.553 12.987,36 C12.987,35.943 12.964,35.895 12.955,35.84 L12.94,35.646 L12.944,35.645 L12.94,35.637 L11.008,9.125 L11.013,9.125 C11.013,9.122 11.012,9.119 11.012,9.115 C10.949,8.012 11.79,7.067 12.892,7.004 C13.994,6.942 14.938,7.783 15.001,8.886 C15.004,8.925 14.996,8.962 14.996,9 L15.005,9 L17.001,27 L17.005,27 C17.005,27.553 17.452,28 18.004,28 C18.556,28 19.003,27.553 19.003,27 L19.013,27 L21.988,4 C21.988,2.896 22.884,2 23.988,2 C25.092,2 25.988,2.896 25.988,4 L25.988,4.002 L24.036,28.97 L24.067,28.972 C24.067,28.982 24.061,28.991 24.061,29 C24.061,29.553 24.508,30 25.061,30 C25.58,30 25.992,29.6 26.04,29.094 L26.079,29.096 L27.987,18 C27.987,16.896 28.883,16 29.987,16 C31.091,16 31.987,16.896 31.987,18 L30.303,30.886 L30.328,30.889 C30.324,30.927 30.306,30.961 30.306,31 C30.306,31.553 30.753,32 31.305,32 C31.826,32 32.241,31.597 32.286,31.087 L32.289,31.087 L34.04,21.457 L34.069,21.461 C34.307,20.62 35.071,20 35.987,20 C37.091,20 37.987,20.896 37.987,22 L34.934,41.349 L34.934,41.349 Z" id="Shape"></path>
                </g>
            </g>
        </g>
    </g>
</svg>