<?xml version="1.0" encoding="iso-8859-1"?>
<!-- Generator: Adobe Illustrator 16.0.4, SVG Export Plug-In . SVG Version: 6.00 Build 0)  -->
<!DOCTYPE svg PUBLIC "-//W3C//DTD SVG 1.1//EN" "http://www.w3.org/Graphics/SVG/1.1/DTD/svg11.dtd">
<svg version="1.1" id="Layer_1" xmlns="http://www.w3.org/2000/svg" xmlns:xlink="http://www.w3.org/1999/xlink" x="0px" y="0px"
	 width="44px" height="40px" viewBox="0 0 44 40" style="enable-background:new 0 0 44 40;" xml:space="preserve">
<g id="_x31_057-ufo-2-toolbar_x40_2x.png">
	<g>
		<path d="M22.762,9.793c-0.586,0.586-0.744,1.377-0.354,1.768s1.182,0.232,1.768-0.354s0.744-1.377,0.354-1.768
			S23.348,9.207,22.762,9.793z M44,18c0-1.339-2.328-2.551-6.1-3.446C37.166,6.399,30.346,0,22,0S6.834,6.399,6.1,14.554
			C2.328,15.449,0,16.661,0,18c0,1.953,4.938,3.641,12.123,4.463L8.286,26.3C7.895,26.113,7.462,26,7,26c-1.657,0-3,1.344-3,3
			c0,1.657,1.343,3,3,3c0.462,0,0.895-0.113,1.286-0.3L12,35.414V39c0,0.553,0.447,1,1,1s1-0.447,1-1v-3h3c0.553,0,1-0.447,1-1
			s-0.447-1-1-1h-3.586L9.7,30.286C9.887,29.895,10,29.462,10,29s-0.113-0.895-0.3-1.286l5.002-5.001C16.988,22.896,19.438,23,22,23
			c1.876,0,3.688-0.059,5.426-0.159l4.874,4.873C32.113,28.105,32,28.538,32,29s0.113,0.895,0.3,1.286L30.586,32H27
			c-0.553,0-1,0.448-1,1c0,0.553,0.447,1,1,1h3v3c0,0.553,0.447,1,1,1s1-0.447,1-1v-3.586l1.714-1.714
			C34.105,31.887,34.538,32,35,32c1.657,0,3-1.343,3-3c0-1.656-1.343-3-3-3c-0.462,0-0.895,0.113-1.286,0.3l-3.651-3.651
			C38.22,21.917,44,20.114,44,18z M7,30c-0.553,0-1-0.447-1-1s0.447-1,1-1s1,0.447,1,1S7.553,30,7,30z M35,28c0.553,0,1,0.447,1,1
			s-0.447,1-1,1s-1-0.447-1-1S34.447,28,35,28z M22,2c7.093,0,12.926,5.282,13.845,12.122c-2.363-0.435-5.125-0.763-8.149-0.946
			C27.885,12.62,28,12.059,28,11.5C28,7.358,25.313,4,22,4s-6,3.358-6,7.5c0,0.559,0.115,1.12,0.305,1.676
			c-3.024,0.184-5.786,0.512-8.149,0.946C9.074,7.282,14.907,2,22,2z M26,11c0,0.679-0.243,1.385-0.606,2.065
			C24.284,13.026,23.157,13,22,13s-2.284,0.026-3.393,0.065C18.243,12.385,18,11.679,18,11c0-2.762,1.791-5,4-5S26,8.238,26,11z
			 M22,21c-11.046,0-20-1.343-20-3c0-1.656,8.954-3,20-3s20,1.344,20,3C42,19.657,33.046,21,22,21z M19.408,9.439
			c-0.391,0.391-0.232,1.182,0.354,1.768s1.377,0.744,1.768,0.354s0.232-1.182-0.354-1.768S19.799,9.049,19.408,9.439z"/>
	</g>
</g>
<g>
</g>
<g>
</g>
<g>
</g>
<g>
</g>
<g>
</g>
<g>
</g>
<g>
</g>
<g>
</g>
<g>
</g>
<g>
</g>
<g>
</g>
<g>
</g>
<g>
</g>
<g>
</g>
<g>
</g>
</svg>
