<?xml version="1.0" encoding="iso-8859-1"?>
<!-- Generator: Adobe Illustrator 16.0.4, SVG Export Plug-In . SVG Version: 6.00 Build 0)  -->
<!DOCTYPE svg PUBLIC "-//W3C//DTD SVG 1.1//EN" "http://www.w3.org/Graphics/SVG/1.1/DTD/svg11.dtd">
<svg version="1.1" id="Layer_1" xmlns="http://www.w3.org/2000/svg" xmlns:xlink="http://www.w3.org/1999/xlink" x="0px" y="0px"
	 width="56px" height="56px" viewBox="0 0 56 56" style="enable-background:new 0 0 56 56;" xml:space="preserve">
<g id="_x31_057-ufo-2_x40_2x.png">
	<g>
		<path d="M56,22c0-1.575-2.107-3.024-5.621-4.194C48.021,7.61,38.912,0,28,0S7.979,7.61,5.622,17.806C2.107,18.976,0,20.425,0,22
			c0,2.988,7.505,5.532,18.049,6.537L10.286,36.3C9.895,36.113,9.462,36,9,36c-1.657,0-3,1.343-3,3s1.343,3,3,3
			c0.462,0,0.895-0.113,1.286-0.3L18,49.414V55c0,0.553,0.447,1,1,1s1-0.447,1-1v-5h5c0.553,0,1-0.447,1-1c0-0.552-0.447-1-1-1
			h-5.586L11.7,40.286C11.887,39.895,12,39.462,12,39s-0.113-0.895-0.3-1.286l8.965-8.965C23.007,28.908,25.458,29,28,29
			c1.866,0,3.687-0.048,5.451-0.135l8.849,8.849C42.113,38.105,42,38.538,42,39s0.113,0.895,0.3,1.286L38.586,44H33
			c-0.553,0-1,0.447-1,1s0.447,1,1,1h5v5c0,0.553,0.447,1,1,1s1-0.447,1-1v-5.586l3.714-3.714C44.105,41.887,44.538,42,45,42
			c1.657,0,3-1.343,3-3s-1.343-3-3-3c-0.462,0-0.895,0.113-1.286,0.3l-7.601-7.601C47.619,27.829,56,25.16,56,22z M9,40
			c-0.553,0-1-0.447-1-1s0.447-1,1-1s1,0.447,1,1S9.553,40,9,40z M45,38c0.553,0,1,0.447,1,1s-0.447,1-1,1s-1-0.447-1-1
			S44.447,38,45,38z M28,2c9.567,0,17.634,6.4,20.166,15.151c-3.932-1.021-9.083-1.745-14.879-2.022
			C33.716,14.271,34,13.382,34,12.5C34,8.357,31.313,5,28,5s-6,3.357-6,7.5c0,0.882,0.284,1.771,0.713,2.629
			c-5.796,0.277-10.947,1.001-14.879,2.022C10.366,8.4,18.433,2,28,2z M32,12c0,1.009-0.536,2.08-1.214,3.035
			C29.869,15.013,28.94,15,28,15s-1.869,0.013-2.786,0.035C24.536,14.08,24,13.009,24,12c0-2.762,1.791-5,4-5S32,9.238,32,12z
			 M28,27c-14.359,0-26-2.238-26-5s11.641-5,26-5s26,2.238,26,5S42.359,27,28,27z M28.762,10.793
			c-0.586,0.586-0.744,1.377-0.354,1.768s1.182,0.232,1.768-0.354s0.744-1.377,0.354-1.768S29.348,10.207,28.762,10.793z
			 M25.408,10.439c-0.391,0.391-0.232,1.182,0.354,1.768s1.377,0.744,1.768,0.354s0.232-1.182-0.354-1.768
			S25.799,10.049,25.408,10.439z"/>
	</g>
</g>
<g>
</g>
<g>
</g>
<g>
</g>
<g>
</g>
<g>
</g>
<g>
</g>
<g>
</g>
<g>
</g>
<g>
</g>
<g>
</g>
<g>
</g>
<g>
</g>
<g>
</g>
<g>
</g>
<g>
</g>
</svg>
