<?xml version="1.0" encoding="iso-8859-1"?>
<!-- Generator: Adobe Illustrator 16.0.4, SVG Export Plug-In . SVG Version: 6.00 Build 0)  -->
<!DOCTYPE svg PUBLIC "-//W3C//DTD SVG 1.1//EN" "http://www.w3.org/Graphics/SVG/1.1/DTD/svg11.dtd">
<svg version="1.1" id="Layer_1" xmlns="http://www.w3.org/2000/svg" xmlns:xlink="http://www.w3.org/1999/xlink" x="0px" y="0px"
	 width="52px" height="56px" viewBox="0 0 52 56" style="enable-background:new 0 0 52 56;" xml:space="preserve">
<g id="_x39_87-ufo_x40_2x.png">
	<g>
		<path d="M52,18c0-3.208-6.152-5.968-15.012-7.242C36.857,4.795,31.993,0,26,0S15.143,4.795,15.013,10.758
			C6.152,12.032,0,14.792,0,18c0,3.54,7.48,6.538,17.837,7.592l-5.723,24.799c-0.035,0.104-0.056,0.209-0.072,0.315l-0.017,0.069
			l0.006,0.001C12.022,50.852,12,50.925,12,51c0,2.762,6.268,5,14,5s14-2.238,14-5c0-0.072-0.021-0.144-0.03-0.215l0.007-0.002
			l-0.018-0.077c-0.018-0.105-0.038-0.212-0.073-0.316l-5.723-24.798C44.52,24.538,52,21.54,52,18z M37.882,50.601l0.106,0.46
			C37.857,52.689,32.546,54,26,54c-6.545,0-11.856-1.311-11.987-2.939l0.105-0.46C14.901,49.133,19.916,48,26,48
			C32.085,48,37.099,49.133,37.882,50.601z M37.294,48.054C34.747,46.811,30.644,46,26,46s-8.747,0.811-11.294,2.054l5.144-22.288
			C21.825,25.913,23.877,26,26,26s4.175-0.087,6.15-0.234L37.294,48.054z M26,24c-13.255,0-24-2.687-24-6
			c0-2.529,6.268-4.688,15.124-5.571C17.05,11.963,17,11.487,17,11c0-4.971,4.029-9,9-9s9,4.029,9,9c0,0.487-0.05,0.963-0.124,1.429
			C43.732,13.312,50,15.471,50,18C50,21.313,39.255,24,26,24z"/>
	</g>
</g>
<g>
</g>
<g>
</g>
<g>
</g>
<g>
</g>
<g>
</g>
<g>
</g>
<g>
</g>
<g>
</g>
<g>
</g>
<g>
</g>
<g>
</g>
<g>
</g>
<g>
</g>
<g>
</g>
<g>
</g>
</svg>
