<?xml version="1.0" encoding="iso-8859-1"?>
<!-- Generator: Adobe Illustrator 16.0.4, SVG Export Plug-In . SVG Version: 6.00 Build 0)  -->
<!DOCTYPE svg PUBLIC "-//W3C//DTD SVG 1.1//EN" "http://www.w3.org/Graphics/SVG/1.1/DTD/svg11.dtd">
<svg version="1.1" id="Layer_1" xmlns="http://www.w3.org/2000/svg" xmlns:xlink="http://www.w3.org/1999/xlink" x="0px" y="0px"
	 width="44px" height="44px" viewBox="0 0 44 44" style="enable-background:new 0 0 44 44;" xml:space="preserve">
<g id="_x38_00-umbrella-toolbar_x40_2x.png">
	<g>
		<path d="M23,2.049V1c0-0.552-0.447-1-1-1s-1,0.448-1,1v1.049C9.317,2.551,0,11.725,0,23c0,0.553,0.447,1,1,1h20v8.111V37
			c0,2.762-2.238,5-5,5s-5-2.238-5-5c0-0.552-0.447-1-1-1s-1,0.448-1,1v0.001C9,40.866,12.134,44,16,44s7-3.134,7-7V24h20
			c0.553,0,1-0.447,1-1C44,11.725,34.683,2.551,23,2.049z M2.053,22C2.604,11.975,11.31,4.001,22,4
			c10.69,0.001,19.396,7.975,19.947,18H2.053z"/>
	</g>
</g>
<g>
</g>
<g>
</g>
<g>
</g>
<g>
</g>
<g>
</g>
<g>
</g>
<g>
</g>
<g>
</g>
<g>
</g>
<g>
</g>
<g>
</g>
<g>
</g>
<g>
</g>
<g>
</g>
<g>
</g>
</svg>
