<?xml version="1.0" encoding="iso-8859-1"?>
<!-- Generator: Adobe Illustrator 16.0.4, SVG Export Plug-In . SVG Version: 6.00 Build 0)  -->
<!DOCTYPE svg PUBLIC "-//W3C//DTD SVG 1.1//EN" "http://www.w3.org/Graphics/SVG/1.1/DTD/svg11.dtd">
<svg version="1.1" id="Layer_1" xmlns="http://www.w3.org/2000/svg" xmlns:xlink="http://www.w3.org/1999/xlink" x="0px" y="0px"
	 width="52px" height="56px" viewBox="0 0 52 56" style="enable-background:new 0 0 52 56;" xml:space="preserve">
<g id="_x38_00-umbrella_x40_2x.png">
	<g>
		<path d="M27,4.049V1c0-0.552-0.447-1-1-1s-1,0.448-1,1v3.049C11.107,4.558,0,15.518,0,29c0,0.553,0.447,1,1,1h24v17
			c0,3.866-3.134,7-7,7s-7-3.134-7-7c0-0.553-0.447-1-1-1s-1,0.447-1,1c0,4.971,4.029,9,9,9s9-4.029,9-9V30h24c0.553,0,1-0.447,1-1
			C52,15.518,40.893,4.558,27,4.049z M2.053,28C2.603,15.766,13.098,6,26,6s23.397,9.766,23.947,22H2.053z"/>
	</g>
</g>
<g>
</g>
<g>
</g>
<g>
</g>
<g>
</g>
<g>
</g>
<g>
</g>
<g>
</g>
<g>
</g>
<g>
</g>
<g>
</g>
<g>
</g>
<g>
</g>
<g>
</g>
<g>
</g>
<g>
</g>
</svg>
