<?xml version="1.0" encoding="iso-8859-1"?>
<!-- Generator: Adobe Illustrator 16.0.4, SVG Export Plug-In . SVG Version: 6.00 Build 0)  -->
<!DOCTYPE svg PUBLIC "-//W3C//DTD SVG 1.1//EN" "http://www.w3.org/Graphics/SVG/1.1/DTD/svg11.dtd">
<svg version="1.1" id="Layer_1" xmlns="http://www.w3.org/2000/svg" xmlns:xlink="http://www.w3.org/1999/xlink" x="0px" y="0px"
	 width="44px" height="24px" viewBox="0 0 44 24" style="enable-background:new 0 0 44 24;" xml:space="preserve">
<g id="_x31_140-underwear_x40_2x.png">
	<g>
		<path d="M43.131,0.475C42.998,0.184,42.727,0,42.429,0H1.571C1.273,0,1.002,0.184,0.868,0.475C0.833,0.552,0,2.609,0,4.491
			c0,1.879,0.831,3.93,0.866,4.008c0.133,0.293,0.406,0.479,0.705,0.479c9.289,0,14.367,8.182,15.755,12.722
			c0.012,0.039,0.025,0.076,0.043,0.113C17.472,22.037,18.474,24,22,24s4.528-1.963,4.631-2.188
			c0.018-0.037,0.031-0.074,0.043-0.113c1.388-4.54,6.466-12.722,15.755-12.722c0.298,0,0.569-0.183,0.702-0.474
			C43.167,8.427,44,6.399,44,4.504C44,2.609,43.167,0.552,43.131,0.475z M41.55,6.999c-9.907,0.491-15.246,9.215-16.752,13.998
			C24.661,21.199,23.995,22,22,22c-1.981,0-2.652-0.79-2.8-1.01C17.693,16.21,12.356,7.492,2.455,7C2.242,6.317,2,5.335,2,4.491
			C2,3.655,2.236,2.683,2.448,2h39.104C41.763,2.682,42,3.657,42,4.504C42,5.357,41.757,6.337,41.55,6.999z"/>
	</g>
</g>
<g>
</g>
<g>
</g>
<g>
</g>
<g>
</g>
<g>
</g>
<g>
</g>
<g>
</g>
<g>
</g>
<g>
</g>
<g>
</g>
<g>
</g>
<g>
</g>
<g>
</g>
<g>
</g>
<g>
</g>
</svg>
