<?xml version="1.0" encoding="UTF-8" standalone="no"?>
<svg width="50px" height="58px" viewBox="0 0 50 58" version="1.1" xmlns="http://www.w3.org/2000/svg" xmlns:xlink="http://www.w3.org/1999/xlink" xmlns:sketch="http://www.bohemiancoding.com/sketch/ns">
    <!-- Generator: Sketch 3.0.4 (8053) - http://www.bohemiancoding.com/sketch -->
    <title>1235-user-error</title>
    <desc>Created with Sketch.</desc>
    <defs></defs>
    <g id="Page-1" stroke="none" stroke-width="1" fill="none" fill-rule="evenodd" sketch:type="MSPage">
        <g id="Glyphish-8-Icons" sketch:type="MSArtboardGroup" transform="translate(-408.000000, -1267.000000)" fill="#000000">
            <g id="1235-user-error" sketch:type="MSLayerGroup" transform="translate(408.036996, 1267.860499)">
                <g id="_x31_235-user-error_x40_2x.png" sketch:type="MSShapeGroup">
                    <path d="M2.057,46.01 C2.663,40.806 7.983,39.056 10.92,38.09 L11.316,37.958 C14.294,36.966 18,36.105 18,30.385 C18,25.474 14.558,22.365 13.759,21.71 C13.545,21.325 12.909,19.888 13.902,17.816 L14.104,17.395 L13.911,16.97 C13.89,16.921 11.715,12.049 13.371,7.924 C14.2,5.86 15.883,4.308 18.447,3.279 C18.472,3.267 21.056,2 23.832,2 C26.962,2 28.997,3.537 30.052,6.701 L30.108,6.87 L30.219,7.011 C30.255,7.055 33.788,11.573 31.106,16.938 L30.855,17.441 L31.154,17.918 C31.165,17.935 32.162,19.565 31.191,21.756 C30.319,22.494 27.001,25.62 27.001,30.386 C27.001,33.01 27.531,34.323 28.469,35.253 C28.976,34.81 29.517,34.407 30.089,34.046 C29.351,33.413 29,32.532 29,30.385 C29,26.022 32.574,23.205 32.607,23.179 L32.795,23.035 L32.899,22.824 C34.097,20.373 33.511,18.306 33.112,17.376 C35.717,11.601 32.564,6.823 31.895,5.91 C30.199,1.03 26.582,0 23.832,0 C20.571,0 17.675,1.43 17.629,1.456 C14.612,2.663 12.555,4.589 11.515,7.18 C9.835,11.364 11.359,15.959 11.911,17.37 C10.557,20.639 12.118,22.871 12.187,22.969 L12.397,23.184 C12.434,23.21 16,25.968 16,30.385 C16,34.665 13.654,35.072 10.684,36.062 L10.295,36.19 C6.953,37.289 0,39.576 0,47.011 L0,48.01 L24.364,48.01 C24.212,47.361 24.109,46.694 24.058,46.01 L2.057,46.01 L2.057,46.01 Z M36.009,50.036 L38.009,50.036 L38.009,48.036 L36.009,48.036 L36.009,50.036 L36.009,50.036 Z M37.009,34.036 C30.934,34.036 26.009,38.961 26.009,45.036 C26.009,51.111 30.934,56.036 37.009,56.036 C43.084,56.036 48.009,51.111 48.009,45.036 C48.009,38.961 43.084,34.036 37.009,34.036 L37.009,34.036 Z M37.009,54.036 C32.038,54.036 28.009,50.007 28.009,45.036 C28.009,40.065 32.038,36.036 37.009,36.036 C41.98,36.036 46.009,40.065 46.009,45.036 C46.009,50.007 41.979,54.036 37.009,54.036 L37.009,54.036 Z M36.009,46.036 L38.009,46.036 L38.009,40.036 L36.009,40.036 L36.009,46.036 L36.009,46.036 Z" id="Shape"></path>
                </g>
            </g>
        </g>
    </g>
</svg>