<?xml version="1.0" encoding="iso-8859-1"?>
<!-- Generator: Adobe Illustrator 16.0.4, SVG Export Plug-In . SVG Version: 6.00 Build 0)  -->
<!DOCTYPE svg PUBLIC "-//W3C//DTD SVG 1.1//EN" "http://www.w3.org/Graphics/SVG/1.1/DTD/svg11.dtd">
<svg version="1.1" id="Layer_1" xmlns="http://www.w3.org/2000/svg" xmlns:xlink="http://www.w3.org/1999/xlink" x="0px" y="0px"
	 width="44px" height="36px" viewBox="0 0 44 36" style="enable-background:new 0 0 44 36;" xml:space="preserve">
<g id="_x39_74-users-toolbar_x40_2x.png">
	<g>
		<path d="M2,27.066c0-0.492,0-1.315,2.121-2.242c1.649-0.732,2.104-1.931,2.301-2.771c0.389-1.654-0.512-3.151-0.908-3.704
			c-0.17-0.382-0.861-2.099-0.861-4.703c0-3.678,2.06-3.678,2.834-3.678c0.775,0,2.834,0,2.834,3.678
			c0,2.479-0.614,4.119-0.829,4.617l-0.622,1.119c-0.32,0.724-0.555,1.67-0.315,2.679c0.215,0.905,0.826,1.549,1.44,1.999
			c0.819-0.307,1.699-0.611,2.637-0.92c-0.16-0.05-0.303-0.093-0.466-0.145c-0.804-0.356-1.53-0.826-1.665-1.396
			c-0.246-1.035,0.641-2.161,0.639-2.161h-0.001c0.067-0.068,1.183-2.249,1.183-5.792c0-2.698-1.064-5.678-4.834-5.678
			c-3.769,0-4.834,2.979-4.834,5.678c0,3.547,1.12,5.728,1.154,5.759c0.01,0.013,0.912,1.154,0.668,2.191
			c-0.135,0.571-0.359,1.042-1.165,1.399C0.748,24.116,0,25.518,0,27.066v1.68c0,0.611,0.603,1.223,1.206,1.223h0.962
			c0.189-0.727,0.543-1.389,1.066-2H2V27.066z M40.69,23.027c-0.805-0.357-1.03-0.828-1.165-1.399
			c-0.244-1.037,0.658-2.179,0.668-2.191c0.034-0.031,1.154-2.212,1.154-5.759c0-2.698-1.064-5.678-4.834-5.678
			c-2.818,0-4.123,1.666-4.603,3.635c-0.058,0.684-0.131,1.348-0.228,1.969c0,0.024-0.004,0.05-0.004,0.074
			c0,3.543,1.115,5.724,1.183,5.792c-0.003,0,0.884,1.126,0.639,2.161c-0.136,0.57-0.862,1.04-1.666,1.396
			c-0.146,0.046-0.273,0.085-0.416,0.129c0.93,0.307,1.804,0.61,2.616,0.914c0.604-0.448,1.2-1.087,1.411-1.978
			c0.239-1.009,0.005-1.955-0.315-2.679l-0.622-1.119c-0.215-0.498-0.829-2.139-0.829-4.617C33.68,10,35.738,10,36.514,10
			c0.774,0,2.834,0,2.834,3.678c0,2.604-0.691,4.321-0.861,4.703c-0.396,0.553-1.297,2.05-0.908,3.704
			c0.198,0.84,0.651,2.038,2.301,2.771C42,25.782,42,26.605,42,27.098V28h-1.205c0.515,0.61,0.859,1.273,1.044,2h0.955
			C43.397,30,44,29.389,44,28.777v-1.68C44,25.549,43.252,24.147,40.69,23.027z M29.344,24.59c-1.332-0.584-2.122-1.352-2.347-2.285
			c-0.407-1.693,1.064-3.537,1.06-3.537h-0.001c0.111-0.111,1.962-3.68,1.962-9.476C30.018,4.874,28.253,0,22,0
			s-8.018,4.874-8.018,9.292c0,5.796,1.851,9.364,1.962,9.476h-0.001c-0.005,0,1.467,1.844,1.06,3.537
			c-0.225,0.934-1.015,1.701-2.347,2.285C7,27,4,28.715,4,31.25V34c0,1,1,2,2,2h32c1,0,2-1,2-2v-2.75C40,28.715,37,27,29.344,24.59z
			 M38,33.915c-0.021,0.029-0.056,0.063-0.085,0.085H6.085C6.056,33.979,6.021,33.944,6,33.915v-2.577
			c0.681-1.01,1.529-2.483,5.814-3.786c1.096-0.332,6.308-1.306,7.133-4.779c0.38-1.579-0.149-3.081-0.709-4.119l-0.675-1.093
			c-0.315-0.666-1.581-3.642-1.581-8.269C15.982,4.453,18.007,2,22,2s6.018,2.453,6.018,7.292c0,4.627-1.266,7.603-1.581,8.269
			l-0.675,1.093c-0.56,1.038-1.089,2.54-0.709,4.119c0.825,3.474,6.037,4.447,7.133,4.779c4.285,1.303,5.134,2.776,5.814,3.786
			V33.915z"/>
	</g>
</g>
<g>
</g>
<g>
</g>
<g>
</g>
<g>
</g>
<g>
</g>
<g>
</g>
<g>
</g>
<g>
</g>
<g>
</g>
<g>
</g>
<g>
</g>
<g>
</g>
<g>
</g>
<g>
</g>
<g>
</g>
</svg>
