<?xml version="1.0" encoding="iso-8859-1"?>
<!-- Generator: Adobe Illustrator 16.0.4, SVG Export Plug-In . SVG Version: 6.00 Build 0)  -->
<!DOCTYPE svg PUBLIC "-//W3C//DTD SVG 1.1//EN" "http://www.w3.org/Graphics/SVG/1.1/DTD/svg11.dtd">
<svg version="1.1" id="Layer_1" xmlns="http://www.w3.org/2000/svg" xmlns:xlink="http://www.w3.org/1999/xlink" x="0px" y="0px"
	 width="44px" height="36px" viewBox="0 0 44 36" style="enable-background:new 0 0 44 36;" xml:space="preserve">
<g id="_x39_73-user-toolbar_x40_2x.png">
	<g>
		<path d="M29.344,24.59c-1.332-0.584-2.122-1.352-2.347-2.285c-0.407-1.693,1.064-3.537,1.06-3.537h-0.001
			c0.111-0.111,1.962-3.68,1.962-9.476C30.018,4.874,28.253,0,22,0s-8.018,4.874-8.018,9.292c0,5.803,1.855,9.37,1.914,9.423
			c0.016,0.02,1.512,1.889,1.107,3.584c-0.223,0.936-1.012,1.706-2.348,2.291C5.615,27.397,0,28.715,0,31.25V34c0,1,1,2,2,2h40
			c1,0,2-1,2-2v-2.75C44,28.715,38.385,27.397,29.344,24.59z M42,33.915c-0.021,0.029-0.056,0.063-0.085,0.085H2.085
			C2.056,33.979,2.021,33.944,2,33.915v-2.577c0.682-1.01,9.815-3.786,9.815-3.786s6.212-1.389,7.134-4.789
			c0.548-2.298-0.877-4.476-1.369-5.139c-0.245-0.507-1.599-3.533-1.599-8.332C15.981,4.453,18.007,2,22,2s6.018,2.453,6.018,7.292
			c0,4.627-1.266,7.603-1.581,8.269l-0.675,1.093c-0.56,1.038-1.089,2.54-0.709,4.119c0.825,3.474,6.037,4.447,7.133,4.779
			c4.285,1.303,9.134,2.776,9.814,3.786V33.915z"/>
	</g>
</g>
<g>
</g>
<g>
</g>
<g>
</g>
<g>
</g>
<g>
</g>
<g>
</g>
<g>
</g>
<g>
</g>
<g>
</g>
<g>
</g>
<g>
</g>
<g>
</g>
<g>
</g>
<g>
</g>
<g>
</g>
</svg>
