<?xml version="1.0" encoding="iso-8859-1"?>
<!-- Generator: Adobe Illustrator 16.0.4, SVG Export Plug-In . SVG Version: 6.00 Build 0)  -->
<!DOCTYPE svg PUBLIC "-//W3C//DTD SVG 1.1//EN" "http://www.w3.org/Graphics/SVG/1.1/DTD/svg11.dtd">
<svg version="1.1" id="Layer_1" xmlns="http://www.w3.org/2000/svg" xmlns:xlink="http://www.w3.org/1999/xlink" x="0px" y="0px"
	 width="56.003px" height="36.059px" viewBox="0 0 56.003 36.059" style="enable-background:new 0 0 56.003 36.059;"
	 xml:space="preserve">
<g id="_x39_74-users_x40_2x.png">
	<g>
		<path d="M2.001,27.439c0-0.883-0.25-2.719,4.368-4.26c1.438-0.618,2.261-1.483,2.526-2.603c0.438-1.843-0.635-3.516-0.788-3.7
			c-0.103-0.113-1.101-1.447-1.101-4.573c0-3.829,0.912-5.253,3.95-5.253c3.04,0,4.045,1.424,4.045,5.253
			c0,3.126-1.091,4.46-1.143,4.516c-0.204,0.242-1.153,1.915-0.715,3.758c0.253,1.065,1.026,1.892,2.27,2.477
			c0.894-0.335,1.832-0.673,2.837-1.017c-0.564-0.271-1.211-0.532-1.957-0.777c-0.66-0.29-1.095-0.688-1.205-1.153
			c-0.18-0.757,0.076-1.72,0.255-1.937c0.015-0.009,1.658-1.841,1.658-5.866c0-1.799,0.124-7.272-6.045-7.272
			c-6.168,0-5.949,5.474-5.949,7.272c0,4.025,1.55,5.857,1.624,5.934c0.172,0.221,0.496,1.14,0.318,1.874
			c-0.113,0.463-0.547,0.86-1.289,1.182c-5.91,1.969-5.66,5.004-5.66,6.146v2.088c0,0.995,0.781,1.531,1.518,1.531h2.603
			c0.154-0.698,0.474-1.368,0.97-2.019h-3.09V27.439z M35.348,23.453c-1.244-0.543-2.104-1.245-2.309-2.088
			c-0.377-1.546,1.122-3.267,1.114-3.267c0.12-0.121,2.875-1.989,2.875-7.766C37.029,5.897,35.87,0,28.001,0
			c-7.867,0-9.027,5.897-9.027,10.333c0,5.792,2.769,7.659,2.812,7.697c0.015,0.018,1.559,1.766,1.177,3.335
			c-0.205,0.843-1.064,1.545-2.309,2.088c-9.177,2.829-14.653,6.086-14.653,8.717v2.111c0,1.154,0.916,1.777,1.777,1.777h40.445
			c0.861,0,1.777-0.623,1.777-1.777V32.17C50.001,29.539,44.525,26.282,35.348,23.453z M48.001,34.059l-40,0.001v-1.888
			c0.033-0.552,2.501-3.503,13.294-6.824l0.101-0.036c1.888-0.81,3.153-1.982,3.514-3.485c0.612-2.551-1.499-4.972-1.639-5.135
			c-0.021-0.021-2.297-1.46-2.297-6.358C20.974,4.414,23.187,2,28.001,2s7.027,2.414,7.027,8.333c0,4.898-2.275,6.337-2.351,6.419
			c-0.085,0.103-2.197,2.523-1.585,5.074c0.36,1.503,1.626,2.676,3.515,3.485l0.1,0.036c10.794,3.321,13.262,6.272,13.294,6.822
			V34.059z M50.341,21.293c-0.742-0.321-1.176-0.719-1.289-1.182c-0.178-0.734,0.146-1.653,0.318-1.874
			c0.074-0.076,1.625-1.908,1.625-5.934c0-1.799,0.219-7.272-5.95-7.272s-6.044,5.474-6.044,7.272c0,4.025,1.644,5.857,1.657,5.866
			c0.179,0.217,0.435,1.18,0.255,1.937c-0.11,0.465-0.544,0.863-1.205,1.153c-0.746,0.245-1.393,0.507-1.957,0.777
			c1.005,0.344,1.943,0.682,2.837,1.017c1.243-0.585,2.017-1.411,2.27-2.477c0.438-1.843-0.51-3.516-0.714-3.758
			c-0.053-0.056-1.143-1.39-1.143-4.516c0-3.829,1.004-5.253,4.044-5.253c3.038,0,3.95,1.424,3.95,5.253
			c0,3.126-0.997,4.46-1.101,4.573c-0.153,0.185-1.227,1.857-0.788,3.7c0.266,1.119,1.089,1.984,2.526,2.603
			c4.618,1.541,4.368,3.377,4.368,4.26v1.601h-3.09c0.496,0.65,0.815,1.32,0.97,2.019h2.603c0.736,0,1.518-0.536,1.518-1.531v-2.088
			C56.001,26.297,56.251,23.262,50.341,21.293z"/>
	</g>
</g>
<g>
</g>
<g>
</g>
<g>
</g>
<g>
</g>
<g>
</g>
<g>
</g>
<g>
</g>
<g>
</g>
<g>
</g>
<g>
</g>
<g>
</g>
<g>
</g>
<g>
</g>
<g>
</g>
<g>
</g>
</svg>
