<?xml version="1.0" encoding="iso-8859-1"?>
<!-- Generator: Adobe Illustrator 16.0.4, SVG Export Plug-In . SVG Version: 6.00 Build 0)  -->
<!DOCTYPE svg PUBLIC "-//W3C//DTD SVG 1.1//EN" "http://www.w3.org/Graphics/SVG/1.1/DTD/svg11.dtd">
<svg version="1.1" id="Layer_1" xmlns="http://www.w3.org/2000/svg" xmlns:xlink="http://www.w3.org/1999/xlink" x="0px" y="0px"
	 width="44.008px" height="32px" viewBox="0 0 44.008 32" style="enable-background:new 0 0 44.008 32;" xml:space="preserve">
<g id="_x38_95-user-group-toolbar_x40_2x.png">
	<g>
		<path d="M31.912,22.1C27.34,19.625,26,20,26,18c0-5.775,2-4.226,2-10c0-8-5.063-8-5.955-8v2C25.486,2,26,6,26,8
			c0,2.438-0.355,3.19-0.808,4.144C24.634,13.324,24,14.662,24,18c0,2.655,1.753,3.426,3.607,4.241
			c0.863,0.379,1.938,0.852,3.354,1.617c3.252,1.76,4.646,2.516,4.973,6.142h-13.93H8.075c0.325-3.626,1.721-4.382,4.972-6.142
			c1.413-0.765,2.486-1.236,3.349-1.616C18.249,21.427,20,20.656,20,18c0-3.338-0.633-4.676-1.191-5.856
			C18.357,11.19,18,10.438,18,8c0-2,0.515-6,3.96-6h0.063l0.021-2c-0.016,0-0.028,0-0.041,0H22c-0.013,0-0.025,0-0.04,0
			C21.068,0,16,0,16,8c0,5.774,2,4.225,2,10c0,2-1.331,1.625-5.904,4.1C8.12,24.251,5.998,25.4,5.998,32h16.006h16.007
			C38.011,25.4,35.888,24.251,31.912,22.1z M4.695,23.268c2.777-1.026,4.307-2.695,4.307-4.698c0-2.23-0.436-3.245-0.962-4.253
			c-0.294-0.563-0.507-0.97-0.507-2.4c0-2.4,0.607-3.279,0.971-3.59c0.32-0.273,0.674-0.306,0.911-0.306l0.089,0.001h0.065
			c1.597,0,2.526,2.135,2.526,3.926c0,1.467-0.206,1.898-0.491,2.494c-0.483,1.011-0.603,2.025-0.603,4.222
			c0,0.776,0.188,1.418,0.467,1.945c0.183-0.099,0.365-0.197,0.552-0.299c0.503-0.272,0.87-0.509,1.177-0.722
			c-0.13-0.265-0.195-0.562-0.195-0.925c0-3.842,1.094-2.874,1.094-6.716c0-5.82-3.844-5.926-4.526-5.926c-0.025,0-0.047,0-0.065,0
			H9.502c-0.022,0-0.052-0.001-0.087-0.001c-0.723,0-3.882,0.132-3.882,5.896c0,3.843,1.469,2.811,1.469,6.653
			c0,1.332-1.562,2.291-3,2.822S0,23.587,0,27.979h4.45c0.188-0.745,0.435-1.407,0.733-2H2.266
			C2.78,24.252,3.934,23.549,4.695,23.268z M40.006,21.392c-1.438-0.531-3-1.49-3-2.822c0-3.843,1.469-2.811,1.469-6.653
			c0-5.764-3.159-5.896-3.882-5.896c-0.035,0-0.063,0.001-0.087,0.001h-0.002c-0.019,0-0.04,0-0.065,0
			c-0.683,0-4.526,0.105-4.526,5.926c0,3.842,1.094,2.874,1.094,6.716c0,0.247-0.038,0.459-0.096,0.657
			c0.535,0.255,1.135,0.555,1.801,0.912c0.179-0.451,0.295-0.969,0.295-1.569c0-2.196-0.119-3.211-0.603-4.222
			c-0.285-0.596-0.491-1.027-0.491-2.494c0-1.791,0.93-3.926,2.526-3.926h0.065l0.089-0.001c0.238,0,0.592,0.032,0.912,0.306
			c0.362,0.311,0.97,1.189,0.97,3.59c0,1.431-0.213,1.837-0.507,2.4c-0.526,1.008-0.962,2.022-0.962,4.253
			c0,2.003,1.529,3.672,4.308,4.698c0.762,0.281,1.914,0.984,2.43,2.712h-2.672c0.242,0.593,0.439,1.255,0.588,2h4.349
			C44.008,23.587,41.443,21.923,40.006,21.392z"/>
	</g>
</g>
<g>
</g>
<g>
</g>
<g>
</g>
<g>
</g>
<g>
</g>
<g>
</g>
<g>
</g>
<g>
</g>
<g>
</g>
<g>
</g>
<g>
</g>
<g>
</g>
<g>
</g>
<g>
</g>
<g>
</g>
</svg>
