<?xml version="1.0" encoding="iso-8859-1"?>
<!-- Generator: Adobe Illustrator 16.0.4, SVG Export Plug-In . SVG Version: 6.00 Build 0)  -->
<!DOCTYPE svg PUBLIC "-//W3C//DTD SVG 1.1//EN" "http://www.w3.org/Graphics/SVG/1.1/DTD/svg11.dtd">
<svg version="1.1" id="Layer_1" xmlns="http://www.w3.org/2000/svg" xmlns:xlink="http://www.w3.org/1999/xlink" x="0px" y="0px"
	 width="56.031px" height="40px" viewBox="0 0 56.031 40" style="enable-background:new 0 0 56.031 40;" xml:space="preserve">
<g id="_x38_95-user-group_x40_2x.png">
	<g>
		<path d="M4.389,28.112c0.417-0.263,0.858-0.54,1.321-0.849c0.597-0.398,1.12-0.674,1.581-0.918
			c1.296-0.685,2.722-1.537,2.722-4.246c0-2.777-0.417-3.012-1.147-4.229c-0.444-0.74-0.89-2.275-0.89-4.171
			C7.976,11.1,8.725,8,11.7,8s4.319,3.1,4.319,5.7c0,1.896-0.321,3.431-0.766,4.171c-0.73,1.217-1.272,1.451-1.272,4.229
			c0,1.948,0.544,2.9,1.377,3.535c0.854-0.308,1.007-0.466,1.977-0.719c-1.131-1.044-1.354-1.144-1.354-2.816
			c0-4.899,2.038-3.5,2.038-8.399C18.02,6,12.4,6,11.7,6s-5.726,0-5.726,7.7c0,4.899,2.038,3.5,2.038,8.399
			C8.013,24.2,7,24,4.601,25.6C1.203,27.863,0,28.4,0,34h5.839c0.262-0.707,0.594-1.367,0.968-2H2.123
			C2.438,29.967,2.393,29.367,4.389,28.112z M41,28c-6-3-8-2-8-5c0-7,3-5,3-12c0-11-7-11-8-11s-8,0-8,11c0,7,3,5,3,12c0,3-2,2-8,5
			c-5.215,2.607-8,4-8,12h42C49,32,46.215,30.607,41,28z M9.067,38c0.376-4.986,2.353-5.974,6.827-8.211
			c2.037-1.02,3.551-1.537,4.768-1.953C22.894,27.072,25,26.351,25,23c0-4.054-0.948-5.635-1.785-7.029
			C22.536,14.84,22,13.946,22,11c0-7.831,3.76-9,6-9c2.241,0,6,1.169,6,9c0,2.946-0.536,3.84-1.215,4.971
			C31.948,17.365,31,18.946,31,23c0,3.351,2.106,4.072,4.338,4.836c1.217,0.416,2.73,0.934,4.768,1.953
			c4.475,2.237,6.451,3.225,6.827,8.211H9.067z M51.432,25.6c-2.4-1.6-3.413-1.399-3.413-3.5c0-4.899,2.038-3.5,2.038-8.399
			c0-7.7-5.025-7.7-5.726-7.7s-6.319,0-6.319,7.7c0,4.899,2.038,3.5,2.038,8.399c0,1.673-0.223,1.772-1.354,2.816
			c0.97,0.253,1.123,0.411,1.977,0.719C41.506,25,42.05,24.048,42.05,22.1c0-2.777-0.542-3.012-1.272-4.229
			c-0.444-0.74-0.766-2.275-0.766-4.171c0-2.601,1.344-5.7,4.319-5.7s3.726,3.1,3.726,5.7c0,1.896-0.446,3.431-0.891,4.171
			c-0.73,1.217-1.147,1.451-1.147,4.229c0,2.709,1.426,3.562,2.723,4.246c0.46,0.244,0.983,0.52,1.58,0.918
			c0.464,0.309,0.904,0.586,1.321,0.849c1.996,1.255,1.95,1.854,2.266,3.888h-4.684c0.374,0.633,0.706,1.293,0.968,2h5.839
			C56.031,28.4,54.828,27.863,51.432,25.6z"/>
	</g>
</g>
<g>
</g>
<g>
</g>
<g>
</g>
<g>
</g>
<g>
</g>
<g>
</g>
<g>
</g>
<g>
</g>
<g>
</g>
<g>
</g>
<g>
</g>
<g>
</g>
<g>
</g>
<g>
</g>
<g>
</g>
</svg>
