<?xml version="1.0" encoding="iso-8859-1"?>
<!-- Generator: Adobe Illustrator 16.0.4, SVG Export Plug-In . SVG Version: 6.00 Build 0)  -->
<!DOCTYPE svg PUBLIC "-//W3C//DTD SVG 1.1//EN" "http://www.w3.org/Graphics/SVG/1.1/DTD/svg11.dtd">
<svg version="1.1" id="Layer_1" xmlns="http://www.w3.org/2000/svg" xmlns:xlink="http://www.w3.org/1999/xlink" x="0px" y="0px"
	 width="44.006px" height="44px" viewBox="0 0 44.006 44" style="enable-background:new 0 0 44.006 44;" xml:space="preserve">
<g id="_x31_234-user-delete_x40_2x.png">
	<g>
		<path d="M36.378,28.215l-3.372,3.371l-3.371-3.371l-1.415,1.414L31.592,33l-3.371,3.371l1.414,1.414l3.371-3.371l3.372,3.371
			l1.414-1.414L34.42,33l3.372-3.371L36.378,28.215z M23.064,22.784c0-3.272,2.843-5.384,2.869-5.403l0.149-0.107l0.083-0.159
			c0.953-1.838,0.487-3.387,0.169-4.085c2.072-4.331-0.436-7.913-0.968-8.598C24.018,0.772,21.141,0,18.954,0
			c-2.593,0-4.897,1.072-4.934,1.092C11.622,1.997,9.985,3.44,9.158,5.384c-1.336,3.137-0.124,6.583,0.315,7.642
			c-1.077,2.45,0.165,4.124,0.22,4.197l0.167,0.161c0.029,0.021,2.865,2.088,2.865,5.4c0,3.209-1.866,3.514-4.228,4.257
			l-0.309,0.096C5.53,27.961,0,29.676,0,35.25V36h20.368c-0.153-0.649-0.259-1.316-0.311-1.999H2.166
			c0.684-2.865,3.741-4.061,6.628-4.956l0.317-0.099l0.513-0.158c2.163-0.66,5.125-1.563,5.125-6.004
			c0-3.736-2.655-6.179-3.483-6.85c-0.145-0.285-0.409-1.036,0.064-2.114c0.217-0.494,0.223-1.055,0.016-1.554
			c-0.339-0.815-1.362-3.665-0.322-6.108c0.613-1.439,1.83-2.485,3.719-3.198c0.056-0.021,0.111-0.045,0.165-0.071
			C15.026,2.836,16.902,2,18.954,2c2.262,0,3.738,1.019,4.51,3.115c0.07,0.192,0.17,0.372,0.296,0.533
			c0.399,0.515,2.313,3.246,0.743,6.526c-0.253,0.529-0.259,1.141-0.016,1.674c0.178,0.392,0.396,1.166-0.018,2.13
			c-0.859,0.714-3.43,3.155-3.43,6.806c0,1.678,0.318,2.735,0.855,3.492c0.396-0.652,0.845-1.268,1.346-1.839
			C23.126,24.028,23.064,23.508,23.064,22.784z M33.006,22c-6.075,0-11,4.925-11,11s4.925,11,11,11s11-4.925,11-11
			S39.082,22,33.006,22z M33.006,42c-4.971,0-9-4.029-9-9s4.029-9,9-9s9,4.029,9,9S37.977,42,33.006,42z"/>
	</g>
</g>
<g>
</g>
<g>
</g>
<g>
</g>
<g>
</g>
<g>
</g>
<g>
</g>
<g>
</g>
<g>
</g>
<g>
</g>
<g>
</g>
<g>
</g>
<g>
</g>
<g>
</g>
<g>
</g>
<g>
</g>
</svg>
