<?xml version="1.0" encoding="iso-8859-1"?>
<!-- Generator: Adobe Illustrator 16.0.4, SVG Export Plug-In . SVG Version: 6.00 Build 0)  -->
<!DOCTYPE svg PUBLIC "-//W3C//DTD SVG 1.1//EN" "http://www.w3.org/Graphics/SVG/1.1/DTD/svg11.dtd">
<svg version="1.1" id="Layer_1" xmlns="http://www.w3.org/2000/svg" xmlns:xlink="http://www.w3.org/1999/xlink" x="0px" y="0px"
	 width="56px" height="48px" viewBox="0 0 56 48" style="enable-background:new 0 0 56 48;" xml:space="preserve">
<g id="_x39_73-user_x40_2x.png">
	<g>
		<path d="M37.347,31.061c-1.696-0.736-2.7-1.707-2.986-2.886c-0.52-2.14,1.354-4.468,1.348-4.468C35.849,23.565,39,20.322,39,13
			c0-5.58-1.14-13-11-13c-9.859,0-11,7.42-11,13c0,7.33,3.158,10.573,3.231,10.641c0.02,0.023,1.925,2.386,1.41,4.526
			c-0.284,1.182-1.288,2.155-2.987,2.894C7.146,34.607,0,38.798,0,42v4c0,1.299,1.03,2,2,2h52c0.97,0,2-0.701,2-2v-4
			C56,38.798,48.854,34.607,37.347,31.061z M53.972,46H2v-4c0-0.786,2.936-4.626,17.294-9.044l0.101-0.037
			c2.34-1.003,3.75-2.444,4.192-4.285c0.754-3.141-1.713-6.147-1.875-6.336C21.686,22.27,19,19.436,19,13c0-7.812,2.607-11,9-11
			s9,3.188,9,11c0,6.436-2.685,9.27-2.768,9.36c-0.105,0.126-2.572,3.133-1.818,6.273c0.441,1.841,1.852,3.282,4.191,4.285
			l0.101,0.037C51.064,37.374,54,41.214,54,42L53.972,46z"/>
	</g>
</g>
<g>
</g>
<g>
</g>
<g>
</g>
<g>
</g>
<g>
</g>
<g>
</g>
<g>
</g>
<g>
</g>
<g>
</g>
<g>
</g>
<g>
</g>
<g>
</g>
<g>
</g>
<g>
</g>
<g>
</g>
</svg>
