<?xml version="1.0" encoding="iso-8859-1"?>
<!-- Generator: Adobe Illustrator 16.0.4, SVG Export Plug-In . SVG Version: 6.00 Build 0)  -->
<!DOCTYPE svg PUBLIC "-//W3C//DTD SVG 1.1//EN" "http://www.w3.org/Graphics/SVG/1.1/DTD/svg11.dtd">
<svg version="1.1" id="Layer_1" xmlns="http://www.w3.org/2000/svg" xmlns:xlink="http://www.w3.org/1999/xlink" x="0px" y="0px"
	 width="55.998px" height="48.385px" viewBox="0 0 55.998 48.385" style="enable-background:new 0 0 55.998 48.385;"
	 xml:space="preserve">
<g id="_x37_79-users_x40_2x.png">
	<g>
		<path d="M36.009,37.799c-0.938-0.425-1.822-0.825-2.454-1.246c-0.583-0.389-1.129-0.704-1.632-0.995
			C29.916,34.398,29,33.869,29,30.385c0-4.363,3.574-7.18,3.607-7.206l0.188-0.144l0.104-0.211c1.198-2.451,0.612-4.518,0.213-5.448
			c2.605-5.775-0.548-10.553-1.217-11.466C30.199,1.03,26.582,0,23.832,0c-3.261,0-6.157,1.43-6.203,1.456
			c-3.017,1.207-5.074,3.133-6.114,5.724c-1.68,4.184-0.156,8.779,0.396,10.19c-1.354,3.269,0.207,5.501,0.276,5.599l0.21,0.215
			C12.434,23.21,16,25.967,16,30.385c0,4.279-2.346,5.062-5.316,6.052l-0.389,0.128C6.953,37.664,0,39.951,0,47.385v1h44.018
			L44,47.367C43.893,41.367,39.336,39.305,36.009,37.799z M2.057,46.385c0.606-5.204,5.926-6.954,8.863-7.92l0.396-0.132
			C14.294,37.341,18,36.105,18,30.385c0-4.911-3.442-8.02-4.241-8.675c-0.214-0.386-0.85-1.822,0.143-3.894l0.202-0.421
			l-0.193-0.425c-0.021-0.049-2.196-4.921-0.54-9.046c0.829-2.064,2.512-3.616,5.076-4.645C18.472,3.267,21.056,2,23.832,2
			c3.13,0,5.165,1.537,6.22,4.701l0.056,0.169l0.111,0.14c0.036,0.045,3.569,4.562,0.887,9.928l-0.251,0.503l0.299,0.477
			c0.011,0.017,1.008,1.647,0.037,3.838c-0.872,0.738-4.19,3.864-4.19,8.63c0,4.415,1.49,5.5,3.923,6.905
			c0.469,0.271,0.979,0.564,1.522,0.927c0.768,0.512,1.725,0.945,2.738,1.404c2.918,1.32,6.195,2.804,6.74,6.764H2.057z
			 M55.98,43.385c-0.094-5.269-4.045-7.068-6.93-8.383c-0.796-0.362-1.548-0.705-2.078-1.061c-0.502-0.337-0.972-0.61-1.405-0.863
			c-1.717-0.999-2.427-1.411-2.427-4.327c0-3.683,3.002-6.068,3.029-6.09l0.188-0.146l0.104-0.213
			c1.024-2.11,0.562-3.904,0.21-4.759c2.197-4.984-0.459-9.11-1.07-9.958c-1.483-4.271-4.637-5.174-7.037-5.174
			c-2.824,0-5.336,1.247-5.364,1.266c-0.038,0.016-0.066,0.037-0.104,0.053c0.205,0.414,0.405,0.835,0.574,1.291
			C33.767,5.161,33.88,5.341,34,5.537c0.009-0.004,0.016-0.009,0.024-0.012c0.021-0.012,2.187-1.087,4.541-1.087
			c2.607,0,4.303,1.291,5.183,3.947l0.057,0.171l0.109,0.139c0.123,0.157,2.98,3.894,0.744,8.398l-0.24,0.507l0.282,0.476
			c0.034,0.058,0.799,1.384,0.041,3.145c-0.801,0.69-3.614,3.41-3.614,7.53c0,4.086,1.592,5.011,3.434,6.082
			c0.399,0.232,0.833,0.484,1.296,0.795c0.667,0.447,1.492,0.823,2.364,1.221c2.417,1.102,5.126,2.336,5.656,5.541h-9.093
			c0.318,0.615,0.582,1.29,0.782,2.026h10.432L55.98,43.385z"/>
	</g>
</g>
<g>
</g>
<g>
</g>
<g>
</g>
<g>
</g>
<g>
</g>
<g>
</g>
<g>
</g>
<g>
</g>
<g>
</g>
<g>
</g>
<g>
</g>
<g>
</g>
<g>
</g>
<g>
</g>
<g>
</g>
</svg>
