<?xml version="1.0" encoding="iso-8859-1"?>
<!-- Generator: Adobe Illustrator 16.0.4, SVG Export Plug-In . SVG Version: 6.00 Build 0)  -->
<!DOCTYPE svg PUBLIC "-//W3C//DTD SVG 1.1//EN" "http://www.w3.org/Graphics/SVG/1.1/DTD/svg11.dtd">
<svg version="1.1" id="Layer_1" xmlns="http://www.w3.org/2000/svg" xmlns:xlink="http://www.w3.org/1999/xlink" x="0px" y="0px"
	 width="43.991px" height="40.008px" viewBox="0 0 43.991 40.008" style="enable-background:new 0 0 43.991 40.008;"
	 xml:space="preserve">
<g id="_x37_79-users-toolbar_x40_2x.png">
	<g>
		<path d="M43.979,37.25c-0.072-4.465-3.209-5.935-5.444-7.12c-1.039-0.552-1.892-1.062-2.785-1.669
			c-1.339-0.905-1.991-1.256-1.991-3.848c0-3.248,2.436-5.344,2.459-5.363c0,0,1.344-1.608,0.342-4.319
			c1.775-4.298-0.373-7.853-0.828-8.532C34.577,2.767,32.111,2,30.237,2c-2.104,0-3.963,0.943-4.184,1.062
			c0.133,0.298,0.258,0.612,0.374,0.945c0.132,0.21,0.305,0.506,0.489,0.864l0.043-0.02l0.066-0.042C27.508,4.562,28.888,4,30.237,4
			c1.797,0,2.937,0.955,3.588,3.004l0.086,0.271l0.158,0.235c0.351,0.523,2.027,3.303,0.642,6.656l-0.299,0.724l0.271,0.733
			c0.47,1.271,0.153,2.053,0.01,2.311c-0.749,0.719-2.935,3.12-2.935,6.679c0,3.321,1.086,4.302,2.742,5.418l0.126,0.085
			c0.951,0.646,1.867,1.194,2.971,1.78l0.275,0.146c2.052,1.081,3.514,2.002,3.963,3.966h-6.389c0.203,0.609,0.356,1.271,0.439,2
			h8.104L43.979,37.25z M27.808,31.255c-1.178-0.612-2.145-1.181-3.156-1.854c-1.518-1.007-2.257-1.396-2.257-4.276
			c0-3.608,2.761-5.938,2.786-5.959c0,0,1.523-1.787,0.389-4.799c2.012-4.775-0.423-8.725-0.939-9.48
			C23.321,0.852,20.527,0,18.403,0c-2.518,0-4.754,1.182-4.789,1.204c-2.33,0.998-3.919,2.591-4.723,4.732
			c-1.297,3.46-0.264,7.322,0.307,8.427c-0.979,3.951,0.375,4.807,0.375,4.807c0.238,0.264,2.782,2.301,2.782,5.955
			c0,4.16-4.405,5.109-4.405,5.109C5.37,31.144,0,33.035,0,39.182v0.826h33.991l-0.014-0.842
			C33.896,34.205,30.341,32.572,27.808,31.255z M2.09,38.008c0.553-3.443,3.556-4.833,6.419-5.85
			c2.101-0.505,5.847-2.564,5.847-7.033c0-1.905-0.57-4.716-3.285-7.289l-0.045-0.042l-0.081-0.089
			c-0.077-0.221-0.262-1.017,0.195-2.86l0.181-0.73l-0.345-0.668c-0.354-0.685-1.269-3.988-0.212-6.808
			c0.614-1.634,1.804-2.811,3.638-3.596l0.151-0.064l0.067-0.044C15.178,2.651,16.801,2,18.403,2c2.175,0,3.549,1.113,4.324,3.504
			l0.089,0.273l0.162,0.238c0.407,0.595,2.355,3.759,0.748,7.575l-0.311,0.735l0.281,0.746c0.577,1.53,0.154,2.465-0.02,2.756
			c-0.799,0.744-3.283,3.378-3.283,7.297c0,3.6,1.135,4.609,3.004,5.846l0.146,0.097c1.074,0.714,2.105,1.319,3.341,1.962
			l0.312,0.162c2.482,1.282,4.224,2.368,4.67,4.816H2.09z"/>
	</g>
</g>
<g>
</g>
<g>
</g>
<g>
</g>
<g>
</g>
<g>
</g>
<g>
</g>
<g>
</g>
<g>
</g>
<g>
</g>
<g>
</g>
<g>
</g>
<g>
</g>
<g>
</g>
<g>
</g>
<g>
</g>
</svg>
