<?xml version="1.0" encoding="iso-8859-1"?>
<!-- Generator: Adobe Illustrator 16.0.4, SVG Export Plug-In . SVG Version: 6.00 Build 0)  -->
<!DOCTYPE svg PUBLIC "-//W3C//DTD SVG 1.1//EN" "http://www.w3.org/Graphics/SVG/1.1/DTD/svg11.dtd">
<svg version="1.1" id="Layer_1" xmlns="http://www.w3.org/2000/svg" xmlns:xlink="http://www.w3.org/1999/xlink" x="0px" y="0px"
	 width="40px" height="56px" viewBox="0 0 40 56" style="enable-background:new 0 0 40 56;" xml:space="preserve">
<g id="_x39_32-utensils_x40_2x.png">
	<g>
		<path d="M19,0c-1.657,0-3,1.343-3,3v19h-2V3c0-1.657-1.343-3-3-3S8,1.343,8,3v19H6V3c0-1.657-1.343-3-3-3S0,1.343,0,3v21
			c0,3.313,2.687,6,6,6h2v25c0,0.553,0.447,1,1,1h4c0.553,0,1-0.447,1-1V30h2c3.313,0,6-2.687,6-6V3C22,1.343,20.657,0,19,0z M12,54
			h-2V30h2V54z M20,5.816V7v17c0,2.209-1.791,4-4,4h-2h-2h-2H8H6c-2.209,0-4-1.791-4-4V7V5.816V3c0-0.553,0.447-1,1-1s1,0.447,1,1
			v2.816V7v15c0,1.104,0.896,2,2,2h2c1.104,0,2-0.896,2-2V7V5.816V3c0-0.553,0.447-1,1-1s1,0.447,1,1v2.816V7v15
			c0,1.104,0.896,2,2,2h2c1.104,0,2-0.896,2-2V7V5.816V3c0-0.553,0.447-1,1-1s1,0.447,1,1V5.816z M34,0c-3.313,0-6,2.687-6,6v26
			c0,1.104,0.896,2,2,2h4v21c0,0.553,0.447,1,1,1h4c0.553,0,1-0.447,1-1V32V6C40,2.687,37.313,0,34,0z M38,54h-2V34h2V54z M38,32h-2
			h-2h-4V6c0-2.209,1.791-4,4-4s4,1.791,4,4V32z"/>
	</g>
</g>
<g>
</g>
<g>
</g>
<g>
</g>
<g>
</g>
<g>
</g>
<g>
</g>
<g>
</g>
<g>
</g>
<g>
</g>
<g>
</g>
<g>
</g>
<g>
</g>
<g>
</g>
<g>
</g>
<g>
</g>
</svg>
