<?xml version="1.0" encoding="iso-8859-1"?>
<!-- Generator: Adobe Illustrator 16.0.4, SVG Export Plug-In . SVG Version: 6.00 Build 0)  -->
<!DOCTYPE svg PUBLIC "-//W3C//DTD SVG 1.1//EN" "http://www.w3.org/Graphics/SVG/1.1/DTD/svg11.dtd">
<svg version="1.1" id="Layer_1" xmlns="http://www.w3.org/2000/svg" xmlns:xlink="http://www.w3.org/1999/xlink" x="0px" y="0px"
	 width="36px" height="44px" viewBox="0 0 36 44" style="enable-background:new 0 0 36 44;" xml:space="preserve">
<g id="_x39_32-utensils-toolbar_x40_2x.png">
	<g>
		<path d="M21.984,2.997c0-1.655-1.34-2.997-2.992-2.997c-1.309,0-2.408,0.847-2.815,2.018C16.118,2.013,16.061,2,16,2v14h-2V2
			c-0.065,0-0.128,0.014-0.192,0.02C13.401,0.847,12.301,0,10.992,0S8.584,0.847,8.177,2.018C8.118,2.013,8.061,2,8,2v14H6V2
			C5.935,2,5.872,2.014,5.808,2.02C5.401,0.847,4.301,0,2.992,0C1.34,0,0,1.342,0,2.997C0,2.998,0,2.999,0,3v17c0,2.209,1.791,4,4,4
			h4v19c0,0.553,0.447,1,1,1h4c0.553,0,1-0.447,1-1V24h4c2.209,0,4-1.791,4-4V3h-0.016C21.984,2.999,21.984,2.998,21.984,2.997z
			 M12,42h-2V24h2V42z M20.015,3H20v17c0,1.104-0.896,2-2,2H4c-1.104,0-2-0.896-2-2V5.812c0.003,0.001,0.005,0.003,0.008,0.003
			V3.013h0.003c0-0.005-0.003-0.01-0.003-0.016c0-0.544,0.449-0.985,1.004-0.985s1.004,0.441,1.004,0.985
			c0,0.006-0.003,0.011-0.003,0.016h0.003v0.832C4.012,3.897,4,3.947,4,4v12c0,1.104,0.896,2,2,2h2c1.104,0,2-0.896,2-2V5.812
			c0.003,0.001,0.005,0.003,0.008,0.003V3.013h0.003c0-0.005-0.003-0.01-0.003-0.016c0-0.544,0.449-0.985,1.004-0.985
			s1.004,0.441,1.004,0.985c0,0.006-0.003,0.011-0.003,0.016h0.003v0.832C12.012,3.896,12,3.947,12,4v12c0,1.104,0.896,2,2,2h2
			c1.104,0,2-0.896,2-2V5.812c0.003,0.001,0.005,0.003,0.008,0.003V3.013h0.003c0-0.005-0.003-0.01-0.003-0.016
			c0-0.544,0.449-0.985,1.004-0.985s1.004,0.441,1.004,0.985C20.016,2.998,20.016,2.999,20.015,3z M30.997,0
			c-2.764,0-5.004,2.236-5.004,4.995C25.993,5.018,26,5.037,26,5.06V24c0,1.104,0.896,2,2,2h2v17c0,0.553,0.447,1,1,1h4
			c0.553,0,1-0.447,1-1V24v-1V5c0-0.002,0-0.003,0-0.005C36,2.236,33.76,0,30.997,0z M28,23.987V4.996h0.002
			c0.008-1.651,1.345-2.987,2.995-2.987s2.987,1.336,2.995,2.987h0.002v18.991H28z M34,42h-2V26h2V42z"/>
	</g>
</g>
<g>
</g>
<g>
</g>
<g>
</g>
<g>
</g>
<g>
</g>
<g>
</g>
<g>
</g>
<g>
</g>
<g>
</g>
<g>
</g>
<g>
</g>
<g>
</g>
<g>
</g>
<g>
</g>
<g>
</g>
</svg>
