<?xml version="1.0" encoding="iso-8859-1"?>
<!-- Generator: Adobe Illustrator 16.0.4, SVG Export Plug-In . SVG Version: 6.00 Build 0)  -->
<!DOCTYPE svg PUBLIC "-//W3C//DTD SVG 1.1//EN" "http://www.w3.org/Graphics/SVG/1.1/DTD/svg11.dtd">
<svg version="1.1" id="Layer_1" xmlns="http://www.w3.org/2000/svg" xmlns:xlink="http://www.w3.org/1999/xlink" x="0px" y="0px"
	 width="44px" height="44px" viewBox="0 0 44 44" style="enable-background:new 0 0 44 44;" xml:space="preserve">
<g id="_x31_107-vertical-swipe_x40_2x.png">
	<g>
		<path d="M9,12c-0.276,0-0.526,0.112-0.707,0.293L6,14.586V5c0-0.553-0.447-1-1-1S4,4.447,4,5v9.586l-2.292-2.292
			C1.526,12.112,1.276,12,1,12c-0.553,0-1,0.448-1,1c0,0.276,0.112,0.526,0.293,0.707l4,4C4.474,17.889,4.724,18,5,18
			s0.526-0.111,0.707-0.293l4-4C9.888,13.526,10,13.276,10,13C10,12.448,9.553,12,9,12z M41,20c-0.395,0-0.771,0.081-1.115,0.22
			C39.539,18.943,38.385,18,37,18c-0.395,0-0.771,0.081-1.115,0.22C35.539,16.943,34.385,16,33,16c-0.353,0-0.686,0.072-1,0.184V11
			c0-1.657-1.343-3-3-3s-3,1.343-3,3v15.861l-2.615-3.699l-0.045,0.032C22.797,22.48,21.968,22,21,22c-1.657,0-3,1.343-3,3
			c0,0.389,0.08,0.757,0.214,1.098l-0.012,0.006l3.241,9.546C22.815,40.468,27.239,44,32.498,44C38.849,44,43.997,38.852,44,32.5V23
			C44,21.343,42.657,20,41,20z M42,32.5c-0.002,5.247-4.255,9.5-9.502,9.5c-4.235,0-7.82-2.773-9.047-6.602l0.003-0.002l-0.05-0.146
			c-0.02-0.065-0.027-0.137-0.046-0.204l-1.923-5.621c-0.002,0.008-0.006,0.015-0.008,0.021l-0.495-1.453
			c0.005,0,0.009,0.001,0.013,0.001l-0.917-2.682l0.031-0.018C20.029,25.2,20,25.104,20,25c0-0.552,0.447-1,1-1
			c0.304,0,0.567,0.143,0.75,0.357l0.003-0.002l4.488,6.295l0.009-0.007C26.434,30.857,26.696,31,27,31c0.553,0,1-0.447,1-1V11
			c0-0.553,0.447-1,1-1s1,0.447,1,1v12c0,0.553,0.447,1,1,1s1-0.447,1-1v-4c0-0.552,0.447-1,1-1s1,0.448,1,1v6c0,0.553,0.447,1,1,1
			s1-0.447,1-1v-4c0-0.552,0.447-1,1-1s1,0.448,1,1v6c0,0.553,0.447,1,1,1s1-0.447,1-1v-4c0-0.552,0.447-1,1-1s1,0.448,1,1V32.5z
			 M19,6c0.553,0,1-0.447,1-1c0-0.276-0.112-0.526-0.293-0.707l-4-4C15.526,0.112,15.276,0,15,0s-0.526,0.112-0.707,0.293l-4,4
			C10.112,4.474,10,4.724,10,5c0,0.553,0.447,1,1,1c0.276,0,0.526-0.111,0.707-0.293L14,3.414V13c0,0.553,0.448,1,1,1
			c0.553,0,1-0.447,1-1V3.414l2.293,2.293C18.474,5.889,18.724,6,19,6z"/>
	</g>
</g>
<g>
</g>
<g>
</g>
<g>
</g>
<g>
</g>
<g>
</g>
<g>
</g>
<g>
</g>
<g>
</g>
<g>
</g>
<g>
</g>
<g>
</g>
<g>
</g>
<g>
</g>
<g>
</g>
<g>
</g>
</svg>
