<?xml version="1.0" encoding="UTF-8" standalone="no"?>
<svg width="54px" height="58px" viewBox="0 0 54 58" version="1.1" xmlns="http://www.w3.org/2000/svg" xmlns:xlink="http://www.w3.org/1999/xlink" xmlns:sketch="http://www.bohemiancoding.com/sketch/ns">
    <!-- Generator: Sketch 3.0.4 (8053) - http://www.bohemiancoding.com/sketch -->
    <title>1107-vertical-swipe</title>
    <desc>Created with Sketch.</desc>
    <defs></defs>
    <g id="Page-1" stroke="none" stroke-width="1" fill="none" fill-rule="evenodd" sketch:type="MSPage">
        <g id="Glyphish-8-Icons" sketch:type="MSArtboardGroup" transform="translate(-598.000000, -19.000000)" fill="#000000">
            <g id="1107-vertical-swipe" sketch:type="MSLayerGroup" transform="translate(598.036996, 19.860499)">
                <g id="_x31_107-vertical-swipe_x40_2x.png" sketch:type="MSShapeGroup">
                    <path d="M9,14 C8.724,14 8.474,14.112 8.293,14.293 L6,16.586 L6,5 C6,4.448 5.553,4 5,4 C4.447,4 4,4.448 4,5 L4,16.586 L1.707,14.293 C1.526,14.112 1.276,14 1,14 C0.447,14 0,14.448 0,15 C0,15.276 0.112,15.526 0.293,15.707 L4.293,19.707 C4.474,19.888 4.724,20 5,20 C5.276,20 5.526,19.889 5.707,19.707 L9.707,15.707 C9.888,15.526 10,15.276 10,15 C10,14.448 9.553,14 9,14 L9,14 Z M48,22 C47.171,22 46.4,22.253 45.761,22.686 C45.215,21.126 43.746,20 42,20 C41.171,20 40.4,20.253 39.761,20.686 C39.215,19.126 37.746,18 36,18 C35.268,18 34.591,18.212 34,18.555 L34,10 C34,7.791 32.209,6 30,6 C27.791,6 26,7.791 26,10 L26,32.913 L23.688,28.456 C22.656,26.384 20.503,25.446 18.462,26.291 C16.421,27.137 15.451,29.477 16.297,31.518 L20.601,44.297 C22.48,51.044 28.654,56 36,56 C44.837,56 52,48.837 52,40 L52,26 C52,23.791 50.209,22 48,22 L48,22 Z M50,40 C50,47.732 43.732,54 36,54 C30.084,54 25.036,50.325 22.986,45.138 L22.966,45.14 L22.965,45.137 L22.986,45.128 L18.144,30.752 C17.721,29.731 18.206,28.562 19.226,28.139 C20.247,27.716 21.259,28.116 21.839,29.222 L26.087,37.41 L26.091,37.408 C26.248,37.756 26.594,38 27,38 C27.553,38 28,37.553 28,37 L28,10 C28,8.896 28.896,8 30,8 C31.104,8 32,8.896 32,10 L32,27 C32,27.553 32.448,28 33,28 C33.553,28 34,27.553 34,27 L34,22 C34,20.896 34.896,20 36,20 C37.104,20 38,20.896 38,22 L38,29 C38,29.553 38.448,30 39,30 C39.553,30 40,29.553 40,29 L40,24 C40,22.896 40.896,22 42,22 C43.104,22 44,22.896 44,24 L44,31 C44,31.553 44.448,32 45,32 C45.553,32 46,31.553 46,31 L46,26.001 C46,26.001 46,26.001 46,26 C46,24.896 46.896,24 48,24 C49.104,24 50,24.896 50,26 L50,40 L50,40 Z M16,3.414 L18.293,5.707 C18.474,5.888 18.724,6 19,6 C19.553,6 20,5.553 20,5 C20,4.724 19.888,4.474 19.707,4.293 L15.707,0.293 C15.526,0.112 15.276,0 15,0 C14.724,0 14.474,0.112 14.293,0.293 L10.293,4.293 C10.112,4.474 10,4.724 10,5 C10,5.553 10.447,6 11,6 C11.276,6 11.526,5.888 11.707,5.707 L14,3.414 L14,15 C14,15.553 14.447,16 15,16 C15.553,16 16,15.553 16,15 L16,3.414 L16,3.414 Z" id="Shape"></path>
                </g>
            </g>
        </g>
    </g>
</svg>