<?xml version="1.0" encoding="iso-8859-1"?>
<!-- Generator: Adobe Illustrator 16.0.4, SVG Export Plug-In . SVG Version: 6.00 Build 0)  -->
<!DOCTYPE svg PUBLIC "-//W3C//DTD SVG 1.1//EN" "http://www.w3.org/Graphics/SVG/1.1/DTD/svg11.dtd">
<svg version="1.1" id="Layer_1" xmlns="http://www.w3.org/2000/svg" xmlns:xlink="http://www.w3.org/1999/xlink" x="0px" y="0px"
	 width="44px" height="28px" viewBox="0 0 44 28" style="enable-background:new 0 0 44 28;" xml:space="preserve">
<g id="_x37_33-video-camera-toolbar_x40_2x.png">
	<g>
		<path d="M24,0H4C1.791,0,0,1.791,0,4v20c0,2.209,1.791,4,4,4h20c2.209,0,4-1.791,4-4V4C28,1.791,26.209,0,24,0z M26,24
			c0,1.104-0.896,2-2,2H4c-1.104,0-2-0.896-2-2V4c0-1.104,0.896-2,2-2h20c1.104,0,2,0.896,2,2V24z M43,2
			c-0.205,0-0.386,0.077-0.545,0.184l-0.01-0.016l-12,8l0.01,0.016C30.188,10.362,30,10.653,30,11v6c0,0.391,0.23,0.721,0.558,0.886
			l-0.005,0.009l12,8l0.005-0.009C42.692,25.953,42.839,26,43,26c0.553,0,1-0.447,1-1V3C44,2.448,43.553,2,43,2z M42,23.141
			l-10-6.666v-4.939l10-6.667V23.141z"/>
	</g>
</g>
<g>
</g>
<g>
</g>
<g>
</g>
<g>
</g>
<g>
</g>
<g>
</g>
<g>
</g>
<g>
</g>
<g>
</g>
<g>
</g>
<g>
</g>
<g>
</g>
<g>
</g>
<g>
</g>
<g>
</g>
</svg>
