<?xml version="1.0" encoding="iso-8859-1"?>
<!-- Generator: Adobe Illustrator 16.0.4, SVG Export Plug-In . SVG Version: 6.00 Build 0)  -->
<!DOCTYPE svg PUBLIC "-//W3C//DTD SVG 1.1//EN" "http://www.w3.org/Graphics/SVG/1.1/DTD/svg11.dtd">
<svg version="1.1" id="Layer_1" xmlns="http://www.w3.org/2000/svg" xmlns:xlink="http://www.w3.org/1999/xlink" x="0px" y="0px"
	 width="56px" height="36px" viewBox="0 0 56 36" style="enable-background:new 0 0 56 36;" xml:space="preserve">
<g id="_x37_33-video-camera_x40_2x.png">
	<g>
		<path d="M32,0H4C1.791,0,0,1.791,0,4v28c0,2.209,1.791,4,4,4h28c2.209,0,4-1.791,4-4V4C36,1.791,34.209,0,32,0z M34,32
			c0,1.104-0.896,2-2,2H4c-1.104,0-2-0.896-2-2V4c0-1.104,0.896-2,2-2h28c1.104,0,2,0.896,2,2V32z M55,2
			c-0.211,0-0.395,0.08-0.556,0.191l-0.011-0.016l-16,11l0.011,0.016C38.183,13.371,38,13.658,38,14v10
			c0,0.374,0.214,0.687,0.518,0.858l-0.008,0.014l16,9l0.008-0.014C54.662,33.94,54.821,34,55,34c0.553,0,1-0.447,1-1V3
			C56,2.447,55.553,2,55,2z M54,31.29l-14-7.875v-8.889l14-9.625V31.29z"/>
	</g>
</g>
<g>
</g>
<g>
</g>
<g>
</g>
<g>
</g>
<g>
</g>
<g>
</g>
<g>
</g>
<g>
</g>
<g>
</g>
<g>
</g>
<g>
</g>
<g>
</g>
<g>
</g>
<g>
</g>
<g>
</g>
</svg>
