<?xml version="1.0" encoding="iso-8859-1"?>
<!-- Generator: Adobe Illustrator 16.0.4, SVG Export Plug-In . SVG Version: 6.00 Build 0)  -->
<!DOCTYPE svg PUBLIC "-//W3C//DTD SVG 1.1//EN" "http://www.w3.org/Graphics/SVG/1.1/DTD/svg11.dtd">
<svg version="1.1" id="Layer_1" xmlns="http://www.w3.org/2000/svg" xmlns:xlink="http://www.w3.org/1999/xlink" x="0px" y="0px"
	 width="44px" height="36px" viewBox="0 0 44 36" style="enable-background:new 0 0 44 36;" xml:space="preserve">
<g id="_x37_88-video-film-strip-toolbar_x40_2x.png">
	<g>
		<path d="M14.018,4.004H9.994v3.989h4.023V4.004z M3.995,26.016h15.996V9.985H3.995V26.016z M6.004,11.997h12.009v12.006H6.004
			V11.997z M23.995,26.016h15.996V9.985H23.995V26.016z M26.004,11.997h12.009v12.006H26.004V11.997z M8.018,4.004H3.994v3.989
			h4.023V4.004z M34.018,4.004h-4.023v3.989h4.023V4.004z M28.018,4.004h-4.023v3.989h4.023V4.004z M40,0H4C1.791,0,0,1.791,0,4v28
			c0,2.209,1.791,4,4,4h36c2.209,0,4-1.791,4-4V4C44,1.791,42.209,0,40,0z M42,32c0,1.104-0.896,2-2,2H4c-1.104,0-2-0.896-2-2V4
			c0-1.104,0.896-2,2-2h36c1.104,0,2,0.896,2,2V32z M23.994,31.993h4.023v-3.989h-4.023V31.993z M3.994,31.993h4.023v-3.989H3.994
			V31.993z M35.994,31.993h4.023v-3.989h-4.023V31.993z M35.994,7.993h4.023V4.004h-4.023V7.993z M29.994,31.993h4.023v-3.989
			h-4.023V31.993z M9.994,31.993h4.023v-3.989H9.994V31.993z M15.994,31.993h4.023v-3.989h-4.023V31.993z M15.994,7.993h4.023V4.004
			h-4.023V7.993z"/>
	</g>
</g>
<g>
</g>
<g>
</g>
<g>
</g>
<g>
</g>
<g>
</g>
<g>
</g>
<g>
</g>
<g>
</g>
<g>
</g>
<g>
</g>
<g>
</g>
<g>
</g>
<g>
</g>
<g>
</g>
<g>
</g>
</svg>
