<?xml version="1.0" encoding="iso-8859-1"?>
<!-- Generator: Adobe Illustrator 16.0.4, SVG Export Plug-In . SVG Version: 6.00 Build 0)  -->
<!DOCTYPE svg PUBLIC "-//W3C//DTD SVG 1.1//EN" "http://www.w3.org/Graphics/SVG/1.1/DTD/svg11.dtd">
<svg version="1.1" id="Layer_1" xmlns="http://www.w3.org/2000/svg" xmlns:xlink="http://www.w3.org/1999/xlink" x="0px" y="0px"
	 width="56px" height="44px" viewBox="0 0 56 44" style="enable-background:new 0 0 56 44;" xml:space="preserve">
<g id="_x37_88-video-film-strip_x40_2x.png">
	<g>
		<path d="M14,38h4v-4h-4V38z M34,6h-4v4h4V6z M22,38h4v-4h-4V38z M10,6H6v4h4V6z M18,6h-4v4h4V6z M42,6h-4v4h4V6z M6,38h4v-4H6V38z
			 M46,10h4V6h-4V10z M30,30h20V14H30V30z M32,16h16v12H32V16z M46,38h4v-4h-4V38z M52,0H4C1.791,0,0,1.791,0,4v36
			c0,2.209,1.791,4,4,4h48c2.209,0,4-1.791,4-4V4C56,1.791,54.209,0,52,0z M54,40c0,1.104-0.896,2-2,2H4c-1.104,0-2-0.896-2-2V4
			c0-1.104,0.896-2,2-2h48c1.104,0,2,0.896,2,2V40z M30,38h4v-4h-4V38z M22,10h4V6h-4V10z M6,30h20V14H6V30z M8,16h16v12H8V16z
			 M38,38h4v-4h-4V38z"/>
	</g>
</g>
<g>
</g>
<g>
</g>
<g>
</g>
<g>
</g>
<g>
</g>
<g>
</g>
<g>
</g>
<g>
</g>
<g>
</g>
<g>
</g>
<g>
</g>
<g>
</g>
<g>
</g>
<g>
</g>
<g>
</g>
</svg>
