<?xml version="1.0" encoding="iso-8859-1"?>
<!-- Generator: Adobe Illustrator 16.0.4, SVG Export Plug-In . SVG Version: 6.00 Build 0)  -->
<!DOCTYPE svg PUBLIC "-//W3C//DTD SVG 1.1//EN" "http://www.w3.org/Graphics/SVG/1.1/DTD/svg11.dtd">
<svg version="1.1" id="Layer_1" xmlns="http://www.w3.org/2000/svg" xmlns:xlink="http://www.w3.org/1999/xlink" x="0px" y="0px"
	 width="56px" height="52px" viewBox="0 0 56 52" style="enable-background:new 0 0 56 52;" xml:space="preserve">
<g id="_x31_095-viking-ship_x40_2x.png">
	<g>
		<path d="M28,38c0,2.209,1.791,4,4,4s4-1.791,4-4s-1.791-4-4-4S28,35.791,28,38z M34,38c0,1.104-0.896,2-2,2s-2-0.896-2-2
			s0.896-2,2-2S34,36.896,34,38z M22,38c0-2.209-1.791-4-4-4s-4,1.791-4,4s1.791,4,4,4S22,40.209,22,38z M16,38c0-1.104,0.896-2,2-2
			s2,0.896,2,2s-0.896,2-2,2S16,39.104,16,38z M52,38c-0.738,0-1.376,0.404-1.723,1H49c-0.553,0-1,0.447-1,1v3h-0.069
			c-0.043,0.344-0.135,0.671-0.22,1H26V30h19c0.415,0,0.771-0.253,0.922-0.613c0.753-1.023,4.021-5.893,4.06-13.293
			C49.984,16.062,50,16.033,50,16c0-0.029-0.015-0.054-0.017-0.082C49.967,7.692,45.938,2.56,45.766,2.344L45.75,2.356
			C45.566,2.143,45.304,2,45,2H26V1c0-0.553-0.447-1-1-1s-1,0.447-1,1v1H5C4.447,2,4,2.447,4,3c0,0.224,0.087,0.419,0.211,0.585
			L4.203,3.592C4.24,3.64,7.984,8.446,7.984,15.969S4.24,28.298,4.204,28.344l0.035,0.028C4.097,28.545,4,28.758,4,29
			c0,0.553,0.447,1,1,1h19v14H2.289c-0.085-0.329-0.177-0.656-0.22-1H2v-3c0-0.553-0.447-1-1-1s-1,0.447-1,1v3h0.051
			c0.502,5.053,4.764,9,9.949,9h30c5.186,0,9.447-3.947,9.949-9H50v-2h0.277c0.347,0.596,0.984,1,1.723,1c0,0,4-1,4-2S52,38,52,38z
			 M44.493,4c0.879,1.296,3.491,5.676,3.491,11.969c0,6.4-2.703,10.822-3.534,12.031h-5.629c1.242-2.131,3.132-6.296,3.16-11.906
			C41.984,16.062,42,16.033,42,16c0-0.029-0.015-0.054-0.017-0.083C41.972,10.319,40.104,6.158,38.856,4H44.493z M36.493,4
			c0.879,1.296,3.491,5.676,3.491,11.969c0,6.4-2.703,10.822-3.534,12.031h-5.629c1.242-2.131,3.132-6.296,3.16-11.906
			C33.984,16.062,34,16.033,34,16c0-0.029-0.015-0.054-0.017-0.083C33.972,10.319,32.104,6.158,30.856,4H36.493z M6.821,28
			c1.242-2.131,3.132-6.296,3.16-11.906C9.984,16.062,10,16.033,10,16c0-0.029-0.014-0.054-0.017-0.083
			C9.972,10.319,8.104,6.158,6.856,4h5.637c0.879,1.296,3.491,5.676,3.491,11.969c0,6.4-2.703,10.822-3.534,12.031H6.821z
			 M14.821,28c1.242-2.131,3.132-6.296,3.16-11.906C17.984,16.062,18,16.033,18,16c0-0.029-0.014-0.054-0.017-0.083
			C17.972,10.319,16.104,6.158,14.856,4h5.637c0.879,1.296,3.492,5.676,3.492,11.969c0,6.4-2.704,10.822-3.535,12.031H14.821z
			 M22.821,28c1.242-2.131,3.132-6.296,3.16-11.906C25.984,16.062,26,16.033,26,16c0-0.029-0.014-0.054-0.017-0.083
			C25.972,10.319,24.104,6.158,22.856,4h5.637c0.879,1.296,3.491,5.676,3.491,11.969c0,6.4-2.703,10.822-3.534,12.031H22.821z
			 M40,50H10c-2.955,0-5.517-1.615-6.899-4h43.799C45.517,48.385,42.956,50,40,50z M12,38c0-2.209-1.791-4-4-4s-4,1.791-4,4
			s1.791,4,4,4S12,40.209,12,38z M6,38c0-1.104,0.896-2,2-2s2,0.896,2,2s-0.896,2-2,2S6,39.104,6,38z M42,34c-2.209,0-4,1.791-4,4
			s1.791,4,4,4s4-1.791,4-4S44.209,34,42,34z M42,40c-1.104,0-2-0.896-2-2s0.896-2,2-2s2,0.896,2,2S43.104,40,42,40z"/>
	</g>
</g>
<g>
</g>
<g>
</g>
<g>
</g>
<g>
</g>
<g>
</g>
<g>
</g>
<g>
</g>
<g>
</g>
<g>
</g>
<g>
</g>
<g>
</g>
<g>
</g>
<g>
</g>
<g>
</g>
<g>
</g>
</svg>
