<?xml version="1.0" encoding="iso-8859-1"?>
<!-- Generator: Adobe Illustrator 16.0.4, SVG Export Plug-In . SVG Version: 6.00 Build 0)  -->
<!DOCTYPE svg PUBLIC "-//W3C//DTD SVG 1.1//EN" "http://www.w3.org/Graphics/SVG/1.1/DTD/svg11.dtd">
<svg version="1.1" id="Layer_1" xmlns="http://www.w3.org/2000/svg" xmlns:xlink="http://www.w3.org/1999/xlink" x="0px" y="0px"
	 width="44px" height="40px" viewBox="0 0 44 40" style="enable-background:new 0 0 44 40;" xml:space="preserve">
<g id="_x31_095-viking-ship-toolbar_x40_2x.png">
	<g>
		<path d="M22,28c0,1.104,0.896,2,2,2s2-0.896,2-2s-0.896-2-2-2S22,26.896,22,28z M28,28c0,1.104,0.896,2,2,2s2-0.896,2-2
			s-0.896-2-2-2S28,26.896,28,28z M16,28c0-1.104-0.896-2-2-2s-2,0.896-2,2s0.896,2,2,2S16,29.104,16,28z M10,28
			c0-1.104-0.896-2-2-2s-2,0.896-2,2s0.896,2,2,2S10,29.104,10,28z M40,26c-0.738,0-1.376,0.404-1.723,1H37c-0.553,0-1,0.447-1,1v3
			h-0.069c-0.043,0.344-0.135,0.671-0.22,1H20v-8h15c0.425,0,0.782-0.267,0.927-0.64c0.651-0.983,3-4.973,3.054-10.264
			C38.984,13.063,39,13.034,39,13c0-0.029-0.015-0.055-0.017-0.084c-0.007-4.954-3.046-10.357-3.218-10.572L35.75,2.356
			C35.566,2.143,35.304,2,35,2H20V1c0-0.552-0.447-1-1-1s-1,0.448-1,1v1H4C3.447,2,3,2.448,3,3c0,0.224,0.087,0.419,0.211,0.586
			L3.203,3.592C3.241,3.64,6,9,5.985,12.969C5.97,17,3.241,22.298,3.204,22.344l0.035,0.028C3.097,22.545,3,22.758,3,23
			c0,0.553,0.447,1,1,1h14v8H2.289c-0.085-0.329-0.177-0.656-0.22-1H2v-3c0-0.553-0.447-1-1-1s-1,0.447-1,1v3h0.051
			c0.502,5.053,4.764,9,9.949,9h18c5.186,0,9.447-3.947,9.949-9H38v-2h0.277c0.347,0.596,0.984,1,1.723,1c0,0,4-1,4-2S40,26,40,26z
			 M34.409,4c0.642,1.314,2.589,5.629,2.576,8.969c-0.014,3.445-2.004,7.805-2.606,9.031h-4.665
			c0.937-1.803,2.227-4.996,2.267-8.903C31.984,13.063,32,13.034,32,13c0-0.029-0.015-0.055-0.017-0.084
			C31.979,9.566,30.591,6.018,29.637,4H34.409z M27.409,4c0.642,1.314,2.589,5.629,2.575,8.969
			c-0.013,3.445-2.003,7.805-2.605,9.031h-5.665c0.937-1.803,2.227-4.996,2.267-8.903C23.984,13.063,24,13.034,24,13
			c0-0.029-0.015-0.055-0.017-0.084C23.979,9.566,22.591,6.018,21.637,4H27.409z M5.714,22c0.937-1.803,2.227-4.996,2.267-8.903
			C7.984,13.063,8,13.034,8,13c0-0.029-0.015-0.055-0.017-0.084C7.979,9.566,6.591,6.018,5.637,4h5.772
			c0.642,1.314,2.589,5.629,2.576,8.969c-0.014,3.445-2.004,7.805-2.606,9.031H5.714z M13.714,22
			c0.937-1.803,2.227-4.996,2.267-8.903C15.984,13.063,16,13.034,16,13c0-0.029-0.015-0.055-0.017-0.084
			C15.979,9.566,14.591,6.018,13.637,4h5.772c0.642,1.314,2.589,5.629,2.576,8.969c-0.014,3.445-2.004,7.805-2.606,9.031H13.714z
			 M28,38H10c-2.955,0-5.517-1.615-6.899-4h31.799C33.517,36.385,30.956,38,28,38z"/>
	</g>
</g>
<g>
</g>
<g>
</g>
<g>
</g>
<g>
</g>
<g>
</g>
<g>
</g>
<g>
</g>
<g>
</g>
<g>
</g>
<g>
</g>
<g>
</g>
<g>
</g>
<g>
</g>
<g>
</g>
<g>
</g>
</svg>
