<?xml version="1.0" encoding="UTF-8" standalone="no"?>
<svg width="58px" height="58px" viewBox="0 0 58 58" version="1.1" xmlns="http://www.w3.org/2000/svg" xmlns:xlink="http://www.w3.org/1999/xlink" xmlns:sketch="http://www.bohemiancoding.com/sketch/ns">
    <!-- Generator: Sketch 3.0.4 (8053) - http://www.bohemiancoding.com/sketch -->
    <title>1283-vimeo</title>
    <desc>Created with Sketch.</desc>
    <defs></defs>
    <g id="Page-1" stroke="none" stroke-width="1" fill="none" fill-rule="evenodd" sketch:type="MSPage">
        <g id="Glyphish-8-Icons" sketch:type="MSArtboardGroup" transform="translate(-212.000000, -1747.000000)" fill="#000000">
            <g id="1283-vimeo" sketch:type="MSLayerGroup" transform="translate(212.036996, 1747.860499)">
                <g id="_x31_283-vimeo_x40_2x.png" sketch:type="MSShapeGroup">
                    <path d="M38.346,15.993 C33.894,15.858 30.878,18.199 29.299,23.015 C30.112,22.701 30.902,22.542 31.669,22.542 C33.295,22.542 34.014,23.397 33.823,25.107 C33.727,26.143 33.009,27.65 31.669,29.63 C30.328,31.611 29.323,32.601 28.653,32.601 C27.792,32.601 27.002,31.072 26.283,28.01 C26.043,27.11 25.612,24.815 24.991,21.123 C24.417,17.702 22.884,16.104 20.395,16.329 C19.342,16.42 17.762,17.319 15.656,19.029 C14.123,20.336 12.568,21.64 10.989,22.945 L12.497,24.768 C13.933,23.823 14.77,23.35 15.01,23.35 C16.111,23.35 17.139,24.97 18.098,28.211 C18.959,31.182 19.821,34.152 20.683,37.123 C21.975,40.364 23.555,41.984 25.422,41.984 C28.438,41.984 32.123,39.329 36.48,34.017 C40.692,28.931 42.871,24.925 43.014,21.998 C43.205,18.086 41.649,16.084 38.346,15.993 L38.346,15.993 Z M28,0 C12.536,0 0,12.536 0,28 C0,43.464 12.536,56 28,56 C43.464,56 56,43.464 56,28 C56,12.536 43.464,0 28,0 L28,0 Z M28,54 C13.641,54 2,42.359 2,28 C2,13.641 13.641,2 28,2 C42.359,2 54,13.641 54,28 C54,42.359 42.359,54 28,54 L28,54 Z" id="Shape"></path>
                </g>
            </g>
        </g>
    </g>
</svg>