<?xml version="1.0" encoding="iso-8859-1"?>
<!-- Generator: Adobe Illustrator 16.0.4, SVG Export Plug-In . SVG Version: 6.00 Build 0)  -->
<!DOCTYPE svg PUBLIC "-//W3C//DTD SVG 1.1//EN" "http://www.w3.org/Graphics/SVG/1.1/DTD/svg11.dtd">
<svg version="1.1" id="Layer_1" xmlns="http://www.w3.org/2000/svg" xmlns:xlink="http://www.w3.org/1999/xlink" x="0px" y="0px"
	 width="44px" height="44px" viewBox="0 0 44 44" style="enable-background:new 0 0 44 44;" xml:space="preserve">
<g id="_x31_283-vimeo_x40_2x.png">
	<g>
		<path d="M22,0C9.85,0,0,9.85,0,22s9.85,22,22,22s22-9.85,22-22S34.15,0,22,0z M22,42C10.954,42,2,33.046,2,22S10.954,2,22,2
			s20,8.954,20,20S33.046,42,22,42z M29.516,13.004c-3.337-0.104-5.598,1.695-6.782,5.398c0.61-0.241,1.202-0.363,1.776-0.363
			c1.219,0,1.757,0.658,1.615,1.973c-0.073,0.797-0.611,1.956-1.615,3.479c-1.005,1.523-1.759,2.284-2.261,2.284
			c-0.646,0-1.238-1.176-1.776-3.53c-0.18-0.691-0.503-2.457-0.969-5.295c-0.431-2.63-1.58-3.859-3.445-3.686
			c-0.79,0.069-1.974,0.761-3.553,2.076c-1.149,1.004-2.314,2.008-3.499,3.011l1.13,1.401c1.076-0.727,1.704-1.09,1.884-1.09
			c0.825,0,1.596,1.246,2.314,3.738c0.646,2.284,1.292,4.568,1.938,6.853c0.969,2.491,2.153,3.737,3.553,3.737
			c2.261,0,5.023-2.041,8.289-6.126c3.157-3.91,4.791-6.99,4.898-9.24C33.157,14.613,31.992,13.073,29.516,13.004z"/>
	</g>
</g>
<g>
</g>
<g>
</g>
<g>
</g>
<g>
</g>
<g>
</g>
<g>
</g>
<g>
</g>
<g>
</g>
<g>
</g>
<g>
</g>
<g>
</g>
<g>
</g>
<g>
</g>
<g>
</g>
<g>
</g>
</svg>
