<?xml version="1.0" encoding="iso-8859-1"?>
<!-- Generator: Adobe Illustrator 16.0.4, SVG Export Plug-In . SVG Version: 6.00 Build 0)  -->
<!DOCTYPE svg PUBLIC "-//W3C//DTD SVG 1.1//EN" "http://www.w3.org/Graphics/SVG/1.1/DTD/svg11.dtd">
<svg version="1.1" id="Layer_1" xmlns="http://www.w3.org/2000/svg" xmlns:xlink="http://www.w3.org/1999/xlink" x="0px" y="0px"
	 width="56px" height="24px" viewBox="0 0 56 24" style="enable-background:new 0 0 56 24;" xml:space="preserve">
<g id="_x31_004-voicemail_x40_2x.png">
	<g>
		<path d="M44,0c-6.627,0-12,5.373-12,12c0,4.176,2.136,7.851,5.372,10H18.628C21.864,19.851,24,16.176,24,12
			c0-6.627-5.373-12-12-12S0,5.373,0,12s5.373,12,12,12h32c6.627,0,12-5.373,12-12S50.627,0,44,0z M2,12C2,6.478,6.478,2,12,2
			s10,4.478,10,10c0,5.523-4.478,10-10,10S2,17.523,2,12z M44,22c-5.522,0-10-4.477-10-10c0-5.522,4.478-10,10-10s10,4.478,10,10
			C54,17.523,49.522,22,44,22z"/>
	</g>
</g>
<g>
</g>
<g>
</g>
<g>
</g>
<g>
</g>
<g>
</g>
<g>
</g>
<g>
</g>
<g>
</g>
<g>
</g>
<g>
</g>
<g>
</g>
<g>
</g>
<g>
</g>
<g>
</g>
<g>
</g>
</svg>
