<?xml version="1.0" encoding="iso-8859-1"?>
<!-- Generator: Adobe Illustrator 16.0.4, SVG Export Plug-In . SVG Version: 6.00 Build 0)  -->
<!DOCTYPE svg PUBLIC "-//W3C//DTD SVG 1.1//EN" "http://www.w3.org/Graphics/SVG/1.1/DTD/svg11.dtd">
<svg version="1.1" id="Layer_1" xmlns="http://www.w3.org/2000/svg" xmlns:xlink="http://www.w3.org/1999/xlink" x="0px" y="0px"
	 width="44px" height="20px" viewBox="0 0 44 20" style="enable-background:new 0 0 44 20;" xml:space="preserve">
<g id="_x31_004-voicemail-toolbar_x40_2x.png">
	<g>
		<path d="M34,0c-5.522,0-10,4.478-10,10c0,3.276,1.583,6.176,4.019,8H15.981C18.417,16.176,20,13.276,20,10c0-5.522-4.478-10-10-10
			S0,4.478,0,10c0,5.523,4.478,10,10,10h24c5.522,0,10-4.477,10-10C44,4.478,39.522,0,34,0z M10,18c-4.418,0-8-3.582-8-8
			s3.582-8,8-8s8,3.582,8,8S14.418,18,10,18z M34,18c-4.418,0-8-3.582-8-8s3.582-8,8-8s8,3.582,8,8S38.418,18,34,18z"/>
	</g>
</g>
<g>
</g>
<g>
</g>
<g>
</g>
<g>
</g>
<g>
</g>
<g>
</g>
<g>
</g>
<g>
</g>
<g>
</g>
<g>
</g>
<g>
</g>
<g>
</g>
<g>
</g>
<g>
</g>
<g>
</g>
</svg>
