<?xml version="1.0" encoding="iso-8859-1"?>
<!-- Generator: Adobe Illustrator 16.0.4, SVG Export Plug-In . SVG Version: 6.00 Build 0)  -->
<!DOCTYPE svg PUBLIC "-//W3C//DTD SVG 1.1//EN" "http://www.w3.org/Graphics/SVG/1.1/DTD/svg11.dtd">
<svg version="1.1" id="Layer_1" xmlns="http://www.w3.org/2000/svg" xmlns:xlink="http://www.w3.org/1999/xlink" x="0px" y="0px"
	 width="28px" height="56px" viewBox="0 0 28 56" style="enable-background:new 0 0 28 56;" xml:space="preserve">
<g id="_x39_44-walking-man_x40_2x.png">
	<g>
		<path d="M17,14c3.866,0,7-3.134,7-7s-3.134-7-7-7s-7,3.134-7,7S13.134,14,17,14z M17,2c2.762,0,5,2.238,5,5s-2.238,5-5,5
			s-5-2.238-5-5S14.238,2,17,2z M27.506,31.157l0.009-0.015L18,25.434V16c0-0.391-0.23-0.721-0.558-0.886l0.005-0.009l-6-3
			l-0.005,0.01C11.308,12.047,11.161,12,11,12c-0.276,0-0.526,0.112-0.707,0.293l-8,8C2.112,20.474,2,20.724,2,21v12
			c0,0.553,0.447,1,1,1s1-0.447,1-1V21.414l7.197-7.197l0.804,0.402v16.143L0.105,54.553l0.009,0.005C0.047,54.692,0,54.839,0,55
			c0,0.553,0.447,1,1,1c0.391,0,0.721-0.23,0.886-0.557l0.009,0.004l11.301-22.602l6.898,8.622l3.944,13.807l0.017-0.004
			C24.175,55.688,24.544,56,25,56c0.553,0,1-0.447,1-1c0-0.096-0.029-0.183-0.055-0.27l0.017-0.005l-4-14l-0.014,0.004
			c-0.041-0.125-0.098-0.243-0.179-0.345l0.012-0.01l-7.782-9.728v-15.03L16,16.618V26c0,0.363,0.204,0.668,0.494,0.843
			l-0.009,0.015l10,6l0.009-0.015C26.645,32.934,26.812,33,27,33c0.553,0,1-0.447,1-1C28,31.637,27.796,31.332,27.506,31.157z"/>
	</g>
</g>
<g>
</g>
<g>
</g>
<g>
</g>
<g>
</g>
<g>
</g>
<g>
</g>
<g>
</g>
<g>
</g>
<g>
</g>
<g>
</g>
<g>
</g>
<g>
</g>
<g>
</g>
<g>
</g>
<g>
</g>
</svg>
