<?xml version="1.0" encoding="iso-8859-1"?>
<!-- Generator: Adobe Illustrator 16.0.4, SVG Export Plug-In . SVG Version: 6.00 Build 0)  -->
<!DOCTYPE svg PUBLIC "-//W3C//DTD SVG 1.1//EN" "http://www.w3.org/Graphics/SVG/1.1/DTD/svg11.dtd">
<svg version="1.1" id="Layer_1" xmlns="http://www.w3.org/2000/svg" xmlns:xlink="http://www.w3.org/1999/xlink" x="0px" y="0px"
	 width="20px" height="44px" viewBox="0 0 20 44" style="enable-background:new 0 0 20 44;" xml:space="preserve">
<g id="_x39_44-walking-man-toolbar_x40_2x.png">
	<g>
		<path d="M19.506,25.157l0.009-0.015L13,21.42V14c0-0.391-0.23-0.721-0.558-0.886l0.005-0.009l-2.366-1.183
			C10.381,11.969,10.687,12,11,12c3.313,0,6-2.687,6-6s-2.687-6-6-6S5,2.687,5,6c0,1.679,0.69,3.193,1.802,4.283l-0.354-0.178
			l-0.005,0.009C6.308,10.047,6.161,10,6,10c-0.276,0-0.526,0.112-0.707,0.293l-5,5C0.112,15.474,0,15.724,0,16v10
			c0,0.553,0.447,1,1,1s1-0.447,1-1v-9.586l4.197-4.197l0.804,0.402v13.187L0.105,42.553l0.009,0.005C0.047,42.692,0,42.839,0,43
			c0,0.553,0.447,1,1,1c0.391,0,0.721-0.23,0.886-0.558l0.009,0.005l0.019-0.046c0.004-0.009,0.008-0.018,0.012-0.026L8.309,27.87
			l5.808,6.637l2.922,8.769l0.017-0.005C17.175,43.688,17.544,44,18,44c0.553,0,1-0.447,1-1c0-0.096-0.029-0.183-0.055-0.27
			l0.017-0.005l-3-9l-0.014,0.004c-0.041-0.125-0.098-0.243-0.179-0.345l0.012-0.01l-6.782-7.751V13.617L11,14.618V22
			c0,0.364,0.204,0.668,0.494,0.843l-0.009,0.015l7,4l0.009-0.015C18.645,26.934,18.812,27,19,27c0.553,0,1-0.447,1-1
			C20,25.637,19.796,25.332,19.506,25.157z M7,6c0-2.209,1.791-4,4-4s4,1.791,4,4s-1.791,4-4,4S7,8.209,7,6z"/>
	</g>
</g>
<g>
</g>
<g>
</g>
<g>
</g>
<g>
</g>
<g>
</g>
<g>
</g>
<g>
</g>
<g>
</g>
<g>
</g>
<g>
</g>
<g>
</g>
<g>
</g>
<g>
</g>
<g>
</g>
<g>
</g>
</svg>
