<?xml version="1.0" encoding="iso-8859-1"?>
<!-- Generator: Adobe Illustrator 16.0.4, SVG Export Plug-In . SVG Version: 6.00 Build 0)  -->
<!DOCTYPE svg PUBLIC "-//W3C//DTD SVG 1.1//EN" "http://www.w3.org/Graphics/SVG/1.1/DTD/svg11.dtd">
<svg version="1.1" id="Layer_1" xmlns="http://www.w3.org/2000/svg" xmlns:xlink="http://www.w3.org/1999/xlink" x="0px" y="0px"
	 width="44px" height="40px" viewBox="0 0 44 40" style="enable-background:new 0 0 44 40;" xml:space="preserve">
<g id="_x37_91-warning-toolbar_x40_2x.png">
	<g>
		<path d="M20,16c0,6,1,11,1,11s0,1,1,1c1,0.001,1-1,1-1s1-5,1-11c0-1-0.896-2-2-2S20,15.104,20,16z M22,30c-1.104,0-2,0.896-2,2
			s0.896,2,2,2s2-0.896,2-2S23.104,30,22,30z M43.74,37.031l0.014-0.008L23.723,0.961l-0.017,0.01C23.356,0.392,22.727,0,22,0
			c-0.726,0-1.356,0.392-1.707,0.971l-0.017-0.01L0.246,37.023l0.015,0.008C0.1,37.32,0,37.646,0,38c0,1.104,0.896,2,2,2h40
			c1.104,0,2-0.896,2-2C44,37.646,43.9,37.32,43.74,37.031z M40,38h-1H5H4H2L22,1.979L42,38H40z"/>
	</g>
</g>
<g>
</g>
<g>
</g>
<g>
</g>
<g>
</g>
<g>
</g>
<g>
</g>
<g>
</g>
<g>
</g>
<g>
</g>
<g>
</g>
<g>
</g>
<g>
</g>
<g>
</g>
<g>
</g>
<g>
</g>
</svg>
