<?xml version="1.0" encoding="iso-8859-1"?>
<!-- Generator: Adobe Illustrator 16.0.4, SVG Export Plug-In . SVG Version: 6.00 Build 0)  -->
<!DOCTYPE svg PUBLIC "-//W3C//DTD SVG 1.1//EN" "http://www.w3.org/Graphics/SVG/1.1/DTD/svg11.dtd">
<svg version="1.1" id="Layer_1" xmlns="http://www.w3.org/2000/svg" xmlns:xlink="http://www.w3.org/1999/xlink" x="0px" y="0px"
	 width="44px" height="56px" viewBox="0 0 44 56" style="enable-background:new 0 0 44 56;" xml:space="preserve">
<g id="_x38_19-washing-machine_x40_2x.png">
	<g>
		<path d="M28,8c1.104,0,2-0.896,2-2s-0.896-2-2-2s-2,0.896-2,2S26.896,8,28,8z M42,0H2C0.896,0,0,0.896,0,2v52c0,1.104,0.896,2,2,2
			h40c1.104,0,2-0.896,2-2V2C44,0.896,43.104,0,42,0z M42,54H2V12h40V54z M42,10H2V2h40V10z M36,8c1.104,0,2-0.896,2-2s-0.896-2-2-2
			s-2,0.896-2,2S34.896,8,36,8z M22,50c8.837,0,16-7.163,16-16c0-8.836-7.163-16-16-16S6,25.164,6,34C6,42.837,13.163,50,22,50z
			 M8,34c0-7.731,6.268-14,14-14c7.472,0,13.559,5.857,13.961,13.229c-1.529,0.909-7.22,3.774-13.514,0.627
			c-6.197-3.098-11.792-1.168-14.446,0.165C8.001,34.014,8,34.007,8,34z M21.553,35.645c2.835,1.417,5.321,1.769,7.386,1.769
			c2.581,0,5.288-1.091,6.981-1.931C35.18,42.517,29.231,48,22,48c-6.986,0-12.761-5.123-13.812-11.814
			C9.91,35.198,15.447,32.592,21.553,35.645z"/>
	</g>
</g>
<g>
</g>
<g>
</g>
<g>
</g>
<g>
</g>
<g>
</g>
<g>
</g>
<g>
</g>
<g>
</g>
<g>
</g>
<g>
</g>
<g>
</g>
<g>
</g>
<g>
</g>
<g>
</g>
<g>
</g>
</svg>
