<?xml version="1.0" encoding="iso-8859-1"?>
<!-- Generator: Adobe Illustrator 16.0.4, SVG Export Plug-In . SVG Version: 6.00 Build 0)  -->
<!DOCTYPE svg PUBLIC "-//W3C//DTD SVG 1.1//EN" "http://www.w3.org/Graphics/SVG/1.1/DTD/svg11.dtd">
<svg version="1.1" id="Layer_1" xmlns="http://www.w3.org/2000/svg" xmlns:xlink="http://www.w3.org/1999/xlink" x="0px" y="0px"
	 width="36px" height="44px" viewBox="0 0 36 44" style="enable-background:new 0 0 36 44;" xml:space="preserve">
<g id="_x38_19-washing-machine-toolbar_x40_2x.png">
	<g>
		<path d="M18,37.995c6.619,0,11.985-5.372,11.985-12c0-6.627-5.366-12-11.985-12s-11.985,5.373-11.985,12
			C6.015,32.623,11.381,37.995,18,37.995z M18,15.996c5.516,0,9.987,4.478,9.987,10c0,0.646-0.066,1.276-0.184,1.889
			c-2.521,0.606-5.843,0.728-9.356-1.029c-3.908-1.954-7.569-1.899-10.414-1.263C8.246,20.258,12.62,15.996,18,15.996z
			 M17.553,28.645c2.835,1.417,5.321,1.769,7.386,1.769c0.71,0,1.423-0.103,2.128-0.241c-1.581,3.436-5.041,5.824-9.066,5.824
			c-4.96,0-9.063-3.623-9.843-8.368C10.683,27.013,14.021,26.879,17.553,28.645z M31.001,6.003c0.551,0,0.997-0.45,0.997-1.006
			s-0.446-1.006-0.997-1.006s-0.997,0.45-0.997,1.006S30.45,6.003,31.001,6.003z M34,0H2C0.896,0,0,0.896,0,2v40
			c0,1.104,0.896,2,2,2h32c1.104,0,2-0.896,2-2V2C36,0.896,35.104,0,34,0z M33.989,41.991H2.011V9.989h31.979V41.991z M33.989,8.018
			H2.011V2.009h31.979V8.018z M27.001,6.003c0.551,0,0.997-0.45,0.997-1.006s-0.446-1.006-0.997-1.006s-0.997,0.45-0.997,1.006
			S26.45,6.003,27.001,6.003z"/>
	</g>
</g>
<g>
</g>
<g>
</g>
<g>
</g>
<g>
</g>
<g>
</g>
<g>
</g>
<g>
</g>
<g>
</g>
<g>
</g>
<g>
</g>
<g>
</g>
<g>
</g>
<g>
</g>
<g>
</g>
<g>
</g>
</svg>
