<?xml version="1.0" encoding="iso-8859-1"?>
<!-- Generator: Adobe Illustrator 16.0.4, SVG Export Plug-In . SVG Version: 6.00 Build 0)  -->
<!DOCTYPE svg PUBLIC "-//W3C//DTD SVG 1.1//EN" "http://www.w3.org/Graphics/SVG/1.1/DTD/svg11.dtd">
<svg version="1.1" id="Layer_1" xmlns="http://www.w3.org/2000/svg" xmlns:xlink="http://www.w3.org/1999/xlink" x="0px" y="0px"
	 width="56px" height="56px" viewBox="0 0 56 56" style="enable-background:new 0 0 56 56;" xml:space="preserve">
<g id="_x31_091-weights_x40_2x.png">
	<g>
		<path d="M53.009,17.914C54.727,17.461,56,15.909,56,14.047c0-1.108-0.449-2.111-1.175-2.838l-4.308-4.312l1.189-1.189
			C51.888,5.526,52,5.276,52,5c0-0.553-0.447-1-1-1c-0.276,0-0.526,0.112-0.707,0.293l-1.188,1.188l-4.301-4.306
			C44.078,0.449,43.076,0,41.969,0c-1.867,0-3.423,1.284-3.868,3.014L36.555,1.47C35.647,0.562,34.396,0,33.011,0
			C30.243,0,28,2.246,28,5.017c0,1.386,0.561,2.64,1.468,3.548l6.279,6.274L14.839,35.746l-6.275-6.278
			C7.656,28.561,6.402,28,5.017,28C2.246,28,0,30.244,0,33.012c0,1.384,0.562,2.637,1.47,3.543l1.544,1.546
			C1.284,38.546,0,40.102,0,41.969c0,1.107,0.449,2.109,1.176,2.835h0l4.306,4.301l-1.188,1.188C4.112,50.474,4,50.724,4,51
			c0,0.553,0.448,1,1,1c0.276,0,0.526-0.112,0.707-0.293l1.189-1.189l4.312,4.308C11.935,55.551,12.938,56,14.047,56
			c1.862,0,3.414-1.273,3.867-2.991l1.522,1.523C20.343,55.439,21.598,56,22.983,56C25.754,56,28,53.757,28,50.988
			c0-1.383-0.562-2.636-1.469-3.543l-6.279-6.283l20.911-20.91l6.283,6.278c0.907,0.908,2.159,1.47,3.544,1.47
			C53.757,28,56,25.754,56,22.983c0-1.386-0.561-2.64-1.468-3.548L53.009,17.914z M41.969,2.007c0.554,0,1.055,0.225,1.417,0.588
			l10.022,10.033c0.363,0.363,0.587,0.865,0.587,1.419c0,1.108-0.897,2.007-2.004,2.007c-0.554,0-1.055-0.225-1.418-0.588
			L40.552,5.433c-0.363-0.363-0.588-0.865-0.588-1.419C39.964,2.905,40.861,2.007,41.969,2.007z M14.047,53.995
			c-0.554,0-1.056-0.224-1.419-0.587L2.594,43.386c-0.363-0.362-0.587-0.863-0.587-1.417c0-1.107,0.898-2.004,2.006-2.004
			c0.554,0,1.056,0.224,1.419,0.587v-0.001l10.033,10.023c0.363,0.362,0.588,0.863,0.588,1.417
			C16.054,53.098,15.155,53.995,14.047,53.995z M25.112,48.863c0.544,0.544,0.881,1.295,0.881,2.125c0,1.661-1.348,3.007-3.01,3.007
			c-0.832,0-1.584-0.336-2.128-0.88L2.888,35.137c-0.544-0.544-0.881-1.295-0.881-2.125c0-1.661,1.348-3.007,3.01-3.007
			c0.832,0,1.584,0.336,2.129,0.88L25.112,48.863z M18.838,39.748l-2.585-2.587l20.908-20.908l2.587,2.585L18.838,39.748z
			 M50.989,25.993c-0.831,0-1.582-0.337-2.127-0.882L30.885,7.146c-0.544-0.545-0.88-1.298-0.88-2.129
			c0-1.662,1.346-3.01,3.006-3.01c0.831,0,1.582,0.337,2.127,0.882l17.978,17.966c0.544,0.545,0.88,1.298,0.88,2.129
			C53.995,24.646,52.649,25.993,50.989,25.993z"/>
	</g>
</g>
<g>
</g>
<g>
</g>
<g>
</g>
<g>
</g>
<g>
</g>
<g>
</g>
<g>
</g>
<g>
</g>
<g>
</g>
<g>
</g>
<g>
</g>
<g>
</g>
<g>
</g>
<g>
</g>
<g>
</g>
</svg>
