<?xml version="1.0" encoding="iso-8859-1"?>
<!-- Generator: Adobe Illustrator 16.0.4, SVG Export Plug-In . SVG Version: 6.00 Build 0)  -->
<!DOCTYPE svg PUBLIC "-//W3C//DTD SVG 1.1//EN" "http://www.w3.org/Graphics/SVG/1.1/DTD/svg11.dtd">
<svg version="1.1" id="Layer_1" xmlns="http://www.w3.org/2000/svg" xmlns:xlink="http://www.w3.org/1999/xlink" x="0px" y="0px"
	 width="44px" height="24.029px" viewBox="0 0 44 24.029" style="enable-background:new 0 0 44 24.029;" xml:space="preserve">
<g id="_x31_028-whale-toolbar_x40_2x.png">
	<g>
		<path d="M32,5.026c-10.246,0-11.011,4.559-11.797,8.104c-0.616,2.779-0.952,4.896-5.203,4.896c-2.756,0-4.402-3.212-4.753-5.415
			c-0.017-0.185-0.034-0.607-0.034-0.607s1.015-0.029,1.66-0.029c4.938,0,7.77-2.053,7.77-5.659c0-3.429-1.531-4.712-1.605-4.785
			L16.506,0L16.5,1.568c0,0.03-0.07,3.164-1.409,3.164c-0.351,0-0.812-0.164-1.329-0.475l-0.156-0.071
			c-0.399-0.134-0.807-0.201-1.208-0.201c-1.271,0-2.258,0.66-2.879,1.237C8.961,4.53,8.041,3.706,6.813,3.706
			c-0.592,0-1.18,0.192-1.749,0.571C4.625,4.57,4.328,4.608,4.145,4.608c-0.063,0-0.113-0.005-0.15-0.005c-0.001,0-0.002,0-0.002,0
			c-0.096,0-0.316-0.003-0.531-0.573C3.25,3.471,3.143,2.515,3.143,1.373V0.005c0,0-1.251,0.942-1.546,1.365
			C1.025,2.191,0,2.978,0,7.102c0,3.158,2.471,4.882,6.958,4.882c0.64,0,1.66,0.002,1.66,0.002s0.031,0.567,0.069,0.819
			c0.272,2.85,1.889,11.225,10.955,11.225L34,24.026c0,0,0.001,0,0.002,0c0.187,0,9.998-0.021,9.998-9.425
			C44,10.061,40.098,5.026,32,5.026z M8.622,9.985L6.958,9.983C2,9.983,2,7.814,2,7.102C2,6.522,2.021,6.03,2.057,5.608
			C2.716,6.489,3.58,6.604,3.96,6.604c0.054,0.002,0.114,0.005,0.185,0.005c0.693,0,1.357-0.219,2.028-0.666
			c0.235-0.156,0.45-0.236,0.641-0.236c0.458,0,0.915,0.482,1.147,0.771l1.347,1.672l1.572-1.462
			c0.345-0.32,0.889-0.702,1.518-0.702c0.153,0,0.311,0.021,0.47,0.066c0.79,0.452,1.538,0.681,2.224,0.681
			c1.11,0,1.932-0.576,2.489-1.454c0.039,0.309,0.062,0.653,0.062,1.037c0,1.67-1.001,3.659-5.77,3.659
			c-0.422,0-0.996,0.013-1.361,0.021l-0.001-0.006L8.622,9.985z M32,18.046v0.007c-0.002,0-0.004-0.001-0.006-0.001
			c-0.556,0-1.006,0.45-1.006,1.006c0,0.555,0.45,1.006,1.006,1.006c0.032,0,0.06-0.016,0.092-0.019
			c4.244-0.006,6.873-0.419,8.491-0.867c-2.136,2.727-5.988,2.849-6.577,2.849l-14.357,0.003c-2.691,0-4.581-0.9-5.907-2.178
			c0.448,0.118,0.877,0.175,1.265,0.175c5.732,0,6.523-3.595,7.103-6.22l0.054-0.243l0.054-0.247c0.712-3.235,1.386-6.29,9.79-6.29
			c6.565,0,10,3.811,10,7.575c0,0.783-0.098,1.469-0.249,2.095C40.285,17.28,37.348,18.046,32,18.046z M30.002,12.046
			c-1.104,0-1.998,0.895-1.998,1.998s0.895,1.998,1.998,1.998S32,15.147,32,14.044S31.105,12.046,30.002,12.046z"/>
	</g>
</g>
<g>
</g>
<g>
</g>
<g>
</g>
<g>
</g>
<g>
</g>
<g>
</g>
<g>
</g>
<g>
</g>
<g>
</g>
<g>
</g>
<g>
</g>
<g>
</g>
<g>
</g>
<g>
</g>
<g>
</g>
</svg>
