<?xml version="1.0" encoding="iso-8859-1"?>
<!-- Generator: Adobe Illustrator 16.0.4, SVG Export Plug-In . SVG Version: 6.00 Build 0)  -->
<!DOCTYPE svg PUBLIC "-//W3C//DTD SVG 1.1//EN" "http://www.w3.org/Graphics/SVG/1.1/DTD/svg11.dtd">
<svg version="1.1" id="Layer_1" xmlns="http://www.w3.org/2000/svg" xmlns:xlink="http://www.w3.org/1999/xlink" x="0px" y="0px"
	 width="56px" height="27.998px" viewBox="0 0 56 27.998" style="enable-background:new 0 0 56 27.998;" xml:space="preserve">
<g id="_x31_028-whale_x40_2x.png">
	<g>
		<path d="M41,3.998c-13.04,0-14.286,5.615-15.287,10.128c-0.784,3.536-1.303,5.872-6.713,5.872c-3.508,0-5.513-1.422-5.958-4.226
			c-0.021-0.235-0.044-0.773-0.044-0.773s1.291,0.003,2.113,0.003c6.284,0,9.889-2.414,9.889-7.004c0-4.364-1.949-5.957-2.043-6.051
			L21.008,0L21,1.996c0,0.038-0.089,3.749-1.793,3.749c-0.447,0-1.033-0.208-1.692-0.604l-0.198-0.09
			c-0.509-0.171-1.026-0.257-1.538-0.257c-1.616,0-2.873,0.84-3.664,1.574c-0.709-0.88-1.88-1.93-3.442-1.93
			c-0.753,0-1.502,0.245-2.227,0.728C5.695,5.666,5.27,5.74,5.083,5.74c-0.001,0-0.002,0-0.002,0c-0.122,0-0.402-0.004-0.677-0.729
			C4.136,4.299,4,3.2,4,1.748V0.006c0,0-1.593,1.2-1.968,1.738C1.305,2.79,0,3.751,0,8.998c0,4.02,3.145,6.015,8.855,6.015
			c0.814,0,2.113-0.037,2.113-0.037s0.039,0.723,0.088,1.044C11.403,19.646,13.461,27.998,25,27.998h18c0.13,0,13-0.138,13-12
			C56,10.219,51.306,3.998,41,3.998z M8.855,13.013C4.307,13.013,2,11.808,2,8.998c0-1.631,0.154-2.872,0.364-3.805
			c0.051,0.185,0.107,0.358,0.169,0.522C3.197,7.478,4.416,7.74,5.083,7.74c0.744,0,1.553-0.298,2.472-0.91
			c0.391-0.26,0.767-0.392,1.117-0.392c1.16,0,2.151,1.45,2.434,2.007l0.771,1.541l0.956-1.434c0.012-0.018,1.221-1.759,2.946-1.759
			c0.266,0,0.538,0.041,0.811,0.123c0.956,0.558,1.813,0.828,2.618,0.828h0.001c1.794,0,2.8-1.298,3.317-2.798
			C22.794,5.747,23,6.763,23,7.998c0,1.977-0.837,3.356-2.559,4.217c-1.315,0.658-3.158,0.787-5.33,0.787
			C12.689,13.002,11.308,13.013,8.855,13.013z M41,21.994c-0.553,0-1,0.447-1,1s0.447,1,1,1c4.957,0,8.018-0.342,9.926-0.743
			c-3.153,2.682-7.639,2.747-7.928,2.747H25c-5.671,0-8.693-2.243-10.289-4.863c1.084,0.525,2.482,0.863,4.289,0.863
			c7.015,0,7.892-3.952,8.665-7.438C28.599,10.351,29.564,5.998,41,5.998c4.496,0,13,2.09,13,10c0,1.818-0.361,3.305-0.95,4.521
			C51.636,21.112,48.312,21.994,41,21.994z M39,13.994c-1.657,0-3,1.343-3,3s1.343,3,3,3s3-1.343,3-3S40.657,13.994,39,13.994z
			 M39,17.994c-0.553,0-1-0.447-1-1c0-0.552,0.447-1,1-1s1,0.448,1,1C40,17.547,39.553,17.994,39,17.994z"/>
	</g>
</g>
<g>
</g>
<g>
</g>
<g>
</g>
<g>
</g>
<g>
</g>
<g>
</g>
<g>
</g>
<g>
</g>
<g>
</g>
<g>
</g>
<g>
</g>
<g>
</g>
<g>
</g>
<g>
</g>
<g>
</g>
</svg>
