<?xml version="1.0" encoding="UTF-8" standalone="no"?>
<svg width="58px" height="50px" viewBox="0 0 58 50" version="1.1" xmlns="http://www.w3.org/2000/svg" xmlns:xlink="http://www.w3.org/1999/xlink" xmlns:sketch="http://www.bohemiancoding.com/sketch/ns">
    <!-- Generator: Sketch 3.0.4 (8053) - http://www.bohemiancoding.com/sketch -->
    <title>1160-whistle</title>
    <desc>Created with Sketch.</desc>
    <defs></defs>
    <g id="Page-1" stroke="none" stroke-width="1" fill="none" fill-rule="evenodd" sketch:type="MSPage">
        <g id="Glyphish-8-Icons" sketch:type="MSArtboardGroup" transform="translate(-884.000000, -503.000000)" fill="#000000">
            <g id="1160-whistle" sketch:type="MSLayerGroup" transform="translate(884.036996, 503.860499)">
                <g id="_x31_160-whistle_x40_2x.png" sketch:type="MSShapeGroup">
                    <path d="M56,5 C56,4.839 55.953,4.692 55.886,4.558 L55.895,4.553 L53.895,0.553 L53.886,0.558 C53.721,0.23 53.391,0 53,0 C52.884,0 52.775,0.029 52.672,0.066 L52.669,0.056 L16.575,13.182 L16.579,13.193 C12.921,14.597 9.836,17.157 7.774,20.43 C6.953,19.555 5.795,19 4.5,19 C2.015,19 0,21.015 0,23.5 C0,25.985 2.015,28 4.5,28 C4.715,28 4.92,27.966 5.127,27.937 C5.05,28.615 5,29.301 5,30 C5,39.941 13.059,48 23,48 C32.941,48 41,39.941 41,30 C41,26.228 39.816,22.744 37.832,19.854 L55.62,5.785 L55.609,5.772 C55.842,5.59 56,5.318 56,5 L56,5 Z M5.519,25.779 C5.207,25.919 4.863,26 4.5,26 C3.119,26 2,24.881 2,23.5 C2,22.119 3.119,21 4.5,21 C5.471,21 6.303,21.559 6.717,22.367 C6.208,23.45 5.805,24.591 5.519,25.779 L5.519,25.779 Z M35.85,18.871 L35.859,18.884 C35.628,19.068 35.469,19.338 35.469,19.656 C35.469,19.892 35.563,20.101 35.7,20.272 L35.689,20.281 C37.757,22.977 39,26.34 39,30 C39,38.837 31.837,46 23,46 C14.163,46 7,38.837 7,30 C7,23.129 11.34,17.286 17.421,15.02 L17.429,14.999 L47.643,4.013 L49.646,7.96 L35.85,18.871 L35.85,18.871 Z M51.246,6.694 L49.536,3.324 L52.504,2.244 L53.742,4.72 L51.246,6.694 L51.246,6.694 Z M23,22 C18.582,22 15,25.582 15,30 C15,34.418 18.582,38 23,38 C27.418,38 31,34.418 31,30 C31,25.582 27.418,22 23,22 L23,22 Z M23,36 C19.687,36 17,33.313 17,30 C17,26.687 19.687,24 23,24 C26.313,24 29,26.687 29,30 C29,33.313 26.313,36 23,36 L23,36 Z" id="Shape"></path>
                </g>
            </g>
        </g>
    </g>
</svg>