<?xml version="1.0" encoding="iso-8859-1"?>
<!-- Generator: Adobe Illustrator 16.0.4, SVG Export Plug-In . SVG Version: 6.00 Build 0)  -->
<!DOCTYPE svg PUBLIC "-//W3C//DTD SVG 1.1//EN" "http://www.w3.org/Graphics/SVG/1.1/DTD/svg11.dtd">
<svg version="1.1" id="Layer_1" xmlns="http://www.w3.org/2000/svg" xmlns:xlink="http://www.w3.org/1999/xlink" x="0px" y="0px"
	 width="44px" height="36px" viewBox="0 0 44 36" style="enable-background:new 0 0 44 36;" xml:space="preserve">
<g id="_x31_160-whistle_x40_2x.png">
	<g>
		<path d="M44,4c0-0.205-0.077-0.386-0.184-0.544l0.016-0.011l-2-3l-0.016,0.01C41.638,0.188,41.347,0,41,0
			c-0.1,0-0.189,0.029-0.279,0.057l-0.005-0.016L13.747,8.666l0.005,0.015c-2.699,0.864-5.049,2.509-6.761,4.688
			C6.259,12.536,5.197,12,4,12c-2.209,0-4,1.791-4,4s1.791,4,4,4c0.056,0,0.106-0.014,0.161-0.017C4.066,20.644,4,21.313,4,22
			c0,7.732,6.268,14,14,14s14-6.268,14-14c0-2.445-0.672-4.715-1.777-6.712L43.618,4.786l-0.01-0.012C43.841,4.591,44,4.319,44,4z
			 M4.615,17.894C4.42,17.957,4.216,18,4,18c-1.104,0-2-0.896-2-2s0.896-2,2-2c0.797,0,1.479,0.47,1.801,1.145
			C5.313,16.009,4.911,16.928,4.615,17.894z M28.351,14.214l0.003,0.003c-0.233,0.183-0.394,0.454-0.394,0.772
			c0,0.22,0.086,0.413,0.207,0.578l-0.031,0.027C29.311,17.449,30,19.642,30,22c0,6.628-5.373,12-12,12S6,28.628,6,22
			c0-5.485,3.685-10.101,8.71-11.532l6.5-2.083c-0.004-0.001-0.008-0.002-0.011-0.002l13.067-4.18l2.353,3.528L28.351,14.214z
			 M38.198,6.494l-1.95-2.925l4.338-1.388l1.068,1.603L38.198,6.494z M18,16c-3.313,0-6,2.687-6,6s2.687,6,6,6s6-2.687,6-6
			S21.313,16,18,16z M18,26c-2.209,0-4-1.791-4-4s1.791-4,4-4s4,1.791,4,4S20.209,26,18,26z"/>
	</g>
</g>
<g>
</g>
<g>
</g>
<g>
</g>
<g>
</g>
<g>
</g>
<g>
</g>
<g>
</g>
<g>
</g>
<g>
</g>
<g>
</g>
<g>
</g>
<g>
</g>
<g>
</g>
<g>
</g>
<g>
</g>
</svg>
