<?xml version="1.0" encoding="iso-8859-1"?>
<!-- Generator: Adobe Illustrator 16.0.4, SVG Export Plug-In . SVG Version: 6.00 Build 0)  -->
<!DOCTYPE svg PUBLIC "-//W3C//DTD SVG 1.1//EN" "http://www.w3.org/Graphics/SVG/1.1/DTD/svg11.dtd">
<svg version="1.1" id="Layer_1" xmlns="http://www.w3.org/2000/svg" xmlns:xlink="http://www.w3.org/1999/xlink" x="0px" y="0px"
	 width="56px" height="42.008px" viewBox="0 0 56 42.008" style="enable-background:new 0 0 56 42.008;" xml:space="preserve">
<g id="_x39_37-wifi-signal_x40_2x.png">
	<g>
		<path d="M31.895,37.553C31.843,37.449,30.588,35,28,35s-3.843,2.449-3.895,2.553l0.013,0.007C24.049,37.696,24,37.844,24,38.008
			c0,0.276,0.112,0.526,0.293,0.707l3,3c0.181,0.181,0.431,0.293,0.707,0.293s0.526-0.112,0.707-0.293l3-3
			C31.888,38.534,32,38.284,32,38.008c0-0.164-0.049-0.312-0.118-0.448L31.895,37.553z M28,39.594l-1.704-1.704
			C26.649,37.48,27.223,37,28,37s1.352,0.481,1.705,0.889L28,39.594z M39.781,29.376C39.605,29.156,35.396,24,28,24
			s-11.605,5.156-11.781,5.376l0.016,0.012C16.095,29.56,16,29.77,16,30.008c0,0.276,0.112,0.526,0.293,0.707l3,3
			c0.181,0.181,0.431,0.293,0.707,0.293c0.328,0,0.606-0.169,0.788-0.413l0.011,0.008C20.825,33.566,23.582,30,28,30
			s7.175,3.566,7.2,3.601l0.01-0.008c0.183,0.245,0.461,0.415,0.79,0.415c0.276,0,0.526-0.112,0.707-0.293l3-3
			C39.888,30.534,40,30.284,40,30.008c0-0.238-0.095-0.448-0.234-0.62L39.781,29.376z M36.045,31.549C34.783,30.269,31.99,28,28,28
			s-6.783,2.269-8.045,3.549l-1.567-1.567C19.684,28.713,23.034,26,28,26c4.94,0,8.308,2.716,9.61,3.983L36.045,31.549z
			 M47.789,21.387C47.491,21.003,40.347,12,28,12S8.509,21.003,8.211,21.387l0.016,0.012C8.093,21.569,8,21.774,8,22.008
			c0,0.276,0.112,0.526,0.293,0.707l3,3c0.181,0.181,0.431,0.293,0.707,0.293c0.329,0,0.606-0.169,0.789-0.414l0.01,0.008
			C12.856,25.525,18.641,18,28,18s15.144,7.525,15.201,7.602l0.01-0.008c0.183,0.245,0.46,0.414,0.789,0.414
			c0.276,0,0.526-0.112,0.707-0.293l3-3C47.888,22.534,48,22.284,48,22.008c0-0.233-0.093-0.438-0.227-0.609L47.789,21.387z
			 M44.068,23.525C42.135,21.367,36.476,16,28,16s-14.135,5.367-16.068,7.525l-1.566-1.566C12.208,19.962,18.503,14,28,14
			s15.792,5.962,17.635,7.959L44.068,23.525z M55.833,13.487l0.019-0.011C55.513,12.926,47.337,0,28,0S0.487,12.926,0.148,13.477
			l0.019,0.011C0.07,13.642,0,13.812,0,14.008c0,0.276,0.112,0.526,0.293,0.707l3,3C3.474,17.896,3.724,18.008,4,18.008
			c0.35,0,0.642-0.189,0.82-0.461l0.012,0.008C4.909,17.439,12.712,6,28,6c15.247,0,23.091,11.44,23.169,11.556l0.012-0.008
			c0.179,0.271,0.471,0.46,0.819,0.46c0.276,0,0.526-0.111,0.707-0.293l3-3C55.888,14.534,56,14.284,56,14.008
			C56,13.812,55.93,13.642,55.833,13.487z M52.115,15.479C49.783,12.537,41.826,4,28,4S6.217,12.537,3.885,15.479l-1.59-1.59
			c0.795-1.077,2.674-3.369,5.751-5.641C11.907,5.397,18.503,2,28,2s16.093,3.397,19.954,6.248c3.077,2.271,4.956,4.563,5.751,5.641
			L52.115,15.479z"/>
	</g>
</g>
<g>
</g>
<g>
</g>
<g>
</g>
<g>
</g>
<g>
</g>
<g>
</g>
<g>
</g>
<g>
</g>
<g>
</g>
<g>
</g>
<g>
</g>
<g>
</g>
<g>
</g>
<g>
</g>
<g>
</g>
</svg>
