<?xml version="1.0" encoding="UTF-8" standalone="no"?>
<svg width="58px" height="58px" viewBox="0 0 58 58" version="1.1" xmlns="http://www.w3.org/2000/svg" xmlns:xlink="http://www.w3.org/1999/xlink" xmlns:sketch="http://www.bohemiancoding.com/sketch/ns">
    <!-- Generator: Sketch 3.0.4 (8053) - http://www.bohemiancoding.com/sketch -->
    <title>1284-windows</title>
    <desc>Created with Sketch.</desc>
    <defs></defs>
    <g id="Page-1" stroke="none" stroke-width="1" fill="none" fill-rule="evenodd" sketch:type="MSPage">
        <g id="Glyphish-8-Icons" sketch:type="MSArtboardGroup" transform="translate(-308.000000, -1747.000000)" fill="#000000">
            <g id="1284-windows" sketch:type="MSLayerGroup" transform="translate(308.036996, 1747.860499)">
                <g id="_x31_284-windows_x40_2x.png" sketch:type="MSShapeGroup">
                    <path d="M13.998,38.15 L26.011,39.797 L26.011,29.001 L14.013,29.001 L14.013,27.007 L26.012,27.007 L26.012,16.202 L13.998,17.85 L13.998,38.15 L13.998,38.15 Z M27.987,40.069 L41.998,41.991 L41.998,29.001 L27.987,29.001 L27.987,40.069 L27.987,40.069 Z M27.987,27.007 L41.998,27.007 L41.998,14.01 L27.987,15.932 L27.987,27.007 L27.987,27.007 Z M28,0 C12.536,0 0,12.536 0,28 C0,43.464 12.536,56 28,56 C43.464,56 56,43.464 56,28 C56,12.536 43.464,0 28,0 L28,0 Z M28,54 C13.641,54 2,42.359 2,28 C2,13.641 13.641,2 28,2 C42.359,2 54,13.641 54,28 C54,42.359 42.359,54 28,54 L28,54 Z" id="Shape"></path>
                </g>
            </g>
        </g>
    </g>
</svg>