<?xml version="1.0" encoding="iso-8859-1"?>
<!-- Generator: Adobe Illustrator 16.0.4, SVG Export Plug-In . SVG Version: 6.00 Build 0)  -->
<!DOCTYPE svg PUBLIC "-//W3C//DTD SVG 1.1//EN" "http://www.w3.org/Graphics/SVG/1.1/DTD/svg11.dtd">
<svg version="1.1" id="Layer_1" xmlns="http://www.w3.org/2000/svg" xmlns:xlink="http://www.w3.org/1999/xlink" x="0px" y="0px"
	 width="20px" height="56px" viewBox="0 0 20 56" style="enable-background:new 0 0 20 56;" xml:space="preserve">
<g id="_x39_93-wine-bottle_x40_2x.png">
	<g>
		<path d="M14,12.11V1c0-0.553-0.447-1-1-1H7C6.447,0,6,0.447,6,1v11.11C4.068,12.452,0,13.896,0,20v32c0,2.209,1.791,4,4,4h12
			c2.209,0,4-1.791,4-4V20C20,13.896,15.932,12.452,14,12.11z M8,2h4v2H8V2z M18,52c0,1.104-0.896,2-2,2H4c-1.104,0-2-0.896-2-2v-8
			h16V52z M18,42H2V28h16V42z M18,26H2v-6c0-6,5-6,5-6c0.553,0,1-0.447,1-1V6h4v7c0,0.553,0.447,1,1,1c0,0,5,0,5,6V26z"/>
	</g>
</g>
<g>
</g>
<g>
</g>
<g>
</g>
<g>
</g>
<g>
</g>
<g>
</g>
<g>
</g>
<g>
</g>
<g>
</g>
<g>
</g>
<g>
</g>
<g>
</g>
<g>
</g>
<g>
</g>
<g>
</g>
</svg>
