<?xml version="1.0" encoding="iso-8859-1"?>
<!-- Generator: Adobe Illustrator 16.0.4, SVG Export Plug-In . SVG Version: 6.00 Build 0)  -->
<!DOCTYPE svg PUBLIC "-//W3C//DTD SVG 1.1//EN" "http://www.w3.org/Graphics/SVG/1.1/DTD/svg11.dtd">
<svg version="1.1" id="Layer_1" xmlns="http://www.w3.org/2000/svg" xmlns:xlink="http://www.w3.org/1999/xlink" x="0px" y="0px"
	 width="16px" height="44px" viewBox="0 0 16 44" style="enable-background:new 0 0 16 44;" xml:space="preserve">
<g id="_x39_93-wine-bottle-toolbar_x40_2x.png">
	<g>
		<path d="M12,10.17V1c0-0.552-0.447-1-1-1H5C4.447,0,4,0.448,4,1v9.17C2.542,10.579,0,12.003,0,17v23c0,2.209,1.791,4,4,4h8
			c2.209,0,4-1.791,4-4V17C16,12.003,13.458,10.579,12,10.17z M6,2h4v2H6V2z M14,40c0,1.104-0.896,2-2,2H4c-1.104,0-2-0.896-2-2v-4
			h12V40z M14,34H2V22h12V34z M14,20H2v-3c0-5,3-5,3-5c0.553,0,1-0.447,1-1V6h4v5c0,0.553,0.447,1,1,1c0,0,3,0,3,5V20z"/>
	</g>
</g>
<g>
</g>
<g>
</g>
<g>
</g>
<g>
</g>
<g>
</g>
<g>
</g>
<g>
</g>
<g>
</g>
<g>
</g>
<g>
</g>
<g>
</g>
<g>
</g>
<g>
</g>
<g>
</g>
<g>
</g>
</svg>
