<?xml version="1.0" encoding="iso-8859-1"?>
<!-- Generator: Adobe Illustrator 16.0.4, SVG Export Plug-In . SVG Version: 6.00 Build 0)  -->
<!DOCTYPE svg PUBLIC "-//W3C//DTD SVG 1.1//EN" "http://www.w3.org/Graphics/SVG/1.1/DTD/svg11.dtd">
<svg version="1.1" id="Layer_1" xmlns="http://www.w3.org/2000/svg" xmlns:xlink="http://www.w3.org/1999/xlink" x="0px" y="0px"
	 width="32px" height="56px" viewBox="0 0 32 56" style="enable-background:new 0 0 32 56;" xml:space="preserve">
<g id="_x39_56-wine-glass_x40_2x.png">
	<g>
		<path d="M32,16V1c0-0.553-0.447-1-1-1H1C0.447,0,0,0.447,0,1v15c0,8.499,6.632,15.431,15,15.949V54H1c-0.553,0-1,0.447-1,1
			s0.447,1,1,1h14h2h14c0.553,0,1-0.447,1-1s-0.447-1-1-1H17V31.949C25.368,31.431,32,24.499,32,16z M2,2h28v4.941
			c-1.898,0.597-8.038,2.174-13.648-0.222C10.013,3.834,4.488,5.217,2,6.142V2z M16,30C8.268,30,2,23.732,2,16V8.293
			c1.782-0.768,7.332-2.667,13.648,0.3C19.24,10.107,24.701,10.527,30,8.999V16C30,23.732,23.732,30,16,30z"/>
	</g>
</g>
<g>
</g>
<g>
</g>
<g>
</g>
<g>
</g>
<g>
</g>
<g>
</g>
<g>
</g>
<g>
</g>
<g>
</g>
<g>
</g>
<g>
</g>
<g>
</g>
<g>
</g>
<g>
</g>
<g>
</g>
</svg>
