<?xml version="1.0" encoding="iso-8859-1"?>
<!-- Generator: Adobe Illustrator 16.0.4, SVG Export Plug-In . SVG Version: 6.00 Build 0)  -->
<!DOCTYPE svg PUBLIC "-//W3C//DTD SVG 1.1//EN" "http://www.w3.org/Graphics/SVG/1.1/DTD/svg11.dtd">
<svg version="1.1" id="Layer_1" xmlns="http://www.w3.org/2000/svg" xmlns:xlink="http://www.w3.org/1999/xlink" x="0px" y="0px"
	 width="44px" height="44px" viewBox="0 0 44 44" style="enable-background:new 0 0 44 44;" xml:space="preserve">
<g id="_x31_285-wordpress_x40_2x.png">
	<g>
		<path d="M22,4.996C12.609,4.996,4.996,12.609,4.996,22c0,9.392,7.613,17.005,17.004,17.005S39.004,31.392,39.004,22
			C39.004,12.609,31.391,4.996,22,4.996z M7.407,22c0-2.116,0.454-4.125,1.264-5.939l6.961,19.072
			C10.763,32.769,7.407,27.775,7.407,22z M22,36.594c-1.433,0-2.815-0.21-4.123-0.595l4.379-12.723l4.486,12.289
			c0.029,0.072,0.065,0.139,0.104,0.201C25.329,36.301,23.699,36.594,22,36.594z M24.011,15.157c0.878-0.046,1.67-0.139,1.67-0.139
			c0.787-0.093,0.694-1.248-0.093-1.202c0,0-2.364,0.186-3.89,0.186c-1.434,0-3.844-0.186-3.844-0.186
			c-0.787-0.046-0.879,1.156-0.092,1.202c0,0,0.744,0.093,1.531,0.139l2.273,6.229l-3.194,9.578l-5.314-15.808
			c0.879-0.046,1.67-0.139,1.67-0.139c0.786-0.093,0.693-1.248-0.093-1.202c0,0-2.363,0.186-3.889,0.186
			c-0.274,0-0.597-0.007-0.939-0.018C12.416,10.022,16.901,7.406,22,7.406c3.799,0,7.258,1.453,9.854,3.832
			c-0.063-0.004-0.124-0.012-0.189-0.012c-1.434,0-2.451,1.248-2.451,2.59c0,1.202,0.694,2.22,1.434,3.423
			c0.555,0.972,1.203,2.22,1.203,4.024c0,1.249-0.48,2.698-1.11,4.718l-1.456,4.863L24.011,15.157z M29.337,34.613l4.457-12.887
			c0.833-2.082,1.11-3.747,1.11-5.228c0-0.537-0.036-1.035-0.098-1.5c1.139,2.078,1.788,4.464,1.788,7.001
			C36.593,27.384,33.675,32.084,29.337,34.613z M22,0C9.85,0,0,9.85,0,22s9.85,22,22,22s22-9.85,22-22S34.15,0,22,0z M22,42
			C10.954,42,2,33.046,2,22S10.954,2,22,2s20,8.954,20,20S33.046,42,22,42z"/>
	</g>
</g>
<g>
</g>
<g>
</g>
<g>
</g>
<g>
</g>
<g>
</g>
<g>
</g>
<g>
</g>
<g>
</g>
<g>
</g>
<g>
</g>
<g>
</g>
<g>
</g>
<g>
</g>
<g>
</g>
<g>
</g>
</svg>
