<?xml version="1.0" encoding="UTF-8" standalone="no"?>
<svg width="58px" height="58px" viewBox="0 0 58 58" version="1.1" xmlns="http://www.w3.org/2000/svg" xmlns:xlink="http://www.w3.org/1999/xlink" xmlns:sketch="http://www.bohemiancoding.com/sketch/ns">
    <!-- Generator: Sketch 3.0.4 (8053) - http://www.bohemiancoding.com/sketch -->
    <title>1285-wordpress</title>
    <desc>Created with Sketch.</desc>
    <defs></defs>
    <g id="Page-1" stroke="none" stroke-width="1" fill="none" fill-rule="evenodd" sketch:type="MSPage">
        <g id="Glyphish-8-Icons" sketch:type="MSArtboardGroup" transform="translate(-404.000000, -1747.000000)" fill="#000000">
            <g id="1285-wordpress" sketch:type="MSLayerGroup" transform="translate(404.036996, 1747.860499)">
                <g id="_x31_285-wordpress_x40_2x.png" sketch:type="MSShapeGroup">
                    <path d="M28,0 C12.536,0 0,12.536 0,28 C0,43.464 12.536,56 28,56 C43.464,56 56,43.464 56,28 C56,12.536 43.464,0 28,0 L28,0 Z M28,54 C13.641,54 2,42.359 2,28 C2,13.641 13.641,2 28,2 C42.359,2 54,13.641 54,28 C54,42.359 42.359,54 28,54 L28,54 Z M28,6 C15.85,6 6,15.85 6,28 C6,40.15 15.85,50 28,50 C40.15,50 50,40.15 50,28 C50,15.85 40.15,6 28,6 L28,6 Z M9.119,28 C9.119,25.262 9.706,22.664 10.754,20.315 L19.76,44.991 C13.462,41.932 9.119,35.473 9.119,28 L9.119,28 Z M28,46.881 C26.146,46.881 24.358,46.61 22.666,46.112 L28.332,29.651 L34.135,45.55 C34.173,45.644 34.22,45.73 34.27,45.81 C32.307,46.502 30.199,46.881 28,46.881 L28,46.881 Z M30.602,19.147 C31.738,19.087 32.763,18.967 32.763,18.967 C33.781,18.847 33.66,17.352 32.643,17.411 C32.643,17.411 29.584,17.651 27.61,17.651 C25.755,17.651 22.637,17.411 22.637,17.411 C21.619,17.351 21.5,18.907 22.517,18.967 C22.517,18.967 23.48,19.087 24.497,19.147 L27.438,27.207 L23.306,39.599 L16.431,19.148 C17.569,19.088 18.592,18.968 18.592,18.968 C19.609,18.848 19.488,17.353 18.471,17.412 C18.471,17.412 15.413,17.652 13.439,17.652 C13.085,17.652 12.667,17.642 12.224,17.629 C15.6,12.504 21.403,9.119 27.999,9.119 C32.914,9.119 37.39,10.998 40.749,14.076 C40.667,14.071 40.588,14.06 40.504,14.06 C38.65,14.06 37.334,15.676 37.334,17.412 C37.334,18.968 38.232,20.284 39.188,21.84 C39.906,23.098 40.745,24.713 40.745,27.047 C40.745,28.663 40.123,30.538 39.308,33.151 L37.424,39.443 L30.602,19.147 L30.602,19.147 Z M37.492,44.319 L43.259,27.645 C44.336,24.952 44.695,22.798 44.695,20.882 C44.695,20.187 44.649,19.542 44.568,18.941 C46.042,21.63 46.88,24.716 46.88,28 C46.88,34.965 43.105,41.046 37.492,44.319 L37.492,44.319 Z" id="Shape"></path>
                </g>
            </g>
        </g>
    </g>
</svg>