<?xml version="1.0" encoding="UTF-8" standalone="no"?>
<svg width="58px" height="58px" viewBox="0 0 58 58" version="1.1" xmlns="http://www.w3.org/2000/svg" xmlns:xlink="http://www.w3.org/1999/xlink" xmlns:sketch="http://www.bohemiancoding.com/sketch/ns">
    <!-- Generator: Sketch 3.0.4 (8053) - http://www.bohemiancoding.com/sketch -->
    <title>1190-worm</title>
    <desc>Created with Sketch.</desc>
    <defs></defs>
    <g id="Page-1" stroke="none" stroke-width="1" fill="none" fill-rule="evenodd" sketch:type="MSPage">
        <g id="Glyphish-8-Icons" sketch:type="MSArtboardGroup" transform="translate(-884.000000, -787.000000)" fill="#000000">
            <g id="1190-worm" sketch:type="MSLayerGroup" transform="translate(884.036996, 787.860499)">
                <g id="_x31_190-worm_x40_2x.png" sketch:type="MSShapeGroup">
                    <path d="M54.568,1.465 C54.243,1.14 53.877,0.89 53.496,0.673 C53.129,0.263 52.603,0 52.01,0 C51.859,0 51.713,0.021 51.571,0.052 C51.391,0.032 51.211,0 51.03,0 C49.75,0 48.469,0.488 47.492,1.465 C44.332,4.623 42.832,5.426 39.202,6.883 C38.107,7.322 36.866,7.82 35.49,8.432 C25.201,13.001 21.694,21.629 25.503,32.779 C23.542,33.355 24.243,34.59 24.243,34.59 C24.243,34.59 24.687,37.337 23.188,38.574 C21.912,39.626 21.614,41.239 22.678,42.228 C18.947,44.548 12.426,46 5.003,46 C2.24,46 0,48.238 0,51 C0,53.762 2.24,56 5.003,56 C10.545,56 22.966,55.236 30.387,48.981 C30.383,48.969 30.376,48.957 30.372,48.945 C30.538,48.971 30.705,48.986 30.875,48.986 C31.46,48.986 32.066,48.831 32.681,48.534 C38.062,43.421 37.954,37.577 37.954,37.577 C37.954,37.577 38.635,34.769 36.055,33.178 C35.859,32.241 35.586,31.267 35.202,30.244 C32.335,22.602 34.868,19.65 39.554,17.569 C40.764,17.031 41.866,16.59 42.931,16.162 C46.971,14.541 49.96,13.141 54.569,8.536 C56.521,6.583 56.521,3.417 54.568,1.465 L54.568,1.465 Z M26.719,19.852 C28.822,20.557 30.701,21.55 32.239,22.551 C31.775,24.673 31.995,27.391 33.329,30.947 C33.505,31.416 33.647,31.869 33.774,32.315 C32.755,32.084 31.741,32 30.803,32 C29.449,32 28.271,32.175 27.462,32.335 C25.802,27.579 25.562,23.392 26.719,19.852 L26.719,19.852 Z M5.003,54 C4.385,54 3.811,53.812 3.332,53.49 C3.744,53.124 4.01,52.596 4.01,52 C4.01,50.954 3.204,50.105 2.181,50.018 C2.59,48.848 3.694,48 5.003,48 C8.687,48 12.135,47.654 15.191,47.03 C16.272,48.839 16.947,50.882 17.351,52.748 C13.986,53.509 9.935,54 5.003,54 L5.003,54 Z M19.312,52.259 C18.911,50.426 18.256,48.422 17.242,46.56 C20.256,45.767 22.768,44.668 24.6,43.334 C25.652,43.965 26.371,44.74 27.408,46.542 C27.731,47.104 28.084,47.556 28.455,47.919 C26.441,49.459 23.523,51.078 19.312,52.259 L19.312,52.259 Z M34.084,34.427 C36.105,35.097 36.029,36.573 35.902,37.176 C35.865,37.327 35.854,37.455 35.857,37.61 C35.858,37.804 35.836,42.568 31.436,46.928 C31.229,47.003 31.038,47.042 30.874,47.042 C30.175,47.042 29.561,46.155 29.257,45.627 C27.682,42.891 26.589,42.024 24.3,40.954 C24.129,40.875 24.122,40.824 24.119,40.808 C24.099,40.669 24.208,40.333 24.581,40.026 C26.583,38.376 26.456,35.514 26.352,34.574 C26.442,34.555 26.548,34.536 26.672,34.518 C26.786,34.501 26.899,34.476 27.008,34.443 C27.019,34.44 28.699,33.944 30.801,33.944 C32.013,33.943 33.117,34.105 34.084,34.427 L34.084,34.427 Z M42.185,14.306 L42.133,14.327 C41.068,14.755 39.965,15.198 38.74,15.742 C36.472,16.749 34.163,18.165 32.927,20.601 C31.378,19.626 29.532,18.677 27.475,17.977 C29.101,14.748 32.049,12.148 36.303,10.258 C37.283,9.822 38.175,9.456 39.018,9.114 C39.889,11.012 41.208,12.754 42.501,14.176 C42.394,14.22 42.294,14.263 42.185,14.306 L42.185,14.306 Z M53.153,7.121 C49.709,10.563 47.314,12.062 44.464,13.342 C43.15,11.972 41.741,10.228 40.868,8.361 C44.009,7.055 45.766,6.019 48.908,2.88 C49.228,2.56 49.613,2.331 50.028,2.184 C50.121,3.2 50.968,4 52.01,4 C52.61,4 53.142,3.73 53.508,3.312 C54.304,4.48 54.188,6.087 53.153,7.121 L53.153,7.121 Z" id="Shape"></path>
                </g>
            </g>
        </g>
    </g>
</svg>