<?xml version="1.0" encoding="iso-8859-1"?>
<!-- Generator: Adobe Illustrator 16.0.4, SVG Export Plug-In . SVG Version: 6.00 Build 0)  -->
<!DOCTYPE svg PUBLIC "-//W3C//DTD SVG 1.1//EN" "http://www.w3.org/Graphics/SVG/1.1/DTD/svg11.dtd">
<svg version="1.1" id="Layer_1" xmlns="http://www.w3.org/2000/svg" xmlns:xlink="http://www.w3.org/1999/xlink" x="0px" y="0px"
	 width="44.011px" height="44px" viewBox="0 0 44.011 44" style="enable-background:new 0 0 44.011 44;" xml:space="preserve">
<g id="_x31_190-worm_x40_2x.png">
	<g>
		<path d="M42.86,1.15C42.093,0.384,41.087,0,40.081,0c-1.005,0-2.011,0.384-2.778,1.15c-2.482,2.481-3.66,3.112-6.512,4.257
			c-0.86,0.346-1.835,0.736-2.916,1.217c-8.036,3.571-10.805,10.294-7.894,18.983c-1.776,0.455-1.196,1.526-1.196,1.526
			s0.362,2.265-0.856,3.284c-1.017,0.85-1.265,2.143-0.46,2.962c-2.978,1.704-7.928,2.763-13.539,2.763
			c-2.17,0-3.93,1.759-3.93,3.929S1.76,44,3.93,44c4.233,0,13.569-0.58,19.44-5.135C23.632,38.953,23.9,39,24.176,39
			c0.476,0,0.968-0.127,1.468-0.372c4.373-4.214,4.286-9.031,4.286-9.031s0.563-2.376-1.639-3.678
			c-0.152-0.69-0.361-1.407-0.642-2.155c-2.252-6.005-0.263-8.324,3.418-9.959c0.95-0.423,1.815-0.77,2.652-1.105
			c3.173-1.274,5.521-2.375,9.141-5.993C44.395,5.172,44.395,2.685,42.86,1.15z M21.309,16.075c1.05,0.387,2.271,0.923,3.549,1.603
			c-0.397,1.874-0.086,4.11,0.919,6.788c0.088,0.234,0.156,0.465,0.228,0.696C25.355,25.052,24.717,25,24.117,25
			c-0.828,0-1.573,0.082-2.176,0.179C20.967,22.348,20.438,19.105,21.309,16.075z M3.93,42c-0.067,0-0.132-0.013-0.197-0.02
			c0.169-0.29,0.274-0.62,0.274-0.98c0-1.001-0.737-1.822-1.696-1.97c0.343-0.532,0.939-0.888,1.619-0.888
			c2.944,0,5.494-0.252,7.691-0.67c0.459,1.045,0.869,2.285,1.131,3.708C9.287,41.865,5.974,42,3.93,42z M14.694,40.732
			c-0.26-1.397-0.648-2.633-1.091-3.704c2.471-0.651,4.371-1.534,5.756-2.498c0.707,0.493,1.253,1.143,1.998,2.455
			c0.124,0.219,0.26,0.386,0.393,0.567C19.705,39.044,17.232,40.072,14.694,40.732z M26.72,27.387
			c1.241,0.418,1.368,1.2,1.265,1.743c-0.052,0.181-0.056,0.3-0.055,0.487c0,0.16-0.032,3.88-3.422,7.321
			c-0.123,0.041-0.235,0.062-0.332,0.062c-0.444,0-0.866-0.628-1.079-1.002c-1.308-2.305-2.276-3.077-4.016-3.918
			c0.033-0.04,0.076-0.084,0.131-0.13c1.553-1.298,1.669-3.409,1.612-4.486c0.088-0.015,0.179-0.036,0.262-0.062
			C21.1,27.399,22.441,27,24.117,27C25.079,27,25.955,27.13,26.72,27.387z M32.943,10.855c-0.844,0.339-1.717,0.689-2.688,1.121
			c-2.252,1.001-3.798,2.254-4.681,3.815c-1.274-0.664-2.485-1.192-3.541-1.582c1.144-2.217,3.217-4.23,6.655-5.758
			c0.795-0.354,1.521-0.651,2.213-0.931c0.59,0.974,1.347,2.064,2.302,3.228C33.114,10.784,33.033,10.819,32.943,10.855z
			 M41.445,5.292c-2.504,2.505-4.302,3.685-6.329,4.636c-0.977-1.144-1.747-2.221-2.345-3.179c2.179-0.942,3.603-1.841,5.945-4.184
			c0.095-0.095,0.216-0.146,0.325-0.218C39.207,3.286,40.021,4,41.007,4c0.355,0,0.674-0.116,0.963-0.281
			c0.008,0.072,0.041,0.137,0.041,0.21C42.011,4.443,41.81,4.928,41.445,5.292z"/>
	</g>
</g>
<g>
</g>
<g>
</g>
<g>
</g>
<g>
</g>
<g>
</g>
<g>
</g>
<g>
</g>
<g>
</g>
<g>
</g>
<g>
</g>
<g>
</g>
<g>
</g>
<g>
</g>
<g>
</g>
<g>
</g>
</svg>
