<?xml version="1.0" encoding="iso-8859-1"?>
<!-- Generator: Adobe Illustrator 16.0.4, SVG Export Plug-In . SVG Version: 6.00 Build 0)  -->
<!DOCTYPE svg PUBLIC "-//W3C//DTD SVG 1.1//EN" "http://www.w3.org/Graphics/SVG/1.1/DTD/svg11.dtd">
<svg version="1.1" id="Layer_1" xmlns="http://www.w3.org/2000/svg" xmlns:xlink="http://www.w3.org/1999/xlink" x="0px" y="0px"
	 width="44px" height="44.01px" viewBox="0 0 44 44.01" style="enable-background:new 0 0 44 44.01;" xml:space="preserve">
<g id="_x37_42-wrench-toolbar_x40_2x.png">
	<g>
		<path d="M42.611,8.5l-1.06,1.061l-0.009-0.008l-5,5l-0.011-0.011c-0.903,0.9-2.15,1.459-3.527,1.459
			c-2.759,0-4.995-2.237-4.995-4.996c0-1.377,0.558-2.623,1.459-3.526l-0.012-0.012l5.001-5l-0.009-0.008l1.06-1.059
			C33.524,0.474,31.398,0,29.315,0c-0.001,0-0.001,0-0.001,0c-3.343,0-6.563,1.175-8.855,3.467c-3.733,3.733-4.487,9.921-2.047,15.1
			L1.827,33.704C0.703,34.795,0,36.316,0,38.006c0,3.316,2.688,6.004,6.005,6.004c1.691,0,3.213-0.705,4.305-1.83l15.135-16.582
			c1.998,0.941,4.143,1.422,6.243,1.422c3.343,0,6.563-1.175,8.855-3.467C44.265,19.83,45.025,13.669,42.611,8.5z M8.829,40.838
			l-0.003-0.003c-0.724,0.721-1.721,1.167-2.822,1.167c-2.207,0-3.996-1.789-3.996-3.996c0-1.102,0.446-2.099,1.167-2.821
			l-0.003-0.003l16.214-14.854c0.547,0.839,1.182,1.64,1.92,2.378c0.737,0.737,1.535,1.377,2.374,1.924L8.829,40.838z
			 M39.129,22.139c-1.858,1.857-4.501,2.881-7.441,2.881c-3.33,0-6.599-1.359-8.968-3.729c-4.596-4.597-4.991-12.265-0.847-16.409
			C23.73,3.023,26.373,2,29.314,2h0.001c0.847,0,1.688,0.097,2.512,0.269l-3.784,3.784l0.01,0.01l0,0l1.396,1.396l-1.396-1.396
			C26.787,7.329,26,9.072,26,11.005c0,3.869,3.137,7.005,7.005,7.005c1.934,0,3.678-0.786,4.942-2.053l0.011,0.01l3.748-3.749
			C42.448,15.842,41.635,19.632,39.129,22.139z M6.003,37.001c-0.555,0-1.006,0.45-1.006,1.006s0.451,1.006,1.006,1.006
			c0.556,0,1.006-0.45,1.006-1.006S6.559,37.001,6.003,37.001z"/>
	</g>
</g>
<g>
</g>
<g>
</g>
<g>
</g>
<g>
</g>
<g>
</g>
<g>
</g>
<g>
</g>
<g>
</g>
<g>
</g>
<g>
</g>
<g>
</g>
<g>
</g>
<g>
</g>
<g>
</g>
<g>
</g>
</svg>
