<?xml version="1.0" encoding="iso-8859-1"?>
<!-- Generator: Adobe Illustrator 16.0.4, SVG Export Plug-In . SVG Version: 6.00 Build 0)  -->
<!DOCTYPE svg PUBLIC "-//W3C//DTD SVG 1.1//EN" "http://www.w3.org/Graphics/SVG/1.1/DTD/svg11.dtd">
<svg version="1.1" id="Layer_1" xmlns="http://www.w3.org/2000/svg" xmlns:xlink="http://www.w3.org/1999/xlink" x="0px" y="0px"
	 width="56.001px" height="56.002px" viewBox="0 0 56.001 56.002" style="enable-background:new 0 0 56.001 56.002;"
	 xml:space="preserve">
<g id="_x37_42-wrench_x40_2x.png">
	<g>
		<path d="M55.239,12.431l0.012-0.012c-0.034-0.113-0.091-0.221-0.128-0.333c-0.081-0.248-0.158-0.498-0.251-0.743l-0.025,0.025
			c-0.136-0.351-0.248-0.708-0.403-1.052l-7.927,7.926c-2.411,2.412-6.322,2.412-8.733,0c-2.412-2.412-2.412-6.322,0-8.734
			l7.934-7.935c-0.344-0.156-0.7-0.269-1.05-0.405l0.026-0.026c-0.261-0.1-0.526-0.183-0.791-0.269
			c-0.097-0.032-0.188-0.081-0.285-0.11l-0.011,0.01c-5.972-1.831-12.712-0.412-17.419,4.295
			c-5.186,5.186-5.197,11.651-1.885,17.461L2.935,41.812c-0.201,0.165-0.394,0.338-0.578,0.521l-0.014,0.012v0.001
			C0.896,43.793,0,45.793,0,48.002c0,4.419,3.582,8,8,8c2.496,0,4.724-1.144,6.191-2.935L33.474,31.7
			c5.81,3.313,12.275,3.301,17.461-1.885C55.632,25.118,57.054,18.394,55.239,12.431z M12.242,52.246
			C11.157,53.331,9.657,54.002,8,54.002c-3.313,0-6-2.687-6-6c0-1.656,0.672-3.156,1.758-4.242l21.634-19.523
			c0.838,1.198,1.803,2.363,2.906,3.468c1.104,1.104,2.27,2.068,3.468,2.906L12.242,52.246z M49.613,28.228
			c-5.922,5.922-13.827,4.05-19.856-1.979c-6.03-6.029-7.901-13.935-1.979-19.856c3.817-3.816,9.191-5.098,14.149-3.939l-5.6,5.601
			c-3.216,3.215-3.216,8.43,0,11.646s8.43,3.216,11.646,0l5.588-5.589C54.707,19.059,53.422,24.418,49.613,28.228z M8,46.002
			c-1.104,0-2,0.896-2,2s0.896,2,2,2s2-0.896,2-2S9.104,46.002,8,46.002z"/>
	</g>
</g>
<g>
</g>
<g>
</g>
<g>
</g>
<g>
</g>
<g>
</g>
<g>
</g>
<g>
</g>
<g>
</g>
<g>
</g>
<g>
</g>
<g>
</g>
<g>
</g>
<g>
</g>
<g>
</g>
<g>
</g>
</svg>
