<?xml version="1.0" encoding="UTF-8" standalone="no"?>
<svg width="58px" height="58px" viewBox="0 0 58 58" version="1.1" xmlns="http://www.w3.org/2000/svg" xmlns:xlink="http://www.w3.org/1999/xlink" xmlns:sketch="http://www.bohemiancoding.com/sketch/ns">
    <!-- Generator: Sketch 3.0.4 (8053) - http://www.bohemiancoding.com/sketch -->
    <title>1286-yahoo</title>
    <desc>Created with Sketch.</desc>
    <defs></defs>
    <g id="Page-1" stroke="none" stroke-width="1" fill="none" fill-rule="evenodd" sketch:type="MSPage">
        <g id="Glyphish-8-Icons" sketch:type="MSArtboardGroup" transform="translate(-500.000000, -1747.000000)" fill="#000000">
            <g id="1286-yahoo" sketch:type="MSLayerGroup" transform="translate(500.036996, 1747.860499)">
                <g id="_x31_286-yahoo_x40_2x.png" sketch:type="MSShapeGroup">
                    <path d="M36.223,38.36 C35.063,38.36 34.485,39.242 34.485,40.189 C34.485,41.306 35.381,41.879 36.489,41.879 C37.29,41.879 38.164,41.394 38.164,40.077 C38.163,39.021 37.333,38.36 36.223,38.36 L36.223,38.36 Z M28,0 C12.536,0 0,12.536 0,28 C0,43.464 12.536,56 28,56 C43.464,56 56,43.464 56,28 C56,12.536 43.464,0 28,0 L28,0 Z M28,54 C13.641,54 2,42.359 2,28 C2,13.641 13.641,2 28,2 C42.359,2 54,13.641 54,28 C54,42.359 42.359,54 28,54 L28,54 Z M36.179,14.002 L36.181,14 C34.851,14.302 33.652,14.312 32.46,14 C31.411,15.952 27.54,22.268 25.076,26.312 C22.577,22.18 19.619,17.41 17.692,14 C16.164,14.326 15.524,14.347 14,14 C17.026,18.553 21.876,27.225 23.525,30.071 L23.296,42 C23.296,42 24.429,41.822 25.14,41.822 C25.928,41.822 26.91,42 26.91,42 L26.628,30.07 C29.706,24.678 34.787,15.882 36.183,14 C36.181,14.001 36.18,14.002 36.179,14.002 L36.179,14.002 Z M40.455,14.273 L40.453,14.275 L40.453,14.273 C40.453,14.273 40.224,14.241 40.069,14.241 C39.184,14.241 38.307,14.759 38.307,16.081 C37.782,22.714 37.235,29.365 36.336,35.695 L36.332,35.699 C36.333,35.699 36.334,35.699 36.335,35.698 L36.335,35.699 L36.339,35.698 C36.883,35.604 37.305,35.746 37.714,35.91 L37.712,35.907 C38.733,29.478 41.156,19.848 41.776,17.123 C41.867,16.74 42,16.287 42,15.965 C42,14.992 41.381,14.428 40.455,14.273 L40.455,14.273 Z" id="Shape"></path>
                </g>
            </g>
        </g>
    </g>
</svg>