<?xml version="1.0" encoding="iso-8859-1"?>
<!-- Generator: Adobe Illustrator 16.0.4, SVG Export Plug-In . SVG Version: 6.00 Build 0)  -->
<!DOCTYPE svg PUBLIC "-//W3C//DTD SVG 1.1//EN" "http://www.w3.org/Graphics/SVG/1.1/DTD/svg11.dtd">
<svg version="1.1" id="Layer_1" xmlns="http://www.w3.org/2000/svg" xmlns:xlink="http://www.w3.org/1999/xlink" x="0px" y="0px"
	 width="44px" height="44px" viewBox="0 0 44 44" style="enable-background:new 0 0 44 44;" xml:space="preserve">
<g id="_x31_286-yahoo_x40_2x.png">
	<g>
		<path d="M28.461,30.141c-0.911,0-1.366,0.692-1.366,1.438c0,0.877,0.704,1.327,1.574,1.327c0.63,0,1.316-0.381,1.316-1.415
			C29.985,30.66,29.333,30.141,28.461,30.141z M28.427,11.002L28.428,11c-1.045,0.237-1.987,0.245-2.924,0
			c-0.824,1.534-3.865,6.496-5.801,9.674C17.739,17.427,15.415,13.68,13.9,11c-1.2,0.256-1.702,0.272-2.9,0
			c2.378,3.577,6.188,10.391,7.484,12.627L18.305,33c0,0,0.89-0.14,1.448-0.14c0.619,0,1.39,0.14,1.39,0.14l-0.222-9.373
			C23.34,19.391,27.332,12.479,28.429,11C28.428,11.001,28.428,11.001,28.427,11.002z M31.786,11.215L31.786,11.215L31.786,11.215
			c-0.001,0-0.181-0.025-0.303-0.025c-0.695,0-1.385,0.406-1.385,1.445c-0.412,5.212-0.842,10.438-1.548,15.411l-0.004,0.003
			c0.001,0,0.002,0,0.003,0h0.003c0.428-0.073,0.759,0.037,1.08,0.167l-0.001-0.003c0.802-5.051,2.706-12.617,3.193-14.759
			c0.07-0.301,0.175-0.657,0.175-0.91C33,11.78,32.514,11.336,31.786,11.215z M22,0C9.85,0,0,9.85,0,22s9.85,22,22,22s22-9.85,22-22
			S34.15,0,22,0z M22,42C10.954,42,2,33.046,2,22S10.954,2,22,2s20,8.954,20,20S33.046,42,22,42z"/>
	</g>
</g>
<g>
</g>
<g>
</g>
<g>
</g>
<g>
</g>
<g>
</g>
<g>
</g>
<g>
</g>
<g>
</g>
<g>
</g>
<g>
</g>
<g>
</g>
<g>
</g>
<g>
</g>
<g>
</g>
<g>
</g>
</svg>
