<?xml version="1.0" encoding="UTF-8" standalone="no"?>
<svg width="58px" height="58px" viewBox="0 0 58 58" version="1.1" xmlns="http://www.w3.org/2000/svg" xmlns:xlink="http://www.w3.org/1999/xlink" xmlns:sketch="http://www.bohemiancoding.com/sketch/ns">
    <!-- Generator: Sketch 3.0.4 (8053) - http://www.bohemiancoding.com/sketch -->
    <title>1287-youtube</title>
    <desc>Created with Sketch.</desc>
    <defs></defs>
    <g id="Page-1" stroke="none" stroke-width="1" fill="none" fill-rule="evenodd" sketch:type="MSPage">
        <g id="Glyphish-8-Icons" sketch:type="MSArtboardGroup" transform="translate(-596.000000, -1747.000000)" fill="#000000">
            <g id="1287-youtube" sketch:type="MSLayerGroup" transform="translate(596.036996, 1747.860499)">
                <g id="_x31_287-youtube_x40_2x.png" sketch:type="MSShapeGroup">
                    <path d="M26.853,21.865 L27.415,21.865 C28.658,21.865 29.666,20.953 29.666,19.829 L29.666,16.52 C29.666,15.396 28.658,14.484 27.415,14.484 L26.853,14.484 C25.61,14.484 24.602,15.396 24.602,16.52 L24.602,19.829 C24.602,20.953 25.609,21.865 26.853,21.865 L26.853,21.865 Z M26.289,16.642 C26.289,16.246 26.667,15.926 27.134,15.926 C27.6,15.926 27.978,16.246 27.978,16.642 L27.978,19.982 C27.978,20.377 27.6,20.698 27.134,20.698 C26.667,20.698 26.289,20.377 26.289,19.982 L26.289,16.642 L26.289,16.642 Z M20.24,21.805 L22.21,21.805 L22.21,17.511 L24.461,11.993 L22.632,11.993 L21.226,15.432 L19.819,11.993 L17.85,11.993 L20.241,17.511 L20.241,21.805 L20.24,21.805 Z M32.479,21.942 C33.604,21.942 34.588,20.972 34.588,20.972 L34.588,21.804 L36.276,21.804 L36.276,14.447 L34.588,14.447 L34.588,20.004 C34.588,20.004 34.026,20.696 33.463,20.696 C32.9,20.696 32.901,20.281 32.901,20.281 L32.901,14.447 L31.213,14.447 L31.213,20.835 C31.213,20.835 31.354,21.942 32.479,21.942 L32.479,21.942 Z M28,0 C12.536,0 0,12.536 0,28 C0,43.464 12.536,56 28,56 C43.464,56 56,43.464 56,28 C56,12.536 43.464,0 28,0 L28,0 Z M28,54 C13.641,54 2,42.359 2,28 C2,13.641 13.641,2 28,2 C42.359,2 54,13.641 54,28 C54,42.359 42.359,54 28,54 L28,54 Z M31.354,32.284 C30.989,32.284 30.704,32.507 30.51,32.722 L30.51,38.233 C30.687,38.43 30.953,38.62 31.354,38.62 C32.198,38.62 32.198,37.65 32.198,37.65 L32.198,33.254 C32.197,33.254 32.057,32.284 31.354,32.284 L31.354,32.284 Z M38,24.003 L18,24.003 C15.238,24.003 13,26.242 13,29.004 L13,39.006 C13,41.769 15.238,44.008 18,44.008 L38,44.008 C40.762,44.008 43,41.769 43,39.006 L43,29.004 C43,26.242 40.762,24.003 38,24.003 L38,24.003 Z M21.929,29.799 L19.819,29.799 L19.819,40.006 L17.85,40.006 L17.85,29.799 L15.74,29.799 L15.74,27.998 L21.929,27.998 L21.929,29.799 L21.929,29.799 Z M27.274,40.006 L25.586,40.006 L25.586,39.174 C25.586,39.174 24.602,40.144 23.477,40.144 C22.351,40.144 22.21,39.037 22.21,39.037 L22.21,30.762 L23.898,30.762 L23.898,38.483 C23.898,38.483 23.898,38.899 24.46,38.899 C25.022,38.899 25.585,38.207 25.585,38.207 L25.585,30.763 L27.273,30.763 L27.273,40.006 L27.274,40.006 Z M33.886,37.928 C33.886,37.928 33.886,40.144 32.339,40.144 C31.391,40.144 30.816,39.625 30.51,39.223 L30.51,40.006 L28.681,40.006 L28.681,27.998 L30.51,27.998 L30.51,31.705 C30.793,31.398 31.484,30.761 32.339,30.761 C33.464,30.761 33.886,31.731 33.886,32.977 L33.886,37.928 L33.886,37.928 Z M40.498,33.115 L40.498,35.886 L36.98,35.886 L36.98,37.651 C36.98,37.651 36.98,38.621 37.825,38.621 C38.669,38.621 38.669,37.651 38.669,37.651 L38.669,36.681 L40.498,36.681 L40.498,38.205 C40.498,38.205 40.216,40.143 37.966,40.143 C35.715,40.143 35.293,38.205 35.293,38.205 L35.293,33.115 C35.293,33.115 35.293,30.761 37.966,30.761 C40.639,30.761 40.498,33.115 40.498,33.115 L40.498,33.115 Z M37.825,32.284 C36.98,32.284 36.98,33.254 36.98,33.254 L36.98,34.5 L38.668,34.5 L38.668,33.254 C38.669,33.254 38.669,32.284 37.825,32.284 L37.825,32.284 Z" id="Shape"></path>
                </g>
            </g>
        </g>
    </g>
</svg>