<?xml version="1.0" encoding="iso-8859-1"?>
<!-- Generator: Adobe Illustrator 16.0.4, SVG Export Plug-In . SVG Version: 6.00 Build 0)  -->
<!DOCTYPE svg PUBLIC "-//W3C//DTD SVG 1.1//EN" "http://www.w3.org/Graphics/SVG/1.1/DTD/svg11.dtd">
<svg version="1.1" id="Layer_1" xmlns="http://www.w3.org/2000/svg" xmlns:xlink="http://www.w3.org/1999/xlink" x="0px" y="0px"
	 width="44px" height="44px" viewBox="0 0 44 44" style="enable-background:new 0 0 44 44;" xml:space="preserve">
<g id="_x31_287-youtube_x40_2x.png">
	<g>
		<path d="M29.208,24.801c-0.62,0-0.62,0.68-0.62,0.68v0.873h1.239V25.48C29.827,25.48,29.827,24.801,29.208,24.801z M25.286,17.144
			c0.825,0,1.548-0.697,1.548-0.697v0.598h1.238v-5.292h-1.238v3.996c0,0-0.413,0.499-0.825,0.499c-0.413,0-0.413-0.299-0.413-0.299
			v-4.196h-1.238v4.595C24.357,16.347,24.46,17.144,25.286,17.144z M21.158,17.087h0.412c0.912,0,1.651-0.655,1.651-1.464v-2.38
			c0-0.809-0.739-1.464-1.651-1.464h-0.412c-0.912,0-1.651,0.655-1.651,1.464v2.38C19.507,16.432,20.246,17.087,21.158,17.087z
			 M20.745,13.33c0-0.284,0.277-0.515,0.619-0.515s0.619,0.23,0.619,0.515v2.402c0,0.284-0.277,0.515-0.619,0.515
			s-0.619-0.23-0.619-0.515V13.33z M24.46,24.801c-0.268,0-0.477,0.156-0.619,0.308v3.86c0.13,0.138,0.325,0.271,0.619,0.271
			c0.62,0,0.62-0.679,0.62-0.679v-3.08C25.08,25.48,24.977,24.801,24.46,24.801z M29.336,19H14.664
			c-2.026,0-3.668,1.568-3.668,3.503v7.007c0,1.935,1.642,3.504,3.668,3.504h14.672c2.026,0,3.668-1.569,3.668-3.504v-7.007
			C33.004,20.568,31.362,19,29.336,19z M17.546,23.061h-1.548v7.149h-1.445v-7.149h-1.548v-1.262h4.541V23.061z M21.468,30.21
			h-1.238v-0.582c0,0-0.723,0.679-1.548,0.679c-0.826,0-0.93-0.776-0.93-0.776v-5.797h1.239v5.409c0,0,0,0.291,0.412,0.291
			c0.413,0,0.826-0.485,0.826-0.485v-5.215h1.238V30.21z M26.318,28.754c0,0,0,1.553-1.136,1.553c-0.695,0-1.117-0.363-1.342-0.646
			v0.549H22.5v-8.411h1.341v2.597c0.206-0.213,0.711-0.662,1.342-0.662c0.826,0,1.136,0.68,1.136,1.553S26.318,28.754,26.318,28.754
			z M31.168,25.383v1.941h-2.58v1.236c0,0,0,0.679,0.62,0.679c0.619,0,0.619-0.679,0.619-0.679v-0.68h1.341v1.067
			c0,0-0.206,1.358-1.857,1.358s-1.961-1.358-1.961-1.358v-3.565c0,0,0-1.649,1.961-1.649S31.168,25.383,31.168,25.383z
			 M16.308,17.044h1.444v-3.089l1.651-3.968h-1.341l-1.032,2.474l-1.032-2.474h-1.445l1.755,3.968V17.044z M22,0C9.85,0,0,9.85,0,22
			s9.85,22,22,22s22-9.85,22-22S34.15,0,22,0z M22,42C10.954,42,2,33.046,2,22S10.954,2,22,2s20,8.954,20,20S33.046,42,22,42z"/>
	</g>
</g>
<g>
</g>
<g>
</g>
<g>
</g>
<g>
</g>
<g>
</g>
<g>
</g>
<g>
</g>
<g>
</g>
<g>
</g>
<g>
</g>
<g>
</g>
<g>
</g>
<g>
</g>
<g>
</g>
<g>
</g>
</svg>
