<?xml version="1.0" encoding="iso-8859-1"?>
<!-- Generator: Adobe Illustrator 16.0.4, SVG Export Plug-In . SVG Version: 6.00 Build 0)  -->
<!DOCTYPE svg PUBLIC "-//W3C//DTD SVG 1.1//EN" "http://www.w3.org/Graphics/SVG/1.1/DTD/svg11.dtd">
<svg version="1.1" id="Layer_1" xmlns="http://www.w3.org/2000/svg" xmlns:xlink="http://www.w3.org/1999/xlink" x="0px" y="0px"
	 width="43.985px" height="43.985px" viewBox="0 0 43.985 43.985" style="enable-background:new 0 0 43.985 43.985;"
	 xml:space="preserve">
<g id="_x37_36-zoom-in-toolbar_x40_2x.png">
	<g>
		<path d="M24,16h-6v-6c0-0.553-0.448-1-1-1c-0.553,0-1,0.447-1,1v6h-6c-0.553,0-1,0.447-1,1c0,0.552,0.447,1,1,1h6v6
			c0,0.552,0.447,1,1,1c0.552,0,1-0.448,1-1v-6h6c0.552,0,1-0.448,1-1C25,16.447,24.552,16,24,16z M43.695,42.295L29.688,28.286
			C32.361,25.283,34,21.337,34,17c0-9.389-7.611-17-17-17C7.61,0,0,7.611,0,17s7.61,17,17,17c4.337,0,8.283-1.639,11.286-4.312
			l14.009,14.008c0.387,0.387,1.014,0.387,1.4,0S44.082,42.682,43.695,42.295z M17,32C8.716,32,2,25.284,2,17S8.716,2,17,2
			s15,6.716,15,15S25.284,32,17,32z"/>
	</g>
</g>
<g>
</g>
<g>
</g>
<g>
</g>
<g>
</g>
<g>
</g>
<g>
</g>
<g>
</g>
<g>
</g>
<g>
</g>
<g>
</g>
<g>
</g>
<g>
</g>
<g>
</g>
<g>
</g>
<g>
</g>
</svg>
