<?xml version="1.0" encoding="utf-8"?>
<!-- Generator: Adobe Illustrator 17.1.0, SVG Export Plug-In . SVG Version: 6.00 Build 0)  -->
<!DOCTYPE svg PUBLIC "-//W3C//DTD SVG 1.1//EN" "http://www.w3.org/Graphics/SVG/1.1/DTD/svg11.dtd">
<svg version="1.1" id="Layer_3" xmlns="http://www.w3.org/2000/svg" xmlns:xlink="http://www.w3.org/1999/xlink" x="0px" y="0px" width="56px" height="38px"
	 viewBox="0 0 56 38" enable-background="new 0 0 56 38" xml:space="preserve">
<path d="M55.7,7.3c-0.4-0.4-1-0.4-1.4,0L47.6,14L42,8.4l6.7-6.7c0.4-0.4,0.4-1,0-1.4s-1-0.4-1.4,0L40.6,7l-3.7-3.7l-5.4,5.4
	c-3.7,3.7-3.5,10,0.3,14.4c-0.1,0-0.1,0.1-0.2,0.1L20.9,34.1C19.7,35.3,18,36,16.3,36c-1.7,0-3.4-0.7-4.6-1.9
	c-2.5-2.5-2.5-6.6-0.1-9.1l3.7-3.7c1.6-1.6,2.5-3.7,2.5-6c0-2.3-0.9-4.4-2.5-6C12,6,6.6,5.9,3.3,9.2l-3,3.1c-0.4,0.4-0.4,1,0,1.4
	c0.4,0.4,1,0.4,1.4,0l3-3.1c2.5-2.5,6.7-2.4,9.2,0.1c1.2,1.2,1.9,2.8,1.9,4.6s-0.7,3.4-1.9,4.6l-3.7,3.7C7,26.9,7,32.3,10.3,35.5
	c1.6,1.6,3.7,2.5,6,2.5c2.3,0,4.4-0.9,6-2.5l10.8-10.9c0,0,0.1-0.1,0.1-0.2c2.3,2,5.1,3.1,7.8,3.1c2.5,0,4.9-0.9,6.7-2.7l5.4-5.4
	l-4.1-4l6.7-6.7C56.1,8.3,56.1,7.7,55.7,7.3z M46.2,23.4c-1.3,1.3-3.2,2.1-5.2,2.1c-2.5,0-5.1-1.1-7.1-3.1c-1.8-1.8-2.9-4.1-3-6.5
	c-0.1-2.3,0.6-4.3,2.1-5.8l3.9-4l13.3,13.3L46.2,23.4z"/>
</svg>
