<?xml version="1.0" encoding="utf-8"?>
<!-- Generator: Adobe Illustrator 17.1.0, SVG Export Plug-In . SVG Version: 6.00 Build 0)  -->
<!DOCTYPE svg PUBLIC "-//W3C//DTD SVG 1.1//EN" "http://www.w3.org/Graphics/SVG/1.1/DTD/svg11.dtd">
<svg version="1.1" id="Layer_1" xmlns="http://www.w3.org/2000/svg" xmlns:xlink="http://www.w3.org/1999/xlink" x="0px" y="0px" width="56px" height="32px"
	 viewBox="0 0 56 32" enable-background="new 0 0 56 32" xml:space="preserve">
<g>
	<path d="M40.2,0H15.8C7.1,0,0,7.1,0,15.8v0.3C0,24.9,7.1,32,15.8,32h24.3C48.9,32,56,24.9,56,16.2v-0.3C56,7.1,48.9,0,40.2,0z
		 M54,16.1C54,23.8,47.8,30,40.2,30H15.8C8.2,30,2,23.8,2,16.2v-0.3C2,8.2,8.2,2,15.8,2h24.4C47.8,2,54,8.2,54,15.8V16.1z"/>
	<path d="M40,4c-6.6,0-12,5.4-12,12s5.4,12,12,12s12-5.4,12-12S46.6,4,40,4z M40,26c-5.5,0-10-4.5-10-10S34.5,6,40,6s10,4.5,10,10
		S45.5,26,40,26z"/>
</g>
</svg>
